<svg xmlns="http://www.w3.org/2000/svg" width="30" height="40" viewBox="0 0 30 40" fill="none"><mask id="mask0_2755_2807" style="mask-type:alpha" maskUnits="userSpaceOnUse" x="0" y="0" width="30" height="40"><path d="M16.6667 1.66667C16.6667 0.746192 17.4129 0 18.3333 0H28.3333C29.2538 0 30 0.746192 30 1.66667V38.3333C30 39.2538 29.2538 40 28.3333 40H1.66667C0.746208 40 0 39.2538 0 38.3333V21.6667C0 20.7462 0.746208 20 1.66667 20H8.33337V11.6667C8.33337 10.7462 9.07958 10 10 10H16.6667V1.66667Z" fill="white"></path></mask><g mask="url(#mask0_2755_2807)"><path d="M30 0V40H16.6667V0H30Z" fill="url(#paint0_linear_2755_2807)"></path><g filter="url(#filter0_f_2755_2807)"><path d="M21.6666 11.8346V40.168H8.33328V10.168H19.9999C20.9204 10.168 21.6666 10.9142 21.6666 11.8346Z" fill="black" fill-opacity="0.2"></path></g><g filter="url(#filter1_f_2755_2807)"><path d="M21.6666 12.5026V40.8359H8.33325V10.8359H19.9999C20.9204 10.8359 21.6666 11.5821 21.6666 12.5026Z" fill="black" fill-opacity="0.18"></path></g><path d="M21.6667 11.6667V40H8.33334V10H20C20.9205 10 21.6667 10.7462 21.6667 11.6667Z" fill="url(#paint1_linear_2755_2807)"></path><path d="M0 20V40H13.3333V21.6667C13.3333 20.7462 12.5871 20 11.6667 20H0Z" fill="url(#paint2_linear_2755_2807)"></path></g><defs><filter id="filter0_f_2755_2807" x="7.99995" y="9.83464" width="14" height="30.6667" filterUnits="userSpaceOnUse" color-interpolation-filters="sRGB"><feGaussianBlur stdDeviation="0.166667"></feGaussianBlur></filter><filter id="filter1_f_2755_2807" x="4.99992" y="7.5026" width="20" height="36.6667" filterUnits="userSpaceOnUse" color-interpolation-filters="sRGB"><feGaussianBlur stdDeviation="1.66667"></feGaussianBlur></filter><linearGradient id="paint0_linear_2755_2807" x1="14.4444" y1="-2.1871e-07" x2="32.0272" y2="37.2694" gradientUnits="userSpaceOnUse"><stop stop-color="#E6AD10"></stop><stop offset="1" stop-color="#C87E0E"></stop></linearGradient><linearGradient id="paint1_linear_2755_2807" x1="8.33226" y1="10" x2="23.1191" y2="38.6776" gradientUnits="userSpaceOnUse"><stop stop-color="#F6D751"></stop><stop offset="1" stop-color="#E6AD10"></stop></linearGradient><linearGradient id="paint2_linear_2755_2807" x1="-0.00108311" y1="20" x2="8.17013" y2="39.3656" gradientUnits="userSpaceOnUse"><stop stop-color="#F9E589"></stop><stop offset="1" stop-color="#F6D751"></stop></linearGradient></defs></svg>