<svg xmlns="http://www.w3.org/2000/svg" width="40" height="32" viewBox="0 0 40 32" fill="none"><path d="M26.2501 0.164062L12.0834 15.9974L-2.08325 0.164062H26.2501Z" fill="url(#paint0_linear_2742_1512)"></path><g filter="url(#filter0_f_2742_1512)"><path d="M26.2501 0.332031L-2.08325 31.9987H26.2501L40.4167 16.1654L26.2501 0.332031Z" fill="black" fill-opacity="0.24"></path></g><g filter="url(#filter1_f_2742_1512)"><path d="M26.2501 0.996094L-2.08325 32.6628H26.2501L40.4167 16.8294L26.2501 0.996094Z" fill="black" fill-opacity="0.32"></path></g><path d="M-2.08325 31.8307L26.2501 0.164062L40.4167 15.9974L26.2501 31.8307H-2.08325Z" fill="url(#paint1_linear_2742_1512)"></path><path d="M-2.08325 31.8307L26.2501 0.164062L33.3334 8.08073L12.0834 31.8307H-2.08325Z" fill="url(#paint2_linear_2742_1512)"></path><defs><filter id="filter0_f_2742_1512" x="-2.41659" y="-0.00130209" width="43.1667" height="32.3334" filterUnits="userSpaceOnUse" color-interpolation-filters="sRGB"><feGaussianBlur stdDeviation="0.166667"></feGaussianBlur></filter><filter id="filter1_f_2742_1512" x="-5.41659" y="-2.33724" width="49.1667" height="38.3334" filterUnits="userSpaceOnUse" color-interpolation-filters="sRGB"><feGaussianBlur stdDeviation="1.66667"></feGaussianBlur></filter><linearGradient id="paint0_linear_2742_1512" x1="17.9167" y1="18.9141" x2="12.0834" y2="0.164063" gradientUnits="userSpaceOnUse"><stop stop-color="#0D36A5"></stop><stop offset="1" stop-color="#1152D4"></stop></linearGradient><linearGradient id="paint1_linear_2742_1512" x1="19.1667" y1="0.164062" x2="19.1667" y2="31.8307" gradientUnits="userSpaceOnUse"><stop stop-color="#84CAFF"></stop><stop offset="1" stop-color="#61B1FB"></stop></linearGradient><linearGradient id="paint2_linear_2742_1512" x1="15.6251" y1="0.164062" x2="15.6251" y2="31.8307" gradientUnits="userSpaceOnUse"><stop stop-color="#3B90F5"></stop><stop offset="1" stop-color="#2A78EE"></stop></linearGradient></defs></svg>