<svg xmlns="http://www.w3.org/2000/svg" width="40" height="40" viewBox="0 0 40 40" fill="none"><mask id="mask0_2742_1482" style="mask-type:alpha" maskUnits="userSpaceOnUse" x="-1" y="0" width="41" height="40"><path d="M0.607328 18.3508C-0.217416 19.2933 -0.217417 20.7008 0.607328 21.6433L15.4126 38.5635C16.0766 39.3225 17.2571 39.3225 17.9211 38.5635L19.5155 36.7415L21.2712 38.6568C21.9318 39.3774 23.0678 39.3774 23.7284 38.6568L39.2846 21.6863C40.1607 20.7306 40.1607 19.2636 39.2846 18.3078L23.7284 1.33733C23.0678 0.616722 21.9318 0.616722 21.2712 1.33733L19.5155 3.25264L17.9211 1.43053C17.2571 0.671655 16.0766 0.671655 15.4126 1.43053L0.607328 18.3508Z" fill="white"></path></mask><g mask="url(#mask0_2742_1482)"><path d="M16.6666 39.9961L-0.833374 19.9961L16.6666 -0.00390625L34.1666 19.9961L16.6666 39.9961Z" fill="url(#paint0_linear_2742_1482)"></path><g filter="url(#filter0_f_2742_1482)"><path d="M22.4995 0.828125L40.8328 20.8281L22.4995 40.8281L14.3652 31.9543C13.7811 31.3171 13.7811 30.3391 14.3652 29.7019L21.4672 21.9543C22.0513 21.3171 22.0513 20.3391 21.4672 19.7019L14.3652 11.9543C13.7811 11.3171 13.7811 10.3391 14.3652 9.70192L22.4995 0.828125Z" fill="black" fill-opacity="0.32"></path></g><g filter="url(#filter1_f_2742_1482)"><path d="M22.4995 0.15625L40.8328 20.1562L22.4995 40.1562L14.3652 31.2824C13.7811 30.6452 13.7811 29.6672 14.3652 29.03L21.4672 21.2824C22.0513 20.6452 22.0513 19.6672 21.4672 19.03L14.3652 11.2824C13.7811 10.6452 13.7811 9.66724 14.3652 9.03003L22.4995 0.15625Z" fill="black" fill-opacity="0.24"></path></g><path d="M22.4995 -0.00390625L40.8328 19.9961L22.4995 39.9961L14.3652 31.1223C13.7811 30.4851 13.7811 29.5071 14.3652 28.8699L21.4672 21.1223C22.0513 20.4851 22.0513 19.5071 21.4672 18.8699L14.3652 11.1223C13.7811 10.4851 13.7811 9.50709 14.3652 8.86989L22.4995 -0.00390625Z" fill="url(#paint1_linear_2742_1482)"></path><path d="M30.4381 11.3373C31.0987 10.6167 32.2348 10.6167 32.8953 11.3373L40.8334 19.9971L32.8953 28.6568C32.2348 29.3774 31.0987 29.3774 30.4381 28.6568L24.0486 21.6863C23.1724 20.7306 23.1724 19.2636 24.0486 18.3078L30.4381 11.3373Z" fill="url(#paint2_linear_2742_1482)"></path></g><defs><filter id="filter0_f_2742_1482" x="10.5938" y="-2.50521" width="33.5724" height="46.6667" filterUnits="userSpaceOnUse" color-interpolation-filters="sRGB"><feGaussianBlur stdDeviation="1.66667"></feGaussianBlur></filter><filter id="filter1_f_2742_1482" x="13.6105" y="-0.160417" width="27.5391" height="40.6333" filterUnits="userSpaceOnUse" color-interpolation-filters="sRGB"><feGaussianBlur stdDeviation="0.158333"></feGaussianBlur></filter><linearGradient id="paint0_linear_2742_1482" x1="29.5833" y1="39.9962" x2="6.24996" y2="-17.0872" gradientUnits="userSpaceOnUse"><stop stop-color="#742774"></stop><stop offset="1" stop-color="#BB35A4"></stop></linearGradient><linearGradient id="paint1_linear_2742_1482" x1="13.3333" y1="-0.00380467" x2="32.4999" y2="39.9962" gradientUnits="userSpaceOnUse"><stop stop-color="#E48CC7"></stop><stop offset="1" stop-color="#D467B9"></stop></linearGradient><linearGradient id="paint2_linear_2742_1482" x1="25.8334" y1="12.0805" x2="31.6667" y2="29.9971" gradientUnits="userSpaceOnUse"><stop stop-color="#E9A1CB"></stop><stop offset="1" stop-color="#E48CC7"></stop></linearGradient></defs></svg>