<svg xmlns="http://www.w3.org/2000/svg" width="101" height="101" viewBox="0 0 101 101" fill="none"><path d="M58.0361 40.9375C56.8508 40.9375 56.8508 39.1221 58.0361 39.1221H70.4736C71.6739 39.1221 71.6739 40.9375 70.4736 40.9375H58.0361ZM58.0361 35.8514C56.8508 35.8514 56.8508 34.0361 58.0361 34.0361H61.2467C62.432 34.0361 62.432 35.8514 61.2467 35.8514H58.0361ZM64.9225 35.8514C63.7222 35.8514 63.7222 34.0361 64.9225 34.0361H70.4736C71.6739 34.0361 71.6739 35.8514 70.4736 35.8514H64.9225ZM58.0361 30.7654C56.8508 30.7654 56.8508 28.95 58.0361 28.95H70.4736C71.6739 28.95 71.6739 30.7654 70.4736 30.7654H58.0361ZM24.7891 18.4179H30.4153C30.9254 18.4179 31.3305 18.823 31.3305 19.3331V22.6487H34.8562V16.1374C34.8562 15.6273 35.2613 15.2222 35.7714 15.2222H41.3976C41.9077 15.2222 42.3128 15.6273 42.3128 16.1374V22.6337H45.8385V11.3214C45.8385 10.8113 46.2436 10.4062 46.7537 10.4062H52.3799C52.89 10.4062 53.2951 10.8113 53.2951 11.3214V22.6337H74.5095C76.3249 22.6337 77.7952 24.119 77.7952 25.9194V49.3842C86.632 57.5308 85.1017 71.9638 74.6295 78.01C70.6387 80.3205 65.8527 81.0556 61.0667 79.7954C58.8312 79.1952 56.8208 78.205 55.0804 76.9148H32.0056C31.4955 76.9148 31.0905 76.5097 31.0905 75.9996V71.7537C31.0905 70.1334 32.7408 69.0982 34.3761 69.0982H42.1478V63.232H21.0384C19.223 63.232 17.7527 61.7617 17.7527 59.9463V25.9344C17.7527 24.119 19.223 22.6487 21.0384 22.6487H23.874V19.3331C23.874 18.823 24.279 18.4179 24.7891 18.4179ZM31.3155 24.4641V33.1809C31.3155 33.691 30.9104 34.0961 30.4003 34.0961H24.7891C24.279 34.0961 23.874 33.691 23.874 33.1809V24.4641H21.0384C20.2282 24.4641 19.5681 25.1242 19.5681 25.9344V56.1656H48.9442C53.085 45.3183 66.4078 41.2525 75.9198 47.9289V25.9344C75.9198 25.1242 75.2596 24.4641 74.4495 24.4641H53.2351V33.1809C53.2351 33.691 52.83 34.0961 52.3199 34.0961H46.6937C46.1836 34.0961 45.7785 33.691 45.7785 33.1809V24.4641H42.2528V33.1809C42.2528 33.691 41.8477 34.0961 41.3376 34.0961H35.7114C35.2013 34.0961 34.7962 33.691 34.7962 33.1809V24.4641H31.3155ZM29.5001 20.2332H25.7043V32.2657H29.5001V20.2332ZM51.4197 12.2366H47.6239V32.2657H51.4197V12.2366ZM40.4524 17.0526H36.6566V32.2657H40.4524V17.0526ZM52.1998 53.7501L55.8606 55.8655C56.8658 54.3952 58.2011 53.1649 59.7164 52.2948C62.2819 50.7645 65.5976 50.2694 68.7183 51.1095C71.5539 51.8747 73.8794 53.615 75.4247 55.8655L79.0854 53.7651C74.4645 46.6986 65.0575 44.3581 57.616 48.649C55.4555 49.8943 53.5951 51.6196 52.1998 53.7501ZM54.9454 57.4258L51.2847 55.3254C50.2194 57.4408 49.5593 59.9913 49.5593 62.3468C49.5593 65.4974 50.2344 67.9279 51.7047 70.5835C53.6702 74.1542 57.4209 77.0348 61.4118 78.055C62.687 78.3701 63.4222 78.5201 64.6974 78.5951V74.3793C56.4307 73.7341 51.3447 64.9423 54.9454 57.4258ZM79.9706 55.3254L76.3099 57.4408C78.9954 63.0219 76.91 69.7283 71.5539 72.8189C70.0836 73.6891 68.2682 74.2442 66.5428 74.3793V78.5951C69.1984 78.4451 71.4488 77.7099 73.7143 76.4497C77.2401 74.3943 79.9856 71.0036 81.1409 66.7577C81.1409 66.7277 81.1559 66.6977 81.1559 66.6677C82.2061 62.7219 81.681 58.7161 79.9706 55.3254ZM64.4574 66.9377C68.2832 67.9579 71.6289 63.9071 69.5435 60.2314C68.3582 58.146 65.5976 57.3508 63.3172 58.6411C61.2317 59.8263 60.4366 62.6319 61.6968 64.8223C62.2819 65.8425 63.2421 66.6227 64.4574 66.9377ZM68.8083 68.063C65.7627 69.8183 61.8769 68.7681 60.1215 65.7375C58.3661 62.7819 59.3863 58.8211 62.447 57.0507C65.4926 55.2954 69.3784 56.3306 71.1338 59.3762C72.8892 62.4068 71.8539 66.3076 68.8083 68.063ZM63.0321 72.2488C65.7027 72.969 68.4182 72.5339 70.6387 71.2436C75.4397 68.4681 77.09 62.3318 74.3144 57.5308C71.5389 52.7299 65.4026 51.0795 60.6016 53.8551C58.3811 55.1303 56.6408 57.2758 55.9356 59.9463C54.5103 65.3174 57.676 70.8085 63.0321 72.2488ZM52.92 75.1144C51.6897 73.8842 50.6695 72.4589 49.8594 70.9436H34.4061C33.776 70.9436 32.9358 71.2736 32.9358 71.7837V75.1144H52.92ZM49.0042 69.1282C48.269 67.2828 47.8489 65.2874 47.7739 63.262H43.9931V69.1282H49.0042ZM47.7889 61.4316C47.8639 60.2914 48.044 59.1362 48.359 57.9809H19.5681V59.9613C19.5681 60.7715 20.2282 61.4316 21.0384 61.4316H47.7889ZM26.2294 48.2739L31.4805 43.2029C30.6104 41.5076 31.8406 39.6172 33.626 39.6172C34.2861 39.6172 34.9313 39.8872 35.3513 40.3373C36.1315 41.1175 36.2965 42.3327 35.7264 43.2929L38.277 46.3085C38.9821 46.0385 39.7773 46.1285 40.4074 46.5186L48.314 40.2023C47.5789 37.7718 50.6095 36.0015 52.3649 37.7718C54.3003 39.7372 52.0198 42.8428 49.5893 41.6876C49.5443 41.6576 49.4993 41.6426 49.4543 41.6126L41.5026 47.9739C42.1328 50.3744 39.1471 52.0547 37.4218 50.3144C36.6866 49.5642 36.4916 48.484 36.9567 47.5388L34.3011 44.4032C33.836 44.5382 33.3559 44.5232 32.9058 44.3732L27.5197 49.5492C28.2099 51.1545 27.0246 52.9399 25.2843 52.9399C24.6241 52.9399 23.994 52.6698 23.5589 52.2197C21.6535 50.3294 23.8139 47.2237 26.2294 48.2739ZM33.9861 42.5428C34.3011 42.3177 34.3311 41.8676 34.0611 41.6126C33.4459 40.9975 32.5608 42.0177 33.2509 42.5428C33.476 42.7078 33.776 42.7078 33.9861 42.5428ZM38.712 48.1089C38.0819 48.709 38.9821 49.5792 39.5522 49.0091C40.1223 48.454 39.3122 47.5988 38.712 48.1089ZM25.7193 50.0593C25.1492 49.4892 24.264 50.3594 24.8492 50.9295C25.4193 51.5146 26.2895 50.6444 25.7193 50.0593ZM51.0746 39.0471C50.5195 38.492 49.6793 39.2721 50.1594 39.8722C50.6845 40.5324 51.6747 39.6472 51.0746 39.0471Z" fill="#1742E7"></path></svg>