<svg xmlns="http://www.w3.org/2000/svg" width="81" height="81" viewBox="0 0 81 81" fill="none"><mask id="path-1-inside-1_9975_55652" fill="white"><path fill-rule="evenodd" clip-rule="evenodd" d="M36.7544 9.28338C36.8328 8.94139 37.1367 8.69922 37.4876 8.69922H43.4371C43.7876 8.69922 44.0915 8.94139 44.1698 9.28338L44.8619 12.3053L48.0454 13.8438L50.8336 12.4839C51.1505 12.3295 51.5324 12.4159 51.7522 12.6916L55.4607 17.3537C55.6792 17.6281 55.6787 18.0176 55.4594 18.2915L53.523 20.7118L54.3135 24.151L57.1031 25.4885C57.4196 25.6398 57.5893 25.9903 57.5114 26.3327L56.198 32.1277C56.1201 32.4701 55.8158 32.7136 55.4644 32.7136H52.3753L50.1748 35.4697L50.8664 38.4898C50.9447 38.8322 50.7759 39.1832 50.459 39.3354L45.1018 41.911C44.7862 42.0628 44.4076 41.9764 44.1891 41.7029L42.2514 39.2812H38.7245L36.7872 41.7029C36.5683 41.9764 36.1897 42.0628 35.8741 41.911L30.5169 39.3354C30.2004 39.1832 30.0312 38.8322 30.1095 38.4898L30.8011 35.4719L28.5773 32.7136H25.4856C25.1342 32.7136 24.8298 32.4701 24.7524 32.1277L23.4386 26.3327C23.3612 25.9903 23.5308 25.6398 23.8473 25.4885L26.6369 24.151L27.427 20.7118L25.4909 18.2915C25.2716 18.0176 25.2712 17.6281 25.4896 17.3537L29.1982 12.6916C29.4184 12.415 29.8016 12.3291 30.1185 12.4853L32.8804 13.843L36.0626 12.3054L36.7544 9.28338ZM38.0866 10.2032L37.4478 12.9929C37.3968 13.2158 37.2477 13.4029 37.0418 13.5023L33.2043 15.3569C32.9962 15.4576 32.7531 15.4567 32.5454 15.3546L29.998 14.1021L27.0402 17.8205L28.8284 20.0565C28.9721 20.2355 29.0258 20.4705 28.9743 20.6943L28.0213 24.8412C27.9703 25.0641 27.8199 25.2517 27.6135 25.3506L25.0383 26.5851L26.0862 31.2095H28.9367C29.1641 31.2095 29.3794 31.3125 29.5222 31.4893L32.2008 34.8115C32.3453 34.991 32.4 35.2269 32.3485 35.4516L31.7097 38.2399L35.9863 40.2963L37.7759 38.0591C37.9187 37.8805 38.1345 37.7771 38.3632 37.7771H42.6125C42.8413 37.7771 43.057 37.8805 43.1998 38.0591L44.9894 40.2963L49.266 38.2399L48.6277 35.4516C48.5762 35.2283 48.6299 34.9937 48.7727 34.8142L51.4258 31.4919C51.5681 31.3133 51.7848 31.2095 52.0135 31.2095H54.864L55.9119 26.5851L53.3366 25.3506C53.1298 25.2517 52.9799 25.0641 52.9289 24.8412L51.9759 20.6943C51.9244 20.4705 51.9781 20.2355 52.1213 20.0565L53.91 17.8205L50.9503 14.1003L48.3764 15.3554C48.1692 15.4566 47.9275 15.457 47.7198 15.3568L43.8823 13.5022C43.6768 13.4028 43.5273 13.2157 43.4763 12.9928L42.8375 10.2032L38.0866 10.2032ZM31.0436 25.4968C31.0436 20.3182 35.2419 16.0908 40.4491 16.0908C45.6551 16.0908 49.8551 20.2908 49.8551 25.4968C49.8551 30.7023 45.6551 34.9023 40.4491 34.9023C35.2436 34.9023 31.0436 30.7023 31.0436 25.4968ZM40.4491 17.5948C36.0758 17.5948 32.5476 21.1458 32.5476 25.4968C32.5476 29.8719 36.074 33.3983 40.4491 33.3983C44.8243 33.3983 48.3511 29.8719 48.3511 25.4968C48.3511 21.1216 44.8243 17.5948 40.4491 17.5948Z"></path><path fill-rule="evenodd" clip-rule="evenodd" d="M44.7129 56.927C44.5755 56.7761 44.3772 56.6812 44.1569 56.6812C43.7415 56.6812 43.4049 57.0178 43.4049 57.4332C43.4049 57.5791 43.4457 57.7376 43.545 57.88C43.6122 57.9757 43.6887 58.0371 43.7304 58.0671C44.2971 58.5939 44.8901 59.1767 45.503 59.7788C46.5352 60.7927 47.6234 61.8617 48.7358 62.8115C49.9994 63.8908 51.3674 64.8854 52.8728 65.5958C51.9543 66.2753 51.3634 67.3666 51.3634 68.5855C51.3634 68.9387 51.4113 69.2811 51.5021 69.6057C49.8809 68.8407 48.3513 67.8013 46.8875 66.6138C44.981 65.0668 43.2214 63.2995 41.5254 61.5959C41.2823 61.3515 41.0401 61.1088 40.7998 60.868C40.5061 60.5744 40.0298 60.5744 39.7362 60.868C39.4426 61.1617 39.4426 61.6375 39.7362 61.9311C39.973 62.1684 40.2129 62.4096 40.4555 62.6531C42.1462 64.3519 43.9663 66.1804 45.9398 67.7816C48.2007 69.616 50.7088 71.1917 53.5401 71.9638C53.9129 72.0654 54.3024 71.8676 54.4402 71.5063C54.5781 71.1455 54.4196 70.7386 54.0741 70.5654C53.3489 70.2028 52.8673 69.458 52.8673 68.5856C52.8673 67.3739 53.8485 66.3757 55.0768 66.3757H55.1278C55.506 66.3757 55.8265 66.0941 55.8744 65.7186C55.9223 65.343 55.6833 64.9903 55.3167 64.8954C53.289 64.3708 51.4604 63.1603 49.7124 61.668C48.6247 60.7392 47.6234 59.7544 46.6301 58.7768C45.999 58.1555 45.371 57.5374 44.725 56.9384C44.721 56.9348 44.717 56.9308 44.7129 56.9272L44.7129 56.927Z"></path><path fill-rule="evenodd" clip-rule="evenodd" d="M22.7272 42.4023C22.7782 42.3916 22.8301 42.3858 22.8825 42.3858H23.1399C23.5754 42.3858 24.0074 42.4131 24.4124 42.4381L24.4232 42.439C24.4312 42.4395 24.4393 42.4399 24.4473 42.4408C27.8922 42.7676 30.8869 44.3173 33.544 46.2985C35.9416 48.0864 38.109 50.2613 40.1009 52.2599C40.3095 52.4699 40.5168 52.6771 40.7218 52.8826L40.7231 52.8839C40.7652 52.9256 40.8597 53.02 40.9398 53.1812C41.083 53.4672 41.0293 53.8128 40.8059 54.0419L36.9429 58.0083C36.6587 58.2997 36.194 58.3123 35.8946 58.0365C35.2039 57.4005 34.5311 56.738 33.8556 56.0728C32.7083 54.9434 31.5534 53.806 30.2889 52.7773C28.3185 51.1739 26.2441 49.9846 23.8973 49.7589C23.8789 49.7576 23.8606 49.7558 23.8427 49.7545C23.5517 49.7303 23.3172 49.7106 23.0629 49.7106H22.8825C22.8257 49.7106 22.7693 49.7039 22.7133 49.6913C21.0405 49.305 19.8127 47.8225 19.8127 46.0481C19.8127 44.255 21.0357 42.7599 22.7273 42.4022L22.7272 42.4023ZM22.9671 43.8898C22.0159 44.1248 21.3167 44.9833 21.3167 46.0482C21.3167 47.08 22.0092 47.9479 22.9743 48.2067H23.0625C23.3821 48.2067 23.6775 48.2313 23.9564 48.2546C23.9801 48.2568 24.0034 48.2586 24.0267 48.2608L24.0361 48.2613C26.8123 48.5263 29.1667 49.9252 31.2385 51.6108C32.546 52.6749 33.8083 53.9152 34.9981 55.0853C35.4708 55.5499 35.9323 56.0034 36.3803 56.4304L39.2241 53.5106L39.0414 53.3279C37.0379 51.3176 34.9488 49.2218 32.6453 47.5043C30.1158 45.618 27.3839 44.233 24.3172 43.939C23.9058 43.9135 23.5213 43.8898 23.1403 43.8898L22.9671 43.8898Z"></path><path fill-rule="evenodd" clip-rule="evenodd" d="M14.5911 57.5824C14.9711 57.5959 15.2813 57.8908 15.314 58.2695C15.6676 62.3733 18.7008 65.2055 22.755 65.2055C23.4483 65.2055 24.1077 65.1339 24.7617 64.9705C24.7698 64.9682 24.7783 64.9664 24.7863 64.9647C25.1135 64.8948 25.4421 64.8008 25.7729 64.6827C25.8539 64.6536 25.9394 64.6388 26.0258 64.6388H26.2568C28.2859 64.6388 29.9456 66.2548 29.9456 68.3013C29.9456 69.6926 29.169 70.9249 27.9994 71.5421C27.9676 71.5586 27.9349 71.573 27.9014 71.585C27.5124 71.7238 27.1292 71.833 26.7371 71.9373C25.3549 72.3169 23.8978 72.5045 22.3687 72.5045C14.2353 72.5045 8.27725 66.7525 7.73638 58.6938C7.71041 58.3088 7.98033 57.9664 8.36126 57.9019C8.74174 57.8375 9.10969 58.072 9.21176 58.4444C9.48526 59.4404 10.4056 60.1835 11.5001 60.1835C12.6723 60.1835 13.6473 59.3223 13.8219 58.2171C13.8815 57.8415 14.2114 57.5694 14.5914 57.5828L14.5911 57.5824ZM14.2366 60.5498C13.5369 61.2521 12.5674 61.6872 11.4997 61.6872C10.8247 61.6872 10.1913 61.5149 9.63944 61.2127C11.0839 67.0802 15.9608 71.0006 22.3684 71.0006C23.7744 71.0006 25.0975 70.8278 26.3415 70.4867L26.3469 70.4853C26.7059 70.3891 27.0273 70.2973 27.3415 70.1877C28.0018 69.8184 28.4414 69.1071 28.4414 68.3013C28.4414 67.1026 27.4732 66.1429 26.2574 66.1429H26.1539C25.8088 66.2611 25.4615 66.3577 25.1137 66.4329C24.3294 66.6277 23.5505 66.7096 22.7547 66.7096C18.6504 66.7096 15.3988 64.2449 14.2363 60.5498L14.2366 60.5498Z"></path><path fill-rule="evenodd" clip-rule="evenodd" d="M23.6038 43.028C23.6477 43.413 23.3916 43.7684 23.012 43.849C22.0268 44.0571 21.2936 44.9286 21.2905 46.0168C21.3133 47.1167 22.0542 47.99 23.038 48.1981C23.4118 48.2769 23.6665 48.6233 23.6311 49.0038C23.5958 49.3839 23.2811 49.6771 22.8993 49.6856C18.68 49.7791 15.4628 53.1748 15.3155 57.1376V57.4322C15.3155 57.7227 15.316 57.9975 15.3379 58.2406C15.3442 58.3059 15.3415 58.3717 15.3303 58.4362C15.0111 60.2871 13.4135 61.6617 11.4986 61.6617C9.70805 61.6617 8.20757 60.4478 7.75998 58.8166C7.74655 58.7678 7.73804 58.7182 7.73491 58.6676L7.73401 58.6582C7.70895 58.2773 7.68164 57.8699 7.68164 57.4331V57.0799C7.87189 49.2625 14.1951 42.5232 22.8422 42.3605C23.2299 42.3533 23.5598 42.642 23.6037 43.0274L23.6038 43.028ZM9.18575 57.108V57.4334C9.18575 57.7897 9.20634 58.1281 9.23006 58.4867C9.52594 59.4486 10.4293 60.1581 11.4987 60.1581C12.6441 60.1581 13.602 59.3605 13.8316 58.2683C13.8115 57.9836 13.8115 57.6908 13.8115 57.4482V57.1242C13.8115 57.1152 13.8115 57.1067 13.8119 57.0977C13.9552 53.0615 16.7627 49.5123 20.7126 48.481C20.1459 47.8274 19.8035 46.972 19.7869 46.0374L19.7865 46.024C19.7865 45.3359 19.9669 44.6918 20.2842 44.139C13.8165 45.4094 9.34109 50.8929 9.18571 57.1086L9.18575 57.108Z"></path><path fill-rule="evenodd" clip-rule="evenodd" d="M65.9194 57.4289C66.2999 57.4159 66.6298 57.6889 66.6884 58.0654C66.8639 59.1979 67.8411 60.0555 69.0103 60.0555C70.1012 60.0555 71.0224 59.3161 71.2972 58.2941C71.3979 57.9195 71.7677 57.6831 72.1499 57.7485C72.5327 57.8134 72.8026 58.1589 72.7735 58.5461C72.2032 66.1177 65.8813 72.5058 57.3688 72.5058C56.5908 72.5058 55.8012 72.4525 55.0291 72.3151C54.5121 72.2332 54.0228 72.1244 53.5358 71.9892C53.4893 71.9763 53.444 71.9588 53.4011 71.9373C52.1687 71.3209 51.3626 70.0568 51.3626 68.6118C51.3626 66.5783 53.0085 64.8979 55.0765 64.8979H55.1271C55.184 64.8979 55.2417 64.9042 55.2972 64.9171C55.624 64.9923 55.9575 65.0635 56.2838 65.1105C56.6956 65.162 57.0886 65.2068 57.4718 65.2068C61.6227 65.2068 64.867 61.9691 65.196 58.1168C65.2282 57.7377 65.5389 57.4422 65.9194 57.4292L65.9194 57.4289ZM66.2466 60.3899C65.0322 63.9835 61.6406 66.7104 57.4718 66.7104C56.9817 66.7104 56.5009 66.6531 56.0909 66.6016L56.0774 66.6003C55.7175 66.5488 55.363 66.4745 55.0439 66.4016C53.8303 66.419 52.8666 67.4105 52.8666 68.6115C52.8666 69.4597 53.3218 70.1867 54.013 70.56C54.4257 70.6719 54.838 70.7619 55.2712 70.8304L55.286 70.8331C55.9538 70.9521 56.6552 71.0014 57.3688 71.0014C64.0375 71.0014 69.1856 66.6894 70.7887 61.1267C70.2565 61.4033 69.6518 61.5595 69.0099 61.5595C67.9271 61.5595 66.9473 61.1124 66.2463 60.3899L66.2466 60.3899Z"></path><path fill-rule="evenodd" clip-rule="evenodd" d="M59.7452 43.9757C60.1664 44.5773 60.4135 45.3101 60.4135 46.1006C60.4135 46.9511 60.1306 47.7375 59.6485 48.3647C63.7191 49.1731 66.5536 52.5858 66.7232 57.0437C66.7232 57.0531 66.7236 57.063 66.7236 57.0724V57.4524C66.7236 57.6632 66.7236 57.9108 66.7039 58.1507C66.9148 59.2407 67.8714 60.0549 69.0106 60.0549C70.0862 60.0549 70.9967 59.336 71.2858 58.3365C71.3225 58.0536 71.3234 57.7814 71.3234 57.4327C71.3234 57.3915 71.3149 57.3365 71.2867 57.1941C71.2777 57.1512 71.2733 57.1073 71.2719 57.0634C71.186 53.1798 69.7961 49.8929 67.5011 47.58C65.5392 45.6023 62.8871 44.3078 59.7452 43.9757ZM58.1037 42.3866H58.1163C62.3463 42.3866 65.9748 43.9059 68.5693 46.5209C71.1481 49.1199 72.666 52.7622 72.7743 56.9632C72.7975 57.0818 72.8275 57.2528 72.8275 57.4327V57.4524C72.8275 57.8011 72.8275 58.1816 72.7684 58.5952C72.7644 58.6252 72.7581 58.6552 72.7501 58.6843C72.3043 60.3414 70.8043 61.559 69.0106 61.559C67.0893 61.559 65.4904 60.1498 65.2027 58.2954C65.1924 58.2296 65.191 58.1629 65.1982 58.0971C65.2188 57.9144 65.2197 57.7005 65.2197 57.4328V57.0872C65.0478 52.7376 61.9614 49.6857 57.7555 49.6857H57.5504C57.1762 49.6857 56.858 49.4104 56.8052 49.0402C56.7523 48.6696 56.9797 48.3168 57.3392 48.2121C58.2568 47.944 58.9094 47.1033 58.9094 46.1006C58.9094 44.9883 58.084 44.063 57.0053 43.909C56.6257 43.8549 56.3477 43.5236 56.3602 43.14C56.3728 42.7568 56.6718 42.4444 57.054 42.4149C57.418 42.3867 57.777 42.3866 58.1037 42.3866Z"></path><path fill-rule="evenodd" clip-rule="evenodd" d="M57.1244 42.439C57.1692 42.4368 57.2139 42.4386 57.2583 42.4444C59.0309 42.674 60.4122 44.2358 60.4122 46.1006C60.4122 47.7837 59.281 49.2017 57.7627 49.6543C57.6929 49.6749 57.6208 49.6856 57.5478 49.6856C57.1951 49.6856 56.8581 49.7291 56.4673 49.7814C54.264 50.1042 52.2157 51.2129 50.2833 52.7005C48.3706 54.1732 46.6243 55.9744 44.9847 57.6646L44.927 57.7246C44.666 57.9936 44.2471 58.0294 43.944 57.8088C43.6414 57.5876 43.5474 57.178 43.7238 56.8472C43.8634 56.5849 43.944 56.2461 43.944 55.8875C43.944 54.7059 42.9673 53.7291 41.786 53.7291C41.4346 53.7291 41.1199 53.807 40.8523 53.9498C40.5233 54.1252 40.1159 54.033 39.8939 53.734C39.6723 53.4345 39.7027 53.0178 39.9664 52.7546C40.0855 52.6351 40.205 52.5156 40.325 52.396C44.5102 48.2058 49.1128 43.598 55.5749 42.6019C56.0682 42.52 56.5848 42.4658 57.1246 42.439L57.1244 42.439ZM57.1276 43.9449C56.6651 43.9704 56.2287 44.0178 55.8173 44.0863L55.8079 44.0881C50.4364 44.9144 46.4256 48.4708 42.5472 52.3052C43.951 52.606 45.0652 53.7188 45.3673 55.1221C46.6027 53.8786 47.9357 52.61 49.3663 51.5089C51.4053 49.9391 53.6953 48.666 56.2548 48.2927L56.2642 48.2914L56.2821 48.2887C56.6246 48.2431 57.0109 48.1916 57.4267 48.1831C58.2817 47.885 58.9084 47.0618 58.9084 46.1007C58.9084 45.0009 58.1085 44.1047 57.1277 43.945L57.1276 43.9449Z"></path><path fill-rule="evenodd" clip-rule="evenodd" d="M41.0219 53.8009L40.8795 53.9432L39.7484 55.1004L36.9946 57.9056C36.9941 57.906 36.9937 57.906 36.9937 57.9065C36.8693 58.0341 36.7435 58.1634 36.6168 58.2937C34.2909 60.6863 31.543 63.5135 28.3455 65.188C29.337 65.8393 29.9963 66.9602 29.9963 68.2494C29.9963 68.5229 29.9654 68.7897 29.9072 69.0466C33.4157 67.1952 36.3651 64.2417 39.3245 61.2785C39.4695 61.1335 39.6141 60.9884 39.7591 60.8434C39.76 60.8429 39.7609 60.842 39.7618 60.8412L42.6647 57.8864L42.6673 57.8841L43.5872 56.9392C43.6512 56.8577 43.7139 56.7892 43.7685 56.7324C43.8813 56.4844 43.9453 56.1805 43.9453 55.8613C43.9453 54.6813 42.9668 53.6934 41.8451 53.6258C41.5407 53.6281 41.264 53.6894 41.0219 53.8009ZM40.2228 52.5193C40.7273 52.2502 41.2887 52.1218 41.8643 52.1218C41.8773 52.1218 41.8898 52.1222 41.9023 52.1227C43.8124 52.2198 45.4493 53.854 45.4493 55.8612C45.4493 56.4302 45.324 57.0184 45.0518 57.5287C45.0169 57.594 44.9726 57.654 44.9202 57.7064C44.841 57.7856 44.7993 57.8286 44.7582 57.8837C44.7389 57.9092 44.7179 57.9338 44.6955 57.9571L43.7425 58.9356L43.7398 58.9383L40.8248 61.9047C40.6529 62.0766 40.4806 62.2494 40.3074 62.4231C36.7564 65.9822 32.9206 69.8263 27.944 71.5363C27.5738 71.6634 27.1682 71.4857 27.0111 71.1276C26.8535 70.7695 26.9968 70.351 27.3406 70.1643C28.0156 69.7977 28.4928 69.0636 28.4928 68.2493C28.4928 67.0466 27.5201 66.0913 26.3343 66.0913H26.1038C25.7354 66.0913 25.4203 65.8246 25.3607 65.4611C25.3007 65.0976 25.5134 64.7444 25.8621 64.6267C29.5746 63.3733 32.7546 60.1061 35.6334 57.1477C35.7283 57.0501 35.8232 56.953 35.9176 56.8559L35.9194 56.8541L38.6746 54.0479L39.8133 52.8827L40.0452 52.6509C40.098 52.5985 40.1576 52.5542 40.2234 52.5193L40.2228 52.5193Z"></path><path fill-rule="evenodd" clip-rule="evenodd" d="M44.6911 22.6741C44.9839 22.9691 44.9825 23.4449 44.688 23.7376L40.3607 28.0389C40.2193 28.1799 40.0273 28.2582 39.8276 28.2573C39.628 28.2569 39.4368 28.1763 39.2963 28.0344L36.7466 25.4591C36.4543 25.1637 36.4566 24.6879 36.752 24.3956C37.047 24.1033 37.5232 24.1055 37.8155 24.401L39.8348 26.4408L43.6276 22.671C43.9221 22.3782 44.3984 22.3795 44.6911 22.6741Z"></path></mask><path fill-rule="evenodd" clip-rule="evenodd" d="M36.7544 9.28338C36.8328 8.94139 37.1367 8.69922 37.4876 8.69922H43.4371C43.7876 8.69922 44.0915 8.94139 44.1698 9.28338L44.8619 12.3053L48.0454 13.8438L50.8336 12.4839C51.1505 12.3295 51.5324 12.4159 51.7522 12.6916L55.4607 17.3537C55.6792 17.6281 55.6787 18.0176 55.4594 18.2915L53.523 20.7118L54.3135 24.151L57.1031 25.4885C57.4196 25.6398 57.5893 25.9903 57.5114 26.3327L56.198 32.1277C56.1201 32.4701 55.8158 32.7136 55.4644 32.7136H52.3753L50.1748 35.4697L50.8664 38.4898C50.9447 38.8322 50.7759 39.1832 50.459 39.3354L45.1018 41.911C44.7862 42.0628 44.4076 41.9764 44.1891 41.7029L42.2514 39.2812H38.7245L36.7872 41.7029C36.5683 41.9764 36.1897 42.0628 35.8741 41.911L30.5169 39.3354C30.2004 39.1832 30.0312 38.8322 30.1095 38.4898L30.8011 35.4719L28.5773 32.7136H25.4856C25.1342 32.7136 24.8298 32.4701 24.7524 32.1277L23.4386 26.3327C23.3612 25.9903 23.5308 25.6398 23.8473 25.4885L26.6369 24.151L27.427 20.7118L25.4909 18.2915C25.2716 18.0176 25.2712 17.6281 25.4896 17.3537L29.1982 12.6916C29.4184 12.415 29.8016 12.3291 30.1185 12.4853L32.8804 13.843L36.0626 12.3054L36.7544 9.28338ZM38.0866 10.2032L37.4478 12.9929C37.3968 13.2158 37.2477 13.4029 37.0418 13.5023L33.2043 15.3569C32.9962 15.4576 32.7531 15.4567 32.5454 15.3546L29.998 14.1021L27.0402 17.8205L28.8284 20.0565C28.9721 20.2355 29.0258 20.4705 28.9743 20.6943L28.0213 24.8412C27.9703 25.0641 27.8199 25.2517 27.6135 25.3506L25.0383 26.5851L26.0862 31.2095H28.9367C29.1641 31.2095 29.3794 31.3125 29.5222 31.4893L32.2008 34.8115C32.3453 34.991 32.4 35.2269 32.3485 35.4516L31.7097 38.2399L35.9863 40.2963L37.7759 38.0591C37.9187 37.8805 38.1345 37.7771 38.3632 37.7771H42.6125C42.8413 37.7771 43.057 37.8805 43.1998 38.0591L44.9894 40.2963L49.266 38.2399L48.6277 35.4516C48.5762 35.2283 48.6299 34.9937 48.7727 34.8142L51.4258 31.4919C51.5681 31.3133 51.7848 31.2095 52.0135 31.2095H54.864L55.9119 26.5851L53.3366 25.3506C53.1298 25.2517 52.9799 25.0641 52.9289 24.8412L51.9759 20.6943C51.9244 20.4705 51.9781 20.2355 52.1213 20.0565L53.91 17.8205L50.9503 14.1003L48.3764 15.3554C48.1692 15.4566 47.9275 15.457 47.7198 15.3568L43.8823 13.5022C43.6768 13.4028 43.5273 13.2157 43.4763 12.9928L42.8375 10.2032L38.0866 10.2032ZM31.0436 25.4968C31.0436 20.3182 35.2419 16.0908 40.4491 16.0908C45.6551 16.0908 49.8551 20.2908 49.8551 25.4968C49.8551 30.7023 45.6551 34.9023 40.4491 34.9023C35.2436 34.9023 31.0436 30.7023 31.0436 25.4968ZM40.4491 17.5948C36.0758 17.5948 32.5476 21.1458 32.5476 25.4968C32.5476 29.8719 36.074 33.3983 40.4491 33.3983C44.8243 33.3983 48.3511 29.8719 48.3511 25.4968C48.3511 21.1216 44.8243 17.5948 40.4491 17.5948Z" fill="#1742E7"></path><path fill-rule="evenodd" clip-rule="evenodd" d="M44.7129 56.927C44.5755 56.7761 44.3772 56.6812 44.1569 56.6812C43.7415 56.6812 43.4049 57.0178 43.4049 57.4332C43.4049 57.5791 43.4457 57.7376 43.545 57.88C43.6122 57.9757 43.6887 58.0371 43.7304 58.0671C44.2971 58.5939 44.8901 59.1767 45.503 59.7788C46.5352 60.7927 47.6234 61.8617 48.7358 62.8115C49.9994 63.8908 51.3674 64.8854 52.8728 65.5958C51.9543 66.2753 51.3634 67.3666 51.3634 68.5855C51.3634 68.9387 51.4113 69.2811 51.5021 69.6057C49.8809 68.8407 48.3513 67.8013 46.8875 66.6138C44.981 65.0668 43.2214 63.2995 41.5254 61.5959C41.2823 61.3515 41.0401 61.1088 40.7998 60.868C40.5061 60.5744 40.0298 60.5744 39.7362 60.868C39.4426 61.1617 39.4426 61.6375 39.7362 61.9311C39.973 62.1684 40.2129 62.4096 40.4555 62.6531C42.1462 64.3519 43.9663 66.1804 45.9398 67.7816C48.2007 69.616 50.7088 71.1917 53.5401 71.9638C53.9129 72.0654 54.3024 71.8676 54.4402 71.5063C54.5781 71.1455 54.4196 70.7386 54.0741 70.5654C53.3489 70.2028 52.8673 69.458 52.8673 68.5856C52.8673 67.3739 53.8485 66.3757 55.0768 66.3757H55.1278C55.506 66.3757 55.8265 66.0941 55.8744 65.7186C55.9223 65.343 55.6833 64.9903 55.3167 64.8954C53.289 64.3708 51.4604 63.1603 49.7124 61.668C48.6247 60.7392 47.6234 59.7544 46.6301 58.7768C45.999 58.1555 45.371 57.5374 44.725 56.9384C44.721 56.9348 44.717 56.9308 44.7129 56.9272L44.7129 56.927Z" fill="#1742E7"></path><path fill-rule="evenodd" clip-rule="evenodd" d="M22.7272 42.4023C22.7782 42.3916 22.8301 42.3858 22.8825 42.3858H23.1399C23.5754 42.3858 24.0074 42.4131 24.4124 42.4381L24.4232 42.439C24.4312 42.4395 24.4393 42.4399 24.4473 42.4408C27.8922 42.7676 30.8869 44.3173 33.544 46.2985C35.9416 48.0864 38.109 50.2613 40.1009 52.2599C40.3095 52.4699 40.5168 52.6771 40.7218 52.8826L40.7231 52.8839C40.7652 52.9256 40.8597 53.02 40.9398 53.1812C41.083 53.4672 41.0293 53.8128 40.8059 54.0419L36.9429 58.0083C36.6587 58.2997 36.194 58.3123 35.8946 58.0365C35.2039 57.4005 34.5311 56.738 33.8556 56.0728C32.7083 54.9434 31.5534 53.806 30.2889 52.7773C28.3185 51.1739 26.2441 49.9846 23.8973 49.7589C23.8789 49.7576 23.8606 49.7558 23.8427 49.7545C23.5517 49.7303 23.3172 49.7106 23.0629 49.7106H22.8825C22.8257 49.7106 22.7693 49.7039 22.7133 49.6913C21.0405 49.305 19.8127 47.8225 19.8127 46.0481C19.8127 44.255 21.0357 42.7599 22.7273 42.4022L22.7272 42.4023ZM22.9671 43.8898C22.0159 44.1248 21.3167 44.9833 21.3167 46.0482C21.3167 47.08 22.0092 47.9479 22.9743 48.2067H23.0625C23.3821 48.2067 23.6775 48.2313 23.9564 48.2546C23.9801 48.2568 24.0034 48.2586 24.0267 48.2608L24.0361 48.2613C26.8123 48.5263 29.1667 49.9252 31.2385 51.6108C32.546 52.6749 33.8083 53.9152 34.9981 55.0853C35.4708 55.5499 35.9323 56.0034 36.3803 56.4304L39.2241 53.5106L39.0414 53.3279C37.0379 51.3176 34.9488 49.2218 32.6453 47.5043C30.1158 45.618 27.3839 44.233 24.3172 43.939C23.9058 43.9135 23.5213 43.8898 23.1403 43.8898L22.9671 43.8898Z" fill="#1742E7"></path><path fill-rule="evenodd" clip-rule="evenodd" d="M14.5911 57.5824C14.9711 57.5959 15.2813 57.8908 15.314 58.2695C15.6676 62.3733 18.7008 65.2055 22.755 65.2055C23.4483 65.2055 24.1077 65.1339 24.7617 64.9705C24.7698 64.9682 24.7783 64.9664 24.7863 64.9647C25.1135 64.8948 25.4421 64.8008 25.7729 64.6827C25.8539 64.6536 25.9394 64.6388 26.0258 64.6388H26.2568C28.2859 64.6388 29.9456 66.2548 29.9456 68.3013C29.9456 69.6926 29.169 70.9249 27.9994 71.5421C27.9676 71.5586 27.9349 71.573 27.9014 71.585C27.5124 71.7238 27.1292 71.833 26.7371 71.9373C25.3549 72.3169 23.8978 72.5045 22.3687 72.5045C14.2353 72.5045 8.27725 66.7525 7.73638 58.6938C7.71041 58.3088 7.98033 57.9664 8.36126 57.9019C8.74174 57.8375 9.10969 58.072 9.21176 58.4444C9.48526 59.4404 10.4056 60.1835 11.5001 60.1835C12.6723 60.1835 13.6473 59.3223 13.8219 58.2171C13.8815 57.8415 14.2114 57.5694 14.5914 57.5828L14.5911 57.5824ZM14.2366 60.5498C13.5369 61.2521 12.5674 61.6872 11.4997 61.6872C10.8247 61.6872 10.1913 61.5149 9.63944 61.2127C11.0839 67.0802 15.9608 71.0006 22.3684 71.0006C23.7744 71.0006 25.0975 70.8278 26.3415 70.4867L26.3469 70.4853C26.7059 70.3891 27.0273 70.2973 27.3415 70.1877C28.0018 69.8184 28.4414 69.1071 28.4414 68.3013C28.4414 67.1026 27.4732 66.1429 26.2574 66.1429H26.1539C25.8088 66.2611 25.4615 66.3577 25.1137 66.4329C24.3294 66.6277 23.5505 66.7096 22.7547 66.7096C18.6504 66.7096 15.3988 64.2449 14.2363 60.5498L14.2366 60.5498Z" fill="#1742E7"></path><path fill-rule="evenodd" clip-rule="evenodd" d="M23.6038 43.028C23.6477 43.413 23.3916 43.7684 23.012 43.849C22.0268 44.0571 21.2936 44.9286 21.2905 46.0168C21.3133 47.1167 22.0542 47.99 23.038 48.1981C23.4118 48.2769 23.6665 48.6233 23.6311 49.0038C23.5958 49.3839 23.2811 49.6771 22.8993 49.6856C18.68 49.7791 15.4628 53.1748 15.3155 57.1376V57.4322C15.3155 57.7227 15.316 57.9975 15.3379 58.2406C15.3442 58.3059 15.3415 58.3717 15.3303 58.4362C15.0111 60.2871 13.4135 61.6617 11.4986 61.6617C9.70805 61.6617 8.20757 60.4478 7.75998 58.8166C7.74655 58.7678 7.73804 58.7182 7.73491 58.6676L7.73401 58.6582C7.70895 58.2773 7.68164 57.8699 7.68164 57.4331V57.0799C7.87189 49.2625 14.1951 42.5232 22.8422 42.3605C23.2299 42.3533 23.5598 42.642 23.6037 43.0274L23.6038 43.028ZM9.18575 57.108V57.4334C9.18575 57.7897 9.20634 58.1281 9.23006 58.4867C9.52594 59.4486 10.4293 60.1581 11.4987 60.1581C12.6441 60.1581 13.602 59.3605 13.8316 58.2683C13.8115 57.9836 13.8115 57.6908 13.8115 57.4482V57.1242C13.8115 57.1152 13.8115 57.1067 13.8119 57.0977C13.9552 53.0615 16.7627 49.5123 20.7126 48.481C20.1459 47.8274 19.8035 46.972 19.7869 46.0374L19.7865 46.024C19.7865 45.3359 19.9669 44.6918 20.2842 44.139C13.8165 45.4094 9.34109 50.8929 9.18571 57.1086L9.18575 57.108Z" fill="#1742E7"></path><path fill-rule="evenodd" clip-rule="evenodd" d="M65.9194 57.4289C66.2999 57.4159 66.6298 57.6889 66.6884 58.0654C66.8639 59.1979 67.8411 60.0555 69.0103 60.0555C70.1012 60.0555 71.0224 59.3161 71.2972 58.2941C71.3979 57.9195 71.7677 57.6831 72.1499 57.7485C72.5327 57.8134 72.8026 58.1589 72.7735 58.5461C72.2032 66.1177 65.8813 72.5058 57.3688 72.5058C56.5908 72.5058 55.8012 72.4525 55.0291 72.3151C54.5121 72.2332 54.0228 72.1244 53.5358 71.9892C53.4893 71.9763 53.444 71.9588 53.4011 71.9373C52.1687 71.3209 51.3626 70.0568 51.3626 68.6118C51.3626 66.5783 53.0085 64.8979 55.0765 64.8979H55.1271C55.184 64.8979 55.2417 64.9042 55.2972 64.9171C55.624 64.9923 55.9575 65.0635 56.2838 65.1105C56.6956 65.162 57.0886 65.2068 57.4718 65.2068C61.6227 65.2068 64.867 61.9691 65.196 58.1168C65.2282 57.7377 65.5389 57.4422 65.9194 57.4292L65.9194 57.4289ZM66.2466 60.3899C65.0322 63.9835 61.6406 66.7104 57.4718 66.7104C56.9817 66.7104 56.5009 66.6531 56.0909 66.6016L56.0774 66.6003C55.7175 66.5488 55.363 66.4745 55.0439 66.4016C53.8303 66.419 52.8666 67.4105 52.8666 68.6115C52.8666 69.4597 53.3218 70.1867 54.013 70.56C54.4257 70.6719 54.838 70.7619 55.2712 70.8304L55.286 70.8331C55.9538 70.9521 56.6552 71.0014 57.3688 71.0014C64.0375 71.0014 69.1856 66.6894 70.7887 61.1267C70.2565 61.4033 69.6518 61.5595 69.0099 61.5595C67.9271 61.5595 66.9473 61.1124 66.2463 60.3899L66.2466 60.3899Z" fill="#1742E7"></path><path fill-rule="evenodd" clip-rule="evenodd" d="M59.7452 43.9757C60.1664 44.5773 60.4135 45.3101 60.4135 46.1006C60.4135 46.9511 60.1306 47.7375 59.6485 48.3647C63.7191 49.1731 66.5536 52.5858 66.7232 57.0437C66.7232 57.0531 66.7236 57.063 66.7236 57.0724V57.4524C66.7236 57.6632 66.7236 57.9108 66.7039 58.1507C66.9148 59.2407 67.8714 60.0549 69.0106 60.0549C70.0862 60.0549 70.9967 59.336 71.2858 58.3365C71.3225 58.0536 71.3234 57.7814 71.3234 57.4327C71.3234 57.3915 71.3149 57.3365 71.2867 57.1941C71.2777 57.1512 71.2733 57.1073 71.2719 57.0634C71.186 53.1798 69.7961 49.8929 67.5011 47.58C65.5392 45.6023 62.8871 44.3078 59.7452 43.9757ZM58.1037 42.3866H58.1163C62.3463 42.3866 65.9748 43.9059 68.5693 46.5209C71.1481 49.1199 72.666 52.7622 72.7743 56.9632C72.7975 57.0818 72.8275 57.2528 72.8275 57.4327V57.4524C72.8275 57.8011 72.8275 58.1816 72.7684 58.5952C72.7644 58.6252 72.7581 58.6552 72.7501 58.6843C72.3043 60.3414 70.8043 61.559 69.0106 61.559C67.0893 61.559 65.4904 60.1498 65.2027 58.2954C65.1924 58.2296 65.191 58.1629 65.1982 58.0971C65.2188 57.9144 65.2197 57.7005 65.2197 57.4328V57.0872C65.0478 52.7376 61.9614 49.6857 57.7555 49.6857H57.5504C57.1762 49.6857 56.858 49.4104 56.8052 49.0402C56.7523 48.6696 56.9797 48.3168 57.3392 48.2121C58.2568 47.944 58.9094 47.1033 58.9094 46.1006C58.9094 44.9883 58.084 44.063 57.0053 43.909C56.6257 43.8549 56.3477 43.5236 56.3602 43.14C56.3728 42.7568 56.6718 42.4444 57.054 42.4149C57.418 42.3867 57.777 42.3866 58.1037 42.3866Z" fill="#1742E7"></path><path fill-rule="evenodd" clip-rule="evenodd" d="M57.1244 42.439C57.1692 42.4368 57.2139 42.4386 57.2583 42.4444C59.0309 42.674 60.4122 44.2358 60.4122 46.1006C60.4122 47.7837 59.281 49.2017 57.7627 49.6543C57.6929 49.6749 57.6208 49.6856 57.5478 49.6856C57.1951 49.6856 56.8581 49.7291 56.4673 49.7814C54.264 50.1042 52.2157 51.2129 50.2833 52.7005C48.3706 54.1732 46.6243 55.9744 44.9847 57.6646L44.927 57.7246C44.666 57.9936 44.2471 58.0294 43.944 57.8088C43.6414 57.5876 43.5474 57.178 43.7238 56.8472C43.8634 56.5849 43.944 56.2461 43.944 55.8875C43.944 54.7059 42.9673 53.7291 41.786 53.7291C41.4346 53.7291 41.1199 53.807 40.8523 53.9498C40.5233 54.1252 40.1159 54.033 39.8939 53.734C39.6723 53.4345 39.7027 53.0178 39.9664 52.7546C40.0855 52.6351 40.205 52.5156 40.325 52.396C44.5102 48.2058 49.1128 43.598 55.5749 42.6019C56.0682 42.52 56.5848 42.4658 57.1246 42.439L57.1244 42.439ZM57.1276 43.9449C56.6651 43.9704 56.2287 44.0178 55.8173 44.0863L55.8079 44.0881C50.4364 44.9144 46.4256 48.4708 42.5472 52.3052C43.951 52.606 45.0652 53.7188 45.3673 55.1221C46.6027 53.8786 47.9357 52.61 49.3663 51.5089C51.4053 49.9391 53.6953 48.666 56.2548 48.2927L56.2642 48.2914L56.2821 48.2887C56.6246 48.2431 57.0109 48.1916 57.4267 48.1831C58.2817 47.885 58.9084 47.0618 58.9084 46.1007C58.9084 45.0009 58.1085 44.1047 57.1277 43.945L57.1276 43.9449Z" fill="#1742E7"></path><path fill-rule="evenodd" clip-rule="evenodd" d="M41.0219 53.8009L40.8795 53.9432L39.7484 55.1004L36.9946 57.9056C36.9941 57.906 36.9937 57.906 36.9937 57.9065C36.8693 58.0341 36.7435 58.1634 36.6168 58.2937C34.2909 60.6863 31.543 63.5135 28.3455 65.188C29.337 65.8393 29.9963 66.9602 29.9963 68.2494C29.9963 68.5229 29.9654 68.7897 29.9072 69.0466C33.4157 67.1952 36.3651 64.2417 39.3245 61.2785C39.4695 61.1335 39.6141 60.9884 39.7591 60.8434C39.76 60.8429 39.7609 60.842 39.7618 60.8412L42.6647 57.8864L42.6673 57.8841L43.5872 56.9392C43.6512 56.8577 43.7139 56.7892 43.7685 56.7324C43.8813 56.4844 43.9453 56.1805 43.9453 55.8613C43.9453 54.6813 42.9668 53.6934 41.8451 53.6258C41.5407 53.6281 41.264 53.6894 41.0219 53.8009ZM40.2228 52.5193C40.7273 52.2502 41.2887 52.1218 41.8643 52.1218C41.8773 52.1218 41.8898 52.1222 41.9023 52.1227C43.8124 52.2198 45.4493 53.854 45.4493 55.8612C45.4493 56.4302 45.324 57.0184 45.0518 57.5287C45.0169 57.594 44.9726 57.654 44.9202 57.7064C44.841 57.7856 44.7993 57.8286 44.7582 57.8837C44.7389 57.9092 44.7179 57.9338 44.6955 57.9571L43.7425 58.9356L43.7398 58.9383L40.8248 61.9047C40.6529 62.0766 40.4806 62.2494 40.3074 62.4231C36.7564 65.9822 32.9206 69.8263 27.944 71.5363C27.5738 71.6634 27.1682 71.4857 27.0111 71.1276C26.8535 70.7695 26.9968 70.351 27.3406 70.1643C28.0156 69.7977 28.4928 69.0636 28.4928 68.2493C28.4928 67.0466 27.5201 66.0913 26.3343 66.0913H26.1038C25.7354 66.0913 25.4203 65.8246 25.3607 65.4611C25.3007 65.0976 25.5134 64.7444 25.8621 64.6267C29.5746 63.3733 32.7546 60.1061 35.6334 57.1477C35.7283 57.0501 35.8232 56.953 35.9176 56.8559L35.9194 56.8541L38.6746 54.0479L39.8133 52.8827L40.0452 52.6509C40.098 52.5985 40.1576 52.5542 40.2234 52.5193L40.2228 52.5193Z" fill="#1742E7"></path><path fill-rule="evenodd" clip-rule="evenodd" d="M44.6911 22.6741C44.9839 22.9691 44.9825 23.4449 44.688 23.7376L40.3607 28.0389C40.2193 28.1799 40.0273 28.2582 39.8276 28.2573C39.628 28.2569 39.4368 28.1763 39.2963 28.0344L36.7466 25.4591C36.4543 25.1637 36.4566 24.6879 36.752 24.3956C37.047 24.1033 37.5232 24.1055 37.8155 24.401L39.8348 26.4408L43.6276 22.671C43.9221 22.3782 44.3984 22.3795 44.6911 22.6741Z" fill="#1742E7"></path><path fill-rule="evenodd" clip-rule="evenodd" d="M36.7544 9.28338C36.8328 8.94139 37.1367 8.69922 37.4876 8.69922H43.4371C43.7876 8.69922 44.0915 8.94139 44.1698 9.28338L44.8619 12.3053L48.0454 13.8438L50.8336 12.4839C51.1505 12.3295 51.5324 12.4159 51.7522 12.6916L55.4607 17.3537C55.6792 17.6281 55.6787 18.0176 55.4594 18.2915L53.523 20.7118L54.3135 24.151L57.1031 25.4885C57.4196 25.6398 57.5893 25.9903 57.5114 26.3327L56.198 32.1277C56.1201 32.4701 55.8158 32.7136 55.4644 32.7136H52.3753L50.1748 35.4697L50.8664 38.4898C50.9447 38.8322 50.7759 39.1832 50.459 39.3354L45.1018 41.911C44.7862 42.0628 44.4076 41.9764 44.1891 41.7029L42.2514 39.2812H38.7245L36.7872 41.7029C36.5683 41.9764 36.1897 42.0628 35.8741 41.911L30.5169 39.3354C30.2004 39.1832 30.0312 38.8322 30.1095 38.4898L30.8011 35.4719L28.5773 32.7136H25.4856C25.1342 32.7136 24.8298 32.4701 24.7524 32.1277L23.4386 26.3327C23.3612 25.9903 23.5308 25.6398 23.8473 25.4885L26.6369 24.151L27.427 20.7118L25.4909 18.2915C25.2716 18.0176 25.2712 17.6281 25.4896 17.3537L29.1982 12.6916C29.4184 12.415 29.8016 12.3291 30.1185 12.4853L32.8804 13.843L36.0626 12.3054L36.7544 9.28338ZM38.0866 10.2032L37.4478 12.9929C37.3968 13.2158 37.2477 13.4029 37.0418 13.5023L33.2043 15.3569C32.9962 15.4576 32.7531 15.4567 32.5454 15.3546L29.998 14.1021L27.0402 17.8205L28.8284 20.0565C28.9721 20.2355 29.0258 20.4705 28.9743 20.6943L28.0213 24.8412C27.9703 25.0641 27.8199 25.2517 27.6135 25.3506L25.0383 26.5851L26.0862 31.2095H28.9367C29.1641 31.2095 29.3794 31.3125 29.5222 31.4893L32.2008 34.8115C32.3453 34.991 32.4 35.2269 32.3485 35.4516L31.7097 38.2399L35.9863 40.2963L37.7759 38.0591C37.9187 37.8805 38.1345 37.7771 38.3632 37.7771H42.6125C42.8413 37.7771 43.057 37.8805 43.1998 38.0591L44.9894 40.2963L49.266 38.2399L48.6277 35.4516C48.5762 35.2283 48.6299 34.9937 48.7727 34.8142L51.4258 31.4919C51.5681 31.3133 51.7848 31.2095 52.0135 31.2095H54.864L55.9119 26.5851L53.3366 25.3506C53.1298 25.2517 52.9799 25.0641 52.9289 24.8412L51.9759 20.6943C51.9244 20.4705 51.9781 20.2355 52.1213 20.0565L53.91 17.8205L50.9503 14.1003L48.3764 15.3554C48.1692 15.4566 47.9275 15.457 47.7198 15.3568L43.8823 13.5022C43.6768 13.4028 43.5273 13.2157 43.4763 12.9928L42.8375 10.2032L38.0866 10.2032ZM31.0436 25.4968C31.0436 20.3182 35.2419 16.0908 40.4491 16.0908C45.6551 16.0908 49.8551 20.2908 49.8551 25.4968C49.8551 30.7023 45.6551 34.9023 40.4491 34.9023C35.2436 34.9023 31.0436 30.7023 31.0436 25.4968ZM40.4491 17.5948C36.0758 17.5948 32.5476 21.1458 32.5476 25.4968C32.5476 29.8719 36.074 33.3983 40.4491 33.3983C44.8243 33.3983 48.3511 29.8719 48.3511 25.4968C48.3511 21.1216 44.8243 17.5948 40.4491 17.5948Z" stroke="#1742E7" stroke-width="0.649948" mask="url(#path-1-inside-1_9975_55652)"></path><path fill-rule="evenodd" clip-rule="evenodd" d="M44.7129 56.927C44.5755 56.7761 44.3772 56.6812 44.1569 56.6812C43.7415 56.6812 43.4049 57.0178 43.4049 57.4332C43.4049 57.5791 43.4457 57.7376 43.545 57.88C43.6122 57.9757 43.6887 58.0371 43.7304 58.0671C44.2971 58.5939 44.8901 59.1767 45.503 59.7788C46.5352 60.7927 47.6234 61.8617 48.7358 62.8115C49.9994 63.8908 51.3674 64.8854 52.8728 65.5958C51.9543 66.2753 51.3634 67.3666 51.3634 68.5855C51.3634 68.9387 51.4113 69.2811 51.5021 69.6057C49.8809 68.8407 48.3513 67.8013 46.8875 66.6138C44.981 65.0668 43.2214 63.2995 41.5254 61.5959C41.2823 61.3515 41.0401 61.1088 40.7998 60.868C40.5061 60.5744 40.0298 60.5744 39.7362 60.868C39.4426 61.1617 39.4426 61.6375 39.7362 61.9311C39.973 62.1684 40.2129 62.4096 40.4555 62.6531C42.1462 64.3519 43.9663 66.1804 45.9398 67.7816C48.2007 69.616 50.7088 71.1917 53.5401 71.9638C53.9129 72.0654 54.3024 71.8676 54.4402 71.5063C54.5781 71.1455 54.4196 70.7386 54.0741 70.5654C53.3489 70.2028 52.8673 69.458 52.8673 68.5856C52.8673 67.3739 53.8485 66.3757 55.0768 66.3757H55.1278C55.506 66.3757 55.8265 66.0941 55.8744 65.7186C55.9223 65.343 55.6833 64.9903 55.3167 64.8954C53.289 64.3708 51.4604 63.1603 49.7124 61.668C48.6247 60.7392 47.6234 59.7544 46.6301 58.7768C45.999 58.1555 45.371 57.5374 44.725 56.9384C44.721 56.9348 44.717 56.9308 44.7129 56.9272L44.7129 56.927Z" stroke="#1742E7" stroke-width="0.649948" mask="url(#path-1-inside-1_9975_55652)"></path><path fill-rule="evenodd" clip-rule="evenodd" d="M22.7272 42.4023C22.7782 42.3916 22.8301 42.3858 22.8825 42.3858H23.1399C23.5754 42.3858 24.0074 42.4131 24.4124 42.4381L24.4232 42.439C24.4312 42.4395 24.4393 42.4399 24.4473 42.4408C27.8922 42.7676 30.8869 44.3173 33.544 46.2985C35.9416 48.0864 38.109 50.2613 40.1009 52.2599C40.3095 52.4699 40.5168 52.6771 40.7218 52.8826L40.7231 52.8839C40.7652 52.9256 40.8597 53.02 40.9398 53.1812C41.083 53.4672 41.0293 53.8128 40.8059 54.0419L36.9429 58.0083C36.6587 58.2997 36.194 58.3123 35.8946 58.0365C35.2039 57.4005 34.5311 56.738 33.8556 56.0728C32.7083 54.9434 31.5534 53.806 30.2889 52.7773C28.3185 51.1739 26.2441 49.9846 23.8973 49.7589C23.8789 49.7576 23.8606 49.7558 23.8427 49.7545C23.5517 49.7303 23.3172 49.7106 23.0629 49.7106H22.8825C22.8257 49.7106 22.7693 49.7039 22.7133 49.6913C21.0405 49.305 19.8127 47.8225 19.8127 46.0481C19.8127 44.255 21.0357 42.7599 22.7273 42.4022L22.7272 42.4023ZM22.9671 43.8898C22.0159 44.1248 21.3167 44.9833 21.3167 46.0482C21.3167 47.08 22.0092 47.9479 22.9743 48.2067H23.0625C23.3821 48.2067 23.6775 48.2313 23.9564 48.2546C23.9801 48.2568 24.0034 48.2586 24.0267 48.2608L24.0361 48.2613C26.8123 48.5263 29.1667 49.9252 31.2385 51.6108C32.546 52.6749 33.8083 53.9152 34.9981 55.0853C35.4708 55.5499 35.9323 56.0034 36.3803 56.4304L39.2241 53.5106L39.0414 53.3279C37.0379 51.3176 34.9488 49.2218 32.6453 47.5043C30.1158 45.618 27.3839 44.233 24.3172 43.939C23.9058 43.9135 23.5213 43.8898 23.1403 43.8898L22.9671 43.8898Z" stroke="#1742E7" stroke-width="0.649948" mask="url(#path-1-inside-1_9975_55652)"></path><path fill-rule="evenodd" clip-rule="evenodd" d="M14.5911 57.5824C14.9711 57.5959 15.2813 57.8908 15.314 58.2695C15.6676 62.3733 18.7008 65.2055 22.755 65.2055C23.4483 65.2055 24.1077 65.1339 24.7617 64.9705C24.7698 64.9682 24.7783 64.9664 24.7863 64.9647C25.1135 64.8948 25.4421 64.8008 25.7729 64.6827C25.8539 64.6536 25.9394 64.6388 26.0258 64.6388H26.2568C28.2859 64.6388 29.9456 66.2548 29.9456 68.3013C29.9456 69.6926 29.169 70.9249 27.9994 71.5421C27.9676 71.5586 27.9349 71.573 27.9014 71.585C27.5124 71.7238 27.1292 71.833 26.7371 71.9373C25.3549 72.3169 23.8978 72.5045 22.3687 72.5045C14.2353 72.5045 8.27725 66.7525 7.73638 58.6938C7.71041 58.3088 7.98033 57.9664 8.36126 57.9019C8.74174 57.8375 9.10969 58.072 9.21176 58.4444C9.48526 59.4404 10.4056 60.1835 11.5001 60.1835C12.6723 60.1835 13.6473 59.3223 13.8219 58.2171C13.8815 57.8415 14.2114 57.5694 14.5914 57.5828L14.5911 57.5824ZM14.2366 60.5498C13.5369 61.2521 12.5674 61.6872 11.4997 61.6872C10.8247 61.6872 10.1913 61.5149 9.63944 61.2127C11.0839 67.0802 15.9608 71.0006 22.3684 71.0006C23.7744 71.0006 25.0975 70.8278 26.3415 70.4867L26.3469 70.4853C26.7059 70.3891 27.0273 70.2973 27.3415 70.1877C28.0018 69.8184 28.4414 69.1071 28.4414 68.3013C28.4414 67.1026 27.4732 66.1429 26.2574 66.1429H26.1539C25.8088 66.2611 25.4615 66.3577 25.1137 66.4329C24.3294 66.6277 23.5505 66.7096 22.7547 66.7096C18.6504 66.7096 15.3988 64.2449 14.2363 60.5498L14.2366 60.5498Z" stroke="#1742E7" stroke-width="0.649948" mask="url(#path-1-inside-1_9975_55652)"></path><path fill-rule="evenodd" clip-rule="evenodd" d="M23.6038 43.028C23.6477 43.413 23.3916 43.7684 23.012 43.849C22.0268 44.0571 21.2936 44.9286 21.2905 46.0168C21.3133 47.1167 22.0542 47.99 23.038 48.1981C23.4118 48.2769 23.6665 48.6233 23.6311 49.0038C23.5958 49.3839 23.2811 49.6771 22.8993 49.6856C18.68 49.7791 15.4628 53.1748 15.3155 57.1376V57.4322C15.3155 57.7227 15.316 57.9975 15.3379 58.2406C15.3442 58.3059 15.3415 58.3717 15.3303 58.4362C15.0111 60.2871 13.4135 61.6617 11.4986 61.6617C9.70805 61.6617 8.20757 60.4478 7.75998 58.8166C7.74655 58.7678 7.73804 58.7182 7.73491 58.6676L7.73401 58.6582C7.70895 58.2773 7.68164 57.8699 7.68164 57.4331V57.0799C7.87189 49.2625 14.1951 42.5232 22.8422 42.3605C23.2299 42.3533 23.5598 42.642 23.6037 43.0274L23.6038 43.028ZM9.18575 57.108V57.4334C9.18575 57.7897 9.20634 58.1281 9.23006 58.4867C9.52594 59.4486 10.4293 60.1581 11.4987 60.1581C12.6441 60.1581 13.602 59.3605 13.8316 58.2683C13.8115 57.9836 13.8115 57.6908 13.8115 57.4482V57.1242C13.8115 57.1152 13.8115 57.1067 13.8119 57.0977C13.9552 53.0615 16.7627 49.5123 20.7126 48.481C20.1459 47.8274 19.8035 46.972 19.7869 46.0374L19.7865 46.024C19.7865 45.3359 19.9669 44.6918 20.2842 44.139C13.8165 45.4094 9.34109 50.8929 9.18571 57.1086L9.18575 57.108Z" stroke="#1742E7" stroke-width="0.649948" mask="url(#path-1-inside-1_9975_55652)"></path><path fill-rule="evenodd" clip-rule="evenodd" d="M65.9194 57.4289C66.2999 57.4159 66.6298 57.6889 66.6884 58.0654C66.8639 59.1979 67.8411 60.0555 69.0103 60.0555C70.1012 60.0555 71.0224 59.3161 71.2972 58.2941C71.3979 57.9195 71.7677 57.6831 72.1499 57.7485C72.5327 57.8134 72.8026 58.1589 72.7735 58.5461C72.2032 66.1177 65.8813 72.5058 57.3688 72.5058C56.5908 72.5058 55.8012 72.4525 55.0291 72.3151C54.5121 72.2332 54.0228 72.1244 53.5358 71.9892C53.4893 71.9763 53.444 71.9588 53.4011 71.9373C52.1687 71.3209 51.3626 70.0568 51.3626 68.6118C51.3626 66.5783 53.0085 64.8979 55.0765 64.8979H55.1271C55.184 64.8979 55.2417 64.9042 55.2972 64.9171C55.624 64.9923 55.9575 65.0635 56.2838 65.1105C56.6956 65.162 57.0886 65.2068 57.4718 65.2068C61.6227 65.2068 64.867 61.9691 65.196 58.1168C65.2282 57.7377 65.5389 57.4422 65.9194 57.4292L65.9194 57.4289ZM66.2466 60.3899C65.0322 63.9835 61.6406 66.7104 57.4718 66.7104C56.9817 66.7104 56.5009 66.6531 56.0909 66.6016L56.0774 66.6003C55.7175 66.5488 55.363 66.4745 55.0439 66.4016C53.8303 66.419 52.8666 67.4105 52.8666 68.6115C52.8666 69.4597 53.3218 70.1867 54.013 70.56C54.4257 70.6719 54.838 70.7619 55.2712 70.8304L55.286 70.8331C55.9538 70.9521 56.6552 71.0014 57.3688 71.0014C64.0375 71.0014 69.1856 66.6894 70.7887 61.1267C70.2565 61.4033 69.6518 61.5595 69.0099 61.5595C67.9271 61.5595 66.9473 61.1124 66.2463 60.3899L66.2466 60.3899Z" stroke="#1742E7" stroke-width="0.649948" mask="url(#path-1-inside-1_9975_55652)"></path><path fill-rule="evenodd" clip-rule="evenodd" d="M59.7452 43.9757C60.1664 44.5773 60.4135 45.3101 60.4135 46.1006C60.4135 46.9511 60.1306 47.7375 59.6485 48.3647C63.7191 49.1731 66.5536 52.5858 66.7232 57.0437C66.7232 57.0531 66.7236 57.063 66.7236 57.0724V57.4524C66.7236 57.6632 66.7236 57.9108 66.7039 58.1507C66.9148 59.2407 67.8714 60.0549 69.0106 60.0549C70.0862 60.0549 70.9967 59.336 71.2858 58.3365C71.3225 58.0536 71.3234 57.7814 71.3234 57.4327C71.3234 57.3915 71.3149 57.3365 71.2867 57.1941C71.2777 57.1512 71.2733 57.1073 71.2719 57.0634C71.186 53.1798 69.7961 49.8929 67.5011 47.58C65.5392 45.6023 62.8871 44.3078 59.7452 43.9757ZM58.1037 42.3866H58.1163C62.3463 42.3866 65.9748 43.9059 68.5693 46.5209C71.1481 49.1199 72.666 52.7622 72.7743 56.9632C72.7975 57.0818 72.8275 57.2528 72.8275 57.4327V57.4524C72.8275 57.8011 72.8275 58.1816 72.7684 58.5952C72.7644 58.6252 72.7581 58.6552 72.7501 58.6843C72.3043 60.3414 70.8043 61.559 69.0106 61.559C67.0893 61.559 65.4904 60.1498 65.2027 58.2954C65.1924 58.2296 65.191 58.1629 65.1982 58.0971C65.2188 57.9144 65.2197 57.7005 65.2197 57.4328V57.0872C65.0478 52.7376 61.9614 49.6857 57.7555 49.6857H57.5504C57.1762 49.6857 56.858 49.4104 56.8052 49.0402C56.7523 48.6696 56.9797 48.3168 57.3392 48.2121C58.2568 47.944 58.9094 47.1033 58.9094 46.1006C58.9094 44.9883 58.084 44.063 57.0053 43.909C56.6257 43.8549 56.3477 43.5236 56.3602 43.14C56.3728 42.7568 56.6718 42.4444 57.054 42.4149C57.418 42.3867 57.777 42.3866 58.1037 42.3866Z" stroke="#1742E7" stroke-width="0.649948" mask="url(#path-1-inside-1_9975_55652)"></path><path fill-rule="evenodd" clip-rule="evenodd" d="M57.1244 42.439C57.1692 42.4368 57.2139 42.4386 57.2583 42.4444C59.0309 42.674 60.4122 44.2358 60.4122 46.1006C60.4122 47.7837 59.281 49.2017 57.7627 49.6543C57.6929 49.6749 57.6208 49.6856 57.5478 49.6856C57.1951 49.6856 56.8581 49.7291 56.4673 49.7814C54.264 50.1042 52.2157 51.2129 50.2833 52.7005C48.3706 54.1732 46.6243 55.9744 44.9847 57.6646L44.927 57.7246C44.666 57.9936 44.2471 58.0294 43.944 57.8088C43.6414 57.5876 43.5474 57.178 43.7238 56.8472C43.8634 56.5849 43.944 56.2461 43.944 55.8875C43.944 54.7059 42.9673 53.7291 41.786 53.7291C41.4346 53.7291 41.1199 53.807 40.8523 53.9498C40.5233 54.1252 40.1159 54.033 39.8939 53.734C39.6723 53.4345 39.7027 53.0178 39.9664 52.7546C40.0855 52.6351 40.205 52.5156 40.325 52.396C44.5102 48.2058 49.1128 43.598 55.5749 42.6019C56.0682 42.52 56.5848 42.4658 57.1246 42.439L57.1244 42.439ZM57.1276 43.9449C56.6651 43.9704 56.2287 44.0178 55.8173 44.0863L55.8079 44.0881C50.4364 44.9144 46.4256 48.4708 42.5472 52.3052C43.951 52.606 45.0652 53.7188 45.3673 55.1221C46.6027 53.8786 47.9357 52.61 49.3663 51.5089C51.4053 49.9391 53.6953 48.666 56.2548 48.2927L56.2642 48.2914L56.2821 48.2887C56.6246 48.2431 57.0109 48.1916 57.4267 48.1831C58.2817 47.885 58.9084 47.0618 58.9084 46.1007C58.9084 45.0009 58.1085 44.1047 57.1277 43.945L57.1276 43.9449Z" stroke="#1742E7" stroke-width="0.649948" mask="url(#path-1-inside-1_9975_55652)"></path><path fill-rule="evenodd" clip-rule="evenodd" d="M41.0219 53.8009L40.8795 53.9432L39.7484 55.1004L36.9946 57.9056C36.9941 57.906 36.9937 57.906 36.9937 57.9065C36.8693 58.0341 36.7435 58.1634 36.6168 58.2937C34.2909 60.6863 31.543 63.5135 28.3455 65.188C29.337 65.8393 29.9963 66.9602 29.9963 68.2494C29.9963 68.5229 29.9654 68.7897 29.9072 69.0466C33.4157 67.1952 36.3651 64.2417 39.3245 61.2785C39.4695 61.1335 39.6141 60.9884 39.7591 60.8434C39.76 60.8429 39.7609 60.842 39.7618 60.8412L42.6647 57.8864L42.6673 57.8841L43.5872 56.9392C43.6512 56.8577 43.7139 56.7892 43.7685 56.7324C43.8813 56.4844 43.9453 56.1805 43.9453 55.8613C43.9453 54.6813 42.9668 53.6934 41.8451 53.6258C41.5407 53.6281 41.264 53.6894 41.0219 53.8009ZM40.2228 52.5193C40.7273 52.2502 41.2887 52.1218 41.8643 52.1218C41.8773 52.1218 41.8898 52.1222 41.9023 52.1227C43.8124 52.2198 45.4493 53.854 45.4493 55.8612C45.4493 56.4302 45.324 57.0184 45.0518 57.5287C45.0169 57.594 44.9726 57.654 44.9202 57.7064C44.841 57.7856 44.7993 57.8286 44.7582 57.8837C44.7389 57.9092 44.7179 57.9338 44.6955 57.9571L43.7425 58.9356L43.7398 58.9383L40.8248 61.9047C40.6529 62.0766 40.4806 62.2494 40.3074 62.4231C36.7564 65.9822 32.9206 69.8263 27.944 71.5363C27.5738 71.6634 27.1682 71.4857 27.0111 71.1276C26.8535 70.7695 26.9968 70.351 27.3406 70.1643C28.0156 69.7977 28.4928 69.0636 28.4928 68.2493C28.4928 67.0466 27.5201 66.0913 26.3343 66.0913H26.1038C25.7354 66.0913 25.4203 65.8246 25.3607 65.4611C25.3007 65.0976 25.5134 64.7444 25.8621 64.6267C29.5746 63.3733 32.7546 60.1061 35.6334 57.1477C35.7283 57.0501 35.8232 56.953 35.9176 56.8559L35.9194 56.8541L38.6746 54.0479L39.8133 52.8827L40.0452 52.6509C40.098 52.5985 40.1576 52.5542 40.2234 52.5193L40.2228 52.5193Z" stroke="#1742E7" stroke-width="0.649948" mask="url(#path-1-inside-1_9975_55652)"></path><path fill-rule="evenodd" clip-rule="evenodd" d="M44.6911 22.6741C44.9839 22.9691 44.9825 23.4449 44.688 23.7376L40.3607 28.0389C40.2193 28.1799 40.0273 28.2582 39.8276 28.2573C39.628 28.2569 39.4368 28.1763 39.2963 28.0344L36.7466 25.4591C36.4543 25.1637 36.4566 24.6879 36.752 24.3956C37.047 24.1033 37.5232 24.1055 37.8155 24.401L39.8348 26.4408L43.6276 22.671C43.9221 22.3782 44.3984 22.3795 44.6911 22.6741Z" stroke="#1742E7" stroke-width="0.649948" mask="url(#path-1-inside-1_9975_55652)"></path></svg>