<svg xmlns="http://www.w3.org/2000/svg" width="81" height="81" viewBox="0 0 81 81" fill="none"><mask id="path-1-inside-1_10056_15573" fill="white"><path d="M37.2307 9.86831C32.0649 11.1311 28.621 15.3785 28.2766 20.9317C27.9179 26.6858 31.7922 31.8946 37.4602 33.2435C39.0674 33.6309 41.5068 33.6309 43.1139 33.2435C46.0986 32.526 48.5954 30.7897 50.3173 28.2212C51.7809 26.0257 52.4554 23.5433 52.2975 20.9317C51.9388 15.235 48.294 10.8871 42.9848 9.79656C41.435 9.48087 38.6799 9.50957 37.2307 9.86831ZM42.2242 12.1642C43.6018 12.3938 45.582 13.4413 46.73 14.5319C50.016 17.617 50.7478 22.0653 48.6384 26.1405C47.9497 27.4894 46.2995 29.1252 44.9506 29.8283C41.9947 31.3637 38.5795 31.3637 35.6235 29.8283C34.2747 29.1252 32.6388 27.4894 31.9357 26.1405C30.6156 23.5863 30.4003 20.9173 31.3044 18.2914C32.4523 14.991 35.7383 12.3938 39.2252 12.0207C40.3014 11.9059 40.8897 11.9346 42.2242 12.1642Z"></path><path d="M60.1323 32.9278C59.0704 33.3009 58.1808 34.1044 57.6929 35.0802C57.3629 35.7546 57.2911 36.0847 57.2911 36.9743C57.2911 37.5914 57.3772 38.2658 57.492 38.5384L57.7072 39.0263L54.4069 42.2406C52.5989 44.0055 49.6859 46.8324 47.9497 48.5256L44.7784 51.6107L44.1471 51.3381C43.3004 50.965 42.3534 50.8502 41.6072 51.008L40.9758 51.1515L40.201 49.9605L39.4261 48.7552L39.7705 48.253C40.8467 46.6602 40.4736 43.9194 39.0243 42.7141C38.0773 41.9392 37.3167 41.6522 36.1257 41.6522C35.2217 41.6379 34.9061 41.7096 34.2316 42.0397C33.2272 42.5275 32.3519 43.5033 32.0218 44.4647C31.7061 45.4118 31.7922 47.0189 32.194 47.8225L32.481 48.4108L26.569 55.8151L20.6427 63.2194L20.0975 63.0615C19.1935 62.8176 17.7585 62.9898 16.8976 63.4633C13.8124 65.1422 13.8698 69.6766 17.0123 71.2263C17.7011 71.5707 18.0168 71.6281 18.9782 71.6281C19.9396 71.6281 20.2553 71.5707 20.9441 71.2263C22.5369 70.4371 23.4409 68.8587 23.3261 67.0363C23.283 66.3906 23.1395 65.8166 22.9387 65.4148L22.6373 64.8122L28.5206 57.4509C33.4568 51.3094 34.4756 50.1184 34.7339 50.1471C34.9061 50.1758 35.5661 50.2045 36.2118 50.2188L37.3598 50.2332L38.106 51.3955L38.8378 52.5578L38.4504 53.3326C37.6755 54.8967 37.9338 56.8482 39.0674 58.1827C40.2584 59.5746 42.4969 60.0051 44.1901 59.1728C45.1802 58.685 46.0699 57.7236 46.3712 56.8195C46.6295 56.0734 46.6726 54.5523 46.4573 53.9927C46.3282 53.6627 46.4717 53.5048 48.3945 51.6538C49.5281 50.5632 52.4841 47.6933 54.9665 45.2539L59.4722 40.8487L60.0318 41.0783C60.9502 41.4657 62.4856 41.4083 63.4327 40.9348C64.351 40.4899 65.1689 39.6433 65.5851 38.7106C66.0012 37.7635 65.9869 36.2856 65.5564 35.2954C65.1689 34.4345 64.1214 33.3726 63.3035 33.0282C62.4282 32.6552 61.0076 32.6121 60.1323 32.9278ZM62.4425 35.5537C62.9161 35.9268 63.2461 36.5438 63.2461 37.0748C63.2461 37.907 62.3278 38.8397 61.5242 38.8397C60.735 38.8397 59.9171 37.9214 59.9171 37.0604C59.9171 35.6542 61.4237 34.7502 62.4425 35.5537ZM37.0298 44.4217C38.6512 45.4835 37.9481 47.7364 36.011 47.7364C35.48 47.7364 35.2935 47.6503 34.9061 47.2628C34.289 46.6458 34.1599 46.1292 34.4182 45.3831C34.7913 44.3069 36.1114 43.819 37.0298 44.4217ZM43.1283 53.7631C44.0897 54.3514 44.2475 55.7003 43.4583 56.5039C42.7121 57.2357 41.8368 57.2213 41.1337 56.4752C40.9041 56.2312 40.6889 55.8294 40.6315 55.5568C40.4593 54.6241 41.3633 53.4761 42.296 53.4761C42.4969 53.4761 42.87 53.6053 43.1283 53.7631ZM20.1692 66.1754C21.2167 67.309 20.4562 69.117 18.9352 69.117C18.1747 69.117 17.328 68.1699 17.328 67.3233C17.328 66.778 17.7155 66.1323 18.232 65.8023C18.8778 65.4005 19.5665 65.5296 20.1692 66.1754Z"></path><path d="M37.4889 37.4766C33.2702 38.2514 29.7833 40.1168 26.8991 43.1302C24.3162 45.8423 22.666 49.3148 22.2068 53.0457C21.8624 55.8581 22.092 56.633 23.2687 56.633C24.2444 56.633 24.431 56.3173 24.6175 54.2654C25.1628 48.253 28.8363 43.2881 34.4469 40.9778C39.297 38.9689 44.2762 39.3994 48.7532 42.1832C49.3415 42.5562 49.9873 42.8576 50.2025 42.8576C50.7047 42.8576 51.2787 42.384 51.3792 41.9105C51.5083 41.2074 51.2213 40.7626 50.2025 40.0881C48.2079 38.768 46.0268 37.8927 43.6735 37.4766C42.1381 37.2183 38.9095 37.2039 37.4889 37.4766Z"></path><path d="M54.9952 47.9516C54.5504 48.3964 54.5504 48.7839 54.9952 49.9749C55.7844 52.0699 55.9279 53.3326 55.9279 58.1971V62.6597H50.0447V60.2921C50.0447 57.3074 49.9012 56.92 48.7532 56.92C47.6053 56.92 47.4618 57.3074 47.4618 60.2921V62.6597H33.1124V60.2921C33.1124 57.3074 32.9689 56.92 31.8209 56.92C30.673 56.92 30.5295 57.3074 30.5295 60.2921V62.6597H28.3914C26.4543 62.6597 26.2247 62.6884 25.8803 62.9611C25.378 63.3629 25.3493 64.3243 25.8372 64.7835L26.1673 65.0991H41.9516C58.97 65.0848 58.0516 65.1278 58.3673 64.3243C58.5539 63.8077 58.5539 56.1021 58.353 53.8349C58.0947 50.8789 57.5064 48.7265 56.7315 47.9516C56.2436 47.4637 55.4687 47.4637 54.9952 47.9516Z"></path></mask><path d="M37.2307 9.86831C32.0649 11.1311 28.621 15.3785 28.2766 20.9317C27.9179 26.6858 31.7922 31.8946 37.4602 33.2435C39.0674 33.6309 41.5068 33.6309 43.1139 33.2435C46.0986 32.526 48.5954 30.7897 50.3173 28.2212C51.7809 26.0257 52.4554 23.5433 52.2975 20.9317C51.9388 15.235 48.294 10.8871 42.9848 9.79656C41.435 9.48087 38.6799 9.50957 37.2307 9.86831ZM42.2242 12.1642C43.6018 12.3938 45.582 13.4413 46.73 14.5319C50.016 17.617 50.7478 22.0653 48.6384 26.1405C47.9497 27.4894 46.2995 29.1252 44.9506 29.8283C41.9947 31.3637 38.5795 31.3637 35.6235 29.8283C34.2747 29.1252 32.6388 27.4894 31.9357 26.1405C30.6156 23.5863 30.4003 20.9173 31.3044 18.2914C32.4523 14.991 35.7383 12.3938 39.2252 12.0207C40.3014 11.9059 40.8897 11.9346 42.2242 12.1642Z" fill="#1742E7"></path><path d="M60.1323 32.9278C59.0704 33.3009 58.1808 34.1044 57.6929 35.0802C57.3629 35.7546 57.2911 36.0847 57.2911 36.9743C57.2911 37.5914 57.3772 38.2658 57.492 38.5384L57.7072 39.0263L54.4069 42.2406C52.5989 44.0055 49.6859 46.8324 47.9497 48.5256L44.7784 51.6107L44.1471 51.3381C43.3004 50.965 42.3534 50.8502 41.6072 51.008L40.9758 51.1515L40.201 49.9605L39.4261 48.7552L39.7705 48.253C40.8467 46.6602 40.4736 43.9194 39.0243 42.7141C38.0773 41.9392 37.3167 41.6522 36.1257 41.6522C35.2217 41.6379 34.9061 41.7096 34.2316 42.0397C33.2272 42.5275 32.3519 43.5033 32.0218 44.4647C31.7061 45.4118 31.7922 47.0189 32.194 47.8225L32.481 48.4108L26.569 55.8151L20.6427 63.2194L20.0975 63.0615C19.1935 62.8176 17.7585 62.9898 16.8976 63.4633C13.8124 65.1422 13.8698 69.6766 17.0123 71.2263C17.7011 71.5707 18.0168 71.6281 18.9782 71.6281C19.9396 71.6281 20.2553 71.5707 20.9441 71.2263C22.5369 70.4371 23.4409 68.8587 23.3261 67.0363C23.283 66.3906 23.1395 65.8166 22.9387 65.4148L22.6373 64.8122L28.5206 57.4509C33.4568 51.3094 34.4756 50.1184 34.7339 50.1471C34.9061 50.1758 35.5661 50.2045 36.2118 50.2188L37.3598 50.2332L38.106 51.3955L38.8378 52.5578L38.4504 53.3326C37.6755 54.8967 37.9338 56.8482 39.0674 58.1827C40.2584 59.5746 42.4969 60.0051 44.1901 59.1728C45.1802 58.685 46.0699 57.7236 46.3712 56.8195C46.6295 56.0734 46.6726 54.5523 46.4573 53.9927C46.3282 53.6627 46.4717 53.5048 48.3945 51.6538C49.5281 50.5632 52.4841 47.6933 54.9665 45.2539L59.4722 40.8487L60.0318 41.0783C60.9502 41.4657 62.4856 41.4083 63.4327 40.9348C64.351 40.4899 65.1689 39.6433 65.5851 38.7106C66.0012 37.7635 65.9869 36.2856 65.5564 35.2954C65.1689 34.4345 64.1214 33.3726 63.3035 33.0282C62.4282 32.6552 61.0076 32.6121 60.1323 32.9278ZM62.4425 35.5537C62.9161 35.9268 63.2461 36.5438 63.2461 37.0748C63.2461 37.907 62.3278 38.8397 61.5242 38.8397C60.735 38.8397 59.9171 37.9214 59.9171 37.0604C59.9171 35.6542 61.4237 34.7502 62.4425 35.5537ZM37.0298 44.4217C38.6512 45.4835 37.9481 47.7364 36.011 47.7364C35.48 47.7364 35.2935 47.6503 34.9061 47.2628C34.289 46.6458 34.1599 46.1292 34.4182 45.3831C34.7913 44.3069 36.1114 43.819 37.0298 44.4217ZM43.1283 53.7631C44.0897 54.3514 44.2475 55.7003 43.4583 56.5039C42.7121 57.2357 41.8368 57.2213 41.1337 56.4752C40.9041 56.2312 40.6889 55.8294 40.6315 55.5568C40.4593 54.6241 41.3633 53.4761 42.296 53.4761C42.4969 53.4761 42.87 53.6053 43.1283 53.7631ZM20.1692 66.1754C21.2167 67.309 20.4562 69.117 18.9352 69.117C18.1747 69.117 17.328 68.1699 17.328 67.3233C17.328 66.778 17.7155 66.1323 18.232 65.8023C18.8778 65.4005 19.5665 65.5296 20.1692 66.1754Z" fill="#1742E7"></path><path d="M37.4889 37.4766C33.2702 38.2514 29.7833 40.1168 26.8991 43.1302C24.3162 45.8423 22.666 49.3148 22.2068 53.0457C21.8624 55.8581 22.092 56.633 23.2687 56.633C24.2444 56.633 24.431 56.3173 24.6175 54.2654C25.1628 48.253 28.8363 43.2881 34.4469 40.9778C39.297 38.9689 44.2762 39.3994 48.7532 42.1832C49.3415 42.5562 49.9873 42.8576 50.2025 42.8576C50.7047 42.8576 51.2787 42.384 51.3792 41.9105C51.5083 41.2074 51.2213 40.7626 50.2025 40.0881C48.2079 38.768 46.0268 37.8927 43.6735 37.4766C42.1381 37.2183 38.9095 37.2039 37.4889 37.4766Z" fill="#1742E7"></path><path d="M54.9952 47.9516C54.5504 48.3964 54.5504 48.7839 54.9952 49.9749C55.7844 52.0699 55.9279 53.3326 55.9279 58.1971V62.6597H50.0447V60.2921C50.0447 57.3074 49.9012 56.92 48.7532 56.92C47.6053 56.92 47.4618 57.3074 47.4618 60.2921V62.6597H33.1124V60.2921C33.1124 57.3074 32.9689 56.92 31.8209 56.92C30.673 56.92 30.5295 57.3074 30.5295 60.2921V62.6597H28.3914C26.4543 62.6597 26.2247 62.6884 25.8803 62.9611C25.378 63.3629 25.3493 64.3243 25.8372 64.7835L26.1673 65.0991H41.9516C58.97 65.0848 58.0516 65.1278 58.3673 64.3243C58.5539 63.8077 58.5539 56.1021 58.353 53.8349C58.0947 50.8789 57.5064 48.7265 56.7315 47.9516C56.2436 47.4637 55.4687 47.4637 54.9952 47.9516Z" fill="#1742E7"></path><path d="M37.2307 9.86831C32.0649 11.1311 28.621 15.3785 28.2766 20.9317C27.9179 26.6858 31.7922 31.8946 37.4602 33.2435C39.0674 33.6309 41.5068 33.6309 43.1139 33.2435C46.0986 32.526 48.5954 30.7897 50.3173 28.2212C51.7809 26.0257 52.4554 23.5433 52.2975 20.9317C51.9388 15.235 48.294 10.8871 42.9848 9.79656C41.435 9.48087 38.6799 9.50957 37.2307 9.86831ZM42.2242 12.1642C43.6018 12.3938 45.582 13.4413 46.73 14.5319C50.016 17.617 50.7478 22.0653 48.6384 26.1405C47.9497 27.4894 46.2995 29.1252 44.9506 29.8283C41.9947 31.3637 38.5795 31.3637 35.6235 29.8283C34.2747 29.1252 32.6388 27.4894 31.9357 26.1405C30.6156 23.5863 30.4003 20.9173 31.3044 18.2914C32.4523 14.991 35.7383 12.3938 39.2252 12.0207C40.3014 11.9059 40.8897 11.9346 42.2242 12.1642Z" stroke="#1742E7" stroke-width="0.649948" mask="url(#path-1-inside-1_10056_15573)"></path><path d="M60.1323 32.9278C59.0704 33.3009 58.1808 34.1044 57.6929 35.0802C57.3629 35.7546 57.2911 36.0847 57.2911 36.9743C57.2911 37.5914 57.3772 38.2658 57.492 38.5384L57.7072 39.0263L54.4069 42.2406C52.5989 44.0055 49.6859 46.8324 47.9497 48.5256L44.7784 51.6107L44.1471 51.3381C43.3004 50.965 42.3534 50.8502 41.6072 51.008L40.9758 51.1515L40.201 49.9605L39.4261 48.7552L39.7705 48.253C40.8467 46.6602 40.4736 43.9194 39.0243 42.7141C38.0773 41.9392 37.3167 41.6522 36.1257 41.6522C35.2217 41.6379 34.9061 41.7096 34.2316 42.0397C33.2272 42.5275 32.3519 43.5033 32.0218 44.4647C31.7061 45.4118 31.7922 47.0189 32.194 47.8225L32.481 48.4108L26.569 55.8151L20.6427 63.2194L20.0975 63.0615C19.1935 62.8176 17.7585 62.9898 16.8976 63.4633C13.8124 65.1422 13.8698 69.6766 17.0123 71.2263C17.7011 71.5707 18.0168 71.6281 18.9782 71.6281C19.9396 71.6281 20.2553 71.5707 20.9441 71.2263C22.5369 70.4371 23.4409 68.8587 23.3261 67.0363C23.283 66.3906 23.1395 65.8166 22.9387 65.4148L22.6373 64.8122L28.5206 57.4509C33.4568 51.3094 34.4756 50.1184 34.7339 50.1471C34.9061 50.1758 35.5661 50.2045 36.2118 50.2188L37.3598 50.2332L38.106 51.3955L38.8378 52.5578L38.4504 53.3326C37.6755 54.8967 37.9338 56.8482 39.0674 58.1827C40.2584 59.5746 42.4969 60.0051 44.1901 59.1728C45.1802 58.685 46.0699 57.7236 46.3712 56.8195C46.6295 56.0734 46.6726 54.5523 46.4573 53.9927C46.3282 53.6627 46.4717 53.5048 48.3945 51.6538C49.5281 50.5632 52.4841 47.6933 54.9665 45.2539L59.4722 40.8487L60.0318 41.0783C60.9502 41.4657 62.4856 41.4083 63.4327 40.9348C64.351 40.4899 65.1689 39.6433 65.5851 38.7106C66.0012 37.7635 65.9869 36.2856 65.5564 35.2954C65.1689 34.4345 64.1214 33.3726 63.3035 33.0282C62.4282 32.6552 61.0076 32.6121 60.1323 32.9278ZM62.4425 35.5537C62.9161 35.9268 63.2461 36.5438 63.2461 37.0748C63.2461 37.907 62.3278 38.8397 61.5242 38.8397C60.735 38.8397 59.9171 37.9214 59.9171 37.0604C59.9171 35.6542 61.4237 34.7502 62.4425 35.5537ZM37.0298 44.4217C38.6512 45.4835 37.9481 47.7364 36.011 47.7364C35.48 47.7364 35.2935 47.6503 34.9061 47.2628C34.289 46.6458 34.1599 46.1292 34.4182 45.3831C34.7913 44.3069 36.1114 43.819 37.0298 44.4217ZM43.1283 53.7631C44.0897 54.3514 44.2475 55.7003 43.4583 56.5039C42.7121 57.2357 41.8368 57.2213 41.1337 56.4752C40.9041 56.2312 40.6889 55.8294 40.6315 55.5568C40.4593 54.6241 41.3633 53.4761 42.296 53.4761C42.4969 53.4761 42.87 53.6053 43.1283 53.7631ZM20.1692 66.1754C21.2167 67.309 20.4562 69.117 18.9352 69.117C18.1747 69.117 17.328 68.1699 17.328 67.3233C17.328 66.778 17.7155 66.1323 18.232 65.8023C18.8778 65.4005 19.5665 65.5296 20.1692 66.1754Z" stroke="#1742E7" stroke-width="0.649948" mask="url(#path-1-inside-1_10056_15573)"></path><path d="M37.4889 37.4766C33.2702 38.2514 29.7833 40.1168 26.8991 43.1302C24.3162 45.8423 22.666 49.3148 22.2068 53.0457C21.8624 55.8581 22.092 56.633 23.2687 56.633C24.2444 56.633 24.431 56.3173 24.6175 54.2654C25.1628 48.253 28.8363 43.2881 34.4469 40.9778C39.297 38.9689 44.2762 39.3994 48.7532 42.1832C49.3415 42.5562 49.9873 42.8576 50.2025 42.8576C50.7047 42.8576 51.2787 42.384 51.3792 41.9105C51.5083 41.2074 51.2213 40.7626 50.2025 40.0881C48.2079 38.768 46.0268 37.8927 43.6735 37.4766C42.1381 37.2183 38.9095 37.2039 37.4889 37.4766Z" stroke="#1742E7" stroke-width="0.649948" mask="url(#path-1-inside-1_10056_15573)"></path><path d="M54.9952 47.9516C54.5504 48.3964 54.5504 48.7839 54.9952 49.9749C55.7844 52.0699 55.9279 53.3326 55.9279 58.1971V62.6597H50.0447V60.2921C50.0447 57.3074 49.9012 56.92 48.7532 56.92C47.6053 56.92 47.4618 57.3074 47.4618 60.2921V62.6597H33.1124V60.2921C33.1124 57.3074 32.9689 56.92 31.8209 56.92C30.673 56.92 30.5295 57.3074 30.5295 60.2921V62.6597H28.3914C26.4543 62.6597 26.2247 62.6884 25.8803 62.9611C25.378 63.3629 25.3493 64.3243 25.8372 64.7835L26.1673 65.0991H41.9516C58.97 65.0848 58.0516 65.1278 58.3673 64.3243C58.5539 63.8077 58.5539 56.1021 58.353 53.8349C58.0947 50.8789 57.5064 48.7265 56.7315 47.9516C56.2436 47.4637 55.4687 47.4637 54.9952 47.9516Z" stroke="#1742E7" stroke-width="0.649948" mask="url(#path-1-inside-1_10056_15573)"></path></svg>