<svg xmlns="http://www.w3.org/2000/svg" width="101" height="101" viewBox="0 0 101 101" fill="none"><mask id="path-1-inside-1_549_2103" fill="white"><path fill-rule="evenodd" clip-rule="evenodd" d="M17.4474 10.7622C17.0545 10.9581 16.5828 11.3153 16.3991 11.556C15.6487 12.5399 15.6465 12.5601 15.6465 18.4892C15.6465 22.2625 15.6961 24.1483 15.8053 24.5123C16.0107 25.1981 16.7567 26.0632 17.4732 26.4464C18.0325 26.7455 18.1152 26.7494 23.7839 26.7494C29.1904 26.7494 29.5593 26.7338 30.0617 26.4845C30.7427 26.1467 31.3872 25.502 31.7245 24.8215C31.9471 24.3722 31.9964 23.9251 32.0351 21.9969L32.0812 19.7061H33.4115C34.5588 19.7061 34.7826 19.668 35.0393 19.4288C35.6626 18.8482 35.5407 17.9364 34.7892 17.5561C34.5976 17.4593 33.9392 17.3843 33.2685 17.3832L32.0857 17.3812L32.0332 15.0904C31.9867 13.0604 31.9467 12.7351 31.6822 12.233C31.3059 11.519 30.441 10.7713 29.7525 10.565C29.3883 10.4559 27.4939 10.4062 23.6923 10.4062H18.162L17.4474 10.7622ZM29.4717 12.9857C29.7189 13.2911 29.7331 13.5945 29.7331 18.5841C29.7331 23.8126 29.7305 23.8626 29.4358 24.1764L29.1383 24.4928H23.8435C18.835 24.4928 18.5314 24.4788 18.226 24.2315L17.9031 23.9701L17.8642 18.6867L17.8254 13.4033L18.2345 12.9942L18.6435 12.5852L23.9269 12.624L29.2104 12.6628L29.4717 12.9857ZM25.9372 15.2669C25.7719 15.3828 25.1031 16.3687 24.451 17.4579L23.2657 19.4382L22.9094 19.2039C21.4264 18.2295 21.265 18.1591 20.81 18.2874C20.5076 18.3727 20.2905 18.5607 20.1331 18.8741C19.7465 19.6435 20.0023 20.0077 21.6806 21.078C23.4004 22.1747 23.5833 22.2432 24.0904 21.9811C24.5919 21.7218 27.6816 16.6647 27.6816 16.1031C27.6816 15.2854 26.6303 14.7814 25.9372 15.2669ZM39.0661 17.5855C38.6463 17.7679 38.3492 18.2298 38.3492 18.6998C38.3492 18.8136 38.529 19.0865 38.7489 19.3064L39.1487 19.7061H56.367C75.8511 19.7061 74.3958 19.6228 75.4528 20.7986C76.1283 21.5498 76.3693 22.2108 76.3693 23.312V24.0826L74.1469 24.0856C71.7107 24.0888 71.1347 24.2281 70.3049 25.0138C69.4255 25.8467 69.3356 26.2129 69.2818 29.177L69.2328 31.8781H64.1851C59.3194 31.8781 59.1273 31.8879 58.8636 32.1516C58.4172 32.598 58.4544 33.3153 58.9472 33.7585C59.2887 34.0657 59.297 34.0663 64.2734 34.0663H69.2576V35.7509C69.2576 37.8917 69.4671 38.6593 70.2705 39.4628C71.3017 40.4939 71.4346 40.5116 77.7556 40.4658C83.1356 40.4267 83.29 40.4181 83.8359 40.1261C84.4878 39.7772 85.2129 38.9964 85.4811 38.3545C85.6306 37.9968 85.6685 36.7448 85.6662 32.2585C85.6629 25.9808 85.6675 26.0167 84.718 25.0671C83.8618 24.211 83.6477 24.1556 81.0005 24.1061L78.5884 24.0608L78.5305 22.7383C78.4823 21.636 78.407 21.2789 78.079 20.5951C77.3036 18.9788 75.7162 17.8102 73.9075 17.5239C73.3326 17.433 67.0996 17.3847 56.2651 17.3876C42.1239 17.3912 39.4422 17.4221 39.0661 17.5855ZM83.1556 26.7282L83.4901 27.1173L83.4514 32.3819L83.4126 37.6464L83.0897 37.9078C82.7843 38.1551 82.4803 38.1692 77.4482 38.1692C72.3119 38.1692 72.1202 38.1597 71.8561 37.8956C71.592 37.6315 71.5826 37.4398 71.5826 32.3477C71.5826 28.8772 71.6324 26.9803 71.7282 26.8011C71.8084 26.6514 72.0085 26.4736 72.1727 26.406C72.3371 26.3385 74.8002 26.2958 77.6462 26.3111L82.8211 26.3391L83.1556 26.7282ZM79.5524 29.0003C79.3943 29.1476 78.7576 30.117 78.1372 31.1543C77.5169 32.1918 76.9928 33.0619 76.9724 33.0879C76.9522 33.114 76.6696 32.9534 76.3447 32.731C74.9655 31.7875 74.4376 31.7138 73.9054 32.3905C73.3028 33.1566 73.6285 33.6805 75.4099 34.8097C77.1193 35.8934 77.3597 35.974 77.8366 35.6229C78.045 35.4693 78.9072 34.2101 79.7525 32.8246C80.9704 30.8281 81.2897 30.2009 81.2911 29.8024C81.2941 28.9013 80.2004 28.3967 79.5524 29.0003ZM47.9157 30.8988C47.6641 31.1025 47.5467 31.4684 47.2987 32.8227C47.1302 33.7425 46.9708 34.5118 46.9446 34.5323C46.9183 34.5529 46.3737 34.8228 45.7344 35.1321C45.095 35.4414 44.2397 35.9496 43.8335 36.2613L43.0952 36.8281L41.5769 36.2666C39.8317 35.6214 39.5447 35.5919 39.1275 36.0151C38.6219 36.5279 36.708 40.022 36.708 40.4323C36.708 40.8325 37.1343 41.2902 38.6562 42.5241C39.4056 43.1316 39.4376 43.1832 39.35 43.6397C39.2314 44.2566 39.231 46.5752 39.3493 47.1955C39.4387 47.6653 39.4173 47.6933 38.2005 48.6999C36.8828 49.7899 36.7077 50.0013 36.7084 50.503C36.7091 50.9867 38.9308 54.7477 39.3597 54.991C39.6983 55.1832 39.8292 55.1588 41.4172 54.6083L43.1129 54.0204L43.8424 54.5806C44.2436 54.8886 45.095 55.3938 45.7344 55.7031C46.3737 56.0124 46.9183 56.2823 46.9446 56.3028C46.9708 56.3234 47.1302 57.0926 47.2987 58.0125C47.7155 60.2878 47.5612 60.188 50.6578 60.188C53.7503 60.188 53.5937 60.2893 54.0106 58.0183C54.1793 57.0985 54.3402 56.3279 54.3681 56.3059C54.396 56.2837 54.9419 56.0124 55.5813 55.7031C56.2207 55.3938 57.076 54.8856 57.4822 54.5739L58.2204 54.0071L59.7388 54.5685C61.433 55.1951 61.7192 55.2335 62.1203 54.8884C62.5092 54.5541 64.6077 50.863 64.6077 50.5134C64.6077 49.997 64.4616 49.8189 63.1555 48.7444L61.8647 47.6823L61.9659 47.0627C62.0886 46.3113 62.0859 44.2965 61.961 43.6315C61.8717 43.1551 61.8889 43.133 63.1584 42.0885C64.4671 41.0118 64.6081 40.8389 64.6072 40.312C64.6066 39.9514 62.5194 36.282 62.1243 35.9468C61.7177 35.602 61.4334 35.64 59.7388 36.2666L58.2204 36.8281L57.4822 36.2613C57.076 35.9496 56.2207 35.4403 55.5813 35.1296C54.9419 34.8187 54.3797 34.5064 54.332 34.4354C54.2842 34.3644 54.1353 33.6236 54.0011 32.7892C53.6453 30.5778 53.7528 30.6472 50.6792 30.6472C48.5015 30.6472 48.1916 30.6754 47.9157 30.8988ZM28.2287 32.1363C25.6813 32.9608 23.8095 34.8592 22.9543 37.4853C22.7378 38.15 22.7029 38.9402 22.6544 44.2779L22.5994 50.3184L20.3195 50.3651C17.7483 50.4179 17.3278 50.544 16.4712 51.5197C15.6377 52.469 15.6462 52.3962 15.6495 58.5767C15.6522 63.7571 15.6732 64.2681 15.9033 64.7749C16.2195 65.4706 17.2428 66.3815 17.9451 66.5918C18.3176 66.7034 20.153 66.7526 23.9439 66.7526H29.4058L30.1167 66.3984C31.671 65.6238 32.0581 64.667 32.0581 61.5991V59.5042H37.0399H42.0219L42.3053 59.1438C42.6891 58.6561 42.6684 58.0669 42.2531 57.6517L41.9174 57.316H36.9877H32.0581V55.3578C32.0581 52.9237 31.8751 52.2024 31.0482 51.3755C30.1759 50.5033 29.5468 50.3411 27.0353 50.3411H24.9331L24.9762 44.2893C25.0164 38.6466 25.0375 38.1934 25.2877 37.583C25.8467 36.2196 27.1009 34.9656 28.4631 34.408C29.0737 34.1582 29.5731 34.1355 35.9181 34.069C42.4892 34.0003 42.7273 33.9887 42.9847 33.7244C43.4083 33.2893 43.415 32.5675 42.9991 32.1516C42.7327 31.8852 42.5483 31.8782 35.8532 31.8854C29.6491 31.892 28.9077 31.9165 28.2287 32.1363ZM51.7523 32.938C51.7538 33.2786 52.1967 35.5664 52.3228 35.8848C52.4667 36.248 53.0479 36.6648 53.4105 36.6648C53.8119 36.6648 55.8563 37.7995 56.607 38.4388C57.0583 38.8232 57.5663 39.1727 57.7359 39.2154C57.9205 39.262 58.5835 39.0952 59.3881 38.7995C60.1272 38.528 60.8009 38.3059 60.8852 38.3059C61.1076 38.3059 62.0771 40.093 61.913 40.2004C61.2162 40.6565 59.6553 42.1364 59.5876 42.4054C59.5407 42.5917 59.574 43.162 59.6616 43.673C59.8639 44.8526 59.8639 45.9826 59.6616 47.1621C59.574 47.6732 59.5413 48.2467 59.589 48.4366C59.6628 48.731 60.3115 49.343 61.7672 50.4919C62.0431 50.7096 62.0414 50.7176 61.5366 51.6202C61.2571 52.1202 60.9616 52.5293 60.8802 52.5293C60.7987 52.5293 60.1272 52.3072 59.3881 52.0357C58.5143 51.7147 57.9268 51.5714 57.7086 51.6262C57.5242 51.6725 57.0162 52.0231 56.5798 52.4055C55.86 53.036 53.8231 54.1704 53.4105 54.1704C53.0479 54.1704 52.4667 54.5871 52.3228 54.9504C52.1967 55.2688 51.7538 57.5565 51.7523 57.8972C51.7521 57.9537 51.2596 57.9998 50.6578 57.9998C50.0561 57.9998 49.5636 57.9537 49.5633 57.8972C49.5618 57.5565 49.119 55.2688 48.9929 54.9504C48.849 54.5871 48.2678 54.1704 47.9052 54.1704C47.4926 54.1704 45.4556 53.036 44.7358 52.4055C44.2994 52.0231 43.7915 51.6725 43.607 51.6262C43.3889 51.5714 42.8013 51.7147 41.9276 52.0357C41.1885 52.3072 40.517 52.5293 40.4355 52.5293C40.3541 52.5293 40.0586 52.1202 39.779 51.6202C39.2742 50.7176 39.2726 50.7096 39.5484 50.4919C41.0041 49.343 41.6528 48.731 41.7267 48.4366C41.7744 48.2467 41.7417 47.6732 41.654 47.1621C41.4531 45.9904 41.4516 44.8425 41.6494 43.6443C41.7346 43.129 41.7677 42.5633 41.723 42.3872C41.6781 42.2102 41.1216 41.6383 40.4802 41.1096C39.8414 40.583 39.3161 40.1105 39.3126 40.0595C39.2998 39.8658 40.3024 38.3059 40.4397 38.3059C40.5189 38.3059 41.1885 38.528 41.9276 38.7995C42.7321 39.0952 43.3952 39.262 43.5798 39.2154C43.7494 39.1727 44.2573 38.8232 44.7086 38.4388C45.4593 37.7995 47.5038 36.6648 47.9052 36.6648C48.2678 36.6648 48.849 36.248 48.9929 35.8848C49.119 35.5664 49.5618 33.2786 49.5633 32.938C49.5636 32.8816 50.0561 32.8354 50.6578 32.8354C51.2596 32.8354 51.7521 32.8816 51.7523 32.938ZM49.032 39.0692C45.5644 40.0018 43.419 43.5922 44.3026 46.9846C45.2175 50.4974 48.8026 52.6643 52.2249 51.7728C55.7274 50.8605 57.9042 47.2721 57.0184 43.8712C56.0951 40.3265 52.4676 38.1452 49.032 39.0692ZM52.3763 41.5032C53.3681 41.965 54.0033 42.5778 54.4808 43.5333C54.8359 44.2442 54.8973 44.5203 54.8961 45.4053C54.8939 47.1508 54.0843 48.47 52.5421 49.2405C51.83 49.5964 51.5549 49.6572 50.6578 49.6572C49.7608 49.6572 49.4856 49.5964 48.7735 49.2405C47.2349 48.4718 46.4209 47.1489 46.4209 45.4176C46.4209 43.6863 47.2349 42.3634 48.7735 41.5947C49.8783 41.0425 51.3091 41.0063 52.3763 41.5032ZM29.4596 52.9396C29.7238 53.2038 29.7331 53.3954 29.7331 58.5468C29.7331 63.6318 29.7208 63.8929 29.4694 64.1443C29.0696 64.544 28.4215 64.5852 23.259 64.5388L18.4946 64.496L18.1601 64.107L17.8255 63.7179L17.8642 58.4797C17.9007 53.5509 17.9185 53.2246 18.1636 52.9538C18.42 52.6706 18.5093 52.666 23.8051 52.666C29.0037 52.666 29.1953 52.6753 29.4596 52.9396ZM25.8583 55.2987C25.6745 55.468 25.021 56.4527 24.4062 57.4872C23.1548 59.5921 23.3754 59.4793 22.0977 58.6691C21.152 58.0693 20.3357 58.1842 20.0497 58.9571C19.8674 59.4498 20.0176 59.8966 20.4845 60.2513C21.4488 60.984 23.3677 62.1027 23.6604 62.1027C23.8327 62.1027 24.1277 61.9643 24.3159 61.795C24.8092 61.3512 27.6816 56.5061 27.6816 56.1177C27.6816 55.6847 26.977 54.991 26.5373 54.991C26.3476 54.991 26.0421 55.1294 25.8583 55.2987ZM58.6157 57.5307C58.4417 57.6535 58.2441 57.8993 58.1765 58.0768C58.0228 58.4812 58.251 59.1859 58.5954 59.3703C58.7493 59.4526 61.5288 59.5042 65.8105 59.5042C69.6411 59.5042 73.0625 59.5436 73.4137 59.5917C74.3394 59.7186 75.3892 60.3982 75.8745 61.1847C76.2087 61.7267 76.2893 62.0273 76.3414 62.9285L76.4044 64.0174H74.3602C71.8385 64.0174 71.1756 64.183 70.3032 65.0309C69.4095 65.8994 69.2576 66.5311 69.2576 69.376V71.6761H67.9021C66.5564 71.6761 66.5441 71.6791 66.1926 72.0969C65.7853 72.5809 65.7611 72.7709 66.0386 73.3074C66.3032 73.8193 66.4583 73.8643 67.9549 73.8643H69.2283L69.2829 75.9499C69.3304 77.761 69.3767 78.1101 69.6348 78.6022C70.0124 79.3218 70.9384 80.1188 71.6061 80.2985C71.9289 80.3854 74.2466 80.4232 77.7786 80.3991L83.4345 80.3606L84.1038 79.9467C84.5182 79.6904 84.9306 79.2779 85.1869 78.8635L85.6008 78.1942L85.6394 72.5384C85.6634 69.0064 85.6257 66.6886 85.5387 66.3659C85.3591 65.699 84.563 64.7731 83.8424 64.3928C83.3379 64.1266 83.0192 64.0884 80.932 64.0424L78.5883 63.9908L78.5329 62.6707C78.489 61.6209 78.4061 61.1965 78.1282 60.5983C77.5888 59.4372 76.6548 58.4986 75.4427 57.8994L74.4008 57.3844L66.6665 57.3459C59.6953 57.3113 58.9008 57.3297 58.6157 57.5307ZM83.0897 66.6037L83.4126 66.8651L83.4514 72.1485L83.4903 77.4319L83.0812 77.841L82.6721 78.25L77.3887 78.2112L72.1053 78.1723L71.8439 77.8495C71.5968 77.5441 71.5826 77.2407 71.5826 72.2511C71.5826 67.0226 71.5852 66.9725 71.8799 66.6588L72.1774 66.3423H77.4721C82.4807 66.3423 82.7843 66.3564 83.0897 66.6037ZM50.9115 68.0244C50.3583 68.4229 48.8735 69.5098 47.612 70.4396C45.2286 72.1964 45.0183 72.4403 45.2702 73.1555C45.4447 73.6506 51.674 78.2407 52.1712 78.2407C52.7714 78.2407 53.2563 77.7586 53.2563 77.1624C53.2563 76.5544 53.0959 76.3864 51.1365 74.9413L49.7689 73.9327L56.222 73.8971L62.6752 73.8616L62.9576 73.5026C63.3107 73.0537 63.3191 72.4878 62.9787 72.0674L62.7173 71.7445L56.2517 71.6761L49.7861 71.6077L51.4545 70.3942C53.1259 69.1784 53.3666 68.887 53.2766 68.1886C53.2283 67.8142 52.6268 67.2997 52.2373 67.2997C52.0614 67.2997 51.4647 67.6257 50.9115 68.0244ZM79.6201 68.9362C79.4321 69.0842 78.8083 69.9919 78.2339 70.9534C77.6595 71.915 77.1341 72.7881 77.0662 72.8934C76.9668 73.0481 76.7696 72.9756 76.0441 72.5173C74.99 71.8517 74.4624 71.7926 73.9698 72.2854C73.5711 72.6839 73.5291 73.3014 73.8734 73.7028C74.2906 74.1891 76.9426 75.779 77.3367 75.779C77.5402 75.779 77.8309 75.6712 77.9827 75.5397C78.2696 75.291 80.9314 70.9532 81.2287 70.2497C81.4545 69.7156 81.2469 69.1316 80.7376 68.8684C80.2239 68.6026 80.0291 68.6145 79.6201 68.9362Z"></path></mask><path fill-rule="evenodd" clip-rule="evenodd" d="M17.4474 10.7622C17.0545 10.9581 16.5828 11.3153 16.3991 11.556C15.6487 12.5399 15.6465 12.5601 15.6465 18.4892C15.6465 22.2625 15.6961 24.1483 15.8053 24.5123C16.0107 25.1981 16.7567 26.0632 17.4732 26.4464C18.0325 26.7455 18.1152 26.7494 23.7839 26.7494C29.1904 26.7494 29.5593 26.7338 30.0617 26.4845C30.7427 26.1467 31.3872 25.502 31.7245 24.8215C31.9471 24.3722 31.9964 23.9251 32.0351 21.9969L32.0812 19.7061H33.4115C34.5588 19.7061 34.7826 19.668 35.0393 19.4288C35.6626 18.8482 35.5407 17.9364 34.7892 17.5561C34.5976 17.4593 33.9392 17.3843 33.2685 17.3832L32.0857 17.3812L32.0332 15.0904C31.9867 13.0604 31.9467 12.7351 31.6822 12.233C31.3059 11.519 30.441 10.7713 29.7525 10.565C29.3883 10.4559 27.4939 10.4062 23.6923 10.4062H18.162L17.4474 10.7622ZM29.4717 12.9857C29.7189 13.2911 29.7331 13.5945 29.7331 18.5841C29.7331 23.8126 29.7305 23.8626 29.4358 24.1764L29.1383 24.4928H23.8435C18.835 24.4928 18.5314 24.4788 18.226 24.2315L17.9031 23.9701L17.8642 18.6867L17.8254 13.4033L18.2345 12.9942L18.6435 12.5852L23.9269 12.624L29.2104 12.6628L29.4717 12.9857ZM25.9372 15.2669C25.7719 15.3828 25.1031 16.3687 24.451 17.4579L23.2657 19.4382L22.9094 19.2039C21.4264 18.2295 21.265 18.1591 20.81 18.2874C20.5076 18.3727 20.2905 18.5607 20.1331 18.8741C19.7465 19.6435 20.0023 20.0077 21.6806 21.078C23.4004 22.1747 23.5833 22.2432 24.0904 21.9811C24.5919 21.7218 27.6816 16.6647 27.6816 16.1031C27.6816 15.2854 26.6303 14.7814 25.9372 15.2669ZM39.0661 17.5855C38.6463 17.7679 38.3492 18.2298 38.3492 18.6998C38.3492 18.8136 38.529 19.0865 38.7489 19.3064L39.1487 19.7061H56.367C75.8511 19.7061 74.3958 19.6228 75.4528 20.7986C76.1283 21.5498 76.3693 22.2108 76.3693 23.312V24.0826L74.1469 24.0856C71.7107 24.0888 71.1347 24.2281 70.3049 25.0138C69.4255 25.8467 69.3356 26.2129 69.2818 29.177L69.2328 31.8781H64.1851C59.3194 31.8781 59.1273 31.8879 58.8636 32.1516C58.4172 32.598 58.4544 33.3153 58.9472 33.7585C59.2887 34.0657 59.297 34.0663 64.2734 34.0663H69.2576V35.7509C69.2576 37.8917 69.4671 38.6593 70.2705 39.4628C71.3017 40.4939 71.4346 40.5116 77.7556 40.4658C83.1356 40.4267 83.29 40.4181 83.8359 40.1261C84.4878 39.7772 85.2129 38.9964 85.4811 38.3545C85.6306 37.9968 85.6685 36.7448 85.6662 32.2585C85.6629 25.9808 85.6675 26.0167 84.718 25.0671C83.8618 24.211 83.6477 24.1556 81.0005 24.1061L78.5884 24.0608L78.5305 22.7383C78.4823 21.636 78.407 21.2789 78.079 20.5951C77.3036 18.9788 75.7162 17.8102 73.9075 17.5239C73.3326 17.433 67.0996 17.3847 56.2651 17.3876C42.1239 17.3912 39.4422 17.4221 39.0661 17.5855ZM83.1556 26.7282L83.4901 27.1173L83.4514 32.3819L83.4126 37.6464L83.0897 37.9078C82.7843 38.1551 82.4803 38.1692 77.4482 38.1692C72.3119 38.1692 72.1202 38.1597 71.8561 37.8956C71.592 37.6315 71.5826 37.4398 71.5826 32.3477C71.5826 28.8772 71.6324 26.9803 71.7282 26.8011C71.8084 26.6514 72.0085 26.4736 72.1727 26.406C72.3371 26.3385 74.8002 26.2958 77.6462 26.3111L82.8211 26.3391L83.1556 26.7282ZM79.5524 29.0003C79.3943 29.1476 78.7576 30.117 78.1372 31.1543C77.5169 32.1918 76.9928 33.0619 76.9724 33.0879C76.9522 33.114 76.6696 32.9534 76.3447 32.731C74.9655 31.7875 74.4376 31.7138 73.9054 32.3905C73.3028 33.1566 73.6285 33.6805 75.4099 34.8097C77.1193 35.8934 77.3597 35.974 77.8366 35.6229C78.045 35.4693 78.9072 34.2101 79.7525 32.8246C80.9704 30.8281 81.2897 30.2009 81.2911 29.8024C81.2941 28.9013 80.2004 28.3967 79.5524 29.0003ZM47.9157 30.8988C47.6641 31.1025 47.5467 31.4684 47.2987 32.8227C47.1302 33.7425 46.9708 34.5118 46.9446 34.5323C46.9183 34.5529 46.3737 34.8228 45.7344 35.1321C45.095 35.4414 44.2397 35.9496 43.8335 36.2613L43.0952 36.8281L41.5769 36.2666C39.8317 35.6214 39.5447 35.5919 39.1275 36.0151C38.6219 36.5279 36.708 40.022 36.708 40.4323C36.708 40.8325 37.1343 41.2902 38.6562 42.5241C39.4056 43.1316 39.4376 43.1832 39.35 43.6397C39.2314 44.2566 39.231 46.5752 39.3493 47.1955C39.4387 47.6653 39.4173 47.6933 38.2005 48.6999C36.8828 49.7899 36.7077 50.0013 36.7084 50.503C36.7091 50.9867 38.9308 54.7477 39.3597 54.991C39.6983 55.1832 39.8292 55.1588 41.4172 54.6083L43.1129 54.0204L43.8424 54.5806C44.2436 54.8886 45.095 55.3938 45.7344 55.7031C46.3737 56.0124 46.9183 56.2823 46.9446 56.3028C46.9708 56.3234 47.1302 57.0926 47.2987 58.0125C47.7155 60.2878 47.5612 60.188 50.6578 60.188C53.7503 60.188 53.5937 60.2893 54.0106 58.0183C54.1793 57.0985 54.3402 56.3279 54.3681 56.3059C54.396 56.2837 54.9419 56.0124 55.5813 55.7031C56.2207 55.3938 57.076 54.8856 57.4822 54.5739L58.2204 54.0071L59.7388 54.5685C61.433 55.1951 61.7192 55.2335 62.1203 54.8884C62.5092 54.5541 64.6077 50.863 64.6077 50.5134C64.6077 49.997 64.4616 49.8189 63.1555 48.7444L61.8647 47.6823L61.9659 47.0627C62.0886 46.3113 62.0859 44.2965 61.961 43.6315C61.8717 43.1551 61.8889 43.133 63.1584 42.0885C64.4671 41.0118 64.6081 40.8389 64.6072 40.312C64.6066 39.9514 62.5194 36.282 62.1243 35.9468C61.7177 35.602 61.4334 35.64 59.7388 36.2666L58.2204 36.8281L57.4822 36.2613C57.076 35.9496 56.2207 35.4403 55.5813 35.1296C54.9419 34.8187 54.3797 34.5064 54.332 34.4354C54.2842 34.3644 54.1353 33.6236 54.0011 32.7892C53.6453 30.5778 53.7528 30.6472 50.6792 30.6472C48.5015 30.6472 48.1916 30.6754 47.9157 30.8988ZM28.2287 32.1363C25.6813 32.9608 23.8095 34.8592 22.9543 37.4853C22.7378 38.15 22.7029 38.9402 22.6544 44.2779L22.5994 50.3184L20.3195 50.3651C17.7483 50.4179 17.3278 50.544 16.4712 51.5197C15.6377 52.469 15.6462 52.3962 15.6495 58.5767C15.6522 63.7571 15.6732 64.2681 15.9033 64.7749C16.2195 65.4706 17.2428 66.3815 17.9451 66.5918C18.3176 66.7034 20.153 66.7526 23.9439 66.7526H29.4058L30.1167 66.3984C31.671 65.6238 32.0581 64.667 32.0581 61.5991V59.5042H37.0399H42.0219L42.3053 59.1438C42.6891 58.6561 42.6684 58.0669 42.2531 57.6517L41.9174 57.316H36.9877H32.0581V55.3578C32.0581 52.9237 31.8751 52.2024 31.0482 51.3755C30.1759 50.5033 29.5468 50.3411 27.0353 50.3411H24.9331L24.9762 44.2893C25.0164 38.6466 25.0375 38.1934 25.2877 37.583C25.8467 36.2196 27.1009 34.9656 28.4631 34.408C29.0737 34.1582 29.5731 34.1355 35.9181 34.069C42.4892 34.0003 42.7273 33.9887 42.9847 33.7244C43.4083 33.2893 43.415 32.5675 42.9991 32.1516C42.7327 31.8852 42.5483 31.8782 35.8532 31.8854C29.6491 31.892 28.9077 31.9165 28.2287 32.1363ZM51.7523 32.938C51.7538 33.2786 52.1967 35.5664 52.3228 35.8848C52.4667 36.248 53.0479 36.6648 53.4105 36.6648C53.8119 36.6648 55.8563 37.7995 56.607 38.4388C57.0583 38.8232 57.5663 39.1727 57.7359 39.2154C57.9205 39.262 58.5835 39.0952 59.3881 38.7995C60.1272 38.528 60.8009 38.3059 60.8852 38.3059C61.1076 38.3059 62.0771 40.093 61.913 40.2004C61.2162 40.6565 59.6553 42.1364 59.5876 42.4054C59.5407 42.5917 59.574 43.162 59.6616 43.673C59.8639 44.8526 59.8639 45.9826 59.6616 47.1621C59.574 47.6732 59.5413 48.2467 59.589 48.4366C59.6628 48.731 60.3115 49.343 61.7672 50.4919C62.0431 50.7096 62.0414 50.7176 61.5366 51.6202C61.2571 52.1202 60.9616 52.5293 60.8802 52.5293C60.7987 52.5293 60.1272 52.3072 59.3881 52.0357C58.5143 51.7147 57.9268 51.5714 57.7086 51.6262C57.5242 51.6725 57.0162 52.0231 56.5798 52.4055C55.86 53.036 53.8231 54.1704 53.4105 54.1704C53.0479 54.1704 52.4667 54.5871 52.3228 54.9504C52.1967 55.2688 51.7538 57.5565 51.7523 57.8972C51.7521 57.9537 51.2596 57.9998 50.6578 57.9998C50.0561 57.9998 49.5636 57.9537 49.5633 57.8972C49.5618 57.5565 49.119 55.2688 48.9929 54.9504C48.849 54.5871 48.2678 54.1704 47.9052 54.1704C47.4926 54.1704 45.4556 53.036 44.7358 52.4055C44.2994 52.0231 43.7915 51.6725 43.607 51.6262C43.3889 51.5714 42.8013 51.7147 41.9276 52.0357C41.1885 52.3072 40.517 52.5293 40.4355 52.5293C40.3541 52.5293 40.0586 52.1202 39.779 51.6202C39.2742 50.7176 39.2726 50.7096 39.5484 50.4919C41.0041 49.343 41.6528 48.731 41.7267 48.4366C41.7744 48.2467 41.7417 47.6732 41.654 47.1621C41.4531 45.9904 41.4516 44.8425 41.6494 43.6443C41.7346 43.129 41.7677 42.5633 41.723 42.3872C41.6781 42.2102 41.1216 41.6383 40.4802 41.1096C39.8414 40.583 39.3161 40.1105 39.3126 40.0595C39.2998 39.8658 40.3024 38.3059 40.4397 38.3059C40.5189 38.3059 41.1885 38.528 41.9276 38.7995C42.7321 39.0952 43.3952 39.262 43.5798 39.2154C43.7494 39.1727 44.2573 38.8232 44.7086 38.4388C45.4593 37.7995 47.5038 36.6648 47.9052 36.6648C48.2678 36.6648 48.849 36.248 48.9929 35.8848C49.119 35.5664 49.5618 33.2786 49.5633 32.938C49.5636 32.8816 50.0561 32.8354 50.6578 32.8354C51.2596 32.8354 51.7521 32.8816 51.7523 32.938ZM49.032 39.0692C45.5644 40.0018 43.419 43.5922 44.3026 46.9846C45.2175 50.4974 48.8026 52.6643 52.2249 51.7728C55.7274 50.8605 57.9042 47.2721 57.0184 43.8712C56.0951 40.3265 52.4676 38.1452 49.032 39.0692ZM52.3763 41.5032C53.3681 41.965 54.0033 42.5778 54.4808 43.5333C54.8359 44.2442 54.8973 44.5203 54.8961 45.4053C54.8939 47.1508 54.0843 48.47 52.5421 49.2405C51.83 49.5964 51.5549 49.6572 50.6578 49.6572C49.7608 49.6572 49.4856 49.5964 48.7735 49.2405C47.2349 48.4718 46.4209 47.1489 46.4209 45.4176C46.4209 43.6863 47.2349 42.3634 48.7735 41.5947C49.8783 41.0425 51.3091 41.0063 52.3763 41.5032ZM29.4596 52.9396C29.7238 53.2038 29.7331 53.3954 29.7331 58.5468C29.7331 63.6318 29.7208 63.8929 29.4694 64.1443C29.0696 64.544 28.4215 64.5852 23.259 64.5388L18.4946 64.496L18.1601 64.107L17.8255 63.7179L17.8642 58.4797C17.9007 53.5509 17.9185 53.2246 18.1636 52.9538C18.42 52.6706 18.5093 52.666 23.8051 52.666C29.0037 52.666 29.1953 52.6753 29.4596 52.9396ZM25.8583 55.2987C25.6745 55.468 25.021 56.4527 24.4062 57.4872C23.1548 59.5921 23.3754 59.4793 22.0977 58.6691C21.152 58.0693 20.3357 58.1842 20.0497 58.9571C19.8674 59.4498 20.0176 59.8966 20.4845 60.2513C21.4488 60.984 23.3677 62.1027 23.6604 62.1027C23.8327 62.1027 24.1277 61.9643 24.3159 61.795C24.8092 61.3512 27.6816 56.5061 27.6816 56.1177C27.6816 55.6847 26.977 54.991 26.5373 54.991C26.3476 54.991 26.0421 55.1294 25.8583 55.2987ZM58.6157 57.5307C58.4417 57.6535 58.2441 57.8993 58.1765 58.0768C58.0228 58.4812 58.251 59.1859 58.5954 59.3703C58.7493 59.4526 61.5288 59.5042 65.8105 59.5042C69.6411 59.5042 73.0625 59.5436 73.4137 59.5917C74.3394 59.7186 75.3892 60.3982 75.8745 61.1847C76.2087 61.7267 76.2893 62.0273 76.3414 62.9285L76.4044 64.0174H74.3602C71.8385 64.0174 71.1756 64.183 70.3032 65.0309C69.4095 65.8994 69.2576 66.5311 69.2576 69.376V71.6761H67.9021C66.5564 71.6761 66.5441 71.6791 66.1926 72.0969C65.7853 72.5809 65.7611 72.7709 66.0386 73.3074C66.3032 73.8193 66.4583 73.8643 67.9549 73.8643H69.2283L69.2829 75.9499C69.3304 77.761 69.3767 78.1101 69.6348 78.6022C70.0124 79.3218 70.9384 80.1188 71.6061 80.2985C71.9289 80.3854 74.2466 80.4232 77.7786 80.3991L83.4345 80.3606L84.1038 79.9467C84.5182 79.6904 84.9306 79.2779 85.1869 78.8635L85.6008 78.1942L85.6394 72.5384C85.6634 69.0064 85.6257 66.6886 85.5387 66.3659C85.3591 65.699 84.563 64.7731 83.8424 64.3928C83.3379 64.1266 83.0192 64.0884 80.932 64.0424L78.5883 63.9908L78.5329 62.6707C78.489 61.6209 78.4061 61.1965 78.1282 60.5983C77.5888 59.4372 76.6548 58.4986 75.4427 57.8994L74.4008 57.3844L66.6665 57.3459C59.6953 57.3113 58.9008 57.3297 58.6157 57.5307ZM83.0897 66.6037L83.4126 66.8651L83.4514 72.1485L83.4903 77.4319L83.0812 77.841L82.6721 78.25L77.3887 78.2112L72.1053 78.1723L71.8439 77.8495C71.5968 77.5441 71.5826 77.2407 71.5826 72.2511C71.5826 67.0226 71.5852 66.9725 71.8799 66.6588L72.1774 66.3423H77.4721C82.4807 66.3423 82.7843 66.3564 83.0897 66.6037ZM50.9115 68.0244C50.3583 68.4229 48.8735 69.5098 47.612 70.4396C45.2286 72.1964 45.0183 72.4403 45.2702 73.1555C45.4447 73.6506 51.674 78.2407 52.1712 78.2407C52.7714 78.2407 53.2563 77.7586 53.2563 77.1624C53.2563 76.5544 53.0959 76.3864 51.1365 74.9413L49.7689 73.9327L56.222 73.8971L62.6752 73.8616L62.9576 73.5026C63.3107 73.0537 63.3191 72.4878 62.9787 72.0674L62.7173 71.7445L56.2517 71.6761L49.7861 71.6077L51.4545 70.3942C53.1259 69.1784 53.3666 68.887 53.2766 68.1886C53.2283 67.8142 52.6268 67.2997 52.2373 67.2997C52.0614 67.2997 51.4647 67.6257 50.9115 68.0244ZM79.6201 68.9362C79.4321 69.0842 78.8083 69.9919 78.2339 70.9534C77.6595 71.915 77.1341 72.7881 77.0662 72.8934C76.9668 73.0481 76.7696 72.9756 76.0441 72.5173C74.99 71.8517 74.4624 71.7926 73.9698 72.2854C73.5711 72.6839 73.5291 73.3014 73.8734 73.7028C74.2906 74.1891 76.9426 75.779 77.3367 75.779C77.5402 75.779 77.8309 75.6712 77.9827 75.5397C78.2696 75.291 80.9314 70.9532 81.2287 70.2497C81.4545 69.7156 81.2469 69.1316 80.7376 68.8684C80.2239 68.6026 80.0291 68.6145 79.6201 68.9362Z" fill="#1742E7" stroke="#1742E7" stroke-width="0.7" mask="url(#path-1-inside-1_549_2103)"></path></svg>