<svg xmlns="http://www.w3.org/2000/svg" width="81" height="81" viewBox="0 0 81 81" fill="none"><path d="M66.7101 32.688H60.3242C59.8204 32.688 59.4119 33.0965 59.4119 33.6003V34.5126H46.5483C49.4774 32.6782 51.4603 29.6576 51.9788 26.2406C52.4976 22.8236 51.4998 19.3504 49.2468 16.7301C46.9939 14.1093 43.7097 12.6016 40.2536 12.6016C36.7975 12.6016 33.5134 14.1093 31.2603 16.7301C29.0073 19.3504 28.0095 22.8235 28.5284 26.2406C29.0468 29.6575 31.0298 32.6782 33.9589 34.5126H21.0953V33.6003C21.0953 33.3584 20.9991 33.1262 20.8281 32.9552C20.657 32.7841 20.4249 32.688 20.183 32.688H13.797C13.2933 32.688 12.8848 33.0965 12.8848 33.6003V56.4072C12.8848 56.6491 12.9809 56.8812 13.1519 57.0523C13.323 57.2233 13.5551 57.3195 13.797 57.3195H20.183C20.4481 57.3146 20.6978 57.1948 20.8672 56.9912L31.4225 67.5371C32.0501 68.1627 32.8845 68.5386 33.7692 68.5944C34.6538 68.6498 35.5286 68.3818 36.2299 67.8398C36.9312 67.2977 37.411 66.519 37.5804 65.6486C38.0707 65.8922 38.6108 66.0205 39.1586 66.0229C40.0065 66.0233 40.8284 65.7285 41.4824 65.1892C42.1369 64.65 42.5829 63.8994 42.7438 63.067C43.2333 63.3146 43.7733 63.4458 44.322 63.4502C45.29 63.4511 46.219 63.067 46.9041 62.3828C47.4164 61.8652 47.7654 61.2087 47.9076 60.4944C48.3979 60.7379 48.938 60.8662 49.4858 60.8686C50.6457 60.8621 51.7335 60.3042 52.416 59.3663C53.0986 58.4279 53.2941 57.2212 52.943 56.1154C53.626 56.2164 54.3146 56.2681 55.0049 56.2706C56.489 56.2612 57.967 56.0837 59.4112 55.7416V56.4074C59.4112 56.6494 59.5073 56.8815 59.6784 57.0525C59.8494 57.2236 60.0816 57.3197 60.3235 57.3197H66.7094C66.9513 57.3197 67.1835 57.2236 67.3545 57.0525C67.5256 56.8815 67.6217 56.6494 67.6217 56.4074V33.6005C67.6217 33.3586 67.5256 33.1265 67.3545 32.9554C67.1835 32.7844 66.952 32.688 66.7101 32.688ZM30.2191 24.4775C30.2191 21.8161 31.2764 19.2637 33.1583 17.3817C35.0403 15.4997 37.5925 14.4425 40.2541 14.4425C42.9156 14.4425 45.4679 15.4998 47.3499 17.3817C49.2319 19.2637 50.2891 21.816 50.2891 24.4775C50.2891 27.1391 49.2318 29.6914 47.3499 31.5734C45.4679 33.4554 42.9156 34.5126 40.2541 34.5126C37.5925 34.5126 35.0403 33.4553 33.1583 31.5734C31.2763 29.6914 30.2191 27.1391 30.2191 24.4775ZM19.2717 55.4949H14.7104V34.5126H19.2717V55.4949ZM50.7729 58.5054C50.4308 58.8479 49.9665 59.0406 49.4823 59.0406C48.998 59.0406 48.5333 58.8479 48.1912 58.5054L40.4369 50.7511C40.2715 50.558 40.0333 50.4428 39.7791 50.433C39.525 50.4232 39.2786 50.5197 39.099 50.6994C38.919 50.879 38.8225 51.1258 38.8322 51.3795C38.842 51.6336 38.9577 51.8719 39.1507 52.0372L45.6095 58.5054C45.9801 58.8402 46.1976 59.3122 46.2107 59.8115C46.2237 60.3108 46.0319 60.7938 45.6792 61.1473C45.3265 61.5012 44.8443 61.695 44.345 61.6836C43.8456 61.6722 43.3728 61.4568 43.0368 61.087L41.7413 59.8008L36.6052 54.5825C36.2476 54.2249 35.6677 54.2249 35.3097 54.5825C34.9521 54.9401 34.9521 55.52 35.3097 55.878L40.4913 61.0507C40.9658 61.5182 41.1543 62.2033 40.9865 62.8479C40.8183 63.4926 40.3194 63.9984 39.6771 64.1752C39.0353 64.3519 38.3474 64.1727 37.8733 63.7052L36.6051 62.3823L32.719 58.4962C32.3635 58.1334 31.7815 58.1273 31.419 58.4824C31.0561 58.8375 31.05 59.4195 31.4051 59.7824L35.2912 63.7052C35.6342 64.0473 35.8264 64.512 35.8264 64.9963C35.8264 65.4805 35.6341 65.9448 35.2912 66.2869C34.9426 66.6168 34.4808 66.8004 34.0006 66.8004C33.5204 66.8004 33.0586 66.6168 32.7095 66.2869L21.096 54.6369V36.3371H40.7918L32.3076 44.8123C32.0889 45.0294 31.9948 45.3426 32.0576 45.6444C32.1199 45.9462 32.3308 46.1958 32.6175 46.3082C34.2503 46.9969 36.0003 47.3655 37.772 47.394C39.0549 47.4001 40.3259 47.1521 41.5123 46.6642L50.0238 55.185L50.7719 55.9238C51.1144 56.2659 51.3071 56.7302 51.3071 57.2144C51.3071 57.6987 51.1144 58.1634 50.7719 58.5055L50.7729 58.5054ZM51.2018 53.7799L43.2104 45.7792C44.5837 44.8706 45.724 43.6517 46.5403 42.2213C46.724 41.7803 46.5358 41.272 46.1094 41.0565C45.683 40.8407 45.1625 40.991 44.9161 41.4003C44.1098 42.8363 42.8933 43.9987 41.4222 44.739L41.3126 44.7936C39.2014 45.7368 36.8095 45.8387 34.6257 45.0766L43.3652 36.3371H59.4119V53.8622C57.9339 54.2454 54.121 54.9932 51.2018 53.7799ZM65.7982 55.4949H61.2368V34.5126H65.7982V55.4949Z" fill="#1742E7"></path><path d="M40.2519 19.9159C40.7358 19.9159 41.2001 20.1081 41.5422 20.4502C41.8843 20.7923 42.0765 21.2566 42.0765 21.7404C42.0765 22.2442 42.485 22.6527 42.9888 22.6527C43.4925 22.6527 43.901 22.2442 43.901 21.7404C43.8986 20.9336 43.6286 20.15 43.1333 19.5131C42.6381 18.8757 41.9457 18.4208 41.1642 18.2192V17.1791C41.1642 16.6753 40.7557 16.2668 40.2519 16.2668C39.7481 16.2668 39.3396 16.6753 39.3396 17.1791V18.2192C38.1968 18.5292 37.276 19.3746 36.8688 20.4865C36.4619 21.5983 36.6195 22.8385 37.2923 23.813C37.9647 24.7876 39.068 25.3752 40.252 25.3895C40.7358 25.3895 41.2001 25.5817 41.5422 25.9238C41.8843 26.2659 42.0765 26.7302 42.0765 27.2141C42.0765 27.6979 41.8843 28.1622 41.5422 28.5043C41.2001 28.8464 40.7358 29.0386 40.252 29.0386C39.7681 29.0386 39.3038 28.8464 38.9617 28.5043C38.6196 28.1622 38.4274 27.6979 38.4274 27.2141C38.4274 26.7103 38.0189 26.3018 37.5151 26.3018C37.0113 26.3018 36.6029 26.7103 36.6029 27.2141C36.6053 28.0209 36.8753 28.8044 37.3705 29.4414C37.8658 30.0787 38.5582 30.5337 39.3397 30.7352V31.7754C39.3397 32.2792 39.7482 32.6877 40.252 32.6877C40.7558 32.6877 41.1643 32.2792 41.1643 31.7754V30.7352C42.3071 30.4253 43.2279 29.5798 43.6351 28.468C44.042 27.3562 43.8844 26.116 43.2116 25.1415C42.5392 24.1669 41.4359 23.5792 40.2519 23.565C39.5999 23.565 38.9976 23.2172 38.6718 22.6527C38.346 22.0882 38.346 21.3926 38.6718 20.8281C38.9976 20.2637 39.5999 19.9159 40.2519 19.9159Z" fill="#1742E7"></path></svg>