<svg xmlns="http://www.w3.org/2000/svg" width="81" height="80" viewBox="0 0 81 80" fill="none"><mask id="path-1-inside-1_9889_3417" fill="white"><path fill-rule="evenodd" clip-rule="evenodd" d="M27.7027 12.133C23.594 12.9123 20.2034 16.3114 19.5262 20.3301L19.3734 21.2367L18.2722 21.3113C16.5849 21.4254 15.4099 21.9535 14.3509 23.0737C11.4059 26.1881 12.8933 31.2376 17.0768 32.3275C17.6204 32.4692 18.7071 32.5016 22.8975 32.5016H28.0497L27.8918 33.1108C27.1543 35.9543 29.0402 39.0232 31.9988 39.794C32.5554 39.939 33.505 39.9727 37.032 39.9727H41.3789L41.0925 40.2593C40.8572 40.4945 40.806 40.6614 40.806 41.1932V41.8405H28.9437C19.9712 41.8405 16.9643 41.875 16.6009 41.9824C15.9598 42.1719 14.9929 43.1389 14.8035 43.7802C14.6974 44.1394 14.6616 46.5491 14.6616 53.3233V62.3859H14.0727C13.6031 62.3859 13.4258 62.4439 13.1974 62.6725C13.0398 62.8301 12.9108 63.0573 12.9108 63.1774C12.9108 63.6622 13.4011 66.0772 13.5732 66.4398C13.8223 66.9649 14.6623 67.6841 15.2226 67.852C15.8814 68.0494 48.9235 68.0494 49.5822 67.852C50.1426 67.6841 50.9826 66.9649 51.2317 66.4398C51.4037 66.0772 51.894 63.6622 51.894 63.1774C51.894 63.0573 51.765 62.8301 51.6075 62.6725C51.3791 62.4439 51.2018 62.3859 50.7321 62.3859H50.1433V56.7826V51.1793H50.7905C51.3221 51.1793 51.489 51.1281 51.7242 50.8927C51.8818 50.7351 52.0116 50.5119 52.0125 50.3966C52.0163 49.949 52.1729 49.884 52.6545 50.1296C52.9142 50.262 53.213 50.3321 53.3485 50.2922C53.6573 50.2013 56.549 47.3511 56.6881 47.0004C56.7835 46.7602 56.6891 46.4143 56.357 45.7868C56.3334 45.7422 56.5257 45.6489 56.7843 45.5792C57.5744 45.3665 57.6131 45.2337 57.6131 42.7431C57.6131 40.5658 57.6105 40.5432 57.3266 40.2593L57.0402 39.9727H60.4534C63.1418 39.9727 64.0124 39.9348 64.5528 39.794C67.5419 39.0152 69.3997 35.9523 68.6437 33.0495C67.9752 30.4823 65.7343 28.7676 63.0451 28.7654L62.2234 28.7647L62.2166 27.6856C62.2059 25.9573 61.6039 24.5085 60.3852 23.2784C58.354 21.2278 55.4786 20.7426 52.8527 22.0074L51.8855 22.4731L51.2771 21.9534C50.3894 21.1955 49.1196 20.4465 48.1784 20.1259L47.3547 19.8455L47.1713 19.0236C46.5294 16.1455 44.2204 14.1084 41.3219 13.8631C40.1693 13.7655 39.0576 13.9851 37.9131 14.5363L36.9458 15.0021L36.3374 14.4857C35.0839 13.422 33.7377 12.7137 32.1714 12.2937C30.9981 11.9791 28.9102 11.904 27.7027 12.133ZM31.1448 13.9893C32.9041 14.3259 34.1351 14.9938 35.6468 16.4318C36.5274 17.2694 36.6477 17.3465 36.9734 17.2813C37.1704 17.242 37.52 17.0443 37.7502 16.842C37.9804 16.6399 38.5127 16.3115 38.933 16.1123C39.621 15.7863 39.8078 15.7501 40.806 15.7501C41.8087 15.7501 41.9894 15.7855 42.6944 16.1196C43.7499 16.6197 44.4503 17.294 44.9482 18.2893C45.1735 18.7398 45.3579 19.1801 45.3579 19.2678C45.3579 19.3871 45.156 19.4273 44.5562 19.4273C43.4466 19.4273 41.8765 19.7198 40.8528 20.1174C37.6828 21.3485 35.1191 24.3493 34.5109 27.5404C34.2544 28.8866 34.3455 28.7661 33.5832 28.7661C32.0843 28.7661 30.6279 29.2867 29.6784 30.162L29.1556 30.644L23.28 30.6098L17.4044 30.5755L16.6662 30.1752C15.865 29.7407 15.3909 29.2444 14.9893 28.4195C14.6097 27.64 14.6222 26.1321 15.0149 25.3224C15.377 24.5755 16.0791 23.8749 16.8208 23.5201C17.3222 23.2802 17.64 23.2312 19.0781 23.1726C20.6556 23.1084 20.7648 23.0886 20.9747 22.8288C21.1169 22.6531 21.1977 22.3713 21.1977 22.0511C21.1977 21.3584 21.4773 19.9689 21.7775 19.1696C21.9151 18.8032 22.2795 18.1203 22.5872 17.6521C24.4657 14.7936 27.8278 13.3546 31.1448 13.9893ZM46.0845 21.4603C47.8437 21.797 49.0747 22.4648 50.5864 23.9029C51.4671 24.7405 51.5874 24.8175 51.913 24.7524C52.1101 24.713 52.4596 24.5154 52.6899 24.3131C52.9201 24.1109 53.4524 23.7826 53.8727 23.5834C54.5606 23.2574 54.7475 23.2212 55.7457 23.2212C56.7484 23.2212 56.929 23.2565 57.6341 23.5906C58.7006 24.0959 59.3964 24.7694 59.8954 25.7792C60.4187 26.8382 60.534 27.8855 60.2496 28.9951C60.0227 29.8803 60.1305 30.3081 60.6286 30.5004C60.7996 30.5665 61.6748 30.6402 62.5736 30.664C63.9599 30.7009 64.2878 30.7462 64.7364 30.9633C65.5603 31.362 66.0573 31.8369 66.4896 32.6388C66.8534 33.3137 66.8877 33.4625 66.8877 34.3694C66.8877 35.2756 66.8533 35.4255 66.4911 36.0972C66.0509 36.9138 65.6878 37.2655 64.8036 37.732L64.2076 38.0466L60.3066 38.083L56.4056 38.1194L54.996 36.723C54.2208 35.9549 53.4794 35.295 53.3485 35.2566C53.213 35.2167 52.9142 35.2866 52.6545 35.4191C52.1729 35.6647 52.0163 35.5997 52.0125 35.1521C52.0116 35.0368 51.8818 34.8136 51.7242 34.656C51.4401 34.3717 51.4197 34.3694 49.2095 34.3694C46.9994 34.3694 46.979 34.3717 46.6949 34.656C46.5373 34.8136 46.4075 35.0368 46.4066 35.1521C46.4028 35.5997 46.2462 35.6647 45.7646 35.4191C45.5049 35.2866 45.2061 35.2167 45.0706 35.2566C44.9397 35.295 44.1989 35.9544 43.4243 36.7219L42.016 38.1171L37.18 38.0818L32.3441 38.0466L31.6058 37.6463C30.8047 37.2118 30.3306 36.7154 29.929 35.8906C29.5494 35.111 29.5619 33.6032 29.9545 32.7935C30.3167 32.0466 31.0187 31.346 31.7605 30.9912C32.2619 30.7513 32.5797 30.7023 34.0178 30.6437C35.5953 30.5795 35.7044 30.5596 35.9144 30.2999C36.0566 30.1242 36.1373 29.8424 36.1373 29.5222C36.1373 28.8295 36.417 27.44 36.7172 26.6407C36.8548 26.2743 37.2192 25.5914 37.5268 25.1231C39.4054 22.2646 42.7675 20.8256 46.0845 21.4603ZM50.503 36.8765C50.7728 38.0824 51.2915 38.3237 52.3557 37.7385L53.0627 37.3498L53.848 38.1352L54.6332 38.9206L54.2446 39.6276C53.6595 40.692 53.9007 41.2108 55.1064 41.4807L55.7457 41.6237V42.7744V43.925L55.1064 44.068C53.9007 44.3379 53.6595 44.8567 54.2446 45.9211L54.6332 46.6282L53.848 47.4136L53.0627 48.1989L52.3557 47.8102C51.2915 47.225 50.7728 47.4663 50.503 48.6722L50.36 49.3116H49.2095H48.0591L47.9161 48.6722C47.6463 47.4663 47.1276 47.225 46.0633 47.8102L45.3564 48.1989L44.5711 47.4136L43.7859 46.6282L44.1745 45.9211C44.7596 44.8567 44.5184 44.3379 43.3127 44.068L42.6734 43.925V42.7744V41.6237L43.3127 41.4807C44.5184 41.2108 44.7596 40.692 44.1745 39.6276L43.7859 38.9206L44.5711 38.1352L45.3564 37.3498L46.0633 37.7385C47.1276 38.3237 47.6463 38.0824 47.9161 36.8765L48.0591 36.2372H49.2095H50.36L50.503 36.8765ZM48.043 39.2258C46.3856 39.8301 45.366 41.3622 45.5024 43.0433C45.8035 46.7531 50.6729 47.7892 52.468 44.5254C52.8551 43.8216 52.8852 43.6947 52.8835 42.7744C52.8819 41.8692 52.8468 41.7173 52.4837 41.0438C51.8179 39.8088 50.8103 39.1702 49.3924 39.0845C48.8131 39.0495 48.4116 39.0915 48.043 39.2258ZM49.9482 41.0658C51.1474 41.567 51.4398 43.1394 50.5072 44.0722C49.1959 45.3838 47.047 44.209 47.392 42.3692C47.5983 41.2702 48.877 40.6181 49.9482 41.0658ZM62.2818 47.6345C62.2818 51.8425 62.2429 53.5601 62.1398 53.9091C61.9504 54.5503 60.9835 55.5173 60.3424 55.7068C60.007 55.8059 58.6773 55.8487 55.9364 55.8487H52.0107V56.7892V57.7297L56.3065 57.6939L60.6022 57.6581L61.4839 57.2221C62.5458 56.6971 63.2076 56.0208 63.7215 54.9359L64.0909 54.1561L64.1249 47.9983L64.1589 41.8405H63.2204H62.2818V47.6345ZM40.806 44.3243C40.806 45.0903 41.0195 45.4135 41.6348 45.5792C41.8934 45.6489 42.0857 45.7422 42.0621 45.7868C41.73 46.4143 41.6356 46.7602 41.731 47.0004C41.8701 47.3511 44.7618 50.2013 45.0706 50.2922C45.2061 50.3321 45.5049 50.262 45.7646 50.1296C46.2462 49.884 46.4028 49.949 46.4066 50.3966C46.4075 50.5119 46.5373 50.7351 46.6949 50.8927C46.9301 51.1281 47.097 51.1793 47.6286 51.1793H48.2758V56.7826V62.3859H41.5594H34.8428L34.5564 62.6725C34.3989 62.8301 34.2699 63.0402 34.2699 63.1395C34.2699 63.2946 34.009 63.3198 32.4024 63.3198C30.7958 63.3198 30.535 63.2946 30.535 63.1395C30.535 63.0402 30.406 62.8301 30.2484 62.6725L29.962 62.3859H23.2455H16.529V53.3337V44.2813L16.8156 43.9948L17.102 43.7083H28.954H40.806V44.3243ZM27.7338 53.0471V53.981H28.6675H29.6012V53.0471V52.1132H28.6675H27.7338V53.0471ZM31.4687 53.0471V53.981H32.4024H33.3361V53.0471V52.1132H32.4024H31.4687V53.0471ZM35.2036 53.0471V53.981H36.1373H37.0711V53.0471V52.1132H36.1373H35.2036V53.0471ZM28.6675 64.4341C28.6675 64.5333 28.7965 64.7434 28.954 64.901L29.2405 65.1876H32.4024H35.5644L35.8508 64.901C36.0084 64.7434 36.1373 64.5333 36.1373 64.4341C36.1373 64.2734 36.8861 64.2537 42.9805 64.2537H49.8237L49.7513 64.6915C49.7115 64.9323 49.6784 65.2235 49.6777 65.3388C49.677 65.4541 49.5474 65.6773 49.3899 65.8349L49.1035 66.1215H32.4024H15.7014L15.415 65.8349C15.2574 65.6773 15.1278 65.4541 15.1271 65.3388C15.1264 65.2235 15.0933 64.9323 15.0535 64.6915L14.9811 64.2537H21.8243C27.9188 64.2537 28.6675 64.2734 28.6675 64.4341Z"></path></mask><path fill-rule="evenodd" clip-rule="evenodd" d="M27.7027 12.133C23.594 12.9123 20.2034 16.3114 19.5262 20.3301L19.3734 21.2367L18.2722 21.3113C16.5849 21.4254 15.4099 21.9535 14.3509 23.0737C11.4059 26.1881 12.8933 31.2376 17.0768 32.3275C17.6204 32.4692 18.7071 32.5016 22.8975 32.5016H28.0497L27.8918 33.1108C27.1543 35.9543 29.0402 39.0232 31.9988 39.794C32.5554 39.939 33.505 39.9727 37.032 39.9727H41.3789L41.0925 40.2593C40.8572 40.4945 40.806 40.6614 40.806 41.1932V41.8405H28.9437C19.9712 41.8405 16.9643 41.875 16.6009 41.9824C15.9598 42.1719 14.9929 43.1389 14.8035 43.7802C14.6974 44.1394 14.6616 46.5491 14.6616 53.3233V62.3859H14.0727C13.6031 62.3859 13.4258 62.4439 13.1974 62.6725C13.0398 62.8301 12.9108 63.0573 12.9108 63.1774C12.9108 63.6622 13.4011 66.0772 13.5732 66.4398C13.8223 66.9649 14.6623 67.6841 15.2226 67.852C15.8814 68.0494 48.9235 68.0494 49.5822 67.852C50.1426 67.6841 50.9826 66.9649 51.2317 66.4398C51.4037 66.0772 51.894 63.6622 51.894 63.1774C51.894 63.0573 51.765 62.8301 51.6075 62.6725C51.3791 62.4439 51.2018 62.3859 50.7321 62.3859H50.1433V56.7826V51.1793H50.7905C51.3221 51.1793 51.489 51.1281 51.7242 50.8927C51.8818 50.7351 52.0116 50.5119 52.0125 50.3966C52.0163 49.949 52.1729 49.884 52.6545 50.1296C52.9142 50.262 53.213 50.3321 53.3485 50.2922C53.6573 50.2013 56.549 47.3511 56.6881 47.0004C56.7835 46.7602 56.6891 46.4143 56.357 45.7868C56.3334 45.7422 56.5257 45.6489 56.7843 45.5792C57.5744 45.3665 57.6131 45.2337 57.6131 42.7431C57.6131 40.5658 57.6105 40.5432 57.3266 40.2593L57.0402 39.9727H60.4534C63.1418 39.9727 64.0124 39.9348 64.5528 39.794C67.5419 39.0152 69.3997 35.9523 68.6437 33.0495C67.9752 30.4823 65.7343 28.7676 63.0451 28.7654L62.2234 28.7647L62.2166 27.6856C62.2059 25.9573 61.6039 24.5085 60.3852 23.2784C58.354 21.2278 55.4786 20.7426 52.8527 22.0074L51.8855 22.4731L51.2771 21.9534C50.3894 21.1955 49.1196 20.4465 48.1784 20.1259L47.3547 19.8455L47.1713 19.0236C46.5294 16.1455 44.2204 14.1084 41.3219 13.8631C40.1693 13.7655 39.0576 13.9851 37.9131 14.5363L36.9458 15.0021L36.3374 14.4857C35.0839 13.422 33.7377 12.7137 32.1714 12.2937C30.9981 11.9791 28.9102 11.904 27.7027 12.133ZM31.1448 13.9893C32.9041 14.3259 34.1351 14.9938 35.6468 16.4318C36.5274 17.2694 36.6477 17.3465 36.9734 17.2813C37.1704 17.242 37.52 17.0443 37.7502 16.842C37.9804 16.6399 38.5127 16.3115 38.933 16.1123C39.621 15.7863 39.8078 15.7501 40.806 15.7501C41.8087 15.7501 41.9894 15.7855 42.6944 16.1196C43.7499 16.6197 44.4503 17.294 44.9482 18.2893C45.1735 18.7398 45.3579 19.1801 45.3579 19.2678C45.3579 19.3871 45.156 19.4273 44.5562 19.4273C43.4466 19.4273 41.8765 19.7198 40.8528 20.1174C37.6828 21.3485 35.1191 24.3493 34.5109 27.5404C34.2544 28.8866 34.3455 28.7661 33.5832 28.7661C32.0843 28.7661 30.6279 29.2867 29.6784 30.162L29.1556 30.644L23.28 30.6098L17.4044 30.5755L16.6662 30.1752C15.865 29.7407 15.3909 29.2444 14.9893 28.4195C14.6097 27.64 14.6222 26.1321 15.0149 25.3224C15.377 24.5755 16.0791 23.8749 16.8208 23.5201C17.3222 23.2802 17.64 23.2312 19.0781 23.1726C20.6556 23.1084 20.7648 23.0886 20.9747 22.8288C21.1169 22.6531 21.1977 22.3713 21.1977 22.0511C21.1977 21.3584 21.4773 19.9689 21.7775 19.1696C21.9151 18.8032 22.2795 18.1203 22.5872 17.6521C24.4657 14.7936 27.8278 13.3546 31.1448 13.9893ZM46.0845 21.4603C47.8437 21.797 49.0747 22.4648 50.5864 23.9029C51.4671 24.7405 51.5874 24.8175 51.913 24.7524C52.1101 24.713 52.4596 24.5154 52.6899 24.3131C52.9201 24.1109 53.4524 23.7826 53.8727 23.5834C54.5606 23.2574 54.7475 23.2212 55.7457 23.2212C56.7484 23.2212 56.929 23.2565 57.6341 23.5906C58.7006 24.0959 59.3964 24.7694 59.8954 25.7792C60.4187 26.8382 60.534 27.8855 60.2496 28.9951C60.0227 29.8803 60.1305 30.3081 60.6286 30.5004C60.7996 30.5665 61.6748 30.6402 62.5736 30.664C63.9599 30.7009 64.2878 30.7462 64.7364 30.9633C65.5603 31.362 66.0573 31.8369 66.4896 32.6388C66.8534 33.3137 66.8877 33.4625 66.8877 34.3694C66.8877 35.2756 66.8533 35.4255 66.4911 36.0972C66.0509 36.9138 65.6878 37.2655 64.8036 37.732L64.2076 38.0466L60.3066 38.083L56.4056 38.1194L54.996 36.723C54.2208 35.9549 53.4794 35.295 53.3485 35.2566C53.213 35.2167 52.9142 35.2866 52.6545 35.4191C52.1729 35.6647 52.0163 35.5997 52.0125 35.1521C52.0116 35.0368 51.8818 34.8136 51.7242 34.656C51.4401 34.3717 51.4197 34.3694 49.2095 34.3694C46.9994 34.3694 46.979 34.3717 46.6949 34.656C46.5373 34.8136 46.4075 35.0368 46.4066 35.1521C46.4028 35.5997 46.2462 35.6647 45.7646 35.4191C45.5049 35.2866 45.2061 35.2167 45.0706 35.2566C44.9397 35.295 44.1989 35.9544 43.4243 36.7219L42.016 38.1171L37.18 38.0818L32.3441 38.0466L31.6058 37.6463C30.8047 37.2118 30.3306 36.7154 29.929 35.8906C29.5494 35.111 29.5619 33.6032 29.9545 32.7935C30.3167 32.0466 31.0187 31.346 31.7605 30.9912C32.2619 30.7513 32.5797 30.7023 34.0178 30.6437C35.5953 30.5795 35.7044 30.5596 35.9144 30.2999C36.0566 30.1242 36.1373 29.8424 36.1373 29.5222C36.1373 28.8295 36.417 27.44 36.7172 26.6407C36.8548 26.2743 37.2192 25.5914 37.5268 25.1231C39.4054 22.2646 42.7675 20.8256 46.0845 21.4603ZM50.503 36.8765C50.7728 38.0824 51.2915 38.3237 52.3557 37.7385L53.0627 37.3498L53.848 38.1352L54.6332 38.9206L54.2446 39.6276C53.6595 40.692 53.9007 41.2108 55.1064 41.4807L55.7457 41.6237V42.7744V43.925L55.1064 44.068C53.9007 44.3379 53.6595 44.8567 54.2446 45.9211L54.6332 46.6282L53.848 47.4136L53.0627 48.1989L52.3557 47.8102C51.2915 47.225 50.7728 47.4663 50.503 48.6722L50.36 49.3116H49.2095H48.0591L47.9161 48.6722C47.6463 47.4663 47.1276 47.225 46.0633 47.8102L45.3564 48.1989L44.5711 47.4136L43.7859 46.6282L44.1745 45.9211C44.7596 44.8567 44.5184 44.3379 43.3127 44.068L42.6734 43.925V42.7744V41.6237L43.3127 41.4807C44.5184 41.2108 44.7596 40.692 44.1745 39.6276L43.7859 38.9206L44.5711 38.1352L45.3564 37.3498L46.0633 37.7385C47.1276 38.3237 47.6463 38.0824 47.9161 36.8765L48.0591 36.2372H49.2095H50.36L50.503 36.8765ZM48.043 39.2258C46.3856 39.8301 45.366 41.3622 45.5024 43.0433C45.8035 46.7531 50.6729 47.7892 52.468 44.5254C52.8551 43.8216 52.8852 43.6947 52.8835 42.7744C52.8819 41.8692 52.8468 41.7173 52.4837 41.0438C51.8179 39.8088 50.8103 39.1702 49.3924 39.0845C48.8131 39.0495 48.4116 39.0915 48.043 39.2258ZM49.9482 41.0658C51.1474 41.567 51.4398 43.1394 50.5072 44.0722C49.1959 45.3838 47.047 44.209 47.392 42.3692C47.5983 41.2702 48.877 40.6181 49.9482 41.0658ZM62.2818 47.6345C62.2818 51.8425 62.2429 53.5601 62.1398 53.9091C61.9504 54.5503 60.9835 55.5173 60.3424 55.7068C60.007 55.8059 58.6773 55.8487 55.9364 55.8487H52.0107V56.7892V57.7297L56.3065 57.6939L60.6022 57.6581L61.4839 57.2221C62.5458 56.6971 63.2076 56.0208 63.7215 54.9359L64.0909 54.1561L64.1249 47.9983L64.1589 41.8405H63.2204H62.2818V47.6345ZM40.806 44.3243C40.806 45.0903 41.0195 45.4135 41.6348 45.5792C41.8934 45.6489 42.0857 45.7422 42.0621 45.7868C41.73 46.4143 41.6356 46.7602 41.731 47.0004C41.8701 47.3511 44.7618 50.2013 45.0706 50.2922C45.2061 50.3321 45.5049 50.262 45.7646 50.1296C46.2462 49.884 46.4028 49.949 46.4066 50.3966C46.4075 50.5119 46.5373 50.7351 46.6949 50.8927C46.9301 51.1281 47.097 51.1793 47.6286 51.1793H48.2758V56.7826V62.3859H41.5594H34.8428L34.5564 62.6725C34.3989 62.8301 34.2699 63.0402 34.2699 63.1395C34.2699 63.2946 34.009 63.3198 32.4024 63.3198C30.7958 63.3198 30.535 63.2946 30.535 63.1395C30.535 63.0402 30.406 62.8301 30.2484 62.6725L29.962 62.3859H23.2455H16.529V53.3337V44.2813L16.8156 43.9948L17.102 43.7083H28.954H40.806V44.3243ZM27.7338 53.0471V53.981H28.6675H29.6012V53.0471V52.1132H28.6675H27.7338V53.0471ZM31.4687 53.0471V53.981H32.4024H33.3361V53.0471V52.1132H32.4024H31.4687V53.0471ZM35.2036 53.0471V53.981H36.1373H37.0711V53.0471V52.1132H36.1373H35.2036V53.0471ZM28.6675 64.4341C28.6675 64.5333 28.7965 64.7434 28.954 64.901L29.2405 65.1876H32.4024H35.5644L35.8508 64.901C36.0084 64.7434 36.1373 64.5333 36.1373 64.4341C36.1373 64.2734 36.8861 64.2537 42.9805 64.2537H49.8237L49.7513 64.6915C49.7115 64.9323 49.6784 65.2235 49.6777 65.3388C49.677 65.4541 49.5474 65.6773 49.3899 65.8349L49.1035 66.1215H32.4024H15.7014L15.415 65.8349C15.2574 65.6773 15.1278 65.4541 15.1271 65.3388C15.1264 65.2235 15.0933 64.9323 15.0535 64.6915L14.9811 64.2537H21.8243C27.9188 64.2537 28.6675 64.2734 28.6675 64.4341Z" fill="#1742E7" stroke="#1742E7" stroke-width="0.56" mask="url(#path-1-inside-1_9889_3417)"></path></svg>