<svg xmlns="http://www.w3.org/2000/svg" width="81" height="80" viewBox="0 0 81 80" fill="none"><path fill-rule="evenodd" clip-rule="evenodd" d="M26.0829 13.4608C24.914 13.4608 23.9631 14.4131 23.9631 15.5848V43.7013C23.9631 44.8716 24.914 45.8253 26.0829 45.8253H55.5421C56.7109 45.8253 57.6619 44.8717 57.6619 43.7013L57.6619 15.5847C57.6619 14.4131 56.7109 13.4608 55.5421 13.4608H26.0829ZM55.5421 47.2861H26.0829C24.1102 47.2861 22.5054 45.6782 22.5054 43.7013V15.5847C22.5054 13.6079 24.1102 12 26.0829 12H55.5421C57.5147 12 59.1196 13.6079 59.1196 15.5848L59.1196 43.7013C59.1196 45.6782 57.5147 47.2861 55.5421 47.2861Z" fill="#1742E7"></path><path fill-rule="evenodd" clip-rule="evenodd" d="M58.3908 21.9346H23.2342C22.8317 21.9346 22.5054 21.6075 22.5054 21.2042C22.5054 20.8009 22.8317 20.4738 23.2342 20.4738L58.3908 20.4738C58.7933 20.4738 59.1197 20.801 59.1197 21.2042C59.1197 21.6075 58.7933 21.9346 58.3908 21.9346Z" fill="#1742E7"></path><path fill-rule="evenodd" clip-rule="evenodd" d="M28.2132 16.3755C27.8871 16.3755 27.6216 16.6419 27.6216 16.9678C27.6216 17.295 27.8871 17.5613 28.2132 17.5613C28.5392 17.5611 28.8046 17.295 28.8046 16.9678C28.8046 16.6419 28.5392 16.3757 28.2132 16.3755ZM28.2132 19.0219C27.0832 19.0219 26.164 18.1002 26.164 16.9678C26.164 15.8354 27.0832 14.9148 28.2132 14.9148C29.343 14.9148 30.2622 15.8354 30.2622 16.9678C30.2622 18.1001 29.343 19.022 28.2132 19.0219Z" fill="#1742E7"></path><path fill-rule="evenodd" clip-rule="evenodd" d="M33.0803 16.3755C32.7542 16.3755 32.4889 16.6419 32.4889 16.9678C32.4889 17.295 32.7542 17.5613 33.0803 17.5613C33.4064 17.5611 33.6718 17.295 33.6718 16.9678C33.6718 16.6419 33.4064 16.3757 33.0803 16.3755ZM33.0803 19.0219C31.9503 19.0219 31.0311 18.1002 31.0311 16.9678C31.0311 15.8354 31.9503 14.9148 33.0803 14.9148C34.2103 14.9148 35.1295 15.8354 35.1295 16.9678C35.1295 18.1001 34.2103 19.022 33.0803 19.0219Z" fill="#1742E7"></path><path fill-rule="evenodd" clip-rule="evenodd" d="M37.9529 16.3755C37.6268 16.3755 37.3615 16.6419 37.3615 16.9678C37.3615 17.295 37.6268 17.5613 37.9529 17.5613C38.279 17.5611 38.5444 17.295 38.5444 16.9678C38.5444 16.6419 38.279 16.3757 37.9529 16.3755ZM37.9529 19.0219C36.8231 19.0219 35.9038 18.1002 35.9038 16.9678C35.9038 15.8354 36.8231 14.9148 37.9529 14.9148C39.0828 14.9148 40.0021 15.8354 40.0021 16.9678C40.0021 18.1001 39.0828 19.022 37.9529 19.0219Z" fill="#1742E7"></path><path fill-rule="evenodd" clip-rule="evenodd" d="M63.4414 51.1463H18.1878C17.6888 51.1463 17.2828 50.7393 17.2828 50.2397V19.6797C17.2828 19.1787 17.6888 18.7731 18.1878 18.7731L23.2363 18.773C23.6388 18.773 23.9652 19.099 23.9652 19.5035C23.9652 19.9067 23.6388 20.2326 23.2363 20.2326L18.7405 20.2325V49.6855H62.8886V20.2325H58.3929C57.9903 20.2325 57.664 19.9067 57.664 19.5035C57.664 19.0988 57.9903 18.7731 58.3928 18.7731L63.4413 18.773C63.9403 18.773 64.3463 19.1789 64.3463 19.6797L64.3464 50.2397C64.3464 50.7393 63.9403 51.1464 63.4414 51.1463Z" fill="#1742E7"></path><path fill-rule="evenodd" clip-rule="evenodd" d="M32.7013 63.885C32.6376 63.885 32.573 63.8762 32.5087 63.8597C32.1204 63.7532 31.8916 63.3512 31.9977 62.9619L34.4615 53.9283C34.5676 53.539 34.9686 53.3096 35.3567 53.4161C35.7449 53.5225 35.9737 53.9245 35.8677 54.3139L33.4038 63.3473C33.3154 63.672 33.0217 63.8851 32.7013 63.885ZM48.9202 63.885C48.5997 63.885 48.306 63.6721 48.2176 63.3474L45.7539 54.3138C45.6477 53.9245 45.8765 53.5226 46.2647 53.4161C46.6532 53.3095 47.0538 53.5391 47.16 53.9283L49.6237 62.9619C49.7299 63.3511 49.5011 63.7532 49.1127 63.8597C49.0485 63.8761 48.9838 63.8851 48.9202 63.885Z" fill="#1742E7"></path><path fill-rule="evenodd" clip-rule="evenodd" d="M30.5419 66.5392H51.0852V63.8851H30.5419V66.5392ZM51.8141 68H29.813C29.4105 68 29.0843 67.6729 29.0843 67.2696V63.1547C29.0843 62.7516 29.4105 62.4244 29.813 62.4244L51.8141 62.4243C52.2166 62.4243 52.5428 62.7516 52.5428 63.1548L52.5428 67.2696C52.5428 67.6728 52.2166 68 51.8141 68Z" fill="#1742E7"></path><path fill-rule="evenodd" clip-rule="evenodd" d="M43.86 59.3679H37.7646C37.3621 59.3679 37.0358 59.0409 37.0358 58.6376C37.0358 58.2342 37.3621 57.9072 37.7646 57.9072L43.86 57.9071C44.2625 57.9071 44.5887 58.2343 44.5887 58.6376C44.5887 59.0408 44.2625 59.368 43.86 59.3679Z" fill="#1742E7"></path><path fill-rule="evenodd" clip-rule="evenodd" d="M63.462 54.8519H18.1644C15.6398 54.8519 13.5859 52.7939 13.5859 50.2641V19.6585C13.5859 18.4335 14.0653 17.2796 14.9358 16.4097C15.8002 15.5462 16.9428 15.0707 18.1542 15.0707C18.1583 15.0707 18.1622 15.0707 18.1663 15.0707H23.2349C23.6375 15.0707 23.9638 15.3979 23.9638 15.8011C23.9638 16.2042 23.6375 16.5315 23.2349 16.5315H18.1644C18.1617 16.5315 18.167 16.5315 18.1644 16.5315C17.3396 16.5315 16.5544 16.8548 15.9652 17.4445C15.3709 18.0379 15.0436 18.8254 15.0436 19.6585V50.2641C15.0436 51.9874 16.4436 53.3912 18.1644 53.3912L63.462 53.3911C65.1828 53.3911 66.5828 51.9875 66.5828 50.2642V19.6585C66.5828 18.8254 66.2554 18.038 65.6612 17.4445C65.0719 16.8548 64.2948 16.5315 63.4721 16.5315C63.4693 16.5315 63.4749 16.5315 63.4721 16.5315H58.3915C57.9889 16.5315 57.6626 16.2043 57.6626 15.8011C57.6626 15.3978 57.9889 15.0707 58.3914 15.0707H63.462C63.466 15.0707 63.47 15.0707 63.4741 15.0707C64.6836 15.0707 65.8261 15.5463 66.6906 16.4098C67.5611 17.2796 68.0405 18.4336 68.0405 19.6585V50.2642C68.0405 52.7939 65.9867 54.8519 63.462 54.8519Z" fill="#1742E7"></path><path fill-rule="evenodd" clip-rule="evenodd" d="M39.4497 39.0487C39.3873 39.0487 39.3238 39.0411 39.2607 39.0233C38.8718 38.9193 38.641 38.5187 38.7451 38.1293L41.475 27.9203C41.5791 27.5297 41.9786 27.299 42.3676 27.403C42.7564 27.5082 42.9872 27.9089 42.8831 28.2982L40.1533 38.5072C40.066 38.833 39.7715 39.0487 39.4497 39.0487Z" fill="#1742E7"></path><path fill-rule="evenodd" clip-rule="evenodd" d="M36.2782 38.5202C36.1351 38.5202 35.9907 38.4784 35.8642 38.3909L29.5406 34.0084C29.3438 33.8714 29.2265 33.6471 29.2265 33.4074C29.2265 33.1677 29.3438 32.9433 29.5406 32.8063L35.8642 28.424C36.1952 28.1945 36.6492 28.2769 36.8782 28.6091C37.1071 28.9412 37.0245 29.3953 36.6934 29.6248L31.2365 33.4074L36.6934 37.1899C37.0245 37.4194 37.1071 37.8735 36.8782 38.2057C36.7368 38.411 36.5094 38.5202 36.2782 38.5202Z" fill="#1742E7"></path><path fill-rule="evenodd" clip-rule="evenodd" d="M45.345 38.5202C45.1138 38.5202 44.8864 38.4112 44.7449 38.2057C44.5159 37.8735 44.5987 37.4196 44.9298 37.19L50.3866 33.4074L44.9298 29.6247C44.5987 29.3952 44.5159 28.9414 44.7449 28.6091C44.974 28.2768 45.428 28.1945 45.7589 28.424L52.0824 32.8064C52.2793 32.9433 52.3966 33.1678 52.3966 33.4074C52.3966 33.647 52.2793 33.8716 52.0824 34.0085L45.7589 38.3908C45.6325 38.4784 45.488 38.5202 45.345 38.5202Z" fill="#1742E7"></path></svg>