<svg xmlns="http://www.w3.org/2000/svg" width="81" height="81" viewBox="0 0 81 81" fill="none"><mask id="path-1-inside-1_10056_15556" fill="white"><path d="M38.04 8.81199C36.3268 9.3122 34.6886 10.4002 33.7131 11.6882C33.0754 12.5136 32.3751 13.9267 32.3751 14.3643C32.3751 15.0646 33.2379 15.5398 33.8757 15.2022C34.0133 15.1272 34.3509 14.627 34.6385 14.0767C35.3388 12.7261 36.2392 11.8508 37.6023 11.163L38.6653 10.6378H40.2409C41.6415 10.6378 41.8916 10.6753 42.5044 10.9379C44.9804 12.0384 46.5061 14.2643 46.5061 16.7654C46.5061 18.5411 45.9308 19.9042 44.6303 21.2172C43.4173 22.4428 41.9166 23.0805 40.2534 23.0805C37.6148 23.0805 35.3388 21.4423 34.3134 18.8162C34.1383 18.3785 33.9007 17.9409 33.7882 17.8533C33.4755 17.6282 32.9503 17.6657 32.5627 17.9784C32.25 18.216 32.225 18.3035 32.275 18.8537C32.3126 19.2289 32.5502 19.8917 32.8753 20.5545C33.9132 22.6554 36.1642 24.4311 38.3776 24.8813C39.1905 25.0439 39.1905 25.0439 39.2655 25.5191C39.3781 26.1694 39.7907 26.507 40.366 26.407C40.9162 26.3194 41.1413 26.0818 41.2413 25.5066C41.3164 25.0439 41.3289 25.0439 42.1292 24.8813C44.3051 24.4311 46.5936 22.6554 47.6065 20.617C48.3068 19.1789 48.5569 18.0159 48.4819 16.3402C48.4319 15.4398 48.3319 14.7645 48.1443 14.2018C47.3064 11.7507 45.2806 9.71237 42.8795 8.92453C41.7291 8.54937 39.1405 8.48685 38.04 8.81199Z"></path><path d="M41.4289 15.8525L39.5031 17.7408L38.3276 16.6028C37.3022 15.6149 37.0771 15.4523 36.7144 15.4523C36.1642 15.4523 35.7515 15.8775 35.7515 16.4652C35.7515 16.8404 35.9266 17.0655 37.4022 18.5411C39.6907 20.8296 39.3656 20.8671 42.2793 17.9784C45.0179 15.2897 45.193 15.0021 44.6178 14.2768C44.4177 14.0267 44.2551 13.9517 43.855 13.9517C43.3672 13.9517 43.2672 14.0267 41.4289 15.8525Z"></path><path d="M16.1807 24.7312C16.0431 24.8188 14.53 25.9943 12.8293 27.3574C10.866 28.9455 9.67795 29.971 9.60292 30.1836C9.45285 30.5712 9.52788 31.2715 9.76548 31.5591C10.0656 31.9218 16.0932 36.6863 16.3683 36.7739C16.7935 36.9114 17.4312 36.7363 17.7814 36.3987C18.1065 36.0736 18.2441 35.6109 18.2441 34.8856V34.4604H26.1224V43.9769L25.4972 44.8648C24.7468 45.9402 24.6593 46.528 25.197 46.9532C25.8723 47.4909 26.36 47.2408 27.2479 45.9277C29.0362 43.2766 32.125 40.9256 35.2138 39.8877C36.2017 39.5625 38.3901 39.0873 38.9404 39.0873H39.253V55.2692L44.9679 60.9966C50.4327 66.474 50.6703 66.7241 50.4453 66.9116C48.757 68.2497 46.9563 69.2501 45.1555 69.8504C41.4664 71.0884 37.2396 70.8508 33.7257 69.2001L32.6377 68.6874L32.8753 68.3873C33.4255 67.6745 33.338 66.8241 32.6002 66.0238C32.3251 65.7236 32.1375 65.4235 32.1875 65.3485C32.225 65.286 32.5752 65.2234 32.9628 65.2234C33.7382 65.2234 34.2384 64.9858 34.551 64.4731C34.8261 63.9979 34.8511 60.3964 34.576 59.8587C34.3009 59.3334 33.8382 59.0958 32.9378 59.0083C32.0875 58.9333 31.9874 58.8582 32.3376 58.5831C32.7127 58.2705 33.2505 57.3076 33.2505 56.9449C33.2505 56.3697 32.9753 55.982 31.5247 54.5564L30.1616 53.2183H29.5364C29.0487 53.2183 28.7986 53.2934 28.3984 53.581C28.1233 53.7811 27.8607 54.0062 27.8106 54.0812C27.7731 54.1562 27.6481 54.2188 27.548 54.2188C27.423 54.2188 27.373 54.0437 27.373 53.4935C27.373 52.2179 26.7102 51.5926 25.3846 51.5926H24.7719L24.9469 50.9299C25.2346 49.8544 24.9219 49.2166 24.0966 49.2166C23.5338 49.2166 23.1712 49.6793 22.9336 50.6923C22.746 51.4926 22.6835 51.6052 22.3833 51.6802C21.558 51.8803 21.1203 52.5305 21.1203 53.581C21.1203 54.3188 20.9577 54.3938 20.4825 53.8936C20.0448 53.4184 19.5822 53.2183 18.9194 53.2183C18.3316 53.2183 18.3191 53.2308 16.906 54.6189C15.3679 56.1446 15.1428 56.5322 15.3679 57.3576C15.4304 57.5952 15.693 57.9829 15.9306 58.2205C16.1682 58.4581 16.3683 58.7082 16.3683 58.7957C16.3683 58.8832 16.0682 58.9583 15.6305 59.0083C14.7426 59.0833 14.1924 59.3835 13.9298 59.9212C13.6671 60.4839 13.6546 63.8228 13.9298 64.3481C14.2674 64.9983 14.6926 65.2234 15.5679 65.2234C16.0682 65.2234 16.3683 65.2735 16.3683 65.361C16.3683 65.436 16.1682 65.7236 15.9306 66.0113C15.4054 66.624 15.2303 67.1743 15.3679 67.7995C15.4554 68.1497 15.768 68.5623 16.7059 69.5002C18.0315 70.8383 18.3941 71.1009 18.9819 71.1009C19.5196 71.1009 19.9198 70.9259 20.47 70.4256C20.7326 70.1755 20.9953 70.013 21.0453 70.063C21.0828 70.1005 21.1203 70.4131 21.1203 70.7508C21.1203 71.4511 21.3454 71.9638 21.8206 72.339C22.1332 72.5766 22.3208 72.6016 24.2091 72.6016C25.9348 72.6016 26.335 72.564 26.6351 72.389C27.1103 72.1013 27.373 71.5261 27.373 70.7508C27.373 70.4006 27.4355 70.0755 27.5105 70.0255C27.5855 69.988 27.8482 70.138 28.0983 70.3881C29.0862 71.326 29.8615 71.3635 30.7744 70.5132L31.0995 70.2005L32.2375 70.7758C33.6381 71.4761 35.6765 72.1389 37.2396 72.4015C38.7903 72.6641 41.7165 72.6641 43.2672 72.4015C46.9063 71.7762 50.1451 70.088 52.8213 67.4119C54.9722 65.2734 56.4103 62.9099 57.2356 60.1588C57.8984 58.0079 57.9484 57.5827 57.9484 54.7815C57.9484 52.3305 57.9234 52.0678 57.5983 50.7798C57.0105 48.4538 56.0226 46.2654 54.8096 44.5772L54.3844 43.9894V34.4604H62.2628V34.8856C62.2628 35.6109 62.4003 36.0736 62.7255 36.3987C63.0756 36.7363 63.7134 36.9114 64.1386 36.7739C64.4137 36.6863 70.4412 31.9218 70.7414 31.5591C70.979 31.2715 71.054 30.5712 70.9039 30.1836C70.7789 29.8459 64.8389 24.9688 64.2136 24.6937C63.7884 24.4936 63.1006 24.6562 62.7255 25.0189C62.4003 25.344 62.2628 25.8067 62.2628 26.532V26.9572H60.8372C60.0618 26.9572 59.249 27.0197 59.0239 27.0947C58.3486 27.3323 58.1735 28.0326 58.6487 28.6329L58.8988 28.958H61.3374C63.6008 28.958 63.7759 28.9455 64.0135 28.7079C64.1886 28.5329 64.2636 28.2953 64.2636 27.8951C64.2636 27.5825 64.2886 27.3323 64.3261 27.3323C64.4387 27.3323 68.5154 30.6212 68.5154 30.7088C68.5154 30.7963 64.4387 34.0852 64.3261 34.0852C64.2886 34.0852 64.2636 33.8351 64.2636 33.5225C64.2636 33.1223 64.1886 32.8847 64.0135 32.7096C63.7634 32.4595 63.6008 32.4595 56.3853 32.4595H49.0071V31.6717C49.0196 30.3211 49.6449 29.4207 50.8204 29.0956C51.0955 29.0206 52.2585 28.958 53.409 28.958H55.4974L55.7475 28.6329C56.2727 27.9701 55.9351 27.1698 55.0597 27.0072C54.8221 26.9697 53.6716 26.9572 52.5336 26.9822C50.7829 27.0322 50.3327 27.0947 49.745 27.3198C48.757 27.695 47.9692 28.4203 47.4815 29.4332L47.0688 30.2711L47.0313 34.3103C46.9938 38.0619 46.9813 38.3495 46.7812 38.2745C46.1935 38.0244 44.6803 37.5742 43.7424 37.3741C42.2543 37.049 38.2526 37.049 36.7644 37.3741C35.8265 37.5742 34.3134 38.0244 33.7257 38.2745C33.5256 38.3495 33.5131 38.0619 33.4755 34.3103L33.438 30.2711L33.0254 29.4332C32.5377 28.4328 31.7623 27.7075 30.7619 27.3073C30.0741 27.0322 29.9491 27.0197 24.1716 26.9822L18.2816 26.9447L18.2066 26.2194C18.1315 25.3565 17.944 25.0189 17.4187 24.7688C16.9435 24.5437 16.5309 24.5312 16.1807 24.7312ZM16.2432 27.8951C16.2432 28.2953 16.3183 28.5329 16.4933 28.7079C16.7309 28.9455 16.906 28.958 22.9711 28.958C27.0728 28.958 29.3613 29.0081 29.6864 29.0956C30.8619 29.4207 31.4872 30.3211 31.4997 31.6717V32.4595H24.1216C16.906 32.4595 16.7434 32.4595 16.4933 32.7096C16.3183 32.8847 16.2432 33.1223 16.2432 33.5225C16.2432 33.8351 16.2182 34.0852 16.1807 34.0852C16.0306 34.0852 11.9914 30.7713 12.0164 30.6838C12.0665 30.5587 16.0181 27.3574 16.1557 27.3449C16.2057 27.3323 16.2432 27.5825 16.2432 27.8951ZM31.4997 39.3124L30.8494 39.7126C30.4868 39.9377 29.724 40.4879 29.1612 40.9256L28.1233 41.726V34.4604H31.4997V39.3124ZM52.3836 38.0994C52.3836 41.0006 52.3461 41.7135 52.2335 41.6259C52.146 41.5509 51.7583 41.2508 51.3706 40.9381C50.9955 40.638 50.3077 40.1378 49.845 39.8502L49.0071 39.2999V34.4604H52.3836V38.0994ZM43.1046 39.3249C48.8196 40.4379 53.4215 44.4521 55.2598 49.9419C55.6099 50.9799 56.0101 52.9182 56.0101 53.5435V53.8436H41.2539V39.0873H41.5665C41.7291 39.0873 42.4294 39.1999 43.1046 39.3249ZM25.3721 54.1812C25.3721 55.0816 25.6847 55.5943 26.4851 55.9945C27.4855 56.5072 28.1858 56.4697 28.9486 55.8945L29.5364 55.4443L30.2617 56.1696L30.987 56.8824L30.5243 57.4451C30.1241 57.9328 30.0616 58.0954 30.0616 58.6456C30.0741 59.4585 30.5243 60.4089 31.0495 60.734C31.2996 60.8841 31.6748 60.9716 32.1 60.9716H32.7502V63.1851L32.0374 63.2601C31.1746 63.3476 30.7744 63.6228 30.4117 64.3606C29.8365 65.5111 29.874 66.0738 30.5868 66.8616L31.0495 67.3618L29.5239 68.8875L28.9986 68.4498C28.3234 67.8621 27.8232 67.7745 26.9228 68.0871C25.7723 68.4998 25.3721 69.0125 25.3721 70.1005V70.7258H23.1212V69.9754C23.1212 69.3002 23.0836 69.1751 22.721 68.7874C22.2333 68.2622 21.0328 67.7995 20.47 67.9121C20.2699 67.9621 19.8573 68.1997 19.5321 68.4373L18.9569 68.875L18.2316 68.1497L17.4938 67.4244L17.7939 67.0992C18.6067 66.2113 18.7068 65.5486 18.1565 64.4731C17.7064 63.6102 17.3062 63.3226 16.4308 63.2476L15.743 63.1976V60.9716H16.4808C17.3937 60.9716 17.7814 60.6965 18.1941 59.7586C18.6693 58.6832 18.5567 57.9203 17.8189 57.2325L17.4813 56.9199L19.0444 55.3567L19.5822 55.8444C20.0448 56.2821 20.1949 56.3447 20.7076 56.3447C21.5205 56.3447 22.5459 55.857 22.871 55.3192C23.0336 55.0441 23.1212 54.6815 23.1212 54.2438V53.5935H25.3721V54.1812ZM56.0101 56.1446C56.0101 56.7698 55.6099 58.7082 55.2473 59.7711C54.7596 61.2217 53.8092 63.0475 52.9213 64.248C52.5211 64.7857 52.171 65.2234 52.1335 65.2234C52.096 65.2234 49.9575 63.11 47.3815 60.5339L42.692 55.8444H56.0101V56.1446Z"></path><path d="M22.3083 58.333C21.7831 58.6581 20.395 60.1338 20.2449 60.5339C20.0574 61.0341 20.0824 63.2851 20.295 63.7603C20.3825 63.9854 20.9452 64.6232 21.533 65.1859L22.5959 66.2239H24.1716C25.2846 66.2239 25.8598 66.1738 26.0974 66.0488C26.5601 65.8112 28.0858 64.198 28.2483 63.7978C28.4484 63.2726 28.4109 60.7715 28.1983 60.3714C28.0983 60.1838 27.573 59.596 27.0228 59.0583L26.0224 58.0954H24.3592C22.9461 58.0954 22.6209 58.1329 22.3083 58.333ZM25.7098 60.6215L26.3725 61.2718V62.1471C26.3725 63.0225 26.3725 63.0225 25.7848 63.6228L25.197 64.223H23.4463L22.1207 62.9225V62.1096C22.1207 61.2968 22.1207 61.2968 22.771 60.634L23.4213 59.9712H24.2341C25.047 59.9712 25.047 59.9712 25.7098 60.6215Z"></path><path d="M39.5156 28.2827C39.303 28.5579 39.253 28.7955 39.253 29.5833C39.253 30.8088 39.5031 31.209 40.2534 31.209C41.0037 31.209 41.2539 30.8088 41.2539 29.5833C41.2539 28.3578 41.0037 27.9576 40.2534 27.9576C39.8783 27.9576 39.7157 28.0326 39.5156 28.2827Z"></path><path d="M39.5656 33.0223C39.278 33.2974 39.253 33.4224 39.253 34.3728C39.253 35.6984 39.4531 36.0235 40.2534 36.0235C41.0538 36.0235 41.2539 35.6984 41.2539 34.3728C41.2539 33.4224 41.2288 33.2974 40.9412 33.0223C40.7536 32.8222 40.491 32.7096 40.2534 32.7096C40.0158 32.7096 39.7532 32.8222 39.5656 33.0223Z"></path></mask><path d="M38.04 8.81199C36.3268 9.3122 34.6886 10.4002 33.7131 11.6882C33.0754 12.5136 32.3751 13.9267 32.3751 14.3643C32.3751 15.0646 33.2379 15.5398 33.8757 15.2022C34.0133 15.1272 34.3509 14.627 34.6385 14.0767C35.3388 12.7261 36.2392 11.8508 37.6023 11.163L38.6653 10.6378H40.2409C41.6415 10.6378 41.8916 10.6753 42.5044 10.9379C44.9804 12.0384 46.5061 14.2643 46.5061 16.7654C46.5061 18.5411 45.9308 19.9042 44.6303 21.2172C43.4173 22.4428 41.9166 23.0805 40.2534 23.0805C37.6148 23.0805 35.3388 21.4423 34.3134 18.8162C34.1383 18.3785 33.9007 17.9409 33.7882 17.8533C33.4755 17.6282 32.9503 17.6657 32.5627 17.9784C32.25 18.216 32.225 18.3035 32.275 18.8537C32.3126 19.2289 32.5502 19.8917 32.8753 20.5545C33.9132 22.6554 36.1642 24.4311 38.3776 24.8813C39.1905 25.0439 39.1905 25.0439 39.2655 25.5191C39.3781 26.1694 39.7907 26.507 40.366 26.407C40.9162 26.3194 41.1413 26.0818 41.2413 25.5066C41.3164 25.0439 41.3289 25.0439 42.1292 24.8813C44.3051 24.4311 46.5936 22.6554 47.6065 20.617C48.3068 19.1789 48.5569 18.0159 48.4819 16.3402C48.4319 15.4398 48.3319 14.7645 48.1443 14.2018C47.3064 11.7507 45.2806 9.71237 42.8795 8.92453C41.7291 8.54937 39.1405 8.48685 38.04 8.81199Z" fill="#1742E7"></path><path d="M41.4289 15.8525L39.5031 17.7408L38.3276 16.6028C37.3022 15.6149 37.0771 15.4523 36.7144 15.4523C36.1642 15.4523 35.7515 15.8775 35.7515 16.4652C35.7515 16.8404 35.9266 17.0655 37.4022 18.5411C39.6907 20.8296 39.3656 20.8671 42.2793 17.9784C45.0179 15.2897 45.193 15.0021 44.6178 14.2768C44.4177 14.0267 44.2551 13.9517 43.855 13.9517C43.3672 13.9517 43.2672 14.0267 41.4289 15.8525Z" fill="#1742E7"></path><path d="M16.1807 24.7312C16.0431 24.8188 14.53 25.9943 12.8293 27.3574C10.866 28.9455 9.67795 29.971 9.60292 30.1836C9.45285 30.5712 9.52788 31.2715 9.76548 31.5591C10.0656 31.9218 16.0932 36.6863 16.3683 36.7739C16.7935 36.9114 17.4312 36.7363 17.7814 36.3987C18.1065 36.0736 18.2441 35.6109 18.2441 34.8856V34.4604H26.1224V43.9769L25.4972 44.8648C24.7468 45.9402 24.6593 46.528 25.197 46.9532C25.8723 47.4909 26.36 47.2408 27.2479 45.9277C29.0362 43.2766 32.125 40.9256 35.2138 39.8877C36.2017 39.5625 38.3901 39.0873 38.9404 39.0873H39.253V55.2692L44.9679 60.9966C50.4327 66.474 50.6703 66.7241 50.4453 66.9116C48.757 68.2497 46.9563 69.2501 45.1555 69.8504C41.4664 71.0884 37.2396 70.8508 33.7257 69.2001L32.6377 68.6874L32.8753 68.3873C33.4255 67.6745 33.338 66.8241 32.6002 66.0238C32.3251 65.7236 32.1375 65.4235 32.1875 65.3485C32.225 65.286 32.5752 65.2234 32.9628 65.2234C33.7382 65.2234 34.2384 64.9858 34.551 64.4731C34.8261 63.9979 34.8511 60.3964 34.576 59.8587C34.3009 59.3334 33.8382 59.0958 32.9378 59.0083C32.0875 58.9333 31.9874 58.8582 32.3376 58.5831C32.7127 58.2705 33.2505 57.3076 33.2505 56.9449C33.2505 56.3697 32.9753 55.982 31.5247 54.5564L30.1616 53.2183H29.5364C29.0487 53.2183 28.7986 53.2934 28.3984 53.581C28.1233 53.7811 27.8607 54.0062 27.8106 54.0812C27.7731 54.1562 27.6481 54.2188 27.548 54.2188C27.423 54.2188 27.373 54.0437 27.373 53.4935C27.373 52.2179 26.7102 51.5926 25.3846 51.5926H24.7719L24.9469 50.9299C25.2346 49.8544 24.9219 49.2166 24.0966 49.2166C23.5338 49.2166 23.1712 49.6793 22.9336 50.6923C22.746 51.4926 22.6835 51.6052 22.3833 51.6802C21.558 51.8803 21.1203 52.5305 21.1203 53.581C21.1203 54.3188 20.9577 54.3938 20.4825 53.8936C20.0448 53.4184 19.5822 53.2183 18.9194 53.2183C18.3316 53.2183 18.3191 53.2308 16.906 54.6189C15.3679 56.1446 15.1428 56.5322 15.3679 57.3576C15.4304 57.5952 15.693 57.9829 15.9306 58.2205C16.1682 58.4581 16.3683 58.7082 16.3683 58.7957C16.3683 58.8832 16.0682 58.9583 15.6305 59.0083C14.7426 59.0833 14.1924 59.3835 13.9298 59.9212C13.6671 60.4839 13.6546 63.8228 13.9298 64.3481C14.2674 64.9983 14.6926 65.2234 15.5679 65.2234C16.0682 65.2234 16.3683 65.2735 16.3683 65.361C16.3683 65.436 16.1682 65.7236 15.9306 66.0113C15.4054 66.624 15.2303 67.1743 15.3679 67.7995C15.4554 68.1497 15.768 68.5623 16.7059 69.5002C18.0315 70.8383 18.3941 71.1009 18.9819 71.1009C19.5196 71.1009 19.9198 70.9259 20.47 70.4256C20.7326 70.1755 20.9953 70.013 21.0453 70.063C21.0828 70.1005 21.1203 70.4131 21.1203 70.7508C21.1203 71.4511 21.3454 71.9638 21.8206 72.339C22.1332 72.5766 22.3208 72.6016 24.2091 72.6016C25.9348 72.6016 26.335 72.564 26.6351 72.389C27.1103 72.1013 27.373 71.5261 27.373 70.7508C27.373 70.4006 27.4355 70.0755 27.5105 70.0255C27.5855 69.988 27.8482 70.138 28.0983 70.3881C29.0862 71.326 29.8615 71.3635 30.7744 70.5132L31.0995 70.2005L32.2375 70.7758C33.6381 71.4761 35.6765 72.1389 37.2396 72.4015C38.7903 72.6641 41.7165 72.6641 43.2672 72.4015C46.9063 71.7762 50.1451 70.088 52.8213 67.4119C54.9722 65.2734 56.4103 62.9099 57.2356 60.1588C57.8984 58.0079 57.9484 57.5827 57.9484 54.7815C57.9484 52.3305 57.9234 52.0678 57.5983 50.7798C57.0105 48.4538 56.0226 46.2654 54.8096 44.5772L54.3844 43.9894V34.4604H62.2628V34.8856C62.2628 35.6109 62.4003 36.0736 62.7255 36.3987C63.0756 36.7363 63.7134 36.9114 64.1386 36.7739C64.4137 36.6863 70.4412 31.9218 70.7414 31.5591C70.979 31.2715 71.054 30.5712 70.9039 30.1836C70.7789 29.8459 64.8389 24.9688 64.2136 24.6937C63.7884 24.4936 63.1006 24.6562 62.7255 25.0189C62.4003 25.344 62.2628 25.8067 62.2628 26.532V26.9572H60.8372C60.0618 26.9572 59.249 27.0197 59.0239 27.0947C58.3486 27.3323 58.1735 28.0326 58.6487 28.6329L58.8988 28.958H61.3374C63.6008 28.958 63.7759 28.9455 64.0135 28.7079C64.1886 28.5329 64.2636 28.2953 64.2636 27.8951C64.2636 27.5825 64.2886 27.3323 64.3261 27.3323C64.4387 27.3323 68.5154 30.6212 68.5154 30.7088C68.5154 30.7963 64.4387 34.0852 64.3261 34.0852C64.2886 34.0852 64.2636 33.8351 64.2636 33.5225C64.2636 33.1223 64.1886 32.8847 64.0135 32.7096C63.7634 32.4595 63.6008 32.4595 56.3853 32.4595H49.0071V31.6717C49.0196 30.3211 49.6449 29.4207 50.8204 29.0956C51.0955 29.0206 52.2585 28.958 53.409 28.958H55.4974L55.7475 28.6329C56.2727 27.9701 55.9351 27.1698 55.0597 27.0072C54.8221 26.9697 53.6716 26.9572 52.5336 26.9822C50.7829 27.0322 50.3327 27.0947 49.745 27.3198C48.757 27.695 47.9692 28.4203 47.4815 29.4332L47.0688 30.2711L47.0313 34.3103C46.9938 38.0619 46.9813 38.3495 46.7812 38.2745C46.1935 38.0244 44.6803 37.5742 43.7424 37.3741C42.2543 37.049 38.2526 37.049 36.7644 37.3741C35.8265 37.5742 34.3134 38.0244 33.7257 38.2745C33.5256 38.3495 33.5131 38.0619 33.4755 34.3103L33.438 30.2711L33.0254 29.4332C32.5377 28.4328 31.7623 27.7075 30.7619 27.3073C30.0741 27.0322 29.9491 27.0197 24.1716 26.9822L18.2816 26.9447L18.2066 26.2194C18.1315 25.3565 17.944 25.0189 17.4187 24.7688C16.9435 24.5437 16.5309 24.5312 16.1807 24.7312ZM16.2432 27.8951C16.2432 28.2953 16.3183 28.5329 16.4933 28.7079C16.7309 28.9455 16.906 28.958 22.9711 28.958C27.0728 28.958 29.3613 29.0081 29.6864 29.0956C30.8619 29.4207 31.4872 30.3211 31.4997 31.6717V32.4595H24.1216C16.906 32.4595 16.7434 32.4595 16.4933 32.7096C16.3183 32.8847 16.2432 33.1223 16.2432 33.5225C16.2432 33.8351 16.2182 34.0852 16.1807 34.0852C16.0306 34.0852 11.9914 30.7713 12.0164 30.6838C12.0665 30.5587 16.0181 27.3574 16.1557 27.3449C16.2057 27.3323 16.2432 27.5825 16.2432 27.8951ZM31.4997 39.3124L30.8494 39.7126C30.4868 39.9377 29.724 40.4879 29.1612 40.9256L28.1233 41.726V34.4604H31.4997V39.3124ZM52.3836 38.0994C52.3836 41.0006 52.3461 41.7135 52.2335 41.6259C52.146 41.5509 51.7583 41.2508 51.3706 40.9381C50.9955 40.638 50.3077 40.1378 49.845 39.8502L49.0071 39.2999V34.4604H52.3836V38.0994ZM43.1046 39.3249C48.8196 40.4379 53.4215 44.4521 55.2598 49.9419C55.6099 50.9799 56.0101 52.9182 56.0101 53.5435V53.8436H41.2539V39.0873H41.5665C41.7291 39.0873 42.4294 39.1999 43.1046 39.3249ZM25.3721 54.1812C25.3721 55.0816 25.6847 55.5943 26.4851 55.9945C27.4855 56.5072 28.1858 56.4697 28.9486 55.8945L29.5364 55.4443L30.2617 56.1696L30.987 56.8824L30.5243 57.4451C30.1241 57.9328 30.0616 58.0954 30.0616 58.6456C30.0741 59.4585 30.5243 60.4089 31.0495 60.734C31.2996 60.8841 31.6748 60.9716 32.1 60.9716H32.7502V63.1851L32.0374 63.2601C31.1746 63.3476 30.7744 63.6228 30.4117 64.3606C29.8365 65.5111 29.874 66.0738 30.5868 66.8616L31.0495 67.3618L29.5239 68.8875L28.9986 68.4498C28.3234 67.8621 27.8232 67.7745 26.9228 68.0871C25.7723 68.4998 25.3721 69.0125 25.3721 70.1005V70.7258H23.1212V69.9754C23.1212 69.3002 23.0836 69.1751 22.721 68.7874C22.2333 68.2622 21.0328 67.7995 20.47 67.9121C20.2699 67.9621 19.8573 68.1997 19.5321 68.4373L18.9569 68.875L18.2316 68.1497L17.4938 67.4244L17.7939 67.0992C18.6067 66.2113 18.7068 65.5486 18.1565 64.4731C17.7064 63.6102 17.3062 63.3226 16.4308 63.2476L15.743 63.1976V60.9716H16.4808C17.3937 60.9716 17.7814 60.6965 18.1941 59.7586C18.6693 58.6832 18.5567 57.9203 17.8189 57.2325L17.4813 56.9199L19.0444 55.3567L19.5822 55.8444C20.0448 56.2821 20.1949 56.3447 20.7076 56.3447C21.5205 56.3447 22.5459 55.857 22.871 55.3192C23.0336 55.0441 23.1212 54.6815 23.1212 54.2438V53.5935H25.3721V54.1812ZM56.0101 56.1446C56.0101 56.7698 55.6099 58.7082 55.2473 59.7711C54.7596 61.2217 53.8092 63.0475 52.9213 64.248C52.5211 64.7857 52.171 65.2234 52.1335 65.2234C52.096 65.2234 49.9575 63.11 47.3815 60.5339L42.692 55.8444H56.0101V56.1446Z" fill="#1742E7"></path><path d="M22.3083 58.333C21.7831 58.6581 20.395 60.1338 20.2449 60.5339C20.0574 61.0341 20.0824 63.2851 20.295 63.7603C20.3825 63.9854 20.9452 64.6232 21.533 65.1859L22.5959 66.2239H24.1716C25.2846 66.2239 25.8598 66.1738 26.0974 66.0488C26.5601 65.8112 28.0858 64.198 28.2483 63.7978C28.4484 63.2726 28.4109 60.7715 28.1983 60.3714C28.0983 60.1838 27.573 59.596 27.0228 59.0583L26.0224 58.0954H24.3592C22.9461 58.0954 22.6209 58.1329 22.3083 58.333ZM25.7098 60.6215L26.3725 61.2718V62.1471C26.3725 63.0225 26.3725 63.0225 25.7848 63.6228L25.197 64.223H23.4463L22.1207 62.9225V62.1096C22.1207 61.2968 22.1207 61.2968 22.771 60.634L23.4213 59.9712H24.2341C25.047 59.9712 25.047 59.9712 25.7098 60.6215Z" fill="#1742E7"></path><path d="M39.5156 28.2827C39.303 28.5579 39.253 28.7955 39.253 29.5833C39.253 30.8088 39.5031 31.209 40.2534 31.209C41.0037 31.209 41.2539 30.8088 41.2539 29.5833C41.2539 28.3578 41.0037 27.9576 40.2534 27.9576C39.8783 27.9576 39.7157 28.0326 39.5156 28.2827Z" fill="#1742E7"></path><path d="M39.5656 33.0223C39.278 33.2974 39.253 33.4224 39.253 34.3728C39.253 35.6984 39.4531 36.0235 40.2534 36.0235C41.0538 36.0235 41.2539 35.6984 41.2539 34.3728C41.2539 33.4224 41.2288 33.2974 40.9412 33.0223C40.7536 32.8222 40.491 32.7096 40.2534 32.7096C40.0158 32.7096 39.7532 32.8222 39.5656 33.0223Z" fill="#1742E7"></path><path d="M38.04 8.81199C36.3268 9.3122 34.6886 10.4002 33.7131 11.6882C33.0754 12.5136 32.3751 13.9267 32.3751 14.3643C32.3751 15.0646 33.2379 15.5398 33.8757 15.2022C34.0133 15.1272 34.3509 14.627 34.6385 14.0767C35.3388 12.7261 36.2392 11.8508 37.6023 11.163L38.6653 10.6378H40.2409C41.6415 10.6378 41.8916 10.6753 42.5044 10.9379C44.9804 12.0384 46.5061 14.2643 46.5061 16.7654C46.5061 18.5411 45.9308 19.9042 44.6303 21.2172C43.4173 22.4428 41.9166 23.0805 40.2534 23.0805C37.6148 23.0805 35.3388 21.4423 34.3134 18.8162C34.1383 18.3785 33.9007 17.9409 33.7882 17.8533C33.4755 17.6282 32.9503 17.6657 32.5627 17.9784C32.25 18.216 32.225 18.3035 32.275 18.8537C32.3126 19.2289 32.5502 19.8917 32.8753 20.5545C33.9132 22.6554 36.1642 24.4311 38.3776 24.8813C39.1905 25.0439 39.1905 25.0439 39.2655 25.5191C39.3781 26.1694 39.7907 26.507 40.366 26.407C40.9162 26.3194 41.1413 26.0818 41.2413 25.5066C41.3164 25.0439 41.3289 25.0439 42.1292 24.8813C44.3051 24.4311 46.5936 22.6554 47.6065 20.617C48.3068 19.1789 48.5569 18.0159 48.4819 16.3402C48.4319 15.4398 48.3319 14.7645 48.1443 14.2018C47.3064 11.7507 45.2806 9.71237 42.8795 8.92453C41.7291 8.54937 39.1405 8.48685 38.04 8.81199Z" stroke="#1742E7" stroke-width="0.649948" mask="url(#path-1-inside-1_10056_15556)"></path><path d="M41.4289 15.8525L39.5031 17.7408L38.3276 16.6028C37.3022 15.6149 37.0771 15.4523 36.7144 15.4523C36.1642 15.4523 35.7515 15.8775 35.7515 16.4652C35.7515 16.8404 35.9266 17.0655 37.4022 18.5411C39.6907 20.8296 39.3656 20.8671 42.2793 17.9784C45.0179 15.2897 45.193 15.0021 44.6178 14.2768C44.4177 14.0267 44.2551 13.9517 43.855 13.9517C43.3672 13.9517 43.2672 14.0267 41.4289 15.8525Z" stroke="#1742E7" stroke-width="0.649948" mask="url(#path-1-inside-1_10056_15556)"></path><path d="M16.1807 24.7312C16.0431 24.8188 14.53 25.9943 12.8293 27.3574C10.866 28.9455 9.67795 29.971 9.60292 30.1836C9.45285 30.5712 9.52788 31.2715 9.76548 31.5591C10.0656 31.9218 16.0932 36.6863 16.3683 36.7739C16.7935 36.9114 17.4312 36.7363 17.7814 36.3987C18.1065 36.0736 18.2441 35.6109 18.2441 34.8856V34.4604H26.1224V43.9769L25.4972 44.8648C24.7468 45.9402 24.6593 46.528 25.197 46.9532C25.8723 47.4909 26.36 47.2408 27.2479 45.9277C29.0362 43.2766 32.125 40.9256 35.2138 39.8877C36.2017 39.5625 38.3901 39.0873 38.9404 39.0873H39.253V55.2692L44.9679 60.9966C50.4327 66.474 50.6703 66.7241 50.4453 66.9116C48.757 68.2497 46.9563 69.2501 45.1555 69.8504C41.4664 71.0884 37.2396 70.8508 33.7257 69.2001L32.6377 68.6874L32.8753 68.3873C33.4255 67.6745 33.338 66.8241 32.6002 66.0238C32.3251 65.7236 32.1375 65.4235 32.1875 65.3485C32.225 65.286 32.5752 65.2234 32.9628 65.2234C33.7382 65.2234 34.2384 64.9858 34.551 64.4731C34.8261 63.9979 34.8511 60.3964 34.576 59.8587C34.3009 59.3334 33.8382 59.0958 32.9378 59.0083C32.0875 58.9333 31.9874 58.8582 32.3376 58.5831C32.7127 58.2705 33.2505 57.3076 33.2505 56.9449C33.2505 56.3697 32.9753 55.982 31.5247 54.5564L30.1616 53.2183H29.5364C29.0487 53.2183 28.7986 53.2934 28.3984 53.581C28.1233 53.7811 27.8607 54.0062 27.8106 54.0812C27.7731 54.1562 27.6481 54.2188 27.548 54.2188C27.423 54.2188 27.373 54.0437 27.373 53.4935C27.373 52.2179 26.7102 51.5926 25.3846 51.5926H24.7719L24.9469 50.9299C25.2346 49.8544 24.9219 49.2166 24.0966 49.2166C23.5338 49.2166 23.1712 49.6793 22.9336 50.6923C22.746 51.4926 22.6835 51.6052 22.3833 51.6802C21.558 51.8803 21.1203 52.5305 21.1203 53.581C21.1203 54.3188 20.9577 54.3938 20.4825 53.8936C20.0448 53.4184 19.5822 53.2183 18.9194 53.2183C18.3316 53.2183 18.3191 53.2308 16.906 54.6189C15.3679 56.1446 15.1428 56.5322 15.3679 57.3576C15.4304 57.5952 15.693 57.9829 15.9306 58.2205C16.1682 58.4581 16.3683 58.7082 16.3683 58.7957C16.3683 58.8832 16.0682 58.9583 15.6305 59.0083C14.7426 59.0833 14.1924 59.3835 13.9298 59.9212C13.6671 60.4839 13.6546 63.8228 13.9298 64.3481C14.2674 64.9983 14.6926 65.2234 15.5679 65.2234C16.0682 65.2234 16.3683 65.2735 16.3683 65.361C16.3683 65.436 16.1682 65.7236 15.9306 66.0113C15.4054 66.624 15.2303 67.1743 15.3679 67.7995C15.4554 68.1497 15.768 68.5623 16.7059 69.5002C18.0315 70.8383 18.3941 71.1009 18.9819 71.1009C19.5196 71.1009 19.9198 70.9259 20.47 70.4256C20.7326 70.1755 20.9953 70.013 21.0453 70.063C21.0828 70.1005 21.1203 70.4131 21.1203 70.7508C21.1203 71.4511 21.3454 71.9638 21.8206 72.339C22.1332 72.5766 22.3208 72.6016 24.2091 72.6016C25.9348 72.6016 26.335 72.564 26.6351 72.389C27.1103 72.1013 27.373 71.5261 27.373 70.7508C27.373 70.4006 27.4355 70.0755 27.5105 70.0255C27.5855 69.988 27.8482 70.138 28.0983 70.3881C29.0862 71.326 29.8615 71.3635 30.7744 70.5132L31.0995 70.2005L32.2375 70.7758C33.6381 71.4761 35.6765 72.1389 37.2396 72.4015C38.7903 72.6641 41.7165 72.6641 43.2672 72.4015C46.9063 71.7762 50.1451 70.088 52.8213 67.4119C54.9722 65.2734 56.4103 62.9099 57.2356 60.1588C57.8984 58.0079 57.9484 57.5827 57.9484 54.7815C57.9484 52.3305 57.9234 52.0678 57.5983 50.7798C57.0105 48.4538 56.0226 46.2654 54.8096 44.5772L54.3844 43.9894V34.4604H62.2628V34.8856C62.2628 35.6109 62.4003 36.0736 62.7255 36.3987C63.0756 36.7363 63.7134 36.9114 64.1386 36.7739C64.4137 36.6863 70.4412 31.9218 70.7414 31.5591C70.979 31.2715 71.054 30.5712 70.9039 30.1836C70.7789 29.8459 64.8389 24.9688 64.2136 24.6937C63.7884 24.4936 63.1006 24.6562 62.7255 25.0189C62.4003 25.344 62.2628 25.8067 62.2628 26.532V26.9572H60.8372C60.0618 26.9572 59.249 27.0197 59.0239 27.0947C58.3486 27.3323 58.1735 28.0326 58.6487 28.6329L58.8988 28.958H61.3374C63.6008 28.958 63.7759 28.9455 64.0135 28.7079C64.1886 28.5329 64.2636 28.2953 64.2636 27.8951C64.2636 27.5825 64.2886 27.3323 64.3261 27.3323C64.4387 27.3323 68.5154 30.6212 68.5154 30.7088C68.5154 30.7963 64.4387 34.0852 64.3261 34.0852C64.2886 34.0852 64.2636 33.8351 64.2636 33.5225C64.2636 33.1223 64.1886 32.8847 64.0135 32.7096C63.7634 32.4595 63.6008 32.4595 56.3853 32.4595H49.0071V31.6717C49.0196 30.3211 49.6449 29.4207 50.8204 29.0956C51.0955 29.0206 52.2585 28.958 53.409 28.958H55.4974L55.7475 28.6329C56.2727 27.9701 55.9351 27.1698 55.0597 27.0072C54.8221 26.9697 53.6716 26.9572 52.5336 26.9822C50.7829 27.0322 50.3327 27.0947 49.745 27.3198C48.757 27.695 47.9692 28.4203 47.4815 29.4332L47.0688 30.2711L47.0313 34.3103C46.9938 38.0619 46.9813 38.3495 46.7812 38.2745C46.1935 38.0244 44.6803 37.5742 43.7424 37.3741C42.2543 37.049 38.2526 37.049 36.7644 37.3741C35.8265 37.5742 34.3134 38.0244 33.7257 38.2745C33.5256 38.3495 33.5131 38.0619 33.4755 34.3103L33.438 30.2711L33.0254 29.4332C32.5377 28.4328 31.7623 27.7075 30.7619 27.3073C30.0741 27.0322 29.9491 27.0197 24.1716 26.9822L18.2816 26.9447L18.2066 26.2194C18.1315 25.3565 17.944 25.0189 17.4187 24.7688C16.9435 24.5437 16.5309 24.5312 16.1807 24.7312ZM16.2432 27.8951C16.2432 28.2953 16.3183 28.5329 16.4933 28.7079C16.7309 28.9455 16.906 28.958 22.9711 28.958C27.0728 28.958 29.3613 29.0081 29.6864 29.0956C30.8619 29.4207 31.4872 30.3211 31.4997 31.6717V32.4595H24.1216C16.906 32.4595 16.7434 32.4595 16.4933 32.7096C16.3183 32.8847 16.2432 33.1223 16.2432 33.5225C16.2432 33.8351 16.2182 34.0852 16.1807 34.0852C16.0306 34.0852 11.9914 30.7713 12.0164 30.6838C12.0665 30.5587 16.0181 27.3574 16.1557 27.3449C16.2057 27.3323 16.2432 27.5825 16.2432 27.8951ZM31.4997 39.3124L30.8494 39.7126C30.4868 39.9377 29.724 40.4879 29.1612 40.9256L28.1233 41.726V34.4604H31.4997V39.3124ZM52.3836 38.0994C52.3836 41.0006 52.3461 41.7135 52.2335 41.6259C52.146 41.5509 51.7583 41.2508 51.3706 40.9381C50.9955 40.638 50.3077 40.1378 49.845 39.8502L49.0071 39.2999V34.4604H52.3836V38.0994ZM43.1046 39.3249C48.8196 40.4379 53.4215 44.4521 55.2598 49.9419C55.6099 50.9799 56.0101 52.9182 56.0101 53.5435V53.8436H41.2539V39.0873H41.5665C41.7291 39.0873 42.4294 39.1999 43.1046 39.3249ZM25.3721 54.1812C25.3721 55.0816 25.6847 55.5943 26.4851 55.9945C27.4855 56.5072 28.1858 56.4697 28.9486 55.8945L29.5364 55.4443L30.2617 56.1696L30.987 56.8824L30.5243 57.4451C30.1241 57.9328 30.0616 58.0954 30.0616 58.6456C30.0741 59.4585 30.5243 60.4089 31.0495 60.734C31.2996 60.8841 31.6748 60.9716 32.1 60.9716H32.7502V63.1851L32.0374 63.2601C31.1746 63.3476 30.7744 63.6228 30.4117 64.3606C29.8365 65.5111 29.874 66.0738 30.5868 66.8616L31.0495 67.3618L29.5239 68.8875L28.9986 68.4498C28.3234 67.8621 27.8232 67.7745 26.9228 68.0871C25.7723 68.4998 25.3721 69.0125 25.3721 70.1005V70.7258H23.1212V69.9754C23.1212 69.3002 23.0836 69.1751 22.721 68.7874C22.2333 68.2622 21.0328 67.7995 20.47 67.9121C20.2699 67.9621 19.8573 68.1997 19.5321 68.4373L18.9569 68.875L18.2316 68.1497L17.4938 67.4244L17.7939 67.0992C18.6067 66.2113 18.7068 65.5486 18.1565 64.4731C17.7064 63.6102 17.3062 63.3226 16.4308 63.2476L15.743 63.1976V60.9716H16.4808C17.3937 60.9716 17.7814 60.6965 18.1941 59.7586C18.6693 58.6832 18.5567 57.9203 17.8189 57.2325L17.4813 56.9199L19.0444 55.3567L19.5822 55.8444C20.0448 56.2821 20.1949 56.3447 20.7076 56.3447C21.5205 56.3447 22.5459 55.857 22.871 55.3192C23.0336 55.0441 23.1212 54.6815 23.1212 54.2438V53.5935H25.3721V54.1812ZM56.0101 56.1446C56.0101 56.7698 55.6099 58.7082 55.2473 59.7711C54.7596 61.2217 53.8092 63.0475 52.9213 64.248C52.5211 64.7857 52.171 65.2234 52.1335 65.2234C52.096 65.2234 49.9575 63.11 47.3815 60.5339L42.692 55.8444H56.0101V56.1446Z" stroke="#1742E7" stroke-width="0.649948" mask="url(#path-1-inside-1_10056_15556)"></path><path d="M22.3083 58.333C21.7831 58.6581 20.395 60.1338 20.2449 60.5339C20.0574 61.0341 20.0824 63.2851 20.295 63.7603C20.3825 63.9854 20.9452 64.6232 21.533 65.1859L22.5959 66.2239H24.1716C25.2846 66.2239 25.8598 66.1738 26.0974 66.0488C26.5601 65.8112 28.0858 64.198 28.2483 63.7978C28.4484 63.2726 28.4109 60.7715 28.1983 60.3714C28.0983 60.1838 27.573 59.596 27.0228 59.0583L26.0224 58.0954H24.3592C22.9461 58.0954 22.6209 58.1329 22.3083 58.333ZM25.7098 60.6215L26.3725 61.2718V62.1471C26.3725 63.0225 26.3725 63.0225 25.7848 63.6228L25.197 64.223H23.4463L22.1207 62.9225V62.1096C22.1207 61.2968 22.1207 61.2968 22.771 60.634L23.4213 59.9712H24.2341C25.047 59.9712 25.047 59.9712 25.7098 60.6215Z" stroke="#1742E7" stroke-width="0.649948" mask="url(#path-1-inside-1_10056_15556)"></path><path d="M39.5156 28.2827C39.303 28.5579 39.253 28.7955 39.253 29.5833C39.253 30.8088 39.5031 31.209 40.2534 31.209C41.0037 31.209 41.2539 30.8088 41.2539 29.5833C41.2539 28.3578 41.0037 27.9576 40.2534 27.9576C39.8783 27.9576 39.7157 28.0326 39.5156 28.2827Z" stroke="#1742E7" stroke-width="0.649948" mask="url(#path-1-inside-1_10056_15556)"></path><path d="M39.5656 33.0223C39.278 33.2974 39.253 33.4224 39.253 34.3728C39.253 35.6984 39.4531 36.0235 40.2534 36.0235C41.0538 36.0235 41.2539 35.6984 41.2539 34.3728C41.2539 33.4224 41.2288 33.2974 40.9412 33.0223C40.7536 32.8222 40.491 32.7096 40.2534 32.7096C40.0158 32.7096 39.7532 32.8222 39.5656 33.0223Z" stroke="#1742E7" stroke-width="0.649948" mask="url(#path-1-inside-1_10056_15556)"></path></svg>