<svg xmlns="http://www.w3.org/2000/svg" width="81" height="80" viewBox="0 0 81 80" fill="none"><path d="M45.371 34.7907H36.2549C35.8643 34.7907 35.6036 35.051 35.6036 35.4421V44.5581C35.6036 44.9488 35.8639 45.2095 36.2549 45.2095H45.371C45.7616 45.2095 46.0223 44.9492 46.0223 44.5581V35.4421C46.0223 35.0515 45.7616 34.7907 45.371 34.7907ZM44.7201 43.9072H36.9058V36.0929H44.7196L44.7201 43.9072Z" fill="#1742E7"></path><path d="M68.1617 37.3952C66.9244 37.3952 65.9478 38.2418 65.6221 39.3488L51.8826 39.3483V36.0925H56.4406C56.8313 36.0925 57.092 35.8322 57.092 35.4411V32.1853H60.4128C60.6731 33.2923 61.715 34.1389 62.9523 34.1389C64.3849 34.1389 65.5568 32.9671 65.5568 31.5345C65.5568 30.102 64.3849 28.9301 62.9523 28.9301C61.715 28.9301 60.7385 29.7768 60.4128 30.8837H56.4407C56.0501 30.8837 55.7894 31.144 55.7894 31.5351V34.7909H51.8821V29.5815C51.8821 29.1908 51.6219 28.9301 51.2308 28.9301H41.4643V27.6279H46.0223C46.4129 27.6279 46.6737 27.3676 46.6737 26.9765V23.7207H49.9945C50.2547 24.8277 51.2967 25.6743 52.534 25.6743C53.9666 25.6743 55.1384 24.5025 55.1384 23.0699C55.1384 21.6374 53.9666 20.4655 52.534 20.4655C51.2967 20.4655 50.3202 21.3122 49.9945 22.4191L46.0224 22.4187C45.6318 22.4187 45.371 22.6789 45.371 23.07V26.3258H41.4638V21.1819C41.4638 20.9216 41.4638 20.7258 41.3989 20.4656L48.6268 20.4651C49.0174 20.4651 49.2781 20.2048 49.2781 19.8138V16.5579H52.5989C52.8592 17.6649 53.9011 18.5115 55.1385 18.5115C56.571 18.5115 57.7429 17.3397 57.7429 15.9071C57.7429 14.4746 56.571 13.3027 55.1385 13.3027C53.9011 13.3027 52.9246 14.1494 52.5989 15.2563L48.6268 15.2559C48.2362 15.2559 47.9755 15.5161 47.9755 15.9072V19.163H41.269C40.3574 15.0606 36.711 12 32.2828 12C27.2037 12 23.1013 16.1024 23.1013 21.116C18.8035 20.7904 15.1571 24.1765 15.1571 28.409C15.1571 29.7112 15.4828 30.9485 16.1337 32.0553C12.9432 33.4235 10.8594 36.484 10.8594 40C10.8594 43.516 12.9433 46.5766 16.1337 47.8793C15.4823 48.9862 15.1571 50.2235 15.1571 51.5257C15.1571 55.5628 18.4779 58.8839 22.5154 58.8839H23.1013C23.1013 63.898 27.2688 68 32.2828 68C36.6456 68 40.3574 64.9395 41.269 60.837H47.976V64.0928C47.976 64.4834 48.2362 64.7441 48.6273 64.7441H52.5994C52.8597 65.8511 53.9016 66.6977 55.139 66.6977C56.5715 66.6977 57.7434 65.5259 57.7434 64.0933C57.7434 62.6608 56.5715 61.4889 55.139 61.4889C53.9016 61.4889 52.9251 62.3356 52.5994 63.4425L49.2783 63.4421V60.1862C49.2783 59.7956 49.018 59.5349 48.6269 59.5349H41.399C41.399 59.2746 41.4639 59.0789 41.4639 58.8186L41.4644 53.6746H45.3716V56.9304C45.3716 57.3211 45.6319 57.5818 46.023 57.5818H49.9951C50.2553 58.6887 51.2973 59.5354 52.5346 59.5354C53.9671 59.5354 55.139 58.3635 55.139 56.931C55.139 55.4984 53.9671 54.3266 52.5346 54.3266C51.2973 54.3266 50.3208 55.1732 49.9951 56.2802L46.6734 56.2793V53.0234C46.6734 52.6328 46.4132 52.3721 46.0221 52.3721H41.4641V51.0699H51.2315C51.6221 51.0699 51.8828 50.8096 51.8828 50.4185V45.2091H55.7901V48.4649C55.7901 48.8556 56.0503 49.1163 56.4414 49.1163H60.4135C60.6738 50.2232 61.7157 51.0699 62.953 51.0699C64.3856 51.0699 65.5574 49.898 65.5574 48.4655C65.5574 47.0329 64.3856 45.8611 62.953 45.8611C61.7157 45.8611 60.7392 46.7077 60.4135 47.8147L57.0923 47.8142V44.5584C57.0923 44.1678 56.8321 43.907 56.441 43.907H51.883V40.6512H65.6225C65.8828 41.7581 66.9247 42.6048 68.162 42.6048C69.5946 42.6048 70.7665 41.433 70.7665 40.0004C70.7669 38.5679 69.5946 37.396 68.162 37.396L68.1617 37.3952ZM62.9523 30.2321C63.6686 30.2321 64.2545 30.8181 64.2545 31.5344C64.2545 32.2507 63.6685 32.8366 62.9523 32.8366C62.236 32.8366 61.6501 32.2506 61.6501 31.5344C61.6501 30.818 62.236 30.2321 62.9523 30.2321ZM52.5339 21.7669C53.2502 21.7669 53.8361 22.3529 53.8361 23.0691C53.8361 23.7854 53.2502 24.3713 52.5339 24.3713C51.8176 24.3713 51.2317 23.7854 51.2317 23.0691C51.2317 22.3528 51.8176 21.7669 52.5339 21.7669ZM55.1383 14.6044C55.8546 14.6044 56.4405 15.1903 56.4405 15.9066C56.4405 16.6229 55.8546 17.2088 55.1383 17.2088C54.422 17.2088 53.8361 16.6228 53.8361 15.9066C53.8361 15.1903 54.422 14.6044 55.1383 14.6044ZM55.1383 62.7904C55.8546 62.7904 56.4405 63.3763 56.4405 64.0926C56.4405 64.8089 55.8546 65.3948 55.1383 65.3948C54.422 65.3948 53.8361 64.8089 53.8361 64.0926C53.8361 63.3763 54.422 62.7904 55.1383 62.7904ZM52.5339 55.6274C53.2502 55.6274 53.8361 56.2133 53.8361 56.9296C53.8361 57.6459 53.2502 58.2318 52.5339 58.2318C51.8176 58.2318 51.2317 57.6459 51.2317 56.9296C51.2317 56.2137 51.8176 55.6274 52.5339 55.6274ZM62.9523 47.1626C63.6686 47.1626 64.2545 47.7486 64.2545 48.4648C64.2545 49.1811 63.6685 49.767 62.9523 49.767C62.236 49.767 61.6501 49.1811 61.6501 48.4648C61.6501 47.7485 62.236 47.1626 62.9523 47.1626ZM40.1616 58.8184C40.1616 63.1812 36.6455 66.6977 32.2827 66.6977C27.9199 66.6977 24.4034 63.1817 24.4034 58.8184C24.4034 58.6231 24.4034 58.3624 24.4684 58.1671C24.4684 57.9718 24.4034 57.7764 24.2731 57.6461C24.1427 57.5157 23.8824 57.4508 23.6871 57.5157C23.2315 57.5162 22.8409 57.5811 22.5153 57.5811C19.1944 57.5811 16.4597 54.8462 16.4597 51.5255C16.4597 50.2233 16.8503 48.986 17.697 47.944C17.8274 47.7487 17.8923 47.5534 17.8274 47.3581C17.7624 47.1628 17.632 46.9675 17.3713 46.9675C14.2454 45.9905 12.1619 43.1907 12.1619 39.9998C12.1619 36.8089 14.2459 34.0091 17.3059 33.0976C17.5012 33.0326 17.6965 32.9023 17.7619 32.707C17.8268 32.5116 17.7619 32.2509 17.6315 32.121C16.8503 31.079 16.3942 29.8417 16.3942 28.5395C16.3942 25.2187 19.1291 22.4839 22.4498 22.4839C22.8404 22.4839 23.1661 22.5489 23.5567 22.6143C23.752 22.6792 23.9473 22.6143 24.1427 22.4839C24.273 22.3536 24.4029 22.1582 24.338 21.9629C24.338 21.7676 24.273 21.5069 24.273 21.3116C24.4034 16.8184 27.9199 13.3019 32.2827 13.3019C36.6455 13.3019 40.1615 16.8184 40.1615 21.1812V28.9302H30.3941C30.0034 28.9302 29.7427 29.1905 29.7427 29.5815V50.4187C29.7427 50.8094 30.003 51.0701 30.3941 51.0701H40.1615L40.1616 58.8184ZM50.5804 49.7673H31.0455V30.2324H50.5804V49.7673ZM68.1618 41.302C67.4455 41.302 66.8596 40.7161 66.8596 39.9998C66.8596 39.2835 67.4455 38.6976 68.1618 38.6976C68.8781 38.6976 69.464 39.2835 69.464 39.9998C69.464 40.7161 68.8781 41.302 68.1618 41.302Z" fill="#1742E7"></path><path d="M45.371 34.7907H36.2549C35.8643 34.7907 35.6036 35.051 35.6036 35.4421V44.5581C35.6036 44.9488 35.8639 45.2095 36.2549 45.2095H45.371C45.7616 45.2095 46.0223 44.9492 46.0223 44.5581V35.4421C46.0223 35.0515 45.7616 34.7907 45.371 34.7907ZM44.7201 43.9072H36.9058V36.0929H44.7196L44.7201 43.9072Z" stroke="#1742E7" stroke-width="0.325582"></path><path d="M68.1617 37.3952C66.9244 37.3952 65.9478 38.2418 65.6221 39.3488L51.8826 39.3483V36.0925H56.4406C56.8313 36.0925 57.092 35.8322 57.092 35.4411V32.1853H60.4128C60.6731 33.2923 61.715 34.1389 62.9523 34.1389C64.3849 34.1389 65.5568 32.9671 65.5568 31.5345C65.5568 30.102 64.3849 28.9301 62.9523 28.9301C61.715 28.9301 60.7385 29.7768 60.4128 30.8837H56.4407C56.0501 30.8837 55.7894 31.144 55.7894 31.5351V34.7909H51.8821V29.5815C51.8821 29.1908 51.6219 28.9301 51.2308 28.9301H41.4643V27.6279H46.0223C46.4129 27.6279 46.6737 27.3676 46.6737 26.9765V23.7207H49.9945C50.2547 24.8277 51.2967 25.6743 52.534 25.6743C53.9666 25.6743 55.1384 24.5025 55.1384 23.0699C55.1384 21.6374 53.9666 20.4655 52.534 20.4655C51.2967 20.4655 50.3202 21.3122 49.9945 22.4191L46.0224 22.4187C45.6318 22.4187 45.371 22.6789 45.371 23.07V26.3258H41.4638V21.1819C41.4638 20.9216 41.4638 20.7258 41.3989 20.4656L48.6268 20.4651C49.0174 20.4651 49.2781 20.2048 49.2781 19.8138V16.5579H52.5989C52.8592 17.6649 53.9011 18.5115 55.1385 18.5115C56.571 18.5115 57.7429 17.3397 57.7429 15.9071C57.7429 14.4746 56.571 13.3027 55.1385 13.3027C53.9011 13.3027 52.9246 14.1494 52.5989 15.2563L48.6268 15.2559C48.2362 15.2559 47.9755 15.5161 47.9755 15.9072V19.163H41.269C40.3574 15.0606 36.711 12 32.2828 12C27.2037 12 23.1013 16.1024 23.1013 21.116C18.8035 20.7904 15.1571 24.1765 15.1571 28.409C15.1571 29.7112 15.4828 30.9485 16.1337 32.0553C12.9432 33.4235 10.8594 36.484 10.8594 40C10.8594 43.516 12.9433 46.5766 16.1337 47.8793C15.4823 48.9862 15.1571 50.2235 15.1571 51.5257C15.1571 55.5628 18.4779 58.8839 22.5154 58.8839H23.1013C23.1013 63.898 27.2688 68 32.2828 68C36.6456 68 40.3574 64.9395 41.269 60.837H47.976V64.0928C47.976 64.4834 48.2362 64.7441 48.6273 64.7441H52.5994C52.8597 65.8511 53.9016 66.6977 55.139 66.6977C56.5715 66.6977 57.7434 65.5259 57.7434 64.0933C57.7434 62.6608 56.5715 61.4889 55.139 61.4889C53.9016 61.4889 52.9251 62.3356 52.5994 63.4425L49.2783 63.4421V60.1862C49.2783 59.7956 49.018 59.5349 48.6269 59.5349H41.399C41.399 59.2746 41.4639 59.0789 41.4639 58.8186L41.4644 53.6746H45.3716V56.9304C45.3716 57.3211 45.6319 57.5818 46.023 57.5818H49.9951C50.2553 58.6887 51.2973 59.5354 52.5346 59.5354C53.9671 59.5354 55.139 58.3635 55.139 56.931C55.139 55.4984 53.9671 54.3266 52.5346 54.3266C51.2973 54.3266 50.3208 55.1732 49.9951 56.2802L46.6734 56.2793V53.0234C46.6734 52.6328 46.4132 52.3721 46.0221 52.3721H41.4641V51.0699H51.2315C51.6221 51.0699 51.8828 50.8096 51.8828 50.4185V45.2091H55.7901V48.4649C55.7901 48.8556 56.0503 49.1163 56.4414 49.1163H60.4135C60.6738 50.2232 61.7157 51.0699 62.953 51.0699C64.3856 51.0699 65.5574 49.898 65.5574 48.4655C65.5574 47.0329 64.3856 45.8611 62.953 45.8611C61.7157 45.8611 60.7392 46.7077 60.4135 47.8147L57.0923 47.8142V44.5584C57.0923 44.1678 56.8321 43.907 56.441 43.907H51.883V40.6512H65.6225C65.8828 41.7581 66.9247 42.6048 68.162 42.6048C69.5946 42.6048 70.7665 41.433 70.7665 40.0004C70.7669 38.5679 69.5946 37.396 68.162 37.396L68.1617 37.3952ZM62.9523 30.2321C63.6686 30.2321 64.2545 30.8181 64.2545 31.5344C64.2545 32.2507 63.6685 32.8366 62.9523 32.8366C62.236 32.8366 61.6501 32.2506 61.6501 31.5344C61.6501 30.818 62.236 30.2321 62.9523 30.2321ZM52.5339 21.7669C53.2502 21.7669 53.8361 22.3529 53.8361 23.0691C53.8361 23.7854 53.2502 24.3713 52.5339 24.3713C51.8176 24.3713 51.2317 23.7854 51.2317 23.0691C51.2317 22.3528 51.8176 21.7669 52.5339 21.7669ZM55.1383 14.6044C55.8546 14.6044 56.4405 15.1903 56.4405 15.9066C56.4405 16.6229 55.8546 17.2088 55.1383 17.2088C54.422 17.2088 53.8361 16.6228 53.8361 15.9066C53.8361 15.1903 54.422 14.6044 55.1383 14.6044ZM55.1383 62.7904C55.8546 62.7904 56.4405 63.3763 56.4405 64.0926C56.4405 64.8089 55.8546 65.3948 55.1383 65.3948C54.422 65.3948 53.8361 64.8089 53.8361 64.0926C53.8361 63.3763 54.422 62.7904 55.1383 62.7904ZM52.5339 55.6274C53.2502 55.6274 53.8361 56.2133 53.8361 56.9296C53.8361 57.6459 53.2502 58.2318 52.5339 58.2318C51.8176 58.2318 51.2317 57.6459 51.2317 56.9296C51.2317 56.2137 51.8176 55.6274 52.5339 55.6274ZM62.9523 47.1626C63.6686 47.1626 64.2545 47.7486 64.2545 48.4648C64.2545 49.1811 63.6685 49.767 62.9523 49.767C62.236 49.767 61.6501 49.1811 61.6501 48.4648C61.6501 47.7485 62.236 47.1626 62.9523 47.1626ZM40.1616 58.8184C40.1616 63.1812 36.6455 66.6977 32.2827 66.6977C27.9199 66.6977 24.4034 63.1817 24.4034 58.8184C24.4034 58.6231 24.4034 58.3624 24.4684 58.1671C24.4684 57.9718 24.4034 57.7764 24.2731 57.6461C24.1427 57.5157 23.8824 57.4508 23.6871 57.5157C23.2315 57.5162 22.8409 57.5811 22.5153 57.5811C19.1944 57.5811 16.4597 54.8462 16.4597 51.5255C16.4597 50.2233 16.8503 48.986 17.697 47.944C17.8274 47.7487 17.8923 47.5534 17.8274 47.3581C17.7624 47.1628 17.632 46.9675 17.3713 46.9675C14.2454 45.9905 12.1619 43.1907 12.1619 39.9998C12.1619 36.8089 14.2459 34.0091 17.3059 33.0976C17.5012 33.0326 17.6965 32.9023 17.7619 32.707C17.8268 32.5116 17.7619 32.2509 17.6315 32.121C16.8503 31.079 16.3942 29.8417 16.3942 28.5395C16.3942 25.2187 19.1291 22.4839 22.4498 22.4839C22.8404 22.4839 23.1661 22.5489 23.5567 22.6143C23.752 22.6792 23.9473 22.6143 24.1427 22.4839C24.273 22.3536 24.4029 22.1582 24.338 21.9629C24.338 21.7676 24.273 21.5069 24.273 21.3116C24.4034 16.8184 27.9199 13.3019 32.2827 13.3019C36.6455 13.3019 40.1615 16.8184 40.1615 21.1812V28.9302H30.3941C30.0034 28.9302 29.7427 29.1905 29.7427 29.5815V50.4187C29.7427 50.8094 30.003 51.0701 30.3941 51.0701H40.1615L40.1616 58.8184ZM50.5804 49.7673H31.0455V30.2324H50.5804V49.7673ZM68.1618 41.302C67.4455 41.302 66.8596 40.7161 66.8596 39.9998C66.8596 39.2835 67.4455 38.6976 68.1618 38.6976C68.8781 38.6976 69.464 39.2835 69.464 39.9998C69.464 40.7161 68.8781 41.302 68.1618 41.302Z" stroke="#1742E7" stroke-width="0.325582"></path></svg>