<svg xmlns="http://www.w3.org/2000/svg" width="81" height="80" viewBox="0 0 81 80" fill="none"><path d="M46.7189 36.425C45.7707 36.425 45.7707 34.9727 46.7189 34.9727H56.669C57.6292 34.9727 57.6292 36.425 56.669 36.425H46.7189ZM46.7189 32.3561C45.7707 32.3561 45.7707 30.9038 46.7189 30.9038H49.2874C50.2356 30.9038 50.2356 32.3561 49.2874 32.3561H46.7189ZM52.228 32.3561C51.2678 32.3561 51.2678 30.9038 52.228 30.9038H56.669C57.6292 30.9038 57.6292 32.3561 56.669 32.3561H52.228ZM46.7189 28.2873C45.7707 28.2873 45.7707 26.835 46.7189 26.835H56.669C57.6292 26.835 57.6292 28.2873 56.669 28.2873H46.7189ZM20.1214 18.4093H24.6223C25.0304 18.4093 25.3544 18.7334 25.3544 19.1415V21.794H28.175V16.5849C28.175 16.1768 28.4991 15.8528 28.9072 15.8528H33.4081C33.8162 15.8528 34.1403 16.1768 34.1403 16.5849V21.782H36.9609V12.7321C36.9609 12.3241 37.2849 12 37.693 12H42.194C42.602 12 42.9261 12.3241 42.9261 12.7321V21.782H59.8976C61.3499 21.782 62.5262 22.9702 62.5262 24.4105V43.1823C69.5956 49.6997 68.3714 61.246 59.9937 66.083C56.801 67.9314 52.9722 68.5195 49.1434 67.5113C47.355 67.0312 45.7467 66.239 44.3544 65.2068H25.8946C25.4865 65.2068 25.1624 64.8827 25.1624 64.4747V61.078C25.1624 59.7817 26.4827 58.9535 27.791 58.9535H34.0082V54.2606H17.1207C15.6684 54.2606 14.4922 53.0843 14.4922 51.6321V24.4225C14.4922 22.9702 15.6684 21.794 17.1207 21.794H19.3892V19.1415C19.3892 18.7334 19.7133 18.4093 20.1214 18.4093ZM25.3424 23.2463V30.2197C25.3424 30.6278 25.0184 30.9519 24.6103 30.9519H20.1214C19.7133 30.9519 19.3892 30.6278 19.3892 30.2197V23.2463H17.1207C16.4726 23.2463 15.9445 23.7744 15.9445 24.4225V48.6074H39.4454C42.7581 39.9297 53.4163 36.677 61.0259 42.0181V24.4225C61.0259 23.7744 60.4978 23.2463 59.8496 23.2463H42.8781V30.2197C42.8781 30.6278 42.554 30.9519 42.1459 30.9519H37.645C37.2369 30.9519 36.9128 30.6278 36.9128 30.2197V23.2463H34.0923V30.2197C34.0923 30.6278 33.7682 30.9519 33.3601 30.9519H28.8592C28.4511 30.9519 28.127 30.6278 28.127 30.2197V23.2463H25.3424ZM23.8901 19.8616H20.8535V29.4876H23.8901V19.8616ZM41.4258 13.4643H38.3892V29.4876H41.4258V13.4643ZM32.652 17.3171H29.6153V29.4876H32.652V17.3171ZM42.0499 46.675L44.9785 48.3674C45.7827 47.1912 46.8509 46.2069 48.0632 45.5108C50.1156 44.2866 52.7682 43.8905 55.2647 44.5626C57.5331 45.1747 59.3935 46.567 60.6298 48.3674L63.5584 46.687C59.8616 41.0339 52.3361 39.1615 46.3828 42.5942C44.6545 43.5904 43.1662 44.9707 42.0499 46.675ZM44.2464 49.6156L41.3178 47.9353C40.4656 49.6276 39.9375 51.6681 39.9375 53.5524C39.9375 56.073 40.4776 58.0174 41.6538 60.1418C43.2262 62.9984 46.2268 65.3028 49.4195 66.119C50.4397 66.371 51.0278 66.4911 52.048 66.5511V63.1784C45.4346 62.6623 41.3658 55.6289 44.2464 49.6156ZM64.2665 47.9353L61.3379 49.6276C63.4864 54.0926 61.818 59.4576 57.5331 61.9301C56.3569 62.6263 54.9046 63.0704 53.5243 63.1784V66.5511C55.6488 66.4311 57.4491 65.8429 59.2615 64.8347C62.0821 63.1904 64.2785 60.4779 65.2027 57.0812C65.2027 57.0572 65.2147 57.0331 65.2147 57.0091C66.0549 53.8525 65.6348 50.6479 64.2665 47.9353ZM51.856 57.2252C54.9166 58.0414 57.5932 54.8007 55.9248 51.8601C54.9766 50.1918 52.7682 49.5556 50.9438 50.5878C49.2754 51.536 48.6393 53.7805 49.6475 55.5328C50.1156 56.349 50.8838 56.9731 51.856 57.2252ZM55.3367 58.1254C52.9002 59.5297 49.7915 58.6895 48.3872 56.265C46.9829 53.9005 47.7991 50.7319 50.2476 49.3156C52.6841 47.9113 55.7928 48.7395 57.1971 51.176C58.6014 53.6005 57.7732 56.7211 55.3367 58.1254ZM50.7157 61.4741C52.8522 62.0502 55.0246 61.7021 56.801 60.6699C60.6418 58.4494 61.9621 53.5404 59.7416 49.6997C57.5211 45.8589 52.6121 44.5386 48.7713 46.7591C46.9949 47.7793 45.6027 49.4956 45.0385 51.6321C43.8983 55.9289 46.4308 60.3218 50.7157 61.4741ZM42.626 63.7665C41.6418 62.7823 40.8257 61.6421 40.1775 60.4298H27.815C27.3109 60.4298 26.6387 60.6939 26.6387 61.102V63.7665H42.626ZM39.4934 58.9775C38.9053 57.5012 38.5692 55.9049 38.5092 54.2846H35.4846V58.9775H39.4934ZM38.5212 52.8203C38.5812 51.9081 38.7252 50.9839 38.9773 50.0597H15.9445V51.6441C15.9445 52.2922 16.4726 52.8203 17.1207 52.8203H38.5212ZM21.2736 42.2942L25.4745 38.2373C24.7783 36.8811 25.7625 35.3687 27.1908 35.3687C27.7189 35.3687 28.235 35.5848 28.5711 35.9449C29.1952 36.569 29.3273 37.5412 28.8712 38.3093L30.9116 40.7218C31.4757 40.5058 32.1119 40.5778 32.616 40.8899L38.9413 35.8368C38.3532 33.8924 40.7777 32.4762 42.1819 33.8924C43.7303 35.4648 41.9059 37.9493 39.9615 37.0251C39.9255 37.0011 39.8895 36.9891 39.8535 36.9651L33.4921 42.0541C33.9962 43.9745 31.6077 45.3188 30.2275 43.9265C29.6393 43.3264 29.4833 42.4622 29.8554 41.706L27.7309 39.1975C27.3589 39.3055 26.9748 39.2935 26.6147 39.1735L22.3058 43.3144C22.8579 44.5986 21.9097 46.0269 20.5174 46.0269C19.9893 46.0269 19.4852 45.8109 19.1372 45.4508C17.6128 43.9385 19.3412 41.454 21.2736 42.2942ZM27.4789 37.7092C27.7309 37.5292 27.7549 37.1691 27.5389 36.9651C27.0468 36.473 26.3387 37.2891 26.8908 37.7092C27.0708 37.8413 27.3109 37.8413 27.4789 37.7092ZM31.2597 42.1621C30.7556 42.6422 31.4757 43.3384 31.9318 42.8823C32.3879 42.4382 31.7398 41.754 31.2597 42.1621ZM20.8655 43.7224C20.4094 43.2664 19.7013 43.9625 20.1694 44.4186C20.6255 44.8867 21.3216 44.1905 20.8655 43.7224ZM41.1497 34.9127C40.7056 34.4686 40.0335 35.0927 40.4176 35.5728C40.8377 36.1009 41.6298 35.3928 41.1497 34.9127Z" fill="#1742E7"></path></svg>