<svg xmlns="http://www.w3.org/2000/svg" width="76" height="92" viewBox="0 0 76 92" fill="none"><path d="M13.7906 48.5651C20.04 48.5651 25.1233 43.4806 25.1233 37.2324C25.1227 30.9836 20.0394 25.8996 13.7906 25.8996C7.54115 25.8996 2.45783 30.983 2.45783 37.2324C2.45783 43.4812 7.54176 48.5651 13.7906 48.5651ZM13.7906 28.1819C18.7812 28.1819 22.8404 32.2417 22.8404 37.2318C22.8404 42.2224 18.7806 46.2816 13.7906 46.2816C8.79992 46.2816 4.74074 42.2218 4.74074 37.2318C4.74014 32.2417 8.80053 28.1819 13.7906 28.1819ZM9.66983 34.621C9.66983 32.8968 10.9208 31.4371 12.6288 30.9722L12.6138 30.3471C12.5988 29.7171 13.0972 29.1936 13.7277 29.1787H13.7553C14.3733 29.1787 14.8812 29.6716 14.8961 30.2926L14.9129 30.995C15.8384 31.2534 16.8794 31.7894 17.3879 32.5629C17.7336 33.09 17.5883 33.7977 17.0606 34.1435C16.5341 34.4893 15.8258 34.3439 15.4801 33.8162C15.3012 33.5506 14.3117 33.1013 13.7906 33.1013C12.7778 33.1013 11.9528 33.7827 11.9528 34.6203C11.9528 35.4585 12.7772 36.1399 13.7906 36.1399C16.0628 36.1399 17.912 37.8455 17.912 39.9424C17.912 41.666 16.6622 43.1257 14.9547 43.5899L14.9673 44.1181C14.9823 44.7481 14.4839 45.2716 13.854 45.2865H13.8264C13.209 45.2865 12.7005 44.7936 12.6856 44.1726L12.6724 43.6096C11.732 43.3673 11.0919 42.8331 10.5157 42.2893C10.0574 41.8567 10.0359 41.134 10.4684 40.6758C10.901 40.2175 11.6237 40.196 12.0819 40.6285C12.7442 41.2531 13.0846 41.4613 13.7917 41.4613C14.8046 41.4613 15.6296 40.7799 15.6296 39.9423C15.6296 39.1054 14.8052 38.4233 13.7917 38.4233C11.5183 38.4222 9.66983 36.7166 9.66983 34.621ZM38.2498 38.4552C44.4992 38.4552 49.5826 33.3706 49.5826 27.1224C49.5826 20.8742 44.4992 15.7897 38.2498 15.7897C32.0004 15.7897 26.9171 20.8742 26.9171 27.1224C26.9171 33.3706 32.0004 38.4552 38.2498 38.4552ZM38.2498 18.072C43.2405 18.072 47.2997 22.1317 47.2997 27.1218C47.2997 32.1125 43.2405 36.1722 38.2498 36.1722C33.2592 36.1722 29.2 32.1125 29.2 27.1224C29.2 22.1311 33.2592 18.072 38.2498 18.072ZM34.1285 24.5104C34.1285 22.7862 35.3794 21.3265 37.0874 20.8616L37.0724 20.2365C37.0575 19.6065 37.5558 19.083 38.1864 19.0681H38.2139C38.8319 19.0681 39.3398 19.561 39.3548 20.182L39.3715 20.8844C40.297 21.1428 41.338 21.6789 41.8465 22.4524C42.1923 22.9794 42.0469 23.6872 41.5192 24.0329C40.9928 24.3787 40.2844 24.2333 39.9387 23.7057C39.7598 23.44 38.7703 22.9907 38.2492 22.9907C37.2364 22.9907 36.4114 23.6721 36.4114 24.5097C36.4114 25.3479 37.2358 26.0287 38.2492 26.0287C40.5214 26.0287 42.3706 27.7344 42.3706 29.8312C42.3706 31.5548 41.1208 33.0145 39.4134 33.4787L39.4259 34.007C39.4409 34.6369 38.9426 35.1604 38.3126 35.1753H38.2851C37.6677 35.1753 37.1591 34.6824 37.1442 34.0614L37.131 33.4984C36.1906 33.2561 35.5505 32.7219 34.9743 32.1781C34.5161 31.7455 34.4945 31.0228 34.9271 30.5646C35.3596 30.1063 36.0823 30.086 36.5405 30.5173C37.2028 31.1419 37.542 31.3501 38.2497 31.3501C39.2626 31.3501 40.0876 30.6687 40.0876 29.8311C40.0876 28.993 39.2632 28.3116 38.2497 28.3116C35.9775 28.3116 34.1285 26.606 34.1285 24.5104ZM62.7084 28.3446C68.9579 28.3446 74.0412 23.26 74.0412 17.0118C74.0412 10.7636 68.9573 5.67969 62.7084 5.67969C56.459 5.67969 51.3757 10.7642 51.3757 17.0124C51.3763 23.2606 56.4596 28.3446 62.7084 28.3446ZM62.7084 7.96137C67.6991 7.96137 71.7583 12.0212 71.7583 17.0112C71.7583 22.0019 67.6985 26.0611 62.7084 26.0611C57.7178 26.0611 53.6586 22.0013 53.6586 17.0112C53.6586 12.0212 57.7184 7.96137 62.7084 7.96137ZM58.5877 14.3998C58.5877 12.6756 59.8387 11.2159 61.5466 10.7511L61.5317 10.1259C61.5167 9.49592 62.015 8.97246 62.6456 8.9575C63.2798 8.94314 63.799 9.44088 63.814 10.0714L63.8308 10.7738C64.7563 11.0322 65.796 11.5671 66.3057 12.3418C66.6515 12.8688 66.5061 13.5766 65.9785 13.9223C65.4514 14.2687 64.7437 14.1227 64.3979 13.5951C64.219 13.3294 63.2295 12.8802 62.7085 12.8802C61.6956 12.8802 60.8706 13.5616 60.8706 14.3991C60.8706 15.2361 61.695 15.9181 62.7085 15.9181C64.9807 15.9181 66.8299 17.6238 66.8299 19.7206C66.8299 21.4442 65.5801 22.9039 63.8726 23.3681L63.8852 23.8964C63.9001 24.5263 63.4018 25.0498 62.7718 25.0648H62.7443C62.1269 25.0648 61.6184 24.5718 61.6034 23.9508L61.5903 23.3879C60.6498 23.1456 60.0097 22.6113 59.4336 22.0675C58.9753 21.635 58.9538 20.9123 59.3863 20.454C59.8188 19.9946 60.5415 19.9742 60.9998 20.4068C61.662 21.0313 62.0013 21.2395 62.709 21.2395C63.7218 21.2395 64.5468 20.5581 64.5468 19.72C64.5468 18.8818 63.7224 18.201 62.709 18.201C60.4368 18.2016 58.5877 16.496 58.5877 14.3998ZM14.5974 53.1369C14.1517 52.6912 13.429 52.6912 12.9833 53.1369L0.869781 65.2498C0.542538 65.5759 0.445623 66.067 0.622102 66.4936C0.799178 66.9208 1.21557 67.1984 1.67623 67.1984H5.89576V85.0882C5.89576 85.7188 6.40666 86.2297 7.03723 86.2297H20.5423C21.1729 86.2297 21.6838 85.7188 21.6838 85.0882L21.6844 67.1984H25.9039C26.3658 67.1984 26.7822 66.9208 26.958 66.4936C27.1351 66.0677 27.0376 65.5759 26.7104 65.2498L14.5974 53.1369ZM20.5422 64.916C19.9116 64.916 19.4007 65.4269 19.4007 66.0574V83.9473H8.17871V66.0574C8.17871 65.4269 7.66781 64.916 7.03725 64.916H4.4318L13.7902 55.558L23.1476 64.9153L20.5422 64.916ZM39.0569 43.0273C38.6112 42.5815 37.8885 42.5815 37.4428 43.0273L25.3287 55.1396C25.0015 55.4656 24.9046 55.9568 25.081 56.3833C25.2581 56.8105 25.6745 57.0881 26.1352 57.0881H30.3547V85.0876C30.3547 85.7182 30.8656 86.2291 31.4962 86.2291H45.0019C45.6324 86.2291 46.1433 85.7182 46.1433 85.0876L46.1445 57.0881H50.3634C50.8253 57.0881 51.2417 56.8105 51.4176 56.3833C51.5946 55.9574 51.4971 55.4656 51.1699 55.1396L39.0569 43.0273ZM45.0017 54.8057C44.3712 54.8057 43.8603 55.3166 43.8603 55.9471V83.9467H32.6376V55.9471C32.6376 55.3166 32.1267 54.8057 31.4962 54.8057H28.8907L38.2492 45.4483L47.6066 54.8057H45.0017ZM75.6294 45.0302L63.5159 32.9173C63.0702 32.4716 62.3475 32.4716 61.9018 32.9173L49.7889 45.0302C49.4628 45.3562 49.3647 45.8474 49.5412 46.274C49.7183 46.7011 50.1347 46.9787 50.5953 46.9787H54.8148V85.0879C54.8148 85.7185 55.3257 86.2294 55.9563 86.2294H69.462C70.0926 86.2294 70.6035 85.7185 70.6035 85.0879L70.6041 46.9787H74.8236C75.2855 46.9787 75.7019 46.7011 75.8777 46.274C76.0536 45.8468 75.9555 45.3562 75.6295 45.0296L75.6294 45.0302ZM69.4614 44.6958C68.8309 44.6958 68.32 45.2067 68.32 45.8372V83.9464L57.0979 83.947V45.8378C57.0979 45.2073 56.587 44.6964 55.9565 44.6964H53.351L62.7084 35.339L72.0658 44.6964L69.4614 44.6958Z" fill="#1742E7"></path></svg>