<svg xmlns="http://www.w3.org/2000/svg" width="68" height="71" viewBox="0 0 68 71" fill="none"><path d="M17.0298 17.2253C17.0298 15.468 18.4543 14.0434 20.2116 14.0434H45.6661C47.4233 14.0434 48.848 15.468 48.848 17.2253V23.589C48.848 25.3462 47.4233 26.7708 45.6661 26.7708H20.2116C18.4543 26.7708 17.0298 25.3462 17.0298 23.589V17.2253ZM21.2722 18.2859V22.5284H44.6055V18.2859H21.2722ZM8.54492 12.4525C8.54492 8.64511 11.6315 5.55859 15.4389 5.55859H50.4389C54.2462 5.55859 57.3328 8.64513 57.3328 12.4525V58.0587C57.3328 61.866 54.2462 64.9526 50.4389 64.9526H15.4389C11.6314 64.9526 8.54492 61.866 8.54492 58.0587V12.4525ZM15.4389 9.80102C13.9745 9.80102 12.7873 10.9881 12.7873 12.4525V58.0587C12.7873 59.5229 13.9745 60.7102 15.4389 60.7102H50.4389C51.9033 60.7102 53.0904 59.5229 53.0904 58.0587V12.4525C53.0904 10.9882 51.9033 9.80102 50.4389 9.80102H15.4389ZM62.1055 18.2859H59.454V26.7708H62.1055C62.9841 26.7708 63.6964 26.0585 63.6964 25.1799V19.8768C63.6964 18.9981 62.9841 18.2859 62.1055 18.2859ZM59.454 31.0132H62.1055C62.9841 31.0132 63.6964 31.7253 63.6964 32.6041V37.9072C63.6964 38.7858 62.9841 39.4981 62.1055 39.4981H59.454V31.0132ZM62.1055 43.7405H59.454V52.2253H62.1055C62.9841 52.2253 63.6964 51.513 63.6964 50.6344V45.3314C63.6964 44.4526 62.9841 43.7405 62.1055 43.7405Z" fill="black"></path></svg>