<svg xmlns="http://www.w3.org/2000/svg" width="81" height="81" viewBox="0 0 81 81" fill="none"><mask id="path-1-outside-1_9975_55627" maskUnits="userSpaceOnUse" x="11.2168" y="11.6016" width="58" height="58" fill="black"><rect fill="white" x="11.2168" y="11.6016" width="58" height="58"></rect><path d="M32.3641 54.2775C27.4735 51.4553 24.4561 46.2417 24.4464 40.5951C24.4519 40.3936 24.3756 40.1985 24.2352 40.0541C24.0948 39.9098 23.9016 39.8284 23.7001 39.8284C23.4987 39.8284 23.3058 39.9098 23.1654 40.0541C23.0246 40.1985 22.9487 40.3936 22.9542 40.5951C22.9593 43.6316 23.7623 46.613 25.2827 49.2415C26.8036 51.8697 28.9877 54.0523 31.6174 55.5707C31.9742 55.7769 32.431 55.6544 32.6372 55.2977C32.8437 54.9406 32.7212 54.4837 32.3641 54.2775ZM66.6011 50.1935C66.5636 50.2952 66.5045 50.3879 66.4275 50.4642L64.5577 55.1016C64.4068 55.4748 63.9882 55.6613 63.6104 55.5241L58.4699 53.6527C57.4193 55.1242 56.1934 56.4627 54.8201 57.6386L57.1318 62.5945C57.2155 62.774 57.2245 62.9794 57.1564 63.1652C57.0887 63.351 56.9499 63.5023 56.7703 63.586L47.1958 68.0506C47.0166 68.1343 46.8113 68.1437 46.6251 68.0761C46.4393 68.0084 46.2875 67.8695 46.2038 67.69L43.8925 62.7329C42.1089 63.0302 40.2959 63.1088 38.493 62.9672L36.6225 68.1081C36.5552 68.2943 36.4164 68.4469 36.2368 68.531C36.0573 68.6151 35.8519 68.6245 35.6658 68.5568L25.7403 64.9433C25.3546 64.8025 25.1555 64.3765 25.2944 63.9901L27.1649 58.8492C25.693 57.799 24.3553 56.5731 23.1798 55.1994L18.2232 57.5107C17.8492 57.6847 17.4057 57.5228 17.2316 57.1496L12.7651 47.5696C12.591 47.196 12.753 46.7524 13.1261 46.5784L18.0828 44.2671C17.7863 42.4835 17.7073 40.67 17.8485 38.8672L12.708 36.9959C12.5218 36.9282 12.3704 36.7894 12.2867 36.6102C12.203 36.4307 12.194 36.2253 12.2621 36.0391L13.9299 31.4545C13.8975 31.3148 13.9065 31.1685 13.9554 31.0336C16.4963 24.0523 21.706 18.3666 28.4388 15.2263C35.1717 12.0866 42.8763 11.7498 49.8577 14.2907C56.8389 16.8312 62.5247 22.0409 65.6649 28.7742C68.8046 35.507 69.1417 43.2121 66.6011 50.1935ZM15.6236 30.8475L18.8201 32.0111C20.5369 27.7218 23.4991 24.0453 27.3249 21.4559C31.1511 18.8662 35.665 17.4822 40.2853 17.4822C45.1751 17.4849 49.9385 19.0378 53.8906 21.9175C57.8428 24.7971 60.7804 28.8553 62.2816 33.5091C63.7828 38.163 63.7699 43.1729 62.2452 47.8193L65.4417 48.983C67.6248 42.4304 67.1652 35.2845 64.1607 29.0652C61.1559 22.8463 55.8436 18.0453 49.3538 15.6832C42.8639 13.3206 35.7084 13.5834 29.409 16.4154C23.1099 19.2477 18.164 24.4254 15.6236 30.8475ZM30.9261 37.0331H30.9226C30.9152 37.08 30.9031 37.1262 30.887 37.1712C29.6682 40.5058 30.321 44.2373 32.5995 46.9601C34.878 49.6829 38.4359 50.9831 41.9332 50.3713C45.4305 49.7596 48.3356 47.3285 49.5543 43.9936C49.57 43.9526 49.5888 43.9127 49.6103 43.8743C49.7925 43.5645 50.1696 43.4284 50.5076 43.5509L60.8375 47.3079C61.4664 45.3787 61.82 43.3706 61.887 41.3425H59.4082C58.9963 41.3425 58.6619 41.0085 58.6619 40.5962C58.6619 40.1839 58.9963 39.8499 59.4082 39.8499H61.887C61.6918 34.3796 59.4314 29.1865 55.5609 25.3163C51.6905 21.4459 46.4971 19.1854 41.0273 18.9902V21.4681C41.0328 21.6696 40.9565 21.8648 40.8161 22.0091C40.6757 22.1534 40.4828 22.2352 40.2814 22.2352C40.0796 22.2352 39.8867 22.1534 39.7463 22.0091C39.6059 21.8648 39.5296 21.6696 39.5351 21.4681V18.9894C35.3544 19.1427 31.3072 20.502 27.8804 22.9025C24.4543 25.303 21.7952 28.643 20.2236 32.5201L30.4403 36.2403H30.4431C30.5768 36.2888 30.6938 36.3752 30.7795 36.4891L30.7822 36.4926H30.7951V36.4981L30.8064 36.52V36.5274H30.889V36.7257C30.923 36.8247 30.9355 36.9291 30.9261 37.0331ZM64.8608 50.357L50.6787 45.1927C49.1032 48.7604 45.8163 51.2782 41.9611 51.8704C38.1059 52.4623 34.2148 51.0471 31.6412 48.1162C29.0674 45.1857 28.1662 41.1443 29.2517 37.3978L15.2148 32.2874L13.919 35.8481L18.8984 37.6603C19.2203 37.7777 19.4209 38.0988 19.385 38.4395C19.1714 40.481 19.261 42.5427 19.6509 44.5579C19.7159 44.8939 19.5442 45.2311 19.2336 45.3758L14.4326 47.6143L18.2667 55.8359L23.0676 53.5974C23.3786 53.4511 23.749 53.5368 23.9649 53.8039C25.2569 55.3975 26.7773 56.7911 28.4765 57.9404C28.7605 58.1317 28.8774 58.4919 28.7605 58.8138L26.9482 63.7932L35.4718 66.8958L37.284 61.9164C37.401 61.5945 37.7221 61.3938 38.0628 61.429C40.1043 61.643 42.166 61.5534 44.1812 61.1638C44.5172 61.0989 44.8548 61.2706 44.9991 61.5812L47.2377 66.3821L55.4592 62.5481L53.2207 57.7471C53.0748 57.4366 53.1601 57.0661 53.4268 56.8502C55.0208 55.5571 56.4145 54.0351 57.5629 52.3337C57.7554 52.0513 58.1156 51.9355 58.4367 52.0536L63.44 53.8744L64.8608 50.357ZM37.1976 40.5943C37.1984 39.9055 37.4291 39.237 37.8535 38.694C38.2775 38.1515 38.8705 37.7662 39.5386 37.5988V27.1207C39.5331 26.9196 39.6094 26.7244 39.7498 26.5801C39.8902 26.4354 40.0831 26.354 40.2845 26.354C40.4864 26.354 40.6792 26.4354 40.8196 26.5801C40.96 26.7244 41.0363 26.9196 41.0309 27.1207V37.5988C41.5742 37.7349 42.0706 38.0161 42.4668 38.4123C42.8626 38.8082 43.1443 39.3046 43.2804 39.8479H50.8597C51.2719 39.8479 51.606 40.1819 51.606 40.5942C51.606 41.0065 51.2719 41.3405 50.8597 41.3405H43.2804C43.0363 42.325 42.324 43.1265 41.3751 43.4852C40.4262 43.8435 39.3619 43.7128 38.5279 43.1355C37.694 42.5586 37.1964 41.6085 37.1976 40.5943ZM38.6898 40.5943C38.6898 41.0171 38.8576 41.4227 39.1568 41.722C39.4557 42.0212 39.8613 42.189 40.2845 42.189C40.7074 42.189 41.113 42.0212 41.4123 41.722C41.7111 41.4228 41.8793 41.0171 41.8793 40.5943C41.8793 40.1714 41.7111 39.7658 41.4123 39.4666C41.113 39.1673 40.7074 38.9995 40.2845 38.9995C39.8617 38.9999 39.4561 39.1681 39.1572 39.467C38.8584 39.7662 38.6902 40.1714 38.6898 40.5943Z"></path></mask><path d="M32.3641 54.2775C27.4735 51.4553 24.4561 46.2417 24.4464 40.5951C24.4519 40.3936 24.3756 40.1985 24.2352 40.0541C24.0948 39.9098 23.9016 39.8284 23.7001 39.8284C23.4987 39.8284 23.3058 39.9098 23.1654 40.0541C23.0246 40.1985 22.9487 40.3936 22.9542 40.5951C22.9593 43.6316 23.7623 46.613 25.2827 49.2415C26.8036 51.8697 28.9877 54.0523 31.6174 55.5707C31.9742 55.7769 32.431 55.6544 32.6372 55.2977C32.8437 54.9406 32.7212 54.4837 32.3641 54.2775ZM66.6011 50.1935C66.5636 50.2952 66.5045 50.3879 66.4275 50.4642L64.5577 55.1016C64.4068 55.4748 63.9882 55.6613 63.6104 55.5241L58.4699 53.6527C57.4193 55.1242 56.1934 56.4627 54.8201 57.6386L57.1318 62.5945C57.2155 62.774 57.2245 62.9794 57.1564 63.1652C57.0887 63.351 56.9499 63.5023 56.7703 63.586L47.1958 68.0506C47.0166 68.1343 46.8113 68.1437 46.6251 68.0761C46.4393 68.0084 46.2875 67.8695 46.2038 67.69L43.8925 62.7329C42.1089 63.0302 40.2959 63.1088 38.493 62.9672L36.6225 68.1081C36.5552 68.2943 36.4164 68.4469 36.2368 68.531C36.0573 68.6151 35.8519 68.6245 35.6658 68.5568L25.7403 64.9433C25.3546 64.8025 25.1555 64.3765 25.2944 63.9901L27.1649 58.8492C25.693 57.799 24.3553 56.5731 23.1798 55.1994L18.2232 57.5107C17.8492 57.6847 17.4057 57.5228 17.2316 57.1496L12.7651 47.5696C12.591 47.196 12.753 46.7524 13.1261 46.5784L18.0828 44.2671C17.7863 42.4835 17.7073 40.67 17.8485 38.8672L12.708 36.9959C12.5218 36.9282 12.3704 36.7894 12.2867 36.6102C12.203 36.4307 12.194 36.2253 12.2621 36.0391L13.9299 31.4545C13.8975 31.3148 13.9065 31.1685 13.9554 31.0336C16.4963 24.0523 21.706 18.3666 28.4388 15.2263C35.1717 12.0866 42.8763 11.7498 49.8577 14.2907C56.8389 16.8312 62.5247 22.0409 65.6649 28.7742C68.8046 35.507 69.1417 43.2121 66.6011 50.1935ZM15.6236 30.8475L18.8201 32.0111C20.5369 27.7218 23.4991 24.0453 27.3249 21.4559C31.1511 18.8662 35.665 17.4822 40.2853 17.4822C45.1751 17.4849 49.9385 19.0378 53.8906 21.9175C57.8428 24.7971 60.7804 28.8553 62.2816 33.5091C63.7828 38.163 63.7699 43.1729 62.2452 47.8193L65.4417 48.983C67.6248 42.4304 67.1652 35.2845 64.1607 29.0652C61.1559 22.8463 55.8436 18.0453 49.3538 15.6832C42.8639 13.3206 35.7084 13.5834 29.409 16.4154C23.1099 19.2477 18.164 24.4254 15.6236 30.8475ZM30.9261 37.0331H30.9226C30.9152 37.08 30.9031 37.1262 30.887 37.1712C29.6682 40.5058 30.321 44.2373 32.5995 46.9601C34.878 49.6829 38.4359 50.9831 41.9332 50.3713C45.4305 49.7596 48.3356 47.3285 49.5543 43.9936C49.57 43.9526 49.5888 43.9127 49.6103 43.8743C49.7925 43.5645 50.1696 43.4284 50.5076 43.5509L60.8375 47.3079C61.4664 45.3787 61.82 43.3706 61.887 41.3425H59.4082C58.9963 41.3425 58.6619 41.0085 58.6619 40.5962C58.6619 40.1839 58.9963 39.8499 59.4082 39.8499H61.887C61.6918 34.3796 59.4314 29.1865 55.5609 25.3163C51.6905 21.4459 46.4971 19.1854 41.0273 18.9902V21.4681C41.0328 21.6696 40.9565 21.8648 40.8161 22.0091C40.6757 22.1534 40.4828 22.2352 40.2814 22.2352C40.0796 22.2352 39.8867 22.1534 39.7463 22.0091C39.6059 21.8648 39.5296 21.6696 39.5351 21.4681V18.9894C35.3544 19.1427 31.3072 20.502 27.8804 22.9025C24.4543 25.303 21.7952 28.643 20.2236 32.5201L30.4403 36.2403H30.4431C30.5768 36.2888 30.6938 36.3752 30.7795 36.4891L30.7822 36.4926H30.7951V36.4981L30.8064 36.52V36.5274H30.889V36.7257C30.923 36.8247 30.9355 36.9291 30.9261 37.0331ZM64.8608 50.357L50.6787 45.1927C49.1032 48.7604 45.8163 51.2782 41.9611 51.8704C38.1059 52.4623 34.2148 51.0471 31.6412 48.1162C29.0674 45.1857 28.1662 41.1443 29.2517 37.3978L15.2148 32.2874L13.919 35.8481L18.8984 37.6603C19.2203 37.7777 19.4209 38.0988 19.385 38.4395C19.1714 40.481 19.261 42.5427 19.6509 44.5579C19.7159 44.8939 19.5442 45.2311 19.2336 45.3758L14.4326 47.6143L18.2667 55.8359L23.0676 53.5974C23.3786 53.4511 23.749 53.5368 23.9649 53.8039C25.2569 55.3975 26.7773 56.7911 28.4765 57.9404C28.7605 58.1317 28.8774 58.4919 28.7605 58.8138L26.9482 63.7932L35.4718 66.8958L37.284 61.9164C37.401 61.5945 37.7221 61.3938 38.0628 61.429C40.1043 61.643 42.166 61.5534 44.1812 61.1638C44.5172 61.0989 44.8548 61.2706 44.9991 61.5812L47.2377 66.3821L55.4592 62.5481L53.2207 57.7471C53.0748 57.4366 53.1601 57.0661 53.4268 56.8502C55.0208 55.5571 56.4145 54.0351 57.5629 52.3337C57.7554 52.0513 58.1156 51.9355 58.4367 52.0536L63.44 53.8744L64.8608 50.357ZM37.1976 40.5943C37.1984 39.9055 37.4291 39.237 37.8535 38.694C38.2775 38.1515 38.8705 37.7662 39.5386 37.5988V27.1207C39.5331 26.9196 39.6094 26.7244 39.7498 26.5801C39.8902 26.4354 40.0831 26.354 40.2845 26.354C40.4864 26.354 40.6792 26.4354 40.8196 26.5801C40.96 26.7244 41.0363 26.9196 41.0309 27.1207V37.5988C41.5742 37.7349 42.0706 38.0161 42.4668 38.4123C42.8626 38.8082 43.1443 39.3046 43.2804 39.8479H50.8597C51.2719 39.8479 51.606 40.1819 51.606 40.5942C51.606 41.0065 51.2719 41.3405 50.8597 41.3405H43.2804C43.0363 42.325 42.324 43.1265 41.3751 43.4852C40.4262 43.8435 39.3619 43.7128 38.5279 43.1355C37.694 42.5586 37.1964 41.6085 37.1976 40.5943ZM38.6898 40.5943C38.6898 41.0171 38.8576 41.4227 39.1568 41.722C39.4557 42.0212 39.8613 42.189 40.2845 42.189C40.7074 42.189 41.113 42.0212 41.4123 41.722C41.7111 41.4228 41.8793 41.0171 41.8793 40.5943C41.8793 40.1714 41.7111 39.7658 41.4123 39.4666C41.113 39.1673 40.7074 38.9995 40.2845 38.9995C39.8617 38.9999 39.4561 39.1681 39.1572 39.467C38.8584 39.7662 38.6902 40.1714 38.6898 40.5943Z" fill="#1742E7"></path><path d="M32.3641 54.2775C27.4735 51.4553 24.4561 46.2417 24.4464 40.5951C24.4519 40.3936 24.3756 40.1985 24.2352 40.0541C24.0948 39.9098 23.9016 39.8284 23.7001 39.8284C23.4987 39.8284 23.3058 39.9098 23.1654 40.0541C23.0246 40.1985 22.9487 40.3936 22.9542 40.5951C22.9593 43.6316 23.7623 46.613 25.2827 49.2415C26.8036 51.8697 28.9877 54.0523 31.6174 55.5707C31.9742 55.7769 32.431 55.6544 32.6372 55.2977C32.8437 54.9406 32.7212 54.4837 32.3641 54.2775ZM66.6011 50.1935C66.5636 50.2952 66.5045 50.3879 66.4275 50.4642L64.5577 55.1016C64.4068 55.4748 63.9882 55.6613 63.6104 55.5241L58.4699 53.6527C57.4193 55.1242 56.1934 56.4627 54.8201 57.6386L57.1318 62.5945C57.2155 62.774 57.2245 62.9794 57.1564 63.1652C57.0887 63.351 56.9499 63.5023 56.7703 63.586L47.1958 68.0506C47.0166 68.1343 46.8113 68.1437 46.6251 68.0761C46.4393 68.0084 46.2875 67.8695 46.2038 67.69L43.8925 62.7329C42.1089 63.0302 40.2959 63.1088 38.493 62.9672L36.6225 68.1081C36.5552 68.2943 36.4164 68.4469 36.2368 68.531C36.0573 68.6151 35.8519 68.6245 35.6658 68.5568L25.7403 64.9433C25.3546 64.8025 25.1555 64.3765 25.2944 63.9901L27.1649 58.8492C25.693 57.799 24.3553 56.5731 23.1798 55.1994L18.2232 57.5107C17.8492 57.6847 17.4057 57.5228 17.2316 57.1496L12.7651 47.5696C12.591 47.196 12.753 46.7524 13.1261 46.5784L18.0828 44.2671C17.7863 42.4835 17.7073 40.67 17.8485 38.8672L12.708 36.9959C12.5218 36.9282 12.3704 36.7894 12.2867 36.6102C12.203 36.4307 12.194 36.2253 12.2621 36.0391L13.9299 31.4545C13.8975 31.3148 13.9065 31.1685 13.9554 31.0336C16.4963 24.0523 21.706 18.3666 28.4388 15.2263C35.1717 12.0866 42.8763 11.7498 49.8577 14.2907C56.8389 16.8312 62.5247 22.0409 65.6649 28.7742C68.8046 35.507 69.1417 43.2121 66.6011 50.1935ZM15.6236 30.8475L18.8201 32.0111C20.5369 27.7218 23.4991 24.0453 27.3249 21.4559C31.1511 18.8662 35.665 17.4822 40.2853 17.4822C45.1751 17.4849 49.9385 19.0378 53.8906 21.9175C57.8428 24.7971 60.7804 28.8553 62.2816 33.5091C63.7828 38.163 63.7699 43.1729 62.2452 47.8193L65.4417 48.983C67.6248 42.4304 67.1652 35.2845 64.1607 29.0652C61.1559 22.8463 55.8436 18.0453 49.3538 15.6832C42.8639 13.3206 35.7084 13.5834 29.409 16.4154C23.1099 19.2477 18.164 24.4254 15.6236 30.8475ZM30.9261 37.0331H30.9226C30.9152 37.08 30.9031 37.1262 30.887 37.1712C29.6682 40.5058 30.321 44.2373 32.5995 46.9601C34.878 49.6829 38.4359 50.9831 41.9332 50.3713C45.4305 49.7596 48.3356 47.3285 49.5543 43.9936C49.57 43.9526 49.5888 43.9127 49.6103 43.8743C49.7925 43.5645 50.1696 43.4284 50.5076 43.5509L60.8375 47.3079C61.4664 45.3787 61.82 43.3706 61.887 41.3425H59.4082C58.9963 41.3425 58.6619 41.0085 58.6619 40.5962C58.6619 40.1839 58.9963 39.8499 59.4082 39.8499H61.887C61.6918 34.3796 59.4314 29.1865 55.5609 25.3163C51.6905 21.4459 46.4971 19.1854 41.0273 18.9902V21.4681C41.0328 21.6696 40.9565 21.8648 40.8161 22.0091C40.6757 22.1534 40.4828 22.2352 40.2814 22.2352C40.0796 22.2352 39.8867 22.1534 39.7463 22.0091C39.6059 21.8648 39.5296 21.6696 39.5351 21.4681V18.9894C35.3544 19.1427 31.3072 20.502 27.8804 22.9025C24.4543 25.303 21.7952 28.643 20.2236 32.5201L30.4403 36.2403H30.4431C30.5768 36.2888 30.6938 36.3752 30.7795 36.4891L30.7822 36.4926H30.7951V36.4981L30.8064 36.52V36.5274H30.889V36.7257C30.923 36.8247 30.9355 36.9291 30.9261 37.0331ZM64.8608 50.357L50.6787 45.1927C49.1032 48.7604 45.8163 51.2782 41.9611 51.8704C38.1059 52.4623 34.2148 51.0471 31.6412 48.1162C29.0674 45.1857 28.1662 41.1443 29.2517 37.3978L15.2148 32.2874L13.919 35.8481L18.8984 37.6603C19.2203 37.7777 19.4209 38.0988 19.385 38.4395C19.1714 40.481 19.261 42.5427 19.6509 44.5579C19.7159 44.8939 19.5442 45.2311 19.2336 45.3758L14.4326 47.6143L18.2667 55.8359L23.0676 53.5974C23.3786 53.4511 23.749 53.5368 23.9649 53.8039C25.2569 55.3975 26.7773 56.7911 28.4765 57.9404C28.7605 58.1317 28.8774 58.4919 28.7605 58.8138L26.9482 63.7932L35.4718 66.8958L37.284 61.9164C37.401 61.5945 37.7221 61.3938 38.0628 61.429C40.1043 61.643 42.166 61.5534 44.1812 61.1638C44.5172 61.0989 44.8548 61.2706 44.9991 61.5812L47.2377 66.3821L55.4592 62.5481L53.2207 57.7471C53.0748 57.4366 53.1601 57.0661 53.4268 56.8502C55.0208 55.5571 56.4145 54.0351 57.5629 52.3337C57.7554 52.0513 58.1156 51.9355 58.4367 52.0536L63.44 53.8744L64.8608 50.357ZM37.1976 40.5943C37.1984 39.9055 37.4291 39.237 37.8535 38.694C38.2775 38.1515 38.8705 37.7662 39.5386 37.5988V27.1207C39.5331 26.9196 39.6094 26.7244 39.7498 26.5801C39.8902 26.4354 40.0831 26.354 40.2845 26.354C40.4864 26.354 40.6792 26.4354 40.8196 26.5801C40.96 26.7244 41.0363 26.9196 41.0309 27.1207V37.5988C41.5742 37.7349 42.0706 38.0161 42.4668 38.4123C42.8626 38.8082 43.1443 39.3046 43.2804 39.8479H50.8597C51.2719 39.8479 51.606 40.1819 51.606 40.5942C51.606 41.0065 51.2719 41.3405 50.8597 41.3405H43.2804C43.0363 42.325 42.324 43.1265 41.3751 43.4852C40.4262 43.8435 39.3619 43.7128 38.5279 43.1355C37.694 42.5586 37.1964 41.6085 37.1976 40.5943ZM38.6898 40.5943C38.6898 41.0171 38.8576 41.4227 39.1568 41.722C39.4557 42.0212 39.8613 42.189 40.2845 42.189C40.7074 42.189 41.113 42.0212 41.4123 41.722C41.7111 41.4228 41.8793 41.0171 41.8793 40.5943C41.8793 40.1714 41.7111 39.7658 41.4123 39.4666C41.113 39.1673 40.7074 38.9995 40.2845 38.9995C39.8617 38.9999 39.4561 39.1681 39.1572 39.467C38.8584 39.7662 38.6902 40.1714 38.6898 40.5943Z" stroke="#1742E7" stroke-width="0.730435" mask="url(#path-1-outside-1_9975_55627)"></path></svg>