<svg xmlns="http://www.w3.org/2000/svg" width="81" height="81" viewBox="0 0 81 81" fill="none"><mask id="path-1-inside-1_9975_55644" fill="white"><path fill-rule="evenodd" clip-rule="evenodd" d="M15.9697 12.8021C14.4395 13.2938 13.266 14.5487 12.8371 16.152C12.7183 16.5963 12.6906 19.6031 12.6895 32.1811C12.6883 45.8235 12.7083 47.7407 12.858 48.3152C13.198 49.621 14.0403 50.6671 15.2316 51.2631C15.6537 51.4742 16.0569 51.6471 16.1274 51.6471C16.198 51.6471 16.3469 51.2902 16.4582 50.854C16.5696 50.4178 16.6777 50.0118 16.6986 49.9516C16.7194 49.8914 16.5147 49.7511 16.2434 49.6399C15.6291 49.3877 14.9467 48.6297 14.7773 48.0111C14.682 47.6636 14.6575 43.579 14.6807 31.9493L14.7118 16.3536L15.0439 15.8152C15.4172 15.2101 16.2521 14.6382 16.9248 14.5271C17.6973 14.3994 54.7438 14.4466 55.3473 14.576C56.5659 14.8374 57.3734 15.8763 57.4973 17.3428L57.5676 18.1756H58.4814H59.3951V17.3667C59.3951 15.2417 58.089 13.4169 56.1362 12.8138C55.4472 12.601 55.0759 12.5971 36.0028 12.6029C17.7333 12.6084 16.5353 12.6203 15.9697 12.8021ZM16.4072 17.2458V18.1756H17.3917H18.3762V17.2458V16.316H17.3917H16.4072V17.2458ZM20.1263 17.2458V18.1756H21.1108H22.0952V17.2458V16.316H21.1108H20.1263V17.2458ZM23.8454 17.2458V18.1756H24.8298H25.8143V17.2458V16.316H24.8298H23.8454V17.2458ZM21.7697 20.2097C20.6389 20.515 19.6905 21.2207 19.0206 22.2554C18.2293 23.4777 18.2668 22.6125 18.2668 39.6584C18.2668 50.4575 18.3024 55.0872 18.3887 55.4975C18.7627 57.2759 20.0951 58.6895 21.8174 59.1353C22.3682 59.2778 23.4493 59.3039 28.7906 59.3039H35.1119V58.3195V57.335L28.7403 57.3326C22.5669 57.3303 22.3534 57.3233 21.8764 57.1074C21.2154 56.8082 20.8071 56.4062 20.4963 55.749L20.2379 55.202V39.6695V24.137L20.4954 23.5839C20.7965 22.9372 21.4796 22.3107 22.0797 22.131C22.3943 22.0367 27.4597 22.004 41.7482 22.004H60.9929L61.5615 22.2873C61.8742 22.4432 62.2794 22.7508 62.4618 22.971C63.1514 23.8032 63.12 22.9552 63.0884 39.8941L63.0595 55.3114L62.7463 55.9064L62.4332 56.5014L63.0745 57.0777C63.4272 57.3947 63.765 57.6407 63.8252 57.6246C64.0282 57.5699 64.6023 56.6117 64.7902 56.0141C64.963 55.4644 64.9746 54.2447 64.9479 39.4507L64.919 23.4807L64.5594 22.7454C64.0619 21.7282 63.3165 20.996 62.2698 20.4963L61.4187 20.0898L41.8937 20.0689C24.9626 20.0507 22.2891 20.0694 21.7697 20.2097ZM22.0089 24.7113L22.0405 25.6684L22.9976 25.7L23.9547 25.7316V24.7429V23.7541H22.966H21.9773L22.0089 24.7113ZM25.751 23.9012C25.72 23.982 25.7093 24.4126 25.7271 24.8583L25.7596 25.6684L26.7167 25.7L27.6738 25.7316V24.7429V23.7541H26.7406C26.0603 23.7541 25.7922 23.794 25.751 23.9012ZM29.5333 24.7386V25.7231H30.4631H31.3928V24.7386V23.7541H30.4631H29.5333V24.7386ZM50.0611 27.5462C50.0209 27.5862 49.9881 29.5485 49.9881 31.9068V36.1945L49.5232 36.1046C49.2676 36.0551 48.8745 36.0126 48.6498 36.01L48.2411 36.0051L48.2123 32.6963L48.1833 29.3874H47.2535H46.3237L46.2948 32.6963L46.2659 36.0051L45.8572 36.01C45.6325 36.0126 45.2407 36.0549 44.9867 36.104L44.5247 36.1935L44.4945 34.65L44.4642 33.1065H43.5345H42.6047L42.55 34.9408L42.4953 36.7752L41.6494 37.1876L40.8036 37.6L40.7744 34.9157L40.7452 32.2314L39.7881 32.1998L38.8309 32.1682V35.5523V38.9363L37.9012 39.8851L36.9714 40.8339V37.4351V34.0362H36.0417H35.1119V39.0488V44.0613L34.8383 44.8657C34.3512 46.2977 34.1896 47.399 34.2002 49.2133L34.2099 50.8814H28.0979H21.9858V51.8103V52.7391L28.3416 52.7674L34.6973 52.7956L34.9441 53.4519C36.6125 57.8875 40.321 61.0178 44.9335 61.8839C46.1692 62.1159 48.3415 62.1143 49.5892 61.8806C51.1733 61.5837 53.1536 60.8001 54.2986 60.017L54.726 59.7247L59.1694 64.1631C63.5146 68.5038 63.6222 68.6016 64.0432 68.6016C64.4526 68.6016 64.5556 68.5195 66.1456 66.9295C67.6534 65.4219 67.8177 65.2206 67.8177 64.8816C67.8177 64.5324 67.4947 64.1823 63.2583 59.9416L58.699 55.3775L59.0987 54.5241C59.3186 54.0547 59.5661 53.4738 59.6488 53.2331L59.7992 52.7956L60.5269 52.7632L61.2547 52.7309V51.8061V50.8814H60.7759H60.2971L60.3068 49.2133C60.3174 47.399 60.1558 46.2977 59.6687 44.8657L59.3951 44.0613V39.541V35.0207H58.4654H57.5356V37.9305V40.8405L56.6058 39.8788L55.6761 38.9171V35.0504V31.1837L54.719 31.2153L53.7619 31.2469L53.7329 34.4231L53.7039 37.5993L52.8304 37.1817L51.957 36.7641V32.1186V27.4732H51.0455C50.5441 27.4732 50.1011 27.506 50.0611 27.5462ZM27.6738 43.3886V49.0218H28.6036H29.5333V43.3886V37.7553H28.6036H27.6738V43.3886ZM49.4959 38.0718C54.7068 39.153 58.4107 43.7024 58.4107 49.0218C58.4107 54.0632 54.9618 58.5106 50.0428 59.8123C48.5377 60.2106 46.1642 60.2379 44.7041 59.8736C41.6128 59.1023 39.1027 57.2238 37.5703 54.5349C33.826 47.9644 37.5573 39.6505 44.9564 38.0778C46.2283 37.8074 48.2089 37.8047 49.4959 38.0718ZM45.8315 39.735C42.4654 40.2474 39.4804 42.7709 38.4039 46.0138C37.2217 49.5755 38.1499 53.2401 40.8888 55.8239C42.6503 57.4855 44.7771 58.3195 47.2535 58.3195C50.4243 58.3195 53.27 56.8112 55.013 54.2064C56.0971 52.5863 56.5846 50.9337 56.5746 48.9125C56.5498 43.9378 52.6293 39.8852 47.6364 39.6732C47.0347 39.6477 46.2226 39.6755 45.8315 39.735ZM31.3928 44.8106V49.0218H32.3226H33.2524V44.8106V40.5993H32.3226H31.3928V44.8106ZM46.2691 45.3575V49.0218H47.2535H48.238V45.3575V41.6931H48.4769C48.6083 41.6931 49.0021 41.7734 49.3519 41.8716L49.9881 42.0501V45.536V49.0218H50.9726H51.957V46.1779C51.957 44.5194 51.999 43.3339 52.0577 43.3339C52.312 43.3339 53.4252 44.7761 53.8728 45.6856C54.6154 47.1944 54.8597 48.8047 54.5671 50.2615L54.4427 50.8814H47.2535H40.0644L39.9399 50.2615C39.5847 48.4932 40.0499 46.3789 41.1447 44.7854C41.5723 44.1632 42.3206 43.3339 42.4545 43.3339C42.507 43.3339 42.55 44.6137 42.55 46.1779V49.0218H43.5345H44.5189V45.5356V42.0493L45.0932 41.8801C45.409 41.787 45.8029 41.7068 45.9682 41.702L46.2691 41.6931V45.3575ZM23.9183 43.4068C23.8782 43.4469 23.8454 44.7267 23.8454 46.2508V49.0218H24.8298H25.8143V46.1779V43.3339H24.9028C24.4013 43.3339 23.9583 43.3667 23.9183 43.4068ZM53.5978 52.8355C53.5978 53.103 52.2419 54.5683 51.5452 55.0538C50.2109 55.9836 48.9062 56.3897 47.2535 56.3897C45.6008 56.3897 44.2961 55.9836 42.9618 55.0538C42.2652 54.5683 40.9092 53.103 40.9092 52.8355C40.9092 52.7833 43.7562 52.7409 47.2535 52.7409C50.7508 52.7409 53.5978 52.7833 53.5978 52.8355ZM64.7552 65.5933L64.0477 66.3071L60.1433 62.4039L56.239 58.5007L56.9146 57.7607L57.5903 57.0206L61.5265 60.9501L65.4625 64.8796L64.7552 65.5933Z"></path></mask><path fill-rule="evenodd" clip-rule="evenodd" d="M15.9697 12.8021C14.4395 13.2938 13.266 14.5487 12.8371 16.152C12.7183 16.5963 12.6906 19.6031 12.6895 32.1811C12.6883 45.8235 12.7083 47.7407 12.858 48.3152C13.198 49.621 14.0403 50.6671 15.2316 51.2631C15.6537 51.4742 16.0569 51.6471 16.1274 51.6471C16.198 51.6471 16.3469 51.2902 16.4582 50.854C16.5696 50.4178 16.6777 50.0118 16.6986 49.9516C16.7194 49.8914 16.5147 49.7511 16.2434 49.6399C15.6291 49.3877 14.9467 48.6297 14.7773 48.0111C14.682 47.6636 14.6575 43.579 14.6807 31.9493L14.7118 16.3536L15.0439 15.8152C15.4172 15.2101 16.2521 14.6382 16.9248 14.5271C17.6973 14.3994 54.7438 14.4466 55.3473 14.576C56.5659 14.8374 57.3734 15.8763 57.4973 17.3428L57.5676 18.1756H58.4814H59.3951V17.3667C59.3951 15.2417 58.089 13.4169 56.1362 12.8138C55.4472 12.601 55.0759 12.5971 36.0028 12.6029C17.7333 12.6084 16.5353 12.6203 15.9697 12.8021ZM16.4072 17.2458V18.1756H17.3917H18.3762V17.2458V16.316H17.3917H16.4072V17.2458ZM20.1263 17.2458V18.1756H21.1108H22.0952V17.2458V16.316H21.1108H20.1263V17.2458ZM23.8454 17.2458V18.1756H24.8298H25.8143V17.2458V16.316H24.8298H23.8454V17.2458ZM21.7697 20.2097C20.6389 20.515 19.6905 21.2207 19.0206 22.2554C18.2293 23.4777 18.2668 22.6125 18.2668 39.6584C18.2668 50.4575 18.3024 55.0872 18.3887 55.4975C18.7627 57.2759 20.0951 58.6895 21.8174 59.1353C22.3682 59.2778 23.4493 59.3039 28.7906 59.3039H35.1119V58.3195V57.335L28.7403 57.3326C22.5669 57.3303 22.3534 57.3233 21.8764 57.1074C21.2154 56.8082 20.8071 56.4062 20.4963 55.749L20.2379 55.202V39.6695V24.137L20.4954 23.5839C20.7965 22.9372 21.4796 22.3107 22.0797 22.131C22.3943 22.0367 27.4597 22.004 41.7482 22.004H60.9929L61.5615 22.2873C61.8742 22.4432 62.2794 22.7508 62.4618 22.971C63.1514 23.8032 63.12 22.9552 63.0884 39.8941L63.0595 55.3114L62.7463 55.9064L62.4332 56.5014L63.0745 57.0777C63.4272 57.3947 63.765 57.6407 63.8252 57.6246C64.0282 57.5699 64.6023 56.6117 64.7902 56.0141C64.963 55.4644 64.9746 54.2447 64.9479 39.4507L64.919 23.4807L64.5594 22.7454C64.0619 21.7282 63.3165 20.996 62.2698 20.4963L61.4187 20.0898L41.8937 20.0689C24.9626 20.0507 22.2891 20.0694 21.7697 20.2097ZM22.0089 24.7113L22.0405 25.6684L22.9976 25.7L23.9547 25.7316V24.7429V23.7541H22.966H21.9773L22.0089 24.7113ZM25.751 23.9012C25.72 23.982 25.7093 24.4126 25.7271 24.8583L25.7596 25.6684L26.7167 25.7L27.6738 25.7316V24.7429V23.7541H26.7406C26.0603 23.7541 25.7922 23.794 25.751 23.9012ZM29.5333 24.7386V25.7231H30.4631H31.3928V24.7386V23.7541H30.4631H29.5333V24.7386ZM50.0611 27.5462C50.0209 27.5862 49.9881 29.5485 49.9881 31.9068V36.1945L49.5232 36.1046C49.2676 36.0551 48.8745 36.0126 48.6498 36.01L48.2411 36.0051L48.2123 32.6963L48.1833 29.3874H47.2535H46.3237L46.2948 32.6963L46.2659 36.0051L45.8572 36.01C45.6325 36.0126 45.2407 36.0549 44.9867 36.104L44.5247 36.1935L44.4945 34.65L44.4642 33.1065H43.5345H42.6047L42.55 34.9408L42.4953 36.7752L41.6494 37.1876L40.8036 37.6L40.7744 34.9157L40.7452 32.2314L39.7881 32.1998L38.8309 32.1682V35.5523V38.9363L37.9012 39.8851L36.9714 40.8339V37.4351V34.0362H36.0417H35.1119V39.0488V44.0613L34.8383 44.8657C34.3512 46.2977 34.1896 47.399 34.2002 49.2133L34.2099 50.8814H28.0979H21.9858V51.8103V52.7391L28.3416 52.7674L34.6973 52.7956L34.9441 53.4519C36.6125 57.8875 40.321 61.0178 44.9335 61.8839C46.1692 62.1159 48.3415 62.1143 49.5892 61.8806C51.1733 61.5837 53.1536 60.8001 54.2986 60.017L54.726 59.7247L59.1694 64.1631C63.5146 68.5038 63.6222 68.6016 64.0432 68.6016C64.4526 68.6016 64.5556 68.5195 66.1456 66.9295C67.6534 65.4219 67.8177 65.2206 67.8177 64.8816C67.8177 64.5324 67.4947 64.1823 63.2583 59.9416L58.699 55.3775L59.0987 54.5241C59.3186 54.0547 59.5661 53.4738 59.6488 53.2331L59.7992 52.7956L60.5269 52.7632L61.2547 52.7309V51.8061V50.8814H60.7759H60.2971L60.3068 49.2133C60.3174 47.399 60.1558 46.2977 59.6687 44.8657L59.3951 44.0613V39.541V35.0207H58.4654H57.5356V37.9305V40.8405L56.6058 39.8788L55.6761 38.9171V35.0504V31.1837L54.719 31.2153L53.7619 31.2469L53.7329 34.4231L53.7039 37.5993L52.8304 37.1817L51.957 36.7641V32.1186V27.4732H51.0455C50.5441 27.4732 50.1011 27.506 50.0611 27.5462ZM27.6738 43.3886V49.0218H28.6036H29.5333V43.3886V37.7553H28.6036H27.6738V43.3886ZM49.4959 38.0718C54.7068 39.153 58.4107 43.7024 58.4107 49.0218C58.4107 54.0632 54.9618 58.5106 50.0428 59.8123C48.5377 60.2106 46.1642 60.2379 44.7041 59.8736C41.6128 59.1023 39.1027 57.2238 37.5703 54.5349C33.826 47.9644 37.5573 39.6505 44.9564 38.0778C46.2283 37.8074 48.2089 37.8047 49.4959 38.0718ZM45.8315 39.735C42.4654 40.2474 39.4804 42.7709 38.4039 46.0138C37.2217 49.5755 38.1499 53.2401 40.8888 55.8239C42.6503 57.4855 44.7771 58.3195 47.2535 58.3195C50.4243 58.3195 53.27 56.8112 55.013 54.2064C56.0971 52.5863 56.5846 50.9337 56.5746 48.9125C56.5498 43.9378 52.6293 39.8852 47.6364 39.6732C47.0347 39.6477 46.2226 39.6755 45.8315 39.735ZM31.3928 44.8106V49.0218H32.3226H33.2524V44.8106V40.5993H32.3226H31.3928V44.8106ZM46.2691 45.3575V49.0218H47.2535H48.238V45.3575V41.6931H48.4769C48.6083 41.6931 49.0021 41.7734 49.3519 41.8716L49.9881 42.0501V45.536V49.0218H50.9726H51.957V46.1779C51.957 44.5194 51.999 43.3339 52.0577 43.3339C52.312 43.3339 53.4252 44.7761 53.8728 45.6856C54.6154 47.1944 54.8597 48.8047 54.5671 50.2615L54.4427 50.8814H47.2535H40.0644L39.9399 50.2615C39.5847 48.4932 40.0499 46.3789 41.1447 44.7854C41.5723 44.1632 42.3206 43.3339 42.4545 43.3339C42.507 43.3339 42.55 44.6137 42.55 46.1779V49.0218H43.5345H44.5189V45.5356V42.0493L45.0932 41.8801C45.409 41.787 45.8029 41.7068 45.9682 41.702L46.2691 41.6931V45.3575ZM23.9183 43.4068C23.8782 43.4469 23.8454 44.7267 23.8454 46.2508V49.0218H24.8298H25.8143V46.1779V43.3339H24.9028C24.4013 43.3339 23.9583 43.3667 23.9183 43.4068ZM53.5978 52.8355C53.5978 53.103 52.2419 54.5683 51.5452 55.0538C50.2109 55.9836 48.9062 56.3897 47.2535 56.3897C45.6008 56.3897 44.2961 55.9836 42.9618 55.0538C42.2652 54.5683 40.9092 53.103 40.9092 52.8355C40.9092 52.7833 43.7562 52.7409 47.2535 52.7409C50.7508 52.7409 53.5978 52.7833 53.5978 52.8355ZM64.7552 65.5933L64.0477 66.3071L60.1433 62.4039L56.239 58.5007L56.9146 57.7607L57.5903 57.0206L61.5265 60.9501L65.4625 64.8796L64.7552 65.5933Z" fill="#1742E7" stroke="#1742E7" stroke-width="0.56" mask="url(#path-1-inside-1_9975_55644)"></path></svg>