<svg xmlns="http://www.w3.org/2000/svg" width="81" height="80" viewBox="0 0 81 80" fill="none"><path d="M52.0507 31.8943C53.7445 27.5042 54.4323 22.7902 54.0635 18.0991C54.0477 17.9231 53.9843 17.7547 53.8803 17.6119C53.7762 17.469 53.6353 17.3572 53.4726 17.2882L41.183 12.0775C41.0626 12.0263 40.9332 12 40.8024 12C40.6717 12 40.5422 12.0263 40.4219 12.0775L28.0548 17.3055C27.8757 17.3812 27.7233 17.5086 27.617 17.6715C27.5108 17.8343 27.4555 18.0251 27.4583 18.2195C27.5358 23.6357 27.8119 29.8089 30.118 34.5132C32.0685 38.4916 35.3848 41.4371 40.5547 43.7847C40.6731 43.8384 40.8011 43.868 40.9311 43.8715C41.0611 43.8751 41.1905 43.8526 41.3117 43.8055C42.0694 43.5102 42.8016 43.1531 43.5009 42.7379C47.1818 40.5535 50.1369 36.8048 52.0507 31.8943ZM42.5024 41.0551C42.0125 41.3461 41.504 41.6045 40.9802 41.8287C36.4635 39.7122 33.563 37.1071 31.8699 33.6538C29.8309 29.4948 29.5091 23.889 29.4199 18.8471L40.8017 14.0369L52.1635 18.8554C52.6783 26.6462 49.5343 36.8864 42.5045 41.0551H42.5024ZM46.9694 22.7888C47.0604 22.8796 47.1327 22.9874 47.1819 23.1062C47.2312 23.2249 47.2566 23.3522 47.2566 23.4807C47.2566 23.6093 47.2312 23.7366 47.1819 23.8553C47.1327 23.9741 47.0604 24.0819 46.9694 24.1727C46.1453 24.9967 45.3088 25.8388 44.5062 26.6531C43.7036 27.4675 42.8629 28.3137 42.0354 29.144C41.5644 29.6141 40.9261 29.8781 40.2607 29.8781C39.5952 29.8781 38.9569 29.6141 38.4859 29.144C38.0867 28.7448 37.6965 28.3047 37.2834 27.8391C36.8703 27.3734 36.4531 26.9078 36.038 26.4871C35.8545 26.3036 35.7514 26.0547 35.7514 25.7952C35.7514 25.5357 35.8545 25.2868 36.038 25.1033C36.2215 24.9198 36.4704 24.8167 36.7299 24.8167C36.9894 24.8167 37.2383 24.9198 37.4218 25.1033C37.884 25.5655 38.3213 26.0616 38.7488 26.541C39.1425 26.9839 39.5099 27.4025 39.8718 27.7609C39.977 27.8633 40.118 27.9207 40.2648 27.9207C40.4116 27.9207 40.5526 27.8633 40.6578 27.7609C41.4819 26.9361 42.3184 26.0941 43.1217 25.2797C43.925 24.4653 44.7643 23.6191 45.5925 22.7888C45.6832 22.6981 45.7908 22.626 45.9093 22.5769C46.0279 22.5277 46.1549 22.5024 46.2832 22.5023C46.4115 22.5022 46.5386 22.5275 46.6571 22.5765C46.7757 22.6255 46.8834 22.6975 46.9742 22.7882L46.9694 22.7888ZM71.0926 45.181C71.0753 44.2448 71.0795 42.6818 71.0843 40.8732C71.1072 32.6084 71.0684 25.6353 70.3578 24.0177C70.0189 23.2178 69.4048 22.5656 68.6267 22.1792C67.8486 21.7927 66.9579 21.6975 66.1158 21.9108C64.2705 22.326 62.3283 24.1768 62.4134 27.2482L62.1366 38.4162C61.8218 37.9305 61.3847 37.5363 60.8693 37.2731C60.3538 37.0099 59.7782 36.887 59.2002 36.9169C56.0264 37.0227 52.4887 40.8842 51.1146 42.5393C49.1039 44.9609 46.7362 48.6709 46.6829 51.1466C46.6822 51.1599 46.6822 51.1733 46.6829 51.1867C46.6829 51.1867 46.7327 53.7682 46.8358 58.972H44.9116C44.6525 58.972 44.404 59.075 44.2208 59.2582C44.0376 59.4414 43.9347 59.6899 43.9347 59.949V67.0237C43.9349 67.2827 44.0379 67.531 44.2211 67.7141C44.4043 67.8972 44.6527 68 44.9116 68H62.9641C63.2231 68 63.4715 67.8972 63.6547 67.7141C63.8379 67.531 63.9409 67.2827 63.9411 67.0237V59.949C63.9411 59.8207 63.9158 59.6936 63.8667 59.5751C63.8176 59.4566 63.7457 59.3489 63.655 59.2582C63.5642 59.1674 63.4565 59.0955 63.338 59.0464C63.2195 58.9973 63.0924 58.972 62.9641 58.972H60.8351L60.813 58.5244C60.8524 58.4884 60.8953 58.4476 60.9424 58.4012L68.4544 50.9833C69.3176 50.2901 70.006 49.404 70.4642 48.3962C70.9224 47.3884 71.1377 46.2871 71.0926 45.181ZM61.9886 66.0467H45.8886V60.9267H61.9886V66.0467ZM67.155 49.5254C67.1377 49.54 67.1218 49.5552 67.1059 49.5704L59.5669 57.0112C59.4887 57.088 59.4285 57.1378 59.3752 57.1855C59.1722 57.3415 59.0162 57.5506 58.9244 57.7896C58.8325 58.0287 58.8085 58.2884 58.8549 58.5403L58.8764 58.972H48.7898C48.6915 54.0194 48.6417 51.4303 48.6362 51.1708C48.6825 49.5912 50.3168 46.5606 52.6181 43.7875C55.0529 40.8531 57.6621 38.9227 59.2652 38.8694C60.3757 38.8334 61.0607 39.9073 61.2994 42.0681C60.4664 43.4595 58.857 45.4017 55.8776 48.0628C55.7799 48.1476 55.7 48.2511 55.6426 48.3671C55.5851 48.4831 55.5513 48.6094 55.5431 48.7386C55.5349 48.8678 55.5525 48.9973 55.5948 49.1197C55.6371 49.242 55.7033 49.3547 55.7895 49.4513C55.8757 49.5478 55.9803 49.6263 56.0971 49.6821C56.2139 49.7379 56.3407 49.7699 56.47 49.7763C56.5992 49.7827 56.7285 49.7633 56.8503 49.7193C56.972 49.6753 57.0838 49.6075 57.1791 49.5199C62.1705 45.062 64.3639 41.8017 64.0698 39.2742L64.3673 27.2703C64.3673 27.2516 64.3673 27.2336 64.3673 27.215C64.3044 25.223 65.4176 24.0723 66.5482 23.8163C66.9476 23.7047 67.374 23.7435 67.7466 23.9253C68.1193 24.1072 68.4123 24.4195 68.57 24.803C69.1719 26.1743 69.1449 36.099 69.1318 40.8683C69.1263 42.6936 69.1221 44.2711 69.1401 45.2273V45.246C69.1741 46.066 69.0115 46.8823 68.666 47.6267C68.3204 48.3711 67.8019 49.0221 67.1536 49.5254H67.155ZM36.7209 58.972H34.7967C34.8998 53.7682 34.9496 51.1867 34.9496 51.1867C34.9503 51.1733 34.9503 51.1599 34.9496 51.1466C34.8963 48.6709 32.5279 44.963 30.5179 42.5393C29.1438 40.8842 25.6054 37.0227 22.4323 36.9169C21.8544 36.8872 21.2788 37.0101 20.7633 37.2733C20.2479 37.5365 19.8108 37.9306 19.4959 38.4162L19.2191 27.2482C19.3042 24.1775 17.3621 22.3287 15.5167 21.9108C14.6743 21.6967 13.783 21.7915 13.0043 22.1778C12.2256 22.5642 11.6111 23.2166 11.2719 24.017C10.5613 25.6347 10.5226 32.6084 10.5454 40.8739C10.5503 42.6818 10.5544 44.2441 10.5371 45.1803C10.4921 46.2864 10.7073 47.3877 11.1655 48.3955C11.6238 49.4033 12.3122 50.2894 13.1753 50.9826L20.6901 58.4047C20.7372 58.451 20.7801 58.4918 20.8195 58.5278L20.7974 58.9755H18.6684C18.5401 58.9755 18.413 59.0007 18.2945 59.0498C18.176 59.0989 18.0683 59.1709 17.9776 59.2616C17.8868 59.3523 17.8149 59.4601 17.7658 59.5786C17.7167 59.6971 17.6914 59.8242 17.6914 59.9524V67.0237C17.6916 67.2827 17.7946 67.531 17.9778 67.7141C18.161 67.8972 18.4094 68 18.6684 68H36.7209C36.9799 68 37.2283 67.8972 37.4115 67.7141C37.5947 67.531 37.6977 67.2827 37.6978 67.0237V59.949C37.6978 59.6899 37.5949 59.4414 37.4117 59.2582C37.2285 59.075 36.98 58.972 36.7209 58.972ZM22.2545 57.1855C22.1985 57.1378 22.141 57.088 22.0629 57.0112L14.528 49.5704C14.5121 49.5552 14.4962 49.54 14.4789 49.5254C13.8306 49.0221 13.3121 48.3711 12.9665 47.6267C12.621 46.8823 12.4584 46.066 12.4924 45.246V45.2273C12.5104 44.2711 12.5063 42.695 12.5007 40.8683C12.4876 36.0983 12.4606 26.173 13.0626 24.8023C13.2204 24.4188 13.5135 24.1065 13.8863 23.9248C14.2591 23.743 14.6856 23.7044 15.085 23.8163C16.2156 24.0723 17.3288 25.223 17.2659 27.215C17.2659 27.2336 17.2659 27.2516 17.2659 27.2703L17.5634 39.2742C17.2693 41.8017 19.4627 45.062 24.4541 49.5199C24.5494 49.6075 24.6612 49.6753 24.7829 49.7193C24.9047 49.7633 25.034 49.7827 25.1633 49.7763C25.2926 49.7699 25.4193 49.7379 25.5361 49.6821C25.6529 49.6263 25.7575 49.5478 25.8437 49.4513C25.93 49.3547 25.9961 49.242 26.0384 49.1197C26.0807 48.9973 26.0983 48.8678 26.0901 48.7386C26.0819 48.6094 26.0481 48.4831 25.9907 48.3671C25.9332 48.2511 25.8533 48.1476 25.7556 48.0628C22.7755 45.4017 21.1696 43.4595 20.3359 42.0681C20.5746 39.9087 21.2575 38.8341 22.3701 38.8694C23.9732 38.9227 26.5824 40.8531 29.0172 43.7875C31.3192 46.5606 32.9528 49.5919 32.9991 51.1708C32.9936 51.431 32.9438 54.0201 32.8448 58.972H22.7534L22.7748 58.5403C22.8212 58.2884 22.7972 58.0287 22.7054 57.7896C22.6136 57.5506 22.4576 57.3415 22.2545 57.1855ZM35.7467 66.0467H19.644V60.9267H35.7439L35.7467 66.0467Z" fill="#1742E7"></path></svg>