<svg xmlns="http://www.w3.org/2000/svg" width="96" height="96" viewBox="0 0 96 96" fill="none"><path d="M80.0119 10.2825H15.988C12.9618 10.2825 10.5 12.7436 10.5 15.7705V65.4865C10.5 68.5127 12.9611 70.9746 15.988 70.9746H21.0818V83.4524H15.6506C15.1451 83.4524 14.7356 83.8619 14.7356 84.3674C14.7356 84.873 15.1451 85.2825 15.6506 85.2825H80.3481C80.8537 85.2825 81.2632 84.873 81.2632 84.3674C81.2632 83.8619 80.8537 83.4524 80.3481 83.4524H74.9175V70.9746H80.0113C83.0375 70.9746 85.4993 68.5134 85.4993 65.4865V15.7705C85.4993 12.7443 83.0376 10.2825 80.0113 10.2825H80.0119ZM15.988 12.1114H80.0119C82.0292 12.1114 83.6704 13.7526 83.6704 15.7699V23.5619L12.3298 23.5613V15.7705C12.3298 13.7531 13.9709 12.1115 15.9889 12.1115L15.988 12.1114ZM32.0709 70.9751H35.3646V83.453H32.0709V70.9751ZM46.3535 70.9751H49.6472V83.453H46.3535V70.9751ZM60.6362 70.9751H63.9299V83.453H60.6362V70.9751ZM58.8066 83.453H51.4761V57.4021C51.4761 57.0663 51.749 56.7922 52.0859 56.7922H58.1969C58.5326 56.7922 58.8067 57.0652 58.8067 57.4021L58.8066 83.453ZM44.524 83.453H37.1934V51.2901C37.1934 50.9544 37.4664 50.6803 37.8033 50.6803H43.9142C44.25 50.6803 44.5241 50.9533 44.5241 51.2901L44.524 83.453ZM30.2413 83.453H22.9108L22.9113 62.2925C22.9113 61.9567 23.1843 61.6826 23.5211 61.6826H29.6321C29.9679 61.6826 30.242 61.9556 30.242 62.2925L30.2413 83.453ZM65.7586 83.453V45.1768C65.7586 44.841 66.0326 44.5669 66.3684 44.5669H72.4794C72.8151 44.5669 73.0892 44.8399 73.0892 45.1768V83.453H65.7586ZM80.0119 69.1452H74.9181V45.1754C74.9181 43.8301 73.824 42.736 72.4788 42.736H66.3678C65.0226 42.736 63.9285 43.8301 63.9285 45.1754V69.1452H60.6348V57.4016C60.6348 56.0564 59.5407 54.9623 58.196 54.9623H52.085C50.7398 54.9623 49.6462 56.0564 49.6462 57.4016V69.1452H46.3525L46.3531 51.2887C46.3531 49.9435 45.259 48.8494 43.9137 48.8494H37.8028C36.4575 48.8494 35.364 49.9435 35.364 51.2887V69.1452H32.0703V62.2918C32.0703 60.9465 30.9762 59.8524 29.631 59.8524H23.52C22.1747 59.8524 21.0812 60.9465 21.0812 62.2918V69.1452H15.9884C13.9711 69.1452 12.3299 67.504 12.3299 65.4867V25.3907H83.6705V65.4867C83.6705 67.5035 82.0294 69.1446 80.0114 69.1446L80.0119 69.1452ZM18.6757 20.7485C20.2808 20.7485 21.5879 19.4426 21.5879 17.8369C21.5879 16.2319 20.2819 14.9253 18.6757 14.9253C17.0695 14.9253 15.7641 16.2313 15.7641 17.8369C15.7647 19.4426 17.0706 20.7485 18.6757 20.7485ZM18.6757 16.7543C19.2725 16.7543 19.7584 17.2402 19.7584 17.837C19.7584 18.4337 19.2725 18.9196 18.6757 18.9196C18.079 18.9196 17.5931 18.4337 17.5931 17.837C17.5931 17.2402 18.079 16.7543 18.6757 16.7543ZM27.464 20.7485C29.0691 20.7485 30.3762 19.4426 30.3762 17.8369C30.3762 16.2319 29.0703 14.9253 27.464 14.9253C25.8579 14.9253 24.5525 16.2313 24.5525 17.8369C24.5525 19.4426 25.8589 20.7485 27.464 20.7485ZM27.464 16.7543C28.0608 16.7543 28.5467 17.2402 28.5467 17.837C28.5467 18.4337 28.0608 18.9196 27.464 18.9196C26.8673 18.9196 26.3814 18.4337 26.3814 17.837C26.3814 17.2402 26.8673 16.7543 27.464 16.7543ZM36.2524 20.7485C37.8574 20.7485 39.1645 19.4426 39.1645 17.8369C39.1645 16.2319 37.8586 14.9253 36.2524 14.9253C34.6462 14.9253 33.3408 16.2313 33.3408 17.8369C33.3408 19.4426 34.6467 20.7485 36.2524 20.7485ZM36.2524 16.7543C36.8491 16.7543 37.335 17.2402 37.335 17.837C37.335 18.4337 36.8491 18.9196 36.2524 18.9196C35.6556 18.9196 35.1697 18.4337 35.1697 17.837C35.1692 17.2402 35.6551 16.7543 36.2524 16.7543ZM59.747 20.7485H77.3225C78.9276 20.7485 80.2346 19.4426 80.2346 17.8364C80.2346 16.2313 78.9287 14.9248 77.3225 14.9248H59.747C58.1419 14.9248 56.8354 16.2307 56.8354 17.8364C56.8348 19.4426 58.1413 20.7485 59.747 20.7485ZM59.747 16.7543H77.3225C77.9192 16.7543 78.4051 17.2402 78.4051 17.837C78.4051 18.4337 77.9192 18.9196 77.3225 18.9196L59.747 18.9201C59.1502 18.9201 58.6643 18.4342 58.6643 17.8375C58.6643 17.2402 59.1497 16.7543 59.747 16.7543ZM69.5584 30.3967L66.4503 29.931C65.9507 29.8567 65.485 30.2007 65.4102 30.6997C65.3354 31.1993 65.6794 31.665 66.1789 31.7398L67.1409 31.8839L57.5057 39.1938C56.8577 38.6718 56.035 38.359 55.1406 38.359C53.8582 38.359 52.7231 39.0021 52.0401 39.9821L44.6085 37.1639C44.6254 37.0181 44.6352 36.8701 44.6352 36.7194C44.6352 34.6367 42.94 32.942 40.8578 32.942C38.775 32.942 37.0803 34.6372 37.0803 36.7194C37.0803 37.1802 37.1633 37.6219 37.3151 38.0303L29.0847 43.6493C28.417 43.0547 27.5381 42.6922 26.5755 42.6922C24.4927 42.6922 22.798 44.3874 22.798 46.4697C22.798 48.5519 24.4933 50.2471 26.5755 50.2471C28.6577 50.2471 30.3529 48.553 30.3529 46.4697C30.3529 46.0089 30.2699 45.5672 30.1182 45.1588L38.3485 39.5387C39.0162 40.1332 39.8952 40.4958 40.8578 40.4958C42.1402 40.4958 43.2753 39.8526 43.9583 38.8727L51.3899 41.6909C51.373 41.8367 51.3632 41.9852 51.3632 42.1353C51.3632 44.2181 53.0584 45.9128 55.1406 45.9128C57.2234 45.9128 58.9181 44.2187 58.9181 42.1353C58.9181 41.6079 58.8089 41.1056 58.6129 40.6492L68.1851 33.3874L68.0525 34.2735C67.9777 34.773 68.3216 35.2387 68.8212 35.3135C69.3207 35.3883 69.7864 35.0444 69.8612 34.5448L70.3269 31.4367C70.4023 30.9372 70.0583 30.472 69.5582 30.3967L69.5584 30.3967ZM26.5763 48.4195C25.5018 48.4195 24.6278 47.5454 24.6278 46.471C24.6278 45.3966 25.5019 44.5225 26.5763 44.5225C27.6506 44.5225 28.5247 45.3966 28.5247 46.471C28.5247 47.5454 27.6506 48.4195 26.5763 48.4195ZM40.8589 38.668C39.7845 38.668 38.9104 37.7939 38.9104 36.7196C38.9104 35.6452 39.7845 34.7711 40.8589 34.7711C41.9333 34.7711 42.8074 35.6452 42.8074 36.7196C42.8074 37.7939 41.9333 38.668 40.8589 38.668ZM55.1415 44.0856C54.0671 44.0856 53.1931 43.2115 53.1931 42.1371C53.1931 41.0628 54.0672 40.1887 55.1415 40.1887C56.2159 40.1887 57.09 41.0628 57.09 42.1371C57.09 43.2115 56.2159 44.0856 55.1415 44.0856Z" fill="#1742E7" stroke="#1742E7" stroke-width="0.9375"></path></svg>