<svg xmlns="http://www.w3.org/2000/svg" width="81" height="81" viewBox="0 0 81 81" fill="none"><mask id="path-1-inside-1_10056_15565" fill="white"><path d="M39.779 8.67822C39.6164 8.74073 35.4532 13.529 34.8906 14.3042C34.6531 14.6167 34.6156 14.7918 34.6781 15.1418C34.8031 15.7919 35.1407 15.967 36.2784 15.967H37.2535V16.9671C37.2535 18.0173 37.4411 18.6174 37.8161 18.7674C38.2537 18.93 38.7663 18.8424 39.0663 18.5299C39.3664 18.2423 39.3789 18.1798 39.3789 16.367C39.3789 14.3042 39.3414 14.1791 38.6038 13.9291L38.1412 13.7666L39.1539 12.5789C39.7165 11.9413 40.204 11.4037 40.2541 11.4037C40.3041 11.4037 40.7916 11.9413 41.3542 12.5789L42.3669 13.7666L41.9043 13.9291C41.1667 14.1791 41.1292 14.3042 41.1292 16.367C41.1292 18.1798 41.1417 18.2423 41.4418 18.5299C41.7418 18.8424 42.2544 18.93 42.692 18.7674C43.067 18.6174 43.2546 18.0173 43.2546 16.9671V15.967H44.2547C45.0799 15.967 45.2924 15.9294 45.5049 15.7169C45.8175 15.4044 45.9425 14.8918 45.78 14.5542C45.5925 14.1416 40.9417 8.76573 40.6916 8.66571C40.4541 8.5782 40.0165 8.5782 39.779 8.67822Z"></path><path d="M54.794 12.6789C54.6565 12.8039 53.4938 14.1291 52.2061 15.6169C49.8307 18.3924 49.7057 18.6049 49.9557 19.28C50.0932 19.6301 50.7058 19.8426 51.631 19.8426H52.5061V23.3682L52.8687 23.7308C53.3438 24.2059 53.7938 24.2059 54.2689 23.7308L54.6315 23.3682V20.8428C54.6315 18.3424 54.6315 18.3299 54.3189 18.0298C54.1564 17.8548 53.8689 17.7173 53.6938 17.7173C53.5188 17.7173 53.3813 17.6922 53.3813 17.6547C53.3813 17.5172 55.4191 15.2043 55.5066 15.2418C55.5566 15.2668 56.0567 15.8169 56.6193 16.467L57.632 17.6547L57.2444 17.7298C57.0444 17.7798 56.7569 17.9173 56.6318 18.0298C56.3943 18.2423 56.3818 18.4299 56.3818 20.8428C56.3818 23.2057 56.4068 23.4682 56.6193 23.7308C56.9444 24.1308 57.7695 24.1433 58.1571 23.7433C58.4196 23.4807 58.4446 23.3307 58.4821 21.6554L58.5322 19.8426H59.4323C60.42 19.8426 60.82 19.6676 61.0201 19.13C61.0826 18.9675 61.0951 18.6924 61.0576 18.5174C61.0201 18.3549 59.8699 16.9421 58.5196 15.3794C56.1317 12.6039 56.0567 12.5289 55.5566 12.4914C55.2066 12.4664 54.969 12.5289 54.794 12.6789Z"></path><path d="M24.5389 15.5044C24.2138 15.6794 19.8131 20.7553 19.5505 21.2554C19.4005 21.5429 19.388 21.6929 19.5005 22.043C19.6881 22.6056 19.9381 22.7181 21.0383 22.7181H21.9634L22.0385 23.4932C22.101 24.1308 22.1635 24.3309 22.4385 24.5559C22.8761 24.931 23.4262 24.931 23.8138 24.5309C24.1138 24.2434 24.1263 24.1558 24.1263 22.7806C24.1263 21.9805 24.0638 21.2178 24.0013 21.0928C23.9263 20.9553 23.6512 20.7803 23.3762 20.7053L22.8886 20.5552L23.9638 19.3175C24.5514 18.6424 25.0515 18.1048 25.064 18.1173C27.0268 20.3427 27.2393 20.7053 26.6017 20.7178C26.4892 20.7178 26.2767 20.8678 26.1392 21.0428C25.9141 21.3304 25.8766 21.5554 25.8766 22.6681C25.8766 23.3807 25.9391 24.0933 26.0141 24.2559C26.1517 24.5684 26.6017 24.8435 26.9393 24.8435C27.2768 24.8435 27.7269 24.5684 27.8644 24.2559C27.9395 24.0933 28.002 23.6808 28.002 23.3432V22.7181H29.0521C30.0398 22.7181 30.1273 22.6931 30.3649 22.393C30.6774 21.993 30.7024 21.5054 30.4149 21.0928C29.9523 20.4177 25.6266 15.4919 25.439 15.4169C25.139 15.3043 24.8514 15.3293 24.5389 15.5044Z"></path><path d="M38.7913 19.4425C37.066 20.0551 35.8658 21.5679 35.4157 23.6433C35.0907 25.1685 35.4407 27.1313 36.2409 28.3316L36.6159 28.8941L35.5658 29.2317C33.7529 29.8068 32.5277 30.707 31.9401 31.8822C31.6526 32.4698 31.6276 32.6448 31.6276 34.2576C31.6276 35.2077 31.5901 35.9703 31.5401 35.9453C30.915 35.6328 30.0773 35.2952 29.4772 35.1202C29.0772 35.0077 28.7521 34.8702 28.7521 34.8076C28.7521 34.7576 28.8896 34.5076 29.0647 34.2451C29.8648 33.0323 30.1898 30.9695 29.8273 29.4192C29.4022 27.6064 28.127 26.0187 26.6767 25.4686C25.9391 25.1935 24.6639 25.1185 23.9263 25.2935C22.2635 25.6936 20.7007 27.4064 20.2507 29.3317C19.8756 30.9445 20.1881 32.9823 21.0008 34.2701C21.2133 34.5951 21.3758 34.8827 21.3508 34.8952C21.3258 34.9077 20.9508 35.0202 20.5007 35.1452C19.288 35.4703 18.0878 36.1579 17.3877 36.9205C16.375 38.0332 16.375 38.0207 16.375 43.9092C16.375 48.935 16.3875 49.0726 16.6375 49.3976L16.8876 49.7227H63.6205L63.8831 49.3851C64.1456 49.0601 64.1456 48.9851 64.1081 43.2966C64.0706 37.6706 64.0581 37.5206 63.7955 37.033C63.2329 35.9578 61.7827 34.9327 60.1324 34.4201C59.7574 34.2951 59.3698 34.1825 59.2948 34.1575C59.1823 34.12 59.2573 33.92 59.5073 33.5074C60.3075 32.2447 60.6325 30.1569 60.2699 28.5566C59.9324 27.0813 58.7072 25.4561 57.4945 24.8685C54.0189 23.1932 50.2557 26.2562 50.5433 30.5319C50.6183 31.6696 51.0559 32.9948 51.556 33.6575C51.931 34.1325 51.9435 34.1075 51.0059 34.3576C50.6933 34.4326 50.0932 34.6576 49.6681 34.8452L48.8805 35.2077V33.8575C48.8805 32.6698 48.843 32.4447 48.568 31.8822C47.9804 30.707 46.7552 29.8068 44.9423 29.2317L43.8922 28.8941L44.2672 28.3316C44.7298 27.6439 45.1049 26.4312 45.2049 25.356C45.4174 23.0181 44.0672 20.5052 42.1544 19.6176C41.2042 19.18 39.729 19.105 38.7913 19.4425ZM41.0542 21.4679C41.6043 21.6679 42.4669 22.5681 42.767 23.2557C42.9795 23.7558 43.0545 24.1433 43.0545 24.906C43.067 25.8061 43.017 26.0062 42.6545 26.7563C41.4918 29.1192 39.0163 29.1192 37.8536 26.7563C37.4911 26.0062 37.4411 25.8061 37.4536 24.906C37.4536 23.3682 38.1287 22.1555 39.3164 21.5429C39.7415 21.3179 40.5791 21.2804 41.0542 21.4679ZM56.7068 26.9063C58.1446 27.744 58.7322 30.0818 57.9445 31.8321C56.7068 34.5826 53.6688 34.2326 52.7937 31.232C52.2561 29.3942 53.1937 27.2314 54.769 26.6313C55.3191 26.4312 56.0692 26.5312 56.7068 26.9063ZM26.1392 27.6064C26.7018 27.8815 27.2018 28.4691 27.5519 29.2192C27.7394 29.6443 27.8019 30.0443 27.8144 30.857C27.8144 31.8446 27.7769 32.0072 27.3769 32.7948C26.8268 33.87 26.1892 34.3576 25.214 34.4451C23.0511 34.6201 21.5509 31.7946 22.4885 29.3317C22.8011 28.5316 23.7513 27.5314 24.3389 27.4064C24.5264 27.3564 24.7514 27.3064 24.8139 27.2814C25.0265 27.2064 25.6641 27.3689 26.1392 27.6064ZM43.7046 31.082C44.9673 31.4321 46.105 32.0572 46.4801 32.5948C46.7301 32.9698 46.7552 33.1449 46.7552 34.7326V36.4704H33.7529V34.7326C33.7529 33.1449 33.778 32.9698 34.0405 32.5823C34.4281 31.9947 35.9033 31.2696 37.3161 30.9695C38.9288 30.6194 42.2419 30.6819 43.7046 31.082ZM58.3321 36.1454C60.1324 36.5329 61.4201 37.2081 61.8202 37.9582C61.9577 38.2457 62.0077 38.7458 62.0077 39.971V41.5963H48.8805V40.1085C48.8805 39.2834 48.943 38.4583 49.018 38.2582C49.4056 37.2206 50.9684 36.4079 53.3188 36.0204C54.544 35.8203 57.0944 35.8828 58.3321 36.1454ZM26.6267 36.7205C29.3022 37.058 31.065 37.8832 31.4901 39.0084C31.5651 39.2084 31.6276 40.0335 31.6276 40.8587V42.3464H18.5004V40.7212C18.5004 39.5084 18.5504 38.9834 18.6879 38.7208C19.088 37.9457 20.7132 37.158 22.5635 36.858C24.3263 36.5704 25.164 36.5454 26.6267 36.7205ZM46.7552 47.5973H33.7529V38.5958H46.7552V47.5973ZM62.0077 47.5973H48.8805V43.7217H62.0077V47.5973ZM31.6276 47.5973H18.5004V44.4718H31.6276V47.5973Z"></path><path d="M16.9376 51.623C16.5375 51.8355 16.375 52.1106 16.375 52.5607C16.375 53.2108 16.7876 53.5233 17.9503 53.7859C18.4879 53.8984 19.8381 54.1984 20.9258 54.4485L22.9261 54.9111L23.2637 55.7362L23.6012 56.5738L21.9885 59.1118C20.6382 61.2621 20.3882 61.7372 20.3757 62.1623C20.3757 62.6374 20.4507 62.7374 23.3512 65.6254C26.1767 68.4509 26.3392 68.6009 26.7893 68.6009C27.1768 68.6009 27.7144 68.3133 29.8273 66.9756L32.3902 65.3503L33.2279 65.7004L34.053 66.063L34.4531 67.8007C34.6656 68.7509 34.9782 70.1011 35.1282 70.7762C35.3282 71.6514 35.4907 72.1015 35.7033 72.314L35.9908 72.6016H44.5173L44.8048 72.314C45.0174 72.1015 45.1799 71.6514 45.3799 70.7762C45.5299 70.1011 45.8425 68.7509 46.055 67.8007L46.4551 66.063L47.2802 65.7004L48.1179 65.3503L50.6933 66.9756C52.7937 68.3008 53.3563 68.6009 53.7313 68.6009C54.1564 68.6009 54.3564 68.4384 57.1569 65.6254C60.0574 62.7374 60.1324 62.6374 60.1324 62.1623C60.1199 61.7372 59.8699 61.2621 58.5196 59.1118L56.9069 56.5738L57.2444 55.7362L57.5945 54.9111L59.5823 54.461C60.67 54.1984 62.0202 53.8984 62.5578 53.7859C63.708 53.5358 64.1331 53.2108 64.1331 52.5982C64.1331 52.0606 63.9581 51.7855 63.5205 51.6105C63.2079 51.473 62.7329 51.548 59.7449 52.2231C57.407 52.7482 56.2443 53.0732 56.0817 53.2233C55.7817 53.5108 54.744 56.0112 54.669 56.5988C54.6315 56.9864 54.819 57.3365 56.1818 59.4743L57.732 61.9123L53.4813 66.188L51.0309 64.6502C49.3806 63.6 48.4679 63.1 48.2304 63.1C48.0429 63.1 47.3303 63.325 46.6551 63.6125C45.9925 63.8876 45.3174 64.1626 45.1674 64.2251C44.6923 64.4252 44.5298 64.8502 43.9422 67.4757C43.6296 68.8884 43.3421 70.1386 43.3046 70.2512C43.2421 70.4637 42.992 70.4762 40.2541 70.4762C37.5161 70.4762 37.266 70.4637 37.2035 70.2512C37.166 70.1386 36.8785 68.8884 36.5659 67.4757C35.9783 64.8502 35.8158 64.4252 35.3407 64.2251C35.1907 64.1626 34.5156 63.8876 33.853 63.6125C33.1778 63.325 32.4652 63.1 32.2777 63.1C32.0402 63.1 31.1275 63.6 29.4772 64.6502L27.0268 66.188L22.7761 61.9123L24.3263 59.4743C25.6891 57.3365 25.8766 56.9864 25.8391 56.5988C25.7641 56.0112 24.7264 53.5108 24.4264 53.2233C24.2638 53.0732 23.1136 52.7607 20.8133 52.2356C18.9504 51.8105 17.3752 51.473 17.3127 51.473C17.2376 51.473 17.0751 51.548 16.9376 51.623Z"></path><path d="M28.377 51.623C27.9645 51.848 27.7394 52.3231 27.8269 52.7857C27.8644 52.9857 28.1145 53.6233 28.3895 54.1984C30.0148 57.7115 32.8278 60.1119 36.7034 61.3121C37.7536 61.6372 37.9537 61.6497 40.2541 61.6497C42.5544 61.6497 42.7545 61.6372 43.8047 61.3121C47.6928 60.1119 50.4808 57.724 52.1561 54.1484C52.9062 52.5357 52.8187 51.748 51.8685 51.5355C51.2184 51.3855 50.8684 51.6855 50.4183 52.7607C48.668 56.9489 44.7423 59.6119 40.3166 59.6119C38.1537 59.6244 36.4409 59.1493 34.5781 58.0491C32.7403 56.9489 30.965 54.8861 30.1273 52.8357C29.9148 52.3231 29.6773 51.8355 29.5897 51.7605C29.3522 51.523 28.7146 51.448 28.377 51.623Z"></path></mask><path d="M39.779 8.67822C39.6164 8.74073 35.4532 13.529 34.8906 14.3042C34.6531 14.6167 34.6156 14.7918 34.6781 15.1418C34.8031 15.7919 35.1407 15.967 36.2784 15.967H37.2535V16.9671C37.2535 18.0173 37.4411 18.6174 37.8161 18.7674C38.2537 18.93 38.7663 18.8424 39.0663 18.5299C39.3664 18.2423 39.3789 18.1798 39.3789 16.367C39.3789 14.3042 39.3414 14.1791 38.6038 13.9291L38.1412 13.7666L39.1539 12.5789C39.7165 11.9413 40.204 11.4037 40.2541 11.4037C40.3041 11.4037 40.7916 11.9413 41.3542 12.5789L42.3669 13.7666L41.9043 13.9291C41.1667 14.1791 41.1292 14.3042 41.1292 16.367C41.1292 18.1798 41.1417 18.2423 41.4418 18.5299C41.7418 18.8424 42.2544 18.93 42.692 18.7674C43.067 18.6174 43.2546 18.0173 43.2546 16.9671V15.967H44.2547C45.0799 15.967 45.2924 15.9294 45.5049 15.7169C45.8175 15.4044 45.9425 14.8918 45.78 14.5542C45.5925 14.1416 40.9417 8.76573 40.6916 8.66571C40.4541 8.5782 40.0165 8.5782 39.779 8.67822Z" fill="#1742E7"></path><path d="M54.794 12.6789C54.6565 12.8039 53.4938 14.1291 52.2061 15.6169C49.8307 18.3924 49.7057 18.6049 49.9557 19.28C50.0932 19.6301 50.7058 19.8426 51.631 19.8426H52.5061V23.3682L52.8687 23.7308C53.3438 24.2059 53.7938 24.2059 54.2689 23.7308L54.6315 23.3682V20.8428C54.6315 18.3424 54.6315 18.3299 54.3189 18.0298C54.1564 17.8548 53.8689 17.7173 53.6938 17.7173C53.5188 17.7173 53.3813 17.6922 53.3813 17.6547C53.3813 17.5172 55.4191 15.2043 55.5066 15.2418C55.5566 15.2668 56.0567 15.8169 56.6193 16.467L57.632 17.6547L57.2444 17.7298C57.0444 17.7798 56.7569 17.9173 56.6318 18.0298C56.3943 18.2423 56.3818 18.4299 56.3818 20.8428C56.3818 23.2057 56.4068 23.4682 56.6193 23.7308C56.9444 24.1308 57.7695 24.1433 58.1571 23.7433C58.4196 23.4807 58.4446 23.3307 58.4821 21.6554L58.5322 19.8426H59.4323C60.42 19.8426 60.82 19.6676 61.0201 19.13C61.0826 18.9675 61.0951 18.6924 61.0576 18.5174C61.0201 18.3549 59.8699 16.9421 58.5196 15.3794C56.1317 12.6039 56.0567 12.5289 55.5566 12.4914C55.2066 12.4664 54.969 12.5289 54.794 12.6789Z" fill="#1742E7"></path><path d="M24.5389 15.5044C24.2138 15.6794 19.8131 20.7553 19.5505 21.2554C19.4005 21.5429 19.388 21.6929 19.5005 22.043C19.6881 22.6056 19.9381 22.7181 21.0383 22.7181H21.9634L22.0385 23.4932C22.101 24.1308 22.1635 24.3309 22.4385 24.5559C22.8761 24.931 23.4262 24.931 23.8138 24.5309C24.1138 24.2434 24.1263 24.1558 24.1263 22.7806C24.1263 21.9805 24.0638 21.2178 24.0013 21.0928C23.9263 20.9553 23.6512 20.7803 23.3762 20.7053L22.8886 20.5552L23.9638 19.3175C24.5514 18.6424 25.0515 18.1048 25.064 18.1173C27.0268 20.3427 27.2393 20.7053 26.6017 20.7178C26.4892 20.7178 26.2767 20.8678 26.1392 21.0428C25.9141 21.3304 25.8766 21.5554 25.8766 22.6681C25.8766 23.3807 25.9391 24.0933 26.0141 24.2559C26.1517 24.5684 26.6017 24.8435 26.9393 24.8435C27.2768 24.8435 27.7269 24.5684 27.8644 24.2559C27.9395 24.0933 28.002 23.6808 28.002 23.3432V22.7181H29.0521C30.0398 22.7181 30.1273 22.6931 30.3649 22.393C30.6774 21.993 30.7024 21.5054 30.4149 21.0928C29.9523 20.4177 25.6266 15.4919 25.439 15.4169C25.139 15.3043 24.8514 15.3293 24.5389 15.5044Z" fill="#1742E7"></path><path d="M38.7913 19.4425C37.066 20.0551 35.8658 21.5679 35.4157 23.6433C35.0907 25.1685 35.4407 27.1313 36.2409 28.3316L36.6159 28.8941L35.5658 29.2317C33.7529 29.8068 32.5277 30.707 31.9401 31.8822C31.6526 32.4698 31.6276 32.6448 31.6276 34.2576C31.6276 35.2077 31.5901 35.9703 31.5401 35.9453C30.915 35.6328 30.0773 35.2952 29.4772 35.1202C29.0772 35.0077 28.7521 34.8702 28.7521 34.8076C28.7521 34.7576 28.8896 34.5076 29.0647 34.2451C29.8648 33.0323 30.1898 30.9695 29.8273 29.4192C29.4022 27.6064 28.127 26.0187 26.6767 25.4686C25.9391 25.1935 24.6639 25.1185 23.9263 25.2935C22.2635 25.6936 20.7007 27.4064 20.2507 29.3317C19.8756 30.9445 20.1881 32.9823 21.0008 34.2701C21.2133 34.5951 21.3758 34.8827 21.3508 34.8952C21.3258 34.9077 20.9508 35.0202 20.5007 35.1452C19.288 35.4703 18.0878 36.1579 17.3877 36.9205C16.375 38.0332 16.375 38.0207 16.375 43.9092C16.375 48.935 16.3875 49.0726 16.6375 49.3976L16.8876 49.7227H63.6205L63.8831 49.3851C64.1456 49.0601 64.1456 48.9851 64.1081 43.2966C64.0706 37.6706 64.0581 37.5206 63.7955 37.033C63.2329 35.9578 61.7827 34.9327 60.1324 34.4201C59.7574 34.2951 59.3698 34.1825 59.2948 34.1575C59.1823 34.12 59.2573 33.92 59.5073 33.5074C60.3075 32.2447 60.6325 30.1569 60.2699 28.5566C59.9324 27.0813 58.7072 25.4561 57.4945 24.8685C54.0189 23.1932 50.2557 26.2562 50.5433 30.5319C50.6183 31.6696 51.0559 32.9948 51.556 33.6575C51.931 34.1325 51.9435 34.1075 51.0059 34.3576C50.6933 34.4326 50.0932 34.6576 49.6681 34.8452L48.8805 35.2077V33.8575C48.8805 32.6698 48.843 32.4447 48.568 31.8822C47.9804 30.707 46.7552 29.8068 44.9423 29.2317L43.8922 28.8941L44.2672 28.3316C44.7298 27.6439 45.1049 26.4312 45.2049 25.356C45.4174 23.0181 44.0672 20.5052 42.1544 19.6176C41.2042 19.18 39.729 19.105 38.7913 19.4425ZM41.0542 21.4679C41.6043 21.6679 42.4669 22.5681 42.767 23.2557C42.9795 23.7558 43.0545 24.1433 43.0545 24.906C43.067 25.8061 43.017 26.0062 42.6545 26.7563C41.4918 29.1192 39.0163 29.1192 37.8536 26.7563C37.4911 26.0062 37.4411 25.8061 37.4536 24.906C37.4536 23.3682 38.1287 22.1555 39.3164 21.5429C39.7415 21.3179 40.5791 21.2804 41.0542 21.4679ZM56.7068 26.9063C58.1446 27.744 58.7322 30.0818 57.9445 31.8321C56.7068 34.5826 53.6688 34.2326 52.7937 31.232C52.2561 29.3942 53.1937 27.2314 54.769 26.6313C55.3191 26.4312 56.0692 26.5312 56.7068 26.9063ZM26.1392 27.6064C26.7018 27.8815 27.2018 28.4691 27.5519 29.2192C27.7394 29.6443 27.8019 30.0443 27.8144 30.857C27.8144 31.8446 27.7769 32.0072 27.3769 32.7948C26.8268 33.87 26.1892 34.3576 25.214 34.4451C23.0511 34.6201 21.5509 31.7946 22.4885 29.3317C22.8011 28.5316 23.7513 27.5314 24.3389 27.4064C24.5264 27.3564 24.7514 27.3064 24.8139 27.2814C25.0265 27.2064 25.6641 27.3689 26.1392 27.6064ZM43.7046 31.082C44.9673 31.4321 46.105 32.0572 46.4801 32.5948C46.7301 32.9698 46.7552 33.1449 46.7552 34.7326V36.4704H33.7529V34.7326C33.7529 33.1449 33.778 32.9698 34.0405 32.5823C34.4281 31.9947 35.9033 31.2696 37.3161 30.9695C38.9288 30.6194 42.2419 30.6819 43.7046 31.082ZM58.3321 36.1454C60.1324 36.5329 61.4201 37.2081 61.8202 37.9582C61.9577 38.2457 62.0077 38.7458 62.0077 39.971V41.5963H48.8805V40.1085C48.8805 39.2834 48.943 38.4583 49.018 38.2582C49.4056 37.2206 50.9684 36.4079 53.3188 36.0204C54.544 35.8203 57.0944 35.8828 58.3321 36.1454ZM26.6267 36.7205C29.3022 37.058 31.065 37.8832 31.4901 39.0084C31.5651 39.2084 31.6276 40.0335 31.6276 40.8587V42.3464H18.5004V40.7212C18.5004 39.5084 18.5504 38.9834 18.6879 38.7208C19.088 37.9457 20.7132 37.158 22.5635 36.858C24.3263 36.5704 25.164 36.5454 26.6267 36.7205ZM46.7552 47.5973H33.7529V38.5958H46.7552V47.5973ZM62.0077 47.5973H48.8805V43.7217H62.0077V47.5973ZM31.6276 47.5973H18.5004V44.4718H31.6276V47.5973Z" fill="#1742E7"></path><path d="M16.9376 51.623C16.5375 51.8355 16.375 52.1106 16.375 52.5607C16.375 53.2108 16.7876 53.5233 17.9503 53.7859C18.4879 53.8984 19.8381 54.1984 20.9258 54.4485L22.9261 54.9111L23.2637 55.7362L23.6012 56.5738L21.9885 59.1118C20.6382 61.2621 20.3882 61.7372 20.3757 62.1623C20.3757 62.6374 20.4507 62.7374 23.3512 65.6254C26.1767 68.4509 26.3392 68.6009 26.7893 68.6009C27.1768 68.6009 27.7144 68.3133 29.8273 66.9756L32.3902 65.3503L33.2279 65.7004L34.053 66.063L34.4531 67.8007C34.6656 68.7509 34.9782 70.1011 35.1282 70.7762C35.3282 71.6514 35.4907 72.1015 35.7033 72.314L35.9908 72.6016H44.5173L44.8048 72.314C45.0174 72.1015 45.1799 71.6514 45.3799 70.7762C45.5299 70.1011 45.8425 68.7509 46.055 67.8007L46.4551 66.063L47.2802 65.7004L48.1179 65.3503L50.6933 66.9756C52.7937 68.3008 53.3563 68.6009 53.7313 68.6009C54.1564 68.6009 54.3564 68.4384 57.1569 65.6254C60.0574 62.7374 60.1324 62.6374 60.1324 62.1623C60.1199 61.7372 59.8699 61.2621 58.5196 59.1118L56.9069 56.5738L57.2444 55.7362L57.5945 54.9111L59.5823 54.461C60.67 54.1984 62.0202 53.8984 62.5578 53.7859C63.708 53.5358 64.1331 53.2108 64.1331 52.5982C64.1331 52.0606 63.9581 51.7855 63.5205 51.6105C63.2079 51.473 62.7329 51.548 59.7449 52.2231C57.407 52.7482 56.2443 53.0732 56.0817 53.2233C55.7817 53.5108 54.744 56.0112 54.669 56.5988C54.6315 56.9864 54.819 57.3365 56.1818 59.4743L57.732 61.9123L53.4813 66.188L51.0309 64.6502C49.3806 63.6 48.4679 63.1 48.2304 63.1C48.0429 63.1 47.3303 63.325 46.6551 63.6125C45.9925 63.8876 45.3174 64.1626 45.1674 64.2251C44.6923 64.4252 44.5298 64.8502 43.9422 67.4757C43.6296 68.8884 43.3421 70.1386 43.3046 70.2512C43.2421 70.4637 42.992 70.4762 40.2541 70.4762C37.5161 70.4762 37.266 70.4637 37.2035 70.2512C37.166 70.1386 36.8785 68.8884 36.5659 67.4757C35.9783 64.8502 35.8158 64.4252 35.3407 64.2251C35.1907 64.1626 34.5156 63.8876 33.853 63.6125C33.1778 63.325 32.4652 63.1 32.2777 63.1C32.0402 63.1 31.1275 63.6 29.4772 64.6502L27.0268 66.188L22.7761 61.9123L24.3263 59.4743C25.6891 57.3365 25.8766 56.9864 25.8391 56.5988C25.7641 56.0112 24.7264 53.5108 24.4264 53.2233C24.2638 53.0732 23.1136 52.7607 20.8133 52.2356C18.9504 51.8105 17.3752 51.473 17.3127 51.473C17.2376 51.473 17.0751 51.548 16.9376 51.623Z" fill="#1742E7"></path><path d="M28.377 51.623C27.9645 51.848 27.7394 52.3231 27.8269 52.7857C27.8644 52.9857 28.1145 53.6233 28.3895 54.1984C30.0148 57.7115 32.8278 60.1119 36.7034 61.3121C37.7536 61.6372 37.9537 61.6497 40.2541 61.6497C42.5544 61.6497 42.7545 61.6372 43.8047 61.3121C47.6928 60.1119 50.4808 57.724 52.1561 54.1484C52.9062 52.5357 52.8187 51.748 51.8685 51.5355C51.2184 51.3855 50.8684 51.6855 50.4183 52.7607C48.668 56.9489 44.7423 59.6119 40.3166 59.6119C38.1537 59.6244 36.4409 59.1493 34.5781 58.0491C32.7403 56.9489 30.965 54.8861 30.1273 52.8357C29.9148 52.3231 29.6773 51.8355 29.5897 51.7605C29.3522 51.523 28.7146 51.448 28.377 51.623Z" fill="#1742E7"></path><path d="M39.779 8.67822C39.6164 8.74073 35.4532 13.529 34.8906 14.3042C34.6531 14.6167 34.6156 14.7918 34.6781 15.1418C34.8031 15.7919 35.1407 15.967 36.2784 15.967H37.2535V16.9671C37.2535 18.0173 37.4411 18.6174 37.8161 18.7674C38.2537 18.93 38.7663 18.8424 39.0663 18.5299C39.3664 18.2423 39.3789 18.1798 39.3789 16.367C39.3789 14.3042 39.3414 14.1791 38.6038 13.9291L38.1412 13.7666L39.1539 12.5789C39.7165 11.9413 40.204 11.4037 40.2541 11.4037C40.3041 11.4037 40.7916 11.9413 41.3542 12.5789L42.3669 13.7666L41.9043 13.9291C41.1667 14.1791 41.1292 14.3042 41.1292 16.367C41.1292 18.1798 41.1417 18.2423 41.4418 18.5299C41.7418 18.8424 42.2544 18.93 42.692 18.7674C43.067 18.6174 43.2546 18.0173 43.2546 16.9671V15.967H44.2547C45.0799 15.967 45.2924 15.9294 45.5049 15.7169C45.8175 15.4044 45.9425 14.8918 45.78 14.5542C45.5925 14.1416 40.9417 8.76573 40.6916 8.66571C40.4541 8.5782 40.0165 8.5782 39.779 8.67822Z" stroke="#1742E7" stroke-width="0.649948" mask="url(#path-1-inside-1_10056_15565)"></path><path d="M54.794 12.6789C54.6565 12.8039 53.4938 14.1291 52.2061 15.6169C49.8307 18.3924 49.7057 18.6049 49.9557 19.28C50.0932 19.6301 50.7058 19.8426 51.631 19.8426H52.5061V23.3682L52.8687 23.7308C53.3438 24.2059 53.7938 24.2059 54.2689 23.7308L54.6315 23.3682V20.8428C54.6315 18.3424 54.6315 18.3299 54.3189 18.0298C54.1564 17.8548 53.8689 17.7173 53.6938 17.7173C53.5188 17.7173 53.3813 17.6922 53.3813 17.6547C53.3813 17.5172 55.4191 15.2043 55.5066 15.2418C55.5566 15.2668 56.0567 15.8169 56.6193 16.467L57.632 17.6547L57.2444 17.7298C57.0444 17.7798 56.7569 17.9173 56.6318 18.0298C56.3943 18.2423 56.3818 18.4299 56.3818 20.8428C56.3818 23.2057 56.4068 23.4682 56.6193 23.7308C56.9444 24.1308 57.7695 24.1433 58.1571 23.7433C58.4196 23.4807 58.4446 23.3307 58.4821 21.6554L58.5322 19.8426H59.4323C60.42 19.8426 60.82 19.6676 61.0201 19.13C61.0826 18.9675 61.0951 18.6924 61.0576 18.5174C61.0201 18.3549 59.8699 16.9421 58.5196 15.3794C56.1317 12.6039 56.0567 12.5289 55.5566 12.4914C55.2066 12.4664 54.969 12.5289 54.794 12.6789Z" stroke="#1742E7" stroke-width="0.649948" mask="url(#path-1-inside-1_10056_15565)"></path><path d="M24.5389 15.5044C24.2138 15.6794 19.8131 20.7553 19.5505 21.2554C19.4005 21.5429 19.388 21.6929 19.5005 22.043C19.6881 22.6056 19.9381 22.7181 21.0383 22.7181H21.9634L22.0385 23.4932C22.101 24.1308 22.1635 24.3309 22.4385 24.5559C22.8761 24.931 23.4262 24.931 23.8138 24.5309C24.1138 24.2434 24.1263 24.1558 24.1263 22.7806C24.1263 21.9805 24.0638 21.2178 24.0013 21.0928C23.9263 20.9553 23.6512 20.7803 23.3762 20.7053L22.8886 20.5552L23.9638 19.3175C24.5514 18.6424 25.0515 18.1048 25.064 18.1173C27.0268 20.3427 27.2393 20.7053 26.6017 20.7178C26.4892 20.7178 26.2767 20.8678 26.1392 21.0428C25.9141 21.3304 25.8766 21.5554 25.8766 22.6681C25.8766 23.3807 25.9391 24.0933 26.0141 24.2559C26.1517 24.5684 26.6017 24.8435 26.9393 24.8435C27.2768 24.8435 27.7269 24.5684 27.8644 24.2559C27.9395 24.0933 28.002 23.6808 28.002 23.3432V22.7181H29.0521C30.0398 22.7181 30.1273 22.6931 30.3649 22.393C30.6774 21.993 30.7024 21.5054 30.4149 21.0928C29.9523 20.4177 25.6266 15.4919 25.439 15.4169C25.139 15.3043 24.8514 15.3293 24.5389 15.5044Z" stroke="#1742E7" stroke-width="0.649948" mask="url(#path-1-inside-1_10056_15565)"></path><path d="M38.7913 19.4425C37.066 20.0551 35.8658 21.5679 35.4157 23.6433C35.0907 25.1685 35.4407 27.1313 36.2409 28.3316L36.6159 28.8941L35.5658 29.2317C33.7529 29.8068 32.5277 30.707 31.9401 31.8822C31.6526 32.4698 31.6276 32.6448 31.6276 34.2576C31.6276 35.2077 31.5901 35.9703 31.5401 35.9453C30.915 35.6328 30.0773 35.2952 29.4772 35.1202C29.0772 35.0077 28.7521 34.8702 28.7521 34.8076C28.7521 34.7576 28.8896 34.5076 29.0647 34.2451C29.8648 33.0323 30.1898 30.9695 29.8273 29.4192C29.4022 27.6064 28.127 26.0187 26.6767 25.4686C25.9391 25.1935 24.6639 25.1185 23.9263 25.2935C22.2635 25.6936 20.7007 27.4064 20.2507 29.3317C19.8756 30.9445 20.1881 32.9823 21.0008 34.2701C21.2133 34.5951 21.3758 34.8827 21.3508 34.8952C21.3258 34.9077 20.9508 35.0202 20.5007 35.1452C19.288 35.4703 18.0878 36.1579 17.3877 36.9205C16.375 38.0332 16.375 38.0207 16.375 43.9092C16.375 48.935 16.3875 49.0726 16.6375 49.3976L16.8876 49.7227H63.6205L63.8831 49.3851C64.1456 49.0601 64.1456 48.9851 64.1081 43.2966C64.0706 37.6706 64.0581 37.5206 63.7955 37.033C63.2329 35.9578 61.7827 34.9327 60.1324 34.4201C59.7574 34.2951 59.3698 34.1825 59.2948 34.1575C59.1823 34.12 59.2573 33.92 59.5073 33.5074C60.3075 32.2447 60.6325 30.1569 60.2699 28.5566C59.9324 27.0813 58.7072 25.4561 57.4945 24.8685C54.0189 23.1932 50.2557 26.2562 50.5433 30.5319C50.6183 31.6696 51.0559 32.9948 51.556 33.6575C51.931 34.1325 51.9435 34.1075 51.0059 34.3576C50.6933 34.4326 50.0932 34.6576 49.6681 34.8452L48.8805 35.2077V33.8575C48.8805 32.6698 48.843 32.4447 48.568 31.8822C47.9804 30.707 46.7552 29.8068 44.9423 29.2317L43.8922 28.8941L44.2672 28.3316C44.7298 27.6439 45.1049 26.4312 45.2049 25.356C45.4174 23.0181 44.0672 20.5052 42.1544 19.6176C41.2042 19.18 39.729 19.105 38.7913 19.4425ZM41.0542 21.4679C41.6043 21.6679 42.4669 22.5681 42.767 23.2557C42.9795 23.7558 43.0545 24.1433 43.0545 24.906C43.067 25.8061 43.017 26.0062 42.6545 26.7563C41.4918 29.1192 39.0163 29.1192 37.8536 26.7563C37.4911 26.0062 37.4411 25.8061 37.4536 24.906C37.4536 23.3682 38.1287 22.1555 39.3164 21.5429C39.7415 21.3179 40.5791 21.2804 41.0542 21.4679ZM56.7068 26.9063C58.1446 27.744 58.7322 30.0818 57.9445 31.8321C56.7068 34.5826 53.6688 34.2326 52.7937 31.232C52.2561 29.3942 53.1937 27.2314 54.769 26.6313C55.3191 26.4312 56.0692 26.5312 56.7068 26.9063ZM26.1392 27.6064C26.7018 27.8815 27.2018 28.4691 27.5519 29.2192C27.7394 29.6443 27.8019 30.0443 27.8144 30.857C27.8144 31.8446 27.7769 32.0072 27.3769 32.7948C26.8268 33.87 26.1892 34.3576 25.214 34.4451C23.0511 34.6201 21.5509 31.7946 22.4885 29.3317C22.8011 28.5316 23.7513 27.5314 24.3389 27.4064C24.5264 27.3564 24.7514 27.3064 24.8139 27.2814C25.0265 27.2064 25.6641 27.3689 26.1392 27.6064ZM43.7046 31.082C44.9673 31.4321 46.105 32.0572 46.4801 32.5948C46.7301 32.9698 46.7552 33.1449 46.7552 34.7326V36.4704H33.7529V34.7326C33.7529 33.1449 33.778 32.9698 34.0405 32.5823C34.4281 31.9947 35.9033 31.2696 37.3161 30.9695C38.9288 30.6194 42.2419 30.6819 43.7046 31.082ZM58.3321 36.1454C60.1324 36.5329 61.4201 37.2081 61.8202 37.9582C61.9577 38.2457 62.0077 38.7458 62.0077 39.971V41.5963H48.8805V40.1085C48.8805 39.2834 48.943 38.4583 49.018 38.2582C49.4056 37.2206 50.9684 36.4079 53.3188 36.0204C54.544 35.8203 57.0944 35.8828 58.3321 36.1454ZM26.6267 36.7205C29.3022 37.058 31.065 37.8832 31.4901 39.0084C31.5651 39.2084 31.6276 40.0335 31.6276 40.8587V42.3464H18.5004V40.7212C18.5004 39.5084 18.5504 38.9834 18.6879 38.7208C19.088 37.9457 20.7132 37.158 22.5635 36.858C24.3263 36.5704 25.164 36.5454 26.6267 36.7205ZM46.7552 47.5973H33.7529V38.5958H46.7552V47.5973ZM62.0077 47.5973H48.8805V43.7217H62.0077V47.5973ZM31.6276 47.5973H18.5004V44.4718H31.6276V47.5973Z" stroke="#1742E7" stroke-width="0.649948" mask="url(#path-1-inside-1_10056_15565)"></path><path d="M16.9376 51.623C16.5375 51.8355 16.375 52.1106 16.375 52.5607C16.375 53.2108 16.7876 53.5233 17.9503 53.7859C18.4879 53.8984 19.8381 54.1984 20.9258 54.4485L22.9261 54.9111L23.2637 55.7362L23.6012 56.5738L21.9885 59.1118C20.6382 61.2621 20.3882 61.7372 20.3757 62.1623C20.3757 62.6374 20.4507 62.7374 23.3512 65.6254C26.1767 68.4509 26.3392 68.6009 26.7893 68.6009C27.1768 68.6009 27.7144 68.3133 29.8273 66.9756L32.3902 65.3503L33.2279 65.7004L34.053 66.063L34.4531 67.8007C34.6656 68.7509 34.9782 70.1011 35.1282 70.7762C35.3282 71.6514 35.4907 72.1015 35.7033 72.314L35.9908 72.6016H44.5173L44.8048 72.314C45.0174 72.1015 45.1799 71.6514 45.3799 70.7762C45.5299 70.1011 45.8425 68.7509 46.055 67.8007L46.4551 66.063L47.2802 65.7004L48.1179 65.3503L50.6933 66.9756C52.7937 68.3008 53.3563 68.6009 53.7313 68.6009C54.1564 68.6009 54.3564 68.4384 57.1569 65.6254C60.0574 62.7374 60.1324 62.6374 60.1324 62.1623C60.1199 61.7372 59.8699 61.2621 58.5196 59.1118L56.9069 56.5738L57.2444 55.7362L57.5945 54.9111L59.5823 54.461C60.67 54.1984 62.0202 53.8984 62.5578 53.7859C63.708 53.5358 64.1331 53.2108 64.1331 52.5982C64.1331 52.0606 63.9581 51.7855 63.5205 51.6105C63.2079 51.473 62.7329 51.548 59.7449 52.2231C57.407 52.7482 56.2443 53.0732 56.0817 53.2233C55.7817 53.5108 54.744 56.0112 54.669 56.5988C54.6315 56.9864 54.819 57.3365 56.1818 59.4743L57.732 61.9123L53.4813 66.188L51.0309 64.6502C49.3806 63.6 48.4679 63.1 48.2304 63.1C48.0429 63.1 47.3303 63.325 46.6551 63.6125C45.9925 63.8876 45.3174 64.1626 45.1674 64.2251C44.6923 64.4252 44.5298 64.8502 43.9422 67.4757C43.6296 68.8884 43.3421 70.1386 43.3046 70.2512C43.2421 70.4637 42.992 70.4762 40.2541 70.4762C37.5161 70.4762 37.266 70.4637 37.2035 70.2512C37.166 70.1386 36.8785 68.8884 36.5659 67.4757C35.9783 64.8502 35.8158 64.4252 35.3407 64.2251C35.1907 64.1626 34.5156 63.8876 33.853 63.6125C33.1778 63.325 32.4652 63.1 32.2777 63.1C32.0402 63.1 31.1275 63.6 29.4772 64.6502L27.0268 66.188L22.7761 61.9123L24.3263 59.4743C25.6891 57.3365 25.8766 56.9864 25.8391 56.5988C25.7641 56.0112 24.7264 53.5108 24.4264 53.2233C24.2638 53.0732 23.1136 52.7607 20.8133 52.2356C18.9504 51.8105 17.3752 51.473 17.3127 51.473C17.2376 51.473 17.0751 51.548 16.9376 51.623Z" stroke="#1742E7" stroke-width="0.649948" mask="url(#path-1-inside-1_10056_15565)"></path><path d="M28.377 51.623C27.9645 51.848 27.7394 52.3231 27.8269 52.7857C27.8644 52.9857 28.1145 53.6233 28.3895 54.1984C30.0148 57.7115 32.8278 60.1119 36.7034 61.3121C37.7536 61.6372 37.9537 61.6497 40.2541 61.6497C42.5544 61.6497 42.7545 61.6372 43.8047 61.3121C47.6928 60.1119 50.4808 57.724 52.1561 54.1484C52.9062 52.5357 52.8187 51.748 51.8685 51.5355C51.2184 51.3855 50.8684 51.6855 50.4183 52.7607C48.668 56.9489 44.7423 59.6119 40.3166 59.6119C38.1537 59.6244 36.4409 59.1493 34.5781 58.0491C32.7403 56.9489 30.965 54.8861 30.1273 52.8357C29.9148 52.3231 29.6773 51.8355 29.5897 51.7605C29.3522 51.523 28.7146 51.448 28.377 51.623Z" stroke="#1742E7" stroke-width="0.649948" mask="url(#path-1-inside-1_10056_15565)"></path></svg>