<svg xmlns="http://www.w3.org/2000/svg" width="101" height="101" viewBox="0 0 101 101" fill="none"><path d="M57.0165 21.3864C54.7832 20.8762 52.5073 20.6148 50.2496 20.6148C47.9919 20.6148 45.7136 20.8729 43.4827 21.3864C42.9089 21.5187 42.5043 22.0289 42.5043 22.6144V27.349C40.4688 28.0216 38.5353 28.9523 36.7402 30.1293L33.0352 27.1748C32.5762 26.8088 31.9244 26.8088 31.4654 27.1748C29.6727 28.6006 28.0518 30.2189 26.6438 31.9849C25.2356 33.7499 24.0168 35.6925 23.0258 37.7582C22.7703 38.2868 22.9178 38.9235 23.3768 39.2895L27.0752 42.2407C26.3305 44.252 25.853 46.3446 25.6553 48.4856L21.038 49.5395C20.4642 49.6718 20.0596 50.1786 20.0563 50.7675C20.0529 53.0587 20.3084 55.3372 20.8102 57.5376C21.3119 59.738 22.0709 61.9027 23.0677 63.9652C23.3232 64.4938 23.9112 64.7761 24.485 64.6471L29.1023 63.5933C30.2097 65.4278 31.5491 67.1031 33.0955 68.5951L31.039 72.8638C30.7835 73.3924 30.9276 74.029 31.3875 74.3951C33.1768 75.8242 35.1161 77.0463 37.1516 78.0248C39.1871 79.0034 41.3518 79.7605 43.5824 80.2673C44.1563 80.3997 44.7409 80.114 44.9998 79.5854L47.0563 75.3167C49.1999 75.5956 51.3135 75.5956 53.4571 75.3167L55.5136 79.5854C55.7264 80.0294 56.1737 80.3 56.6487 80.3C56.7417 80.3 56.8347 80.2908 56.9276 80.2698C59.1609 79.7622 61.3264 79.0091 63.3585 78.0274C65.394 77.0489 67.3333 75.8267 69.1226 74.3976C69.5816 74.0315 69.7257 73.3949 69.4711 72.8663L67.4146 68.5975C68.9609 67.1056 70.2995 65.4302 71.4078 63.5958L76.025 64.6496C76.5989 64.7786 77.1869 64.4963 77.4424 63.9677C78.4392 61.9053 79.199 59.7433 79.6999 57.5401C80.2017 55.3395 80.4563 53.061 80.4538 50.77C80.4538 50.182 80.0459 49.671 79.472 49.542L74.8548 48.4882C74.6537 46.3479 74.1796 44.2554 73.4349 42.2432L77.1333 39.292C77.5923 38.926 77.7364 38.2893 77.4842 37.7607C76.4933 35.695 75.2744 33.7557 73.8663 31.9874C72.4582 30.2224 70.8373 28.6041 69.0447 27.175C68.5856 26.8089 67.9339 26.8089 67.4749 27.175L63.7699 30.1294C61.9714 28.9525 60.0413 28.0218 58.0058 27.3491L58.0041 22.6171C57.9982 22.0291 57.5903 21.5179 57.0165 21.3864ZM63.0905 32.7253C63.5495 33.0528 64.1686 33.0344 64.6067 32.6834L68.2396 29.7858C69.5783 30.9326 70.8038 32.2 71.8902 33.5596C72.9741 34.92 73.9375 36.3967 74.7575 37.9583L71.1312 40.8491C70.6931 41.2001 70.5365 41.7982 70.7526 42.3175C71.7101 44.6263 72.2655 47.0697 72.4037 49.577C72.4338 50.1383 72.8334 50.6124 73.3821 50.7355L77.9097 51.7684C77.8494 53.5309 77.6215 55.2782 77.2345 56.9745C76.8475 58.6708 76.2922 60.3428 75.5835 61.9578L71.0591 60.925C70.5129 60.7985 69.9483 61.0514 69.6752 61.5432C68.4623 63.732 66.9007 65.6897 65.0312 67.3618C64.6107 67.737 64.4909 68.3435 64.7338 68.8478L66.7484 73.033C65.331 74.0834 63.824 74.9965 62.2568 75.753C60.6895 76.5094 59.0352 77.1159 57.3303 77.5691L55.3157 73.384C55.1029 72.9425 54.6581 72.6694 54.1806 72.6694C54.1119 72.6694 54.0399 72.6753 53.9704 72.6879C52.7247 72.8981 51.4725 73.0062 50.2478 73.0062C49.0231 73.0062 47.7707 72.8981 46.5252 72.6879C45.9698 72.5949 45.4237 72.8772 45.1799 73.384L43.1653 77.5691C41.4598 77.1184 39.8088 76.5095 38.2388 75.753C36.6715 74.9991 35.1645 74.0869 33.7472 73.033L35.7618 68.8478C36.0047 68.3402 35.885 67.7337 35.4678 67.3618C33.5972 65.6897 32.0332 63.732 30.8237 61.5432C30.5507 61.0506 29.9894 60.7985 29.4399 60.925L24.9155 61.9578C24.2068 60.3428 23.6514 58.6708 23.2644 56.9745C22.8774 55.2782 22.6521 53.5307 22.5892 51.7684L27.1169 50.7355C27.6664 50.609 28.066 50.1382 28.0953 49.577C28.2335 47.0699 28.7889 44.6297 29.7463 42.3176C29.9625 41.7982 29.8067 41.1976 29.3677 40.8491L25.7414 37.9583C26.5607 36.3969 27.5215 34.9201 28.6088 33.5596C29.6953 32.1992 30.9175 30.9326 32.2593 29.7858L35.8923 32.6834C36.3304 33.0344 36.9519 33.0528 37.4085 32.7253C39.4533 31.2719 41.7075 30.1853 44.1091 29.4953C44.6494 29.3394 45.0222 28.8469 45.0222 28.2823L45.0196 23.6382C48.481 22.9714 52.0093 22.9714 55.4705 23.6382V28.2799C55.4705 28.8412 55.8424 29.3371 56.3836 29.4929C58.7903 30.1832 61.0452 31.273 63.09 32.7255L63.0905 32.7253Z" fill="#1742E7"></path><path d="M35.7498 50.2509C35.7498 58.2457 42.2561 64.7521 50.2509 64.7521C58.2457 64.7521 64.752 58.2457 64.752 50.2509C64.752 42.2561 58.2457 35.7498 50.2509 35.7498C42.2561 35.7507 35.7498 42.2527 35.7498 50.2509ZM62.2297 50.2509C62.2297 56.8561 56.8559 62.2297 50.2509 62.2297C43.6459 62.2297 38.2721 56.8559 38.2721 50.2509C38.2721 43.646 43.6459 38.2721 50.2509 38.2721C56.8559 38.2721 62.2297 43.6434 62.2297 50.2509Z" fill="#1742E7"></path><path d="M45.1383 49.6891C44.6432 49.1999 43.844 49.2024 43.3548 49.6983C42.8656 50.1934 42.8682 50.9925 43.3641 51.4817L47.7988 55.8736C48.0451 56.1165 48.3659 56.2397 48.6876 56.2397C49.0118 56.2397 49.3334 56.1165 49.5789 55.8702L57.7748 47.6743C58.2674 47.1817 58.2674 46.3834 57.7748 45.8909C57.2823 45.3983 56.484 45.3983 55.9914 45.8909L48.6843 53.1979L45.1383 49.6891Z" fill="#1742E7"></path><path d="M63.169 21.2212C63.3549 21.7347 63.8383 22.0531 64.3551 22.0531C64.4992 22.0531 64.6433 22.0288 64.7849 21.9777C65.4391 21.7406 65.7783 21.0168 65.5413 20.3626L64.082 16.3392C78.1626 21.9566 87.4482 35.5204 87.4482 50.8801C87.4482 71.3916 70.7616 88.0781 50.2502 88.0781C42.9573 88.0781 35.8964 85.9672 29.8316 81.9773C29.2494 81.5928 28.4687 81.7553 28.0842 82.3375C27.6997 82.9197 27.8622 83.7004 28.4444 84.0849C34.9231 88.3479 42.4622 90.5996 50.2473 90.5996C60.8574 90.5996 70.8307 86.4681 78.3334 78.9659C85.836 71.4636 89.9671 61.4901 89.9671 50.8797C89.9671 42.2901 87.2715 34.1186 82.1675 27.2412C77.8685 21.4469 72.2032 17.0063 65.6458 14.2563L68.9839 13.0467C69.6381 12.8096 69.9774 12.0858 69.7403 11.4316C69.5033 10.7774 68.7795 10.4381 68.1253 10.6752L61.5504 13.0592C61.2354 13.1731 60.9799 13.4077 60.8392 13.7109C60.6984 14.0142 60.6833 14.3593 60.7973 14.6743L63.169 21.2212Z" fill="#1742E7"></path><path d="M17.4274 78.6223C16.7313 78.6223 16.1667 79.1869 16.1667 79.883C16.1667 80.5791 16.7313 81.1437 17.4274 81.1437H24.9933C25.6895 81.1437 26.2541 80.5791 26.2541 79.883V72.9478C26.2541 72.2516 25.6895 71.6871 24.9933 71.6871C24.2972 71.6871 23.7326 72.2516 23.7326 72.9478V76.956C16.9173 70.0208 13.0538 60.6713 13.0538 50.8814C13.0538 30.37 29.7404 13.6834 50.2518 13.6834C52.3049 13.6834 54.3681 13.8518 56.3762 14.1852C57.0606 14.2991 57.7123 13.8342 57.8262 13.1464C57.9401 12.4587 57.4752 11.8103 56.7875 11.6964C54.6404 11.3421 52.4432 11.162 50.2485 11.162C39.6383 11.162 29.6651 15.2935 22.1624 22.7957C14.6617 30.2947 10.5312 40.2714 10.5312 50.8818C10.5312 61.2909 14.6175 71.2284 21.8315 78.6227L17.4274 78.6223Z" fill="#1742E7"></path></svg>