<svg xmlns="http://www.w3.org/2000/svg" width="100" height="100" viewBox="0 0 100 100" fill="none"><path d="M54.9399 77.3268H45.8079C45.5076 77.3268 45.2197 77.2075 45.0074 76.9952C44.7951 76.7829 44.6758 76.495 44.6758 76.1947V70.157C44.6758 69.8567 44.7951 69.5688 45.0074 69.3565C45.2197 69.1442 45.5076 69.0249 45.8079 69.0249C46.1081 69.0249 46.396 69.1442 46.6084 69.3565C46.8207 69.5688 46.9399 69.8567 46.9399 70.157V75.0626H53.8079V70.157C53.8079 69.8567 53.9271 69.5688 54.1394 69.3565C54.3517 69.1442 54.6397 69.0249 54.9399 69.0249C55.2402 69.0249 55.5281 69.1442 55.7404 69.3565C55.9527 69.5688 56.072 69.8567 56.072 70.157V76.1947C56.072 76.495 55.9527 76.7829 55.7404 76.9952C55.5281 77.2075 55.2402 77.3268 54.9399 77.3268Z" fill="#1742E7"></path><path d="M59.8651 87.3027C59.5649 87.3027 59.2769 87.1834 59.0646 86.9711C58.8523 86.7588 58.7331 86.4709 58.7331 86.1706V78.7367C58.7331 78.3644 58.5852 78.0073 58.3219 77.7441C58.0586 77.4808 57.7016 77.3329 57.3293 77.3329H43.4244C43.0521 77.3329 42.695 77.4808 42.4318 77.7441C42.1685 78.0073 42.0206 78.3644 42.0206 78.7367V86.1706C42.0206 86.4709 41.9013 86.7588 41.689 86.9711C41.4767 87.1834 41.1888 87.3027 40.8885 87.3027C40.5883 87.3027 40.3003 87.1834 40.088 86.9711C39.8757 86.7588 39.7565 86.4709 39.7565 86.1706V78.7367C39.7565 76.714 41.4017 75.0688 43.4244 75.0688H57.3308C59.3534 75.0688 60.9972 76.714 60.9972 78.7367V86.1706C60.9972 86.4709 60.8779 86.7588 60.6656 86.9711C60.4533 87.1834 60.1654 87.3027 59.8651 87.3027ZM50.3783 71.6922C35.7882 71.6922 23.918 59.8235 23.918 45.2333C23.918 30.6431 35.7882 18.7744 50.3783 18.7744C64.9685 18.7744 76.8357 30.6446 76.8357 45.2348C76.8357 59.825 64.967 71.6922 50.3783 71.6922ZM50.3783 21.0386C37.0349 21.0386 26.1821 31.8914 26.1821 45.2348C26.1821 58.5782 37.0349 69.4265 50.3783 69.4265C63.7217 69.4265 74.5715 58.5737 74.5715 45.2318C74.5715 31.8899 63.7187 21.0386 50.3783 21.0386ZM50.3783 62.6582C40.7693 62.6582 32.9519 54.8423 32.9519 45.2333C32.9519 35.6242 40.7693 27.8084 50.3768 27.8084C59.9844 27.8084 67.8017 35.6272 67.8017 45.2333C67.8017 54.8393 59.9874 62.6582 50.3783 62.6582ZM50.3783 30.0725C42.0176 30.0725 35.2161 36.874 35.2161 45.2333C35.2161 53.5925 42.0176 60.394 50.3768 60.394C58.7361 60.394 65.5376 53.5925 65.5376 45.2333C65.5376 36.874 58.7376 30.0725 50.3783 30.0725Z" fill="#1742E7"></path><path d="M61.9297 23.816C61.7131 23.8162 61.5011 23.7542 61.3187 23.6374C61.1363 23.5207 60.9912 23.3541 60.9006 23.1574C60.8101 22.9607 60.7778 22.7421 60.8077 22.5277C60.8376 22.3132 60.9284 22.1118 61.0693 21.9473L65.0104 17.3436C65.2743 17.0331 65.6029 16.7841 65.9731 16.6141C66.3434 16.4441 66.7464 16.3572 67.1538 16.3594H75.501C75.8012 16.3594 76.0892 16.4787 76.3015 16.691C76.5138 16.9033 76.6331 17.1912 76.6331 17.4915C76.6331 17.7917 76.5138 18.0797 76.3015 18.292C76.0892 18.5043 75.8012 18.6236 75.501 18.6236H67.1538C66.9878 18.6236 66.8368 18.6915 66.7372 18.8092L62.79 23.419C62.6837 23.5432 62.5517 23.6428 62.4032 23.7111C62.2547 23.7793 62.0931 23.8161 61.9297 23.816ZM79.1584 36.056H73.4467C73.1464 36.056 72.8585 35.9367 72.6462 35.7244C72.4339 35.5121 72.3146 35.2242 72.3146 34.9239C72.3146 34.6237 72.4339 34.3358 72.6462 34.1234C72.8585 33.9111 73.1464 33.7919 73.4467 33.7919H79.1584C79.4586 33.7919 79.7465 33.9111 79.9588 34.1234C80.1712 34.3358 80.2904 34.6237 80.2904 34.9239C80.2904 35.2242 80.1712 35.5121 79.9588 35.7244C79.7465 35.9367 79.4586 36.056 79.1584 36.056ZM75.735 74.9692H70.2557C69.6027 74.9688 68.9594 74.8114 68.3799 74.5103C67.8004 74.2093 67.3017 73.7734 66.9259 73.2394L62.8278 67.3979C62.7379 67.2765 62.6731 67.1384 62.6374 66.9916C62.6017 66.8448 62.5958 66.6924 62.6199 66.5432C62.644 66.3941 62.6977 66.2513 62.7779 66.1233C62.8581 65.9952 62.9631 65.8845 63.0867 65.7977C63.2103 65.7108 63.35 65.6496 63.4977 65.6176C63.6453 65.5856 63.7978 65.5835 63.9463 65.6114C64.0948 65.6393 64.2362 65.6966 64.3622 65.7799C64.4881 65.8633 64.5962 65.971 64.6799 66.0968L68.778 71.9383C69.1161 72.4183 69.6685 72.7051 70.2557 72.7051H75.735C76.0352 72.7051 76.3231 72.8244 76.5355 73.0367C76.7478 73.249 76.867 73.5369 76.867 73.8372C76.867 74.1374 76.7478 74.4254 76.5355 74.6377C76.3231 74.85 76.0352 74.9692 75.735 74.9692Z" fill="#1742E7"></path><path d="M79.1476 22.2761C77.8801 22.2749 76.6649 21.7709 75.7686 20.8747C74.8724 19.9784 74.3684 18.7632 74.3672 17.4958C74.366 16.2261 74.8685 15.0079 75.7644 14.1083C76.6603 13.2087 77.8764 12.7013 79.1461 12.6973C80.4187 12.6985 81.6389 13.2046 82.5388 14.1045C83.4388 15.0044 83.9449 16.2246 83.9461 17.4973C83.9421 18.7671 83.4344 19.9835 82.5345 20.8795C81.6346 21.7754 80.4159 22.2777 79.1461 22.2761H79.1476ZM79.1476 14.9614C77.7589 14.9614 76.6313 16.0995 76.6313 17.4973C76.6313 18.8829 77.7604 20.012 79.1461 20.012C80.5438 20.012 81.6819 18.8829 81.6819 17.4958C81.6819 16.0995 80.5438 14.9614 79.1461 14.9614H79.1476ZM79.3498 78.1418C78.0829 78.1402 76.8683 77.6362 75.9724 76.7403C75.0766 75.8445 74.5726 74.6299 74.571 73.3629C74.571 70.7169 76.7144 68.5629 79.3498 68.5629C80.6225 68.5641 81.8427 69.0702 82.7426 69.9701C83.6425 70.8701 84.1486 72.0903 84.1498 73.3629C84.1458 74.6328 83.6382 75.8492 82.7382 76.7452C81.8383 77.6411 80.6197 78.1434 79.3498 78.1418ZM79.3498 70.8271C77.9642 70.8271 76.8351 71.9652 76.8351 73.3629C76.8351 74.7486 77.9642 75.8776 79.3498 75.8776C80.7476 75.8776 81.8857 74.7486 81.8857 73.3629C81.8857 71.9652 80.7476 70.8271 79.3498 70.8271ZM82.8034 39.7131C81.5362 39.7115 80.3214 39.2073 79.4255 38.3111C78.5296 37.4149 78.0257 36.1999 78.0245 34.9327C78.0245 32.2867 80.1679 30.1327 82.8034 30.1327C84.0761 30.1339 85.2963 30.64 86.1962 31.5399C87.0961 32.4399 87.6022 33.6601 87.6034 34.9327C87.5998 36.2029 87.0923 37.4197 86.1924 38.3159C85.2924 39.2122 84.0735 39.7147 82.8034 39.7131ZM82.8034 32.3984C81.4162 32.3984 80.2887 33.535 80.2887 34.9342C80.2887 36.3199 81.4162 37.449 82.8034 37.449C84.2011 37.449 85.3393 36.3199 85.3393 34.9327C85.3393 33.535 84.2011 32.3984 82.8034 32.3984ZM82.0713 61.8716C80.8044 61.87 79.5898 61.366 78.6939 60.4701C77.7981 59.5743 77.2941 58.3597 77.2925 57.0927C77.2925 54.4467 79.4359 52.2927 82.0713 52.2927C83.344 52.2939 84.5642 52.8 85.4641 53.6999C86.364 54.5999 86.8701 55.8201 86.8713 57.0927C86.8673 58.3626 86.3597 59.579 85.4598 60.475C84.5598 61.3709 83.3412 61.8732 82.0713 61.8716ZM82.0713 54.5584C80.6842 54.5584 79.5566 55.695 79.5566 57.0942C79.5566 58.4799 80.6842 59.6075 82.0713 59.6075C83.4691 59.6075 84.6072 58.4799 84.6072 57.0927C84.6072 55.695 83.4691 54.5569 82.0713 54.5569V54.5584Z" fill="#1742E7"></path><path d="M78.421 58.2145H72.8391C72.5389 58.2145 72.2509 58.0952 72.0386 57.8829C71.8263 57.6706 71.707 57.3826 71.707 57.0824C71.707 56.7822 71.8263 56.4942 72.0386 56.2819C72.2509 56.0696 72.5389 55.9503 72.8391 55.9503H78.4225C78.7228 55.9503 79.0107 56.0696 79.223 56.2819C79.4353 56.4942 79.5546 56.7822 79.5546 57.0824C79.5546 57.3826 79.4353 57.6706 79.223 57.8829C79.0107 58.0952 78.7212 58.2145 78.421 58.2145ZM38.0648 23.816C37.9012 23.8159 37.7396 23.7804 37.591 23.7118C37.4425 23.6433 37.3106 23.5434 37.2044 23.419L33.2799 18.8152C33.2244 18.7544 33.1567 18.706 33.0813 18.673C33.0059 18.6399 32.9244 18.6231 32.8421 18.6235H24.495C24.1947 18.6235 23.9068 18.5043 23.6945 18.2919C23.4822 18.0796 23.3629 17.7917 23.3629 17.4915C23.3629 17.1912 23.4822 16.9033 23.6945 16.691C23.9068 16.4786 24.1947 16.3594 24.495 16.3594H32.8421C33.6617 16.3594 34.4451 16.7141 34.99 17.333L38.9267 21.9503C39.0666 22.1148 39.1566 22.3159 39.186 22.5299C39.2154 22.7439 39.1829 22.9619 39.0924 23.158C39.002 23.3541 38.8573 23.5203 38.6755 23.6369C38.4937 23.7535 38.2808 23.8156 38.0648 23.816ZM26.5523 36.056H20.8391C20.5389 36.056 20.2509 35.9367 20.0386 35.7244C19.8263 35.5121 19.707 35.2241 19.707 34.9239C19.707 34.6237 19.8263 34.3357 20.0386 34.1234C20.2509 33.9111 20.5389 33.7918 20.8391 33.7918H26.5523C26.8526 33.7918 27.1405 33.9111 27.3528 34.1234C27.5651 34.3357 27.6844 34.6237 27.6844 34.9239C27.6844 35.2241 27.5651 35.5121 27.3528 35.7244C27.1405 35.9367 26.8526 36.056 26.5523 36.056ZM29.7433 74.9692H24.264C23.9638 74.9692 23.6758 74.8499 23.4635 74.6376C23.2512 74.4253 23.1319 74.1374 23.1319 73.8371C23.1319 73.5369 23.2512 73.2489 23.4635 73.0366C23.6758 72.8243 23.9638 72.705 24.264 72.705H29.7433C30.3319 72.705 30.8829 72.4182 31.2195 71.9382L35.3191 66.0967C35.4962 65.8634 35.7568 65.7078 36.0463 65.6627C36.3357 65.6175 36.6313 65.6863 36.8711 65.8545C37.1108 66.0228 37.2761 66.2774 37.332 66.5649C37.388 66.8524 37.3303 67.1505 37.1712 67.3964L33.0731 73.2379C32.6974 73.7722 32.1988 74.2083 31.6193 74.5096C31.0398 74.8109 30.3964 74.9685 29.7433 74.9692Z" fill="#1742E7"></path><path d="M20.8543 22.2761C19.5844 22.2773 18.3659 21.7747 17.4663 20.8784C16.5667 19.9822 16.0594 18.7656 16.0558 17.4958C16.0574 16.2233 16.5637 15.0035 17.4635 14.1039C18.3634 13.2044 19.5834 12.6985 20.8558 12.6973C22.1257 12.7013 23.3421 13.2089 24.238 14.1088C25.134 15.0088 25.6363 16.2274 25.6347 17.4973C25.6327 18.7642 25.1283 19.9786 24.2321 20.8742C23.336 21.7698 22.1212 22.2734 20.8543 22.2746V22.2761ZM20.8543 14.9614C19.4581 14.9614 18.3199 16.0995 18.3199 17.4973C18.3199 18.8829 19.4581 20.012 20.8558 20.012C22.2415 20.012 23.3705 18.8829 23.3705 17.4958C23.3705 16.0995 22.2399 14.9614 20.8543 14.9614ZM20.6505 78.1418C19.3809 78.143 18.1627 77.6405 17.2631 76.7446C16.3635 75.8487 15.856 74.6325 15.852 73.3629C15.8532 72.0903 16.3593 70.8701 17.2592 69.9701C18.1591 69.0702 19.3794 68.5641 20.652 68.5629C21.9219 68.5669 23.1383 69.0746 24.0342 69.9745C24.9302 70.8744 25.4325 72.0931 25.4309 73.3629C25.4293 74.6301 24.9251 75.845 24.0289 76.7409C23.1327 77.6368 21.9177 78.1406 20.6505 78.1418ZM20.6505 70.8271C19.2543 70.8271 18.1162 71.9652 18.1162 73.3629C18.1162 74.7486 19.2543 75.8776 20.652 75.8776C22.0377 75.8776 23.1667 74.7486 23.1667 73.3629C23.1667 71.9652 22.0377 70.8271 20.6505 70.8271ZM17.1984 39.7131C15.9283 39.7147 14.7094 39.2122 13.8095 38.3159C12.9095 37.4197 12.402 36.2029 12.3984 34.9327C12.3996 33.6601 12.9057 32.4399 13.8056 31.5399C14.7056 30.64 15.9258 30.1339 17.1984 30.1327C18.4683 30.1367 19.6847 30.6444 20.5807 31.5443C21.4766 32.4442 21.9789 33.6629 21.9773 34.9327C21.9761 36.1999 21.4723 37.4149 20.5764 38.3111C19.6805 39.2073 18.4656 39.7115 17.1984 39.7131ZM17.1984 32.3984C15.8007 32.3984 14.6626 33.535 14.6626 34.9342C14.6626 36.3199 15.8007 37.449 17.1984 37.449C18.5841 37.449 19.7132 36.3199 19.7132 34.9327C19.7132 33.535 18.5841 32.3984 17.1984 32.3984ZM17.9305 61.8716C16.6606 61.8732 15.442 61.3709 14.5421 60.475C13.6422 59.579 13.1345 58.3626 13.1305 57.0927C13.1317 55.8201 13.6378 54.5999 14.5377 53.6999C15.4376 52.8 16.6578 52.2939 17.9305 52.2927C19.2004 52.2967 20.4168 52.8044 21.3127 53.7043C22.2087 54.6042 22.711 55.8229 22.7094 57.0927C22.7078 58.3597 22.2038 59.5743 21.3079 60.4701C20.4121 61.366 19.1975 61.87 17.9305 61.8716ZM17.9305 54.5584C16.5328 54.5584 15.3947 55.695 15.3947 57.0942C15.3947 58.4799 16.5328 59.6075 17.9305 59.6075C19.3162 59.6075 20.4452 58.4799 20.4452 57.0927C20.4452 55.695 19.3162 54.5569 17.9305 54.5569V54.5584Z" fill="#1742E7"></path><path d="M27.1578 58.2142H21.5774C21.2771 58.2142 20.9892 58.0949 20.7769 57.8826C20.5646 57.6703 20.4453 57.3823 20.4453 57.0821C20.4453 56.7818 20.5646 56.4939 20.7769 56.2816C20.9892 56.0693 21.2771 55.95 21.5774 55.95H27.1593C27.4595 55.95 27.7475 56.0693 27.9598 56.2816C28.1721 56.4939 28.2914 56.7818 28.2914 57.0821C28.2914 57.3823 28.1721 57.6703 27.9598 57.8826C27.7475 58.0949 27.4595 58.2142 27.1593 58.2142H27.1578ZM49.1547 52.181C48.8545 52.181 48.5666 52.0617 48.3542 51.8494C48.1419 51.6371 48.0227 51.3491 48.0227 51.0489V42.9206C48.0071 42.3022 47.7505 41.7144 47.3076 41.2826C46.8647 40.8508 46.2707 40.6091 45.6521 40.6091C45.0336 40.6091 44.4395 40.8508 43.9966 41.2826C43.5537 41.7144 43.2971 42.3022 43.2815 42.9206V51.0489C43.2815 51.3491 43.1623 51.6371 42.95 51.8494C42.7377 52.0617 42.4497 52.181 42.1495 52.181C41.8492 52.181 41.5613 52.0617 41.349 51.8494C41.1367 51.6371 41.0174 51.3491 41.0174 51.0489V42.9206C41.0174 40.3651 43.0959 38.2866 45.6514 38.2866C48.2068 38.2866 50.2868 40.3651 50.2868 42.9206V51.0489C50.2868 51.3491 50.1675 51.6371 49.9552 51.8494C49.7429 52.0617 49.455 52.181 49.1547 52.181Z" fill="#1742E7"></path><path d="M49.1554 46.9767H42.1516C41.8514 46.9767 41.5634 46.8574 41.3511 46.6451C41.1388 46.4328 41.0195 46.1449 41.0195 45.8446C41.0195 45.5444 41.1388 45.2564 41.3511 45.0441C41.5634 44.8318 41.8514 44.7126 42.1516 44.7126H49.1569C49.4571 44.7126 49.7451 44.8318 49.9574 45.0441C50.1697 45.2564 50.289 45.5444 50.289 45.8446C50.289 46.1449 50.1697 46.4328 49.9574 46.6451C49.7451 46.8574 49.4556 46.9767 49.1554 46.9767ZM56.3282 51.6288C56.028 51.6288 55.74 51.5095 55.5277 51.2972C55.3154 51.0849 55.1961 50.797 55.1961 50.4967V39.9714C55.1961 39.6712 55.3154 39.3832 55.5277 39.1709C55.74 38.9586 56.028 38.8394 56.3282 38.8394C56.6285 38.8394 56.9164 38.9586 57.1287 39.1709C57.341 39.3832 57.4603 39.6712 57.4603 39.9714V50.4967C57.4603 50.797 57.341 51.0849 57.1287 51.2972C56.9164 51.5095 56.6285 51.6288 56.3282 51.6288Z" fill="#1742E7"></path><path d="M58.6025 41.1035H54.05C53.7498 41.1035 53.4619 40.9842 53.2495 40.7719C53.0372 40.5596 52.918 40.2717 52.918 39.9714C52.918 39.6712 53.0372 39.3832 53.2495 39.1709C53.4619 38.9586 53.7498 38.8394 54.05 38.8394H58.6025C58.9027 38.8394 59.1907 38.9586 59.403 39.1709C59.6153 39.3832 59.7346 39.6712 59.7346 39.9714C59.7346 40.2717 59.6153 40.5596 59.403 40.7719C59.1907 40.9842 58.9027 41.1035 58.6025 41.1035ZM58.6025 51.6288H54.05C53.7498 51.6288 53.4619 51.5095 53.2495 51.2972C53.0372 51.0849 52.918 50.797 52.918 50.4967C52.918 50.1965 53.0372 49.9085 53.2495 49.6962C53.4619 49.4839 53.7498 49.3646 54.05 49.3646H58.6025C58.9027 49.3646 59.1907 49.4839 59.403 49.6962C59.6153 49.9085 59.7346 50.1965 59.7346 50.4967C59.7346 50.797 59.6153 51.0849 59.403 51.2972C59.1907 51.5095 58.9027 51.6288 58.6025 51.6288Z" fill="#1742E7"></path></svg>