<svg xmlns="http://www.w3.org/2000/svg" viewBox="0 0 56 57" fill="none"><path d="M14.4948 41.902L14.4949 41.902C14.5003 41.7303 14.5365 41.5615 14.6024 41.4027L14.6711 41.2368L14.8152 41.3439C16.1798 42.3575 18.2018 43.1395 20.5379 43.6675C22.8716 44.1949 25.5076 44.4664 28.0916 44.4664C30.6756 44.4664 33.3116 44.1949 35.6452 43.6675C37.9814 43.1395 40.0033 42.3575 41.368 41.3439L41.5121 41.2369L41.5808 41.4027C41.6466 41.5615 41.6829 41.7303 41.6883 41.902L41.6884 41.9064H41.6883C41.6883 42.502 41.2871 43.0848 40.6156 43.6155C39.9395 44.1497 38.9641 44.6521 37.7552 45.0848C35.336 45.9507 31.9555 46.5466 28.0918 46.5466L14.4948 41.902ZM14.4948 41.902V41.9064M14.4948 41.902V41.9064M14.4948 41.9064C14.4948 42.502 14.8961 43.0848 15.5676 43.6155C16.2437 44.1497 17.219 44.6521 18.428 45.0848C20.8472 45.9507 24.2277 46.5466 28.0914 46.5466L14.4948 41.9064ZM14.4948 31.1018L14.4949 31.1018C14.5003 30.9301 14.5365 30.7613 14.6024 30.6025L14.6711 30.4367L14.8152 30.5437C16.1798 31.5573 18.2018 32.3393 20.5379 32.8673C22.8716 33.3947 25.5076 33.6663 28.0916 33.6663C30.6756 33.6663 33.3116 33.3947 35.6452 32.8673C37.9814 32.3393 40.0033 31.5573 41.368 30.5437L41.5121 30.4367L41.5808 30.6025C41.6466 30.7613 41.6829 30.9302 41.6883 31.1018L41.6884 31.1062H41.6883C41.6883 31.7018 41.2871 32.2846 40.6156 32.8153C39.9395 33.3495 38.9641 33.852 37.7552 34.2847C35.336 35.1505 31.9555 35.7464 28.0918 35.7464L14.4948 31.1018ZM14.4948 31.1018V31.1062M14.4948 31.1018V31.1062M14.4948 31.1062C14.4948 31.7018 14.8961 32.2846 15.5676 32.8153C16.2437 33.3495 17.219 33.852 18.428 34.2847C20.8472 35.1505 24.2277 35.7464 28.0914 35.7464L14.4948 31.1062ZM44.0181 13.1519L44.0343 13.2734H44.1525C48.1638 13.5537 51.7397 15.9115 53.5872 19.4953L53.7117 19.4311L53.5872 19.4953C55.4355 23.0802 55.286 27.373 53.1929 30.8201C51.0999 34.2673 47.3664 36.3691 43.3439 36.3661L43.2038 36.366V36.5061V38.305C43.1939 38.9212 43.0017 39.5206 42.6509 40.0263L42.5955 40.1061L42.651 40.1859C43.0021 40.6915 43.1946 41.2909 43.2038 41.9072V49.1065C43.2038 50.0797 42.7379 50.95 41.9057 51.7141C41.0719 52.4797 39.877 53.1314 38.4421 53.6596C35.5729 54.7159 31.7774 55.2664 28.0922 55.2664C24.4069 55.2664 20.6113 54.7159 17.7422 53.6597C16.3073 53.1314 15.1125 52.4797 14.2787 51.7141C13.4465 50.9501 12.9807 50.0797 12.9807 49.1065V41.9072C12.9899 41.2909 13.1824 40.6916 13.5335 40.1859L13.589 40.1061L13.5336 40.0262C13.1865 39.526 12.9947 38.9339 12.9811 38.3247V38.3063V36.5061V36.3661H12.8411H11.0467C7.87811 36.3657 4.90841 34.817 3.08718 32.2157C1.266 29.6143 0.82173 26.2857 1.89638 23.2951C2.97141 20.3048 5.43039 18.0267 8.4873 17.1901L8.60738 17.1572L8.58877 17.0341C8.48799 16.3675 8.46915 15.6912 8.53225 15.0201C8.77363 12.5846 10.1172 10.396 12.1759 9.08429L12.1007 8.96622L12.1759 9.08428C14.2351 7.7721 16.7808 7.48232 19.0801 8.29846L19.1901 8.33749L19.2483 8.23636C21.1166 4.9905 24.2561 2.67939 27.9029 1.86567L27.8724 1.72903L27.9029 1.86567C31.5495 1.05189 35.3692 1.81011 38.4328 3.95533C41.496 6.10095 43.5223 9.43696 44.0181 13.1519ZM14.7202 44.8674L14.4948 44.6938V44.9783V49.1066C14.4948 49.7023 14.8961 50.2851 15.5676 50.8157C16.2437 51.35 17.219 51.8524 18.428 52.2851C20.8473 53.151 24.2279 53.7469 28.0918 53.7469C31.9557 53.7469 35.3363 53.151 37.7556 52.2851C38.9646 51.8524 39.9399 51.35 40.616 50.8157C41.2875 50.2851 41.6888 49.7023 41.6888 49.1066V44.978V44.6935L41.4633 44.8671C40.1165 45.9043 38.0869 46.7055 35.7301 47.2469C33.3759 47.7877 30.7071 48.0665 28.0918 48.0665C25.4765 48.0665 22.8076 47.7877 20.4534 47.247C18.0965 46.7056 16.0669 45.9044 14.7202 44.8674ZM14.7202 34.0672L14.4948 33.8936V34.1781V38.3065C14.4948 38.9021 14.8961 39.4849 15.5676 40.0156C16.2437 40.5498 17.219 41.0522 18.428 41.4849C20.8473 42.3508 24.2279 42.9467 28.0918 42.9467C31.9557 42.9467 35.3363 42.3508 37.7556 41.4849C38.9646 41.0522 39.9399 40.5498 40.616 40.0156C41.2875 39.4849 41.6888 38.9021 41.6888 38.3065V34.1778V33.8933L41.4633 34.0669C40.1165 35.1041 38.0869 35.9053 35.7301 36.4467C33.3759 36.9875 30.7071 37.2663 28.0918 37.2663C25.4765 37.2663 22.8076 36.9875 20.4534 36.4468C18.0965 35.9054 16.0669 35.1042 14.7202 34.0672ZM14.7202 23.267L14.4948 23.0934V23.3779V27.5063C14.4948 28.1019 14.8961 28.6847 15.5676 29.2154C16.2437 29.7496 17.219 30.252 18.428 30.6847C20.8473 31.5506 24.2279 32.1465 28.0918 32.1465C31.9557 32.1465 35.3363 31.5506 37.7556 30.6847C38.9646 30.252 39.9399 29.7496 40.616 29.2154C41.2875 28.6847 41.6888 28.1019 41.6888 27.5063V23.3776V23.0931L41.4633 23.2667C40.1165 24.3039 38.0869 25.1052 35.7301 25.6465C33.3759 26.1873 30.7071 26.4661 28.0918 26.4661C25.4765 26.4661 22.8076 26.1873 20.4534 25.6466C18.0965 25.1052 16.0669 24.304 14.7202 23.267ZM43.3366 34.7058L43.3428 34.8458C46.8768 34.8485 50.1502 32.9807 51.9547 29.9327C53.7596 26.8846 53.8277 23.1079 52.1352 19.9962L52.0122 20.0631L52.1352 19.9962C50.4423 16.884 47.2386 14.8985 43.7065 14.772L43.7056 14.772C43.1063 14.7542 42.6132 14.2915 42.5564 13.6918L42.5562 13.6905C42.2033 10.3062 40.4183 7.23696 37.6551 5.26349C34.8919 3.28969 31.4166 2.60197 28.1129 3.37468L28.1448 3.511L28.1129 3.37469C24.8097 4.1474 21.996 6.30653 20.3885 9.30256C20.0965 9.84662 19.4418 10.0808 18.8732 9.84512L18.8727 9.8449C17.8188 9.41327 16.67 9.26851 15.5421 9.42444C14.1156 9.62046 12.7966 10.2928 11.7983 11.3334C10.7995 12.3742 10.18 13.7219 10.0392 15.1593L10.0392 15.1595C9.97548 15.821 10.0112 16.4885 10.1446 17.1395L10.1446 17.1395L10.145 17.1413C10.213 17.4525 10.1551 17.7782 9.9839 18.0464C9.81274 18.3146 9.54247 18.5033 9.23267 18.5714L9.23153 18.5717C6.58387 19.1768 4.40584 21.0557 3.41241 23.5904C2.41856 26.1251 2.73788 28.9885 4.2653 31.2405C5.79238 33.4929 8.33029 34.8423 11.046 34.8458H11.0462H12.8402H12.9802V34.7058V31.1068C12.9894 30.4905 13.182 29.8912 13.5331 29.3855L13.5885 29.3057L13.5331 29.2259C13.1824 28.7203 12.9902 28.1209 12.9802 27.5048V20.3056C12.9802 19.3324 13.4461 18.4621 14.2783 17.698C15.1122 16.9324 16.3071 16.2807 17.742 15.7525C20.6111 14.6962 24.4067 14.1457 28.0918 14.1457C31.7772 14.1457 35.5728 14.6962 38.4418 15.7524C39.8767 16.2807 41.0715 16.9324 41.9053 17.698C42.7375 18.462 43.2034 19.3324 43.2034 20.3056V27.5046C43.1935 28.1208 43.0012 28.7202 42.6505 29.2259L42.5951 29.3057L42.6505 29.3855C43.0016 29.8912 43.1942 30.4905 43.2034 31.1068V34.7058H43.3366ZM14.4948 20.306C14.4948 20.9017 14.8961 21.4844 15.5676 22.0151C16.2437 22.5493 17.219 23.0518 18.428 23.4845C20.8473 24.3504 24.2279 24.9462 28.0918 24.9462C31.9557 24.9462 35.3363 24.3504 37.7556 23.4845C38.9646 23.0518 39.9399 22.5493 40.616 22.0151C41.2875 21.4844 41.6888 20.9017 41.6888 20.306C41.6888 19.7104 41.2875 19.1276 40.616 18.5969C39.9399 18.0627 38.9646 17.5603 37.7556 17.1276C35.3363 16.2617 31.9557 15.6658 28.0918 15.6658C24.2279 15.6658 20.8473 16.2617 18.428 17.1276C17.219 17.5603 16.2437 18.0627 15.5676 18.5969C14.8961 19.1276 14.4948 19.7104 14.4948 20.306Z" fill="#1742E7" stroke="#1742E7" stroke-width="0.28"></path></svg>