<svg xmlns="http://www.w3.org/2000/svg" viewBox="0 0 55 55" fill="none"><mask id="path-1-inside-1_2821_1076" fill="white"><path d="M21.7306 32.7592C23.6592 32.7592 25.2276 31.1903 25.2276 29.2622C25.2276 27.3341 23.6592 25.7652 21.7306 25.7652C19.802 25.7652 18.2336 27.3341 18.2336 29.2622C18.2336 31.1908 19.802 32.7592 21.7306 32.7592ZM21.7306 27.5076C22.6983 27.5076 23.4856 28.2949 23.4856 29.2626C23.4856 30.2302 22.6983 31.0176 21.7306 31.0176C20.763 31.0176 19.9756 30.2302 19.9756 29.2626C19.9756 28.2949 20.763 27.5076 21.7306 27.5076Z"></path><path d="M28.3413 27.5072H36.343C36.8242 27.5072 37.214 27.1174 37.214 26.6362C37.214 26.155 36.8242 25.7652 36.343 25.7652H28.3413C27.8601 25.7652 27.4704 26.155 27.4704 26.6362C27.4704 27.1174 27.8606 27.5072 28.3413 27.5072Z"></path><path d="M28.3413 30.7547H36.343C36.8242 30.7547 37.214 30.3649 37.214 29.8837C37.214 29.4025 36.8242 29.0127 36.343 29.0127H28.3413C27.8601 29.0127 27.4704 29.4025 27.4704 29.8837C27.4704 30.3649 27.8606 30.7547 28.3413 30.7547Z"></path><path d="M28.3413 34.0022H36.343C36.8242 34.0022 37.214 33.6124 37.214 33.1312C37.214 32.65 36.8242 32.2602 36.343 32.2602H28.3413C27.8601 32.2602 27.4704 32.65 27.4704 33.1312C27.4704 33.6124 27.8606 34.0022 28.3413 34.0022Z"></path><path d="M19.104 37.2484H25.3263C25.8074 37.2484 26.1972 36.8586 26.1972 36.3775C26.1972 35.8963 25.8074 35.5065 25.3263 35.5065H19.104C18.6228 35.5065 18.233 35.8963 18.233 36.3775C18.233 36.8586 18.6233 37.2484 19.104 37.2484Z"></path><path d="M19.104 40.4959H25.3263C25.8074 40.4959 26.1972 40.1061 26.1972 39.625C26.1972 39.1438 25.8074 38.754 25.3263 38.754H19.104C18.6228 38.754 18.233 39.1438 18.233 39.625C18.233 40.1061 18.6233 40.4959 19.104 40.4959Z"></path><path d="M36.0532 35.5065H28.8643C28.3831 35.5065 27.9933 35.8963 27.9933 36.3775V39.6247C27.9933 40.1059 28.3831 40.4957 28.8643 40.4957H36.0532C36.5344 40.4957 36.9242 40.1059 36.9242 39.6247V36.3775C36.9242 35.8963 36.5344 35.5065 36.0532 35.5065ZM35.1822 38.7537H29.7353V37.2484H35.1822V38.7537Z"></path><path d="M31.1782 15.0311H24.1375C23.6563 15.0311 23.2665 15.4209 23.2665 15.902C23.2665 16.3832 23.6563 16.773 24.1375 16.773H31.1782C31.6594 16.773 32.0492 16.3832 32.0492 15.902C32.0492 15.4209 31.6589 15.0311 31.1782 15.0311Z"></path><path d="M20.9082 15.902C20.9082 16.4785 20.4411 16.9461 19.8647 16.9461C19.2882 16.9461 18.8211 16.4785 18.8211 15.902C18.8211 15.3256 19.2882 14.8585 19.8647 14.8585C20.4411 14.8585 20.9082 15.3256 20.9082 15.902Z"></path><path d="M24.137 51.2313H31.1777C31.6589 51.2313 32.0487 50.8415 32.0487 50.3604C32.0487 49.8792 31.6589 49.4894 31.1777 49.4894H24.137C23.6558 49.4894 23.266 49.8792 23.266 50.3604C23.266 50.8415 23.6558 51.2313 24.137 51.2313Z"></path><path d="M47.6832 14.6814C46.4871 11.0119 43.08 8.50534 39.1713 8.50534C39.1494 8.50534 39.1275 8.50534 39.1066 8.50583C37.8595 3.76946 33.5562 0.406494 28.5956 0.406494C24.3671 0.406494 20.4987 2.91789 18.732 6.73128C18.2236 6.62046 17.6992 6.56407 17.165 6.56407C13.3054 6.56407 10.1273 9.53809 9.80204 13.3146C9.23241 13.1606 8.64723 13.0828 8.05039 13.0828C3.97546 13.0833 0.660156 16.7577 0.660156 21.274C0.660156 25.7864 3.97546 29.4574 8.05039 29.4574H14.624V50.1086C14.624 52.2618 16.3728 54.0134 18.5215 54.0134H36.7921C38.8063 54.0134 40.5108 52.4454 40.6727 50.4439C40.6809 50.338 40.6892 50.2233 40.6892 50.109V47.6157C40.6897 47.604 40.696 47.5938 40.696 47.5821L40.6965 29.4584H47.2701C51.3455 29.4584 54.6603 26.1431 54.6603 22.0681C54.6608 18.1278 51.5677 14.8971 47.6833 14.6824L47.6832 14.6814ZM38.9545 19.5496V46.7104L16.3664 46.7099V19.5503L38.9545 19.5496ZM38.9477 17.8076H16.3671V16.1526C16.3671 14.9599 17.3338 13.9903 18.5221 13.9903H36.7927C37.9067 13.9903 38.8482 14.8549 38.9375 15.9587C38.9429 16.0204 38.9482 16.0865 38.9482 16.1526L38.9477 17.8076ZM38.9477 50.1072C38.9477 50.1733 38.9424 50.2399 38.937 50.3016C38.8481 51.4054 37.9062 52.2695 36.7932 52.2695L18.5226 52.27C17.3338 52.27 16.3671 51.2998 16.3671 50.1071V48.4526H38.9477L38.9477 50.1072ZM47.2707 27.7156H40.697L40.6965 18.6787C40.6965 18.6418 40.6946 18.6058 40.6897 18.5703V16.1528C40.6897 16.038 40.6815 15.9238 40.6732 15.8184C40.5114 13.8164 38.8068 12.2485 36.7918 12.2485H18.5212C16.3724 12.2485 14.6242 14.0001 14.6242 16.1528V27.7157H8.05056C4.93608 27.7157 2.40229 24.8261 2.40229 21.2742C2.40229 17.7183 4.93645 14.8254 8.05056 14.8254C8.82628 14.8254 9.57863 15.0033 10.2874 15.3543C10.5727 15.4957 10.91 15.4704 11.1715 15.2891C11.432 15.1078 11.5734 14.7992 11.5404 14.4833C11.5229 14.3112 11.517 14.1328 11.517 13.9545C11.517 10.84 14.0512 8.30618 17.1653 8.30618C17.7874 8.30618 18.3896 8.40485 18.9549 8.59927C19.4021 8.75432 19.8876 8.52393 20.0538 8.08262C21.3889 4.53314 24.8218 2.14865 28.5964 2.14865C32.9785 2.14865 36.7501 5.27384 37.5647 9.5802C37.6478 10.0186 38.0614 10.3199 38.5017 10.2854C38.7248 10.2665 38.9426 10.2475 39.172 10.2475C42.5077 10.2475 45.3899 12.5149 46.1806 15.7611C46.2827 16.1786 46.6768 16.4648 47.1109 16.4216C47.1658 16.4172 47.2159 16.4119 47.2708 16.4119C50.3853 16.4119 52.9191 18.949 52.9191 22.0669C52.9186 25.1814 50.3844 27.7155 47.2704 27.7155L47.2707 27.7156Z"></path></mask><path d="M21.7306 32.7592C23.6592 32.7592 25.2276 31.1903 25.2276 29.2622C25.2276 27.3341 23.6592 25.7652 21.7306 25.7652C19.802 25.7652 18.2336 27.3341 18.2336 29.2622C18.2336 31.1908 19.802 32.7592 21.7306 32.7592ZM21.7306 27.5076C22.6983 27.5076 23.4856 28.2949 23.4856 29.2626C23.4856 30.2302 22.6983 31.0176 21.7306 31.0176C20.763 31.0176 19.9756 30.2302 19.9756 29.2626C19.9756 28.2949 20.763 27.5076 21.7306 27.5076Z" fill="#1742E7"></path><path d="M28.3413 27.5072H36.343C36.8242 27.5072 37.214 27.1174 37.214 26.6362C37.214 26.155 36.8242 25.7652 36.343 25.7652H28.3413C27.8601 25.7652 27.4704 26.155 27.4704 26.6362C27.4704 27.1174 27.8606 27.5072 28.3413 27.5072Z" fill="#1742E7"></path><path d="M28.3413 30.7547H36.343C36.8242 30.7547 37.214 30.3649 37.214 29.8837C37.214 29.4025 36.8242 29.0127 36.343 29.0127H28.3413C27.8601 29.0127 27.4704 29.4025 27.4704 29.8837C27.4704 30.3649 27.8606 30.7547 28.3413 30.7547Z" fill="#1742E7"></path><path d="M28.3413 34.0022H36.343C36.8242 34.0022 37.214 33.6124 37.214 33.1312C37.214 32.65 36.8242 32.2602 36.343 32.2602H28.3413C27.8601 32.2602 27.4704 32.65 27.4704 33.1312C27.4704 33.6124 27.8606 34.0022 28.3413 34.0022Z" fill="#1742E7"></path><path d="M19.104 37.2484H25.3263C25.8074 37.2484 26.1972 36.8586 26.1972 36.3775C26.1972 35.8963 25.8074 35.5065 25.3263 35.5065H19.104C18.6228 35.5065 18.233 35.8963 18.233 36.3775C18.233 36.8586 18.6233 37.2484 19.104 37.2484Z" fill="#1742E7"></path><path d="M19.104 40.4959H25.3263C25.8074 40.4959 26.1972 40.1061 26.1972 39.625C26.1972 39.1438 25.8074 38.754 25.3263 38.754H19.104C18.6228 38.754 18.233 39.1438 18.233 39.625C18.233 40.1061 18.6233 40.4959 19.104 40.4959Z" fill="#1742E7"></path><path d="M36.0532 35.5065H28.8643C28.3831 35.5065 27.9933 35.8963 27.9933 36.3775V39.6247C27.9933 40.1059 28.3831 40.4957 28.8643 40.4957H36.0532C36.5344 40.4957 36.9242 40.1059 36.9242 39.6247V36.3775C36.9242 35.8963 36.5344 35.5065 36.0532 35.5065ZM35.1822 38.7537H29.7353V37.2484H35.1822V38.7537Z" fill="#1742E7"></path><path d="M31.1782 15.0311H24.1375C23.6563 15.0311 23.2665 15.4209 23.2665 15.902C23.2665 16.3832 23.6563 16.773 24.1375 16.773H31.1782C31.6594 16.773 32.0492 16.3832 32.0492 15.902C32.0492 15.4209 31.6589 15.0311 31.1782 15.0311Z" fill="#1742E7"></path><path d="M20.9082 15.902C20.9082 16.4785 20.4411 16.9461 19.8647 16.9461C19.2882 16.9461 18.8211 16.4785 18.8211 15.902C18.8211 15.3256 19.2882 14.8585 19.8647 14.8585C20.4411 14.8585 20.9082 15.3256 20.9082 15.902Z" fill="#1742E7"></path><path d="M24.137 51.2313H31.1777C31.6589 51.2313 32.0487 50.8415 32.0487 50.3604C32.0487 49.8792 31.6589 49.4894 31.1777 49.4894H24.137C23.6558 49.4894 23.266 49.8792 23.266 50.3604C23.266 50.8415 23.6558 51.2313 24.137 51.2313Z" fill="#1742E7"></path><path d="M47.6832 14.6814C46.4871 11.0119 43.08 8.50534 39.1713 8.50534C39.1494 8.50534 39.1275 8.50534 39.1066 8.50583C37.8595 3.76946 33.5562 0.406494 28.5956 0.406494C24.3671 0.406494 20.4987 2.91789 18.732 6.73128C18.2236 6.62046 17.6992 6.56407 17.165 6.56407C13.3054 6.56407 10.1273 9.53809 9.80204 13.3146C9.23241 13.1606 8.64723 13.0828 8.05039 13.0828C3.97546 13.0833 0.660156 16.7577 0.660156 21.274C0.660156 25.7864 3.97546 29.4574 8.05039 29.4574H14.624V50.1086C14.624 52.2618 16.3728 54.0134 18.5215 54.0134H36.7921C38.8063 54.0134 40.5108 52.4454 40.6727 50.4439C40.6809 50.338 40.6892 50.2233 40.6892 50.109V47.6157C40.6897 47.604 40.696 47.5938 40.696 47.5821L40.6965 29.4584H47.2701C51.3455 29.4584 54.6603 26.1431 54.6603 22.0681C54.6608 18.1278 51.5677 14.8971 47.6833 14.6824L47.6832 14.6814ZM38.9545 19.5496V46.7104L16.3664 46.7099V19.5503L38.9545 19.5496ZM38.9477 17.8076H16.3671V16.1526C16.3671 14.9599 17.3338 13.9903 18.5221 13.9903H36.7927C37.9067 13.9903 38.8482 14.8549 38.9375 15.9587C38.9429 16.0204 38.9482 16.0865 38.9482 16.1526L38.9477 17.8076ZM38.9477 50.1072C38.9477 50.1733 38.9424 50.2399 38.937 50.3016C38.8481 51.4054 37.9062 52.2695 36.7932 52.2695L18.5226 52.27C17.3338 52.27 16.3671 51.2998 16.3671 50.1071V48.4526H38.9477L38.9477 50.1072ZM47.2707 27.7156H40.697L40.6965 18.6787C40.6965 18.6418 40.6946 18.6058 40.6897 18.5703V16.1528C40.6897 16.038 40.6815 15.9238 40.6732 15.8184C40.5114 13.8164 38.8068 12.2485 36.7918 12.2485H18.5212C16.3724 12.2485 14.6242 14.0001 14.6242 16.1528V27.7157H8.05056C4.93608 27.7157 2.40229 24.8261 2.40229 21.2742C2.40229 17.7183 4.93645 14.8254 8.05056 14.8254C8.82628 14.8254 9.57863 15.0033 10.2874 15.3543C10.5727 15.4957 10.91 15.4704 11.1715 15.2891C11.432 15.1078 11.5734 14.7992 11.5404 14.4833C11.5229 14.3112 11.517 14.1328 11.517 13.9545C11.517 10.84 14.0512 8.30618 17.1653 8.30618C17.7874 8.30618 18.3896 8.40485 18.9549 8.59927C19.4021 8.75432 19.8876 8.52393 20.0538 8.08262C21.3889 4.53314 24.8218 2.14865 28.5964 2.14865C32.9785 2.14865 36.7501 5.27384 37.5647 9.5802C37.6478 10.0186 38.0614 10.3199 38.5017 10.2854C38.7248 10.2665 38.9426 10.2475 39.172 10.2475C42.5077 10.2475 45.3899 12.5149 46.1806 15.7611C46.2827 16.1786 46.6768 16.4648 47.1109 16.4216C47.1658 16.4172 47.2159 16.4119 47.2708 16.4119C50.3853 16.4119 52.9191 18.949 52.9191 22.0669C52.9186 25.1814 50.3844 27.7155 47.2704 27.7155L47.2707 27.7156Z" fill="#1742E7"></path><path d="M21.7306 32.7592C23.6592 32.7592 25.2276 31.1903 25.2276 29.2622C25.2276 27.3341 23.6592 25.7652 21.7306 25.7652C19.802 25.7652 18.2336 27.3341 18.2336 29.2622C18.2336 31.1908 19.802 32.7592 21.7306 32.7592ZM21.7306 27.5076C22.6983 27.5076 23.4856 28.2949 23.4856 29.2626C23.4856 30.2302 22.6983 31.0176 21.7306 31.0176C20.763 31.0176 19.9756 30.2302 19.9756 29.2626C19.9756 28.2949 20.763 27.5076 21.7306 27.5076Z" stroke="#1742E7" stroke-width="0.536069" mask="url(#path-1-inside-1_2821_1076)"></path><path d="M28.3413 27.5072H36.343C36.8242 27.5072 37.214 27.1174 37.214 26.6362C37.214 26.155 36.8242 25.7652 36.343 25.7652H28.3413C27.8601 25.7652 27.4704 26.155 27.4704 26.6362C27.4704 27.1174 27.8606 27.5072 28.3413 27.5072Z" stroke="#1742E7" stroke-width="0.536069" mask="url(#path-1-inside-1_2821_1076)"></path><path d="M28.3413 30.7547H36.343C36.8242 30.7547 37.214 30.3649 37.214 29.8837C37.214 29.4025 36.8242 29.0127 36.343 29.0127H28.3413C27.8601 29.0127 27.4704 29.4025 27.4704 29.8837C27.4704 30.3649 27.8606 30.7547 28.3413 30.7547Z" stroke="#1742E7" stroke-width="0.536069" mask="url(#path-1-inside-1_2821_1076)"></path><path d="M28.3413 34.0022H36.343C36.8242 34.0022 37.214 33.6124 37.214 33.1312C37.214 32.65 36.8242 32.2602 36.343 32.2602H28.3413C27.8601 32.2602 27.4704 32.65 27.4704 33.1312C27.4704 33.6124 27.8606 34.0022 28.3413 34.0022Z" stroke="#1742E7" stroke-width="0.536069" mask="url(#path-1-inside-1_2821_1076)"></path><path d="M19.104 37.2484H25.3263C25.8074 37.2484 26.1972 36.8586 26.1972 36.3775C26.1972 35.8963 25.8074 35.5065 25.3263 35.5065H19.104C18.6228 35.5065 18.233 35.8963 18.233 36.3775C18.233 36.8586 18.6233 37.2484 19.104 37.2484Z" stroke="#1742E7" stroke-width="0.536069" mask="url(#path-1-inside-1_2821_1076)"></path><path d="M19.104 40.4959H25.3263C25.8074 40.4959 26.1972 40.1061 26.1972 39.625C26.1972 39.1438 25.8074 38.754 25.3263 38.754H19.104C18.6228 38.754 18.233 39.1438 18.233 39.625C18.233 40.1061 18.6233 40.4959 19.104 40.4959Z" stroke="#1742E7" stroke-width="0.536069" mask="url(#path-1-inside-1_2821_1076)"></path><path d="M36.0532 35.5065H28.8643C28.3831 35.5065 27.9933 35.8963 27.9933 36.3775V39.6247C27.9933 40.1059 28.3831 40.4957 28.8643 40.4957H36.0532C36.5344 40.4957 36.9242 40.1059 36.9242 39.6247V36.3775C36.9242 35.8963 36.5344 35.5065 36.0532 35.5065ZM35.1822 38.7537H29.7353V37.2484H35.1822V38.7537Z" stroke="#1742E7" stroke-width="0.536069" mask="url(#path-1-inside-1_2821_1076)"></path><path d="M31.1782 15.0311H24.1375C23.6563 15.0311 23.2665 15.4209 23.2665 15.902C23.2665 16.3832 23.6563 16.773 24.1375 16.773H31.1782C31.6594 16.773 32.0492 16.3832 32.0492 15.902C32.0492 15.4209 31.6589 15.0311 31.1782 15.0311Z" stroke="#1742E7" stroke-width="0.536069" mask="url(#path-1-inside-1_2821_1076)"></path><path d="M20.9082 15.902C20.9082 16.4785 20.4411 16.9461 19.8647 16.9461C19.2882 16.9461 18.8211 16.4785 18.8211 15.902C18.8211 15.3256 19.2882 14.8585 19.8647 14.8585C20.4411 14.8585 20.9082 15.3256 20.9082 15.902Z" stroke="#1742E7" stroke-width="0.536069" mask="url(#path-1-inside-1_2821_1076)"></path><path d="M24.137 51.2313H31.1777C31.6589 51.2313 32.0487 50.8415 32.0487 50.3604C32.0487 49.8792 31.6589 49.4894 31.1777 49.4894H24.137C23.6558 49.4894 23.266 49.8792 23.266 50.3604C23.266 50.8415 23.6558 51.2313 24.137 51.2313Z" stroke="#1742E7" stroke-width="0.536069" mask="url(#path-1-inside-1_2821_1076)"></path><path d="M47.6832 14.6814C46.4871 11.0119 43.08 8.50534 39.1713 8.50534C39.1494 8.50534 39.1275 8.50534 39.1066 8.50583C37.8595 3.76946 33.5562 0.406494 28.5956 0.406494C24.3671 0.406494 20.4987 2.91789 18.732 6.73128C18.2236 6.62046 17.6992 6.56407 17.165 6.56407C13.3054 6.56407 10.1273 9.53809 9.80204 13.3146C9.23241 13.1606 8.64723 13.0828 8.05039 13.0828C3.97546 13.0833 0.660156 16.7577 0.660156 21.274C0.660156 25.7864 3.97546 29.4574 8.05039 29.4574H14.624V50.1086C14.624 52.2618 16.3728 54.0134 18.5215 54.0134H36.7921C38.8063 54.0134 40.5108 52.4454 40.6727 50.4439C40.6809 50.338 40.6892 50.2233 40.6892 50.109V47.6157C40.6897 47.604 40.696 47.5938 40.696 47.5821L40.6965 29.4584H47.2701C51.3455 29.4584 54.6603 26.1431 54.6603 22.0681C54.6608 18.1278 51.5677 14.8971 47.6833 14.6824L47.6832 14.6814ZM38.9545 19.5496V46.7104L16.3664 46.7099V19.5503L38.9545 19.5496ZM38.9477 17.8076H16.3671V16.1526C16.3671 14.9599 17.3338 13.9903 18.5221 13.9903H36.7927C37.9067 13.9903 38.8482 14.8549 38.9375 15.9587C38.9429 16.0204 38.9482 16.0865 38.9482 16.1526L38.9477 17.8076ZM38.9477 50.1072C38.9477 50.1733 38.9424 50.2399 38.937 50.3016C38.8481 51.4054 37.9062 52.2695 36.7932 52.2695L18.5226 52.27C17.3338 52.27 16.3671 51.2998 16.3671 50.1071V48.4526H38.9477L38.9477 50.1072ZM47.2707 27.7156H40.697L40.6965 18.6787C40.6965 18.6418 40.6946 18.6058 40.6897 18.5703V16.1528C40.6897 16.038 40.6815 15.9238 40.6732 15.8184C40.5114 13.8164 38.8068 12.2485 36.7918 12.2485H18.5212C16.3724 12.2485 14.6242 14.0001 14.6242 16.1528V27.7157H8.05056C4.93608 27.7157 2.40229 24.8261 2.40229 21.2742C2.40229 17.7183 4.93645 14.8254 8.05056 14.8254C8.82628 14.8254 9.57863 15.0033 10.2874 15.3543C10.5727 15.4957 10.91 15.4704 11.1715 15.2891C11.432 15.1078 11.5734 14.7992 11.5404 14.4833C11.5229 14.3112 11.517 14.1328 11.517 13.9545C11.517 10.84 14.0512 8.30618 17.1653 8.30618C17.7874 8.30618 18.3896 8.40485 18.9549 8.59927C19.4021 8.75432 19.8876 8.52393 20.0538 8.08262C21.3889 4.53314 24.8218 2.14865 28.5964 2.14865C32.9785 2.14865 36.7501 5.27384 37.5647 9.5802C37.6478 10.0186 38.0614 10.3199 38.5017 10.2854C38.7248 10.2665 38.9426 10.2475 39.172 10.2475C42.5077 10.2475 45.3899 12.5149 46.1806 15.7611C46.2827 16.1786 46.6768 16.4648 47.1109 16.4216C47.1658 16.4172 47.2159 16.4119 47.2708 16.4119C50.3853 16.4119 52.9191 18.949 52.9191 22.0669C52.9186 25.1814 50.3844 27.7155 47.2704 27.7155L47.2707 27.7156Z" stroke="#1742E7" stroke-width="0.536069" mask="url(#path-1-inside-1_2821_1076)"></path></svg>