<svg xmlns="http://www.w3.org/2000/svg" viewBox="0 0 57 57" fill="none"><mask id="path-1-inside-1_2818_1048" fill="white"><path d="M33.3146 7.95698C31.7513 7.59988 30.1582 7.41692 28.5778 7.41692C26.9974 7.41692 25.4026 7.59752 23.841 7.95698C23.4393 8.04963 23.1561 8.40673 23.1561 8.81662V12.1308C21.7312 12.6017 20.3778 13.2531 19.1212 14.077L16.5277 12.0089C16.2063 11.7527 15.7501 11.7527 15.4288 12.0089C14.174 13.0069 13.0393 14.1398 12.0537 15.3759C11.068 16.6115 10.2148 17.9713 9.52111 19.4173C9.34227 19.7873 9.44547 20.2329 9.7668 20.4892L12.3556 22.555C11.8343 23.9629 11.5001 25.4277 11.3617 26.9265L8.12965 27.6641C7.72798 27.7568 7.44476 28.1116 7.44242 28.5238C7.44008 30.1276 7.61892 31.7225 7.97016 33.2628C8.32139 34.8032 8.85266 36.3184 9.5504 37.7622C9.72924 38.1322 10.1409 38.3298 10.5426 38.2395L13.7746 37.5018C14.5498 38.786 15.4874 39.9587 16.5699 41.0031L15.1303 43.9912C14.9515 44.3612 15.0523 44.8069 15.3743 45.0631C16.6268 46.0635 17.9843 46.9189 19.4092 47.6039C20.834 48.2889 22.3493 48.8189 23.9107 49.1736C24.3124 49.2663 24.7217 49.0663 24.9029 48.6963L26.3424 45.7082C27.843 45.9035 29.3225 45.9035 30.823 45.7082L32.2626 48.6963C32.4115 49.0071 32.7246 49.1965 33.0571 49.1965C33.1222 49.1965 33.1873 49.1901 33.2524 49.1754C34.8157 48.82 36.3315 48.2929 37.754 47.6057C39.1789 46.9208 40.5363 46.0652 41.7889 45.0648C42.1102 44.8086 42.211 44.363 42.0328 43.993L40.5932 41.0048C41.6757 39.9605 42.6127 38.7876 43.3885 37.5036L46.6206 38.2412C47.0222 38.3315 47.4339 38.1339 47.6127 37.7639C48.3105 36.3203 48.8424 34.8069 49.193 33.2646C49.5442 31.7241 49.7225 30.1292 49.7207 28.5255C49.7207 28.1139 49.4351 27.7562 49.0335 27.6659L45.8014 26.9282C45.6607 25.43 45.3288 23.9653 44.8075 22.5568L47.3963 20.4909C47.7177 20.2347 47.8185 19.789 47.642 19.419C46.9483 17.973 46.0951 16.6155 45.1095 15.3777C44.1238 14.1422 42.9891 13.0094 41.7343 12.009C41.413 11.7528 40.9568 11.7528 40.6354 12.009L38.042 14.0771C36.783 13.2533 35.4319 12.6018 34.0071 12.1309L34.0059 8.81852C34.0018 8.40688 33.7162 8.04904 33.3146 7.95698ZM37.5664 15.8942C37.8877 16.1235 38.321 16.1106 38.6277 15.8649L41.1708 13.8366C42.1078 14.6393 42.9657 15.5265 43.7261 16.4782C44.4849 17.4305 45.1593 18.4642 45.7333 19.5574L43.1949 21.5809C42.8882 21.8266 42.7786 22.2452 42.9299 22.6088C43.6001 24.2249 43.9889 25.9353 44.0856 27.6904C44.1067 28.0833 44.3864 28.4152 44.7705 28.5014L47.9398 29.2244C47.8976 30.4581 47.7381 31.6813 47.4672 32.8687C47.1963 34.0561 46.8075 35.2265 46.3115 36.357L43.1444 35.634C42.7621 35.5455 42.3669 35.7225 42.1757 36.0667C41.3266 37.5989 40.2335 38.9693 38.9249 40.1398C38.6305 40.4025 38.5466 40.827 38.7167 41.18L40.1269 44.1096C39.1348 44.8449 38.0798 45.4841 36.9828 46.0136C35.8857 46.5431 34.7277 46.9677 33.5343 47.2849L32.124 44.3553C31.9751 44.0463 31.6637 43.8551 31.3295 43.8551C31.2814 43.8551 31.231 43.8592 31.1823 43.868C30.3104 44.0152 29.4338 44.0909 28.5765 44.0909C27.7192 44.0909 26.8425 44.0152 25.9707 43.868C25.5819 43.8029 25.1996 44.0005 25.029 44.3553L23.6187 47.2849C22.4249 46.9694 21.2692 46.5431 20.1702 46.0136C19.0731 45.4859 18.0182 44.8473 17.0261 44.1096L18.4363 41.18C18.6064 40.8246 18.5225 40.4001 18.2305 40.1398C16.9211 38.9693 15.8263 37.5989 14.9796 36.0667C14.7885 35.722 14.3956 35.5454 14.0109 35.634L10.8439 36.357C10.3478 35.2265 9.95903 34.0561 9.68812 32.8687C9.41721 31.6813 9.25947 30.458 9.2155 29.2244L12.3848 28.5014C12.7695 28.4128 13.0492 28.0833 13.0697 27.6904C13.1665 25.9355 13.5552 24.2273 14.2255 22.6088C14.3768 22.2453 14.2677 21.8248 13.9604 21.5809L11.422 19.5574C11.9955 18.4644 12.6681 17.4306 13.4292 16.4782C14.1897 15.526 15.0453 14.6394 15.9846 13.8366L18.5276 15.8649C18.8343 16.1106 19.2694 16.1235 19.589 15.8942C21.0203 14.8768 22.5983 14.1163 24.2794 13.6332C24.6576 13.5241 24.9185 13.1794 24.9185 12.7841L24.9168 9.53329C27.3398 9.06653 29.8096 9.06653 32.2324 9.53329V12.7825C32.2324 13.1754 32.4927 13.5225 32.8715 13.6316C34.5563 14.1147 36.1347 14.8776 37.566 15.8944L37.5664 15.8942Z"></path><path d="M18.4279 28.1622C18.4279 33.7585 22.9823 38.313 28.5787 38.313C34.175 38.313 38.7295 33.7585 38.7295 28.1622C38.7295 22.5658 34.175 18.0114 28.5787 18.0114C22.9823 18.012 18.4279 22.5634 18.4279 28.1622ZM36.9638 28.1622C36.9638 32.7858 33.2021 36.5473 28.5787 36.5473C23.9552 36.5473 20.1935 32.7857 20.1935 28.1622C20.1935 23.5387 23.9552 19.777 28.5787 19.777C33.2021 19.777 36.9638 23.5369 36.9638 28.1622Z"></path><path d="M24.9998 27.7689C24.6533 27.4264 24.0939 27.4282 23.7514 27.7753C23.409 28.1219 23.4107 28.6813 23.7579 29.0237L26.8622 32.098C27.0346 32.2681 27.2592 32.3543 27.4843 32.3543C27.7113 32.3543 27.9364 32.2681 28.1082 32.0957L33.8454 26.3585C34.1902 26.0137 34.1902 25.4549 33.8454 25.1101C33.5006 24.7653 32.9418 24.7653 32.597 25.1101L27.4821 30.2251L24.9998 27.7689Z"></path><path d="M37.6213 7.84139C37.7515 8.20084 38.0898 8.42367 38.4516 8.42367C38.5525 8.42367 38.6533 8.40666 38.7524 8.37089C39.2104 8.20494 39.4479 7.69831 39.2819 7.24036L38.2605 4.42394C48.1169 8.35615 54.6167 17.8508 54.6167 28.6026C54.6167 42.9606 42.9362 54.6412 28.5782 54.6412C23.4731 54.6412 18.5305 53.1635 14.2852 50.3707C13.8776 50.1015 13.3311 50.2153 13.062 50.6228C12.7928 51.0303 12.9066 51.5768 13.3141 51.846C17.8492 54.8301 23.1266 56.4062 28.5761 56.4062C36.0033 56.4062 42.9846 53.5142 48.2364 48.2626C53.4883 43.0111 56.38 36.0296 56.38 28.6023C56.38 22.5896 54.4931 16.8695 50.9203 12.0554C47.911 7.99935 43.9453 4.89096 39.3551 2.96591L41.6918 2.11919C42.1497 1.95324 42.3872 1.44661 42.2213 0.988656C42.0553 0.530692 41.5487 0.293212 41.0907 0.459162L36.4883 2.12797C36.2678 2.20772 36.0889 2.3719 35.9904 2.58418C35.8919 2.79645 35.8814 3.03803 35.9611 3.25851L37.6213 7.84139Z"></path><path d="M5.60223 48.0221C5.11495 48.0221 4.71973 48.4173 4.71973 48.9046C4.71973 49.3919 5.11495 49.7871 5.60223 49.7871H10.8984C11.3856 49.7871 11.7809 49.3919 11.7809 48.9046V44.05C11.7809 43.5627 11.3856 43.1675 10.8984 43.1675C10.4111 43.1675 10.0159 43.5627 10.0159 44.05V46.8557C5.24513 42.0011 2.5407 35.4564 2.5407 28.6035C2.5407 14.2455 14.2213 2.56491 28.5793 2.56491C30.0165 2.56491 31.4607 2.68277 32.8663 2.91614C33.3454 2.99589 33.8016 2.67045 33.8814 2.18903C33.9611 1.70762 33.6357 1.25375 33.1543 1.17401C31.6513 0.925977 30.1133 0.799897 28.577 0.799897C21.1499 0.799897 14.1686 3.69197 8.91673 8.94352C3.66623 14.1928 0.774902 21.1765 0.774902 28.6038C0.774902 35.8901 3.6353 42.8464 8.6851 48.0224L5.60223 48.0221Z"></path></mask><path d="M33.3146 7.95698C31.7513 7.59988 30.1582 7.41692 28.5778 7.41692C26.9974 7.41692 25.4026 7.59752 23.841 7.95698C23.4393 8.04963 23.1561 8.40673 23.1561 8.81662V12.1308C21.7312 12.6017 20.3778 13.2531 19.1212 14.077L16.5277 12.0089C16.2063 11.7527 15.7501 11.7527 15.4288 12.0089C14.174 13.0069 13.0393 14.1398 12.0537 15.3759C11.068 16.6115 10.2148 17.9713 9.52111 19.4173C9.34227 19.7873 9.44547 20.2329 9.7668 20.4892L12.3556 22.555C11.8343 23.9629 11.5001 25.4277 11.3617 26.9265L8.12965 27.6641C7.72798 27.7568 7.44476 28.1116 7.44242 28.5238C7.44008 30.1276 7.61892 31.7225 7.97016 33.2628C8.32139 34.8032 8.85266 36.3184 9.5504 37.7622C9.72924 38.1322 10.1409 38.3298 10.5426 38.2395L13.7746 37.5018C14.5498 38.786 15.4874 39.9587 16.5699 41.0031L15.1303 43.9912C14.9515 44.3612 15.0523 44.8069 15.3743 45.0631C16.6268 46.0635 17.9843 46.9189 19.4092 47.6039C20.834 48.2889 22.3493 48.8189 23.9107 49.1736C24.3124 49.2663 24.7217 49.0663 24.9029 48.6963L26.3424 45.7082C27.843 45.9035 29.3225 45.9035 30.823 45.7082L32.2626 48.6963C32.4115 49.0071 32.7246 49.1965 33.0571 49.1965C33.1222 49.1965 33.1873 49.1901 33.2524 49.1754C34.8157 48.82 36.3315 48.2929 37.754 47.6057C39.1789 46.9208 40.5363 46.0652 41.7889 45.0648C42.1102 44.8086 42.211 44.363 42.0328 43.993L40.5932 41.0048C41.6757 39.9605 42.6127 38.7876 43.3885 37.5036L46.6206 38.2412C47.0222 38.3315 47.4339 38.1339 47.6127 37.7639C48.3105 36.3203 48.8424 34.8069 49.193 33.2646C49.5442 31.7241 49.7225 30.1292 49.7207 28.5255C49.7207 28.1139 49.4351 27.7562 49.0335 27.6659L45.8014 26.9282C45.6607 25.43 45.3288 23.9653 44.8075 22.5568L47.3963 20.4909C47.7177 20.2347 47.8185 19.789 47.642 19.419C46.9483 17.973 46.0951 16.6155 45.1095 15.3777C44.1238 14.1422 42.9891 13.0094 41.7343 12.009C41.413 11.7528 40.9568 11.7528 40.6354 12.009L38.042 14.0771C36.783 13.2533 35.4319 12.6018 34.0071 12.1309L34.0059 8.81852C34.0018 8.40688 33.7162 8.04904 33.3146 7.95698ZM37.5664 15.8942C37.8877 16.1235 38.321 16.1106 38.6277 15.8649L41.1708 13.8366C42.1078 14.6393 42.9657 15.5265 43.7261 16.4782C44.4849 17.4305 45.1593 18.4642 45.7333 19.5574L43.1949 21.5809C42.8882 21.8266 42.7786 22.2452 42.9299 22.6088C43.6001 24.2249 43.9889 25.9353 44.0856 27.6904C44.1067 28.0833 44.3864 28.4152 44.7705 28.5014L47.9398 29.2244C47.8976 30.4581 47.7381 31.6813 47.4672 32.8687C47.1963 34.0561 46.8075 35.2265 46.3115 36.357L43.1444 35.634C42.7621 35.5455 42.3669 35.7225 42.1757 36.0667C41.3266 37.5989 40.2335 38.9693 38.9249 40.1398C38.6305 40.4025 38.5466 40.827 38.7167 41.18L40.1269 44.1096C39.1348 44.8449 38.0798 45.4841 36.9828 46.0136C35.8857 46.5431 34.7277 46.9677 33.5343 47.2849L32.124 44.3553C31.9751 44.0463 31.6637 43.8551 31.3295 43.8551C31.2814 43.8551 31.231 43.8592 31.1823 43.868C30.3104 44.0152 29.4338 44.0909 28.5765 44.0909C27.7192 44.0909 26.8425 44.0152 25.9707 43.868C25.5819 43.8029 25.1996 44.0005 25.029 44.3553L23.6187 47.2849C22.4249 46.9694 21.2692 46.5431 20.1702 46.0136C19.0731 45.4859 18.0182 44.8473 17.0261 44.1096L18.4363 41.18C18.6064 40.8246 18.5225 40.4001 18.2305 40.1398C16.9211 38.9693 15.8263 37.5989 14.9796 36.0667C14.7885 35.722 14.3956 35.5454 14.0109 35.634L10.8439 36.357C10.3478 35.2265 9.95903 34.0561 9.68812 32.8687C9.41721 31.6813 9.25947 30.458 9.2155 29.2244L12.3848 28.5014C12.7695 28.4128 13.0492 28.0833 13.0697 27.6904C13.1665 25.9355 13.5552 24.2273 14.2255 22.6088C14.3768 22.2453 14.2677 21.8248 13.9604 21.5809L11.422 19.5574C11.9955 18.4644 12.6681 17.4306 13.4292 16.4782C14.1897 15.526 15.0453 14.6394 15.9846 13.8366L18.5276 15.8649C18.8343 16.1106 19.2694 16.1235 19.589 15.8942C21.0203 14.8768 22.5983 14.1163 24.2794 13.6332C24.6576 13.5241 24.9185 13.1794 24.9185 12.7841L24.9168 9.53329C27.3398 9.06653 29.8096 9.06653 32.2324 9.53329V12.7825C32.2324 13.1754 32.4927 13.5225 32.8715 13.6316C34.5563 14.1147 36.1347 14.8776 37.566 15.8944L37.5664 15.8942Z" fill="#1742E7"></path><path d="M18.4279 28.1622C18.4279 33.7585 22.9823 38.313 28.5787 38.313C34.175 38.313 38.7295 33.7585 38.7295 28.1622C38.7295 22.5658 34.175 18.0114 28.5787 18.0114C22.9823 18.012 18.4279 22.5634 18.4279 28.1622ZM36.9638 28.1622C36.9638 32.7858 33.2021 36.5473 28.5787 36.5473C23.9552 36.5473 20.1935 32.7857 20.1935 28.1622C20.1935 23.5387 23.9552 19.777 28.5787 19.777C33.2021 19.777 36.9638 23.5369 36.9638 28.1622Z" fill="#1742E7"></path><path d="M24.9998 27.7689C24.6533 27.4264 24.0939 27.4282 23.7514 27.7753C23.409 28.1219 23.4107 28.6813 23.7579 29.0237L26.8622 32.098C27.0346 32.2681 27.2592 32.3543 27.4843 32.3543C27.7113 32.3543 27.9364 32.2681 28.1082 32.0957L33.8454 26.3585C34.1902 26.0137 34.1902 25.4549 33.8454 25.1101C33.5006 24.7653 32.9418 24.7653 32.597 25.1101L27.4821 30.2251L24.9998 27.7689Z" fill="#1742E7"></path><path d="M37.6213 7.84139C37.7515 8.20084 38.0898 8.42367 38.4516 8.42367C38.5525 8.42367 38.6533 8.40666 38.7524 8.37089C39.2104 8.20494 39.4479 7.69831 39.2819 7.24036L38.2605 4.42394C48.1169 8.35615 54.6167 17.8508 54.6167 28.6026C54.6167 42.9606 42.9362 54.6412 28.5782 54.6412C23.4731 54.6412 18.5305 53.1635 14.2852 50.3707C13.8776 50.1015 13.3311 50.2153 13.062 50.6228C12.7928 51.0303 12.9066 51.5768 13.3141 51.846C17.8492 54.8301 23.1266 56.4062 28.5761 56.4062C36.0033 56.4062 42.9846 53.5142 48.2364 48.2626C53.4883 43.0111 56.38 36.0296 56.38 28.6023C56.38 22.5896 54.4931 16.8695 50.9203 12.0554C47.911 7.99935 43.9453 4.89096 39.3551 2.96591L41.6918 2.11919C42.1497 1.95324 42.3872 1.44661 42.2213 0.988656C42.0553 0.530692 41.5487 0.293212 41.0907 0.459162L36.4883 2.12797C36.2678 2.20772 36.0889 2.3719 35.9904 2.58418C35.8919 2.79645 35.8814 3.03803 35.9611 3.25851L37.6213 7.84139Z" fill="#1742E7"></path><path d="M5.60223 48.0221C5.11495 48.0221 4.71973 48.4173 4.71973 48.9046C4.71973 49.3919 5.11495 49.7871 5.60223 49.7871H10.8984C11.3856 49.7871 11.7809 49.3919 11.7809 48.9046V44.05C11.7809 43.5627 11.3856 43.1675 10.8984 43.1675C10.4111 43.1675 10.0159 43.5627 10.0159 44.05V46.8557C5.24513 42.0011 2.5407 35.4564 2.5407 28.6035C2.5407 14.2455 14.2213 2.56491 28.5793 2.56491C30.0165 2.56491 31.4607 2.68277 32.8663 2.91614C33.3454 2.99589 33.8016 2.67045 33.8814 2.18903C33.9611 1.70762 33.6357 1.25375 33.1543 1.17401C31.6513 0.925977 30.1133 0.799897 28.577 0.799897C21.1499 0.799897 14.1686 3.69197 8.91673 8.94352C3.66623 14.1928 0.774902 21.1765 0.774902 28.6038C0.774902 35.8901 3.6353 42.8464 8.6851 48.0224L5.60223 48.0221Z" fill="#1742E7"></path><path d="M33.3146 7.95698C31.7513 7.59988 30.1582 7.41692 28.5778 7.41692C26.9974 7.41692 25.4026 7.59752 23.841 7.95698C23.4393 8.04963 23.1561 8.40673 23.1561 8.81662V12.1308C21.7312 12.6017 20.3778 13.2531 19.1212 14.077L16.5277 12.0089C16.2063 11.7527 15.7501 11.7527 15.4288 12.0089C14.174 13.0069 13.0393 14.1398 12.0537 15.3759C11.068 16.6115 10.2148 17.9713 9.52111 19.4173C9.34227 19.7873 9.44547 20.2329 9.7668 20.4892L12.3556 22.555C11.8343 23.9629 11.5001 25.4277 11.3617 26.9265L8.12965 27.6641C7.72798 27.7568 7.44476 28.1116 7.44242 28.5238C7.44008 30.1276 7.61892 31.7225 7.97016 33.2628C8.32139 34.8032 8.85266 36.3184 9.5504 37.7622C9.72924 38.1322 10.1409 38.3298 10.5426 38.2395L13.7746 37.5018C14.5498 38.786 15.4874 39.9587 16.5699 41.0031L15.1303 43.9912C14.9515 44.3612 15.0523 44.8069 15.3743 45.0631C16.6268 46.0635 17.9843 46.9189 19.4092 47.6039C20.834 48.2889 22.3493 48.8189 23.9107 49.1736C24.3124 49.2663 24.7217 49.0663 24.9029 48.6963L26.3424 45.7082C27.843 45.9035 29.3225 45.9035 30.823 45.7082L32.2626 48.6963C32.4115 49.0071 32.7246 49.1965 33.0571 49.1965C33.1222 49.1965 33.1873 49.1901 33.2524 49.1754C34.8157 48.82 36.3315 48.2929 37.754 47.6057C39.1789 46.9208 40.5363 46.0652 41.7889 45.0648C42.1102 44.8086 42.211 44.363 42.0328 43.993L40.5932 41.0048C41.6757 39.9605 42.6127 38.7876 43.3885 37.5036L46.6206 38.2412C47.0222 38.3315 47.4339 38.1339 47.6127 37.7639C48.3105 36.3203 48.8424 34.8069 49.193 33.2646C49.5442 31.7241 49.7225 30.1292 49.7207 28.5255C49.7207 28.1139 49.4351 27.7562 49.0335 27.6659L45.8014 26.9282C45.6607 25.43 45.3288 23.9653 44.8075 22.5568L47.3963 20.4909C47.7177 20.2347 47.8185 19.789 47.642 19.419C46.9483 17.973 46.0951 16.6155 45.1095 15.3777C44.1238 14.1422 42.9891 13.0094 41.7343 12.009C41.413 11.7528 40.9568 11.7528 40.6354 12.009L38.042 14.0771C36.783 13.2533 35.4319 12.6018 34.0071 12.1309L34.0059 8.81852C34.0018 8.40688 33.7162 8.04904 33.3146 7.95698ZM37.5664 15.8942C37.8877 16.1235 38.321 16.1106 38.6277 15.8649L41.1708 13.8366C42.1078 14.6393 42.9657 15.5265 43.7261 16.4782C44.4849 17.4305 45.1593 18.4642 45.7333 19.5574L43.1949 21.5809C42.8882 21.8266 42.7786 22.2452 42.9299 22.6088C43.6001 24.2249 43.9889 25.9353 44.0856 27.6904C44.1067 28.0833 44.3864 28.4152 44.7705 28.5014L47.9398 29.2244C47.8976 30.4581 47.7381 31.6813 47.4672 32.8687C47.1963 34.0561 46.8075 35.2265 46.3115 36.357L43.1444 35.634C42.7621 35.5455 42.3669 35.7225 42.1757 36.0667C41.3266 37.5989 40.2335 38.9693 38.9249 40.1398C38.6305 40.4025 38.5466 40.827 38.7167 41.18L40.1269 44.1096C39.1348 44.8449 38.0798 45.4841 36.9828 46.0136C35.8857 46.5431 34.7277 46.9677 33.5343 47.2849L32.124 44.3553C31.9751 44.0463 31.6637 43.8551 31.3295 43.8551C31.2814 43.8551 31.231 43.8592 31.1823 43.868C30.3104 44.0152 29.4338 44.0909 28.5765 44.0909C27.7192 44.0909 26.8425 44.0152 25.9707 43.868C25.5819 43.8029 25.1996 44.0005 25.029 44.3553L23.6187 47.2849C22.4249 46.9694 21.2692 46.5431 20.1702 46.0136C19.0731 45.4859 18.0182 44.8473 17.0261 44.1096L18.4363 41.18C18.6064 40.8246 18.5225 40.4001 18.2305 40.1398C16.9211 38.9693 15.8263 37.5989 14.9796 36.0667C14.7885 35.722 14.3956 35.5454 14.0109 35.634L10.8439 36.357C10.3478 35.2265 9.95903 34.0561 9.68812 32.8687C9.41721 31.6813 9.25947 30.458 9.2155 29.2244L12.3848 28.5014C12.7695 28.4128 13.0492 28.0833 13.0697 27.6904C13.1665 25.9355 13.5552 24.2273 14.2255 22.6088C14.3768 22.2453 14.2677 21.8248 13.9604 21.5809L11.422 19.5574C11.9955 18.4644 12.6681 17.4306 13.4292 16.4782C14.1897 15.526 15.0453 14.6394 15.9846 13.8366L18.5276 15.8649C18.8343 16.1106 19.2694 16.1235 19.589 15.8942C21.0203 14.8768 22.5983 14.1163 24.2794 13.6332C24.6576 13.5241 24.9185 13.1794 24.9185 12.7841L24.9168 9.53329C27.3398 9.06653 29.8096 9.06653 32.2324 9.53329V12.7825C32.2324 13.1754 32.4927 13.5225 32.8715 13.6316C34.5563 14.1147 36.1347 14.8776 37.566 15.8944L37.5664 15.8942Z" stroke="#1742E7" stroke-width="0.56" mask="url(#path-1-inside-1_2818_1048)"></path><path d="M18.4279 28.1622C18.4279 33.7585 22.9823 38.313 28.5787 38.313C34.175 38.313 38.7295 33.7585 38.7295 28.1622C38.7295 22.5658 34.175 18.0114 28.5787 18.0114C22.9823 18.012 18.4279 22.5634 18.4279 28.1622ZM36.9638 28.1622C36.9638 32.7858 33.2021 36.5473 28.5787 36.5473C23.9552 36.5473 20.1935 32.7857 20.1935 28.1622C20.1935 23.5387 23.9552 19.777 28.5787 19.777C33.2021 19.777 36.9638 23.5369 36.9638 28.1622Z" stroke="#1742E7" stroke-width="0.56" mask="url(#path-1-inside-1_2818_1048)"></path><path d="M24.9998 27.7689C24.6533 27.4264 24.0939 27.4282 23.7514 27.7753C23.409 28.1219 23.4107 28.6813 23.7579 29.0237L26.8622 32.098C27.0346 32.2681 27.2592 32.3543 27.4843 32.3543C27.7113 32.3543 27.9364 32.2681 28.1082 32.0957L33.8454 26.3585C34.1902 26.0137 34.1902 25.4549 33.8454 25.1101C33.5006 24.7653 32.9418 24.7653 32.597 25.1101L27.4821 30.2251L24.9998 27.7689Z" stroke="#1742E7" stroke-width="0.56" mask="url(#path-1-inside-1_2818_1048)"></path><path d="M37.6213 7.84139C37.7515 8.20084 38.0898 8.42367 38.4516 8.42367C38.5525 8.42367 38.6533 8.40666 38.7524 8.37089C39.2104 8.20494 39.4479 7.69831 39.2819 7.24036L38.2605 4.42394C48.1169 8.35615 54.6167 17.8508 54.6167 28.6026C54.6167 42.9606 42.9362 54.6412 28.5782 54.6412C23.4731 54.6412 18.5305 53.1635 14.2852 50.3707C13.8776 50.1015 13.3311 50.2153 13.062 50.6228C12.7928 51.0303 12.9066 51.5768 13.3141 51.846C17.8492 54.8301 23.1266 56.4062 28.5761 56.4062C36.0033 56.4062 42.9846 53.5142 48.2364 48.2626C53.4883 43.0111 56.38 36.0296 56.38 28.6023C56.38 22.5896 54.4931 16.8695 50.9203 12.0554C47.911 7.99935 43.9453 4.89096 39.3551 2.96591L41.6918 2.11919C42.1497 1.95324 42.3872 1.44661 42.2213 0.988656C42.0553 0.530692 41.5487 0.293212 41.0907 0.459162L36.4883 2.12797C36.2678 2.20772 36.0889 2.3719 35.9904 2.58418C35.8919 2.79645 35.8814 3.03803 35.9611 3.25851L37.6213 7.84139Z" stroke="#1742E7" stroke-width="0.56" mask="url(#path-1-inside-1_2818_1048)"></path><path d="M5.60223 48.0221C5.11495 48.0221 4.71973 48.4173 4.71973 48.9046C4.71973 49.3919 5.11495 49.7871 5.60223 49.7871H10.8984C11.3856 49.7871 11.7809 49.3919 11.7809 48.9046V44.05C11.7809 43.5627 11.3856 43.1675 10.8984 43.1675C10.4111 43.1675 10.0159 43.5627 10.0159 44.05V46.8557C5.24513 42.0011 2.5407 35.4564 2.5407 28.6035C2.5407 14.2455 14.2213 2.56491 28.5793 2.56491C30.0165 2.56491 31.4607 2.68277 32.8663 2.91614C33.3454 2.99589 33.8016 2.67045 33.8814 2.18903C33.9611 1.70762 33.6357 1.25375 33.1543 1.17401C31.6513 0.925977 30.1133 0.799897 28.577 0.799897C21.1499 0.799897 14.1686 3.69197 8.91673 8.94352C3.66623 14.1928 0.774902 21.1765 0.774902 28.6038C0.774902 35.8901 3.6353 42.8464 8.6851 48.0224L5.60223 48.0221Z" stroke="#1742E7" stroke-width="0.56" mask="url(#path-1-inside-1_2818_1048)"></path></svg>