<svg xmlns="http://www.w3.org/2000/svg" viewBox="0 0 56 57" fill="none"><mask id="path-1-inside-1_2818_1046" fill="white"><path fill-rule="evenodd" clip-rule="evenodd" d="M3.53221 0.606768C2.00204 1.09845 0.828455 2.35341 0.399561 3.95665C0.28077 4.40097 0.253096 7.40782 0.252002 19.9858C0.250799 33.6281 0.270816 35.5454 0.420453 36.1199C0.760528 37.4257 1.60278 38.4718 2.79408 39.0678C3.2162 39.2789 3.61939 39.4517 3.68994 39.4517C3.76049 39.4517 3.90936 39.0949 4.02072 38.6587C4.13207 38.2225 4.24025 37.8165 4.26114 37.7563C4.28193 37.6961 4.07716 37.5558 3.80589 37.4445C3.19159 37.1924 2.50925 36.4344 2.33981 35.8158C2.24454 35.4683 2.22004 31.3837 2.24323 19.754L2.27429 4.15825L2.60638 3.61986C2.97971 3.01475 3.81464 2.44289 4.48735 2.33175C5.25982 2.2041 42.3063 2.25125 42.9098 2.38065C44.1284 2.64208 44.9359 3.681 45.0598 5.14751L45.1301 5.98025H46.0439H46.9576V5.17136C46.9576 3.04636 45.6515 1.22162 43.6988 0.618472C43.0097 0.405721 42.6384 0.401783 23.5653 0.40758C5.2958 0.413049 4.09783 0.424972 3.53221 0.606768ZM3.96974 5.05049V5.98025H4.9542H5.93865V5.05049V4.12073H4.9542H3.96974V5.05049ZM7.6888 5.05049V5.98025H8.67325H9.65771V5.05049V4.12073H8.67325H7.6888V5.05049ZM11.4079 5.05049V5.98025H12.3923H13.3768V5.05049V4.12073H12.3923H11.4079V5.05049ZM9.33218 8.01436C8.20137 8.31965 7.25301 9.02539 6.58314 10.0601C5.79175 11.2824 5.82927 10.4172 5.82927 27.463C5.82927 38.2622 5.86493 42.8919 5.95123 43.3022C6.32522 45.0806 7.65762 46.4942 9.37987 46.9399C9.93073 47.0825 11.0118 47.1086 16.3531 47.1086H22.6744V46.1242V45.1397L16.3028 45.1373C10.1294 45.135 9.91585 45.128 9.43894 44.9121C8.77793 44.6129 8.3696 44.2109 8.05884 43.5536L7.80037 43.0067V27.4742V11.9417L8.05786 11.3886C8.35899 10.7418 9.0421 10.1154 9.64218 9.93569C9.95676 9.8414 15.0222 9.80869 29.3107 9.80869H48.5554L49.124 10.092C49.4367 10.2479 49.8419 10.5555 50.0243 10.7756C50.7139 11.6078 50.6825 10.7599 50.6509 27.6988L50.622 43.1161L50.3088 43.711L49.9957 44.3061L50.637 44.8824C50.9897 45.1994 51.3275 45.4454 51.3877 45.4292C51.5907 45.3746 52.1648 44.4164 52.3527 43.8188C52.5255 43.2691 52.5371 42.0494 52.5104 27.2554L52.4815 11.2854L52.1219 10.5501C51.6244 9.53294 50.879 8.80072 49.8323 8.30094L48.9812 7.89447L29.4562 7.87358C12.5251 7.85542 9.85165 7.87413 9.33218 8.01436ZM9.5714 12.5159L9.60302 13.4731L10.5601 13.5047L11.5172 13.5363V12.5476V11.5588H10.5285H9.53979L9.5714 12.5159ZM13.3135 11.7058C13.2825 11.7867 13.2718 12.2173 13.2896 12.663L13.3221 13.4731L14.2792 13.5047L15.2363 13.5363V12.5476V11.5588H14.3031C13.6228 11.5588 13.3547 11.5987 13.3135 11.7058ZM17.0958 12.5433V13.5277H18.0256H18.9553V12.5433V11.5588H18.0256H17.0958V12.5433ZM37.6236 15.3508C37.5834 15.3909 37.5506 17.3532 37.5506 19.7114V23.9992L37.0857 23.9093C36.8301 23.8598 36.437 23.8173 36.2123 23.8146L35.8036 23.8098L35.7748 20.501L35.7458 17.1921H34.816H33.8862L33.8573 20.501L33.8284 23.8098L33.4197 23.8146C33.195 23.8173 32.8032 23.8596 32.5492 23.9087L32.0872 23.9982L32.057 22.4547L32.0267 20.9112H31.097H30.1672L30.1125 22.7455L30.0578 24.5799L29.2119 24.9923L28.3661 25.4047L28.3369 22.7204L28.3077 20.0361L27.3506 20.0045L26.3934 19.9729V23.357V26.741L25.4637 27.6898L24.5339 28.6386V25.2398V21.8409H23.6042H22.6744V26.8534V31.866L22.4008 32.6704C21.9137 34.1024 21.7521 35.2037 21.7627 37.0179L21.7724 38.6861H15.6604H9.54832V39.6149V40.5438L15.9041 40.5721L22.2598 40.6003L22.5066 41.2566C24.175 45.6922 27.8835 48.8224 32.496 49.6885C33.7317 49.9205 35.9041 49.919 37.1517 49.6853C38.7358 49.3884 40.7161 48.6048 41.8611 47.8217L42.2885 47.5294L46.7319 51.9678C51.0771 56.3085 51.1847 56.4062 51.6057 56.4062C52.0151 56.4062 52.1181 56.3242 53.7081 54.7342C55.2159 53.2266 55.3802 53.0253 55.3802 52.6863C55.3802 52.3371 55.0572 51.987 50.8209 47.7463L46.2615 43.1822L46.6612 42.3288C46.8811 41.8594 47.1286 41.2785 47.2113 41.0378L47.3617 40.6003L48.0894 40.5679L48.8172 40.5356V39.6108V38.6861H48.3384H47.8596L47.8693 37.0179C47.88 35.2037 47.7183 34.1024 47.2312 32.6704L46.9576 31.866V27.3457V22.8254H46.0279H45.0981V25.7352V28.6452L44.1683 27.6834L43.2386 26.7217V22.8551V18.9884L42.2815 19.02L41.3244 19.0516L41.2954 22.2278L41.2664 25.404L40.3929 24.9864L39.5195 24.5687V19.9233V15.2779H38.608C38.1066 15.2779 37.6636 15.3107 37.6236 15.3508ZM15.2363 31.1933V36.8265H16.1661H17.0958V31.1933V25.56H16.1661H15.2363V31.1933ZM37.0584 25.8765C42.2693 26.9577 45.9732 31.5071 45.9732 36.8265C45.9732 41.8679 42.5243 46.3153 37.6053 47.617C36.1002 48.0153 33.7267 48.0425 32.2666 47.6783C29.1753 46.907 26.6652 45.0285 25.1328 42.3396C21.3885 35.7691 25.1198 27.4552 32.5189 25.8824C33.7908 25.612 35.7714 25.6094 37.0584 25.8765ZM33.394 27.5397C30.0279 28.0521 27.0429 30.5756 25.9664 33.8185C24.7842 37.3802 25.7124 41.0448 28.4513 43.6286C30.2128 45.2902 32.3396 46.1242 34.816 46.1242C37.9868 46.1242 40.8325 44.6159 42.5755 42.0111C43.6596 40.391 44.1471 38.7383 44.1371 36.7171C44.1123 31.7425 40.1918 27.6899 35.1989 27.4779C34.5972 27.4524 33.7851 27.4802 33.394 27.5397ZM18.9553 32.6152V36.8265H19.8851H20.8149V32.6152V28.404H19.8851H18.9553V32.6152ZM33.8316 33.1622V36.8265H34.816H35.8005V33.1622V29.4978H36.0394C36.1708 29.4978 36.5646 29.5781 36.9144 29.6763L37.5506 29.8548V33.3407V36.8265H38.5351H39.5195V33.9825C39.5195 32.3241 39.5615 31.1386 39.6202 31.1386C39.8745 31.1386 40.9877 32.5808 41.4353 33.4903C42.1779 34.999 42.4222 36.6094 42.1296 38.0662L42.0052 38.6861H34.816H27.6269L27.5024 38.0662C27.1472 36.2979 27.6124 34.1836 28.7072 32.5901C29.1348 31.9679 29.8831 31.1386 30.017 31.1386C30.0695 31.1386 30.1125 32.4184 30.1125 33.9825V36.8265H31.097H32.0814V33.3402V29.854L32.6557 29.6847C32.9715 29.5917 33.3654 29.5115 33.5308 29.5067L33.8316 29.4978V33.1622ZM11.4808 31.2115C11.4407 31.2516 11.4079 32.5313 11.4079 34.0555V36.8265H12.3923H13.3768V33.9825V31.1386H12.4653C11.9638 31.1386 11.5208 31.1714 11.4808 31.2115ZM41.1603 40.6402C41.1603 40.9076 39.8044 42.3729 39.1077 42.8585C37.7734 43.7883 36.4687 44.1944 34.816 44.1944C33.1633 44.1944 31.8586 43.7883 30.5243 42.8585C29.8277 42.3729 28.4717 40.9076 28.4717 40.6402C28.4717 40.588 31.3187 40.5456 34.816 40.5456C38.3133 40.5456 41.1603 40.588 41.1603 40.6402ZM52.3177 53.398L51.6102 54.1118L47.7058 50.2086L43.8015 46.3054L44.4771 45.5654L45.1528 44.8253L49.089 48.7547L53.025 52.6842L52.3177 53.398Z"></path></mask><path fill-rule="evenodd" clip-rule="evenodd" d="M3.53221 0.606768C2.00204 1.09845 0.828455 2.35341 0.399561 3.95665C0.28077 4.40097 0.253096 7.40782 0.252002 19.9858C0.250799 33.6281 0.270816 35.5454 0.420453 36.1199C0.760528 37.4257 1.60278 38.4718 2.79408 39.0678C3.2162 39.2789 3.61939 39.4517 3.68994 39.4517C3.76049 39.4517 3.90936 39.0949 4.02072 38.6587C4.13207 38.2225 4.24025 37.8165 4.26114 37.7563C4.28193 37.6961 4.07716 37.5558 3.80589 37.4445C3.19159 37.1924 2.50925 36.4344 2.33981 35.8158C2.24454 35.4683 2.22004 31.3837 2.24323 19.754L2.27429 4.15825L2.60638 3.61986C2.97971 3.01475 3.81464 2.44289 4.48735 2.33175C5.25982 2.2041 42.3063 2.25125 42.9098 2.38065C44.1284 2.64208 44.9359 3.681 45.0598 5.14751L45.1301 5.98025H46.0439H46.9576V5.17136C46.9576 3.04636 45.6515 1.22162 43.6988 0.618472C43.0097 0.405721 42.6384 0.401783 23.5653 0.40758C5.2958 0.413049 4.09783 0.424972 3.53221 0.606768ZM3.96974 5.05049V5.98025H4.9542H5.93865V5.05049V4.12073H4.9542H3.96974V5.05049ZM7.6888 5.05049V5.98025H8.67325H9.65771V5.05049V4.12073H8.67325H7.6888V5.05049ZM11.4079 5.05049V5.98025H12.3923H13.3768V5.05049V4.12073H12.3923H11.4079V5.05049ZM9.33218 8.01436C8.20137 8.31965 7.25301 9.02539 6.58314 10.0601C5.79175 11.2824 5.82927 10.4172 5.82927 27.463C5.82927 38.2622 5.86493 42.8919 5.95123 43.3022C6.32522 45.0806 7.65762 46.4942 9.37987 46.9399C9.93073 47.0825 11.0118 47.1086 16.3531 47.1086H22.6744V46.1242V45.1397L16.3028 45.1373C10.1294 45.135 9.91585 45.128 9.43894 44.9121C8.77793 44.6129 8.3696 44.2109 8.05884 43.5536L7.80037 43.0067V27.4742V11.9417L8.05786 11.3886C8.35899 10.7418 9.0421 10.1154 9.64218 9.93569C9.95676 9.8414 15.0222 9.80869 29.3107 9.80869H48.5554L49.124 10.092C49.4367 10.2479 49.8419 10.5555 50.0243 10.7756C50.7139 11.6078 50.6825 10.7599 50.6509 27.6988L50.622 43.1161L50.3088 43.711L49.9957 44.3061L50.637 44.8824C50.9897 45.1994 51.3275 45.4454 51.3877 45.4292C51.5907 45.3746 52.1648 44.4164 52.3527 43.8188C52.5255 43.2691 52.5371 42.0494 52.5104 27.2554L52.4815 11.2854L52.1219 10.5501C51.6244 9.53294 50.879 8.80072 49.8323 8.30094L48.9812 7.89447L29.4562 7.87358C12.5251 7.85542 9.85165 7.87413 9.33218 8.01436ZM9.5714 12.5159L9.60302 13.4731L10.5601 13.5047L11.5172 13.5363V12.5476V11.5588H10.5285H9.53979L9.5714 12.5159ZM13.3135 11.7058C13.2825 11.7867 13.2718 12.2173 13.2896 12.663L13.3221 13.4731L14.2792 13.5047L15.2363 13.5363V12.5476V11.5588H14.3031C13.6228 11.5588 13.3547 11.5987 13.3135 11.7058ZM17.0958 12.5433V13.5277H18.0256H18.9553V12.5433V11.5588H18.0256H17.0958V12.5433ZM37.6236 15.3508C37.5834 15.3909 37.5506 17.3532 37.5506 19.7114V23.9992L37.0857 23.9093C36.8301 23.8598 36.437 23.8173 36.2123 23.8146L35.8036 23.8098L35.7748 20.501L35.7458 17.1921H34.816H33.8862L33.8573 20.501L33.8284 23.8098L33.4197 23.8146C33.195 23.8173 32.8032 23.8596 32.5492 23.9087L32.0872 23.9982L32.057 22.4547L32.0267 20.9112H31.097H30.1672L30.1125 22.7455L30.0578 24.5799L29.2119 24.9923L28.3661 25.4047L28.3369 22.7204L28.3077 20.0361L27.3506 20.0045L26.3934 19.9729V23.357V26.741L25.4637 27.6898L24.5339 28.6386V25.2398V21.8409H23.6042H22.6744V26.8534V31.866L22.4008 32.6704C21.9137 34.1024 21.7521 35.2037 21.7627 37.0179L21.7724 38.6861H15.6604H9.54832V39.6149V40.5438L15.9041 40.5721L22.2598 40.6003L22.5066 41.2566C24.175 45.6922 27.8835 48.8224 32.496 49.6885C33.7317 49.9205 35.9041 49.919 37.1517 49.6853C38.7358 49.3884 40.7161 48.6048 41.8611 47.8217L42.2885 47.5294L46.7319 51.9678C51.0771 56.3085 51.1847 56.4062 51.6057 56.4062C52.0151 56.4062 52.1181 56.3242 53.7081 54.7342C55.2159 53.2266 55.3802 53.0253 55.3802 52.6863C55.3802 52.3371 55.0572 51.987 50.8209 47.7463L46.2615 43.1822L46.6612 42.3288C46.8811 41.8594 47.1286 41.2785 47.2113 41.0378L47.3617 40.6003L48.0894 40.5679L48.8172 40.5356V39.6108V38.6861H48.3384H47.8596L47.8693 37.0179C47.88 35.2037 47.7183 34.1024 47.2312 32.6704L46.9576 31.866V27.3457V22.8254H46.0279H45.0981V25.7352V28.6452L44.1683 27.6834L43.2386 26.7217V22.8551V18.9884L42.2815 19.02L41.3244 19.0516L41.2954 22.2278L41.2664 25.404L40.3929 24.9864L39.5195 24.5687V19.9233V15.2779H38.608C38.1066 15.2779 37.6636 15.3107 37.6236 15.3508ZM15.2363 31.1933V36.8265H16.1661H17.0958V31.1933V25.56H16.1661H15.2363V31.1933ZM37.0584 25.8765C42.2693 26.9577 45.9732 31.5071 45.9732 36.8265C45.9732 41.8679 42.5243 46.3153 37.6053 47.617C36.1002 48.0153 33.7267 48.0425 32.2666 47.6783C29.1753 46.907 26.6652 45.0285 25.1328 42.3396C21.3885 35.7691 25.1198 27.4552 32.5189 25.8824C33.7908 25.612 35.7714 25.6094 37.0584 25.8765ZM33.394 27.5397C30.0279 28.0521 27.0429 30.5756 25.9664 33.8185C24.7842 37.3802 25.7124 41.0448 28.4513 43.6286C30.2128 45.2902 32.3396 46.1242 34.816 46.1242C37.9868 46.1242 40.8325 44.6159 42.5755 42.0111C43.6596 40.391 44.1471 38.7383 44.1371 36.7171C44.1123 31.7425 40.1918 27.6899 35.1989 27.4779C34.5972 27.4524 33.7851 27.4802 33.394 27.5397ZM18.9553 32.6152V36.8265H19.8851H20.8149V32.6152V28.404H19.8851H18.9553V32.6152ZM33.8316 33.1622V36.8265H34.816H35.8005V33.1622V29.4978H36.0394C36.1708 29.4978 36.5646 29.5781 36.9144 29.6763L37.5506 29.8548V33.3407V36.8265H38.5351H39.5195V33.9825C39.5195 32.3241 39.5615 31.1386 39.6202 31.1386C39.8745 31.1386 40.9877 32.5808 41.4353 33.4903C42.1779 34.999 42.4222 36.6094 42.1296 38.0662L42.0052 38.6861H34.816H27.6269L27.5024 38.0662C27.1472 36.2979 27.6124 34.1836 28.7072 32.5901C29.1348 31.9679 29.8831 31.1386 30.017 31.1386C30.0695 31.1386 30.1125 32.4184 30.1125 33.9825V36.8265H31.097H32.0814V33.3402V29.854L32.6557 29.6847C32.9715 29.5917 33.3654 29.5115 33.5308 29.5067L33.8316 29.4978V33.1622ZM11.4808 31.2115C11.4407 31.2516 11.4079 32.5313 11.4079 34.0555V36.8265H12.3923H13.3768V33.9825V31.1386H12.4653C11.9638 31.1386 11.5208 31.1714 11.4808 31.2115ZM41.1603 40.6402C41.1603 40.9076 39.8044 42.3729 39.1077 42.8585C37.7734 43.7883 36.4687 44.1944 34.816 44.1944C33.1633 44.1944 31.8586 43.7883 30.5243 42.8585C29.8277 42.3729 28.4717 40.9076 28.4717 40.6402C28.4717 40.588 31.3187 40.5456 34.816 40.5456C38.3133 40.5456 41.1603 40.588 41.1603 40.6402ZM52.3177 53.398L51.6102 54.1118L47.7058 50.2086L43.8015 46.3054L44.4771 45.5654L45.1528 44.8253L49.089 48.7547L53.025 52.6842L52.3177 53.398Z" fill="#1742E7" stroke="#1742E7" stroke-width="0.56" mask="url(#path-1-inside-1_2818_1046)"></path></svg>