<svg xmlns="http://www.w3.org/2000/svg" viewBox="0 0 55 55" fill="none"><mask id="path-1-inside-1_2821_1075" fill="white"><path d="M23.0241 43.9549H24.7661V45.6968H23.0241V43.9549Z"></path><path d="M29.9919 43.9549H31.7338V45.6968H29.9919V43.9549Z"></path><path d="M26.508 43.9549H28.2499V45.6968H26.508V43.9549Z"></path><path d="M10.8306 38.7291H19.5403V30.0194H10.8306V38.7291ZM12.5725 31.7613H17.7983V36.9871H12.5725V31.7613Z"></path><path d="M10.8306 23.0516H19.5403V24.7936H10.8306V23.0516Z"></path><path d="M10.8306 26.5355H16.0564V28.2774H10.8306V26.5355Z"></path><path d="M17.7983 26.5355H19.5403V28.2774H17.7983V26.5355Z"></path><path d="M43.9273 33.5033H33.4757V38.7291H43.9273V33.5033ZM42.1854 36.9871H35.2177V35.2452H42.1854V36.9871Z"></path><path d="M42.1854 30.0194H43.9273V31.7613H42.1854V30.0194Z"></path><path d="M33.4757 30.0194H40.4435V31.7613H33.4757V30.0194Z"></path><path d="M33.4757 26.5355H43.9273V28.2774H33.4757V26.5355Z"></path><path d="M36.9596 23.0516H43.9273V24.7936H36.9596V23.0516Z"></path><path d="M10.1746 10.665L11.8738 11.0507C12.5977 7.86115 15.3927 5.63236 18.6693 5.63236V3.89043C14.5742 3.89043 11.0806 6.67673 10.1746 10.665Z"></path><path d="M54.3789 16.9549C54.3789 12.6331 50.8628 9.11614 46.5402 9.11614C44.8018 9.11614 43.1991 9.69199 41.898 10.6524C40.2389 7.5702 37.051 5.63227 33.4757 5.63227C32.0196 5.63227 30.586 5.96743 29.2776 6.60938C27.1281 2.81286 23.0599 0.406494 18.6697 0.406494C13.1861 0.406494 8.45598 4.00076 6.9619 9.22348C3.22451 9.83044 0.379883 13.1121 0.379883 16.9549C0.379883 20.9824 3.43454 24.3076 7.34762 24.7423V44.8263C7.34762 47.2277 9.30107 49.1811 11.7025 49.1811H18.6702V52.665H15.1863V54.4069H39.5734V52.665H36.0895V49.1811H43.0573C45.4586 49.1811 47.4121 47.2277 47.4121 44.8263V24.7423C51.3252 24.3075 54.3798 20.9824 54.3798 16.9549L54.3789 16.9549ZM23.1635 25.3014C23.6145 25.5895 23.8952 26.1463 23.8952 26.7533V28.2774C23.8952 30.1987 25.4579 31.7613 27.3791 31.7613C29.3003 31.7613 30.863 30.1987 30.863 28.2774V26.7167C30.863 26.1338 31.1503 25.5871 31.6138 25.2893C33.1057 24.3304 34.1882 22.9236 34.759 21.3097H43.0565C44.4971 21.3097 45.6694 22.482 45.6694 23.9226V40.471H9.08881V23.9226C9.08881 22.482 10.2611 21.3097 11.7017 21.3097H20.0004C20.5688 22.9225 21.649 24.3336 23.1635 25.3014ZM29.1211 28.2774C29.1211 29.2382 28.3399 30.0194 27.3792 30.0194C26.4184 30.0194 25.6372 29.2382 25.6372 28.2774H29.1211ZM26.5082 18.6968C26.5082 18.217 26.8986 17.8258 27.3792 17.8258C27.8597 17.8258 28.2501 18.217 28.2501 18.6968C28.2501 19.1766 27.8597 19.5678 27.3792 19.5678C26.8986 19.5678 26.5082 19.1766 26.5082 18.6968ZM29.1323 26.5355H28.2501V21.1495C29.2614 20.7891 29.992 19.831 29.992 18.6968C29.992 17.2562 28.8198 16.0839 27.3791 16.0839C25.9385 16.0839 24.7662 17.2562 24.7662 18.6968C24.7662 19.8306 25.4968 20.7887 26.5082 21.1495V26.5355H25.624C25.5594 25.4102 25.0046 24.4101 24.1005 23.8328C22.0903 22.5482 21.0303 20.2716 21.3336 17.8912C21.6813 15.159 23.9239 12.95 26.6641 12.6401C26.9071 12.6133 27.1474 12.6001 27.3861 12.6001C28.8893 12.6001 30.3074 13.1374 31.4396 14.1488C32.7328 15.3044 33.4759 16.9628 33.4759 18.6969C33.4759 20.7786 32.4281 22.6956 30.6713 23.8243C29.7517 24.4165 29.188 25.4208 29.1323 26.5355ZM34.3469 52.6646H20.4114V49.1807H34.3469V52.6646ZM43.0566 47.4388H11.7018C10.2611 47.4388 9.08885 46.2665 9.08885 44.8258V42.2129H45.6695V44.8258C45.6695 46.2665 44.4972 47.4388 43.0566 47.4388ZM47.3076 22.9979C46.8818 21.0409 45.1399 19.5681 43.0566 19.5681H35.163C35.1953 19.2807 35.2178 18.9907 35.2178 18.6971C35.2178 16.4676 34.2633 14.3361 32.5999 12.8504C30.9381 11.3646 28.7066 10.6589 26.4692 10.9097C22.9403 11.3087 20.0545 14.1525 19.6061 17.671C19.5241 18.3138 19.5365 18.9471 19.6046 19.5682H11.7017C9.61832 19.5682 7.87638 21.041 7.45066 22.998C4.45085 22.6193 2.12103 20.0569 2.12103 16.9553C2.12103 13.803 4.58234 11.1365 7.72479 10.8838L8.35896 10.8332L8.5036 10.2138C9.61296 5.46549 13.7936 2.14884 18.6695 2.14884C22.6978 2.14884 26.4099 4.51369 28.1257 8.17325L28.5402 9.05744L29.3719 8.54458C30.6131 7.77976 32.0319 7.3746 33.4759 7.3746C36.5565 7.3746 39.2721 9.14262 40.5587 11.9009C39.4028 13.2669 38.7017 15.0295 38.7017 16.9553H40.4436C40.4436 13.5935 43.1794 10.8585 46.5404 10.8585C49.9015 10.8585 52.6372 13.5935 52.6372 16.9553C52.6372 20.0569 50.3074 22.6191 47.3076 22.9979Z"></path></mask><path d="M23.0241 43.9549H24.7661V45.6968H23.0241V43.9549Z" fill="#1742E7"></path><path d="M29.9919 43.9549H31.7338V45.6968H29.9919V43.9549Z" fill="#1742E7"></path><path d="M26.508 43.9549H28.2499V45.6968H26.508V43.9549Z" fill="#1742E7"></path><path d="M10.8306 38.7291H19.5403V30.0194H10.8306V38.7291ZM12.5725 31.7613H17.7983V36.9871H12.5725V31.7613Z" fill="#1742E7"></path><path d="M10.8306 23.0516H19.5403V24.7936H10.8306V23.0516Z" fill="#1742E7"></path><path d="M10.8306 26.5355H16.0564V28.2774H10.8306V26.5355Z" fill="#1742E7"></path><path d="M17.7983 26.5355H19.5403V28.2774H17.7983V26.5355Z" fill="#1742E7"></path><path d="M43.9273 33.5033H33.4757V38.7291H43.9273V33.5033ZM42.1854 36.9871H35.2177V35.2452H42.1854V36.9871Z" fill="#1742E7"></path><path d="M42.1854 30.0194H43.9273V31.7613H42.1854V30.0194Z" fill="#1742E7"></path><path d="M33.4757 30.0194H40.4435V31.7613H33.4757V30.0194Z" fill="#1742E7"></path><path d="M33.4757 26.5355H43.9273V28.2774H33.4757V26.5355Z" fill="#1742E7"></path><path d="M36.9596 23.0516H43.9273V24.7936H36.9596V23.0516Z" fill="#1742E7"></path><path d="M10.1746 10.665L11.8738 11.0507C12.5977 7.86115 15.3927 5.63236 18.6693 5.63236V3.89043C14.5742 3.89043 11.0806 6.67673 10.1746 10.665Z" fill="#1742E7"></path><path d="M54.3789 16.9549C54.3789 12.6331 50.8628 9.11614 46.5402 9.11614C44.8018 9.11614 43.1991 9.69199 41.898 10.6524C40.2389 7.5702 37.051 5.63227 33.4757 5.63227C32.0196 5.63227 30.586 5.96743 29.2776 6.60938C27.1281 2.81286 23.0599 0.406494 18.6697 0.406494C13.1861 0.406494 8.45598 4.00076 6.9619 9.22348C3.22451 9.83044 0.379883 13.1121 0.379883 16.9549C0.379883 20.9824 3.43454 24.3076 7.34762 24.7423V44.8263C7.34762 47.2277 9.30107 49.1811 11.7025 49.1811H18.6702V52.665H15.1863V54.4069H39.5734V52.665H36.0895V49.1811H43.0573C45.4586 49.1811 47.4121 47.2277 47.4121 44.8263V24.7423C51.3252 24.3075 54.3798 20.9824 54.3798 16.9549L54.3789 16.9549ZM23.1635 25.3014C23.6145 25.5895 23.8952 26.1463 23.8952 26.7533V28.2774C23.8952 30.1987 25.4579 31.7613 27.3791 31.7613C29.3003 31.7613 30.863 30.1987 30.863 28.2774V26.7167C30.863 26.1338 31.1503 25.5871 31.6138 25.2893C33.1057 24.3304 34.1882 22.9236 34.759 21.3097H43.0565C44.4971 21.3097 45.6694 22.482 45.6694 23.9226V40.471H9.08881V23.9226C9.08881 22.482 10.2611 21.3097 11.7017 21.3097H20.0004C20.5688 22.9225 21.649 24.3336 23.1635 25.3014ZM29.1211 28.2774C29.1211 29.2382 28.3399 30.0194 27.3792 30.0194C26.4184 30.0194 25.6372 29.2382 25.6372 28.2774H29.1211ZM26.5082 18.6968C26.5082 18.217 26.8986 17.8258 27.3792 17.8258C27.8597 17.8258 28.2501 18.217 28.2501 18.6968C28.2501 19.1766 27.8597 19.5678 27.3792 19.5678C26.8986 19.5678 26.5082 19.1766 26.5082 18.6968ZM29.1323 26.5355H28.2501V21.1495C29.2614 20.7891 29.992 19.831 29.992 18.6968C29.992 17.2562 28.8198 16.0839 27.3791 16.0839C25.9385 16.0839 24.7662 17.2562 24.7662 18.6968C24.7662 19.8306 25.4968 20.7887 26.5082 21.1495V26.5355H25.624C25.5594 25.4102 25.0046 24.4101 24.1005 23.8328C22.0903 22.5482 21.0303 20.2716 21.3336 17.8912C21.6813 15.159 23.9239 12.95 26.6641 12.6401C26.9071 12.6133 27.1474 12.6001 27.3861 12.6001C28.8893 12.6001 30.3074 13.1374 31.4396 14.1488C32.7328 15.3044 33.4759 16.9628 33.4759 18.6969C33.4759 20.7786 32.4281 22.6956 30.6713 23.8243C29.7517 24.4165 29.188 25.4208 29.1323 26.5355ZM34.3469 52.6646H20.4114V49.1807H34.3469V52.6646ZM43.0566 47.4388H11.7018C10.2611 47.4388 9.08885 46.2665 9.08885 44.8258V42.2129H45.6695V44.8258C45.6695 46.2665 44.4972 47.4388 43.0566 47.4388ZM47.3076 22.9979C46.8818 21.0409 45.1399 19.5681 43.0566 19.5681H35.163C35.1953 19.2807 35.2178 18.9907 35.2178 18.6971C35.2178 16.4676 34.2633 14.3361 32.5999 12.8504C30.9381 11.3646 28.7066 10.6589 26.4692 10.9097C22.9403 11.3087 20.0545 14.1525 19.6061 17.671C19.5241 18.3138 19.5365 18.9471 19.6046 19.5682H11.7017C9.61832 19.5682 7.87638 21.041 7.45066 22.998C4.45085 22.6193 2.12103 20.0569 2.12103 16.9553C2.12103 13.803 4.58234 11.1365 7.72479 10.8838L8.35896 10.8332L8.5036 10.2138C9.61296 5.46549 13.7936 2.14884 18.6695 2.14884C22.6978 2.14884 26.4099 4.51369 28.1257 8.17325L28.5402 9.05744L29.3719 8.54458C30.6131 7.77976 32.0319 7.3746 33.4759 7.3746C36.5565 7.3746 39.2721 9.14262 40.5587 11.9009C39.4028 13.2669 38.7017 15.0295 38.7017 16.9553H40.4436C40.4436 13.5935 43.1794 10.8585 46.5404 10.8585C49.9015 10.8585 52.6372 13.5935 52.6372 16.9553C52.6372 20.0569 50.3074 22.6191 47.3076 22.9979Z" fill="#1742E7"></path><path d="M23.0241 43.9549H24.7661V45.6968H23.0241V43.9549Z" stroke="#1742E7" stroke-width="0.720006" mask="url(#path-1-inside-1_2821_1075)"></path><path d="M29.9919 43.9549H31.7338V45.6968H29.9919V43.9549Z" stroke="#1742E7" stroke-width="0.720006" mask="url(#path-1-inside-1_2821_1075)"></path><path d="M26.508 43.9549H28.2499V45.6968H26.508V43.9549Z" stroke="#1742E7" stroke-width="0.720006" mask="url(#path-1-inside-1_2821_1075)"></path><path d="M10.8306 38.7291H19.5403V30.0194H10.8306V38.7291ZM12.5725 31.7613H17.7983V36.9871H12.5725V31.7613Z" stroke="#1742E7" stroke-width="0.720006" mask="url(#path-1-inside-1_2821_1075)"></path><path d="M10.8306 23.0516H19.5403V24.7936H10.8306V23.0516Z" stroke="#1742E7" stroke-width="0.720006" mask="url(#path-1-inside-1_2821_1075)"></path><path d="M10.8306 26.5355H16.0564V28.2774H10.8306V26.5355Z" stroke="#1742E7" stroke-width="0.720006" mask="url(#path-1-inside-1_2821_1075)"></path><path d="M17.7983 26.5355H19.5403V28.2774H17.7983V26.5355Z" stroke="#1742E7" stroke-width="0.720006" mask="url(#path-1-inside-1_2821_1075)"></path><path d="M43.9273 33.5033H33.4757V38.7291H43.9273V33.5033ZM42.1854 36.9871H35.2177V35.2452H42.1854V36.9871Z" stroke="#1742E7" stroke-width="0.720006" mask="url(#path-1-inside-1_2821_1075)"></path><path d="M42.1854 30.0194H43.9273V31.7613H42.1854V30.0194Z" stroke="#1742E7" stroke-width="0.720006" mask="url(#path-1-inside-1_2821_1075)"></path><path d="M33.4757 30.0194H40.4435V31.7613H33.4757V30.0194Z" stroke="#1742E7" stroke-width="0.720006" mask="url(#path-1-inside-1_2821_1075)"></path><path d="M33.4757 26.5355H43.9273V28.2774H33.4757V26.5355Z" stroke="#1742E7" stroke-width="0.720006" mask="url(#path-1-inside-1_2821_1075)"></path><path d="M36.9596 23.0516H43.9273V24.7936H36.9596V23.0516Z" stroke="#1742E7" stroke-width="0.720006" mask="url(#path-1-inside-1_2821_1075)"></path><path d="M10.1746 10.665L11.8738 11.0507C12.5977 7.86115 15.3927 5.63236 18.6693 5.63236V3.89043C14.5742 3.89043 11.0806 6.67673 10.1746 10.665Z" stroke="#1742E7" stroke-width="0.720006" mask="url(#path-1-inside-1_2821_1075)"></path><path d="M54.3789 16.9549C54.3789 12.6331 50.8628 9.11614 46.5402 9.11614C44.8018 9.11614 43.1991 9.69199 41.898 10.6524C40.2389 7.5702 37.051 5.63227 33.4757 5.63227C32.0196 5.63227 30.586 5.96743 29.2776 6.60938C27.1281 2.81286 23.0599 0.406494 18.6697 0.406494C13.1861 0.406494 8.45598 4.00076 6.9619 9.22348C3.22451 9.83044 0.379883 13.1121 0.379883 16.9549C0.379883 20.9824 3.43454 24.3076 7.34762 24.7423V44.8263C7.34762 47.2277 9.30107 49.1811 11.7025 49.1811H18.6702V52.665H15.1863V54.4069H39.5734V52.665H36.0895V49.1811H43.0573C45.4586 49.1811 47.4121 47.2277 47.4121 44.8263V24.7423C51.3252 24.3075 54.3798 20.9824 54.3798 16.9549L54.3789 16.9549ZM23.1635 25.3014C23.6145 25.5895 23.8952 26.1463 23.8952 26.7533V28.2774C23.8952 30.1987 25.4579 31.7613 27.3791 31.7613C29.3003 31.7613 30.863 30.1987 30.863 28.2774V26.7167C30.863 26.1338 31.1503 25.5871 31.6138 25.2893C33.1057 24.3304 34.1882 22.9236 34.759 21.3097H43.0565C44.4971 21.3097 45.6694 22.482 45.6694 23.9226V40.471H9.08881V23.9226C9.08881 22.482 10.2611 21.3097 11.7017 21.3097H20.0004C20.5688 22.9225 21.649 24.3336 23.1635 25.3014ZM29.1211 28.2774C29.1211 29.2382 28.3399 30.0194 27.3792 30.0194C26.4184 30.0194 25.6372 29.2382 25.6372 28.2774H29.1211ZM26.5082 18.6968C26.5082 18.217 26.8986 17.8258 27.3792 17.8258C27.8597 17.8258 28.2501 18.217 28.2501 18.6968C28.2501 19.1766 27.8597 19.5678 27.3792 19.5678C26.8986 19.5678 26.5082 19.1766 26.5082 18.6968ZM29.1323 26.5355H28.2501V21.1495C29.2614 20.7891 29.992 19.831 29.992 18.6968C29.992 17.2562 28.8198 16.0839 27.3791 16.0839C25.9385 16.0839 24.7662 17.2562 24.7662 18.6968C24.7662 19.8306 25.4968 20.7887 26.5082 21.1495V26.5355H25.624C25.5594 25.4102 25.0046 24.4101 24.1005 23.8328C22.0903 22.5482 21.0303 20.2716 21.3336 17.8912C21.6813 15.159 23.9239 12.95 26.6641 12.6401C26.9071 12.6133 27.1474 12.6001 27.3861 12.6001C28.8893 12.6001 30.3074 13.1374 31.4396 14.1488C32.7328 15.3044 33.4759 16.9628 33.4759 18.6969C33.4759 20.7786 32.4281 22.6956 30.6713 23.8243C29.7517 24.4165 29.188 25.4208 29.1323 26.5355ZM34.3469 52.6646H20.4114V49.1807H34.3469V52.6646ZM43.0566 47.4388H11.7018C10.2611 47.4388 9.08885 46.2665 9.08885 44.8258V42.2129H45.6695V44.8258C45.6695 46.2665 44.4972 47.4388 43.0566 47.4388ZM47.3076 22.9979C46.8818 21.0409 45.1399 19.5681 43.0566 19.5681H35.163C35.1953 19.2807 35.2178 18.9907 35.2178 18.6971C35.2178 16.4676 34.2633 14.3361 32.5999 12.8504C30.9381 11.3646 28.7066 10.6589 26.4692 10.9097C22.9403 11.3087 20.0545 14.1525 19.6061 17.671C19.5241 18.3138 19.5365 18.9471 19.6046 19.5682H11.7017C9.61832 19.5682 7.87638 21.041 7.45066 22.998C4.45085 22.6193 2.12103 20.0569 2.12103 16.9553C2.12103 13.803 4.58234 11.1365 7.72479 10.8838L8.35896 10.8332L8.5036 10.2138C9.61296 5.46549 13.7936 2.14884 18.6695 2.14884C22.6978 2.14884 26.4099 4.51369 28.1257 8.17325L28.5402 9.05744L29.3719 8.54458C30.6131 7.77976 32.0319 7.3746 33.4759 7.3746C36.5565 7.3746 39.2721 9.14262 40.5587 11.9009C39.4028 13.2669 38.7017 15.0295 38.7017 16.9553H40.4436C40.4436 13.5935 43.1794 10.8585 46.5404 10.8585C49.9015 10.8585 52.6372 13.5935 52.6372 16.9553C52.6372 20.0569 50.3074 22.6191 47.3076 22.9979Z" stroke="#1742E7" stroke-width="0.720006" mask="url(#path-1-inside-1_2821_1075)"></path></svg>