<svg xmlns="http://www.w3.org/2000/svg" viewBox="0 0 50 50" fill="none"><path fill-rule="evenodd" clip-rule="evenodd" d="M2.0821 1.15424C1.54161 1.42355 1.10164 1.94032 0.942131 2.49292C0.87621 2.72153 0.853893 9.04394 0.872553 22.2006L0.900122 41.5716L1.18387 42.0306C1.35969 42.3149 1.64232 42.5976 1.92654 42.7734L2.38545 43.0572L5.91349 43.0838L9.44153 43.1105L9.66405 42.8736C9.95258 42.5664 9.9538 42.1427 9.66696 41.8374L9.44744 41.6038H6.17464H2.90176L2.62766 41.3297L2.35357 41.0556V22.0056V2.95568L2.62766 2.68158L2.90176 2.40749H13.2707H23.6396V5.01807V7.62875L23.9273 8.20451C24.2235 8.79723 24.7374 9.31691 25.2835 9.57609C25.837 9.83875 26.5333 9.90917 28.5753 9.90917H30.5786V11.5547V13.2001L30.8267 13.4301C31.1427 13.7228 31.5252 13.7241 31.8627 13.4335L32.1259 13.2072V10.9721C32.1259 8.90141 32.1114 8.70599 31.9297 8.31506C31.7998 8.03553 30.7314 6.82148 28.7638 4.71744C27.1304 2.97087 25.6915 1.46125 25.5662 1.3627C24.962 0.88737 25.4796 0.907156 13.6275 0.907156H2.57797L2.0821 1.15424ZM34.3469 1.12302C34.1929 1.28693 34.0565 1.75841 33.7806 3.08011C33.4655 4.59029 33.4327 4.85801 33.5339 5.09862C33.763 5.64353 34.5121 5.70279 34.832 5.2014C34.9075 5.08306 35.0882 4.40603 35.2336 3.69684L35.498 2.40749H36.1779C36.8061 2.40749 36.8614 2.42353 36.9057 2.61848C36.9322 2.73456 37.041 3.25143 37.1475 3.76717C37.4023 5.00176 37.5011 5.29911 37.6893 5.39869C37.7755 5.44417 38.2467 5.61521 38.7367 5.77865C39.2267 5.942 39.8876 6.22087 40.2053 6.39838C40.5232 6.5758 40.8918 6.72096 41.0245 6.72096C41.1671 6.72096 41.7361 6.41573 42.4158 5.97463L43.5659 5.2284L44.0539 5.70926C44.3223 5.97379 44.514 6.23578 44.4801 6.29148C44.4461 6.34718 44.1105 6.86546 43.7342 7.44327C43.3235 8.07398 43.0502 8.59244 43.0502 8.74078C43.0502 8.87666 43.194 9.2479 43.3699 9.56578C43.5457 9.88357 43.8032 10.4812 43.9421 10.8938C44.3392 12.0734 44.3787 12.1615 44.5519 12.2542C44.6417 12.3023 45.2162 12.4482 45.8284 12.5785C46.4407 12.7087 47.0366 12.8374 47.1526 12.8644C47.3476 12.9097 47.3636 12.9653 47.3636 13.5942V14.2749L46.0362 14.5472C45.1031 14.7386 44.6451 14.8771 44.4947 15.0133C44.3689 15.1272 44.1981 15.4914 44.0806 15.8963C43.9706 16.2753 43.6938 16.9485 43.4654 17.3924C43.2371 17.8362 43.0502 18.3192 43.0502 18.4658C43.0502 18.7814 43.4217 19.1925 43.7069 19.1925C44.1783 19.1925 44.4296 18.9336 44.911 17.9524C45.171 17.4225 45.4334 16.8149 45.4941 16.6023L45.6045 16.2156L47.0208 15.919C48.9702 15.5109 48.864 15.6449 48.864 13.5925C48.864 11.5305 48.951 11.6467 47.1292 11.2751C46.4072 11.1278 45.7659 10.9887 45.704 10.9658C45.6422 10.943 45.5202 10.7064 45.4328 10.4402C45.3454 10.1739 45.1502 9.69199 44.9988 9.36923L44.7237 8.78232L44.9363 8.43152C45.0532 8.23854 45.392 7.71587 45.6894 7.27008C46.321 6.3228 46.399 6.08969 46.2073 5.72304C45.9827 5.29339 44.1574 3.55534 43.8498 3.47807C43.5402 3.40043 43.566 3.38768 42.0472 4.37143L40.9973 5.05146L40.395 4.76686C40.0638 4.61036 39.5792 4.4125 39.3184 4.32717C39.0574 4.24174 38.8259 4.12312 38.8038 4.0633C38.7818 4.00357 38.6433 3.36396 38.496 2.64192C38.1245 0.820136 38.2407 0.907156 36.1786 0.907156C34.5996 0.907156 34.5435 0.913814 34.3469 1.12302ZM27.8362 8.29387C25.9513 8.32425 25.7024 8.25102 25.3509 7.56302C25.1543 7.17809 25.1399 7.03049 25.1399 5.38669V3.62342L27.2869 5.94575L29.434 8.26818L27.8362 8.29387ZM35.8673 7.51229C35.5478 7.65023 35.4547 7.81292 35.4547 8.2332C35.4547 8.65892 35.8216 8.97146 36.3215 8.97146C37.331 8.97146 38.6745 9.55349 39.4461 10.325C40.6109 11.4898 41.058 13.2347 40.6012 14.8321C40.2991 15.8881 40.2915 16.0228 40.5175 16.3101C40.7841 16.649 41.3271 16.6693 41.6258 16.3514C42.1114 15.8345 42.455 14.0674 42.2997 12.8851C42.1759 11.9426 42.0585 11.5699 41.6135 10.7062C41.0863 9.68299 40.09 8.68621 39.0649 8.1564C37.9053 7.55702 36.445 7.26295 35.8673 7.51229ZM5.02604 7.67273C4.73292 7.8493 4.61026 8.0555 4.60708 8.37704C4.60061 9.01441 5.57545 9.38893 6.2852 9.02181C6.57992 8.86944 6.66704 8.70871 6.66704 8.31778C6.66704 7.85146 6.39219 7.63006 5.76674 7.59274C5.44239 7.57343 5.13604 7.60653 5.02604 7.67273ZM9.15197 7.67817C8.65254 7.96455 8.59047 8.47128 9.00409 8.88491L9.27818 9.159H14.7313H20.1845L20.4586 8.88491C20.8143 8.52923 20.8143 8.19466 20.4586 7.83899L20.1845 7.56489L14.762 7.56771C10.8599 7.56977 9.2869 7.60071 9.15197 7.67817ZM4.79846 11.2815C4.53534 11.6159 4.5495 12.0199 4.83428 12.3045C5.0282 12.4986 5.15414 12.5348 5.63556 12.5348C6.11698 12.5348 6.24291 12.4986 6.43683 12.3045C6.7414 12.0001 6.7474 11.5176 6.45005 11.2383C6.27235 11.0714 6.12054 11.0344 5.61286 11.0344C5.05464 11.0344 4.97335 11.0591 4.79846 11.2815ZM8.92438 11.2815C8.66126 11.6159 8.67542 12.0199 8.96021 12.3045L9.19032 12.5348H14.7143H20.2382L20.4855 12.2876C20.7855 11.9875 20.8048 11.6202 20.5383 11.2815L20.344 11.0344H14.7313H9.11868L8.92438 11.2815ZM4.83428 14.6404C4.68913 14.7854 4.60407 14.9777 4.60407 15.1603C4.60407 15.343 4.68913 15.5352 4.83428 15.6803C5.03045 15.8766 5.15254 15.9105 5.66181 15.9105C6.38404 15.9105 6.66704 15.693 6.66704 15.1376C6.66704 14.6393 6.33696 14.4102 5.61868 14.4102C5.15526 14.4102 5.0267 14.4479 4.83428 14.6404ZM8.96021 14.6404C8.81505 14.7854 8.73 14.9777 8.73 15.1603C8.73 15.343 8.81505 15.5352 8.96021 15.6803L9.19032 15.9105H12.2727H15.355L15.559 15.6935C15.8563 15.377 15.8357 14.8561 15.5157 14.6046C15.2774 14.417 15.1621 14.4102 12.2295 14.4102H9.19032L8.96021 14.6404ZM23.0181 15.2728C22.4666 15.4526 21.8308 16.0243 21.5314 16.6097L21.2484 17.1627L21.216 19.256L21.1834 21.3492L17.9809 21.3498C14.591 21.3503 13.9409 21.4039 13.2438 21.74C12.5964 22.0519 11.8945 22.8 11.6279 23.462L11.4025 24.0217L11.3772 34.9363C11.3547 44.5592 11.369 45.9182 11.4976 46.4201C11.7775 47.5125 12.5144 48.3313 13.5747 48.7281C14.0852 48.9191 14.1643 48.9199 30.2802 48.8955L46.4728 48.871L46.9151 48.6667C47.5353 48.3801 48.2526 47.6762 48.5581 47.0542L48.8171 46.5267V35.1804V23.8342L48.5634 23.3178C48.0632 22.2991 47.1586 21.6293 46.0379 21.4474C45.7098 21.3942 43.996 21.3503 42.2297 21.35L39.018 21.3492V19.3367C39.018 16.9857 38.9308 16.6024 38.2453 15.9411C37.4249 15.1497 38.0589 15.2091 30.2504 15.1921C25.7451 15.1824 23.2085 15.2107 23.0181 15.2728ZM36.8101 16.7935C37.422 17.0492 37.4672 17.2197 37.501 19.3991L37.5313 21.3492H36.6805H35.8298V19.7544V18.1596L30.1332 18.1837L24.4366 18.2079L24.4109 19.7786L24.3852 21.3492H23.5853H22.7853L22.8139 19.3391L22.8425 17.329L23.1133 17.0465C23.2622 16.8912 23.4732 16.7466 23.5822 16.7252C23.6911 16.7037 26.6404 16.6805 30.1362 16.6734C35.4287 16.6628 36.5455 16.6829 36.8101 16.7935ZM34.3295 20.5522V21.3492H30.1567H25.9839V20.5522V19.7551H30.1567H34.3295V20.5522ZM46.2891 23.1196C46.7516 23.3297 47.1361 23.7692 47.2657 24.2356C47.3925 24.6922 47.3931 29.3504 47.2664 29.8066C47.1449 30.2442 46.4868 30.8374 45.9392 31.003C45.7169 31.0702 42.9611 31.619 39.8151 32.2226L34.095 33.3201L34.0482 31.8123C34.005 30.4241 33.9839 30.2801 33.7829 29.9982C33.3719 29.422 33.3197 29.4135 30.1567 29.4135C26.9672 29.4135 26.9569 29.4153 26.481 30.0389C26.2237 30.376 26.2176 30.4127 26.1864 31.8206C26.1654 32.7699 26.1201 33.2581 26.0531 33.2581C25.9973 33.2581 23.3743 32.7702 20.2243 32.1738C14.0483 31.0045 13.7421 30.9214 13.2537 30.2809L12.9966 29.9439V27.0228V24.1018L13.2468 23.7237C13.3932 23.5024 13.6653 23.2622 13.9032 23.1446L14.3094 22.9435L30.1098 22.9455C45.2364 22.9474 45.9263 22.9548 46.2891 23.1196ZM32.5313 33.8911C32.5017 36.7914 32.4953 36.8799 32.2817 37.3134C31.3795 39.1454 28.8607 39.1043 27.9874 37.2434C27.7712 36.7829 27.7673 36.7221 27.7664 33.8442L27.7655 30.9139H30.1636H32.5618L32.5313 33.8911ZM47.2614 46.136C47.1299 46.6247 46.5819 47.178 46.0956 47.313C45.584 47.455 14.7474 47.46 14.2365 47.3182C13.7957 47.1958 13.2438 46.721 13.0764 46.3202C12.9739 46.0748 12.9497 44.6917 12.9497 39.0649C12.9497 32.4801 12.9583 32.1165 13.1138 32.1817C13.2041 32.2196 13.4686 32.3258 13.7016 32.4176C14.0167 32.5417 25.7985 34.8522 26.1163 34.8522C26.1466 34.8522 26.1717 35.1793 26.172 35.579C26.1736 37.7004 26.943 39.1166 28.4931 39.8509C29.0848 40.1312 29.1912 40.1503 30.1567 40.1503C31.0776 40.1503 31.2452 40.1236 31.7203 39.9009C32.0129 39.7636 32.4501 39.4692 32.6916 39.2465C33.6926 38.3239 34.0479 37.4505 34.0487 35.9102L34.0494 34.8991L39.6515 33.8348C45.7579 32.6748 46.382 32.5392 46.9417 32.251L47.3167 32.0579L47.3408 38.9049C47.3575 43.6712 47.3334 45.8686 47.2614 46.136ZM29.6337 35.689C29.2743 36.0484 29.2777 36.3788 29.6447 36.7459C29.8814 36.9825 29.9792 37.021 30.2218 36.9725C30.5898 36.8989 30.7282 36.784 30.8419 36.4578C31.015 35.9612 30.6 35.4149 30.0496 35.4149C29.9716 35.4149 29.7845 35.5382 29.6337 35.689Z" fill="#1742E7" stroke="#1742E7" stroke-width="0.5"></path></svg>