<svg xmlns="http://www.w3.org/2000/svg" viewBox="0 0 56 57" fill="none"><mask id="path-1-inside-1_4747_1299" fill="white"><path d="M32.8365 7.95716C31.2733 7.60006 29.6801 7.4171 28.0997 7.4171C26.5193 7.4171 24.9245 7.5977 23.3629 7.95716C22.9613 8.04981 22.678 8.40692 22.678 8.8168V12.131C21.2531 12.6018 19.8997 13.2533 18.6431 14.0772L16.0496 12.0091C15.7283 11.7529 15.2721 11.7529 14.9508 12.0091C13.6959 13.0071 12.5613 14.14 11.5756 15.3761C10.5899 16.6116 9.73676 17.9714 9.04308 19.4175C8.86424 19.7875 8.96744 20.2331 9.28877 20.4894L11.8776 22.5552C11.3563 23.9631 11.0221 25.4279 10.8837 26.9267L7.65163 27.6643C7.24995 27.757 6.96674 28.1117 6.9644 28.524C6.96205 30.1278 7.1409 31.7227 7.49213 33.263C7.84337 34.8033 8.37463 36.3186 9.07237 37.7624C9.25121 38.1324 9.66285 38.33 10.0645 38.2397L13.2966 37.502C14.0718 38.7862 15.0094 39.9589 16.0919 41.0032L14.6523 43.9914C14.4735 44.3614 14.5743 44.807 14.8962 45.0633C16.1488 46.0637 17.5063 46.9191 18.9311 47.6041C20.356 48.2891 21.8712 48.8191 23.4327 49.1738C23.8344 49.2665 24.2437 49.0665 24.4249 48.6965L25.8644 45.7084C27.365 45.9036 28.8445 45.9036 30.345 45.7084L31.7845 48.6965C31.9335 49.0073 32.2466 49.1967 32.5791 49.1967C32.6442 49.1967 32.7093 49.1902 32.7744 49.1756C34.3376 48.8202 35.8535 48.2931 37.2759 47.6059C38.7008 46.921 40.0583 46.0654 41.3108 45.065C41.6322 44.8088 41.733 44.3631 41.5548 43.9931L40.1152 41.005C41.1977 39.9607 42.1347 38.7878 42.9105 37.5038L46.1425 38.2414C46.5442 38.3317 46.9558 38.1341 47.1347 37.7641C47.8325 36.3204 48.3643 34.807 48.7149 33.2648C49.0662 31.7243 49.2444 30.1294 49.2427 28.5257C49.2427 28.1141 48.9571 27.7564 48.5554 27.6661L45.3234 26.9284C45.1826 25.4302 44.8507 23.9655 44.3294 22.557L46.9183 20.4911C47.2396 20.2349 47.3405 19.7892 47.164 19.4192C46.4703 17.9732 45.6171 16.6157 44.6314 15.3779C43.6457 14.1424 42.5111 13.0096 41.2563 12.0092C40.935 11.753 40.4787 11.753 40.1574 12.0092L37.5639 14.0773C36.305 13.2534 34.9539 12.602 33.529 12.1311L33.5279 8.8187C33.5238 8.40706 33.2382 8.04923 32.8365 7.95716ZM37.0883 15.8944C37.4097 16.1236 37.843 16.1108 38.1497 15.8651L40.6928 13.8367C41.6298 14.6395 42.4876 15.5267 43.2481 16.4784C44.0069 17.4307 44.6812 18.4644 45.2553 19.5575L42.7169 21.5811C42.4102 21.8268 42.3005 22.2454 42.4518 22.609C43.1221 24.2251 43.5108 25.9355 43.6076 27.6906C43.6287 28.0835 43.9084 28.4154 44.2925 28.5016L47.4618 29.2246C47.4196 30.4583 47.2601 31.6815 46.9892 32.8689C46.7183 34.0563 46.3295 35.2267 45.8334 36.3572L42.6664 35.6342C42.284 35.5456 41.8888 35.7227 41.6977 36.0669C40.8486 37.5991 39.7555 38.9695 38.4468 40.1399C38.1525 40.4026 38.0686 40.8272 38.2387 41.1802L39.6489 44.1098C38.6567 44.8451 37.6018 45.4842 36.5048 46.0138C35.4077 46.5433 34.2496 46.9678 33.0562 47.2851L31.646 44.3555C31.4971 44.0465 31.1857 43.8553 30.8515 43.8553C30.8034 43.8553 30.7529 43.8594 30.7043 43.8682C29.8323 44.0154 28.9558 44.091 28.0985 44.091C27.2412 44.091 26.3645 44.0154 25.4927 43.8682C25.1039 43.8031 24.7216 44.0007 24.5509 44.3555L23.1407 47.2851C21.9468 46.9696 20.7911 46.5433 19.6922 46.0138C18.595 45.4861 17.5401 44.8475 16.548 44.1098L17.9583 41.1802C18.1283 40.8248 18.0445 40.4003 17.7525 40.1399C16.4431 38.9695 15.3483 37.5991 14.5016 36.0669C14.3105 35.7221 13.9176 35.5456 13.5329 35.6342L10.3658 36.3572C9.86976 35.2267 9.481 34.0563 9.21009 32.8689C8.93918 31.6814 8.78144 30.4582 8.73747 29.2246L11.9068 28.5016C12.2915 28.413 12.5712 28.0835 12.5917 27.6906C12.6885 25.9356 13.0772 24.2275 13.7474 22.609C13.8987 22.2454 13.7897 21.825 13.4824 21.5811L10.944 19.5575C11.5175 18.4645 12.1901 17.4307 12.9512 16.4784C13.7117 15.5261 14.5673 14.6395 15.5065 13.8367L18.0496 15.8651C18.3563 16.1108 18.7914 16.1237 19.1109 15.8944C20.5423 14.877 22.1202 14.1164 23.8014 13.6334C24.1796 13.5243 24.4405 13.1795 24.4405 12.7843L24.4388 9.53347C26.8617 9.06671 29.3315 9.06671 31.7544 9.53347V12.7827C31.7544 13.1755 32.0147 13.5227 32.3935 13.6317C34.0782 14.1149 35.6567 14.8778 37.088 15.8945L37.0883 15.8944Z"></path><path d="M17.9499 28.1624C17.9499 33.7587 22.5043 38.3131 28.1006 38.3131C33.697 38.3131 38.2514 33.7587 38.2514 28.1624C38.2514 22.566 33.697 18.0116 28.1006 18.0116C22.5043 18.0122 17.9499 22.5636 17.9499 28.1624ZM36.4858 28.1624C36.4858 32.786 32.7241 36.5475 28.1006 36.5475C23.4772 36.5475 19.7155 32.7858 19.7155 28.1624C19.7155 23.5389 23.4772 19.7772 28.1006 19.7772C32.7241 19.7772 36.4858 23.5371 36.4858 28.1624Z"></path><path d="M24.5218 27.7691C24.1752 27.4266 23.6158 27.4284 23.2734 27.7755C22.931 28.1221 22.9327 28.6815 23.2798 29.0239L26.3842 32.0982C26.5566 32.2683 26.7812 32.3545 27.0063 32.3545C27.2332 32.3545 27.4584 32.2683 27.6302 32.0959L33.3674 26.3587C33.7122 26.0139 33.7122 25.4551 33.3674 25.1103C33.0226 24.7655 32.4638 24.7655 32.119 25.1103L27.004 30.2253L24.5218 27.7691Z"></path><path d="M37.1433 7.84158C37.2735 8.20102 37.6118 8.42385 37.9736 8.42385C38.0745 8.42385 38.1753 8.40684 38.2744 8.37108C38.7324 8.20513 38.9698 7.69849 38.8039 7.24054L37.7824 4.42413C47.6388 8.35633 54.1387 17.851 54.1387 28.6028C54.1387 42.9608 42.4581 54.6414 28.1001 54.6414C22.9951 54.6414 18.0525 53.1637 13.8071 50.3708C13.3996 50.1017 12.8531 50.2154 12.584 50.623C12.3148 51.0305 12.4286 51.577 12.8361 51.8462C17.3712 54.8302 22.6485 56.4064 28.0981 56.4064C35.5252 56.4064 42.5065 53.5144 47.7584 48.2628C53.0102 43.0113 55.902 36.0298 55.902 28.6025C55.902 22.5898 54.0151 16.8697 50.4422 12.0556C47.4329 7.99953 43.4672 4.89114 38.8771 2.9661L41.2137 2.11937C41.6717 1.95342 41.9092 1.44679 41.7432 0.988839C41.5773 0.530875 41.0707 0.293395 40.6127 0.459345L36.0103 2.12815C35.7898 2.2079 35.6109 2.37208 35.5124 2.58436C35.4139 2.79663 35.4034 3.03821 35.4831 3.2587L37.1433 7.84158Z"></path><path d="M5.12421 48.0223C4.63692 48.0223 4.24171 48.4175 4.24171 48.9048C4.24171 49.3921 4.63692 49.7873 5.12421 49.7873H10.4203C10.9076 49.7873 11.3028 49.3921 11.3028 48.9048V44.0501C11.3028 43.5629 10.9076 43.1676 10.4203 43.1676C9.93306 43.1676 9.53784 43.5629 9.53784 44.0501V46.8559C4.7671 42.0013 2.06267 35.4566 2.06267 28.6037C2.06267 14.2457 13.7433 2.56509 28.1012 2.56509C29.5385 2.56509 30.9827 2.68296 32.3883 2.91633C32.8674 2.99607 33.3236 2.67064 33.4033 2.18921C33.4831 1.7078 33.1577 1.25393 32.6762 1.17419C31.1733 0.92616 29.6352 0.80008 28.099 0.80008C20.6718 0.80008 13.6905 3.69216 8.4387 8.94371C3.1882 14.193 0.296875 21.1767 0.296875 28.604C0.296875 35.8903 3.15728 42.8466 8.20707 48.0226L5.12421 48.0223Z"></path></mask><path d="M32.8365 7.95716C31.2733 7.60006 29.6801 7.4171 28.0997 7.4171C26.5193 7.4171 24.9245 7.5977 23.3629 7.95716C22.9613 8.04981 22.678 8.40692 22.678 8.8168V12.131C21.2531 12.6018 19.8997 13.2533 18.6431 14.0772L16.0496 12.0091C15.7283 11.7529 15.2721 11.7529 14.9508 12.0091C13.6959 13.0071 12.5613 14.14 11.5756 15.3761C10.5899 16.6116 9.73676 17.9714 9.04308 19.4175C8.86424 19.7875 8.96744 20.2331 9.28877 20.4894L11.8776 22.5552C11.3563 23.9631 11.0221 25.4279 10.8837 26.9267L7.65163 27.6643C7.24995 27.757 6.96674 28.1117 6.9644 28.524C6.96205 30.1278 7.1409 31.7227 7.49213 33.263C7.84337 34.8033 8.37463 36.3186 9.07237 37.7624C9.25121 38.1324 9.66285 38.33 10.0645 38.2397L13.2966 37.502C14.0718 38.7862 15.0094 39.9589 16.0919 41.0032L14.6523 43.9914C14.4735 44.3614 14.5743 44.807 14.8962 45.0633C16.1488 46.0637 17.5063 46.9191 18.9311 47.6041C20.356 48.2891 21.8712 48.8191 23.4327 49.1738C23.8344 49.2665 24.2437 49.0665 24.4249 48.6965L25.8644 45.7084C27.365 45.9036 28.8445 45.9036 30.345 45.7084L31.7845 48.6965C31.9335 49.0073 32.2466 49.1967 32.5791 49.1967C32.6442 49.1967 32.7093 49.1902 32.7744 49.1756C34.3376 48.8202 35.8535 48.2931 37.2759 47.6059C38.7008 46.921 40.0583 46.0654 41.3108 45.065C41.6322 44.8088 41.733 44.3631 41.5548 43.9931L40.1152 41.005C41.1977 39.9607 42.1347 38.7878 42.9105 37.5038L46.1425 38.2414C46.5442 38.3317 46.9558 38.1341 47.1347 37.7641C47.8325 36.3204 48.3643 34.807 48.7149 33.2648C49.0662 31.7243 49.2444 30.1294 49.2427 28.5257C49.2427 28.1141 48.9571 27.7564 48.5554 27.6661L45.3234 26.9284C45.1826 25.4302 44.8507 23.9655 44.3294 22.557L46.9183 20.4911C47.2396 20.2349 47.3405 19.7892 47.164 19.4192C46.4703 17.9732 45.6171 16.6157 44.6314 15.3779C43.6457 14.1424 42.5111 13.0096 41.2563 12.0092C40.935 11.753 40.4787 11.753 40.1574 12.0092L37.5639 14.0773C36.305 13.2534 34.9539 12.602 33.529 12.1311L33.5279 8.8187C33.5238 8.40706 33.2382 8.04923 32.8365 7.95716ZM37.0883 15.8944C37.4097 16.1236 37.843 16.1108 38.1497 15.8651L40.6928 13.8367C41.6298 14.6395 42.4876 15.5267 43.2481 16.4784C44.0069 17.4307 44.6812 18.4644 45.2553 19.5575L42.7169 21.5811C42.4102 21.8268 42.3005 22.2454 42.4518 22.609C43.1221 24.2251 43.5108 25.9355 43.6076 27.6906C43.6287 28.0835 43.9084 28.4154 44.2925 28.5016L47.4618 29.2246C47.4196 30.4583 47.2601 31.6815 46.9892 32.8689C46.7183 34.0563 46.3295 35.2267 45.8334 36.3572L42.6664 35.6342C42.284 35.5456 41.8888 35.7227 41.6977 36.0669C40.8486 37.5991 39.7555 38.9695 38.4468 40.1399C38.1525 40.4026 38.0686 40.8272 38.2387 41.1802L39.6489 44.1098C38.6567 44.8451 37.6018 45.4842 36.5048 46.0138C35.4077 46.5433 34.2496 46.9678 33.0562 47.2851L31.646 44.3555C31.4971 44.0465 31.1857 43.8553 30.8515 43.8553C30.8034 43.8553 30.7529 43.8594 30.7043 43.8682C29.8323 44.0154 28.9558 44.091 28.0985 44.091C27.2412 44.091 26.3645 44.0154 25.4927 43.8682C25.1039 43.8031 24.7216 44.0007 24.5509 44.3555L23.1407 47.2851C21.9468 46.9696 20.7911 46.5433 19.6922 46.0138C18.595 45.4861 17.5401 44.8475 16.548 44.1098L17.9583 41.1802C18.1283 40.8248 18.0445 40.4003 17.7525 40.1399C16.4431 38.9695 15.3483 37.5991 14.5016 36.0669C14.3105 35.7221 13.9176 35.5456 13.5329 35.6342L10.3658 36.3572C9.86976 35.2267 9.481 34.0563 9.21009 32.8689C8.93918 31.6814 8.78144 30.4582 8.73747 29.2246L11.9068 28.5016C12.2915 28.413 12.5712 28.0835 12.5917 27.6906C12.6885 25.9356 13.0772 24.2275 13.7474 22.609C13.8987 22.2454 13.7897 21.825 13.4824 21.5811L10.944 19.5575C11.5175 18.4645 12.1901 17.4307 12.9512 16.4784C13.7117 15.5261 14.5673 14.6395 15.5065 13.8367L18.0496 15.8651C18.3563 16.1108 18.7914 16.1237 19.1109 15.8944C20.5423 14.877 22.1202 14.1164 23.8014 13.6334C24.1796 13.5243 24.4405 13.1795 24.4405 12.7843L24.4388 9.53347C26.8617 9.06671 29.3315 9.06671 31.7544 9.53347V12.7827C31.7544 13.1755 32.0147 13.5227 32.3935 13.6317C34.0782 14.1149 35.6567 14.8778 37.088 15.8945L37.0883 15.8944Z" fill="#1742E7"></path><path d="M17.9499 28.1624C17.9499 33.7587 22.5043 38.3131 28.1006 38.3131C33.697 38.3131 38.2514 33.7587 38.2514 28.1624C38.2514 22.566 33.697 18.0116 28.1006 18.0116C22.5043 18.0122 17.9499 22.5636 17.9499 28.1624ZM36.4858 28.1624C36.4858 32.786 32.7241 36.5475 28.1006 36.5475C23.4772 36.5475 19.7155 32.7858 19.7155 28.1624C19.7155 23.5389 23.4772 19.7772 28.1006 19.7772C32.7241 19.7772 36.4858 23.5371 36.4858 28.1624Z" fill="#1742E7"></path><path d="M24.5218 27.7691C24.1752 27.4266 23.6158 27.4284 23.2734 27.7755C22.931 28.1221 22.9327 28.6815 23.2798 29.0239L26.3842 32.0982C26.5566 32.2683 26.7812 32.3545 27.0063 32.3545C27.2332 32.3545 27.4584 32.2683 27.6302 32.0959L33.3674 26.3587C33.7122 26.0139 33.7122 25.4551 33.3674 25.1103C33.0226 24.7655 32.4638 24.7655 32.119 25.1103L27.004 30.2253L24.5218 27.7691Z" fill="#1742E7"></path><path d="M37.1433 7.84158C37.2735 8.20102 37.6118 8.42385 37.9736 8.42385C38.0745 8.42385 38.1753 8.40684 38.2744 8.37108C38.7324 8.20513 38.9698 7.69849 38.8039 7.24054L37.7824 4.42413C47.6388 8.35633 54.1387 17.851 54.1387 28.6028C54.1387 42.9608 42.4581 54.6414 28.1001 54.6414C22.9951 54.6414 18.0525 53.1637 13.8071 50.3708C13.3996 50.1017 12.8531 50.2154 12.584 50.623C12.3148 51.0305 12.4286 51.577 12.8361 51.8462C17.3712 54.8302 22.6485 56.4064 28.0981 56.4064C35.5252 56.4064 42.5065 53.5144 47.7584 48.2628C53.0102 43.0113 55.902 36.0298 55.902 28.6025C55.902 22.5898 54.0151 16.8697 50.4422 12.0556C47.4329 7.99953 43.4672 4.89114 38.8771 2.9661L41.2137 2.11937C41.6717 1.95342 41.9092 1.44679 41.7432 0.988839C41.5773 0.530875 41.0707 0.293395 40.6127 0.459345L36.0103 2.12815C35.7898 2.2079 35.6109 2.37208 35.5124 2.58436C35.4139 2.79663 35.4034 3.03821 35.4831 3.2587L37.1433 7.84158Z" fill="#1742E7"></path><path d="M5.12421 48.0223C4.63692 48.0223 4.24171 48.4175 4.24171 48.9048C4.24171 49.3921 4.63692 49.7873 5.12421 49.7873H10.4203C10.9076 49.7873 11.3028 49.3921 11.3028 48.9048V44.0501C11.3028 43.5629 10.9076 43.1676 10.4203 43.1676C9.93306 43.1676 9.53784 43.5629 9.53784 44.0501V46.8559C4.7671 42.0013 2.06267 35.4566 2.06267 28.6037C2.06267 14.2457 13.7433 2.56509 28.1012 2.56509C29.5385 2.56509 30.9827 2.68296 32.3883 2.91633C32.8674 2.99607 33.3236 2.67064 33.4033 2.18921C33.4831 1.7078 33.1577 1.25393 32.6762 1.17419C31.1733 0.92616 29.6352 0.80008 28.099 0.80008C20.6718 0.80008 13.6905 3.69216 8.4387 8.94371C3.1882 14.193 0.296875 21.1767 0.296875 28.604C0.296875 35.8903 3.15728 42.8466 8.20707 48.0226L5.12421 48.0223Z" fill="#1742E7"></path><path d="M32.8365 7.95716C31.2733 7.60006 29.6801 7.4171 28.0997 7.4171C26.5193 7.4171 24.9245 7.5977 23.3629 7.95716C22.9613 8.04981 22.678 8.40692 22.678 8.8168V12.131C21.2531 12.6018 19.8997 13.2533 18.6431 14.0772L16.0496 12.0091C15.7283 11.7529 15.2721 11.7529 14.9508 12.0091C13.6959 13.0071 12.5613 14.14 11.5756 15.3761C10.5899 16.6116 9.73676 17.9714 9.04308 19.4175C8.86424 19.7875 8.96744 20.2331 9.28877 20.4894L11.8776 22.5552C11.3563 23.9631 11.0221 25.4279 10.8837 26.9267L7.65163 27.6643C7.24995 27.757 6.96674 28.1117 6.9644 28.524C6.96205 30.1278 7.1409 31.7227 7.49213 33.263C7.84337 34.8033 8.37463 36.3186 9.07237 37.7624C9.25121 38.1324 9.66285 38.33 10.0645 38.2397L13.2966 37.502C14.0718 38.7862 15.0094 39.9589 16.0919 41.0032L14.6523 43.9914C14.4735 44.3614 14.5743 44.807 14.8962 45.0633C16.1488 46.0637 17.5063 46.9191 18.9311 47.6041C20.356 48.2891 21.8712 48.8191 23.4327 49.1738C23.8344 49.2665 24.2437 49.0665 24.4249 48.6965L25.8644 45.7084C27.365 45.9036 28.8445 45.9036 30.345 45.7084L31.7845 48.6965C31.9335 49.0073 32.2466 49.1967 32.5791 49.1967C32.6442 49.1967 32.7093 49.1902 32.7744 49.1756C34.3376 48.8202 35.8535 48.2931 37.2759 47.6059C38.7008 46.921 40.0583 46.0654 41.3108 45.065C41.6322 44.8088 41.733 44.3631 41.5548 43.9931L40.1152 41.005C41.1977 39.9607 42.1347 38.7878 42.9105 37.5038L46.1425 38.2414C46.5442 38.3317 46.9558 38.1341 47.1347 37.7641C47.8325 36.3204 48.3643 34.807 48.7149 33.2648C49.0662 31.7243 49.2444 30.1294 49.2427 28.5257C49.2427 28.1141 48.9571 27.7564 48.5554 27.6661L45.3234 26.9284C45.1826 25.4302 44.8507 23.9655 44.3294 22.557L46.9183 20.4911C47.2396 20.2349 47.3405 19.7892 47.164 19.4192C46.4703 17.9732 45.6171 16.6157 44.6314 15.3779C43.6457 14.1424 42.5111 13.0096 41.2563 12.0092C40.935 11.753 40.4787 11.753 40.1574 12.0092L37.5639 14.0773C36.305 13.2534 34.9539 12.602 33.529 12.1311L33.5279 8.8187C33.5238 8.40706 33.2382 8.04923 32.8365 7.95716ZM37.0883 15.8944C37.4097 16.1236 37.843 16.1108 38.1497 15.8651L40.6928 13.8367C41.6298 14.6395 42.4876 15.5267 43.2481 16.4784C44.0069 17.4307 44.6812 18.4644 45.2553 19.5575L42.7169 21.5811C42.4102 21.8268 42.3005 22.2454 42.4518 22.609C43.1221 24.2251 43.5108 25.9355 43.6076 27.6906C43.6287 28.0835 43.9084 28.4154 44.2925 28.5016L47.4618 29.2246C47.4196 30.4583 47.2601 31.6815 46.9892 32.8689C46.7183 34.0563 46.3295 35.2267 45.8334 36.3572L42.6664 35.6342C42.284 35.5456 41.8888 35.7227 41.6977 36.0669C40.8486 37.5991 39.7555 38.9695 38.4468 40.1399C38.1525 40.4026 38.0686 40.8272 38.2387 41.1802L39.6489 44.1098C38.6567 44.8451 37.6018 45.4842 36.5048 46.0138C35.4077 46.5433 34.2496 46.9678 33.0562 47.2851L31.646 44.3555C31.4971 44.0465 31.1857 43.8553 30.8515 43.8553C30.8034 43.8553 30.7529 43.8594 30.7043 43.8682C29.8323 44.0154 28.9558 44.091 28.0985 44.091C27.2412 44.091 26.3645 44.0154 25.4927 43.8682C25.1039 43.8031 24.7216 44.0007 24.5509 44.3555L23.1407 47.2851C21.9468 46.9696 20.7911 46.5433 19.6922 46.0138C18.595 45.4861 17.5401 44.8475 16.548 44.1098L17.9583 41.1802C18.1283 40.8248 18.0445 40.4003 17.7525 40.1399C16.4431 38.9695 15.3483 37.5991 14.5016 36.0669C14.3105 35.7221 13.9176 35.5456 13.5329 35.6342L10.3658 36.3572C9.86976 35.2267 9.481 34.0563 9.21009 32.8689C8.93918 31.6814 8.78144 30.4582 8.73747 29.2246L11.9068 28.5016C12.2915 28.413 12.5712 28.0835 12.5917 27.6906C12.6885 25.9356 13.0772 24.2275 13.7474 22.609C13.8987 22.2454 13.7897 21.825 13.4824 21.5811L10.944 19.5575C11.5175 18.4645 12.1901 17.4307 12.9512 16.4784C13.7117 15.5261 14.5673 14.6395 15.5065 13.8367L18.0496 15.8651C18.3563 16.1108 18.7914 16.1237 19.1109 15.8944C20.5423 14.877 22.1202 14.1164 23.8014 13.6334C24.1796 13.5243 24.4405 13.1795 24.4405 12.7843L24.4388 9.53347C26.8617 9.06671 29.3315 9.06671 31.7544 9.53347V12.7827C31.7544 13.1755 32.0147 13.5227 32.3935 13.6317C34.0782 14.1149 35.6567 14.8778 37.088 15.8945L37.0883 15.8944Z" stroke="#1742E7" stroke-width="0.56" mask="url(#path-1-inside-1_4747_1299)"></path><path d="M17.9499 28.1624C17.9499 33.7587 22.5043 38.3131 28.1006 38.3131C33.697 38.3131 38.2514 33.7587 38.2514 28.1624C38.2514 22.566 33.697 18.0116 28.1006 18.0116C22.5043 18.0122 17.9499 22.5636 17.9499 28.1624ZM36.4858 28.1624C36.4858 32.786 32.7241 36.5475 28.1006 36.5475C23.4772 36.5475 19.7155 32.7858 19.7155 28.1624C19.7155 23.5389 23.4772 19.7772 28.1006 19.7772C32.7241 19.7772 36.4858 23.5371 36.4858 28.1624Z" stroke="#1742E7" stroke-width="0.56" mask="url(#path-1-inside-1_4747_1299)"></path><path d="M24.5218 27.7691C24.1752 27.4266 23.6158 27.4284 23.2734 27.7755C22.931 28.1221 22.9327 28.6815 23.2798 29.0239L26.3842 32.0982C26.5566 32.2683 26.7812 32.3545 27.0063 32.3545C27.2332 32.3545 27.4584 32.2683 27.6302 32.0959L33.3674 26.3587C33.7122 26.0139 33.7122 25.4551 33.3674 25.1103C33.0226 24.7655 32.4638 24.7655 32.119 25.1103L27.004 30.2253L24.5218 27.7691Z" stroke="#1742E7" stroke-width="0.56" mask="url(#path-1-inside-1_4747_1299)"></path><path d="M37.1433 7.84158C37.2735 8.20102 37.6118 8.42385 37.9736 8.42385C38.0745 8.42385 38.1753 8.40684 38.2744 8.37108C38.7324 8.20513 38.9698 7.69849 38.8039 7.24054L37.7824 4.42413C47.6388 8.35633 54.1387 17.851 54.1387 28.6028C54.1387 42.9608 42.4581 54.6414 28.1001 54.6414C22.9951 54.6414 18.0525 53.1637 13.8071 50.3708C13.3996 50.1017 12.8531 50.2154 12.584 50.623C12.3148 51.0305 12.4286 51.577 12.8361 51.8462C17.3712 54.8302 22.6485 56.4064 28.0981 56.4064C35.5252 56.4064 42.5065 53.5144 47.7584 48.2628C53.0102 43.0113 55.902 36.0298 55.902 28.6025C55.902 22.5898 54.0151 16.8697 50.4422 12.0556C47.4329 7.99953 43.4672 4.89114 38.8771 2.9661L41.2137 2.11937C41.6717 1.95342 41.9092 1.44679 41.7432 0.988839C41.5773 0.530875 41.0707 0.293395 40.6127 0.459345L36.0103 2.12815C35.7898 2.2079 35.6109 2.37208 35.5124 2.58436C35.4139 2.79663 35.4034 3.03821 35.4831 3.2587L37.1433 7.84158Z" stroke="#1742E7" stroke-width="0.56" mask="url(#path-1-inside-1_4747_1299)"></path><path d="M5.12421 48.0223C4.63692 48.0223 4.24171 48.4175 4.24171 48.9048C4.24171 49.3921 4.63692 49.7873 5.12421 49.7873H10.4203C10.9076 49.7873 11.3028 49.3921 11.3028 48.9048V44.0501C11.3028 43.5629 10.9076 43.1676 10.4203 43.1676C9.93306 43.1676 9.53784 43.5629 9.53784 44.0501V46.8559C4.7671 42.0013 2.06267 35.4566 2.06267 28.6037C2.06267 14.2457 13.7433 2.56509 28.1012 2.56509C29.5385 2.56509 30.9827 2.68296 32.3883 2.91633C32.8674 2.99607 33.3236 2.67064 33.4033 2.18921C33.4831 1.7078 33.1577 1.25393 32.6762 1.17419C31.1733 0.92616 29.6352 0.80008 28.099 0.80008C20.6718 0.80008 13.6905 3.69216 8.4387 8.94371C3.1882 14.193 0.296875 21.1767 0.296875 28.604C0.296875 35.8903 3.15728 42.8466 8.20707 48.0226L5.12421 48.0223Z" stroke="#1742E7" stroke-width="0.56" mask="url(#path-1-inside-1_4747_1299)"></path></svg>