<svg xmlns="http://www.w3.org/2000/svg" viewBox="0 0 55 55" fill="none"><mask id="path-1-inside-1_2820_1051" fill="white"><path fill-rule="evenodd" clip-rule="evenodd" d="M2.77355 0.536908C1.91084 0.784147 0.970058 1.77058 0.769811 2.63786C0.699545 2.94209 0.662302 11.4775 0.660508 27.6226C0.658082 51.569 0.662724 52.1546 0.859806 52.5403C1.12663 53.0625 1.79014 53.7351 2.37727 54.0787L2.8512 54.356L16.235 54.3229C26.464 54.2975 29.7088 54.2593 30.0002 54.1604C30.4423 54.0104 31.3445 53.1021 31.655 52.4945C31.8585 52.0961 31.8697 51.8476 31.904 46.9541C31.9238 44.1362 31.9706 41.8002 32.0079 41.7629C32.0961 41.675 34.6544 42.959 35.2365 43.3835C35.4913 43.5693 35.9379 44.0943 36.2721 44.6009C37.7889 46.9005 39.9393 47.842 42.2836 47.2331C43.2653 46.978 48.1479 44.3948 48.3456 44.0258C48.6096 43.5334 48.2419 42.8667 47.7065 42.8667C47.5231 42.8667 46.3905 43.3758 44.8997 44.1286C41.9089 45.6384 41.5933 45.7544 40.6546 45.6873C39.3532 45.5942 38.6028 45.0979 37.7365 43.7572C36.6891 42.1361 36.5628 42.0547 30.0453 38.8069C23.4806 35.5355 22.9616 35.2522 22.6298 34.7607C22.0837 33.9516 22.5177 32.5527 23.468 32.0591C24.104 31.7287 24.464 31.8386 27.1638 33.1873C29.9434 34.5759 30.0003 34.5898 30.4454 33.9929L30.6605 33.7044L29.7887 31.9387C29.3093 30.9675 27.632 27.7161 26.0614 24.7132C23.0129 18.8852 22.7148 18.2608 22.7109 17.6968C22.7068 17.1131 23.0974 16.4425 23.6467 16.09C24.073 15.8164 24.2077 15.7831 24.7444 15.8193C25.2519 15.8535 25.4077 15.9131 25.6592 16.1694C26.035 16.5526 26.8229 17.9667 29.617 23.273C32.4486 28.6505 33.0361 29.723 33.2384 29.8832C33.6516 30.2106 34.5248 29.8334 34.5248 29.3277C34.5248 29.1898 34.1925 28.4054 33.7863 27.5847C32.9629 25.9208 32.9046 25.6025 33.2851 24.8491C33.5896 24.2463 34.2182 23.8807 34.9503 23.8807C35.8059 23.8807 36.0519 24.1021 36.8516 25.5923C37.6254 27.0343 38.0633 27.592 38.4217 27.592C38.6913 27.592 39.2725 27.0569 39.2725 26.8087C39.2725 26.7166 38.9164 25.9314 38.4812 25.0638C37.9944 24.0934 37.6899 23.3576 37.6899 23.1518C37.6899 22.2969 38.653 21.4358 39.5933 21.4499C40.5264 21.4641 40.5857 21.5292 41.9609 24.0484C42.4362 24.919 42.6708 25.1692 43.012 25.1692C43.3868 25.1692 43.8355 24.7444 43.8355 24.3895C43.8355 24.228 43.4973 23.4098 43.0838 22.5715C42.2797 20.9407 42.1914 20.5411 42.5145 19.9949C42.7538 19.5905 43.3235 19.2065 43.9172 19.0493C44.3381 18.9379 44.4516 18.9483 44.8781 19.1366C45.4965 19.4098 45.6831 19.6688 46.8714 21.9035C49.4606 26.7727 50.3107 28.7633 51.4624 32.6548C51.8408 33.933 52.326 35.3908 52.5407 35.8942C52.893 36.7203 52.9313 36.902 52.9332 37.7576C52.9352 38.6489 52.9127 38.7468 52.5581 39.3904C52.2855 39.8855 51.9858 40.232 51.4767 40.6415C50.856 41.1407 50.7724 41.2505 50.7724 41.568C50.7724 41.9992 51.1649 42.4453 51.5442 42.4453C52.0461 42.4453 53.3559 41.3486 53.9345 40.4438C54.4971 39.5642 54.7028 38.7345 54.6529 37.5469C54.6136 36.6102 54.5594 36.3709 54.1643 35.3874C53.9198 34.779 53.458 33.3806 53.138 32.2798C52.1074 28.7356 51.3645 26.9122 49.3904 23.0802C47.2289 18.8844 46.8036 18.2541 45.7652 17.7068C45.2903 17.4565 45.1206 17.4268 44.1784 17.4296C43.2835 17.4323 43.053 17.4698 42.66 17.6765C42.0176 18.0142 41.2474 18.7594 40.9481 19.3329L40.6968 19.8142L40.1096 19.7497C38.591 19.5831 37.0052 20.4226 36.3401 21.7455L36.1283 22.1669L35.1947 22.1681C33.9336 22.1696 33.3222 22.3905 32.5154 23.1365L31.8872 23.717L31.8863 13.1978L31.8852 2.67852L31.5768 2.14159C31.2213 1.5227 30.3398 0.688602 29.9118 0.566193C29.7507 0.520053 25.1791 0.465275 19.7527 0.444417L9.88653 0.406494L9.70348 0.715991C9.47548 1.10123 9.47327 1.30243 9.69272 1.67334L9.86522 1.96483L19.4906 2.01465L29.1159 2.06459L29.5006 2.30192C29.7121 2.43255 29.9278 2.61858 29.9796 2.71539C30.0315 2.8121 30.1085 3.54265 30.1508 4.33872L30.2276 5.78613H16.218H2.20847L2.27061 4.47293C2.37316 2.30687 2.5694 2.11831 4.82075 2.02445C6.01168 1.97483 6.22891 1.93807 6.43433 1.7514C6.75285 1.46203 6.74968 0.9449 6.42758 0.642672C6.19895 0.4283 6.08574 0.414289 4.66038 0.423138C3.82268 0.428405 2.97369 0.479602 2.77355 0.536908ZM30.1991 14.0204C30.1991 17.6801 30.1811 20.6548 30.1589 20.6307C30.1369 20.6066 29.7376 19.8668 29.2715 18.9869L28.4243 17.3872L28.3853 14.7205C28.3415 11.7228 28.298 11.5141 27.6073 10.9882L27.2087 10.6846L16.2714 10.6563L5.33424 10.6281L4.85556 11.0487C4.17696 11.6452 4.13961 11.8732 4.13961 15.4223C4.13961 18.5824 4.17928 18.8953 4.64456 19.4086C5.15646 19.9735 4.81516 19.9505 13.5822 20.0074L21.7061 20.06L22.5078 21.5875C25.8264 27.9106 27.6507 31.4359 27.6199 31.4665C27.6 31.4863 27.0573 31.239 26.4139 30.9168C25.7704 30.5946 25.1747 30.3309 25.0902 30.3309C24.8775 30.3309 24.8504 30.2675 24.6575 29.3212C24.3112 27.6209 23.4889 26.1381 22.1799 24.8531C21.2553 23.9456 20.1794 23.2921 18.8281 22.8171C17.9582 22.5114 17.8214 22.4937 16.3253 22.4935C15.1637 22.4934 14.5717 22.5407 14.0993 22.6712C12.5536 23.0987 11.2108 23.9084 10.084 25.0929C8.37001 26.8945 7.63845 28.8704 7.75693 31.3783C7.82677 32.8551 8.0056 33.5673 8.61805 34.808C9.68175 36.9626 11.699 38.6123 14.057 39.2559C15.0057 39.5148 17.5162 39.5152 18.4882 39.2566C19.5619 38.9709 20.99 38.2176 21.7346 37.5442L22.3963 36.9458L25.058 38.2651C26.522 38.9907 28.2777 39.8456 28.9595 40.1649L30.1991 40.7452V42.28V43.8148H16.2198H2.24054V25.5905V7.36627H16.2198H30.1991V14.0204ZM26.5781 12.3535C26.6882 12.4631 26.7634 14.7402 26.6569 14.7402C26.6134 14.7402 26.3599 14.6098 26.0938 14.4506C25.6515 14.1858 25.5187 14.161 24.5547 14.1616C23.5869 14.1623 23.4534 14.1878 22.9417 14.4703C21.7924 15.1045 21.0583 16.2488 20.9464 17.5803L20.8842 18.3219H13.3559H5.82768L5.82842 16.0307C5.82884 14.7705 5.85933 13.4207 5.89615 13.0311L5.96315 12.3227L7.5571 12.2848C10.6525 12.2112 26.4926 12.2684 26.5781 12.3535ZM17.9607 24.3449C18.2218 24.4058 18.839 24.6466 19.3322 24.8798C20.5987 25.4786 21.7637 26.6411 22.3668 27.9081C22.7972 28.8121 23.1603 30.0251 23.0704 30.2588C23.0436 30.3285 22.8088 30.4984 22.5484 30.6363C21.9229 30.9676 21.2774 31.6813 20.9354 32.4194C20.5662 33.2165 20.5573 34.3093 20.9127 35.2232L21.1561 35.849L20.7541 36.186C19.5296 37.2123 18.1932 37.719 16.5363 37.7849C15.0975 37.8421 14.2595 37.6641 13.0678 37.048C11.7934 36.3892 10.7445 35.3075 10.1201 34.0086C9.56295 32.8494 9.41419 32.2208 9.41661 31.0368C9.4202 29.3534 9.90214 27.9385 10.8974 26.6898C11.9024 25.4286 13.59 24.4238 15.0438 24.2208C15.7821 24.1176 17.2568 24.1804 17.9607 24.3449ZM17.3128 29.9811L14.5905 32.6862L13.5382 31.6666C12.3548 30.5199 12.1407 30.4392 11.6925 30.9711C11.2035 31.5513 11.2781 31.7011 12.8255 33.2461C14.052 34.4708 14.2753 34.65 14.5739 34.65C14.8778 34.65 15.1708 34.3994 17.1904 32.4115C19.9327 29.7121 21.1258 28.4086 21.1258 28.1116C21.1258 27.8197 20.5702 27.276 20.2719 27.276C20.1031 27.276 19.2521 28.0539 17.3128 29.9811ZM30.1437 48.7396C30.1003 50.5991 30.0235 52.0344 29.9634 52.1093C29.9059 52.181 29.6862 52.3469 29.4752 52.478L29.0913 52.7161L16.3253 52.7162C3.76929 52.7162 3.55248 52.7128 3.14028 52.5056C2.33444 52.1005 2.30479 51.967 2.25731 48.5318L2.21543 45.5003H16.2174H30.2195L30.1437 48.7396ZM13.2386 47.0646C12.8297 47.1822 12.2496 47.7205 12.0436 48.1736C11.6037 49.1408 11.8989 50.2691 12.7646 50.9291L13.2434 51.2941L15.9449 51.2895C17.4307 51.287 18.8523 51.2452 19.104 51.1967C20.0447 51.0152 20.8247 49.7992 20.6426 48.7979C20.5517 48.2983 20.2659 47.7205 19.9835 47.4654C19.5094 47.0373 19.0874 46.984 16.2198 46.9902C14.7111 46.9934 13.3695 47.0269 13.2386 47.0646ZM18.6464 48.753C18.9124 48.8098 18.9629 48.8709 18.9629 49.1356C18.9629 49.4498 18.9609 49.4508 18.1717 49.5358C17.7365 49.5827 16.5603 49.6037 15.5581 49.5824C14.013 49.5496 13.7083 49.5164 13.5553 49.3635C13.2967 49.1053 13.5011 48.8346 14.015 48.7545C14.5651 48.6689 18.2465 48.6677 18.6464 48.753Z"></path></mask><path fill-rule="evenodd" clip-rule="evenodd" d="M2.77355 0.536908C1.91084 0.784147 0.970058 1.77058 0.769811 2.63786C0.699545 2.94209 0.662302 11.4775 0.660508 27.6226C0.658082 51.569 0.662724 52.1546 0.859806 52.5403C1.12663 53.0625 1.79014 53.7351 2.37727 54.0787L2.8512 54.356L16.235 54.3229C26.464 54.2975 29.7088 54.2593 30.0002 54.1604C30.4423 54.0104 31.3445 53.1021 31.655 52.4945C31.8585 52.0961 31.8697 51.8476 31.904 46.9541C31.9238 44.1362 31.9706 41.8002 32.0079 41.7629C32.0961 41.675 34.6544 42.959 35.2365 43.3835C35.4913 43.5693 35.9379 44.0943 36.2721 44.6009C37.7889 46.9005 39.9393 47.842 42.2836 47.2331C43.2653 46.978 48.1479 44.3948 48.3456 44.0258C48.6096 43.5334 48.2419 42.8667 47.7065 42.8667C47.5231 42.8667 46.3905 43.3758 44.8997 44.1286C41.9089 45.6384 41.5933 45.7544 40.6546 45.6873C39.3532 45.5942 38.6028 45.0979 37.7365 43.7572C36.6891 42.1361 36.5628 42.0547 30.0453 38.8069C23.4806 35.5355 22.9616 35.2522 22.6298 34.7607C22.0837 33.9516 22.5177 32.5527 23.468 32.0591C24.104 31.7287 24.464 31.8386 27.1638 33.1873C29.9434 34.5759 30.0003 34.5898 30.4454 33.9929L30.6605 33.7044L29.7887 31.9387C29.3093 30.9675 27.632 27.7161 26.0614 24.7132C23.0129 18.8852 22.7148 18.2608 22.7109 17.6968C22.7068 17.1131 23.0974 16.4425 23.6467 16.09C24.073 15.8164 24.2077 15.7831 24.7444 15.8193C25.2519 15.8535 25.4077 15.9131 25.6592 16.1694C26.035 16.5526 26.8229 17.9667 29.617 23.273C32.4486 28.6505 33.0361 29.723 33.2384 29.8832C33.6516 30.2106 34.5248 29.8334 34.5248 29.3277C34.5248 29.1898 34.1925 28.4054 33.7863 27.5847C32.9629 25.9208 32.9046 25.6025 33.2851 24.8491C33.5896 24.2463 34.2182 23.8807 34.9503 23.8807C35.8059 23.8807 36.0519 24.1021 36.8516 25.5923C37.6254 27.0343 38.0633 27.592 38.4217 27.592C38.6913 27.592 39.2725 27.0569 39.2725 26.8087C39.2725 26.7166 38.9164 25.9314 38.4812 25.0638C37.9944 24.0934 37.6899 23.3576 37.6899 23.1518C37.6899 22.2969 38.653 21.4358 39.5933 21.4499C40.5264 21.4641 40.5857 21.5292 41.9609 24.0484C42.4362 24.919 42.6708 25.1692 43.012 25.1692C43.3868 25.1692 43.8355 24.7444 43.8355 24.3895C43.8355 24.228 43.4973 23.4098 43.0838 22.5715C42.2797 20.9407 42.1914 20.5411 42.5145 19.9949C42.7538 19.5905 43.3235 19.2065 43.9172 19.0493C44.3381 18.9379 44.4516 18.9483 44.8781 19.1366C45.4965 19.4098 45.6831 19.6688 46.8714 21.9035C49.4606 26.7727 50.3107 28.7633 51.4624 32.6548C51.8408 33.933 52.326 35.3908 52.5407 35.8942C52.893 36.7203 52.9313 36.902 52.9332 37.7576C52.9352 38.6489 52.9127 38.7468 52.5581 39.3904C52.2855 39.8855 51.9858 40.232 51.4767 40.6415C50.856 41.1407 50.7724 41.2505 50.7724 41.568C50.7724 41.9992 51.1649 42.4453 51.5442 42.4453C52.0461 42.4453 53.3559 41.3486 53.9345 40.4438C54.4971 39.5642 54.7028 38.7345 54.6529 37.5469C54.6136 36.6102 54.5594 36.3709 54.1643 35.3874C53.9198 34.779 53.458 33.3806 53.138 32.2798C52.1074 28.7356 51.3645 26.9122 49.3904 23.0802C47.2289 18.8844 46.8036 18.2541 45.7652 17.7068C45.2903 17.4565 45.1206 17.4268 44.1784 17.4296C43.2835 17.4323 43.053 17.4698 42.66 17.6765C42.0176 18.0142 41.2474 18.7594 40.9481 19.3329L40.6968 19.8142L40.1096 19.7497C38.591 19.5831 37.0052 20.4226 36.3401 21.7455L36.1283 22.1669L35.1947 22.1681C33.9336 22.1696 33.3222 22.3905 32.5154 23.1365L31.8872 23.717L31.8863 13.1978L31.8852 2.67852L31.5768 2.14159C31.2213 1.5227 30.3398 0.688602 29.9118 0.566193C29.7507 0.520053 25.1791 0.465275 19.7527 0.444417L9.88653 0.406494L9.70348 0.715991C9.47548 1.10123 9.47327 1.30243 9.69272 1.67334L9.86522 1.96483L19.4906 2.01465L29.1159 2.06459L29.5006 2.30192C29.7121 2.43255 29.9278 2.61858 29.9796 2.71539C30.0315 2.8121 30.1085 3.54265 30.1508 4.33872L30.2276 5.78613H16.218H2.20847L2.27061 4.47293C2.37316 2.30687 2.5694 2.11831 4.82075 2.02445C6.01168 1.97483 6.22891 1.93807 6.43433 1.7514C6.75285 1.46203 6.74968 0.9449 6.42758 0.642672C6.19895 0.4283 6.08574 0.414289 4.66038 0.423138C3.82268 0.428405 2.97369 0.479602 2.77355 0.536908ZM30.1991 14.0204C30.1991 17.6801 30.1811 20.6548 30.1589 20.6307C30.1369 20.6066 29.7376 19.8668 29.2715 18.9869L28.4243 17.3872L28.3853 14.7205C28.3415 11.7228 28.298 11.5141 27.6073 10.9882L27.2087 10.6846L16.2714 10.6563L5.33424 10.6281L4.85556 11.0487C4.17696 11.6452 4.13961 11.8732 4.13961 15.4223C4.13961 18.5824 4.17928 18.8953 4.64456 19.4086C5.15646 19.9735 4.81516 19.9505 13.5822 20.0074L21.7061 20.06L22.5078 21.5875C25.8264 27.9106 27.6507 31.4359 27.6199 31.4665C27.6 31.4863 27.0573 31.239 26.4139 30.9168C25.7704 30.5946 25.1747 30.3309 25.0902 30.3309C24.8775 30.3309 24.8504 30.2675 24.6575 29.3212C24.3112 27.6209 23.4889 26.1381 22.1799 24.8531C21.2553 23.9456 20.1794 23.2921 18.8281 22.8171C17.9582 22.5114 17.8214 22.4937 16.3253 22.4935C15.1637 22.4934 14.5717 22.5407 14.0993 22.6712C12.5536 23.0987 11.2108 23.9084 10.084 25.0929C8.37001 26.8945 7.63845 28.8704 7.75693 31.3783C7.82677 32.8551 8.0056 33.5673 8.61805 34.808C9.68175 36.9626 11.699 38.6123 14.057 39.2559C15.0057 39.5148 17.5162 39.5152 18.4882 39.2566C19.5619 38.9709 20.99 38.2176 21.7346 37.5442L22.3963 36.9458L25.058 38.2651C26.522 38.9907 28.2777 39.8456 28.9595 40.1649L30.1991 40.7452V42.28V43.8148H16.2198H2.24054V25.5905V7.36627H16.2198H30.1991V14.0204ZM26.5781 12.3535C26.6882 12.4631 26.7634 14.7402 26.6569 14.7402C26.6134 14.7402 26.3599 14.6098 26.0938 14.4506C25.6515 14.1858 25.5187 14.161 24.5547 14.1616C23.5869 14.1623 23.4534 14.1878 22.9417 14.4703C21.7924 15.1045 21.0583 16.2488 20.9464 17.5803L20.8842 18.3219H13.3559H5.82768L5.82842 16.0307C5.82884 14.7705 5.85933 13.4207 5.89615 13.0311L5.96315 12.3227L7.5571 12.2848C10.6525 12.2112 26.4926 12.2684 26.5781 12.3535ZM17.9607 24.3449C18.2218 24.4058 18.839 24.6466 19.3322 24.8798C20.5987 25.4786 21.7637 26.6411 22.3668 27.9081C22.7972 28.8121 23.1603 30.0251 23.0704 30.2588C23.0436 30.3285 22.8088 30.4984 22.5484 30.6363C21.9229 30.9676 21.2774 31.6813 20.9354 32.4194C20.5662 33.2165 20.5573 34.3093 20.9127 35.2232L21.1561 35.849L20.7541 36.186C19.5296 37.2123 18.1932 37.719 16.5363 37.7849C15.0975 37.8421 14.2595 37.6641 13.0678 37.048C11.7934 36.3892 10.7445 35.3075 10.1201 34.0086C9.56295 32.8494 9.41419 32.2208 9.41661 31.0368C9.4202 29.3534 9.90214 27.9385 10.8974 26.6898C11.9024 25.4286 13.59 24.4238 15.0438 24.2208C15.7821 24.1176 17.2568 24.1804 17.9607 24.3449ZM17.3128 29.9811L14.5905 32.6862L13.5382 31.6666C12.3548 30.5199 12.1407 30.4392 11.6925 30.9711C11.2035 31.5513 11.2781 31.7011 12.8255 33.2461C14.052 34.4708 14.2753 34.65 14.5739 34.65C14.8778 34.65 15.1708 34.3994 17.1904 32.4115C19.9327 29.7121 21.1258 28.4086 21.1258 28.1116C21.1258 27.8197 20.5702 27.276 20.2719 27.276C20.1031 27.276 19.2521 28.0539 17.3128 29.9811ZM30.1437 48.7396C30.1003 50.5991 30.0235 52.0344 29.9634 52.1093C29.9059 52.181 29.6862 52.3469 29.4752 52.478L29.0913 52.7161L16.3253 52.7162C3.76929 52.7162 3.55248 52.7128 3.14028 52.5056C2.33444 52.1005 2.30479 51.967 2.25731 48.5318L2.21543 45.5003H16.2174H30.2195L30.1437 48.7396ZM13.2386 47.0646C12.8297 47.1822 12.2496 47.7205 12.0436 48.1736C11.6037 49.1408 11.8989 50.2691 12.7646 50.9291L13.2434 51.2941L15.9449 51.2895C17.4307 51.287 18.8523 51.2452 19.104 51.1967C20.0447 51.0152 20.8247 49.7992 20.6426 48.7979C20.5517 48.2983 20.2659 47.7205 19.9835 47.4654C19.5094 47.0373 19.0874 46.984 16.2198 46.9902C14.7111 46.9934 13.3695 47.0269 13.2386 47.0646ZM18.6464 48.753C18.9124 48.8098 18.9629 48.8709 18.9629 49.1356C18.9629 49.4498 18.9609 49.4508 18.1717 49.5358C17.7365 49.5827 16.5603 49.6037 15.5581 49.5824C14.013 49.5496 13.7083 49.5164 13.5553 49.3635C13.2967 49.1053 13.5011 48.8346 14.015 48.7545C14.5651 48.6689 18.2465 48.6677 18.6464 48.753Z" fill="#1742E7" stroke="#1742E7" stroke-width="0.56" mask="url(#path-1-inside-1_2820_1051)"></path></svg>