<svg xmlns="http://www.w3.org/2000/svg" viewBox="0 0 56 57" fill="none"><mask id="path-1-inside-1_4747_1305" fill="white"><path d="M55.0109 17.4371V5.43707C55.0109 3.45118 53.4023 1.83685 51.4223 1.83685H4.77227C2.79274 1.83685 1.18359 3.45064 1.18359 5.43707V17.4371C1.18359 18.3612 1.53653 19.2012 2.10474 19.8369C1.53653 20.4731 1.18359 21.313 1.18359 22.2367V34.2367C1.18359 35.1608 1.53653 36.0008 2.10474 36.6365C1.53653 37.2727 1.18359 38.1126 1.18359 39.0367V51.0367C1.18359 53.0226 2.79221 54.637 4.77227 54.637H27.3561C30.3703 55.4288 34.0247 55.8369 37.6668 55.8369C46.285 55.8369 55.0111 53.5688 55.0111 49.2366V24.0366C55.0111 22.7404 54.2276 21.6305 52.9059 20.7127C54.1437 20.1426 55.0109 18.889 55.0109 17.4371ZM4.77248 52.2372C4.11458 52.2372 3.57644 51.6973 3.57644 51.0373L3.57602 39.0372C3.57602 38.3772 4.11419 37.8374 4.77207 37.8374H20.3221V49.2374C20.3221 50.3833 20.9382 51.3853 21.9967 52.2374L4.77248 52.2372ZM20.3225 24.0371V35.4371L4.77248 35.4375C4.11458 35.4375 3.57644 34.8976 3.57644 34.2377L3.57602 22.2376C3.57602 21.5776 4.11419 21.0377 4.77207 21.0377H21.9967C20.9383 21.8899 20.3221 22.8918 20.3221 24.0377L20.3225 24.0371ZM52.6186 49.2372C52.6186 50.9473 46.7935 53.4371 37.6667 53.4371C28.54 53.4371 22.7148 50.9473 22.7148 49.2372V44.3529C25.8962 46.3874 31.8052 47.4375 37.6667 47.4375C43.5278 47.4375 49.4371 46.3874 52.6186 44.3534V49.2372ZM52.6186 40.8374C52.6186 42.0315 48.1689 45.0373 37.6667 45.0373C27.1645 45.0373 22.7148 42.0314 22.7148 40.8374V35.9531C25.8962 37.9871 31.8052 39.0372 37.6667 39.0372C43.5278 39.0372 49.4371 37.9872 52.6186 35.9531V40.8374ZM52.6186 32.4376C52.6186 33.6317 48.1689 36.6375 37.6667 36.6375C27.1645 36.6375 22.7148 33.6316 22.7148 32.4376V27.5533C25.8962 29.5873 31.8052 30.6374 37.6667 30.6374C43.5278 30.6374 49.4371 29.5874 52.6186 27.5533V32.4376ZM37.6667 28.2372C27.1645 28.2372 22.7148 25.2313 22.7148 24.0373C22.7148 23.3355 24.2517 22.0091 27.6551 21.0314C30.0056 20.3835 33.1094 19.9093 36.7998 19.8432C37.081 19.8432 37.3739 19.8374 37.6672 19.8374C37.96 19.8374 38.2533 19.8432 38.5345 19.8432C42.2245 19.9093 45.3346 20.3831 47.6851 21.0314C51.0814 22.0095 52.6187 23.3354 52.6187 24.0373C52.6187 25.2314 48.1689 28.2372 37.6667 28.2372ZM52.6186 17.4372C52.6186 18.0972 52.0805 18.6371 51.4226 18.6371H47.9775C44.9633 17.8448 41.3088 17.4372 37.6667 17.4372C34.0243 17.4372 30.3702 17.8453 27.356 18.6371H4.77216C4.11426 18.6371 3.57612 18.0972 3.57612 17.4372L3.5757 5.43718C3.5757 4.77716 4.11387 4.23729 4.77174 4.23729H51.4217C52.0797 4.23729 52.6178 4.77719 52.6178 5.43718L52.6186 17.4372ZM10.7533 7.83697C8.77373 7.83697 7.16458 9.45076 7.16458 11.4372C7.16458 13.4231 8.77319 15.0374 10.7533 15.0374C12.7328 15.0374 14.3419 13.4236 14.3419 11.4372C14.3415 9.45087 12.7329 7.83697 10.7533 7.83697ZM10.7533 12.6371C10.0953 12.6371 9.55721 12.0972 9.55721 11.4372C9.55721 10.7772 10.0954 10.2373 10.7533 10.2373C11.4112 10.2373 11.9493 10.7772 11.9493 11.4372C11.9493 12.0972 11.4111 12.6371 10.7533 12.6371ZM27.4994 9.63708C27.4994 9.95517 27.3738 10.2611 27.1465 10.4829C27.0926 10.5428 27.033 10.5909 26.9671 10.6328C26.9012 10.6746 26.8357 10.7169 26.7639 10.7466C26.6863 10.7767 26.6146 10.8006 26.5365 10.8127C26.459 10.8311 26.3814 10.837 26.3033 10.837C25.9863 10.837 25.6813 10.711 25.454 10.4829C25.2328 10.2611 25.1073 9.95515 25.1073 9.63708C25.1073 9.319 25.2328 9.01305 25.454 8.78496C25.7351 8.50915 26.1477 8.38275 26.5366 8.46102C26.6142 8.47902 26.6859 8.49701 26.7639 8.52715C26.8357 8.55728 26.9016 8.59914 26.9671 8.64099C27.033 8.68284 27.0927 8.73097 27.1465 8.78497C27.3739 9.01306 27.4994 9.31901 27.4994 9.63708ZM29.5391 12.3851C29.7664 12.6128 29.892 12.9191 29.892 13.2368C29.892 13.5549 29.7664 13.8608 29.5391 14.0826C29.4852 14.1425 29.4256 14.1906 29.3597 14.2325C29.2938 14.2743 29.2283 14.3166 29.1565 14.3463C29.0789 14.3764 29.0072 14.4003 28.9291 14.4124C28.8511 14.4308 28.7735 14.4371 28.6959 14.4371C28.6183 14.4371 28.5403 14.4313 28.4627 14.4133C28.3851 14.4011 28.3134 14.3773 28.2354 14.3471C28.1636 14.317 28.0977 14.2751 28.0322 14.2333C27.9663 14.1914 27.9066 14.1433 27.8528 14.0835C27.625 13.8608 27.4994 13.5549 27.4994 13.2368C27.4994 12.9187 27.625 12.6128 27.8524 12.3847C27.9062 12.3307 27.9659 12.2826 28.0318 12.2407C28.0977 12.1988 28.1632 12.1566 28.2349 12.1269C28.3125 12.0967 28.3843 12.0787 28.4623 12.0607C28.8511 11.9829 29.2641 12.1089 29.5391 12.3851ZM32.2841 9.63708C32.2841 9.71493 32.2783 9.79319 32.2603 9.87104C32.2482 9.94889 32.2245 10.0209 32.1944 10.0991C32.1644 10.1711 32.1227 10.2373 32.081 10.303C32.0392 10.3691 31.9913 10.4289 31.9316 10.4829C31.7101 10.711 31.4051 10.837 31.0881 10.837C30.771 10.837 30.466 10.711 30.2449 10.4829C30.0176 10.2611 29.892 9.95516 29.892 9.63708C29.892 9.55924 29.8978 9.48097 29.9158 9.40312C29.9279 9.32528 29.9517 9.2533 29.9817 9.17503C30.0117 9.10304 30.0476 9.03691 30.0952 8.97121C30.1369 8.90508 30.1849 8.84523 30.2445 8.79124C30.6871 8.34133 31.4885 8.34133 31.9312 8.79124C32.1586 9.01306 32.2841 9.31901 32.2841 9.63708ZM34.3238 12.3851C34.5512 12.6128 34.6767 12.9191 34.6767 13.2368C34.6767 13.5549 34.5512 13.8608 34.3238 14.0826C34.1023 14.3111 33.7915 14.4371 33.4802 14.4371C33.4026 14.4371 33.3246 14.4313 33.247 14.4133C33.1694 14.4011 33.0914 14.3773 33.0197 14.3471C32.9479 14.317 32.882 14.281 32.8165 14.2333C32.7506 14.1914 32.6909 14.1433 32.6313 14.0835C32.5774 14.0295 32.5295 13.9696 32.4878 13.9035C32.4398 13.8374 32.4039 13.7717 32.3743 13.6997C32.3442 13.6218 32.3205 13.5499 32.3084 13.4716C32.2904 13.3929 32.2842 13.3151 32.2842 13.2368C32.2842 13.1589 32.29 13.0807 32.3079 13.0028C32.32 12.925 32.3438 12.8467 32.3739 12.7747C32.4039 12.7028 32.4398 12.6366 32.4873 12.5709C32.5291 12.5048 32.577 12.4449 32.6309 12.3851C32.6905 12.3311 32.7506 12.283 32.8161 12.2411C32.882 12.193 32.9475 12.157 33.0193 12.1273C33.091 12.0971 33.1686 12.0733 33.2466 12.0611C33.396 12.031 33.5574 12.031 33.713 12.0611C33.7906 12.0733 33.8624 12.0971 33.9341 12.1273C34.0117 12.1574 34.0777 12.1934 34.1436 12.2411C34.2099 12.283 34.27 12.3311 34.3238 12.3851ZM37.0689 9.63708C37.0689 9.95517 36.9433 10.2611 36.7159 10.4892C36.4948 10.711 36.1836 10.837 35.8728 10.837C35.562 10.837 35.2508 10.711 35.0297 10.4892C34.97 10.4294 34.922 10.3691 34.8803 10.3034C34.8323 10.2372 34.7965 10.1715 34.7668 10.0996C34.7368 10.0217 34.713 9.94973 34.7009 9.87146C34.6826 9.79319 34.6767 9.71493 34.6767 9.63708C34.6767 9.55924 34.6826 9.48097 34.7005 9.40312C34.7126 9.32528 34.7364 9.24702 34.7664 9.17503C34.7965 9.10304 34.8323 9.03691 34.8799 8.97121C34.9216 8.90508 34.9696 8.84523 35.0292 8.79124C35.0831 8.73139 35.1427 8.68326 35.2086 8.64141C35.2745 8.59956 35.34 8.55729 35.4118 8.52757C35.4894 8.49744 35.5611 8.47358 35.6392 8.46144C36.028 8.3836 36.4406 8.50958 36.7155 8.79124C36.9433 9.01306 37.0689 9.31901 37.0689 9.63708ZM39.1085 12.391C39.3355 12.6128 39.461 12.9192 39.461 13.2368C39.461 13.5549 39.3355 13.8608 39.1081 14.0827C38.887 14.3112 38.582 14.4372 38.265 14.4372C38.1874 14.4372 38.1094 14.4313 38.0318 14.4133C37.9542 14.4012 37.8761 14.3773 37.8044 14.3472C37.7326 14.317 37.6667 14.2752 37.6012 14.2333C37.5353 14.1915 37.4757 14.1433 37.4218 14.0835C37.1945 13.8608 37.0689 13.5549 37.0689 13.2368C37.0689 12.9188 37.1945 12.6128 37.4218 12.391C37.4757 12.3311 37.5353 12.283 37.6012 12.2412C37.6671 12.1993 37.7326 12.157 37.8044 12.1273C37.8761 12.0972 37.9537 12.0792 38.0318 12.0612C38.4206 11.9829 38.8332 12.1089 39.1085 12.391ZM41.8536 9.63708C41.8536 9.95517 41.728 10.2611 41.5006 10.4892C41.4468 10.5432 41.3872 10.5913 41.3212 10.6332C41.2553 10.6813 41.1898 10.7173 41.1118 10.747C41.0401 10.7772 40.9683 10.801 40.8907 10.8131C40.8127 10.8311 40.7351 10.837 40.6575 10.837C40.3404 10.837 40.0355 10.711 39.8144 10.4892C39.7547 10.4294 39.7067 10.3691 39.665 10.3034C39.6171 10.2373 39.5812 10.1715 39.5516 10.0996C39.5215 10.0217 39.4977 9.94973 39.4856 9.87146C39.4673 9.7932 39.461 9.71494 39.461 9.63709C39.461 9.319 39.5866 9.01306 39.814 8.79125C40.2508 8.34133 41.058 8.34133 41.5006 8.79125C41.728 9.01306 41.8536 9.31901 41.8536 9.63708ZM43.8928 12.391C44.1202 12.6128 44.2457 12.9192 44.2457 13.2368C44.2457 13.3147 44.2399 13.3929 44.222 13.4708C44.2099 13.5486 44.1861 13.6206 44.156 13.6989C44.126 13.7709 44.0843 13.837 44.0426 13.9027C44.0009 13.9688 43.9529 14.0287 43.8932 14.0827C43.8394 14.1425 43.7797 14.1906 43.7138 14.2325C43.6479 14.2806 43.5824 14.3166 43.5044 14.3463C43.4327 14.3765 43.3609 14.4003 43.2833 14.4125C43.2053 14.4309 43.1273 14.4372 43.0497 14.4372C42.7326 14.4372 42.4277 14.3112 42.2066 14.0831C42.1469 14.0291 42.0989 13.9692 42.0572 13.9031C42.0155 13.837 41.9733 13.7713 41.9437 13.6993C41.9137 13.6214 41.8899 13.5495 41.8778 13.4712C41.8595 13.3929 41.8536 13.3151 41.8536 13.2368C41.8536 12.9187 41.9792 12.6128 42.2066 12.391C42.4815 12.1089 42.8945 11.9829 43.2829 12.0612C43.3605 12.0733 43.4322 12.0972 43.504 12.1273C43.5816 12.1574 43.6475 12.1934 43.7134 12.2411C43.7793 12.283 43.839 12.3311 43.8928 12.391ZM49.0067 13.0029C49.0246 13.0811 49.0305 13.159 49.0305 13.2368C49.0305 13.3147 49.0246 13.3929 49.0067 13.4708C48.9946 13.5486 48.9708 13.6206 48.9408 13.6989C48.9107 13.7709 48.869 13.837 48.8273 13.9027C48.7856 13.9688 48.7376 14.0287 48.6779 14.0827C48.4564 14.3112 48.1452 14.4372 47.8344 14.4372C47.7568 14.4372 47.6788 14.4313 47.6012 14.4133C47.5236 14.4012 47.4456 14.3773 47.3738 14.3472C47.3021 14.317 47.2361 14.2752 47.1707 14.2333C47.1047 14.1915 47.0451 14.1433 46.9913 14.0835C46.7639 13.8608 46.6383 13.5549 46.6383 13.2368C46.6383 13.159 46.6442 13.0807 46.6621 13.0029C46.6742 12.925 46.698 12.853 46.728 12.7811C46.7581 12.7032 46.7939 12.6371 46.8415 12.571C46.8832 12.5048 46.9312 12.445 46.9909 12.3851C47.0447 12.3311 47.1043 12.283 47.1702 12.2411C47.2362 12.1993 47.3017 12.157 47.3734 12.1273C47.4452 12.0972 47.5228 12.0792 47.6008 12.0612C47.7564 12.031 47.9116 12.031 48.0672 12.0612C48.1448 12.0792 48.2165 12.0972 48.2883 12.1273C48.3659 12.1574 48.4318 12.1993 48.4977 12.2411C48.5636 12.283 48.6233 12.3311 48.6771 12.3851C48.7368 12.445 48.7847 12.5052 48.8265 12.571C48.8682 12.6371 48.9103 12.7028 48.9399 12.7811C48.9708 12.853 48.9946 12.925 49.0067 13.0029ZM46.6383 9.63707C46.6383 9.95516 46.5127 10.2611 46.2854 10.4829C46.2315 10.5428 46.1719 10.5909 46.106 10.6327C46.0401 10.6746 45.9745 10.7169 45.9028 10.7466C45.8252 10.7767 45.7535 10.8006 45.6754 10.8127C45.5974 10.8311 45.5198 10.837 45.4418 10.837C45.1247 10.837 44.8198 10.711 44.5987 10.4829C44.3713 10.2611 44.2457 9.95514 44.2457 9.63707C44.2457 9.31899 44.3713 9.01304 44.5987 8.79123C44.6525 8.73138 44.7122 8.68325 44.7781 8.6414C44.844 8.59954 44.9095 8.55727 44.9812 8.52756C45.053 8.49742 45.1306 8.47357 45.2086 8.46143C45.5974 8.38358 46.01 8.50956 46.2849 8.79123C46.5127 9.01304 46.6383 9.319 46.6383 9.63707ZM10.7537 31.8371C12.7332 31.8371 14.3424 30.2233 14.3424 28.2369C14.3424 26.251 12.7337 24.6367 10.7537 24.6367C8.77415 24.6367 7.165 26.2505 7.165 28.2369C7.165 30.2232 8.77362 31.8371 10.7537 31.8371ZM10.7537 27.037C11.4116 27.037 11.9497 27.5769 11.9497 28.2369C11.9497 28.8969 11.4116 29.4368 10.7537 29.4368C10.0958 29.4368 9.55763 28.8969 9.55763 28.2369C9.55721 27.5769 10.0958 27.037 10.7537 27.037ZM10.7537 41.437C8.77415 41.437 7.165 43.0508 7.165 45.0372C7.165 47.0231 8.77362 48.6375 10.7537 48.6375C12.7332 48.6375 14.3424 47.0237 14.3424 45.0372C14.3419 43.0509 12.7333 41.437 10.7537 41.437ZM10.7537 46.2367C10.0958 46.2367 9.55763 45.6968 9.55763 45.0368C9.55763 44.3768 10.0958 43.8369 10.7537 43.8369C11.4116 43.8369 11.9497 44.3768 11.9497 45.0368C11.9497 45.6968 11.4116 46.2367 10.7537 46.2367Z"></path></mask><path d="M55.0109 17.4371V5.43707C55.0109 3.45118 53.4023 1.83685 51.4223 1.83685H4.77227C2.79274 1.83685 1.18359 3.45064 1.18359 5.43707V17.4371C1.18359 18.3612 1.53653 19.2012 2.10474 19.8369C1.53653 20.4731 1.18359 21.313 1.18359 22.2367V34.2367C1.18359 35.1608 1.53653 36.0008 2.10474 36.6365C1.53653 37.2727 1.18359 38.1126 1.18359 39.0367V51.0367C1.18359 53.0226 2.79221 54.637 4.77227 54.637H27.3561C30.3703 55.4288 34.0247 55.8369 37.6668 55.8369C46.285 55.8369 55.0111 53.5688 55.0111 49.2366V24.0366C55.0111 22.7404 54.2276 21.6305 52.9059 20.7127C54.1437 20.1426 55.0109 18.889 55.0109 17.4371ZM4.77248 52.2372C4.11458 52.2372 3.57644 51.6973 3.57644 51.0373L3.57602 39.0372C3.57602 38.3772 4.11419 37.8374 4.77207 37.8374H20.3221V49.2374C20.3221 50.3833 20.9382 51.3853 21.9967 52.2374L4.77248 52.2372ZM20.3225 24.0371V35.4371L4.77248 35.4375C4.11458 35.4375 3.57644 34.8976 3.57644 34.2377L3.57602 22.2376C3.57602 21.5776 4.11419 21.0377 4.77207 21.0377H21.9967C20.9383 21.8899 20.3221 22.8918 20.3221 24.0377L20.3225 24.0371ZM52.6186 49.2372C52.6186 50.9473 46.7935 53.4371 37.6667 53.4371C28.54 53.4371 22.7148 50.9473 22.7148 49.2372V44.3529C25.8962 46.3874 31.8052 47.4375 37.6667 47.4375C43.5278 47.4375 49.4371 46.3874 52.6186 44.3534V49.2372ZM52.6186 40.8374C52.6186 42.0315 48.1689 45.0373 37.6667 45.0373C27.1645 45.0373 22.7148 42.0314 22.7148 40.8374V35.9531C25.8962 37.9871 31.8052 39.0372 37.6667 39.0372C43.5278 39.0372 49.4371 37.9872 52.6186 35.9531V40.8374ZM52.6186 32.4376C52.6186 33.6317 48.1689 36.6375 37.6667 36.6375C27.1645 36.6375 22.7148 33.6316 22.7148 32.4376V27.5533C25.8962 29.5873 31.8052 30.6374 37.6667 30.6374C43.5278 30.6374 49.4371 29.5874 52.6186 27.5533V32.4376ZM37.6667 28.2372C27.1645 28.2372 22.7148 25.2313 22.7148 24.0373C22.7148 23.3355 24.2517 22.0091 27.6551 21.0314C30.0056 20.3835 33.1094 19.9093 36.7998 19.8432C37.081 19.8432 37.3739 19.8374 37.6672 19.8374C37.96 19.8374 38.2533 19.8432 38.5345 19.8432C42.2245 19.9093 45.3346 20.3831 47.6851 21.0314C51.0814 22.0095 52.6187 23.3354 52.6187 24.0373C52.6187 25.2314 48.1689 28.2372 37.6667 28.2372ZM52.6186 17.4372C52.6186 18.0972 52.0805 18.6371 51.4226 18.6371H47.9775C44.9633 17.8448 41.3088 17.4372 37.6667 17.4372C34.0243 17.4372 30.3702 17.8453 27.356 18.6371H4.77216C4.11426 18.6371 3.57612 18.0972 3.57612 17.4372L3.5757 5.43718C3.5757 4.77716 4.11387 4.23729 4.77174 4.23729H51.4217C52.0797 4.23729 52.6178 4.77719 52.6178 5.43718L52.6186 17.4372ZM10.7533 7.83697C8.77373 7.83697 7.16458 9.45076 7.16458 11.4372C7.16458 13.4231 8.77319 15.0374 10.7533 15.0374C12.7328 15.0374 14.3419 13.4236 14.3419 11.4372C14.3415 9.45087 12.7329 7.83697 10.7533 7.83697ZM10.7533 12.6371C10.0953 12.6371 9.55721 12.0972 9.55721 11.4372C9.55721 10.7772 10.0954 10.2373 10.7533 10.2373C11.4112 10.2373 11.9493 10.7772 11.9493 11.4372C11.9493 12.0972 11.4111 12.6371 10.7533 12.6371ZM27.4994 9.63708C27.4994 9.95517 27.3738 10.2611 27.1465 10.4829C27.0926 10.5428 27.033 10.5909 26.9671 10.6328C26.9012 10.6746 26.8357 10.7169 26.7639 10.7466C26.6863 10.7767 26.6146 10.8006 26.5365 10.8127C26.459 10.8311 26.3814 10.837 26.3033 10.837C25.9863 10.837 25.6813 10.711 25.454 10.4829C25.2328 10.2611 25.1073 9.95515 25.1073 9.63708C25.1073 9.319 25.2328 9.01305 25.454 8.78496C25.7351 8.50915 26.1477 8.38275 26.5366 8.46102C26.6142 8.47902 26.6859 8.49701 26.7639 8.52715C26.8357 8.55728 26.9016 8.59914 26.9671 8.64099C27.033 8.68284 27.0927 8.73097 27.1465 8.78497C27.3739 9.01306 27.4994 9.31901 27.4994 9.63708ZM29.5391 12.3851C29.7664 12.6128 29.892 12.9191 29.892 13.2368C29.892 13.5549 29.7664 13.8608 29.5391 14.0826C29.4852 14.1425 29.4256 14.1906 29.3597 14.2325C29.2938 14.2743 29.2283 14.3166 29.1565 14.3463C29.0789 14.3764 29.0072 14.4003 28.9291 14.4124C28.8511 14.4308 28.7735 14.4371 28.6959 14.4371C28.6183 14.4371 28.5403 14.4313 28.4627 14.4133C28.3851 14.4011 28.3134 14.3773 28.2354 14.3471C28.1636 14.317 28.0977 14.2751 28.0322 14.2333C27.9663 14.1914 27.9066 14.1433 27.8528 14.0835C27.625 13.8608 27.4994 13.5549 27.4994 13.2368C27.4994 12.9187 27.625 12.6128 27.8524 12.3847C27.9062 12.3307 27.9659 12.2826 28.0318 12.2407C28.0977 12.1988 28.1632 12.1566 28.2349 12.1269C28.3125 12.0967 28.3843 12.0787 28.4623 12.0607C28.8511 11.9829 29.2641 12.1089 29.5391 12.3851ZM32.2841 9.63708C32.2841 9.71493 32.2783 9.79319 32.2603 9.87104C32.2482 9.94889 32.2245 10.0209 32.1944 10.0991C32.1644 10.1711 32.1227 10.2373 32.081 10.303C32.0392 10.3691 31.9913 10.4289 31.9316 10.4829C31.7101 10.711 31.4051 10.837 31.0881 10.837C30.771 10.837 30.466 10.711 30.2449 10.4829C30.0176 10.2611 29.892 9.95516 29.892 9.63708C29.892 9.55924 29.8978 9.48097 29.9158 9.40312C29.9279 9.32528 29.9517 9.2533 29.9817 9.17503C30.0117 9.10304 30.0476 9.03691 30.0952 8.97121C30.1369 8.90508 30.1849 8.84523 30.2445 8.79124C30.6871 8.34133 31.4885 8.34133 31.9312 8.79124C32.1586 9.01306 32.2841 9.31901 32.2841 9.63708ZM34.3238 12.3851C34.5512 12.6128 34.6767 12.9191 34.6767 13.2368C34.6767 13.5549 34.5512 13.8608 34.3238 14.0826C34.1023 14.3111 33.7915 14.4371 33.4802 14.4371C33.4026 14.4371 33.3246 14.4313 33.247 14.4133C33.1694 14.4011 33.0914 14.3773 33.0197 14.3471C32.9479 14.317 32.882 14.281 32.8165 14.2333C32.7506 14.1914 32.6909 14.1433 32.6313 14.0835C32.5774 14.0295 32.5295 13.9696 32.4878 13.9035C32.4398 13.8374 32.4039 13.7717 32.3743 13.6997C32.3442 13.6218 32.3205 13.5499 32.3084 13.4716C32.2904 13.3929 32.2842 13.3151 32.2842 13.2368C32.2842 13.1589 32.29 13.0807 32.3079 13.0028C32.32 12.925 32.3438 12.8467 32.3739 12.7747C32.4039 12.7028 32.4398 12.6366 32.4873 12.5709C32.5291 12.5048 32.577 12.4449 32.6309 12.3851C32.6905 12.3311 32.7506 12.283 32.8161 12.2411C32.882 12.193 32.9475 12.157 33.0193 12.1273C33.091 12.0971 33.1686 12.0733 33.2466 12.0611C33.396 12.031 33.5574 12.031 33.713 12.0611C33.7906 12.0733 33.8624 12.0971 33.9341 12.1273C34.0117 12.1574 34.0777 12.1934 34.1436 12.2411C34.2099 12.283 34.27 12.3311 34.3238 12.3851ZM37.0689 9.63708C37.0689 9.95517 36.9433 10.2611 36.7159 10.4892C36.4948 10.711 36.1836 10.837 35.8728 10.837C35.562 10.837 35.2508 10.711 35.0297 10.4892C34.97 10.4294 34.922 10.3691 34.8803 10.3034C34.8323 10.2372 34.7965 10.1715 34.7668 10.0996C34.7368 10.0217 34.713 9.94973 34.7009 9.87146C34.6826 9.79319 34.6767 9.71493 34.6767 9.63708C34.6767 9.55924 34.6826 9.48097 34.7005 9.40312C34.7126 9.32528 34.7364 9.24702 34.7664 9.17503C34.7965 9.10304 34.8323 9.03691 34.8799 8.97121C34.9216 8.90508 34.9696 8.84523 35.0292 8.79124C35.0831 8.73139 35.1427 8.68326 35.2086 8.64141C35.2745 8.59956 35.34 8.55729 35.4118 8.52757C35.4894 8.49744 35.5611 8.47358 35.6392 8.46144C36.028 8.3836 36.4406 8.50958 36.7155 8.79124C36.9433 9.01306 37.0689 9.31901 37.0689 9.63708ZM39.1085 12.391C39.3355 12.6128 39.461 12.9192 39.461 13.2368C39.461 13.5549 39.3355 13.8608 39.1081 14.0827C38.887 14.3112 38.582 14.4372 38.265 14.4372C38.1874 14.4372 38.1094 14.4313 38.0318 14.4133C37.9542 14.4012 37.8761 14.3773 37.8044 14.3472C37.7326 14.317 37.6667 14.2752 37.6012 14.2333C37.5353 14.1915 37.4757 14.1433 37.4218 14.0835C37.1945 13.8608 37.0689 13.5549 37.0689 13.2368C37.0689 12.9188 37.1945 12.6128 37.4218 12.391C37.4757 12.3311 37.5353 12.283 37.6012 12.2412C37.6671 12.1993 37.7326 12.157 37.8044 12.1273C37.8761 12.0972 37.9537 12.0792 38.0318 12.0612C38.4206 11.9829 38.8332 12.1089 39.1085 12.391ZM41.8536 9.63708C41.8536 9.95517 41.728 10.2611 41.5006 10.4892C41.4468 10.5432 41.3872 10.5913 41.3212 10.6332C41.2553 10.6813 41.1898 10.7173 41.1118 10.747C41.0401 10.7772 40.9683 10.801 40.8907 10.8131C40.8127 10.8311 40.7351 10.837 40.6575 10.837C40.3404 10.837 40.0355 10.711 39.8144 10.4892C39.7547 10.4294 39.7067 10.3691 39.665 10.3034C39.6171 10.2373 39.5812 10.1715 39.5516 10.0996C39.5215 10.0217 39.4977 9.94973 39.4856 9.87146C39.4673 9.7932 39.461 9.71494 39.461 9.63709C39.461 9.319 39.5866 9.01306 39.814 8.79125C40.2508 8.34133 41.058 8.34133 41.5006 8.79125C41.728 9.01306 41.8536 9.31901 41.8536 9.63708ZM43.8928 12.391C44.1202 12.6128 44.2457 12.9192 44.2457 13.2368C44.2457 13.3147 44.2399 13.3929 44.222 13.4708C44.2099 13.5486 44.1861 13.6206 44.156 13.6989C44.126 13.7709 44.0843 13.837 44.0426 13.9027C44.0009 13.9688 43.9529 14.0287 43.8932 14.0827C43.8394 14.1425 43.7797 14.1906 43.7138 14.2325C43.6479 14.2806 43.5824 14.3166 43.5044 14.3463C43.4327 14.3765 43.3609 14.4003 43.2833 14.4125C43.2053 14.4309 43.1273 14.4372 43.0497 14.4372C42.7326 14.4372 42.4277 14.3112 42.2066 14.0831C42.1469 14.0291 42.0989 13.9692 42.0572 13.9031C42.0155 13.837 41.9733 13.7713 41.9437 13.6993C41.9137 13.6214 41.8899 13.5495 41.8778 13.4712C41.8595 13.3929 41.8536 13.3151 41.8536 13.2368C41.8536 12.9187 41.9792 12.6128 42.2066 12.391C42.4815 12.1089 42.8945 11.9829 43.2829 12.0612C43.3605 12.0733 43.4322 12.0972 43.504 12.1273C43.5816 12.1574 43.6475 12.1934 43.7134 12.2411C43.7793 12.283 43.839 12.3311 43.8928 12.391ZM49.0067 13.0029C49.0246 13.0811 49.0305 13.159 49.0305 13.2368C49.0305 13.3147 49.0246 13.3929 49.0067 13.4708C48.9946 13.5486 48.9708 13.6206 48.9408 13.6989C48.9107 13.7709 48.869 13.837 48.8273 13.9027C48.7856 13.9688 48.7376 14.0287 48.6779 14.0827C48.4564 14.3112 48.1452 14.4372 47.8344 14.4372C47.7568 14.4372 47.6788 14.4313 47.6012 14.4133C47.5236 14.4012 47.4456 14.3773 47.3738 14.3472C47.3021 14.317 47.2361 14.2752 47.1707 14.2333C47.1047 14.1915 47.0451 14.1433 46.9913 14.0835C46.7639 13.8608 46.6383 13.5549 46.6383 13.2368C46.6383 13.159 46.6442 13.0807 46.6621 13.0029C46.6742 12.925 46.698 12.853 46.728 12.7811C46.7581 12.7032 46.7939 12.6371 46.8415 12.571C46.8832 12.5048 46.9312 12.445 46.9909 12.3851C47.0447 12.3311 47.1043 12.283 47.1702 12.2411C47.2362 12.1993 47.3017 12.157 47.3734 12.1273C47.4452 12.0972 47.5228 12.0792 47.6008 12.0612C47.7564 12.031 47.9116 12.031 48.0672 12.0612C48.1448 12.0792 48.2165 12.0972 48.2883 12.1273C48.3659 12.1574 48.4318 12.1993 48.4977 12.2411C48.5636 12.283 48.6233 12.3311 48.6771 12.3851C48.7368 12.445 48.7847 12.5052 48.8265 12.571C48.8682 12.6371 48.9103 12.7028 48.9399 12.7811C48.9708 12.853 48.9946 12.925 49.0067 13.0029ZM46.6383 9.63707C46.6383 9.95516 46.5127 10.2611 46.2854 10.4829C46.2315 10.5428 46.1719 10.5909 46.106 10.6327C46.0401 10.6746 45.9745 10.7169 45.9028 10.7466C45.8252 10.7767 45.7535 10.8006 45.6754 10.8127C45.5974 10.8311 45.5198 10.837 45.4418 10.837C45.1247 10.837 44.8198 10.711 44.5987 10.4829C44.3713 10.2611 44.2457 9.95514 44.2457 9.63707C44.2457 9.31899 44.3713 9.01304 44.5987 8.79123C44.6525 8.73138 44.7122 8.68325 44.7781 8.6414C44.844 8.59954 44.9095 8.55727 44.9812 8.52756C45.053 8.49742 45.1306 8.47357 45.2086 8.46143C45.5974 8.38358 46.01 8.50956 46.2849 8.79123C46.5127 9.01304 46.6383 9.319 46.6383 9.63707ZM10.7537 31.8371C12.7332 31.8371 14.3424 30.2233 14.3424 28.2369C14.3424 26.251 12.7337 24.6367 10.7537 24.6367C8.77415 24.6367 7.165 26.2505 7.165 28.2369C7.165 30.2232 8.77362 31.8371 10.7537 31.8371ZM10.7537 27.037C11.4116 27.037 11.9497 27.5769 11.9497 28.2369C11.9497 28.8969 11.4116 29.4368 10.7537 29.4368C10.0958 29.4368 9.55763 28.8969 9.55763 28.2369C9.55721 27.5769 10.0958 27.037 10.7537 27.037ZM10.7537 41.437C8.77415 41.437 7.165 43.0508 7.165 45.0372C7.165 47.0231 8.77362 48.6375 10.7537 48.6375C12.7332 48.6375 14.3424 47.0237 14.3424 45.0372C14.3419 43.0509 12.7333 41.437 10.7537 41.437ZM10.7537 46.2367C10.0958 46.2367 9.55763 45.6968 9.55763 45.0368C9.55763 44.3768 10.0958 43.8369 10.7537 43.8369C11.4116 43.8369 11.9497 44.3768 11.9497 45.0368C11.9497 45.6968 11.4116 46.2367 10.7537 46.2367Z" fill="#1742E7" stroke="white" stroke-width="0.536069" mask="url(#path-1-inside-1_4747_1305)"></path></svg>