<svg xmlns="http://www.w3.org/2000/svg" viewBox="0 0 57 56" fill="none"><path d="M7.82025 52.0577H38.2848V37.3456H7.82025V52.0577ZM8.65829 38.1831H37.4466V51.2191H8.65829V38.1831Z" fill="#1742E7"></path><path d="M48.3643 11.9188C48.8398 6.81269 43.2396 3.30318 38.872 5.89633C37.2783 3.11551 34.3483 1.40645 31.1167 1.40645C25.5832 1.40645 21.3211 6.44692 22.3527 11.9673C19.1982 11.5821 16.0572 13.4203 14.7687 16.4338H3.54317C2.33666 16.4338 1.35547 17.4189 1.35547 18.6295V53.2188C1.35547 54.4253 2.33701 55.4064 3.54317 55.4064H42.4823C43.6885 55.4064 44.6696 54.4249 44.6696 53.2188L44.6692 26.6756H48.4992C52.5661 26.6756 55.8749 23.3632 55.8749 19.2915C55.8753 15.1192 52.3932 11.8064 48.3644 11.9186L48.3643 11.9188ZM2.19326 18.6298C2.19326 17.8812 2.79872 17.2721 3.54296 17.2721H14.4591C13.9804 18.9693 14.1545 20.7956 14.8002 22.2585L2.19261 22.2589L2.19326 18.6298ZM43.8314 53.2191C43.8314 53.9637 43.2259 54.5688 42.4821 54.5688H3.54296C2.79875 54.5688 2.19326 53.9633 2.19326 53.2191V23.0965H15.2364C16.5363 25.2576 18.965 26.6753 21.5542 26.6753H43.8312L43.8314 53.2191ZM48.4998 25.8373H21.5535C17.101 25.8373 13.8303 21.4074 15.4257 16.9998C16.492 14.1883 19.4772 12.2459 22.8149 12.8891L23.4645 13.0139L23.3003 12.3735C21.9602 7.13455 25.9305 2.24399 31.1165 2.24399C36.6241 2.24399 38.4867 7.02851 38.5626 7.11318C38.7832 6.9971 39.9874 5.86444 42.0455 5.86444C45.5125 5.86444 48.0636 9.03525 47.467 12.2928L47.368 12.8318C48.0021 12.7786 48.2402 12.7539 48.499 12.7539C52.1039 12.7539 55.0366 15.6866 55.0366 19.2912C55.0366 22.9009 52.1043 25.8371 48.4994 25.8371L48.4998 25.8373Z" fill="#1742E7"></path><path d="M27.4623 11.2471H26.6239V13.1287H25.791V13.9667H26.6239V22.4515H27.4623V13.9667H28.296V13.1287H27.4623V11.2471Z" fill="#1742E7"></path><path d="M32.783 11.2471H31.9449V19.9105H31.1113V20.7485H31.9449V22.4515H32.783V20.7485H33.6166V19.9105H32.783V11.2471Z" fill="#1742E7"></path><path d="M38.1036 11.2471H37.2656V14.6108H36.4319V15.4488H37.2656V22.4517H38.1036V15.4488H38.9373V14.6108H38.1036V11.2471Z" fill="#1742E7"></path><path d="M43.4253 11.2471H42.5873V16.938H41.7536V17.7764H42.5873V22.4516H43.4253V17.7764H44.2586V16.938H43.4253V11.2471Z" fill="#1742E7"></path><path d="M8.23956 34.786H24.287V35.624H8.23956V34.786Z" fill="#1742E7"></path><path d="M8.23956 32.1389H24.287V32.9769H8.23956V32.1389Z" fill="#1742E7"></path><path d="M8.23956 29.4918H33.4842V30.3298H8.23956V29.4918Z" fill="#1742E7"></path><path d="M7.82025 52.0577H38.2848V37.3456H7.82025V52.0577ZM8.65829 38.1831H37.4466V51.2191H8.65829V38.1831Z" stroke="#1742E7"></path><path d="M48.3643 11.9188C48.8398 6.81269 43.2396 3.30318 38.872 5.89633C37.2783 3.11551 34.3483 1.40645 31.1167 1.40645C25.5832 1.40645 21.3211 6.44692 22.3527 11.9673C19.1982 11.5821 16.0572 13.4203 14.7687 16.4338H3.54317C2.33666 16.4338 1.35547 17.4189 1.35547 18.6295V53.2188C1.35547 54.4253 2.33701 55.4064 3.54317 55.4064H42.4823C43.6885 55.4064 44.6696 54.4249 44.6696 53.2188L44.6692 26.6756H48.4992C52.5661 26.6756 55.8749 23.3632 55.8749 19.2915C55.8753 15.1192 52.3932 11.8064 48.3644 11.9186L48.3643 11.9188ZM2.19326 18.6298C2.19326 17.8812 2.79872 17.2721 3.54296 17.2721H14.4591C13.9804 18.9693 14.1545 20.7956 14.8002 22.2585L2.19261 22.2589L2.19326 18.6298ZM43.8314 53.2191C43.8314 53.9637 43.2259 54.5688 42.4821 54.5688H3.54296C2.79875 54.5688 2.19326 53.9633 2.19326 53.2191V23.0965H15.2364C16.5363 25.2576 18.965 26.6753 21.5542 26.6753H43.8312L43.8314 53.2191ZM48.4998 25.8373H21.5535C17.101 25.8373 13.8303 21.4074 15.4257 16.9998C16.492 14.1883 19.4772 12.2459 22.8149 12.8891L23.4645 13.0139L23.3003 12.3735C21.9602 7.13455 25.9305 2.24399 31.1165 2.24399C36.6241 2.24399 38.4867 7.02851 38.5626 7.11318C38.7832 6.9971 39.9874 5.86444 42.0455 5.86444C45.5125 5.86444 48.0636 9.03525 47.467 12.2928L47.368 12.8318C48.0021 12.7786 48.2402 12.7539 48.499 12.7539C52.1039 12.7539 55.0366 15.6866 55.0366 19.2912C55.0366 22.9009 52.1043 25.8371 48.4994 25.8371L48.4998 25.8373Z" stroke="#1742E7"></path><path d="M27.4623 11.2471H26.6239V13.1287H25.791V13.9667H26.6239V22.4515H27.4623V13.9667H28.296V13.1287H27.4623V11.2471Z" stroke="#1742E7"></path><path d="M32.783 11.2471H31.9449V19.9105H31.1113V20.7485H31.9449V22.4515H32.783V20.7485H33.6166V19.9105H32.783V11.2471Z" stroke="#1742E7"></path><path d="M38.1036 11.2471H37.2656V14.6108H36.4319V15.4488H37.2656V22.4517H38.1036V15.4488H38.9373V14.6108H38.1036V11.2471Z" stroke="#1742E7"></path><path d="M43.4253 11.2471H42.5873V16.938H41.7536V17.7764H42.5873V22.4516H43.4253V17.7764H44.2586V16.938H43.4253V11.2471Z" stroke="#1742E7"></path><path d="M8.23956 34.786H24.287V35.624H8.23956V34.786Z" stroke="#1742E7"></path><path d="M8.23956 32.1389H24.287V32.9769H8.23956V32.1389Z" stroke="#1742E7"></path><path d="M8.23956 29.4918H33.4842V30.3298H8.23956V29.4918Z" stroke="#1742E7"></path></svg>