<svg xmlns="http://www.w3.org/2000/svg" viewBox="0 0 55 55" fill="none"><mask id="path-1-inside-1_2820_1050" fill="white"><path fill-rule="evenodd" clip-rule="evenodd" d="M2.04951 0.68104C1.74649 0.832077 1.38271 1.10757 1.24106 1.2932C0.662332 2.05198 0.660645 2.06759 0.660645 6.64015C0.660645 9.55015 0.698931 11.0045 0.783099 11.2852C0.941519 11.8141 1.51687 12.4812 2.06945 12.7768C2.50072 13.0074 2.56454 13.0105 6.93628 13.0105C11.1058 13.0105 11.3903 12.9985 11.7778 12.8062C12.303 12.5457 12.8 12.0485 13.0601 11.5237C13.2319 11.1772 13.2698 10.8324 13.2997 9.34532L13.3352 7.57865H14.3611C15.246 7.57865 15.4186 7.54922 15.6166 7.36475C16.0972 6.91702 16.0033 6.21383 15.4237 5.92051C15.2759 5.84584 14.7682 5.78804 14.2509 5.78719L13.3387 5.78561L13.2982 4.01894C13.2623 2.45341 13.2315 2.20249 13.0276 1.8153C12.7373 1.26462 12.0703 0.688001 11.5393 0.528948C11.2585 0.444781 9.79744 0.406494 6.86561 0.406494H2.60061L2.04951 0.68104ZM11.3228 2.39582C11.5134 2.63134 11.5244 2.86528 11.5244 6.71335C11.5244 10.7456 11.5223 10.7842 11.2951 11.0261L11.0657 11.2702H6.98227C3.11964 11.2702 2.88549 11.2593 2.64997 11.0686L2.40095 10.8671L2.37099 6.79246L2.34104 2.71783L2.65651 2.40236L2.97198 2.08689L7.04661 2.11684L11.1212 2.1468L11.3228 2.39582ZM8.59695 4.15511C8.46944 4.24444 7.95367 5.0048 7.45078 5.84478L6.53664 7.37203L6.26189 7.19135C5.11814 6.43986 4.99368 6.38554 4.64277 6.48447C4.40957 6.55029 4.24219 6.69532 4.12079 6.93695C3.82262 7.53034 4.01985 7.81122 5.31421 8.63665C6.64054 9.48244 6.78155 9.53528 7.17265 9.33309C7.55942 9.13311 9.94226 5.23304 9.94226 4.79997C9.94226 4.16934 9.13149 3.78068 8.59695 4.15511ZM18.722 5.94319C18.3983 6.08389 18.1691 6.44007 18.1691 6.80258C18.1691 6.89033 18.3078 7.10075 18.4774 7.27035L18.7857 7.57865H32.0647C47.091 7.57865 45.9686 7.51442 46.7838 8.42117C47.3048 9.00053 47.4906 9.51028 47.4906 10.3595V10.9538L45.7767 10.9561C43.8979 10.9586 43.4536 11.066 42.8137 11.6719C42.1355 12.3143 42.0661 12.5967 42.0247 14.8826L41.9869 16.9657H38.094C34.3416 16.9657 34.1934 16.9733 33.9901 17.1767C33.6458 17.5209 33.6745 18.0742 34.0545 18.416C34.3179 18.6529 34.3243 18.6533 38.1622 18.6533H42.006V19.9525C42.006 21.6035 42.1676 22.1955 42.7871 22.8152C43.5824 23.6103 43.6849 23.624 48.5598 23.5887C52.7089 23.5585 52.828 23.5519 53.2489 23.3267C53.7517 23.0576 54.3109 22.4555 54.5177 21.9604C54.633 21.6846 54.6622 20.719 54.6604 17.2592C54.6579 12.4177 54.6615 12.4454 53.9292 11.7131C53.2689 11.0528 53.1038 11.0101 51.0622 10.9719L49.202 10.937L49.1574 9.91709C49.1202 9.06698 49.0622 8.79159 48.8091 8.26422C48.2112 7.01775 46.987 6.11648 45.5921 5.89573C45.1487 5.82559 40.3418 5.78835 31.9861 5.79057C21.0803 5.79331 19.0121 5.81715 18.722 5.94319ZM52.7243 12.9942L52.9823 13.2942L52.9524 17.3543L52.9225 21.4144L52.6734 21.6159C52.4379 21.8066 52.2035 21.8175 48.3227 21.8175C44.3615 21.8175 44.2137 21.8102 44.01 21.6065C43.8063 21.4029 43.7991 21.255 43.7991 17.3279C43.7991 14.6515 43.8374 13.1885 43.9114 13.0504C43.9732 12.9349 44.1275 12.7978 44.2542 12.7457C44.3809 12.6936 46.2805 12.6607 48.4754 12.6725L52.4663 12.6941L52.7243 12.9942ZM49.9455 14.7464C49.8236 14.86 49.3325 15.6076 48.8541 16.4076C48.3756 17.2077 47.9715 17.8787 47.9557 17.8988C47.9401 17.9189 47.7222 17.7951 47.4716 17.6236C46.408 16.8959 46.0009 16.8391 45.5904 17.3609C45.1257 17.9518 45.3769 18.3558 46.7507 19.2267C48.069 20.0624 48.2544 20.1245 48.6222 19.8538C48.783 19.7354 49.4479 18.7643 50.0998 17.6957C51.039 16.156 51.2853 15.6723 51.2864 15.365C51.2887 14.67 50.4452 14.2809 49.9455 14.7464ZM25.547 16.2106C25.3529 16.3676 25.2624 16.6498 25.0711 17.6942C24.9411 18.4036 24.8183 18.9969 24.798 19.0128C24.7778 19.0286 24.3578 19.2368 23.8647 19.4753C23.3716 19.7138 22.712 20.1058 22.3987 20.3461L21.8294 20.7832L20.6584 20.3503C19.3125 19.8526 19.0912 19.8299 18.7694 20.1563C18.3795 20.5517 16.9035 23.2464 16.9035 23.5629C16.9035 23.8715 17.2322 24.2245 18.4059 25.1761C18.9839 25.6446 19.0086 25.6843 18.941 26.0364C18.8495 26.5122 18.8492 28.3003 18.9405 28.7787C19.0094 29.141 18.9929 29.1626 18.0545 29.9389C17.0383 30.7795 16.9033 30.9426 16.9038 31.3295C16.9043 31.7025 18.6177 34.603 18.9485 34.7907C19.2096 34.9388 19.3106 34.9201 20.5352 34.4955L21.843 34.0421L22.4056 34.4741C22.715 34.7117 23.3716 35.1013 23.8647 35.3399C24.3578 35.5783 24.7778 35.7865 24.798 35.8024C24.8183 35.8182 24.9411 36.4115 25.0711 37.1209C25.3926 38.8756 25.2736 38.7986 27.6617 38.7986C30.0467 38.7986 29.9259 38.8768 30.2474 37.1253C30.3775 36.416 30.5016 35.8217 30.5231 35.8047C30.5446 35.7876 30.9656 35.5783 31.4587 35.3399C31.9518 35.1013 32.6114 34.7093 32.9247 34.469L33.494 34.0319L34.665 34.4649C35.9716 34.948 36.1923 34.9777 36.5017 34.7116C36.8016 34.4537 38.4199 31.6071 38.4199 31.3375C38.4199 30.9392 38.3073 30.8019 37.3 29.9732L36.3046 29.1541L36.3826 28.6763C36.4772 28.0968 36.4751 26.543 36.3788 26.0301C36.31 25.6627 36.3232 25.6456 37.3022 24.8401C38.3115 24.0097 38.4203 23.8764 38.4196 23.47C38.4191 23.192 36.8095 20.3621 36.5048 20.1036C36.1912 19.8377 35.9719 19.867 34.665 20.3503L33.494 20.7832L32.9247 20.3461C32.6114 20.1058 31.9518 19.713 31.4587 19.4734C30.9656 19.2336 30.532 18.9927 30.4952 18.938C30.4584 18.8832 30.3436 18.3119 30.2401 17.6684C29.9657 15.963 30.0486 16.0165 27.6782 16.0165C25.9987 16.0165 25.7597 16.0382 25.547 16.2106ZM10.3641 17.1649C8.39961 17.8008 6.956 19.2648 6.29648 21.2901C6.12952 21.8027 6.10262 22.4121 6.06518 26.5286L6.02278 31.1871L4.26455 31.2231C2.28155 31.2639 1.95733 31.3611 1.29665 32.1135C0.653894 32.8456 0.660434 32.7895 0.662965 37.5559C0.665074 41.5512 0.681212 41.9452 0.858723 42.3361C1.10258 42.8726 1.89172 43.5751 2.43333 43.7373C2.72064 43.8234 4.13608 43.8613 7.05968 43.8613H11.272L11.8202 43.5882C13.0189 42.9908 13.3174 42.2529 13.3174 39.8869V38.2713H17.1595H21.0016L21.2202 37.9933C21.5161 37.6172 21.5002 37.1628 21.1799 36.8426L20.921 36.5837H17.1192H13.3174V35.0735C13.3174 33.1963 13.1763 32.6401 12.5386 32.0024C11.8659 31.3297 11.3807 31.2046 9.44379 31.2046H7.82257L7.85579 26.5374C7.8868 22.1857 7.90305 21.8362 8.09606 21.3654C8.52713 20.314 9.49442 19.3469 10.5449 18.9169C11.0159 18.7242 11.4009 18.7067 16.2943 18.6554C21.362 18.6025 21.5456 18.5935 21.7441 18.3896C22.0708 18.0541 22.076 17.4974 21.7552 17.1767C21.5498 16.9712 21.4076 16.9658 16.2443 16.9714C11.4596 16.9765 10.8878 16.9954 10.3641 17.1649ZM28.5058 17.7832C28.507 18.0459 28.8485 19.8102 28.9457 20.0558C29.0567 20.3359 29.5049 20.6573 29.7846 20.6573C30.0941 20.6573 31.6708 21.5324 32.2498 22.0255C32.5978 22.3219 32.9896 22.5915 33.1203 22.6244C33.2627 22.6603 33.7741 22.5316 34.3946 22.3036C34.9645 22.0943 35.4841 21.923 35.5492 21.923C35.7207 21.923 36.4684 23.3012 36.3418 23.384C35.8044 23.7357 34.6007 24.877 34.5485 25.0845C34.5123 25.2282 34.5379 25.668 34.6055 26.0621C34.7615 26.9718 34.7615 27.8433 34.6055 28.753C34.5379 29.1471 34.5127 29.5894 34.5495 29.7359C34.6065 29.9628 35.1067 30.4348 36.2294 31.3209C36.4421 31.4888 36.4408 31.4949 36.0515 32.1911C35.836 32.5767 35.608 32.8921 35.5453 32.8921C35.4824 32.8921 34.9645 32.7209 34.3946 32.5115C33.7207 32.2639 33.2676 32.1534 33.0994 32.1957C32.9571 32.2314 32.5653 32.5018 32.2288 32.7967C31.6737 33.2829 30.1028 34.1578 29.7846 34.1578C29.5049 34.1578 29.0567 34.4792 28.9457 34.7593C28.8485 35.0049 28.507 36.7692 28.5058 37.032C28.5056 37.0755 28.1258 37.1111 27.6617 37.1111C27.1976 37.1111 26.8178 37.0755 26.8176 37.032C26.8164 36.7692 26.4749 35.0049 26.3777 34.7593C26.2667 34.4792 25.8185 34.1578 25.5389 34.1578C25.2206 34.1578 23.6497 33.2829 23.0946 32.7967C22.7581 32.5018 22.3663 32.2314 22.224 32.1957C22.0558 32.1534 21.6027 32.2639 20.9288 32.5115C20.3589 32.7209 19.841 32.8921 19.7781 32.8921C19.7154 32.8921 19.4874 32.5767 19.2719 32.1911C18.8826 31.4949 18.8813 31.4888 19.094 31.3209C20.2167 30.4348 20.7169 29.9628 20.7739 29.7359C20.8107 29.5894 20.7855 29.1471 20.7179 28.753C20.563 27.8493 20.5618 26.964 20.7143 26.04C20.78 25.6426 20.8055 25.2063 20.7711 25.0705C20.7365 24.934 20.3073 24.4929 19.8126 24.0852C19.32 23.6791 18.9148 23.3147 18.9122 23.2753C18.9023 23.126 19.6755 21.923 19.7814 21.923C19.8425 21.923 20.3589 22.0943 20.9288 22.3036C21.5493 22.5316 22.0607 22.6603 22.2031 22.6244C22.3338 22.5915 22.7256 22.3219 23.0736 22.0255C23.6526 21.5324 25.2293 20.6573 25.5389 20.6573C25.8185 20.6573 26.2667 20.3359 26.3777 20.0558C26.4749 19.8102 26.8164 18.0459 26.8176 17.7832C26.8178 17.7397 27.1976 17.704 27.6617 17.704C28.1258 17.704 28.5056 17.7397 28.5058 17.7832ZM26.4078 22.5116C23.7336 23.2308 22.079 25.9998 22.7605 28.6161C23.4661 31.3251 26.231 32.9962 28.8702 32.3088C31.5714 31.6052 33.2502 28.8378 32.567 26.215C31.855 23.4812 29.0574 21.799 26.4078 22.5116ZM28.987 24.3887C29.7519 24.7449 30.2418 25.2175 30.61 25.9543C30.8839 26.5026 30.9313 26.7155 30.9303 27.3981C30.9286 28.7442 30.3042 29.7616 29.1149 30.3558C28.5657 30.6303 28.3535 30.6772 27.6617 30.6772C26.9699 30.6772 26.7577 30.6303 26.2085 30.3558C25.0219 29.763 24.3942 28.7427 24.3942 27.4076C24.3942 26.0724 25.0219 25.0521 26.2085 24.4593C27.0605 24.0335 28.164 24.0055 28.987 24.3887ZM11.3134 33.2086C11.5172 33.4123 11.5244 33.5601 11.5244 37.533C11.5244 41.4545 11.5149 41.6559 11.321 41.8497C11.0127 42.158 10.5129 42.1898 6.53148 42.154L2.85712 42.121L2.59913 41.821L2.34114 41.5209L2.37099 37.4812C2.39915 33.68 2.41287 33.4284 2.60187 33.2195C2.79963 33.0011 2.86851 32.9976 6.95263 32.9976C10.9619 32.9976 11.1096 33.0048 11.3134 33.2086ZM8.53609 35.028C8.39434 35.1585 7.89039 35.918 7.41618 36.7157C6.45111 38.3391 6.62123 38.2521 5.63591 37.6272C4.90656 37.1646 4.27699 37.2532 4.05645 37.8494C3.91585 38.2293 4.03166 38.5739 4.39175 38.8475C5.13544 39.4125 6.61533 40.2752 6.84104 40.2752C6.97394 40.2752 7.20144 40.1685 7.34657 40.0379C7.72701 39.6957 9.94226 35.9591 9.94226 35.6595C9.94226 35.3256 9.39886 34.7907 9.05977 34.7907C8.91348 34.7907 8.67785 34.8974 8.53609 35.028ZM33.7989 36.7493C33.6647 36.844 33.5123 37.0335 33.4602 37.1704C33.3416 37.4823 33.5177 38.0258 33.7832 38.168C33.9019 38.2315 36.0455 38.2713 39.3476 38.2713C42.3018 38.2713 44.9404 38.3016 45.2112 38.3388C45.9252 38.4366 46.7348 38.9607 47.109 39.5673C47.3668 39.9853 47.4289 40.2171 47.4691 40.9121L47.5177 41.7519H45.9412C43.9964 41.7519 43.4852 41.8796 42.8124 42.5335C42.1232 43.2033 42.006 43.6905 42.006 45.8845V47.6583H40.9607C39.9228 47.6583 39.9133 47.6607 39.6423 47.9829C39.3282 48.3562 39.3095 48.5027 39.5235 48.9164C39.7276 49.3112 39.8472 49.3459 41.0014 49.3459H41.9834L42.0255 50.9544C42.0621 52.351 42.0979 52.6203 42.2969 52.9998C42.5881 53.5548 43.3023 54.1694 43.8172 54.308C44.0661 54.3751 45.8536 54.4042 48.5775 54.3856L52.9393 54.3559L53.4555 54.0367C53.7751 53.8391 54.0932 53.521 54.2909 53.2014L54.61 52.6852L54.6398 48.3234C54.6583 45.5994 54.6292 43.812 54.5621 43.563C54.4237 43.0488 53.8097 42.3347 53.254 42.0414C52.8649 41.8361 52.6191 41.8066 51.0094 41.7712L49.2019 41.7314L49.1592 40.7133C49.1253 39.9037 49.0614 39.5764 48.8471 39.115C48.4311 38.2196 47.7108 37.4957 46.776 37.0336L45.9725 36.6364L40.0077 36.6068C34.6315 36.5801 34.0188 36.5942 33.7989 36.7493ZM52.6734 43.7465L52.9225 43.948L52.9524 48.0227L52.9824 52.0973L52.6669 52.4128L52.3514 52.7282L48.2768 52.6983L44.2022 52.6683L44.0006 52.4193C43.81 52.1838 43.7991 51.9498 43.7991 48.1018C43.7991 44.0695 43.8011 44.0309 44.0284 43.789L44.2578 43.5449H48.3411C52.2038 43.5449 52.4379 43.5558 52.6734 43.7465ZM27.8574 44.8421C27.4307 45.1495 26.2856 45.9877 25.3127 46.7048C23.4746 48.0596 23.3124 48.2477 23.5067 48.7992C23.6413 49.1811 28.4454 52.721 28.8289 52.721C29.2917 52.721 29.6657 52.3493 29.6657 51.8894C29.6657 51.4206 29.542 51.2909 28.0309 50.1765L26.9761 49.3987L31.9529 49.3712L36.9296 49.3438L37.1474 49.0669C37.4197 48.7208 37.4262 48.2843 37.1636 47.9601L36.9621 47.7111L31.9758 47.6583L26.9894 47.6056L28.2761 46.6698C29.5651 45.7321 29.7507 45.5073 29.6813 44.9688C29.6441 44.68 29.1802 44.2832 28.8798 44.2832C28.7442 44.2832 28.284 44.5347 27.8574 44.8421ZM49.9977 45.5453C49.8527 45.6594 49.3716 46.3595 48.9286 47.101C48.4856 47.8426 48.0804 48.516 48.0281 48.5972C47.9514 48.7165 47.7993 48.6606 47.2398 48.3071C46.4269 47.7938 46.02 47.7482 45.6401 48.1282C45.3326 48.4356 45.3003 48.9118 45.5657 49.2214C45.8875 49.5964 47.9327 50.8225 48.2367 50.8225C48.3937 50.8225 48.6178 50.7394 48.7349 50.638C48.9562 50.4462 51.009 47.1008 51.2383 46.5583C51.4124 46.1464 51.2523 45.696 50.8595 45.493C50.4634 45.2881 50.3131 45.2972 49.9977 45.5453Z"></path></mask><path fill-rule="evenodd" clip-rule="evenodd" d="M2.04951 0.68104C1.74649 0.832077 1.38271 1.10757 1.24106 1.2932C0.662332 2.05198 0.660645 2.06759 0.660645 6.64015C0.660645 9.55015 0.698931 11.0045 0.783099 11.2852C0.941519 11.8141 1.51687 12.4812 2.06945 12.7768C2.50072 13.0074 2.56454 13.0105 6.93628 13.0105C11.1058 13.0105 11.3903 12.9985 11.7778 12.8062C12.303 12.5457 12.8 12.0485 13.0601 11.5237C13.2319 11.1772 13.2698 10.8324 13.2997 9.34532L13.3352 7.57865H14.3611C15.246 7.57865 15.4186 7.54922 15.6166 7.36475C16.0972 6.91702 16.0033 6.21383 15.4237 5.92051C15.2759 5.84584 14.7682 5.78804 14.2509 5.78719L13.3387 5.78561L13.2982 4.01894C13.2623 2.45341 13.2315 2.20249 13.0276 1.8153C12.7373 1.26462 12.0703 0.688001 11.5393 0.528948C11.2585 0.444781 9.79744 0.406494 6.86561 0.406494H2.60061L2.04951 0.68104ZM11.3228 2.39582C11.5134 2.63134 11.5244 2.86528 11.5244 6.71335C11.5244 10.7456 11.5223 10.7842 11.2951 11.0261L11.0657 11.2702H6.98227C3.11964 11.2702 2.88549 11.2593 2.64997 11.0686L2.40095 10.8671L2.37099 6.79246L2.34104 2.71783L2.65651 2.40236L2.97198 2.08689L7.04661 2.11684L11.1212 2.1468L11.3228 2.39582ZM8.59695 4.15511C8.46944 4.24444 7.95367 5.0048 7.45078 5.84478L6.53664 7.37203L6.26189 7.19135C5.11814 6.43986 4.99368 6.38554 4.64277 6.48447C4.40957 6.55029 4.24219 6.69532 4.12079 6.93695C3.82262 7.53034 4.01985 7.81122 5.31421 8.63665C6.64054 9.48244 6.78155 9.53528 7.17265 9.33309C7.55942 9.13311 9.94226 5.23304 9.94226 4.79997C9.94226 4.16934 9.13149 3.78068 8.59695 4.15511ZM18.722 5.94319C18.3983 6.08389 18.1691 6.44007 18.1691 6.80258C18.1691 6.89033 18.3078 7.10075 18.4774 7.27035L18.7857 7.57865H32.0647C47.091 7.57865 45.9686 7.51442 46.7838 8.42117C47.3048 9.00053 47.4906 9.51028 47.4906 10.3595V10.9538L45.7767 10.9561C43.8979 10.9586 43.4536 11.066 42.8137 11.6719C42.1355 12.3143 42.0661 12.5967 42.0247 14.8826L41.9869 16.9657H38.094C34.3416 16.9657 34.1934 16.9733 33.9901 17.1767C33.6458 17.5209 33.6745 18.0742 34.0545 18.416C34.3179 18.6529 34.3243 18.6533 38.1622 18.6533H42.006V19.9525C42.006 21.6035 42.1676 22.1955 42.7871 22.8152C43.5824 23.6103 43.6849 23.624 48.5598 23.5887C52.7089 23.5585 52.828 23.5519 53.2489 23.3267C53.7517 23.0576 54.3109 22.4555 54.5177 21.9604C54.633 21.6846 54.6622 20.719 54.6604 17.2592C54.6579 12.4177 54.6615 12.4454 53.9292 11.7131C53.2689 11.0528 53.1038 11.0101 51.0622 10.9719L49.202 10.937L49.1574 9.91709C49.1202 9.06698 49.0622 8.79159 48.8091 8.26422C48.2112 7.01775 46.987 6.11648 45.5921 5.89573C45.1487 5.82559 40.3418 5.78835 31.9861 5.79057C21.0803 5.79331 19.0121 5.81715 18.722 5.94319ZM52.7243 12.9942L52.9823 13.2942L52.9524 17.3543L52.9225 21.4144L52.6734 21.6159C52.4379 21.8066 52.2035 21.8175 48.3227 21.8175C44.3615 21.8175 44.2137 21.8102 44.01 21.6065C43.8063 21.4029 43.7991 21.255 43.7991 17.3279C43.7991 14.6515 43.8374 13.1885 43.9114 13.0504C43.9732 12.9349 44.1275 12.7978 44.2542 12.7457C44.3809 12.6936 46.2805 12.6607 48.4754 12.6725L52.4663 12.6941L52.7243 12.9942ZM49.9455 14.7464C49.8236 14.86 49.3325 15.6076 48.8541 16.4076C48.3756 17.2077 47.9715 17.8787 47.9557 17.8988C47.9401 17.9189 47.7222 17.7951 47.4716 17.6236C46.408 16.8959 46.0009 16.8391 45.5904 17.3609C45.1257 17.9518 45.3769 18.3558 46.7507 19.2267C48.069 20.0624 48.2544 20.1245 48.6222 19.8538C48.783 19.7354 49.4479 18.7643 50.0998 17.6957C51.039 16.156 51.2853 15.6723 51.2864 15.365C51.2887 14.67 50.4452 14.2809 49.9455 14.7464ZM25.547 16.2106C25.3529 16.3676 25.2624 16.6498 25.0711 17.6942C24.9411 18.4036 24.8183 18.9969 24.798 19.0128C24.7778 19.0286 24.3578 19.2368 23.8647 19.4753C23.3716 19.7138 22.712 20.1058 22.3987 20.3461L21.8294 20.7832L20.6584 20.3503C19.3125 19.8526 19.0912 19.8299 18.7694 20.1563C18.3795 20.5517 16.9035 23.2464 16.9035 23.5629C16.9035 23.8715 17.2322 24.2245 18.4059 25.1761C18.9839 25.6446 19.0086 25.6843 18.941 26.0364C18.8495 26.5122 18.8492 28.3003 18.9405 28.7787C19.0094 29.141 18.9929 29.1626 18.0545 29.9389C17.0383 30.7795 16.9033 30.9426 16.9038 31.3295C16.9043 31.7025 18.6177 34.603 18.9485 34.7907C19.2096 34.9388 19.3106 34.9201 20.5352 34.4955L21.843 34.0421L22.4056 34.4741C22.715 34.7117 23.3716 35.1013 23.8647 35.3399C24.3578 35.5783 24.7778 35.7865 24.798 35.8024C24.8183 35.8182 24.9411 36.4115 25.0711 37.1209C25.3926 38.8756 25.2736 38.7986 27.6617 38.7986C30.0467 38.7986 29.9259 38.8768 30.2474 37.1253C30.3775 36.416 30.5016 35.8217 30.5231 35.8047C30.5446 35.7876 30.9656 35.5783 31.4587 35.3399C31.9518 35.1013 32.6114 34.7093 32.9247 34.469L33.494 34.0319L34.665 34.4649C35.9716 34.948 36.1923 34.9777 36.5017 34.7116C36.8016 34.4537 38.4199 31.6071 38.4199 31.3375C38.4199 30.9392 38.3073 30.8019 37.3 29.9732L36.3046 29.1541L36.3826 28.6763C36.4772 28.0968 36.4751 26.543 36.3788 26.0301C36.31 25.6627 36.3232 25.6456 37.3022 24.8401C38.3115 24.0097 38.4203 23.8764 38.4196 23.47C38.4191 23.192 36.8095 20.3621 36.5048 20.1036C36.1912 19.8377 35.9719 19.867 34.665 20.3503L33.494 20.7832L32.9247 20.3461C32.6114 20.1058 31.9518 19.713 31.4587 19.4734C30.9656 19.2336 30.532 18.9927 30.4952 18.938C30.4584 18.8832 30.3436 18.3119 30.2401 17.6684C29.9657 15.963 30.0486 16.0165 27.6782 16.0165C25.9987 16.0165 25.7597 16.0382 25.547 16.2106ZM10.3641 17.1649C8.39961 17.8008 6.956 19.2648 6.29648 21.2901C6.12952 21.8027 6.10262 22.4121 6.06518 26.5286L6.02278 31.1871L4.26455 31.2231C2.28155 31.2639 1.95733 31.3611 1.29665 32.1135C0.653894 32.8456 0.660434 32.7895 0.662965 37.5559C0.665074 41.5512 0.681212 41.9452 0.858723 42.3361C1.10258 42.8726 1.89172 43.5751 2.43333 43.7373C2.72064 43.8234 4.13608 43.8613 7.05968 43.8613H11.272L11.8202 43.5882C13.0189 42.9908 13.3174 42.2529 13.3174 39.8869V38.2713H17.1595H21.0016L21.2202 37.9933C21.5161 37.6172 21.5002 37.1628 21.1799 36.8426L20.921 36.5837H17.1192H13.3174V35.0735C13.3174 33.1963 13.1763 32.6401 12.5386 32.0024C11.8659 31.3297 11.3807 31.2046 9.44379 31.2046H7.82257L7.85579 26.5374C7.8868 22.1857 7.90305 21.8362 8.09606 21.3654C8.52713 20.314 9.49442 19.3469 10.5449 18.9169C11.0159 18.7242 11.4009 18.7067 16.2943 18.6554C21.362 18.6025 21.5456 18.5935 21.7441 18.3896C22.0708 18.0541 22.076 17.4974 21.7552 17.1767C21.5498 16.9712 21.4076 16.9658 16.2443 16.9714C11.4596 16.9765 10.8878 16.9954 10.3641 17.1649ZM28.5058 17.7832C28.507 18.0459 28.8485 19.8102 28.9457 20.0558C29.0567 20.3359 29.5049 20.6573 29.7846 20.6573C30.0941 20.6573 31.6708 21.5324 32.2498 22.0255C32.5978 22.3219 32.9896 22.5915 33.1203 22.6244C33.2627 22.6603 33.7741 22.5316 34.3946 22.3036C34.9645 22.0943 35.4841 21.923 35.5492 21.923C35.7207 21.923 36.4684 23.3012 36.3418 23.384C35.8044 23.7357 34.6007 24.877 34.5485 25.0845C34.5123 25.2282 34.5379 25.668 34.6055 26.0621C34.7615 26.9718 34.7615 27.8433 34.6055 28.753C34.5379 29.1471 34.5127 29.5894 34.5495 29.7359C34.6065 29.9628 35.1067 30.4348 36.2294 31.3209C36.4421 31.4888 36.4408 31.4949 36.0515 32.1911C35.836 32.5767 35.608 32.8921 35.5453 32.8921C35.4824 32.8921 34.9645 32.7209 34.3946 32.5115C33.7207 32.2639 33.2676 32.1534 33.0994 32.1957C32.9571 32.2314 32.5653 32.5018 32.2288 32.7967C31.6737 33.2829 30.1028 34.1578 29.7846 34.1578C29.5049 34.1578 29.0567 34.4792 28.9457 34.7593C28.8485 35.0049 28.507 36.7692 28.5058 37.032C28.5056 37.0755 28.1258 37.1111 27.6617 37.1111C27.1976 37.1111 26.8178 37.0755 26.8176 37.032C26.8164 36.7692 26.4749 35.0049 26.3777 34.7593C26.2667 34.4792 25.8185 34.1578 25.5389 34.1578C25.2206 34.1578 23.6497 33.2829 23.0946 32.7967C22.7581 32.5018 22.3663 32.2314 22.224 32.1957C22.0558 32.1534 21.6027 32.2639 20.9288 32.5115C20.3589 32.7209 19.841 32.8921 19.7781 32.8921C19.7154 32.8921 19.4874 32.5767 19.2719 32.1911C18.8826 31.4949 18.8813 31.4888 19.094 31.3209C20.2167 30.4348 20.7169 29.9628 20.7739 29.7359C20.8107 29.5894 20.7855 29.1471 20.7179 28.753C20.563 27.8493 20.5618 26.964 20.7143 26.04C20.78 25.6426 20.8055 25.2063 20.7711 25.0705C20.7365 24.934 20.3073 24.4929 19.8126 24.0852C19.32 23.6791 18.9148 23.3147 18.9122 23.2753C18.9023 23.126 19.6755 21.923 19.7814 21.923C19.8425 21.923 20.3589 22.0943 20.9288 22.3036C21.5493 22.5316 22.0607 22.6603 22.2031 22.6244C22.3338 22.5915 22.7256 22.3219 23.0736 22.0255C23.6526 21.5324 25.2293 20.6573 25.5389 20.6573C25.8185 20.6573 26.2667 20.3359 26.3777 20.0558C26.4749 19.8102 26.8164 18.0459 26.8176 17.7832C26.8178 17.7397 27.1976 17.704 27.6617 17.704C28.1258 17.704 28.5056 17.7397 28.5058 17.7832ZM26.4078 22.5116C23.7336 23.2308 22.079 25.9998 22.7605 28.6161C23.4661 31.3251 26.231 32.9962 28.8702 32.3088C31.5714 31.6052 33.2502 28.8378 32.567 26.215C31.855 23.4812 29.0574 21.799 26.4078 22.5116ZM28.987 24.3887C29.7519 24.7449 30.2418 25.2175 30.61 25.9543C30.8839 26.5026 30.9313 26.7155 30.9303 27.3981C30.9286 28.7442 30.3042 29.7616 29.1149 30.3558C28.5657 30.6303 28.3535 30.6772 27.6617 30.6772C26.9699 30.6772 26.7577 30.6303 26.2085 30.3558C25.0219 29.763 24.3942 28.7427 24.3942 27.4076C24.3942 26.0724 25.0219 25.0521 26.2085 24.4593C27.0605 24.0335 28.164 24.0055 28.987 24.3887ZM11.3134 33.2086C11.5172 33.4123 11.5244 33.5601 11.5244 37.533C11.5244 41.4545 11.5149 41.6559 11.321 41.8497C11.0127 42.158 10.5129 42.1898 6.53148 42.154L2.85712 42.121L2.59913 41.821L2.34114 41.5209L2.37099 37.4812C2.39915 33.68 2.41287 33.4284 2.60187 33.2195C2.79963 33.0011 2.86851 32.9976 6.95263 32.9976C10.9619 32.9976 11.1096 33.0048 11.3134 33.2086ZM8.53609 35.028C8.39434 35.1585 7.89039 35.918 7.41618 36.7157C6.45111 38.3391 6.62123 38.2521 5.63591 37.6272C4.90656 37.1646 4.27699 37.2532 4.05645 37.8494C3.91585 38.2293 4.03166 38.5739 4.39175 38.8475C5.13544 39.4125 6.61533 40.2752 6.84104 40.2752C6.97394 40.2752 7.20144 40.1685 7.34657 40.0379C7.72701 39.6957 9.94226 35.9591 9.94226 35.6595C9.94226 35.3256 9.39886 34.7907 9.05977 34.7907C8.91348 34.7907 8.67785 34.8974 8.53609 35.028ZM33.7989 36.7493C33.6647 36.844 33.5123 37.0335 33.4602 37.1704C33.3416 37.4823 33.5177 38.0258 33.7832 38.168C33.9019 38.2315 36.0455 38.2713 39.3476 38.2713C42.3018 38.2713 44.9404 38.3016 45.2112 38.3388C45.9252 38.4366 46.7348 38.9607 47.109 39.5673C47.3668 39.9853 47.4289 40.2171 47.4691 40.9121L47.5177 41.7519H45.9412C43.9964 41.7519 43.4852 41.8796 42.8124 42.5335C42.1232 43.2033 42.006 43.6905 42.006 45.8845V47.6583H40.9607C39.9228 47.6583 39.9133 47.6607 39.6423 47.9829C39.3282 48.3562 39.3095 48.5027 39.5235 48.9164C39.7276 49.3112 39.8472 49.3459 41.0014 49.3459H41.9834L42.0255 50.9544C42.0621 52.351 42.0979 52.6203 42.2969 52.9998C42.5881 53.5548 43.3023 54.1694 43.8172 54.308C44.0661 54.3751 45.8536 54.4042 48.5775 54.3856L52.9393 54.3559L53.4555 54.0367C53.7751 53.8391 54.0932 53.521 54.2909 53.2014L54.61 52.6852L54.6398 48.3234C54.6583 45.5994 54.6292 43.812 54.5621 43.563C54.4237 43.0488 53.8097 42.3347 53.254 42.0414C52.8649 41.8361 52.6191 41.8066 51.0094 41.7712L49.2019 41.7314L49.1592 40.7133C49.1253 39.9037 49.0614 39.5764 48.8471 39.115C48.4311 38.2196 47.7108 37.4957 46.776 37.0336L45.9725 36.6364L40.0077 36.6068C34.6315 36.5801 34.0188 36.5942 33.7989 36.7493ZM52.6734 43.7465L52.9225 43.948L52.9524 48.0227L52.9824 52.0973L52.6669 52.4128L52.3514 52.7282L48.2768 52.6983L44.2022 52.6683L44.0006 52.4193C43.81 52.1838 43.7991 51.9498 43.7991 48.1018C43.7991 44.0695 43.8011 44.0309 44.0284 43.789L44.2578 43.5449H48.3411C52.2038 43.5449 52.4379 43.5558 52.6734 43.7465ZM27.8574 44.8421C27.4307 45.1495 26.2856 45.9877 25.3127 46.7048C23.4746 48.0596 23.3124 48.2477 23.5067 48.7992C23.6413 49.1811 28.4454 52.721 28.8289 52.721C29.2917 52.721 29.6657 52.3493 29.6657 51.8894C29.6657 51.4206 29.542 51.2909 28.0309 50.1765L26.9761 49.3987L31.9529 49.3712L36.9296 49.3438L37.1474 49.0669C37.4197 48.7208 37.4262 48.2843 37.1636 47.9601L36.9621 47.7111L31.9758 47.6583L26.9894 47.6056L28.2761 46.6698C29.5651 45.7321 29.7507 45.5073 29.6813 44.9688C29.6441 44.68 29.1802 44.2832 28.8798 44.2832C28.7442 44.2832 28.284 44.5347 27.8574 44.8421ZM49.9977 45.5453C49.8527 45.6594 49.3716 46.3595 48.9286 47.101C48.4856 47.8426 48.0804 48.516 48.0281 48.5972C47.9514 48.7165 47.7993 48.6606 47.2398 48.3071C46.4269 47.7938 46.02 47.7482 45.6401 48.1282C45.3326 48.4356 45.3003 48.9118 45.5657 49.2214C45.8875 49.5964 47.9327 50.8225 48.2367 50.8225C48.3937 50.8225 48.6178 50.7394 48.7349 50.638C48.9562 50.4462 51.009 47.1008 51.2383 46.5583C51.4124 46.1464 51.2523 45.696 50.8595 45.493C50.4634 45.2881 50.3131 45.2972 49.9977 45.5453Z" fill="#1742E7" stroke="#1742E7" stroke-width="0.56" mask="url(#path-1-inside-1_2820_1050)"></path></svg>