<svg xmlns="http://www.w3.org/2000/svg" viewBox="0 0 57 56" fill="none"><mask id="path-1-inside-1_2820_1046" fill="white"><path fill-rule="evenodd" clip-rule="evenodd" d="M25.2993 0.909565C25.3668 0.614904 25.6287 0.40625 25.9311 0.40625H31.0571C31.3591 0.40625 31.621 0.614904 31.6885 0.909565L32.2847 3.51327L35.0277 4.83887L37.4301 3.6672C37.7031 3.53414 38.0321 3.60858 38.2215 3.84616L41.4168 7.86304C41.605 8.09946 41.6046 8.43501 41.4156 8.67104L39.7472 10.7564L40.4283 13.7196L42.8319 14.872C43.1046 15.0024 43.2508 15.3044 43.1837 15.5994L42.0521 20.5924C41.985 20.8874 41.7227 21.0972 41.4199 21.0972H38.7584L36.8624 23.4719L37.4583 26.074C37.5258 26.3691 37.3804 26.6714 37.1073 26.8026L32.4915 29.0218C32.2196 29.1525 31.8933 29.0781 31.7051 28.8425L30.0355 26.7559H26.9968L25.3276 28.8425C25.139 29.0781 24.8127 29.1525 24.5408 29.0218L19.925 26.8026C19.6523 26.6714 19.5065 26.3691 19.574 26.074L20.1699 23.4738L18.2539 21.0972H15.59C15.2873 21.0972 15.025 20.8874 14.9583 20.5924L13.8263 15.5994C13.7596 15.3044 13.9058 15.0024 14.1784 14.872L16.582 13.7196L17.2627 10.7564L15.5946 8.67104C15.4056 8.43501 15.4053 8.09946 15.5935 7.86304L18.7888 3.84616C18.9785 3.6078 19.3087 3.53375 19.5817 3.66836L21.9614 4.83815L24.7033 3.51334L25.2993 0.909565ZM26.4471 1.70213L25.8967 4.10571C25.8528 4.29777 25.7243 4.45899 25.5469 4.54461L22.2405 6.14252C22.0612 6.22929 21.8518 6.22852 21.6728 6.14059L19.478 5.06143L16.9294 8.26524L18.4702 10.1917C18.594 10.346 18.6403 10.5485 18.5959 10.7413L17.7748 14.3143C17.7308 14.5064 17.6013 14.668 17.4235 14.7532L15.2046 15.8169L16.1075 19.8013H18.5635C18.7594 19.8013 18.9449 19.89 19.068 20.0423L21.3759 22.9048C21.5004 23.0595 21.5475 23.2627 21.5031 23.4563L20.9528 25.8587L24.6375 27.6305L26.1794 25.7029C26.3025 25.549 26.4884 25.4599 26.6855 25.4599H30.3467C30.5438 25.4599 30.7297 25.549 30.8527 25.7029L32.3946 27.6305L36.0794 25.8587L35.5294 23.4563C35.4851 23.2639 35.5313 23.0618 35.6544 22.9071L37.9403 20.0446C38.0629 19.8907 38.2496 19.8013 38.4466 19.8013H40.9026L41.8055 15.8169L39.5867 14.7532C39.4085 14.668 39.2793 14.5064 39.2353 14.3143L38.4142 10.7413C38.3699 10.5485 38.4161 10.346 38.5396 10.1917L40.0807 8.26524L37.5306 5.05985L35.3129 6.14128C35.1344 6.22844 34.9261 6.22883 34.7471 6.14244L31.4407 4.54453C31.2637 4.45891 31.1349 4.29769 31.0909 4.10563L30.5406 1.70205L26.4471 1.70213ZM20.3788 14.8791C20.3788 10.4173 23.9961 6.77488 28.4827 6.77488C32.9682 6.77488 36.587 10.3937 36.587 14.8791C36.587 19.3642 32.9682 22.983 28.4827 22.983C23.9976 22.983 20.3788 19.3642 20.3788 14.8791ZM28.4827 8.07076C24.7146 8.07076 21.6747 11.1303 21.6747 14.8791C21.6747 18.6488 24.713 21.6871 28.4827 21.6871C32.2524 21.6871 35.2911 18.6488 35.2911 14.8791C35.2911 11.1095 32.2524 8.07076 28.4827 8.07076Z"></path><path fill-rule="evenodd" clip-rule="evenodd" d="M32.1564 41.9596C32.038 41.8296 31.8671 41.7479 31.6774 41.7479C31.3195 41.7479 31.0294 42.0379 31.0294 42.3958C31.0294 42.5215 31.0645 42.6581 31.1502 42.7807C31.208 42.8633 31.274 42.9161 31.3098 42.9419C31.7981 43.3959 32.3091 43.898 32.8371 44.4168C33.7265 45.2904 34.6641 46.2114 35.6225 47.0298C36.7113 47.9597 37.8899 48.8167 39.187 49.4287C38.3956 50.0142 37.8865 50.9545 37.8865 52.0047C37.8865 52.309 37.9278 52.6041 38.006 52.8837C36.6092 52.2245 35.2913 51.329 34.03 50.3058C32.3874 48.9729 30.8713 47.4503 29.41 45.9824C29.2006 45.7718 28.9919 45.5628 28.7848 45.3553C28.5318 45.1023 28.1214 45.1023 27.8684 45.3553C27.6154 45.6083 27.6154 46.0182 27.8684 46.2712C28.0725 46.4757 28.2792 46.6835 28.4882 46.8933C29.9449 48.357 31.5131 49.9325 33.2135 51.3121C35.1615 52.8926 37.3225 54.2502 39.7619 54.9155C40.0832 55.003 40.4187 54.8325 40.5375 54.5213C40.6563 54.2104 40.5198 53.8599 40.2221 53.7106C39.5973 53.3982 39.1823 52.7564 39.1823 52.0048C39.1823 50.9608 40.0277 50.1007 41.086 50.1007H41.1299C41.4558 50.1007 41.732 49.8581 41.7733 49.5345C41.8145 49.2109 41.6086 48.907 41.2927 48.8253C39.5456 48.3732 37.9701 47.3303 36.464 46.0445C35.5268 45.2442 34.6641 44.3958 33.8083 43.5535C33.2645 43.0181 32.7234 42.4856 32.1668 41.9695C32.1634 41.9664 32.1599 41.9629 32.1564 41.9598L32.1564 41.9596Z"></path><path fill-rule="evenodd" clip-rule="evenodd" d="M13.2133 29.4451C13.2573 29.4358 13.302 29.4308 13.3472 29.4308H13.5689C13.9442 29.4308 14.3164 29.4544 14.6654 29.476L14.6746 29.4767C14.6816 29.4771 14.6885 29.4775 14.6954 29.4783C17.6636 29.7598 20.2438 31.095 22.5332 32.802C24.5989 34.3425 26.4664 36.2165 28.1827 37.9385C28.3624 38.1194 28.541 38.2979 28.7176 38.4749L28.7188 38.4761C28.755 38.512 28.8364 38.5934 28.9054 38.7322C29.0289 38.9787 28.9826 39.2764 28.7901 39.4739L25.4617 42.8913C25.2168 43.1424 24.8165 43.1532 24.5585 42.9156C23.9634 42.3676 23.3837 41.7968 22.8017 41.2236C21.8132 40.2506 20.8181 39.2706 19.7286 38.3842C18.0309 37.0028 16.2436 35.978 14.2215 35.7836C14.2057 35.7824 14.1899 35.7809 14.1745 35.7797C13.9238 35.7589 13.7217 35.7419 13.5026 35.7419H13.3472C13.2982 35.7419 13.2496 35.7362 13.2014 35.7254C11.7601 35.3925 10.7022 34.1151 10.7022 32.5863C10.7022 31.0413 11.7559 29.7531 13.2134 29.445L13.2133 29.4451ZM13.4201 30.7267C12.6005 30.9291 11.9981 31.6689 11.9981 32.5864C11.9981 33.4754 12.5947 34.2232 13.4263 34.4462H13.5023C13.7776 34.4462 14.0322 34.4674 14.2725 34.4874C14.2929 34.4894 14.313 34.4909 14.333 34.4928L14.3411 34.4932C16.7331 34.7215 18.7617 35.9268 20.5467 37.3792C21.6733 38.296 22.7609 39.3646 23.7861 40.3728C24.1934 40.7732 24.591 41.1638 24.977 41.5317L27.4272 39.016L27.2698 38.8587C25.5436 37.1266 23.7435 35.3208 21.7589 33.841C19.5794 32.2157 17.2256 31.0224 14.5833 30.7691C14.2289 30.7471 13.8976 30.7267 13.5693 30.7267L13.4201 30.7267Z"></path><path fill-rule="evenodd" clip-rule="evenodd" d="M6.20322 42.5244C6.53066 42.5359 6.79794 42.7901 6.8261 43.1164C7.13078 46.6522 9.74417 49.0924 13.2373 49.0924C13.8347 49.0924 14.4028 49.0307 14.9663 48.89C14.9732 48.888 14.9806 48.8865 14.9875 48.885C15.2694 48.8248 15.5525 48.7438 15.8376 48.642C15.9074 48.6169 15.981 48.6042 16.0555 48.6042H16.2545C18.0027 48.6042 19.4328 49.9965 19.4328 51.7598C19.4328 52.9585 18.7637 54.0203 17.7559 54.5521C17.7285 54.5664 17.7004 54.5787 17.6714 54.5891C17.3363 54.7087 17.0062 54.8028 16.6683 54.8927C15.4774 55.2197 14.222 55.3813 12.9045 55.3813C5.89665 55.3813 0.763185 50.4254 0.297161 43.4819C0.274792 43.1502 0.507355 42.8552 0.835566 42.7996C1.16339 42.7441 1.48042 42.9462 1.56836 43.2671C1.80401 44.1252 2.59697 44.7655 3.53997 44.7655C4.55002 44.7655 5.39005 44.0234 5.54052 43.0712C5.59181 42.7476 5.87606 42.5131 6.2035 42.5247L6.20322 42.5244ZM5.89776 45.0811C5.29494 45.6862 4.4596 46.0611 3.5397 46.0611C2.9581 46.0611 2.41236 45.9126 1.93686 45.6523C3.1814 50.7077 7.38341 54.0855 12.9042 54.0855C14.1157 54.0855 15.2557 53.9367 16.3275 53.6428L16.3321 53.6416C16.6414 53.5587 16.9184 53.4796 17.1891 53.3851C17.758 53.0669 18.1367 52.4541 18.1367 51.7599C18.1367 50.727 17.3025 49.9001 16.255 49.9001H16.1659C15.8685 50.0019 15.5692 50.0852 15.2696 50.15C14.5938 50.3178 13.9227 50.3884 13.237 50.3884C9.70077 50.3884 6.8992 48.2648 5.89755 45.0811L5.89776 45.0811Z"></path><path fill-rule="evenodd" clip-rule="evenodd" d="M13.9686 29.9842C14.0064 30.3159 13.7858 30.6221 13.4588 30.6915C12.6099 30.8709 11.9782 31.6218 11.9755 32.5594C11.9952 33.507 12.6335 34.2595 13.4812 34.4388C13.8032 34.5066 14.0227 34.8052 13.9922 35.133C13.9617 35.4604 13.6906 35.7131 13.3616 35.7204C9.72624 35.801 6.95429 38.7267 6.82742 42.1411V42.3949C6.82742 42.6452 6.8278 42.882 6.8467 43.0914C6.8521 43.1478 6.84979 43.2044 6.84015 43.26C6.56515 44.8547 5.18863 46.0391 3.53868 46.0391C1.99597 46.0391 0.703148 44.9932 0.317494 43.5878C0.305923 43.5457 0.298595 43.5029 0.295896 43.4593L0.295124 43.4512C0.273526 43.123 0.25 42.7721 0.25 42.3957V42.0914C0.413918 35.3559 5.86203 29.5492 13.3125 29.409C13.6465 29.4029 13.9307 29.6516 13.9685 29.9837L13.9686 29.9842ZM1.54595 42.1156V42.396C1.54595 42.703 1.56369 42.9946 1.58413 43.3035C1.83906 44.1323 2.61738 44.7436 3.53877 44.7436C4.52572 44.7436 5.35102 44.0564 5.54889 43.1153C5.53153 42.87 5.53153 42.6178 5.53153 42.4087V42.1295C5.53153 42.1218 5.53153 42.1145 5.53192 42.1068C5.65533 38.6291 8.07431 35.5711 11.4776 34.6825C10.9893 34.1194 10.6943 33.3824 10.68 32.5771L10.6796 32.5655C10.6796 31.9727 10.835 31.4177 11.1085 30.9414C5.53585 32.036 1.6798 36.7606 1.54591 42.1161L1.54595 42.1156Z"></path><path fill-rule="evenodd" clip-rule="evenodd" d="M50.4281 42.3921C50.7559 42.3809 51.0401 42.6161 51.0907 42.9405C51.2418 43.9163 52.0838 44.6552 53.0912 44.6552C54.0311 44.6552 54.8249 44.0181 55.0616 43.1376C55.1484 42.8148 55.467 42.6111 55.7964 42.6674C56.1261 42.7234 56.3587 43.0211 56.3336 43.3547C55.8423 49.8785 50.3953 55.3825 43.0608 55.3825C42.3905 55.3825 41.7101 55.3366 41.0449 55.2182C40.5994 55.1476 40.1779 55.0539 39.7583 54.9374C39.7182 54.9262 39.6792 54.9112 39.6422 54.8926C38.5804 54.3616 37.8858 53.2724 37.8858 52.0274C37.8858 50.2753 39.3039 48.8274 41.0858 48.8274H41.1294C41.1783 48.8274 41.2281 48.8328 41.2759 48.844C41.5575 48.9088 41.8448 48.9701 42.126 49.0106C42.4808 49.055 42.8194 49.0935 43.1495 49.0935C46.726 49.0935 49.5213 46.3039 49.8048 42.9848C49.8325 42.6581 50.1002 42.4036 50.428 42.3924L50.4281 42.3921ZM50.71 44.9433C49.6636 48.0395 46.7414 50.3891 43.1496 50.3891C42.7272 50.3891 42.313 50.3397 41.9597 50.2954L41.9482 50.2942C41.6381 50.2499 41.3326 50.1859 41.0576 50.123C40.012 50.138 39.1817 50.9923 39.1817 52.0271C39.1817 52.7579 39.5739 53.3843 40.1694 53.7059C40.525 53.8024 40.8802 53.8799 41.2535 53.9389L41.2662 53.9412C41.8417 54.0438 42.446 54.0862 43.0608 54.0862C48.8066 54.0862 53.2423 50.371 54.6235 45.5781C54.165 45.8165 53.6439 45.9511 53.0909 45.9511C52.1579 45.9511 51.3137 45.5658 50.7097 44.9433L50.71 44.9433Z"></path><path fill-rule="evenodd" clip-rule="evenodd" d="M45.1083 30.8007C45.4712 31.3191 45.6841 31.9505 45.6841 32.6315C45.6841 33.3643 45.4404 34.042 45.025 34.5823C48.5323 35.2789 50.9745 38.2193 51.1206 42.0602C51.1206 42.0683 51.121 42.0768 51.121 42.0849V42.4123C51.121 42.594 51.121 42.8073 51.104 43.014C51.2857 43.9531 52.1099 44.6547 53.0914 44.6547C54.0182 44.6547 54.8027 44.0353 55.0518 43.1741C55.0834 42.9303 55.0842 42.6958 55.0842 42.3954C55.0842 42.3599 55.0769 42.3125 55.0526 42.1898C55.0449 42.1528 55.041 42.115 55.0398 42.0772C54.9658 38.731 53.7682 35.899 51.7909 33.9062C50.1005 32.2022 47.8154 31.0868 45.1083 30.8007ZM43.694 29.4316H43.7048C47.3495 29.4316 50.4758 30.7406 52.7112 32.9937C54.9331 35.233 56.241 38.3712 56.3343 41.9908C56.3543 42.093 56.3802 42.2403 56.3802 42.3954V42.4124C56.3802 42.7128 56.3802 43.0406 56.3293 43.397C56.3258 43.4228 56.3204 43.4487 56.3134 43.4738C55.9293 44.9015 54.6369 45.9506 53.0915 45.9506C51.4361 45.9506 50.0585 44.7365 49.8105 43.1386C49.8017 43.082 49.8005 43.0245 49.8067 42.9678C49.8244 42.8104 49.8252 42.6261 49.8252 42.3954V42.0977C49.6771 38.3501 47.0178 35.7205 43.394 35.7205H43.2173C42.8949 35.7205 42.6207 35.4833 42.5752 35.1643C42.5297 34.845 42.7256 34.5411 43.0353 34.4508C43.8259 34.2198 44.3882 33.4955 44.3882 32.6316C44.3882 31.6731 43.677 30.876 42.7476 30.7433C42.4205 30.6966 42.181 30.4112 42.1918 30.0807C42.2026 29.7505 42.4603 29.4813 42.7896 29.4559C43.1032 29.4316 43.4125 29.4316 43.694 29.4316Z"></path><path fill-rule="evenodd" clip-rule="evenodd" d="M42.8503 29.4767C42.8888 29.4748 42.9274 29.4763 42.9656 29.4813C44.4929 29.6792 45.683 31.0248 45.683 32.6315C45.683 34.0817 44.7084 35.3035 43.4002 35.6935C43.34 35.7112 43.2779 35.7205 43.2151 35.7205C42.9112 35.7205 42.6208 35.7579 42.284 35.803C40.3857 36.0811 38.6208 37.0364 36.9559 38.318C35.3079 39.587 33.8033 41.1389 32.3906 42.5952L32.3409 42.6469C32.116 42.8787 31.755 42.9095 31.4939 42.7194C31.2332 42.5288 31.1522 42.1759 31.3042 41.8909C31.4245 41.6649 31.4939 41.373 31.4939 41.064C31.4939 40.0459 30.6524 39.2043 29.6346 39.2043C29.3318 39.2043 29.0607 39.2714 28.83 39.3944C28.5466 39.5456 28.1956 39.4662 28.0043 39.2085C27.8134 38.9505 27.8396 38.5915 28.0668 38.3647C28.1694 38.2617 28.2723 38.1587 28.3757 38.0557C31.9818 34.4454 35.9474 30.4753 41.5152 29.6171C41.9402 29.5465 42.3853 29.4998 42.8504 29.4767L42.8503 29.4767ZM42.853 30.7742C42.4545 30.7961 42.0785 30.837 41.724 30.896L41.7159 30.8976C37.0878 31.6095 33.6321 34.6737 30.2905 37.9775C31.4999 38.2367 32.4599 39.1955 32.7202 40.4046C33.7846 39.3331 34.9332 38.2401 36.1658 37.2914C37.9226 35.9388 39.8957 34.8419 42.101 34.5203L42.1091 34.5192L42.1245 34.5168C42.4196 34.4775 42.7524 34.4332 43.1107 34.4258C43.8473 34.169 44.3873 33.4597 44.3873 32.6316C44.3873 31.684 43.6981 30.9119 42.8531 30.7743L42.853 30.7742Z"></path><path fill-rule="evenodd" clip-rule="evenodd" d="M28.9762 39.2662L28.8535 39.3888L27.8789 40.3858L25.5062 42.8028C25.5059 42.8032 25.5055 42.8032 25.5055 42.8036C25.3983 42.9135 25.2899 43.025 25.1807 43.1372C23.1767 45.1987 20.8091 47.6346 18.0541 49.0774C18.9084 49.6386 19.4765 50.6043 19.4765 51.7151C19.4765 51.9507 19.4499 52.1806 19.3997 52.402C22.4227 50.8068 24.9639 48.2621 27.5137 45.7089C27.6386 45.584 27.7632 45.459 27.8882 45.334C27.8889 45.3337 27.8897 45.3329 27.8905 45.3321L30.3916 42.7863L30.3939 42.7843L31.1865 41.9702C31.2416 41.9 31.2956 41.841 31.3427 41.792C31.4399 41.5783 31.495 41.3164 31.495 41.0414C31.495 40.0248 30.6519 39.1736 29.6854 39.1153C29.4232 39.1173 29.1848 39.1701 28.9762 39.2662ZM28.2877 38.1619C28.7224 37.9301 29.206 37.8194 29.702 37.8194C29.7132 37.8194 29.724 37.8198 29.7348 37.8202C31.3805 37.9039 32.7909 39.312 32.7909 41.0414C32.7909 41.5316 32.6829 42.0384 32.4484 42.4781C32.4183 42.5344 32.3801 42.5861 32.335 42.6312C32.2668 42.6994 32.2309 42.7365 32.1954 42.7839C32.1788 42.8059 32.1607 42.8271 32.1414 42.8472L31.3203 43.6903L31.318 43.6926L28.8064 46.2485C28.6583 46.3966 28.5098 46.5455 28.3605 46.6951C25.301 49.7617 21.9961 53.0738 17.7082 54.5471C17.3892 54.6566 17.0398 54.5035 16.9044 54.195C16.7686 53.8864 16.8921 53.5258 17.1883 53.365C17.7699 53.0491 18.181 52.4166 18.181 51.7151C18.181 50.6788 17.3429 49.8557 16.3213 49.8557H16.1227C15.8052 49.8557 15.5337 49.6259 15.4824 49.3127C15.4307 48.9995 15.6139 48.6952 15.9144 48.5938C19.1132 47.5138 21.853 44.6988 24.3334 42.1498C24.4152 42.0657 24.4969 41.982 24.5783 41.8983L24.5799 41.8968L26.9537 39.479L27.9349 38.4751L28.1347 38.2753C28.1802 38.2302 28.2315 38.192 28.2882 38.1619L28.2877 38.1619Z"></path><path fill-rule="evenodd" clip-rule="evenodd" d="M32.1376 12.4471C32.3899 12.7012 32.3887 13.1112 32.1349 13.3635L28.4066 17.0694C28.2847 17.1909 28.1192 17.2584 27.9472 17.2576C27.7752 17.2572 27.6105 17.1878 27.4894 17.0656L25.2926 14.8467C25.0407 14.5922 25.0427 14.1822 25.2972 13.9304C25.5514 13.6785 25.9617 13.6804 26.2136 13.935L27.9534 15.6925L31.2213 12.4444C31.475 12.1922 31.8854 12.1933 32.1376 12.4471Z"></path></mask><path fill-rule="evenodd" clip-rule="evenodd" d="M25.2993 0.909565C25.3668 0.614904 25.6287 0.40625 25.9311 0.40625H31.0571C31.3591 0.40625 31.621 0.614904 31.6885 0.909565L32.2847 3.51327L35.0277 4.83887L37.4301 3.6672C37.7031 3.53414 38.0321 3.60858 38.2215 3.84616L41.4168 7.86304C41.605 8.09946 41.6046 8.43501 41.4156 8.67104L39.7472 10.7564L40.4283 13.7196L42.8319 14.872C43.1046 15.0024 43.2508 15.3044 43.1837 15.5994L42.0521 20.5924C41.985 20.8874 41.7227 21.0972 41.4199 21.0972H38.7584L36.8624 23.4719L37.4583 26.074C37.5258 26.3691 37.3804 26.6714 37.1073 26.8026L32.4915 29.0218C32.2196 29.1525 31.8933 29.0781 31.7051 28.8425L30.0355 26.7559H26.9968L25.3276 28.8425C25.139 29.0781 24.8127 29.1525 24.5408 29.0218L19.925 26.8026C19.6523 26.6714 19.5065 26.3691 19.574 26.074L20.1699 23.4738L18.2539 21.0972H15.59C15.2873 21.0972 15.025 20.8874 14.9583 20.5924L13.8263 15.5994C13.7596 15.3044 13.9058 15.0024 14.1784 14.872L16.582 13.7196L17.2627 10.7564L15.5946 8.67104C15.4056 8.43501 15.4053 8.09946 15.5935 7.86304L18.7888 3.84616C18.9785 3.6078 19.3087 3.53375 19.5817 3.66836L21.9614 4.83815L24.7033 3.51334L25.2993 0.909565ZM26.4471 1.70213L25.8967 4.10571C25.8528 4.29777 25.7243 4.45899 25.5469 4.54461L22.2405 6.14252C22.0612 6.22929 21.8518 6.22852 21.6728 6.14059L19.478 5.06143L16.9294 8.26524L18.4702 10.1917C18.594 10.346 18.6403 10.5485 18.5959 10.7413L17.7748 14.3143C17.7308 14.5064 17.6013 14.668 17.4235 14.7532L15.2046 15.8169L16.1075 19.8013H18.5635C18.7594 19.8013 18.9449 19.89 19.068 20.0423L21.3759 22.9048C21.5004 23.0595 21.5475 23.2627 21.5031 23.4563L20.9528 25.8587L24.6375 27.6305L26.1794 25.7029C26.3025 25.549 26.4884 25.4599 26.6855 25.4599H30.3467C30.5438 25.4599 30.7297 25.549 30.8527 25.7029L32.3946 27.6305L36.0794 25.8587L35.5294 23.4563C35.4851 23.2639 35.5313 23.0618 35.6544 22.9071L37.9403 20.0446C38.0629 19.8907 38.2496 19.8013 38.4466 19.8013H40.9026L41.8055 15.8169L39.5867 14.7532C39.4085 14.668 39.2793 14.5064 39.2353 14.3143L38.4142 10.7413C38.3699 10.5485 38.4161 10.346 38.5396 10.1917L40.0807 8.26524L37.5306 5.05985L35.3129 6.14128C35.1344 6.22844 34.9261 6.22883 34.7471 6.14244L31.4407 4.54453C31.2637 4.45891 31.1349 4.29769 31.0909 4.10563L30.5406 1.70205L26.4471 1.70213ZM20.3788 14.8791C20.3788 10.4173 23.9961 6.77488 28.4827 6.77488C32.9682 6.77488 36.587 10.3937 36.587 14.8791C36.587 19.3642 32.9682 22.983 28.4827 22.983C23.9976 22.983 20.3788 19.3642 20.3788 14.8791ZM28.4827 8.07076C24.7146 8.07076 21.6747 11.1303 21.6747 14.8791C21.6747 18.6488 24.713 21.6871 28.4827 21.6871C32.2524 21.6871 35.2911 18.6488 35.2911 14.8791C35.2911 11.1095 32.2524 8.07076 28.4827 8.07076Z" fill="#1742E7"></path><path fill-rule="evenodd" clip-rule="evenodd" d="M32.1564 41.9596C32.038 41.8296 31.8671 41.7479 31.6774 41.7479C31.3195 41.7479 31.0294 42.0379 31.0294 42.3958C31.0294 42.5215 31.0645 42.6581 31.1502 42.7807C31.208 42.8633 31.274 42.9161 31.3098 42.9419C31.7981 43.3959 32.3091 43.898 32.8371 44.4168C33.7265 45.2904 34.6641 46.2114 35.6225 47.0298C36.7113 47.9597 37.8899 48.8167 39.187 49.4287C38.3956 50.0142 37.8865 50.9545 37.8865 52.0047C37.8865 52.309 37.9278 52.6041 38.006 52.8837C36.6092 52.2245 35.2913 51.329 34.03 50.3058C32.3874 48.9729 30.8713 47.4503 29.41 45.9824C29.2006 45.7718 28.9919 45.5628 28.7848 45.3553C28.5318 45.1023 28.1214 45.1023 27.8684 45.3553C27.6154 45.6083 27.6154 46.0182 27.8684 46.2712C28.0725 46.4757 28.2792 46.6835 28.4882 46.8933C29.9449 48.357 31.5131 49.9325 33.2135 51.3121C35.1615 52.8926 37.3225 54.2502 39.7619 54.9155C40.0832 55.003 40.4187 54.8325 40.5375 54.5213C40.6563 54.2104 40.5198 53.8599 40.2221 53.7106C39.5973 53.3982 39.1823 52.7564 39.1823 52.0048C39.1823 50.9608 40.0277 50.1007 41.086 50.1007H41.1299C41.4558 50.1007 41.732 49.8581 41.7733 49.5345C41.8145 49.2109 41.6086 48.907 41.2927 48.8253C39.5456 48.3732 37.9701 47.3303 36.464 46.0445C35.5268 45.2442 34.6641 44.3958 33.8083 43.5535C33.2645 43.0181 32.7234 42.4856 32.1668 41.9695C32.1634 41.9664 32.1599 41.9629 32.1564 41.9598L32.1564 41.9596Z" fill="#1742E7"></path><path fill-rule="evenodd" clip-rule="evenodd" d="M13.2133 29.4451C13.2573 29.4358 13.302 29.4308 13.3472 29.4308H13.5689C13.9442 29.4308 14.3164 29.4544 14.6654 29.476L14.6746 29.4767C14.6816 29.4771 14.6885 29.4775 14.6954 29.4783C17.6636 29.7598 20.2438 31.095 22.5332 32.802C24.5989 34.3425 26.4664 36.2165 28.1827 37.9385C28.3624 38.1194 28.541 38.2979 28.7176 38.4749L28.7188 38.4761C28.755 38.512 28.8364 38.5934 28.9054 38.7322C29.0289 38.9787 28.9826 39.2764 28.7901 39.4739L25.4617 42.8913C25.2168 43.1424 24.8165 43.1532 24.5585 42.9156C23.9634 42.3676 23.3837 41.7968 22.8017 41.2236C21.8132 40.2506 20.8181 39.2706 19.7286 38.3842C18.0309 37.0028 16.2436 35.978 14.2215 35.7836C14.2057 35.7824 14.1899 35.7809 14.1745 35.7797C13.9238 35.7589 13.7217 35.7419 13.5026 35.7419H13.3472C13.2982 35.7419 13.2496 35.7362 13.2014 35.7254C11.7601 35.3925 10.7022 34.1151 10.7022 32.5863C10.7022 31.0413 11.7559 29.7531 13.2134 29.445L13.2133 29.4451ZM13.4201 30.7267C12.6005 30.9291 11.9981 31.6689 11.9981 32.5864C11.9981 33.4754 12.5947 34.2232 13.4263 34.4462H13.5023C13.7776 34.4462 14.0322 34.4674 14.2725 34.4874C14.2929 34.4894 14.313 34.4909 14.333 34.4928L14.3411 34.4932C16.7331 34.7215 18.7617 35.9268 20.5467 37.3792C21.6733 38.296 22.7609 39.3646 23.7861 40.3728C24.1934 40.7732 24.591 41.1638 24.977 41.5317L27.4272 39.016L27.2698 38.8587C25.5436 37.1266 23.7435 35.3208 21.7589 33.841C19.5794 32.2157 17.2256 31.0224 14.5833 30.7691C14.2289 30.7471 13.8976 30.7267 13.5693 30.7267L13.4201 30.7267Z" fill="#1742E7"></path><path fill-rule="evenodd" clip-rule="evenodd" d="M6.20322 42.5244C6.53066 42.5359 6.79794 42.7901 6.8261 43.1164C7.13078 46.6522 9.74417 49.0924 13.2373 49.0924C13.8347 49.0924 14.4028 49.0307 14.9663 48.89C14.9732 48.888 14.9806 48.8865 14.9875 48.885C15.2694 48.8248 15.5525 48.7438 15.8376 48.642C15.9074 48.6169 15.981 48.6042 16.0555 48.6042H16.2545C18.0027 48.6042 19.4328 49.9965 19.4328 51.7598C19.4328 52.9585 18.7637 54.0203 17.7559 54.5521C17.7285 54.5664 17.7004 54.5787 17.6714 54.5891C17.3363 54.7087 17.0062 54.8028 16.6683 54.8927C15.4774 55.2197 14.222 55.3813 12.9045 55.3813C5.89665 55.3813 0.763185 50.4254 0.297161 43.4819C0.274792 43.1502 0.507355 42.8552 0.835566 42.7996C1.16339 42.7441 1.48042 42.9462 1.56836 43.2671C1.80401 44.1252 2.59697 44.7655 3.53997 44.7655C4.55002 44.7655 5.39005 44.0234 5.54052 43.0712C5.59181 42.7476 5.87606 42.5131 6.2035 42.5247L6.20322 42.5244ZM5.89776 45.0811C5.29494 45.6862 4.4596 46.0611 3.5397 46.0611C2.9581 46.0611 2.41236 45.9126 1.93686 45.6523C3.1814 50.7077 7.38341 54.0855 12.9042 54.0855C14.1157 54.0855 15.2557 53.9367 16.3275 53.6428L16.3321 53.6416C16.6414 53.5587 16.9184 53.4796 17.1891 53.3851C17.758 53.0669 18.1367 52.4541 18.1367 51.7599C18.1367 50.727 17.3025 49.9001 16.255 49.9001H16.1659C15.8685 50.0019 15.5692 50.0852 15.2696 50.15C14.5938 50.3178 13.9227 50.3884 13.237 50.3884C9.70077 50.3884 6.8992 48.2648 5.89755 45.0811L5.89776 45.0811Z" fill="#1742E7"></path><path fill-rule="evenodd" clip-rule="evenodd" d="M13.9686 29.9842C14.0064 30.3159 13.7858 30.6221 13.4588 30.6915C12.6099 30.8709 11.9782 31.6218 11.9755 32.5594C11.9952 33.507 12.6335 34.2595 13.4812 34.4388C13.8032 34.5066 14.0227 34.8052 13.9922 35.133C13.9617 35.4604 13.6906 35.7131 13.3616 35.7204C9.72624 35.801 6.95429 38.7267 6.82742 42.1411V42.3949C6.82742 42.6452 6.8278 42.882 6.8467 43.0914C6.8521 43.1478 6.84979 43.2044 6.84015 43.26C6.56515 44.8547 5.18863 46.0391 3.53868 46.0391C1.99597 46.0391 0.703148 44.9932 0.317494 43.5878C0.305923 43.5457 0.298595 43.5029 0.295896 43.4593L0.295124 43.4512C0.273526 43.123 0.25 42.7721 0.25 42.3957V42.0914C0.413918 35.3559 5.86203 29.5492 13.3125 29.409C13.6465 29.4029 13.9307 29.6516 13.9685 29.9837L13.9686 29.9842ZM1.54595 42.1156V42.396C1.54595 42.703 1.56369 42.9946 1.58413 43.3035C1.83906 44.1323 2.61738 44.7436 3.53877 44.7436C4.52572 44.7436 5.35102 44.0564 5.54889 43.1153C5.53153 42.87 5.53153 42.6178 5.53153 42.4087V42.1295C5.53153 42.1218 5.53153 42.1145 5.53192 42.1068C5.65533 38.6291 8.07431 35.5711 11.4776 34.6825C10.9893 34.1194 10.6943 33.3824 10.68 32.5771L10.6796 32.5655C10.6796 31.9727 10.835 31.4177 11.1085 30.9414C5.53585 32.036 1.6798 36.7606 1.54591 42.1161L1.54595 42.1156Z" fill="#1742E7"></path><path fill-rule="evenodd" clip-rule="evenodd" d="M50.4281 42.3921C50.7559 42.3809 51.0401 42.6161 51.0907 42.9405C51.2418 43.9163 52.0838 44.6552 53.0912 44.6552C54.0311 44.6552 54.8249 44.0181 55.0616 43.1376C55.1484 42.8148 55.467 42.6111 55.7964 42.6674C56.1261 42.7234 56.3587 43.0211 56.3336 43.3547C55.8423 49.8785 50.3953 55.3825 43.0608 55.3825C42.3905 55.3825 41.7101 55.3366 41.0449 55.2182C40.5994 55.1476 40.1779 55.0539 39.7583 54.9374C39.7182 54.9262 39.6792 54.9112 39.6422 54.8926C38.5804 54.3616 37.8858 53.2724 37.8858 52.0274C37.8858 50.2753 39.3039 48.8274 41.0858 48.8274H41.1294C41.1783 48.8274 41.2281 48.8328 41.2759 48.844C41.5575 48.9088 41.8448 48.9701 42.126 49.0106C42.4808 49.055 42.8194 49.0935 43.1495 49.0935C46.726 49.0935 49.5213 46.3039 49.8048 42.9848C49.8325 42.6581 50.1002 42.4036 50.428 42.3924L50.4281 42.3921ZM50.71 44.9433C49.6636 48.0395 46.7414 50.3891 43.1496 50.3891C42.7272 50.3891 42.313 50.3397 41.9597 50.2954L41.9482 50.2942C41.6381 50.2499 41.3326 50.1859 41.0576 50.123C40.012 50.138 39.1817 50.9923 39.1817 52.0271C39.1817 52.7579 39.5739 53.3843 40.1694 53.7059C40.525 53.8024 40.8802 53.8799 41.2535 53.9389L41.2662 53.9412C41.8417 54.0438 42.446 54.0862 43.0608 54.0862C48.8066 54.0862 53.2423 50.371 54.6235 45.5781C54.165 45.8165 53.6439 45.9511 53.0909 45.9511C52.1579 45.9511 51.3137 45.5658 50.7097 44.9433L50.71 44.9433Z" fill="#1742E7"></path><path fill-rule="evenodd" clip-rule="evenodd" d="M45.1083 30.8007C45.4712 31.3191 45.6841 31.9505 45.6841 32.6315C45.6841 33.3643 45.4404 34.042 45.025 34.5823C48.5323 35.2789 50.9745 38.2193 51.1206 42.0602C51.1206 42.0683 51.121 42.0768 51.121 42.0849V42.4123C51.121 42.594 51.121 42.8073 51.104 43.014C51.2857 43.9531 52.1099 44.6547 53.0914 44.6547C54.0182 44.6547 54.8027 44.0353 55.0518 43.1741C55.0834 42.9303 55.0842 42.6958 55.0842 42.3954C55.0842 42.3599 55.0769 42.3125 55.0526 42.1898C55.0449 42.1528 55.041 42.115 55.0398 42.0772C54.9658 38.731 53.7682 35.899 51.7909 33.9062C50.1005 32.2022 47.8154 31.0868 45.1083 30.8007ZM43.694 29.4316H43.7048C47.3495 29.4316 50.4758 30.7406 52.7112 32.9937C54.9331 35.233 56.241 38.3712 56.3343 41.9908C56.3543 42.093 56.3802 42.2403 56.3802 42.3954V42.4124C56.3802 42.7128 56.3802 43.0406 56.3293 43.397C56.3258 43.4228 56.3204 43.4487 56.3134 43.4738C55.9293 44.9015 54.6369 45.9506 53.0915 45.9506C51.4361 45.9506 50.0585 44.7365 49.8105 43.1386C49.8017 43.082 49.8005 43.0245 49.8067 42.9678C49.8244 42.8104 49.8252 42.6261 49.8252 42.3954V42.0977C49.6771 38.3501 47.0178 35.7205 43.394 35.7205H43.2173C42.8949 35.7205 42.6207 35.4833 42.5752 35.1643C42.5297 34.845 42.7256 34.5411 43.0353 34.4508C43.8259 34.2198 44.3882 33.4955 44.3882 32.6316C44.3882 31.6731 43.677 30.876 42.7476 30.7433C42.4205 30.6966 42.181 30.4112 42.1918 30.0807C42.2026 29.7505 42.4603 29.4813 42.7896 29.4559C43.1032 29.4316 43.4125 29.4316 43.694 29.4316Z" fill="#1742E7"></path><path fill-rule="evenodd" clip-rule="evenodd" d="M42.8503 29.4767C42.8888 29.4748 42.9274 29.4763 42.9656 29.4813C44.4929 29.6792 45.683 31.0248 45.683 32.6315C45.683 34.0817 44.7084 35.3035 43.4002 35.6935C43.34 35.7112 43.2779 35.7205 43.2151 35.7205C42.9112 35.7205 42.6208 35.7579 42.284 35.803C40.3857 36.0811 38.6208 37.0364 36.9559 38.318C35.3079 39.587 33.8033 41.1389 32.3906 42.5952L32.3409 42.6469C32.116 42.8787 31.755 42.9095 31.4939 42.7194C31.2332 42.5288 31.1522 42.1759 31.3042 41.8909C31.4245 41.6649 31.4939 41.373 31.4939 41.064C31.4939 40.0459 30.6524 39.2043 29.6346 39.2043C29.3318 39.2043 29.0607 39.2714 28.83 39.3944C28.5466 39.5456 28.1956 39.4662 28.0043 39.2085C27.8134 38.9505 27.8396 38.5915 28.0668 38.3647C28.1694 38.2617 28.2723 38.1587 28.3757 38.0557C31.9818 34.4454 35.9474 30.4753 41.5152 29.6171C41.9402 29.5465 42.3853 29.4998 42.8504 29.4767L42.8503 29.4767ZM42.853 30.7742C42.4545 30.7961 42.0785 30.837 41.724 30.896L41.7159 30.8976C37.0878 31.6095 33.6321 34.6737 30.2905 37.9775C31.4999 38.2367 32.4599 39.1955 32.7202 40.4046C33.7846 39.3331 34.9332 38.2401 36.1658 37.2914C37.9226 35.9388 39.8957 34.8419 42.101 34.5203L42.1091 34.5192L42.1245 34.5168C42.4196 34.4775 42.7524 34.4332 43.1107 34.4258C43.8473 34.169 44.3873 33.4597 44.3873 32.6316C44.3873 31.684 43.6981 30.9119 42.8531 30.7743L42.853 30.7742Z" fill="#1742E7"></path><path fill-rule="evenodd" clip-rule="evenodd" d="M28.9762 39.2662L28.8535 39.3888L27.8789 40.3858L25.5062 42.8028C25.5059 42.8032 25.5055 42.8032 25.5055 42.8036C25.3983 42.9135 25.2899 43.025 25.1807 43.1372C23.1767 45.1987 20.8091 47.6346 18.0541 49.0774C18.9084 49.6386 19.4765 50.6043 19.4765 51.7151C19.4765 51.9507 19.4499 52.1806 19.3997 52.402C22.4227 50.8068 24.9639 48.2621 27.5137 45.7089C27.6386 45.584 27.7632 45.459 27.8882 45.334C27.8889 45.3337 27.8897 45.3329 27.8905 45.3321L30.3916 42.7863L30.3939 42.7843L31.1865 41.9702C31.2416 41.9 31.2956 41.841 31.3427 41.792C31.4399 41.5783 31.495 41.3164 31.495 41.0414C31.495 40.0248 30.6519 39.1736 29.6854 39.1153C29.4232 39.1173 29.1848 39.1701 28.9762 39.2662ZM28.2877 38.1619C28.7224 37.9301 29.206 37.8194 29.702 37.8194C29.7132 37.8194 29.724 37.8198 29.7348 37.8202C31.3805 37.9039 32.7909 39.312 32.7909 41.0414C32.7909 41.5316 32.6829 42.0384 32.4484 42.4781C32.4183 42.5344 32.3801 42.5861 32.335 42.6312C32.2668 42.6994 32.2309 42.7365 32.1954 42.7839C32.1788 42.8059 32.1607 42.8271 32.1414 42.8472L31.3203 43.6903L31.318 43.6926L28.8064 46.2485C28.6583 46.3966 28.5098 46.5455 28.3605 46.6951C25.301 49.7617 21.9961 53.0738 17.7082 54.5471C17.3892 54.6566 17.0398 54.5035 16.9044 54.195C16.7686 53.8864 16.8921 53.5258 17.1883 53.365C17.7699 53.0491 18.181 52.4166 18.181 51.7151C18.181 50.6788 17.3429 49.8557 16.3213 49.8557H16.1227C15.8052 49.8557 15.5337 49.6259 15.4824 49.3127C15.4307 48.9995 15.6139 48.6952 15.9144 48.5938C19.1132 47.5138 21.853 44.6988 24.3334 42.1498C24.4152 42.0657 24.4969 41.982 24.5783 41.8983L24.5799 41.8968L26.9537 39.479L27.9349 38.4751L28.1347 38.2753C28.1802 38.2302 28.2315 38.192 28.2882 38.1619L28.2877 38.1619Z" fill="#1742E7"></path><path fill-rule="evenodd" clip-rule="evenodd" d="M32.1376 12.4471C32.3899 12.7012 32.3887 13.1112 32.1349 13.3635L28.4066 17.0694C28.2847 17.1909 28.1192 17.2584 27.9472 17.2576C27.7752 17.2572 27.6105 17.1878 27.4894 17.0656L25.2926 14.8467C25.0407 14.5922 25.0427 14.1822 25.2972 13.9304C25.5514 13.6785 25.9617 13.6804 26.2136 13.935L27.9534 15.6925L31.2213 12.4444C31.475 12.1922 31.8854 12.1933 32.1376 12.4471Z" fill="#1742E7"></path><path fill-rule="evenodd" clip-rule="evenodd" d="M25.2993 0.909565C25.3668 0.614904 25.6287 0.40625 25.9311 0.40625H31.0571C31.3591 0.40625 31.621 0.614904 31.6885 0.909565L32.2847 3.51327L35.0277 4.83887L37.4301 3.6672C37.7031 3.53414 38.0321 3.60858 38.2215 3.84616L41.4168 7.86304C41.605 8.09946 41.6046 8.43501 41.4156 8.67104L39.7472 10.7564L40.4283 13.7196L42.8319 14.872C43.1046 15.0024 43.2508 15.3044 43.1837 15.5994L42.0521 20.5924C41.985 20.8874 41.7227 21.0972 41.4199 21.0972H38.7584L36.8624 23.4719L37.4583 26.074C37.5258 26.3691 37.3804 26.6714 37.1073 26.8026L32.4915 29.0218C32.2196 29.1525 31.8933 29.0781 31.7051 28.8425L30.0355 26.7559H26.9968L25.3276 28.8425C25.139 29.0781 24.8127 29.1525 24.5408 29.0218L19.925 26.8026C19.6523 26.6714 19.5065 26.3691 19.574 26.074L20.1699 23.4738L18.2539 21.0972H15.59C15.2873 21.0972 15.025 20.8874 14.9583 20.5924L13.8263 15.5994C13.7596 15.3044 13.9058 15.0024 14.1784 14.872L16.582 13.7196L17.2627 10.7564L15.5946 8.67104C15.4056 8.43501 15.4053 8.09946 15.5935 7.86304L18.7888 3.84616C18.9785 3.6078 19.3087 3.53375 19.5817 3.66836L21.9614 4.83815L24.7033 3.51334L25.2993 0.909565ZM26.4471 1.70213L25.8967 4.10571C25.8528 4.29777 25.7243 4.45899 25.5469 4.54461L22.2405 6.14252C22.0612 6.22929 21.8518 6.22852 21.6728 6.14059L19.478 5.06143L16.9294 8.26524L18.4702 10.1917C18.594 10.346 18.6403 10.5485 18.5959 10.7413L17.7748 14.3143C17.7308 14.5064 17.6013 14.668 17.4235 14.7532L15.2046 15.8169L16.1075 19.8013H18.5635C18.7594 19.8013 18.9449 19.89 19.068 20.0423L21.3759 22.9048C21.5004 23.0595 21.5475 23.2627 21.5031 23.4563L20.9528 25.8587L24.6375 27.6305L26.1794 25.7029C26.3025 25.549 26.4884 25.4599 26.6855 25.4599H30.3467C30.5438 25.4599 30.7297 25.549 30.8527 25.7029L32.3946 27.6305L36.0794 25.8587L35.5294 23.4563C35.4851 23.2639 35.5313 23.0618 35.6544 22.9071L37.9403 20.0446C38.0629 19.8907 38.2496 19.8013 38.4466 19.8013H40.9026L41.8055 15.8169L39.5867 14.7532C39.4085 14.668 39.2793 14.5064 39.2353 14.3143L38.4142 10.7413C38.3699 10.5485 38.4161 10.346 38.5396 10.1917L40.0807 8.26524L37.5306 5.05985L35.3129 6.14128C35.1344 6.22844 34.9261 6.22883 34.7471 6.14244L31.4407 4.54453C31.2637 4.45891 31.1349 4.29769 31.0909 4.10563L30.5406 1.70205L26.4471 1.70213ZM20.3788 14.8791C20.3788 10.4173 23.9961 6.77488 28.4827 6.77488C32.9682 6.77488 36.587 10.3937 36.587 14.8791C36.587 19.3642 32.9682 22.983 28.4827 22.983C23.9976 22.983 20.3788 19.3642 20.3788 14.8791ZM28.4827 8.07076C24.7146 8.07076 21.6747 11.1303 21.6747 14.8791C21.6747 18.6488 24.713 21.6871 28.4827 21.6871C32.2524 21.6871 35.2911 18.6488 35.2911 14.8791C35.2911 11.1095 32.2524 8.07076 28.4827 8.07076Z" stroke="#1742E7" stroke-width="0.56" mask="url(#path-1-inside-1_2820_1046)"></path><path fill-rule="evenodd" clip-rule="evenodd" d="M32.1564 41.9596C32.038 41.8296 31.8671 41.7479 31.6774 41.7479C31.3195 41.7479 31.0294 42.0379 31.0294 42.3958C31.0294 42.5215 31.0645 42.6581 31.1502 42.7807C31.208 42.8633 31.274 42.9161 31.3098 42.9419C31.7981 43.3959 32.3091 43.898 32.8371 44.4168C33.7265 45.2904 34.6641 46.2114 35.6225 47.0298C36.7113 47.9597 37.8899 48.8167 39.187 49.4287C38.3956 50.0142 37.8865 50.9545 37.8865 52.0047C37.8865 52.309 37.9278 52.6041 38.006 52.8837C36.6092 52.2245 35.2913 51.329 34.03 50.3058C32.3874 48.9729 30.8713 47.4503 29.41 45.9824C29.2006 45.7718 28.9919 45.5628 28.7848 45.3553C28.5318 45.1023 28.1214 45.1023 27.8684 45.3553C27.6154 45.6083 27.6154 46.0182 27.8684 46.2712C28.0725 46.4757 28.2792 46.6835 28.4882 46.8933C29.9449 48.357 31.5131 49.9325 33.2135 51.3121C35.1615 52.8926 37.3225 54.2502 39.7619 54.9155C40.0832 55.003 40.4187 54.8325 40.5375 54.5213C40.6563 54.2104 40.5198 53.8599 40.2221 53.7106C39.5973 53.3982 39.1823 52.7564 39.1823 52.0048C39.1823 50.9608 40.0277 50.1007 41.086 50.1007H41.1299C41.4558 50.1007 41.732 49.8581 41.7733 49.5345C41.8145 49.2109 41.6086 48.907 41.2927 48.8253C39.5456 48.3732 37.9701 47.3303 36.464 46.0445C35.5268 45.2442 34.6641 44.3958 33.8083 43.5535C33.2645 43.0181 32.7234 42.4856 32.1668 41.9695C32.1634 41.9664 32.1599 41.9629 32.1564 41.9598L32.1564 41.9596Z" stroke="#1742E7" stroke-width="0.56" mask="url(#path-1-inside-1_2820_1046)"></path><path fill-rule="evenodd" clip-rule="evenodd" d="M13.2133 29.4451C13.2573 29.4358 13.302 29.4308 13.3472 29.4308H13.5689C13.9442 29.4308 14.3164 29.4544 14.6654 29.476L14.6746 29.4767C14.6816 29.4771 14.6885 29.4775 14.6954 29.4783C17.6636 29.7598 20.2438 31.095 22.5332 32.802C24.5989 34.3425 26.4664 36.2165 28.1827 37.9385C28.3624 38.1194 28.541 38.2979 28.7176 38.4749L28.7188 38.4761C28.755 38.512 28.8364 38.5934 28.9054 38.7322C29.0289 38.9787 28.9826 39.2764 28.7901 39.4739L25.4617 42.8913C25.2168 43.1424 24.8165 43.1532 24.5585 42.9156C23.9634 42.3676 23.3837 41.7968 22.8017 41.2236C21.8132 40.2506 20.8181 39.2706 19.7286 38.3842C18.0309 37.0028 16.2436 35.978 14.2215 35.7836C14.2057 35.7824 14.1899 35.7809 14.1745 35.7797C13.9238 35.7589 13.7217 35.7419 13.5026 35.7419H13.3472C13.2982 35.7419 13.2496 35.7362 13.2014 35.7254C11.7601 35.3925 10.7022 34.1151 10.7022 32.5863C10.7022 31.0413 11.7559 29.7531 13.2134 29.445L13.2133 29.4451ZM13.4201 30.7267C12.6005 30.9291 11.9981 31.6689 11.9981 32.5864C11.9981 33.4754 12.5947 34.2232 13.4263 34.4462H13.5023C13.7776 34.4462 14.0322 34.4674 14.2725 34.4874C14.2929 34.4894 14.313 34.4909 14.333 34.4928L14.3411 34.4932C16.7331 34.7215 18.7617 35.9268 20.5467 37.3792C21.6733 38.296 22.7609 39.3646 23.7861 40.3728C24.1934 40.7732 24.591 41.1638 24.977 41.5317L27.4272 39.016L27.2698 38.8587C25.5436 37.1266 23.7435 35.3208 21.7589 33.841C19.5794 32.2157 17.2256 31.0224 14.5833 30.7691C14.2289 30.7471 13.8976 30.7267 13.5693 30.7267L13.4201 30.7267Z" stroke="#1742E7" stroke-width="0.56" mask="url(#path-1-inside-1_2820_1046)"></path><path fill-rule="evenodd" clip-rule="evenodd" d="M6.20322 42.5244C6.53066 42.5359 6.79794 42.7901 6.8261 43.1164C7.13078 46.6522 9.74417 49.0924 13.2373 49.0924C13.8347 49.0924 14.4028 49.0307 14.9663 48.89C14.9732 48.888 14.9806 48.8865 14.9875 48.885C15.2694 48.8248 15.5525 48.7438 15.8376 48.642C15.9074 48.6169 15.981 48.6042 16.0555 48.6042H16.2545C18.0027 48.6042 19.4328 49.9965 19.4328 51.7598C19.4328 52.9585 18.7637 54.0203 17.7559 54.5521C17.7285 54.5664 17.7004 54.5787 17.6714 54.5891C17.3363 54.7087 17.0062 54.8028 16.6683 54.8927C15.4774 55.2197 14.222 55.3813 12.9045 55.3813C5.89665 55.3813 0.763185 50.4254 0.297161 43.4819C0.274792 43.1502 0.507355 42.8552 0.835566 42.7996C1.16339 42.7441 1.48042 42.9462 1.56836 43.2671C1.80401 44.1252 2.59697 44.7655 3.53997 44.7655C4.55002 44.7655 5.39005 44.0234 5.54052 43.0712C5.59181 42.7476 5.87606 42.5131 6.2035 42.5247L6.20322 42.5244ZM5.89776 45.0811C5.29494 45.6862 4.4596 46.0611 3.5397 46.0611C2.9581 46.0611 2.41236 45.9126 1.93686 45.6523C3.1814 50.7077 7.38341 54.0855 12.9042 54.0855C14.1157 54.0855 15.2557 53.9367 16.3275 53.6428L16.3321 53.6416C16.6414 53.5587 16.9184 53.4796 17.1891 53.3851C17.758 53.0669 18.1367 52.4541 18.1367 51.7599C18.1367 50.727 17.3025 49.9001 16.255 49.9001H16.1659C15.8685 50.0019 15.5692 50.0852 15.2696 50.15C14.5938 50.3178 13.9227 50.3884 13.237 50.3884C9.70077 50.3884 6.8992 48.2648 5.89755 45.0811L5.89776 45.0811Z" stroke="#1742E7" stroke-width="0.56" mask="url(#path-1-inside-1_2820_1046)"></path><path fill-rule="evenodd" clip-rule="evenodd" d="M13.9686 29.9842C14.0064 30.3159 13.7858 30.6221 13.4588 30.6915C12.6099 30.8709 11.9782 31.6218 11.9755 32.5594C11.9952 33.507 12.6335 34.2595 13.4812 34.4388C13.8032 34.5066 14.0227 34.8052 13.9922 35.133C13.9617 35.4604 13.6906 35.7131 13.3616 35.7204C9.72624 35.801 6.95429 38.7267 6.82742 42.1411V42.3949C6.82742 42.6452 6.8278 42.882 6.8467 43.0914C6.8521 43.1478 6.84979 43.2044 6.84015 43.26C6.56515 44.8547 5.18863 46.0391 3.53868 46.0391C1.99597 46.0391 0.703148 44.9932 0.317494 43.5878C0.305923 43.5457 0.298595 43.5029 0.295896 43.4593L0.295124 43.4512C0.273526 43.123 0.25 42.7721 0.25 42.3957V42.0914C0.413918 35.3559 5.86203 29.5492 13.3125 29.409C13.6465 29.4029 13.9307 29.6516 13.9685 29.9837L13.9686 29.9842ZM1.54595 42.1156V42.396C1.54595 42.703 1.56369 42.9946 1.58413 43.3035C1.83906 44.1323 2.61738 44.7436 3.53877 44.7436C4.52572 44.7436 5.35102 44.0564 5.54889 43.1153C5.53153 42.87 5.53153 42.6178 5.53153 42.4087V42.1295C5.53153 42.1218 5.53153 42.1145 5.53192 42.1068C5.65533 38.6291 8.07431 35.5711 11.4776 34.6825C10.9893 34.1194 10.6943 33.3824 10.68 32.5771L10.6796 32.5655C10.6796 31.9727 10.835 31.4177 11.1085 30.9414C5.53585 32.036 1.6798 36.7606 1.54591 42.1161L1.54595 42.1156Z" stroke="#1742E7" stroke-width="0.56" mask="url(#path-1-inside-1_2820_1046)"></path><path fill-rule="evenodd" clip-rule="evenodd" d="M50.4281 42.3921C50.7559 42.3809 51.0401 42.6161 51.0907 42.9405C51.2418 43.9163 52.0838 44.6552 53.0912 44.6552C54.0311 44.6552 54.8249 44.0181 55.0616 43.1376C55.1484 42.8148 55.467 42.6111 55.7964 42.6674C56.1261 42.7234 56.3587 43.0211 56.3336 43.3547C55.8423 49.8785 50.3953 55.3825 43.0608 55.3825C42.3905 55.3825 41.7101 55.3366 41.0449 55.2182C40.5994 55.1476 40.1779 55.0539 39.7583 54.9374C39.7182 54.9262 39.6792 54.9112 39.6422 54.8926C38.5804 54.3616 37.8858 53.2724 37.8858 52.0274C37.8858 50.2753 39.3039 48.8274 41.0858 48.8274H41.1294C41.1783 48.8274 41.2281 48.8328 41.2759 48.844C41.5575 48.9088 41.8448 48.9701 42.126 49.0106C42.4808 49.055 42.8194 49.0935 43.1495 49.0935C46.726 49.0935 49.5213 46.3039 49.8048 42.9848C49.8325 42.6581 50.1002 42.4036 50.428 42.3924L50.4281 42.3921ZM50.71 44.9433C49.6636 48.0395 46.7414 50.3891 43.1496 50.3891C42.7272 50.3891 42.313 50.3397 41.9597 50.2954L41.9482 50.2942C41.6381 50.2499 41.3326 50.1859 41.0576 50.123C40.012 50.138 39.1817 50.9923 39.1817 52.0271C39.1817 52.7579 39.5739 53.3843 40.1694 53.7059C40.525 53.8024 40.8802 53.8799 41.2535 53.9389L41.2662 53.9412C41.8417 54.0438 42.446 54.0862 43.0608 54.0862C48.8066 54.0862 53.2423 50.371 54.6235 45.5781C54.165 45.8165 53.6439 45.9511 53.0909 45.9511C52.1579 45.9511 51.3137 45.5658 50.7097 44.9433L50.71 44.9433Z" stroke="#1742E7" stroke-width="0.56" mask="url(#path-1-inside-1_2820_1046)"></path><path fill-rule="evenodd" clip-rule="evenodd" d="M45.1083 30.8007C45.4712 31.3191 45.6841 31.9505 45.6841 32.6315C45.6841 33.3643 45.4404 34.042 45.025 34.5823C48.5323 35.2789 50.9745 38.2193 51.1206 42.0602C51.1206 42.0683 51.121 42.0768 51.121 42.0849V42.4123C51.121 42.594 51.121 42.8073 51.104 43.014C51.2857 43.9531 52.1099 44.6547 53.0914 44.6547C54.0182 44.6547 54.8027 44.0353 55.0518 43.1741C55.0834 42.9303 55.0842 42.6958 55.0842 42.3954C55.0842 42.3599 55.0769 42.3125 55.0526 42.1898C55.0449 42.1528 55.041 42.115 55.0398 42.0772C54.9658 38.731 53.7682 35.899 51.7909 33.9062C50.1005 32.2022 47.8154 31.0868 45.1083 30.8007ZM43.694 29.4316H43.7048C47.3495 29.4316 50.4758 30.7406 52.7112 32.9937C54.9331 35.233 56.241 38.3712 56.3343 41.9908C56.3543 42.093 56.3802 42.2403 56.3802 42.3954V42.4124C56.3802 42.7128 56.3802 43.0406 56.3293 43.397C56.3258 43.4228 56.3204 43.4487 56.3134 43.4738C55.9293 44.9015 54.6369 45.9506 53.0915 45.9506C51.4361 45.9506 50.0585 44.7365 49.8105 43.1386C49.8017 43.082 49.8005 43.0245 49.8067 42.9678C49.8244 42.8104 49.8252 42.6261 49.8252 42.3954V42.0977C49.6771 38.3501 47.0178 35.7205 43.394 35.7205H43.2173C42.8949 35.7205 42.6207 35.4833 42.5752 35.1643C42.5297 34.845 42.7256 34.5411 43.0353 34.4508C43.8259 34.2198 44.3882 33.4955 44.3882 32.6316C44.3882 31.6731 43.677 30.876 42.7476 30.7433C42.4205 30.6966 42.181 30.4112 42.1918 30.0807C42.2026 29.7505 42.4603 29.4813 42.7896 29.4559C43.1032 29.4316 43.4125 29.4316 43.694 29.4316Z" stroke="#1742E7" stroke-width="0.56" mask="url(#path-1-inside-1_2820_1046)"></path><path fill-rule="evenodd" clip-rule="evenodd" d="M42.8503 29.4767C42.8888 29.4748 42.9274 29.4763 42.9656 29.4813C44.4929 29.6792 45.683 31.0248 45.683 32.6315C45.683 34.0817 44.7084 35.3035 43.4002 35.6935C43.34 35.7112 43.2779 35.7205 43.2151 35.7205C42.9112 35.7205 42.6208 35.7579 42.284 35.803C40.3857 36.0811 38.6208 37.0364 36.9559 38.318C35.3079 39.587 33.8033 41.1389 32.3906 42.5952L32.3409 42.6469C32.116 42.8787 31.755 42.9095 31.4939 42.7194C31.2332 42.5288 31.1522 42.1759 31.3042 41.8909C31.4245 41.6649 31.4939 41.373 31.4939 41.064C31.4939 40.0459 30.6524 39.2043 29.6346 39.2043C29.3318 39.2043 29.0607 39.2714 28.83 39.3944C28.5466 39.5456 28.1956 39.4662 28.0043 39.2085C27.8134 38.9505 27.8396 38.5915 28.0668 38.3647C28.1694 38.2617 28.2723 38.1587 28.3757 38.0557C31.9818 34.4454 35.9474 30.4753 41.5152 29.6171C41.9402 29.5465 42.3853 29.4998 42.8504 29.4767L42.8503 29.4767ZM42.853 30.7742C42.4545 30.7961 42.0785 30.837 41.724 30.896L41.7159 30.8976C37.0878 31.6095 33.6321 34.6737 30.2905 37.9775C31.4999 38.2367 32.4599 39.1955 32.7202 40.4046C33.7846 39.3331 34.9332 38.2401 36.1658 37.2914C37.9226 35.9388 39.8957 34.8419 42.101 34.5203L42.1091 34.5192L42.1245 34.5168C42.4196 34.4775 42.7524 34.4332 43.1107 34.4258C43.8473 34.169 44.3873 33.4597 44.3873 32.6316C44.3873 31.684 43.6981 30.9119 42.8531 30.7743L42.853 30.7742Z" stroke="#1742E7" stroke-width="0.56" mask="url(#path-1-inside-1_2820_1046)"></path><path fill-rule="evenodd" clip-rule="evenodd" d="M28.9762 39.2662L28.8535 39.3888L27.8789 40.3858L25.5062 42.8028C25.5059 42.8032 25.5055 42.8032 25.5055 42.8036C25.3983 42.9135 25.2899 43.025 25.1807 43.1372C23.1767 45.1987 20.8091 47.6346 18.0541 49.0774C18.9084 49.6386 19.4765 50.6043 19.4765 51.7151C19.4765 51.9507 19.4499 52.1806 19.3997 52.402C22.4227 50.8068 24.9639 48.2621 27.5137 45.7089C27.6386 45.584 27.7632 45.459 27.8882 45.334C27.8889 45.3337 27.8897 45.3329 27.8905 45.3321L30.3916 42.7863L30.3939 42.7843L31.1865 41.9702C31.2416 41.9 31.2956 41.841 31.3427 41.792C31.4399 41.5783 31.495 41.3164 31.495 41.0414C31.495 40.0248 30.6519 39.1736 29.6854 39.1153C29.4232 39.1173 29.1848 39.1701 28.9762 39.2662ZM28.2877 38.1619C28.7224 37.9301 29.206 37.8194 29.702 37.8194C29.7132 37.8194 29.724 37.8198 29.7348 37.8202C31.3805 37.9039 32.7909 39.312 32.7909 41.0414C32.7909 41.5316 32.6829 42.0384 32.4484 42.4781C32.4183 42.5344 32.3801 42.5861 32.335 42.6312C32.2668 42.6994 32.2309 42.7365 32.1954 42.7839C32.1788 42.8059 32.1607 42.8271 32.1414 42.8472L31.3203 43.6903L31.318 43.6926L28.8064 46.2485C28.6583 46.3966 28.5098 46.5455 28.3605 46.6951C25.301 49.7617 21.9961 53.0738 17.7082 54.5471C17.3892 54.6566 17.0398 54.5035 16.9044 54.195C16.7686 53.8864 16.8921 53.5258 17.1883 53.365C17.7699 53.0491 18.181 52.4166 18.181 51.7151C18.181 50.6788 17.3429 49.8557 16.3213 49.8557H16.1227C15.8052 49.8557 15.5337 49.6259 15.4824 49.3127C15.4307 48.9995 15.6139 48.6952 15.9144 48.5938C19.1132 47.5138 21.853 44.6988 24.3334 42.1498C24.4152 42.0657 24.4969 41.982 24.5783 41.8983L24.5799 41.8968L26.9537 39.479L27.9349 38.4751L28.1347 38.2753C28.1802 38.2302 28.2315 38.192 28.2882 38.1619L28.2877 38.1619Z" stroke="#1742E7" stroke-width="0.56" mask="url(#path-1-inside-1_2820_1046)"></path><path fill-rule="evenodd" clip-rule="evenodd" d="M32.1376 12.4471C32.3899 12.7012 32.3887 13.1112 32.1349 13.3635L28.4066 17.0694C28.2847 17.1909 28.1192 17.2584 27.9472 17.2576C27.7752 17.2572 27.6105 17.1878 27.4894 17.0656L25.2926 14.8467C25.0407 14.5922 25.0427 14.1822 25.2972 13.9304C25.5514 13.6785 25.9617 13.6804 26.2136 13.935L27.9534 15.6925L31.2213 12.4444C31.475 12.1922 31.8854 12.1933 32.1376 12.4471Z" stroke="#1742E7" stroke-width="0.56" mask="url(#path-1-inside-1_2820_1046)"></path></svg>