<svg xmlns="http://www.w3.org/2000/svg" viewBox="0 0 56 56" fill="none"><path d="M7.07025 51.5578H37.5348V36.8456H7.07025V51.5578ZM7.90829 37.6832H36.6966V50.7192H7.90829V37.6832Z" fill="#1742E7"></path><path d="M47.6143 11.4188C48.0898 6.31273 42.4896 2.80322 38.122 5.39638C36.5283 2.61555 33.5983 0.906494 30.3667 0.906494C24.8332 0.906494 20.5711 5.94696 21.6027 11.4674C18.4482 11.0822 15.3072 12.9204 14.0187 15.9339H2.79317C1.58666 15.9339 0.605469 16.919 0.605469 18.1295V52.7188C0.605469 53.9253 1.58701 54.9065 2.79317 54.9065H41.7323C42.9385 54.9065 43.9196 53.925 43.9196 52.7188L43.9192 26.1756H47.7492C51.8161 26.1756 55.1249 22.8632 55.1249 18.7915C55.1253 14.6193 51.6432 11.3065 47.6144 11.4186L47.6143 11.4188ZM1.44326 18.1298C1.44326 17.3812 2.04872 16.7722 2.79296 16.7722H13.7091C13.2304 18.4693 13.4045 20.2956 14.0502 21.7586L1.44261 21.759L1.44326 18.1298ZM43.0814 52.7191C43.0814 53.4637 42.4759 54.0688 41.7321 54.0688H2.79296C2.04875 54.0688 1.44326 53.4634 1.44326 52.7191V22.5966H14.4864C15.7863 24.7576 18.215 26.1753 20.8042 26.1753H43.0812L43.0814 52.7191ZM47.7498 25.3373H20.8035C16.351 25.3373 13.0803 20.9075 14.6757 16.4998C15.742 13.6884 18.7272 11.7459 22.0649 12.3891L22.7145 12.514L22.5503 11.8735C21.2102 6.6346 25.1805 1.74404 30.3665 1.74404C35.8741 1.74404 37.7367 6.52855 37.8126 6.61323C38.0332 6.49714 39.2374 5.36448 41.2955 5.36448C44.7625 5.36448 47.3136 8.53529 46.717 11.7928L46.618 12.3319C47.2521 12.2786 47.4902 12.254 47.749 12.254C51.3539 12.254 54.2866 15.1866 54.2866 18.7912C54.2866 22.401 51.3543 25.3372 47.7494 25.3372L47.7498 25.3373Z" fill="#1742E7"></path><path d="M26.7123 10.7472H25.8739V12.6287H25.041V13.4667H25.8739V21.9516H26.7123V13.4667H27.546V12.6287H26.7123V10.7472Z" fill="#1742E7"></path><path d="M32.033 10.7472H31.1949V19.4105H30.3613V20.2485H31.1949V21.9516H32.033V20.2485H32.8666V19.4105H32.033V10.7472Z" fill="#1742E7"></path><path d="M37.3536 10.7472H36.5156V14.1108H35.6819V14.9489H36.5156V21.9517H37.3536V14.9489H38.1873V14.1108H37.3536V10.7472Z" fill="#1742E7"></path><path d="M42.6753 10.7472H41.8373V16.438H41.0036V17.2765H41.8373V21.9517H42.6753V17.2765H43.5086V16.438H42.6753V10.7472Z" fill="#1742E7"></path><path d="M7.48956 34.286H23.537V35.1241H7.48956V34.286Z" fill="#1742E7"></path><path d="M7.48956 31.6389H23.537V32.477H7.48956V31.6389Z" fill="#1742E7"></path><path d="M7.48956 28.9918H32.7342V29.8299H7.48956V28.9918Z" fill="#1742E7"></path><path d="M7.07025 51.5578H37.5348V36.8456H7.07025V51.5578ZM7.90829 37.6832H36.6966V50.7192H7.90829V37.6832Z" stroke="#1742E7"></path><path d="M47.6143 11.4188C48.0898 6.31273 42.4896 2.80322 38.122 5.39638C36.5283 2.61555 33.5983 0.906494 30.3667 0.906494C24.8332 0.906494 20.5711 5.94696 21.6027 11.4674C18.4482 11.0822 15.3072 12.9204 14.0187 15.9339H2.79317C1.58666 15.9339 0.605469 16.919 0.605469 18.1295V52.7188C0.605469 53.9253 1.58701 54.9065 2.79317 54.9065H41.7323C42.9385 54.9065 43.9196 53.925 43.9196 52.7188L43.9192 26.1756H47.7492C51.8161 26.1756 55.1249 22.8632 55.1249 18.7915C55.1253 14.6193 51.6432 11.3065 47.6144 11.4186L47.6143 11.4188ZM1.44326 18.1298C1.44326 17.3812 2.04872 16.7722 2.79296 16.7722H13.7091C13.2304 18.4693 13.4045 20.2956 14.0502 21.7586L1.44261 21.759L1.44326 18.1298ZM43.0814 52.7191C43.0814 53.4637 42.4759 54.0688 41.7321 54.0688H2.79296C2.04875 54.0688 1.44326 53.4634 1.44326 52.7191V22.5966H14.4864C15.7863 24.7576 18.215 26.1753 20.8042 26.1753H43.0812L43.0814 52.7191ZM47.7498 25.3373H20.8035C16.351 25.3373 13.0803 20.9075 14.6757 16.4998C15.742 13.6884 18.7272 11.7459 22.0649 12.3891L22.7145 12.514L22.5503 11.8735C21.2102 6.6346 25.1805 1.74404 30.3665 1.74404C35.8741 1.74404 37.7367 6.52855 37.8126 6.61323C38.0332 6.49714 39.2374 5.36448 41.2955 5.36448C44.7625 5.36448 47.3136 8.53529 46.717 11.7928L46.618 12.3319C47.2521 12.2786 47.4902 12.254 47.749 12.254C51.3539 12.254 54.2866 15.1866 54.2866 18.7912C54.2866 22.401 51.3543 25.3372 47.7494 25.3372L47.7498 25.3373Z" stroke="#1742E7"></path><path d="M26.7123 10.7472H25.8739V12.6287H25.041V13.4667H25.8739V21.9516H26.7123V13.4667H27.546V12.6287H26.7123V10.7472Z" stroke="#1742E7"></path><path d="M32.033 10.7472H31.1949V19.4105H30.3613V20.2485H31.1949V21.9516H32.033V20.2485H32.8666V19.4105H32.033V10.7472Z" stroke="#1742E7"></path><path d="M37.3536 10.7472H36.5156V14.1108H35.6819V14.9489H36.5156V21.9517H37.3536V14.9489H38.1873V14.1108H37.3536V10.7472Z" stroke="#1742E7"></path><path d="M42.6753 10.7472H41.8373V16.438H41.0036V17.2765H41.8373V21.9517H42.6753V17.2765H43.5086V16.438H42.6753V10.7472Z" stroke="#1742E7"></path><path d="M7.48956 34.286H23.537V35.1241H7.48956V34.286Z" stroke="#1742E7"></path><path d="M7.48956 31.6389H23.537V32.477H7.48956V31.6389Z" stroke="#1742E7"></path><path d="M7.48956 28.9918H32.7342V29.8299H7.48956V28.9918Z" stroke="#1742E7"></path></svg>