<svg xmlns="http://www.w3.org/2000/svg" viewBox="0 0 46 55" fill="none"><mask id="path-1-inside-1_2821_1077" fill="white"><path d="M37.5617 22.2005C37.5617 18.3026 36.0134 14.5645 33.2575 11.8084C30.5014 9.05256 26.7633 7.50418 22.8655 7.50418C18.9676 7.50418 15.2295 9.05256 12.4734 11.8084C9.71757 14.5645 8.1692 18.3026 8.1692 22.2005C8.1692 26.0983 9.71757 29.8364 12.4734 32.5926C15.2295 35.3484 18.9676 36.8967 22.8655 36.8967C26.7619 36.8926 30.4976 35.3428 33.2529 32.5879C36.0077 29.8326 37.5575 26.0969 37.5617 22.2005ZM22.8653 34.2248C19.6763 34.2248 16.6181 32.9578 14.3628 30.703C12.108 28.4477 10.841 25.3895 10.841 22.2005C10.841 19.0114 12.108 15.9532 14.3628 13.6979C16.6181 11.4431 19.6763 10.1761 22.8653 10.1761C26.0544 10.1761 29.1126 11.4431 31.3679 13.6979C33.6227 15.9532 34.8897 19.0114 34.8897 22.2005C34.8859 25.3887 33.618 28.445 31.3636 30.6989C29.1096 32.9532 26.0535 34.221 22.8653 34.2248ZM28.5731 17.6794C29.163 18.1225 29.2827 18.9594 28.8401 19.5499L21.9194 28.6667C21.6673 29.0031 21.2713 29.2011 20.8505 29.2011C20.4278 29.1979 20.0313 28.9947 19.782 28.6536L16.8907 24.6961C16.4555 24.1001 16.5855 23.2637 17.1819 22.8285C17.7779 22.3928 18.6143 22.5233 19.0495 23.1197L20.8799 25.6262L26.7077 17.9358C27.1532 17.3524 27.9864 17.2381 28.5731 17.6794ZM36.5728 37.0305C38.2033 37.1125 39.7899 36.4895 40.9288 35.3203C41.6818 33.8395 41.7596 32.1061 41.1422 30.5642C40.9003 29.7501 40.8099 28.8988 40.8752 28.0521C41.3011 27.3662 41.8547 26.7673 42.5051 26.2889C43.9464 25.3779 44.9217 23.8863 45.177 22.2005C44.9216 20.5146 43.9464 19.023 42.5051 18.1121C41.8547 17.6335 41.301 17.0347 40.8752 16.3489C40.8099 15.5022 40.9003 14.6509 41.1422 13.8368C41.7596 12.2948 41.6818 10.5614 40.9288 9.08059C39.7438 7.89748 38.111 7.27539 36.4396 7.37046C35.6045 7.37885 34.7766 7.21529 34.0076 6.88958C33.4587 6.25679 33.0407 5.52098 32.7788 4.72508C32.1377 3.22884 31.4158 1.51872 29.7594 0.984302C28.1383 0.71218 26.4794 1.16137 25.2166 2.21358C24.5112 2.71589 23.7116 3.0705 22.8653 3.25549C22.0191 3.0705 21.2195 2.7159 20.514 2.21358C19.2498 1.1642 17.5924 0.715425 15.9713 0.984302C14.3147 1.51878 13.5929 3.22884 12.9518 4.72508C12.69 5.52097 12.272 6.25675 11.7231 6.88958C10.9542 7.2153 10.1261 7.37886 9.29111 7.37046C7.61964 7.2754 5.98693 7.89748 4.80192 9.08059C4.04891 10.5614 3.9711 12.2948 4.5885 13.8368C4.83033 14.6508 4.92074 15.5021 4.8555 16.3489C4.42961 17.0348 3.87604 17.6336 3.22554 18.1121C1.7843 19.023 0.808989 20.5147 0.553711 22.2005C0.809061 23.8864 1.7843 25.378 3.22554 26.2889C3.87604 26.7674 4.42964 27.3662 4.8555 28.0521C4.92074 28.8987 4.83034 29.75 4.5885 30.5642C3.97108 32.1061 4.04891 33.8395 4.80192 35.3203C5.94076 36.4895 7.52743 37.1124 9.15787 37.0305L2.07653 46.2758C1.76014 46.7111 1.73171 47.2921 2.0043 47.7562C2.2769 48.2199 2.79831 48.478 3.33282 48.4137L9.47858 47.5852L10.3071 53.7574C10.3868 54.2882 10.7758 54.7197 11.2954 54.853C11.4086 54.8842 11.5256 54.9019 11.643 54.9065C12.0629 54.9037 12.4575 54.7062 12.7115 54.3721L22.7853 41.1716C22.8328 41.1361 22.8981 41.1361 22.9456 41.1716L33.0194 54.3721C33.2734 54.7062 33.6681 54.9037 34.0879 54.9065C34.2053 54.9019 34.3223 54.8842 34.4355 54.853C34.9551 54.7197 35.3446 54.2882 35.4243 53.7574L36.2528 47.5852L42.3986 48.4137C42.9331 48.478 43.454 48.2199 43.7266 47.7562C43.9992 47.2921 43.9708 46.711 43.6544 46.2758L36.5728 37.0305ZM12.5242 50.2035L11.9632 45.9017C11.8476 45.1711 11.1747 44.6627 10.4403 44.7522L6.16501 45.3403L11.9635 37.7514C12.3731 38.3484 12.7054 38.9952 12.9518 39.6755C13.593 41.1717 14.3148 42.8818 15.9713 43.4162C16.516 43.5891 17.0961 43.6171 17.6548 43.4964L12.5242 50.2035ZM22.8651 38.4731C22.5403 38.4778 22.2174 38.523 21.9038 38.6064C21.8772 38.6064 21.8772 38.6064 21.8502 38.633C21.7384 38.6339 21.6284 38.6619 21.5296 38.7136C21.5031 38.7136 21.476 38.7402 21.4229 38.7402C20.6303 39.0477 19.869 39.4326 19.1513 39.8892C18.3498 40.3701 17.2273 41.0383 16.8 40.878C16.2921 40.7177 15.7847 39.515 15.4105 38.6069C15.0079 37.3604 14.2787 36.2434 13.2997 35.3735C12.9782 35.1326 12.6161 34.9513 12.2308 34.839C12.0891 34.7668 11.9349 34.7211 11.7765 34.7052C11.0402 34.5226 10.2891 34.4061 9.53193 34.3581C8.57016 34.2779 7.26079 34.1442 6.96674 33.7435C6.6727 33.3428 6.96674 32.0869 7.18063 31.1517C7.59488 29.8838 7.66897 28.5288 7.39451 27.2235C6.85351 26.0413 6.01565 25.0194 4.96305 24.2576C4.18814 23.5894 3.22632 22.7343 3.22632 22.2004C3.22632 21.6659 4.18809 20.8109 4.96305 20.116C6.02034 19.37 6.8595 18.3551 7.39451 17.1762C7.66897 15.871 7.59488 14.5164 7.18063 13.2485C6.96674 12.3133 6.67272 11.0575 6.96674 10.6567C7.26077 10.2559 8.5701 10.1222 9.53193 10.0421C10.8563 10.0453 12.1568 9.69491 13.2998 9.02625C14.2788 8.15627 15.008 7.03985 15.4106 5.79328C15.7848 4.88463 16.2922 3.68246 16.8001 3.52214C16.8401 3.49791 16.8872 3.48812 16.9338 3.49511C17.7278 3.69781 18.479 4.04169 19.1514 4.51046C20.2441 5.30029 21.5246 5.78864 22.8657 5.92702C24.2067 5.78862 25.4873 5.30029 26.58 4.51046C27.3815 4.02958 28.504 3.38841 28.9313 3.52166C29.4392 3.68196 29.9466 4.88466 30.3208 5.79281C30.7234 7.03926 31.4526 8.15627 32.4316 9.02624C33.5746 9.69492 34.8751 10.0453 36.1994 10.0421C37.1612 10.1222 38.4706 10.2559 38.7646 10.6567C39.0587 11.0574 38.7646 12.3132 38.5507 13.2485C38.1365 14.5164 38.0624 15.8709 38.3368 17.1762C38.8718 18.3551 39.711 19.3695 40.7683 20.1156C41.5432 20.8103 42.505 21.6654 42.505 22.1999C42.505 22.7344 41.5433 23.5894 40.7683 24.2572C39.7157 25.019 38.8778 26.0414 38.3368 27.2235C38.0624 28.5287 38.1365 29.8833 38.5507 31.1512C38.7646 32.0864 39.0586 33.3422 38.7646 33.743C38.4706 34.1438 37.1613 34.2775 36.1994 34.3576C35.377 34.4061 34.5619 34.5407 33.7675 34.7588C33.7409 34.7588 33.7139 34.7854 33.6873 34.7854C33.2349 34.8986 32.8085 35.0981 32.4316 35.3735C31.4526 36.2434 30.7234 37.3598 30.3208 38.6064C29.9466 39.5151 29.4392 40.7172 28.9313 40.8776C28.5035 41.0113 27.3815 40.3697 26.58 39.8888C25.8624 39.4321 25.1014 39.0477 24.3089 38.7401C24.2553 38.7401 24.2287 38.7136 24.2021 38.7136C24.1034 38.6619 23.9929 38.6344 23.8811 38.6334C23.8545 38.6069 23.8545 38.6069 23.8275 38.6069C23.5139 38.5235 23.1899 38.4778 22.8651 38.4731ZM35.2902 44.7526C34.5559 44.6632 33.883 45.1706 33.7674 45.9013L33.2063 50.2031L28.076 43.4963C28.3215 43.5508 28.5727 43.5778 28.8243 43.5764C29.1426 43.5732 29.458 43.5191 29.7595 43.4161C31.4161 42.8816 32.1379 41.1716 32.779 39.6753C33.0255 38.995 33.3577 38.3483 33.7673 37.7513L39.5658 45.3401L35.2902 44.7526Z"></path></mask><path d="M37.5617 22.2005C37.5617 18.3026 36.0134 14.5645 33.2575 11.8084C30.5014 9.05256 26.7633 7.50418 22.8655 7.50418C18.9676 7.50418 15.2295 9.05256 12.4734 11.8084C9.71757 14.5645 8.1692 18.3026 8.1692 22.2005C8.1692 26.0983 9.71757 29.8364 12.4734 32.5926C15.2295 35.3484 18.9676 36.8967 22.8655 36.8967C26.7619 36.8926 30.4976 35.3428 33.2529 32.5879C36.0077 29.8326 37.5575 26.0969 37.5617 22.2005ZM22.8653 34.2248C19.6763 34.2248 16.6181 32.9578 14.3628 30.703C12.108 28.4477 10.841 25.3895 10.841 22.2005C10.841 19.0114 12.108 15.9532 14.3628 13.6979C16.6181 11.4431 19.6763 10.1761 22.8653 10.1761C26.0544 10.1761 29.1126 11.4431 31.3679 13.6979C33.6227 15.9532 34.8897 19.0114 34.8897 22.2005C34.8859 25.3887 33.618 28.445 31.3636 30.6989C29.1096 32.9532 26.0535 34.221 22.8653 34.2248ZM28.5731 17.6794C29.163 18.1225 29.2827 18.9594 28.8401 19.5499L21.9194 28.6667C21.6673 29.0031 21.2713 29.2011 20.8505 29.2011C20.4278 29.1979 20.0313 28.9947 19.782 28.6536L16.8907 24.6961C16.4555 24.1001 16.5855 23.2637 17.1819 22.8285C17.7779 22.3928 18.6143 22.5233 19.0495 23.1197L20.8799 25.6262L26.7077 17.9358C27.1532 17.3524 27.9864 17.2381 28.5731 17.6794ZM36.5728 37.0305C38.2033 37.1125 39.7899 36.4895 40.9288 35.3203C41.6818 33.8395 41.7596 32.1061 41.1422 30.5642C40.9003 29.7501 40.8099 28.8988 40.8752 28.0521C41.3011 27.3662 41.8547 26.7673 42.5051 26.2889C43.9464 25.3779 44.9217 23.8863 45.177 22.2005C44.9216 20.5146 43.9464 19.023 42.5051 18.1121C41.8547 17.6335 41.301 17.0347 40.8752 16.3489C40.8099 15.5022 40.9003 14.6509 41.1422 13.8368C41.7596 12.2948 41.6818 10.5614 40.9288 9.08059C39.7438 7.89748 38.111 7.27539 36.4396 7.37046C35.6045 7.37885 34.7766 7.21529 34.0076 6.88958C33.4587 6.25679 33.0407 5.52098 32.7788 4.72508C32.1377 3.22884 31.4158 1.51872 29.7594 0.984302C28.1383 0.71218 26.4794 1.16137 25.2166 2.21358C24.5112 2.71589 23.7116 3.0705 22.8653 3.25549C22.0191 3.0705 21.2195 2.7159 20.514 2.21358C19.2498 1.1642 17.5924 0.715425 15.9713 0.984302C14.3147 1.51878 13.5929 3.22884 12.9518 4.72508C12.69 5.52097 12.272 6.25675 11.7231 6.88958C10.9542 7.2153 10.1261 7.37886 9.29111 7.37046C7.61964 7.2754 5.98693 7.89748 4.80192 9.08059C4.04891 10.5614 3.9711 12.2948 4.5885 13.8368C4.83033 14.6508 4.92074 15.5021 4.8555 16.3489C4.42961 17.0348 3.87604 17.6336 3.22554 18.1121C1.7843 19.023 0.808989 20.5147 0.553711 22.2005C0.809061 23.8864 1.7843 25.378 3.22554 26.2889C3.87604 26.7674 4.42964 27.3662 4.8555 28.0521C4.92074 28.8987 4.83034 29.75 4.5885 30.5642C3.97108 32.1061 4.04891 33.8395 4.80192 35.3203C5.94076 36.4895 7.52743 37.1124 9.15787 37.0305L2.07653 46.2758C1.76014 46.7111 1.73171 47.2921 2.0043 47.7562C2.2769 48.2199 2.79831 48.478 3.33282 48.4137L9.47858 47.5852L10.3071 53.7574C10.3868 54.2882 10.7758 54.7197 11.2954 54.853C11.4086 54.8842 11.5256 54.9019 11.643 54.9065C12.0629 54.9037 12.4575 54.7062 12.7115 54.3721L22.7853 41.1716C22.8328 41.1361 22.8981 41.1361 22.9456 41.1716L33.0194 54.3721C33.2734 54.7062 33.6681 54.9037 34.0879 54.9065C34.2053 54.9019 34.3223 54.8842 34.4355 54.853C34.9551 54.7197 35.3446 54.2882 35.4243 53.7574L36.2528 47.5852L42.3986 48.4137C42.9331 48.478 43.454 48.2199 43.7266 47.7562C43.9992 47.2921 43.9708 46.711 43.6544 46.2758L36.5728 37.0305ZM12.5242 50.2035L11.9632 45.9017C11.8476 45.1711 11.1747 44.6627 10.4403 44.7522L6.16501 45.3403L11.9635 37.7514C12.3731 38.3484 12.7054 38.9952 12.9518 39.6755C13.593 41.1717 14.3148 42.8818 15.9713 43.4162C16.516 43.5891 17.0961 43.6171 17.6548 43.4964L12.5242 50.2035ZM22.8651 38.4731C22.5403 38.4778 22.2174 38.523 21.9038 38.6064C21.8772 38.6064 21.8772 38.6064 21.8502 38.633C21.7384 38.6339 21.6284 38.6619 21.5296 38.7136C21.5031 38.7136 21.476 38.7402 21.4229 38.7402C20.6303 39.0477 19.869 39.4326 19.1513 39.8892C18.3498 40.3701 17.2273 41.0383 16.8 40.878C16.2921 40.7177 15.7847 39.515 15.4105 38.6069C15.0079 37.3604 14.2787 36.2434 13.2997 35.3735C12.9782 35.1326 12.6161 34.9513 12.2308 34.839C12.0891 34.7668 11.9349 34.7211 11.7765 34.7052C11.0402 34.5226 10.2891 34.4061 9.53193 34.3581C8.57016 34.2779 7.26079 34.1442 6.96674 33.7435C6.6727 33.3428 6.96674 32.0869 7.18063 31.1517C7.59488 29.8838 7.66897 28.5288 7.39451 27.2235C6.85351 26.0413 6.01565 25.0194 4.96305 24.2576C4.18814 23.5894 3.22632 22.7343 3.22632 22.2004C3.22632 21.6659 4.18809 20.8109 4.96305 20.116C6.02034 19.37 6.8595 18.3551 7.39451 17.1762C7.66897 15.871 7.59488 14.5164 7.18063 13.2485C6.96674 12.3133 6.67272 11.0575 6.96674 10.6567C7.26077 10.2559 8.5701 10.1222 9.53193 10.0421C10.8563 10.0453 12.1568 9.69491 13.2998 9.02625C14.2788 8.15627 15.008 7.03985 15.4106 5.79328C15.7848 4.88463 16.2922 3.68246 16.8001 3.52214C16.8401 3.49791 16.8872 3.48812 16.9338 3.49511C17.7278 3.69781 18.479 4.04169 19.1514 4.51046C20.2441 5.30029 21.5246 5.78864 22.8657 5.92702C24.2067 5.78862 25.4873 5.30029 26.58 4.51046C27.3815 4.02958 28.504 3.38841 28.9313 3.52166C29.4392 3.68196 29.9466 4.88466 30.3208 5.79281C30.7234 7.03926 31.4526 8.15627 32.4316 9.02624C33.5746 9.69492 34.8751 10.0453 36.1994 10.0421C37.1612 10.1222 38.4706 10.2559 38.7646 10.6567C39.0587 11.0574 38.7646 12.3132 38.5507 13.2485C38.1365 14.5164 38.0624 15.8709 38.3368 17.1762C38.8718 18.3551 39.711 19.3695 40.7683 20.1156C41.5432 20.8103 42.505 21.6654 42.505 22.1999C42.505 22.7344 41.5433 23.5894 40.7683 24.2572C39.7157 25.019 38.8778 26.0414 38.3368 27.2235C38.0624 28.5287 38.1365 29.8833 38.5507 31.1512C38.7646 32.0864 39.0586 33.3422 38.7646 33.743C38.4706 34.1438 37.1613 34.2775 36.1994 34.3576C35.377 34.4061 34.5619 34.5407 33.7675 34.7588C33.7409 34.7588 33.7139 34.7854 33.6873 34.7854C33.2349 34.8986 32.8085 35.0981 32.4316 35.3735C31.4526 36.2434 30.7234 37.3598 30.3208 38.6064C29.9466 39.5151 29.4392 40.7172 28.9313 40.8776C28.5035 41.0113 27.3815 40.3697 26.58 39.8888C25.8624 39.4321 25.1014 39.0477 24.3089 38.7401C24.2553 38.7401 24.2287 38.7136 24.2021 38.7136C24.1034 38.6619 23.9929 38.6344 23.8811 38.6334C23.8545 38.6069 23.8545 38.6069 23.8275 38.6069C23.5139 38.5235 23.1899 38.4778 22.8651 38.4731ZM35.2902 44.7526C34.5559 44.6632 33.883 45.1706 33.7674 45.9013L33.2063 50.2031L28.076 43.4963C28.3215 43.5508 28.5727 43.5778 28.8243 43.5764C29.1426 43.5732 29.458 43.5191 29.7595 43.4161C31.4161 42.8816 32.1379 41.1716 32.779 39.6753C33.0255 38.995 33.3577 38.3483 33.7673 37.7513L39.5658 45.3401L35.2902 44.7526Z" fill="#1742E7" stroke="white" stroke-width="0.56" mask="url(#path-1-inside-1_2821_1077)"></path></svg>