<svg xmlns="http://www.w3.org/2000/svg" viewBox="0 0 58 50" fill="none"><mask id="path-1-inside-1_2820_1047" fill="white"><path fill-rule="evenodd" clip-rule="evenodd" d="M2.43245 0.695529C1.70642 1.03356 1.00323 1.80035 0.801496 2.47394C0.695533 2.82732 0.659312 8.59722 0.660171 24.9138L0.661399 46.8781L0.951539 47.492C1.30037 48.2298 1.75873 48.681 2.50071 49.0168C3.05091 49.266 3.16031 49.2669 29.0222 49.2684L54.9912 49.2699L55.6051 48.9798C56.3429 48.6309 56.7941 48.1726 57.13 47.4306C57.3786 46.8812 57.3801 46.7488 57.3801 24.8382C57.3801 2.92763 57.3786 2.79515 57.13 2.24581C56.7941 1.50382 56.3429 1.04547 55.6051 0.696634L54.9912 0.406494H29.0222H3.05324L2.43245 0.695529ZM54.8642 2.2975C55.594 2.6025 55.6665 2.9075 55.6665 5.67764V8.13947H29.0222H2.37793V5.67764C2.37793 2.92874 2.4516 2.6079 3.15331 2.30278C3.74747 2.04432 54.2459 2.03916 54.8642 2.2975ZM6.85957 4.08083C6.07498 4.40203 5.8574 5.47664 6.4701 6.00376C6.98285 6.4448 7.66479 6.40919 8.07649 5.9199C8.6025 5.2948 8.47173 4.50652 7.78291 4.1502C7.38546 3.94478 7.22215 3.9325 6.85957 4.08083ZM11.6338 4.15916C10.9075 4.51745 10.7629 5.36994 11.3318 5.93881C11.5975 6.20451 11.8072 6.2977 12.1393 6.2977C12.6925 6.2977 13.3058 5.7507 13.3058 5.25735C13.3058 4.74878 12.9816 4.24978 12.5544 4.10084C12.0712 3.93238 12.0968 3.93078 11.6338 4.15916ZM16.5566 4.1362C15.835 4.45053 15.675 5.37068 16.2431 5.93881C16.6804 6.37592 17.2926 6.41938 17.7663 6.04685C18.4339 5.52171 18.2571 4.37674 17.4658 4.10084C16.994 3.93643 17.0172 3.93545 16.5566 4.1362ZM28.7786 4.66553C28.4729 5.05426 28.5266 5.50587 28.9182 5.83726C29.156 6.03851 29.8903 6.05213 40.5026 6.05213C51.3308 6.05213 51.8453 6.04207 52.1126 5.82572C52.4578 5.54626 52.4854 4.93037 52.1686 4.58031C51.9475 4.33597 51.8134 4.33315 40.4925 4.33315H29.04L28.7786 4.66553ZM55.6665 28.2209C55.6665 48.4453 55.7263 47.0186 54.8642 47.3789C54.2365 47.6412 3.80788 47.6412 3.1802 47.3789C2.31813 47.0186 2.37793 48.4453 2.37793 28.2209V9.98125H29.0222H55.6665V28.2209ZM15.573 14.6423C15.4356 14.6973 15.2617 14.8176 15.1867 14.9096C15.0197 15.1143 12.4442 24.2982 12.4454 24.6847C12.4476 25.3831 13.5948 25.7518 13.9724 25.1756C14.1681 24.877 16.7437 15.7936 16.7437 15.4022C16.7437 14.8805 16.07 14.4431 15.573 14.6423ZM10.052 16.2439C9.57041 16.4554 5.87398 19.3982 5.69889 19.7096C5.55928 19.9576 5.55069 20.0929 5.6591 20.3309C5.80436 20.6498 9.6404 23.6527 10.1498 23.8465C10.5208 23.9875 10.9742 23.7777 11.1768 23.3713C11.434 22.8552 11.1386 22.4709 9.56083 21.2693C8.75045 20.6522 8.08742 20.1002 8.08742 20.0426C8.08742 19.985 8.75045 19.43 9.56083 18.8091C10.3712 18.1882 11.0749 17.6193 11.1245 17.545C11.3357 17.2284 11.2181 16.6292 10.8949 16.375C10.5434 16.0984 10.4251 16.0801 10.052 16.2439ZM18.5005 16.2445C18.3526 16.304 18.1369 16.4972 18.0213 16.6736C17.6894 17.1801 17.9743 17.5603 19.6292 18.82C20.4396 19.4369 21.1026 19.9882 21.1026 20.045C21.1026 20.102 20.4035 20.6814 19.5489 21.3328C17.8832 22.6025 17.6736 22.895 18.0346 23.4458C18.2824 23.8241 18.6855 23.9791 19.057 23.8391C19.551 23.653 23.3828 20.656 23.5244 20.3451C23.6221 20.1308 23.6221 19.9684 23.5244 19.754C23.3531 19.3781 19.0604 16.0776 18.8085 16.1282C18.7871 16.1325 18.6486 16.1848 18.5005 16.2445ZM6.17124 29.518C5.85752 29.6332 5.57033 30.072 5.57033 30.4363C5.57033 30.5375 5.70601 30.7558 5.87177 30.9216L6.17308 31.223H29.0222H51.8713L52.1726 30.9216C52.3384 30.7558 52.4741 30.5375 52.4741 30.4363C52.4741 30.0524 52.181 29.6343 51.8249 29.5102C51.3377 29.3403 6.63451 29.3481 6.17124 29.518ZM5.87177 35.5763C5.55584 35.8921 5.52539 36.0154 5.64904 36.477C5.8299 37.1523 4.53157 37.1167 29.0103 37.1167C45.3065 37.1167 51.6864 37.0787 51.9023 36.9804C52.202 36.8437 52.4741 36.4066 52.4741 36.0616C52.4741 35.9604 52.3384 35.7421 52.1726 35.5763L51.8713 35.2749H29.0222H6.17308L5.87177 35.5763ZM5.82486 41.4921C5.68489 41.67 5.57033 41.9112 5.57033 42.0281C5.57033 42.1449 5.68489 42.3861 5.82486 42.564L6.07927 42.8875H29.0222H51.9651L52.2196 42.564C52.5406 42.1559 52.5406 41.9002 52.2196 41.4921L51.9651 41.1686H29.0222H6.07927L5.82486 41.4921Z"></path></mask><path fill-rule="evenodd" clip-rule="evenodd" d="M2.43245 0.695529C1.70642 1.03356 1.00323 1.80035 0.801496 2.47394C0.695533 2.82732 0.659312 8.59722 0.660171 24.9138L0.661399 46.8781L0.951539 47.492C1.30037 48.2298 1.75873 48.681 2.50071 49.0168C3.05091 49.266 3.16031 49.2669 29.0222 49.2684L54.9912 49.2699L55.6051 48.9798C56.3429 48.6309 56.7941 48.1726 57.13 47.4306C57.3786 46.8812 57.3801 46.7488 57.3801 24.8382C57.3801 2.92763 57.3786 2.79515 57.13 2.24581C56.7941 1.50382 56.3429 1.04547 55.6051 0.696634L54.9912 0.406494H29.0222H3.05324L2.43245 0.695529ZM54.8642 2.2975C55.594 2.6025 55.6665 2.9075 55.6665 5.67764V8.13947H29.0222H2.37793V5.67764C2.37793 2.92874 2.4516 2.6079 3.15331 2.30278C3.74747 2.04432 54.2459 2.03916 54.8642 2.2975ZM6.85957 4.08083C6.07498 4.40203 5.8574 5.47664 6.4701 6.00376C6.98285 6.4448 7.66479 6.40919 8.07649 5.9199C8.6025 5.2948 8.47173 4.50652 7.78291 4.1502C7.38546 3.94478 7.22215 3.9325 6.85957 4.08083ZM11.6338 4.15916C10.9075 4.51745 10.7629 5.36994 11.3318 5.93881C11.5975 6.20451 11.8072 6.2977 12.1393 6.2977C12.6925 6.2977 13.3058 5.7507 13.3058 5.25735C13.3058 4.74878 12.9816 4.24978 12.5544 4.10084C12.0712 3.93238 12.0968 3.93078 11.6338 4.15916ZM16.5566 4.1362C15.835 4.45053 15.675 5.37068 16.2431 5.93881C16.6804 6.37592 17.2926 6.41938 17.7663 6.04685C18.4339 5.52171 18.2571 4.37674 17.4658 4.10084C16.994 3.93643 17.0172 3.93545 16.5566 4.1362ZM28.7786 4.66553C28.4729 5.05426 28.5266 5.50587 28.9182 5.83726C29.156 6.03851 29.8903 6.05213 40.5026 6.05213C51.3308 6.05213 51.8453 6.04207 52.1126 5.82572C52.4578 5.54626 52.4854 4.93037 52.1686 4.58031C51.9475 4.33597 51.8134 4.33315 40.4925 4.33315H29.04L28.7786 4.66553ZM55.6665 28.2209C55.6665 48.4453 55.7263 47.0186 54.8642 47.3789C54.2365 47.6412 3.80788 47.6412 3.1802 47.3789C2.31813 47.0186 2.37793 48.4453 2.37793 28.2209V9.98125H29.0222H55.6665V28.2209ZM15.573 14.6423C15.4356 14.6973 15.2617 14.8176 15.1867 14.9096C15.0197 15.1143 12.4442 24.2982 12.4454 24.6847C12.4476 25.3831 13.5948 25.7518 13.9724 25.1756C14.1681 24.877 16.7437 15.7936 16.7437 15.4022C16.7437 14.8805 16.07 14.4431 15.573 14.6423ZM10.052 16.2439C9.57041 16.4554 5.87398 19.3982 5.69889 19.7096C5.55928 19.9576 5.55069 20.0929 5.6591 20.3309C5.80436 20.6498 9.6404 23.6527 10.1498 23.8465C10.5208 23.9875 10.9742 23.7777 11.1768 23.3713C11.434 22.8552 11.1386 22.4709 9.56083 21.2693C8.75045 20.6522 8.08742 20.1002 8.08742 20.0426C8.08742 19.985 8.75045 19.43 9.56083 18.8091C10.3712 18.1882 11.0749 17.6193 11.1245 17.545C11.3357 17.2284 11.2181 16.6292 10.8949 16.375C10.5434 16.0984 10.4251 16.0801 10.052 16.2439ZM18.5005 16.2445C18.3526 16.304 18.1369 16.4972 18.0213 16.6736C17.6894 17.1801 17.9743 17.5603 19.6292 18.82C20.4396 19.4369 21.1026 19.9882 21.1026 20.045C21.1026 20.102 20.4035 20.6814 19.5489 21.3328C17.8832 22.6025 17.6736 22.895 18.0346 23.4458C18.2824 23.8241 18.6855 23.9791 19.057 23.8391C19.551 23.653 23.3828 20.656 23.5244 20.3451C23.6221 20.1308 23.6221 19.9684 23.5244 19.754C23.3531 19.3781 19.0604 16.0776 18.8085 16.1282C18.7871 16.1325 18.6486 16.1848 18.5005 16.2445ZM6.17124 29.518C5.85752 29.6332 5.57033 30.072 5.57033 30.4363C5.57033 30.5375 5.70601 30.7558 5.87177 30.9216L6.17308 31.223H29.0222H51.8713L52.1726 30.9216C52.3384 30.7558 52.4741 30.5375 52.4741 30.4363C52.4741 30.0524 52.181 29.6343 51.8249 29.5102C51.3377 29.3403 6.63451 29.3481 6.17124 29.518ZM5.87177 35.5763C5.55584 35.8921 5.52539 36.0154 5.64904 36.477C5.8299 37.1523 4.53157 37.1167 29.0103 37.1167C45.3065 37.1167 51.6864 37.0787 51.9023 36.9804C52.202 36.8437 52.4741 36.4066 52.4741 36.0616C52.4741 35.9604 52.3384 35.7421 52.1726 35.5763L51.8713 35.2749H29.0222H6.17308L5.87177 35.5763ZM5.82486 41.4921C5.68489 41.67 5.57033 41.9112 5.57033 42.0281C5.57033 42.1449 5.68489 42.3861 5.82486 42.564L6.07927 42.8875H29.0222H51.9651L52.2196 42.564C52.5406 42.1559 52.5406 41.9002 52.2196 41.4921L51.9651 41.1686H29.0222H6.07927L5.82486 41.4921Z" fill="#1742E7" stroke="#1742E7" stroke-width="0.56" mask="url(#path-1-inside-1_2820_1047)"></path></svg>