<svg xmlns="http://www.w3.org/2000/svg" width="111" height="77" viewBox="0 0 111 77" fill="none"><mask id="path-1-inside-1_10989_30741" fill="white"><path d="M67.0954 48.1652H31.9776C31.6061 48.1652 31.3142 47.8732 31.3142 47.5017C31.3142 47.1303 31.6061 46.8383 31.9776 46.8383H67.0965C67.4679 46.8383 67.7599 47.1303 67.7599 47.5017C67.7595 47.8736 67.4669 48.1652 67.0954 48.1652Z"></path><path d="M41.3167 48.1652H34.1259C33.7544 48.1652 33.4625 47.8732 33.4625 47.5017V31.913C33.4625 30.9843 34.2188 30.2147 35.1608 30.2147H40.2952C41.2239 30.2147 41.9935 30.971 41.9935 31.913V47.5017C41.9802 47.8732 41.6882 48.1652 41.3167 48.1652ZM40.6533 46.8388V31.9132C40.6533 31.7141 40.4809 31.5417 40.2818 31.5417H35.1474C34.9483 31.5417 34.7759 31.7141 34.7759 31.9132V46.8388H40.6533Z"></path><path d="M53.1378 48.1652H45.947C45.5755 48.1652 45.2836 47.8732 45.2836 47.5017V25.5846C45.2836 24.6426 46.0532 23.8729 46.9952 23.8729H52.103C53.045 23.8729 53.8146 24.6425 53.8146 25.5846V47.5017C53.8013 47.8732 53.5093 48.1652 53.1378 48.1652ZM46.6103 46.8388H52.4744V25.5847C52.4744 25.3724 52.302 25.1999 52.0896 25.1999H46.9818C46.7694 25.1999 46.597 25.3724 46.597 25.5847L46.6103 46.8388Z"></path><path d="M64.9589 48.1652H57.7681C57.3966 48.1652 57.1047 47.8732 57.1047 47.5017V18.3936C57.1047 17.4516 57.8743 16.6953 58.8163 16.6953H63.9241C64.8661 16.6953 65.6357 17.4649 65.6357 18.3936V47.5017C65.6224 47.8732 65.3304 48.1652 64.9589 48.1652ZM58.4314 46.8388H64.2955V18.3938C64.2955 18.1814 64.1231 18.0223 63.9107 18.0223H58.8029C58.6038 18.0223 58.4181 18.1947 58.4181 18.3938L58.4314 46.8388Z"></path><path d="M37.7218 28.2651C36.4617 28.2651 35.4268 27.2302 35.4268 25.97C35.4268 24.7099 36.4617 23.675 37.7218 23.675C38.982 23.675 40.0168 24.7099 40.0168 25.97C40.0172 27.2302 38.9824 28.2651 37.7218 28.2651ZM37.7218 25.0014C37.1912 25.0014 36.7531 25.4391 36.7531 25.97C36.7531 26.5006 37.1908 26.9387 37.7218 26.9387C38.2524 26.9387 38.6905 26.501 38.6905 25.97C38.6905 25.439 38.2524 25.0014 37.7218 25.0014Z"></path><path d="M49.5429 21.9227C48.2827 21.9227 47.2479 20.8879 47.2479 19.6277C47.2479 18.3671 48.2827 17.3456 49.5429 17.3456C50.803 17.3456 51.8379 18.3805 51.8379 19.6406C51.8383 20.9012 50.8035 21.9227 49.5429 21.9227ZM49.5429 18.6724C49.0123 18.6724 48.5742 19.1101 48.5742 19.641C48.5742 20.1716 49.0119 20.6097 49.5429 20.6097C50.0735 20.6097 50.5116 20.172 50.5116 19.641C50.5116 19.1101 50.0739 18.6724 49.5429 18.6724Z"></path><path d="M61.364 14.732C60.1038 14.732 59.0689 13.6971 59.0689 12.437C59.0689 11.1768 60.1038 10.142 61.364 10.142C62.6241 10.142 63.659 11.1768 63.659 12.437C63.659 13.6971 62.6241 14.732 61.364 14.732ZM61.364 11.4683C60.8334 11.4683 60.3953 11.906 60.3953 12.437C60.3953 12.9675 60.833 13.4056 61.364 13.4056C61.8945 13.4056 62.3326 12.9679 62.3326 12.437C62.3322 11.906 61.8945 11.4683 61.364 11.4683Z"></path><path d="M39.1547 25.8631C38.916 25.8631 38.6903 25.7303 38.5708 25.5183C38.3984 25.1997 38.5179 24.7887 38.8361 24.6163L47.7914 19.8133C48.11 19.6409 48.5211 19.7604 48.6935 20.0786C48.8659 20.3972 48.7464 20.8082 48.4282 20.9806L39.4728 25.7836C39.367 25.8365 39.2609 25.8631 39.1547 25.8631ZM50.9363 19.4415C50.7106 19.4415 50.4986 19.3353 50.3658 19.1229C50.18 18.8043 50.2729 18.4066 50.5915 18.2075L59.6264 12.7016C59.945 12.5158 60.3427 12.6087 60.5417 12.9273C60.7275 13.2459 60.6346 13.6436 60.316 13.8427L51.2811 19.3486C51.1749 19.4152 51.0554 19.4415 50.9363 19.4415Z"></path><path d="M39.7645 22.2149H26.7493C26.3779 22.2149 26.0859 21.9229 26.0859 21.5514C26.0859 21.18 26.3779 20.888 26.7493 20.888H39.7645C40.136 20.888 40.4279 21.18 40.4279 21.5514C40.4279 21.9229 40.136 22.2149 39.7645 22.2149Z"></path><path d="M44.8328 18.4467H26.7493C26.3779 18.4467 26.0859 18.1547 26.0859 17.7833C26.0859 17.4118 26.3779 17.1199 26.7493 17.1199H44.8328C45.2043 17.1199 45.4962 17.4118 45.4962 17.7833C45.4962 18.1547 45.1909 18.4467 44.8328 18.4467Z"></path><path d="M51.1613 14.6787H26.7493C26.3779 14.6787 26.0859 14.3868 26.0859 14.0153C26.0859 13.6438 26.3779 13.3519 26.7493 13.3519H51.174C51.5455 13.3519 51.8375 13.6438 51.8375 14.0153C51.8241 14.3739 51.5327 14.6787 51.1613 14.6787Z"></path><path d="M69.5496 57.7708H29.5362C27.6388 57.7708 26.0868 56.2187 26.0868 54.3214V29.3786C26.0868 27.4679 27.6389 25.9292 29.5362 25.9292H36.2227C36.5942 25.9292 36.8862 26.2211 36.8862 26.5926C36.8862 26.9641 36.5942 27.256 36.2227 27.256H29.5362C28.3689 27.256 27.4135 28.2114 27.4135 29.3787V54.3076C27.4135 55.4749 28.3689 56.4302 29.5362 56.4302H69.5496C70.7169 56.4302 71.6722 55.4749 71.6722 54.3076V32.6559C71.6722 32.2844 71.9642 31.9925 72.3356 31.9925C72.7071 31.9925 72.9991 32.2844 72.9991 32.6559V54.3215C72.9991 56.2184 71.4469 57.7708 69.5496 57.7708ZM67.6922 27.2565H64.959C64.5875 27.2565 64.2956 26.9646 64.2956 26.5931C64.2956 26.2216 64.5875 25.9297 64.959 25.9297H67.6922C68.0637 25.9297 68.3556 26.2216 68.3556 26.5931C68.3556 26.9646 68.0637 27.2565 67.6922 27.2565ZM57.7682 27.2565H53.138C52.7666 27.2565 52.4746 26.9646 52.4746 26.5931C52.4746 26.2216 52.7666 25.9297 53.138 25.9297H57.7682C58.1397 25.9297 58.4316 26.2216 58.4316 26.5931C58.4316 26.9646 58.1397 27.2565 57.7682 27.2565ZM45.9471 27.2565H39.2339C38.8624 27.2565 38.5705 26.9646 38.5705 26.5931C38.5705 26.2216 38.8624 25.9297 39.2339 25.9297H45.9471C46.3186 25.9297 46.6105 26.2216 46.6105 26.5931C46.6105 26.9646 46.3052 27.2565 45.9471 27.2565Z"></path><path d="M72.3354 52.0128H26.7493C26.3779 52.0128 26.0859 51.7208 26.0859 51.3493C26.0859 50.9779 26.3779 50.6859 26.7493 50.6859H72.3482C72.7196 50.6859 73.0116 50.9779 73.0116 51.3493C73.0116 51.7208 72.7068 52.0128 72.3354 52.0128Z"></path><path d="M57.7157 66.142H41.3573C41.1186 66.142 40.8929 66.0091 40.7734 65.8105C40.6539 65.6114 40.6539 65.3461 40.7867 65.1471L45.8016 56.7756C45.9874 56.457 46.3988 56.3642 46.717 56.5499C47.0356 56.7356 47.1284 57.1471 46.9427 57.4652L42.5246 64.8285H56.5344L52.1163 57.4652C51.9306 57.1467 52.0368 56.7489 52.342 56.5499C52.6606 56.3642 53.0584 56.4703 53.2574 56.7756L58.2856 65.1471C58.4052 65.3461 58.4185 65.6114 58.299 65.8105C58.1799 66.0091 57.9544 66.142 57.7157 66.142Z"></path><path d="M53.1112 54.8913H45.9603C45.5888 54.8913 45.2969 54.5993 45.2969 54.2279C45.2969 53.8564 45.5888 53.5644 45.9603 53.5644L53.1112 53.5649C53.4827 53.5649 53.7746 53.8568 53.7746 54.2283C53.7746 54.5997 53.4827 54.8913 53.1112 54.8913Z"></path><path d="M75.8248 34.0882C72.7468 34.0882 69.7483 32.496 68.09 29.6305C65.6355 25.3719 67.0951 19.9189 71.3537 17.464C72.5876 16.7477 73.9274 16.3496 75.347 16.2834C75.5594 16.2701 75.7585 16.363 75.8909 16.5221C76.0238 16.6811 76.0767 16.9069 76.0104 17.1059L73.4896 26.4989L82.8826 29.0198C83.0817 29.0726 83.2541 29.2188 83.3336 29.4179C83.4132 29.6169 83.3865 29.8422 83.2674 30.0151C82.4978 31.209 81.4762 32.1644 80.2423 32.8807C78.8627 33.7036 77.3369 34.0882 75.8248 34.0882ZM74.498 17.7169C73.6355 17.8627 72.7997 18.1679 72.0301 18.619C68.4082 20.7154 67.161 25.3588 69.2574 28.9673C71.3538 32.5759 75.9972 33.8365 79.6057 31.74C80.3887 31.289 81.065 30.7318 81.6222 30.0551L72.534 27.6139C72.3616 27.5739 72.2154 27.4548 72.1358 27.3086C72.0563 27.1628 72.0297 26.9771 72.0696 26.8043L74.498 17.7169Z"></path><path d="M83.7726 27.9729C83.7197 27.9729 83.6531 27.9596 83.6002 27.9463L75.6398 25.8103C75.4673 25.7704 75.3212 25.6512 75.2416 25.5051C75.1621 25.3593 75.1354 25.1736 75.1754 25.0007L77.3114 17.0403C77.4042 16.6821 77.7757 16.4697 78.1205 16.5759C80.4156 17.186 82.3396 18.6723 83.5335 20.7283C84.7275 22.7848 85.0461 25.186 84.4222 27.4815C84.3822 27.654 84.2631 27.8001 84.117 27.8797C84.0112 27.9463 83.8917 27.9729 83.7726 27.9729ZM76.6214 24.7092L83.2684 26.4871C83.587 24.7359 83.2684 22.9447 82.3663 21.3793C81.4643 19.8139 80.0713 18.6595 78.3996 18.0494L76.6214 24.7092Z"></path></mask><path d="M67.0954 48.1652H31.9776C31.6061 48.1652 31.3142 47.8732 31.3142 47.5017C31.3142 47.1303 31.6061 46.8383 31.9776 46.8383H67.0965C67.4679 46.8383 67.7599 47.1303 67.7599 47.5017C67.7595 47.8736 67.4669 48.1652 67.0954 48.1652Z" fill="#1742E7"></path><path d="M41.3167 48.1652H34.1259C33.7544 48.1652 33.4625 47.8732 33.4625 47.5017V31.913C33.4625 30.9843 34.2188 30.2147 35.1608 30.2147H40.2952C41.2239 30.2147 41.9935 30.971 41.9935 31.913V47.5017C41.9802 47.8732 41.6882 48.1652 41.3167 48.1652ZM40.6533 46.8388V31.9132C40.6533 31.7141 40.4809 31.5417 40.2818 31.5417H35.1474C34.9483 31.5417 34.7759 31.7141 34.7759 31.9132V46.8388H40.6533Z" fill="#1742E7"></path><path d="M53.1378 48.1652H45.947C45.5755 48.1652 45.2836 47.8732 45.2836 47.5017V25.5846C45.2836 24.6426 46.0532 23.8729 46.9952 23.8729H52.103C53.045 23.8729 53.8146 24.6425 53.8146 25.5846V47.5017C53.8013 47.8732 53.5093 48.1652 53.1378 48.1652ZM46.6103 46.8388H52.4744V25.5847C52.4744 25.3724 52.302 25.1999 52.0896 25.1999H46.9818C46.7694 25.1999 46.597 25.3724 46.597 25.5847L46.6103 46.8388Z" fill="#1742E7"></path><path d="M64.9589 48.1652H57.7681C57.3966 48.1652 57.1047 47.8732 57.1047 47.5017V18.3936C57.1047 17.4516 57.8743 16.6953 58.8163 16.6953H63.9241C64.8661 16.6953 65.6357 17.4649 65.6357 18.3936V47.5017C65.6224 47.8732 65.3304 48.1652 64.9589 48.1652ZM58.4314 46.8388H64.2955V18.3938C64.2955 18.1814 64.1231 18.0223 63.9107 18.0223H58.8029C58.6038 18.0223 58.4181 18.1947 58.4181 18.3938L58.4314 46.8388Z" fill="#1742E7"></path><path d="M37.7218 28.2651C36.4617 28.2651 35.4268 27.2302 35.4268 25.97C35.4268 24.7099 36.4617 23.675 37.7218 23.675C38.982 23.675 40.0168 24.7099 40.0168 25.97C40.0172 27.2302 38.9824 28.2651 37.7218 28.2651ZM37.7218 25.0014C37.1912 25.0014 36.7531 25.4391 36.7531 25.97C36.7531 26.5006 37.1908 26.9387 37.7218 26.9387C38.2524 26.9387 38.6905 26.501 38.6905 25.97C38.6905 25.439 38.2524 25.0014 37.7218 25.0014Z" fill="#1742E7"></path><path d="M49.5429 21.9227C48.2827 21.9227 47.2479 20.8879 47.2479 19.6277C47.2479 18.3671 48.2827 17.3456 49.5429 17.3456C50.803 17.3456 51.8379 18.3805 51.8379 19.6406C51.8383 20.9012 50.8035 21.9227 49.5429 21.9227ZM49.5429 18.6724C49.0123 18.6724 48.5742 19.1101 48.5742 19.641C48.5742 20.1716 49.0119 20.6097 49.5429 20.6097C50.0735 20.6097 50.5116 20.172 50.5116 19.641C50.5116 19.1101 50.0739 18.6724 49.5429 18.6724Z" fill="#1742E7"></path><path d="M61.364 14.732C60.1038 14.732 59.0689 13.6971 59.0689 12.437C59.0689 11.1768 60.1038 10.142 61.364 10.142C62.6241 10.142 63.659 11.1768 63.659 12.437C63.659 13.6971 62.6241 14.732 61.364 14.732ZM61.364 11.4683C60.8334 11.4683 60.3953 11.906 60.3953 12.437C60.3953 12.9675 60.833 13.4056 61.364 13.4056C61.8945 13.4056 62.3326 12.9679 62.3326 12.437C62.3322 11.906 61.8945 11.4683 61.364 11.4683Z" fill="#1742E7"></path><path d="M39.1547 25.8631C38.916 25.8631 38.6903 25.7303 38.5708 25.5183C38.3984 25.1997 38.5179 24.7887 38.8361 24.6163L47.7914 19.8133C48.11 19.6409 48.5211 19.7604 48.6935 20.0786C48.8659 20.3972 48.7464 20.8082 48.4282 20.9806L39.4728 25.7836C39.367 25.8365 39.2609 25.8631 39.1547 25.8631ZM50.9363 19.4415C50.7106 19.4415 50.4986 19.3353 50.3658 19.1229C50.18 18.8043 50.2729 18.4066 50.5915 18.2075L59.6264 12.7016C59.945 12.5158 60.3427 12.6087 60.5417 12.9273C60.7275 13.2459 60.6346 13.6436 60.316 13.8427L51.2811 19.3486C51.1749 19.4152 51.0554 19.4415 50.9363 19.4415Z" fill="#1742E7"></path><path d="M39.7645 22.2149H26.7493C26.3779 22.2149 26.0859 21.9229 26.0859 21.5514C26.0859 21.18 26.3779 20.888 26.7493 20.888H39.7645C40.136 20.888 40.4279 21.18 40.4279 21.5514C40.4279 21.9229 40.136 22.2149 39.7645 22.2149Z" fill="#1742E7"></path><path d="M44.8328 18.4467H26.7493C26.3779 18.4467 26.0859 18.1547 26.0859 17.7833C26.0859 17.4118 26.3779 17.1199 26.7493 17.1199H44.8328C45.2043 17.1199 45.4962 17.4118 45.4962 17.7833C45.4962 18.1547 45.1909 18.4467 44.8328 18.4467Z" fill="#1742E7"></path><path d="M51.1613 14.6787H26.7493C26.3779 14.6787 26.0859 14.3868 26.0859 14.0153C26.0859 13.6438 26.3779 13.3519 26.7493 13.3519H51.174C51.5455 13.3519 51.8375 13.6438 51.8375 14.0153C51.8241 14.3739 51.5327 14.6787 51.1613 14.6787Z" fill="#1742E7"></path><path d="M69.5496 57.7708H29.5362C27.6388 57.7708 26.0868 56.2187 26.0868 54.3214V29.3786C26.0868 27.4679 27.6389 25.9292 29.5362 25.9292H36.2227C36.5942 25.9292 36.8862 26.2211 36.8862 26.5926C36.8862 26.9641 36.5942 27.256 36.2227 27.256H29.5362C28.3689 27.256 27.4135 28.2114 27.4135 29.3787V54.3076C27.4135 55.4749 28.3689 56.4302 29.5362 56.4302H69.5496C70.7169 56.4302 71.6722 55.4749 71.6722 54.3076V32.6559C71.6722 32.2844 71.9642 31.9925 72.3356 31.9925C72.7071 31.9925 72.9991 32.2844 72.9991 32.6559V54.3215C72.9991 56.2184 71.4469 57.7708 69.5496 57.7708ZM67.6922 27.2565H64.959C64.5875 27.2565 64.2956 26.9646 64.2956 26.5931C64.2956 26.2216 64.5875 25.9297 64.959 25.9297H67.6922C68.0637 25.9297 68.3556 26.2216 68.3556 26.5931C68.3556 26.9646 68.0637 27.2565 67.6922 27.2565ZM57.7682 27.2565H53.138C52.7666 27.2565 52.4746 26.9646 52.4746 26.5931C52.4746 26.2216 52.7666 25.9297 53.138 25.9297H57.7682C58.1397 25.9297 58.4316 26.2216 58.4316 26.5931C58.4316 26.9646 58.1397 27.2565 57.7682 27.2565ZM45.9471 27.2565H39.2339C38.8624 27.2565 38.5705 26.9646 38.5705 26.5931C38.5705 26.2216 38.8624 25.9297 39.2339 25.9297H45.9471C46.3186 25.9297 46.6105 26.2216 46.6105 26.5931C46.6105 26.9646 46.3052 27.2565 45.9471 27.2565Z" fill="#1742E7"></path><path d="M72.3354 52.0128H26.7493C26.3779 52.0128 26.0859 51.7208 26.0859 51.3493C26.0859 50.9779 26.3779 50.6859 26.7493 50.6859H72.3482C72.7196 50.6859 73.0116 50.9779 73.0116 51.3493C73.0116 51.7208 72.7068 52.0128 72.3354 52.0128Z" fill="#1742E7"></path><path d="M57.7157 66.142H41.3573C41.1186 66.142 40.8929 66.0091 40.7734 65.8105C40.6539 65.6114 40.6539 65.3461 40.7867 65.1471L45.8016 56.7756C45.9874 56.457 46.3988 56.3642 46.717 56.5499C47.0356 56.7356 47.1284 57.1471 46.9427 57.4652L42.5246 64.8285H56.5344L52.1163 57.4652C51.9306 57.1467 52.0368 56.7489 52.342 56.5499C52.6606 56.3642 53.0584 56.4703 53.2574 56.7756L58.2856 65.1471C58.4052 65.3461 58.4185 65.6114 58.299 65.8105C58.1799 66.0091 57.9544 66.142 57.7157 66.142Z" fill="#1742E7"></path><path d="M53.1112 54.8913H45.9603C45.5888 54.8913 45.2969 54.5993 45.2969 54.2279C45.2969 53.8564 45.5888 53.5644 45.9603 53.5644L53.1112 53.5649C53.4827 53.5649 53.7746 53.8568 53.7746 54.2283C53.7746 54.5997 53.4827 54.8913 53.1112 54.8913Z" fill="#1742E7"></path><path d="M75.8248 34.0882C72.7468 34.0882 69.7483 32.496 68.09 29.6305C65.6355 25.3719 67.0951 19.9189 71.3537 17.464C72.5876 16.7477 73.9274 16.3496 75.347 16.2834C75.5594 16.2701 75.7585 16.363 75.8909 16.5221C76.0238 16.6811 76.0767 16.9069 76.0104 17.1059L73.4896 26.4989L82.8826 29.0198C83.0817 29.0726 83.2541 29.2188 83.3336 29.4179C83.4132 29.6169 83.3865 29.8422 83.2674 30.0151C82.4978 31.209 81.4762 32.1644 80.2423 32.8807C78.8627 33.7036 77.3369 34.0882 75.8248 34.0882ZM74.498 17.7169C73.6355 17.8627 72.7997 18.1679 72.0301 18.619C68.4082 20.7154 67.161 25.3588 69.2574 28.9673C71.3538 32.5759 75.9972 33.8365 79.6057 31.74C80.3887 31.289 81.065 30.7318 81.6222 30.0551L72.534 27.6139C72.3616 27.5739 72.2154 27.4548 72.1358 27.3086C72.0563 27.1628 72.0297 26.9771 72.0696 26.8043L74.498 17.7169Z" fill="#1742E7"></path><path d="M83.7726 27.9729C83.7197 27.9729 83.6531 27.9596 83.6002 27.9463L75.6398 25.8103C75.4673 25.7704 75.3212 25.6512 75.2416 25.5051C75.1621 25.3593 75.1354 25.1736 75.1754 25.0007L77.3114 17.0403C77.4042 16.6821 77.7757 16.4697 78.1205 16.5759C80.4156 17.186 82.3396 18.6723 83.5335 20.7283C84.7275 22.7848 85.0461 25.186 84.4222 27.4815C84.3822 27.654 84.2631 27.8001 84.117 27.8797C84.0112 27.9463 83.8917 27.9729 83.7726 27.9729ZM76.6214 24.7092L83.2684 26.4871C83.587 24.7359 83.2684 22.9447 82.3663 21.3793C81.4643 19.8139 80.0713 18.6595 78.3996 18.0494L76.6214 24.7092Z" fill="#1742E7"></path><path d="M67.0954 48.1652H31.9776C31.6061 48.1652 31.3142 47.8732 31.3142 47.5017C31.3142 47.1303 31.6061 46.8383 31.9776 46.8383H67.0965C67.4679 46.8383 67.7599 47.1303 67.7599 47.5017C67.7595 47.8736 67.4669 48.1652 67.0954 48.1652Z" stroke="#1742E7" stroke-width="0.586485" mask="url(#path-1-inside-1_10989_30741)"></path><path d="M41.3167 48.1652H34.1259C33.7544 48.1652 33.4625 47.8732 33.4625 47.5017V31.913C33.4625 30.9843 34.2188 30.2147 35.1608 30.2147H40.2952C41.2239 30.2147 41.9935 30.971 41.9935 31.913V47.5017C41.9802 47.8732 41.6882 48.1652 41.3167 48.1652ZM40.6533 46.8388V31.9132C40.6533 31.7141 40.4809 31.5417 40.2818 31.5417H35.1474C34.9483 31.5417 34.7759 31.7141 34.7759 31.9132V46.8388H40.6533Z" stroke="#1742E7" stroke-width="0.586485" mask="url(#path-1-inside-1_10989_30741)"></path><path d="M53.1378 48.1652H45.947C45.5755 48.1652 45.2836 47.8732 45.2836 47.5017V25.5846C45.2836 24.6426 46.0532 23.8729 46.9952 23.8729H52.103C53.045 23.8729 53.8146 24.6425 53.8146 25.5846V47.5017C53.8013 47.8732 53.5093 48.1652 53.1378 48.1652ZM46.6103 46.8388H52.4744V25.5847C52.4744 25.3724 52.302 25.1999 52.0896 25.1999H46.9818C46.7694 25.1999 46.597 25.3724 46.597 25.5847L46.6103 46.8388Z" stroke="#1742E7" stroke-width="0.586485" mask="url(#path-1-inside-1_10989_30741)"></path><path d="M64.9589 48.1652H57.7681C57.3966 48.1652 57.1047 47.8732 57.1047 47.5017V18.3936C57.1047 17.4516 57.8743 16.6953 58.8163 16.6953H63.9241C64.8661 16.6953 65.6357 17.4649 65.6357 18.3936V47.5017C65.6224 47.8732 65.3304 48.1652 64.9589 48.1652ZM58.4314 46.8388H64.2955V18.3938C64.2955 18.1814 64.1231 18.0223 63.9107 18.0223H58.8029C58.6038 18.0223 58.4181 18.1947 58.4181 18.3938L58.4314 46.8388Z" stroke="#1742E7" stroke-width="0.586485" mask="url(#path-1-inside-1_10989_30741)"></path><path d="M37.7218 28.2651C36.4617 28.2651 35.4268 27.2302 35.4268 25.97C35.4268 24.7099 36.4617 23.675 37.7218 23.675C38.982 23.675 40.0168 24.7099 40.0168 25.97C40.0172 27.2302 38.9824 28.2651 37.7218 28.2651ZM37.7218 25.0014C37.1912 25.0014 36.7531 25.4391 36.7531 25.97C36.7531 26.5006 37.1908 26.9387 37.7218 26.9387C38.2524 26.9387 38.6905 26.501 38.6905 25.97C38.6905 25.439 38.2524 25.0014 37.7218 25.0014Z" stroke="#1742E7" stroke-width="0.586485" mask="url(#path-1-inside-1_10989_30741)"></path><path d="M49.5429 21.9227C48.2827 21.9227 47.2479 20.8879 47.2479 19.6277C47.2479 18.3671 48.2827 17.3456 49.5429 17.3456C50.803 17.3456 51.8379 18.3805 51.8379 19.6406C51.8383 20.9012 50.8035 21.9227 49.5429 21.9227ZM49.5429 18.6724C49.0123 18.6724 48.5742 19.1101 48.5742 19.641C48.5742 20.1716 49.0119 20.6097 49.5429 20.6097C50.0735 20.6097 50.5116 20.172 50.5116 19.641C50.5116 19.1101 50.0739 18.6724 49.5429 18.6724Z" stroke="#1742E7" stroke-width="0.586485" mask="url(#path-1-inside-1_10989_30741)"></path><path d="M61.364 14.732C60.1038 14.732 59.0689 13.6971 59.0689 12.437C59.0689 11.1768 60.1038 10.142 61.364 10.142C62.6241 10.142 63.659 11.1768 63.659 12.437C63.659 13.6971 62.6241 14.732 61.364 14.732ZM61.364 11.4683C60.8334 11.4683 60.3953 11.906 60.3953 12.437C60.3953 12.9675 60.833 13.4056 61.364 13.4056C61.8945 13.4056 62.3326 12.9679 62.3326 12.437C62.3322 11.906 61.8945 11.4683 61.364 11.4683Z" stroke="#1742E7" stroke-width="0.586485" mask="url(#path-1-inside-1_10989_30741)"></path><path d="M39.1547 25.8631C38.916 25.8631 38.6903 25.7303 38.5708 25.5183C38.3984 25.1997 38.5179 24.7887 38.8361 24.6163L47.7914 19.8133C48.11 19.6409 48.5211 19.7604 48.6935 20.0786C48.8659 20.3972 48.7464 20.8082 48.4282 20.9806L39.4728 25.7836C39.367 25.8365 39.2609 25.8631 39.1547 25.8631ZM50.9363 19.4415C50.7106 19.4415 50.4986 19.3353 50.3658 19.1229C50.18 18.8043 50.2729 18.4066 50.5915 18.2075L59.6264 12.7016C59.945 12.5158 60.3427 12.6087 60.5417 12.9273C60.7275 13.2459 60.6346 13.6436 60.316 13.8427L51.2811 19.3486C51.1749 19.4152 51.0554 19.4415 50.9363 19.4415Z" stroke="#1742E7" stroke-width="0.586485" mask="url(#path-1-inside-1_10989_30741)"></path><path d="M39.7645 22.2149H26.7493C26.3779 22.2149 26.0859 21.9229 26.0859 21.5514C26.0859 21.18 26.3779 20.888 26.7493 20.888H39.7645C40.136 20.888 40.4279 21.18 40.4279 21.5514C40.4279 21.9229 40.136 22.2149 39.7645 22.2149Z" stroke="#1742E7" stroke-width="0.586485" mask="url(#path-1-inside-1_10989_30741)"></path><path d="M44.8328 18.4467H26.7493C26.3779 18.4467 26.0859 18.1547 26.0859 17.7833C26.0859 17.4118 26.3779 17.1199 26.7493 17.1199H44.8328C45.2043 17.1199 45.4962 17.4118 45.4962 17.7833C45.4962 18.1547 45.1909 18.4467 44.8328 18.4467Z" stroke="#1742E7" stroke-width="0.586485" mask="url(#path-1-inside-1_10989_30741)"></path><path d="M51.1613 14.6787H26.7493C26.3779 14.6787 26.0859 14.3868 26.0859 14.0153C26.0859 13.6438 26.3779 13.3519 26.7493 13.3519H51.174C51.5455 13.3519 51.8375 13.6438 51.8375 14.0153C51.8241 14.3739 51.5327 14.6787 51.1613 14.6787Z" stroke="#1742E7" stroke-width="0.586485" mask="url(#path-1-inside-1_10989_30741)"></path><path d="M69.5496 57.7708H29.5362C27.6388 57.7708 26.0868 56.2187 26.0868 54.3214V29.3786C26.0868 27.4679 27.6389 25.9292 29.5362 25.9292H36.2227C36.5942 25.9292 36.8862 26.2211 36.8862 26.5926C36.8862 26.9641 36.5942 27.256 36.2227 27.256H29.5362C28.3689 27.256 27.4135 28.2114 27.4135 29.3787V54.3076C27.4135 55.4749 28.3689 56.4302 29.5362 56.4302H69.5496C70.7169 56.4302 71.6722 55.4749 71.6722 54.3076V32.6559C71.6722 32.2844 71.9642 31.9925 72.3356 31.9925C72.7071 31.9925 72.9991 32.2844 72.9991 32.6559V54.3215C72.9991 56.2184 71.4469 57.7708 69.5496 57.7708ZM67.6922 27.2565H64.959C64.5875 27.2565 64.2956 26.9646 64.2956 26.5931C64.2956 26.2216 64.5875 25.9297 64.959 25.9297H67.6922C68.0637 25.9297 68.3556 26.2216 68.3556 26.5931C68.3556 26.9646 68.0637 27.2565 67.6922 27.2565ZM57.7682 27.2565H53.138C52.7666 27.2565 52.4746 26.9646 52.4746 26.5931C52.4746 26.2216 52.7666 25.9297 53.138 25.9297H57.7682C58.1397 25.9297 58.4316 26.2216 58.4316 26.5931C58.4316 26.9646 58.1397 27.2565 57.7682 27.2565ZM45.9471 27.2565H39.2339C38.8624 27.2565 38.5705 26.9646 38.5705 26.5931C38.5705 26.2216 38.8624 25.9297 39.2339 25.9297H45.9471C46.3186 25.9297 46.6105 26.2216 46.6105 26.5931C46.6105 26.9646 46.3052 27.2565 45.9471 27.2565Z" stroke="#1742E7" stroke-width="0.586485" mask="url(#path-1-inside-1_10989_30741)"></path><path d="M72.3354 52.0128H26.7493C26.3779 52.0128 26.0859 51.7208 26.0859 51.3493C26.0859 50.9779 26.3779 50.6859 26.7493 50.6859H72.3482C72.7196 50.6859 73.0116 50.9779 73.0116 51.3493C73.0116 51.7208 72.7068 52.0128 72.3354 52.0128Z" stroke="#1742E7" stroke-width="0.586485" mask="url(#path-1-inside-1_10989_30741)"></path><path d="M57.7157 66.142H41.3573C41.1186 66.142 40.8929 66.0091 40.7734 65.8105C40.6539 65.6114 40.6539 65.3461 40.7867 65.1471L45.8016 56.7756C45.9874 56.457 46.3988 56.3642 46.717 56.5499C47.0356 56.7356 47.1284 57.1471 46.9427 57.4652L42.5246 64.8285H56.5344L52.1163 57.4652C51.9306 57.1467 52.0368 56.7489 52.342 56.5499C52.6606 56.3642 53.0584 56.4703 53.2574 56.7756L58.2856 65.1471C58.4052 65.3461 58.4185 65.6114 58.299 65.8105C58.1799 66.0091 57.9544 66.142 57.7157 66.142Z" stroke="#1742E7" stroke-width="0.586485" mask="url(#path-1-inside-1_10989_30741)"></path><path d="M53.1112 54.8913H45.9603C45.5888 54.8913 45.2969 54.5993 45.2969 54.2279C45.2969 53.8564 45.5888 53.5644 45.9603 53.5644L53.1112 53.5649C53.4827 53.5649 53.7746 53.8568 53.7746 54.2283C53.7746 54.5997 53.4827 54.8913 53.1112 54.8913Z" stroke="#1742E7" stroke-width="0.586485" mask="url(#path-1-inside-1_10989_30741)"></path><path d="M75.8248 34.0882C72.7468 34.0882 69.7483 32.496 68.09 29.6305C65.6355 25.3719 67.0951 19.9189 71.3537 17.464C72.5876 16.7477 73.9274 16.3496 75.347 16.2834C75.5594 16.2701 75.7585 16.363 75.8909 16.5221C76.0238 16.6811 76.0767 16.9069 76.0104 17.1059L73.4896 26.4989L82.8826 29.0198C83.0817 29.0726 83.2541 29.2188 83.3336 29.4179C83.4132 29.6169 83.3865 29.8422 83.2674 30.0151C82.4978 31.209 81.4762 32.1644 80.2423 32.8807C78.8627 33.7036 77.3369 34.0882 75.8248 34.0882ZM74.498 17.7169C73.6355 17.8627 72.7997 18.1679 72.0301 18.619C68.4082 20.7154 67.161 25.3588 69.2574 28.9673C71.3538 32.5759 75.9972 33.8365 79.6057 31.74C80.3887 31.289 81.065 30.7318 81.6222 30.0551L72.534 27.6139C72.3616 27.5739 72.2154 27.4548 72.1358 27.3086C72.0563 27.1628 72.0297 26.9771 72.0696 26.8043L74.498 17.7169Z" stroke="#1742E7" stroke-width="0.586485" mask="url(#path-1-inside-1_10989_30741)"></path><path d="M83.7726 27.9729C83.7197 27.9729 83.6531 27.9596 83.6002 27.9463L75.6398 25.8103C75.4673 25.7704 75.3212 25.6512 75.2416 25.5051C75.1621 25.3593 75.1354 25.1736 75.1754 25.0007L77.3114 17.0403C77.4042 16.6821 77.7757 16.4697 78.1205 16.5759C80.4156 17.186 82.3396 18.6723 83.5335 20.7283C84.7275 22.7848 85.0461 25.186 84.4222 27.4815C84.3822 27.654 84.2631 27.8001 84.117 27.8797C84.0112 27.9463 83.8917 27.9729 83.7726 27.9729ZM76.6214 24.7092L83.2684 26.4871C83.587 24.7359 83.2684 22.9447 82.3663 21.3793C81.4643 19.8139 80.0713 18.6595 78.3996 18.0494L76.6214 24.7092Z" stroke="#1742E7" stroke-width="0.586485" mask="url(#path-1-inside-1_10989_30741)"></path></svg>