<svg xmlns="http://www.w3.org/2000/svg" width="111" height="77" viewBox="0 0 111 77" fill="none"><path d="M81.3142 58.3338L72.5519 49.5707V40.3036C72.582 39.9156 72.5964 39.5236 72.5964 39.128C72.5964 38.7323 72.5812 38.3403 72.5519 37.9523V16.7957C72.5519 16.3527 72.1928 15.994 71.7502 15.994H67.7007L67.7003 11.9437C67.7003 11.5007 67.3412 11.142 66.8986 11.142H38.3953C38.1826 11.142 37.9784 11.2266 37.8283 11.3767L28.7523 20.4527C28.6023 20.6028 28.5176 20.8074 28.5176 21.0197V59.489C28.5176 59.932 28.8767 60.2907 29.3193 60.2907H33.3688V64.3403C33.3688 64.7832 33.7279 65.142 34.1705 65.142H71.7493C72.1923 65.142 72.551 64.7828 72.551 64.3403V59.1456L76.5258 63.1204C77.1863 63.7809 78.0526 64.1107 78.9198 64.1107C79.7869 64.1107 80.6536 63.7809 81.3137 63.1204C81.9513 62.4828 82.302 61.633 82.302 60.7265C82.3024 59.8205 81.9521 58.9706 81.3145 58.333L81.3142 58.3338ZM66.7842 51.1112C67.7179 50.3717 68.5645 49.5258 69.3036 48.5918L77.7087 56.9969L75.1893 59.5163L66.7842 51.1112ZM43.6491 39.1287C43.6491 31.5919 49.7804 25.4595 57.3163 25.4574H57.3243C64.4892 25.4598 70.3823 31.0016 70.9473 38.0244V40.2346C70.3831 47.2578 64.4874 52.8006 57.3212 52.8006C49.7832 52.8006 43.65 46.6669 43.65 39.1293L43.6491 39.1287ZM70.9475 47.9668L70.2441 47.2634C70.4969 46.8629 70.732 46.4504 70.9475 46.0267V47.9668ZM70.9475 17.5981V32.2298C70.1241 30.6099 69.0198 29.1557 67.6997 27.9311V17.5983L70.9475 17.5981ZM37.5926 13.8805V20.2179L31.2556 20.2183L37.5926 13.8805ZM30.1213 21.8218H38.3948C38.8378 21.8218 39.1965 21.4627 39.1965 21.0201V12.7466H66.0953V26.6325C64.7342 25.6739 63.2098 24.9315 61.5732 24.4564C61.4845 24.1102 61.1711 23.8538 60.7971 23.8538H35.4193C34.9764 23.8538 34.6176 24.2129 34.6176 24.6555C34.6176 25.0981 34.9768 25.4572 35.4193 25.4572H50.5123C48.5292 26.4487 46.7914 27.8587 45.4143 29.5713L35.4193 29.5717C34.9764 29.5717 34.6176 29.9308 34.6176 30.3734C34.6176 30.8164 34.9768 31.1751 35.4193 31.1751H44.2839C43.5107 32.4379 42.9157 33.8206 42.5341 35.2892L35.4193 35.2896C34.9764 35.2896 34.6176 35.6488 34.6176 36.0914C34.6176 36.5339 34.9768 36.8931 35.4193 36.8931H42.2091C42.1015 37.6226 42.0453 38.3693 42.0453 39.1285C42.0453 39.7641 42.0851 40.3913 42.1609 41.0068H35.4194C34.9764 41.0068 34.6177 41.3659 34.6177 41.8085C34.6177 42.2511 34.9768 42.6102 35.4194 42.6102H42.4462C42.7884 44.0728 43.3414 45.4559 44.0716 46.7243H35.4194C34.9764 46.7243 34.6177 47.0834 34.6177 47.526C34.6177 47.969 34.9768 48.3277 35.4194 48.3277H45.135C46.401 50.0006 48.0036 51.4054 49.8402 52.4419L35.4191 52.4423C34.9761 52.4423 34.6173 52.8014 34.6173 53.244C34.6173 53.687 34.9765 54.0457 35.4191 54.0457H53.9501C53.973 54.0457 53.9958 54.0441 54.0183 54.0421C55.082 54.2776 56.1871 54.4024 57.3206 54.4024C60.3088 54.4024 63.0987 53.5389 65.4557 52.0503L66.0957 52.6903V58.6871L30.1204 58.6875L30.1213 21.8218ZM70.9481 63.5392H34.9739V60.2915H66.8988C67.3418 60.2915 67.7005 59.9323 67.7005 59.4898V54.2951L70.9483 57.5429L70.9481 63.5392ZM80.1806 61.9872C79.4857 62.6822 78.3557 62.6818 77.6612 61.9872L76.3242 60.6502L78.8436 58.1307L80.1806 59.4677C80.5153 59.8024 80.6995 60.2498 80.6995 60.7273C80.6995 61.2056 80.5153 61.6526 80.1806 61.9873V61.9872ZM69.3743 39.1285C69.3743 32.4821 63.9669 27.0751 57.3209 27.0751C50.6753 27.0751 45.2675 32.4825 45.2675 39.1285C45.2675 45.7745 50.6749 51.1819 57.3209 51.1819C63.9669 51.1819 69.3743 45.7749 69.3743 39.1285ZM46.872 39.1285C46.872 33.3668 51.5595 28.6786 57.3219 28.6786C63.0836 28.6786 67.7718 33.3661 67.7718 39.1285C67.7718 44.8909 63.0835 49.5774 57.3219 49.5774C51.5599 49.5774 46.8731 44.8899 46.8731 39.1285H46.872ZM65.8941 39.1285C65.8941 34.4016 62.0481 30.5556 57.3212 30.5556C52.594 30.5556 48.7484 34.4009 48.7484 39.1285C48.7484 43.8561 52.5944 47.7014 57.3212 47.7014C62.0481 47.7014 65.8941 43.8557 65.8941 39.1285ZM57.3212 46.0971C53.4788 46.0971 50.3526 42.9709 50.3526 39.1285C50.3526 35.2861 53.4788 32.1598 57.3212 32.1598C61.1636 32.1598 64.2899 35.2861 64.2899 39.1285C64.2899 42.9709 61.1632 46.0971 57.3212 46.0971ZM62.6604 36.4409C62.6199 35.9233 62.3803 35.4526 61.9859 35.1143C61.1713 34.4177 59.9419 34.5132 59.2453 35.327L56.3402 38.7164L55.3663 37.6318C54.6489 36.8345 53.4163 36.7695 52.6193 37.4873C52.2329 37.8348 52.0054 38.3119 51.9777 38.8307C51.9508 39.3495 52.127 39.8479 52.4745 40.2343L54.9274 42.9661C55.2973 43.377 55.8202 43.6093 56.3715 43.6093C56.3956 43.6093 56.4201 43.6089 56.4442 43.6081C57.016 43.5868 57.5448 43.3192 57.8987 42.8726L62.199 37.8557C62.5364 37.4608 62.7001 36.9585 62.6604 36.4409ZM60.9811 36.8124L56.6695 41.8422C56.6607 41.8523 56.6527 41.8627 56.6443 41.8735C56.5592 41.9835 56.4452 42.0031 56.3847 42.0055C56.3261 42.0079 56.2113 41.9963 56.1198 41.8948L53.6669 39.163L53.6665 39.1626C53.5843 39.0711 53.5767 38.9688 53.5795 38.9166C53.5823 38.8637 53.6007 38.763 53.6922 38.6807C53.7572 38.6221 53.8391 38.5932 53.9205 38.5932C54.014 38.5932 54.1067 38.6313 54.1733 38.7052L55.7575 40.4695C55.912 40.6417 56.1371 40.7384 56.3634 40.7355C56.5941 40.7327 56.8132 40.6312 56.9633 40.4555L60.4638 36.3719C60.5854 36.2294 60.8009 36.213 60.9433 36.3341C61.0368 36.414 61.0573 36.5139 61.0613 36.5661C61.0649 36.6178 61.0601 36.7198 60.9811 36.8124Z" fill="#1742E7"></path></svg>