<svg xmlns="http://www.w3.org/2000/svg" width="111" height="77" viewBox="0 0 111 77" fill="none"><path d="M61.3146 34.5669C60.3664 34.5669 60.3664 33.1146 61.3146 33.1146H71.2647C72.2249 33.1146 72.2249 34.5669 71.2647 34.5669H61.3146ZM61.3146 30.4981C60.3664 30.4981 60.3664 29.0458 61.3146 29.0458H63.8831C64.8313 29.0458 64.8313 30.4981 63.8831 30.4981H61.3146ZM66.8237 30.4981C65.8635 30.4981 65.8635 29.0458 66.8237 29.0458H71.2647C72.2249 29.0458 72.2249 30.4981 71.2647 30.4981H66.8237ZM61.3146 26.4293C60.3664 26.4293 60.3664 24.977 61.3146 24.977H71.2647C72.2249 24.977 72.2249 26.4293 71.2647 26.4293H61.3146ZM34.7171 16.5513H39.218C39.6261 16.5513 39.9501 16.8753 39.9501 17.2834V19.936H42.7707V14.7269C42.7707 14.3188 43.0948 13.9948 43.5029 13.9948H48.0038C48.4119 13.9948 48.736 14.3188 48.736 14.7269V19.924H51.5566V10.8741C51.5566 10.466 51.8806 10.142 52.2887 10.142H56.7897C57.1977 10.142 57.5218 10.466 57.5218 10.8741V19.924H74.4933C75.9456 19.924 77.1219 21.1122 77.1219 22.5525V41.3243C84.1914 47.8416 82.9671 59.388 74.5894 64.225C71.3967 66.0733 67.5679 66.6615 63.7391 65.6532C61.9507 65.1731 60.3424 64.381 58.9501 63.3488H40.4903C40.0822 63.3488 39.7581 63.0247 39.7581 62.6166V59.2199C39.7581 57.9237 41.0784 57.0955 42.3867 57.0955H48.604V52.4026H31.7164C30.2641 52.4026 29.0879 51.2263 29.0879 49.774V22.5645C29.0879 21.1122 30.2641 19.936 31.7164 19.936H33.9849V17.2834C33.9849 16.8753 34.309 16.5513 34.7171 16.5513ZM39.9381 21.3883V28.3617C39.9381 28.7698 39.6141 29.0938 39.206 29.0938H34.7171C34.309 29.0938 33.9849 28.7698 33.9849 28.3617V21.3883H31.7164C31.0683 21.3883 30.5402 21.9164 30.5402 22.5645V46.7494H54.0411C57.3538 38.0716 68.012 34.819 75.6216 40.1601V22.5645C75.6216 21.9164 75.0935 21.3883 74.4453 21.3883H57.4738V28.3617C57.4738 28.7698 57.1497 29.0938 56.7416 29.0938H52.2407C51.8326 29.0938 51.5086 28.7698 51.5086 28.3617V21.3883H48.688V28.3617C48.688 28.7698 48.3639 29.0938 47.9558 29.0938H43.4549C43.0468 29.0938 42.7227 28.7698 42.7227 28.3617V21.3883H39.9381ZM38.4858 18.0036H35.4492V27.6295H38.4858V18.0036ZM56.0215 11.6063H52.9849V27.6295H56.0215V11.6063ZM47.2477 15.459H44.211V27.6295H47.2477V15.459ZM56.6456 44.817L59.5742 46.5094C60.3784 45.3331 61.4466 44.3489 62.6589 43.6528C64.7113 42.4285 67.3639 42.0324 69.8604 42.7046C72.1288 43.3167 73.9892 44.709 75.2255 46.5094L78.1541 44.829C74.4573 39.1759 66.9318 37.3035 60.9785 40.7362C59.2502 41.7324 57.7619 43.1127 56.6456 44.817ZM58.8421 47.7576L55.9135 46.0773C55.0613 47.7696 54.5332 49.81 54.5332 51.6944C54.5332 54.2149 55.0733 56.1593 56.2495 58.2838C57.8219 61.1403 60.8225 63.4448 64.0152 64.261C65.0354 64.513 65.6235 64.633 66.6437 64.6931V61.3204C60.0303 60.8043 55.9615 53.7708 58.8421 47.7576ZM78.8622 46.0773L75.9336 47.7696C78.0821 52.2345 76.4137 57.5996 72.1288 60.0721C70.9526 60.7683 69.5003 61.2123 68.12 61.3204V64.6931C70.2445 64.573 72.0448 63.9849 73.8572 62.9767C76.6778 61.3324 78.8742 58.6198 79.7984 55.2231C79.7984 55.1991 79.8104 55.1751 79.8104 55.1511C80.6506 51.9945 80.2305 48.7898 78.8622 46.0773ZM66.4517 55.3672C69.5123 56.1833 72.1889 52.9427 70.5205 50.0021C69.5723 48.3337 67.3639 47.6976 65.5395 48.7298C63.8711 49.678 63.235 51.9225 64.2432 53.6748C64.7113 54.491 65.4795 55.1151 66.4517 55.3672ZM69.9324 56.2673C67.4959 57.6716 64.3872 56.8315 62.9829 54.407C61.5786 52.0425 62.3948 48.8738 64.8433 47.4576C67.2798 46.0533 70.3885 46.8814 71.7928 49.3179C73.1971 51.7424 72.3689 54.8631 69.9324 56.2673ZM65.3114 59.616C67.4479 60.1921 69.6203 59.8441 71.3967 58.8119C75.2375 56.5914 76.5578 51.6824 74.3373 47.8416C72.1168 44.0009 67.2078 42.6806 63.367 44.901C61.5907 45.9212 60.1984 47.6376 59.6342 49.774C58.494 54.0709 61.0265 58.4638 65.3114 59.616ZM57.2217 61.9085C56.2375 60.9243 55.4214 59.7841 54.7732 58.5718H42.4107C41.9066 58.5718 41.2344 58.8359 41.2344 59.2439V61.9085H57.2217ZM54.0891 57.1195C53.501 55.6432 53.1649 54.0469 53.1049 52.4266H50.0803V57.1195H54.0891ZM53.1169 50.9623C53.1769 50.0501 53.3209 49.1259 53.573 48.2017H30.5402V49.786C30.5402 50.4342 31.0683 50.9623 31.7164 50.9623H53.1169ZM35.8693 40.4361L40.0702 36.3793C39.374 35.023 40.3582 33.5107 41.7865 33.5107C42.3146 33.5107 42.8307 33.7268 43.1668 34.0868C43.7909 34.711 43.923 35.6832 43.4669 36.4513L45.5073 38.8638C46.0714 38.6478 46.7076 38.7198 47.2117 39.0318L53.537 33.9788C52.9489 32.0344 55.3734 30.6181 56.7777 32.0344C58.326 33.6067 56.5016 36.0912 54.5572 35.1671C54.5212 35.143 54.4852 35.131 54.4492 35.107L48.0878 40.1961C48.5919 42.1165 46.2035 43.4607 44.8232 42.0685C44.235 41.4683 44.079 40.6042 44.4511 39.848L42.3266 37.3395C41.9546 37.4475 41.5705 37.4355 41.2104 37.3155L36.9015 41.4563C37.4536 42.7406 36.5054 44.1689 35.1131 44.1689C34.585 44.1689 34.0809 43.9528 33.7329 43.5928C32.2085 42.0805 33.9369 39.596 35.8693 40.4361ZM42.0746 35.8512C42.3266 35.6712 42.3506 35.3111 42.1346 35.107C41.6425 34.6149 40.9344 35.4311 41.4865 35.8512C41.6665 35.9832 41.9066 35.9832 42.0746 35.8512ZM45.8554 40.3041C45.3513 40.7842 46.0714 41.4803 46.5275 41.0242C46.9836 40.5802 46.3355 39.896 45.8554 40.3041ZM35.4612 41.8644C35.0051 41.4083 34.297 42.1045 34.7651 42.5606C35.2212 43.0287 35.9173 42.3325 35.4612 41.8644ZM55.7454 33.0546C55.3013 32.6105 54.6292 33.2347 55.0133 33.7148C55.4334 34.2429 56.2255 33.5347 55.7454 33.0546Z" fill="#1742E7"></path></svg>