<svg xmlns="http://www.w3.org/2000/svg" width="65" height="75" viewBox="0 0 65 75" fill="none"><mask id="path-1-inside-1_11349_19174" fill="white"><path d="M34.7633 5.45893C33.4554 5.72612 27.5351 6.89331 21.6148 8.06049C13.5429 9.63549 10.8008 10.2121 10.632 10.3949C10.0554 10.9855 0.0429432 25.5824 0.000755665 25.9058C-0.0414318 26.1027 1.68826 35.1589 3.82576 46.0152C6.75076 60.8089 7.80544 65.9558 8.07263 66.5042C8.4945 67.4042 9.46482 68.4167 10.3508 68.8527C11.2086 69.2886 12.5164 69.5558 13.2898 69.4433C13.6273 69.4011 18.8445 68.4027 24.8914 67.2355C35.7195 65.1542 35.8883 65.1121 36.282 64.7042C36.7039 64.2402 36.7601 63.7761 36.4508 63.1855C36.0008 62.2855 36.4929 62.2292 24.1039 64.6339C11.982 66.9683 12.432 66.9121 11.3914 66.2652C11.1383 66.1246 10.8148 65.7589 10.6601 65.4636C10.4914 65.1261 9.057 58.1371 6.72263 46.2964C4.69763 36.0449 3.01013 27.5652 2.96794 27.4386C2.91169 27.2417 3.44607 27.1011 6.66638 26.4683C9.09919 26.0042 10.7304 25.6105 11.2508 25.3855C12.2914 24.9214 13.4586 23.6839 13.8664 22.6292C14.4148 21.1527 14.3867 20.5621 13.557 16.4136L12.7976 12.6167L13.1633 12.5183C13.3601 12.448 19.0695 11.323 25.8336 10.0011C36.7601 7.86362 38.1945 7.62456 38.6586 7.75112C39.2773 7.94799 39.9664 8.49643 40.2476 9.03081C40.4164 9.36831 46.3648 39.1808 46.3648 39.7152C46.3648 39.8417 46.0414 39.9683 45.3804 40.0808C43.7914 40.348 41.3867 41.2058 39.5586 42.1199C38.1383 42.8371 37.7023 43.1464 36.8023 44.0464C34.6648 46.1839 34.0179 48.3777 34.6929 51.1761C35.9586 56.4636 39.9945 63.7058 43.7633 67.4605C45.4086 69.1058 47.2508 69.9074 49.4023 69.9214C50.3445 69.9214 52.1164 69.4574 53.0164 68.9792C55.632 67.573 59.7804 61.9058 62.1851 56.4917C64.4211 51.4292 64.7586 48.6589 63.4367 46.0292C62.5789 44.3136 61.5523 43.3714 59.1617 42.1058C56.6726 40.7839 53.6914 39.9683 50.6258 39.7574C49.4726 39.673 49.1773 39.6027 49.1211 39.4199C48.9383 38.773 48.4461 35.7355 48.5023 35.6652C48.5445 35.6371 48.8539 35.6652 49.1914 35.7355C50.1476 35.9605 50.4007 35.9183 50.8789 35.4964C51.2445 35.173 51.3148 35.0042 51.3148 34.498C51.3008 33.5136 51.0195 33.3308 48.8679 32.8667C48.1086 32.698 47.757 32.5574 47.7148 32.4027C47.5742 31.8824 46.632 26.5808 46.6742 26.5246C46.7023 26.4964 48.2773 26.7636 50.1617 27.1152C53.3961 27.7199 53.6211 27.748 54.057 27.5371C54.8304 27.1714 54.9711 25.9621 54.2961 25.3292C54.0148 25.0621 53.3117 24.8933 50.0211 24.2886C47.8554 23.8808 46.0554 23.5292 46.0273 23.5011C45.9992 23.473 45.5773 21.4199 45.0992 18.9449C44.6211 16.4699 44.1992 14.3042 44.1711 14.1496L44.0867 13.8402L45.7601 14.1777C46.6742 14.3605 50.0492 15.0214 53.2554 15.6402C56.4617 16.2589 59.4148 16.8355 59.8226 16.9199C61.0742 17.173 61.932 17.9464 62.0726 18.9589C62.1148 19.3386 61.5804 22.3761 60.3711 28.6199C59.4007 33.6402 58.5992 37.8589 58.5992 38.0136C58.5992 38.1542 58.782 38.4777 59.007 38.7308C59.5414 39.3355 60.3851 39.3777 60.9195 38.8292C61.257 38.5058 61.4258 37.7183 63.1133 29.1261C64.7023 21.0542 64.9414 19.6621 64.8711 18.8746C64.7164 17.1027 63.5492 15.4433 61.932 14.7261C61.4539 14.5152 58.2054 13.8121 52.4117 12.6871C47.5742 11.7308 43.6086 10.9574 43.5945 10.9433C43.5664 10.9292 43.4679 10.4089 43.3414 9.79018C42.9336 7.65268 41.8929 6.17612 40.2195 5.41674C38.982 4.85424 37.6742 4.85424 34.7633 5.45893ZM11.0398 17.7917C11.5883 20.5902 11.6023 21.1246 11.1383 21.9121C10.5898 22.8402 10.1539 23.023 7.20075 23.5714C5.73825 23.8527 4.52888 24.0636 4.51482 24.0355C4.45857 23.9792 10.407 15.4996 10.5054 15.4996C10.5476 15.4996 10.7867 16.5261 11.0398 17.7917ZM52.7211 42.7246C56.2789 43.3996 59.5695 45.0449 60.6804 46.7183C61.7773 48.3496 61.7914 49.5167 60.7789 52.4699C59.4992 56.2246 57.7554 59.5433 55.5195 62.5246C53.5929 65.0839 52.6648 66.0542 51.5961 66.5746C50.7383 66.9964 50.5554 67.0386 49.3179 67.0386C48.1367 67.0386 47.8836 66.9964 47.1804 66.6449C46.2383 66.1808 45.4648 65.4355 44.0445 63.6636C41.2883 60.2183 39.0382 55.9855 37.7304 51.7949C36.9851 49.4183 37.0836 48.0824 38.0961 46.6199C39.3195 44.8339 44.1008 42.8089 47.9117 42.4433C48.9804 42.3449 51.4976 42.4855 52.7211 42.7246Z"></path><path d="M51.2586 52.2589L48.1226 55.5496L46.4914 53.9464C44.7758 52.2589 44.5648 52.1464 43.7633 52.5121C43.3133 52.7089 42.9898 53.2996 42.9898 53.9042C42.9898 54.2839 43.2148 54.5933 44.5789 55.9574C46.4633 57.8839 47.082 58.2917 48.1086 58.2917C48.5023 58.2917 49.0226 58.1933 49.2476 58.0667C49.8523 57.7574 56.1945 51.1761 56.3633 50.6839C56.6586 49.8402 55.9695 48.9683 54.9992 48.9683C54.3945 48.9683 54.3945 48.9683 51.2586 52.2589Z"></path><path d="M29.4898 28.2824C25.0461 29.1964 18.8164 30.4761 15.6383 31.123C9.19763 32.4308 9.23982 32.4167 9.23982 33.4996C9.23982 33.9636 9.32419 34.1746 9.64763 34.498C9.87263 34.723 10.182 34.9058 10.3226 34.9058C10.7445 34.9058 38.2367 29.2949 38.6023 29.1402C39.0101 28.9574 39.4039 28.1417 39.2773 27.6917C39.1367 27.0871 38.7429 26.7355 38.1383 26.6792C37.7726 26.6371 34.6929 27.2136 29.4898 28.2824Z"></path><path d="M34.482 34.6949C32.0914 35.1871 25.8898 36.4527 20.7008 37.5074C11.9961 39.2652 11.2508 39.4339 10.9554 39.7714C10.6179 40.1511 10.5336 40.9105 10.8008 41.4027C10.8851 41.5574 11.1523 41.7683 11.4195 41.8667C11.8414 42.0496 12.1086 42.0214 14.2461 41.5855C15.5539 41.3183 21.8961 40.0246 28.3508 38.7167C40.9226 36.1574 40.6133 36.2417 40.782 35.3558C40.8804 34.8777 40.5711 34.1324 40.2054 33.9355C39.7273 33.6824 39.0101 33.7808 34.482 34.6949Z"></path><path d="M21.2633 44.7636C16.707 45.6777 12.8258 46.5074 12.6711 46.5917C12.3195 46.7746 12.0523 47.2808 12.0523 47.7449C12.0523 48.2089 12.5586 48.9542 12.9383 49.0527C13.2758 49.1371 30.0242 45.8605 30.7976 45.5652C31.6133 45.2417 31.8101 44.0886 31.1492 43.3855C30.9101 43.1324 30.6992 43.0621 30.207 43.0761C29.8554 43.0902 25.8336 43.8355 21.2633 44.7636Z"></path></mask><path d="M34.7633 5.45893C33.4554 5.72612 27.5351 6.89331 21.6148 8.06049C13.5429 9.63549 10.8008 10.2121 10.632 10.3949C10.0554 10.9855 0.0429432 25.5824 0.000755665 25.9058C-0.0414318 26.1027 1.68826 35.1589 3.82576 46.0152C6.75076 60.8089 7.80544 65.9558 8.07263 66.5042C8.4945 67.4042 9.46482 68.4167 10.3508 68.8527C11.2086 69.2886 12.5164 69.5558 13.2898 69.4433C13.6273 69.4011 18.8445 68.4027 24.8914 67.2355C35.7195 65.1542 35.8883 65.1121 36.282 64.7042C36.7039 64.2402 36.7601 63.7761 36.4508 63.1855C36.0008 62.2855 36.4929 62.2292 24.1039 64.6339C11.982 66.9683 12.432 66.9121 11.3914 66.2652C11.1383 66.1246 10.8148 65.7589 10.6601 65.4636C10.4914 65.1261 9.057 58.1371 6.72263 46.2964C4.69763 36.0449 3.01013 27.5652 2.96794 27.4386C2.91169 27.2417 3.44607 27.1011 6.66638 26.4683C9.09919 26.0042 10.7304 25.6105 11.2508 25.3855C12.2914 24.9214 13.4586 23.6839 13.8664 22.6292C14.4148 21.1527 14.3867 20.5621 13.557 16.4136L12.7976 12.6167L13.1633 12.5183C13.3601 12.448 19.0695 11.323 25.8336 10.0011C36.7601 7.86362 38.1945 7.62456 38.6586 7.75112C39.2773 7.94799 39.9664 8.49643 40.2476 9.03081C40.4164 9.36831 46.3648 39.1808 46.3648 39.7152C46.3648 39.8417 46.0414 39.9683 45.3804 40.0808C43.7914 40.348 41.3867 41.2058 39.5586 42.1199C38.1383 42.8371 37.7023 43.1464 36.8023 44.0464C34.6648 46.1839 34.0179 48.3777 34.6929 51.1761C35.9586 56.4636 39.9945 63.7058 43.7633 67.4605C45.4086 69.1058 47.2508 69.9074 49.4023 69.9214C50.3445 69.9214 52.1164 69.4574 53.0164 68.9792C55.632 67.573 59.7804 61.9058 62.1851 56.4917C64.4211 51.4292 64.7586 48.6589 63.4367 46.0292C62.5789 44.3136 61.5523 43.3714 59.1617 42.1058C56.6726 40.7839 53.6914 39.9683 50.6258 39.7574C49.4726 39.673 49.1773 39.6027 49.1211 39.4199C48.9383 38.773 48.4461 35.7355 48.5023 35.6652C48.5445 35.6371 48.8539 35.6652 49.1914 35.7355C50.1476 35.9605 50.4007 35.9183 50.8789 35.4964C51.2445 35.173 51.3148 35.0042 51.3148 34.498C51.3008 33.5136 51.0195 33.3308 48.8679 32.8667C48.1086 32.698 47.757 32.5574 47.7148 32.4027C47.5742 31.8824 46.632 26.5808 46.6742 26.5246C46.7023 26.4964 48.2773 26.7636 50.1617 27.1152C53.3961 27.7199 53.6211 27.748 54.057 27.5371C54.8304 27.1714 54.9711 25.9621 54.2961 25.3292C54.0148 25.0621 53.3117 24.8933 50.0211 24.2886C47.8554 23.8808 46.0554 23.5292 46.0273 23.5011C45.9992 23.473 45.5773 21.4199 45.0992 18.9449C44.6211 16.4699 44.1992 14.3042 44.1711 14.1496L44.0867 13.8402L45.7601 14.1777C46.6742 14.3605 50.0492 15.0214 53.2554 15.6402C56.4617 16.2589 59.4148 16.8355 59.8226 16.9199C61.0742 17.173 61.932 17.9464 62.0726 18.9589C62.1148 19.3386 61.5804 22.3761 60.3711 28.6199C59.4007 33.6402 58.5992 37.8589 58.5992 38.0136C58.5992 38.1542 58.782 38.4777 59.007 38.7308C59.5414 39.3355 60.3851 39.3777 60.9195 38.8292C61.257 38.5058 61.4258 37.7183 63.1133 29.1261C64.7023 21.0542 64.9414 19.6621 64.8711 18.8746C64.7164 17.1027 63.5492 15.4433 61.932 14.7261C61.4539 14.5152 58.2054 13.8121 52.4117 12.6871C47.5742 11.7308 43.6086 10.9574 43.5945 10.9433C43.5664 10.9292 43.4679 10.4089 43.3414 9.79018C42.9336 7.65268 41.8929 6.17612 40.2195 5.41674C38.982 4.85424 37.6742 4.85424 34.7633 5.45893ZM11.0398 17.7917C11.5883 20.5902 11.6023 21.1246 11.1383 21.9121C10.5898 22.8402 10.1539 23.023 7.20075 23.5714C5.73825 23.8527 4.52888 24.0636 4.51482 24.0355C4.45857 23.9792 10.407 15.4996 10.5054 15.4996C10.5476 15.4996 10.7867 16.5261 11.0398 17.7917ZM52.7211 42.7246C56.2789 43.3996 59.5695 45.0449 60.6804 46.7183C61.7773 48.3496 61.7914 49.5167 60.7789 52.4699C59.4992 56.2246 57.7554 59.5433 55.5195 62.5246C53.5929 65.0839 52.6648 66.0542 51.5961 66.5746C50.7383 66.9964 50.5554 67.0386 49.3179 67.0386C48.1367 67.0386 47.8836 66.9964 47.1804 66.6449C46.2383 66.1808 45.4648 65.4355 44.0445 63.6636C41.2883 60.2183 39.0382 55.9855 37.7304 51.7949C36.9851 49.4183 37.0836 48.0824 38.0961 46.6199C39.3195 44.8339 44.1008 42.8089 47.9117 42.4433C48.9804 42.3449 51.4976 42.4855 52.7211 42.7246Z" fill="#1742E7"></path><path d="M51.2586 52.2589L48.1226 55.5496L46.4914 53.9464C44.7758 52.2589 44.5648 52.1464 43.7633 52.5121C43.3133 52.7089 42.9898 53.2996 42.9898 53.9042C42.9898 54.2839 43.2148 54.5933 44.5789 55.9574C46.4633 57.8839 47.082 58.2917 48.1086 58.2917C48.5023 58.2917 49.0226 58.1933 49.2476 58.0667C49.8523 57.7574 56.1945 51.1761 56.3633 50.6839C56.6586 49.8402 55.9695 48.9683 54.9992 48.9683C54.3945 48.9683 54.3945 48.9683 51.2586 52.2589Z" fill="#1742E7"></path><path d="M29.4898 28.2824C25.0461 29.1964 18.8164 30.4761 15.6383 31.123C9.19763 32.4308 9.23982 32.4167 9.23982 33.4996C9.23982 33.9636 9.32419 34.1746 9.64763 34.498C9.87263 34.723 10.182 34.9058 10.3226 34.9058C10.7445 34.9058 38.2367 29.2949 38.6023 29.1402C39.0101 28.9574 39.4039 28.1417 39.2773 27.6917C39.1367 27.0871 38.7429 26.7355 38.1383 26.6792C37.7726 26.6371 34.6929 27.2136 29.4898 28.2824Z" fill="#1742E7"></path><path d="M34.482 34.6949C32.0914 35.1871 25.8898 36.4527 20.7008 37.5074C11.9961 39.2652 11.2508 39.4339 10.9554 39.7714C10.6179 40.1511 10.5336 40.9105 10.8008 41.4027C10.8851 41.5574 11.1523 41.7683 11.4195 41.8667C11.8414 42.0496 12.1086 42.0214 14.2461 41.5855C15.5539 41.3183 21.8961 40.0246 28.3508 38.7167C40.9226 36.1574 40.6133 36.2417 40.782 35.3558C40.8804 34.8777 40.5711 34.1324 40.2054 33.9355C39.7273 33.6824 39.0101 33.7808 34.482 34.6949Z" fill="#1742E7"></path><path d="M21.2633 44.7636C16.707 45.6777 12.8258 46.5074 12.6711 46.5917C12.3195 46.7746 12.0523 47.2808 12.0523 47.7449C12.0523 48.2089 12.5586 48.9542 12.9383 49.0527C13.2758 49.1371 30.0242 45.8605 30.7976 45.5652C31.6133 45.2417 31.8101 44.0886 31.1492 43.3855C30.9101 43.1324 30.6992 43.0621 30.207 43.0761C29.8554 43.0902 25.8336 43.8355 21.2633 44.7636Z" fill="#1742E7"></path><path d="M34.7633 5.45893C33.4554 5.72612 27.5351 6.89331 21.6148 8.06049C13.5429 9.63549 10.8008 10.2121 10.632 10.3949C10.0554 10.9855 0.0429432 25.5824 0.000755665 25.9058C-0.0414318 26.1027 1.68826 35.1589 3.82576 46.0152C6.75076 60.8089 7.80544 65.9558 8.07263 66.5042C8.4945 67.4042 9.46482 68.4167 10.3508 68.8527C11.2086 69.2886 12.5164 69.5558 13.2898 69.4433C13.6273 69.4011 18.8445 68.4027 24.8914 67.2355C35.7195 65.1542 35.8883 65.1121 36.282 64.7042C36.7039 64.2402 36.7601 63.7761 36.4508 63.1855C36.0008 62.2855 36.4929 62.2292 24.1039 64.6339C11.982 66.9683 12.432 66.9121 11.3914 66.2652C11.1383 66.1246 10.8148 65.7589 10.6601 65.4636C10.4914 65.1261 9.057 58.1371 6.72263 46.2964C4.69763 36.0449 3.01013 27.5652 2.96794 27.4386C2.91169 27.2417 3.44607 27.1011 6.66638 26.4683C9.09919 26.0042 10.7304 25.6105 11.2508 25.3855C12.2914 24.9214 13.4586 23.6839 13.8664 22.6292C14.4148 21.1527 14.3867 20.5621 13.557 16.4136L12.7976 12.6167L13.1633 12.5183C13.3601 12.448 19.0695 11.323 25.8336 10.0011C36.7601 7.86362 38.1945 7.62456 38.6586 7.75112C39.2773 7.94799 39.9664 8.49643 40.2476 9.03081C40.4164 9.36831 46.3648 39.1808 46.3648 39.7152C46.3648 39.8417 46.0414 39.9683 45.3804 40.0808C43.7914 40.348 41.3867 41.2058 39.5586 42.1199C38.1383 42.8371 37.7023 43.1464 36.8023 44.0464C34.6648 46.1839 34.0179 48.3777 34.6929 51.1761C35.9586 56.4636 39.9945 63.7058 43.7633 67.4605C45.4086 69.1058 47.2508 69.9074 49.4023 69.9214C50.3445 69.9214 52.1164 69.4574 53.0164 68.9792C55.632 67.573 59.7804 61.9058 62.1851 56.4917C64.4211 51.4292 64.7586 48.6589 63.4367 46.0292C62.5789 44.3136 61.5523 43.3714 59.1617 42.1058C56.6726 40.7839 53.6914 39.9683 50.6258 39.7574C49.4726 39.673 49.1773 39.6027 49.1211 39.4199C48.9383 38.773 48.4461 35.7355 48.5023 35.6652C48.5445 35.6371 48.8539 35.6652 49.1914 35.7355C50.1476 35.9605 50.4007 35.9183 50.8789 35.4964C51.2445 35.173 51.3148 35.0042 51.3148 34.498C51.3008 33.5136 51.0195 33.3308 48.8679 32.8667C48.1086 32.698 47.757 32.5574 47.7148 32.4027C47.5742 31.8824 46.632 26.5808 46.6742 26.5246C46.7023 26.4964 48.2773 26.7636 50.1617 27.1152C53.3961 27.7199 53.6211 27.748 54.057 27.5371C54.8304 27.1714 54.9711 25.9621 54.2961 25.3292C54.0148 25.0621 53.3117 24.8933 50.0211 24.2886C47.8554 23.8808 46.0554 23.5292 46.0273 23.5011C45.9992 23.473 45.5773 21.4199 45.0992 18.9449C44.6211 16.4699 44.1992 14.3042 44.1711 14.1496L44.0867 13.8402L45.7601 14.1777C46.6742 14.3605 50.0492 15.0214 53.2554 15.6402C56.4617 16.2589 59.4148 16.8355 59.8226 16.9199C61.0742 17.173 61.932 17.9464 62.0726 18.9589C62.1148 19.3386 61.5804 22.3761 60.3711 28.6199C59.4007 33.6402 58.5992 37.8589 58.5992 38.0136C58.5992 38.1542 58.782 38.4777 59.007 38.7308C59.5414 39.3355 60.3851 39.3777 60.9195 38.8292C61.257 38.5058 61.4258 37.7183 63.1133 29.1261C64.7023 21.0542 64.9414 19.6621 64.8711 18.8746C64.7164 17.1027 63.5492 15.4433 61.932 14.7261C61.4539 14.5152 58.2054 13.8121 52.4117 12.6871C47.5742 11.7308 43.6086 10.9574 43.5945 10.9433C43.5664 10.9292 43.4679 10.4089 43.3414 9.79018C42.9336 7.65268 41.8929 6.17612 40.2195 5.41674C38.982 4.85424 37.6742 4.85424 34.7633 5.45893ZM11.0398 17.7917C11.5883 20.5902 11.6023 21.1246 11.1383 21.9121C10.5898 22.8402 10.1539 23.023 7.20075 23.5714C5.73825 23.8527 4.52888 24.0636 4.51482 24.0355C4.45857 23.9792 10.407 15.4996 10.5054 15.4996C10.5476 15.4996 10.7867 16.5261 11.0398 17.7917ZM52.7211 42.7246C56.2789 43.3996 59.5695 45.0449 60.6804 46.7183C61.7773 48.3496 61.7914 49.5167 60.7789 52.4699C59.4992 56.2246 57.7554 59.5433 55.5195 62.5246C53.5929 65.0839 52.6648 66.0542 51.5961 66.5746C50.7383 66.9964 50.5554 67.0386 49.3179 67.0386C48.1367 67.0386 47.8836 66.9964 47.1804 66.6449C46.2383 66.1808 45.4648 65.4355 44.0445 63.6636C41.2883 60.2183 39.0382 55.9855 37.7304 51.7949C36.9851 49.4183 37.0836 48.0824 38.0961 46.6199C39.3195 44.8339 44.1008 42.8089 47.9117 42.4433C48.9804 42.3449 51.4976 42.4855 52.7211 42.7246Z" stroke="#1742E7" stroke-width="0.665067" mask="url(#path-1-inside-1_11349_19174)"></path><path d="M51.2586 52.2589L48.1226 55.5496L46.4914 53.9464C44.7758 52.2589 44.5648 52.1464 43.7633 52.5121C43.3133 52.7089 42.9898 53.2996 42.9898 53.9042C42.9898 54.2839 43.2148 54.5933 44.5789 55.9574C46.4633 57.8839 47.082 58.2917 48.1086 58.2917C48.5023 58.2917 49.0226 58.1933 49.2476 58.0667C49.8523 57.7574 56.1945 51.1761 56.3633 50.6839C56.6586 49.8402 55.9695 48.9683 54.9992 48.9683C54.3945 48.9683 54.3945 48.9683 51.2586 52.2589Z" stroke="#1742E7" stroke-width="0.665067" mask="url(#path-1-inside-1_11349_19174)"></path><path d="M29.4898 28.2824C25.0461 29.1964 18.8164 30.4761 15.6383 31.123C9.19763 32.4308 9.23982 32.4167 9.23982 33.4996C9.23982 33.9636 9.32419 34.1746 9.64763 34.498C9.87263 34.723 10.182 34.9058 10.3226 34.9058C10.7445 34.9058 38.2367 29.2949 38.6023 29.1402C39.0101 28.9574 39.4039 28.1417 39.2773 27.6917C39.1367 27.0871 38.7429 26.7355 38.1383 26.6792C37.7726 26.6371 34.6929 27.2136 29.4898 28.2824Z" stroke="#1742E7" stroke-width="0.665067" mask="url(#path-1-inside-1_11349_19174)"></path><path d="M34.482 34.6949C32.0914 35.1871 25.8898 36.4527 20.7008 37.5074C11.9961 39.2652 11.2508 39.4339 10.9554 39.7714C10.6179 40.1511 10.5336 40.9105 10.8008 41.4027C10.8851 41.5574 11.1523 41.7683 11.4195 41.8667C11.8414 42.0496 12.1086 42.0214 14.2461 41.5855C15.5539 41.3183 21.8961 40.0246 28.3508 38.7167C40.9226 36.1574 40.6133 36.2417 40.782 35.3558C40.8804 34.8777 40.5711 34.1324 40.2054 33.9355C39.7273 33.6824 39.0101 33.7808 34.482 34.6949Z" stroke="#1742E7" stroke-width="0.665067" mask="url(#path-1-inside-1_11349_19174)"></path><path d="M21.2633 44.7636C16.707 45.6777 12.8258 46.5074 12.6711 46.5917C12.3195 46.7746 12.0523 47.2808 12.0523 47.7449C12.0523 48.2089 12.5586 48.9542 12.9383 49.0527C13.2758 49.1371 30.0242 45.8605 30.7976 45.5652C31.6133 45.2417 31.8101 44.0886 31.1492 43.3855C30.9101 43.1324 30.6992 43.0621 30.207 43.0761C29.8554 43.0902 25.8336 43.8355 21.2633 44.7636Z" stroke="#1742E7" stroke-width="0.665067" mask="url(#path-1-inside-1_11349_19174)"></path></svg>