<svg xmlns="http://www.w3.org/2000/svg" width="111" height="77" viewBox="0 0 111 77" fill="none"><mask id="path-1-inside-1_11010_36260" fill="white"><path d="M32.8953 11.7275C32.4578 11.8479 31.8344 12.0775 31.5281 12.2416C30.7188 12.6682 29.3625 14.0463 28.9578 14.8447C28.2906 16.19 28.2469 16.4307 28.1922 19.7338L28.1484 22.7744L28.8047 23.4307H39.1078L39.1297 41.4994C39.1625 58.726 39.1734 59.6119 39.3703 60.1807C40.0594 62.2479 41.4594 63.7244 43.4391 64.4791L44.0844 64.7197L60.5891 64.7525C78.7781 64.7854 77.6516 64.8182 79.1281 64.1072C80.0359 63.6588 81.3266 62.4338 81.8187 61.5588C82.4203 60.4541 82.5406 59.8854 82.6063 57.8072L82.6719 55.926L82.3328 55.5979L82.0047 55.2588H79.0297V52.9838L79.6859 52.94C80.8016 52.8635 80.7797 52.9182 80.7797 49.9432V47.3947L80.4953 47.176C80.2328 46.9682 80.0578 46.9463 78.7344 46.9463H77.2578L77.8812 46.4322C78.2203 46.1479 78.8109 45.5354 79.1828 45.065C81.6 42.0354 82.0922 37.9119 80.4406 34.39C79.8828 33.1869 79.2375 32.301 78.2422 31.3494C76.7 29.8838 74.7203 28.9322 72.6203 28.6588L71.7016 28.5275V16.7041L71.3844 15.8072C71.0344 14.79 70.3125 13.7182 69.5469 13.04C68.8797 12.4604 67.4578 11.7713 66.6266 11.6291C66.1781 11.5416 60.8297 11.5088 49.8375 11.5197C34.2953 11.5197 33.6609 11.5307 32.8953 11.7275ZM35.7719 13.4994C36.9094 13.7838 38.2109 14.9104 38.7578 16.0697C39.0422 16.6932 39.0531 16.7588 39.0859 19.1322L39.1187 21.5713H30.0078L30.0516 19.1322L30.0844 16.7041L30.4344 15.9822C30.8937 15.0635 31.6922 14.2432 32.5891 13.8057C33.6281 13.2916 34.5687 13.2041 35.7719 13.4994ZM66.0031 13.3791C67.5125 13.6197 68.8031 14.5713 69.4484 15.9166L69.8312 16.7041L69.9844 28.6807H69.7C69.2297 28.6807 67.5781 29.2057 66.7469 29.6213C65.7078 30.1463 65.1172 30.5619 64.3297 31.2947C59.8891 35.5057 60.1078 42.5822 64.8 46.5416L65.2922 46.9463H62.4922L61.8578 47.5807V51.1025H61.3656C60.8078 51.1025 60.2828 51.3213 60.1734 51.5947C60.1406 51.6932 60.1078 52.5572 60.1078 53.5197V55.2588H50.7125L50.1 55.7838L50.0453 57.6869C49.9906 59.5354 49.9797 59.59 49.6406 60.3229C48.7656 62.1713 46.7094 63.276 44.8062 62.926C43.1437 62.6197 41.8969 61.6135 41.2516 60.0275L41.0219 59.4697L40.9125 16.5947L40.6828 15.9932C40.3 14.9979 39.9281 14.3307 39.4359 13.7729L38.9766 13.2588H52.1453C60.7312 13.2588 65.5438 13.3025 66.0031 13.3791ZM73.2328 30.6166C75.9672 31.2729 78.2094 33.34 79.1719 36.0854C79.6312 37.4088 79.7187 39.2354 79.3687 40.6135C78.6687 43.4135 76.7 45.601 73.9875 46.5854C73.2656 46.8479 72.9922 46.8916 71.4719 46.9244C69.7984 46.9682 69.7437 46.9572 68.7375 46.6182C64.5594 45.2291 62.1641 40.9963 63.1703 36.7963C64.1 32.9135 67.7969 30.1463 71.7016 30.3869C72.15 30.4197 72.8391 30.5182 73.2328 30.6166ZM79.0297 51.1025H63.7172V48.8057H79.0297V51.1025ZM77.2797 55.2588H61.8578V52.9619H77.2797V55.2588ZM80.7578 58.3432C80.725 59.4588 80.6922 59.6557 80.375 60.3229C79.7516 61.6354 78.45 62.6307 77.0062 62.915C76.5359 63.0025 72.6641 63.0244 63.1812 63.0025L50.0234 62.9697L50.4719 62.4229C51.4344 61.2744 51.9047 59.8416 51.9047 58.0697V57.1182H80.8016L80.7578 58.3432Z"></path><path d="M45.3422 18.7275C45.0031 19.0666 45.0469 19.7447 45.4078 20.0291C45.6922 20.2479 45.8234 20.2588 49.0281 20.2588H52.3531L52.6156 19.9854C52.9547 19.6572 52.9766 19.0885 52.6703 18.7494C52.4406 18.5088 52.3969 18.5088 49.0062 18.5088C45.7031 18.5088 45.55 18.5197 45.3422 18.7275Z"></path><path d="M45.8234 21.5385C45.1672 21.6697 44.9594 22.6104 45.4953 23.0588L45.7906 23.3213H55.7437L56.0062 23.0479C56.4875 22.5775 56.3344 21.801 55.7219 21.5822C55.3828 21.4619 46.3922 21.4291 45.8234 21.5385Z"></path><path d="M45.4078 28.3635C45.0469 28.6479 45.0031 29.326 45.3422 29.665C45.5391 29.8619 45.7031 29.8838 46.8078 29.8838C48.0328 29.8838 48.0656 29.8729 48.2844 29.5994C48.5906 29.2057 48.5797 28.7354 48.2406 28.4072C48 28.1557 47.9016 28.1338 46.8406 28.1338C45.8562 28.1338 45.6594 28.1666 45.4078 28.3635Z"></path><path d="M50.3297 28.3635C49.9688 28.6479 49.925 29.326 50.2641 29.665C50.4719 29.8729 50.625 29.8838 55.1859 29.8838C59.7469 29.8838 59.9 29.8729 60.1078 29.665C60.4469 29.326 60.4031 28.6479 60.0422 28.3635C59.7578 28.1447 59.6375 28.1338 55.1859 28.1338C50.7344 28.1338 50.6141 28.1447 50.3297 28.3635Z"></path><path d="M45.4078 31.7541C45.0469 32.0385 45.0031 32.7166 45.3422 33.0557C45.55 33.2635 45.7031 33.2744 47.7812 33.2744C49.7719 33.2744 50.0344 33.2525 50.1875 33.0775C50.5703 32.651 50.5156 32.0166 50.0562 31.6666C49.9359 31.5682 49.2578 31.5354 47.7922 31.5244C45.8344 31.5244 45.6812 31.5354 45.4078 31.7541Z"></path><path d="M52.9547 31.7541C52.5938 32.0385 52.55 32.7166 52.8891 33.0557C53.0969 33.2635 53.25 33.2744 56.4984 33.2744C59.7469 33.2744 59.9 33.2635 60.1078 33.0557C60.4469 32.7166 60.4031 32.0385 60.0422 31.7541C59.7578 31.5354 59.6266 31.5244 56.4984 31.5244C53.3703 31.5244 53.2391 31.5354 52.9547 31.7541Z"></path><path d="M45.4078 35.4729C45.0578 35.7572 45.0141 36.3916 45.3312 36.7854L45.5391 37.0479H50.625C55.4703 37.0479 55.7219 37.0369 55.9406 36.84C56.2906 36.5229 56.2578 35.7682 55.8859 35.4729C55.6016 35.2432 55.4812 35.2432 50.6469 35.2432C45.8125 35.2432 45.6922 35.2432 45.4078 35.4729Z"></path><path d="M45.1562 43.9385C44.6969 44.2666 44.7844 45.2619 45.2875 45.4588C45.3859 45.4916 46.9391 45.5244 48.7437 45.5244H52.025L52.2875 45.251C52.6266 44.9229 52.6375 44.4525 52.3312 44.0588L52.1125 43.7744H48.7437C45.9438 43.7744 45.3531 43.7963 45.1562 43.9385Z"></path><path d="M45.1562 47.001C44.6969 47.3291 44.7844 48.3244 45.2875 48.5213C45.3859 48.5541 48.1859 48.5869 51.5109 48.5869C57.4719 48.5869 57.5703 48.5869 57.8547 48.3572C58.2156 48.0729 58.2594 47.3947 57.9203 47.0557C57.7016 46.8369 57.5594 46.8369 51.5437 46.8369C46.25 46.8369 45.3531 46.8588 45.1562 47.001Z"></path><path d="M70.6625 31.7979C70.5094 31.94 70.3891 32.1807 70.3891 32.3338C70.3891 32.5525 70.2797 32.651 69.7984 32.8697C68.5734 33.4385 67.8625 34.4885 67.7859 35.8885C67.7313 36.9822 68.0156 37.7697 68.7266 38.5025C69.3828 39.1697 70.0391 39.476 71.0891 39.6072C72.1063 39.7275 72.5766 40.0338 72.85 40.7557C73.2766 41.8822 72.4672 43.0088 71.2422 43.0088C70.4109 43.0088 69.7109 42.3744 69.5578 41.4775C69.4484 40.7885 69.3828 40.69 69.0219 40.5369C68.5953 40.3619 68.0484 40.4932 67.8734 40.8213C67.6875 41.1604 67.7531 41.9807 68.0047 42.6479C68.2891 43.4244 69.1531 44.3213 69.8859 44.5947C70.2469 44.7369 70.3891 44.8463 70.3891 44.9994C70.3891 45.5682 70.9906 45.94 71.5922 45.7213C71.9422 45.601 72.1391 45.3494 72.1391 44.9994C72.1391 44.8463 72.2813 44.7369 72.6203 44.6057C73.2766 44.3541 73.9984 43.6979 74.3813 42.9979C74.6766 42.4619 74.7094 42.3197 74.7094 41.3682C74.7094 40.4932 74.6656 40.2416 74.4469 39.7932C73.8891 38.6666 72.8281 37.9557 71.4828 37.8135C70.3672 37.6932 69.875 37.3213 69.6125 36.4354C69.4375 35.8666 69.7109 35.1338 70.2469 34.7182C70.7609 34.3354 71.7344 34.3025 72.2156 34.6525C72.5875 34.915 73.0141 35.7244 73.0141 36.151C73.0141 36.5557 73.4516 36.9932 73.8672 36.9932C74.0422 36.9932 74.3156 36.8947 74.4797 36.7635C74.7203 36.5666 74.7641 36.4572 74.7641 35.9432C74.7641 34.6744 74.0203 33.515 72.85 32.9354C72.2266 32.6291 72.1391 32.5525 72.1391 32.2791C72.1391 31.6119 71.1656 31.2838 70.6625 31.7979Z"></path></mask><path d="M32.8953 11.7275C32.4578 11.8479 31.8344 12.0775 31.5281 12.2416C30.7188 12.6682 29.3625 14.0463 28.9578 14.8447C28.2906 16.19 28.2469 16.4307 28.1922 19.7338L28.1484 22.7744L28.8047 23.4307H39.1078L39.1297 41.4994C39.1625 58.726 39.1734 59.6119 39.3703 60.1807C40.0594 62.2479 41.4594 63.7244 43.4391 64.4791L44.0844 64.7197L60.5891 64.7525C78.7781 64.7854 77.6516 64.8182 79.1281 64.1072C80.0359 63.6588 81.3266 62.4338 81.8187 61.5588C82.4203 60.4541 82.5406 59.8854 82.6063 57.8072L82.6719 55.926L82.3328 55.5979L82.0047 55.2588H79.0297V52.9838L79.6859 52.94C80.8016 52.8635 80.7797 52.9182 80.7797 49.9432V47.3947L80.4953 47.176C80.2328 46.9682 80.0578 46.9463 78.7344 46.9463H77.2578L77.8812 46.4322C78.2203 46.1479 78.8109 45.5354 79.1828 45.065C81.6 42.0354 82.0922 37.9119 80.4406 34.39C79.8828 33.1869 79.2375 32.301 78.2422 31.3494C76.7 29.8838 74.7203 28.9322 72.6203 28.6588L71.7016 28.5275V16.7041L71.3844 15.8072C71.0344 14.79 70.3125 13.7182 69.5469 13.04C68.8797 12.4604 67.4578 11.7713 66.6266 11.6291C66.1781 11.5416 60.8297 11.5088 49.8375 11.5197C34.2953 11.5197 33.6609 11.5307 32.8953 11.7275ZM35.7719 13.4994C36.9094 13.7838 38.2109 14.9104 38.7578 16.0697C39.0422 16.6932 39.0531 16.7588 39.0859 19.1322L39.1187 21.5713H30.0078L30.0516 19.1322L30.0844 16.7041L30.4344 15.9822C30.8937 15.0635 31.6922 14.2432 32.5891 13.8057C33.6281 13.2916 34.5687 13.2041 35.7719 13.4994ZM66.0031 13.3791C67.5125 13.6197 68.8031 14.5713 69.4484 15.9166L69.8312 16.7041L69.9844 28.6807H69.7C69.2297 28.6807 67.5781 29.2057 66.7469 29.6213C65.7078 30.1463 65.1172 30.5619 64.3297 31.2947C59.8891 35.5057 60.1078 42.5822 64.8 46.5416L65.2922 46.9463H62.4922L61.8578 47.5807V51.1025H61.3656C60.8078 51.1025 60.2828 51.3213 60.1734 51.5947C60.1406 51.6932 60.1078 52.5572 60.1078 53.5197V55.2588H50.7125L50.1 55.7838L50.0453 57.6869C49.9906 59.5354 49.9797 59.59 49.6406 60.3229C48.7656 62.1713 46.7094 63.276 44.8062 62.926C43.1437 62.6197 41.8969 61.6135 41.2516 60.0275L41.0219 59.4697L40.9125 16.5947L40.6828 15.9932C40.3 14.9979 39.9281 14.3307 39.4359 13.7729L38.9766 13.2588H52.1453C60.7312 13.2588 65.5438 13.3025 66.0031 13.3791ZM73.2328 30.6166C75.9672 31.2729 78.2094 33.34 79.1719 36.0854C79.6312 37.4088 79.7187 39.2354 79.3687 40.6135C78.6687 43.4135 76.7 45.601 73.9875 46.5854C73.2656 46.8479 72.9922 46.8916 71.4719 46.9244C69.7984 46.9682 69.7437 46.9572 68.7375 46.6182C64.5594 45.2291 62.1641 40.9963 63.1703 36.7963C64.1 32.9135 67.7969 30.1463 71.7016 30.3869C72.15 30.4197 72.8391 30.5182 73.2328 30.6166ZM79.0297 51.1025H63.7172V48.8057H79.0297V51.1025ZM77.2797 55.2588H61.8578V52.9619H77.2797V55.2588ZM80.7578 58.3432C80.725 59.4588 80.6922 59.6557 80.375 60.3229C79.7516 61.6354 78.45 62.6307 77.0062 62.915C76.5359 63.0025 72.6641 63.0244 63.1812 63.0025L50.0234 62.9697L50.4719 62.4229C51.4344 61.2744 51.9047 59.8416 51.9047 58.0697V57.1182H80.8016L80.7578 58.3432Z" fill="#1742E7"></path><path d="M45.3422 18.7275C45.0031 19.0666 45.0469 19.7447 45.4078 20.0291C45.6922 20.2479 45.8234 20.2588 49.0281 20.2588H52.3531L52.6156 19.9854C52.9547 19.6572 52.9766 19.0885 52.6703 18.7494C52.4406 18.5088 52.3969 18.5088 49.0062 18.5088C45.7031 18.5088 45.55 18.5197 45.3422 18.7275Z" fill="#1742E7"></path><path d="M45.8234 21.5385C45.1672 21.6697 44.9594 22.6104 45.4953 23.0588L45.7906 23.3213H55.7437L56.0062 23.0479C56.4875 22.5775 56.3344 21.801 55.7219 21.5822C55.3828 21.4619 46.3922 21.4291 45.8234 21.5385Z" fill="#1742E7"></path><path d="M45.4078 28.3635C45.0469 28.6479 45.0031 29.326 45.3422 29.665C45.5391 29.8619 45.7031 29.8838 46.8078 29.8838C48.0328 29.8838 48.0656 29.8729 48.2844 29.5994C48.5906 29.2057 48.5797 28.7354 48.2406 28.4072C48 28.1557 47.9016 28.1338 46.8406 28.1338C45.8562 28.1338 45.6594 28.1666 45.4078 28.3635Z" fill="#1742E7"></path><path d="M50.3297 28.3635C49.9688 28.6479 49.925 29.326 50.2641 29.665C50.4719 29.8729 50.625 29.8838 55.1859 29.8838C59.7469 29.8838 59.9 29.8729 60.1078 29.665C60.4469 29.326 60.4031 28.6479 60.0422 28.3635C59.7578 28.1447 59.6375 28.1338 55.1859 28.1338C50.7344 28.1338 50.6141 28.1447 50.3297 28.3635Z" fill="#1742E7"></path><path d="M45.4078 31.7541C45.0469 32.0385 45.0031 32.7166 45.3422 33.0557C45.55 33.2635 45.7031 33.2744 47.7812 33.2744C49.7719 33.2744 50.0344 33.2525 50.1875 33.0775C50.5703 32.651 50.5156 32.0166 50.0562 31.6666C49.9359 31.5682 49.2578 31.5354 47.7922 31.5244C45.8344 31.5244 45.6812 31.5354 45.4078 31.7541Z" fill="#1742E7"></path><path d="M52.9547 31.7541C52.5938 32.0385 52.55 32.7166 52.8891 33.0557C53.0969 33.2635 53.25 33.2744 56.4984 33.2744C59.7469 33.2744 59.9 33.2635 60.1078 33.0557C60.4469 32.7166 60.4031 32.0385 60.0422 31.7541C59.7578 31.5354 59.6266 31.5244 56.4984 31.5244C53.3703 31.5244 53.2391 31.5354 52.9547 31.7541Z" fill="#1742E7"></path><path d="M45.4078 35.4729C45.0578 35.7572 45.0141 36.3916 45.3312 36.7854L45.5391 37.0479H50.625C55.4703 37.0479 55.7219 37.0369 55.9406 36.84C56.2906 36.5229 56.2578 35.7682 55.8859 35.4729C55.6016 35.2432 55.4812 35.2432 50.6469 35.2432C45.8125 35.2432 45.6922 35.2432 45.4078 35.4729Z" fill="#1742E7"></path><path d="M45.1562 43.9385C44.6969 44.2666 44.7844 45.2619 45.2875 45.4588C45.3859 45.4916 46.9391 45.5244 48.7437 45.5244H52.025L52.2875 45.251C52.6266 44.9229 52.6375 44.4525 52.3312 44.0588L52.1125 43.7744H48.7437C45.9438 43.7744 45.3531 43.7963 45.1562 43.9385Z" fill="#1742E7"></path><path d="M45.1562 47.001C44.6969 47.3291 44.7844 48.3244 45.2875 48.5213C45.3859 48.5541 48.1859 48.5869 51.5109 48.5869C57.4719 48.5869 57.5703 48.5869 57.8547 48.3572C58.2156 48.0729 58.2594 47.3947 57.9203 47.0557C57.7016 46.8369 57.5594 46.8369 51.5437 46.8369C46.25 46.8369 45.3531 46.8588 45.1562 47.001Z" fill="#1742E7"></path><path d="M70.6625 31.7979C70.5094 31.94 70.3891 32.1807 70.3891 32.3338C70.3891 32.5525 70.2797 32.651 69.7984 32.8697C68.5734 33.4385 67.8625 34.4885 67.7859 35.8885C67.7313 36.9822 68.0156 37.7697 68.7266 38.5025C69.3828 39.1697 70.0391 39.476 71.0891 39.6072C72.1063 39.7275 72.5766 40.0338 72.85 40.7557C73.2766 41.8822 72.4672 43.0088 71.2422 43.0088C70.4109 43.0088 69.7109 42.3744 69.5578 41.4775C69.4484 40.7885 69.3828 40.69 69.0219 40.5369C68.5953 40.3619 68.0484 40.4932 67.8734 40.8213C67.6875 41.1604 67.7531 41.9807 68.0047 42.6479C68.2891 43.4244 69.1531 44.3213 69.8859 44.5947C70.2469 44.7369 70.3891 44.8463 70.3891 44.9994C70.3891 45.5682 70.9906 45.94 71.5922 45.7213C71.9422 45.601 72.1391 45.3494 72.1391 44.9994C72.1391 44.8463 72.2813 44.7369 72.6203 44.6057C73.2766 44.3541 73.9984 43.6979 74.3813 42.9979C74.6766 42.4619 74.7094 42.3197 74.7094 41.3682C74.7094 40.4932 74.6656 40.2416 74.4469 39.7932C73.8891 38.6666 72.8281 37.9557 71.4828 37.8135C70.3672 37.6932 69.875 37.3213 69.6125 36.4354C69.4375 35.8666 69.7109 35.1338 70.2469 34.7182C70.7609 34.3354 71.7344 34.3025 72.2156 34.6525C72.5875 34.915 73.0141 35.7244 73.0141 36.151C73.0141 36.5557 73.4516 36.9932 73.8672 36.9932C74.0422 36.9932 74.3156 36.8947 74.4797 36.7635C74.7203 36.5666 74.7641 36.4572 74.7641 35.9432C74.7641 34.6744 74.0203 33.515 72.85 32.9354C72.2266 32.6291 72.1391 32.5525 72.1391 32.2791C72.1391 31.6119 71.1656 31.2838 70.6625 31.7979Z" fill="#1742E7"></path><path d="M32.8953 11.7275C32.4578 11.8479 31.8344 12.0775 31.5281 12.2416C30.7188 12.6682 29.3625 14.0463 28.9578 14.8447C28.2906 16.19 28.2469 16.4307 28.1922 19.7338L28.1484 22.7744L28.8047 23.4307H39.1078L39.1297 41.4994C39.1625 58.726 39.1734 59.6119 39.3703 60.1807C40.0594 62.2479 41.4594 63.7244 43.4391 64.4791L44.0844 64.7197L60.5891 64.7525C78.7781 64.7854 77.6516 64.8182 79.1281 64.1072C80.0359 63.6588 81.3266 62.4338 81.8187 61.5588C82.4203 60.4541 82.5406 59.8854 82.6063 57.8072L82.6719 55.926L82.3328 55.5979L82.0047 55.2588H79.0297V52.9838L79.6859 52.94C80.8016 52.8635 80.7797 52.9182 80.7797 49.9432V47.3947L80.4953 47.176C80.2328 46.9682 80.0578 46.9463 78.7344 46.9463H77.2578L77.8812 46.4322C78.2203 46.1479 78.8109 45.5354 79.1828 45.065C81.6 42.0354 82.0922 37.9119 80.4406 34.39C79.8828 33.1869 79.2375 32.301 78.2422 31.3494C76.7 29.8838 74.7203 28.9322 72.6203 28.6588L71.7016 28.5275V16.7041L71.3844 15.8072C71.0344 14.79 70.3125 13.7182 69.5469 13.04C68.8797 12.4604 67.4578 11.7713 66.6266 11.6291C66.1781 11.5416 60.8297 11.5088 49.8375 11.5197C34.2953 11.5197 33.6609 11.5307 32.8953 11.7275ZM35.7719 13.4994C36.9094 13.7838 38.2109 14.9104 38.7578 16.0697C39.0422 16.6932 39.0531 16.7588 39.0859 19.1322L39.1187 21.5713H30.0078L30.0516 19.1322L30.0844 16.7041L30.4344 15.9822C30.8937 15.0635 31.6922 14.2432 32.5891 13.8057C33.6281 13.2916 34.5687 13.2041 35.7719 13.4994ZM66.0031 13.3791C67.5125 13.6197 68.8031 14.5713 69.4484 15.9166L69.8312 16.7041L69.9844 28.6807H69.7C69.2297 28.6807 67.5781 29.2057 66.7469 29.6213C65.7078 30.1463 65.1172 30.5619 64.3297 31.2947C59.8891 35.5057 60.1078 42.5822 64.8 46.5416L65.2922 46.9463H62.4922L61.8578 47.5807V51.1025H61.3656C60.8078 51.1025 60.2828 51.3213 60.1734 51.5947C60.1406 51.6932 60.1078 52.5572 60.1078 53.5197V55.2588H50.7125L50.1 55.7838L50.0453 57.6869C49.9906 59.5354 49.9797 59.59 49.6406 60.3229C48.7656 62.1713 46.7094 63.276 44.8062 62.926C43.1437 62.6197 41.8969 61.6135 41.2516 60.0275L41.0219 59.4697L40.9125 16.5947L40.6828 15.9932C40.3 14.9979 39.9281 14.3307 39.4359 13.7729L38.9766 13.2588H52.1453C60.7312 13.2588 65.5438 13.3025 66.0031 13.3791ZM73.2328 30.6166C75.9672 31.2729 78.2094 33.34 79.1719 36.0854C79.6312 37.4088 79.7187 39.2354 79.3687 40.6135C78.6687 43.4135 76.7 45.601 73.9875 46.5854C73.2656 46.8479 72.9922 46.8916 71.4719 46.9244C69.7984 46.9682 69.7437 46.9572 68.7375 46.6182C64.5594 45.2291 62.1641 40.9963 63.1703 36.7963C64.1 32.9135 67.7969 30.1463 71.7016 30.3869C72.15 30.4197 72.8391 30.5182 73.2328 30.6166ZM79.0297 51.1025H63.7172V48.8057H79.0297V51.1025ZM77.2797 55.2588H61.8578V52.9619H77.2797V55.2588ZM80.7578 58.3432C80.725 59.4588 80.6922 59.6557 80.375 60.3229C79.7516 61.6354 78.45 62.6307 77.0062 62.915C76.5359 63.0025 72.6641 63.0244 63.1812 63.0025L50.0234 62.9697L50.4719 62.4229C51.4344 61.2744 51.9047 59.8416 51.9047 58.0697V57.1182H80.8016L80.7578 58.3432Z" stroke="#1742E7" stroke-width="0.581284" mask="url(#path-1-inside-1_11010_36260)"></path><path d="M45.3422 18.7275C45.0031 19.0666 45.0469 19.7447 45.4078 20.0291C45.6922 20.2479 45.8234 20.2588 49.0281 20.2588H52.3531L52.6156 19.9854C52.9547 19.6572 52.9766 19.0885 52.6703 18.7494C52.4406 18.5088 52.3969 18.5088 49.0062 18.5088C45.7031 18.5088 45.55 18.5197 45.3422 18.7275Z" stroke="#1742E7" stroke-width="0.581284" mask="url(#path-1-inside-1_11010_36260)"></path><path d="M45.8234 21.5385C45.1672 21.6697 44.9594 22.6104 45.4953 23.0588L45.7906 23.3213H55.7437L56.0062 23.0479C56.4875 22.5775 56.3344 21.801 55.7219 21.5822C55.3828 21.4619 46.3922 21.4291 45.8234 21.5385Z" stroke="#1742E7" stroke-width="0.581284" mask="url(#path-1-inside-1_11010_36260)"></path><path d="M45.4078 28.3635C45.0469 28.6479 45.0031 29.326 45.3422 29.665C45.5391 29.8619 45.7031 29.8838 46.8078 29.8838C48.0328 29.8838 48.0656 29.8729 48.2844 29.5994C48.5906 29.2057 48.5797 28.7354 48.2406 28.4072C48 28.1557 47.9016 28.1338 46.8406 28.1338C45.8562 28.1338 45.6594 28.1666 45.4078 28.3635Z" stroke="#1742E7" stroke-width="0.581284" mask="url(#path-1-inside-1_11010_36260)"></path><path d="M50.3297 28.3635C49.9688 28.6479 49.925 29.326 50.2641 29.665C50.4719 29.8729 50.625 29.8838 55.1859 29.8838C59.7469 29.8838 59.9 29.8729 60.1078 29.665C60.4469 29.326 60.4031 28.6479 60.0422 28.3635C59.7578 28.1447 59.6375 28.1338 55.1859 28.1338C50.7344 28.1338 50.6141 28.1447 50.3297 28.3635Z" stroke="#1742E7" stroke-width="0.581284" mask="url(#path-1-inside-1_11010_36260)"></path><path d="M45.4078 31.7541C45.0469 32.0385 45.0031 32.7166 45.3422 33.0557C45.55 33.2635 45.7031 33.2744 47.7812 33.2744C49.7719 33.2744 50.0344 33.2525 50.1875 33.0775C50.5703 32.651 50.5156 32.0166 50.0562 31.6666C49.9359 31.5682 49.2578 31.5354 47.7922 31.5244C45.8344 31.5244 45.6812 31.5354 45.4078 31.7541Z" stroke="#1742E7" stroke-width="0.581284" mask="url(#path-1-inside-1_11010_36260)"></path><path d="M52.9547 31.7541C52.5938 32.0385 52.55 32.7166 52.8891 33.0557C53.0969 33.2635 53.25 33.2744 56.4984 33.2744C59.7469 33.2744 59.9 33.2635 60.1078 33.0557C60.4469 32.7166 60.4031 32.0385 60.0422 31.7541C59.7578 31.5354 59.6266 31.5244 56.4984 31.5244C53.3703 31.5244 53.2391 31.5354 52.9547 31.7541Z" stroke="#1742E7" stroke-width="0.581284" mask="url(#path-1-inside-1_11010_36260)"></path><path d="M45.4078 35.4729C45.0578 35.7572 45.0141 36.3916 45.3312 36.7854L45.5391 37.0479H50.625C55.4703 37.0479 55.7219 37.0369 55.9406 36.84C56.2906 36.5229 56.2578 35.7682 55.8859 35.4729C55.6016 35.2432 55.4812 35.2432 50.6469 35.2432C45.8125 35.2432 45.6922 35.2432 45.4078 35.4729Z" stroke="#1742E7" stroke-width="0.581284" mask="url(#path-1-inside-1_11010_36260)"></path><path d="M45.1562 43.9385C44.6969 44.2666 44.7844 45.2619 45.2875 45.4588C45.3859 45.4916 46.9391 45.5244 48.7437 45.5244H52.025L52.2875 45.251C52.6266 44.9229 52.6375 44.4525 52.3312 44.0588L52.1125 43.7744H48.7437C45.9438 43.7744 45.3531 43.7963 45.1562 43.9385Z" stroke="#1742E7" stroke-width="0.581284" mask="url(#path-1-inside-1_11010_36260)"></path><path d="M45.1562 47.001C44.6969 47.3291 44.7844 48.3244 45.2875 48.5213C45.3859 48.5541 48.1859 48.5869 51.5109 48.5869C57.4719 48.5869 57.5703 48.5869 57.8547 48.3572C58.2156 48.0729 58.2594 47.3947 57.9203 47.0557C57.7016 46.8369 57.5594 46.8369 51.5437 46.8369C46.25 46.8369 45.3531 46.8588 45.1562 47.001Z" stroke="#1742E7" stroke-width="0.581284" mask="url(#path-1-inside-1_11010_36260)"></path><path d="M70.6625 31.7979C70.5094 31.94 70.3891 32.1807 70.3891 32.3338C70.3891 32.5525 70.2797 32.651 69.7984 32.8697C68.5734 33.4385 67.8625 34.4885 67.7859 35.8885C67.7313 36.9822 68.0156 37.7697 68.7266 38.5025C69.3828 39.1697 70.0391 39.476 71.0891 39.6072C72.1063 39.7275 72.5766 40.0338 72.85 40.7557C73.2766 41.8822 72.4672 43.0088 71.2422 43.0088C70.4109 43.0088 69.7109 42.3744 69.5578 41.4775C69.4484 40.7885 69.3828 40.69 69.0219 40.5369C68.5953 40.3619 68.0484 40.4932 67.8734 40.8213C67.6875 41.1604 67.7531 41.9807 68.0047 42.6479C68.2891 43.4244 69.1531 44.3213 69.8859 44.5947C70.2469 44.7369 70.3891 44.8463 70.3891 44.9994C70.3891 45.5682 70.9906 45.94 71.5922 45.7213C71.9422 45.601 72.1391 45.3494 72.1391 44.9994C72.1391 44.8463 72.2813 44.7369 72.6203 44.6057C73.2766 44.3541 73.9984 43.6979 74.3813 42.9979C74.6766 42.4619 74.7094 42.3197 74.7094 41.3682C74.7094 40.4932 74.6656 40.2416 74.4469 39.7932C73.8891 38.6666 72.8281 37.9557 71.4828 37.8135C70.3672 37.6932 69.875 37.3213 69.6125 36.4354C69.4375 35.8666 69.7109 35.1338 70.2469 34.7182C70.7609 34.3354 71.7344 34.3025 72.2156 34.6525C72.5875 34.915 73.0141 35.7244 73.0141 36.151C73.0141 36.5557 73.4516 36.9932 73.8672 36.9932C74.0422 36.9932 74.3156 36.8947 74.4797 36.7635C74.7203 36.5666 74.7641 36.4572 74.7641 35.9432C74.7641 34.6744 74.0203 33.515 72.85 32.9354C72.2266 32.6291 72.1391 32.5525 72.1391 32.2791C72.1391 31.6119 71.1656 31.2838 70.6625 31.7979Z" stroke="#1742E7" stroke-width="0.581284" mask="url(#path-1-inside-1_11010_36260)"></path></svg>