<svg xmlns="http://www.w3.org/2000/svg" width="111" height="77" viewBox="0 0 111 77" fill="none"><mask id="path-1-inside-1_11010_36250" fill="white"><path d="M37.5487 10.3171C36.5196 10.6784 35.7204 11.401 35.162 12.463L34.8555 13.0432V63.186L35.1511 63.81C35.5343 64.6421 36.2349 65.3756 37.0451 65.7916L37.702 66.142H73.0647L73.6997 65.8245C74.477 65.4303 75.2324 64.6421 75.6156 63.81L75.9112 63.186L75.944 53.9676C75.9659 44.8477 75.9659 44.7383 75.747 44.5193C75.4623 44.2346 74.8711 44.2346 74.5317 44.5083L74.269 44.7164L74.2142 53.7924C74.1595 61.9707 74.1376 62.8904 73.9734 63.186C73.7434 63.602 73.2836 64.029 72.791 64.2917C72.4187 64.4888 71.7837 64.4997 55.3833 64.4997H38.3589L37.921 64.2589C37.3626 63.9633 36.9356 63.5144 36.7276 62.9998C36.5743 62.6385 36.5524 60 36.5524 38.1693C36.5524 16.3386 36.5743 13.7001 36.7276 13.3388C36.9356 12.8243 37.3626 12.3754 37.921 12.0798L38.3589 11.8389L60.7479 11.7732V15.0687H50.9931C40.0559 15.0687 40.7456 15.0139 40.1872 15.8679L39.8916 16.3167V21.7142L40.2091 22.1193C40.3843 22.3492 40.7237 22.6339 40.9755 22.7433C41.4025 22.9404 41.8623 22.9514 49.8873 22.9514C58.1642 22.9514 58.3393 22.9514 58.5583 22.7324C58.8758 22.4149 58.9305 22.0427 58.7335 21.6485C58.6349 21.4624 58.5364 21.2982 58.5255 21.2872C58.5145 21.2653 54.7155 21.2325 50.0735 21.1996L41.6433 21.1449L41.6105 19.021C41.5886 17.3897 41.6215 16.8751 41.72 16.7985C41.7966 16.7547 46.1102 16.7109 51.3106 16.7109H60.7479V19.1523C60.7479 21.8784 60.8465 22.5244 61.4158 23.4112C61.8647 24.1119 62.4011 24.5607 63.266 24.9658L63.9777 25.3052L74.2142 25.3709L74.2361 33.5273L74.269 41.6947L74.5865 41.9684C74.9477 42.2749 75.4076 42.253 75.7689 41.9246C75.955 41.7603 75.9659 41.3115 75.9659 32.8704V23.9914L69.0357 17.0722L62.1165 10.142H50.0735C39.4975 10.1529 37.9757 10.1748 37.5487 10.3171ZM68.8934 23.5863C66.3753 23.5973 64.6236 23.5645 64.3718 23.4988C63.5178 23.2688 62.85 22.601 62.6091 21.758C62.5434 21.5281 62.4997 19.6559 62.4997 17.2036V13.0432L73.0099 23.5535L68.8934 23.5863Z"></path><path d="M40.5923 27.035C39.8588 27.5167 39.8369 27.6591 39.8369 31.3596C39.8369 34.436 39.8478 34.7097 40.0559 35.0929C40.1982 35.3885 40.4172 35.5965 40.7456 35.7498C41.1945 35.9688 41.3915 35.9797 44.4351 35.9797C47.424 35.9797 47.6867 35.9688 48.1028 35.7607C48.3874 35.6184 48.6392 35.3885 48.7925 35.1148C49.0224 34.7097 49.0334 34.5783 49.0334 31.3705C49.0334 27.6591 49.0115 27.5167 48.278 27.035C47.9057 26.7832 47.8619 26.7832 44.4351 26.7832C41.0084 26.7832 40.9646 26.7832 40.5923 27.035ZM47.2817 34.228H41.5886V28.5349H47.2817V34.228Z"></path><path d="M52.4383 27.0679C52.1536 27.4292 52.1427 27.889 52.4164 28.2174L52.6244 28.4802H70.0758L70.2838 28.2174C70.5575 27.889 70.5466 27.4292 70.2619 27.0679L70.043 26.7832H52.6572L52.4383 27.0679Z"></path><path d="M52.4383 30.3523C52.1536 30.7136 52.1427 31.1734 52.4164 31.5019L52.6244 31.7646H70.0758L70.2838 31.5019C70.5575 31.1734 70.5466 30.7136 70.2619 30.3523L70.043 30.0677H52.6572L52.4383 30.3523Z"></path><path d="M40.5923 39.4065C39.8588 39.8882 39.8369 40.0305 39.8369 43.731C39.8369 46.8075 39.8478 47.0812 40.0559 47.4644C40.1982 47.76 40.4172 47.968 40.7456 48.1212C41.1945 48.3402 41.3915 48.3512 44.4351 48.3512C47.424 48.3512 47.6867 48.3402 48.1028 48.1322C48.3874 47.9899 48.6392 47.76 48.7925 47.4863C49.0224 47.0812 49.0334 46.9498 49.0334 43.742C49.0334 40.0305 49.0115 39.8882 48.278 39.4065C47.9057 39.1547 47.8619 39.1547 44.4351 39.1547C41.0084 39.1547 40.9646 39.1547 40.5923 39.4065ZM47.2817 46.5994H41.5886V40.9064H47.2817V46.5994Z"></path><path d="M52.4383 39.4393C52.1536 39.8006 52.1427 40.2604 52.4164 40.5889L52.6244 40.8516H70.0758L70.2838 40.5889C70.5575 40.2604 70.5466 39.8006 70.2619 39.4393L70.043 39.1547H52.6572L52.4383 39.4393Z"></path><path d="M52.4383 42.7238C52.1536 43.0851 52.1427 43.5449 52.4164 43.8733L52.6244 44.1361H70.0758L70.2838 43.8733C70.5575 43.5449 70.5466 43.0851 70.2619 42.7238L70.043 42.4391H52.6572L52.4383 42.7238Z"></path><path d="M40.5923 51.7779C39.8588 52.2597 39.8369 52.402 39.8369 56.1025C39.8369 59.1789 39.8478 59.4526 40.0559 59.8358C40.1982 60.1314 40.4172 60.3394 40.7456 60.4927C41.1945 60.7117 41.3915 60.7226 44.4351 60.7226C47.424 60.7226 47.6867 60.7117 48.1028 60.5037C48.3874 60.3613 48.6392 60.1314 48.7925 59.8577C49.0224 59.4526 49.0334 59.3212 49.0334 56.1134C49.0334 52.402 49.0115 52.2597 48.278 51.7779C47.9057 51.5261 47.8619 51.5261 44.4351 51.5261C41.0084 51.5261 40.9646 51.5261 40.5923 51.7779ZM47.2817 58.9709H41.5886V53.2778H47.2817V58.9709Z"></path><path d="M52.4383 51.8108C52.1536 52.1721 52.1427 52.6319 52.4164 52.9603L52.6244 53.2231H70.0758L70.2838 52.9603C70.5575 52.6319 70.5466 52.1721 70.2619 51.8108L70.043 51.5261H52.6572L52.4383 51.8108Z"></path><path d="M52.4383 55.0952C52.1536 55.4565 52.1427 55.9164 52.4164 56.2448L52.6244 56.5076H70.0758L70.2838 56.2448C70.5575 55.9164 70.5466 55.4565 70.2619 55.0952L70.043 54.8106H52.6572L52.4383 55.0952Z"></path></mask><path d="M37.5487 10.3171C36.5196 10.6784 35.7204 11.401 35.162 12.463L34.8555 13.0432V63.186L35.1511 63.81C35.5343 64.6421 36.2349 65.3756 37.0451 65.7916L37.702 66.142H73.0647L73.6997 65.8245C74.477 65.4303 75.2324 64.6421 75.6156 63.81L75.9112 63.186L75.944 53.9676C75.9659 44.8477 75.9659 44.7383 75.747 44.5193C75.4623 44.2346 74.8711 44.2346 74.5317 44.5083L74.269 44.7164L74.2142 53.7924C74.1595 61.9707 74.1376 62.8904 73.9734 63.186C73.7434 63.602 73.2836 64.029 72.791 64.2917C72.4187 64.4888 71.7837 64.4997 55.3833 64.4997H38.3589L37.921 64.2589C37.3626 63.9633 36.9356 63.5144 36.7276 62.9998C36.5743 62.6385 36.5524 60 36.5524 38.1693C36.5524 16.3386 36.5743 13.7001 36.7276 13.3388C36.9356 12.8243 37.3626 12.3754 37.921 12.0798L38.3589 11.8389L60.7479 11.7732V15.0687H50.9931C40.0559 15.0687 40.7456 15.0139 40.1872 15.8679L39.8916 16.3167V21.7142L40.2091 22.1193C40.3843 22.3492 40.7237 22.6339 40.9755 22.7433C41.4025 22.9404 41.8623 22.9514 49.8873 22.9514C58.1642 22.9514 58.3393 22.9514 58.5583 22.7324C58.8758 22.4149 58.9305 22.0427 58.7335 21.6485C58.6349 21.4624 58.5364 21.2982 58.5255 21.2872C58.5145 21.2653 54.7155 21.2325 50.0735 21.1996L41.6433 21.1449L41.6105 19.021C41.5886 17.3897 41.6215 16.8751 41.72 16.7985C41.7966 16.7547 46.1102 16.7109 51.3106 16.7109H60.7479V19.1523C60.7479 21.8784 60.8465 22.5244 61.4158 23.4112C61.8647 24.1119 62.4011 24.5607 63.266 24.9658L63.9777 25.3052L74.2142 25.3709L74.2361 33.5273L74.269 41.6947L74.5865 41.9684C74.9477 42.2749 75.4076 42.253 75.7689 41.9246C75.955 41.7603 75.9659 41.3115 75.9659 32.8704V23.9914L69.0357 17.0722L62.1165 10.142H50.0735C39.4975 10.1529 37.9757 10.1748 37.5487 10.3171ZM68.8934 23.5863C66.3753 23.5973 64.6236 23.5645 64.3718 23.4988C63.5178 23.2688 62.85 22.601 62.6091 21.758C62.5434 21.5281 62.4997 19.6559 62.4997 17.2036V13.0432L73.0099 23.5535L68.8934 23.5863Z" fill="#1742E7"></path><path d="M40.5923 27.035C39.8588 27.5167 39.8369 27.6591 39.8369 31.3596C39.8369 34.436 39.8478 34.7097 40.0559 35.0929C40.1982 35.3885 40.4172 35.5965 40.7456 35.7498C41.1945 35.9688 41.3915 35.9797 44.4351 35.9797C47.424 35.9797 47.6867 35.9688 48.1028 35.7607C48.3874 35.6184 48.6392 35.3885 48.7925 35.1148C49.0224 34.7097 49.0334 34.5783 49.0334 31.3705C49.0334 27.6591 49.0115 27.5167 48.278 27.035C47.9057 26.7832 47.8619 26.7832 44.4351 26.7832C41.0084 26.7832 40.9646 26.7832 40.5923 27.035ZM47.2817 34.228H41.5886V28.5349H47.2817V34.228Z" fill="#1742E7"></path><path d="M52.4383 27.0679C52.1536 27.4292 52.1427 27.889 52.4164 28.2174L52.6244 28.4802H70.0758L70.2838 28.2174C70.5575 27.889 70.5466 27.4292 70.2619 27.0679L70.043 26.7832H52.6572L52.4383 27.0679Z" fill="#1742E7"></path><path d="M52.4383 30.3523C52.1536 30.7136 52.1427 31.1734 52.4164 31.5019L52.6244 31.7646H70.0758L70.2838 31.5019C70.5575 31.1734 70.5466 30.7136 70.2619 30.3523L70.043 30.0677H52.6572L52.4383 30.3523Z" fill="#1742E7"></path><path d="M40.5923 39.4065C39.8588 39.8882 39.8369 40.0305 39.8369 43.731C39.8369 46.8075 39.8478 47.0812 40.0559 47.4644C40.1982 47.76 40.4172 47.968 40.7456 48.1212C41.1945 48.3402 41.3915 48.3512 44.4351 48.3512C47.424 48.3512 47.6867 48.3402 48.1028 48.1322C48.3874 47.9899 48.6392 47.76 48.7925 47.4863C49.0224 47.0812 49.0334 46.9498 49.0334 43.742C49.0334 40.0305 49.0115 39.8882 48.278 39.4065C47.9057 39.1547 47.8619 39.1547 44.4351 39.1547C41.0084 39.1547 40.9646 39.1547 40.5923 39.4065ZM47.2817 46.5994H41.5886V40.9064H47.2817V46.5994Z" fill="#1742E7"></path><path d="M52.4383 39.4393C52.1536 39.8006 52.1427 40.2604 52.4164 40.5889L52.6244 40.8516H70.0758L70.2838 40.5889C70.5575 40.2604 70.5466 39.8006 70.2619 39.4393L70.043 39.1547H52.6572L52.4383 39.4393Z" fill="#1742E7"></path><path d="M52.4383 42.7238C52.1536 43.0851 52.1427 43.5449 52.4164 43.8733L52.6244 44.1361H70.0758L70.2838 43.8733C70.5575 43.5449 70.5466 43.0851 70.2619 42.7238L70.043 42.4391H52.6572L52.4383 42.7238Z" fill="#1742E7"></path><path d="M40.5923 51.7779C39.8588 52.2597 39.8369 52.402 39.8369 56.1025C39.8369 59.1789 39.8478 59.4526 40.0559 59.8358C40.1982 60.1314 40.4172 60.3394 40.7456 60.4927C41.1945 60.7117 41.3915 60.7226 44.4351 60.7226C47.424 60.7226 47.6867 60.7117 48.1028 60.5037C48.3874 60.3613 48.6392 60.1314 48.7925 59.8577C49.0224 59.4526 49.0334 59.3212 49.0334 56.1134C49.0334 52.402 49.0115 52.2597 48.278 51.7779C47.9057 51.5261 47.8619 51.5261 44.4351 51.5261C41.0084 51.5261 40.9646 51.5261 40.5923 51.7779ZM47.2817 58.9709H41.5886V53.2778H47.2817V58.9709Z" fill="#1742E7"></path><path d="M52.4383 51.8108C52.1536 52.1721 52.1427 52.6319 52.4164 52.9603L52.6244 53.2231H70.0758L70.2838 52.9603C70.5575 52.6319 70.5466 52.1721 70.2619 51.8108L70.043 51.5261H52.6572L52.4383 51.8108Z" fill="#1742E7"></path><path d="M52.4383 55.0952C52.1536 55.4565 52.1427 55.9164 52.4164 56.2448L52.6244 56.5076H70.0758L70.2838 56.2448C70.5575 55.9164 70.5466 55.4565 70.2619 55.0952L70.043 54.8106H52.6572L52.4383 55.0952Z" fill="#1742E7"></path><path d="M37.5487 10.3171C36.5196 10.6784 35.7204 11.401 35.162 12.463L34.8555 13.0432V63.186L35.1511 63.81C35.5343 64.6421 36.2349 65.3756 37.0451 65.7916L37.702 66.142H73.0647L73.6997 65.8245C74.477 65.4303 75.2324 64.6421 75.6156 63.81L75.9112 63.186L75.944 53.9676C75.9659 44.8477 75.9659 44.7383 75.747 44.5193C75.4623 44.2346 74.8711 44.2346 74.5317 44.5083L74.269 44.7164L74.2142 53.7924C74.1595 61.9707 74.1376 62.8904 73.9734 63.186C73.7434 63.602 73.2836 64.029 72.791 64.2917C72.4187 64.4888 71.7837 64.4997 55.3833 64.4997H38.3589L37.921 64.2589C37.3626 63.9633 36.9356 63.5144 36.7276 62.9998C36.5743 62.6385 36.5524 60 36.5524 38.1693C36.5524 16.3386 36.5743 13.7001 36.7276 13.3388C36.9356 12.8243 37.3626 12.3754 37.921 12.0798L38.3589 11.8389L60.7479 11.7732V15.0687H50.9931C40.0559 15.0687 40.7456 15.0139 40.1872 15.8679L39.8916 16.3167V21.7142L40.2091 22.1193C40.3843 22.3492 40.7237 22.6339 40.9755 22.7433C41.4025 22.9404 41.8623 22.9514 49.8873 22.9514C58.1642 22.9514 58.3393 22.9514 58.5583 22.7324C58.8758 22.4149 58.9305 22.0427 58.7335 21.6485C58.6349 21.4624 58.5364 21.2982 58.5255 21.2872C58.5145 21.2653 54.7155 21.2325 50.0735 21.1996L41.6433 21.1449L41.6105 19.021C41.5886 17.3897 41.6215 16.8751 41.72 16.7985C41.7966 16.7547 46.1102 16.7109 51.3106 16.7109H60.7479V19.1523C60.7479 21.8784 60.8465 22.5244 61.4158 23.4112C61.8647 24.1119 62.4011 24.5607 63.266 24.9658L63.9777 25.3052L74.2142 25.3709L74.2361 33.5273L74.269 41.6947L74.5865 41.9684C74.9477 42.2749 75.4076 42.253 75.7689 41.9246C75.955 41.7603 75.9659 41.3115 75.9659 32.8704V23.9914L69.0357 17.0722L62.1165 10.142H50.0735C39.4975 10.1529 37.9757 10.1748 37.5487 10.3171ZM68.8934 23.5863C66.3753 23.5973 64.6236 23.5645 64.3718 23.4988C63.5178 23.2688 62.85 22.601 62.6091 21.758C62.5434 21.5281 62.4997 19.6559 62.4997 17.2036V13.0432L73.0099 23.5535L68.8934 23.5863Z" stroke="#1742E7" stroke-width="0.581284" mask="url(#path-1-inside-1_11010_36250)"></path><path d="M40.5923 27.035C39.8588 27.5167 39.8369 27.6591 39.8369 31.3596C39.8369 34.436 39.8478 34.7097 40.0559 35.0929C40.1982 35.3885 40.4172 35.5965 40.7456 35.7498C41.1945 35.9688 41.3915 35.9797 44.4351 35.9797C47.424 35.9797 47.6867 35.9688 48.1028 35.7607C48.3874 35.6184 48.6392 35.3885 48.7925 35.1148C49.0224 34.7097 49.0334 34.5783 49.0334 31.3705C49.0334 27.6591 49.0115 27.5167 48.278 27.035C47.9057 26.7832 47.8619 26.7832 44.4351 26.7832C41.0084 26.7832 40.9646 26.7832 40.5923 27.035ZM47.2817 34.228H41.5886V28.5349H47.2817V34.228Z" stroke="#1742E7" stroke-width="0.581284" mask="url(#path-1-inside-1_11010_36250)"></path><path d="M52.4383 27.0679C52.1536 27.4292 52.1427 27.889 52.4164 28.2174L52.6244 28.4802H70.0758L70.2838 28.2174C70.5575 27.889 70.5466 27.4292 70.2619 27.0679L70.043 26.7832H52.6572L52.4383 27.0679Z" stroke="#1742E7" stroke-width="0.581284" mask="url(#path-1-inside-1_11010_36250)"></path><path d="M52.4383 30.3523C52.1536 30.7136 52.1427 31.1734 52.4164 31.5019L52.6244 31.7646H70.0758L70.2838 31.5019C70.5575 31.1734 70.5466 30.7136 70.2619 30.3523L70.043 30.0677H52.6572L52.4383 30.3523Z" stroke="#1742E7" stroke-width="0.581284" mask="url(#path-1-inside-1_11010_36250)"></path><path d="M40.5923 39.4065C39.8588 39.8882 39.8369 40.0305 39.8369 43.731C39.8369 46.8075 39.8478 47.0812 40.0559 47.4644C40.1982 47.76 40.4172 47.968 40.7456 48.1212C41.1945 48.3402 41.3915 48.3512 44.4351 48.3512C47.424 48.3512 47.6867 48.3402 48.1028 48.1322C48.3874 47.9899 48.6392 47.76 48.7925 47.4863C49.0224 47.0812 49.0334 46.9498 49.0334 43.742C49.0334 40.0305 49.0115 39.8882 48.278 39.4065C47.9057 39.1547 47.8619 39.1547 44.4351 39.1547C41.0084 39.1547 40.9646 39.1547 40.5923 39.4065ZM47.2817 46.5994H41.5886V40.9064H47.2817V46.5994Z" stroke="#1742E7" stroke-width="0.581284" mask="url(#path-1-inside-1_11010_36250)"></path><path d="M52.4383 39.4393C52.1536 39.8006 52.1427 40.2604 52.4164 40.5889L52.6244 40.8516H70.0758L70.2838 40.5889C70.5575 40.2604 70.5466 39.8006 70.2619 39.4393L70.043 39.1547H52.6572L52.4383 39.4393Z" stroke="#1742E7" stroke-width="0.581284" mask="url(#path-1-inside-1_11010_36250)"></path><path d="M52.4383 42.7238C52.1536 43.0851 52.1427 43.5449 52.4164 43.8733L52.6244 44.1361H70.0758L70.2838 43.8733C70.5575 43.5449 70.5466 43.0851 70.2619 42.7238L70.043 42.4391H52.6572L52.4383 42.7238Z" stroke="#1742E7" stroke-width="0.581284" mask="url(#path-1-inside-1_11010_36250)"></path><path d="M40.5923 51.7779C39.8588 52.2597 39.8369 52.402 39.8369 56.1025C39.8369 59.1789 39.8478 59.4526 40.0559 59.8358C40.1982 60.1314 40.4172 60.3394 40.7456 60.4927C41.1945 60.7117 41.3915 60.7226 44.4351 60.7226C47.424 60.7226 47.6867 60.7117 48.1028 60.5037C48.3874 60.3613 48.6392 60.1314 48.7925 59.8577C49.0224 59.4526 49.0334 59.3212 49.0334 56.1134C49.0334 52.402 49.0115 52.2597 48.278 51.7779C47.9057 51.5261 47.8619 51.5261 44.4351 51.5261C41.0084 51.5261 40.9646 51.5261 40.5923 51.7779ZM47.2817 58.9709H41.5886V53.2778H47.2817V58.9709Z" stroke="#1742E7" stroke-width="0.581284" mask="url(#path-1-inside-1_11010_36250)"></path><path d="M52.4383 51.8108C52.1536 52.1721 52.1427 52.6319 52.4164 52.9603L52.6244 53.2231H70.0758L70.2838 52.9603C70.5575 52.6319 70.5466 52.1721 70.2619 51.8108L70.043 51.5261H52.6572L52.4383 51.8108Z" stroke="#1742E7" stroke-width="0.581284" mask="url(#path-1-inside-1_11010_36250)"></path><path d="M52.4383 55.0952C52.1536 55.4565 52.1427 55.9164 52.4164 56.2448L52.6244 56.5076H70.0758L70.2838 56.2448C70.5575 55.9164 70.5466 55.4565 70.2619 55.0952L70.043 54.8106H52.6572L52.4383 55.0952Z" stroke="#1742E7" stroke-width="0.581284" mask="url(#path-1-inside-1_11010_36250)"></path></svg>