<svg xmlns="http://www.w3.org/2000/svg" width="92" height="92" viewBox="0 0 92 92" fill="none"><mask id="path-1-inside-1_11349_19151" fill="white"><path d="M62.0312 10.2812C61.75 10.5625 61.75 10.7453 61.75 23.5C61.75 36.2547 61.75 36.4375 62.0312 36.7188C62.2141 36.9016 62.4953 37 62.875 37C63.2547 37 63.5359 36.9016 63.7188 36.7188C64 36.4375 64 36.2547 64 24.3438V12.25H75.25V22.0938C75.25 31.7547 75.25 31.9375 75.5312 32.2188C75.7141 32.4016 75.9953 32.5 76.375 32.5C76.7547 32.5 77.0359 32.4016 77.2188 32.2188C77.5 31.9375 77.5 31.7547 77.5 21.25C77.5 10.7453 77.5 10.5625 77.2188 10.2812C76.9516 10.0141 76.7547 10 69.625 10C62.4953 10 62.2984 10.0141 62.0312 10.2812Z"></path><path d="M38.4062 32.7812C38.1391 33.0484 38.125 33.2453 38.125 39.8125C38.125 46.3797 38.1391 46.5766 38.4062 46.8438C38.7859 47.2234 39.7141 47.2234 40.0938 46.8438C40.3609 46.5766 40.375 46.3797 40.375 40.6562V34.75H51.625V44.0312C51.625 53.1297 51.625 53.3125 51.9062 53.5938C52.0891 53.7766 52.3703 53.875 52.75 53.875C53.1297 53.875 53.4109 53.7766 53.5938 53.5938C53.875 53.3125 53.875 53.1297 53.875 43.1875C53.875 33.2453 53.875 33.0625 53.5938 32.7812C53.3266 32.5141 53.1297 32.5 46 32.5C38.8703 32.5 38.6734 32.5141 38.4062 32.7812Z"></path><path d="M72.0156 36.1C67.4875 37.45 63.4516 38.6453 63.0578 38.7578C62.1437 39.025 61.75 39.4187 61.75 40.0656C61.75 40.5016 61.9328 40.7406 63.3672 42.1891L64.9844 43.8344L49.375 59.4297L44.425 54.4937C41.5703 51.6531 39.1938 49.4031 38.8281 49.1922C36.8172 48.0531 34.3 48.1656 32.5422 49.4734C32.1484 49.7687 27.2547 54.9437 21.6578 60.9766C16.075 67.0094 11.1672 72.3109 10.7453 72.7469C10.0984 73.4359 10 73.6188 10 74.1109C10 74.8844 10.3656 75.25 11.1391 75.25C11.575 75.25 11.8 75.1656 12.0953 74.8562C12.2922 74.6453 17.2844 69.2734 23.1766 62.9312C30.6859 54.8453 34.0469 51.3016 34.4266 51.1328C35.1437 50.7812 36.0297 50.7109 36.8172 50.9219C37.4359 51.0906 37.9562 51.5687 43.1312 56.7156L48.7562 62.3125H50.0078L58.9094 53.4109C66.8547 45.4656 67.8109 44.4672 67.8953 43.9891C67.9656 43.4828 67.9375 43.4266 66.6016 42.0625C65.6594 41.1203 65.2797 40.6422 65.4203 40.5859C65.5328 40.5437 68.5281 39.6578 72.0859 38.6172C75.6438 37.5625 78.7234 36.6484 78.9203 36.5922L79.2859 36.4656L78.4703 40.4312C78.0203 42.5969 77.3172 46.0141 76.9094 48.0109L76.1641 51.625L74.8984 50.3594C72.8594 48.3203 74.4062 47.2094 61.8203 59.7672C51.6813 69.8922 51.0906 70.4547 50.3734 70.6797C49.5297 70.9469 48.6719 70.9047 47.9266 70.525C47.6875 70.3984 44.9734 67.8109 41.9219 64.7594C35.6359 58.5016 35.9453 58.7266 34.9047 59.7391C34.6094 60.0344 31.0797 64 27.0719 68.5703C23.0641 73.1266 19.0984 77.6406 18.2688 78.5828C16.8766 80.1719 16.75 80.3547 16.75 80.875C16.75 81.6344 17.1297 82 17.8891 82C18.3813 82 18.55 81.9156 18.9578 81.4797C19.2109 81.1844 23.1484 76.7266 27.6906 71.5656L35.9453 62.1859L41.0078 67.2203C46.4641 72.6625 46.675 72.8312 48.4469 73.1547C49.5297 73.3516 50.7953 73.1828 51.8922 72.6906C52.3984 72.4656 54.775 70.1594 62.8047 62.1437L73.0703 51.9062L74.6875 53.5234C76.3047 55.1547 76.3047 55.1547 76.9234 55.1125C77.3875 55.0844 77.5984 54.9859 77.7953 54.7188C78.0766 54.325 82 35.6922 82 34.7219C82 33.9766 81.6203 33.625 80.8469 33.6391C80.5094 33.6391 76.5437 34.75 72.0156 36.1Z"></path><path d="M14.7812 46.2812C14.5 46.5625 14.5 46.7453 14.5 55.5625C14.5 64.3797 14.5 64.5625 14.7812 64.8438C14.9641 65.0266 15.2453 65.125 15.625 65.125C16.0047 65.125 16.2859 65.0266 16.4688 64.8438C16.75 64.5625 16.75 64.3797 16.75 56.4062V48.25H28V49.0938C28 50.1484 28.2812 50.5 29.125 50.5C30.1094 50.5 30.25 50.2188 30.25 48.25C30.25 46.7453 30.2219 46.5344 29.9688 46.2812C29.7016 46.0141 29.5047 46 22.375 46C15.2453 46 15.0484 46.0141 14.7812 46.2812Z"></path><path d="M75.5312 57.5312C75.25 57.8125 75.25 57.9953 75.25 69.625C75.25 81.2547 75.25 81.4375 75.5312 81.7188C75.9109 82.0984 76.8391 82.0984 77.2188 81.7188C77.5 81.4375 77.5 81.2547 77.5 69.625C77.5 57.9953 77.5 57.8125 77.2188 57.5312C77.0359 57.3484 76.7547 57.25 76.375 57.25C75.9953 57.25 75.7141 57.3484 75.5312 57.5312Z"></path><path d="M62.0312 64.2812C61.75 64.5625 61.75 64.7453 61.75 73C61.75 81.2547 61.75 81.4375 62.0312 81.7188C62.2141 81.9016 62.4953 82 62.875 82C63.2547 82 63.5359 81.9016 63.7188 81.7188C64 81.4375 64 81.2547 64 73C64 64.7453 64 64.5625 63.7188 64.2812C63.5359 64.0984 63.2547 64 62.875 64C62.4953 64 62.2141 64.0984 62.0312 64.2812Z"></path><path d="M38.4062 67.6562C38.1391 67.9234 38.125 68.1203 38.125 74.6875C38.125 81.2547 38.1391 81.4516 38.4062 81.7188C38.7859 82.0984 39.7141 82.0984 40.0938 81.7188C40.3609 81.4516 40.375 81.2547 40.375 74.6875C40.375 68.1203 40.3609 67.9234 40.0938 67.6562C39.9109 67.4734 39.6297 67.375 39.25 67.375C38.8703 67.375 38.5891 67.4734 38.4062 67.6562Z"></path><path d="M28.2812 73.2812C28.0141 73.5484 28 73.7453 28 77.5C28 81.2547 28.0141 81.4516 28.2812 81.7188C28.4641 81.9016 28.7453 82 29.125 82C29.5047 82 29.7859 81.9016 29.9688 81.7188C30.2359 81.4516 30.25 81.2547 30.25 77.5C30.25 73.7453 30.2359 73.5484 29.9688 73.2812C29.7859 73.0984 29.5047 73 29.125 73C28.7453 73 28.4641 73.0984 28.2812 73.2812Z"></path><path d="M51.9062 74.4062C51.6391 74.6734 51.625 74.8703 51.625 78.0625C51.625 81.2547 51.6391 81.4516 51.9062 81.7188C52.2859 82.0984 53.2141 82.0984 53.5938 81.7188C53.8609 81.4516 53.875 81.2547 53.875 78.0625C53.875 74.8703 53.8609 74.6734 53.5938 74.4062C53.4109 74.2234 53.1297 74.125 52.75 74.125C52.3703 74.125 52.0891 74.2234 51.9062 74.4062Z"></path></mask><path d="M62.0312 10.2812C61.75 10.5625 61.75 10.7453 61.75 23.5C61.75 36.2547 61.75 36.4375 62.0312 36.7188C62.2141 36.9016 62.4953 37 62.875 37C63.2547 37 63.5359 36.9016 63.7188 36.7188C64 36.4375 64 36.2547 64 24.3438V12.25H75.25V22.0938C75.25 31.7547 75.25 31.9375 75.5312 32.2188C75.7141 32.4016 75.9953 32.5 76.375 32.5C76.7547 32.5 77.0359 32.4016 77.2188 32.2188C77.5 31.9375 77.5 31.7547 77.5 21.25C77.5 10.7453 77.5 10.5625 77.2188 10.2812C76.9516 10.0141 76.7547 10 69.625 10C62.4953 10 62.2984 10.0141 62.0312 10.2812Z" fill="#1742E7"></path><path d="M38.4062 32.7812C38.1391 33.0484 38.125 33.2453 38.125 39.8125C38.125 46.3797 38.1391 46.5766 38.4062 46.8438C38.7859 47.2234 39.7141 47.2234 40.0938 46.8438C40.3609 46.5766 40.375 46.3797 40.375 40.6562V34.75H51.625V44.0312C51.625 53.1297 51.625 53.3125 51.9062 53.5938C52.0891 53.7766 52.3703 53.875 52.75 53.875C53.1297 53.875 53.4109 53.7766 53.5938 53.5938C53.875 53.3125 53.875 53.1297 53.875 43.1875C53.875 33.2453 53.875 33.0625 53.5938 32.7812C53.3266 32.5141 53.1297 32.5 46 32.5C38.8703 32.5 38.6734 32.5141 38.4062 32.7812Z" fill="#1742E7"></path><path d="M72.0156 36.1C67.4875 37.45 63.4516 38.6453 63.0578 38.7578C62.1437 39.025 61.75 39.4187 61.75 40.0656C61.75 40.5016 61.9328 40.7406 63.3672 42.1891L64.9844 43.8344L49.375 59.4297L44.425 54.4937C41.5703 51.6531 39.1938 49.4031 38.8281 49.1922C36.8172 48.0531 34.3 48.1656 32.5422 49.4734C32.1484 49.7687 27.2547 54.9437 21.6578 60.9766C16.075 67.0094 11.1672 72.3109 10.7453 72.7469C10.0984 73.4359 10 73.6188 10 74.1109C10 74.8844 10.3656 75.25 11.1391 75.25C11.575 75.25 11.8 75.1656 12.0953 74.8562C12.2922 74.6453 17.2844 69.2734 23.1766 62.9312C30.6859 54.8453 34.0469 51.3016 34.4266 51.1328C35.1437 50.7812 36.0297 50.7109 36.8172 50.9219C37.4359 51.0906 37.9562 51.5687 43.1312 56.7156L48.7562 62.3125H50.0078L58.9094 53.4109C66.8547 45.4656 67.8109 44.4672 67.8953 43.9891C67.9656 43.4828 67.9375 43.4266 66.6016 42.0625C65.6594 41.1203 65.2797 40.6422 65.4203 40.5859C65.5328 40.5437 68.5281 39.6578 72.0859 38.6172C75.6438 37.5625 78.7234 36.6484 78.9203 36.5922L79.2859 36.4656L78.4703 40.4312C78.0203 42.5969 77.3172 46.0141 76.9094 48.0109L76.1641 51.625L74.8984 50.3594C72.8594 48.3203 74.4062 47.2094 61.8203 59.7672C51.6813 69.8922 51.0906 70.4547 50.3734 70.6797C49.5297 70.9469 48.6719 70.9047 47.9266 70.525C47.6875 70.3984 44.9734 67.8109 41.9219 64.7594C35.6359 58.5016 35.9453 58.7266 34.9047 59.7391C34.6094 60.0344 31.0797 64 27.0719 68.5703C23.0641 73.1266 19.0984 77.6406 18.2688 78.5828C16.8766 80.1719 16.75 80.3547 16.75 80.875C16.75 81.6344 17.1297 82 17.8891 82C18.3813 82 18.55 81.9156 18.9578 81.4797C19.2109 81.1844 23.1484 76.7266 27.6906 71.5656L35.9453 62.1859L41.0078 67.2203C46.4641 72.6625 46.675 72.8312 48.4469 73.1547C49.5297 73.3516 50.7953 73.1828 51.8922 72.6906C52.3984 72.4656 54.775 70.1594 62.8047 62.1437L73.0703 51.9062L74.6875 53.5234C76.3047 55.1547 76.3047 55.1547 76.9234 55.1125C77.3875 55.0844 77.5984 54.9859 77.7953 54.7188C78.0766 54.325 82 35.6922 82 34.7219C82 33.9766 81.6203 33.625 80.8469 33.6391C80.5094 33.6391 76.5437 34.75 72.0156 36.1Z" fill="#1742E7"></path><path d="M14.7812 46.2812C14.5 46.5625 14.5 46.7453 14.5 55.5625C14.5 64.3797 14.5 64.5625 14.7812 64.8438C14.9641 65.0266 15.2453 65.125 15.625 65.125C16.0047 65.125 16.2859 65.0266 16.4688 64.8438C16.75 64.5625 16.75 64.3797 16.75 56.4062V48.25H28V49.0938C28 50.1484 28.2812 50.5 29.125 50.5C30.1094 50.5 30.25 50.2188 30.25 48.25C30.25 46.7453 30.2219 46.5344 29.9688 46.2812C29.7016 46.0141 29.5047 46 22.375 46C15.2453 46 15.0484 46.0141 14.7812 46.2812Z" fill="#1742E7"></path><path d="M75.5312 57.5312C75.25 57.8125 75.25 57.9953 75.25 69.625C75.25 81.2547 75.25 81.4375 75.5312 81.7188C75.9109 82.0984 76.8391 82.0984 77.2188 81.7188C77.5 81.4375 77.5 81.2547 77.5 69.625C77.5 57.9953 77.5 57.8125 77.2188 57.5312C77.0359 57.3484 76.7547 57.25 76.375 57.25C75.9953 57.25 75.7141 57.3484 75.5312 57.5312Z" fill="#1742E7"></path><path d="M62.0312 64.2812C61.75 64.5625 61.75 64.7453 61.75 73C61.75 81.2547 61.75 81.4375 62.0312 81.7188C62.2141 81.9016 62.4953 82 62.875 82C63.2547 82 63.5359 81.9016 63.7188 81.7188C64 81.4375 64 81.2547 64 73C64 64.7453 64 64.5625 63.7188 64.2812C63.5359 64.0984 63.2547 64 62.875 64C62.4953 64 62.2141 64.0984 62.0312 64.2812Z" fill="#1742E7"></path><path d="M38.4062 67.6562C38.1391 67.9234 38.125 68.1203 38.125 74.6875C38.125 81.2547 38.1391 81.4516 38.4062 81.7188C38.7859 82.0984 39.7141 82.0984 40.0938 81.7188C40.3609 81.4516 40.375 81.2547 40.375 74.6875C40.375 68.1203 40.3609 67.9234 40.0938 67.6562C39.9109 67.4734 39.6297 67.375 39.25 67.375C38.8703 67.375 38.5891 67.4734 38.4062 67.6562Z" fill="#1742E7"></path><path d="M28.2812 73.2812C28.0141 73.5484 28 73.7453 28 77.5C28 81.2547 28.0141 81.4516 28.2812 81.7188C28.4641 81.9016 28.7453 82 29.125 82C29.5047 82 29.7859 81.9016 29.9688 81.7188C30.2359 81.4516 30.25 81.2547 30.25 77.5C30.25 73.7453 30.2359 73.5484 29.9688 73.2812C29.7859 73.0984 29.5047 73 29.125 73C28.7453 73 28.4641 73.0984 28.2812 73.2812Z" fill="#1742E7"></path><path d="M51.9062 74.4062C51.6391 74.6734 51.625 74.8703 51.625 78.0625C51.625 81.2547 51.6391 81.4516 51.9062 81.7188C52.2859 82.0984 53.2141 82.0984 53.5938 81.7188C53.8609 81.4516 53.875 81.2547 53.875 78.0625C53.875 74.8703 53.8609 74.6734 53.5938 74.4062C53.4109 74.2234 53.1297 74.125 52.75 74.125C52.3703 74.125 52.0891 74.2234 51.9062 74.4062Z" fill="#1742E7"></path><path d="M62.0312 10.2812C61.75 10.5625 61.75 10.7453 61.75 23.5C61.75 36.2547 61.75 36.4375 62.0312 36.7188C62.2141 36.9016 62.4953 37 62.875 37C63.2547 37 63.5359 36.9016 63.7188 36.7188C64 36.4375 64 36.2547 64 24.3438V12.25H75.25V22.0938C75.25 31.7547 75.25 31.9375 75.5312 32.2188C75.7141 32.4016 75.9953 32.5 76.375 32.5C76.7547 32.5 77.0359 32.4016 77.2188 32.2188C77.5 31.9375 77.5 31.7547 77.5 21.25C77.5 10.7453 77.5 10.5625 77.2188 10.2812C76.9516 10.0141 76.7547 10 69.625 10C62.4953 10 62.2984 10.0141 62.0312 10.2812Z" stroke="#1742E7" stroke-width="0.665067" mask="url(#path-1-inside-1_11349_19151)"></path><path d="M38.4062 32.7812C38.1391 33.0484 38.125 33.2453 38.125 39.8125C38.125 46.3797 38.1391 46.5766 38.4062 46.8438C38.7859 47.2234 39.7141 47.2234 40.0938 46.8438C40.3609 46.5766 40.375 46.3797 40.375 40.6562V34.75H51.625V44.0312C51.625 53.1297 51.625 53.3125 51.9062 53.5938C52.0891 53.7766 52.3703 53.875 52.75 53.875C53.1297 53.875 53.4109 53.7766 53.5938 53.5938C53.875 53.3125 53.875 53.1297 53.875 43.1875C53.875 33.2453 53.875 33.0625 53.5938 32.7812C53.3266 32.5141 53.1297 32.5 46 32.5C38.8703 32.5 38.6734 32.5141 38.4062 32.7812Z" stroke="#1742E7" stroke-width="0.665067" mask="url(#path-1-inside-1_11349_19151)"></path><path d="M72.0156 36.1C67.4875 37.45 63.4516 38.6453 63.0578 38.7578C62.1437 39.025 61.75 39.4187 61.75 40.0656C61.75 40.5016 61.9328 40.7406 63.3672 42.1891L64.9844 43.8344L49.375 59.4297L44.425 54.4937C41.5703 51.6531 39.1938 49.4031 38.8281 49.1922C36.8172 48.0531 34.3 48.1656 32.5422 49.4734C32.1484 49.7687 27.2547 54.9437 21.6578 60.9766C16.075 67.0094 11.1672 72.3109 10.7453 72.7469C10.0984 73.4359 10 73.6188 10 74.1109C10 74.8844 10.3656 75.25 11.1391 75.25C11.575 75.25 11.8 75.1656 12.0953 74.8562C12.2922 74.6453 17.2844 69.2734 23.1766 62.9312C30.6859 54.8453 34.0469 51.3016 34.4266 51.1328C35.1437 50.7812 36.0297 50.7109 36.8172 50.9219C37.4359 51.0906 37.9562 51.5687 43.1312 56.7156L48.7562 62.3125H50.0078L58.9094 53.4109C66.8547 45.4656 67.8109 44.4672 67.8953 43.9891C67.9656 43.4828 67.9375 43.4266 66.6016 42.0625C65.6594 41.1203 65.2797 40.6422 65.4203 40.5859C65.5328 40.5437 68.5281 39.6578 72.0859 38.6172C75.6438 37.5625 78.7234 36.6484 78.9203 36.5922L79.2859 36.4656L78.4703 40.4312C78.0203 42.5969 77.3172 46.0141 76.9094 48.0109L76.1641 51.625L74.8984 50.3594C72.8594 48.3203 74.4062 47.2094 61.8203 59.7672C51.6813 69.8922 51.0906 70.4547 50.3734 70.6797C49.5297 70.9469 48.6719 70.9047 47.9266 70.525C47.6875 70.3984 44.9734 67.8109 41.9219 64.7594C35.6359 58.5016 35.9453 58.7266 34.9047 59.7391C34.6094 60.0344 31.0797 64 27.0719 68.5703C23.0641 73.1266 19.0984 77.6406 18.2688 78.5828C16.8766 80.1719 16.75 80.3547 16.75 80.875C16.75 81.6344 17.1297 82 17.8891 82C18.3813 82 18.55 81.9156 18.9578 81.4797C19.2109 81.1844 23.1484 76.7266 27.6906 71.5656L35.9453 62.1859L41.0078 67.2203C46.4641 72.6625 46.675 72.8312 48.4469 73.1547C49.5297 73.3516 50.7953 73.1828 51.8922 72.6906C52.3984 72.4656 54.775 70.1594 62.8047 62.1437L73.0703 51.9062L74.6875 53.5234C76.3047 55.1547 76.3047 55.1547 76.9234 55.1125C77.3875 55.0844 77.5984 54.9859 77.7953 54.7188C78.0766 54.325 82 35.6922 82 34.7219C82 33.9766 81.6203 33.625 80.8469 33.6391C80.5094 33.6391 76.5437 34.75 72.0156 36.1Z" stroke="#1742E7" stroke-width="0.665067" mask="url(#path-1-inside-1_11349_19151)"></path><path d="M14.7812 46.2812C14.5 46.5625 14.5 46.7453 14.5 55.5625C14.5 64.3797 14.5 64.5625 14.7812 64.8438C14.9641 65.0266 15.2453 65.125 15.625 65.125C16.0047 65.125 16.2859 65.0266 16.4688 64.8438C16.75 64.5625 16.75 64.3797 16.75 56.4062V48.25H28V49.0938C28 50.1484 28.2812 50.5 29.125 50.5C30.1094 50.5 30.25 50.2188 30.25 48.25C30.25 46.7453 30.2219 46.5344 29.9688 46.2812C29.7016 46.0141 29.5047 46 22.375 46C15.2453 46 15.0484 46.0141 14.7812 46.2812Z" stroke="#1742E7" stroke-width="0.665067" mask="url(#path-1-inside-1_11349_19151)"></path><path d="M75.5312 57.5312C75.25 57.8125 75.25 57.9953 75.25 69.625C75.25 81.2547 75.25 81.4375 75.5312 81.7188C75.9109 82.0984 76.8391 82.0984 77.2188 81.7188C77.5 81.4375 77.5 81.2547 77.5 69.625C77.5 57.9953 77.5 57.8125 77.2188 57.5312C77.0359 57.3484 76.7547 57.25 76.375 57.25C75.9953 57.25 75.7141 57.3484 75.5312 57.5312Z" stroke="#1742E7" stroke-width="0.665067" mask="url(#path-1-inside-1_11349_19151)"></path><path d="M62.0312 64.2812C61.75 64.5625 61.75 64.7453 61.75 73C61.75 81.2547 61.75 81.4375 62.0312 81.7188C62.2141 81.9016 62.4953 82 62.875 82C63.2547 82 63.5359 81.9016 63.7188 81.7188C64 81.4375 64 81.2547 64 73C64 64.7453 64 64.5625 63.7188 64.2812C63.5359 64.0984 63.2547 64 62.875 64C62.4953 64 62.2141 64.0984 62.0312 64.2812Z" stroke="#1742E7" stroke-width="0.665067" mask="url(#path-1-inside-1_11349_19151)"></path><path d="M38.4062 67.6562C38.1391 67.9234 38.125 68.1203 38.125 74.6875C38.125 81.2547 38.1391 81.4516 38.4062 81.7188C38.7859 82.0984 39.7141 82.0984 40.0938 81.7188C40.3609 81.4516 40.375 81.2547 40.375 74.6875C40.375 68.1203 40.3609 67.9234 40.0938 67.6562C39.9109 67.4734 39.6297 67.375 39.25 67.375C38.8703 67.375 38.5891 67.4734 38.4062 67.6562Z" stroke="#1742E7" stroke-width="0.665067" mask="url(#path-1-inside-1_11349_19151)"></path><path d="M28.2812 73.2812C28.0141 73.5484 28 73.7453 28 77.5C28 81.2547 28.0141 81.4516 28.2812 81.7188C28.4641 81.9016 28.7453 82 29.125 82C29.5047 82 29.7859 81.9016 29.9688 81.7188C30.2359 81.4516 30.25 81.2547 30.25 77.5C30.25 73.7453 30.2359 73.5484 29.9688 73.2812C29.7859 73.0984 29.5047 73 29.125 73C28.7453 73 28.4641 73.0984 28.2812 73.2812Z" stroke="#1742E7" stroke-width="0.665067" mask="url(#path-1-inside-1_11349_19151)"></path><path d="M51.9062 74.4062C51.6391 74.6734 51.625 74.8703 51.625 78.0625C51.625 81.2547 51.6391 81.4516 51.9062 81.7188C52.2859 82.0984 53.2141 82.0984 53.5938 81.7188C53.8609 81.4516 53.875 81.2547 53.875 78.0625C53.875 74.8703 53.8609 74.6734 53.5938 74.4062C53.4109 74.2234 53.1297 74.125 52.75 74.125C52.3703 74.125 52.0891 74.2234 51.9062 74.4062Z" stroke="#1742E7" stroke-width="0.665067" mask="url(#path-1-inside-1_11349_19151)"></path></svg>