<svg xmlns="http://www.w3.org/2000/svg" width="102" height="92" viewBox="0 0 102 92" fill="none"><path d="M62.295 10.1153C60.4502 10.4942 58.9182 12.059 58.6876 13.7721L58.5723 14.5628H56.1509C53.9107 14.5628 53.6801 14.5957 53.1859 14.9252C52.0988 15.6664 51.9505 16.0288 51.9011 18.1373C51.8681 19.175 51.8846 20.2951 51.9505 20.6081C52.0823 21.3658 53.153 22.42 53.9107 22.5683L54.5037 22.6671V23.886C54.5037 24.9567 54.4707 25.105 54.2072 25.105C53.6636 25.105 50.6492 25.9451 49.2326 26.5051C47.4536 27.1805 45.6746 28.07 44.2415 28.9924C43.6321 29.3877 43.072 29.7172 43.0061 29.7172C42.9402 29.7172 42.5449 29.3713 42.1496 28.9595C40.98 27.7735 40.0411 27.4276 38.8716 27.7405C38.3774 27.8723 37.7844 28.3171 36.6314 29.4207C34.6547 31.2985 34.0782 32.0233 33.897 32.8634C33.6499 33.9011 33.9629 34.7247 35.0006 35.8119C35.4948 36.3225 35.8901 36.8002 35.8901 36.8496C35.8901 36.9155 35.5607 37.4591 35.1654 38.0686C31.2944 44.0645 29.8778 51.9381 31.3768 59.1694C31.5085 59.8283 31.6568 60.4707 31.7062 60.586C31.7721 60.7508 31.525 60.8331 30.7673 60.8825C29.8943 60.9484 29.6801 61.0308 29.3342 61.4261C29.0212 61.805 28.9554 62.0191 29.0377 62.4803C29.186 63.4357 29.5978 63.6499 31.2615 63.6499H32.6945L33.2381 64.9512C34.4571 67.9162 36.5655 70.9306 39.3493 73.6979C41.7048 76.0534 43.6979 77.4865 46.6794 78.969C50.3692 80.7974 53.3177 81.621 57.3369 81.9175C71.7171 83.0047 84.7137 73.2367 87.6128 59.1365C89.227 51.2957 87.4151 42.7796 82.8194 36.5202L82.1769 35.6636L85.4384 35.6142C88.634 35.5648 88.6999 35.5648 89.4412 35.1201C90.3307 34.593 91.006 33.8517 91.4178 32.9293C91.6979 32.3198 91.7308 31.6115 91.7308 22.8812V13.4921L91.3355 12.6685C90.8578 11.6472 90.0836 10.906 89.0129 10.4118L88.1893 10.0329L75.5881 10C68.6533 10 62.6739 10.0494 62.295 10.1153ZM88.074 13.1132C89.0458 13.7886 89.0129 13.4427 89.0623 22.2224C89.0953 26.6534 89.0623 30.6067 89.0129 31.002C88.947 31.4468 88.7329 31.908 88.4364 32.2374L87.9751 32.7645L71.7665 32.9293L67.352 37.4756V35.5978C67.352 33.8023 67.3355 33.7199 66.9237 33.3246C66.5284 32.9622 66.3307 32.9293 64.4364 32.8469L62.3774 32.7645L61.8997 32.221L61.422 31.6938V22.9471C61.422 15.7488 61.455 14.1345 61.6526 13.7721C61.8668 13.3603 62.2456 13.0803 62.9045 12.8497C63.0363 12.8167 68.6698 12.7838 75.4234 12.8003C86.5585 12.8332 87.7281 12.8662 88.074 13.1132ZM58.6217 19.8339H54.6684V17.3631H58.6217V19.8339ZM58.6217 24.6108H57.304V22.6342H58.6217V24.6108ZM58.6217 30.5243L57.8475 30.6232C57.4028 30.6726 56.7274 30.7549 56.3156 30.8044C54.9484 30.9526 52.1317 31.7268 50.7151 32.3363C47.5854 33.687 45.3616 35.2189 43.0226 37.6897C39.9258 40.9183 38.015 44.6739 37.1091 49.2367C36.6643 51.4605 36.7137 55.595 37.1914 57.8846C39.1681 67.1914 46.4653 74.2085 55.7885 75.7569C57.8311 76.1028 62.2786 76.0205 64.1399 75.6087C68.505 74.6368 72.3595 72.5613 75.4563 69.514C78.5037 66.4995 80.4474 63.1227 81.551 58.8729C81.9793 57.2257 82.0616 56.5998 82.1275 54.1454C82.2593 49.8132 81.6169 46.7165 79.8544 43.175C78.7013 40.8688 77.5647 39.271 75.654 37.3273L74.0067 35.6472H78.4707L79.2943 36.652C82.4734 40.49 84.4007 44.7892 85.1584 49.7309C85.4549 51.6416 85.4055 55.4961 85.0596 57.4728C84.1207 62.8592 81.4522 67.9985 77.6142 71.7542C74.1056 75.1969 69.3122 77.7665 64.6341 78.7054C57.9134 80.0561 50.8798 78.656 45.1804 74.8509C34.3253 67.6032 30.5202 53.503 36.3019 41.8901C39.8105 34.8071 46.317 29.7007 54.0095 28.0041C55.3602 27.7076 57.0239 27.4605 58.0123 27.4276L58.6217 27.4111V30.5243ZM39.2175 33.0281L37.7844 34.4612L37.2409 33.9505L36.7137 33.4399L39.5799 30.5408L40.6506 31.5785L39.2175 33.0281ZM59.8242 34.2141C60.8455 35.2683 61.8009 35.6472 63.4316 35.6472H64.5517V41.4454L65.0294 41.9231C65.5401 42.4337 66.0013 42.5161 66.5778 42.2196C66.7755 42.1043 67.945 40.9842 69.1804 39.6993L71.4206 37.3767L72.063 37.8709C73.1008 38.6616 74.5339 40.177 75.5551 41.5442C77.3341 43.9491 78.5531 46.7988 79.1461 49.8956C79.5085 51.9052 79.3931 56.0727 78.899 57.8846C77.8448 61.805 76.2305 64.6876 73.5455 67.3726C70.5641 70.3376 67.0061 72.1989 62.8221 72.9731C60.6478 73.3684 56.8098 73.2202 54.6684 72.6601C46.5641 70.5352 40.6835 63.7652 39.6787 55.4467C38.7398 47.7213 42.8579 39.8311 49.8915 35.8448C51.8187 34.7577 54.7178 33.8188 57.0075 33.5223C58.9182 33.2752 58.8853 33.2587 59.8242 34.2141Z" fill="#1742E7"></path><path d="M66.2648 15.7488C65.4906 16.1112 65.3259 17.3136 65.9519 17.9396L66.3472 18.3514H84.0054L84.4007 17.9396C84.8125 17.5443 84.9278 16.8689 84.7137 16.2924C84.4336 15.5676 84.1536 15.5511 75.1433 15.5676C69.6251 15.5676 66.479 15.6335 66.2648 15.7488Z" fill="#1742E7"></path><path d="M65.9519 21.8929C65.1941 22.6341 65.5565 23.9519 66.5778 24.199C66.7755 24.2484 70.8276 24.2649 75.5551 24.2484L84.1865 24.199L84.4995 23.8037C84.9443 23.2601 84.9113 22.3871 84.4007 21.8929L84.0054 21.4811H66.3472L65.9519 21.8929Z" fill="#1742E7"></path><path d="M65.886 27.8394C65.4247 28.4159 65.4577 29.1077 65.9354 29.6678L66.3307 30.129H83.9559L84.3842 29.7337C84.9113 29.2395 84.9443 28.4488 84.4666 27.8394L84.1371 27.4111H66.2154L65.886 27.8394Z" fill="#1742E7"></path><path d="M58.49 35.3671C58.177 35.6966 58.1276 35.9437 58.1276 37.2614C58.1276 38.5463 58.177 38.8263 58.457 39.1063C59.1159 39.7652 60.1701 39.6664 60.6972 38.8757C60.9114 38.5463 60.9443 38.1509 60.9114 37.0308C60.8455 35.7789 60.7961 35.5813 60.4501 35.3012C59.9066 34.8565 58.9347 34.8894 58.49 35.3671Z" fill="#1742E7"></path><path d="M46.5147 40.3417C46.2182 40.6218 46.1029 40.9183 46.1029 41.3465C46.1029 41.8737 46.2347 42.0878 47.0583 42.9114C47.5689 43.422 48.1949 43.8997 48.4419 43.9656C49.3808 44.1962 50.3692 43.2079 50.1386 42.269C50.0727 42.0219 49.595 41.396 49.0844 40.8853C48.2607 40.0617 48.0466 39.9299 47.5195 39.9299C47.0912 39.9299 46.7947 40.0452 46.5147 40.3417Z" fill="#1742E7"></path><path d="M69.8722 40.9677C68.9827 41.8736 68.8345 42.1043 68.8345 42.5984C68.8345 43.0596 68.9498 43.2903 69.3616 43.6362C70.1358 44.2951 70.6629 44.1139 71.9477 42.8126C72.9361 41.7913 72.9855 41.7089 72.9031 41.1159C72.7713 40.3582 72.2772 39.9299 71.503 39.9299C71.0088 39.9299 70.7617 40.0782 69.8722 40.9677Z" fill="#1742E7"></path><path d="M58.5394 42.3184C58.1276 42.7137 58.1276 42.7302 58.1276 45.9258V49.1543L57.5181 49.4673C55.6567 50.4227 54.7837 52.5476 55.3767 54.6066C55.9203 56.435 57.5016 57.5716 59.4948 57.5716C60.1042 57.5716 60.829 57.4563 61.1914 57.3081C61.9491 56.9951 63.1351 55.875 63.3987 55.2326L63.5963 54.7714L66.8743 54.7219C69.9546 54.6725 70.1687 54.6561 70.4982 54.3266C70.9923 53.8324 70.9923 52.91 70.4817 52.3664L70.1028 51.9546H63.6457L63.201 51.131C62.7563 50.3403 61.6032 49.3191 61.142 49.3191C60.9773 49.3191 60.9278 48.7096 60.9278 46.1894C60.9278 44.2621 60.8619 42.9279 60.7466 42.6808C60.3678 41.8572 59.1818 41.6595 58.5394 42.3184ZM60.4007 52.2017C60.9773 52.6959 61.1255 53.223 60.829 53.9148C60.5819 54.5078 59.8077 54.9031 59.1818 54.7878C58.6876 54.689 57.9628 53.8654 57.9628 53.3877C57.9793 52.5806 58.7535 51.8064 59.5606 51.7899C59.7583 51.7899 60.1372 51.9711 60.4007 52.2017Z" fill="#1742E7"></path><path d="M41.5236 52.3335C41.0624 52.8112 41.0459 53.7501 41.4742 54.2772C41.7542 54.6231 41.9519 54.6725 43.2861 54.7219C44.7522 54.7878 44.7851 54.7878 45.2793 54.2937C45.8229 53.7336 45.8887 53.3218 45.5264 52.63C45.2134 52.0205 45.0157 51.9546 43.3191 51.9546C42.0178 51.9546 41.8366 51.9876 41.5236 52.3335Z" fill="#1742E7"></path><path d="M73.6938 52.3664C73.0184 53.0253 73.1502 54.096 73.9573 54.5078C74.5009 54.8043 76.5435 54.8372 77.12 54.5737C77.9436 54.1948 78.1413 53.0088 77.4824 52.3664C77.12 51.9876 76.9553 51.9546 75.5881 51.9546C74.2209 51.9546 74.0562 51.9876 73.6938 52.3664Z" fill="#1742E7"></path><path d="M47.1406 63.6993C46.3006 64.5558 46.1029 64.8523 46.1029 65.2806C46.1029 65.5771 46.1688 65.9395 46.2676 66.1042C46.4653 66.4995 47.3218 66.8455 47.7995 66.7137C48.3431 66.5819 50.2209 64.5888 50.2209 64.144C50.2209 63.3039 49.595 62.678 48.7549 62.6615C48.2772 62.6615 48.0301 62.8262 47.1406 63.6993Z" fill="#1742E7"></path><path d="M69.2463 63.0733C68.5709 63.7322 68.6862 64.4899 69.6087 65.4783C70.9264 66.8949 71.6677 67.0925 72.4913 66.2854C73.249 65.5112 73.0843 64.8359 71.8159 63.6004C70.9923 62.8098 70.7453 62.6615 70.2511 62.6615C69.8228 62.6615 69.5263 62.7768 69.2463 63.0733Z" fill="#1742E7"></path><path d="M58.5394 67.5208C58.1605 67.8832 58.1276 68.0479 58.1276 69.4151C58.1276 70.7823 58.1605 70.947 58.5394 71.3094C59.1818 71.9683 60.3678 71.7706 60.7466 70.947C61.0102 70.3705 60.9773 68.328 60.6808 67.7844C60.269 66.9772 59.1983 66.8455 58.5394 67.5208Z" fill="#1742E7"></path><path d="M11.7255 43.0596C10.9348 43.3726 10.7701 44.6245 11.429 45.2834L11.8243 45.6952H19.2038L19.5827 45.2834C20.1263 44.6904 20.0933 43.7844 19.5003 43.2738C19.0885 42.9114 18.9897 42.8949 15.5799 42.9114C13.6527 42.9114 11.9231 42.9773 11.7255 43.0596Z" fill="#1742E7"></path><path d="M22.9595 43.0926C22.1029 43.5538 21.9382 44.608 22.63 45.2834L23.0254 45.6952H26.6987C29.3342 45.6787 30.4543 45.6293 30.6355 45.4811C31.3932 44.9045 31.4097 43.8174 30.6685 43.2244C30.2731 42.9114 30.0096 42.8949 26.7646 42.8949C24.5738 42.8949 23.1736 42.9773 22.9595 43.0926Z" fill="#1742E7"></path><path d="M16.9471 49.3191C16.5848 49.6815 16.5024 50.6039 16.7824 51.131C17.0624 51.6581 17.8696 51.7899 21.0652 51.7899C24.2608 51.7899 25.0679 51.6581 25.3479 51.131C25.6444 50.571 25.5456 49.7309 25.1338 49.352C24.7549 49.0061 24.6232 48.9896 21.0158 48.9896C17.4907 48.9896 17.2601 49.0061 16.9471 49.3191Z" fill="#1742E7"></path><path d="M10.4571 55.2655C9.84763 55.7432 9.84763 56.8963 10.4571 57.374C10.8689 57.7034 11.0995 57.7199 14.3445 57.7199C17.7707 57.7199 17.7872 57.7199 18.1826 57.3081C18.7426 56.7645 18.7426 55.875 18.1826 55.3314C17.7872 54.9196 17.7707 54.9196 14.3445 54.9196C11.0995 54.9196 10.8689 54.9361 10.4571 55.2655Z" fill="#1742E7"></path><path d="M21.3123 55.2985C20.9664 55.5785 20.8675 55.8256 20.8675 56.3197C20.8675 56.8139 20.9664 57.061 21.3123 57.341C21.7241 57.7034 21.8229 57.7199 25.3644 57.7199H28.9883L29.3836 57.3081C29.6637 57.0445 29.7954 56.7315 29.7954 56.3197C29.7954 55.9079 29.6637 55.595 29.3836 55.3314L28.9883 54.9196H25.3644C21.8229 54.9196 21.7241 54.9361 21.3123 55.2985Z" fill="#1742E7"></path><path d="M17.3589 61.0473C16.5189 61.492 16.3377 62.6615 16.9966 63.2875C17.3589 63.6334 17.5072 63.6499 21.0817 63.6499C24.7549 63.6499 24.8044 63.6499 25.1503 63.271C25.5291 62.8592 25.628 62.0356 25.3479 61.5085C25.2656 61.3438 24.9526 61.1296 24.6726 61.0308C23.9643 60.7837 17.8037 60.8002 17.3589 61.0473Z" fill="#1742E7"></path></svg>