<svg xmlns="http://www.w3.org/2000/svg" width="111" height="77" viewBox="0 0 111 77" fill="none"><mask id="path-1-inside-1_11010_36256" fill="white"><path d="M60.1471 17.6927C58.5838 17.3356 56.9907 17.1526 55.4103 17.1526C53.8299 17.1526 52.2351 17.3332 50.6735 17.6927C50.2718 17.7853 49.9886 18.1425 49.9886 18.5523V21.8665C48.5637 22.3374 47.2103 22.9889 45.9537 23.8127L43.3602 21.7446C43.0389 21.4884 42.5827 21.4884 42.2613 21.7446C41.0065 22.7426 39.8718 23.8755 38.8862 25.1117C37.9005 26.3472 37.0473 27.707 36.3536 29.153C36.1748 29.523 36.278 29.9687 36.5993 30.2249L39.1882 32.2908C38.6669 33.6986 38.3326 35.1635 38.1943 36.6622L34.9622 37.3999C34.5605 37.4925 34.2773 37.8473 34.2749 38.2595C34.2726 39.8633 34.4514 41.4583 34.8027 42.9986C35.1539 44.5389 35.6852 46.0541 36.3829 47.4979C36.5618 47.8679 36.9734 48.0655 37.3751 47.9752L40.6072 47.2375C41.3823 48.5217 42.3199 49.6944 43.4024 50.7388L41.9629 53.7269C41.784 54.0969 41.8849 54.5426 42.2068 54.7988C43.4593 55.7992 44.8168 56.6547 46.2417 57.3396C47.6665 58.0246 49.1818 58.5546 50.7433 58.9094C51.1449 59.002 51.5542 58.802 51.7354 58.432L53.175 55.4439C54.6755 55.6392 56.155 55.6392 57.6555 55.4439L59.0951 58.432C59.244 58.7428 59.5571 58.9322 59.8896 58.9322C59.9547 58.9322 60.0198 58.9258 60.0849 58.9111C61.6482 58.5558 63.164 58.0286 64.5865 57.3414C66.0114 56.6565 67.3688 55.8009 68.6214 54.8006C68.9427 54.5443 69.0436 54.0987 68.8653 53.7287L67.4257 50.7405C68.5082 49.6962 69.4452 48.5234 70.221 47.2393L73.4531 47.977C73.8548 48.0673 74.2664 47.8697 74.4452 47.4996C75.143 46.056 75.6749 44.5426 76.0255 43.0003C76.3767 41.4599 76.555 39.8649 76.5532 38.2613C76.5532 37.8496 76.2677 37.4919 75.866 37.4016L72.6339 36.6639C72.4932 35.1657 72.1613 33.701 71.64 32.2925L74.2288 30.2267C74.5502 29.9704 74.651 29.5248 74.4745 29.1548C73.7808 27.7087 72.9276 26.3512 71.942 25.1134C70.9563 23.8779 69.8216 22.7451 68.5668 21.7447C68.2455 21.4885 67.7893 21.4885 67.468 21.7447L64.8745 23.8128C63.6155 22.989 62.2644 22.3375 60.8396 21.8666L60.8384 18.5542C60.8343 18.1426 60.5488 17.7848 60.1471 17.6927ZM64.3989 25.6299C64.7202 25.8592 65.1535 25.8463 65.4602 25.6006L68.0033 23.5723C68.9403 24.375 69.7982 25.2622 70.5587 26.214C71.3174 27.1662 71.9918 28.2 72.5658 29.2931L70.0274 31.3166C69.7207 31.5623 69.6111 31.981 69.7624 32.3445C70.4326 33.9606 70.8214 35.671 70.9181 37.4261C70.9392 37.819 71.2189 38.1509 71.603 38.2371L74.7723 38.9601C74.7301 40.1939 74.5706 41.417 74.2997 42.6044C74.0288 43.7918 73.6401 44.9622 73.144 46.0927L69.9769 45.3697C69.5946 45.2812 69.1994 45.4583 69.0082 45.8025C68.1591 47.3347 67.066 48.705 65.7574 49.8755C65.463 50.1382 65.3792 50.5627 65.5492 50.9157L66.9594 53.8453C65.9673 54.5806 64.9123 55.2198 63.8153 55.7494C62.7182 56.2788 61.5602 56.7034 60.3668 57.0206L58.9565 54.091C58.8076 53.782 58.4962 53.5908 58.162 53.5908C58.1139 53.5908 58.0635 53.5949 58.0148 53.6037C57.1429 53.7509 56.2663 53.8266 55.409 53.8266C54.5517 53.8266 53.6751 53.7509 52.8032 53.6037C52.4144 53.5387 52.0321 53.7363 51.8615 54.091L50.4512 57.0206C49.2574 56.7052 48.1017 56.2789 47.0027 55.7494C45.9056 55.2216 44.8507 54.5831 43.8586 53.8453L45.2688 50.9157C45.4389 50.5604 45.355 50.1358 45.063 49.8755C43.7536 48.7051 42.6588 47.3347 41.8122 45.8025C41.621 45.4577 41.2281 45.2812 40.8435 45.3697L37.6764 46.0927C37.1803 44.9622 36.7915 43.7918 36.5206 42.6044C36.2497 41.417 36.092 40.1937 36.048 38.9601L39.2174 38.2371C39.602 38.1486 39.8817 37.819 39.9022 37.4262C39.999 35.6712 40.3878 33.963 41.058 32.3445C41.2093 31.981 41.1002 31.5605 40.793 31.3166L38.2545 29.2931C38.828 28.2001 39.5006 27.1663 40.2617 26.214C41.0222 25.2617 41.8778 24.3751 42.8171 23.5723L45.3601 25.6006C45.6668 25.8463 46.1019 25.8592 46.4215 25.6299C47.8528 24.6126 49.4308 23.852 51.1119 23.3689C51.4901 23.2599 51.7511 22.9151 51.7511 22.5199L51.7493 19.269C54.1723 18.8022 56.6421 18.8022 59.0649 19.269V22.5182C59.0649 22.9111 59.3253 23.2582 59.704 23.3673C61.3888 23.8505 62.9672 24.6133 64.3985 25.6301L64.3989 25.6299Z"></path><path d="M45.2604 37.8979C45.2604 43.4943 49.8148 48.0487 55.4112 48.0487C61.0075 48.0487 65.562 43.4943 65.562 37.8979C65.562 32.3015 61.0075 27.7471 55.4112 27.7471C49.8148 27.7477 45.2604 32.2991 45.2604 37.8979ZM63.7963 37.8979C63.7963 42.5215 60.0347 46.2831 55.4112 46.2831C50.7877 46.2831 47.026 42.5214 47.026 37.8979C47.026 33.2744 50.7877 29.5127 55.4112 29.5127C60.0347 29.5127 63.7963 33.2726 63.7963 37.8979Z"></path><path d="M51.8323 37.5046C51.4858 37.1622 50.9264 37.1639 50.5839 37.511C50.2415 37.8576 50.2433 38.417 50.5904 38.7594L53.6947 41.8338C53.8671 42.0038 54.0917 42.09 54.3169 42.09C54.5438 42.09 54.769 42.0038 54.9408 41.8314L60.6779 36.0942C61.0227 35.7494 61.0227 35.1906 60.6779 34.8458C60.3331 34.501 59.7743 34.501 59.4295 34.8458L54.3146 39.9608L51.8323 37.5046Z"></path><path d="M64.4538 17.5771C64.584 17.9366 64.9223 18.1594 65.2841 18.1594C65.385 18.1594 65.4859 18.1424 65.5849 18.1066C66.0429 17.9407 66.2804 17.434 66.1144 16.9761L65.093 14.1597C74.9494 18.0919 81.4493 27.5865 81.4493 38.3383C81.4493 52.6963 69.7687 64.3769 55.4107 64.3769C50.3056 64.3769 45.363 62.8992 41.1177 60.1064C40.7102 59.8372 40.1636 59.951 39.8945 60.3585C39.6254 60.766 39.7391 61.3126 40.1467 61.5817C44.6817 64.5658 49.9591 66.142 55.4086 66.142C62.8358 66.142 69.8171 63.2499 75.0689 57.9983C80.3208 52.7468 83.2125 45.7653 83.2125 38.3381C83.2125 32.3253 81.3256 26.6052 77.7528 21.7911C74.7435 17.7351 70.7778 14.6267 66.1876 12.7016L68.5243 11.8549C68.9823 11.689 69.2197 11.1823 69.0538 10.7244C68.8878 10.2664 68.3812 10.0289 67.9233 10.1949L63.3208 11.8637C63.1003 11.9434 62.9215 12.1076 62.823 12.3199C62.7244 12.5322 62.7139 12.7737 62.7936 12.9942L64.4538 17.5771Z"></path><path d="M32.4348 57.7578C31.9475 57.7578 31.5523 58.153 31.5523 58.6403C31.5523 59.1276 31.9475 59.5228 32.4348 59.5228H37.7309C38.2182 59.5228 38.6134 59.1276 38.6134 58.6403V53.7857C38.6134 53.2984 38.2182 52.9032 37.7309 52.9032C37.2436 52.9032 36.8484 53.2984 36.8484 53.7857V56.5914C32.0776 51.7368 29.3732 45.1922 29.3732 38.3392C29.3732 23.9812 41.0538 12.3006 55.4118 12.3006C56.849 12.3006 58.2932 12.4185 59.6989 12.6519C60.1779 12.7316 60.6341 12.4062 60.7139 11.9247C60.7936 11.4433 60.4682 10.9895 59.9868 10.9097C58.4838 10.6617 56.9458 10.5356 55.4095 10.5356C47.9824 10.5356 41.0011 13.4277 35.7492 18.6792C30.4987 23.9285 27.6074 30.9122 27.6074 38.3395C27.6074 45.6259 30.4678 52.5821 35.5176 57.7581L32.4348 57.7578Z"></path></mask><path d="M60.1471 17.6927C58.5838 17.3356 56.9907 17.1526 55.4103 17.1526C53.8299 17.1526 52.2351 17.3332 50.6735 17.6927C50.2718 17.7853 49.9886 18.1425 49.9886 18.5523V21.8665C48.5637 22.3374 47.2103 22.9889 45.9537 23.8127L43.3602 21.7446C43.0389 21.4884 42.5827 21.4884 42.2613 21.7446C41.0065 22.7426 39.8718 23.8755 38.8862 25.1117C37.9005 26.3472 37.0473 27.707 36.3536 29.153C36.1748 29.523 36.278 29.9687 36.5993 30.2249L39.1882 32.2908C38.6669 33.6986 38.3326 35.1635 38.1943 36.6622L34.9622 37.3999C34.5605 37.4925 34.2773 37.8473 34.2749 38.2595C34.2726 39.8633 34.4514 41.4583 34.8027 42.9986C35.1539 44.5389 35.6852 46.0541 36.3829 47.4979C36.5618 47.8679 36.9734 48.0655 37.3751 47.9752L40.6072 47.2375C41.3823 48.5217 42.3199 49.6944 43.4024 50.7388L41.9629 53.7269C41.784 54.0969 41.8849 54.5426 42.2068 54.7988C43.4593 55.7992 44.8168 56.6547 46.2417 57.3396C47.6665 58.0246 49.1818 58.5546 50.7433 58.9094C51.1449 59.002 51.5542 58.802 51.7354 58.432L53.175 55.4439C54.6755 55.6392 56.155 55.6392 57.6555 55.4439L59.0951 58.432C59.244 58.7428 59.5571 58.9322 59.8896 58.9322C59.9547 58.9322 60.0198 58.9258 60.0849 58.9111C61.6482 58.5558 63.164 58.0286 64.5865 57.3414C66.0114 56.6565 67.3688 55.8009 68.6214 54.8006C68.9427 54.5443 69.0436 54.0987 68.8653 53.7287L67.4257 50.7405C68.5082 49.6962 69.4452 48.5234 70.221 47.2393L73.4531 47.977C73.8548 48.0673 74.2664 47.8697 74.4452 47.4996C75.143 46.056 75.6749 44.5426 76.0255 43.0003C76.3767 41.4599 76.555 39.8649 76.5532 38.2613C76.5532 37.8496 76.2677 37.4919 75.866 37.4016L72.6339 36.6639C72.4932 35.1657 72.1613 33.701 71.64 32.2925L74.2288 30.2267C74.5502 29.9704 74.651 29.5248 74.4745 29.1548C73.7808 27.7087 72.9276 26.3512 71.942 25.1134C70.9563 23.8779 69.8216 22.7451 68.5668 21.7447C68.2455 21.4885 67.7893 21.4885 67.468 21.7447L64.8745 23.8128C63.6155 22.989 62.2644 22.3375 60.8396 21.8666L60.8384 18.5542C60.8343 18.1426 60.5488 17.7848 60.1471 17.6927ZM64.3989 25.6299C64.7202 25.8592 65.1535 25.8463 65.4602 25.6006L68.0033 23.5723C68.9403 24.375 69.7982 25.2622 70.5587 26.214C71.3174 27.1662 71.9918 28.2 72.5658 29.2931L70.0274 31.3166C69.7207 31.5623 69.6111 31.981 69.7624 32.3445C70.4326 33.9606 70.8214 35.671 70.9181 37.4261C70.9392 37.819 71.2189 38.1509 71.603 38.2371L74.7723 38.9601C74.7301 40.1939 74.5706 41.417 74.2997 42.6044C74.0288 43.7918 73.6401 44.9622 73.144 46.0927L69.9769 45.3697C69.5946 45.2812 69.1994 45.4583 69.0082 45.8025C68.1591 47.3347 67.066 48.705 65.7574 49.8755C65.463 50.1382 65.3792 50.5627 65.5492 50.9157L66.9594 53.8453C65.9673 54.5806 64.9123 55.2198 63.8153 55.7494C62.7182 56.2788 61.5602 56.7034 60.3668 57.0206L58.9565 54.091C58.8076 53.782 58.4962 53.5908 58.162 53.5908C58.1139 53.5908 58.0635 53.5949 58.0148 53.6037C57.1429 53.7509 56.2663 53.8266 55.409 53.8266C54.5517 53.8266 53.6751 53.7509 52.8032 53.6037C52.4144 53.5387 52.0321 53.7363 51.8615 54.091L50.4512 57.0206C49.2574 56.7052 48.1017 56.2789 47.0027 55.7494C45.9056 55.2216 44.8507 54.5831 43.8586 53.8453L45.2688 50.9157C45.4389 50.5604 45.355 50.1358 45.063 49.8755C43.7536 48.7051 42.6588 47.3347 41.8122 45.8025C41.621 45.4577 41.2281 45.2812 40.8435 45.3697L37.6764 46.0927C37.1803 44.9622 36.7915 43.7918 36.5206 42.6044C36.2497 41.417 36.092 40.1937 36.048 38.9601L39.2174 38.2371C39.602 38.1486 39.8817 37.819 39.9022 37.4262C39.999 35.6712 40.3878 33.963 41.058 32.3445C41.2093 31.981 41.1002 31.5605 40.793 31.3166L38.2545 29.2931C38.828 28.2001 39.5006 27.1663 40.2617 26.214C41.0222 25.2617 41.8778 24.3751 42.8171 23.5723L45.3601 25.6006C45.6668 25.8463 46.1019 25.8592 46.4215 25.6299C47.8528 24.6126 49.4308 23.852 51.1119 23.3689C51.4901 23.2599 51.7511 22.9151 51.7511 22.5199L51.7493 19.269C54.1723 18.8022 56.6421 18.8022 59.0649 19.269V22.5182C59.0649 22.9111 59.3253 23.2582 59.704 23.3673C61.3888 23.8505 62.9672 24.6133 64.3985 25.6301L64.3989 25.6299Z" fill="#1742E7"></path><path d="M45.2604 37.8979C45.2604 43.4943 49.8148 48.0487 55.4112 48.0487C61.0075 48.0487 65.562 43.4943 65.562 37.8979C65.562 32.3015 61.0075 27.7471 55.4112 27.7471C49.8148 27.7477 45.2604 32.2991 45.2604 37.8979ZM63.7963 37.8979C63.7963 42.5215 60.0347 46.2831 55.4112 46.2831C50.7877 46.2831 47.026 42.5214 47.026 37.8979C47.026 33.2744 50.7877 29.5127 55.4112 29.5127C60.0347 29.5127 63.7963 33.2726 63.7963 37.8979Z" fill="#1742E7"></path><path d="M51.8323 37.5046C51.4858 37.1622 50.9264 37.1639 50.5839 37.511C50.2415 37.8576 50.2433 38.417 50.5904 38.7594L53.6947 41.8338C53.8671 42.0038 54.0917 42.09 54.3169 42.09C54.5438 42.09 54.769 42.0038 54.9408 41.8314L60.6779 36.0942C61.0227 35.7494 61.0227 35.1906 60.6779 34.8458C60.3331 34.501 59.7743 34.501 59.4295 34.8458L54.3146 39.9608L51.8323 37.5046Z" fill="#1742E7"></path><path d="M64.4538 17.5771C64.584 17.9366 64.9223 18.1594 65.2841 18.1594C65.385 18.1594 65.4859 18.1424 65.5849 18.1066C66.0429 17.9407 66.2804 17.434 66.1144 16.9761L65.093 14.1597C74.9494 18.0919 81.4493 27.5865 81.4493 38.3383C81.4493 52.6963 69.7687 64.3769 55.4107 64.3769C50.3056 64.3769 45.363 62.8992 41.1177 60.1064C40.7102 59.8372 40.1636 59.951 39.8945 60.3585C39.6254 60.766 39.7391 61.3126 40.1467 61.5817C44.6817 64.5658 49.9591 66.142 55.4086 66.142C62.8358 66.142 69.8171 63.2499 75.0689 57.9983C80.3208 52.7468 83.2125 45.7653 83.2125 38.3381C83.2125 32.3253 81.3256 26.6052 77.7528 21.7911C74.7435 17.7351 70.7778 14.6267 66.1876 12.7016L68.5243 11.8549C68.9823 11.689 69.2197 11.1823 69.0538 10.7244C68.8878 10.2664 68.3812 10.0289 67.9233 10.1949L63.3208 11.8637C63.1003 11.9434 62.9215 12.1076 62.823 12.3199C62.7244 12.5322 62.7139 12.7737 62.7936 12.9942L64.4538 17.5771Z" fill="#1742E7"></path><path d="M32.4348 57.7578C31.9475 57.7578 31.5523 58.153 31.5523 58.6403C31.5523 59.1276 31.9475 59.5228 32.4348 59.5228H37.7309C38.2182 59.5228 38.6134 59.1276 38.6134 58.6403V53.7857C38.6134 53.2984 38.2182 52.9032 37.7309 52.9032C37.2436 52.9032 36.8484 53.2984 36.8484 53.7857V56.5914C32.0776 51.7368 29.3732 45.1922 29.3732 38.3392C29.3732 23.9812 41.0538 12.3006 55.4118 12.3006C56.849 12.3006 58.2932 12.4185 59.6989 12.6519C60.1779 12.7316 60.6341 12.4062 60.7139 11.9247C60.7936 11.4433 60.4682 10.9895 59.9868 10.9097C58.4838 10.6617 56.9458 10.5356 55.4095 10.5356C47.9824 10.5356 41.0011 13.4277 35.7492 18.6792C30.4987 23.9285 27.6074 30.9122 27.6074 38.3395C27.6074 45.6259 30.4678 52.5821 35.5176 57.7581L32.4348 57.7578Z" fill="#1742E7"></path><path d="M60.1471 17.6927C58.5838 17.3356 56.9907 17.1526 55.4103 17.1526C53.8299 17.1526 52.2351 17.3332 50.6735 17.6927C50.2718 17.7853 49.9886 18.1425 49.9886 18.5523V21.8665C48.5637 22.3374 47.2103 22.9889 45.9537 23.8127L43.3602 21.7446C43.0389 21.4884 42.5827 21.4884 42.2613 21.7446C41.0065 22.7426 39.8718 23.8755 38.8862 25.1117C37.9005 26.3472 37.0473 27.707 36.3536 29.153C36.1748 29.523 36.278 29.9687 36.5993 30.2249L39.1882 32.2908C38.6669 33.6986 38.3326 35.1635 38.1943 36.6622L34.9622 37.3999C34.5605 37.4925 34.2773 37.8473 34.2749 38.2595C34.2726 39.8633 34.4514 41.4583 34.8027 42.9986C35.1539 44.5389 35.6852 46.0541 36.3829 47.4979C36.5618 47.8679 36.9734 48.0655 37.3751 47.9752L40.6072 47.2375C41.3823 48.5217 42.3199 49.6944 43.4024 50.7388L41.9629 53.7269C41.784 54.0969 41.8849 54.5426 42.2068 54.7988C43.4593 55.7992 44.8168 56.6547 46.2417 57.3396C47.6665 58.0246 49.1818 58.5546 50.7433 58.9094C51.1449 59.002 51.5542 58.802 51.7354 58.432L53.175 55.4439C54.6755 55.6392 56.155 55.6392 57.6555 55.4439L59.0951 58.432C59.244 58.7428 59.5571 58.9322 59.8896 58.9322C59.9547 58.9322 60.0198 58.9258 60.0849 58.9111C61.6482 58.5558 63.164 58.0286 64.5865 57.3414C66.0114 56.6565 67.3688 55.8009 68.6214 54.8006C68.9427 54.5443 69.0436 54.0987 68.8653 53.7287L67.4257 50.7405C68.5082 49.6962 69.4452 48.5234 70.221 47.2393L73.4531 47.977C73.8548 48.0673 74.2664 47.8697 74.4452 47.4996C75.143 46.056 75.6749 44.5426 76.0255 43.0003C76.3767 41.4599 76.555 39.8649 76.5532 38.2613C76.5532 37.8496 76.2677 37.4919 75.866 37.4016L72.6339 36.6639C72.4932 35.1657 72.1613 33.701 71.64 32.2925L74.2288 30.2267C74.5502 29.9704 74.651 29.5248 74.4745 29.1548C73.7808 27.7087 72.9276 26.3512 71.942 25.1134C70.9563 23.8779 69.8216 22.7451 68.5668 21.7447C68.2455 21.4885 67.7893 21.4885 67.468 21.7447L64.8745 23.8128C63.6155 22.989 62.2644 22.3375 60.8396 21.8666L60.8384 18.5542C60.8343 18.1426 60.5488 17.7848 60.1471 17.6927ZM64.3989 25.6299C64.7202 25.8592 65.1535 25.8463 65.4602 25.6006L68.0033 23.5723C68.9403 24.375 69.7982 25.2622 70.5587 26.214C71.3174 27.1662 71.9918 28.2 72.5658 29.2931L70.0274 31.3166C69.7207 31.5623 69.6111 31.981 69.7624 32.3445C70.4326 33.9606 70.8214 35.671 70.9181 37.4261C70.9392 37.819 71.2189 38.1509 71.603 38.2371L74.7723 38.9601C74.7301 40.1939 74.5706 41.417 74.2997 42.6044C74.0288 43.7918 73.6401 44.9622 73.144 46.0927L69.9769 45.3697C69.5946 45.2812 69.1994 45.4583 69.0082 45.8025C68.1591 47.3347 67.066 48.705 65.7574 49.8755C65.463 50.1382 65.3792 50.5627 65.5492 50.9157L66.9594 53.8453C65.9673 54.5806 64.9123 55.2198 63.8153 55.7494C62.7182 56.2788 61.5602 56.7034 60.3668 57.0206L58.9565 54.091C58.8076 53.782 58.4962 53.5908 58.162 53.5908C58.1139 53.5908 58.0635 53.5949 58.0148 53.6037C57.1429 53.7509 56.2663 53.8266 55.409 53.8266C54.5517 53.8266 53.6751 53.7509 52.8032 53.6037C52.4144 53.5387 52.0321 53.7363 51.8615 54.091L50.4512 57.0206C49.2574 56.7052 48.1017 56.2789 47.0027 55.7494C45.9056 55.2216 44.8507 54.5831 43.8586 53.8453L45.2688 50.9157C45.4389 50.5604 45.355 50.1358 45.063 49.8755C43.7536 48.7051 42.6588 47.3347 41.8122 45.8025C41.621 45.4577 41.2281 45.2812 40.8435 45.3697L37.6764 46.0927C37.1803 44.9622 36.7915 43.7918 36.5206 42.6044C36.2497 41.417 36.092 40.1937 36.048 38.9601L39.2174 38.2371C39.602 38.1486 39.8817 37.819 39.9022 37.4262C39.999 35.6712 40.3878 33.963 41.058 32.3445C41.2093 31.981 41.1002 31.5605 40.793 31.3166L38.2545 29.2931C38.828 28.2001 39.5006 27.1663 40.2617 26.214C41.0222 25.2617 41.8778 24.3751 42.8171 23.5723L45.3601 25.6006C45.6668 25.8463 46.1019 25.8592 46.4215 25.6299C47.8528 24.6126 49.4308 23.852 51.1119 23.3689C51.4901 23.2599 51.7511 22.9151 51.7511 22.5199L51.7493 19.269C54.1723 18.8022 56.6421 18.8022 59.0649 19.269V22.5182C59.0649 22.9111 59.3253 23.2582 59.704 23.3673C61.3888 23.8505 62.9672 24.6133 64.3985 25.6301L64.3989 25.6299Z" stroke="#1742E7" stroke-width="0.56" mask="url(#path-1-inside-1_11010_36256)"></path><path d="M45.2604 37.8979C45.2604 43.4943 49.8148 48.0487 55.4112 48.0487C61.0075 48.0487 65.562 43.4943 65.562 37.8979C65.562 32.3015 61.0075 27.7471 55.4112 27.7471C49.8148 27.7477 45.2604 32.2991 45.2604 37.8979ZM63.7963 37.8979C63.7963 42.5215 60.0347 46.2831 55.4112 46.2831C50.7877 46.2831 47.026 42.5214 47.026 37.8979C47.026 33.2744 50.7877 29.5127 55.4112 29.5127C60.0347 29.5127 63.7963 33.2726 63.7963 37.8979Z" stroke="#1742E7" stroke-width="0.56" mask="url(#path-1-inside-1_11010_36256)"></path><path d="M51.8323 37.5046C51.4858 37.1622 50.9264 37.1639 50.5839 37.511C50.2415 37.8576 50.2433 38.417 50.5904 38.7594L53.6947 41.8338C53.8671 42.0038 54.0917 42.09 54.3169 42.09C54.5438 42.09 54.769 42.0038 54.9408 41.8314L60.6779 36.0942C61.0227 35.7494 61.0227 35.1906 60.6779 34.8458C60.3331 34.501 59.7743 34.501 59.4295 34.8458L54.3146 39.9608L51.8323 37.5046Z" stroke="#1742E7" stroke-width="0.56" mask="url(#path-1-inside-1_11010_36256)"></path><path d="M64.4538 17.5771C64.584 17.9366 64.9223 18.1594 65.2841 18.1594C65.385 18.1594 65.4859 18.1424 65.5849 18.1066C66.0429 17.9407 66.2804 17.434 66.1144 16.9761L65.093 14.1597C74.9494 18.0919 81.4493 27.5865 81.4493 38.3383C81.4493 52.6963 69.7687 64.3769 55.4107 64.3769C50.3056 64.3769 45.363 62.8992 41.1177 60.1064C40.7102 59.8372 40.1636 59.951 39.8945 60.3585C39.6254 60.766 39.7391 61.3126 40.1467 61.5817C44.6817 64.5658 49.9591 66.142 55.4086 66.142C62.8358 66.142 69.8171 63.2499 75.0689 57.9983C80.3208 52.7468 83.2125 45.7653 83.2125 38.3381C83.2125 32.3253 81.3256 26.6052 77.7528 21.7911C74.7435 17.7351 70.7778 14.6267 66.1876 12.7016L68.5243 11.8549C68.9823 11.689 69.2197 11.1823 69.0538 10.7244C68.8878 10.2664 68.3812 10.0289 67.9233 10.1949L63.3208 11.8637C63.1003 11.9434 62.9215 12.1076 62.823 12.3199C62.7244 12.5322 62.7139 12.7737 62.7936 12.9942L64.4538 17.5771Z" stroke="#1742E7" stroke-width="0.56" mask="url(#path-1-inside-1_11010_36256)"></path><path d="M32.4348 57.7578C31.9475 57.7578 31.5523 58.153 31.5523 58.6403C31.5523 59.1276 31.9475 59.5228 32.4348 59.5228H37.7309C38.2182 59.5228 38.6134 59.1276 38.6134 58.6403V53.7857C38.6134 53.2984 38.2182 52.9032 37.7309 52.9032C37.2436 52.9032 36.8484 53.2984 36.8484 53.7857V56.5914C32.0776 51.7368 29.3732 45.1922 29.3732 38.3392C29.3732 23.9812 41.0538 12.3006 55.4118 12.3006C56.849 12.3006 58.2932 12.4185 59.6989 12.6519C60.1779 12.7316 60.6341 12.4062 60.7139 11.9247C60.7936 11.4433 60.4682 10.9895 59.9868 10.9097C58.4838 10.6617 56.9458 10.5356 55.4095 10.5356C47.9824 10.5356 41.0011 13.4277 35.7492 18.6792C30.4987 23.9285 27.6074 30.9122 27.6074 38.3395C27.6074 45.6259 30.4678 52.5821 35.5176 57.7581L32.4348 57.7578Z" stroke="#1742E7" stroke-width="0.56" mask="url(#path-1-inside-1_11010_36256)"></path></svg>