<svg xmlns="http://www.w3.org/2000/svg" width="111" height="77" viewBox="0 0 111 77" fill="none"><path d="M80.4097 66.142H30.4101C27.6521 66.142 25.4102 63.9 25.4102 61.142C25.4102 60.5902 25.8584 60.142 26.4101 60.142H48.41C48.9618 60.142 49.41 60.5902 49.41 61.142C49.41 61.6938 48.9618 62.142 48.41 62.142H27.5816C27.9936 63.3059 29.1057 64.142 30.4097 64.142H80.4093C81.7133 64.142 82.8254 63.3058 83.2374 62.142H62.409C61.8572 62.142 61.409 61.6938 61.409 61.142C61.409 60.5902 61.8572 60.142 62.409 60.142H84.4088C84.9606 60.142 85.4088 60.5902 85.4088 61.142C85.4088 63.9 83.1669 66.142 80.4088 66.142H80.4097Z" fill="#1742E7"></path><path d="M30.4091 58.141C29.8574 58.141 29.4092 57.6928 29.4092 57.141V25.1412C29.4092 23.4872 30.7551 22.1412 32.4091 22.1412H42.4091C42.9608 22.1412 43.409 22.5895 43.409 23.1412C43.409 23.693 42.9608 24.1412 42.4091 24.1412H32.4091C31.8591 24.1412 31.4091 24.5912 31.4091 25.1412V57.141C31.4091 57.6928 30.9609 58.141 30.4091 58.141Z" fill="#1742E7"></path><path d="M80.4092 58.141C79.8574 58.141 79.4092 57.6928 79.4092 57.141V51.1411C79.4092 50.5893 79.8574 50.1411 80.4092 50.1411C80.961 50.1411 81.4092 50.5893 81.4092 51.1411V57.141C81.4092 57.6928 80.961 58.141 80.4092 58.141Z" fill="#1742E7"></path><path d="M80.4102 36.1411C79.8584 36.1411 79.4102 35.6929 79.4102 35.1412V25.1412C79.4102 24.5912 78.9602 24.1412 78.4102 24.1412H76.4102C75.8584 24.1412 75.4102 23.693 75.4102 23.1412C75.4102 22.5895 75.8584 22.1412 76.4102 22.1412H78.4102C80.0642 22.1412 81.4102 23.4872 81.4102 25.1412V35.1412C81.4102 35.6929 80.9619 36.1411 80.4102 36.1411Z" fill="#1742E7"></path><path d="M52.4103 58.1412H48.4104C47.8586 58.1412 47.4104 57.693 47.4104 57.1412V41.1413C47.4104 40.5895 47.8586 40.1413 48.4104 40.1413H52.4103C52.9621 40.1413 53.4103 40.5895 53.4103 41.1413V57.1412C53.4103 57.693 52.9621 58.1412 52.4103 58.1412ZM49.4103 56.1412H51.4103V42.1413H49.4103V56.1412Z" fill="#1742E7"></path><path d="M44.4123 58.1422H40.4123C39.8606 58.1422 39.4124 57.6939 39.4124 57.1422V37.1423C39.4124 36.5905 39.8606 36.1423 40.4123 36.1423H44.4123C44.9641 36.1423 45.4123 36.5905 45.4123 37.1423V57.1422C45.4123 57.6939 44.9641 58.1422 44.4123 58.1422ZM41.4123 56.1422H43.4123V38.1423H41.4123V56.1422Z" fill="#1742E7"></path><path d="M68.4086 58.1415H64.4086C63.8569 58.1415 63.4086 57.6933 63.4086 57.1415V49.1416C63.4086 48.5898 63.8569 48.1416 64.4086 48.1416H68.4086C68.9604 48.1416 69.4086 48.5898 69.4086 49.1416V57.1415C69.4086 57.6933 68.9604 58.1415 68.4086 58.1415ZM65.4086 56.1415H67.4086V50.1416H65.4086V56.1415Z" fill="#1742E7"></path><path d="M60.4083 58.1413H56.4084C55.8566 58.1413 55.4084 57.6931 55.4084 57.1414V45.1414C55.4084 44.5897 55.8566 44.1414 56.4084 44.1414H60.4083C60.9601 44.1414 61.4083 44.5897 61.4083 45.1414V57.1414C61.4083 57.6931 60.9601 58.1413 60.4083 58.1413ZM57.4083 56.1414H59.4083V46.1414H57.4083V56.1414Z" fill="#1742E7"></path><path d="M68.4327 33.1623L67.4327 33.5783L70.2608 36.4064C70.651 36.7966 71.2849 36.7966 71.6746 36.4064C72.0648 36.0162 72.0648 35.3823 71.6746 34.9926L68.8465 32.1627L68.4327 33.1623Z" fill="#1742E7"></path><path d="M59.4096 38.1418C51.6918 38.1418 45.4097 31.8596 45.4097 24.1419C45.4097 16.4241 51.6918 10.142 59.4096 10.142C67.1274 10.142 73.4095 16.4241 73.4095 24.1419C73.4095 31.8596 67.1274 38.1418 59.4096 38.1418ZM59.4096 12.142C52.7918 12.142 47.4097 17.5241 47.4097 24.1419C47.4097 30.7596 52.7918 36.1418 59.4096 36.1418C66.0274 36.1418 71.4095 30.7596 71.4095 24.1419C71.4095 17.5241 66.0274 12.142 59.4096 12.142Z" fill="#1742E7"></path><path d="M69.4099 24.1416C69.4099 24.6938 68.9621 25.1416 68.4099 25.1416C67.8577 25.1416 67.4099 24.6938 67.4099 24.1416C67.4099 23.5893 67.8577 23.1416 68.4099 23.1416C68.9621 23.1416 69.4099 23.5893 69.4099 24.1416Z" fill="#1742E7"></path><path d="M59.4116 34.141C58.8598 34.141 58.4116 33.6928 58.4116 33.1411C58.4116 32.5893 58.8598 32.1411 59.4116 32.1411C62.6755 32.1411 65.5856 30.187 66.8214 27.1652C67.0294 26.6532 67.6156 26.4112 68.1254 26.6192C68.6374 26.8273 68.8812 27.4112 68.6713 27.9232C67.1254 31.6991 63.4914 34.141 59.4116 34.141Z" fill="#1742E7"></path><path d="M73.4105 36.1417C73.9226 36.1417 74.4346 36.3376 74.8243 36.7278L80.8243 42.7278C81.6064 43.5099 81.6064 44.7737 80.8243 45.5559C80.4341 45.946 79.9225 46.142 79.4105 46.142C78.8984 46.142 78.3864 45.946 77.9967 45.5559L71.9967 39.5559C71.2146 38.7738 71.2146 37.51 71.9967 36.7278C72.3869 36.3376 72.8985 36.1417 73.4105 36.1417ZM73.4105 34.1417C72.3427 34.1417 71.3387 34.5577 70.5824 35.3135C69.8266 36.0693 69.4106 37.0733 69.4106 38.1416C69.4106 39.2095 69.8266 40.2135 70.5824 40.9697L76.5824 46.9697C77.3382 47.7255 78.3422 48.1416 79.4105 48.1416C80.4783 48.1416 81.4823 47.7255 82.2386 46.9697C82.9944 46.2139 83.4105 45.2099 83.4105 44.1416C83.4105 43.0737 82.9944 42.0697 82.2386 41.3135L76.2386 35.3135C75.4828 34.5577 74.4789 34.1417 73.4105 34.1417Z" fill="#1742E7"></path></svg>