<svg xmlns="http://www.w3.org/2000/svg" width="111" height="77" viewBox="0 0 111 77" fill="none"><mask id="path-1-inside-1_11010_36246" fill="white"><path d="M63.0056 47.4866C62.6512 47.1534 62.1184 47.0955 61.7005 47.3444L60.0616 45.7056C62.734 41.9182 63.9596 37.2978 63.5148 32.6845C63.07 28.0702 60.9845 23.7689 57.6378 20.5622C54.291 17.3552 49.9049 15.4551 45.2757 15.2076V12.2505H84.9342C85.5164 12.2505 85.9885 11.7784 85.9885 11.1962C85.9885 10.614 85.5164 10.142 84.9342 10.142H44.2215C43.6393 10.142 43.1672 10.614 43.1672 11.1962V15.2076C37.1263 15.5328 31.5844 18.6603 28.1834 23.663C24.782 28.666 23.9122 34.97 25.8311 40.7071C27.75 46.4443 32.2377 50.9557 37.9642 52.9053C43.6906 54.8548 49.9993 54.0184 55.0192 50.6437L56.706 52.3306C56.4429 52.7466 56.5032 53.2898 56.851 53.6381L68.1702 64.9583C68.9298 65.7165 69.9592 66.142 71.0327 66.142C72.1058 66.142 73.1351 65.7165 73.8948 64.9583L74.3207 64.5323C75.0785 63.7727 75.5044 62.7433 75.5044 61.6703C75.5044 60.5972 75.0785 59.5679 74.3207 58.8077L63.0056 47.4866ZM44.2216 23.3095C44.5012 23.3095 44.7694 23.1985 44.9671 23.0008C45.1648 22.8031 45.2759 22.5353 45.2759 22.2553V21.393C49.8553 21.7597 53.9161 24.4796 55.9978 28.5747C58.0799 32.6703 57.8851 37.5534 55.4824 41.4693C53.0802 45.3856 48.8161 47.7722 44.2216 47.7722C39.627 47.7722 35.3629 45.3855 32.9602 41.4693C30.5579 37.5529 30.3631 32.6699 32.4448 28.5747C34.527 24.4796 38.5873 21.7597 43.1672 21.393V22.2553C43.1672 22.5353 43.2783 22.8031 43.476 23.0008C43.6737 23.1985 43.942 23.3095 44.2216 23.3095ZM44.2216 51.8277C38.1765 51.8282 32.5715 48.6682 29.4426 43.4958C26.3141 38.3232 26.1179 31.8917 28.9244 26.5384C31.7314 21.1846 37.1331 17.6882 43.1672 17.3196V19.2775V19.2771C37.8324 19.6451 33.0754 22.7684 30.6172 27.5173C28.1591 32.2662 28.3548 37.9536 31.134 42.5217C33.9137 47.0903 38.8739 49.8789 44.2214 49.8789C49.569 49.8789 54.5292 47.0902 57.3087 42.5217C60.0879 37.9535 60.2837 32.2661 57.8255 27.5173C55.3673 22.7684 50.6104 19.6452 45.2755 19.2771V17.3211C51.3093 17.6896 56.711 21.1861 59.5172 26.5398C62.3242 31.8936 62.1279 38.3254 58.9994 43.4972C55.871 48.6698 50.266 51.8297 44.2204 51.8297L44.2216 51.8277ZM56.7149 49.3545C57.4379 48.7431 58.1156 48.08 58.742 47.3702L60.1832 48.8113L58.1773 50.8177L56.7149 49.3545ZM72.8314 63.0383L72.4049 63.4647V63.4651C72.0407 63.8275 71.5479 64.0309 71.0344 64.0309C70.5204 64.0309 70.0277 63.8275 69.6638 63.4651L59.0887 52.8924L62.2571 49.7239L72.8318 60.2981H72.8323C73.1952 60.6619 73.3994 61.1552 73.3994 61.6692C73.3994 62.1836 73.1952 62.6764 72.8323 63.0407L72.8314 63.0383Z"></path><path d="M34.5223 34.557C34.5223 37.1297 35.5441 39.5963 37.3632 41.4154C39.1818 43.2346 41.6489 44.2563 44.2216 44.2563C46.7938 44.2563 49.2609 43.2345 51.08 41.4154C52.8991 39.5963 53.9208 37.1297 53.9208 34.557C53.9208 31.9844 52.899 29.5178 51.08 27.6987C49.2609 25.8795 46.7938 24.8578 44.2216 24.8578C41.6499 24.8606 39.1846 25.8834 37.3665 27.7019C35.5478 29.5201 34.5251 31.9854 34.5223 34.557ZM45.2759 27.0483C46.9057 27.2789 48.417 28.0333 49.5809 29.1978C50.7453 30.3617 51.4998 31.8725 51.7304 33.5028H45.2763L45.2759 27.0483ZM43.1673 27.0483V34.557C43.1673 34.8366 43.2784 35.1049 43.4761 35.3026C43.6737 35.5002 43.942 35.6113 44.2216 35.6113H51.7304C51.4687 37.4841 50.5175 39.1911 49.0627 40.3988C47.6079 41.6064 45.7544 42.2273 43.8657 42.1402C41.9769 42.0526 40.1889 41.2629 38.8523 39.9257C37.5151 38.589 36.7259 36.801 36.6383 34.9124C36.5513 33.0236 37.1721 31.1701 38.3798 29.7154C39.5879 28.2606 41.2949 27.3094 43.1677 27.0481L43.1673 27.0483Z"></path><path d="M84.9343 15.6706H67.6649C67.0827 15.6706 66.6106 16.1422 66.6106 16.7249C66.6106 17.3071 67.0827 17.7792 67.6649 17.7792H84.9343C85.5165 17.7792 85.9886 17.3071 85.9886 16.7249C85.9886 16.1422 85.5165 15.6706 84.9343 15.6706Z"></path><path d="M84.9343 27.2736H67.6649C67.0827 27.2736 66.6106 27.7456 66.6106 28.3278C66.6106 28.91 67.0827 29.3821 67.6649 29.3821H84.9343C85.5165 29.3821 85.9886 28.91 85.9886 28.3278C85.9886 27.7456 85.5165 27.2736 84.9343 27.2736Z"></path><path d="M84.9343 33.0751H73.4663C72.8841 33.0751 72.4121 33.5471 72.4121 34.1293C72.4121 34.7115 72.8841 35.1836 73.4663 35.1836H84.9343C85.5165 35.1836 85.9886 34.7115 85.9886 34.1293C85.9886 33.5471 85.5165 33.0751 84.9343 33.0751Z"></path><path d="M84.9343 21.4721H75.7872C75.205 21.4721 74.7329 21.9442 74.7329 22.5264C74.7329 23.1086 75.205 23.5806 75.7872 23.5806H84.9343C85.5165 23.5806 85.9886 23.1086 85.9886 22.5264C85.9886 21.9442 85.5165 21.4721 84.9343 21.4721Z"></path><path d="M67.6649 23.5806H71.5039C72.0861 23.5806 72.5582 23.1086 72.5582 22.5264C72.5582 21.9442 72.0861 21.4721 71.5039 21.4721H67.6649C67.0827 21.4721 66.6106 21.9442 66.6106 22.5264C66.6106 23.1086 67.0827 23.5806 67.6649 23.5806Z"></path></mask><path d="M63.0056 47.4866C62.6512 47.1534 62.1184 47.0955 61.7005 47.3444L60.0616 45.7056C62.734 41.9182 63.9596 37.2978 63.5148 32.6845C63.07 28.0702 60.9845 23.7689 57.6378 20.5622C54.291 17.3552 49.9049 15.4551 45.2757 15.2076V12.2505H84.9342C85.5164 12.2505 85.9885 11.7784 85.9885 11.1962C85.9885 10.614 85.5164 10.142 84.9342 10.142H44.2215C43.6393 10.142 43.1672 10.614 43.1672 11.1962V15.2076C37.1263 15.5328 31.5844 18.6603 28.1834 23.663C24.782 28.666 23.9122 34.97 25.8311 40.7071C27.75 46.4443 32.2377 50.9557 37.9642 52.9053C43.6906 54.8548 49.9993 54.0184 55.0192 50.6437L56.706 52.3306C56.4429 52.7466 56.5032 53.2898 56.851 53.6381L68.1702 64.9583C68.9298 65.7165 69.9592 66.142 71.0327 66.142C72.1058 66.142 73.1351 65.7165 73.8948 64.9583L74.3207 64.5323C75.0785 63.7727 75.5044 62.7433 75.5044 61.6703C75.5044 60.5972 75.0785 59.5679 74.3207 58.8077L63.0056 47.4866ZM44.2216 23.3095C44.5012 23.3095 44.7694 23.1985 44.9671 23.0008C45.1648 22.8031 45.2759 22.5353 45.2759 22.2553V21.393C49.8553 21.7597 53.9161 24.4796 55.9978 28.5747C58.0799 32.6703 57.8851 37.5534 55.4824 41.4693C53.0802 45.3856 48.8161 47.7722 44.2216 47.7722C39.627 47.7722 35.3629 45.3855 32.9602 41.4693C30.5579 37.5529 30.3631 32.6699 32.4448 28.5747C34.527 24.4796 38.5873 21.7597 43.1672 21.393V22.2553C43.1672 22.5353 43.2783 22.8031 43.476 23.0008C43.6737 23.1985 43.942 23.3095 44.2216 23.3095ZM44.2216 51.8277C38.1765 51.8282 32.5715 48.6682 29.4426 43.4958C26.3141 38.3232 26.1179 31.8917 28.9244 26.5384C31.7314 21.1846 37.1331 17.6882 43.1672 17.3196V19.2775V19.2771C37.8324 19.6451 33.0754 22.7684 30.6172 27.5173C28.1591 32.2662 28.3548 37.9536 31.134 42.5217C33.9137 47.0903 38.8739 49.8789 44.2214 49.8789C49.569 49.8789 54.5292 47.0902 57.3087 42.5217C60.0879 37.9535 60.2837 32.2661 57.8255 27.5173C55.3673 22.7684 50.6104 19.6452 45.2755 19.2771V17.3211C51.3093 17.6896 56.711 21.1861 59.5172 26.5398C62.3242 31.8936 62.1279 38.3254 58.9994 43.4972C55.871 48.6698 50.266 51.8297 44.2204 51.8297L44.2216 51.8277ZM56.7149 49.3545C57.4379 48.7431 58.1156 48.08 58.742 47.3702L60.1832 48.8113L58.1773 50.8177L56.7149 49.3545ZM72.8314 63.0383L72.4049 63.4647V63.4651C72.0407 63.8275 71.5479 64.0309 71.0344 64.0309C70.5204 64.0309 70.0277 63.8275 69.6638 63.4651L59.0887 52.8924L62.2571 49.7239L72.8318 60.2981H72.8323C73.1952 60.6619 73.3994 61.1552 73.3994 61.6692C73.3994 62.1836 73.1952 62.6764 72.8323 63.0407L72.8314 63.0383Z" fill="#1742E7"></path><path d="M34.5223 34.557C34.5223 37.1297 35.5441 39.5963 37.3632 41.4154C39.1818 43.2346 41.6489 44.2563 44.2216 44.2563C46.7938 44.2563 49.2609 43.2345 51.08 41.4154C52.8991 39.5963 53.9208 37.1297 53.9208 34.557C53.9208 31.9844 52.899 29.5178 51.08 27.6987C49.2609 25.8795 46.7938 24.8578 44.2216 24.8578C41.6499 24.8606 39.1846 25.8834 37.3665 27.7019C35.5478 29.5201 34.5251 31.9854 34.5223 34.557ZM45.2759 27.0483C46.9057 27.2789 48.417 28.0333 49.5809 29.1978C50.7453 30.3617 51.4998 31.8725 51.7304 33.5028H45.2763L45.2759 27.0483ZM43.1673 27.0483V34.557C43.1673 34.8366 43.2784 35.1049 43.4761 35.3026C43.6737 35.5002 43.942 35.6113 44.2216 35.6113H51.7304C51.4687 37.4841 50.5175 39.1911 49.0627 40.3988C47.6079 41.6064 45.7544 42.2273 43.8657 42.1402C41.9769 42.0526 40.1889 41.2629 38.8523 39.9257C37.5151 38.589 36.7259 36.801 36.6383 34.9124C36.5513 33.0236 37.1721 31.1701 38.3798 29.7154C39.5879 28.2606 41.2949 27.3094 43.1677 27.0481L43.1673 27.0483Z" fill="#1742E7"></path><path d="M84.9343 15.6706H67.6649C67.0827 15.6706 66.6106 16.1422 66.6106 16.7249C66.6106 17.3071 67.0827 17.7792 67.6649 17.7792H84.9343C85.5165 17.7792 85.9886 17.3071 85.9886 16.7249C85.9886 16.1422 85.5165 15.6706 84.9343 15.6706Z" fill="#1742E7"></path><path d="M84.9343 27.2736H67.6649C67.0827 27.2736 66.6106 27.7456 66.6106 28.3278C66.6106 28.91 67.0827 29.3821 67.6649 29.3821H84.9343C85.5165 29.3821 85.9886 28.91 85.9886 28.3278C85.9886 27.7456 85.5165 27.2736 84.9343 27.2736Z" fill="#1742E7"></path><path d="M84.9343 33.0751H73.4663C72.8841 33.0751 72.4121 33.5471 72.4121 34.1293C72.4121 34.7115 72.8841 35.1836 73.4663 35.1836H84.9343C85.5165 35.1836 85.9886 34.7115 85.9886 34.1293C85.9886 33.5471 85.5165 33.0751 84.9343 33.0751Z" fill="#1742E7"></path><path d="M84.9343 21.4721H75.7872C75.205 21.4721 74.7329 21.9442 74.7329 22.5264C74.7329 23.1086 75.205 23.5806 75.7872 23.5806H84.9343C85.5165 23.5806 85.9886 23.1086 85.9886 22.5264C85.9886 21.9442 85.5165 21.4721 84.9343 21.4721Z" fill="#1742E7"></path><path d="M67.6649 23.5806H71.5039C72.0861 23.5806 72.5582 23.1086 72.5582 22.5264C72.5582 21.9442 72.0861 21.4721 71.5039 21.4721H67.6649C67.0827 21.4721 66.6106 21.9442 66.6106 22.5264C66.6106 23.1086 67.0827 23.5806 67.6649 23.5806Z" fill="#1742E7"></path><path d="M63.0056 47.4866C62.6512 47.1534 62.1184 47.0955 61.7005 47.3444L60.0616 45.7056C62.734 41.9182 63.9596 37.2978 63.5148 32.6845C63.07 28.0702 60.9845 23.7689 57.6378 20.5622C54.291 17.3552 49.9049 15.4551 45.2757 15.2076V12.2505H84.9342C85.5164 12.2505 85.9885 11.7784 85.9885 11.1962C85.9885 10.614 85.5164 10.142 84.9342 10.142H44.2215C43.6393 10.142 43.1672 10.614 43.1672 11.1962V15.2076C37.1263 15.5328 31.5844 18.6603 28.1834 23.663C24.782 28.666 23.9122 34.97 25.8311 40.7071C27.75 46.4443 32.2377 50.9557 37.9642 52.9053C43.6906 54.8548 49.9993 54.0184 55.0192 50.6437L56.706 52.3306C56.4429 52.7466 56.5032 53.2898 56.851 53.6381L68.1702 64.9583C68.9298 65.7165 69.9592 66.142 71.0327 66.142C72.1058 66.142 73.1351 65.7165 73.8948 64.9583L74.3207 64.5323C75.0785 63.7727 75.5044 62.7433 75.5044 61.6703C75.5044 60.5972 75.0785 59.5679 74.3207 58.8077L63.0056 47.4866ZM44.2216 23.3095C44.5012 23.3095 44.7694 23.1985 44.9671 23.0008C45.1648 22.8031 45.2759 22.5353 45.2759 22.2553V21.393C49.8553 21.7597 53.9161 24.4796 55.9978 28.5747C58.0799 32.6703 57.8851 37.5534 55.4824 41.4693C53.0802 45.3856 48.8161 47.7722 44.2216 47.7722C39.627 47.7722 35.3629 45.3855 32.9602 41.4693C30.5579 37.5529 30.3631 32.6699 32.4448 28.5747C34.527 24.4796 38.5873 21.7597 43.1672 21.393V22.2553C43.1672 22.5353 43.2783 22.8031 43.476 23.0008C43.6737 23.1985 43.942 23.3095 44.2216 23.3095ZM44.2216 51.8277C38.1765 51.8282 32.5715 48.6682 29.4426 43.4958C26.3141 38.3232 26.1179 31.8917 28.9244 26.5384C31.7314 21.1846 37.1331 17.6882 43.1672 17.3196V19.2775V19.2771C37.8324 19.6451 33.0754 22.7684 30.6172 27.5173C28.1591 32.2662 28.3548 37.9536 31.134 42.5217C33.9137 47.0903 38.8739 49.8789 44.2214 49.8789C49.569 49.8789 54.5292 47.0902 57.3087 42.5217C60.0879 37.9535 60.2837 32.2661 57.8255 27.5173C55.3673 22.7684 50.6104 19.6452 45.2755 19.2771V17.3211C51.3093 17.6896 56.711 21.1861 59.5172 26.5398C62.3242 31.8936 62.1279 38.3254 58.9994 43.4972C55.871 48.6698 50.266 51.8297 44.2204 51.8297L44.2216 51.8277ZM56.7149 49.3545C57.4379 48.7431 58.1156 48.08 58.742 47.3702L60.1832 48.8113L58.1773 50.8177L56.7149 49.3545ZM72.8314 63.0383L72.4049 63.4647V63.4651C72.0407 63.8275 71.5479 64.0309 71.0344 64.0309C70.5204 64.0309 70.0277 63.8275 69.6638 63.4651L59.0887 52.8924L62.2571 49.7239L72.8318 60.2981H72.8323C73.1952 60.6619 73.3994 61.1552 73.3994 61.6692C73.3994 62.1836 73.1952 62.6764 72.8323 63.0407L72.8314 63.0383Z" stroke="#1742E7" stroke-width="0.581284" mask="url(#path-1-inside-1_11010_36246)"></path><path d="M34.5223 34.557C34.5223 37.1297 35.5441 39.5963 37.3632 41.4154C39.1818 43.2346 41.6489 44.2563 44.2216 44.2563C46.7938 44.2563 49.2609 43.2345 51.08 41.4154C52.8991 39.5963 53.9208 37.1297 53.9208 34.557C53.9208 31.9844 52.899 29.5178 51.08 27.6987C49.2609 25.8795 46.7938 24.8578 44.2216 24.8578C41.6499 24.8606 39.1846 25.8834 37.3665 27.7019C35.5478 29.5201 34.5251 31.9854 34.5223 34.557ZM45.2759 27.0483C46.9057 27.2789 48.417 28.0333 49.5809 29.1978C50.7453 30.3617 51.4998 31.8725 51.7304 33.5028H45.2763L45.2759 27.0483ZM43.1673 27.0483V34.557C43.1673 34.8366 43.2784 35.1049 43.4761 35.3026C43.6737 35.5002 43.942 35.6113 44.2216 35.6113H51.7304C51.4687 37.4841 50.5175 39.1911 49.0627 40.3988C47.6079 41.6064 45.7544 42.2273 43.8657 42.1402C41.9769 42.0526 40.1889 41.2629 38.8523 39.9257C37.5151 38.589 36.7259 36.801 36.6383 34.9124C36.5513 33.0236 37.1721 31.1701 38.3798 29.7154C39.5879 28.2606 41.2949 27.3094 43.1677 27.0481L43.1673 27.0483Z" stroke="#1742E7" stroke-width="0.581284" mask="url(#path-1-inside-1_11010_36246)"></path><path d="M84.9343 15.6706H67.6649C67.0827 15.6706 66.6106 16.1422 66.6106 16.7249C66.6106 17.3071 67.0827 17.7792 67.6649 17.7792H84.9343C85.5165 17.7792 85.9886 17.3071 85.9886 16.7249C85.9886 16.1422 85.5165 15.6706 84.9343 15.6706Z" stroke="#1742E7" stroke-width="0.581284" mask="url(#path-1-inside-1_11010_36246)"></path><path d="M84.9343 27.2736H67.6649C67.0827 27.2736 66.6106 27.7456 66.6106 28.3278C66.6106 28.91 67.0827 29.3821 67.6649 29.3821H84.9343C85.5165 29.3821 85.9886 28.91 85.9886 28.3278C85.9886 27.7456 85.5165 27.2736 84.9343 27.2736Z" stroke="#1742E7" stroke-width="0.581284" mask="url(#path-1-inside-1_11010_36246)"></path><path d="M84.9343 33.0751H73.4663C72.8841 33.0751 72.4121 33.5471 72.4121 34.1293C72.4121 34.7115 72.8841 35.1836 73.4663 35.1836H84.9343C85.5165 35.1836 85.9886 34.7115 85.9886 34.1293C85.9886 33.5471 85.5165 33.0751 84.9343 33.0751Z" stroke="#1742E7" stroke-width="0.581284" mask="url(#path-1-inside-1_11010_36246)"></path><path d="M84.9343 21.4721H75.7872C75.205 21.4721 74.7329 21.9442 74.7329 22.5264C74.7329 23.1086 75.205 23.5806 75.7872 23.5806H84.9343C85.5165 23.5806 85.9886 23.1086 85.9886 22.5264C85.9886 21.9442 85.5165 21.4721 84.9343 21.4721Z" stroke="#1742E7" stroke-width="0.581284" mask="url(#path-1-inside-1_11010_36246)"></path><path d="M67.6649 23.5806H71.5039C72.0861 23.5806 72.5582 23.1086 72.5582 22.5264C72.5582 21.9442 72.0861 21.4721 71.5039 21.4721H67.6649C67.0827 21.4721 66.6106 21.9442 66.6106 22.5264C66.6106 23.1086 67.0827 23.5806 67.6649 23.5806Z" stroke="#1742E7" stroke-width="0.581284" mask="url(#path-1-inside-1_11010_36246)"></path></svg>