<svg xmlns="http://www.w3.org/2000/svg" width="111" height="77" viewBox="0 0 111 77" fill="none"><path d="M79.3123 10.142H31.5079C29.2483 10.142 27.4102 11.9796 27.4102 14.2397V51.361C27.4102 53.6206 29.2478 55.4587 31.5079 55.4587H35.3112V64.7755H31.256C30.8785 64.7755 30.5727 65.0813 30.5727 65.4587C30.5727 65.8362 30.8785 66.142 31.256 66.142H79.5634C79.9409 66.142 80.2467 65.8362 80.2467 65.4587C80.2467 65.0813 79.9409 64.7755 79.5634 64.7755H75.5086V55.4587H79.3119C81.5715 55.4587 83.4097 53.6211 83.4097 51.361V14.2397C83.4097 11.9801 81.5716 10.142 79.3119 10.142H79.3123ZM31.5079 11.5076H79.3123C80.8186 11.5076 82.044 12.733 82.044 14.2393V20.0573L28.7764 20.0569V14.2397C28.7764 12.7334 30.0018 11.5076 31.5085 11.5076L31.5079 11.5076ZM43.5164 55.4591H45.9757V64.7759H43.5164V55.4591ZM54.1808 55.4591H56.6401V64.7759H54.1808V55.4591ZM64.8451 55.4591H67.3045V64.7759H64.8451V55.4591ZM63.4791 64.7759H58.0056V45.3246C58.0056 45.0739 58.2094 44.8692 58.461 44.8692H63.0238C63.2745 44.8692 63.4792 45.0731 63.4792 45.3246L63.4791 64.7759ZM52.8147 64.7759H47.3412V40.761C47.3412 40.5103 47.5451 40.3057 47.7966 40.3057H52.3594C52.6101 40.3057 52.8148 40.5095 52.8148 40.761L52.8147 64.7759ZM42.1503 64.7759H36.6769L36.6773 48.9761C36.6773 48.7254 36.8811 48.5207 37.1326 48.5207H41.6955C41.9462 48.5207 42.1508 48.7246 42.1508 48.9761L42.1503 64.7759ZM68.6699 64.7759V36.1964C68.6699 35.9457 68.8745 35.741 69.1252 35.741H73.6881C73.9388 35.741 74.1434 35.9448 74.1434 36.1964V64.7759H68.6699ZM79.3123 54.0928H75.509V36.1953C75.509 35.1909 74.6921 34.374 73.6876 34.374H69.1248C68.1203 34.374 67.3034 35.1909 67.3034 36.1953V54.0928H64.8441V45.3243C64.8441 44.3198 64.0272 43.5029 63.0232 43.5029H58.4603C57.4559 43.5029 56.6394 44.3198 56.6394 45.3243V54.0928H54.18L54.1805 40.76C54.1805 39.7555 53.3635 38.9386 52.3591 38.9386H47.7962C46.7918 38.9386 45.9753 39.7555 45.9753 40.76V54.0928H43.516V48.9756C43.516 47.9711 42.699 47.1542 41.6946 47.1542H37.1317C36.1273 47.1542 35.3108 47.9711 35.3108 48.9756V54.0928H31.5082C30.0019 54.0928 28.7765 52.8674 28.7765 51.3611V21.4228H82.0441V51.3611C82.0441 52.867 80.8187 54.0924 79.312 54.0924L79.3123 54.0928ZM33.5147 17.9566C34.7132 17.9566 35.6891 16.9815 35.6891 15.7826C35.6891 14.5842 34.714 13.6086 33.5147 13.6086C32.3154 13.6086 31.3407 14.5837 31.3407 15.7826C31.3411 16.9815 32.3162 17.9566 33.5147 17.9566ZM33.5147 14.9743C33.9603 14.9743 34.3231 15.3371 34.3231 15.7826C34.3231 16.2282 33.9603 16.591 33.5147 16.591C33.0691 16.591 32.7063 16.2282 32.7063 15.7826C32.7063 15.3371 33.0691 14.9743 33.5147 14.9743ZM40.0766 17.9566C41.2751 17.9566 42.2511 16.9815 42.2511 15.7826C42.2511 14.5842 41.276 13.6086 40.0766 13.6086C38.8774 13.6086 37.9027 14.5837 37.9027 15.7826C37.9027 16.9815 38.8782 17.9566 40.0766 17.9566ZM40.0766 14.9743C40.5222 14.9743 40.885 15.3371 40.885 15.7826C40.885 16.2282 40.5222 16.591 40.0766 16.591C39.6311 16.591 39.2683 16.2282 39.2683 15.7826C39.2683 15.3371 39.6311 14.9743 40.0766 14.9743ZM46.6386 17.9566C47.837 17.9566 48.813 16.9815 48.813 15.7826C48.813 14.5842 47.8379 13.6086 46.6386 13.6086C45.4393 13.6086 44.4646 14.5837 44.4646 15.7826C44.4646 16.9815 45.4397 17.9566 46.6386 17.9566ZM46.6386 14.9743C47.0841 14.9743 47.447 15.3371 47.447 15.7826C47.447 16.2282 47.0841 16.591 46.6386 16.591C46.193 16.591 45.8302 16.2282 45.8302 15.7826C45.8298 15.3371 46.1926 14.9743 46.6386 14.9743ZM64.1812 17.9566H77.3043C78.5027 17.9566 79.4787 16.9815 79.4787 15.7822C79.4787 14.5838 78.5036 13.6082 77.3043 13.6082H64.1812C62.9828 13.6082 62.0072 14.5833 62.0072 15.7822C62.0068 16.9815 62.9823 17.9566 64.1812 17.9566ZM64.1812 14.9743H77.3043C77.7498 14.9743 78.1127 15.3371 78.1127 15.7826C78.1127 16.2282 77.7498 16.591 77.3043 16.591L64.1812 16.5914C63.7357 16.5914 63.3729 16.2286 63.3729 15.7831C63.3729 15.3371 63.7353 14.9743 64.1812 14.9743ZM71.5071 25.1606L69.1863 24.8129C68.8134 24.7574 68.4656 25.0142 68.4098 25.3868C68.3539 25.7598 68.6108 26.1076 68.9837 26.1634L69.702 26.271L62.5078 31.7291C62.0239 31.3393 61.4096 31.1058 60.7418 31.1058C59.7842 31.1058 58.9367 31.586 58.4267 32.3177L52.8778 30.2134C52.8904 30.1046 52.8978 29.9941 52.8978 29.8816C52.8978 28.3264 51.632 27.0611 50.0773 27.0611C48.5221 27.0611 47.2568 28.3268 47.2568 29.8816C47.2568 30.2256 47.3188 30.5554 47.4321 30.8603L41.2867 35.0559C40.7882 34.6119 40.1319 34.3412 39.4132 34.3412C37.858 34.3412 36.5927 35.607 36.5927 37.1617C36.5927 38.7165 37.8585 39.9822 39.4132 39.9822C40.9679 39.9822 42.2337 38.7173 42.2337 37.1617C42.2337 36.8177 42.1717 36.4879 42.0584 36.183L48.2037 31.9866C48.7023 32.4305 49.3586 32.7012 50.0773 32.7012C51.0349 32.7012 51.8824 32.221 52.3924 31.4893L57.9413 33.5936C57.9287 33.7024 57.9213 33.8133 57.9213 33.9254C57.9213 35.4806 59.1871 36.7459 60.7418 36.7459C62.297 36.7459 63.5623 35.481 63.5623 33.9254C63.5623 33.5316 63.4808 33.1566 63.3344 32.8158L70.4817 27.3936L70.3827 28.0552C70.3268 28.4282 70.5836 28.776 70.9566 28.8318C71.3296 28.8877 71.6774 28.6308 71.7332 28.2578L72.0809 25.9371C72.1372 25.5641 71.8804 25.2168 71.507 25.1606L71.5071 25.1606ZM39.4138 38.6176C38.6115 38.6176 37.9589 37.9649 37.9589 37.1627C37.9589 36.3605 38.6115 35.7079 39.4138 35.7079C40.216 35.7079 40.8686 36.3605 40.8686 37.1627C40.8686 37.9649 40.216 38.6176 39.4138 38.6176ZM50.0781 31.3365C49.2759 31.3365 48.6233 30.6839 48.6233 29.8817C48.6233 29.0794 49.2759 28.4268 50.0781 28.4268C50.8804 28.4268 51.533 29.0794 51.533 29.8817C51.533 30.6839 50.8804 31.3365 50.0781 31.3365ZM60.7425 35.3816C59.9403 35.3816 59.2877 34.729 59.2877 33.9268C59.2877 33.1246 59.9403 32.4719 60.7425 32.4719C61.5447 32.4719 62.1974 33.1246 62.1974 33.9268C62.1974 34.729 61.5447 35.3816 60.7425 35.3816Z" fill="#1742E7"></path></svg>