<svg xmlns="http://www.w3.org/2000/svg" width="81" height="81" viewBox="0 0 81 81" fill="none"><mask id="path-1-inside-1_922_23561" fill="white"><path fill-rule="evenodd" clip-rule="evenodd" d="M15.3673 13.7554C14.5046 14.0027 13.5638 14.9891 13.3636 15.8564C13.2933 16.1606 13.2561 24.696 13.2543 40.8411C13.2518 64.7875 13.2565 65.3731 13.4536 65.7588C13.7204 66.281 14.3839 66.9536 14.971 67.2972L15.4449 67.5745L28.8288 67.5414C39.0577 67.516 42.3025 67.4778 42.5939 67.3789C43.0361 67.2289 43.9382 66.3206 44.2487 65.713C44.4523 65.3146 44.4634 65.0661 44.4977 60.1726C44.5176 57.3547 44.5643 55.0187 44.6017 54.9814C44.6899 54.8935 47.2481 56.1775 47.8303 56.602C48.0851 56.7879 48.5317 57.3128 48.8658 57.8194C50.3826 60.119 52.533 61.0605 54.8773 60.4516C55.859 60.1965 60.7417 57.6133 60.9394 57.2443C61.2034 56.7519 60.8357 56.0852 60.3002 56.0852C60.1169 56.0852 58.9843 56.5943 57.4934 57.3471C54.5027 58.8569 54.187 58.9729 53.2483 58.9058C51.947 58.8127 51.1965 58.3164 50.3302 56.9757C49.2829 55.3546 49.1566 55.2732 42.6391 52.0254C36.0744 48.754 35.5553 48.4707 35.2236 47.9792C34.6774 47.1701 35.1114 45.7712 36.0617 45.2776C36.6977 44.9472 37.0578 45.0571 39.7575 46.4058C42.5371 47.7944 42.594 47.8083 43.0391 47.2114L43.2543 46.9229L42.3825 45.1572C41.9031 44.186 40.2258 40.9346 38.6551 37.9317C35.6067 32.1037 35.3085 31.4793 35.3046 30.9153C35.3005 30.3316 35.6912 29.661 36.2404 29.3085C36.6668 29.0349 36.8014 29.0016 37.3381 29.0378C37.8457 29.072 38.0014 29.1316 38.2529 29.3879C38.6287 29.7711 39.4166 31.1852 42.2107 36.4915C45.0423 41.869 45.6299 42.9415 45.8321 43.1017C46.2453 43.4291 47.1186 43.0519 47.1186 42.5462C47.1186 42.4083 46.7862 41.6239 46.38 40.8032C45.5567 39.1393 45.4983 38.821 45.8789 38.0676C46.1834 37.4648 46.812 37.0992 47.5441 37.0992C48.3997 37.0992 48.6456 37.3207 49.4453 38.8108C50.2191 40.2528 50.6571 40.8105 51.0155 40.8105C51.285 40.8105 51.8662 40.2754 51.8662 40.0272C51.8662 39.9351 51.5102 39.1499 51.075 38.2823C50.5882 37.3119 50.2837 36.5761 50.2837 36.3704C50.2837 35.5154 51.2467 34.6543 52.1871 34.6684C53.1202 34.6826 53.1795 34.7477 54.5547 37.2669C55.03 38.1375 55.2645 38.3877 55.6057 38.3877C55.9806 38.3877 56.4293 37.9629 56.4293 37.608C56.4293 37.4465 56.091 36.6283 55.6776 35.79C54.8734 34.1592 54.7851 33.7597 55.1083 33.2134C55.3476 32.809 55.9173 32.425 56.511 32.2678C56.9318 32.1564 57.0453 32.1668 57.4719 32.3551C58.0902 32.6283 58.2769 32.8873 59.4652 35.122C62.0544 39.9912 62.9044 41.9818 64.0562 45.8733C64.4345 47.1515 64.9197 48.6093 65.1344 49.1127C65.4867 49.9388 65.525 50.1205 65.5269 50.9761C65.5289 51.8674 65.5065 51.9653 65.1518 52.6089C64.8792 53.104 64.5796 53.4505 64.0704 53.86C63.4498 54.3592 63.3662 54.4691 63.3662 54.7866C63.3662 55.2177 63.7587 55.6638 64.138 55.6638C64.6398 55.6638 65.9497 54.5671 66.5283 53.6623C67.0908 52.7827 67.2965 51.953 67.2466 50.7654C67.2074 49.8287 67.1532 49.5894 66.758 48.6059C66.5136 47.9975 66.0518 46.5991 65.7317 45.4983C64.7011 41.9541 63.9583 40.1307 61.9842 36.2987C59.8226 32.1029 59.3973 31.4726 58.359 30.9253C57.8841 30.675 57.7143 30.6453 56.7722 30.6481C55.8773 30.6508 55.6468 30.6883 55.2538 30.895C54.6114 31.2327 53.8412 31.9779 53.5419 32.5514L53.2905 33.0327L52.7033 32.9682C51.1848 32.8016 49.599 33.6411 48.9339 34.964L48.722 35.3854L47.7884 35.3866C46.5273 35.3881 45.9159 35.609 45.1091 36.355L44.481 36.9355L44.48 26.4163L44.4789 15.897L44.1706 15.3601C43.815 14.7412 42.9335 13.9071 42.5056 13.7847C42.3445 13.7386 37.7729 13.6838 32.3465 13.6629L22.4803 13.625L22.2972 13.9345C22.0692 14.3197 22.067 14.5209 22.2865 14.8918L22.459 15.1833L32.0843 15.2332L41.7097 15.2831L42.0943 15.5204C42.3059 15.6511 42.5215 15.8371 42.5733 15.9339C42.6252 16.0306 42.7023 16.7612 42.7446 17.5572L42.8214 19.0046H28.8118H14.8022L14.8644 17.6914C14.9669 15.5254 15.1631 15.3368 17.4145 15.243C18.6054 15.1933 18.8227 15.1566 19.0281 14.9699C19.3466 14.6805 19.3434 14.1634 19.0213 13.8612C18.7927 13.6468 18.6795 13.6328 17.2541 13.6416C16.4164 13.6469 15.5674 13.6981 15.3673 13.7554ZM42.7929 27.2389C42.7929 30.8987 42.7748 33.8733 42.7527 33.8492C42.7306 33.8251 42.3313 33.0854 41.8653 32.2054L41.0181 30.6057L40.9791 27.9391C40.9353 24.9413 40.8917 24.7326 40.2011 24.2067L39.8025 23.9031L28.8652 23.8748L17.928 23.8466L17.4493 24.2672C16.7707 24.8637 16.7334 25.0917 16.7334 28.6408C16.7334 31.8009 16.773 32.1138 17.2383 32.6271C17.7502 33.192 17.4089 33.169 26.176 33.2259L34.2998 33.2786L35.1015 34.806C38.4202 41.1291 40.2444 44.6544 40.2136 44.685C40.1938 44.7048 39.6511 44.4575 39.0076 44.1353C38.3641 43.8131 37.7685 43.5495 37.684 43.5495C37.4713 43.5495 37.4441 43.486 37.2513 42.5397C36.9049 40.8394 36.0826 39.3566 34.7736 38.0716C33.8491 37.1641 32.7732 36.5106 31.4219 36.0356C30.552 35.7299 30.4151 35.7122 28.9191 35.712C27.7575 35.7119 27.1654 35.7592 26.6931 35.8897C25.1473 36.3172 23.8046 37.1269 22.6778 38.3114C20.9638 40.113 20.2322 42.0889 20.3507 44.5968C20.4205 46.0736 20.5994 46.7858 21.2118 48.0265C22.2755 50.1811 24.2927 51.8309 26.6508 52.4744C27.5994 52.7333 30.1099 52.7337 31.0819 52.4751C32.1556 52.1894 33.5837 51.4361 34.3284 50.7627L34.99 50.1643L37.6518 51.4836C39.1157 52.2092 40.8714 53.0641 41.5532 53.3834L42.7929 53.9637V55.4985V57.0333H28.8136H14.8343V38.809V20.5848H28.8136H42.7929V27.2389ZM39.1719 25.572C39.2819 25.6816 39.3571 27.9588 39.2507 27.9588C39.2071 27.9588 38.9537 27.8283 38.6875 27.6691C38.2452 27.4043 38.1124 27.3795 37.1484 27.3801C36.1806 27.3808 36.0472 27.4063 35.5355 27.6888C34.3861 28.323 33.652 29.4673 33.5402 30.7988L33.4779 31.5404H25.9497H18.4214L18.4222 29.2492C18.4226 27.989 18.4531 26.6392 18.4899 26.2496L18.5569 25.5412L20.1509 25.5033C23.2462 25.4297 39.0863 25.4869 39.1719 25.572ZM30.5544 37.5634C30.8155 37.6244 31.4327 37.8651 31.926 38.0983C33.1924 38.6971 34.3574 39.8596 34.9606 41.1266C35.3909 42.0306 35.7541 43.2436 35.6642 43.4773C35.6374 43.547 35.4025 43.7169 35.1421 43.8548C34.5166 44.1861 33.8711 44.8998 33.5292 45.6379C33.1599 46.435 33.1511 47.5278 33.5064 48.4417L33.7498 49.0675L33.3478 49.4045C32.1234 50.4308 30.7869 50.9375 29.1301 51.0034C27.6912 51.0606 26.8532 50.8826 25.6615 50.2665C24.3872 49.6077 23.3382 48.526 22.7139 47.2271C22.1567 46.0679 22.0079 45.4393 22.0104 44.2554C22.014 42.5719 22.4959 41.157 23.4911 39.9083C24.4961 38.6471 26.1838 37.6423 27.6375 37.4393C28.3758 37.3361 29.8506 37.3989 30.5544 37.5634ZM29.9065 43.1996L27.1843 45.9047L26.132 44.8851C24.9485 43.7384 24.7345 43.6577 24.2863 44.1896C23.7973 44.7698 23.8719 44.9196 25.4192 46.4646C26.6458 47.6893 26.869 47.8685 27.1676 47.8685C27.4716 47.8685 27.7646 47.6179 29.7841 45.63C32.5265 42.9306 33.7195 41.6271 33.7195 41.3301C33.7195 41.0382 33.1639 40.4945 32.8657 40.4945C32.6969 40.4945 31.8459 41.2724 29.9065 43.1996ZM42.7375 61.9581C42.694 63.8176 42.6172 65.2529 42.5572 65.3278C42.4997 65.3995 42.2799 65.5654 42.0689 65.6965L41.6851 65.9346L28.9191 65.9347C16.363 65.9347 16.1462 65.9313 15.734 65.7241C14.9282 65.319 14.8985 65.1856 14.8511 61.7503L14.8092 58.7188H28.8112H42.8132L42.7375 61.9581ZM25.8324 60.2831C25.4234 60.4007 24.8434 60.939 24.6373 61.3921C24.1975 62.3593 24.4927 63.4876 25.3583 64.1476L25.8371 64.5126L28.5386 64.508C30.0245 64.5055 31.446 64.4637 31.6978 64.4152C32.6384 64.2337 33.4184 63.0177 33.2363 62.0164C33.1455 61.5168 32.8597 60.939 32.5772 60.6839C32.1031 60.2558 31.6812 60.2025 28.8136 60.2087C27.3049 60.2119 25.9633 60.2454 25.8324 60.2831ZM31.2402 61.9715C31.5062 62.0283 31.5567 62.0894 31.5567 62.3542C31.5567 62.6683 31.5547 62.6693 30.7654 62.7543C30.3302 62.8012 29.154 62.8222 28.1519 62.8009C26.6068 62.7682 26.3021 62.7349 26.1491 62.582C25.8905 62.3238 26.0949 62.0531 26.6088 61.973C27.1589 61.8874 30.8402 61.8862 31.2402 61.9715Z"></path></mask><path fill-rule="evenodd" clip-rule="evenodd" d="M15.3673 13.7554C14.5046 14.0027 13.5638 14.9891 13.3636 15.8564C13.2933 16.1606 13.2561 24.696 13.2543 40.8411C13.2518 64.7875 13.2565 65.3731 13.4536 65.7588C13.7204 66.281 14.3839 66.9536 14.971 67.2972L15.4449 67.5745L28.8288 67.5414C39.0577 67.516 42.3025 67.4778 42.5939 67.3789C43.0361 67.2289 43.9382 66.3206 44.2487 65.713C44.4523 65.3146 44.4634 65.0661 44.4977 60.1726C44.5176 57.3547 44.5643 55.0187 44.6017 54.9814C44.6899 54.8935 47.2481 56.1775 47.8303 56.602C48.0851 56.7879 48.5317 57.3128 48.8658 57.8194C50.3826 60.119 52.533 61.0605 54.8773 60.4516C55.859 60.1965 60.7417 57.6133 60.9394 57.2443C61.2034 56.7519 60.8357 56.0852 60.3002 56.0852C60.1169 56.0852 58.9843 56.5943 57.4934 57.3471C54.5027 58.8569 54.187 58.9729 53.2483 58.9058C51.947 58.8127 51.1965 58.3164 50.3302 56.9757C49.2829 55.3546 49.1566 55.2732 42.6391 52.0254C36.0744 48.754 35.5553 48.4707 35.2236 47.9792C34.6774 47.1701 35.1114 45.7712 36.0617 45.2776C36.6977 44.9472 37.0578 45.0571 39.7575 46.4058C42.5371 47.7944 42.594 47.8083 43.0391 47.2114L43.2543 46.9229L42.3825 45.1572C41.9031 44.186 40.2258 40.9346 38.6551 37.9317C35.6067 32.1037 35.3085 31.4793 35.3046 30.9153C35.3005 30.3316 35.6912 29.661 36.2404 29.3085C36.6668 29.0349 36.8014 29.0016 37.3381 29.0378C37.8457 29.072 38.0014 29.1316 38.2529 29.3879C38.6287 29.7711 39.4166 31.1852 42.2107 36.4915C45.0423 41.869 45.6299 42.9415 45.8321 43.1017C46.2453 43.4291 47.1186 43.0519 47.1186 42.5462C47.1186 42.4083 46.7862 41.6239 46.38 40.8032C45.5567 39.1393 45.4983 38.821 45.8789 38.0676C46.1834 37.4648 46.812 37.0992 47.5441 37.0992C48.3997 37.0992 48.6456 37.3207 49.4453 38.8108C50.2191 40.2528 50.6571 40.8105 51.0155 40.8105C51.285 40.8105 51.8662 40.2754 51.8662 40.0272C51.8662 39.9351 51.5102 39.1499 51.075 38.2823C50.5882 37.3119 50.2837 36.5761 50.2837 36.3704C50.2837 35.5154 51.2467 34.6543 52.1871 34.6684C53.1202 34.6826 53.1795 34.7477 54.5547 37.2669C55.03 38.1375 55.2645 38.3877 55.6057 38.3877C55.9806 38.3877 56.4293 37.9629 56.4293 37.608C56.4293 37.4465 56.091 36.6283 55.6776 35.79C54.8734 34.1592 54.7851 33.7597 55.1083 33.2134C55.3476 32.809 55.9173 32.425 56.511 32.2678C56.9318 32.1564 57.0453 32.1668 57.4719 32.3551C58.0902 32.6283 58.2769 32.8873 59.4652 35.122C62.0544 39.9912 62.9044 41.9818 64.0562 45.8733C64.4345 47.1515 64.9197 48.6093 65.1344 49.1127C65.4867 49.9388 65.525 50.1205 65.5269 50.9761C65.5289 51.8674 65.5065 51.9653 65.1518 52.6089C64.8792 53.104 64.5796 53.4505 64.0704 53.86C63.4498 54.3592 63.3662 54.4691 63.3662 54.7866C63.3662 55.2177 63.7587 55.6638 64.138 55.6638C64.6398 55.6638 65.9497 54.5671 66.5283 53.6623C67.0908 52.7827 67.2965 51.953 67.2466 50.7654C67.2074 49.8287 67.1532 49.5894 66.758 48.6059C66.5136 47.9975 66.0518 46.5991 65.7317 45.4983C64.7011 41.9541 63.9583 40.1307 61.9842 36.2987C59.8226 32.1029 59.3973 31.4726 58.359 30.9253C57.8841 30.675 57.7143 30.6453 56.7722 30.6481C55.8773 30.6508 55.6468 30.6883 55.2538 30.895C54.6114 31.2327 53.8412 31.9779 53.5419 32.5514L53.2905 33.0327L52.7033 32.9682C51.1848 32.8016 49.599 33.6411 48.9339 34.964L48.722 35.3854L47.7884 35.3866C46.5273 35.3881 45.9159 35.609 45.1091 36.355L44.481 36.9355L44.48 26.4163L44.4789 15.897L44.1706 15.3601C43.815 14.7412 42.9335 13.9071 42.5056 13.7847C42.3445 13.7386 37.7729 13.6838 32.3465 13.6629L22.4803 13.625L22.2972 13.9345C22.0692 14.3197 22.067 14.5209 22.2865 14.8918L22.459 15.1833L32.0843 15.2332L41.7097 15.2831L42.0943 15.5204C42.3059 15.6511 42.5215 15.8371 42.5733 15.9339C42.6252 16.0306 42.7023 16.7612 42.7446 17.5572L42.8214 19.0046H28.8118H14.8022L14.8644 17.6914C14.9669 15.5254 15.1631 15.3368 17.4145 15.243C18.6054 15.1933 18.8227 15.1566 19.0281 14.9699C19.3466 14.6805 19.3434 14.1634 19.0213 13.8612C18.7927 13.6468 18.6795 13.6328 17.2541 13.6416C16.4164 13.6469 15.5674 13.6981 15.3673 13.7554ZM42.7929 27.2389C42.7929 30.8987 42.7748 33.8733 42.7527 33.8492C42.7306 33.8251 42.3313 33.0854 41.8653 32.2054L41.0181 30.6057L40.9791 27.9391C40.9353 24.9413 40.8917 24.7326 40.2011 24.2067L39.8025 23.9031L28.8652 23.8748L17.928 23.8466L17.4493 24.2672C16.7707 24.8637 16.7334 25.0917 16.7334 28.6408C16.7334 31.8009 16.773 32.1138 17.2383 32.6271C17.7502 33.192 17.4089 33.169 26.176 33.2259L34.2998 33.2786L35.1015 34.806C38.4202 41.1291 40.2444 44.6544 40.2136 44.685C40.1938 44.7048 39.6511 44.4575 39.0076 44.1353C38.3641 43.8131 37.7685 43.5495 37.684 43.5495C37.4713 43.5495 37.4441 43.486 37.2513 42.5397C36.9049 40.8394 36.0826 39.3566 34.7736 38.0716C33.8491 37.1641 32.7732 36.5106 31.4219 36.0356C30.552 35.7299 30.4151 35.7122 28.9191 35.712C27.7575 35.7119 27.1654 35.7592 26.6931 35.8897C25.1473 36.3172 23.8046 37.1269 22.6778 38.3114C20.9638 40.113 20.2322 42.0889 20.3507 44.5968C20.4205 46.0736 20.5994 46.7858 21.2118 48.0265C22.2755 50.1811 24.2927 51.8309 26.6508 52.4744C27.5994 52.7333 30.1099 52.7337 31.0819 52.4751C32.1556 52.1894 33.5837 51.4361 34.3284 50.7627L34.99 50.1643L37.6518 51.4836C39.1157 52.2092 40.8714 53.0641 41.5532 53.3834L42.7929 53.9637V55.4985V57.0333H28.8136H14.8343V38.809V20.5848H28.8136H42.7929V27.2389ZM39.1719 25.572C39.2819 25.6816 39.3571 27.9588 39.2507 27.9588C39.2071 27.9588 38.9537 27.8283 38.6875 27.6691C38.2452 27.4043 38.1124 27.3795 37.1484 27.3801C36.1806 27.3808 36.0472 27.4063 35.5355 27.6888C34.3861 28.323 33.652 29.4673 33.5402 30.7988L33.4779 31.5404H25.9497H18.4214L18.4222 29.2492C18.4226 27.989 18.4531 26.6392 18.4899 26.2496L18.5569 25.5412L20.1509 25.5033C23.2462 25.4297 39.0863 25.4869 39.1719 25.572ZM30.5544 37.5634C30.8155 37.6244 31.4327 37.8651 31.926 38.0983C33.1924 38.6971 34.3574 39.8596 34.9606 41.1266C35.3909 42.0306 35.7541 43.2436 35.6642 43.4773C35.6374 43.547 35.4025 43.7169 35.1421 43.8548C34.5166 44.1861 33.8711 44.8998 33.5292 45.6379C33.1599 46.435 33.1511 47.5278 33.5064 48.4417L33.7498 49.0675L33.3478 49.4045C32.1234 50.4308 30.7869 50.9375 29.1301 51.0034C27.6912 51.0606 26.8532 50.8826 25.6615 50.2665C24.3872 49.6077 23.3382 48.526 22.7139 47.2271C22.1567 46.0679 22.0079 45.4393 22.0104 44.2554C22.014 42.5719 22.4959 41.157 23.4911 39.9083C24.4961 38.6471 26.1838 37.6423 27.6375 37.4393C28.3758 37.3361 29.8506 37.3989 30.5544 37.5634ZM29.9065 43.1996L27.1843 45.9047L26.132 44.8851C24.9485 43.7384 24.7345 43.6577 24.2863 44.1896C23.7973 44.7698 23.8719 44.9196 25.4192 46.4646C26.6458 47.6893 26.869 47.8685 27.1676 47.8685C27.4716 47.8685 27.7646 47.6179 29.7841 45.63C32.5265 42.9306 33.7195 41.6271 33.7195 41.3301C33.7195 41.0382 33.1639 40.4945 32.8657 40.4945C32.6969 40.4945 31.8459 41.2724 29.9065 43.1996ZM42.7375 61.9581C42.694 63.8176 42.6172 65.2529 42.5572 65.3278C42.4997 65.3995 42.2799 65.5654 42.0689 65.6965L41.6851 65.9346L28.9191 65.9347C16.363 65.9347 16.1462 65.9313 15.734 65.7241C14.9282 65.319 14.8985 65.1856 14.8511 61.7503L14.8092 58.7188H28.8112H42.8132L42.7375 61.9581ZM25.8324 60.2831C25.4234 60.4007 24.8434 60.939 24.6373 61.3921C24.1975 62.3593 24.4927 63.4876 25.3583 64.1476L25.8371 64.5126L28.5386 64.508C30.0245 64.5055 31.446 64.4637 31.6978 64.4152C32.6384 64.2337 33.4184 63.0177 33.2363 62.0164C33.1455 61.5168 32.8597 60.939 32.5772 60.6839C32.1031 60.2558 31.6812 60.2025 28.8136 60.2087C27.3049 60.2119 25.9633 60.2454 25.8324 60.2831ZM31.2402 61.9715C31.5062 62.0283 31.5567 62.0894 31.5567 62.3542C31.5567 62.6683 31.5547 62.6693 30.7654 62.7543C30.3302 62.8012 29.154 62.8222 28.1519 62.8009C26.6068 62.7682 26.3021 62.7349 26.1491 62.582C25.8905 62.3238 26.0949 62.0531 26.6088 61.973C27.1589 61.8874 30.8402 61.8862 31.2402 61.9715Z" fill="#1742E7" stroke="#1742E7" stroke-width="0.56" mask="url(#path-1-inside-1_922_23561)"></path></svg>