<svg xmlns="http://www.w3.org/2000/svg" width="79" height="81" viewBox="0 0 79 81" fill="none"><mask id="path-1-inside-1_922_23627" fill="white"><path fill-rule="evenodd" clip-rule="evenodd" d="M4.80912 0.888017C2.62316 1.59042 0.946622 3.38322 0.333915 5.67356C0.164214 6.3083 0.124679 10.6038 0.123117 28.5723C0.121398 48.0614 0.149994 50.8004 0.363761 51.6211C0.849582 53.4865 2.05281 54.9809 3.75466 55.8323C4.35768 56.1339 4.93367 56.3808 5.03446 56.3808C5.13525 56.3808 5.34792 55.8711 5.50699 55.2479C5.66607 54.6248 5.82061 54.0447 5.85046 53.9588C5.88015 53.8728 5.58763 53.6723 5.20009 53.5134C4.32252 53.1532 3.34776 52.0703 3.1057 51.1867C2.9696 50.6902 2.9346 44.855 2.96772 28.2412L3.0121 5.96156L3.48652 5.19243C4.01984 4.32799 5.21259 3.51104 6.17361 3.35228C7.27714 3.16992 60.2007 3.23727 61.0628 3.42213C62.8037 3.7956 63.9572 5.27978 64.1343 7.3748L64.2348 8.56443H65.5402H66.8454V7.40886C66.8454 4.37315 64.9795 1.76637 62.1899 0.904737C61.2056 0.600806 60.6751 0.595181 33.4279 0.603463C7.32855 0.611276 5.61716 0.628309 4.80912 0.888017ZM5.43418 7.23619V8.56443H6.84054H8.24691V7.23619V5.90796H6.84054H5.43418V7.23619ZM10.7471 7.23619V8.56443H12.1535H13.5598V7.23619V5.90796H12.1535H10.7471V7.23619ZM16.06 7.23619V8.56443H17.4664H18.8728V7.23619V5.90796H17.4664H16.06V7.23619ZM13.0948 11.4703C11.4794 11.9064 10.1246 12.9146 9.16761 14.3927C8.03705 16.139 8.09064 14.9029 8.09064 39.2541C8.09064 54.6815 8.14159 61.2953 8.26488 61.8814C8.79914 64.4221 10.7026 66.4415 13.1629 67.0783C13.9499 67.2819 15.4942 67.3192 23.1247 67.3192H32.1551V65.9129V64.5065L23.0528 64.5031C14.2336 64.4998 13.9286 64.4898 13.2473 64.1813C12.303 63.7539 11.7197 63.1797 11.2757 62.2407L10.9065 61.4594V39.2701V17.0807L11.2743 16.2907C11.7045 15.3667 12.6804 14.4718 13.5377 14.215C13.9871 14.0803 21.2234 14.0336 41.6356 14.0336H69.128L69.9402 14.4383C70.387 14.661 70.9658 15.1004 71.2264 15.415C72.2115 16.6038 72.1667 15.3925 72.1215 39.5909L72.0802 61.6156L71.6329 62.4655L71.1855 63.3156L72.1017 64.139C72.6056 64.5918 73.0881 64.9433 73.1741 64.9201C73.4641 64.842 74.2843 63.4731 74.5526 62.6195C74.7995 61.8343 74.8161 60.0918 74.778 38.9575L74.7367 16.1432L74.2229 15.0928C73.5122 13.6397 72.4475 12.5937 70.9522 11.8797L69.7363 11.299L41.8434 11.2692C17.6561 11.2432 13.8369 11.27 13.0948 11.4703ZM13.4365 17.9011L13.4817 19.2684L14.849 19.3136L16.2163 19.3587V17.9463V16.5338H14.8038H13.3914L13.4365 17.9011ZM18.7825 16.7438C18.7381 16.8593 18.7228 17.4745 18.7482 18.1111L18.7946 19.2684L20.1619 19.3136L21.5292 19.3587V17.9463V16.5338H20.1962C19.2242 16.5338 18.8412 16.5907 18.7825 16.7438ZM24.1857 17.9402V19.3466H25.5139H26.8422V17.9402V16.5338H25.5139H24.1857V17.9402ZM53.5111 21.951C53.4537 22.0082 53.4068 24.8115 53.4068 28.1804V34.3057L52.7427 34.1773C52.3775 34.1067 51.8159 34.0459 51.495 34.0421L50.9112 34.0353L50.8699 29.3083L50.8285 24.5814H49.5003H48.172L48.1306 29.3083L48.0894 34.0353L47.5056 34.0421C47.1846 34.0459 46.6249 34.1064 46.262 34.1765L45.602 34.3043L45.5589 32.0993L45.5156 29.8943H44.1873H42.8591L42.781 32.5148L42.7028 35.1353L41.4945 35.7245L40.2861 36.3136L40.2444 32.4789L40.2026 28.6442L38.8353 28.599L37.468 28.5539V33.3883V38.2226L36.1398 39.5781L34.8116 40.9335V36.0781V31.2225H33.4833H32.1551V38.3833V45.544L31.7643 46.6932C31.0685 48.739 30.8375 50.3122 30.8527 52.904L30.8666 55.287H22.1351H13.4036V56.614V57.941L22.4832 57.9813L31.5629 58.0216L31.9154 58.9592C34.2989 65.2958 39.5967 69.7676 46.1859 71.0048C47.9512 71.3363 51.0546 71.3341 52.837 71.0002C55.1 70.5761 57.9289 69.4566 59.5647 68.3379L60.1752 67.9204L66.5229 74.2609C72.7305 80.4619 72.8841 80.6016 73.4855 80.6016C74.0704 80.6016 74.2176 80.4844 76.489 78.2129C78.643 76.0592 78.8777 75.7716 78.8777 75.2874C78.8777 74.7884 78.4162 74.2884 72.3643 68.2302L65.851 61.71L66.422 60.4909C66.7361 59.8203 67.0897 58.9904 67.2078 58.6466L67.4227 58.0216L68.4623 57.9753L69.5019 57.9292V56.608V55.287H68.8179H68.134L68.1479 52.904C68.163 50.3122 67.9321 48.739 67.2363 46.6932L66.8454 45.544V39.0865V32.6289H65.5172H64.189V36.7858V40.9429L62.8607 39.569L61.5325 38.1951V32.6714V27.1475L60.1652 27.1927L58.7979 27.2378L58.7565 31.7752L58.7151 36.3126L57.4673 35.716L56.2196 35.1194V28.4831V21.8468H54.9174C54.2011 21.8468 53.5683 21.8936 53.5111 21.951ZM21.5292 44.583V52.6305H22.8575H24.1857V44.583V36.5355H22.8575H21.5292V44.583ZM52.7037 36.9877C60.1479 38.5322 65.4391 45.0313 65.4391 52.6305C65.4391 59.8325 60.5121 66.1859 53.485 68.0455C51.3348 68.6145 47.9441 68.6534 45.8583 68.133C41.4421 67.0312 37.8562 64.3476 35.6671 60.5063C30.3181 51.1199 35.6485 39.2429 46.2188 36.9961C48.0356 36.6098 50.8651 36.6061 52.7037 36.9877ZM47.4689 39.3637C42.6602 40.0956 38.3958 43.7006 36.858 48.3333C35.1691 53.4215 36.4951 58.6566 40.4078 62.3477C42.9243 64.7215 45.9625 65.9129 49.5003 65.9129C54.03 65.9129 58.0952 63.7582 60.5852 60.0371C62.134 57.7227 62.8304 55.3617 62.816 52.4743C62.7807 45.3676 57.18 39.5782 50.0472 39.2754C49.1877 39.239 48.0275 39.2787 47.4689 39.3637ZM26.8422 46.6144V52.6305H28.1704H29.4986V46.6144V40.5983H28.1704H26.8422V46.6144ZM48.0939 47.3957V52.6305H49.5003H50.9066V47.3957V42.1609H51.2479C51.4357 42.1609 51.9983 42.2756 52.498 42.4159L53.4068 42.671V47.6507V52.6305H54.8132H56.2196V48.5677C56.2196 46.1984 56.2796 44.5049 56.3633 44.5049C56.7267 44.5049 58.3169 46.5652 58.9564 47.8645C60.0172 50.0198 60.3663 52.3203 59.9483 54.4015L59.7705 55.287H49.5003H39.2301L39.0522 54.4015C38.5448 51.8753 39.2094 48.8549 40.7735 46.5785C41.3843 45.6896 42.4533 44.5049 42.6446 44.5049C42.7196 44.5049 42.781 46.3331 42.781 48.5677V52.6305H44.1873H45.5937V47.6501V42.6697L46.4141 42.428C46.8652 42.295 47.4279 42.1805 47.6642 42.1736L48.0939 42.1609V47.3957ZM16.1643 44.6091C16.1069 44.6663 16.06 46.4946 16.06 48.6719V52.6305H17.4664H18.8728V48.5677V44.5049H17.5706C16.8543 44.5049 16.2215 44.5517 16.1643 44.6091ZM58.5635 58.0786C58.5635 58.4607 56.6265 60.554 55.6312 61.2476C53.7252 62.5759 51.8612 63.1561 49.5003 63.1561C47.1393 63.1561 45.2754 62.5759 43.3693 61.2476C42.3741 60.554 40.437 58.4607 40.437 58.0786C40.437 58.0041 44.5041 57.9435 49.5003 57.9435C54.4965 57.9435 58.5635 58.0041 58.5635 58.0786ZM74.5026 76.304L73.4919 77.3238L67.9143 71.7477L62.3366 66.1718L63.3019 65.1147L64.2671 64.0574L69.8902 69.6708L75.5132 75.2844L74.5026 76.304Z"></path></mask><path fill-rule="evenodd" clip-rule="evenodd" d="M4.80912 0.888017C2.62316 1.59042 0.946622 3.38322 0.333915 5.67356C0.164214 6.3083 0.124679 10.6038 0.123117 28.5723C0.121398 48.0614 0.149994 50.8004 0.363761 51.6211C0.849582 53.4865 2.05281 54.9809 3.75466 55.8323C4.35768 56.1339 4.93367 56.3808 5.03446 56.3808C5.13525 56.3808 5.34792 55.8711 5.50699 55.2479C5.66607 54.6248 5.82061 54.0447 5.85046 53.9588C5.88015 53.8728 5.58763 53.6723 5.20009 53.5134C4.32252 53.1532 3.34776 52.0703 3.1057 51.1867C2.9696 50.6902 2.9346 44.855 2.96772 28.2412L3.0121 5.96156L3.48652 5.19243C4.01984 4.32799 5.21259 3.51104 6.17361 3.35228C7.27714 3.16992 60.2007 3.23727 61.0628 3.42213C62.8037 3.7956 63.9572 5.27978 64.1343 7.3748L64.2348 8.56443H65.5402H66.8454V7.40886C66.8454 4.37315 64.9795 1.76637 62.1899 0.904737C61.2056 0.600806 60.6751 0.595181 33.4279 0.603463C7.32855 0.611276 5.61716 0.628309 4.80912 0.888017ZM5.43418 7.23619V8.56443H6.84054H8.24691V7.23619V5.90796H6.84054H5.43418V7.23619ZM10.7471 7.23619V8.56443H12.1535H13.5598V7.23619V5.90796H12.1535H10.7471V7.23619ZM16.06 7.23619V8.56443H17.4664H18.8728V7.23619V5.90796H17.4664H16.06V7.23619ZM13.0948 11.4703C11.4794 11.9064 10.1246 12.9146 9.16761 14.3927C8.03705 16.139 8.09064 14.9029 8.09064 39.2541C8.09064 54.6815 8.14159 61.2953 8.26488 61.8814C8.79914 64.4221 10.7026 66.4415 13.1629 67.0783C13.9499 67.2819 15.4942 67.3192 23.1247 67.3192H32.1551V65.9129V64.5065L23.0528 64.5031C14.2336 64.4998 13.9286 64.4898 13.2473 64.1813C12.303 63.7539 11.7197 63.1797 11.2757 62.2407L10.9065 61.4594V39.2701V17.0807L11.2743 16.2907C11.7045 15.3667 12.6804 14.4718 13.5377 14.215C13.9871 14.0803 21.2234 14.0336 41.6356 14.0336H69.128L69.9402 14.4383C70.387 14.661 70.9658 15.1004 71.2264 15.415C72.2115 16.6038 72.1667 15.3925 72.1215 39.5909L72.0802 61.6156L71.6329 62.4655L71.1855 63.3156L72.1017 64.139C72.6056 64.5918 73.0881 64.9433 73.1741 64.9201C73.4641 64.842 74.2843 63.4731 74.5526 62.6195C74.7995 61.8343 74.8161 60.0918 74.778 38.9575L74.7367 16.1432L74.2229 15.0928C73.5122 13.6397 72.4475 12.5937 70.9522 11.8797L69.7363 11.299L41.8434 11.2692C17.6561 11.2432 13.8369 11.27 13.0948 11.4703ZM13.4365 17.9011L13.4817 19.2684L14.849 19.3136L16.2163 19.3587V17.9463V16.5338H14.8038H13.3914L13.4365 17.9011ZM18.7825 16.7438C18.7381 16.8593 18.7228 17.4745 18.7482 18.1111L18.7946 19.2684L20.1619 19.3136L21.5292 19.3587V17.9463V16.5338H20.1962C19.2242 16.5338 18.8412 16.5907 18.7825 16.7438ZM24.1857 17.9402V19.3466H25.5139H26.8422V17.9402V16.5338H25.5139H24.1857V17.9402ZM53.5111 21.951C53.4537 22.0082 53.4068 24.8115 53.4068 28.1804V34.3057L52.7427 34.1773C52.3775 34.1067 51.8159 34.0459 51.495 34.0421L50.9112 34.0353L50.8699 29.3083L50.8285 24.5814H49.5003H48.172L48.1306 29.3083L48.0894 34.0353L47.5056 34.0421C47.1846 34.0459 46.6249 34.1064 46.262 34.1765L45.602 34.3043L45.5589 32.0993L45.5156 29.8943H44.1873H42.8591L42.781 32.5148L42.7028 35.1353L41.4945 35.7245L40.2861 36.3136L40.2444 32.4789L40.2026 28.6442L38.8353 28.599L37.468 28.5539V33.3883V38.2226L36.1398 39.5781L34.8116 40.9335V36.0781V31.2225H33.4833H32.1551V38.3833V45.544L31.7643 46.6932C31.0685 48.739 30.8375 50.3122 30.8527 52.904L30.8666 55.287H22.1351H13.4036V56.614V57.941L22.4832 57.9813L31.5629 58.0216L31.9154 58.9592C34.2989 65.2958 39.5967 69.7676 46.1859 71.0048C47.9512 71.3363 51.0546 71.3341 52.837 71.0002C55.1 70.5761 57.9289 69.4566 59.5647 68.3379L60.1752 67.9204L66.5229 74.2609C72.7305 80.4619 72.8841 80.6016 73.4855 80.6016C74.0704 80.6016 74.2176 80.4844 76.489 78.2129C78.643 76.0592 78.8777 75.7716 78.8777 75.2874C78.8777 74.7884 78.4162 74.2884 72.3643 68.2302L65.851 61.71L66.422 60.4909C66.7361 59.8203 67.0897 58.9904 67.2078 58.6466L67.4227 58.0216L68.4623 57.9753L69.5019 57.9292V56.608V55.287H68.8179H68.134L68.1479 52.904C68.163 50.3122 67.9321 48.739 67.2363 46.6932L66.8454 45.544V39.0865V32.6289H65.5172H64.189V36.7858V40.9429L62.8607 39.569L61.5325 38.1951V32.6714V27.1475L60.1652 27.1927L58.7979 27.2378L58.7565 31.7752L58.7151 36.3126L57.4673 35.716L56.2196 35.1194V28.4831V21.8468H54.9174C54.2011 21.8468 53.5683 21.8936 53.5111 21.951ZM21.5292 44.583V52.6305H22.8575H24.1857V44.583V36.5355H22.8575H21.5292V44.583ZM52.7037 36.9877C60.1479 38.5322 65.4391 45.0313 65.4391 52.6305C65.4391 59.8325 60.5121 66.1859 53.485 68.0455C51.3348 68.6145 47.9441 68.6534 45.8583 68.133C41.4421 67.0312 37.8562 64.3476 35.6671 60.5063C30.3181 51.1199 35.6485 39.2429 46.2188 36.9961C48.0356 36.6098 50.8651 36.6061 52.7037 36.9877ZM47.4689 39.3637C42.6602 40.0956 38.3958 43.7006 36.858 48.3333C35.1691 53.4215 36.4951 58.6566 40.4078 62.3477C42.9243 64.7215 45.9625 65.9129 49.5003 65.9129C54.03 65.9129 58.0952 63.7582 60.5852 60.0371C62.134 57.7227 62.8304 55.3617 62.816 52.4743C62.7807 45.3676 57.18 39.5782 50.0472 39.2754C49.1877 39.239 48.0275 39.2787 47.4689 39.3637ZM26.8422 46.6144V52.6305H28.1704H29.4986V46.6144V40.5983H28.1704H26.8422V46.6144ZM48.0939 47.3957V52.6305H49.5003H50.9066V47.3957V42.1609H51.2479C51.4357 42.1609 51.9983 42.2756 52.498 42.4159L53.4068 42.671V47.6507V52.6305H54.8132H56.2196V48.5677C56.2196 46.1984 56.2796 44.5049 56.3633 44.5049C56.7267 44.5049 58.3169 46.5652 58.9564 47.8645C60.0172 50.0198 60.3663 52.3203 59.9483 54.4015L59.7705 55.287H49.5003H39.2301L39.0522 54.4015C38.5448 51.8753 39.2094 48.8549 40.7735 46.5785C41.3843 45.6896 42.4533 44.5049 42.6446 44.5049C42.7196 44.5049 42.781 46.3331 42.781 48.5677V52.6305H44.1873H45.5937V47.6501V42.6697L46.4141 42.428C46.8652 42.295 47.4279 42.1805 47.6642 42.1736L48.0939 42.1609V47.3957ZM16.1643 44.6091C16.1069 44.6663 16.06 46.4946 16.06 48.6719V52.6305H17.4664H18.8728V48.5677V44.5049H17.5706C16.8543 44.5049 16.2215 44.5517 16.1643 44.6091ZM58.5635 58.0786C58.5635 58.4607 56.6265 60.554 55.6312 61.2476C53.7252 62.5759 51.8612 63.1561 49.5003 63.1561C47.1393 63.1561 45.2754 62.5759 43.3693 61.2476C42.3741 60.554 40.437 58.4607 40.437 58.0786C40.437 58.0041 44.5041 57.9435 49.5003 57.9435C54.4965 57.9435 58.5635 58.0041 58.5635 58.0786ZM74.5026 76.304L73.4919 77.3238L67.9143 71.7477L62.3366 66.1718L63.3019 65.1147L64.2671 64.0574L69.8902 69.6708L75.5132 75.2844L74.5026 76.304Z" fill="#1742E7" stroke="#1742E7" stroke-width="0.6" mask="url(#path-1-inside-1_922_23627)"></path></svg>