<svg xmlns="http://www.w3.org/2000/svg" width="81" height="81" viewBox="0 0 81 81" fill="none"><mask id="path-1-inside-1_922_23520" fill="white"><path fill-rule="evenodd" clip-rule="evenodd" d="M27.1441 12.7346C23.0354 13.5138 19.6448 16.9129 18.9676 20.9317L18.8148 21.8382L17.7136 21.9128C16.0263 22.027 14.8514 22.5551 13.7923 23.6753C10.8473 26.7897 12.3347 31.8392 16.5182 32.929C17.0618 33.0707 18.1485 33.1032 22.3389 33.1032H27.4911L27.3332 33.7123C26.5957 36.5559 28.4816 39.6247 31.4402 40.3956C31.9968 40.5405 32.9464 40.5743 36.4734 40.5743H40.8204L40.5339 40.8609C40.2986 41.0961 40.2474 41.263 40.2474 41.7947V42.442H28.3851C19.4126 42.442 16.4057 42.4766 16.0423 42.584C15.4012 42.7735 14.4343 43.7405 14.2449 44.3817C14.1388 44.7409 14.103 47.1507 14.103 53.9248V62.9875H13.5141C13.0445 62.9875 12.8672 63.0455 12.6388 63.2741C12.4812 63.4317 12.3522 63.6588 12.3522 63.779C12.3522 64.2638 12.8425 66.6788 13.0146 67.0414C13.2637 67.5664 14.1037 68.2856 14.664 68.4535C15.3228 68.6509 48.3649 68.6509 49.0236 68.4535C49.584 68.2856 50.424 67.5664 50.6731 67.0414C50.8451 66.6788 51.3354 64.2638 51.3354 63.779C51.3354 63.6588 51.2065 63.4317 51.0489 63.2741C50.8205 63.0455 50.6432 62.9875 50.1735 62.9875H49.5847V57.3842V51.7809H50.2319C50.7635 51.7809 50.9304 51.7296 51.1656 51.4943C51.3232 51.3367 51.453 51.1135 51.4539 50.9982C51.4577 50.5506 51.6143 50.4856 52.096 50.7312C52.3556 50.8636 52.6544 50.9336 52.7899 50.8938C53.0987 50.8029 55.9904 47.9527 56.1295 47.602C56.2249 47.3617 56.1305 47.0159 55.7984 46.3884C55.7748 46.3438 55.9671 46.2504 56.2257 46.1807C57.0158 45.968 57.0545 45.8353 57.0545 43.3446C57.0545 41.1674 57.052 41.1448 56.768 40.8609L56.4816 40.5743H59.8948C62.5832 40.5743 63.4538 40.5363 63.9942 40.3956C66.9833 39.6168 68.8411 36.5539 68.0851 33.651C67.4166 31.0839 65.1758 29.3692 62.4865 29.367L61.6648 29.3663L61.658 28.2872C61.6473 26.5589 61.0453 25.1101 59.8266 23.8799C57.7954 21.8294 54.92 21.3442 52.2941 22.6089L51.3269 23.0747L50.7185 22.555C49.8308 21.797 48.561 21.048 47.6198 20.7275L46.7961 20.4471L46.6127 19.6252C45.9708 16.747 43.6618 14.71 40.7633 14.4646C39.6107 14.367 38.499 14.5866 37.3545 15.1378L36.3872 15.6036L35.7788 15.0873C34.5253 14.0236 33.1791 13.3153 31.6128 12.8952C30.4395 12.5806 28.3516 12.5056 27.1441 12.7346ZM30.5862 14.5908C32.3455 14.9275 33.5765 15.5953 35.0882 17.0334C35.9688 17.871 36.0891 17.948 36.4148 17.8829C36.6118 17.8435 36.9614 17.6459 37.1916 17.4436C37.4218 17.2414 37.9542 16.913 38.3744 16.7139C39.0624 16.3878 39.2492 16.3517 40.2474 16.3517C41.2501 16.3517 41.4308 16.387 42.1359 16.7211C43.1913 17.2212 43.8917 17.8956 44.3896 18.8909C44.6149 19.3414 44.7993 19.7817 44.7993 19.8694C44.7993 19.9887 44.5974 20.0288 43.9976 20.0288C42.888 20.0288 41.3179 20.3214 40.2942 20.719C37.1242 21.9501 34.5605 24.9509 33.9523 28.1419C33.6958 29.4881 33.7869 29.3677 33.0246 29.3677C31.5257 29.3677 30.0693 29.8883 29.1198 30.7636L28.597 31.2456L22.7214 31.2114L16.8458 31.1771L16.1076 30.7768C15.3064 30.3423 14.8323 29.8459 14.4307 29.0211C14.0511 28.2415 14.0636 26.7336 14.4563 25.924C14.8184 25.1771 15.5205 24.4764 16.2622 24.1217C16.7636 23.8818 17.0814 23.8328 18.5195 23.7742C20.097 23.71 20.2062 23.6901 20.4161 23.4304C20.5583 23.2547 20.6391 22.9729 20.6391 22.6527C20.6391 21.96 20.9187 20.5705 21.2189 19.7712C21.3565 19.4048 21.7209 18.7219 22.0286 18.2536C23.9071 15.3951 27.2693 13.9561 30.5862 14.5908ZM45.5259 22.0619C47.2851 22.3986 48.5161 23.0664 50.0279 24.5045C50.9085 25.342 51.0288 25.4191 51.3545 25.354C51.5515 25.3146 51.901 25.117 52.1313 24.9147C52.3615 24.7125 52.8938 24.3841 53.3141 24.185C54.002 23.8589 54.1889 23.8227 55.1871 23.8227C56.1898 23.8227 56.3704 23.8581 57.0755 24.1922C58.142 24.6974 58.8378 25.371 59.3368 26.3808C59.8601 27.4398 59.9755 28.487 59.691 29.5967C59.4641 30.4819 59.5719 30.9096 60.07 31.102C60.241 31.1681 61.1162 31.2417 62.015 31.2656C63.4013 31.3024 63.7292 31.3477 64.1778 31.5649C65.0017 31.9635 65.4987 32.4385 65.931 33.2404C66.2948 33.9152 66.3291 34.0641 66.3291 34.971C66.3291 35.8772 66.2947 36.0271 65.9325 36.6988C65.4923 37.5153 65.1292 37.8671 64.2451 38.3335L63.649 38.6481L59.748 38.6846L55.847 38.721L54.4374 37.3246C53.6622 36.5565 52.9208 35.8966 52.7899 35.8582C52.6544 35.8182 52.3556 35.8882 52.096 36.0207C51.6143 36.2663 51.4577 36.2012 51.4539 35.7537C51.453 35.6383 51.3232 35.4151 51.1656 35.2576C50.8815 34.9733 50.8611 34.971 48.651 34.971C46.4408 34.971 46.4204 34.9733 46.1363 35.2576C45.9787 35.4151 45.8489 35.6383 45.848 35.7537C45.8442 36.2012 45.6876 36.2663 45.206 36.0207C44.9463 35.8882 44.6475 35.8182 44.512 35.8582C44.3811 35.8966 43.6403 36.556 42.8657 37.3234L41.4574 38.7186L36.6214 38.6834L31.7855 38.6481L31.0472 38.2479C30.2461 37.8134 29.772 37.317 29.3704 36.4922C28.9908 35.7126 29.0033 34.2047 29.3959 33.395C29.7581 32.6482 30.4602 31.9475 31.2019 31.5928C31.7033 31.3529 32.0211 31.3038 33.4592 31.2452C35.0367 31.181 35.1458 31.1612 35.3558 30.9015C35.498 30.7258 35.5787 30.444 35.5787 30.1238C35.5787 29.4311 35.8584 28.0416 36.1586 27.2423C36.2962 26.8758 36.6606 26.1929 36.9683 25.7247C38.8468 22.8662 42.2089 21.4272 45.5259 22.0619ZM49.9444 37.4781C50.2142 38.684 50.7329 38.9253 51.7972 38.3401L52.5041 37.9513L53.2894 38.7367L54.0746 39.5221L53.686 40.2292C53.1009 41.2936 53.3421 41.8124 54.5478 42.0823L55.1871 42.2253V43.3759V44.5266L54.5478 44.6696C53.3421 44.9395 53.1009 45.4583 53.686 46.5226L54.0746 47.2297L53.2894 48.0151L52.5041 48.8005L51.7972 48.4118C50.7329 47.8266 50.2142 48.0679 49.9444 49.2738L49.8014 49.9131H48.651H47.5005L47.3575 49.2738C47.0877 48.0679 46.569 47.8266 45.5048 48.4118L44.7978 48.8005L44.0125 48.0151L43.2273 47.2297L43.6159 46.5226C44.201 45.4583 43.9598 44.9395 42.7541 44.6696L42.1149 44.5266V43.3759V42.2253L42.7541 42.0823C43.9598 41.8124 44.201 41.2936 43.6159 40.2292L43.2273 39.5221L44.0125 38.7367L44.7978 37.9513L45.5048 38.3401C46.569 38.9253 47.0877 38.684 47.3575 37.4781L47.5005 36.8387H48.651H49.8014L49.9444 37.4781ZM47.4844 39.8274C45.827 40.4316 44.8074 41.9638 44.9438 43.6449C45.2449 47.3546 50.1143 48.3908 51.9094 45.127C52.2965 44.4232 52.3266 44.2963 52.3249 43.3759C52.3233 42.4708 52.2882 42.3189 51.9251 41.6453C51.2593 40.4104 50.2517 39.7717 48.8338 39.686C48.2545 39.651 47.853 39.693 47.4844 39.8274ZM49.3897 41.6674C50.5888 42.1685 50.8812 43.741 49.9486 44.6738C48.6373 45.9853 46.4884 44.8106 46.8335 42.9707C47.0397 41.8718 48.3184 41.2197 49.3897 41.6674ZM61.7232 48.2361C61.7232 52.4441 61.6843 54.1617 61.5812 54.5106C61.3918 55.1519 60.4249 56.1189 59.7838 56.3083C59.4484 56.4075 58.1187 56.4503 55.3778 56.4503H51.4521V57.3907V58.3313L55.7479 58.2954L60.0436 58.2597L60.9253 57.8237C61.9872 57.2986 62.649 56.6224 63.1629 55.5374L63.5323 54.7576L63.5663 48.5998L63.6003 42.442H62.6618H61.7232V48.2361ZM40.2474 44.9258C40.2474 45.6918 40.4609 46.0151 41.0762 46.1807C41.3348 46.2504 41.5271 46.3438 41.5035 46.3884C41.1714 47.0159 41.077 47.3617 41.1724 47.602C41.3115 47.9527 44.2033 50.8029 44.512 50.8938C44.6475 50.9336 44.9463 50.8636 45.206 50.7312C45.6876 50.4856 45.8442 50.5506 45.848 50.9982C45.8489 51.1135 45.9787 51.3367 46.1363 51.4943C46.3715 51.7296 46.5384 51.7809 47.07 51.7809H47.7172V57.3842V62.9875H41.0008H34.2842L33.9978 63.2741C33.8403 63.4317 33.7113 63.6418 33.7113 63.741C33.7113 63.8962 33.4504 63.9214 31.8438 63.9214C30.2372 63.9214 29.9764 63.8962 29.9764 63.741C29.9764 63.6418 29.8474 63.4317 29.6898 63.2741L29.4034 62.9875H22.6869H15.9704V53.9352V44.8829L16.257 44.5964L16.5434 44.3098H28.3954H40.2474V44.9258ZM27.1752 53.6487V54.5825H28.1089H29.0426V53.6487V52.7148H28.1089H27.1752V53.6487ZM30.9101 53.6487V54.5825H31.8438H32.7776V53.6487V52.7148H31.8438H30.9101V53.6487ZM34.645 53.6487V54.5825H35.5787H36.5125V53.6487V52.7148H35.5787H34.645V53.6487ZM28.1089 65.0356C28.1089 65.1348 28.2379 65.345 28.3954 65.5026L28.6819 65.7891H31.8438H35.0058L35.2922 65.5026C35.4498 65.345 35.5787 65.1348 35.5787 65.0356C35.5787 64.875 36.3275 64.8553 42.4219 64.8553H49.2651L49.1928 65.293C49.153 65.5338 49.1198 65.8251 49.1191 65.9403C49.1184 66.0556 48.9888 66.2789 48.8313 66.4364L48.5449 66.723H31.8438H15.1428L14.8564 66.4364C14.6988 66.2789 14.5692 66.0556 14.5685 65.9403C14.5678 65.8251 14.5347 65.5338 14.4949 65.293L14.4225 64.8553H21.2657C27.3602 64.8553 28.1089 64.875 28.1089 65.0356Z"></path></mask><path fill-rule="evenodd" clip-rule="evenodd" d="M27.1441 12.7346C23.0354 13.5138 19.6448 16.9129 18.9676 20.9317L18.8148 21.8382L17.7136 21.9128C16.0263 22.027 14.8514 22.5551 13.7923 23.6753C10.8473 26.7897 12.3347 31.8392 16.5182 32.929C17.0618 33.0707 18.1485 33.1032 22.3389 33.1032H27.4911L27.3332 33.7123C26.5957 36.5559 28.4816 39.6247 31.4402 40.3956C31.9968 40.5405 32.9464 40.5743 36.4734 40.5743H40.8204L40.5339 40.8609C40.2986 41.0961 40.2474 41.263 40.2474 41.7947V42.442H28.3851C19.4126 42.442 16.4057 42.4766 16.0423 42.584C15.4012 42.7735 14.4343 43.7405 14.2449 44.3817C14.1388 44.7409 14.103 47.1507 14.103 53.9248V62.9875H13.5141C13.0445 62.9875 12.8672 63.0455 12.6388 63.2741C12.4812 63.4317 12.3522 63.6588 12.3522 63.779C12.3522 64.2638 12.8425 66.6788 13.0146 67.0414C13.2637 67.5664 14.1037 68.2856 14.664 68.4535C15.3228 68.6509 48.3649 68.6509 49.0236 68.4535C49.584 68.2856 50.424 67.5664 50.6731 67.0414C50.8451 66.6788 51.3354 64.2638 51.3354 63.779C51.3354 63.6588 51.2065 63.4317 51.0489 63.2741C50.8205 63.0455 50.6432 62.9875 50.1735 62.9875H49.5847V57.3842V51.7809H50.2319C50.7635 51.7809 50.9304 51.7296 51.1656 51.4943C51.3232 51.3367 51.453 51.1135 51.4539 50.9982C51.4577 50.5506 51.6143 50.4856 52.096 50.7312C52.3556 50.8636 52.6544 50.9336 52.7899 50.8938C53.0987 50.8029 55.9904 47.9527 56.1295 47.602C56.2249 47.3617 56.1305 47.0159 55.7984 46.3884C55.7748 46.3438 55.9671 46.2504 56.2257 46.1807C57.0158 45.968 57.0545 45.8353 57.0545 43.3446C57.0545 41.1674 57.052 41.1448 56.768 40.8609L56.4816 40.5743H59.8948C62.5832 40.5743 63.4538 40.5363 63.9942 40.3956C66.9833 39.6168 68.8411 36.5539 68.0851 33.651C67.4166 31.0839 65.1758 29.3692 62.4865 29.367L61.6648 29.3663L61.658 28.2872C61.6473 26.5589 61.0453 25.1101 59.8266 23.8799C57.7954 21.8294 54.92 21.3442 52.2941 22.6089L51.3269 23.0747L50.7185 22.555C49.8308 21.797 48.561 21.048 47.6198 20.7275L46.7961 20.4471L46.6127 19.6252C45.9708 16.747 43.6618 14.71 40.7633 14.4646C39.6107 14.367 38.499 14.5866 37.3545 15.1378L36.3872 15.6036L35.7788 15.0873C34.5253 14.0236 33.1791 13.3153 31.6128 12.8952C30.4395 12.5806 28.3516 12.5056 27.1441 12.7346ZM30.5862 14.5908C32.3455 14.9275 33.5765 15.5953 35.0882 17.0334C35.9688 17.871 36.0891 17.948 36.4148 17.8829C36.6118 17.8435 36.9614 17.6459 37.1916 17.4436C37.4218 17.2414 37.9542 16.913 38.3744 16.7139C39.0624 16.3878 39.2492 16.3517 40.2474 16.3517C41.2501 16.3517 41.4308 16.387 42.1359 16.7211C43.1913 17.2212 43.8917 17.8956 44.3896 18.8909C44.6149 19.3414 44.7993 19.7817 44.7993 19.8694C44.7993 19.9887 44.5974 20.0288 43.9976 20.0288C42.888 20.0288 41.3179 20.3214 40.2942 20.719C37.1242 21.9501 34.5605 24.9509 33.9523 28.1419C33.6958 29.4881 33.7869 29.3677 33.0246 29.3677C31.5257 29.3677 30.0693 29.8883 29.1198 30.7636L28.597 31.2456L22.7214 31.2114L16.8458 31.1771L16.1076 30.7768C15.3064 30.3423 14.8323 29.8459 14.4307 29.0211C14.0511 28.2415 14.0636 26.7336 14.4563 25.924C14.8184 25.1771 15.5205 24.4764 16.2622 24.1217C16.7636 23.8818 17.0814 23.8328 18.5195 23.7742C20.097 23.71 20.2062 23.6901 20.4161 23.4304C20.5583 23.2547 20.6391 22.9729 20.6391 22.6527C20.6391 21.96 20.9187 20.5705 21.2189 19.7712C21.3565 19.4048 21.7209 18.7219 22.0286 18.2536C23.9071 15.3951 27.2693 13.9561 30.5862 14.5908ZM45.5259 22.0619C47.2851 22.3986 48.5161 23.0664 50.0279 24.5045C50.9085 25.342 51.0288 25.4191 51.3545 25.354C51.5515 25.3146 51.901 25.117 52.1313 24.9147C52.3615 24.7125 52.8938 24.3841 53.3141 24.185C54.002 23.8589 54.1889 23.8227 55.1871 23.8227C56.1898 23.8227 56.3704 23.8581 57.0755 24.1922C58.142 24.6974 58.8378 25.371 59.3368 26.3808C59.8601 27.4398 59.9755 28.487 59.691 29.5967C59.4641 30.4819 59.5719 30.9096 60.07 31.102C60.241 31.1681 61.1162 31.2417 62.015 31.2656C63.4013 31.3024 63.7292 31.3477 64.1778 31.5649C65.0017 31.9635 65.4987 32.4385 65.931 33.2404C66.2948 33.9152 66.3291 34.0641 66.3291 34.971C66.3291 35.8772 66.2947 36.0271 65.9325 36.6988C65.4923 37.5153 65.1292 37.8671 64.2451 38.3335L63.649 38.6481L59.748 38.6846L55.847 38.721L54.4374 37.3246C53.6622 36.5565 52.9208 35.8966 52.7899 35.8582C52.6544 35.8182 52.3556 35.8882 52.096 36.0207C51.6143 36.2663 51.4577 36.2012 51.4539 35.7537C51.453 35.6383 51.3232 35.4151 51.1656 35.2576C50.8815 34.9733 50.8611 34.971 48.651 34.971C46.4408 34.971 46.4204 34.9733 46.1363 35.2576C45.9787 35.4151 45.8489 35.6383 45.848 35.7537C45.8442 36.2012 45.6876 36.2663 45.206 36.0207C44.9463 35.8882 44.6475 35.8182 44.512 35.8582C44.3811 35.8966 43.6403 36.556 42.8657 37.3234L41.4574 38.7186L36.6214 38.6834L31.7855 38.6481L31.0472 38.2479C30.2461 37.8134 29.772 37.317 29.3704 36.4922C28.9908 35.7126 29.0033 34.2047 29.3959 33.395C29.7581 32.6482 30.4602 31.9475 31.2019 31.5928C31.7033 31.3529 32.0211 31.3038 33.4592 31.2452C35.0367 31.181 35.1458 31.1612 35.3558 30.9015C35.498 30.7258 35.5787 30.444 35.5787 30.1238C35.5787 29.4311 35.8584 28.0416 36.1586 27.2423C36.2962 26.8758 36.6606 26.1929 36.9683 25.7247C38.8468 22.8662 42.2089 21.4272 45.5259 22.0619ZM49.9444 37.4781C50.2142 38.684 50.7329 38.9253 51.7972 38.3401L52.5041 37.9513L53.2894 38.7367L54.0746 39.5221L53.686 40.2292C53.1009 41.2936 53.3421 41.8124 54.5478 42.0823L55.1871 42.2253V43.3759V44.5266L54.5478 44.6696C53.3421 44.9395 53.1009 45.4583 53.686 46.5226L54.0746 47.2297L53.2894 48.0151L52.5041 48.8005L51.7972 48.4118C50.7329 47.8266 50.2142 48.0679 49.9444 49.2738L49.8014 49.9131H48.651H47.5005L47.3575 49.2738C47.0877 48.0679 46.569 47.8266 45.5048 48.4118L44.7978 48.8005L44.0125 48.0151L43.2273 47.2297L43.6159 46.5226C44.201 45.4583 43.9598 44.9395 42.7541 44.6696L42.1149 44.5266V43.3759V42.2253L42.7541 42.0823C43.9598 41.8124 44.201 41.2936 43.6159 40.2292L43.2273 39.5221L44.0125 38.7367L44.7978 37.9513L45.5048 38.3401C46.569 38.9253 47.0877 38.684 47.3575 37.4781L47.5005 36.8387H48.651H49.8014L49.9444 37.4781ZM47.4844 39.8274C45.827 40.4316 44.8074 41.9638 44.9438 43.6449C45.2449 47.3546 50.1143 48.3908 51.9094 45.127C52.2965 44.4232 52.3266 44.2963 52.3249 43.3759C52.3233 42.4708 52.2882 42.3189 51.9251 41.6453C51.2593 40.4104 50.2517 39.7717 48.8338 39.686C48.2545 39.651 47.853 39.693 47.4844 39.8274ZM49.3897 41.6674C50.5888 42.1685 50.8812 43.741 49.9486 44.6738C48.6373 45.9853 46.4884 44.8106 46.8335 42.9707C47.0397 41.8718 48.3184 41.2197 49.3897 41.6674ZM61.7232 48.2361C61.7232 52.4441 61.6843 54.1617 61.5812 54.5106C61.3918 55.1519 60.4249 56.1189 59.7838 56.3083C59.4484 56.4075 58.1187 56.4503 55.3778 56.4503H51.4521V57.3907V58.3313L55.7479 58.2954L60.0436 58.2597L60.9253 57.8237C61.9872 57.2986 62.649 56.6224 63.1629 55.5374L63.5323 54.7576L63.5663 48.5998L63.6003 42.442H62.6618H61.7232V48.2361ZM40.2474 44.9258C40.2474 45.6918 40.4609 46.0151 41.0762 46.1807C41.3348 46.2504 41.5271 46.3438 41.5035 46.3884C41.1714 47.0159 41.077 47.3617 41.1724 47.602C41.3115 47.9527 44.2033 50.8029 44.512 50.8938C44.6475 50.9336 44.9463 50.8636 45.206 50.7312C45.6876 50.4856 45.8442 50.5506 45.848 50.9982C45.8489 51.1135 45.9787 51.3367 46.1363 51.4943C46.3715 51.7296 46.5384 51.7809 47.07 51.7809H47.7172V57.3842V62.9875H41.0008H34.2842L33.9978 63.2741C33.8403 63.4317 33.7113 63.6418 33.7113 63.741C33.7113 63.8962 33.4504 63.9214 31.8438 63.9214C30.2372 63.9214 29.9764 63.8962 29.9764 63.741C29.9764 63.6418 29.8474 63.4317 29.6898 63.2741L29.4034 62.9875H22.6869H15.9704V53.9352V44.8829L16.257 44.5964L16.5434 44.3098H28.3954H40.2474V44.9258ZM27.1752 53.6487V54.5825H28.1089H29.0426V53.6487V52.7148H28.1089H27.1752V53.6487ZM30.9101 53.6487V54.5825H31.8438H32.7776V53.6487V52.7148H31.8438H30.9101V53.6487ZM34.645 53.6487V54.5825H35.5787H36.5125V53.6487V52.7148H35.5787H34.645V53.6487ZM28.1089 65.0356C28.1089 65.1348 28.2379 65.345 28.3954 65.5026L28.6819 65.7891H31.8438H35.0058L35.2922 65.5026C35.4498 65.345 35.5787 65.1348 35.5787 65.0356C35.5787 64.875 36.3275 64.8553 42.4219 64.8553H49.2651L49.1928 65.293C49.153 65.5338 49.1198 65.8251 49.1191 65.9403C49.1184 66.0556 48.9888 66.2789 48.8313 66.4364L48.5449 66.723H31.8438H15.1428L14.8564 66.4364C14.6988 66.2789 14.5692 66.0556 14.5685 65.9403C14.5678 65.8251 14.5347 65.5338 14.4949 65.293L14.4225 64.8553H21.2657C27.3602 64.8553 28.1089 64.875 28.1089 65.0356Z" fill="#1742E7" stroke="#1742E7" stroke-width="0.56" mask="url(#path-1-inside-1_922_23520)"></path></svg>