<svg xmlns="http://www.w3.org/2000/svg" width="81" height="81" viewBox="0 0 81 81" fill="none"><path d="M66.1579 60.7934L57.3957 52.0303V42.7632C57.4258 42.3752 57.4402 41.9832 57.4402 41.5876C57.4402 41.1919 57.4249 40.7999 57.3957 40.4119V19.2553C57.3957 18.8123 57.0365 18.4536 56.5939 18.4536H52.5444L52.544 14.4033C52.544 13.9603 52.1849 13.6016 51.7423 13.6016H23.239C23.0264 13.6016 22.8221 13.6862 22.6721 13.8363L13.5961 22.9123C13.446 23.0624 13.3613 23.267 13.3613 23.4793V61.9486C13.3613 62.3916 13.7205 62.7503 14.163 62.7503H18.2125V66.7999C18.2125 67.2428 18.5717 67.6016 19.0143 67.6016H56.593C57.036 67.6016 57.3947 67.2424 57.3947 66.7999V61.6052L61.3696 65.58C62.03 66.2405 62.8963 66.5703 63.7635 66.5703C64.6306 66.5703 65.4973 66.2405 66.1574 65.58C66.795 64.9424 67.1457 64.0926 67.1457 63.1861C67.1461 62.2801 66.7958 61.4302 66.1582 60.7926L66.1579 60.7934ZM51.6279 53.5708C52.5616 52.8313 53.4083 51.9854 54.1474 51.0513L62.5525 59.4565L60.033 61.9759L51.6279 53.5708ZM28.4929 41.5883C28.4929 34.0515 34.6242 27.9191 42.16 27.917H42.1681C49.3329 27.9194 55.2261 33.4612 55.791 40.484V42.6942C55.2269 49.7174 49.3312 55.2602 42.165 55.2602C34.6269 55.2602 28.4937 49.1265 28.4937 41.5889L28.4929 41.5883ZM55.7912 50.4264L55.0878 49.723C55.3406 49.3225 55.5758 48.91 55.7912 48.4863V50.4264ZM55.7912 20.0577V34.6894C54.9679 33.0695 53.8636 31.6153 52.5435 30.3907V20.0579L55.7912 20.0577ZM22.4364 16.3401V22.6775L16.0994 22.6779L22.4364 16.3401ZM14.965 24.2814H23.2386C23.6815 24.2814 24.0403 23.9223 24.0403 23.4797V15.2062H50.939V29.0921C49.578 28.1335 48.0536 27.3911 46.4169 26.916C46.3282 26.5698 46.0148 26.3133 45.6409 26.3133H20.2631C19.8201 26.3133 19.4614 26.6725 19.4614 27.1151C19.4614 27.5577 19.8205 27.9168 20.2631 27.9168H35.356C33.373 28.9083 31.6351 30.3183 30.258 32.0309L20.2631 32.0313C19.8201 32.0313 19.4614 32.3904 19.4614 32.833C19.4614 33.276 19.8205 33.6347 20.2631 33.6347H29.1277C28.3545 34.8975 27.7594 36.2802 27.3778 37.7488L20.2631 37.7492C19.8201 37.7492 19.4614 38.1084 19.4614 38.551C19.4614 38.9935 19.8205 39.3527 20.2631 39.3527H27.0528C26.9453 40.0822 26.8891 40.8289 26.8891 41.5881C26.8891 42.2237 26.9288 42.8509 27.0047 43.4664H20.2631C19.8201 43.4664 19.4614 43.8255 19.4614 44.2681C19.4614 44.7107 19.8205 45.0698 20.2631 45.0698H27.2899C27.6322 46.5324 28.1851 47.9155 28.9154 49.1839H20.2631C19.8201 49.1839 19.4614 49.543 19.4614 49.9856C19.4614 50.4286 19.8205 50.7873 20.2631 50.7873H29.9788C31.2447 52.4602 32.8474 53.865 34.6839 54.9015L20.2628 54.9019C19.8198 54.9019 19.4611 55.261 19.4611 55.7036C19.4611 56.1466 19.8202 56.5053 20.2628 56.5053H38.7938C38.8167 56.5053 38.8396 56.5037 38.8621 56.5017C39.9257 56.7372 41.0308 56.862 42.1644 56.862C45.1525 56.862 47.9425 55.9985 50.2994 54.5099L50.9394 55.1499V61.1467L14.9642 61.1471L14.965 24.2814ZM55.7919 65.9988H19.8176V62.7511H51.7426C52.1855 62.7511 52.5443 62.3919 52.5443 61.9493V56.7547L55.792 60.0025L55.7919 65.9988ZM65.0244 64.4468C64.3294 65.1418 63.1994 65.1414 62.5049 64.4468L61.1679 63.1098L63.6874 60.5903L65.0244 61.9273C65.359 62.262 65.5432 62.7094 65.5432 63.1869C65.5432 63.6652 65.359 64.1122 65.0244 64.4469V64.4468ZM54.2181 41.5881C54.2181 34.9417 48.8107 29.5347 42.1647 29.5347C35.5191 29.5347 30.1113 34.9421 30.1113 41.5881C30.1113 48.2341 35.5187 53.6415 42.1647 53.6415C48.8107 53.6415 54.2181 48.2345 54.2181 41.5881ZM31.7158 41.5881C31.7158 35.8264 36.4033 31.1382 42.1657 31.1382C47.9274 31.1382 52.6156 35.8257 52.6156 41.5881C52.6156 47.3505 47.9273 52.037 42.1657 52.037C36.4036 52.037 31.7168 47.3495 31.7168 41.5881H31.7158ZM50.7378 41.5881C50.7378 36.8612 46.8918 33.0152 42.165 33.0152C37.4377 33.0152 33.5921 36.8605 33.5921 41.5881C33.5921 46.3157 37.4381 50.1609 42.165 50.1609C46.8918 50.1609 50.7378 46.3152 50.7378 41.5881ZM42.165 48.5567C38.3225 48.5567 35.1963 45.4305 35.1963 41.5881C35.1963 37.7457 38.3225 34.6194 42.165 34.6194C46.0074 34.6194 49.1336 37.7457 49.1336 41.5881C49.1336 45.4305 46.007 48.5567 42.165 48.5567ZM47.5041 38.9005C47.4636 38.3828 47.2241 37.9122 46.8296 37.5739C46.0151 36.8773 44.7857 36.9728 44.089 37.7866L41.1839 41.176L40.2101 40.0914C39.4926 39.2941 38.26 39.2291 37.4631 39.9469C37.0767 40.2944 36.8492 40.7715 36.8215 41.2903C36.7946 41.8091 36.9707 42.3075 37.3182 42.6939L39.7711 45.4257C40.1411 45.8366 40.6639 46.0689 41.2153 46.0689C41.2394 46.0689 41.2638 46.0685 41.2879 46.0677C41.8597 46.0464 42.3886 45.7788 42.7425 45.3322L47.0427 40.3152C47.3802 39.9204 47.5439 39.418 47.5041 38.9005ZM45.8248 39.272L41.5133 44.3018C41.5045 44.3118 41.4964 44.3223 41.488 44.3331C41.403 44.4431 41.289 44.4627 41.2284 44.4651C41.1698 44.4675 41.0551 44.4559 40.9636 44.3544L38.5107 41.6226L38.5103 41.6222C38.428 41.5307 38.4204 41.4284 38.4232 41.3762C38.426 41.3233 38.4445 41.2226 38.536 41.1403C38.601 41.0817 38.6828 41.0528 38.7643 41.0528C38.8578 41.0528 38.9505 41.0909 39.0171 41.1648L40.6013 42.9291C40.7557 43.1013 40.9808 43.198 41.2072 43.1951C41.4379 43.1923 41.657 43.0908 41.807 42.9151L45.3076 38.8315C45.4292 38.689 45.6446 38.6726 45.7871 38.7937C45.8806 38.8736 45.901 38.9735 45.9051 39.0257C45.9087 39.0774 45.9039 39.1793 45.8248 39.272Z" fill="#1742E7"></path></svg>