<svg xmlns="http://www.w3.org/2000/svg" width="81" height="81" viewBox="0 0 81 81" fill="none"><mask id="path-1-inside-1_922_23545" fill="white"><path d="M65.2524 60.9691L59.5215 55.1801V21.2381H64.6461C64.8726 21.2381 65.0899 21.1472 65.2501 20.9854C65.4102 20.8237 65.5002 20.6041 65.5002 20.3753C65.4983 18.7742 64.868 17.2389 63.747 16.1069C62.6264 14.9746 61.1065 14.3379 59.5215 14.3359H24.5032C23.3707 14.3359 22.2844 14.7904 21.4832 15.5992C20.6825 16.4085 20.2326 17.5058 20.2326 18.6498V59.2001H15.108C14.6364 59.2001 14.2539 59.5864 14.2539 60.0629C14.2558 61.664 14.8861 63.1993 16.0071 64.3313C17.1277 65.4636 18.6476 66.1003 20.2326 66.1023H58.6674C58.8939 66.1023 59.1112 66.0114 59.2714 65.8496C59.4315 65.6878 59.5215 65.4683 59.5215 65.2395V64.946L60.4183 65.8519C61.2819 66.7243 62.5406 67.0652 63.7203 66.7459C64.8997 66.4266 65.8212 65.4956 66.1374 64.3043C66.4535 63.1126 66.116 61.8412 65.2524 60.9688L65.2524 60.9691ZM59.5215 16.0616C60.5056 16.0627 61.4593 16.4067 62.2214 17.0353C62.984 17.6639 63.5084 18.539 63.7066 19.5127H59.5215V16.0616ZM20.2326 64.3768C19.2485 64.3757 18.2948 64.0317 17.5327 63.4031C16.7701 62.7745 16.2458 61.8994 16.0475 60.9257H50.2205C50.6209 62.3575 51.5345 63.5876 52.7828 64.3768H20.2326ZM57.8133 64.3768C55.2594 64.3768 51.8345 62.2457 51.8345 60.063C51.8345 59.8342 51.7445 59.6146 51.5844 59.4529C51.4243 59.2911 51.2069 59.2002 50.9804 59.2002H21.9409V18.6499C21.9428 17.9639 22.2135 17.3068 22.6935 16.8219C23.1736 16.337 23.8241 16.0635 24.5032 16.0616H57.8133V53.4546L57.3946 53.0406V53.0402C57.0617 52.7059 56.5237 52.7059 56.1905 53.0402L54.9863 54.2566L51.3304 50.5729H56.105V48.8473H52.4068C52.7515 48.2946 53.0569 47.718 53.3208 47.1218H56.105V45.3962H53.9187C54.0746 44.83 54.1917 44.2534 54.2687 43.6707H56.105V41.9451H54.3968C54.3929 41.3678 54.3502 40.7912 54.2686 40.2196H56.1049V38.4941H53.9186C53.7604 37.9051 53.5606 37.3286 53.3207 36.7685H56.1049V35.043H52.4067C52.0231 34.4317 51.5888 33.8543 51.1084 33.3174H56.1049V31.5919H49.2377C47.0331 29.9122 44.3469 29.0036 41.5851 29.0036C38.8234 29.0036 36.1372 29.9122 33.9325 31.5919H27.0653V33.3174H32.0619C31.5815 33.8543 31.1472 34.4317 30.7636 35.043H27.0653V36.7685H29.8495C29.6097 37.3285 29.4099 37.9051 29.2517 38.4941H27.0653V40.2196H28.9016C28.82 40.7912 28.7773 41.3678 28.7735 41.9451H27.0653V43.6707H28.9016C28.9786 44.2535 29.0956 44.8301 29.2516 45.3962H27.0653V47.1218H29.8495C30.1133 47.718 30.4187 48.2947 30.7634 48.8473H27.0652V50.5729H32.0618C34.3015 53.1153 37.4472 54.658 40.8103 54.8633C44.1733 55.0686 47.4799 53.92 50.0064 51.6687L53.7728 55.4823L52.5687 56.6987C52.2377 57.0353 52.2377 57.5788 52.5687 57.915L57.8131 63.221L57.8133 64.3768ZM41.5853 53.1608C38.6405 53.1608 35.8162 51.9791 33.7339 49.8758C31.6517 47.7724 30.4819 44.9194 30.4819 41.9448C30.4819 38.9701 31.6517 36.1171 33.7339 34.0138C35.8162 31.9104 38.6405 30.7287 41.5853 30.7287C44.53 30.7287 47.3543 31.9104 49.4366 34.0138C51.5189 36.1171 52.6886 38.9701 52.6886 41.9448C52.686 44.9186 51.5153 47.77 49.4335 49.8726C47.352 51.9756 44.5293 53.158 41.5853 53.1608ZM64.0399 64.6273C63.7193 64.9512 63.2846 65.1334 62.8312 65.1334C62.3778 65.1334 61.9432 64.9512 61.6225 64.6273L54.3798 57.3111L56.7968 54.8695L64.0396 62.1857L64.0399 62.1853C64.3606 62.5092 64.541 62.9483 64.541 63.4063C64.541 63.8643 64.3606 64.3033 64.0399 64.6273Z"></path><path d="M23.6492 31.5915H25.3574V33.317H23.6492V31.5915Z"></path><path d="M23.6492 35.0426H25.3574V36.7681H23.6492V35.0426Z"></path><path d="M23.6492 48.8469H25.3574V50.5725H23.6492V48.8469Z"></path><path d="M23.6492 38.4937H25.3574V40.2192H23.6492V38.4937Z"></path><path d="M23.6492 45.3958H25.3574V47.1214H23.6492V45.3958Z"></path><path d="M23.6492 41.9447H25.3574V43.6703H23.6492V41.9447Z"></path><path d="M41.5854 45.3958C42.4913 45.3958 43.3603 45.0322 44.0013 44.3852C44.6418 43.7377 45.0018 42.8599 45.0018 41.9447C45.0018 41.0296 44.6418 40.1518 44.0013 39.5043C43.3603 38.8573 42.4913 38.4937 41.5854 38.4937C40.6794 38.4937 39.8104 38.8573 39.1695 39.5043C38.5289 40.1518 38.169 41.0296 38.169 41.9447C38.169 42.8599 38.5289 43.7377 39.1695 44.3852C39.8104 45.0322 40.6794 45.3958 41.5854 45.3958ZM41.5854 40.2192C42.0384 40.2192 42.473 40.401 42.7933 40.7245C43.1136 41.0481 43.2936 41.4872 43.2936 41.9447C43.2936 42.4023 43.1136 42.8414 42.7933 43.165C42.473 43.4885 42.0384 43.6703 41.5854 43.6703C41.1324 43.6703 40.6977 43.4885 40.3774 43.165C40.0571 42.8414 39.8772 42.4023 39.8772 41.9447C39.8772 41.4872 40.0571 41.0481 40.3774 40.7245C40.6977 40.401 41.1324 40.2192 41.5854 40.2192Z"></path><path d="M34.5456 44.5074L35.1172 44.6515L34.814 45.1614H34.8136C34.6119 45.5012 34.6653 45.9356 34.9425 46.2156L37.358 48.6556C37.6352 48.9356 38.0653 48.9896 38.4016 48.7858L38.9064 48.4796L39.049 49.057V49.0566C39.1444 49.4406 39.486 49.7098 39.8776 49.7098H43.294C43.6856 49.7098 44.0273 49.4406 44.1226 49.0566L44.2652 48.4792L44.77 48.7854V48.7858C45.1063 48.9896 45.5364 48.9356 45.8136 48.6556L48.2291 46.2156C48.5063 45.9356 48.5597 45.5011 48.358 45.1614L48.0548 44.6515L48.6264 44.5074H48.626C49.0062 44.4111 49.2727 44.066 49.2727 43.6705V40.2194C49.2727 39.8238 49.0062 39.4787 48.626 39.3824L48.0545 39.2384L48.3576 38.7284H48.358C48.5597 38.3887 48.5063 37.9542 48.2291 37.6742L45.8136 35.2342C45.5364 34.9542 45.1063 34.9003 44.77 35.104L44.2652 35.4102L44.1226 34.8329V34.8333C44.0273 34.4493 43.6856 34.18 43.294 34.18H39.8776C39.486 34.18 39.1444 34.4493 39.049 34.8333L38.9064 35.4106L38.4016 35.1044V35.104C38.0653 34.9003 37.6352 34.9542 37.358 35.2342L34.9425 37.6742C34.6653 37.9542 34.6119 38.3887 34.8136 38.7284L35.1168 39.2384L34.5452 39.3824H34.5456C34.1654 39.4787 33.8989 39.8238 33.8989 40.2194V43.6705C33.8989 44.066 34.1654 44.4111 34.5456 44.5074ZM35.6071 40.8931L36.65 40.6342C36.9123 40.568 37.1282 40.3796 37.2315 40.1273C37.3348 39.8747 37.3138 39.5873 37.1743 39.3532L36.6218 38.4222L38.0944 36.9347L39.016 37.4928V37.4932C39.2478 37.6338 39.5322 37.655 39.7824 37.5506C40.0325 37.4458 40.2186 37.2278 40.2842 36.9624L40.5404 35.9098H42.6226L42.8789 36.9624C42.9445 37.2278 43.1309 37.4458 43.381 37.5506C43.6308 37.655 43.9152 37.6338 44.1474 37.4932L45.069 36.9351L46.5416 38.4226L45.9891 39.3535L45.9887 39.3532C45.8496 39.5873 45.8282 39.8747 45.9315 40.1273C46.0349 40.3796 46.2507 40.568 46.5134 40.6342L47.5563 40.8931V42.9964L46.5134 43.2553V43.2557C46.2507 43.3219 46.0349 43.5103 45.9315 43.7625C45.8282 44.0152 45.8496 44.3025 45.9887 44.5367L46.5412 45.4677L45.0687 46.9552L44.1471 46.3971L44.1474 46.3967C43.9152 46.2561 43.6312 46.2345 43.381 46.3389C43.1309 46.4437 42.9448 46.6613 42.8789 46.9267L42.6272 47.9844H40.5446L40.2883 46.9309C40.2228 46.6659 40.0363 46.4479 39.7866 46.3435C39.5364 46.2392 39.252 46.2603 39.0201 46.4013L38.0985 46.9594L36.626 45.4719L37.1785 44.541H37.1789C37.318 44.3068 37.3394 44.0194 37.2361 43.7672C37.1323 43.5145 36.9169 43.3261 36.6542 43.2599L35.6071 42.9968L35.6071 40.8931Z"></path><path d="M29.6279 24.6893H50.1264C50.3529 24.6893 50.5703 24.5984 50.7304 24.4366C50.8905 24.2749 50.9805 24.0553 50.9805 23.8265V18.6499C50.9805 18.4211 50.8905 18.2016 50.7304 18.0398C50.5703 17.878 50.3529 17.7871 50.1264 17.7871H29.6279C29.1562 17.7871 28.7738 18.1735 28.7738 18.6499V23.8265C28.7738 24.0553 28.8638 24.2749 29.0239 24.4366C29.1841 24.5984 29.4014 24.6893 29.6279 24.6893ZM30.482 19.5127H49.2723V22.9638H30.482V19.5127Z"></path></mask><path d="M65.2524 60.9691L59.5215 55.1801V21.2381H64.6461C64.8726 21.2381 65.0899 21.1472 65.2501 20.9854C65.4102 20.8237 65.5002 20.6041 65.5002 20.3753C65.4983 18.7742 64.868 17.2389 63.747 16.1069C62.6264 14.9746 61.1065 14.3379 59.5215 14.3359H24.5032C23.3707 14.3359 22.2844 14.7904 21.4832 15.5992C20.6825 16.4085 20.2326 17.5058 20.2326 18.6498V59.2001H15.108C14.6364 59.2001 14.2539 59.5864 14.2539 60.0629C14.2558 61.664 14.8861 63.1993 16.0071 64.3313C17.1277 65.4636 18.6476 66.1003 20.2326 66.1023H58.6674C58.8939 66.1023 59.1112 66.0114 59.2714 65.8496C59.4315 65.6878 59.5215 65.4683 59.5215 65.2395V64.946L60.4183 65.8519C61.2819 66.7243 62.5406 67.0652 63.7203 66.7459C64.8997 66.4266 65.8212 65.4956 66.1374 64.3043C66.4535 63.1126 66.116 61.8412 65.2524 60.9688L65.2524 60.9691ZM59.5215 16.0616C60.5056 16.0627 61.4593 16.4067 62.2214 17.0353C62.984 17.6639 63.5084 18.539 63.7066 19.5127H59.5215V16.0616ZM20.2326 64.3768C19.2485 64.3757 18.2948 64.0317 17.5327 63.4031C16.7701 62.7745 16.2458 61.8994 16.0475 60.9257H50.2205C50.6209 62.3575 51.5345 63.5876 52.7828 64.3768H20.2326ZM57.8133 64.3768C55.2594 64.3768 51.8345 62.2457 51.8345 60.063C51.8345 59.8342 51.7445 59.6146 51.5844 59.4529C51.4243 59.2911 51.2069 59.2002 50.9804 59.2002H21.9409V18.6499C21.9428 17.9639 22.2135 17.3068 22.6935 16.8219C23.1736 16.337 23.8241 16.0635 24.5032 16.0616H57.8133V53.4546L57.3946 53.0406V53.0402C57.0617 52.7059 56.5237 52.7059 56.1905 53.0402L54.9863 54.2566L51.3304 50.5729H56.105V48.8473H52.4068C52.7515 48.2946 53.0569 47.718 53.3208 47.1218H56.105V45.3962H53.9187C54.0746 44.83 54.1917 44.2534 54.2687 43.6707H56.105V41.9451H54.3968C54.3929 41.3678 54.3502 40.7912 54.2686 40.2196H56.1049V38.4941H53.9186C53.7604 37.9051 53.5606 37.3286 53.3207 36.7685H56.1049V35.043H52.4067C52.0231 34.4317 51.5888 33.8543 51.1084 33.3174H56.1049V31.5919H49.2377C47.0331 29.9122 44.3469 29.0036 41.5851 29.0036C38.8234 29.0036 36.1372 29.9122 33.9325 31.5919H27.0653V33.3174H32.0619C31.5815 33.8543 31.1472 34.4317 30.7636 35.043H27.0653V36.7685H29.8495C29.6097 37.3285 29.4099 37.9051 29.2517 38.4941H27.0653V40.2196H28.9016C28.82 40.7912 28.7773 41.3678 28.7735 41.9451H27.0653V43.6707H28.9016C28.9786 44.2535 29.0956 44.8301 29.2516 45.3962H27.0653V47.1218H29.8495C30.1133 47.718 30.4187 48.2947 30.7634 48.8473H27.0652V50.5729H32.0618C34.3015 53.1153 37.4472 54.658 40.8103 54.8633C44.1733 55.0686 47.4799 53.92 50.0064 51.6687L53.7728 55.4823L52.5687 56.6987C52.2377 57.0353 52.2377 57.5788 52.5687 57.915L57.8131 63.221L57.8133 64.3768ZM41.5853 53.1608C38.6405 53.1608 35.8162 51.9791 33.7339 49.8758C31.6517 47.7724 30.4819 44.9194 30.4819 41.9448C30.4819 38.9701 31.6517 36.1171 33.7339 34.0138C35.8162 31.9104 38.6405 30.7287 41.5853 30.7287C44.53 30.7287 47.3543 31.9104 49.4366 34.0138C51.5189 36.1171 52.6886 38.9701 52.6886 41.9448C52.686 44.9186 51.5153 47.77 49.4335 49.8726C47.352 51.9756 44.5293 53.158 41.5853 53.1608ZM64.0399 64.6273C63.7193 64.9512 63.2846 65.1334 62.8312 65.1334C62.3778 65.1334 61.9432 64.9512 61.6225 64.6273L54.3798 57.3111L56.7968 54.8695L64.0396 62.1857L64.0399 62.1853C64.3606 62.5092 64.541 62.9483 64.541 63.4063C64.541 63.8643 64.3606 64.3033 64.0399 64.6273Z" fill="#1742E7"></path><path d="M23.6492 31.5915H25.3574V33.317H23.6492V31.5915Z" fill="#1742E7"></path><path d="M23.6492 35.0426H25.3574V36.7681H23.6492V35.0426Z" fill="#1742E7"></path><path d="M23.6492 48.8469H25.3574V50.5725H23.6492V48.8469Z" fill="#1742E7"></path><path d="M23.6492 38.4937H25.3574V40.2192H23.6492V38.4937Z" fill="#1742E7"></path><path d="M23.6492 45.3958H25.3574V47.1214H23.6492V45.3958Z" fill="#1742E7"></path><path d="M23.6492 41.9447H25.3574V43.6703H23.6492V41.9447Z" fill="#1742E7"></path><path d="M41.5854 45.3958C42.4913 45.3958 43.3603 45.0322 44.0013 44.3852C44.6418 43.7377 45.0018 42.8599 45.0018 41.9447C45.0018 41.0296 44.6418 40.1518 44.0013 39.5043C43.3603 38.8573 42.4913 38.4937 41.5854 38.4937C40.6794 38.4937 39.8104 38.8573 39.1695 39.5043C38.5289 40.1518 38.169 41.0296 38.169 41.9447C38.169 42.8599 38.5289 43.7377 39.1695 44.3852C39.8104 45.0322 40.6794 45.3958 41.5854 45.3958ZM41.5854 40.2192C42.0384 40.2192 42.473 40.401 42.7933 40.7245C43.1136 41.0481 43.2936 41.4872 43.2936 41.9447C43.2936 42.4023 43.1136 42.8414 42.7933 43.165C42.473 43.4885 42.0384 43.6703 41.5854 43.6703C41.1324 43.6703 40.6977 43.4885 40.3774 43.165C40.0571 42.8414 39.8772 42.4023 39.8772 41.9447C39.8772 41.4872 40.0571 41.0481 40.3774 40.7245C40.6977 40.401 41.1324 40.2192 41.5854 40.2192Z" fill="#1742E7"></path><path d="M34.5456 44.5074L35.1172 44.6515L34.814 45.1614H34.8136C34.6119 45.5012 34.6653 45.9356 34.9425 46.2156L37.358 48.6556C37.6352 48.9356 38.0653 48.9896 38.4016 48.7858L38.9064 48.4796L39.049 49.057V49.0566C39.1444 49.4406 39.486 49.7098 39.8776 49.7098H43.294C43.6856 49.7098 44.0273 49.4406 44.1226 49.0566L44.2652 48.4792L44.77 48.7854V48.7858C45.1063 48.9896 45.5364 48.9356 45.8136 48.6556L48.2291 46.2156C48.5063 45.9356 48.5597 45.5011 48.358 45.1614L48.0548 44.6515L48.6264 44.5074H48.626C49.0062 44.4111 49.2727 44.066 49.2727 43.6705V40.2194C49.2727 39.8238 49.0062 39.4787 48.626 39.3824L48.0545 39.2384L48.3576 38.7284H48.358C48.5597 38.3887 48.5063 37.9542 48.2291 37.6742L45.8136 35.2342C45.5364 34.9542 45.1063 34.9003 44.77 35.104L44.2652 35.4102L44.1226 34.8329V34.8333C44.0273 34.4493 43.6856 34.18 43.294 34.18H39.8776C39.486 34.18 39.1444 34.4493 39.049 34.8333L38.9064 35.4106L38.4016 35.1044V35.104C38.0653 34.9003 37.6352 34.9542 37.358 35.2342L34.9425 37.6742C34.6653 37.9542 34.6119 38.3887 34.8136 38.7284L35.1168 39.2384L34.5452 39.3824H34.5456C34.1654 39.4787 33.8989 39.8238 33.8989 40.2194V43.6705C33.8989 44.066 34.1654 44.4111 34.5456 44.5074ZM35.6071 40.8931L36.65 40.6342C36.9123 40.568 37.1282 40.3796 37.2315 40.1273C37.3348 39.8747 37.3138 39.5873 37.1743 39.3532L36.6218 38.4222L38.0944 36.9347L39.016 37.4928V37.4932C39.2478 37.6338 39.5322 37.655 39.7824 37.5506C40.0325 37.4458 40.2186 37.2278 40.2842 36.9624L40.5404 35.9098H42.6226L42.8789 36.9624C42.9445 37.2278 43.1309 37.4458 43.381 37.5506C43.6308 37.655 43.9152 37.6338 44.1474 37.4932L45.069 36.9351L46.5416 38.4226L45.9891 39.3535L45.9887 39.3532C45.8496 39.5873 45.8282 39.8747 45.9315 40.1273C46.0349 40.3796 46.2507 40.568 46.5134 40.6342L47.5563 40.8931V42.9964L46.5134 43.2553V43.2557C46.2507 43.3219 46.0349 43.5103 45.9315 43.7625C45.8282 44.0152 45.8496 44.3025 45.9887 44.5367L46.5412 45.4677L45.0687 46.9552L44.1471 46.3971L44.1474 46.3967C43.9152 46.2561 43.6312 46.2345 43.381 46.3389C43.1309 46.4437 42.9448 46.6613 42.8789 46.9267L42.6272 47.9844H40.5446L40.2883 46.9309C40.2228 46.6659 40.0363 46.4479 39.7866 46.3435C39.5364 46.2392 39.252 46.2603 39.0201 46.4013L38.0985 46.9594L36.626 45.4719L37.1785 44.541H37.1789C37.318 44.3068 37.3394 44.0194 37.2361 43.7672C37.1323 43.5145 36.9169 43.3261 36.6542 43.2599L35.6071 42.9968L35.6071 40.8931Z" fill="#1742E7"></path><path d="M29.6279 24.6893H50.1264C50.3529 24.6893 50.5703 24.5984 50.7304 24.4366C50.8905 24.2749 50.9805 24.0553 50.9805 23.8265V18.6499C50.9805 18.4211 50.8905 18.2016 50.7304 18.0398C50.5703 17.878 50.3529 17.7871 50.1264 17.7871H29.6279C29.1562 17.7871 28.7738 18.1735 28.7738 18.6499V23.8265C28.7738 24.0553 28.8638 24.2749 29.0239 24.4366C29.1841 24.5984 29.4014 24.6893 29.6279 24.6893ZM30.482 19.5127H49.2723V22.9638H30.482V19.5127Z" fill="#1742E7"></path><path d="M65.2524 60.9691L59.5215 55.1801V21.2381H64.6461C64.8726 21.2381 65.0899 21.1472 65.2501 20.9854C65.4102 20.8237 65.5002 20.6041 65.5002 20.3753C65.4983 18.7742 64.868 17.2389 63.747 16.1069C62.6264 14.9746 61.1065 14.3379 59.5215 14.3359H24.5032C23.3707 14.3359 22.2844 14.7904 21.4832 15.5992C20.6825 16.4085 20.2326 17.5058 20.2326 18.6498V59.2001H15.108C14.6364 59.2001 14.2539 59.5864 14.2539 60.0629C14.2558 61.664 14.8861 63.1993 16.0071 64.3313C17.1277 65.4636 18.6476 66.1003 20.2326 66.1023H58.6674C58.8939 66.1023 59.1112 66.0114 59.2714 65.8496C59.4315 65.6878 59.5215 65.4683 59.5215 65.2395V64.946L60.4183 65.8519C61.2819 66.7243 62.5406 67.0652 63.7203 66.7459C64.8997 66.4266 65.8212 65.4956 66.1374 64.3043C66.4535 63.1126 66.116 61.8412 65.2524 60.9688L65.2524 60.9691ZM59.5215 16.0616C60.5056 16.0627 61.4593 16.4067 62.2214 17.0353C62.984 17.6639 63.5084 18.539 63.7066 19.5127H59.5215V16.0616ZM20.2326 64.3768C19.2485 64.3757 18.2948 64.0317 17.5327 63.4031C16.7701 62.7745 16.2458 61.8994 16.0475 60.9257H50.2205C50.6209 62.3575 51.5345 63.5876 52.7828 64.3768H20.2326ZM57.8133 64.3768C55.2594 64.3768 51.8345 62.2457 51.8345 60.063C51.8345 59.8342 51.7445 59.6146 51.5844 59.4529C51.4243 59.2911 51.2069 59.2002 50.9804 59.2002H21.9409V18.6499C21.9428 17.9639 22.2135 17.3068 22.6935 16.8219C23.1736 16.337 23.8241 16.0635 24.5032 16.0616H57.8133V53.4546L57.3946 53.0406V53.0402C57.0617 52.7059 56.5237 52.7059 56.1905 53.0402L54.9863 54.2566L51.3304 50.5729H56.105V48.8473H52.4068C52.7515 48.2946 53.0569 47.718 53.3208 47.1218H56.105V45.3962H53.9187C54.0746 44.83 54.1917 44.2534 54.2687 43.6707H56.105V41.9451H54.3968C54.3929 41.3678 54.3502 40.7912 54.2686 40.2196H56.1049V38.4941H53.9186C53.7604 37.9051 53.5606 37.3286 53.3207 36.7685H56.1049V35.043H52.4067C52.0231 34.4317 51.5888 33.8543 51.1084 33.3174H56.1049V31.5919H49.2377C47.0331 29.9122 44.3469 29.0036 41.5851 29.0036C38.8234 29.0036 36.1372 29.9122 33.9325 31.5919H27.0653V33.3174H32.0619C31.5815 33.8543 31.1472 34.4317 30.7636 35.043H27.0653V36.7685H29.8495C29.6097 37.3285 29.4099 37.9051 29.2517 38.4941H27.0653V40.2196H28.9016C28.82 40.7912 28.7773 41.3678 28.7735 41.9451H27.0653V43.6707H28.9016C28.9786 44.2535 29.0956 44.8301 29.2516 45.3962H27.0653V47.1218H29.8495C30.1133 47.718 30.4187 48.2947 30.7634 48.8473H27.0652V50.5729H32.0618C34.3015 53.1153 37.4472 54.658 40.8103 54.8633C44.1733 55.0686 47.4799 53.92 50.0064 51.6687L53.7728 55.4823L52.5687 56.6987C52.2377 57.0353 52.2377 57.5788 52.5687 57.915L57.8131 63.221L57.8133 64.3768ZM41.5853 53.1608C38.6405 53.1608 35.8162 51.9791 33.7339 49.8758C31.6517 47.7724 30.4819 44.9194 30.4819 41.9448C30.4819 38.9701 31.6517 36.1171 33.7339 34.0138C35.8162 31.9104 38.6405 30.7287 41.5853 30.7287C44.53 30.7287 47.3543 31.9104 49.4366 34.0138C51.5189 36.1171 52.6886 38.9701 52.6886 41.9448C52.686 44.9186 51.5153 47.77 49.4335 49.8726C47.352 51.9756 44.5293 53.158 41.5853 53.1608ZM64.0399 64.6273C63.7193 64.9512 63.2846 65.1334 62.8312 65.1334C62.3778 65.1334 61.9432 64.9512 61.6225 64.6273L54.3798 57.3111L56.7968 54.8695L64.0396 62.1857L64.0399 62.1853C64.3606 62.5092 64.541 62.9483 64.541 63.4063C64.541 63.8643 64.3606 64.3033 64.0399 64.6273Z" stroke="#F1F4F4" stroke-width="0.4" mask="url(#path-1-inside-1_922_23545)"></path><path d="M23.6492 31.5915H25.3574V33.317H23.6492V31.5915Z" stroke="#F1F4F4" stroke-width="0.4" mask="url(#path-1-inside-1_922_23545)"></path><path d="M23.6492 35.0426H25.3574V36.7681H23.6492V35.0426Z" stroke="#F1F4F4" stroke-width="0.4" mask="url(#path-1-inside-1_922_23545)"></path><path d="M23.6492 48.8469H25.3574V50.5725H23.6492V48.8469Z" stroke="#F1F4F4" stroke-width="0.4" mask="url(#path-1-inside-1_922_23545)"></path><path d="M23.6492 38.4937H25.3574V40.2192H23.6492V38.4937Z" stroke="#F1F4F4" stroke-width="0.4" mask="url(#path-1-inside-1_922_23545)"></path><path d="M23.6492 45.3958H25.3574V47.1214H23.6492V45.3958Z" stroke="#F1F4F4" stroke-width="0.4" mask="url(#path-1-inside-1_922_23545)"></path><path d="M23.6492 41.9447H25.3574V43.6703H23.6492V41.9447Z" stroke="#F1F4F4" stroke-width="0.4" mask="url(#path-1-inside-1_922_23545)"></path><path d="M41.5854 45.3958C42.4913 45.3958 43.3603 45.0322 44.0013 44.3852C44.6418 43.7377 45.0018 42.8599 45.0018 41.9447C45.0018 41.0296 44.6418 40.1518 44.0013 39.5043C43.3603 38.8573 42.4913 38.4937 41.5854 38.4937C40.6794 38.4937 39.8104 38.8573 39.1695 39.5043C38.5289 40.1518 38.169 41.0296 38.169 41.9447C38.169 42.8599 38.5289 43.7377 39.1695 44.3852C39.8104 45.0322 40.6794 45.3958 41.5854 45.3958ZM41.5854 40.2192C42.0384 40.2192 42.473 40.401 42.7933 40.7245C43.1136 41.0481 43.2936 41.4872 43.2936 41.9447C43.2936 42.4023 43.1136 42.8414 42.7933 43.165C42.473 43.4885 42.0384 43.6703 41.5854 43.6703C41.1324 43.6703 40.6977 43.4885 40.3774 43.165C40.0571 42.8414 39.8772 42.4023 39.8772 41.9447C39.8772 41.4872 40.0571 41.0481 40.3774 40.7245C40.6977 40.401 41.1324 40.2192 41.5854 40.2192Z" stroke="#F1F4F4" stroke-width="0.4" mask="url(#path-1-inside-1_922_23545)"></path><path d="M34.5456 44.5074L35.1172 44.6515L34.814 45.1614H34.8136C34.6119 45.5012 34.6653 45.9356 34.9425 46.2156L37.358 48.6556C37.6352 48.9356 38.0653 48.9896 38.4016 48.7858L38.9064 48.4796L39.049 49.057V49.0566C39.1444 49.4406 39.486 49.7098 39.8776 49.7098H43.294C43.6856 49.7098 44.0273 49.4406 44.1226 49.0566L44.2652 48.4792L44.77 48.7854V48.7858C45.1063 48.9896 45.5364 48.9356 45.8136 48.6556L48.2291 46.2156C48.5063 45.9356 48.5597 45.5011 48.358 45.1614L48.0548 44.6515L48.6264 44.5074H48.626C49.0062 44.4111 49.2727 44.066 49.2727 43.6705V40.2194C49.2727 39.8238 49.0062 39.4787 48.626 39.3824L48.0545 39.2384L48.3576 38.7284H48.358C48.5597 38.3887 48.5063 37.9542 48.2291 37.6742L45.8136 35.2342C45.5364 34.9542 45.1063 34.9003 44.77 35.104L44.2652 35.4102L44.1226 34.8329V34.8333C44.0273 34.4493 43.6856 34.18 43.294 34.18H39.8776C39.486 34.18 39.1444 34.4493 39.049 34.8333L38.9064 35.4106L38.4016 35.1044V35.104C38.0653 34.9003 37.6352 34.9542 37.358 35.2342L34.9425 37.6742C34.6653 37.9542 34.6119 38.3887 34.8136 38.7284L35.1168 39.2384L34.5452 39.3824H34.5456C34.1654 39.4787 33.8989 39.8238 33.8989 40.2194V43.6705C33.8989 44.066 34.1654 44.4111 34.5456 44.5074ZM35.6071 40.8931L36.65 40.6342C36.9123 40.568 37.1282 40.3796 37.2315 40.1273C37.3348 39.8747 37.3138 39.5873 37.1743 39.3532L36.6218 38.4222L38.0944 36.9347L39.016 37.4928V37.4932C39.2478 37.6338 39.5322 37.655 39.7824 37.5506C40.0325 37.4458 40.2186 37.2278 40.2842 36.9624L40.5404 35.9098H42.6226L42.8789 36.9624C42.9445 37.2278 43.1309 37.4458 43.381 37.5506C43.6308 37.655 43.9152 37.6338 44.1474 37.4932L45.069 36.9351L46.5416 38.4226L45.9891 39.3535L45.9887 39.3532C45.8496 39.5873 45.8282 39.8747 45.9315 40.1273C46.0349 40.3796 46.2507 40.568 46.5134 40.6342L47.5563 40.8931V42.9964L46.5134 43.2553V43.2557C46.2507 43.3219 46.0349 43.5103 45.9315 43.7625C45.8282 44.0152 45.8496 44.3025 45.9887 44.5367L46.5412 45.4677L45.0687 46.9552L44.1471 46.3971L44.1474 46.3967C43.9152 46.2561 43.6312 46.2345 43.381 46.3389C43.1309 46.4437 42.9448 46.6613 42.8789 46.9267L42.6272 47.9844H40.5446L40.2883 46.9309C40.2228 46.6659 40.0363 46.4479 39.7866 46.3435C39.5364 46.2392 39.252 46.2603 39.0201 46.4013L38.0985 46.9594L36.626 45.4719L37.1785 44.541H37.1789C37.318 44.3068 37.3394 44.0194 37.2361 43.7672C37.1323 43.5145 36.9169 43.3261 36.6542 43.2599L35.6071 42.9968L35.6071 40.8931Z" stroke="#F1F4F4" stroke-width="0.4" mask="url(#path-1-inside-1_922_23545)"></path><path d="M29.6279 24.6893H50.1264C50.3529 24.6893 50.5703 24.5984 50.7304 24.4366C50.8905 24.2749 50.9805 24.0553 50.9805 23.8265V18.6499C50.9805 18.4211 50.8905 18.2016 50.7304 18.0398C50.5703 17.878 50.3529 17.7871 50.1264 17.7871H29.6279C29.1562 17.7871 28.7738 18.1735 28.7738 18.6499V23.8265C28.7738 24.0553 28.8638 24.2749 29.0239 24.4366C29.1841 24.5984 29.4014 24.6893 29.6279 24.6893ZM30.482 19.5127H49.2723V22.9638H30.482V19.5127Z" stroke="#F1F4F4" stroke-width="0.4" mask="url(#path-1-inside-1_922_23545)"></path></svg>