<svg xmlns="http://www.w3.org/2000/svg" width="81" height="81" viewBox="0 0 81 81" fill="none"><mask id="path-1-inside-1_922_23553" fill="white"><path d="M44.9908 20.1523C43.4276 19.7952 41.8344 19.6122 40.254 19.6122C38.6736 19.6122 37.0788 19.7928 35.5172 20.1523C35.1155 20.2449 34.8323 20.602 34.8323 21.0119V24.3261C33.4074 24.797 32.054 25.4485 30.7974 26.2723L28.2039 24.2042C27.8826 23.948 27.4264 23.948 27.1051 24.2042C25.8502 25.2022 24.7156 26.3351 23.7299 27.5713C22.7442 28.8068 21.8911 30.1666 21.1974 31.6126C21.0185 31.9826 21.1217 32.4283 21.4431 32.6845L24.0319 34.7504C23.5106 36.1582 23.1764 37.6231 23.038 39.1218L19.8059 39.8595C19.4043 39.9521 19.121 40.3069 19.1187 40.7191C19.1163 42.3229 19.2952 43.9178 19.6464 45.4582C19.9977 46.9985 20.5289 48.5137 21.2267 49.9575C21.4055 50.3275 21.8172 50.5251 22.2188 50.4348L25.4509 49.6971C26.2261 50.9813 27.1637 52.154 28.2462 53.1984L26.8066 56.1865C26.6278 56.5565 26.7286 57.0022 27.0505 57.2584C28.303 58.2588 29.6606 59.1143 31.0854 59.7992C32.5103 60.4842 34.0255 61.0142 35.587 61.369C35.9887 61.4616 36.398 61.2616 36.5792 60.8916L38.0187 57.9035C39.5193 58.0988 40.9988 58.0988 42.4993 57.9035L43.9388 60.8916C44.0878 61.2024 44.4009 61.3918 44.7334 61.3918C44.7985 61.3918 44.8636 61.3854 44.9287 61.3707C46.4919 61.0154 48.0078 60.4882 49.4302 59.801C50.8551 59.1161 52.2126 58.2605 53.4651 57.2602C53.7865 57.0039 53.8873 56.5583 53.7091 56.1883L52.2695 53.2001C53.352 52.1558 54.289 50.983 55.0648 49.6989L58.2968 50.4366C58.6985 50.5269 59.1101 50.3293 59.289 49.9592C59.9868 48.5156 60.5186 47.0022 60.8692 45.4599C61.2205 43.9195 61.3987 42.3245 61.397 40.7208C61.397 40.3092 61.1114 39.9515 60.7097 39.8612L57.4777 39.1235C57.3369 37.6253 57.005 36.1606 56.4837 34.7521L59.0726 32.6863C59.3939 32.43 59.4948 31.9844 59.3183 31.6144C58.6246 30.1683 57.7714 28.8108 56.7857 27.573C55.8 26.3375 54.6654 25.2047 53.4106 24.2043C53.0893 23.9481 52.633 23.9481 52.3117 24.2043L49.7182 26.2724C48.4593 25.4486 47.1082 24.7971 45.6833 24.3262L45.6822 21.0138C45.6781 20.6022 45.3925 20.2444 44.9908 20.1523ZM49.2426 28.0895C49.564 28.3188 49.9973 28.3059 50.304 28.0602L52.847 26.0319C53.7841 26.8346 54.6419 27.7218 55.4024 28.6736C56.1612 29.6258 56.8355 30.6595 57.4096 31.7527L54.8712 33.7762C54.5645 34.0219 54.4548 34.4406 54.6061 34.8041C55.2764 36.4202 55.6651 38.1306 55.7619 39.8857C55.783 40.2786 56.0627 40.6105 56.4468 40.6967L59.6161 41.4197C59.5739 42.6534 59.4144 43.8766 59.1435 45.064C58.8726 46.2514 58.4838 47.4218 57.9877 48.5523L54.8207 47.8293C54.4383 47.7408 54.0431 47.9178 53.852 48.2621C53.0029 49.7943 51.9098 51.1646 50.6011 52.3351C50.3068 52.5978 50.2229 53.0223 50.393 53.3753L51.8032 56.3049C50.811 57.0402 49.7561 57.6794 48.6591 58.2089C47.562 58.7384 46.4039 59.163 45.2105 59.4802L43.8003 56.5506C43.6514 56.2416 43.34 56.0504 43.0057 56.0504C42.9577 56.0504 42.9072 56.0545 42.8586 56.0633C41.9866 56.2105 41.1101 56.2862 40.2528 56.2862C39.3955 56.2862 38.5188 56.2105 37.647 56.0633C37.2582 55.9983 36.8759 56.1959 36.7052 56.5506L35.295 59.4802C34.1011 59.1647 32.9454 58.7385 31.8465 58.2089C30.7493 57.6812 29.6944 57.0426 28.7023 56.3049L30.1126 53.3753C30.2826 53.02 30.1988 52.5954 29.9068 52.3351C28.5974 51.1647 27.5025 49.7943 26.6559 48.2621C26.4648 47.9173 26.0719 47.7408 25.6872 47.8293L22.5201 48.5523C22.0241 47.4218 21.6353 46.2514 21.3644 45.064C21.0935 43.8766 20.9357 42.6533 20.8918 41.4197L24.0611 40.6967C24.4458 40.6082 24.7255 40.2786 24.746 39.8857C24.8427 38.1308 25.2315 36.4226 25.9017 34.8041C26.053 34.4406 25.944 34.0201 25.6367 33.7762L23.0983 31.7527C23.6718 30.6597 24.3444 29.6259 25.1055 28.6736C25.866 27.7213 26.7216 26.8347 27.6608 26.0319L30.2039 28.0602C30.5106 28.3059 30.9457 28.3188 31.2652 28.0895C32.6966 27.0722 34.2745 26.3116 35.9557 25.8285C36.3339 25.7194 36.5948 25.3747 36.5948 24.9794L36.5931 21.7286C39.016 21.2618 41.4858 21.2618 43.9087 21.7286V24.9778C43.9087 25.3707 44.169 25.7178 44.5478 25.8269C46.2325 26.31 47.811 27.0729 49.2423 28.0897L49.2426 28.0895Z"></path><path d="M30.1042 40.3575C30.1042 45.9538 34.6586 50.5083 40.2549 50.5083C45.8513 50.5083 50.4057 45.9538 50.4057 40.3575C50.4057 34.7611 45.8513 30.2067 40.2549 30.2067C34.6586 30.2073 30.1042 34.7587 30.1042 40.3575ZM48.6401 40.3575C48.6401 44.9811 44.8784 48.7426 40.2549 48.7426C35.6315 48.7426 31.8698 44.981 31.8698 40.3575C31.8698 35.734 35.6315 31.9723 40.2549 31.9723C44.8784 31.9723 48.6401 35.7322 48.6401 40.3575Z"></path><path d="M36.6761 39.9642C36.3295 39.6218 35.7701 39.6235 35.4277 39.9706C35.0853 40.3172 35.087 40.8766 35.4341 41.219L38.5385 44.2934C38.7109 44.4634 38.9354 44.5496 39.1606 44.5496C39.3875 44.5496 39.6127 44.4634 39.7845 44.291L45.5217 38.5538C45.8665 38.209 45.8665 37.6502 45.5217 37.3054C45.1769 36.9606 44.6181 36.9606 44.2733 37.3054L39.1583 42.4204L36.6761 39.9642Z"></path><path d="M49.2976 20.0367C49.4278 20.3962 49.7661 20.619 50.1279 20.619C50.2287 20.619 50.3296 20.602 50.4287 20.5662C50.8867 20.4003 51.1241 19.8936 50.9582 19.4357L49.9367 16.6193C59.7931 20.5515 66.293 30.0461 66.293 40.7979C66.293 55.1559 54.6124 66.8365 40.2544 66.8365C35.1494 66.8365 30.2068 65.3588 25.9614 62.566C25.5539 62.2968 25.0074 62.4106 24.7383 62.8181C24.4691 63.2256 24.5829 63.7721 24.9904 64.0413C29.5255 67.0254 34.8028 68.6016 40.2524 68.6016C47.6795 68.6016 54.6608 65.7095 59.9127 60.4579C65.1645 55.2064 68.0563 48.2249 68.0563 40.7977C68.0563 34.7849 66.1694 29.0648 62.5965 24.2507C59.5872 20.1947 55.6215 17.0863 51.0314 15.1612L53.368 14.3145C53.826 14.1485 54.0635 13.6419 53.8975 13.184C53.7316 12.726 53.225 12.4885 52.767 12.6545L48.1645 14.3233C47.9441 14.403 47.7652 14.5672 47.6667 14.7795C47.5682 14.9918 47.5576 15.2333 47.6374 15.4538L49.2976 20.0367Z"></path><path d="M17.2785 60.2174C16.7912 60.2174 16.396 60.6126 16.396 61.0999C16.396 61.5872 16.7912 61.9824 17.2785 61.9824H22.5746C23.0619 61.9824 23.4571 61.5872 23.4571 61.0999V56.2453C23.4571 55.758 23.0619 55.3628 22.5746 55.3628C22.0874 55.3628 21.6921 55.758 21.6921 56.2453V59.051C16.9214 54.1964 14.217 47.6518 14.217 40.7988C14.217 26.4408 25.8975 14.7602 40.2555 14.7602C41.6928 14.7602 43.137 14.8781 44.5426 15.1115C45.0217 15.1912 45.4779 14.8658 45.5576 14.3843C45.6374 13.9029 45.312 13.4491 44.8305 13.3693C43.3276 13.1213 41.7895 12.9952 40.2533 12.9952C32.8261 12.9952 25.8448 15.8873 20.593 21.1388C15.3425 26.3881 12.4512 33.3718 12.4512 40.7991C12.4512 48.0854 15.3116 55.0417 20.3614 60.2177L17.2785 60.2174Z"></path></mask><path d="M44.9908 20.1523C43.4276 19.7952 41.8344 19.6122 40.254 19.6122C38.6736 19.6122 37.0788 19.7928 35.5172 20.1523C35.1155 20.2449 34.8323 20.602 34.8323 21.0119V24.3261C33.4074 24.797 32.054 25.4485 30.7974 26.2723L28.2039 24.2042C27.8826 23.948 27.4264 23.948 27.1051 24.2042C25.8502 25.2022 24.7156 26.3351 23.7299 27.5713C22.7442 28.8068 21.8911 30.1666 21.1974 31.6126C21.0185 31.9826 21.1217 32.4283 21.4431 32.6845L24.0319 34.7504C23.5106 36.1582 23.1764 37.6231 23.038 39.1218L19.8059 39.8595C19.4043 39.9521 19.121 40.3069 19.1187 40.7191C19.1163 42.3229 19.2952 43.9178 19.6464 45.4582C19.9977 46.9985 20.5289 48.5137 21.2267 49.9575C21.4055 50.3275 21.8172 50.5251 22.2188 50.4348L25.4509 49.6971C26.2261 50.9813 27.1637 52.154 28.2462 53.1984L26.8066 56.1865C26.6278 56.5565 26.7286 57.0022 27.0505 57.2584C28.303 58.2588 29.6606 59.1143 31.0854 59.7992C32.5103 60.4842 34.0255 61.0142 35.587 61.369C35.9887 61.4616 36.398 61.2616 36.5792 60.8916L38.0187 57.9035C39.5193 58.0988 40.9988 58.0988 42.4993 57.9035L43.9388 60.8916C44.0878 61.2024 44.4009 61.3918 44.7334 61.3918C44.7985 61.3918 44.8636 61.3854 44.9287 61.3707C46.4919 61.0154 48.0078 60.4882 49.4302 59.801C50.8551 59.1161 52.2126 58.2605 53.4651 57.2602C53.7865 57.0039 53.8873 56.5583 53.7091 56.1883L52.2695 53.2001C53.352 52.1558 54.289 50.983 55.0648 49.6989L58.2968 50.4366C58.6985 50.5269 59.1101 50.3293 59.289 49.9592C59.9868 48.5156 60.5186 47.0022 60.8692 45.4599C61.2205 43.9195 61.3987 42.3245 61.397 40.7208C61.397 40.3092 61.1114 39.9515 60.7097 39.8612L57.4777 39.1235C57.3369 37.6253 57.005 36.1606 56.4837 34.7521L59.0726 32.6863C59.3939 32.43 59.4948 31.9844 59.3183 31.6144C58.6246 30.1683 57.7714 28.8108 56.7857 27.573C55.8 26.3375 54.6654 25.2047 53.4106 24.2043C53.0893 23.9481 52.633 23.9481 52.3117 24.2043L49.7182 26.2724C48.4593 25.4486 47.1082 24.7971 45.6833 24.3262L45.6822 21.0138C45.6781 20.6022 45.3925 20.2444 44.9908 20.1523ZM49.2426 28.0895C49.564 28.3188 49.9973 28.3059 50.304 28.0602L52.847 26.0319C53.7841 26.8346 54.6419 27.7218 55.4024 28.6736C56.1612 29.6258 56.8355 30.6595 57.4096 31.7527L54.8712 33.7762C54.5645 34.0219 54.4548 34.4406 54.6061 34.8041C55.2764 36.4202 55.6651 38.1306 55.7619 39.8857C55.783 40.2786 56.0627 40.6105 56.4468 40.6967L59.6161 41.4197C59.5739 42.6534 59.4144 43.8766 59.1435 45.064C58.8726 46.2514 58.4838 47.4218 57.9877 48.5523L54.8207 47.8293C54.4383 47.7408 54.0431 47.9178 53.852 48.2621C53.0029 49.7943 51.9098 51.1646 50.6011 52.3351C50.3068 52.5978 50.2229 53.0223 50.393 53.3753L51.8032 56.3049C50.811 57.0402 49.7561 57.6794 48.6591 58.2089C47.562 58.7384 46.4039 59.163 45.2105 59.4802L43.8003 56.5506C43.6514 56.2416 43.34 56.0504 43.0057 56.0504C42.9577 56.0504 42.9072 56.0545 42.8586 56.0633C41.9866 56.2105 41.1101 56.2862 40.2528 56.2862C39.3955 56.2862 38.5188 56.2105 37.647 56.0633C37.2582 55.9983 36.8759 56.1959 36.7052 56.5506L35.295 59.4802C34.1011 59.1647 32.9454 58.7385 31.8465 58.2089C30.7493 57.6812 29.6944 57.0426 28.7023 56.3049L30.1126 53.3753C30.2826 53.02 30.1988 52.5954 29.9068 52.3351C28.5974 51.1647 27.5025 49.7943 26.6559 48.2621C26.4648 47.9173 26.0719 47.7408 25.6872 47.8293L22.5201 48.5523C22.0241 47.4218 21.6353 46.2514 21.3644 45.064C21.0935 43.8766 20.9357 42.6533 20.8918 41.4197L24.0611 40.6967C24.4458 40.6082 24.7255 40.2786 24.746 39.8857C24.8427 38.1308 25.2315 36.4226 25.9017 34.8041C26.053 34.4406 25.944 34.0201 25.6367 33.7762L23.0983 31.7527C23.6718 30.6597 24.3444 29.6259 25.1055 28.6736C25.866 27.7213 26.7216 26.8347 27.6608 26.0319L30.2039 28.0602C30.5106 28.3059 30.9457 28.3188 31.2652 28.0895C32.6966 27.0722 34.2745 26.3116 35.9557 25.8285C36.3339 25.7194 36.5948 25.3747 36.5948 24.9794L36.5931 21.7286C39.016 21.2618 41.4858 21.2618 43.9087 21.7286V24.9778C43.9087 25.3707 44.169 25.7178 44.5478 25.8269C46.2325 26.31 47.811 27.0729 49.2423 28.0897L49.2426 28.0895Z" fill="#1742E7"></path><path d="M30.1042 40.3575C30.1042 45.9538 34.6586 50.5083 40.2549 50.5083C45.8513 50.5083 50.4057 45.9538 50.4057 40.3575C50.4057 34.7611 45.8513 30.2067 40.2549 30.2067C34.6586 30.2073 30.1042 34.7587 30.1042 40.3575ZM48.6401 40.3575C48.6401 44.9811 44.8784 48.7426 40.2549 48.7426C35.6315 48.7426 31.8698 44.981 31.8698 40.3575C31.8698 35.734 35.6315 31.9723 40.2549 31.9723C44.8784 31.9723 48.6401 35.7322 48.6401 40.3575Z" fill="#1742E7"></path><path d="M36.6761 39.9642C36.3295 39.6218 35.7701 39.6235 35.4277 39.9706C35.0853 40.3172 35.087 40.8766 35.4341 41.219L38.5385 44.2934C38.7109 44.4634 38.9354 44.5496 39.1606 44.5496C39.3875 44.5496 39.6127 44.4634 39.7845 44.291L45.5217 38.5538C45.8665 38.209 45.8665 37.6502 45.5217 37.3054C45.1769 36.9606 44.6181 36.9606 44.2733 37.3054L39.1583 42.4204L36.6761 39.9642Z" fill="#1742E7"></path><path d="M49.2976 20.0367C49.4278 20.3962 49.7661 20.619 50.1279 20.619C50.2287 20.619 50.3296 20.602 50.4287 20.5662C50.8867 20.4003 51.1241 19.8936 50.9582 19.4357L49.9367 16.6193C59.7931 20.5515 66.293 30.0461 66.293 40.7979C66.293 55.1559 54.6124 66.8365 40.2544 66.8365C35.1494 66.8365 30.2068 65.3588 25.9614 62.566C25.5539 62.2968 25.0074 62.4106 24.7383 62.8181C24.4691 63.2256 24.5829 63.7721 24.9904 64.0413C29.5255 67.0254 34.8028 68.6016 40.2524 68.6016C47.6795 68.6016 54.6608 65.7095 59.9127 60.4579C65.1645 55.2064 68.0563 48.2249 68.0563 40.7977C68.0563 34.7849 66.1694 29.0648 62.5965 24.2507C59.5872 20.1947 55.6215 17.0863 51.0314 15.1612L53.368 14.3145C53.826 14.1485 54.0635 13.6419 53.8975 13.184C53.7316 12.726 53.225 12.4885 52.767 12.6545L48.1645 14.3233C47.9441 14.403 47.7652 14.5672 47.6667 14.7795C47.5682 14.9918 47.5576 15.2333 47.6374 15.4538L49.2976 20.0367Z" fill="#1742E7"></path><path d="M17.2785 60.2174C16.7912 60.2174 16.396 60.6126 16.396 61.0999C16.396 61.5872 16.7912 61.9824 17.2785 61.9824H22.5746C23.0619 61.9824 23.4571 61.5872 23.4571 61.0999V56.2453C23.4571 55.758 23.0619 55.3628 22.5746 55.3628C22.0874 55.3628 21.6921 55.758 21.6921 56.2453V59.051C16.9214 54.1964 14.217 47.6518 14.217 40.7988C14.217 26.4408 25.8975 14.7602 40.2555 14.7602C41.6928 14.7602 43.137 14.8781 44.5426 15.1115C45.0217 15.1912 45.4779 14.8658 45.5576 14.3843C45.6374 13.9029 45.312 13.4491 44.8305 13.3693C43.3276 13.1213 41.7895 12.9952 40.2533 12.9952C32.8261 12.9952 25.8448 15.8873 20.593 21.1388C15.3425 26.3881 12.4512 33.3718 12.4512 40.7991C12.4512 48.0854 15.3116 55.0417 20.3614 60.2177L17.2785 60.2174Z" fill="#1742E7"></path><path d="M44.9908 20.1523C43.4276 19.7952 41.8344 19.6122 40.254 19.6122C38.6736 19.6122 37.0788 19.7928 35.5172 20.1523C35.1155 20.2449 34.8323 20.602 34.8323 21.0119V24.3261C33.4074 24.797 32.054 25.4485 30.7974 26.2723L28.2039 24.2042C27.8826 23.948 27.4264 23.948 27.1051 24.2042C25.8502 25.2022 24.7156 26.3351 23.7299 27.5713C22.7442 28.8068 21.8911 30.1666 21.1974 31.6126C21.0185 31.9826 21.1217 32.4283 21.4431 32.6845L24.0319 34.7504C23.5106 36.1582 23.1764 37.6231 23.038 39.1218L19.8059 39.8595C19.4043 39.9521 19.121 40.3069 19.1187 40.7191C19.1163 42.3229 19.2952 43.9178 19.6464 45.4582C19.9977 46.9985 20.5289 48.5137 21.2267 49.9575C21.4055 50.3275 21.8172 50.5251 22.2188 50.4348L25.4509 49.6971C26.2261 50.9813 27.1637 52.154 28.2462 53.1984L26.8066 56.1865C26.6278 56.5565 26.7286 57.0022 27.0505 57.2584C28.303 58.2588 29.6606 59.1143 31.0854 59.7992C32.5103 60.4842 34.0255 61.0142 35.587 61.369C35.9887 61.4616 36.398 61.2616 36.5792 60.8916L38.0187 57.9035C39.5193 58.0988 40.9988 58.0988 42.4993 57.9035L43.9388 60.8916C44.0878 61.2024 44.4009 61.3918 44.7334 61.3918C44.7985 61.3918 44.8636 61.3854 44.9287 61.3707C46.4919 61.0154 48.0078 60.4882 49.4302 59.801C50.8551 59.1161 52.2126 58.2605 53.4651 57.2602C53.7865 57.0039 53.8873 56.5583 53.7091 56.1883L52.2695 53.2001C53.352 52.1558 54.289 50.983 55.0648 49.6989L58.2968 50.4366C58.6985 50.5269 59.1101 50.3293 59.289 49.9592C59.9868 48.5156 60.5186 47.0022 60.8692 45.4599C61.2205 43.9195 61.3987 42.3245 61.397 40.7208C61.397 40.3092 61.1114 39.9515 60.7097 39.8612L57.4777 39.1235C57.3369 37.6253 57.005 36.1606 56.4837 34.7521L59.0726 32.6863C59.3939 32.43 59.4948 31.9844 59.3183 31.6144C58.6246 30.1683 57.7714 28.8108 56.7857 27.573C55.8 26.3375 54.6654 25.2047 53.4106 24.2043C53.0893 23.9481 52.633 23.9481 52.3117 24.2043L49.7182 26.2724C48.4593 25.4486 47.1082 24.7971 45.6833 24.3262L45.6822 21.0138C45.6781 20.6022 45.3925 20.2444 44.9908 20.1523ZM49.2426 28.0895C49.564 28.3188 49.9973 28.3059 50.304 28.0602L52.847 26.0319C53.7841 26.8346 54.6419 27.7218 55.4024 28.6736C56.1612 29.6258 56.8355 30.6595 57.4096 31.7527L54.8712 33.7762C54.5645 34.0219 54.4548 34.4406 54.6061 34.8041C55.2764 36.4202 55.6651 38.1306 55.7619 39.8857C55.783 40.2786 56.0627 40.6105 56.4468 40.6967L59.6161 41.4197C59.5739 42.6534 59.4144 43.8766 59.1435 45.064C58.8726 46.2514 58.4838 47.4218 57.9877 48.5523L54.8207 47.8293C54.4383 47.7408 54.0431 47.9178 53.852 48.2621C53.0029 49.7943 51.9098 51.1646 50.6011 52.3351C50.3068 52.5978 50.2229 53.0223 50.393 53.3753L51.8032 56.3049C50.811 57.0402 49.7561 57.6794 48.6591 58.2089C47.562 58.7384 46.4039 59.163 45.2105 59.4802L43.8003 56.5506C43.6514 56.2416 43.34 56.0504 43.0057 56.0504C42.9577 56.0504 42.9072 56.0545 42.8586 56.0633C41.9866 56.2105 41.1101 56.2862 40.2528 56.2862C39.3955 56.2862 38.5188 56.2105 37.647 56.0633C37.2582 55.9983 36.8759 56.1959 36.7052 56.5506L35.295 59.4802C34.1011 59.1647 32.9454 58.7385 31.8465 58.2089C30.7493 57.6812 29.6944 57.0426 28.7023 56.3049L30.1126 53.3753C30.2826 53.02 30.1988 52.5954 29.9068 52.3351C28.5974 51.1647 27.5025 49.7943 26.6559 48.2621C26.4648 47.9173 26.0719 47.7408 25.6872 47.8293L22.5201 48.5523C22.0241 47.4218 21.6353 46.2514 21.3644 45.064C21.0935 43.8766 20.9357 42.6533 20.8918 41.4197L24.0611 40.6967C24.4458 40.6082 24.7255 40.2786 24.746 39.8857C24.8427 38.1308 25.2315 36.4226 25.9017 34.8041C26.053 34.4406 25.944 34.0201 25.6367 33.7762L23.0983 31.7527C23.6718 30.6597 24.3444 29.6259 25.1055 28.6736C25.866 27.7213 26.7216 26.8347 27.6608 26.0319L30.2039 28.0602C30.5106 28.3059 30.9457 28.3188 31.2652 28.0895C32.6966 27.0722 34.2745 26.3116 35.9557 25.8285C36.3339 25.7194 36.5948 25.3747 36.5948 24.9794L36.5931 21.7286C39.016 21.2618 41.4858 21.2618 43.9087 21.7286V24.9778C43.9087 25.3707 44.169 25.7178 44.5478 25.8269C46.2325 26.31 47.811 27.0729 49.2423 28.0897L49.2426 28.0895Z" stroke="#1742E7" stroke-width="0.56" mask="url(#path-1-inside-1_922_23553)"></path><path d="M30.1042 40.3575C30.1042 45.9538 34.6586 50.5083 40.2549 50.5083C45.8513 50.5083 50.4057 45.9538 50.4057 40.3575C50.4057 34.7611 45.8513 30.2067 40.2549 30.2067C34.6586 30.2073 30.1042 34.7587 30.1042 40.3575ZM48.6401 40.3575C48.6401 44.9811 44.8784 48.7426 40.2549 48.7426C35.6315 48.7426 31.8698 44.981 31.8698 40.3575C31.8698 35.734 35.6315 31.9723 40.2549 31.9723C44.8784 31.9723 48.6401 35.7322 48.6401 40.3575Z" stroke="#1742E7" stroke-width="0.56" mask="url(#path-1-inside-1_922_23553)"></path><path d="M36.6761 39.9642C36.3295 39.6218 35.7701 39.6235 35.4277 39.9706C35.0853 40.3172 35.087 40.8766 35.4341 41.219L38.5385 44.2934C38.7109 44.4634 38.9354 44.5496 39.1606 44.5496C39.3875 44.5496 39.6127 44.4634 39.7845 44.291L45.5217 38.5538C45.8665 38.209 45.8665 37.6502 45.5217 37.3054C45.1769 36.9606 44.6181 36.9606 44.2733 37.3054L39.1583 42.4204L36.6761 39.9642Z" stroke="#1742E7" stroke-width="0.56" mask="url(#path-1-inside-1_922_23553)"></path><path d="M49.2976 20.0367C49.4278 20.3962 49.7661 20.619 50.1279 20.619C50.2287 20.619 50.3296 20.602 50.4287 20.5662C50.8867 20.4003 51.1241 19.8936 50.9582 19.4357L49.9367 16.6193C59.7931 20.5515 66.293 30.0461 66.293 40.7979C66.293 55.1559 54.6124 66.8365 40.2544 66.8365C35.1494 66.8365 30.2068 65.3588 25.9614 62.566C25.5539 62.2968 25.0074 62.4106 24.7383 62.8181C24.4691 63.2256 24.5829 63.7721 24.9904 64.0413C29.5255 67.0254 34.8028 68.6016 40.2524 68.6016C47.6795 68.6016 54.6608 65.7095 59.9127 60.4579C65.1645 55.2064 68.0563 48.2249 68.0563 40.7977C68.0563 34.7849 66.1694 29.0648 62.5965 24.2507C59.5872 20.1947 55.6215 17.0863 51.0314 15.1612L53.368 14.3145C53.826 14.1485 54.0635 13.6419 53.8975 13.184C53.7316 12.726 53.225 12.4885 52.767 12.6545L48.1645 14.3233C47.9441 14.403 47.7652 14.5672 47.6667 14.7795C47.5682 14.9918 47.5576 15.2333 47.6374 15.4538L49.2976 20.0367Z" stroke="#1742E7" stroke-width="0.56" mask="url(#path-1-inside-1_922_23553)"></path><path d="M17.2785 60.2174C16.7912 60.2174 16.396 60.6126 16.396 61.0999C16.396 61.5872 16.7912 61.9824 17.2785 61.9824H22.5746C23.0619 61.9824 23.4571 61.5872 23.4571 61.0999V56.2453C23.4571 55.758 23.0619 55.3628 22.5746 55.3628C22.0874 55.3628 21.6921 55.758 21.6921 56.2453V59.051C16.9214 54.1964 14.217 47.6518 14.217 40.7988C14.217 26.4408 25.8975 14.7602 40.2555 14.7602C41.6928 14.7602 43.137 14.8781 44.5426 15.1115C45.0217 15.1912 45.4779 14.8658 45.5576 14.3843C45.6374 13.9029 45.312 13.4491 44.8305 13.3693C43.3276 13.1213 41.7895 12.9952 40.2533 12.9952C32.8261 12.9952 25.8448 15.8873 20.593 21.1388C15.3425 26.3881 12.4512 33.3718 12.4512 40.7991C12.4512 48.0854 15.3116 55.0417 20.3614 60.2177L17.2785 60.2174Z" stroke="#1742E7" stroke-width="0.56" mask="url(#path-1-inside-1_922_23553)"></path></svg>