<svg xmlns="http://www.w3.org/2000/svg" width="81" height="81" viewBox="0 0 81 81" fill="none"><mask id="path-1-inside-1_922_23529" fill="white"><path d="M25.7795 36.4964C25.8144 36.011 26.2351 35.6453 26.7205 35.6781C27.1808 35.71 27.6426 35.71 28.1029 35.6781C28.3453 35.6453 28.5903 35.7141 28.7799 35.8682C28.9694 36.0228 29.087 36.2488 29.104 36.4928C29.1209 36.7368 29.0357 36.9767 28.8692 37.1555C28.7028 37.3347 28.4696 37.4369 28.2251 37.4375C27.9554 37.4565 27.6816 37.4662 27.415 37.4662C27.1484 37.4662 26.8711 37.4565 26.6014 37.4375C26.1144 37.4046 25.7466 36.9834 25.7795 36.4964ZM26.5978 48.279C26.8675 48.298 27.1407 48.3078 27.4114 48.3078C27.6826 48.3078 27.9564 48.298 28.2215 48.279C28.466 48.278 28.6992 48.1758 28.8656 47.997C29.0321 47.8178 29.1173 47.5779 29.1004 47.3339C29.0834 47.0899 28.9658 46.8639 28.7763 46.7098C28.5867 46.5557 28.3417 46.4868 28.0993 46.5197C27.639 46.5511 27.1772 46.5511 26.7169 46.5197C26.475 46.4868 26.23 46.5557 26.0399 46.7098C25.8504 46.8639 25.7333 47.0899 25.7163 47.3334C25.6994 47.5774 25.7836 47.8173 25.95 47.9965C26.1164 48.1758 26.3497 48.278 26.5942 48.279H26.5978ZM28.1038 57.3622C27.6436 57.3941 27.1823 57.3941 26.722 57.3622C26.2567 57.3602 25.8694 57.7198 25.837 58.1846C25.8046 58.649 26.138 59.0589 26.5993 59.1216C26.869 59.1406 27.1427 59.1503 27.4129 59.1503C27.6831 59.1503 27.9579 59.1406 28.223 59.1216C28.4675 59.1205 28.7002 59.0183 28.8666 58.8391C29.033 58.6603 29.1178 58.4199 29.1008 58.1764C29.0839 57.9324 28.9663 57.7064 28.7767 57.5523C28.5872 57.3982 28.3422 57.3294 28.0997 57.3622H28.1038ZM61.0866 52.6139V56.0714C61.085 57.0156 60.3202 57.7809 59.3755 57.782H58.061C57.8422 58.4975 57.5545 59.1905 57.2032 59.8515L58.1334 60.7823C58.8002 61.4501 58.8002 62.5324 58.1334 63.2007L55.6883 65.6463C55.0201 66.3131 53.9378 66.3131 53.2694 65.6463L52.3392 64.7161C51.6781 65.0679 50.9846 65.3551 50.2686 65.5734V66.891C50.2675 67.8351 49.5027 68.6 48.5585 68.6016H45.0975C44.1549 68.598 43.3915 67.8336 43.3906 66.891V65.5734C42.6751 65.3546 41.9821 65.0679 41.3216 64.7161L40.3913 65.6463C39.7231 66.3131 38.6408 66.3131 37.9724 65.6463L36.0066 63.6805C33.182 64.2857 30.2998 64.5841 27.4109 64.5712C16.0305 64.5712 7.11523 60.3021 7.11523 54.8526V22.3223C7.11523 16.8728 16.0295 12.6016 27.4096 12.6016C38.7897 12.6016 47.7052 16.8727 47.7052 22.3223V40.0866H48.5589H48.5584C49.5031 40.0881 50.2679 40.854 50.2684 41.7982V43.1137C50.9845 43.332 51.6775 43.6191 52.3385 43.9705L53.2688 43.0402L53.2682 43.0407C53.937 42.374 55.0188 42.374 55.6876 43.0407L58.1327 45.4864H58.1322C58.7994 46.1546 58.7994 47.2369 58.1322 47.9053L57.2029 48.8355C57.5548 49.4956 57.8419 50.1891 58.0602 50.9046H59.3752C60.3199 50.9056 61.0847 51.671 61.0863 52.6151L61.0866 52.6139ZM8.88386 22.3217C8.88386 24.2869 10.7685 26.2718 14.0534 27.7712C17.6074 29.3912 22.3527 30.2799 27.415 30.2799C32.4773 30.2799 37.2225 29.3887 40.7767 27.7712C44.0616 26.2753 45.9453 24.291 45.9453 22.3217C45.9453 20.3527 44.0617 18.3716 40.7767 16.8763C37.2222 15.2562 32.4769 14.3675 27.415 14.3675C22.3532 14.3675 17.6086 15.2587 14.0534 16.8763C10.7648 18.3716 8.88386 20.3559 8.88386 22.3217ZM8.88386 33.1688C8.88386 35.1341 10.7685 37.1189 14.0534 38.6183C17.6074 40.2384 22.3527 41.127 27.415 41.127C32.4774 41.127 37.2195 40.2327 40.7741 38.6126C44.059 37.1168 45.9427 35.1325 45.9427 33.1632V26.354C42.8005 29.7371 35.7715 32.0398 27.4118 32.0398C19.0523 32.0398 12.0237 29.7369 8.88478 26.354L8.88386 33.1688ZM8.88386 44.0108C8.88386 45.9761 10.7685 47.9609 14.0534 49.4562C17.6079 51.0763 22.3527 51.965 27.415 51.965C29.255 51.967 31.0935 51.8443 32.9175 51.5972C33.2391 51.1621 33.7476 50.9053 34.2885 50.9048H35.601C35.8193 50.1892 36.1064 49.4963 36.4578 48.8357L35.5275 47.9055H35.528C34.8618 47.2367 34.8618 46.155 35.528 45.4866L37.9721 43.0395C38.6409 42.3727 39.7222 42.3727 40.391 43.0395L41.3213 43.9697V43.9692C41.9818 43.6179 42.6748 43.3307 43.3903 43.1124V41.7969C43.3913 40.8517 44.1572 40.0858 45.1024 40.0853H45.9428V37.201C42.8006 40.5836 35.7715 42.8837 27.4118 42.8837C19.0524 42.8837 12.0238 40.5836 8.88486 37.201L8.88386 44.0108ZM27.4108 62.8061C29.9684 62.8122 32.5203 62.5698 35.0311 62.0823C35.0034 61.5979 35.1837 61.1248 35.5268 60.7817L36.4571 59.8514H36.4565C36.1052 59.1903 35.818 58.4974 35.5997 57.7814H34.2842C33.3401 57.7803 32.5747 57.015 32.5737 56.0708V53.4198C30.8606 53.6278 29.1367 53.7316 27.4107 53.7306C19.0518 53.7306 12.02 51.4272 8.87981 48.0448V54.854C8.87981 56.8192 10.7645 58.8041 14.0493 60.3034C17.6039 61.9159 22.3481 62.806 27.411 62.806L27.4108 62.8061ZM59.3258 52.6668H57.3877C56.9809 52.6658 56.627 52.3873 56.5304 51.9918C56.288 50.9866 55.8894 50.025 55.3495 49.143C55.1374 48.7953 55.1908 48.3473 55.4784 48.0592L56.8468 46.6908L54.4772 44.3212L53.1088 45.6896L53.1083 45.689C52.8201 45.9762 52.3727 46.0296 52.0255 45.818C51.144 45.2791 50.1834 44.8815 49.1792 44.6396C48.7831 44.5436 48.5042 44.1896 48.5037 43.7828V41.8524H45.154V43.7869C45.153 44.1937 44.8746 44.5476 44.479 44.6442C43.4748 44.8861 42.5147 45.2837 41.6333 45.8226C41.285 46.0342 40.8376 45.9813 40.5489 45.6936L39.1805 44.3252L36.8109 46.6949L38.1793 48.0632C38.4669 48.3519 38.5204 48.7993 38.3082 49.1471C37.7694 50.0285 37.3718 50.9891 37.1299 51.9934C37.0338 52.3889 36.6799 52.6673 36.2726 52.6679H34.3375V56.019H36.272V56.0195C36.6789 56.02 37.0328 56.2984 37.1293 56.694C37.3708 57.6982 37.7683 58.6587 38.3072 59.5403C38.5193 59.888 38.4664 60.3359 38.1788 60.6241L36.8104 61.9925L39.18 64.3621L40.5473 62.9921C40.836 62.7045 41.2839 62.6516 41.6317 62.8637C42.5131 63.4026 43.4732 63.8002 44.478 64.0416C44.8751 64.1376 45.1545 64.4936 45.154 64.902V66.8365H48.5051V64.902C48.5056 64.4946 48.7846 64.1402 49.1806 64.0441C50.1848 63.8022 51.1449 63.4046 52.0264 62.8658C52.3741 62.6542 52.8215 62.7071 53.1097 62.9947L54.4781 64.3631L56.8477 61.9935L55.4793 60.6251L55.4798 60.6246C55.1922 60.3364 55.1393 59.889 55.3509 59.5418C55.8898 58.6603 56.2868 57.6997 56.5288 56.6955C56.6248 56.2994 56.9792 56.0205 57.3871 56.02H59.3257L59.3258 52.6668ZM53.9645 54.3429L53.9651 54.3424C53.9651 56.2343 53.2136 58.048 51.8759 59.3856C50.5383 60.7233 48.724 61.4748 46.8327 61.4748C44.9408 61.4748 43.127 60.7233 41.7894 59.3856C40.4518 58.048 39.7008 56.2337 39.7008 54.342C39.7008 52.4506 40.4523 50.6363 41.7899 49.2992C43.1275 47.9616 44.9418 47.2106 46.8336 47.2106C48.7234 47.2147 50.5346 47.9678 51.8707 49.3044C53.2062 50.6409 53.9582 52.4526 53.9609 54.3424L53.9645 54.3429ZM43.609 58.6331C44.7642 57.7398 45.941 56.4402 45.941 54.8524V49.0495C44.5525 49.2817 43.3105 50.0512 42.484 51.191C41.6575 52.3308 41.3118 53.7501 41.5224 55.1421C41.733 56.5347 42.4825 57.788 43.609 58.6331ZM52.1975 54.3424C52.1959 53.071 51.7434 51.8418 50.921 50.8719C50.0986 49.9026 48.9593 49.256 47.7054 49.0469V54.8519C47.6232 56.6708 46.7567 58.3649 45.3292 59.495C46.9514 59.9686 48.7015 59.6507 50.053 58.6362C51.4044 57.6222 52.199 56.0304 52.1976 54.3404L52.1975 54.3424ZM73.3912 28.1411V31.0227C73.3902 31.8903 72.687 32.5935 71.8189 32.5946H70.8301C70.6606 33.1288 70.4459 33.6476 70.188 34.1448L70.8866 34.8434V34.8439C71.4994 35.4583 71.4994 36.4527 70.8866 37.0676L68.8494 39.1053C68.2351 39.7186 67.2396 39.7186 66.6252 39.1053L65.9266 38.4072C65.4289 38.6646 64.9101 38.8793 64.3764 39.0493V40.0366C64.3754 40.9052 63.6716 41.6089 62.8035 41.6094H59.9218C59.0537 41.6084 58.3505 40.9047 58.3495 40.0366V39.0493C57.8158 38.8793 57.297 38.6646 56.7998 38.4072L56.1012 39.1053H56.1007C55.4863 39.7186 54.4914 39.7186 53.877 39.1053L51.8393 37.0655C51.2255 36.4511 51.2255 35.4556 51.8393 34.8413L52.5374 34.1432C52.28 33.6455 52.0653 33.1266 51.8953 32.5924H50.9075C50.0399 32.5914 49.3362 31.8882 49.3357 31.0201V28.1409C49.3357 27.2728 50.0394 26.5686 50.9075 26.568H51.8953C52.0648 26.0338 52.28 25.5155 52.5379 25.0178L51.8393 24.3192C51.2255 23.7043 51.2255 22.7094 51.8393 22.095L53.877 20.0547C54.4914 19.4419 55.4858 19.4419 56.1007 20.0547L56.7993 20.7533H56.7998C57.297 20.4954 57.8153 20.2807 58.3495 20.1112V19.126C58.349 18.2568 59.0527 17.552 59.9218 17.5506H62.8035C63.6716 17.5516 64.3748 18.2548 64.3764 19.1229V20.1112C64.9106 20.2807 65.4289 20.4955 65.9266 20.7533L66.6252 20.0547C67.2401 19.4419 68.2345 19.4419 68.8494 20.0547L70.8877 22.0951C71.5005 22.7099 71.5005 23.7044 70.8877 24.3193L70.1891 25.0178H70.1885C70.4464 25.5156 70.6611 26.0339 70.8306 26.5681H71.8189C72.687 26.5691 73.3902 27.273 73.3912 28.1411ZM71.6278 28.3327H70.1623C69.7549 28.3316 69.401 28.0527 69.305 27.6572C69.1067 26.8348 68.781 26.0489 68.3398 25.3271C68.1276 24.9794 68.1811 24.5325 68.4682 24.2438L69.5043 23.2067L67.7368 21.4392L66.6997 22.4753L66.7002 22.4758C66.412 22.7635 65.9646 22.8164 65.6169 22.6047C64.8957 22.1635 64.1092 21.8378 63.2873 21.6396C62.8918 21.543 62.6134 21.1891 62.6124 20.7823V19.3183H60.1134V20.7838C60.1123 21.1907 59.8339 21.5446 59.4389 21.6411C58.6165 21.8394 57.8302 22.1651 57.1089 22.6063C56.7611 22.8185 56.3132 22.765 56.0245 22.4774L54.9885 21.4408L53.221 23.2083L54.2581 24.2454V24.2449C54.5457 24.533 54.5986 24.9805 54.387 25.3282C53.9458 26.0494 53.6196 26.8359 53.4218 27.6577C53.3258 28.0538 52.9718 28.3327 52.5645 28.3332H51.0989V30.8317H52.5645C52.9713 30.8327 53.3253 31.1111 53.4218 31.5061C53.6201 32.3285 53.9458 33.1149 54.387 33.8362C54.5991 34.1844 54.5457 34.6319 54.2581 34.9205L53.2215 35.9556L54.989 37.7231L56.025 36.686H56.0245C56.3132 36.3983 56.7611 36.3454 57.1089 36.5576C57.8301 36.9988 58.6165 37.3245 59.4389 37.5227C59.8345 37.6193 60.1129 37.9732 60.1134 38.3806V39.8451H62.6129L62.6124 38.3806C62.6129 37.9732 62.8913 37.6193 63.2874 37.5227C64.1092 37.3245 64.8956 36.9988 65.6169 36.5576C65.9646 36.3459 66.412 36.3988 66.7002 36.686L67.7373 37.7231L69.5048 35.9556L68.4687 34.9195H68.4682C68.1806 34.6313 68.1277 34.1834 68.3398 33.8357C68.7805 33.114 69.1062 32.328 69.3045 31.5056C69.4005 31.1101 69.7544 30.8317 70.1613 30.8312H71.6237L71.6278 28.3327ZM67.1358 29.5845C67.1358 31.1158 66.5271 32.5838 65.4449 33.6666C64.362 34.7494 62.8935 35.3576 61.3622 35.3576C59.8309 35.3576 58.3624 34.7494 57.28 33.6666C56.1972 32.5838 55.5891 31.1158 55.5891 29.5845C55.5891 28.0532 56.1973 26.5847 57.28 25.5018C58.3624 24.4195 59.8309 23.8108 61.3622 23.8108C62.8925 23.8124 64.36 24.4211 65.4422 25.5029C66.5245 26.5841 67.1337 28.0512 67.1363 29.5814L67.1358 29.5845ZM65.3683 29.5845C65.3683 28.5207 64.9456 27.501 64.1936 26.7491C63.4415 25.9972 62.4219 25.5748 61.3582 25.5748C60.2949 25.5748 59.2752 25.9976 58.5232 26.7496C57.7711 27.5016 57.3489 28.5213 57.3489 29.585C57.3489 30.6483 57.7717 31.6685 58.5237 32.42C59.2757 33.172 60.2959 33.5942 61.3591 33.5942C62.4234 33.5937 63.444 33.171 64.1966 32.4184C64.9491 31.6659 65.3718 30.6458 65.3718 29.5815L65.3683 29.5845Z"></path></mask><path d="M25.7795 36.4964C25.8144 36.011 26.2351 35.6453 26.7205 35.6781C27.1808 35.71 27.6426 35.71 28.1029 35.6781C28.3453 35.6453 28.5903 35.7141 28.7799 35.8682C28.9694 36.0228 29.087 36.2488 29.104 36.4928C29.1209 36.7368 29.0357 36.9767 28.8692 37.1555C28.7028 37.3347 28.4696 37.4369 28.2251 37.4375C27.9554 37.4565 27.6816 37.4662 27.415 37.4662C27.1484 37.4662 26.8711 37.4565 26.6014 37.4375C26.1144 37.4046 25.7466 36.9834 25.7795 36.4964ZM26.5978 48.279C26.8675 48.298 27.1407 48.3078 27.4114 48.3078C27.6826 48.3078 27.9564 48.298 28.2215 48.279C28.466 48.278 28.6992 48.1758 28.8656 47.997C29.0321 47.8178 29.1173 47.5779 29.1004 47.3339C29.0834 47.0899 28.9658 46.8639 28.7763 46.7098C28.5867 46.5557 28.3417 46.4868 28.0993 46.5197C27.639 46.5511 27.1772 46.5511 26.7169 46.5197C26.475 46.4868 26.23 46.5557 26.0399 46.7098C25.8504 46.8639 25.7333 47.0899 25.7163 47.3334C25.6994 47.5774 25.7836 47.8173 25.95 47.9965C26.1164 48.1758 26.3497 48.278 26.5942 48.279H26.5978ZM28.1038 57.3622C27.6436 57.3941 27.1823 57.3941 26.722 57.3622C26.2567 57.3602 25.8694 57.7198 25.837 58.1846C25.8046 58.649 26.138 59.0589 26.5993 59.1216C26.869 59.1406 27.1427 59.1503 27.4129 59.1503C27.6831 59.1503 27.9579 59.1406 28.223 59.1216C28.4675 59.1205 28.7002 59.0183 28.8666 58.8391C29.033 58.6603 29.1178 58.4199 29.1008 58.1764C29.0839 57.9324 28.9663 57.7064 28.7767 57.5523C28.5872 57.3982 28.3422 57.3294 28.0997 57.3622H28.1038ZM61.0866 52.6139V56.0714C61.085 57.0156 60.3202 57.7809 59.3755 57.782H58.061C57.8422 58.4975 57.5545 59.1905 57.2032 59.8515L58.1334 60.7823C58.8002 61.4501 58.8002 62.5324 58.1334 63.2007L55.6883 65.6463C55.0201 66.3131 53.9378 66.3131 53.2694 65.6463L52.3392 64.7161C51.6781 65.0679 50.9846 65.3551 50.2686 65.5734V66.891C50.2675 67.8351 49.5027 68.6 48.5585 68.6016H45.0975C44.1549 68.598 43.3915 67.8336 43.3906 66.891V65.5734C42.6751 65.3546 41.9821 65.0679 41.3216 64.7161L40.3913 65.6463C39.7231 66.3131 38.6408 66.3131 37.9724 65.6463L36.0066 63.6805C33.182 64.2857 30.2998 64.5841 27.4109 64.5712C16.0305 64.5712 7.11523 60.3021 7.11523 54.8526V22.3223C7.11523 16.8728 16.0295 12.6016 27.4096 12.6016C38.7897 12.6016 47.7052 16.8727 47.7052 22.3223V40.0866H48.5589H48.5584C49.5031 40.0881 50.2679 40.854 50.2684 41.7982V43.1137C50.9845 43.332 51.6775 43.6191 52.3385 43.9705L53.2688 43.0402L53.2682 43.0407C53.937 42.374 55.0188 42.374 55.6876 43.0407L58.1327 45.4864H58.1322C58.7994 46.1546 58.7994 47.2369 58.1322 47.9053L57.2029 48.8355C57.5548 49.4956 57.8419 50.1891 58.0602 50.9046H59.3752C60.3199 50.9056 61.0847 51.671 61.0863 52.6151L61.0866 52.6139ZM8.88386 22.3217C8.88386 24.2869 10.7685 26.2718 14.0534 27.7712C17.6074 29.3912 22.3527 30.2799 27.415 30.2799C32.4773 30.2799 37.2225 29.3887 40.7767 27.7712C44.0616 26.2753 45.9453 24.291 45.9453 22.3217C45.9453 20.3527 44.0617 18.3716 40.7767 16.8763C37.2222 15.2562 32.4769 14.3675 27.415 14.3675C22.3532 14.3675 17.6086 15.2587 14.0534 16.8763C10.7648 18.3716 8.88386 20.3559 8.88386 22.3217ZM8.88386 33.1688C8.88386 35.1341 10.7685 37.1189 14.0534 38.6183C17.6074 40.2384 22.3527 41.127 27.415 41.127C32.4774 41.127 37.2195 40.2327 40.7741 38.6126C44.059 37.1168 45.9427 35.1325 45.9427 33.1632V26.354C42.8005 29.7371 35.7715 32.0398 27.4118 32.0398C19.0523 32.0398 12.0237 29.7369 8.88478 26.354L8.88386 33.1688ZM8.88386 44.0108C8.88386 45.9761 10.7685 47.9609 14.0534 49.4562C17.6079 51.0763 22.3527 51.965 27.415 51.965C29.255 51.967 31.0935 51.8443 32.9175 51.5972C33.2391 51.1621 33.7476 50.9053 34.2885 50.9048H35.601C35.8193 50.1892 36.1064 49.4963 36.4578 48.8357L35.5275 47.9055H35.528C34.8618 47.2367 34.8618 46.155 35.528 45.4866L37.9721 43.0395C38.6409 42.3727 39.7222 42.3727 40.391 43.0395L41.3213 43.9697V43.9692C41.9818 43.6179 42.6748 43.3307 43.3903 43.1124V41.7969C43.3913 40.8517 44.1572 40.0858 45.1024 40.0853H45.9428V37.201C42.8006 40.5836 35.7715 42.8837 27.4118 42.8837C19.0524 42.8837 12.0238 40.5836 8.88486 37.201L8.88386 44.0108ZM27.4108 62.8061C29.9684 62.8122 32.5203 62.5698 35.0311 62.0823C35.0034 61.5979 35.1837 61.1248 35.5268 60.7817L36.4571 59.8514H36.4565C36.1052 59.1903 35.818 58.4974 35.5997 57.7814H34.2842C33.3401 57.7803 32.5747 57.015 32.5737 56.0708V53.4198C30.8606 53.6278 29.1367 53.7316 27.4107 53.7306C19.0518 53.7306 12.02 51.4272 8.87981 48.0448V54.854C8.87981 56.8192 10.7645 58.8041 14.0493 60.3034C17.6039 61.9159 22.3481 62.806 27.411 62.806L27.4108 62.8061ZM59.3258 52.6668H57.3877C56.9809 52.6658 56.627 52.3873 56.5304 51.9918C56.288 50.9866 55.8894 50.025 55.3495 49.143C55.1374 48.7953 55.1908 48.3473 55.4784 48.0592L56.8468 46.6908L54.4772 44.3212L53.1088 45.6896L53.1083 45.689C52.8201 45.9762 52.3727 46.0296 52.0255 45.818C51.144 45.2791 50.1834 44.8815 49.1792 44.6396C48.7831 44.5436 48.5042 44.1896 48.5037 43.7828V41.8524H45.154V43.7869C45.153 44.1937 44.8746 44.5476 44.479 44.6442C43.4748 44.8861 42.5147 45.2837 41.6333 45.8226C41.285 46.0342 40.8376 45.9813 40.5489 45.6936L39.1805 44.3252L36.8109 46.6949L38.1793 48.0632C38.4669 48.3519 38.5204 48.7993 38.3082 49.1471C37.7694 50.0285 37.3718 50.9891 37.1299 51.9934C37.0338 52.3889 36.6799 52.6673 36.2726 52.6679H34.3375V56.019H36.272V56.0195C36.6789 56.02 37.0328 56.2984 37.1293 56.694C37.3708 57.6982 37.7683 58.6587 38.3072 59.5403C38.5193 59.888 38.4664 60.3359 38.1788 60.6241L36.8104 61.9925L39.18 64.3621L40.5473 62.9921C40.836 62.7045 41.2839 62.6516 41.6317 62.8637C42.5131 63.4026 43.4732 63.8002 44.478 64.0416C44.8751 64.1376 45.1545 64.4936 45.154 64.902V66.8365H48.5051V64.902C48.5056 64.4946 48.7846 64.1402 49.1806 64.0441C50.1848 63.8022 51.1449 63.4046 52.0264 62.8658C52.3741 62.6542 52.8215 62.7071 53.1097 62.9947L54.4781 64.3631L56.8477 61.9935L55.4793 60.6251L55.4798 60.6246C55.1922 60.3364 55.1393 59.889 55.3509 59.5418C55.8898 58.6603 56.2868 57.6997 56.5288 56.6955C56.6248 56.2994 56.9792 56.0205 57.3871 56.02H59.3257L59.3258 52.6668ZM53.9645 54.3429L53.9651 54.3424C53.9651 56.2343 53.2136 58.048 51.8759 59.3856C50.5383 60.7233 48.724 61.4748 46.8327 61.4748C44.9408 61.4748 43.127 60.7233 41.7894 59.3856C40.4518 58.048 39.7008 56.2337 39.7008 54.342C39.7008 52.4506 40.4523 50.6363 41.7899 49.2992C43.1275 47.9616 44.9418 47.2106 46.8336 47.2106C48.7234 47.2147 50.5346 47.9678 51.8707 49.3044C53.2062 50.6409 53.9582 52.4526 53.9609 54.3424L53.9645 54.3429ZM43.609 58.6331C44.7642 57.7398 45.941 56.4402 45.941 54.8524V49.0495C44.5525 49.2817 43.3105 50.0512 42.484 51.191C41.6575 52.3308 41.3118 53.7501 41.5224 55.1421C41.733 56.5347 42.4825 57.788 43.609 58.6331ZM52.1975 54.3424C52.1959 53.071 51.7434 51.8418 50.921 50.8719C50.0986 49.9026 48.9593 49.256 47.7054 49.0469V54.8519C47.6232 56.6708 46.7567 58.3649 45.3292 59.495C46.9514 59.9686 48.7015 59.6507 50.053 58.6362C51.4044 57.6222 52.199 56.0304 52.1976 54.3404L52.1975 54.3424ZM73.3912 28.1411V31.0227C73.3902 31.8903 72.687 32.5935 71.8189 32.5946H70.8301C70.6606 33.1288 70.4459 33.6476 70.188 34.1448L70.8866 34.8434V34.8439C71.4994 35.4583 71.4994 36.4527 70.8866 37.0676L68.8494 39.1053C68.2351 39.7186 67.2396 39.7186 66.6252 39.1053L65.9266 38.4072C65.4289 38.6646 64.9101 38.8793 64.3764 39.0493V40.0366C64.3754 40.9052 63.6716 41.6089 62.8035 41.6094H59.9218C59.0537 41.6084 58.3505 40.9047 58.3495 40.0366V39.0493C57.8158 38.8793 57.297 38.6646 56.7998 38.4072L56.1012 39.1053H56.1007C55.4863 39.7186 54.4914 39.7186 53.877 39.1053L51.8393 37.0655C51.2255 36.4511 51.2255 35.4556 51.8393 34.8413L52.5374 34.1432C52.28 33.6455 52.0653 33.1266 51.8953 32.5924H50.9075C50.0399 32.5914 49.3362 31.8882 49.3357 31.0201V28.1409C49.3357 27.2728 50.0394 26.5686 50.9075 26.568H51.8953C52.0648 26.0338 52.28 25.5155 52.5379 25.0178L51.8393 24.3192C51.2255 23.7043 51.2255 22.7094 51.8393 22.095L53.877 20.0547C54.4914 19.4419 55.4858 19.4419 56.1007 20.0547L56.7993 20.7533H56.7998C57.297 20.4954 57.8153 20.2807 58.3495 20.1112V19.126C58.349 18.2568 59.0527 17.552 59.9218 17.5506H62.8035C63.6716 17.5516 64.3748 18.2548 64.3764 19.1229V20.1112C64.9106 20.2807 65.4289 20.4955 65.9266 20.7533L66.6252 20.0547C67.2401 19.4419 68.2345 19.4419 68.8494 20.0547L70.8877 22.0951C71.5005 22.7099 71.5005 23.7044 70.8877 24.3193L70.1891 25.0178H70.1885C70.4464 25.5156 70.6611 26.0339 70.8306 26.5681H71.8189C72.687 26.5691 73.3902 27.273 73.3912 28.1411ZM71.6278 28.3327H70.1623C69.7549 28.3316 69.401 28.0527 69.305 27.6572C69.1067 26.8348 68.781 26.0489 68.3398 25.3271C68.1276 24.9794 68.1811 24.5325 68.4682 24.2438L69.5043 23.2067L67.7368 21.4392L66.6997 22.4753L66.7002 22.4758C66.412 22.7635 65.9646 22.8164 65.6169 22.6047C64.8957 22.1635 64.1092 21.8378 63.2873 21.6396C62.8918 21.543 62.6134 21.1891 62.6124 20.7823V19.3183H60.1134V20.7838C60.1123 21.1907 59.8339 21.5446 59.4389 21.6411C58.6165 21.8394 57.8302 22.1651 57.1089 22.6063C56.7611 22.8185 56.3132 22.765 56.0245 22.4774L54.9885 21.4408L53.221 23.2083L54.2581 24.2454V24.2449C54.5457 24.533 54.5986 24.9805 54.387 25.3282C53.9458 26.0494 53.6196 26.8359 53.4218 27.6577C53.3258 28.0538 52.9718 28.3327 52.5645 28.3332H51.0989V30.8317H52.5645C52.9713 30.8327 53.3253 31.1111 53.4218 31.5061C53.6201 32.3285 53.9458 33.1149 54.387 33.8362C54.5991 34.1844 54.5457 34.6319 54.2581 34.9205L53.2215 35.9556L54.989 37.7231L56.025 36.686H56.0245C56.3132 36.3983 56.7611 36.3454 57.1089 36.5576C57.8301 36.9988 58.6165 37.3245 59.4389 37.5227C59.8345 37.6193 60.1129 37.9732 60.1134 38.3806V39.8451H62.6129L62.6124 38.3806C62.6129 37.9732 62.8913 37.6193 63.2874 37.5227C64.1092 37.3245 64.8956 36.9988 65.6169 36.5576C65.9646 36.3459 66.412 36.3988 66.7002 36.686L67.7373 37.7231L69.5048 35.9556L68.4687 34.9195H68.4682C68.1806 34.6313 68.1277 34.1834 68.3398 33.8357C68.7805 33.114 69.1062 32.328 69.3045 31.5056C69.4005 31.1101 69.7544 30.8317 70.1613 30.8312H71.6237L71.6278 28.3327ZM67.1358 29.5845C67.1358 31.1158 66.5271 32.5838 65.4449 33.6666C64.362 34.7494 62.8935 35.3576 61.3622 35.3576C59.8309 35.3576 58.3624 34.7494 57.28 33.6666C56.1972 32.5838 55.5891 31.1158 55.5891 29.5845C55.5891 28.0532 56.1973 26.5847 57.28 25.5018C58.3624 24.4195 59.8309 23.8108 61.3622 23.8108C62.8925 23.8124 64.36 24.4211 65.4422 25.5029C66.5245 26.5841 67.1337 28.0512 67.1363 29.5814L67.1358 29.5845ZM65.3683 29.5845C65.3683 28.5207 64.9456 27.501 64.1936 26.7491C63.4415 25.9972 62.4219 25.5748 61.3582 25.5748C60.2949 25.5748 59.2752 25.9976 58.5232 26.7496C57.7711 27.5016 57.3489 28.5213 57.3489 29.585C57.3489 30.6483 57.7717 31.6685 58.5237 32.42C59.2757 33.172 60.2959 33.5942 61.3591 33.5942C62.4234 33.5937 63.444 33.171 64.1966 32.4184C64.9491 31.6659 65.3718 30.6458 65.3718 29.5815L65.3683 29.5845Z" fill="#1742E7" stroke="#1742E7" stroke-width="0.56" mask="url(#path-1-inside-1_922_23529)"></path></svg>