<svg xmlns="http://www.w3.org/2000/svg" width="81" height="80" viewBox="0 0 81 80" fill="none"><mask id="path-1-inside-1_6438_15648" fill="white"><path fill-rule="evenodd" clip-rule="evenodd" d="M22.7386 15.9596C22.4735 16.0813 22.2112 16.3141 22.0328 16.5862C21.7686 16.9891 21.7465 17.1024 21.7153 18.2175L21.6817 19.4159L19.2447 19.4478C16.8307 19.4794 16.8029 19.4823 16.3034 19.7497C15.6215 20.1149 15.0689 20.6898 14.7518 21.3642L14.4883 21.9245V37.8152C14.4883 53.2338 14.494 53.721 14.6816 54.2124C14.924 54.8472 15.6402 55.6299 16.3014 55.9826L16.8076 56.2525L25.7068 56.2801C32.6636 56.3017 34.6056 56.335 34.6044 56.4329C34.5898 57.6024 34.2646 61.1636 34.0837 62.1351L33.9747 62.7208H32.5368C30.9293 62.7208 30.7283 62.792 30.6117 63.4017C30.5617 63.6633 30.5998 63.7766 30.8086 63.9874L31.0673 64.2488H40.253H49.4386L49.6974 63.9874C49.9061 63.7766 49.9442 63.6633 49.8942 63.4017C49.7777 62.792 49.5766 62.7208 47.97 62.7208H46.5329L46.416 62.1351C46.2926 61.5168 46.0592 59.0995 45.9538 57.3497L45.8911 56.3077L54.7948 56.2801L63.6984 56.2525L64.2046 55.9826C64.8658 55.6299 65.582 54.8472 65.8244 54.2124C66.0119 53.721 66.0177 53.2338 66.0177 37.8152V21.9245L65.7546 21.3642C65.429 20.671 64.9055 20.1227 64.2214 19.7583C63.6993 19.4803 63.6941 19.4796 61.2613 19.4478L58.8242 19.4159L58.7907 18.2175C58.7595 17.1024 58.7374 16.9891 58.4732 16.5862C58.2947 16.3141 58.0324 16.0813 57.7673 15.9596C57.3625 15.774 56.959 15.7661 47.7863 15.764L38.227 15.7617L37.9795 16.0118C37.664 16.3304 37.664 16.721 37.9795 17.0396L38.227 17.2897H47.64C54.8267 17.2897 57.0816 17.3186 57.174 17.4119C57.2588 17.4976 57.295 18.0616 57.295 19.2964V21.0586H40.253H23.211V19.2964C23.211 18.0616 23.2472 17.4976 23.332 17.4119C23.4233 17.3196 24.8949 17.2897 29.3365 17.2897H35.2201L35.4676 17.0396C35.7701 16.7341 35.7834 16.3861 35.5061 16.0301L35.2972 15.7617L29.2288 15.764C23.4855 15.7661 23.138 15.7766 22.7386 15.9596ZM21.6984 21.9245V22.8922L20.4127 22.8944C19.3839 22.8962 19.0455 22.934 18.7194 23.0837C18.2221 23.3119 17.8086 23.7893 17.6692 24.296C17.6003 24.5464 17.5648 28.6692 17.5645 36.4655L17.5639 48.2562H16.7572H15.9505V35.3262C15.9505 26.4381 15.9839 22.3065 16.0578 22.1094C16.1994 21.7305 16.6335 21.2706 17.0093 21.1011C17.231 21.0012 17.8978 20.9637 19.5051 20.9607L21.6984 20.9568V21.9245ZM63.5399 21.1352C63.7301 21.2331 64.0251 21.4894 64.1954 21.7047L64.5051 22.0961L64.5318 35.1762L64.5585 48.2562H63.7503H62.9421L62.9415 36.4655C62.9412 28.6692 62.9057 24.5464 62.8368 24.296C62.6974 23.7893 62.2839 23.3119 61.7865 23.0837C61.4605 22.934 61.1221 22.8962 60.0933 22.8944L58.8076 22.8922V21.9245V20.9568L61.0009 20.957C62.8897 20.9571 63.2422 20.9818 63.5399 21.1352ZM57.295 35.4214V48.2562H40.253H23.211V35.4214V22.5866H40.253H57.295V35.4214ZM21.6984 36.3382V48.2562H20.3874H19.0765V36.5352C19.0765 28.6504 19.1107 24.7497 19.1809 24.6171C19.2752 24.4392 19.4021 24.4201 20.4918 24.4201H21.6984V36.3382ZM61.3251 24.6171C61.3953 24.7497 61.4295 28.6504 61.4295 36.5352V48.2562H60.1185H58.8076V36.3382V24.4201H60.0142C61.1038 24.4201 61.2308 24.4392 61.3251 24.6171ZM39.0429 25.3441C34.9839 25.8594 31.5121 28.9424 30.5309 32.9031C29.9969 35.0582 30.1358 37.0894 30.9644 39.245C31.8813 41.6304 34.1109 43.8644 36.5393 44.8308C39.6242 46.0586 43.2518 45.6498 45.9571 43.7696C47.1876 42.9144 48.6227 41.2803 48.6227 40.7344C48.6227 40.3088 48.3139 40.0053 47.8809 40.0053C47.5821 40.0053 47.4697 40.0946 46.9245 40.7657C45.2225 42.8603 42.8744 43.998 40.253 43.998C36.3508 43.998 32.9839 41.3583 31.9772 37.5096C31.6788 36.3691 31.6785 34.4759 31.9765 33.3332C32.7873 30.2235 35.0995 27.8872 38.1858 27.0591C38.8033 26.8934 39.2881 26.8426 40.253 26.8426C41.2178 26.8426 41.7027 26.8934 42.3202 27.0591C45.4067 27.8873 47.7211 30.226 48.5289 33.3332C48.7625 34.2319 48.8268 36.2382 48.6468 37.0125C48.464 37.7986 48.8909 38.3047 49.5874 38.1282C49.9407 38.0386 50.1147 37.5729 50.236 36.391C50.5442 33.388 49.4238 30.3097 47.2466 28.1776C45.5956 26.5609 43.6557 25.6254 41.3649 25.3411C40.4094 25.2225 39.9963 25.223 39.0429 25.3441ZM39.3958 29.1104C38.1065 29.2563 36.8798 29.8068 36.0135 30.6284C35.4253 31.1863 35.3859 31.4374 35.8185 31.8744C36.2051 32.2647 36.3991 32.2228 37.2645 31.5611C39.16 30.1118 41.7792 30.3209 43.4139 32.0521C44.0173 32.691 44.5238 33.6355 44.6472 34.3518L44.7174 34.7593L44.4508 34.473C44.2366 34.243 44.112 34.193 43.8169 34.2184C43.3631 34.2574 43.0175 34.6608 43.112 35.0411C43.146 35.1778 43.5734 35.8121 44.0617 36.4506C44.9158 37.5674 44.9654 37.6127 45.3642 37.6423L45.7787 37.6731L46.695 36.4709C47.4557 35.4725 47.6114 35.2065 47.6127 34.9024C47.6137 34.6753 47.5442 34.4721 47.4299 34.3676C47.199 34.1565 46.6263 34.1488 46.4019 34.3539C46.2459 34.4966 46.2194 34.4551 46.0663 33.8284C45.7248 32.4302 44.9322 31.1919 43.8557 30.3745C43.0696 29.7774 42.6946 29.5852 41.8148 29.3276C40.9827 29.084 40.2284 29.0162 39.3958 29.1104ZM34.8474 33.1781C34.7308 33.2257 34.236 33.7963 33.7481 34.446C33.0371 35.3927 32.8628 35.6925 32.8703 35.9564C32.8867 36.5405 33.5677 36.8472 34.0657 36.4947C34.2695 36.3506 34.2815 36.3672 34.4394 37.0136C34.9828 39.2379 36.7052 41.0046 38.8911 41.5798C39.6569 41.7813 41.1492 41.7815 41.9209 41.5802C43.1713 41.2541 44.6789 40.316 44.901 39.7256C45.0324 39.3765 44.8608 38.9496 44.5271 38.7961C44.1469 38.6211 44.0633 38.6465 43.4603 39.1195C43.153 39.3607 42.6117 39.6929 42.2579 39.858C41.6582 40.1376 41.5315 40.1581 40.399 40.1581C39.2002 40.1581 39.1735 40.153 38.4266 39.78C37.1479 39.1418 36.0798 37.7735 35.8588 36.491L35.7886 36.0835L36.0552 36.3697C36.4073 36.7478 36.9587 36.7257 37.2561 36.3216C37.5439 35.9305 37.4509 35.7063 36.4632 34.4095C35.7648 33.4925 35.2695 33.0188 35.0784 33.085C35.0681 33.0885 34.9642 33.1305 34.8474 33.1781ZM64.5533 51.5413C64.5514 53.0315 64.5228 53.3604 64.3649 53.7059C64.1495 54.1773 63.8182 54.5124 63.4145 54.6668C63.2164 54.7426 56.2037 54.7755 40.2212 54.7753C18.6097 54.7752 17.2922 54.7651 16.966 54.597C16.7758 54.4991 16.4809 54.2429 16.3106 54.0278L16.0009 53.6367L15.9678 51.7104L15.9347 49.7842H40.2451H64.5555L64.5533 51.5413ZM38.1087 51.6432C37.8156 51.8681 37.714 52.3058 37.8798 52.6297C37.9608 52.7878 38.1004 52.9457 38.1903 52.9805C38.4076 53.0648 42.1051 53.0621 42.3231 52.9776C42.7622 52.8075 42.8056 51.9722 42.3919 51.6547C42.1501 51.4692 38.3489 51.4589 38.1087 51.6432ZM44.3876 56.4308C44.3892 57.5906 44.8004 62.0467 44.9516 62.5426C45.003 62.7107 44.7332 62.7208 40.253 62.7208C35.7728 62.7208 35.503 62.7107 35.5543 62.5426C35.7056 62.0467 36.1168 57.5906 36.1183 56.4308C36.1185 56.3309 37.0128 56.3034 40.253 56.3034C43.4932 56.3034 44.3874 56.3309 44.3876 56.4308Z"></path></mask><path fill-rule="evenodd" clip-rule="evenodd" d="M22.7386 15.9596C22.4735 16.0813 22.2112 16.3141 22.0328 16.5862C21.7686 16.9891 21.7465 17.1024 21.7153 18.2175L21.6817 19.4159L19.2447 19.4478C16.8307 19.4794 16.8029 19.4823 16.3034 19.7497C15.6215 20.1149 15.0689 20.6898 14.7518 21.3642L14.4883 21.9245V37.8152C14.4883 53.2338 14.494 53.721 14.6816 54.2124C14.924 54.8472 15.6402 55.6299 16.3014 55.9826L16.8076 56.2525L25.7068 56.2801C32.6636 56.3017 34.6056 56.335 34.6044 56.4329C34.5898 57.6024 34.2646 61.1636 34.0837 62.1351L33.9747 62.7208H32.5368C30.9293 62.7208 30.7283 62.792 30.6117 63.4017C30.5617 63.6633 30.5998 63.7766 30.8086 63.9874L31.0673 64.2488H40.253H49.4386L49.6974 63.9874C49.9061 63.7766 49.9442 63.6633 49.8942 63.4017C49.7777 62.792 49.5766 62.7208 47.97 62.7208H46.5329L46.416 62.1351C46.2926 61.5168 46.0592 59.0995 45.9538 57.3497L45.8911 56.3077L54.7948 56.2801L63.6984 56.2525L64.2046 55.9826C64.8658 55.6299 65.582 54.8472 65.8244 54.2124C66.0119 53.721 66.0177 53.2338 66.0177 37.8152V21.9245L65.7546 21.3642C65.429 20.671 64.9055 20.1227 64.2214 19.7583C63.6993 19.4803 63.6941 19.4796 61.2613 19.4478L58.8242 19.4159L58.7907 18.2175C58.7595 17.1024 58.7374 16.9891 58.4732 16.5862C58.2947 16.3141 58.0324 16.0813 57.7673 15.9596C57.3625 15.774 56.959 15.7661 47.7863 15.764L38.227 15.7617L37.9795 16.0118C37.664 16.3304 37.664 16.721 37.9795 17.0396L38.227 17.2897H47.64C54.8267 17.2897 57.0816 17.3186 57.174 17.4119C57.2588 17.4976 57.295 18.0616 57.295 19.2964V21.0586H40.253H23.211V19.2964C23.211 18.0616 23.2472 17.4976 23.332 17.4119C23.4233 17.3196 24.8949 17.2897 29.3365 17.2897H35.2201L35.4676 17.0396C35.7701 16.7341 35.7834 16.3861 35.5061 16.0301L35.2972 15.7617L29.2288 15.764C23.4855 15.7661 23.138 15.7766 22.7386 15.9596ZM21.6984 21.9245V22.8922L20.4127 22.8944C19.3839 22.8962 19.0455 22.934 18.7194 23.0837C18.2221 23.3119 17.8086 23.7893 17.6692 24.296C17.6003 24.5464 17.5648 28.6692 17.5645 36.4655L17.5639 48.2562H16.7572H15.9505V35.3262C15.9505 26.4381 15.9839 22.3065 16.0578 22.1094C16.1994 21.7305 16.6335 21.2706 17.0093 21.1011C17.231 21.0012 17.8978 20.9637 19.5051 20.9607L21.6984 20.9568V21.9245ZM63.5399 21.1352C63.7301 21.2331 64.0251 21.4894 64.1954 21.7047L64.5051 22.0961L64.5318 35.1762L64.5585 48.2562H63.7503H62.9421L62.9415 36.4655C62.9412 28.6692 62.9057 24.5464 62.8368 24.296C62.6974 23.7893 62.2839 23.3119 61.7865 23.0837C61.4605 22.934 61.1221 22.8962 60.0933 22.8944L58.8076 22.8922V21.9245V20.9568L61.0009 20.957C62.8897 20.9571 63.2422 20.9818 63.5399 21.1352ZM57.295 35.4214V48.2562H40.253H23.211V35.4214V22.5866H40.253H57.295V35.4214ZM21.6984 36.3382V48.2562H20.3874H19.0765V36.5352C19.0765 28.6504 19.1107 24.7497 19.1809 24.6171C19.2752 24.4392 19.4021 24.4201 20.4918 24.4201H21.6984V36.3382ZM61.3251 24.6171C61.3953 24.7497 61.4295 28.6504 61.4295 36.5352V48.2562H60.1185H58.8076V36.3382V24.4201H60.0142C61.1038 24.4201 61.2308 24.4392 61.3251 24.6171ZM39.0429 25.3441C34.9839 25.8594 31.5121 28.9424 30.5309 32.9031C29.9969 35.0582 30.1358 37.0894 30.9644 39.245C31.8813 41.6304 34.1109 43.8644 36.5393 44.8308C39.6242 46.0586 43.2518 45.6498 45.9571 43.7696C47.1876 42.9144 48.6227 41.2803 48.6227 40.7344C48.6227 40.3088 48.3139 40.0053 47.8809 40.0053C47.5821 40.0053 47.4697 40.0946 46.9245 40.7657C45.2225 42.8603 42.8744 43.998 40.253 43.998C36.3508 43.998 32.9839 41.3583 31.9772 37.5096C31.6788 36.3691 31.6785 34.4759 31.9765 33.3332C32.7873 30.2235 35.0995 27.8872 38.1858 27.0591C38.8033 26.8934 39.2881 26.8426 40.253 26.8426C41.2178 26.8426 41.7027 26.8934 42.3202 27.0591C45.4067 27.8873 47.7211 30.226 48.5289 33.3332C48.7625 34.2319 48.8268 36.2382 48.6468 37.0125C48.464 37.7986 48.8909 38.3047 49.5874 38.1282C49.9407 38.0386 50.1147 37.5729 50.236 36.391C50.5442 33.388 49.4238 30.3097 47.2466 28.1776C45.5956 26.5609 43.6557 25.6254 41.3649 25.3411C40.4094 25.2225 39.9963 25.223 39.0429 25.3441ZM39.3958 29.1104C38.1065 29.2563 36.8798 29.8068 36.0135 30.6284C35.4253 31.1863 35.3859 31.4374 35.8185 31.8744C36.2051 32.2647 36.3991 32.2228 37.2645 31.5611C39.16 30.1118 41.7792 30.3209 43.4139 32.0521C44.0173 32.691 44.5238 33.6355 44.6472 34.3518L44.7174 34.7593L44.4508 34.473C44.2366 34.243 44.112 34.193 43.8169 34.2184C43.3631 34.2574 43.0175 34.6608 43.112 35.0411C43.146 35.1778 43.5734 35.8121 44.0617 36.4506C44.9158 37.5674 44.9654 37.6127 45.3642 37.6423L45.7787 37.6731L46.695 36.4709C47.4557 35.4725 47.6114 35.2065 47.6127 34.9024C47.6137 34.6753 47.5442 34.4721 47.4299 34.3676C47.199 34.1565 46.6263 34.1488 46.4019 34.3539C46.2459 34.4966 46.2194 34.4551 46.0663 33.8284C45.7248 32.4302 44.9322 31.1919 43.8557 30.3745C43.0696 29.7774 42.6946 29.5852 41.8148 29.3276C40.9827 29.084 40.2284 29.0162 39.3958 29.1104ZM34.8474 33.1781C34.7308 33.2257 34.236 33.7963 33.7481 34.446C33.0371 35.3927 32.8628 35.6925 32.8703 35.9564C32.8867 36.5405 33.5677 36.8472 34.0657 36.4947C34.2695 36.3506 34.2815 36.3672 34.4394 37.0136C34.9828 39.2379 36.7052 41.0046 38.8911 41.5798C39.6569 41.7813 41.1492 41.7815 41.9209 41.5802C43.1713 41.2541 44.6789 40.316 44.901 39.7256C45.0324 39.3765 44.8608 38.9496 44.5271 38.7961C44.1469 38.6211 44.0633 38.6465 43.4603 39.1195C43.153 39.3607 42.6117 39.6929 42.2579 39.858C41.6582 40.1376 41.5315 40.1581 40.399 40.1581C39.2002 40.1581 39.1735 40.153 38.4266 39.78C37.1479 39.1418 36.0798 37.7735 35.8588 36.491L35.7886 36.0835L36.0552 36.3697C36.4073 36.7478 36.9587 36.7257 37.2561 36.3216C37.5439 35.9305 37.4509 35.7063 36.4632 34.4095C35.7648 33.4925 35.2695 33.0188 35.0784 33.085C35.0681 33.0885 34.9642 33.1305 34.8474 33.1781ZM64.5533 51.5413C64.5514 53.0315 64.5228 53.3604 64.3649 53.7059C64.1495 54.1773 63.8182 54.5124 63.4145 54.6668C63.2164 54.7426 56.2037 54.7755 40.2212 54.7753C18.6097 54.7752 17.2922 54.7651 16.966 54.597C16.7758 54.4991 16.4809 54.2429 16.3106 54.0278L16.0009 53.6367L15.9678 51.7104L15.9347 49.7842H40.2451H64.5555L64.5533 51.5413ZM38.1087 51.6432C37.8156 51.8681 37.714 52.3058 37.8798 52.6297C37.9608 52.7878 38.1004 52.9457 38.1903 52.9805C38.4076 53.0648 42.1051 53.0621 42.3231 52.9776C42.7622 52.8075 42.8056 51.9722 42.3919 51.6547C42.1501 51.4692 38.3489 51.4589 38.1087 51.6432ZM44.3876 56.4308C44.3892 57.5906 44.8004 62.0467 44.9516 62.5426C45.003 62.7107 44.7332 62.7208 40.253 62.7208C35.7728 62.7208 35.503 62.7107 35.5543 62.5426C35.7056 62.0467 36.1168 57.5906 36.1183 56.4308C36.1185 56.3309 37.0128 56.3034 40.253 56.3034C43.4932 56.3034 44.3874 56.3309 44.3876 56.4308Z" fill="#1742E7" stroke="#1742E7" stroke-width="0.536069" mask="url(#path-1-inside-1_6438_15648)"></path></svg>