<svg xmlns="http://www.w3.org/2000/svg" width="81" height="81" viewBox="0 0 81 81" fill="none"><rect width="80" height="80" transform="translate(0.5 0.490234)" fill="white"></rect><path d="M38.4479 45.9722L35.1875 57.99C35.125 58.2088 35.0938 58.4378 35.0938 58.6774C35.0938 60.1145 36.2604 61.2808 37.6979 61.2808C38.4583 61.2808 39.1354 60.958 39.6146 60.4477L58.9999 38.4531C58.3645 39.1509 57.4478 39.5883 56.4374 39.5883H46.8228C42.8228 39.5883 39.4479 42.2959 38.4479 45.9826" fill="url(#paint0_linear_7390_2329)"></path><path d="M44.7305 54.6471C50.4701 48.1278 59.0117 38.4531 59.0117 38.4531C58.3763 39.1509 57.4596 39.5883 56.4492 39.5883H46.8346C42.8346 39.5883 39.4596 42.2959 38.4596 45.9826L36.1055 54.6471H44.7305Z" fill="url(#paint1_linear_7390_2329)"></path><path d="M59.9141 36.1085C59.9141 34.1923 58.362 32.6406 56.4453 32.6406H29.7995L21.7266 41.3155C19.8099 41.3155 18.2578 42.8673 18.2578 44.7834C18.2578 46.6997 19.8099 48.2514 21.7266 48.2514H42.6745C44.5912 48.2514 46.1432 49.803 46.1432 51.7193C46.1432 52.6045 45.8099 53.4168 45.2578 54.0311L57.862 39.7326L58.987 38.4621H58.9765C59.5598 37.8373 59.9245 37.0146 59.9245 36.0981L59.9141 36.1085Z" fill="url(#paint2_linear_7390_2329)"></path><path d="M39.6745 48.2618L54.8828 32.6406H29.7995L21.7266 41.3155C19.8099 41.3155 18.2578 42.8673 18.2578 44.7834C18.2578 46.6997 19.8099 48.2514 21.7266 48.2514H39.6745V48.2618Z" fill="url(#paint3_linear_7390_2329)"></path><path d="M39.7044 34.922L42.9649 22.9041C43.0274 22.6854 43.0586 22.4563 43.0586 22.2168C43.0586 20.7797 41.8919 19.6133 40.4544 19.6133C39.694 19.6133 39.0169 19.9361 38.5378 20.4464L19.1523 42.441C19.7878 41.7433 20.7044 41.3059 21.7148 41.3059H31.3294C35.3294 41.3059 38.7044 38.5982 39.7044 34.9116" fill="url(#paint4_linear_7390_2329)"></path><defs><linearGradient id="paint0_linear_7390_2329" x1="36.5625" y1="63.0096" x2="51.9422" y2="36.3671" gradientUnits="userSpaceOnUse"><stop offset="0.28" stop-color="#0669B6"></stop><stop offset="0.49" stop-color="#114A85"></stop></linearGradient><linearGradient id="paint1_linear_7390_2329" x1="47.5534" y1="54.5013" x2="47.5534" y2="38.3178" gradientUnits="userSpaceOnUse"><stop offset="0.31" stop-opacity="0"></stop><stop offset="0.56" stop-opacity="0.4"></stop></linearGradient><linearGradient id="paint2_linear_7390_2329" x1="29.0703" y1="31.443" x2="49.2534" y2="49.6101" gradientUnits="userSpaceOnUse"><stop stop-color="#0669B6"></stop><stop offset="0.33" stop-color="#148DD9"></stop><stop offset="0.95" stop-color="#3CC5EE"></stop></linearGradient><linearGradient id="paint3_linear_7390_2329" x1="41.737" y1="48.1368" x2="32.5008" y2="32.1492" gradientUnits="userSpaceOnUse"><stop offset="0.29" stop-opacity="0"></stop><stop offset="0.42" stop-opacity="0.05"></stop><stop offset="0.64" stop-opacity="0.1"></stop><stop offset="0.87" stop-opacity="0.3"></stop></linearGradient><linearGradient id="paint4_linear_7390_2329" x1="39.2461" y1="36.2863" x2="26.8518" y2="29.1291" gradientUnits="userSpaceOnUse"><stop stop-color="#A1ECFF"></stop><stop offset="0.72" stop-color="#3CC5EE"></stop></linearGradient></defs></svg>