<svg xmlns="http://www.w3.org/2000/svg" width="81" height="81" viewBox="0 0 81 81" fill="none"><path fill-rule="evenodd" clip-rule="evenodd" d="M9.92284 8.93093C9.16614 9.29568 8.56412 9.98817 8.35712 10.7322C8.27131 11.0403 8.23849 20.3575 8.26059 38.1286L8.29406 65.058L8.68507 65.6699C8.92709 66.0485 9.31707 66.426 9.70808 66.6601C10.3069 67.0185 10.4287 67.0416 12.0306 67.1008L13.7212 67.1633L13.7864 68.9133C13.8593 70.8658 13.9567 71.156 14.7712 71.8479C15.7224 72.6558 14.0292 72.6008 37.9626 72.6008C54.8097 72.6008 59.9437 72.5658 60.3536 72.448C61.0529 72.247 62.0058 71.3253 62.2136 70.6488C62.3323 70.2619 62.3715 67.6266 62.3715 60.0256V49.9168L64.2128 51.6844C66.4484 53.8306 66.8061 54.0356 68.3155 54.0352C69.2546 54.035 69.5075 53.987 70.0599 53.7038C71.4949 52.9683 72.2495 51.772 72.2539 50.226C72.2578 48.8666 71.8993 48.2349 70.2126 46.6295C69.0149 45.4894 68.8199 45.3511 68.4082 45.3511C68.0634 45.3511 67.8788 45.4345 67.6788 45.6805C67.1899 46.2817 67.3033 46.5217 68.7596 47.9679C69.515 48.7182 70.1472 49.4577 70.1969 49.6492C70.2457 49.8372 70.2557 50.2477 70.2191 50.5615C70.0962 51.616 68.9697 52.3424 67.8394 52.0958C67.4431 52.0094 66.6827 51.3335 63.2998 48.0611L59.2363 44.1302L60.5454 42.8735C61.2655 42.1823 61.8546 41.546 61.8546 41.4597C61.8546 41.3732 62.5144 41.9321 63.3207 42.7018C64.5731 43.897 64.8471 44.1011 65.2003 44.1011C65.719 44.1011 66.248 43.6204 66.248 43.1493C66.248 42.8844 65.9074 42.4776 64.6789 41.2757L63.1098 39.7403L63.5926 38.6532C65.4072 34.5672 65.1756 30.0687 62.957 26.3025L62.3804 25.3239L62.3436 20.6607L62.3069 15.9976L61.9156 15.4594C61.7004 15.1632 61.274 14.7506 60.9682 14.5425C60.426 14.1735 60.3689 14.163 58.6782 14.1231L56.9443 14.0821V12.6741C56.9443 10.4779 56.5161 9.5408 55.2286 8.92018L54.5677 8.60156H40.5226C26.9926 8.60156 26.4668 8.61019 26.1791 8.83543C25.963 9.00468 25.8805 9.19906 25.8805 9.53905C25.8805 9.87905 25.963 10.0734 26.1791 10.2427C26.4667 10.4679 26.986 10.4765 40.2314 10.4765C54.8554 10.4765 54.5667 10.4653 54.7966 11.0447C54.8407 11.1559 54.8769 11.8893 54.8769 12.6743V14.1015H35.4902C14.087 14.1015 15.6286 14.0431 14.7069 14.8891C14.4672 15.109 14.1632 15.514 14.0313 15.789C13.8003 16.2706 13.7913 17.1885 13.7886 40.7682L13.7858 65.2474L12.2882 65.2054C10.8964 65.1664 10.773 65.1425 10.5437 64.8682C10.3025 64.5799 10.2969 63.9659 10.2969 37.9101C10.2969 23.2454 10.3331 11.1559 10.3772 11.0447C10.5926 10.5018 10.8851 10.4765 16.9511 10.4765H22.7135L23.0306 10.1697C23.2051 10.0009 23.3479 9.71717 23.3479 9.53905C23.3479 9.36093 23.2051 9.07718 23.0306 8.90843L22.7135 8.60156H16.6598H10.6061L9.92284 8.93093ZM60.006 16.278L60.3686 16.5795L60.4071 19.8499L60.4456 23.1204L59.6813 22.5051C58.057 21.1977 56.1734 20.2583 54.0401 19.6922C53.142 19.4538 52.6748 19.4168 50.5481 19.4154C48.2779 19.4141 48.0006 19.4391 46.8654 19.7475C44.4138 20.4139 42.3544 21.5714 40.6048 23.2663C35.8737 27.8497 34.9456 34.794 38.3448 40.1777C42.1831 46.257 49.8552 48.4939 56.6904 45.5266L57.4785 45.1845L58.9579 46.6115L60.4374 48.0384L60.403 59.0662L60.3686 70.0939L60.0742 70.3785L59.78 70.6633L38.1308 70.6957L16.4818 70.7279L16.1029 70.3615L15.724 69.995V43.3511V16.7072L16.1017 16.3418L16.4795 15.9765H38.0614H59.6434L60.006 16.278ZM53.5082 21.596C55.6841 22.1396 57.3609 23.0388 58.9954 24.5384C60.9458 26.3277 62.2168 28.6362 62.6362 31.1518C62.8811 32.6205 62.735 35.0385 62.3198 36.3883C61.0376 40.5559 57.5135 43.684 52.9834 44.6756C51.5162 44.9969 49.2133 44.9714 47.7053 44.6174C45.3704 44.0691 42.6428 42.4388 41.2251 40.7438C39.4134 38.5779 38.5326 36.3848 38.381 33.6638C38.2878 31.9898 38.4571 30.8339 39.036 29.1936C39.6331 27.501 40.5073 26.1363 41.8259 24.8379C43.7654 22.9281 46.0825 21.7621 48.7441 21.3567C49.9099 21.179 52.3252 21.3004 53.5082 21.596ZM19.9178 22.0333C19.4084 22.5259 19.5062 23.2331 20.1267 23.5435C20.6709 23.8157 32.4857 23.8157 33.0299 23.5435C33.6504 23.2331 33.7482 22.5259 33.2388 22.0333L32.9217 21.7264H26.5783H20.2349L19.9178 22.0333ZM48.0835 23.472C44.3152 24.428 41.602 27.1011 40.5787 30.8664C40.2649 32.0211 40.2986 34.243 40.6495 35.5235C41.4308 38.3749 43.3252 40.6289 46.0255 41.9199C47.7588 42.7486 48.5411 42.9144 50.6773 42.9061C52.3706 42.8995 52.5649 42.8731 53.7139 42.4928C59.3045 40.642 62.1483 34.9791 60.1586 29.6597C59.3245 27.4301 57.4299 25.3665 55.2436 24.3066C53.5763 23.4984 52.3653 23.2246 50.4951 23.2333C49.4713 23.238 48.7083 23.3135 48.0835 23.472ZM53.221 25.5667C55.6496 26.3766 57.6134 28.2888 58.389 30.5994C58.7666 31.7239 58.8493 33.7388 58.5662 34.9137C57.8897 37.721 55.524 40.0592 52.6156 40.7953C51.5751 41.0585 49.6071 41.0568 48.5452 40.7915C43.1207 39.4368 40.648 33.3786 43.6456 28.7872C44.8446 26.9508 47.1237 25.5185 49.3851 25.1804C50.3879 25.0304 52.1422 25.2071 53.221 25.5667ZM19.8815 27.3906C19.5088 27.7744 19.5234 28.2879 19.9178 28.6694L20.2349 28.9763H26.6145H32.9941L33.2751 28.6871C33.6483 28.3027 33.6403 27.7215 33.257 27.3731C32.9583 27.1016 32.951 27.1013 26.5602 27.1013H20.1625L19.8815 27.3906ZM51.8236 31.3723C50.5535 32.5525 49.3006 33.713 49.0394 33.951L48.5645 34.3837L47.9103 33.1228C47.2617 31.8724 47.0069 31.6013 46.4803 31.6013C46.1042 31.6013 45.5732 32.1475 45.5732 32.5346C45.5732 32.9111 47.4461 36.5871 47.7531 36.8132C48.288 37.207 48.6473 37.0295 50.1435 35.6325C50.9351 34.8935 52.4424 33.4854 53.4931 32.5035C54.5437 31.5215 55.4533 30.591 55.5144 30.4355C55.6498 30.0908 55.3901 29.4247 55.0744 29.3076C54.3818 29.0504 54.1933 29.1702 51.8236 31.3723ZM19.9178 32.6581C19.3456 33.2115 19.6109 34.1004 20.4049 34.2901C20.5666 34.3289 23.4807 34.3444 26.8805 34.3246L33.0622 34.2887L33.3091 33.9936C33.6529 33.5828 33.6239 33.0305 33.2388 32.6581L32.9217 32.3513H26.5783H20.2349L19.9178 32.6581ZM19.8815 38.3904C19.5088 38.7743 19.5234 39.2878 19.9178 39.6693L20.2349 39.9762H26.5783H32.9217L33.2388 39.6693C33.6289 39.2921 33.6515 38.7474 33.2926 38.3748L33.0291 38.1012H26.5957H20.1625L19.8815 38.3904ZM29.1031 45.1066C27.8756 45.2932 26.9847 45.5751 25.7384 46.1712C23.5336 47.2258 21.8399 48.8812 20.7586 51.0385C19.9536 52.6449 19.7371 53.4574 19.6423 55.2289C19.4707 58.4367 20.6359 61.2555 23.0595 63.4954C25.3631 65.6245 28.1168 66.6048 31.3297 66.4398C32.9581 66.3562 34.2031 66.0417 35.6053 65.3597L36.604 64.874L37.2379 66.2623C37.5866 67.026 37.9765 67.7521 38.1045 67.8758C38.3217 68.086 38.7202 68.1006 44.1195 68.0968C50.2138 68.0927 50.1408 68.0993 50.4624 67.5153C50.6829 67.115 50.6491 66.9057 50.301 66.5141L49.9892 66.1633L44.6513 66.1008L39.3133 66.0383L38.7746 64.8509L38.2359 63.6634L38.8418 63.0384C41.7328 60.0565 42.6067 55.4379 40.9883 51.6948C40.8993 51.4888 41.1726 51.476 45.6972 51.476C48.5832 51.476 50.5949 51.4272 50.7369 51.3537C51.2952 51.0645 51.2563 49.8958 50.6811 49.6823C50.5608 49.6376 48.0644 49.6011 45.1336 49.6011H39.8048L39.1454 48.8051C37.882 47.2798 35.608 45.8959 33.4757 45.3545C32.2978 45.0554 30.216 44.9374 29.1031 45.1066ZM32.6907 47.1748C33.8826 47.4296 35.4766 48.1758 36.4601 48.9393L37.2319 49.5386L36.2381 49.6011C35.0767 49.6741 34.7965 49.8591 34.7965 50.5529C34.7965 51.3478 35.1091 51.476 37.0471 51.476H38.7006L39.0864 52.3823C39.3924 53.101 39.7585 54.3445 39.7585 54.6652C39.7585 54.6937 37.631 54.7331 35.0307 54.7527L30.303 54.7885L29.9912 55.1392L29.6795 55.49V59.9829C29.6795 65.0982 29.8157 64.6226 28.4468 64.2871C28.0232 64.1834 27.1824 63.8656 26.5783 63.5811C25.6788 63.1575 25.2682 62.8579 24.3103 61.9262C22.4603 60.1265 21.6342 58.2547 21.6291 55.851C21.625 53.8781 22.0662 52.4425 23.1736 50.8257C24.3604 49.0926 26.6057 47.5926 28.6458 47.17C29.7905 46.9328 31.5681 46.935 32.6907 47.1748ZM49.8835 54.85C49.5225 54.9909 49.1913 55.4559 49.1913 55.822C49.1913 55.9817 49.3341 56.2503 49.5085 56.4191L49.8256 56.726H53.2384C56.4952 56.726 56.6667 56.7141 56.9915 56.4668C57.5912 56.0106 57.4111 55.1142 56.6694 54.8641C56.18 54.6991 50.3013 54.6869 49.8835 54.85ZM39.6854 57.1947C39.4379 58.5641 38.5974 60.3405 37.7251 61.3382L37.3537 61.7629L36.9955 60.9632C36.5238 59.9093 36.3379 59.7259 35.7421 59.7259C35.3693 59.7259 35.1915 59.8034 34.9869 60.0553C34.8395 60.2364 34.7199 60.4755 34.7209 60.5865C34.7221 60.6975 34.9558 61.2945 35.2405 61.9132C35.7275 62.9716 35.7446 63.048 35.5293 63.2091C34.9159 63.668 32.6359 64.4759 31.9545 64.4759C31.7684 64.4759 31.747 64.0752 31.747 60.6009V56.726H35.7585H39.7702L39.6854 57.1947ZM49.7728 59.4987C49.0056 59.9338 48.9771 60.7977 49.7175 61.168C50.0102 61.3144 50.7375 61.3509 53.367 61.3509C56.4938 61.3509 56.6674 61.3385 56.9915 61.0918C57.4324 60.7563 57.4681 60.0089 57.0603 59.6516C56.8096 59.4319 56.5256 59.4111 53.4099 59.3828C51.0072 59.3609 49.9565 59.3944 49.7728 59.4987Z" fill="#1742E7"></path></svg>