<svg xmlns="http://www.w3.org/2000/svg" width="81" height="81" viewBox="0 0 81 81" fill="none"><path d="M40.2512 38.6494V50.6544M40.2512 50.6544C37.9834 50.6544 36.146 52.4927 36.146 54.7604C36.146 57.0282 37.9844 58.8665 40.2521 58.8665C42.5199 58.8665 44.3582 57.0282 44.3582 54.7604C44.3582 52.4927 42.5189 50.6544 40.2512 50.6544ZM18.8887 50.6544V46.1478C18.8887 44.8699 19.9245 43.834 21.2024 43.834H59.3009C60.5788 43.834 61.6147 44.8699 61.6147 46.1478V50.6544M18.8887 50.6544C16.6209 50.6544 14.7827 52.4927 14.7827 54.7604C14.7827 57.0282 16.6211 58.8665 18.8888 58.8665C21.1566 58.8665 22.995 57.0282 22.995 54.7604C22.995 52.4927 21.1564 50.6544 18.8887 50.6544ZM61.6147 50.6544C59.3469 50.6544 57.5088 52.4927 57.5088 54.7604C57.5088 57.0282 59.3472 58.8665 61.6149 58.8665C63.8827 58.8665 65.721 57.0282 65.721 54.7604C65.721 52.4927 63.8824 50.6544 61.6147 50.6544ZM56.1206 66.1121V69.7826C56.1206 70.8216 56.9629 71.664 58.002 71.664H65.2281C66.2671 71.664 67.1095 70.8217 67.1095 69.7826V64.3606C67.1095 61.2949 64.5986 58.8156 61.5211 58.867C59.495 58.9009 57.7515 60.0521 56.8269 61.719M24.3833 68.2979V69.7827C24.3833 70.8217 23.541 71.6641 22.5019 71.6641H15.2759C14.2369 71.6641 13.3945 70.8218 13.3945 69.7827V64.3607C13.3945 61.2949 15.9054 58.8157 18.9829 58.8671C21.7362 58.9131 23.9677 61.0224 24.3314 63.6853M49.0267 35.7418C46.5859 37.5861 43.5464 38.6797 40.2514 38.6797C32.2044 38.6797 25.681 32.1563 25.681 24.1093C25.681 16.0623 32.2045 9.53906 40.2514 9.53906C48.2983 9.53906 54.8218 16.0624 54.8218 24.1094C54.8218 27.2393 53.8349 30.1387 52.1554 32.5133M40.252 23.4085V33.1997M40.252 23.4085L32.2722 19.3403M40.252 23.4085L48.2316 19.3405M40.252 33.1997C40.07 33.1996 39.8907 33.1563 39.7287 33.0733L32.7517 29.5165C32.347 29.3103 32.0903 28.8832 32.0903 28.4161V19.9935C32.0903 19.7578 32.1556 19.5327 32.2722 19.3403M40.252 33.1997C40.4339 33.1996 40.6134 33.1564 40.7753 33.0735L47.752 29.5166C48.1571 29.3105 48.4133 28.8833 48.4133 28.4162V19.9935C48.4136 19.7633 48.3507 19.5374 48.2316 19.3405M32.2722 19.3403C32.383 19.1569 32.5407 19.0069 32.7292 18.905L39.7058 15.157C39.7077 15.1563 39.7093 15.155 39.7112 15.1543C39.8784 15.065 40.0651 15.0186 40.2546 15.019C40.4442 15.0195 40.6306 15.0669 40.7973 15.157L47.774 18.905C47.9627 19.0067 48.1209 19.1569 48.2316 19.3405M40.1577 58.867C37.1451 58.9174 34.7573 61.438 34.7573 64.451V69.7825C34.7573 70.8215 35.5996 71.6639 36.6387 71.6639H43.8648C44.9038 71.6639 45.7462 70.8216 45.7462 69.7825V64.3605C45.7461 61.2948 43.2352 58.8155 40.1577 58.867Z" stroke="#1742E7" stroke-width="2" stroke-miterlimit="10" stroke-linecap="round" stroke-linejoin="round"></path></svg>