<svg xmlns="http://www.w3.org/2000/svg" width="81" height="81" viewBox="0 0 81 81" fill="none"><path d="M32.1043 17.7476C27.8496 19.5194 27.598 19.6616 27.3574 20.5476C27.084 21.521 27.3137 22.746 27.9262 23.5554C29.184 25.196 31.3059 25.371 35.1887 24.1351C36.523 23.7085 36.7527 23.5335 36.7527 22.8991C36.7527 22.4507 36.3371 22.0023 35.9215 22.0023C35.7574 22.0023 35.1012 22.1663 34.4668 22.3741C32.159 23.1179 30.6496 23.271 29.884 22.8116C29.4684 22.571 29.0965 21.9148 29.0965 21.4335V21.0507L32.9793 19.4429L36.8512 17.846H41.0402C45.7434 17.846 47.1871 17.9444 48.4668 18.3491C48.948 18.5023 51.0043 19.4319 53.0277 20.4163C56.7246 22.1991 58.1137 22.746 59.6121 22.9866C60.0059 23.0413 61.6137 23.096 63.1996 23.096C65.923 23.096 66.0762 23.0851 66.284 22.8773C66.5684 22.5929 66.5793 21.8601 66.3059 21.5866C66.1199 21.4007 65.8246 21.3679 63.2652 21.3132C59.0324 21.2148 58.9121 21.1819 53.8152 18.6882C52.098 17.8569 50.2824 17.0038 49.7684 16.8069C48.0402 16.1288 47.6246 16.096 41.5215 16.1069L36.0418 16.1179L32.1043 17.7476Z" fill="#1742E7"></path><path d="M39.0277 20.3616C38.7105 20.5585 38.3715 21.6523 38.3168 22.7241C38.2184 24.3429 38.6559 25.4366 39.848 26.5632C40.7777 27.4491 41.6527 27.8866 45.8637 29.6038L47.1652 30.1398L47.5918 30.8179C48.3793 32.0538 49.8012 33.1913 51.2996 33.7929C53.3559 34.6132 56.0574 34.6023 58.398 33.771C58.7918 33.6288 59.4918 33.596 62.4668 33.596C65.923 33.596 66.0762 33.5851 66.284 33.3773C66.5793 33.0819 66.5793 32.3601 66.284 32.0648C66.0652 31.846 65.9559 31.846 61.9855 31.8788C57.9824 31.9226 57.9059 31.9226 56.9324 32.2069C55.073 32.7429 52.8527 32.5569 51.2668 31.7148C50.4027 31.2554 49.3746 30.2273 48.9262 29.3741C48.7293 29.0132 48.4559 28.6632 48.3137 28.5976C48.1824 28.5319 46.9137 28.0069 45.5027 27.4163C42.3309 26.1038 41.773 25.8194 41.0621 25.1085C40.4277 24.4741 40.1434 23.8069 40.1434 22.9648C40.1434 22.4616 40.1652 22.4288 40.373 22.4944C40.4934 22.5382 42.5496 23.3804 44.934 24.3757C47.3293 25.3601 49.4402 26.1804 49.6262 26.1913C50.4027 26.2132 50.8184 25.2835 50.2934 24.7038C49.9652 24.3429 40.0887 20.2523 39.5746 20.2523C39.3777 20.2523 39.1262 20.3069 39.0277 20.3616Z" fill="#1742E7"></path><path d="M28.3199 26.8038C28.0902 27.0444 28.0027 27.2304 28.0027 27.5257C28.0027 28.5866 29.4465 28.8054 29.8621 27.7991C30.2777 26.7929 29.0965 26.0273 28.3199 26.8038Z" fill="#1742E7"></path><path d="M25.5855 29.4507C25.1809 29.8554 24.1746 31.496 23.6277 32.6335C22.9824 33.9898 22.523 35.346 22.2059 36.8226C21.6918 39.196 21.834 44.2054 22.4355 44.8507C22.7199 45.1569 23.1246 45.2444 23.5074 45.0804C24.0324 44.8726 24.109 44.5007 23.9121 43.2429C23.6824 41.8319 23.6824 39.3601 23.9121 37.9273C24.2512 35.7507 25.2465 33.2569 26.5262 31.3648C27.2152 30.3257 27.2918 29.921 26.8543 29.4944C26.5152 29.1444 25.9137 29.1226 25.5855 29.4507Z" fill="#1742E7"></path><path d="M36.9715 32.0648C36.7637 32.2726 36.7527 32.4257 36.7527 34.6898V37.096H34.3465C32.0824 37.096 31.9293 37.1069 31.7215 37.3148C31.5137 37.5226 31.5027 37.6757 31.5027 40.596C31.5027 43.5163 31.5137 43.6694 31.7215 43.8773C31.9293 44.0851 32.0824 44.096 34.3465 44.096H36.7527V46.5023C36.7527 48.7663 36.7637 48.9194 36.9715 49.1273C37.1793 49.3351 37.3324 49.346 40.2527 49.346C43.173 49.346 43.3262 49.3351 43.534 49.1273C43.7418 48.9194 43.7527 48.7663 43.7527 46.5023V44.096H46.159C48.423 44.096 48.5762 44.0851 48.784 43.8773C48.9918 43.6694 49.0027 43.5163 49.0027 40.596C49.0027 37.6757 48.9918 37.5226 48.784 37.3148C48.5762 37.1069 48.423 37.096 46.159 37.096H43.7527V34.6898C43.7527 32.4257 43.7418 32.2726 43.534 32.0648C43.3262 31.8569 43.173 31.846 40.2527 31.846C37.3324 31.846 37.1793 31.8569 36.9715 32.0648ZM42.0027 36.0023C42.0027 38.2663 42.0137 38.4194 42.2215 38.6273C42.4293 38.8351 42.5824 38.846 44.8465 38.846H47.2527V42.346H44.8465C42.5824 42.346 42.4293 42.3569 42.2215 42.5648C42.0137 42.7726 42.0027 42.9257 42.0027 45.1898V47.596H38.5027V45.1898C38.5027 42.9257 38.4918 42.7726 38.284 42.5648C38.0762 42.3569 37.923 42.346 35.659 42.346H33.2527V38.846H35.659C37.923 38.846 38.0762 38.8351 38.284 38.6273C38.4918 38.4194 38.5027 38.2663 38.5027 36.0023V33.596H42.0027V36.0023Z" fill="#1742E7"></path><path d="M56.8449 36.2319C56.473 36.4507 56.4184 36.8335 56.6152 38.0694C56.8449 39.5132 56.7793 42.6194 56.4949 43.8773C56.0137 46.021 55.1715 48.0444 54.0668 49.696C53.2902 50.8554 53.2355 51.0194 53.4215 51.4679C53.6074 51.9163 54.0996 52.1241 54.5809 51.9491C55.248 51.7194 56.998 48.6679 57.7418 46.4476C58.4199 44.4023 58.5621 43.4179 58.573 40.7054C58.573 37.8944 58.4309 36.7788 58.0152 36.3632C57.7418 36.0898 57.1949 36.0241 56.8449 36.2319Z" fill="#1742E7"></path><path d="M24.9949 46.7866C23.9012 46.9288 23.059 47.1038 22.3809 47.3335C21.6371 47.5851 21.5168 47.596 18.0277 47.596C14.5824 47.596 14.4293 47.6069 14.2215 47.8148C13.9262 48.1101 13.9262 48.8319 14.2215 49.1273C14.4402 49.346 14.5496 49.346 18.5199 49.3132C22.5777 49.2694 22.5887 49.2694 23.6277 48.9741C24.5793 48.7007 24.7871 48.6788 26.0887 48.7226C27.6309 48.7773 28.3855 48.9741 29.4902 49.6194C30.234 50.046 31.1637 51.0304 31.5793 51.8179C31.809 52.2335 32.0387 52.5288 32.2355 52.6163C32.3996 52.6929 33.6793 53.2288 35.0574 53.7976C38.098 55.0554 38.7106 55.3726 39.3777 56.0179C40.0668 56.696 40.2746 57.1226 40.3402 58.0304C40.3949 58.7304 40.384 58.7851 40.1871 58.7304C40.0777 58.6976 38.0105 57.8444 35.6043 56.8382C32.9793 55.7444 31.0871 55.0116 30.8684 55.0116C30.0809 55.0116 29.6871 55.9085 30.223 56.4882C30.5512 56.8601 40.4059 60.9398 40.9527 60.9398C41.1934 60.9398 41.423 60.8632 41.5543 60.7319C42.1121 60.1741 42.3965 57.9757 42.0574 56.8273C41.7074 55.5804 40.7449 54.4757 39.323 53.6444C38.9074 53.4038 37.3871 52.7148 35.9543 52.1241L33.3512 51.0523L32.8699 50.3304C31.7543 48.6569 30.0043 47.4648 27.948 47.0163C27.1387 46.8304 25.5527 46.7101 24.9949 46.7866Z" fill="#1742E7"></path><path d="M51.0262 53.1194C50.4465 53.6882 50.8512 54.7054 51.6496 54.7054C52.2512 54.6944 52.809 54.071 52.6559 53.5788C52.4371 52.8351 51.5512 52.5835 51.0262 53.1194Z" fill="#1742E7"></path><path d="M47.548 56.4554C45.9293 56.7944 44.1137 57.4069 43.9168 57.6804C43.5121 58.2819 43.9168 59.1898 44.6059 59.1898C44.7699 59.1898 45.3387 59.0476 45.8527 58.8726C48.1824 58.0851 49.8449 57.9101 50.6215 58.3694C51.0371 58.621 51.409 59.2773 51.409 59.7585V60.1413L47.5371 61.7491L43.6543 63.346H39.4652C34.773 63.346 33.3184 63.2476 32.0496 62.8429C31.5684 62.7007 29.5121 61.771 27.4887 60.7866C23.7809 58.9929 22.3918 58.446 20.8934 58.2054C20.4996 58.1507 18.8918 58.096 17.3168 58.096C14.5824 58.096 14.4293 58.1069 14.2215 58.3148C13.9371 58.5991 13.9262 59.3319 14.1996 59.6054C14.3855 59.7913 14.6809 59.8241 17.2402 59.8788C20.073 59.9335 20.9152 60.0319 22.2605 60.4585C22.5668 60.5569 24.5355 61.4648 26.6355 62.471C28.7465 63.4882 30.7809 64.4179 31.1746 64.5491C32.7059 65.0632 33.1652 65.096 38.9293 65.096H44.3652L48.3465 63.4444C50.5449 62.5366 52.459 61.6944 52.5902 61.5632C53.4762 60.7319 53.4762 58.8069 52.5793 57.6366C51.5949 56.346 49.9215 55.9523 47.548 56.4554Z" fill="#1742E7"></path></svg>