<svg xmlns="http://www.w3.org/2000/svg" width="81" height="81" viewBox="0 0 81 81" fill="none"><path d="M62.2441 25.5493H52.4133C51.8954 25.5493 51.4758 25.9689 51.4758 26.4868C51.4758 27.0047 51.8954 27.4243 52.4133 27.4243H62.2441C62.7619 27.4243 63.1816 27.0047 63.1816 26.4868C63.1816 25.9689 62.7618 25.5493 62.2441 25.5493ZM63.1816 31.2022C63.1816 30.6843 62.7619 30.2647 62.2441 30.2647H52.4133C51.8954 30.2647 51.4758 30.6843 51.4758 31.2022C51.4758 31.7201 51.8954 32.1397 52.4133 32.1397H62.2441C62.4927 32.1397 62.7312 32.0409 62.907 31.8651C63.0828 31.6893 63.1816 31.4508 63.1816 31.2022ZM52.4132 34.9799C51.8953 34.9799 51.4757 35.3996 51.4757 35.9174C51.4757 36.4353 51.8953 36.8549 52.4132 36.8549H58.9086C59.4264 36.8549 59.8461 36.4353 59.8461 35.9174C59.8461 35.3996 59.4264 34.9799 58.9086 34.9799H52.4132ZM70.2466 66.0391H64.9502V50.0244C64.9502 49.3007 64.3614 48.7119 63.6377 48.7119H41.1897V45.8516C41.1897 45.3337 40.7701 44.9141 40.2522 44.9141C39.7343 44.9141 39.3147 45.3337 39.3147 45.8516V48.7119H21.7949V35.4958H26.8889V39.0968C26.8889 39.8206 27.4777 40.4093 28.2014 40.4093H32.9082C33.6319 40.4093 34.2207 39.8206 34.2207 39.0968V35.4958H39.3147V41.4766C39.3147 41.9944 39.7343 42.4141 40.2522 42.4141C40.7701 42.4141 41.1897 41.9944 41.1897 41.4766V34.9333C41.1897 34.2096 40.6009 33.6208 39.8772 33.6208H21.2324C20.5087 33.6208 19.9199 34.2096 19.9199 34.9333V48.7119H16.8667C16.1429 48.7119 15.5542 49.3007 15.5542 50.0244V66.0391H10.2578C9.53406 66.0391 8.94531 66.6278 8.94531 67.3516V71.2891C8.94531 72.0128 9.53406 72.6016 10.2578 72.6016H70.2466C70.9703 72.6016 71.5591 72.0128 71.5591 71.2891V67.3516C71.5591 66.6278 70.9703 66.0391 70.2466 66.0391ZM28.7639 35.4959H32.3457V38.5343H28.7639V35.4959ZM52.5244 50.5869H56.1062V53.6254H52.5244V50.5869ZM28.4517 50.5869H32.6579V53.6254H28.4517V50.5869ZM17.4292 50.5869H26.5767V54.1879C26.5767 54.9117 27.1654 55.5004 27.8892 55.5004H33.2204C33.9442 55.5004 34.5329 54.9117 34.5329 54.1879V50.5869H43.6804V66.0391H17.4292V50.5869ZM69.6841 70.7266H10.8203V67.9141H55.8772C56.3951 67.9141 56.8147 67.4944 56.8147 66.9766C56.8147 66.4587 56.3951 66.0391 55.8772 66.0391H45.5554V50.5869H50.6494V54.1879C50.6494 54.9117 51.2382 55.5004 51.9619 55.5004H56.6687C57.3924 55.5004 57.9812 54.9117 57.9812 54.1879V50.5869H63.0752V66.0391H60.2522C59.7343 66.0391 59.3147 66.4587 59.3147 66.9766C59.3147 67.4944 59.7343 67.9141 60.2522 67.9141H69.6841V70.7266Z" fill="#1742E7"></path><path d="M45.6089 25.0509V42.1102C45.6089 42.8339 46.1976 43.4227 46.9214 43.4227H67.7359C68.4596 43.4227 69.0484 42.8339 69.0484 42.1102V33.6016C69.0484 33.0837 68.6287 32.6641 68.1109 32.6641C67.593 32.6641 67.1734 33.0837 67.1734 33.6016V41.5477H47.4839V25.2677L47.4905 25.2678C49.845 25.2678 51.973 24.2846 53.49 22.7091H62.244C62.7619 22.7091 63.1815 22.2894 63.1815 21.7716C63.1815 21.2537 62.7619 20.8341 62.244 20.8341H54.8519C55.6178 19.3957 55.9424 17.7633 55.7847 16.1413H67.1732V29.2266C67.1732 29.7444 67.5928 30.1641 68.1107 30.1641C68.6286 30.1641 69.0482 29.7444 69.0482 29.2266V15.5788C69.0482 14.8551 68.4595 14.2663 67.7357 14.2663H55.3827C54.2675 10.9767 51.1521 8.60156 47.4904 8.60156C42.8955 8.60156 39.1572 12.3398 39.1572 16.9347C39.1572 20.8823 41.9175 24.1953 45.6089 25.0509ZM47.4904 10.4766C51.0514 10.4766 53.9485 13.3737 53.9485 16.9347C53.9485 20.4957 51.0514 23.3928 47.4904 23.3928C43.9294 23.3928 41.0322 20.4957 41.0322 16.9347C41.0322 13.3737 43.9294 10.4766 47.4904 10.4766Z" fill="#1742E7"></path><path d="M46.3577 19.6889C46.4447 19.7761 46.548 19.8452 46.6618 19.8923C46.7756 19.9394 46.8975 19.9636 47.0207 19.9634C47.1438 19.9636 47.2657 19.9394 47.3795 19.8923C47.4933 19.8452 47.5966 19.7761 47.6835 19.6889L51.496 15.8765C51.5846 15.7898 51.6551 15.6864 51.7035 15.5723C51.7519 15.4582 51.7771 15.3356 51.7778 15.2116C51.7785 15.0877 51.7545 14.9648 51.7074 14.8502C51.6603 14.7355 51.5909 14.6314 51.5033 14.5437C51.4156 14.456 51.3115 14.3866 51.1968 14.3395C51.0822 14.2923 50.9593 14.2684 50.8354 14.2691C50.7114 14.2697 50.5888 14.2949 50.4747 14.3433C50.3606 14.3916 50.2571 14.4621 50.1704 14.5507L47.0208 17.7002L44.8109 15.4902C44.6351 15.3143 44.3966 15.2156 44.148 15.2156C43.8993 15.2156 43.6609 15.3143 43.485 15.4902C43.3092 15.666 43.2104 15.9045 43.2104 16.1531C43.2104 16.4018 43.3092 16.6402 43.485 16.816L46.3577 19.6889Z" fill="#1742E7"></path></svg>