<svg xmlns="http://www.w3.org/2000/svg" width="81" height="81" viewBox="0 0 81 81" fill="none"><mask id="path-1-inside-1_10374_18751" fill="white"><path d="M59.8032 42.8862V25.175C62.8627 24.7345 65.2221 22.103 65.2221 18.9245C65.2226 15.4397 62.3858 12.6016 58.9001 12.6016C55.4139 12.6016 52.5771 15.4397 52.5771 18.9245H15.2891V55.0526H36.3659C36.836 62.6004 43.1086 68.6016 50.7705 68.6016C58.7389 68.6016 65.2217 62.118 65.2217 54.1503C65.2225 49.5986 63.1028 45.5387 59.8032 42.8858V42.8862ZM58.9 14.4082C61.39 14.4082 63.4161 16.4343 63.4161 18.9244C63.4161 21.4145 61.3909 23.4413 58.9 23.4413C56.4091 23.4413 54.3838 21.4149 54.3838 18.9244C54.3838 16.4344 56.4094 14.4082 58.9 14.4082ZM17.0952 20.7307H52.8433C53.059 21.4521 53.4027 22.1157 53.8437 22.7039L48.3189 28.2287C47.9647 28.059 47.5754 27.9561 47.157 27.9561C46.7399 27.9561 46.3501 28.0581 45.9964 28.2287L44.1765 26.4088C44.3454 26.0546 44.4478 25.6644 44.4478 25.2478C44.4478 23.753 43.2321 22.5372 41.7381 22.5372C40.2441 22.5372 39.0289 23.7529 39.0289 25.2478C39.0289 25.6649 39.1309 26.0546 39.3006 26.4062L34.7702 30.9366C34.4169 30.7678 34.0267 30.6658 33.6092 30.6658C32.1157 30.6658 30.8999 31.8811 30.8999 33.375C30.8999 34.8685 32.1156 36.0843 33.6092 36.0843C35.1031 36.0843 36.3189 34.8689 36.3189 33.375C36.3189 32.9579 36.2169 32.5668 36.0472 32.2144L40.5775 27.6844C40.9308 27.8532 41.3219 27.9557 41.7385 27.9557C42.1561 27.9557 42.5463 27.8537 42.8983 27.684L44.7191 29.5048C44.5503 29.8576 44.4479 30.2478 44.4479 30.6658C44.4479 32.1592 45.6632 33.375 47.1571 33.375C48.651 33.375 49.8668 32.1593 49.8668 30.6658C49.8668 30.2478 49.7648 29.8576 49.5951 29.5048L55.1199 23.9813C55.9467 24.6011 56.9277 25.0204 57.9958 25.1753V41.6532C55.8674 40.4175 53.4042 39.6974 50.7701 39.6974C46.4532 39.6974 42.5817 41.6089 39.9314 44.6223V40.6014H34.5125V51.4401H36.5829C36.4709 52.0295 36.4032 52.6341 36.365 53.2465H17.0948L17.0952 20.7307ZM47.1577 29.7629C47.6555 29.7629 48.0604 30.1674 48.0604 30.6666C48.0604 31.1644 47.6555 31.5689 47.1577 31.5689C46.6598 31.5689 46.254 31.1644 46.254 30.6666C46.254 30.1674 46.6598 29.7629 47.1577 29.7629ZM40.8347 25.2472C40.8347 24.7476 41.2405 24.3431 41.7384 24.3431C42.2362 24.3431 42.642 24.7476 42.642 25.2472C42.642 25.7451 42.2362 26.15 41.7384 26.15C41.2401 26.1504 40.8347 25.7451 40.8347 25.2472ZM34.5122 33.3762C34.5122 33.8744 34.1073 34.279 33.6094 34.279C33.1116 34.279 32.7067 33.8744 32.7067 33.3762C32.7067 32.8779 33.1116 32.4734 33.6094 32.4734C34.1073 32.4734 34.5122 32.8779 34.5122 33.3762ZM50.7701 61.3764C46.7862 61.3764 43.5444 58.1333 43.5444 54.1511C43.5444 50.1663 46.7858 46.9258 50.7701 46.9258C54.7541 46.9258 57.9959 50.1663 57.9959 54.1511C57.9963 58.1334 54.7545 61.3764 50.7701 61.3764ZM38.1245 47.1696C37.6922 47.9504 37.335 48.7739 37.0511 49.635H36.318L36.3185 42.4088H38.124V47.1697L38.1245 47.1696ZM49.8668 41.5516V45.1636C45.309 45.6198 41.7378 49.4749 41.7378 54.1511C41.7378 55.4724 42.0308 56.724 42.543 57.8577L39.4093 59.6663C38.5946 57.997 38.1254 56.1289 38.1254 54.151C38.1254 47.4817 43.316 42.0176 49.8666 41.552L49.8668 41.5516ZM50.77 66.7951C46.4219 66.7951 42.5798 64.5885 40.3034 61.2361L43.4501 59.4192C45.092 61.6922 47.7579 63.1813 50.7713 63.1813C53.7839 63.1813 56.4497 61.6922 58.0917 59.4192L61.2384 61.2361C58.9615 64.5885 55.1199 66.7951 50.7718 66.7951H50.77ZM62.1312 59.6671L58.9975 57.8571C59.5097 56.7248 59.8027 55.4726 59.8027 54.1506C59.8027 49.4752 56.2318 45.6184 51.6737 45.1644V41.551C58.225 42.0172 63.416 47.4821 63.416 54.1489C63.416 56.1277 62.9464 57.9961 62.1317 59.6654L62.1321 59.6667L62.1312 59.6671Z"></path><path d="M50.7698 48.7307C47.7807 48.7307 45.3509 51.1613 45.3509 54.1509C45.3509 57.1384 47.7814 59.5694 50.7698 59.5694C53.7585 59.5694 56.1887 57.1384 56.1887 54.1509C56.1892 51.1618 53.759 48.7307 50.7698 48.7307ZM50.7698 57.762C48.7775 57.762 47.1573 56.1422 47.1573 54.1505C47.1573 52.1573 48.7775 50.5359 50.7698 50.5359C52.762 50.5359 54.3823 52.157 54.3823 54.1505C54.3831 56.1431 52.7629 57.762 50.7698 57.762Z"></path><path d="M20.0607 22.5372H21.8671V24.3437H20.0607V22.5372Z"></path><path d="M23.674 22.5372H32.7062V24.3437L23.674 24.3432V22.5372Z"></path><path d="M20.0607 26.1506H21.8671V27.9561H20.0607V26.1506Z"></path><path d="M23.674 26.1506H32.7062V27.9561H23.674V26.1506Z"></path><path d="M20.0607 51.4419H25.4804V44.2153H20.0607V51.4419ZM21.8676 46.0204H23.674V49.635H21.8676V46.0204Z"></path><path d="M27.2874 51.4419H32.7071V36.9884H27.2874V51.4419ZM29.0938 38.7951H30.9003V49.6351H29.0938V38.7951Z"></path></mask><path d="M59.8032 42.8862V25.175C62.8627 24.7345 65.2221 22.103 65.2221 18.9245C65.2226 15.4397 62.3858 12.6016 58.9001 12.6016C55.4139 12.6016 52.5771 15.4397 52.5771 18.9245H15.2891V55.0526H36.3659C36.836 62.6004 43.1086 68.6016 50.7705 68.6016C58.7389 68.6016 65.2217 62.118 65.2217 54.1503C65.2225 49.5986 63.1028 45.5387 59.8032 42.8858V42.8862ZM58.9 14.4082C61.39 14.4082 63.4161 16.4343 63.4161 18.9244C63.4161 21.4145 61.3909 23.4413 58.9 23.4413C56.4091 23.4413 54.3838 21.4149 54.3838 18.9244C54.3838 16.4344 56.4094 14.4082 58.9 14.4082ZM17.0952 20.7307H52.8433C53.059 21.4521 53.4027 22.1157 53.8437 22.7039L48.3189 28.2287C47.9647 28.059 47.5754 27.9561 47.157 27.9561C46.7399 27.9561 46.3501 28.0581 45.9964 28.2287L44.1765 26.4088C44.3454 26.0546 44.4478 25.6644 44.4478 25.2478C44.4478 23.753 43.2321 22.5372 41.7381 22.5372C40.2441 22.5372 39.0289 23.7529 39.0289 25.2478C39.0289 25.6649 39.1309 26.0546 39.3006 26.4062L34.7702 30.9366C34.4169 30.7678 34.0267 30.6658 33.6092 30.6658C32.1157 30.6658 30.8999 31.8811 30.8999 33.375C30.8999 34.8685 32.1156 36.0843 33.6092 36.0843C35.1031 36.0843 36.3189 34.8689 36.3189 33.375C36.3189 32.9579 36.2169 32.5668 36.0472 32.2144L40.5775 27.6844C40.9308 27.8532 41.3219 27.9557 41.7385 27.9557C42.1561 27.9557 42.5463 27.8537 42.8983 27.684L44.7191 29.5048C44.5503 29.8576 44.4479 30.2478 44.4479 30.6658C44.4479 32.1592 45.6632 33.375 47.1571 33.375C48.651 33.375 49.8668 32.1593 49.8668 30.6658C49.8668 30.2478 49.7648 29.8576 49.5951 29.5048L55.1199 23.9813C55.9467 24.6011 56.9277 25.0204 57.9958 25.1753V41.6532C55.8674 40.4175 53.4042 39.6974 50.7701 39.6974C46.4532 39.6974 42.5817 41.6089 39.9314 44.6223V40.6014H34.5125V51.4401H36.5829C36.4709 52.0295 36.4032 52.6341 36.365 53.2465H17.0948L17.0952 20.7307ZM47.1577 29.7629C47.6555 29.7629 48.0604 30.1674 48.0604 30.6666C48.0604 31.1644 47.6555 31.5689 47.1577 31.5689C46.6598 31.5689 46.254 31.1644 46.254 30.6666C46.254 30.1674 46.6598 29.7629 47.1577 29.7629ZM40.8347 25.2472C40.8347 24.7476 41.2405 24.3431 41.7384 24.3431C42.2362 24.3431 42.642 24.7476 42.642 25.2472C42.642 25.7451 42.2362 26.15 41.7384 26.15C41.2401 26.1504 40.8347 25.7451 40.8347 25.2472ZM34.5122 33.3762C34.5122 33.8744 34.1073 34.279 33.6094 34.279C33.1116 34.279 32.7067 33.8744 32.7067 33.3762C32.7067 32.8779 33.1116 32.4734 33.6094 32.4734C34.1073 32.4734 34.5122 32.8779 34.5122 33.3762ZM50.7701 61.3764C46.7862 61.3764 43.5444 58.1333 43.5444 54.1511C43.5444 50.1663 46.7858 46.9258 50.7701 46.9258C54.7541 46.9258 57.9959 50.1663 57.9959 54.1511C57.9963 58.1334 54.7545 61.3764 50.7701 61.3764ZM38.1245 47.1696C37.6922 47.9504 37.335 48.7739 37.0511 49.635H36.318L36.3185 42.4088H38.124V47.1697L38.1245 47.1696ZM49.8668 41.5516V45.1636C45.309 45.6198 41.7378 49.4749 41.7378 54.1511C41.7378 55.4724 42.0308 56.724 42.543 57.8577L39.4093 59.6663C38.5946 57.997 38.1254 56.1289 38.1254 54.151C38.1254 47.4817 43.316 42.0176 49.8666 41.552L49.8668 41.5516ZM50.77 66.7951C46.4219 66.7951 42.5798 64.5885 40.3034 61.2361L43.4501 59.4192C45.092 61.6922 47.7579 63.1813 50.7713 63.1813C53.7839 63.1813 56.4497 61.6922 58.0917 59.4192L61.2384 61.2361C58.9615 64.5885 55.1199 66.7951 50.7718 66.7951H50.77ZM62.1312 59.6671L58.9975 57.8571C59.5097 56.7248 59.8027 55.4726 59.8027 54.1506C59.8027 49.4752 56.2318 45.6184 51.6737 45.1644V41.551C58.225 42.0172 63.416 47.4821 63.416 54.1489C63.416 56.1277 62.9464 57.9961 62.1317 59.6654L62.1321 59.6667L62.1312 59.6671Z" fill="#1742E7"></path><path d="M50.7698 48.7307C47.7807 48.7307 45.3509 51.1613 45.3509 54.1509C45.3509 57.1384 47.7814 59.5694 50.7698 59.5694C53.7585 59.5694 56.1887 57.1384 56.1887 54.1509C56.1892 51.1618 53.759 48.7307 50.7698 48.7307ZM50.7698 57.762C48.7775 57.762 47.1573 56.1422 47.1573 54.1505C47.1573 52.1573 48.7775 50.5359 50.7698 50.5359C52.762 50.5359 54.3823 52.157 54.3823 54.1505C54.3831 56.1431 52.7629 57.762 50.7698 57.762Z" fill="#1742E7"></path><path d="M20.0607 22.5372H21.8671V24.3437H20.0607V22.5372Z" fill="#1742E7"></path><path d="M23.674 22.5372H32.7062V24.3437L23.674 24.3432V22.5372Z" fill="#1742E7"></path><path d="M20.0607 26.1506H21.8671V27.9561H20.0607V26.1506Z" fill="#1742E7"></path><path d="M23.674 26.1506H32.7062V27.9561H23.674V26.1506Z" fill="#1742E7"></path><path d="M20.0607 51.4419H25.4804V44.2153H20.0607V51.4419ZM21.8676 46.0204H23.674V49.635H21.8676V46.0204Z" fill="#1742E7"></path><path d="M27.2874 51.4419H32.7071V36.9884H27.2874V51.4419ZM29.0938 38.7951H30.9003V49.6351H29.0938V38.7951Z" fill="#1742E7"></path><path d="M59.8032 42.8862V25.175C62.8627 24.7345 65.2221 22.103 65.2221 18.9245C65.2226 15.4397 62.3858 12.6016 58.9001 12.6016C55.4139 12.6016 52.5771 15.4397 52.5771 18.9245H15.2891V55.0526H36.3659C36.836 62.6004 43.1086 68.6016 50.7705 68.6016C58.7389 68.6016 65.2217 62.118 65.2217 54.1503C65.2225 49.5986 63.1028 45.5387 59.8032 42.8858V42.8862ZM58.9 14.4082C61.39 14.4082 63.4161 16.4343 63.4161 18.9244C63.4161 21.4145 61.3909 23.4413 58.9 23.4413C56.4091 23.4413 54.3838 21.4149 54.3838 18.9244C54.3838 16.4344 56.4094 14.4082 58.9 14.4082ZM17.0952 20.7307H52.8433C53.059 21.4521 53.4027 22.1157 53.8437 22.7039L48.3189 28.2287C47.9647 28.059 47.5754 27.9561 47.157 27.9561C46.7399 27.9561 46.3501 28.0581 45.9964 28.2287L44.1765 26.4088C44.3454 26.0546 44.4478 25.6644 44.4478 25.2478C44.4478 23.753 43.2321 22.5372 41.7381 22.5372C40.2441 22.5372 39.0289 23.7529 39.0289 25.2478C39.0289 25.6649 39.1309 26.0546 39.3006 26.4062L34.7702 30.9366C34.4169 30.7678 34.0267 30.6658 33.6092 30.6658C32.1157 30.6658 30.8999 31.8811 30.8999 33.375C30.8999 34.8685 32.1156 36.0843 33.6092 36.0843C35.1031 36.0843 36.3189 34.8689 36.3189 33.375C36.3189 32.9579 36.2169 32.5668 36.0472 32.2144L40.5775 27.6844C40.9308 27.8532 41.3219 27.9557 41.7385 27.9557C42.1561 27.9557 42.5463 27.8537 42.8983 27.684L44.7191 29.5048C44.5503 29.8576 44.4479 30.2478 44.4479 30.6658C44.4479 32.1592 45.6632 33.375 47.1571 33.375C48.651 33.375 49.8668 32.1593 49.8668 30.6658C49.8668 30.2478 49.7648 29.8576 49.5951 29.5048L55.1199 23.9813C55.9467 24.6011 56.9277 25.0204 57.9958 25.1753V41.6532C55.8674 40.4175 53.4042 39.6974 50.7701 39.6974C46.4532 39.6974 42.5817 41.6089 39.9314 44.6223V40.6014H34.5125V51.4401H36.5829C36.4709 52.0295 36.4032 52.6341 36.365 53.2465H17.0948L17.0952 20.7307ZM47.1577 29.7629C47.6555 29.7629 48.0604 30.1674 48.0604 30.6666C48.0604 31.1644 47.6555 31.5689 47.1577 31.5689C46.6598 31.5689 46.254 31.1644 46.254 30.6666C46.254 30.1674 46.6598 29.7629 47.1577 29.7629ZM40.8347 25.2472C40.8347 24.7476 41.2405 24.3431 41.7384 24.3431C42.2362 24.3431 42.642 24.7476 42.642 25.2472C42.642 25.7451 42.2362 26.15 41.7384 26.15C41.2401 26.1504 40.8347 25.7451 40.8347 25.2472ZM34.5122 33.3762C34.5122 33.8744 34.1073 34.279 33.6094 34.279C33.1116 34.279 32.7067 33.8744 32.7067 33.3762C32.7067 32.8779 33.1116 32.4734 33.6094 32.4734C34.1073 32.4734 34.5122 32.8779 34.5122 33.3762ZM50.7701 61.3764C46.7862 61.3764 43.5444 58.1333 43.5444 54.1511C43.5444 50.1663 46.7858 46.9258 50.7701 46.9258C54.7541 46.9258 57.9959 50.1663 57.9959 54.1511C57.9963 58.1334 54.7545 61.3764 50.7701 61.3764ZM38.1245 47.1696C37.6922 47.9504 37.335 48.7739 37.0511 49.635H36.318L36.3185 42.4088H38.124V47.1697L38.1245 47.1696ZM49.8668 41.5516V45.1636C45.309 45.6198 41.7378 49.4749 41.7378 54.1511C41.7378 55.4724 42.0308 56.724 42.543 57.8577L39.4093 59.6663C38.5946 57.997 38.1254 56.1289 38.1254 54.151C38.1254 47.4817 43.316 42.0176 49.8666 41.552L49.8668 41.5516ZM50.77 66.7951C46.4219 66.7951 42.5798 64.5885 40.3034 61.2361L43.4501 59.4192C45.092 61.6922 47.7579 63.1813 50.7713 63.1813C53.7839 63.1813 56.4497 61.6922 58.0917 59.4192L61.2384 61.2361C58.9615 64.5885 55.1199 66.7951 50.7718 66.7951H50.77ZM62.1312 59.6671L58.9975 57.8571C59.5097 56.7248 59.8027 55.4726 59.8027 54.1506C59.8027 49.4752 56.2318 45.6184 51.6737 45.1644V41.551C58.225 42.0172 63.416 47.4821 63.416 54.1489C63.416 56.1277 62.9464 57.9961 62.1317 59.6654L62.1321 59.6667L62.1312 59.6671Z" stroke="#1742E7" stroke-width="0.56" mask="url(#path-1-inside-1_10374_18751)"></path><path d="M50.7698 48.7307C47.7807 48.7307 45.3509 51.1613 45.3509 54.1509C45.3509 57.1384 47.7814 59.5694 50.7698 59.5694C53.7585 59.5694 56.1887 57.1384 56.1887 54.1509C56.1892 51.1618 53.759 48.7307 50.7698 48.7307ZM50.7698 57.762C48.7775 57.762 47.1573 56.1422 47.1573 54.1505C47.1573 52.1573 48.7775 50.5359 50.7698 50.5359C52.762 50.5359 54.3823 52.157 54.3823 54.1505C54.3831 56.1431 52.7629 57.762 50.7698 57.762Z" stroke="#1742E7" stroke-width="0.56" mask="url(#path-1-inside-1_10374_18751)"></path><path d="M20.0607 22.5372H21.8671V24.3437H20.0607V22.5372Z" stroke="#1742E7" stroke-width="0.56" mask="url(#path-1-inside-1_10374_18751)"></path><path d="M23.674 22.5372H32.7062V24.3437L23.674 24.3432V22.5372Z" stroke="#1742E7" stroke-width="0.56" mask="url(#path-1-inside-1_10374_18751)"></path><path d="M20.0607 26.1506H21.8671V27.9561H20.0607V26.1506Z" stroke="#1742E7" stroke-width="0.56" mask="url(#path-1-inside-1_10374_18751)"></path><path d="M23.674 26.1506H32.7062V27.9561H23.674V26.1506Z" stroke="#1742E7" stroke-width="0.56" mask="url(#path-1-inside-1_10374_18751)"></path><path d="M20.0607 51.4419H25.4804V44.2153H20.0607V51.4419ZM21.8676 46.0204H23.674V49.635H21.8676V46.0204Z" stroke="#1742E7" stroke-width="0.56" mask="url(#path-1-inside-1_10374_18751)"></path><path d="M27.2874 51.4419H32.7071V36.9884H27.2874V51.4419ZM29.0938 38.7951H30.9003V49.6351H29.0938V38.7951Z" stroke="#1742E7" stroke-width="0.56" mask="url(#path-1-inside-1_10374_18751)"></path></svg>