<svg xmlns="http://www.w3.org/2000/svg" width="81" height="81" viewBox="0 0 81 81" fill="none"><path d="M46.1564 37.0265C45.2082 37.0265 45.2082 35.5742 46.1564 35.5742H56.1065C57.0667 35.5742 57.0667 37.0265 56.1065 37.0265H46.1564ZM46.1564 32.9577C45.2082 32.9577 45.2082 31.5054 46.1564 31.5054H48.7249C49.6731 31.5054 49.6731 32.9577 48.7249 32.9577H46.1564ZM51.6655 32.9577C50.7053 32.9577 50.7053 31.5054 51.6655 31.5054H56.1065C57.0667 31.5054 57.0667 32.9577 56.1065 32.9577H51.6655ZM46.1564 28.8889C45.2082 28.8889 45.2082 27.4366 46.1564 27.4366H56.1065C57.0667 27.4366 57.0667 28.8889 56.1065 28.8889H46.1564ZM19.5589 19.0109H24.0598C24.4679 19.0109 24.7919 19.3349 24.7919 19.743V22.3956H27.6125V17.1865C27.6125 16.7784 27.9366 16.4543 28.3447 16.4543H32.8456C33.2537 16.4543 33.5778 16.7784 33.5778 17.1865V22.3836H36.3984V13.3337C36.3984 12.9256 36.7224 12.6016 37.1305 12.6016H41.6315C42.0395 12.6016 42.3636 12.9256 42.3636 13.3337V22.3836H59.3351C60.7874 22.3836 61.9637 23.5718 61.9637 25.0121V43.7839C69.0331 50.3012 67.8089 61.8476 59.4312 66.6846C56.2385 68.5329 52.4097 69.121 48.5809 68.1128C46.7925 67.6327 45.1842 66.8406 43.7919 65.8084H25.3321C24.924 65.8084 24.5999 65.4843 24.5999 65.0762V61.6795C24.5999 60.3833 25.9202 59.5551 27.2285 59.5551H33.4457V54.8622H16.5582C15.1059 54.8622 13.9297 53.6859 13.9297 52.2336V25.0241C13.9297 23.5718 15.1059 22.3956 16.5582 22.3956H18.8267V19.743C18.8267 19.3349 19.1508 19.0109 19.5589 19.0109ZM24.7799 23.8478V30.8213C24.7799 31.2293 24.4559 31.5534 24.0478 31.5534H19.5589C19.1508 31.5534 18.8267 31.2293 18.8267 30.8213V23.8478H16.5582C15.9101 23.8478 15.382 24.376 15.382 25.0241V49.209H38.8829C42.1956 40.5312 52.8538 37.2786 60.4634 42.6197V25.0241C60.4634 24.376 59.9353 23.8478 59.2871 23.8478H42.3156V30.8213C42.3156 31.2293 41.9915 31.5534 41.5834 31.5534H37.0825C36.6744 31.5534 36.3503 31.2293 36.3503 30.8213V23.8478H33.5298V30.8213C33.5298 31.2293 33.2057 31.5534 32.7976 31.5534H28.2967C27.8886 31.5534 27.5645 31.2293 27.5645 30.8213V23.8478H24.7799ZM23.3276 20.4632H20.291V30.0891H23.3276V20.4632ZM40.8633 14.0659H37.8267V30.0891H40.8633V14.0659ZM32.0895 17.9186H29.0528V30.0891H32.0895V17.9186ZM41.4874 47.2766L44.416 48.969C45.2202 47.7927 46.2884 46.8085 47.5007 46.1124C49.5531 44.8881 52.2057 44.492 54.7022 45.1642C56.9706 45.7763 58.831 47.1686 60.0673 48.969L62.9959 47.2886C59.2991 41.6355 51.7736 39.7631 45.8203 43.1958C44.092 44.192 42.6037 45.5723 41.4874 47.2766ZM43.6839 50.2172L40.7553 48.5369C39.9031 50.2292 39.375 52.2696 39.375 54.154C39.375 56.6745 39.9151 58.6189 41.0913 60.7433C42.6637 63.5999 45.6643 65.9044 48.857 66.7206C49.8772 66.9726 50.4653 67.0926 51.4855 67.1526V63.78C44.8721 63.2639 40.8033 56.2304 43.6839 50.2172ZM63.704 48.5369L60.7754 50.2292C62.9239 54.6941 61.2555 60.0592 56.9706 62.5317C55.7944 63.2279 54.3421 63.6719 52.9618 63.78V67.1526C55.0863 67.0326 56.8866 66.4445 58.699 65.4363C61.5196 63.792 63.716 61.0794 64.6402 57.6827C64.6402 57.6587 64.6522 57.6347 64.6522 57.6107C65.4924 54.4541 65.0723 51.2494 63.704 48.5369ZM51.2935 57.8268C54.3541 58.6429 57.0307 55.4023 55.3623 52.4617C54.4141 50.7933 52.2057 50.1572 50.3813 51.1894C48.7129 52.1376 48.0768 54.382 49.085 56.1344C49.5531 56.9506 50.3213 57.5747 51.2935 57.8268ZM54.7742 58.7269C52.3377 60.1312 49.229 59.291 47.8247 56.8666C46.4204 54.5021 47.2366 51.3334 49.6851 49.9171C52.1216 48.5129 55.2303 49.341 56.6346 51.7775C58.0389 54.202 57.2107 57.3226 54.7742 58.7269ZM50.1532 62.0756C52.2897 62.6517 54.4621 62.3037 56.2385 61.2715C60.0793 59.051 61.3996 54.142 59.1791 50.3012C56.9586 46.4604 52.0496 45.1402 48.2088 47.3606C46.4324 48.3808 45.0402 50.0972 44.476 52.2336C43.3358 56.5305 45.8683 60.9234 50.1532 62.0756ZM42.0635 64.3681C41.0793 63.3839 40.2632 62.2437 39.615 61.0314H27.2525C26.7484 61.0314 26.0762 61.2955 26.0762 61.7035V64.3681H42.0635ZM38.9309 59.5791C38.3428 58.1028 38.0067 56.5065 37.9467 54.8862H34.9221V59.5791H38.9309ZM37.9587 53.4219C38.0187 52.5097 38.1627 51.5855 38.4148 50.6613H15.382V52.2456C15.382 52.8937 15.9101 53.4219 16.5582 53.4219H37.9587ZM20.7111 42.8957L24.912 38.8389C24.2158 37.4826 25.2 35.9703 26.6283 35.9703C27.1564 35.9703 27.6725 36.1864 28.0086 36.5464C28.6327 37.1706 28.7648 38.1428 28.3087 38.9109L30.3491 41.3234C30.9132 41.1074 31.5494 41.1794 32.0535 41.4914L38.3788 36.4384C37.7907 34.494 40.2152 33.0777 41.6194 34.494C43.1678 36.0663 41.3434 38.5508 39.399 37.6266C39.363 37.6026 39.327 37.5906 39.291 37.5666L32.9296 42.6557C33.4337 44.5761 31.0452 45.9203 29.665 44.528C29.0768 43.9279 28.9208 43.0638 29.2929 42.3076L27.1684 39.7991C26.7964 39.9071 26.4123 39.8951 26.0522 39.7751L21.7433 43.9159C22.2954 45.2002 21.3472 46.6285 19.9549 46.6285C19.4268 46.6285 18.9227 46.4124 18.5747 46.0524C17.0503 44.5401 18.7787 42.0555 20.7111 42.8957ZM26.9164 38.3108C27.1684 38.1308 27.1924 37.7707 26.9764 37.5666C26.4843 37.0745 25.7762 37.8907 26.3283 38.3108C26.5083 38.4428 26.7484 38.4428 26.9164 38.3108ZM30.6972 42.7637C30.1931 43.2438 30.9132 43.9399 31.3693 43.4838C31.8254 43.0397 31.1773 42.3556 30.6972 42.7637ZM20.303 44.324C19.8469 43.8679 19.1388 44.5641 19.6069 45.0201C20.063 45.4882 20.7591 44.7921 20.303 44.324ZM40.5872 35.5142C40.1431 35.0701 39.471 35.6943 39.8551 36.1744C40.2752 36.7025 41.0673 35.9943 40.5872 35.5142Z" fill="#1742E7"></path></svg>