<svg xmlns="http://www.w3.org/2000/svg" width="80" height="80" viewBox="0 0 80 80" fill="none"><path d="M24.4838 42.0645C23.9365 42.065 23.4117 42.2827 23.0246 42.6697C22.6376 43.0568 22.4199 43.5816 22.4193 44.129V65.8064C22.4199 66.3537 22.6376 66.8785 23.0246 67.2656C23.4117 67.6526 23.9365 67.8703 24.4838 67.8709H28.7171C28.955 69.0365 29.5883 70.0842 30.5098 70.8366C31.4313 71.589 32.5845 72 33.7742 72C34.9638 72 36.117 71.589 37.0385 70.8366C37.96 70.0842 38.5933 69.0365 38.8312 67.8709H54.5225C54.7604 69.0365 55.3937 70.0842 56.3152 70.8366C57.2367 71.589 58.3899 72 59.5795 72C60.7692 72 61.9223 71.589 62.8439 70.8366C63.7654 70.0842 64.3986 69.0365 64.6366 67.8709H67.8386C68.6597 67.87 69.4469 67.5435 70.0275 66.9629C70.608 66.3824 70.9346 65.5952 70.9354 64.7741V57.1664C70.9328 56.5309 70.7386 55.911 70.378 55.3878L64.1359 46.4691C63.8476 46.0661 63.4677 45.7374 63.0275 45.51C62.5872 45.2826 62.0993 45.1631 61.6038 45.1612H52.3548V44.129C52.3542 43.5816 52.1365 43.0568 51.7495 42.6697C51.3624 42.2827 50.8376 42.065 50.2903 42.0645H24.4838ZM33.7742 69.9354C33.1617 69.9354 32.5629 69.7538 32.0537 69.4135C31.5444 69.0732 31.1475 68.5896 30.9131 68.0237C30.6787 67.4578 30.6174 66.8352 30.7369 66.2345C30.8564 65.6337 31.1513 65.082 31.5844 64.6489C32.0175 64.2158 32.5693 63.9208 33.17 63.8013C33.7707 63.6819 34.3934 63.7432 34.9592 63.9776C35.5251 64.212 36.0087 64.6089 36.349 65.1181C36.6893 65.6274 36.8709 66.2261 36.8709 66.8386C36.8701 67.6597 36.5436 68.4469 35.963 69.0275C35.3824 69.608 34.5952 69.9346 33.7742 69.9354ZM50.2903 65.8064H38.8312C38.5933 64.6407 37.96 63.5931 37.0385 62.8406C36.117 62.0882 34.9638 61.6772 33.7742 61.6772C32.5845 61.6772 31.4313 62.0882 30.5098 62.8406C29.5883 63.5931 28.955 64.6407 28.7171 65.8064H24.4838V44.129H50.2903V65.8064ZM59.5806 69.9354C58.9681 69.9354 58.3694 69.7538 57.8601 69.4135C57.3508 69.0732 56.9539 68.5896 56.7195 68.0237C56.4851 67.4578 56.4238 66.8352 56.5433 66.2345C56.6628 65.6337 56.9577 65.082 57.3908 64.6489C57.8239 64.2158 58.3757 63.9208 58.9764 63.8013C59.5771 63.6819 60.1998 63.7432 60.7656 63.9776C61.3315 64.212 61.8152 64.6089 62.1554 65.1181C62.4957 65.6274 62.6773 66.2261 62.6773 66.8386C62.6765 67.6597 62.35 68.4469 61.7694 69.0275C61.1888 69.608 60.4016 69.9346 59.5806 69.9354ZM64.3124 50.3225L67.2027 54.4515H57.5161V50.3225H64.3124ZM52.3548 47.2257H61.6038C61.7693 47.2267 61.9322 47.2668 62.0793 47.3427C62.2264 47.4185 62.3535 47.5281 62.4502 47.6624L62.8673 48.258H56.4838C56.21 48.258 55.9475 48.3668 55.7539 48.5603C55.5603 48.7539 55.4515 49.0165 55.4515 49.2903V55.4838C55.4515 55.7576 55.5603 56.0201 55.7539 56.2137C55.9475 56.4073 56.21 56.516 56.4838 56.516H68.6479L68.6768 56.5573C68.8011 56.7363 68.8688 56.9485 68.8709 57.1664V64.7741C68.8706 65.0478 68.7618 65.3102 68.5682 65.5037C68.3747 65.6972 68.1123 65.8061 67.8386 65.8064H64.6376C64.3997 64.6407 63.7664 63.5931 62.8449 62.8406C61.9234 62.0882 60.7702 61.6772 59.5806 61.6772C58.3909 61.6772 57.2377 62.0882 56.3162 62.8406C55.3947 63.5931 54.7615 64.6407 54.5235 65.8064H52.3548V47.2257ZM9 48.258H20.3548V50.3225H9V48.258ZM11.0645 54.4515H20.3548V56.516H11.0645V54.4515ZM13.129 60.6451H20.3548V62.7096H13.129V60.6451ZM19.3226 30.7096C19.4811 30.7095 19.6374 30.6729 19.7795 30.6028C19.9216 30.5326 20.0457 30.4307 20.1422 30.305C20.9029 29.312 27.5806 20.4779 27.5806 16.2581C27.5806 14.0679 26.7106 11.9674 25.1619 10.4187C23.6132 8.87004 21.5127 8 19.3226 8C17.1324 8 15.0319 8.87004 13.4832 10.4187C11.9346 11.9674 11.0645 14.0679 11.0645 16.2581C11.0645 20.4769 17.7422 29.312 18.503 30.305C18.5994 30.4307 18.7235 30.5326 18.8656 30.6028C19.0077 30.6729 19.1641 30.7095 19.3226 30.7096ZM19.3226 10.0645C20.9646 10.0664 22.5388 10.7196 23.6999 11.8807C24.861 13.0418 25.5142 14.616 25.5161 16.2581C25.5161 18.8851 21.5925 24.8278 19.3226 27.9494C17.0526 24.8278 13.129 18.8862 13.129 16.2581C13.1309 14.616 13.7841 13.0418 14.9452 11.8807C16.1063 10.7196 17.6805 10.0664 19.3226 10.0645Z" fill="#1742E7"></path><path d="M23.9677 16.2581C23.9677 15.3393 23.6953 14.4412 23.1849 13.6773C22.6745 12.9134 21.949 12.3181 21.1002 11.9665C20.2514 11.6149 19.3174 11.5229 18.4163 11.7022C17.5153 11.8814 16.6876 12.3238 16.0379 12.9734C15.3883 13.6231 14.9459 14.4508 14.7667 15.3518C14.5874 16.2529 14.6794 17.1869 15.031 18.0357C15.3826 18.8845 15.978 19.6099 16.7419 20.1204C17.5057 20.6308 18.4038 20.9032 19.3226 20.9032C20.5541 20.9018 21.7348 20.412 22.6057 19.5412C23.4765 18.6703 23.9664 17.4896 23.9677 16.2581ZM16.7419 16.2581C16.7419 15.7476 16.8933 15.2487 17.1768 14.8243C17.4604 14.3999 17.8634 14.0692 18.335 13.8738C18.8065 13.6785 19.3254 13.6274 19.826 13.727C20.3266 13.8266 20.7864 14.0724 21.1474 14.4333C21.5083 14.7942 21.754 15.254 21.8536 15.7546C21.9532 16.2552 21.9021 16.7741 21.7068 17.2456C21.5114 17.7172 21.1807 18.1202 20.7563 18.4038C20.3319 18.6873 19.833 18.8387 19.3226 18.8387C18.6384 18.8379 17.9825 18.5657 17.4987 18.0819C17.0149 17.5981 16.7427 16.9422 16.7419 16.2581ZM60.6128 32.7742C60.7713 32.774 60.9276 32.7374 61.0698 32.6673C61.2119 32.5971 61.336 32.4952 61.4324 32.3695C62.1932 31.3765 68.8709 22.5424 68.8709 18.3226C68.8709 16.1324 68.0008 14.0319 66.4521 12.4832C64.9035 10.9346 62.803 10.0645 60.6128 10.0645C58.4227 10.0645 56.3222 10.9346 54.7735 12.4832C53.2248 14.0319 52.3548 16.1324 52.3548 18.3226C52.3548 22.5414 59.0324 31.3765 59.7932 32.3695C59.8897 32.4952 60.0138 32.5971 60.1559 32.6673C60.298 32.7374 60.4543 32.774 60.6128 32.7742ZM60.6128 12.129C62.2549 12.1309 63.8291 12.7841 64.9902 13.9452C66.1513 15.1063 66.8044 16.6805 66.8064 18.3226C66.8064 20.9497 62.8828 26.8924 60.6128 30.0139C58.3429 26.8924 54.4193 20.9507 54.4193 18.3226C54.4212 16.6805 55.0743 15.1063 56.2354 13.9452C57.3965 12.7841 58.9708 12.1309 60.6128 12.129Z" fill="#1742E7"></path><path d="M65.258 18.3226C65.258 17.4038 64.9855 16.5057 64.4751 15.7419C63.9647 14.978 63.2392 14.3826 62.3904 14.031C61.5417 13.6794 60.6077 13.5874 59.7066 13.7667C58.8055 13.9459 57.9778 14.3883 57.3282 15.0379C56.6786 15.6876 56.2362 16.5153 56.0569 17.4163C55.8777 18.3174 55.9697 19.2514 56.3213 20.1002C56.6728 20.949 57.2682 21.6745 58.0321 22.1849C58.796 22.6953 59.6941 22.9677 60.6128 22.9677C61.8444 22.9664 63.0251 22.4765 63.8959 21.6057C64.7668 20.7348 65.2566 19.5541 65.258 18.3226ZM58.0322 18.3226C58.0322 17.8122 58.1835 17.3132 58.4671 16.8888C58.7507 16.4645 59.1537 16.1337 59.6253 15.9384C60.0968 15.743 60.6157 15.6919 61.1163 15.7915C61.6169 15.8911 62.0767 16.1369 62.4376 16.4978C62.7985 16.8587 63.0443 17.3185 63.1439 17.8191C63.2434 18.3197 63.1923 18.8386 62.997 19.3101C62.8017 19.7817 62.4709 20.1847 62.0465 20.4683C61.6222 20.7519 61.1232 20.9032 60.6128 20.9032C59.9286 20.9024 59.2727 20.6302 58.7889 20.1465C58.3051 19.6627 58.033 19.0067 58.0322 18.3226ZM56.1524 35.8709C56.8785 35.8685 57.6039 35.8261 58.3253 35.744L58.0941 33.6929C57.4481 33.766 56.7985 33.804 56.1483 33.8064L56.1524 35.8709ZM54.2252 33.6887C53.5928 33.6076 52.9673 33.48 52.3537 33.3068L51.7881 35.2918C52.4995 35.4928 53.2247 35.6412 53.9579 35.7357L54.2252 33.6887ZM50.5772 32.6431C50.0036 32.3734 49.4526 32.0579 48.9297 31.6996L47.7726 33.409C48.3848 33.8278 49.0296 34.1968 49.7008 34.5125L50.5772 32.6431ZM26.4978 29.3853C25.8447 29.5752 25.1734 29.7878 24.4838 30.0232L25.1548 31.9762C25.8113 31.7512 26.4513 31.5482 27.0748 31.3672L26.4978 29.3853ZM47.2967 30.5073C46.7102 30.066 46.0942 29.6653 45.4531 29.3078L44.4642 31.1205C45.0246 31.4328 45.5626 31.7836 46.0745 32.1703L47.2967 30.5073ZM30.9912 30.4361L30.6144 28.4067C29.9538 28.5292 29.2635 28.6754 28.5437 28.8454L29.0216 30.8542C29.705 30.6911 30.3636 30.5538 30.9912 30.4361ZM34.9767 29.9076L34.8116 27.8493C34.1716 27.9009 33.4665 27.9731 32.7058 28.0743L32.9773 30.1202C33.6998 30.0242 34.3687 29.9571 34.9767 29.9076ZM42.7393 30.3731L43.3979 28.417C43.1949 28.3482 42.9833 28.2825 42.763 28.2198C42.264 28.0755 41.7575 27.9587 41.2456 27.8699L40.8947 29.9035C41.3334 29.9798 41.7676 30.0801 42.1953 30.2038C42.3845 30.2575 42.5659 30.3139 42.7393 30.3731ZM38.9932 29.7259L39.0418 27.6624C38.4203 27.648 37.7587 27.6624 36.8978 27.7089L37.0092 29.7703C37.8144 29.7259 38.4276 29.7135 38.9932 29.7259Z" fill="#1742E7"></path></svg>