<svg xmlns="http://www.w3.org/2000/svg" width="71" height="71" viewBox="0 0 71 71" fill="none"><g clip-path="url(#clip0_7771_3743)"><path d="M70.1426 65.6056H0.142578L13.1004 53.3595C13.5204 52.9629 14.0765 52.7373 14.6559 52.7373H57.2315C57.5542 52.7373 57.8731 52.8112 58.1648 52.9434C58.4604 53.0795 58.7209 53.274 58.9348 53.5151L70.1426 65.6056Z" fill="url(#paint0_linear_7771_3743)"></path><path d="M0.142578 65.606H70.1426V67.2004C70.1426 67.8032 69.9015 68.3865 69.4737 68.8104C69.0459 69.2343 68.4665 69.4793 67.8637 69.4793H2.42147C1.81869 69.4793 1.23924 69.2382 0.811467 68.8104C0.383689 68.3826 0.142578 67.8032 0.142578 67.2004V65.606Z" fill="#3CD4C2"></path><path d="M67.9265 34.2299C67.8254 30.7338 66.4837 27.3894 64.1387 24.7955C61.7937 22.2016 58.6009 20.5294 55.1321 20.0744C54.9298 15.1899 52.8065 10.5777 49.2209 7.25269C45.6393 3.92381 40.8832 2.14658 35.9987 2.30214C32.0554 2.23603 28.1898 3.39492 24.9309 5.61547C21.6721 7.83603 19.1793 11.0133 17.7987 14.7077C13.6065 15.1899 9.72928 17.1655 6.87483 20.2727C4.02039 23.3799 2.37539 27.4088 2.24316 31.6244C2.31316 33.9888 2.84983 36.3144 3.82594 38.4688C4.80205 40.6233 6.19039 42.5638 7.92094 44.1738C9.64761 45.7877 11.6815 47.0399 13.8982 47.8644C16.1148 48.6888 18.4715 49.0621 20.8359 48.9688H53.1487C57.0493 48.9299 60.7787 47.3627 63.5398 44.6094C66.3009 41.856 67.8759 38.1305 67.9265 34.2299Z" fill="url(#paint1_linear_7771_3743)"></path><path d="M24.8747 27.4246L35.1414 17.3524C35.2503 17.2396 35.3786 17.1502 35.5225 17.0919C35.6664 17.0296 35.822 16.9985 35.9775 16.9985C36.1331 16.9985 36.2886 17.0296 36.4325 17.0919C36.5764 17.1541 36.7047 17.2396 36.8136 17.3524L46.8081 27.4246C46.8936 27.4946 46.9559 27.5919 46.9831 27.6969C47.0103 27.8058 46.9986 27.9185 46.9559 28.0196C46.9131 28.1208 46.8353 28.2063 46.7381 28.2608C46.6409 28.3152 46.5281 28.3346 46.4192 28.3191H40.1192C39.9792 28.3269 39.8431 28.3891 39.7459 28.4902C39.6447 28.5913 39.5864 28.7235 39.5747 28.8635L39.4931 48.588C39.4931 48.7008 39.4464 48.8096 39.3686 48.8913C39.287 48.973 39.1781 49.0158 39.0653 49.0158H32.2986C32.1859 49.0158 32.077 48.9691 31.9953 48.8913C31.9136 48.8096 31.8709 48.7008 31.8709 48.588L31.9525 28.8635C31.9525 28.7274 31.902 28.5913 31.8086 28.4902C31.7153 28.3891 31.587 28.3269 31.447 28.3191H25.2247C25.1197 28.3269 25.0147 28.2958 24.9253 28.2413C24.8359 28.1869 24.7659 28.1013 24.727 28.0002C24.6881 27.903 24.6803 27.7941 24.7075 27.6891C24.7347 27.588 24.7931 27.4946 24.8747 27.4246Z" fill="#F2F2F2"></path></g><defs><linearGradient id="paint0_linear_7771_3743" x1="35.1426" y1="65.6056" x2="35.1426" y2="52.7373" gradientUnits="userSpaceOnUse"><stop offset="0.001" stop-color="#37C2B1"></stop><stop offset="1" stop-color="#3CD4C2"></stop></linearGradient><linearGradient id="paint1_linear_7771_3743" x1="35.0848" y1="48.7744" x2="35.0848" y2="2.30214" gradientUnits="userSpaceOnUse"><stop stop-color="#0078D4"></stop><stop offset="0.156" stop-color="#1380DA"></stop><stop offset="0.528" stop-color="#3C91E5"></stop><stop offset="0.822" stop-color="#559CEC"></stop><stop offset="1" stop-color="#5EA0EF"></stop></linearGradient><clipPath id="clip0_7771_3743"><rect width="70" height="70" fill="white" transform="translate(0.138672 0.716064)"></rect></clipPath></defs></svg>