<svg xmlns="http://www.w3.org/2000/svg" width="43" height="43" viewBox="0 0 43 43" fill="none"><path d="M31.1124 31.1127C25.645 36.58 16.7807 36.58 11.3134 31.1127C5.84606 25.6454 5.84606 16.7811 11.3134 11.3137C16.7807 5.84637 25.645 5.84637 31.1124 11.3137C36.5797 16.781 36.5797 25.6454 31.1124 31.1127Z" stroke="#1D262D" stroke-width="2"></path><path d="M19.7983 14.1793L19.7983 14.1793L19.7978 14.1787C19.3316 13.7126 18.6283 13.7126 18.1621 14.1787C17.696 14.6449 17.696 15.3482 18.1621 15.8144L23.3897 21.042L18.1621 26.2696C18.049 26.3828 17.9606 26.4994 17.9011 26.6334C17.8413 26.7678 17.8125 26.9153 17.8125 27.0874C17.8125 27.4313 17.9275 27.7246 18.1351 27.9323C18.3427 28.1399 18.6361 28.2549 18.9799 28.2549C19.1521 28.2549 19.2995 28.2261 19.4339 28.1663C19.568 28.1068 19.6846 28.0184 19.7978 27.9053L25.9453 21.7577C26.1367 21.6252 26.2205 21.3762 26.2062 21.1181C26.1915 20.8538 26.0746 20.5636 25.8435 20.3324C25.8434 20.3323 25.8433 20.3322 25.8432 20.3321L19.7983 14.1793Z" fill="#1D262D" stroke="#1D262D" stroke-width="0.175755"></path></svg>