<svg xmlns="http://www.w3.org/2000/svg" viewBox="0 0 101 100" fill="none"><path d="M45.7266 10.8219C35.6016 12.1188 26.5234 16.9782 20.2422 24.4938C19.1953 25.7438 19.0078 26.0563 19.0078 26.5407C19.0078 27.5407 19.9453 28.1813 20.8672 27.8063C21.1016 27.6969 21.5703 27.2594 21.9141 26.8063C22.7734 25.6813 25.7266 22.7282 27.1797 21.5563C33.0234 16.8375 39.9141 14.1032 47.6797 13.4C58.5234 12.4313 70.6953 17.2282 78.8516 25.6969C79.7578 26.6344 80.6641 27.6344 80.8516 27.9L81.2109 28.4157H79.2422C77.3359 28.4157 77.2578 28.4313 76.8672 28.8219C76.5234 29.1657 76.4766 29.3219 76.5547 29.8688C76.7109 31.0407 76.8203 31.0719 80.9141 31.0719H84.4922L84.8672 30.6813C85.2578 30.3063 85.2578 30.3063 85.2578 26.9313C85.2578 23.5563 85.2578 23.5563 84.8672 23.1813C84.3516 22.65 83.5078 22.65 82.9922 23.1813C82.6641 23.4938 82.6016 23.7125 82.6016 24.5407V25.5407L80.2266 23.1813C73.7109 16.7438 65.8359 12.6813 56.7422 11.0563C54.3516 10.6344 48.2734 10.5094 45.7266 10.8219Z" fill="#1742E7"></path><path d="M47.4453 24.1813C46.5859 24.4625 46.0234 24.8532 45.6016 25.4782C45.2266 26.0719 45.1797 26.2907 45.1016 27.9157L45.0234 29.6969L43.6172 30.15C42.8516 30.4 41.6016 30.9 40.8516 31.275L39.4766 31.9469L38.4297 30.8688C37.2266 29.65 36.6797 29.3532 35.6172 29.3532C34.4766 29.3688 33.7578 29.7907 31.8672 31.6032C29.9453 33.4313 29.4766 34.1813 29.4766 35.3375C29.4766 36.4157 29.8203 37.0719 30.9453 38.1813L31.9453 39.1657L31.2734 40.4782C30.8984 41.1969 30.3828 42.4157 30.1172 43.1813L29.6484 44.5875L27.8828 44.6657C25.9766 44.7438 25.6953 44.8375 24.9766 45.6657C24.2891 46.4469 24.1172 47.4313 24.1953 50.2907C24.2422 53.0407 24.4141 53.5563 25.4766 54.4157C26.0547 54.8844 26.1172 54.9 27.8984 54.9469L29.7422 55.0094L30.0859 56.2125C30.2891 56.8844 30.7734 58.1344 31.1953 58.9938L31.9453 60.5719L31.0078 61.4782C29.8828 62.6032 29.5234 63.15 29.3828 64.0094C29.1797 65.3375 29.5078 65.9625 31.5703 68.0875C33.6172 70.1813 34.2578 70.5875 35.4609 70.6032C36.4922 70.6032 37.0547 70.3063 38.2109 69.1344L39.1953 68.15L40.5391 68.8219C41.2891 69.1969 42.4922 69.7125 43.2266 69.9469L44.5547 70.4L44.6328 72.025C44.6953 73.4313 44.7734 73.7438 45.1328 74.3844C45.8516 75.6031 46.3359 75.7438 49.8672 75.7906C53.2891 75.8375 53.6953 75.7281 54.5547 74.525C54.9922 73.9 55.0234 73.7594 55.0703 72.1032L55.1328 70.3375L56.3359 69.9938C57.0078 69.8063 58.2422 69.3063 59.1016 68.9L60.6484 68.15L61.8203 69.275C63.1016 70.5094 63.8672 70.8532 64.9766 70.7125C65.9453 70.5875 66.5547 70.15 68.3984 68.3375C70.2891 66.4782 70.7109 65.7907 70.7266 64.6188C70.7266 63.6344 70.3359 62.9313 69.1953 61.8063L68.2734 60.9L68.9609 59.5407C69.3203 58.7907 69.8359 57.5875 70.0703 56.8532L70.5234 55.525L72.2266 55.4469C74.1484 55.3532 74.7578 55.1188 75.3672 54.2125C75.9297 53.3844 76.0391 52.7125 76.0391 50.2125C76.0391 47.4157 75.8984 46.8375 75.0391 45.9782C74.2578 45.1813 73.5859 44.9782 71.7422 44.9782H70.3359L69.9766 43.7594C69.7734 43.1032 69.2891 41.8688 68.8984 41.025L68.1797 39.5094L69.2266 38.4313C69.7891 37.8375 70.3672 37.1032 70.4922 36.7907C70.7891 36.0875 70.7891 34.9625 70.4922 34.2594C70.1953 33.5563 66.8047 30.0875 66.0703 29.7282C65.3828 29.4157 63.9453 29.3688 63.3828 29.65C63.1641 29.7594 62.5234 30.3219 61.9453 30.8688L60.9141 31.9L59.4453 31.1813C58.6484 30.775 57.4141 30.275 56.7109 30.0407L55.4141 29.6188V28.0719C55.4141 26.4313 55.2109 25.6813 54.5859 25.0094C53.8516 24.2125 53.4922 24.1344 50.5703 24.0875C49.0703 24.0719 47.6641 24.1032 47.4453 24.1813ZM52.7578 29.2438C52.8359 31.7594 52.8984 31.9 53.8516 32.1032C55.7734 32.525 57.6797 33.3219 60.0859 34.6657C60.6797 34.9938 61.0391 35.1032 61.3359 35.0407C61.5547 34.9782 62.3828 34.3219 63.1484 33.5563C63.9297 32.7907 64.6328 32.1657 64.7109 32.1657C64.8672 32.1657 65.9141 33.2125 67.5078 34.9313L68.1172 35.5875L66.5391 37.2125C65.5547 38.2282 64.9453 38.9782 64.9453 39.1813C64.9453 39.3532 65.3984 40.3688 65.9453 41.4157C66.8359 43.1188 67.2578 44.2594 67.8984 46.65C68.0078 47.0407 68.2266 47.4 68.4297 47.5094C68.6328 47.6344 69.6172 47.7438 70.9609 47.7907L73.1484 47.8688L73.1953 50.1969C73.2266 51.9625 73.1797 52.5563 73.0391 52.6657C72.9297 52.7282 71.9453 52.7907 70.8672 52.7907C68.4141 52.7907 68.3828 52.8219 67.8359 54.7125C67.3047 56.5875 66.8047 57.775 65.8828 59.3688C65.4453 60.1188 65.1016 60.9157 65.1016 61.15C65.1016 61.4782 65.4609 61.9313 66.6172 63.1344L68.1172 64.6813L66.4922 66.3219C65.6016 67.2125 64.7734 67.9469 64.6484 67.9469C64.5234 67.9469 63.7422 67.275 62.8984 66.4625C61.8203 65.3844 61.2891 64.9782 61.0078 64.9782C60.7891 64.9782 59.6797 65.4625 58.5234 66.0407C56.6953 66.9782 55.4766 67.4157 53.4922 67.8532C53.2578 67.9157 52.9297 68.0875 52.7578 68.2594C52.4766 68.5407 52.4453 68.7907 52.4453 70.6344C52.4453 71.775 52.3828 72.8063 52.3203 72.9157C52.2109 73.0563 51.6172 73.1032 49.8516 73.0719L47.5234 73.025L47.4453 70.8844C47.3516 68.2907 47.3516 68.2907 45.3672 67.7125C43.4922 67.1813 42.2891 66.6657 40.7109 65.7594C39.9609 65.3219 39.1641 64.9782 38.9297 64.9782C38.6016 64.9782 38.1484 65.3375 36.9453 66.4938L35.3984 67.9938L33.7578 66.3688C32.8672 65.4782 32.1328 64.65 32.1328 64.525C32.1328 64.4 32.8047 63.6188 33.6172 62.775C34.6484 61.7282 35.1016 61.15 35.1016 60.9C35.1016 60.6969 34.6172 59.5407 34.0078 58.3375C33.2109 56.775 32.7891 55.6969 32.5078 54.5875C31.9609 52.4 31.9922 52.4157 29.2734 52.3219L27.0547 52.2438V47.4L29.1953 47.3532C31.7891 47.3063 31.8516 47.2594 32.3984 45.1969C32.7734 43.775 33.8359 41.3688 34.6484 40.1188C35.4297 38.9 35.3359 38.6032 33.5859 36.8219L32.0703 35.2907L32.4453 34.9313C32.6641 34.7282 33.4453 33.9782 34.2109 33.2594L35.5859 31.9469L37.0234 33.3688C37.8047 34.1657 38.6484 34.8688 38.8672 34.9625C39.4141 35.1657 39.7422 35.0719 41.1641 34.2438C42.6328 33.4157 44.4453 32.6969 45.9297 32.3688C46.5547 32.2438 47.2109 31.9782 47.4141 31.8063C47.7422 31.5094 47.7578 31.3688 47.7578 29.4157C47.7578 28.275 47.8047 27.2282 47.8516 27.1032C47.9453 26.8844 48.2578 26.8532 50.3203 26.8844L52.6797 26.9313L52.7578 29.2438Z" fill="#1742E7"></path><path d="M47.7422 38.8063C45.4609 39.2594 43.5234 40.3063 41.8203 42.0094C37.9453 45.8844 37.3047 51.6344 40.2266 56.2125C41.8203 58.7282 44.6641 60.6969 47.5859 61.3219C48.9609 61.6032 51.4297 61.6032 52.8047 61.2907C54.2578 60.9782 56.4922 59.8844 57.6797 58.9313C59.5391 57.4157 61.0547 55.0094 61.5859 52.7438C61.8672 51.5407 61.9141 49.0563 61.6797 47.8532C61.5078 46.9938 60.8828 45.2282 60.5547 44.6969C60.0859 43.9625 58.7734 43.8844 58.3047 44.5563C57.9609 45.0407 58.0078 45.6813 58.4766 46.8375C59.7891 50.1032 59.0703 53.65 56.5859 56.1344C54.9766 57.7438 52.3047 58.8844 50.1016 58.8844C46.8984 58.8844 43.5078 56.7594 42.1016 53.8844C39.9922 49.5563 41.7266 44.5094 46.0703 42.3063C47.2422 41.7125 48.3047 41.4469 49.9922 41.3063C51.6484 41.1657 52.1328 40.8688 52.1328 40.0407C52.1328 39.2907 51.9141 38.9469 51.3359 38.7438C50.6797 38.525 49.0391 38.5407 47.7422 38.8063Z" fill="#1742E7"></path><path d="M54.1641 40.1344C53.7422 40.5563 53.6172 41.15 53.8516 41.6813C54.0859 42.2594 55.6641 43.2594 56.3359 43.2594C57.4453 43.2594 58.0703 41.6969 57.2578 40.9625C55.9922 39.8375 54.7891 39.5094 54.1641 40.1344Z" fill="#1742E7"></path><path d="M13.3047 34.5407C10.3047 36.0407 10.1016 36.2125 10.1016 37.1032C10.1016 37.6344 10.1797 37.8375 10.5078 38.0875C11.0859 38.5407 11.6641 38.4938 12.7578 37.9469C13.2734 37.6813 13.7266 37.4782 13.7578 37.4782C13.8047 37.4782 13.5859 38.1657 13.2891 38.9938C12.4766 41.2282 11.5859 44.5094 11.2734 46.3844C10.8984 48.6032 11.0078 53.2594 11.5078 56.0563C12.6016 62.3375 15.0234 67.9157 18.8984 73.0875C20.3516 75.025 24.4453 79.1188 26.3984 80.5875C33.4297 85.8375 41.3672 88.5563 49.8359 88.6344L52.7891 88.65L53.1641 88.2125C53.6797 87.6031 53.6484 86.9469 53.0859 86.3688L52.6328 85.9156H50.3359C40.8047 85.9156 31.7891 82.2594 24.8047 75.525C18.0859 69.0719 14.1484 60.3063 13.7578 50.9469C13.6484 48.525 13.8516 46.8688 14.6328 43.9469C15.1016 42.1657 16.3047 38.6032 16.5078 38.3688C16.5703 38.2907 16.8516 38.775 17.1484 39.4313C17.7266 40.7594 18.1797 41.2282 18.8828 41.2282C19.4453 41.2282 20.2578 40.4782 20.2578 39.9625C20.2578 39.4938 17.8203 34.0563 17.3984 33.6032C16.8047 32.9625 16.0859 33.1344 13.3047 34.5407Z" fill="#1742E7"></path><path d="M85.9609 34.7907C85.4297 34.9 84.9453 35.4625 84.9453 35.9782C84.9453 36.2438 85.1953 37.1969 85.5078 38.1032C87.4922 43.9469 87.9297 49.8688 86.8047 55.7125C85.0391 64.9 78.9453 73.7125 70.3828 79.4469C68.5078 80.6969 64.2109 83.0406 64.0547 82.8844C64.0078 82.8531 64.1797 82.5406 64.3984 82.1813C64.9609 81.3375 64.9609 80.5094 64.3984 80.025C63.9609 79.6344 63.4453 79.5719 62.8828 79.8375C62.4609 80.025 59.1953 84.9625 59.0703 85.5719C58.9141 86.4469 59.3672 86.7906 62.3516 88.1188C64.0391 88.8688 65.3516 89.3531 65.6641 89.3531C66.5703 89.3531 67.1953 88.4 66.8828 87.4938C66.7734 87.1969 66.4297 86.9313 65.4922 86.4781L64.2422 85.8844L65.1797 85.4781C65.6953 85.2594 66.8359 84.6969 67.7266 84.2438C78.0078 78.9313 85.6641 69.9469 88.7734 59.5094C89.6484 56.5719 89.9766 54.2282 90.0547 50.3688C90.1641 45.2907 89.6641 41.8688 88.1953 37.4157C87.4297 35.0719 87.0234 34.5875 85.9609 34.7907Z" fill="#1742E7"></path></svg>