<svg xmlns="http://www.w3.org/2000/svg" viewBox="0 0 101 100" fill="none"><path d="M76.8198 28.0797H74.3429C72.9997 22.8519 68.1878 19.0408 62.6967 19.0408C60.5012 19.0408 58.4024 19.6206 56.5501 20.7278C53.2118 16.4916 48.1218 14 42.6812 14C34.2922 14 27.0615 19.9736 25.3892 28.079H24.3493C15.4643 28.079 8.23438 35.3082 8.23438 44.1939C8.23438 53.0788 15.4636 60.3087 24.3493 60.3087H27.8059V79.644C27.8059 83.1484 30.6568 86 34.1619 86H67.0077C70.5121 86 73.3637 83.1491 73.3637 79.644L73.363 60.3105H76.8197C85.7058 60.3105 92.9345 53.082 92.9345 44.1957C92.9345 35.3095 85.706 28.0808 76.8197 28.0808L76.8198 28.0797ZM70.6318 79.644C70.6318 81.642 69.0057 83.2674 67.0084 83.2674H34.1626C32.164 83.2674 30.5392 81.6413 30.5392 79.644V54.4068C30.5392 52.4082 32.1653 50.7834 34.1626 50.7834H67.0066C69.0052 50.7834 70.63 52.4095 70.63 54.4068V60.3091L70.6314 79.6425L70.6318 79.644ZM41.8754 43.9351C41.8754 41.138 43.6654 38.6982 46.3063 37.4083C46.3504 37.3866 46.3924 37.3614 46.4365 37.3397C46.5787 37.2731 46.7293 37.2164 46.877 37.1562C46.9849 37.1121 47.0878 37.063 47.1978 37.0231C47.5696 36.8866 47.959 36.7815 48.3554 36.6912C48.5788 36.64 48.8029 36.5945 49.0326 36.5588C49.5368 36.4797 50.0536 36.4328 50.5844 36.4328C55.3872 36.4328 59.2942 39.7978 59.2942 43.9352V48.0524L41.8754 48.0531L41.8754 43.9351ZM76.8187 57.5779H73.362V54.4068C73.362 50.9025 70.5111 48.0508 67.006 48.0508H62.0262V43.9337C62.0262 39.7018 59.1394 36.0608 55.0336 34.5054C53.6652 33.9872 52.161 33.7 50.5846 33.7C49.0068 33.7 47.5039 33.9872 46.1356 34.5054C42.0305 36.0615 39.143 39.7016 39.143 43.9337V48.0508L34.1624 48.0515C30.6581 48.0515 27.8064 50.9024 27.8064 54.4075V57.5786H24.3498C16.9706 57.5786 10.9675 51.5756 10.9675 44.1963C10.9675 36.817 16.9704 30.814 24.3498 30.814H27.7344L27.8954 29.6319C28.8934 22.2793 35.25 16.7349 42.6811 16.7349C47.668 16.7349 52.3068 19.2118 55.0885 23.3619L55.8988 24.5707L57.0543 23.6855C58.6853 22.4354 60.637 21.7751 62.6967 21.7751C67.2481 21.7751 71.1942 25.1619 71.8778 29.6528L72.0543 30.8132H76.8192C84.1983 30.8132 90.2015 36.8162 90.2015 44.1955C90.2029 51.5747 84.1985 57.5778 76.8192 57.5778L76.8187 57.5779ZM50.5848 57.9631C47.4951 57.9631 44.9823 60.4759 44.9823 63.5656C44.9823 66.2078 46.8235 68.4237 49.2879 69.0105V74.7214C49.2879 75.4763 49.8992 76.087 50.6535 76.087C51.4077 76.087 52.0191 75.4756 52.0191 74.7214V68.9739C54.4141 68.338 56.1866 66.1565 56.1866 63.5647C56.1873 60.4769 53.6745 57.9629 50.5848 57.9629L50.5848 57.9631ZM50.5848 66.4376C49.0021 66.4376 47.7134 65.1497 47.7134 63.567C47.7134 61.9842 49.0013 60.6964 50.5848 60.6964C52.1675 60.6964 53.4554 61.9842 53.4554 63.567C53.4554 65.1497 52.1675 66.4376 50.5848 66.4376Z" fill="#1742E7"></path></svg>