<svg xmlns="http://www.w3.org/2000/svg" viewBox="0 0 44 60" fill="none"><path d="M14.8254 0.246694C13.997 0.71561 13.2624 1.51277 12.3402 3.02893C10.9334 5.32661 10.8396 5.38914 8.1512 6.07688C5.58779 6.73336 4.80627 7.20228 4.11852 8.49961C3.77465 9.15609 3.72776 9.93762 3.83717 13.1262C3.88407 14.9238 3.8528 15.0019 2.22723 16.9245C0.726701 18.7063 0.335938 19.4566 0.335938 20.6914C0.335938 21.9262 0.726701 22.6765 2.22723 24.4584C3.8528 26.3809 3.88407 26.4591 3.83717 28.2566C3.72776 31.4608 3.77465 32.2267 4.13415 32.8988C4.72811 34.0555 6.05671 34.8996 7.80733 35.2278C8.11994 35.2903 8.38566 35.3997 8.38566 35.4623C8.38566 35.5248 7.05706 40.0576 5.43149 45.5283C2.24286 56.204 2.28975 56.0477 3.16506 56.4384C3.6965 56.6885 3.68087 56.7041 7.82296 53.6093C9.68299 52.2338 11.2617 51.0928 11.3398 51.0928C11.4023 51.0928 12.1526 52.9684 12.981 55.2661C13.8251 57.5794 14.6222 59.5802 14.7629 59.7208C15.0911 60.1116 15.9665 60.0803 16.2478 59.6896C16.3572 59.5333 17.6858 55.2661 19.1707 50.2331C20.6712 45.2001 21.9373 41.0892 21.9842 41.0892C22.0311 41.0892 23.2972 45.1844 24.7821 50.1862C26.267 55.2036 27.5799 59.4551 27.705 59.6427C27.9863 60.0803 28.8616 60.1272 29.2055 59.7208C29.3462 59.5802 30.1433 57.5794 30.9874 55.2661C31.8158 52.9684 32.5661 51.0928 32.6286 51.0928C32.6911 51.0928 34.4105 52.3276 36.4424 53.8281C38.4744 55.3286 40.2407 56.5635 40.3657 56.5635C40.7721 56.5635 41.2254 56.2509 41.3661 55.8601C41.4755 55.5631 40.8659 53.3592 38.5369 45.5283C36.9114 40.0576 35.5828 35.5248 35.5828 35.4623C35.5828 35.3997 35.8485 35.2903 36.1611 35.2278C37.9117 34.8996 39.2403 34.0555 39.8343 32.8988C40.1938 32.2267 40.2407 31.4608 40.1312 28.2566C40.0844 26.4591 40.1156 26.3809 41.7412 24.4584C43.2417 22.6765 43.6325 21.9262 43.6325 20.6914C43.6325 19.4566 43.2417 18.7063 41.7412 16.9245C40.1156 15.0019 40.0844 14.9238 40.1312 13.1262C40.2407 9.93762 40.1938 9.15609 39.8499 8.49961C39.1622 7.20228 38.3806 6.73336 35.8172 6.07688C33.1288 5.38914 33.035 5.32661 31.6282 3.02893C30.0652 0.496783 29.2211 -0.0971772 27.3142 0.0122364C26.3764 0.0747585 25.7981 0.231064 24.5632 0.746871C22.2499 1.73159 21.8123 1.74722 19.6396 0.840654C18.1391 0.215433 17.6389 0.0747585 16.5917 0.0278669C15.5913 -0.0346552 15.2475 0.0122364 14.8254 0.246694ZM18.8425 2.74758C20.5149 3.43532 20.765 3.49784 21.9842 3.49784C23.2034 3.49784 23.4535 3.43532 25.1572 2.74758C27.4236 1.84101 28.0176 1.79412 28.7366 2.52875C29.0179 2.82573 29.5963 3.63852 30.0183 4.35752C31.4407 6.76462 32.0815 7.24917 34.8169 7.93691C37.0364 8.51524 37.349 8.62465 37.7398 9.06231C38.1774 9.53122 38.2712 10.2502 38.1149 12.2197C37.9742 14.0016 38.0993 15.3458 38.4744 16.0804C38.5995 16.3305 39.2716 17.2214 39.9749 18.0655C41.4911 19.8786 41.7724 20.4257 41.5224 21.1447C41.4286 21.4261 40.7252 22.4108 39.9593 23.3486C38.2087 25.4744 38.0055 25.9902 38.0836 28.2722C38.2087 31.9767 38.1618 32.2736 37.224 32.7113C36.9582 32.8363 35.8954 33.1646 34.8638 33.4303C33.8165 33.696 32.6911 34.0868 32.3004 34.3369C31.5657 34.7901 30.6279 35.9468 29.565 37.7287C28.846 38.9322 28.252 39.4324 27.5487 39.4011C27.2673 39.3855 26.2044 39.0416 25.1728 38.6353C23.4691 37.9475 23.2034 37.885 21.9842 37.885C20.765 37.885 20.5149 37.9475 18.8112 38.6353C16.0134 39.7607 15.6226 39.6981 14.4659 37.8068C13.2936 35.8999 12.4027 34.7901 11.6681 34.3369C11.2773 34.0868 10.1519 33.696 9.10466 33.4303C6.8695 32.852 6.3068 32.6175 6.02545 32.0704C5.80662 31.664 5.79099 31.2264 5.86914 28.2566C5.93166 25.9589 5.7441 25.4431 4.056 23.4111C2.47732 21.5042 2.19597 20.9571 2.44606 20.2381C2.53984 19.9568 3.24321 18.9721 4.00911 18.0342C5.7441 15.9241 5.93166 15.4239 5.86914 13.1262C5.79099 10.1564 5.80662 9.71879 6.02545 9.3124C6.3068 8.78096 6.8695 8.53087 9.08903 7.96817C11.9182 7.23354 12.4809 6.79588 14.1533 4.04491C15.5913 1.70033 15.9821 1.59092 18.8425 2.74758ZM11.0741 36.5095C11.2929 36.7596 11.8713 37.5724 12.3402 38.3539C13.7782 40.7141 14.7316 41.4331 16.326 41.4175C17.2794 41.4175 17.6702 41.3237 18.9988 40.7923C19.4521 40.6047 19.8585 40.4797 19.8741 40.4953C19.9366 40.5578 15.4975 55.4537 15.3881 55.5475C15.3412 55.5944 14.7473 54.1095 14.0752 52.2338C13.4031 50.3581 12.7153 48.7013 12.5746 48.5606C11.9963 47.9823 11.5899 48.1855 8.41692 50.5613C6.36932 52.1088 5.41586 52.734 5.49401 52.4995C5.55653 52.312 6.65067 48.6388 7.93237 44.3248C9.21407 40.0107 10.2926 36.3845 10.3395 36.275C10.4489 35.9937 10.6365 36.0406 11.0741 36.5095ZM36.0829 44.4654C37.4428 49.0139 38.5526 52.7496 38.5526 52.7809C38.5526 52.7965 37.1927 51.7962 35.5359 50.5457C32.3785 48.1855 31.9721 47.9823 31.4094 48.5606C31.2531 48.7013 30.5654 50.3581 29.8933 52.2338C29.2211 54.1095 28.6272 55.5944 28.5803 55.5475C28.4709 55.4537 24.0474 40.5578 24.0943 40.4953C24.1256 40.464 24.5476 40.6203 25.0478 40.8235C26.1888 41.3081 26.7984 41.4331 27.7831 41.4331C29.2524 41.4175 30.2215 40.636 31.6282 38.3539C32.5661 36.8377 33.2069 36.0562 33.457 36.1344C33.5508 36.1656 34.7231 39.917 36.0829 44.4654Z" fill="#1742E7"></path><path d="M19.921 8.26515C15.2475 9.10919 11.6524 12.1728 10.0425 16.6744C9.57358 17.9873 9.55795 18.1124 9.55795 20.6914C9.55795 23.2704 9.57358 23.3955 10.0425 24.7085C11.4961 28.7568 14.5753 31.664 18.6549 32.8363C20.4055 33.3365 23.5629 33.3365 25.3135 32.8363C29.3931 31.664 32.4723 28.7568 33.9259 24.7085C34.3948 23.3955 34.4105 23.2704 34.4105 20.6914C34.4105 18.1124 34.3948 17.9873 33.9259 16.6744C32.4723 12.5948 29.2837 9.625 25.1885 8.51523C24.0943 8.21825 20.9839 8.06195 19.921 8.26515ZM25.2979 10.7191C32.5348 13.22 34.8481 22.2232 29.7057 27.8033C28.549 29.0381 26.9391 30.0854 25.2822 30.6793C24.0631 31.117 23.7661 31.1482 21.9842 31.1482C20.2023 31.1482 19.9054 31.117 18.6862 30.6793C14.294 29.1163 11.5118 25.2555 11.5118 20.6914C11.5118 15.6896 14.888 11.5163 19.8741 10.3596C21.3902 10.0158 23.6723 10.1564 25.2979 10.7191Z" fill="#1742E7"></path><path d="M21.5309 13.1575C21.2652 13.2825 20.9213 13.8921 20.343 15.2207C19.8741 16.2523 19.4521 17.1745 19.3583 17.2683C19.2801 17.3465 18.2641 17.5184 17.1075 17.6278C15.9508 17.7372 14.9348 17.8779 14.8411 17.9248C14.5597 18.1124 14.3096 18.7376 14.4034 19.0346C14.4816 19.3003 15.2318 20.0662 17.0293 21.6761L17.7796 22.3482L17.3732 24.2239C16.9043 26.3809 16.8574 26.9124 17.1387 27.2562C17.5295 27.7251 18.2954 27.5376 20.1085 26.4747C21.062 25.912 21.9061 25.4587 21.9842 25.4587C22.0624 25.4587 22.9064 25.912 23.8599 26.4747C26.1732 27.8189 26.986 27.8502 26.986 26.5529C26.986 26.2402 26.814 25.1617 26.5796 24.1614L26.1888 22.3482L26.9391 21.6761C28.5178 20.2694 29.6432 19.0971 29.6432 18.847C29.6432 18.7063 29.4869 18.425 29.2993 18.2062C28.9711 17.8467 28.7522 17.7998 27.0641 17.6435C26.0325 17.5497 25.0478 17.4403 24.8759 17.409C24.6414 17.3621 24.3444 16.8463 23.7036 15.377C23.2503 14.2985 22.797 13.3607 22.7032 13.2825C22.3593 13.0168 21.9061 12.9699 21.5309 13.1575ZM22.4531 17.6591C23.0783 19.2378 23.1878 19.3159 24.7508 19.441L26.1107 19.566L25.0634 20.5507C24.4851 21.0822 24.0162 21.6449 24.0162 21.7855C24.0162 21.9262 24.1256 22.5358 24.2663 23.1298C24.4069 23.7394 24.4851 24.2552 24.4382 24.3021C24.4069 24.3333 23.8911 24.0832 23.2972 23.7394C22.7032 23.3955 22.1249 23.1141 21.9998 23.1141C21.8748 23.1141 21.2965 23.3955 20.6869 23.7394C20.0929 24.0832 19.5615 24.3489 19.5302 24.3021C19.4833 24.2552 19.5615 23.7394 19.7022 23.1298C19.8428 22.5358 19.9522 21.9262 19.9522 21.7855C19.9522 21.6449 19.4833 21.0822 18.905 20.5507L17.8578 19.566L19.2176 19.441C20.7807 19.3159 20.8901 19.2378 21.5153 17.6591C21.7341 17.1433 21.9373 16.7056 21.9842 16.7056C22.0311 16.7056 22.2343 17.1433 22.4531 17.6591Z" fill="#1742E7"></path></svg>