<svg xmlns="http://www.w3.org/2000/svg" viewBox="0 0 101 100" fill="none"><path d="M70.4136 41.9403C69.3295 41.9393 68.2566 41.7211 67.2583 41.2984C66.2601 40.8757 65.3567 40.2572 64.6015 39.4794C63.8464 38.7016 63.2548 37.7803 62.8618 36.77C62.4688 35.7597 62.2823 34.6808 62.3134 33.5972C62.3233 33.2546 62.4689 32.9299 62.7181 32.6945C62.9674 32.4592 63.3 32.3326 63.6426 32.3424C63.9853 32.3523 64.31 32.4979 64.5453 32.7472C64.7806 32.9964 64.9072 33.329 64.8974 33.6716C64.8682 34.66 65.105 35.6381 65.5831 36.5036C66.0613 37.3691 66.7631 38.0903 67.6154 38.5917C68.4676 39.0931 69.4389 39.3564 70.4277 39.354C71.4165 39.3516 72.3865 39.0836 73.2363 38.578C73.5309 38.4031 73.883 38.3525 74.2151 38.4372C74.5471 38.5219 74.8319 38.735 75.0068 39.0297C75.1817 39.3244 75.2323 39.6765 75.1476 40.0085C75.0629 40.3405 74.8498 40.6253 74.5551 40.8002C73.3022 41.5456 71.8715 41.9394 70.4136 41.9403Z" fill="#1742E7"></path><path d="M61.47 53.7013C61.2678 53.7011 61.0685 53.6534 60.8881 53.5621C60.7076 53.4708 60.5511 53.3385 60.4311 53.1758C60.3111 53.0131 60.2309 52.8244 60.197 52.6251C60.1631 52.4258 60.1765 52.2212 60.2359 52.028C60.8039 50.1907 62.0065 48.6151 63.6288 47.5825C65.2512 46.5499 67.1877 46.1276 69.0927 46.3908C69.2629 46.4115 69.4273 46.4659 69.5764 46.5507C69.7254 46.6356 69.856 46.7493 69.9606 46.8852C70.0653 47.0211 70.1418 47.1764 70.1858 47.3422C70.2297 47.5079 70.2402 47.6808 70.2167 47.8507C70.1932 48.0206 70.1361 48.184 70.0487 48.3316C69.9613 48.4792 69.8454 48.6079 69.7078 48.7102C69.5702 48.8125 69.4136 48.8864 69.2471 48.9276C69.0806 48.9688 68.9076 48.9764 68.7381 48.95C67.4405 48.7717 66.1218 49.0598 65.0168 49.763C63.9117 50.4662 63.0922 51.5388 62.7041 52.7897C62.6228 53.0536 62.4591 53.2845 62.237 53.4486C62.0149 53.6126 61.7461 53.7012 61.47 53.7013Z" fill="#1742E7"></path><path d="M67.4751 69.8252C66.3661 69.8244 65.2691 69.5962 64.2518 69.1548C63.2345 68.7133 62.3185 68.0679 61.5605 67.2585C60.8024 66.4491 60.2183 65.4929 59.8444 64.4488C59.4705 63.4048 59.3146 62.2952 59.3863 61.1886C59.3974 61.0189 59.4418 60.8531 59.5169 60.7006C59.5921 60.5481 59.6965 60.4118 59.8243 60.2997C59.9521 60.1875 60.1007 60.1017 60.2617 60.047C60.4227 59.9923 60.5929 59.9698 60.7625 59.9808C60.9322 59.9919 61.098 60.0363 61.2505 60.1114C61.4031 60.1866 61.5393 60.291 61.6514 60.4188C61.7636 60.5466 61.8495 60.6952 61.9042 60.8562C61.9589 61.0172 61.9813 61.1874 61.9703 61.3571C61.9055 62.3435 62.1068 63.3291 62.5532 64.2111C62.9996 65.0931 63.6747 65.839 64.5079 66.3709C65.3412 66.9028 66.3019 67.2012 67.2899 67.2348C68.2778 67.2685 69.2567 67.0361 70.1242 66.5622C70.4249 66.3977 70.7786 66.3594 71.1075 66.4557C71.4365 66.5521 71.7137 66.7751 71.8781 67.0758C72.0426 67.3766 72.0809 67.7303 71.9846 68.0592C71.8882 68.3882 71.6652 68.6654 71.3645 68.8298C70.172 69.4826 68.8345 69.8249 67.4751 69.8252Z" fill="#1742E7"></path><path d="M84.5023 50.337C84.5039 49.2699 84.294 48.2131 83.8847 47.2276C83.4754 46.2421 82.8749 45.3475 82.1178 44.5955C82.1757 44.5314 82.2346 44.4684 82.2914 44.4022C83.2515 43.2828 83.9276 41.9485 84.2626 40.5123C84.5976 39.0761 84.5816 37.5804 84.2159 36.1517C83.8502 34.723 83.1457 33.4035 82.1619 32.3048C81.1782 31.2062 79.9441 30.3608 78.5644 29.8402C78.8905 28.6418 78.9369 27.3845 78.6999 26.1653C78.4629 24.9462 77.9488 23.7978 77.1975 22.8089C76.4461 21.82 75.4775 21.0171 74.3665 20.462C73.2555 19.9069 72.0317 19.6147 70.7898 19.6077C70.371 17.3581 69.127 15.3461 67.3016 13.9662C65.4763 12.5862 63.2014 11.9379 60.9228 12.1483C58.6442 12.3587 56.5265 13.4126 54.9847 15.1034C53.4429 16.7943 52.5883 19.0001 52.5885 21.2883L52.5606 79.7961C52.5619 81.8978 53.38 83.9166 54.8422 85.4263C56.3043 86.936 58.296 87.8183 60.3965 87.8869C62.4971 87.9554 64.542 87.2049 66.0995 85.7937C67.6569 84.3826 68.605 82.4214 68.7433 80.3243C68.95 80.3511 69.1671 80.3739 69.38 80.3863C69.5619 80.3966 69.7417 80.4018 69.9216 80.4018C71.3457 80.4011 72.7501 80.069 74.0237 79.4317C75.2972 78.7944 76.405 77.8694 77.2592 76.73C78.1135 75.5905 78.6908 74.2679 78.9455 72.8668C79.2002 71.4656 79.1252 70.0244 78.7266 68.6572C79.7912 68.1285 80.7264 67.3721 81.4661 66.4416C82.2057 65.5111 82.7317 64.4294 83.0066 63.273C83.2816 62.1166 83.2989 60.9139 83.0572 59.7501C82.8155 58.5862 82.3209 57.4898 81.6082 56.5385C82.5128 55.7776 83.2404 54.8285 83.7402 53.7574C84.2401 52.6863 84.5001 51.519 84.5023 50.337ZM79.7271 54.736C79.5142 54.5902 79.2951 54.4528 79.0667 54.3225C78.1268 53.7998 77.0923 53.4694 76.0234 53.3506C74.9545 53.2318 73.8727 53.327 72.841 53.6306C71.8093 53.9342 70.8484 54.4402 70.0143 55.119C69.1801 55.7979 68.4895 56.636 67.9826 57.5845C67.9026 57.7341 67.8528 57.8981 67.8362 58.067C67.8195 58.2358 67.8363 58.4063 67.8855 58.5687C67.9348 58.7311 68.0155 58.8822 68.1231 59.0134C68.2308 59.1446 68.3632 59.2533 68.5128 59.3333C68.6625 59.4133 68.8264 59.4631 68.9953 59.4797C69.1642 59.4964 69.3346 59.4796 69.497 59.4304C69.6594 59.3812 69.8105 59.3004 69.9417 59.1928C70.0729 59.0851 70.1816 58.9527 70.2616 58.8031C70.6912 57.9993 71.3131 57.3144 72.072 56.8096C72.8308 56.3049 73.7028 55.996 74.6102 55.9105C75.5175 55.825 76.4319 55.9656 77.2717 56.3198C78.1114 56.674 78.8503 57.2306 79.4224 57.9401C79.9945 58.6495 80.382 59.4896 80.5501 60.3853C80.7183 61.2811 80.662 62.2045 80.3862 63.0731C80.1104 63.9418 79.6237 64.7285 78.9696 65.3632C78.3155 65.9978 77.5143 66.4605 76.6378 66.71C76.4231 66.7708 76.228 66.8862 76.0712 67.045C75.9145 67.2038 75.8016 67.4004 75.7435 67.6158C75.6854 67.8312 75.6841 68.0579 75.7398 68.274C75.7954 68.49 75.9061 68.6879 76.061 68.8484C76.4595 69.8779 76.5931 70.991 76.4497 72.0856C76.3062 73.1801 75.8902 74.2212 75.2399 75.1132C74.5896 76.0053 73.7258 76.7198 72.7276 77.1912C71.7294 77.6627 70.6288 77.876 69.5268 77.8116C69.3293 77.8003 69.1309 77.7796 68.9366 77.7506C68.7909 77.7295 68.6427 77.7333 68.4984 77.762C68.2682 76.8737 67.8878 76.0313 67.3738 75.2711C67.2798 75.1282 67.1584 75.0055 67.0166 74.9099C66.8747 74.8143 66.7154 74.7479 66.5477 74.7144C66.38 74.6809 66.2073 74.681 66.0396 74.7148C65.872 74.7485 65.7127 74.8152 65.571 74.911C65.4294 75.0068 65.3081 75.1297 65.2143 75.2727C65.1205 75.4157 65.056 75.5759 65.0246 75.744C64.9932 75.9121 64.9955 76.0847 65.0313 76.252C65.0671 76.4192 65.1358 76.5776 65.2333 76.7181C65.7151 77.4333 66.0226 78.2515 66.1311 79.107C66.2395 79.9625 66.1459 80.8315 65.8578 81.6443C65.5697 82.4571 65.095 83.191 64.4719 83.7872C63.8489 84.3834 63.0947 84.8252 62.27 85.0772C61.4453 85.3293 60.573 85.3844 59.7231 85.2384C58.8732 85.0923 58.0694 84.749 57.3761 84.2361C56.6829 83.7232 56.1195 83.055 55.7313 82.285C55.343 81.515 55.1406 80.6647 55.1404 79.8023L55.1683 21.2935C55.1687 19.6564 55.7781 18.078 56.878 16.8653C57.9778 15.6526 59.4893 14.8924 61.1186 14.7325C62.7479 14.5727 64.3784 15.0246 65.6929 16.0004C67.0075 16.9762 67.912 18.406 68.2307 20.0119C66.6069 20.5437 65.1924 21.5745 64.1887 22.9573C63.1851 24.3401 62.6435 26.0044 62.6411 27.713C62.6411 28.0557 62.7772 28.3843 63.0195 28.6266C63.2618 28.8689 63.5904 29.005 63.933 29.005C64.2757 29.005 64.6043 28.8689 64.8466 28.6266C65.0889 28.3843 65.225 28.0557 65.225 27.713C65.225 26.2498 65.8063 24.8465 66.841 23.8118C67.8757 22.7771 69.279 22.1958 70.7422 22.1958C72.2055 22.1958 73.6088 22.7771 74.6435 23.8118C75.6782 24.8465 76.2595 26.2498 76.2595 27.713C76.2618 28.5497 76.0719 29.3758 75.7045 30.1275L75.6951 30.1471C75.6827 30.174 75.6714 30.2009 75.661 30.2288C75.6507 30.2567 75.6497 30.2598 75.6445 30.2753C75.6393 30.2908 75.629 30.3218 75.6218 30.3466C75.6145 30.3714 75.6114 30.3869 75.6063 30.4076C75.6011 30.4283 75.6001 30.4303 75.598 30.4417C75.5975 30.451 75.5975 30.4603 75.598 30.4696C75.598 30.4923 75.5908 30.514 75.5877 30.5368C75.5846 30.5595 75.5825 30.5781 75.5815 30.5998V30.6608C75.5815 30.6836 75.5815 30.7073 75.5815 30.7301C75.5815 30.7528 75.5815 30.7642 75.5815 30.7817C75.5823 30.8074 75.5847 30.8329 75.5887 30.8582C75.5887 30.8727 75.5887 30.8872 75.5949 30.9016C75.6011 30.9161 75.6042 30.9554 75.6104 30.9823C75.6166 31.0091 75.6176 31.0091 75.6207 31.0226C75.6238 31.036 75.6352 31.0753 75.6435 31.1011L75.659 31.1435C75.6683 31.1673 75.6776 31.191 75.6879 31.2148C75.6982 31.2386 75.7024 31.2469 75.7107 31.2624C75.7189 31.2779 75.7303 31.3037 75.7417 31.3233C75.753 31.343 75.7623 31.3585 75.7737 31.3761C75.7851 31.3936 75.7944 31.4102 75.8057 31.4267L75.8461 31.4815L75.8812 31.5249C75.8957 31.5425 75.9112 31.559 75.9267 31.5755C75.9422 31.5921 75.9525 31.6045 75.967 31.6179L76.0135 31.6603L76.0631 31.7027L76.1086 31.7368L76.1696 31.7791L76.213 31.805C76.2357 31.8195 76.2595 31.8319 76.2833 31.8443L76.3029 31.8546L76.3267 31.8649L76.4114 31.9011L76.4652 31.9197C76.4879 31.928 76.5117 31.9342 76.5354 31.9404L76.6047 31.958H76.6171C78.1309 32.2612 79.4904 33.0859 80.4587 34.2884C81.427 35.491 81.9427 36.9951 81.916 38.5387C81.8893 40.0824 81.3219 41.5678 80.3127 42.7362C79.3034 43.9045 77.9162 44.6817 76.3928 44.9325C76.0545 44.9873 75.7519 45.1742 75.5515 45.4522C75.3511 45.7302 75.2693 46.0764 75.3241 46.4146C75.3789 46.7529 75.5659 47.0555 75.8438 47.2559C76.1218 47.4564 76.468 47.5382 76.8062 47.4833C77.978 47.2923 79.1014 46.8748 80.1137 46.2544C80.7129 46.7993 81.1847 47.4694 81.4957 48.2173C81.8066 48.9651 81.9489 49.7723 81.9126 50.5813C81.8763 51.3904 81.6622 52.1816 81.2856 52.8986C80.9089 53.6155 80.3789 54.2408 79.7333 54.7298L79.7271 54.736Z" fill="#1742E7"></path><path d="M47.7989 28.85H42.6672C40.6621 28.85 39.0011 28.266 37.5903 27.066C36.66 26.2774 35.8539 25.5725 35.2771 25.0671C35.8165 24.1243 35.9986 23.019 35.7903 21.953C35.582 20.887 34.9971 19.9315 34.1425 19.2612C33.2879 18.5908 32.2207 18.2503 31.1358 18.3018C30.0508 18.3533 29.0207 18.7934 28.2334 19.5417C27.4462 20.2901 26.9545 21.2966 26.8481 22.3775C26.7417 23.4585 27.0278 24.5416 27.654 25.429C28.2802 26.3165 29.2048 26.949 30.2589 27.211C31.3129 27.473 32.4261 27.3471 33.395 26.8562C33.9851 27.373 34.8802 28.1565 35.9159 29.0381C37.8146 30.6525 40.0223 31.4381 42.6672 31.4381H47.7989C48.1416 31.4381 48.4702 31.3019 48.7125 31.0597C48.9548 30.8174 49.0909 30.4887 49.0909 30.1461C49.0909 29.8034 48.9548 29.4748 48.7125 29.2325C48.4702 28.9902 48.1416 28.8541 47.7989 28.8541V28.85ZM29.4219 22.8191C29.4217 22.4359 29.5351 22.0613 29.7478 21.7427C29.9605 21.424 30.263 21.1756 30.6169 21.0288C30.9708 20.8821 31.3603 20.8436 31.7361 20.9182C32.1119 20.9928 32.4571 21.1772 32.7281 21.448C32.9991 21.7189 33.1836 22.064 33.2585 22.4398C33.3333 22.8155 33.295 23.205 33.1484 23.559C33.0018 23.913 32.7536 24.2156 32.435 24.4284C32.1165 24.6413 31.742 24.7549 31.3588 24.7549C30.8456 24.7541 30.3535 24.5499 29.9905 24.1871C29.6274 23.8243 29.423 23.3323 29.4219 22.8191Z" fill="#1742E7"></path><path d="M37.4745 79.9821C35.4694 79.9821 33.8094 79.3982 32.3976 78.1982C31.4674 77.4096 30.6612 76.7047 30.0844 76.1992C30.6252 75.2572 30.809 74.1519 30.6021 73.0855C30.3953 72.0191 29.8116 71.0628 28.9578 70.3912C28.104 69.7196 27.0371 69.3777 25.952 69.4278C24.8669 69.478 23.836 69.917 23.0479 70.6645C22.2597 71.412 21.7668 72.4181 21.6592 73.499C21.5517 74.58 21.8366 75.6635 22.462 76.5517C23.0875 77.4398 24.0116 78.0733 25.0655 78.3363C26.1195 78.5994 27.2329 78.4744 28.2023 77.9842C28.7925 78.501 29.6875 79.2845 30.7242 80.1661C32.6167 81.7837 34.8275 82.5661 37.4745 82.5661H47.802C48.1447 82.5661 48.4733 82.43 48.7156 82.1877C48.9579 81.9454 49.094 81.6168 49.094 81.2741C49.094 80.9315 48.9579 80.6028 48.7156 80.3605C48.4733 80.1183 48.1447 79.9821 47.802 79.9821H37.4745ZM24.2261 73.9543C24.2259 73.5712 24.3393 73.1966 24.552 72.8779C24.7647 72.5593 25.0672 72.3108 25.4211 72.1641C25.775 72.0173 26.1645 71.9788 26.5403 72.0534C26.9161 72.1281 27.2613 72.3125 27.5323 72.5833C27.8033 72.8541 27.9878 73.1993 28.0627 73.575C28.1375 73.9508 28.0992 74.3403 27.9526 74.6943C27.806 75.0483 27.5578 75.3508 27.2392 75.5637C26.9207 75.7766 26.5462 75.8902 26.163 75.8902C25.6498 75.8894 25.1577 75.6852 24.7947 75.3223C24.4317 74.9595 24.2272 74.4676 24.2261 73.9543Z" fill="#1742E7"></path><path d="M47.7989 49.3045H31.4994C28.8545 49.3045 26.6416 50.09 24.7481 51.7045C23.7145 52.5871 22.8163 53.3665 22.2261 53.8864C21.2568 53.3968 20.1437 53.2723 19.0901 53.5356C18.0366 53.799 17.113 54.4326 16.488 55.3207C15.8631 56.2089 15.5786 57.2922 15.6864 58.3728C15.7943 59.4534 16.2874 60.4591 17.0755 61.2062C17.8637 61.9532 18.8943 62.3918 19.9792 62.4417C21.064 62.4916 22.1305 62.1495 22.984 61.478C23.8374 60.8064 24.4207 59.8502 24.6273 58.7841C24.8339 57.718 24.6501 56.6131 24.1093 55.6713C24.685 55.1659 25.4964 54.461 26.4225 53.6724C27.8333 52.4724 29.4943 51.8884 31.4994 51.8884H47.7989C48.1416 51.8884 48.4702 51.7523 48.7125 51.51C48.9548 51.2677 49.0909 50.9391 49.0909 50.5965C49.0909 50.2538 48.9548 49.9252 48.7125 49.6829C48.4702 49.4406 48.1416 49.3045 47.7989 49.3045ZM20.19 59.8563C19.8069 59.8565 19.4323 59.7431 19.1136 59.5304C18.795 59.3177 18.5465 59.0152 18.3998 58.6613C18.253 58.3074 18.2145 57.9179 18.2891 57.5421C18.3637 57.1663 18.5481 56.8211 18.819 56.5501C19.0898 56.2791 19.4349 56.0946 19.8107 56.0197C20.1865 55.9449 20.576 55.9832 20.9299 56.1298C21.2839 56.2764 21.5865 56.5246 21.7994 56.8432C22.0123 57.1617 22.1259 57.5362 22.1259 57.9194C22.1253 58.4327 21.9212 58.9249 21.5583 59.288C21.1954 59.6511 20.7034 59.8555 20.19 59.8563Z" fill="#1742E7"></path><path d="M47.7989 21.2067H41.0734C40.7308 21.2067 40.4021 21.0706 40.1599 20.8283C39.9176 20.586 39.7814 20.2574 39.7814 19.9147C39.7814 19.572 39.9176 19.2434 40.1599 19.0011C40.4021 18.7588 40.7308 18.6227 41.0734 18.6227H47.7989C48.1416 18.6227 48.4702 18.7588 48.7125 19.0011C48.9548 19.2434 49.0909 19.572 49.0909 19.9147C49.0909 20.2574 48.9548 20.586 48.7125 20.8283C48.4702 21.0706 48.1416 21.2067 47.7989 21.2067Z" fill="#1742E7"></path><path d="M47.7989 39.0762H27.7475C27.4372 38.0356 26.7627 37.1414 25.8473 36.5573C24.9319 35.9731 23.8369 35.7379 22.7624 35.8947C21.6878 36.0515 20.7057 36.5898 19.9954 37.4112C19.2852 38.2327 18.8943 39.2823 18.8943 40.3682C18.8943 41.4541 19.2852 42.5037 19.9954 43.3251C20.7057 44.1465 21.6878 44.6849 22.7624 44.8417C23.8369 44.9985 24.9319 44.7633 25.8473 44.1791C26.7627 43.5949 27.4372 42.7008 27.7475 41.6602H47.7989C48.1416 41.6602 48.4702 41.524 48.7125 41.2817C48.9548 41.0395 49.0909 40.7108 49.0909 40.3682C49.0909 40.0255 48.9548 39.6969 48.7125 39.4546C48.4702 39.2123 48.1416 39.0762 47.7989 39.0762ZM23.4179 42.3051C23.0412 42.3055 22.6726 42.1961 22.3571 41.9903C22.0417 41.7845 21.7931 41.4911 21.6418 41.1462C21.4905 40.8012 21.4431 40.4196 21.5053 40.0482C21.5676 39.6767 21.7368 39.3314 21.9922 39.0546C22.2477 38.7778 22.5783 38.5815 22.9436 38.4897C23.3089 38.3979 23.693 38.4146 24.049 38.5377C24.405 38.6609 24.7173 38.8852 24.9477 39.1831C25.1782 39.4811 25.3168 39.8397 25.3465 40.2152C25.3403 40.266 25.3372 40.3171 25.3372 40.3682C25.3371 40.4193 25.3402 40.4704 25.3465 40.5212C25.3078 41.0064 25.088 41.4593 24.7306 41.7898C24.3733 42.1204 23.9046 42.3043 23.4179 42.3051Z" fill="#1742E7"></path><path d="M47.7989 59.5307H39.7298C39.4194 58.4904 38.7451 57.5965 37.8299 57.0125C36.9147 56.4285 35.8199 56.1935 34.7457 56.3503C33.6715 56.5071 32.6895 57.0453 31.9795 57.8665C31.2694 58.6877 30.8787 59.7371 30.8787 60.8227C30.8787 61.9083 31.2694 62.9577 31.9795 63.7789C32.6895 64.6001 33.6715 65.1383 34.7457 65.2951C35.8199 65.4519 36.9147 65.2169 37.8299 64.6329C38.7451 64.0489 39.4194 63.155 39.7298 62.1147H47.7989C48.1416 62.1147 48.4702 61.9785 48.7125 61.7363C48.9548 61.494 49.0909 61.1653 49.0909 60.8227C49.0909 60.48 48.9548 60.1514 48.7125 59.9091C48.4702 59.6668 48.1416 59.5307 47.7989 59.5307ZM35.396 62.7586C35.0196 62.7588 34.6512 62.6493 34.3361 62.4435C34.021 62.2376 33.7727 61.9443 33.6216 61.5996C33.4706 61.2548 33.4233 60.8734 33.4856 60.5022C33.5479 60.131 33.7171 59.786 33.9725 59.5094C34.2278 59.2329 34.5582 59.0368 34.9233 58.9451C35.2884 58.8534 35.6723 58.8702 36.028 58.9933C36.3837 59.1164 36.6958 59.3406 36.9261 59.6383C37.1564 59.9361 37.2949 60.2945 37.3246 60.6697C37.3105 60.7726 37.3105 60.8769 37.3246 60.9798C37.285 61.4637 37.0651 61.915 36.7085 62.2444C36.3519 62.5739 35.8846 62.7574 35.3991 62.7586H35.396Z" fill="#1742E7"></path><path d="M47.7989 72.3419H36.6125C36.2698 72.3419 35.9412 72.2058 35.6989 71.9635C35.4566 71.7212 35.3205 71.3926 35.3205 71.05C35.3205 70.7073 35.4566 70.3787 35.6989 70.1364C35.9412 69.8941 36.2698 69.758 36.6125 69.758H47.7989C48.1416 69.758 48.4702 69.8941 48.7125 70.1364C48.9548 70.3787 49.0909 70.7073 49.0909 71.05C49.0909 71.3926 48.9548 71.7212 48.7125 71.9635C48.4702 72.2058 48.1416 72.3419 47.7989 72.3419Z" fill="#1742E7"></path></svg>