<svg xmlns="http://www.w3.org/2000/svg" viewBox="0 0 61 60" fill="none"><path d="M18.8105 0.168487C16.4785 0.50833 13.4082 1.44583 11.4863 2.41849C5.76758 5.28958 1.8418 10.2232 0.564453 16.1529C0.259766 17.5708 0.259766 21.5318 0.564453 22.9497C1.26758 26.1958 2.67383 29.0435 4.79492 31.5279C5.54492 32.4068 5.5918 32.4419 6.0957 32.4419C6.49414 32.4419 6.64648 32.3833 6.78711 32.1841C7.15039 31.6685 7.0332 31.2583 6.25977 30.3794C4.34961 28.1997 3.01367 25.5161 2.38086 22.6216C2.05273 21.1099 2.0293 18.2271 2.33398 16.7036C2.69727 14.8052 3.62305 12.4966 4.60742 10.9497C5.69727 9.2388 7.68945 7.11771 9.31836 5.94583C10.6309 4.99661 11.2285 4.63333 12.7168 3.91849C19.8418 0.496612 28.4199 1.18802 34.8887 5.72317C36.9512 7.16458 39.2012 9.67239 40.4668 11.9341C41.2402 13.3286 41.9785 15.5083 42.248 17.2661C42.4355 18.4497 42.4004 20.9576 42.1895 22.188C41.8379 24.2154 40.7949 26.7935 39.6348 28.5161C37.7129 31.3755 35.2285 33.4966 31.7363 35.2427C29.8379 36.1919 28.6309 37.1763 23.9785 41.5591C22.7012 42.7661 22.5605 42.8599 22.5137 42.6138C22.4785 42.4615 22.3379 41.7583 22.209 41.0552C21.7988 38.9224 21.4238 37.856 20.9902 37.4927C20.8848 37.4107 20.3691 37.2935 19.8418 37.2349C16.666 36.8716 13.3496 35.7583 10.8652 34.2232C10.3262 33.8833 9.76367 33.5786 9.62305 33.5435C8.94336 33.3794 8.33398 34.106 8.60352 34.7622C8.86133 35.3716 11.9668 37.0708 14.3105 37.8794C15.6816 38.3482 17.8145 38.8404 18.9629 38.9576C19.5488 39.0161 19.7832 39.0865 19.8652 39.2505C20.0293 39.5435 20.498 41.8052 20.8027 43.6919C21.0137 45.0513 21.0957 45.3091 21.3418 45.5318C21.5059 45.6841 21.7637 45.8013 21.916 45.8013C22.2676 45.8013 22.5254 45.5786 25.3613 42.8365C26.8848 41.3716 27.6699 40.6919 27.7285 40.7857C27.7637 40.8677 27.834 41.2896 27.8809 41.7232C27.9277 42.1568 28.0918 42.9771 28.2559 43.5279C29.3223 47.2427 31.9941 50.3482 35.7441 52.2701C37.2207 53.0201 37.8418 53.524 40.9824 56.5122C42.9746 58.399 43.209 58.5747 43.584 58.5747C44.2168 58.5747 44.416 58.2935 44.5801 57.2154C44.6504 56.7115 44.8145 55.7622 44.9551 55.1177L45.2012 53.9458L46.4199 53.7466C51.9395 52.8443 56.6152 49.0708 58.2441 44.231C58.7129 42.8365 58.8887 41.7115 58.8887 40.1177C58.8887 36.6138 57.6816 33.6372 55.209 31.0591C52.4668 28.1997 48.9043 26.5591 44.6504 26.2076L43.0098 26.0669L43.3379 25.0943C44.0059 23.1021 44.1699 22.0357 44.1699 19.6099C44.1816 17.149 44.041 16.1646 43.3965 14.1607C42.4238 11.1138 40.8184 8.61771 38.2988 6.19192C36.6465 4.58646 35.2051 3.57864 33.0957 2.51224C30.5879 1.25833 28.209 0.50833 25.502 0.156768C23.9434 -0.0541695 20.2988 -0.0541695 18.8105 0.168487ZM45.7051 28.1646C48.5645 28.6333 51.0371 29.7818 53.123 31.5982C55.7246 33.8599 57.3301 37.5279 57.0957 40.6451C56.6387 46.5044 51.8457 51.1451 45.2949 52.0708C44.2754 52.2115 44.041 52.2818 43.877 52.5044C43.6543 52.7857 43.2793 53.9927 43.0684 55.0826L42.9395 55.7622L41.2168 54.1568C38.9082 52.0122 37.9824 51.2974 36.7402 50.6763C33.2598 48.9419 30.8105 46.0708 29.8965 42.6372C29.7793 42.2154 29.6621 41.2193 29.627 40.399L29.5566 38.9341L30.459 38.2076C31.0098 37.7622 31.8887 37.2349 32.6855 36.8482C36.3066 35.1021 39.998 31.7622 41.6855 28.6919L42.0723 27.9888H43.3613C44.0762 27.9888 45.1309 28.0708 45.7051 28.1646Z" fill="#1742E7"></path><path d="M34.9121 36.7076C34.3027 36.9771 34.1855 37.774 34.7012 38.1724C35.0059 38.4185 35.0996 38.4185 43.3262 38.4185C48.5293 38.4185 51.7168 38.3716 51.8574 38.3013C52.3496 38.0435 52.373 37.1646 51.916 36.7779C51.6113 36.5201 35.4746 36.4615 34.9121 36.7076Z" fill="#1742E7"></path><path d="M34.6895 42.6958C34.3379 43.0357 34.3145 43.563 34.6191 43.938L34.8418 44.2193H37.959C41.416 44.2193 41.3691 44.231 41.5098 43.4341C41.5566 43.0826 41.5215 42.9536 41.2754 42.7076L40.9707 42.4029H34.9707L34.6895 42.6958Z" fill="#1742E7"></path><path d="M42.8691 42.5435C42.541 42.7076 42.3418 43.2583 42.4824 43.6216C42.7285 44.2779 42.7637 44.2779 47.3457 44.2779C51.9277 44.2779 51.9629 44.2779 52.209 43.6216C52.3613 43.2466 52.1504 42.6958 51.7871 42.5318C51.4004 42.356 43.2441 42.3677 42.8691 42.5435Z" fill="#1742E7"></path><path d="M20.0527 5.95755C19.291 6.19192 18.9277 6.81302 18.9277 7.89114C18.9277 8.52396 18.8926 8.6763 18.7285 8.73489C18.6113 8.77005 18.0723 8.98099 17.5449 9.21536L16.5605 9.62552L16.0098 9.07474C15.4121 8.47708 14.9199 8.28958 14.2285 8.39505C13.9121 8.44192 13.5371 8.74661 12.3887 9.87161C10.8301 11.395 10.6074 11.6997 10.6074 12.3325C10.6074 12.9185 10.7715 13.27 11.3105 13.856L11.791 14.3833L10.9238 16.5865L10.0566 16.6568C9.0957 16.7271 8.7207 16.9146 8.38086 17.4771C8.16992 17.8169 8.14648 18.0747 8.14648 20.0201C8.14648 21.9654 8.16992 22.2232 8.38086 22.563C8.70898 23.1021 9.16602 23.3013 10.1387 23.3013C10.666 23.3013 10.959 23.3482 10.959 23.4302C10.959 23.5005 11.1465 24.0396 11.3809 24.6138L11.8145 25.6685L11.334 26.149C10.6074 26.899 10.4082 27.731 10.7715 28.4341C10.9707 28.8091 13.4902 31.3052 13.8535 31.4927C13.9941 31.563 14.3809 31.6216 14.709 31.6216C15.2715 31.6216 15.3535 31.5865 15.9395 31.024L16.5723 30.4263L17.5449 30.8365C18.084 31.0591 18.6113 31.2701 18.7285 31.3052C18.8926 31.3638 18.9277 31.5161 18.9277 32.149C18.9277 33.0396 19.1152 33.4732 19.6543 33.8716C20.0293 34.1294 20.123 34.1411 22.209 34.1411C24.166 34.1411 24.4121 34.1177 24.7754 33.9068C25.3613 33.5669 25.6074 33.0044 25.6074 32.0669C25.6074 31.5044 25.6543 31.2701 25.7598 31.2701C25.8301 31.2701 26.3457 31.0826 26.8965 30.8599L27.8926 30.4615L28.3027 30.8482C28.9824 31.4927 29.252 31.6216 29.8965 31.6216C30.6465 31.6216 30.998 31.3755 32.5332 29.7818C34.1738 28.0826 34.3027 27.438 33.2129 26.2896L32.6387 25.6802L32.9785 24.9302C33.1543 24.5201 33.377 23.981 33.4473 23.7349L33.5996 23.3013H34.4316C35.4277 23.3013 35.8965 23.0786 36.1895 22.4458C36.4824 21.8247 36.4824 18.1451 36.1777 17.5591C35.8965 16.9966 35.3574 16.7154 34.373 16.6451C33.7637 16.5982 33.541 16.5396 33.4941 16.399C33.459 16.2935 33.248 15.7896 33.0371 15.274L32.6387 14.3365L33.166 13.8091C33.9629 13.0005 34.1035 12.3911 33.7051 11.606C33.459 11.149 31.127 8.78177 30.6699 8.54739C30.3184 8.35989 29.4629 8.35989 29.0996 8.53567C28.959 8.61771 28.6191 8.88724 28.3613 9.13333L27.8809 9.59036L26.9082 9.18021C26.3809 8.95755 25.8652 8.77005 25.7715 8.77005C25.6426 8.77005 25.6074 8.58255 25.6074 7.97317C25.6074 7.03567 25.3613 6.47317 24.7754 6.13333C24.4238 5.92239 24.1426 5.89896 22.3848 5.87552C21.2949 5.8638 20.2402 5.89896 20.0527 5.95755ZM23.7324 8.61771C23.7324 9.91849 23.8262 10.0474 25.0801 10.4693C25.666 10.6685 26.5215 11.0318 26.9785 11.2661C27.4473 11.5005 27.9629 11.6997 28.1387 11.6997C28.3496 11.6997 28.6543 11.4888 29.1699 10.9966L29.8965 10.3052L31.9824 12.3911L31.2559 13.1529C30.8223 13.5982 30.5293 14.0083 30.5293 14.1607C30.5293 14.3013 30.7051 14.7349 30.9277 15.1333C31.1504 15.5318 31.502 16.3638 31.7012 16.9732C31.9004 17.5826 32.1816 18.1802 32.3105 18.2857C32.498 18.4497 32.7676 18.4966 33.5293 18.4966H34.5137V21.5435H33.541C32.2988 21.5435 32.1465 21.649 31.8184 22.7388C31.6777 23.2076 31.3262 24.063 31.0449 24.6372C30.6582 25.4107 30.5293 25.774 30.5879 25.9849C30.623 26.149 30.9629 26.5943 31.3262 26.9693L31.9824 27.6372L30.9395 28.6919L29.8965 29.7349L29.1699 29.0435C28.6543 28.5513 28.3496 28.3404 28.1387 28.3404C27.9629 28.3404 27.2832 28.5982 26.627 28.9146C25.9707 29.231 25.1504 29.5591 24.8105 29.6411C23.9199 29.8638 23.8027 30.0396 23.7559 31.2818L23.709 32.3247H20.6855V31.3169C20.6855 30.7661 20.627 30.2154 20.5684 30.0982C20.4863 29.9576 20.1348 29.7818 19.5957 29.6294C19.1387 29.4888 18.2832 29.1372 17.7207 28.856C17.1465 28.5747 16.5488 28.3404 16.3848 28.3404C16.1855 28.3404 15.8574 28.563 15.3418 29.0669L14.5801 29.7935L12.4941 27.7076L13.1855 26.981C14.0527 26.0786 14.0762 25.8443 13.4316 24.5904C13.1738 24.1099 12.8574 23.3247 12.7168 22.8443C12.3418 21.6138 12.2363 21.5435 10.959 21.5435H9.9043V18.4966H10.959C12.2363 18.4966 12.3418 18.4263 12.7051 17.1958C12.8574 16.7271 13.1738 15.9302 13.4316 15.4263C14.0645 14.1607 14.041 13.9497 13.1855 13.0591L12.4941 12.3325L14.5801 10.2466L15.3418 10.9732C15.8574 11.4771 16.1855 11.6997 16.3965 11.6997C16.5605 11.6997 17.0879 11.4888 17.5684 11.231C18.0605 10.9849 18.9043 10.6333 19.4551 10.4693C20.0879 10.27 20.498 10.0825 20.5684 9.94192C20.627 9.82474 20.6855 9.27396 20.6855 8.72317V7.71536H23.7324V8.61771Z" fill="#1742E7"></path><path d="M20.4629 13.7505C18.2715 14.3599 16.502 16.2115 15.9277 18.4966C15.6582 19.5747 15.752 21.2154 16.1621 22.2935C16.9121 24.274 18.5527 25.7505 20.5801 26.2896C20.9316 26.3833 21.7051 26.4654 22.3027 26.4654C24.1895 26.4654 25.7363 25.7857 27.0371 24.3794C30.1426 21.0161 28.7949 15.4849 24.4707 13.9029C23.5801 13.5747 21.4004 13.4927 20.4629 13.7505ZM24.1191 15.7779C25.8301 16.5747 26.8965 18.1802 26.8965 19.9615C26.8965 22.3169 25.3145 24.1685 22.9121 24.6138C20.0176 25.1529 17.1582 22.3169 17.6387 19.3638C17.8613 18.0279 18.7988 16.6333 19.9238 15.9771C21.166 15.2505 22.8301 15.1685 24.1191 15.7779Z" fill="#1742E7"></path></svg>