<svg xmlns="http://www.w3.org/2000/svg" viewBox="0 0 112 77" fill="none"><path d="M60.9391 27.1599C60.9391 26.799 60.5602 26.5945 59.694 26.2155C59.5978 26.1734 59.4955 26.1313 59.3993 26.0832C59.303 26.0411 59.2128 25.999 59.1166 25.9569C58.1902 25.5478 57.0354 25.0426 57.0354 23.7373C57.0354 22.6305 57.8654 21.6922 58.9842 21.4155V20.2847C58.9842 19.8997 59.297 19.5869 59.682 19.5869C60.0669 19.5869 60.3797 19.8997 60.3797 20.2847V21.4155C61.5045 21.6922 62.3286 22.6305 62.3286 23.7373C62.3286 24.1223 62.0158 24.4351 61.6308 24.4351C61.2459 24.4351 60.9331 24.1223 60.9331 23.7373C60.9331 23.1779 60.3677 22.7208 59.682 22.7208C58.9902 22.7208 58.4308 23.1779 58.4308 23.7373C58.4308 24.0982 58.8098 24.3027 59.676 24.6817C59.7722 24.7238 59.8745 24.7659 59.9707 24.814C60.0669 24.8561 60.1572 24.8982 60.2534 24.9403C61.1797 25.3493 62.3346 25.8546 62.3346 27.1599C62.3346 28.2666 61.5045 29.205 60.3857 29.4817V30.6125C60.3857 30.9975 60.0729 31.3102 59.688 31.3102C59.303 31.3102 58.9902 30.9975 58.9902 30.6125V29.4817C57.8654 29.205 57.0414 28.2666 57.0414 27.1599C57.0414 26.7749 57.3541 26.4621 57.7391 26.4621C58.1241 26.4621 58.4369 26.7749 58.4369 27.1599C58.4369 27.7193 59.0023 28.1764 59.688 28.1764C60.3737 28.1764 60.9391 27.7193 60.9391 27.1599ZM44.885 27.3884V23.5027C44.885 22.829 45.3481 22.2576 46.0038 22.1133L48.5541 21.5659C48.5602 21.5659 48.5662 21.5599 48.5662 21.5599C48.5662 21.5599 48.5662 21.5539 48.5722 21.5478C48.7166 21.1388 48.885 20.7298 49.0775 20.3388C49.0835 20.3328 49.0835 20.3268 49.0835 20.3268C49.0835 20.3268 49.0835 20.3208 49.0775 20.3148L47.6579 18.1253C47.291 17.5599 47.3692 16.8321 47.8444 16.3508L50.5932 13.602C51.0684 13.1268 51.8023 13.0486 52.3677 13.4155L54.5572 14.8351C54.5632 14.8411 54.5692 14.8411 54.5692 14.8411C54.5692 14.8411 54.5752 14.8411 54.5812 14.8351C54.9722 14.6426 55.3812 14.4742 55.7902 14.3298C55.7963 14.3298 55.8023 14.3238 55.8023 14.3238C55.8023 14.3238 55.8023 14.3178 55.8083 14.3118L56.3557 11.7614C56.5 11.0997 57.0654 10.6426 57.7451 10.6426H61.6308C62.3045 10.6426 62.876 11.1057 63.0203 11.7614L63.5677 14.3118C63.5677 14.3178 63.5737 14.3238 63.5737 14.3238C63.5737 14.3238 63.5797 14.3238 63.5857 14.3298C63.9948 14.4742 64.4038 14.6426 64.7948 14.8351C64.8008 14.8411 64.8068 14.8411 64.8068 14.8411C64.8068 14.8411 64.8128 14.8411 64.8188 14.8351L67.0083 13.4155C67.5737 13.0486 68.3015 13.1268 68.7827 13.602L71.5316 16.3508C72.0068 16.826 72.085 17.5599 71.7181 18.1253L70.2985 20.3148C70.2925 20.3208 70.2925 20.3268 70.2925 20.3268C70.2925 20.3268 70.2925 20.3328 70.2985 20.3388C70.491 20.7298 70.6594 21.1388 70.8038 21.5478C70.8038 21.5539 70.8098 21.5599 70.8098 21.5599C70.8098 21.5599 70.8158 21.5599 70.8218 21.5659L73.3722 22.1133C74.0338 22.2576 74.491 22.823 74.491 23.5027V27.3884C74.491 28.0621 74.0278 28.6336 73.3722 28.7779L70.8218 29.3253C70.8158 29.3253 70.8098 29.3313 70.8098 29.3313C70.8098 29.3313 70.8098 29.3373 70.8038 29.3433C70.6594 29.7524 70.491 30.1614 70.2985 30.5524C70.2925 30.5584 70.2925 30.5644 70.2925 30.5644C70.2925 30.5644 70.2925 30.5704 70.2985 30.5764L71.7181 32.7659C72.085 33.3313 72.0068 34.0591 71.5316 34.5403L68.7827 37.2892C68.3075 37.7644 67.5737 37.8426 67.0083 37.4757L64.8188 36.0561C64.8128 36.0501 64.8068 36.0501 64.8068 36.0501C64.8068 36.0501 64.8008 36.0501 64.7948 36.0561C64.4038 36.2486 63.9948 36.417 63.5857 36.5614C63.5797 36.5614 63.5737 36.5674 63.5737 36.5674C63.5737 36.5674 63.5737 36.5734 63.5677 36.5794L63.0143 39.1298C62.8699 39.7915 62.3045 40.2486 61.6248 40.2486H57.7391C57.0654 40.2486 56.494 39.7854 56.3496 39.1298L55.8023 36.5794C55.8023 36.5734 55.7963 36.5674 55.7963 36.5674C55.7963 36.5674 55.7902 36.5674 55.7842 36.5614C55.3752 36.417 54.9662 36.2486 54.5752 36.0561C54.5692 36.0501 54.5632 36.0501 54.5632 36.0501C54.5632 36.0501 54.5572 36.0501 54.5511 36.0561L52.3617 37.4757C51.7963 37.8426 51.0684 37.7644 50.5872 37.2892L47.8384 34.5403C47.3632 34.0651 47.285 33.3313 47.6519 32.7659L49.0714 30.5764C49.0775 30.5704 49.0775 30.5644 49.0775 30.5644C49.0775 30.5644 49.0775 30.5584 49.0714 30.5524C48.879 30.1614 48.7105 29.7524 48.5662 29.3433C48.5662 29.3373 48.5602 29.3313 48.5602 29.3313C48.5602 29.3313 48.5541 29.3313 48.5481 29.3253L45.9978 28.7779C45.3421 28.6336 44.885 28.0681 44.885 27.3884ZM46.2745 27.3884C46.2745 27.4065 46.2805 27.4065 46.2925 27.4125L48.8429 27.9599C49.3301 28.0621 49.7211 28.405 49.8835 28.8802C50.0098 29.2411 50.1602 29.602 50.3286 29.9448C50.5451 30.396 50.515 30.9133 50.2444 31.3283L48.8248 33.5178C48.8188 33.5298 48.8188 33.5358 48.8308 33.5478L51.5797 36.2967C51.5917 36.3087 51.5978 36.3087 51.6098 36.3027L53.7993 34.8832C54.0338 34.7328 54.2985 34.6546 54.5692 34.6546C54.7797 34.6546 54.9902 34.7027 55.1887 34.799C55.5376 34.9674 55.8925 35.1178 56.2534 35.2441C56.7226 35.4065 57.0654 35.7975 57.1737 36.2847L57.7211 38.8351C57.7271 38.8471 57.7271 38.8531 57.7451 38.8531H61.6308C61.6489 38.8531 61.6489 38.8471 61.6549 38.8351L62.2023 36.2847C62.3045 35.7975 62.6474 35.4065 63.1166 35.2441C63.4775 35.1178 63.8384 34.9674 64.1812 34.799C64.6323 34.5824 65.1496 34.6125 65.5647 34.8832L67.7542 36.3027C67.7662 36.3087 67.7722 36.3087 67.7842 36.2967L70.5331 33.5478C70.5451 33.5358 70.5451 33.5298 70.5391 33.5178L69.1196 31.3283C68.8489 30.9072 68.8188 30.3899 69.0354 29.9448C69.2038 29.596 69.3541 29.2411 69.4805 28.8802C69.6429 28.411 70.0338 28.0681 70.5211 27.9599L73.0714 27.4125C73.0835 27.4065 73.0895 27.4065 73.0895 27.3884V23.5027C73.0895 23.4847 73.0835 23.4847 73.0714 23.4787L70.5211 22.9313C70.0338 22.829 69.6429 22.4862 69.4805 22.011C69.3541 21.6501 69.2038 21.2892 69.0354 20.9463C68.8188 20.4952 68.8489 19.9779 69.1196 19.5629L70.5391 17.3734C70.5451 17.3614 70.5451 17.3554 70.5331 17.3433L67.7842 14.5945C67.7722 14.5824 67.7662 14.5824 67.7542 14.5884L65.5647 16.008C65.1436 16.2787 64.6263 16.3087 64.1812 16.0922C63.8323 15.9238 63.4775 15.7734 63.1166 15.6471C62.6474 15.4847 62.3045 15.0937 62.1963 14.6065L61.6489 12.0621C61.6429 12.0501 61.6429 12.0441 61.6248 12.0441H57.7391C57.7211 12.0441 57.7211 12.0501 57.7151 12.0621L57.1677 14.6125C57.0654 15.0997 56.7226 15.4907 56.2474 15.6531C55.8865 15.7794 55.5256 15.9298 55.1827 16.0982C54.7316 16.3148 54.2143 16.2847 53.7993 16.014L51.6098 14.5945C51.5978 14.5884 51.5917 14.5884 51.5797 14.6005L48.8308 17.3493C48.8188 17.3614 48.8188 17.3674 48.8248 17.3794L50.2444 19.5689C50.515 19.9899 50.5451 20.5072 50.3286 20.9524C50.1602 21.3012 50.0098 21.6561 49.8835 22.017C49.7211 22.4862 49.3301 22.829 48.8429 22.9373L46.2925 23.4847C46.2805 23.4907 46.2745 23.4907 46.2745 23.5087V27.3884ZM51.7301 25.4516C51.7301 21.0666 55.297 17.4937 59.688 17.4937C64.079 17.4937 67.6459 21.0606 67.6459 25.4516C67.6459 29.8366 64.079 33.4095 59.688 33.4095C55.297 33.4095 51.7301 29.8366 51.7301 25.4516ZM53.1196 25.4516C53.1196 29.0666 56.0609 32.014 59.682 32.014C63.303 32.014 66.2444 29.0727 66.2444 25.4516C66.2444 21.8366 63.303 18.8892 59.682 18.8892C56.0609 18.8892 53.1196 21.8305 53.1196 25.4516ZM82.2143 48.1945C81.8354 49.3975 81.0113 50.3839 79.8985 50.9674L59.1947 61.7524C58.3827 62.1794 57.5647 62.3178 56.7767 62.3178C56.0188 62.3178 55.285 62.1854 54.6053 62.0411L46.3887 60.2787C45.9015 60.1764 45.5647 60.1463 45.2579 60.3027L44.5301 60.6817L45.3361 62.2215C45.7752 63.0576 45.4444 64.0982 44.6083 64.5373L40.9331 66.4501C40.6805 66.5824 40.4098 66.6426 40.1451 66.6426C39.5256 66.6426 38.9241 66.3057 38.6233 65.7223L30.2023 49.5599C29.7632 48.7238 30.094 47.6832 30.9301 47.2441L34.6053 45.3313C35.4414 44.8922 36.482 45.223 36.9211 46.0591L37.7271 47.599L45.0895 43.7614C45.8113 43.3824 46.5331 43.226 47.3511 43.2621L58.4549 43.7433C61.0534 43.8576 63.0805 46.0651 62.9662 48.6636C62.9602 48.8321 62.9421 49.0065 62.9181 49.1689L75.5376 42.5945C77.8474 41.3915 80.7045 42.2937 81.9075 44.5975C82.479 45.7103 82.5932 46.9915 82.2143 48.1945ZM44.097 62.8711L35.676 46.7087C35.6218 46.6005 35.5075 46.5343 35.3872 46.5343C35.3391 46.5343 35.291 46.5463 35.2429 46.5704L31.5677 48.4832C31.4113 48.5614 31.3511 48.7599 31.4293 48.9163L39.8504 65.0787C39.9286 65.2351 40.1271 65.2952 40.2835 65.217L43.9587 63.3042C44.1151 63.226 44.1812 63.0275 44.097 62.8711ZM80.6624 45.2411C79.8143 43.617 77.7993 42.9794 76.1752 43.8275L62.1241 51.1539V51.1478C61.9256 51.4305 61.697 51.6952 61.4384 51.9298C60.5602 52.7358 59.4354 53.1749 58.2564 53.1749C58.1902 53.1749 58.1181 53.1749 58.0519 53.1689L50.5812 52.8441C50.1963 52.826 49.8955 52.5012 49.9135 52.1163C49.9316 51.7313 50.2564 51.4366 50.6414 51.4486L58.112 51.7734C58.9963 51.8095 59.8444 51.5027 60.5 50.8952C61.1557 50.2937 61.5406 49.4757 61.5767 48.5915C61.6549 46.7569 60.2293 45.205 58.3947 45.1268L47.291 44.6456C46.7196 44.6215 46.2444 44.7298 45.7391 44.9884L38.3647 48.8321L43.8925 59.4366L44.6203 59.0576C45.3301 58.6847 46.0338 58.7689 46.6835 58.9072L54.9 60.6696C56.3617 60.9824 57.4805 61.0666 58.5511 60.5072L79.2549 49.7223C80.0369 49.3133 80.6203 48.6215 80.885 47.7674C81.1496 46.9253 81.0714 46.029 80.6624 45.2411Z" fill="#1742E7"></path></svg>