<svg xmlns="http://www.w3.org/2000/svg" viewBox="0 0 112 77" fill="none"><mask id="path-1-inside-1_9894_10987" fill="white"><path d="M50.0267 44.4395C52.0414 44.4395 53.6798 42.8006 53.6798 40.7864C53.6798 38.7723 52.0414 37.1334 50.0267 37.1334C48.012 37.1334 46.3736 38.7723 46.3736 40.7864C46.3736 42.8011 48.012 44.4395 50.0267 44.4395ZM50.0267 38.9535C51.0376 38.9535 51.8601 39.776 51.8601 40.7868C51.8601 41.7977 51.0375 42.6202 50.0267 42.6202C49.0159 42.6202 48.1933 41.7977 48.1933 40.7868C48.1933 39.776 49.0159 38.9535 50.0267 38.9535Z"></path><path d="M56.9325 38.9531H65.2914C65.794 38.9531 66.2012 38.5459 66.2012 38.0432C66.2012 37.5406 65.794 37.1334 65.2914 37.1334H56.9325C56.4299 37.1334 56.0227 37.5406 56.0227 38.0432C56.0227 38.5459 56.4304 38.9531 56.9325 38.9531Z"></path><path d="M56.9325 42.3455H65.2914C65.794 42.3455 66.2012 41.9383 66.2012 41.4357C66.2012 40.933 65.794 40.5258 65.2914 40.5258H56.9325C56.4299 40.5258 56.0227 40.933 56.0227 41.4357C56.0227 41.9383 56.4304 42.3455 56.9325 42.3455Z"></path><path d="M56.9325 45.738H65.2914C65.794 45.738 66.2012 45.3308 66.2012 44.8282C66.2012 44.3255 65.794 43.9183 65.2914 43.9183H56.9325C56.4299 43.9183 56.0227 44.3255 56.0227 44.8282C56.0227 45.3308 56.4304 45.738 56.9325 45.738Z"></path><path d="M47.2828 49.1292H53.7828C54.2855 49.1292 54.6927 48.722 54.6927 48.2193C54.6927 47.7167 54.2855 47.3095 53.7828 47.3095H47.2828C46.7802 47.3095 46.373 47.7167 46.373 48.2193C46.373 48.722 46.7807 49.1292 47.2828 49.1292Z"></path><path d="M47.2828 52.5217H53.7828C54.2855 52.5217 54.6927 52.1145 54.6927 51.6118C54.6927 51.1091 54.2855 50.7019 53.7828 50.7019H47.2828C46.7802 50.7019 46.373 51.1091 46.373 51.6118C46.373 52.1145 46.7807 52.5217 47.2828 52.5217Z"></path><path d="M64.9886 47.3095H57.4788C56.9762 47.3095 56.569 47.7167 56.569 48.2193V51.6115C56.569 52.1142 56.9762 52.5214 57.4788 52.5214H64.9886C65.4913 52.5214 65.8985 52.1142 65.8985 51.6115V48.2193C65.8985 47.7167 65.4913 47.3095 64.9886 47.3095ZM64.0788 50.7017H58.3887V49.1292H64.0788V50.7017Z"></path><path d="M59.896 25.92H52.541C52.0384 25.92 51.6312 26.3272 51.6312 26.8299C51.6312 27.3325 52.0384 27.7397 52.541 27.7397H59.896C60.3987 27.7397 60.8059 27.3325 60.8059 26.8299C60.8059 26.3272 60.3982 25.92 59.896 25.92Z"></path><path d="M49.1675 26.8299C49.1675 27.432 48.6796 27.9205 48.0774 27.9205C47.4753 27.9205 46.9873 27.432 46.9873 26.8299C46.9873 26.2277 47.4753 25.7398 48.0774 25.7398C48.6796 25.7398 49.1675 26.2277 49.1675 26.8299Z"></path><path d="M52.5405 63.7363H59.8955C60.3982 63.7363 60.8054 63.3291 60.8054 62.8264C60.8054 62.3238 60.3982 61.9166 59.8955 61.9166H52.5405C52.0378 61.9166 51.6306 62.3238 51.6306 62.8264C51.6306 63.3291 52.0378 63.7363 52.5405 63.7363Z"></path><path d="M77.1378 25.5548C75.8883 21.7214 72.3291 19.103 68.2459 19.103C68.2231 19.103 68.2002 19.103 68.1784 19.1035C66.8756 14.1557 62.3801 10.6426 57.1981 10.6426C52.7809 10.6426 48.7398 13.2661 46.8942 17.2497C46.3632 17.1339 45.8153 17.075 45.2573 17.075C41.2253 17.075 37.9054 20.1818 37.5656 24.127C36.9706 23.966 36.3592 23.8848 35.7358 23.8848C31.4789 23.8853 28.0156 27.7237 28.0156 32.4416C28.0156 37.1554 31.4789 40.9904 35.7358 40.9904H42.6028V62.5634C42.6028 64.8127 44.4297 66.6426 46.6743 66.6426H65.7605C67.8646 66.6426 69.6452 65.0046 69.8143 62.9137C69.823 62.803 69.8316 62.6832 69.8316 62.5639V59.9592C69.8321 59.947 69.8387 59.9364 69.8387 59.9242L69.8392 40.9914H76.7063C80.9636 40.9914 84.4264 37.528 84.4264 33.2712C84.4269 29.155 81.1958 25.7801 77.1379 25.5557L77.1378 25.5548ZM68.0195 30.6402V59.0135L44.423 59.013V30.641L68.0195 30.6402ZM68.0124 28.8205H44.4237V27.0917C44.4237 25.8457 45.4336 24.8327 46.675 24.8327H65.7612C66.9249 24.8327 67.9084 25.736 68.0017 26.889C68.0073 26.9535 68.0129 27.0225 68.0129 27.0916L68.0124 28.8205ZM68.0124 62.5619C68.0124 62.631 68.0068 62.7005 68.0012 62.765C67.9083 63.9181 66.9243 64.8208 65.7617 64.8208L46.6755 64.8213C45.4336 64.8213 44.4237 63.8079 44.4237 62.5619V60.8335H68.0124L68.0124 62.5619ZM76.7069 39.1708H69.8398L69.8393 29.7305C69.8393 29.6919 69.8372 29.6543 69.8322 29.6173V27.0918C69.8322 26.9719 69.8235 26.8526 69.8149 26.7424C69.6458 24.6511 67.8652 23.0132 65.7602 23.0132H46.674C44.4292 23.0132 42.603 24.8431 42.603 27.0918V39.1708H35.7359C32.4824 39.1708 29.8355 36.1523 29.8355 32.4418C29.8355 28.7272 32.4828 25.7052 35.7359 25.7052C36.5463 25.7052 37.3322 25.891 38.0726 26.2576C38.3706 26.4054 38.723 26.379 38.9962 26.1896C39.2683 26.0002 39.4161 25.6778 39.3815 25.3478C39.3632 25.168 39.3572 24.9817 39.3572 24.7953C39.3572 21.5418 42.0044 18.8949 45.2576 18.8949C45.9075 18.8949 46.5365 18.998 47.1271 19.2011C47.5942 19.3631 48.1014 19.1224 48.2751 18.6614C49.6697 14.9534 53.2559 12.4625 57.1989 12.4625C61.7767 12.4625 65.7166 15.7272 66.5676 20.2258C66.6544 20.6838 67.0865 20.9986 67.5465 20.9625C67.7796 20.9427 68.007 20.9229 68.2467 20.9229C71.7313 20.9229 74.7421 23.2915 75.5681 26.6826C75.6748 27.1187 76.0865 27.4178 76.54 27.3726C76.5973 27.368 76.6496 27.3624 76.707 27.3624C79.9605 27.3624 82.6074 30.0129 82.6074 33.2699C82.6069 36.5234 79.9596 39.1707 76.7066 39.1707L76.7069 39.1708Z"></path></mask><path d="M50.0267 44.4395C52.0414 44.4395 53.6798 42.8006 53.6798 40.7864C53.6798 38.7723 52.0414 37.1334 50.0267 37.1334C48.012 37.1334 46.3736 38.7723 46.3736 40.7864C46.3736 42.8011 48.012 44.4395 50.0267 44.4395ZM50.0267 38.9535C51.0376 38.9535 51.8601 39.776 51.8601 40.7868C51.8601 41.7977 51.0375 42.6202 50.0267 42.6202C49.0159 42.6202 48.1933 41.7977 48.1933 40.7868C48.1933 39.776 49.0159 38.9535 50.0267 38.9535Z" fill="#1742E7"></path><path d="M56.9325 38.9531H65.2914C65.794 38.9531 66.2012 38.5459 66.2012 38.0432C66.2012 37.5406 65.794 37.1334 65.2914 37.1334H56.9325C56.4299 37.1334 56.0227 37.5406 56.0227 38.0432C56.0227 38.5459 56.4304 38.9531 56.9325 38.9531Z" fill="#1742E7"></path><path d="M56.9325 42.3455H65.2914C65.794 42.3455 66.2012 41.9383 66.2012 41.4357C66.2012 40.933 65.794 40.5258 65.2914 40.5258H56.9325C56.4299 40.5258 56.0227 40.933 56.0227 41.4357C56.0227 41.9383 56.4304 42.3455 56.9325 42.3455Z" fill="#1742E7"></path><path d="M56.9325 45.738H65.2914C65.794 45.738 66.2012 45.3308 66.2012 44.8282C66.2012 44.3255 65.794 43.9183 65.2914 43.9183H56.9325C56.4299 43.9183 56.0227 44.3255 56.0227 44.8282C56.0227 45.3308 56.4304 45.738 56.9325 45.738Z" fill="#1742E7"></path><path d="M47.2828 49.1292H53.7828C54.2855 49.1292 54.6927 48.722 54.6927 48.2193C54.6927 47.7167 54.2855 47.3095 53.7828 47.3095H47.2828C46.7802 47.3095 46.373 47.7167 46.373 48.2193C46.373 48.722 46.7807 49.1292 47.2828 49.1292Z" fill="#1742E7"></path><path d="M47.2828 52.5217H53.7828C54.2855 52.5217 54.6927 52.1145 54.6927 51.6118C54.6927 51.1091 54.2855 50.7019 53.7828 50.7019H47.2828C46.7802 50.7019 46.373 51.1091 46.373 51.6118C46.373 52.1145 46.7807 52.5217 47.2828 52.5217Z" fill="#1742E7"></path><path d="M64.9886 47.3095H57.4788C56.9762 47.3095 56.569 47.7167 56.569 48.2193V51.6115C56.569 52.1142 56.9762 52.5214 57.4788 52.5214H64.9886C65.4913 52.5214 65.8985 52.1142 65.8985 51.6115V48.2193C65.8985 47.7167 65.4913 47.3095 64.9886 47.3095ZM64.0788 50.7017H58.3887V49.1292H64.0788V50.7017Z" fill="#1742E7"></path><path d="M59.896 25.92H52.541C52.0384 25.92 51.6312 26.3272 51.6312 26.8299C51.6312 27.3325 52.0384 27.7397 52.541 27.7397H59.896C60.3987 27.7397 60.8059 27.3325 60.8059 26.8299C60.8059 26.3272 60.3982 25.92 59.896 25.92Z" fill="#1742E7"></path><path d="M49.1675 26.8299C49.1675 27.432 48.6796 27.9205 48.0774 27.9205C47.4753 27.9205 46.9873 27.432 46.9873 26.8299C46.9873 26.2277 47.4753 25.7398 48.0774 25.7398C48.6796 25.7398 49.1675 26.2277 49.1675 26.8299Z" fill="#1742E7"></path><path d="M52.5405 63.7363H59.8955C60.3982 63.7363 60.8054 63.3291 60.8054 62.8264C60.8054 62.3238 60.3982 61.9166 59.8955 61.9166H52.5405C52.0378 61.9166 51.6306 62.3238 51.6306 62.8264C51.6306 63.3291 52.0378 63.7363 52.5405 63.7363Z" fill="#1742E7"></path><path d="M77.1378 25.5548C75.8883 21.7214 72.3291 19.103 68.2459 19.103C68.2231 19.103 68.2002 19.103 68.1784 19.1035C66.8756 14.1557 62.3801 10.6426 57.1981 10.6426C52.7809 10.6426 48.7398 13.2661 46.8942 17.2497C46.3632 17.1339 45.8153 17.075 45.2573 17.075C41.2253 17.075 37.9054 20.1818 37.5656 24.127C36.9706 23.966 36.3592 23.8848 35.7358 23.8848C31.4789 23.8853 28.0156 27.7237 28.0156 32.4416C28.0156 37.1554 31.4789 40.9904 35.7358 40.9904H42.6028V62.5634C42.6028 64.8127 44.4297 66.6426 46.6743 66.6426H65.7605C67.8646 66.6426 69.6452 65.0046 69.8143 62.9137C69.823 62.803 69.8316 62.6832 69.8316 62.5639V59.9592C69.8321 59.947 69.8387 59.9364 69.8387 59.9242L69.8392 40.9914H76.7063C80.9636 40.9914 84.4264 37.528 84.4264 33.2712C84.4269 29.155 81.1958 25.7801 77.1379 25.5557L77.1378 25.5548ZM68.0195 30.6402V59.0135L44.423 59.013V30.641L68.0195 30.6402ZM68.0124 28.8205H44.4237V27.0917C44.4237 25.8457 45.4336 24.8327 46.675 24.8327H65.7612C66.9249 24.8327 67.9084 25.736 68.0017 26.889C68.0073 26.9535 68.0129 27.0225 68.0129 27.0916L68.0124 28.8205ZM68.0124 62.5619C68.0124 62.631 68.0068 62.7005 68.0012 62.765C67.9083 63.9181 66.9243 64.8208 65.7617 64.8208L46.6755 64.8213C45.4336 64.8213 44.4237 63.8079 44.4237 62.5619V60.8335H68.0124L68.0124 62.5619ZM76.7069 39.1708H69.8398L69.8393 29.7305C69.8393 29.6919 69.8372 29.6543 69.8322 29.6173V27.0918C69.8322 26.9719 69.8235 26.8526 69.8149 26.7424C69.6458 24.6511 67.8652 23.0132 65.7602 23.0132H46.674C44.4292 23.0132 42.603 24.8431 42.603 27.0918V39.1708H35.7359C32.4824 39.1708 29.8355 36.1523 29.8355 32.4418C29.8355 28.7272 32.4828 25.7052 35.7359 25.7052C36.5463 25.7052 37.3322 25.891 38.0726 26.2576C38.3706 26.4054 38.723 26.379 38.9962 26.1896C39.2683 26.0002 39.4161 25.6778 39.3815 25.3478C39.3632 25.168 39.3572 24.9817 39.3572 24.7953C39.3572 21.5418 42.0044 18.8949 45.2576 18.8949C45.9075 18.8949 46.5365 18.998 47.1271 19.2011C47.5942 19.3631 48.1014 19.1224 48.2751 18.6614C49.6697 14.9534 53.2559 12.4625 57.1989 12.4625C61.7767 12.4625 65.7166 15.7272 66.5676 20.2258C66.6544 20.6838 67.0865 20.9986 67.5465 20.9625C67.7796 20.9427 68.007 20.9229 68.2467 20.9229C71.7313 20.9229 74.7421 23.2915 75.5681 26.6826C75.6748 27.1187 76.0865 27.4178 76.54 27.3726C76.5973 27.368 76.6496 27.3624 76.707 27.3624C79.9605 27.3624 82.6074 30.0129 82.6074 33.2699C82.6069 36.5234 79.9596 39.1707 76.7066 39.1707L76.7069 39.1708Z" fill="#1742E7"></path><path d="M50.0267 44.4395C52.0414 44.4395 53.6798 42.8006 53.6798 40.7864C53.6798 38.7723 52.0414 37.1334 50.0267 37.1334C48.012 37.1334 46.3736 38.7723 46.3736 40.7864C46.3736 42.8011 48.012 44.4395 50.0267 44.4395ZM50.0267 38.9535C51.0376 38.9535 51.8601 39.776 51.8601 40.7868C51.8601 41.7977 51.0375 42.6202 50.0267 42.6202C49.0159 42.6202 48.1933 41.7977 48.1933 40.7868C48.1933 39.776 49.0159 38.9535 50.0267 38.9535Z" stroke="#1742E7" stroke-width="0.56" mask="url(#path-1-inside-1_9894_10987)"></path><path d="M56.9325 38.9531H65.2914C65.794 38.9531 66.2012 38.5459 66.2012 38.0432C66.2012 37.5406 65.794 37.1334 65.2914 37.1334H56.9325C56.4299 37.1334 56.0227 37.5406 56.0227 38.0432C56.0227 38.5459 56.4304 38.9531 56.9325 38.9531Z" stroke="#1742E7" stroke-width="0.56" mask="url(#path-1-inside-1_9894_10987)"></path><path d="M56.9325 42.3455H65.2914C65.794 42.3455 66.2012 41.9383 66.2012 41.4357C66.2012 40.933 65.794 40.5258 65.2914 40.5258H56.9325C56.4299 40.5258 56.0227 40.933 56.0227 41.4357C56.0227 41.9383 56.4304 42.3455 56.9325 42.3455Z" stroke="#1742E7" stroke-width="0.56" mask="url(#path-1-inside-1_9894_10987)"></path><path d="M56.9325 45.738H65.2914C65.794 45.738 66.2012 45.3308 66.2012 44.8282C66.2012 44.3255 65.794 43.9183 65.2914 43.9183H56.9325C56.4299 43.9183 56.0227 44.3255 56.0227 44.8282C56.0227 45.3308 56.4304 45.738 56.9325 45.738Z" stroke="#1742E7" stroke-width="0.56" mask="url(#path-1-inside-1_9894_10987)"></path><path d="M47.2828 49.1292H53.7828C54.2855 49.1292 54.6927 48.722 54.6927 48.2193C54.6927 47.7167 54.2855 47.3095 53.7828 47.3095H47.2828C46.7802 47.3095 46.373 47.7167 46.373 48.2193C46.373 48.722 46.7807 49.1292 47.2828 49.1292Z" stroke="#1742E7" stroke-width="0.56" mask="url(#path-1-inside-1_9894_10987)"></path><path d="M47.2828 52.5217H53.7828C54.2855 52.5217 54.6927 52.1145 54.6927 51.6118C54.6927 51.1091 54.2855 50.7019 53.7828 50.7019H47.2828C46.7802 50.7019 46.373 51.1091 46.373 51.6118C46.373 52.1145 46.7807 52.5217 47.2828 52.5217Z" stroke="#1742E7" stroke-width="0.56" mask="url(#path-1-inside-1_9894_10987)"></path><path d="M64.9886 47.3095H57.4788C56.9762 47.3095 56.569 47.7167 56.569 48.2193V51.6115C56.569 52.1142 56.9762 52.5214 57.4788 52.5214H64.9886C65.4913 52.5214 65.8985 52.1142 65.8985 51.6115V48.2193C65.8985 47.7167 65.4913 47.3095 64.9886 47.3095ZM64.0788 50.7017H58.3887V49.1292H64.0788V50.7017Z" stroke="#1742E7" stroke-width="0.56" mask="url(#path-1-inside-1_9894_10987)"></path><path d="M59.896 25.92H52.541C52.0384 25.92 51.6312 26.3272 51.6312 26.8299C51.6312 27.3325 52.0384 27.7397 52.541 27.7397H59.896C60.3987 27.7397 60.8059 27.3325 60.8059 26.8299C60.8059 26.3272 60.3982 25.92 59.896 25.92Z" stroke="#1742E7" stroke-width="0.56" mask="url(#path-1-inside-1_9894_10987)"></path><path d="M49.1675 26.8299C49.1675 27.432 48.6796 27.9205 48.0774 27.9205C47.4753 27.9205 46.9873 27.432 46.9873 26.8299C46.9873 26.2277 47.4753 25.7398 48.0774 25.7398C48.6796 25.7398 49.1675 26.2277 49.1675 26.8299Z" stroke="#1742E7" stroke-width="0.56" mask="url(#path-1-inside-1_9894_10987)"></path><path d="M52.5405 63.7363H59.8955C60.3982 63.7363 60.8054 63.3291 60.8054 62.8264C60.8054 62.3238 60.3982 61.9166 59.8955 61.9166H52.5405C52.0378 61.9166 51.6306 62.3238 51.6306 62.8264C51.6306 63.3291 52.0378 63.7363 52.5405 63.7363Z" stroke="#1742E7" stroke-width="0.56" mask="url(#path-1-inside-1_9894_10987)"></path><path d="M77.1378 25.5548C75.8883 21.7214 72.3291 19.103 68.2459 19.103C68.2231 19.103 68.2002 19.103 68.1784 19.1035C66.8756 14.1557 62.3801 10.6426 57.1981 10.6426C52.7809 10.6426 48.7398 13.2661 46.8942 17.2497C46.3632 17.1339 45.8153 17.075 45.2573 17.075C41.2253 17.075 37.9054 20.1818 37.5656 24.127C36.9706 23.966 36.3592 23.8848 35.7358 23.8848C31.4789 23.8853 28.0156 27.7237 28.0156 32.4416C28.0156 37.1554 31.4789 40.9904 35.7358 40.9904H42.6028V62.5634C42.6028 64.8127 44.4297 66.6426 46.6743 66.6426H65.7605C67.8646 66.6426 69.6452 65.0046 69.8143 62.9137C69.823 62.803 69.8316 62.6832 69.8316 62.5639V59.9592C69.8321 59.947 69.8387 59.9364 69.8387 59.9242L69.8392 40.9914H76.7063C80.9636 40.9914 84.4264 37.528 84.4264 33.2712C84.4269 29.155 81.1958 25.7801 77.1379 25.5557L77.1378 25.5548ZM68.0195 30.6402V59.0135L44.423 59.013V30.641L68.0195 30.6402ZM68.0124 28.8205H44.4237V27.0917C44.4237 25.8457 45.4336 24.8327 46.675 24.8327H65.7612C66.9249 24.8327 67.9084 25.736 68.0017 26.889C68.0073 26.9535 68.0129 27.0225 68.0129 27.0916L68.0124 28.8205ZM68.0124 62.5619C68.0124 62.631 68.0068 62.7005 68.0012 62.765C67.9083 63.9181 66.9243 64.8208 65.7617 64.8208L46.6755 64.8213C45.4336 64.8213 44.4237 63.8079 44.4237 62.5619V60.8335H68.0124L68.0124 62.5619ZM76.7069 39.1708H69.8398L69.8393 29.7305C69.8393 29.6919 69.8372 29.6543 69.8322 29.6173V27.0918C69.8322 26.9719 69.8235 26.8526 69.8149 26.7424C69.6458 24.6511 67.8652 23.0132 65.7602 23.0132H46.674C44.4292 23.0132 42.603 24.8431 42.603 27.0918V39.1708H35.7359C32.4824 39.1708 29.8355 36.1523 29.8355 32.4418C29.8355 28.7272 32.4828 25.7052 35.7359 25.7052C36.5463 25.7052 37.3322 25.891 38.0726 26.2576C38.3706 26.4054 38.723 26.379 38.9962 26.1896C39.2683 26.0002 39.4161 25.6778 39.3815 25.3478C39.3632 25.168 39.3572 24.9817 39.3572 24.7953C39.3572 21.5418 42.0044 18.8949 45.2576 18.8949C45.9075 18.8949 46.5365 18.998 47.1271 19.2011C47.5942 19.3631 48.1014 19.1224 48.2751 18.6614C49.6697 14.9534 53.2559 12.4625 57.1989 12.4625C61.7767 12.4625 65.7166 15.7272 66.5676 20.2258C66.6544 20.6838 67.0865 20.9986 67.5465 20.9625C67.7796 20.9427 68.007 20.9229 68.2467 20.9229C71.7313 20.9229 74.7421 23.2915 75.5681 26.6826C75.6748 27.1187 76.0865 27.4178 76.54 27.3726C76.5973 27.368 76.6496 27.3624 76.707 27.3624C79.9605 27.3624 82.6074 30.0129 82.6074 33.2699C82.6069 36.5234 79.9596 39.1707 76.7066 39.1707L76.7069 39.1708Z" stroke="#1742E7" stroke-width="0.56" mask="url(#path-1-inside-1_9894_10987)"></path></svg>