<svg xmlns="http://www.w3.org/2000/svg" viewBox="0 0 101 100" fill="none"><mask id="path-1-inside-1_9893_7840" fill="white"><path d="M78.5135 53.2638V27.962C82.8842 27.3327 86.2548 23.5734 86.2548 19.0328C86.2554 14.0545 82.2029 10 77.2233 10C72.2431 10 68.1906 14.0545 68.1906 19.0328H14.9219V70.6443H45.0316C45.7032 81.4269 54.6641 90 65.6096 90C76.993 90 86.2542 80.7377 86.2542 69.3554C86.2554 62.853 83.2272 57.0531 78.5135 53.2632V53.2638ZM77.2232 12.581C80.7803 12.581 83.6748 15.4753 83.6748 19.0326C83.6748 22.5899 80.7816 25.4854 77.2232 25.4854C73.6647 25.4854 70.7715 22.5904 70.7715 19.0326C70.7715 15.4754 73.6652 12.581 77.2232 12.581ZM17.5021 21.6131H68.5707C68.8789 22.6436 69.37 23.5917 69.9999 24.4319L62.1073 32.3245C61.6014 32.082 61.0452 31.9351 60.4475 31.9351C59.8516 31.9351 59.2948 32.0808 58.7895 32.3245L56.1897 29.7246C56.4309 29.2186 56.5772 28.6612 56.5772 28.066C56.5772 25.9306 54.8405 24.1938 52.7062 24.1938C50.5719 24.1938 48.8359 25.9304 48.8359 28.066C48.8359 28.6619 48.9816 29.2187 49.224 29.721L42.7521 36.1929C42.2473 35.9517 41.6899 35.806 41.0935 35.806C38.96 35.806 37.2231 37.5422 37.2231 39.6763C37.2231 41.8099 38.9598 43.5467 41.0935 43.5467C43.2276 43.5467 44.9644 41.8105 44.9644 39.6763C44.9644 39.0805 44.8187 38.5218 44.5763 38.0184L51.0483 31.5469C51.553 31.7881 52.1116 31.9344 52.7068 31.9344C53.3033 31.9344 53.8607 31.7887 54.3637 31.5463L56.9648 34.1474C56.7236 34.6515 56.5773 35.2089 56.5773 35.806C56.5773 37.9395 58.3135 39.6764 60.4476 39.6764C62.5818 39.6764 64.3186 37.9397 64.3186 35.806C64.3186 35.2089 64.1729 34.6515 63.9305 34.1474L71.8231 26.2567C73.0043 27.1422 74.4056 27.7411 75.9315 27.9625V51.5023C72.8909 49.7371 69.3721 48.7083 65.6091 48.7083C59.442 48.7083 53.9113 51.439 50.1253 55.744V49.9998H42.384V65.4836H45.3416C45.1816 66.3256 45.0849 67.1893 45.0303 68.0642H17.5015L17.5021 21.6131ZM60.4484 34.5162C61.1596 34.5162 61.7381 35.0941 61.7381 35.8072C61.7381 36.5184 61.1596 37.0962 60.4484 37.0962C59.7373 37.0962 59.1575 36.5184 59.1575 35.8072C59.1575 35.0941 59.7373 34.5162 60.4484 34.5162ZM51.4157 28.0652C51.4157 27.3516 51.9954 26.7737 52.7066 26.7737C53.4178 26.7737 53.9975 27.3516 53.9975 28.0652C53.9975 28.7764 53.4178 29.3549 52.7066 29.3549C51.9948 29.3555 51.4157 28.7764 51.4157 28.0652ZM42.3835 39.678C42.3835 40.3898 41.805 40.9677 41.0938 40.9677C40.3827 40.9677 39.8042 40.3898 39.8042 39.678C39.8042 38.9662 40.3827 38.3883 41.0938 38.3883C41.805 38.3883 42.3835 38.9662 42.3835 39.678ZM65.6091 79.6783C59.9178 79.6783 55.2867 75.0453 55.2867 69.3565C55.2867 63.6639 59.9172 59.0347 65.6091 59.0347C71.3004 59.0347 75.9316 63.6639 75.9316 69.3565C75.9322 75.0454 71.3011 79.6783 65.6091 79.6783ZM47.5439 59.3829C46.9263 60.4984 46.416 61.6747 46.0105 62.9049H44.9633L44.9639 52.5818H47.5433V59.3831L47.5439 59.3829ZM64.3186 51.3572V56.5172C57.8075 57.1689 52.7058 62.6761 52.7058 69.3565C52.7058 71.244 53.1244 73.0321 53.856 74.6516L49.3793 77.2353C48.2155 74.8507 47.5452 72.1819 47.5452 69.3563C47.5452 59.8288 54.9603 52.0229 64.3183 51.3578L64.3186 51.3572ZM65.6089 87.4193C59.3973 87.4193 53.9087 84.2671 50.6566 79.4779L55.1519 76.8823C57.4975 80.1295 61.3059 82.2568 65.6109 82.2568C69.9145 82.2568 73.7228 80.1295 76.0686 76.8823L80.5638 79.4779C77.3111 84.2671 71.8231 87.4193 65.6115 87.4193H65.6089ZM81.8392 77.2364L77.3625 74.6508C78.0942 73.0332 78.5127 71.2443 78.5127 69.3557C78.5127 62.6766 73.4116 57.1669 66.8999 56.5183V51.3564C76.2589 52.0223 83.6747 59.8293 83.6747 69.3533C83.6747 72.1802 83.0038 74.8494 81.8399 77.234L81.8405 77.2359L81.8392 77.2364Z"></path><path d="M65.6086 61.6131C61.3384 61.6131 57.8673 65.0854 57.8673 69.3562C57.8673 73.624 61.3395 77.0969 65.6086 77.0969C69.8782 77.0969 73.35 73.624 73.35 69.3562C73.3506 65.086 69.879 61.6131 65.6086 61.6131ZM65.6086 74.515C62.7626 74.515 60.448 72.201 60.448 69.3556C60.448 66.5082 62.7626 64.1919 65.6086 64.1919C68.4547 64.1919 70.7693 66.5078 70.7693 69.3556C70.7705 72.2022 68.456 74.515 65.6086 74.515Z"></path><path d="M21.7384 24.1938H24.3191V26.7744H21.7384V24.1938Z"></path><path d="M26.9004 24.1938H39.8035V26.7744L26.9004 26.7738V24.1938Z"></path><path d="M21.7384 29.3557H24.3191V31.9351H21.7384V29.3557Z"></path><path d="M26.9004 29.3557H39.8035V31.9351H26.9004V29.3557Z"></path><path d="M21.7384 65.4862H29.4809V55.1624H21.7384V65.4862ZM24.3197 57.7412H26.9004V62.9049H24.3197V57.7412Z"></path><path d="M32.0623 65.4862H39.8048V44.8384H32.0623V65.4862ZM34.643 47.4193H37.2236V62.905H34.643V47.4193Z"></path></mask><path d="M78.5135 53.2638V27.962C82.8842 27.3327 86.2548 23.5734 86.2548 19.0328C86.2554 14.0545 82.2029 10 77.2233 10C72.2431 10 68.1906 14.0545 68.1906 19.0328H14.9219V70.6443H45.0316C45.7032 81.4269 54.6641 90 65.6096 90C76.993 90 86.2542 80.7377 86.2542 69.3554C86.2554 62.853 83.2272 57.0531 78.5135 53.2632V53.2638ZM77.2232 12.581C80.7803 12.581 83.6748 15.4753 83.6748 19.0326C83.6748 22.5899 80.7816 25.4854 77.2232 25.4854C73.6647 25.4854 70.7715 22.5904 70.7715 19.0326C70.7715 15.4754 73.6652 12.581 77.2232 12.581ZM17.5021 21.6131H68.5707C68.8789 22.6436 69.37 23.5917 69.9999 24.4319L62.1073 32.3245C61.6014 32.082 61.0452 31.9351 60.4475 31.9351C59.8516 31.9351 59.2948 32.0808 58.7895 32.3245L56.1897 29.7246C56.4309 29.2186 56.5772 28.6612 56.5772 28.066C56.5772 25.9306 54.8405 24.1938 52.7062 24.1938C50.5719 24.1938 48.8359 25.9304 48.8359 28.066C48.8359 28.6619 48.9816 29.2187 49.224 29.721L42.7521 36.1929C42.2473 35.9517 41.6899 35.806 41.0935 35.806C38.96 35.806 37.2231 37.5422 37.2231 39.6763C37.2231 41.8099 38.9598 43.5467 41.0935 43.5467C43.2276 43.5467 44.9644 41.8105 44.9644 39.6763C44.9644 39.0805 44.8187 38.5218 44.5763 38.0184L51.0483 31.5469C51.553 31.7881 52.1116 31.9344 52.7068 31.9344C53.3033 31.9344 53.8607 31.7887 54.3637 31.5463L56.9648 34.1474C56.7236 34.6515 56.5773 35.2089 56.5773 35.806C56.5773 37.9395 58.3135 39.6764 60.4476 39.6764C62.5818 39.6764 64.3186 37.9397 64.3186 35.806C64.3186 35.2089 64.1729 34.6515 63.9305 34.1474L71.8231 26.2567C73.0043 27.1422 74.4056 27.7411 75.9315 27.9625V51.5023C72.8909 49.7371 69.3721 48.7083 65.6091 48.7083C59.442 48.7083 53.9113 51.439 50.1253 55.744V49.9998H42.384V65.4836H45.3416C45.1816 66.3256 45.0849 67.1893 45.0303 68.0642H17.5015L17.5021 21.6131ZM60.4484 34.5162C61.1596 34.5162 61.7381 35.0941 61.7381 35.8072C61.7381 36.5184 61.1596 37.0962 60.4484 37.0962C59.7373 37.0962 59.1575 36.5184 59.1575 35.8072C59.1575 35.0941 59.7373 34.5162 60.4484 34.5162ZM51.4157 28.0652C51.4157 27.3516 51.9954 26.7737 52.7066 26.7737C53.4178 26.7737 53.9975 27.3516 53.9975 28.0652C53.9975 28.7764 53.4178 29.3549 52.7066 29.3549C51.9948 29.3555 51.4157 28.7764 51.4157 28.0652ZM42.3835 39.678C42.3835 40.3898 41.805 40.9677 41.0938 40.9677C40.3827 40.9677 39.8042 40.3898 39.8042 39.678C39.8042 38.9662 40.3827 38.3883 41.0938 38.3883C41.805 38.3883 42.3835 38.9662 42.3835 39.678ZM65.6091 79.6783C59.9178 79.6783 55.2867 75.0453 55.2867 69.3565C55.2867 63.6639 59.9172 59.0347 65.6091 59.0347C71.3004 59.0347 75.9316 63.6639 75.9316 69.3565C75.9322 75.0454 71.3011 79.6783 65.6091 79.6783ZM47.5439 59.3829C46.9263 60.4984 46.416 61.6747 46.0105 62.9049H44.9633L44.9639 52.5818H47.5433V59.3831L47.5439 59.3829ZM64.3186 51.3572V56.5172C57.8075 57.1689 52.7058 62.6761 52.7058 69.3565C52.7058 71.244 53.1244 73.0321 53.856 74.6516L49.3793 77.2353C48.2155 74.8507 47.5452 72.1819 47.5452 69.3563C47.5452 59.8288 54.9603 52.0229 64.3183 51.3578L64.3186 51.3572ZM65.6089 87.4193C59.3973 87.4193 53.9087 84.2671 50.6566 79.4779L55.1519 76.8823C57.4975 80.1295 61.3059 82.2568 65.6109 82.2568C69.9145 82.2568 73.7228 80.1295 76.0686 76.8823L80.5638 79.4779C77.3111 84.2671 71.8231 87.4193 65.6115 87.4193H65.6089ZM81.8392 77.2364L77.3625 74.6508C78.0942 73.0332 78.5127 71.2443 78.5127 69.3557C78.5127 62.6766 73.4116 57.1669 66.8999 56.5183V51.3564C76.2589 52.0223 83.6747 59.8293 83.6747 69.3533C83.6747 72.1802 83.0038 74.8494 81.8399 77.234L81.8405 77.2359L81.8392 77.2364Z" fill="#1742E7"></path><path d="M65.6086 61.6131C61.3384 61.6131 57.8673 65.0854 57.8673 69.3562C57.8673 73.624 61.3395 77.0969 65.6086 77.0969C69.8782 77.0969 73.35 73.624 73.35 69.3562C73.3506 65.086 69.879 61.6131 65.6086 61.6131ZM65.6086 74.515C62.7626 74.515 60.448 72.201 60.448 69.3556C60.448 66.5082 62.7626 64.1919 65.6086 64.1919C68.4547 64.1919 70.7693 66.5078 70.7693 69.3556C70.7705 72.2022 68.456 74.515 65.6086 74.515Z" fill="#1742E7"></path><path d="M21.7384 24.1938H24.3191V26.7744H21.7384V24.1938Z" fill="#1742E7"></path><path d="M26.9004 24.1938H39.8035V26.7744L26.9004 26.7738V24.1938Z" fill="#1742E7"></path><path d="M21.7384 29.3557H24.3191V31.9351H21.7384V29.3557Z" fill="#1742E7"></path><path d="M26.9004 29.3557H39.8035V31.9351H26.9004V29.3557Z" fill="#1742E7"></path><path d="M21.7384 65.4862H29.4809V55.1624H21.7384V65.4862ZM24.3197 57.7412H26.9004V62.9049H24.3197V57.7412Z" fill="#1742E7"></path><path d="M32.0623 65.4862H39.8048V44.8384H32.0623V65.4862ZM34.643 47.4193H37.2236V62.905H34.643V47.4193Z" fill="#1742E7"></path><path d="M78.5135 53.2638V27.962C82.8842 27.3327 86.2548 23.5734 86.2548 19.0328C86.2554 14.0545 82.2029 10 77.2233 10C72.2431 10 68.1906 14.0545 68.1906 19.0328H14.9219V70.6443H45.0316C45.7032 81.4269 54.6641 90 65.6096 90C76.993 90 86.2542 80.7377 86.2542 69.3554C86.2554 62.853 83.2272 57.0531 78.5135 53.2632V53.2638ZM77.2232 12.581C80.7803 12.581 83.6748 15.4753 83.6748 19.0326C83.6748 22.5899 80.7816 25.4854 77.2232 25.4854C73.6647 25.4854 70.7715 22.5904 70.7715 19.0326C70.7715 15.4754 73.6652 12.581 77.2232 12.581ZM17.5021 21.6131H68.5707C68.8789 22.6436 69.37 23.5917 69.9999 24.4319L62.1073 32.3245C61.6014 32.082 61.0452 31.9351 60.4475 31.9351C59.8516 31.9351 59.2948 32.0808 58.7895 32.3245L56.1897 29.7246C56.4309 29.2186 56.5772 28.6612 56.5772 28.066C56.5772 25.9306 54.8405 24.1938 52.7062 24.1938C50.5719 24.1938 48.8359 25.9304 48.8359 28.066C48.8359 28.6619 48.9816 29.2187 49.224 29.721L42.7521 36.1929C42.2473 35.9517 41.6899 35.806 41.0935 35.806C38.96 35.806 37.2231 37.5422 37.2231 39.6763C37.2231 41.8099 38.9598 43.5467 41.0935 43.5467C43.2276 43.5467 44.9644 41.8105 44.9644 39.6763C44.9644 39.0805 44.8187 38.5218 44.5763 38.0184L51.0483 31.5469C51.553 31.7881 52.1116 31.9344 52.7068 31.9344C53.3033 31.9344 53.8607 31.7887 54.3637 31.5463L56.9648 34.1474C56.7236 34.6515 56.5773 35.2089 56.5773 35.806C56.5773 37.9395 58.3135 39.6764 60.4476 39.6764C62.5818 39.6764 64.3186 37.9397 64.3186 35.806C64.3186 35.2089 64.1729 34.6515 63.9305 34.1474L71.8231 26.2567C73.0043 27.1422 74.4056 27.7411 75.9315 27.9625V51.5023C72.8909 49.7371 69.3721 48.7083 65.6091 48.7083C59.442 48.7083 53.9113 51.439 50.1253 55.744V49.9998H42.384V65.4836H45.3416C45.1816 66.3256 45.0849 67.1893 45.0303 68.0642H17.5015L17.5021 21.6131ZM60.4484 34.5162C61.1596 34.5162 61.7381 35.0941 61.7381 35.8072C61.7381 36.5184 61.1596 37.0962 60.4484 37.0962C59.7373 37.0962 59.1575 36.5184 59.1575 35.8072C59.1575 35.0941 59.7373 34.5162 60.4484 34.5162ZM51.4157 28.0652C51.4157 27.3516 51.9954 26.7737 52.7066 26.7737C53.4178 26.7737 53.9975 27.3516 53.9975 28.0652C53.9975 28.7764 53.4178 29.3549 52.7066 29.3549C51.9948 29.3555 51.4157 28.7764 51.4157 28.0652ZM42.3835 39.678C42.3835 40.3898 41.805 40.9677 41.0938 40.9677C40.3827 40.9677 39.8042 40.3898 39.8042 39.678C39.8042 38.9662 40.3827 38.3883 41.0938 38.3883C41.805 38.3883 42.3835 38.9662 42.3835 39.678ZM65.6091 79.6783C59.9178 79.6783 55.2867 75.0453 55.2867 69.3565C55.2867 63.6639 59.9172 59.0347 65.6091 59.0347C71.3004 59.0347 75.9316 63.6639 75.9316 69.3565C75.9322 75.0454 71.3011 79.6783 65.6091 79.6783ZM47.5439 59.3829C46.9263 60.4984 46.416 61.6747 46.0105 62.9049H44.9633L44.9639 52.5818H47.5433V59.3831L47.5439 59.3829ZM64.3186 51.3572V56.5172C57.8075 57.1689 52.7058 62.6761 52.7058 69.3565C52.7058 71.244 53.1244 73.0321 53.856 74.6516L49.3793 77.2353C48.2155 74.8507 47.5452 72.1819 47.5452 69.3563C47.5452 59.8288 54.9603 52.0229 64.3183 51.3578L64.3186 51.3572ZM65.6089 87.4193C59.3973 87.4193 53.9087 84.2671 50.6566 79.4779L55.1519 76.8823C57.4975 80.1295 61.3059 82.2568 65.6109 82.2568C69.9145 82.2568 73.7228 80.1295 76.0686 76.8823L80.5638 79.4779C77.3111 84.2671 71.8231 87.4193 65.6115 87.4193H65.6089ZM81.8392 77.2364L77.3625 74.6508C78.0942 73.0332 78.5127 71.2443 78.5127 69.3557C78.5127 62.6766 73.4116 57.1669 66.8999 56.5183V51.3564C76.2589 52.0223 83.6747 59.8293 83.6747 69.3533C83.6747 72.1802 83.0038 74.8494 81.8399 77.234L81.8405 77.2359L81.8392 77.2364Z" stroke="#1742E7" stroke-width="0.8" mask="url(#path-1-inside-1_9893_7840)"></path><path d="M65.6086 61.6131C61.3384 61.6131 57.8673 65.0854 57.8673 69.3562C57.8673 73.624 61.3395 77.0969 65.6086 77.0969C69.8782 77.0969 73.35 73.624 73.35 69.3562C73.3506 65.086 69.879 61.6131 65.6086 61.6131ZM65.6086 74.515C62.7626 74.515 60.448 72.201 60.448 69.3556C60.448 66.5082 62.7626 64.1919 65.6086 64.1919C68.4547 64.1919 70.7693 66.5078 70.7693 69.3556C70.7705 72.2022 68.456 74.515 65.6086 74.515Z" stroke="#1742E7" stroke-width="0.8" mask="url(#path-1-inside-1_9893_7840)"></path><path d="M21.7384 24.1938H24.3191V26.7744H21.7384V24.1938Z" stroke="#1742E7" stroke-width="0.8" mask="url(#path-1-inside-1_9893_7840)"></path><path d="M26.9004 24.1938H39.8035V26.7744L26.9004 26.7738V24.1938Z" stroke="#1742E7" stroke-width="0.8" mask="url(#path-1-inside-1_9893_7840)"></path><path d="M21.7384 29.3557H24.3191V31.9351H21.7384V29.3557Z" stroke="#1742E7" stroke-width="0.8" mask="url(#path-1-inside-1_9893_7840)"></path><path d="M26.9004 29.3557H39.8035V31.9351H26.9004V29.3557Z" stroke="#1742E7" stroke-width="0.8" mask="url(#path-1-inside-1_9893_7840)"></path><path d="M21.7384 65.4862H29.4809V55.1624H21.7384V65.4862ZM24.3197 57.7412H26.9004V62.9049H24.3197V57.7412Z" stroke="#1742E7" stroke-width="0.8" mask="url(#path-1-inside-1_9893_7840)"></path><path d="M32.0623 65.4862H39.8048V44.8384H32.0623V65.4862ZM34.643 47.4193H37.2236V62.905H34.643V47.4193Z" stroke="#1742E7" stroke-width="0.8" mask="url(#path-1-inside-1_9893_7840)"></path></svg>