<svg xmlns="http://www.w3.org/2000/svg" viewBox="0 0 112 77" fill="none"><path d="M80.1287 10.6426H32.3243C30.0647 10.6426 28.2266 12.4802 28.2266 14.7403V51.8616C28.2266 54.1212 30.0642 55.9593 32.3243 55.9593H36.1276V65.2761H32.0724C31.6949 65.2761 31.3892 65.5819 31.3892 65.9594C31.3892 66.3368 31.6949 66.6426 32.0724 66.6426H80.3798C80.7573 66.6426 81.0631 66.3368 81.0631 65.9594C81.0631 65.5819 80.7573 65.2761 80.3798 65.2761H76.325V55.9593H80.1283C82.3879 55.9593 84.2261 54.1217 84.2261 51.8616V14.7403C84.2261 12.4807 82.388 10.6426 80.1283 10.6426H80.1287ZM32.3243 12.0082H80.1287C81.6351 12.0082 82.8604 13.2336 82.8604 14.7399V20.5579L29.5928 20.5575V14.7403C29.5928 13.234 30.8182 12.0082 32.3249 12.0082L32.3243 12.0082ZM44.3328 55.9598H46.7921V65.2766H44.3328V55.9598ZM54.9972 55.9598H57.4565V65.2766H54.9972V55.9598ZM65.6616 55.9598H68.1209V65.2766H65.6616V55.9598ZM64.2955 65.2766H58.822V45.8252C58.822 45.5745 59.0258 45.3699 59.2774 45.3699H63.8402C64.0909 45.3699 64.2956 45.5737 64.2956 45.8252L64.2955 65.2766ZM53.6311 65.2766H48.1576V41.2616C48.1576 41.0109 48.3615 40.8063 48.613 40.8063H53.1758C53.4265 40.8063 53.6312 41.0101 53.6312 41.2616L53.6311 65.2766ZM42.9668 65.2766H37.4933L37.4937 49.4767C37.4937 49.226 37.6975 49.0214 37.949 49.0214H42.5119C42.7626 49.0214 42.9672 49.2252 42.9672 49.4767L42.9668 65.2766ZM69.4863 65.2766V36.697C69.4863 36.4463 69.6909 36.2416 69.9416 36.2416H74.5045C74.7552 36.2416 74.9598 36.4455 74.9598 36.697V65.2766H69.4863ZM80.1287 54.5934H76.3254V36.6959C76.3254 35.6915 75.5085 34.8746 74.504 34.8746H69.9412C68.9367 34.8746 68.1198 35.6915 68.1198 36.6959V54.5934H65.6605V45.8249C65.6605 44.8204 64.8436 44.0035 63.8396 44.0035H59.2767C58.2723 44.0035 57.4558 44.8205 57.4558 45.8249V54.5934H54.9965L54.9969 41.2606C54.9969 40.2561 54.1799 39.4392 53.1755 39.4392H48.6126C47.6082 39.4392 46.7917 40.2561 46.7917 41.2606V54.5934H44.3324V49.4762C44.3324 48.4717 43.5155 47.6548 42.511 47.6548H37.9482C36.9437 47.6548 36.1272 48.4717 36.1272 49.4762V54.5934H32.3246C30.8183 54.5934 29.5929 53.368 29.5929 51.8617V21.9234H82.8605V51.8617C82.8605 53.3676 81.6352 54.593 80.1284 54.593L80.1287 54.5934ZM34.3311 18.4572C35.5296 18.4572 36.5055 17.4821 36.5055 16.2832C36.5055 15.0848 35.5304 14.1093 34.3311 14.1093C33.1318 14.1093 32.1571 15.0844 32.1571 16.2832C32.1575 17.4821 33.1326 18.4572 34.3311 18.4572ZM34.3311 15.4749C34.7767 15.4749 35.1395 15.8377 35.1395 16.2833C35.1395 16.7288 34.7767 17.0916 34.3311 17.0916C33.8855 17.0916 33.5227 16.7288 33.5227 16.2833C33.5227 15.8377 33.8855 15.4749 34.3311 15.4749ZM40.8931 18.4572C42.0915 18.4572 43.0675 17.4821 43.0675 16.2832C43.0675 15.0848 42.0924 14.1093 40.8931 14.1093C39.6938 14.1093 38.7191 15.0844 38.7191 16.2832C38.7191 17.4821 39.6946 18.4572 40.8931 18.4572ZM40.8931 15.4749C41.3386 15.4749 41.7014 15.8377 41.7014 16.2833C41.7014 16.7288 41.3386 17.0916 40.8931 17.0916C40.4475 17.0916 40.0847 16.7288 40.0847 16.2833C40.0847 15.8377 40.4475 15.4749 40.8931 15.4749ZM47.455 18.4572C48.6534 18.4572 49.6294 17.4821 49.6294 16.2832C49.6294 15.0848 48.6543 14.1093 47.455 14.1093C46.2557 14.1093 45.281 15.0844 45.281 16.2832C45.281 17.4821 46.2561 18.4572 47.455 18.4572ZM47.455 15.4749C47.9006 15.4749 48.2634 15.8377 48.2634 16.2833C48.2634 16.7288 47.9006 17.0916 47.455 17.0916C47.0094 17.0916 46.6466 16.7288 46.6466 16.2833C46.6462 15.8377 47.009 15.4749 47.455 15.4749ZM64.9976 18.4572H78.1207C79.3191 18.4572 80.2951 17.4821 80.2951 16.2828C80.2951 15.0844 79.32 14.1088 78.1207 14.1088H64.9976C63.7992 14.1088 62.8236 15.0839 62.8236 16.2828C62.8232 17.4821 63.7987 18.4572 64.9976 18.4572ZM64.9976 15.4749H78.1207C78.5662 15.4749 78.9291 15.8377 78.9291 16.2833C78.9291 16.7288 78.5662 17.0916 78.1207 17.0916L64.9976 17.092C64.5521 17.092 64.1893 16.7292 64.1893 16.2837C64.1893 15.8377 64.5517 15.4749 64.9976 15.4749ZM72.3235 25.6612L70.0028 25.3135C69.6298 25.258 69.282 25.5149 69.2262 25.8874C69.1703 26.2604 69.4272 26.6082 69.8002 26.664L70.5184 26.7716L63.3242 32.2297C62.8403 31.84 62.226 31.6064 61.5582 31.6064C60.6007 31.6064 59.7531 32.0866 59.2431 32.8183L53.6942 30.714C53.7068 30.6052 53.7142 30.4947 53.7142 30.3822C53.7142 28.827 52.4484 27.5617 50.8937 27.5617C49.3385 27.5617 48.0732 28.8274 48.0732 30.3822C48.0732 30.7262 48.1352 31.056 48.2485 31.3609L42.1031 35.5565C41.6046 35.1125 40.9483 34.8419 40.2296 34.8419C38.6744 34.8419 37.4091 36.1076 37.4091 37.6623C37.4091 39.2171 38.6749 40.4828 40.2296 40.4828C41.7843 40.4828 43.0501 39.2179 43.0501 37.6623C43.0501 37.3183 42.9881 36.9885 42.8748 36.6836L49.0201 32.4872C49.5187 32.9312 50.175 33.2018 50.8937 33.2018C51.8513 33.2018 52.6988 32.7216 53.2088 31.9899L58.7577 34.0942C58.7451 34.2031 58.7377 34.3139 58.7377 34.426C58.7377 35.9812 60.0035 37.2465 61.5582 37.2465C63.1134 37.2465 64.3787 35.9816 64.3787 34.426C64.3787 34.0322 64.2972 33.6572 64.1508 33.3164L71.2981 27.8942L71.1991 28.5559C71.1432 28.9289 71.4001 29.2766 71.773 29.3324C72.146 29.3883 72.4938 29.1315 72.5496 28.7585L72.8973 26.4377C72.9536 26.0647 72.6968 25.7174 72.3234 25.6612L72.3235 25.6612ZM40.2302 39.1182C39.4279 39.1182 38.7753 38.4656 38.7753 37.6633C38.7753 36.8611 39.428 36.2085 40.2302 36.2085C41.0324 36.2085 41.685 36.8611 41.685 37.6633C41.685 38.4656 41.0324 39.1182 40.2302 39.1182ZM50.8945 31.8371C50.0923 31.8371 49.4397 31.1845 49.4397 30.3823C49.4397 29.5801 50.0923 28.9274 50.8945 28.9274C51.6968 28.9274 52.3494 29.5801 52.3494 30.3823C52.3494 31.1845 51.6968 31.8371 50.8945 31.8371ZM61.5589 35.8823C60.7567 35.8823 60.1041 35.2296 60.1041 34.4274C60.1041 33.6252 60.7567 32.9725 61.5589 32.9725C62.3611 32.9725 63.0138 33.6252 63.0138 34.4274C63.0138 35.2296 62.3611 35.8823 61.5589 35.8823Z" fill="#1742E7" stroke="#1742E7" stroke-width="0.7"></path></svg>