<svg xmlns="http://www.w3.org/2000/svg" viewBox="0 0 112 77" fill="none"><mask id="path-1-inside-1_9894_11025" fill="white"><path d="M63.8161 47.9872C63.4617 47.654 62.929 47.5961 62.511 47.845L60.8722 46.2062C63.5446 42.4188 64.7702 37.7984 64.3253 33.1851C63.8806 28.5708 61.7951 24.2695 58.4483 21.0628C55.1015 17.8558 50.7154 15.9557 46.0863 15.7082V12.7511H85.7448C86.327 12.7511 86.799 12.279 86.799 11.6968C86.799 11.1146 86.327 10.6426 85.7448 10.6426H45.032C44.4498 10.6426 43.9777 11.1146 43.9777 11.6968V15.7082C37.9369 16.0335 32.3949 19.1609 28.9939 24.1636C25.5926 29.1666 24.7228 35.4706 26.6416 41.2077C28.5605 46.9449 33.0482 51.4563 38.7747 53.4059C44.5011 55.3554 50.8099 54.519 55.8298 51.1444L57.5166 52.8312C57.2535 53.2472 57.3137 53.7904 57.6615 54.1387L68.9807 65.4589C69.7404 66.2171 70.7697 66.6426 71.8433 66.6426C72.9164 66.6426 73.9457 66.2171 74.7053 65.4589L75.1313 65.0329C75.889 64.2733 76.315 63.2439 76.315 62.1709C76.315 61.0978 75.889 60.0685 75.1313 59.3083L63.8161 47.9872ZM45.0321 23.8101C45.3117 23.8101 45.58 23.6991 45.7777 23.5014C45.9753 23.3037 46.0864 23.0359 46.0864 22.7559V21.8936C50.6659 22.2603 54.7267 24.9802 56.8084 29.0753C58.8905 33.1709 58.6957 38.054 56.293 41.9699C53.8907 45.8862 49.6267 48.2728 45.0321 48.2728C40.4375 48.2728 36.1735 45.8861 33.7707 41.9699C31.3684 38.0536 31.1736 33.1706 33.2554 29.0753C35.3375 24.9802 39.3978 22.2603 43.9778 21.8936V22.7559C43.9778 23.0359 44.0889 23.3037 44.2865 23.5014C44.4842 23.6991 44.7526 23.8101 45.0321 23.8101ZM45.0321 52.3284C38.987 52.3288 33.3821 49.1688 30.2531 43.9964C27.1247 38.8239 26.9284 32.3924 29.7349 27.039C32.5419 21.6852 37.9436 18.1888 43.9778 17.8202V19.7782V19.7777C38.6429 20.1457 33.886 23.269 31.4278 28.0179C28.9696 32.7668 29.1654 38.4542 31.9446 43.0223C34.7242 47.5909 39.6845 50.3795 45.0319 50.3795C50.3795 50.3795 55.3398 47.5908 58.1193 43.0223C60.8985 38.4541 61.0942 32.7667 58.6361 28.0179C56.1779 23.269 51.4209 20.1458 46.0861 19.7777V17.8217C52.1199 18.1902 57.5216 21.6867 60.3277 27.0404C63.1347 32.3942 62.9384 38.826 59.81 43.9979C56.6815 49.1704 51.0766 52.3303 45.031 52.3303L45.0321 52.3284ZM57.5255 49.8551C58.2484 49.2437 58.9262 48.5806 59.5526 47.8708L60.9937 49.3119L58.9879 51.3183L57.5255 49.8551ZM73.6419 63.5389L73.2155 63.9653V63.9658C72.8512 64.3282 72.3584 64.5315 71.8449 64.5315C71.331 64.5315 70.8382 64.3282 70.4744 63.9658L59.8992 53.393L63.0677 50.2245L73.6424 60.7987H73.6428C74.0057 61.1626 74.21 61.6558 74.21 62.1698C74.21 62.6842 74.0057 63.177 73.6428 63.5413L73.6419 63.5389Z"></path><path d="M35.3329 35.0577C35.3329 37.6303 36.3547 40.0969 38.1737 41.9161C39.9924 43.7352 42.4595 44.7569 45.0321 44.7569C47.6043 44.7569 50.0714 43.7351 51.8905 41.9161C53.7097 40.0969 54.7314 37.6303 54.7314 35.0577C54.7314 32.485 53.7096 30.0184 51.8905 28.1993C50.0714 26.3801 47.6043 25.3584 45.0321 25.3584C42.4605 25.3612 39.9952 26.384 38.177 28.2025C36.3584 30.0207 35.3357 32.486 35.3329 35.0577ZM46.0864 27.5489C47.7162 27.7795 49.2275 28.534 50.3914 29.6984C51.5558 30.8623 52.3103 32.3731 52.5409 34.0034H46.0869L46.0864 27.5489ZM43.9779 27.5489V35.0577C43.9779 35.3372 44.0889 35.6055 44.2866 35.8032C44.4843 36.0008 44.7526 36.1119 45.0321 36.1119H52.5409C52.2792 37.9847 51.3281 39.6917 49.8732 40.8994C48.4184 42.107 46.565 42.7279 44.6762 42.6408C42.7875 42.5532 40.9994 41.7635 39.6628 40.4263C38.3257 39.0897 37.5365 37.3016 37.4489 35.413C37.3618 33.5242 37.9826 31.6708 39.1903 30.216C40.3984 28.7612 42.1055 27.81 43.9782 27.5488L43.9779 27.5489Z"></path><path d="M85.7449 16.1712H68.4754C67.8932 16.1712 67.4211 16.6428 67.4211 17.2255C67.4211 17.8077 67.8932 18.2798 68.4754 18.2798H85.7449C86.3271 18.2798 86.7991 17.8077 86.7991 17.2255C86.7991 16.6428 86.3271 16.1712 85.7449 16.1712Z"></path><path d="M85.7449 27.7742H68.4754C67.8932 27.7742 67.4211 28.2463 67.4211 28.8285C67.4211 29.4107 67.8932 29.8827 68.4754 29.8827H85.7449C86.3271 29.8827 86.7991 29.4107 86.7991 28.8285C86.7991 28.2463 86.3271 27.7742 85.7449 27.7742Z"></path><path d="M85.7449 33.5757H74.2769C73.6947 33.5757 73.2226 34.0477 73.2226 34.6299C73.2226 35.2121 73.6947 35.6842 74.2769 35.6842H85.7449C86.3271 35.6842 86.7991 35.2121 86.7991 34.6299C86.7991 34.0477 86.3271 33.5757 85.7449 33.5757Z"></path><path d="M85.7449 21.9727H76.5977C76.0155 21.9727 75.5434 22.4448 75.5434 23.027C75.5434 23.6092 76.0155 24.0812 76.5977 24.0812H85.7449C86.3271 24.0812 86.7991 23.6092 86.7991 23.027C86.7991 22.4448 86.3271 21.9727 85.7449 21.9727Z"></path><path d="M68.4754 24.0812H72.3145C72.8967 24.0812 73.3688 23.6092 73.3688 23.027C73.3688 22.4448 72.8967 21.9727 72.3145 21.9727H68.4754C67.8932 21.9727 67.4211 22.4448 67.4211 23.027C67.4211 23.6092 67.8932 24.0812 68.4754 24.0812Z"></path></mask><path d="M63.8161 47.9872C63.4617 47.654 62.929 47.5961 62.511 47.845L60.8722 46.2062C63.5446 42.4188 64.7702 37.7984 64.3253 33.1851C63.8806 28.5708 61.7951 24.2695 58.4483 21.0628C55.1015 17.8558 50.7154 15.9557 46.0863 15.7082V12.7511H85.7448C86.327 12.7511 86.799 12.279 86.799 11.6968C86.799 11.1146 86.327 10.6426 85.7448 10.6426H45.032C44.4498 10.6426 43.9777 11.1146 43.9777 11.6968V15.7082C37.9369 16.0335 32.3949 19.1609 28.9939 24.1636C25.5926 29.1666 24.7228 35.4706 26.6416 41.2077C28.5605 46.9449 33.0482 51.4563 38.7747 53.4059C44.5011 55.3554 50.8099 54.519 55.8298 51.1444L57.5166 52.8312C57.2535 53.2472 57.3137 53.7904 57.6615 54.1387L68.9807 65.4589C69.7404 66.2171 70.7697 66.6426 71.8433 66.6426C72.9164 66.6426 73.9457 66.2171 74.7053 65.4589L75.1313 65.0329C75.889 64.2733 76.315 63.2439 76.315 62.1709C76.315 61.0978 75.889 60.0685 75.1313 59.3083L63.8161 47.9872ZM45.0321 23.8101C45.3117 23.8101 45.58 23.6991 45.7777 23.5014C45.9753 23.3037 46.0864 23.0359 46.0864 22.7559V21.8936C50.6659 22.2603 54.7267 24.9802 56.8084 29.0753C58.8905 33.1709 58.6957 38.054 56.293 41.9699C53.8907 45.8862 49.6267 48.2728 45.0321 48.2728C40.4375 48.2728 36.1735 45.8861 33.7707 41.9699C31.3684 38.0536 31.1736 33.1706 33.2554 29.0753C35.3375 24.9802 39.3978 22.2603 43.9778 21.8936V22.7559C43.9778 23.0359 44.0889 23.3037 44.2865 23.5014C44.4842 23.6991 44.7526 23.8101 45.0321 23.8101ZM45.0321 52.3284C38.987 52.3288 33.3821 49.1688 30.2531 43.9964C27.1247 38.8239 26.9284 32.3924 29.7349 27.039C32.5419 21.6852 37.9436 18.1888 43.9778 17.8202V19.7782V19.7777C38.6429 20.1457 33.886 23.269 31.4278 28.0179C28.9696 32.7668 29.1654 38.4542 31.9446 43.0223C34.7242 47.5909 39.6845 50.3795 45.0319 50.3795C50.3795 50.3795 55.3398 47.5908 58.1193 43.0223C60.8985 38.4541 61.0942 32.7667 58.6361 28.0179C56.1779 23.269 51.4209 20.1458 46.0861 19.7777V17.8217C52.1199 18.1902 57.5216 21.6867 60.3277 27.0404C63.1347 32.3942 62.9384 38.826 59.81 43.9979C56.6815 49.1704 51.0766 52.3303 45.031 52.3303L45.0321 52.3284ZM57.5255 49.8551C58.2484 49.2437 58.9262 48.5806 59.5526 47.8708L60.9937 49.3119L58.9879 51.3183L57.5255 49.8551ZM73.6419 63.5389L73.2155 63.9653V63.9658C72.8512 64.3282 72.3584 64.5315 71.8449 64.5315C71.331 64.5315 70.8382 64.3282 70.4744 63.9658L59.8992 53.393L63.0677 50.2245L73.6424 60.7987H73.6428C74.0057 61.1626 74.21 61.6558 74.21 62.1698C74.21 62.6842 74.0057 63.177 73.6428 63.5413L73.6419 63.5389Z" fill="#1742E7"></path><path d="M35.3329 35.0577C35.3329 37.6303 36.3547 40.0969 38.1737 41.9161C39.9924 43.7352 42.4595 44.7569 45.0321 44.7569C47.6043 44.7569 50.0714 43.7351 51.8905 41.9161C53.7097 40.0969 54.7314 37.6303 54.7314 35.0577C54.7314 32.485 53.7096 30.0184 51.8905 28.1993C50.0714 26.3801 47.6043 25.3584 45.0321 25.3584C42.4605 25.3612 39.9952 26.384 38.177 28.2025C36.3584 30.0207 35.3357 32.486 35.3329 35.0577ZM46.0864 27.5489C47.7162 27.7795 49.2275 28.534 50.3914 29.6984C51.5558 30.8623 52.3103 32.3731 52.5409 34.0034H46.0869L46.0864 27.5489ZM43.9779 27.5489V35.0577C43.9779 35.3372 44.0889 35.6055 44.2866 35.8032C44.4843 36.0008 44.7526 36.1119 45.0321 36.1119H52.5409C52.2792 37.9847 51.3281 39.6917 49.8732 40.8994C48.4184 42.107 46.565 42.7279 44.6762 42.6408C42.7875 42.5532 40.9994 41.7635 39.6628 40.4263C38.3257 39.0897 37.5365 37.3016 37.4489 35.413C37.3618 33.5242 37.9826 31.6708 39.1903 30.216C40.3984 28.7612 42.1055 27.81 43.9782 27.5488L43.9779 27.5489Z" fill="#1742E7"></path><path d="M85.7449 16.1712H68.4754C67.8932 16.1712 67.4211 16.6428 67.4211 17.2255C67.4211 17.8077 67.8932 18.2798 68.4754 18.2798H85.7449C86.3271 18.2798 86.7991 17.8077 86.7991 17.2255C86.7991 16.6428 86.3271 16.1712 85.7449 16.1712Z" fill="#1742E7"></path><path d="M85.7449 27.7742H68.4754C67.8932 27.7742 67.4211 28.2463 67.4211 28.8285C67.4211 29.4107 67.8932 29.8827 68.4754 29.8827H85.7449C86.3271 29.8827 86.7991 29.4107 86.7991 28.8285C86.7991 28.2463 86.3271 27.7742 85.7449 27.7742Z" fill="#1742E7"></path><path d="M85.7449 33.5757H74.2769C73.6947 33.5757 73.2226 34.0477 73.2226 34.6299C73.2226 35.2121 73.6947 35.6842 74.2769 35.6842H85.7449C86.3271 35.6842 86.7991 35.2121 86.7991 34.6299C86.7991 34.0477 86.3271 33.5757 85.7449 33.5757Z" fill="#1742E7"></path><path d="M85.7449 21.9727H76.5977C76.0155 21.9727 75.5434 22.4448 75.5434 23.027C75.5434 23.6092 76.0155 24.0812 76.5977 24.0812H85.7449C86.3271 24.0812 86.7991 23.6092 86.7991 23.027C86.7991 22.4448 86.3271 21.9727 85.7449 21.9727Z" fill="#1742E7"></path><path d="M68.4754 24.0812H72.3145C72.8967 24.0812 73.3688 23.6092 73.3688 23.027C73.3688 22.4448 72.8967 21.9727 72.3145 21.9727H68.4754C67.8932 21.9727 67.4211 22.4448 67.4211 23.027C67.4211 23.6092 67.8932 24.0812 68.4754 24.0812Z" fill="#1742E7"></path><path d="M63.8161 47.9872C63.4617 47.654 62.929 47.5961 62.511 47.845L60.8722 46.2062C63.5446 42.4188 64.7702 37.7984 64.3253 33.1851C63.8806 28.5708 61.7951 24.2695 58.4483 21.0628C55.1015 17.8558 50.7154 15.9557 46.0863 15.7082V12.7511H85.7448C86.327 12.7511 86.799 12.279 86.799 11.6968C86.799 11.1146 86.327 10.6426 85.7448 10.6426H45.032C44.4498 10.6426 43.9777 11.1146 43.9777 11.6968V15.7082C37.9369 16.0335 32.3949 19.1609 28.9939 24.1636C25.5926 29.1666 24.7228 35.4706 26.6416 41.2077C28.5605 46.9449 33.0482 51.4563 38.7747 53.4059C44.5011 55.3554 50.8099 54.519 55.8298 51.1444L57.5166 52.8312C57.2535 53.2472 57.3137 53.7904 57.6615 54.1387L68.9807 65.4589C69.7404 66.2171 70.7697 66.6426 71.8433 66.6426C72.9164 66.6426 73.9457 66.2171 74.7053 65.4589L75.1313 65.0329C75.889 64.2733 76.315 63.2439 76.315 62.1709C76.315 61.0978 75.889 60.0685 75.1313 59.3083L63.8161 47.9872ZM45.0321 23.8101C45.3117 23.8101 45.58 23.6991 45.7777 23.5014C45.9753 23.3037 46.0864 23.0359 46.0864 22.7559V21.8936C50.6659 22.2603 54.7267 24.9802 56.8084 29.0753C58.8905 33.1709 58.6957 38.054 56.293 41.9699C53.8907 45.8862 49.6267 48.2728 45.0321 48.2728C40.4375 48.2728 36.1735 45.8861 33.7707 41.9699C31.3684 38.0536 31.1736 33.1706 33.2554 29.0753C35.3375 24.9802 39.3978 22.2603 43.9778 21.8936V22.7559C43.9778 23.0359 44.0889 23.3037 44.2865 23.5014C44.4842 23.6991 44.7526 23.8101 45.0321 23.8101ZM45.0321 52.3284C38.987 52.3288 33.3821 49.1688 30.2531 43.9964C27.1247 38.8239 26.9284 32.3924 29.7349 27.039C32.5419 21.6852 37.9436 18.1888 43.9778 17.8202V19.7782V19.7777C38.6429 20.1457 33.886 23.269 31.4278 28.0179C28.9696 32.7668 29.1654 38.4542 31.9446 43.0223C34.7242 47.5909 39.6845 50.3795 45.0319 50.3795C50.3795 50.3795 55.3398 47.5908 58.1193 43.0223C60.8985 38.4541 61.0942 32.7667 58.6361 28.0179C56.1779 23.269 51.4209 20.1458 46.0861 19.7777V17.8217C52.1199 18.1902 57.5216 21.6867 60.3277 27.0404C63.1347 32.3942 62.9384 38.826 59.81 43.9979C56.6815 49.1704 51.0766 52.3303 45.031 52.3303L45.0321 52.3284ZM57.5255 49.8551C58.2484 49.2437 58.9262 48.5806 59.5526 47.8708L60.9937 49.3119L58.9879 51.3183L57.5255 49.8551ZM73.6419 63.5389L73.2155 63.9653V63.9658C72.8512 64.3282 72.3584 64.5315 71.8449 64.5315C71.331 64.5315 70.8382 64.3282 70.4744 63.9658L59.8992 53.393L63.0677 50.2245L73.6424 60.7987H73.6428C74.0057 61.1626 74.21 61.6558 74.21 62.1698C74.21 62.6842 74.0057 63.177 73.6428 63.5413L73.6419 63.5389Z" stroke="#1742E7" stroke-width="0.56" mask="url(#path-1-inside-1_9894_11025)"></path><path d="M35.3329 35.0577C35.3329 37.6303 36.3547 40.0969 38.1737 41.9161C39.9924 43.7352 42.4595 44.7569 45.0321 44.7569C47.6043 44.7569 50.0714 43.7351 51.8905 41.9161C53.7097 40.0969 54.7314 37.6303 54.7314 35.0577C54.7314 32.485 53.7096 30.0184 51.8905 28.1993C50.0714 26.3801 47.6043 25.3584 45.0321 25.3584C42.4605 25.3612 39.9952 26.384 38.177 28.2025C36.3584 30.0207 35.3357 32.486 35.3329 35.0577ZM46.0864 27.5489C47.7162 27.7795 49.2275 28.534 50.3914 29.6984C51.5558 30.8623 52.3103 32.3731 52.5409 34.0034H46.0869L46.0864 27.5489ZM43.9779 27.5489V35.0577C43.9779 35.3372 44.0889 35.6055 44.2866 35.8032C44.4843 36.0008 44.7526 36.1119 45.0321 36.1119H52.5409C52.2792 37.9847 51.3281 39.6917 49.8732 40.8994C48.4184 42.107 46.565 42.7279 44.6762 42.6408C42.7875 42.5532 40.9994 41.7635 39.6628 40.4263C38.3257 39.0897 37.5365 37.3016 37.4489 35.413C37.3618 33.5242 37.9826 31.6708 39.1903 30.216C40.3984 28.7612 42.1055 27.81 43.9782 27.5488L43.9779 27.5489Z" stroke="#1742E7" stroke-width="0.56" mask="url(#path-1-inside-1_9894_11025)"></path><path d="M85.7449 16.1712H68.4754C67.8932 16.1712 67.4211 16.6428 67.4211 17.2255C67.4211 17.8077 67.8932 18.2798 68.4754 18.2798H85.7449C86.3271 18.2798 86.7991 17.8077 86.7991 17.2255C86.7991 16.6428 86.3271 16.1712 85.7449 16.1712Z" stroke="#1742E7" stroke-width="0.56" mask="url(#path-1-inside-1_9894_11025)"></path><path d="M85.7449 27.7742H68.4754C67.8932 27.7742 67.4211 28.2463 67.4211 28.8285C67.4211 29.4107 67.8932 29.8827 68.4754 29.8827H85.7449C86.3271 29.8827 86.7991 29.4107 86.7991 28.8285C86.7991 28.2463 86.3271 27.7742 85.7449 27.7742Z" stroke="#1742E7" stroke-width="0.56" mask="url(#path-1-inside-1_9894_11025)"></path><path d="M85.7449 33.5757H74.2769C73.6947 33.5757 73.2226 34.0477 73.2226 34.6299C73.2226 35.2121 73.6947 35.6842 74.2769 35.6842H85.7449C86.3271 35.6842 86.7991 35.2121 86.7991 34.6299C86.7991 34.0477 86.3271 33.5757 85.7449 33.5757Z" stroke="#1742E7" stroke-width="0.56" mask="url(#path-1-inside-1_9894_11025)"></path><path d="M85.7449 21.9727H76.5977C76.0155 21.9727 75.5434 22.4448 75.5434 23.027C75.5434 23.6092 76.0155 24.0812 76.5977 24.0812H85.7449C86.3271 24.0812 86.7991 23.6092 86.7991 23.027C86.7991 22.4448 86.3271 21.9727 85.7449 21.9727Z" stroke="#1742E7" stroke-width="0.56" mask="url(#path-1-inside-1_9894_11025)"></path><path d="M68.4754 24.0812H72.3145C72.8967 24.0812 73.3688 23.6092 73.3688 23.027C73.3688 22.4448 72.8967 21.9727 72.3145 21.9727H68.4754C67.8932 21.9727 67.4211 22.4448 67.4211 23.027C67.4211 23.6092 67.8932 24.0812 68.4754 24.0812Z" stroke="#1742E7" stroke-width="0.56" mask="url(#path-1-inside-1_9894_11025)"></path></svg>