<svg xmlns="http://www.w3.org/2000/svg" viewBox="0 0 112 77" fill="none"><mask id="path-1-inside-1_9894_11019" fill="white"><path d="M60.9615 18.1933C59.3983 17.8362 57.8051 17.6532 56.2247 17.6532C54.6443 17.6532 53.0495 17.8338 51.4879 18.1933C51.0862 18.286 50.803 18.6431 50.803 19.0529V22.3671C49.3781 22.838 48.0247 23.4895 46.7681 24.3134L44.1746 22.2452C43.8533 21.989 43.3971 21.989 43.0758 22.2452C41.8209 23.2433 40.6863 24.3761 39.7006 25.6123C38.7149 26.8478 37.8618 28.2076 37.1681 29.6536C36.9892 30.0236 37.0924 30.4693 37.4138 30.7255L40.0026 32.7914C39.4813 34.1993 39.1471 35.6641 39.0087 37.1628L35.7766 37.9005C35.375 37.9931 35.0917 38.3479 35.0894 38.7601C35.087 40.3639 35.2659 41.9589 35.6171 43.4992C35.9684 45.0395 36.4996 46.5547 37.1974 47.9985C37.3762 48.3685 37.7879 48.5661 38.1895 48.4758L41.4216 47.7382C42.1968 49.0223 43.1344 50.195 44.2169 51.2394L42.7773 54.2275C42.5985 54.5975 42.6993 55.0432 43.0212 55.2994C44.2738 56.2998 45.6313 57.1553 47.0561 57.8402C48.481 58.5252 49.9962 59.0552 51.5577 59.41C51.9594 59.5026 52.3687 59.3027 52.5499 58.9327L53.9894 55.9445C55.49 56.1398 56.9695 56.1398 58.47 55.9445L59.9095 58.9327C60.0585 59.2434 60.3716 59.4328 60.7041 59.4328C60.7692 59.4328 60.8343 59.4264 60.8994 59.4117C62.4626 59.0564 63.9785 58.5292 65.4009 57.842C66.8258 57.1571 68.1833 56.3015 69.4358 55.3012C69.7572 55.0449 69.858 54.5993 69.6798 54.2293L68.2402 51.2411C69.3227 50.1968 70.2597 49.024 71.0355 47.7399L74.2675 48.4776C74.6692 48.5679 75.0808 48.3703 75.2597 48.0003C75.9575 46.5566 76.4893 45.0432 76.8399 43.5009C77.1912 41.9605 77.3694 40.3655 77.3677 38.7619C77.3677 38.3502 77.0821 37.9925 76.6804 37.9022L73.4484 37.1646C73.3076 35.6664 72.9757 34.2016 72.4544 32.7931L75.0433 30.7273C75.3646 30.471 75.4655 30.0254 75.289 29.6554C74.5953 28.2094 73.7421 26.8519 72.7564 25.614C71.7707 24.3785 70.6361 23.2457 69.3813 22.2453C69.06 21.9891 68.6037 21.9891 68.2824 22.2453L65.6889 24.3135C64.43 23.4896 63.0789 22.8381 61.654 22.3672L61.6529 19.0548C61.6488 18.6432 61.3632 18.2854 60.9615 18.1933ZM65.2133 26.1305C65.5347 26.3598 65.968 26.3469 66.2747 26.1012L68.8177 24.0729C69.7548 24.8756 70.6126 25.7629 71.3731 26.7146C72.1319 27.6669 72.8062 28.7006 73.3803 29.7937L70.8419 31.8172C70.5352 32.0629 70.4255 32.4816 70.5768 32.8451C71.2471 34.4613 71.6358 36.1716 71.7326 37.9268C71.7537 38.3196 72.0334 38.6515 72.4175 38.7377L75.5868 39.4607C75.5446 40.6945 75.3851 41.9176 75.1142 43.105C74.8433 44.2924 74.4545 45.4628 73.9584 46.5933L70.7914 45.8703C70.409 45.7818 70.0138 45.9589 69.8227 46.3031C68.9736 47.8353 67.8805 49.2057 66.5718 50.3761C66.2775 50.6388 66.1936 51.0633 66.3637 51.4163L67.7739 54.3459C66.7817 55.0812 65.7268 55.7204 64.6298 56.25C63.5327 56.7795 62.3746 57.204 61.1812 57.5212L59.771 54.5916C59.6221 54.2826 59.3107 54.0915 58.9764 54.0915C58.9284 54.0915 58.8779 54.0956 58.8293 54.1044C57.9573 54.2515 57.0808 54.3272 56.2235 54.3272C55.3662 54.3272 54.4895 54.2515 53.6177 54.1044C53.2289 54.0393 52.8466 54.2369 52.6759 54.5916L51.2657 57.5212C50.0718 57.2058 48.9161 56.7795 47.8172 56.25C46.72 55.7222 45.6651 55.0837 44.673 54.3459L46.0833 51.4163C46.2533 51.061 46.1695 50.6364 45.8775 50.3761C44.5681 49.2057 43.4732 47.8353 42.6266 46.3031C42.4355 45.9583 42.0426 45.7818 41.6579 45.8703L38.4908 46.5933C37.9948 45.4628 37.606 44.2924 37.3351 43.105C37.0642 41.9176 36.9064 40.6943 36.8625 39.4607L40.0318 38.7377C40.4165 38.6492 40.6962 38.3196 40.7167 37.9268C40.8134 36.1718 41.2022 34.4637 41.8724 32.8451C42.0237 32.4816 41.9147 32.0611 41.6074 31.8172L39.069 29.7937C39.6425 28.7007 40.3151 27.6669 41.0762 26.7146C41.8367 25.7623 42.6923 24.8757 43.6315 24.0729L46.1746 26.1012C46.4813 26.3469 46.9164 26.3598 47.2359 26.1305C48.6673 25.1132 50.2452 24.3526 51.9264 23.8695C52.3046 23.7605 52.5655 23.4157 52.5655 23.0205L52.5638 19.7696C54.9867 19.3029 57.4565 19.3029 59.8794 19.7696V23.0188C59.8794 23.4117 60.1397 23.7588 60.5185 23.8679C62.2032 24.3511 63.7817 25.1139 65.213 26.1307L65.2133 26.1305Z"></path><path d="M46.0749 38.3985C46.0749 43.9949 50.6293 48.5493 56.2256 48.5493C61.822 48.5493 66.3764 43.9949 66.3764 38.3985C66.3764 32.8021 61.822 28.2477 56.2256 28.2477C50.6293 28.2483 46.0749 32.7997 46.0749 38.3985ZM64.6108 38.3985C64.6108 43.0221 60.8491 46.7837 56.2256 46.7837C51.6022 46.7837 47.8405 43.022 47.8405 38.3985C47.8405 33.775 51.6022 30.0133 56.2256 30.0133C60.8491 30.0133 64.6108 33.7732 64.6108 38.3985Z"></path><path d="M52.6468 38.0052C52.3002 37.6628 51.7408 37.6645 51.3984 38.0117C51.056 38.3582 51.0577 38.9176 51.4048 39.2601L54.5092 42.3344C54.6816 42.5044 54.9061 42.5906 55.1313 42.5906C55.3582 42.5906 55.5834 42.5044 55.7552 42.332L61.4924 36.5948C61.8372 36.2501 61.8372 35.6912 61.4924 35.3464C61.1476 35.0017 60.5888 35.0017 60.244 35.3464L55.129 40.4614L52.6468 38.0052Z"></path><path d="M65.2683 18.0777C65.3985 18.4372 65.7368 18.66 66.0986 18.66C66.1994 18.66 66.3003 18.643 66.3994 18.6072C66.8574 18.4413 67.0948 17.9346 66.9289 17.4767L65.9074 14.6603C75.7638 18.5925 82.2637 28.0871 82.2637 38.839C82.2637 53.197 70.5831 64.8775 56.2251 64.8775C51.1201 64.8775 46.1775 63.3999 41.9321 60.607C41.5246 60.3378 40.9781 60.4516 40.709 60.8591C40.4398 61.2667 40.5536 61.8132 40.9611 62.0823C45.4962 65.0664 50.7735 66.6426 56.2231 66.6426C63.6502 66.6426 70.6315 63.7505 75.8834 58.499C81.1352 53.2474 84.027 46.266 84.027 38.8387C84.027 32.8259 82.1401 27.1058 78.5672 22.2917C75.5579 18.2357 71.5922 15.1273 67.0021 13.2022L69.3387 12.3555C69.7967 12.1896 70.0342 11.6829 69.8682 11.225C69.7023 10.767 69.1957 10.5295 68.7377 10.6955L64.1353 12.3643C63.9148 12.444 63.7359 12.6082 63.6374 12.8205C63.5389 13.0328 63.5283 13.2744 63.6081 13.4948L65.2683 18.0777Z"></path><path d="M33.2492 58.2584C32.7619 58.2584 32.3667 58.6537 32.3667 59.1409C32.3667 59.6282 32.7619 60.0234 33.2492 60.0234H38.5453C39.0326 60.0234 39.4278 59.6282 39.4278 59.1409V54.2863C39.4278 53.799 39.0326 53.4038 38.5453 53.4038C38.0581 53.4038 37.6628 53.799 37.6628 54.2863V57.092C32.8921 52.2374 30.1877 45.6928 30.1877 38.8398C30.1877 24.4818 41.8683 12.8012 56.2262 12.8012C57.6635 12.8012 59.1077 12.9191 60.5133 13.1525C60.9924 13.2322 61.4486 12.9068 61.5283 12.4254C61.6081 11.9439 61.2826 11.4901 60.8012 11.4103C59.2983 11.1623 57.7602 11.0362 56.224 11.0362C48.7968 11.0362 41.8155 13.9283 36.5637 19.1799C31.3132 24.4291 28.4219 31.4128 28.4219 38.8401C28.4219 46.1265 31.2823 53.0827 36.3321 58.2587L33.2492 58.2584Z"></path></mask><path d="M60.9615 18.1933C59.3983 17.8362 57.8051 17.6532 56.2247 17.6532C54.6443 17.6532 53.0495 17.8338 51.4879 18.1933C51.0862 18.286 50.803 18.6431 50.803 19.0529V22.3671C49.3781 22.838 48.0247 23.4895 46.7681 24.3134L44.1746 22.2452C43.8533 21.989 43.3971 21.989 43.0758 22.2452C41.8209 23.2433 40.6863 24.3761 39.7006 25.6123C38.7149 26.8478 37.8618 28.2076 37.1681 29.6536C36.9892 30.0236 37.0924 30.4693 37.4138 30.7255L40.0026 32.7914C39.4813 34.1993 39.1471 35.6641 39.0087 37.1628L35.7766 37.9005C35.375 37.9931 35.0917 38.3479 35.0894 38.7601C35.087 40.3639 35.2659 41.9589 35.6171 43.4992C35.9684 45.0395 36.4996 46.5547 37.1974 47.9985C37.3762 48.3685 37.7879 48.5661 38.1895 48.4758L41.4216 47.7382C42.1968 49.0223 43.1344 50.195 44.2169 51.2394L42.7773 54.2275C42.5985 54.5975 42.6993 55.0432 43.0212 55.2994C44.2738 56.2998 45.6313 57.1553 47.0561 57.8402C48.481 58.5252 49.9962 59.0552 51.5577 59.41C51.9594 59.5026 52.3687 59.3027 52.5499 58.9327L53.9894 55.9445C55.49 56.1398 56.9695 56.1398 58.47 55.9445L59.9095 58.9327C60.0585 59.2434 60.3716 59.4328 60.7041 59.4328C60.7692 59.4328 60.8343 59.4264 60.8994 59.4117C62.4626 59.0564 63.9785 58.5292 65.4009 57.842C66.8258 57.1571 68.1833 56.3015 69.4358 55.3012C69.7572 55.0449 69.858 54.5993 69.6798 54.2293L68.2402 51.2411C69.3227 50.1968 70.2597 49.024 71.0355 47.7399L74.2675 48.4776C74.6692 48.5679 75.0808 48.3703 75.2597 48.0003C75.9575 46.5566 76.4893 45.0432 76.8399 43.5009C77.1912 41.9605 77.3694 40.3655 77.3677 38.7619C77.3677 38.3502 77.0821 37.9925 76.6804 37.9022L73.4484 37.1646C73.3076 35.6664 72.9757 34.2016 72.4544 32.7931L75.0433 30.7273C75.3646 30.471 75.4655 30.0254 75.289 29.6554C74.5953 28.2094 73.7421 26.8519 72.7564 25.614C71.7707 24.3785 70.6361 23.2457 69.3813 22.2453C69.06 21.9891 68.6037 21.9891 68.2824 22.2453L65.6889 24.3135C64.43 23.4896 63.0789 22.8381 61.654 22.3672L61.6529 19.0548C61.6488 18.6432 61.3632 18.2854 60.9615 18.1933ZM65.2133 26.1305C65.5347 26.3598 65.968 26.3469 66.2747 26.1012L68.8177 24.0729C69.7548 24.8756 70.6126 25.7629 71.3731 26.7146C72.1319 27.6669 72.8062 28.7006 73.3803 29.7937L70.8419 31.8172C70.5352 32.0629 70.4255 32.4816 70.5768 32.8451C71.2471 34.4613 71.6358 36.1716 71.7326 37.9268C71.7537 38.3196 72.0334 38.6515 72.4175 38.7377L75.5868 39.4607C75.5446 40.6945 75.3851 41.9176 75.1142 43.105C74.8433 44.2924 74.4545 45.4628 73.9584 46.5933L70.7914 45.8703C70.409 45.7818 70.0138 45.9589 69.8227 46.3031C68.9736 47.8353 67.8805 49.2057 66.5718 50.3761C66.2775 50.6388 66.1936 51.0633 66.3637 51.4163L67.7739 54.3459C66.7817 55.0812 65.7268 55.7204 64.6298 56.25C63.5327 56.7795 62.3746 57.204 61.1812 57.5212L59.771 54.5916C59.6221 54.2826 59.3107 54.0915 58.9764 54.0915C58.9284 54.0915 58.8779 54.0956 58.8293 54.1044C57.9573 54.2515 57.0808 54.3272 56.2235 54.3272C55.3662 54.3272 54.4895 54.2515 53.6177 54.1044C53.2289 54.0393 52.8466 54.2369 52.6759 54.5916L51.2657 57.5212C50.0718 57.2058 48.9161 56.7795 47.8172 56.25C46.72 55.7222 45.6651 55.0837 44.673 54.3459L46.0833 51.4163C46.2533 51.061 46.1695 50.6364 45.8775 50.3761C44.5681 49.2057 43.4732 47.8353 42.6266 46.3031C42.4355 45.9583 42.0426 45.7818 41.6579 45.8703L38.4908 46.5933C37.9948 45.4628 37.606 44.2924 37.3351 43.105C37.0642 41.9176 36.9064 40.6943 36.8625 39.4607L40.0318 38.7377C40.4165 38.6492 40.6962 38.3196 40.7167 37.9268C40.8134 36.1718 41.2022 34.4637 41.8724 32.8451C42.0237 32.4816 41.9147 32.0611 41.6074 31.8172L39.069 29.7937C39.6425 28.7007 40.3151 27.6669 41.0762 26.7146C41.8367 25.7623 42.6923 24.8757 43.6315 24.0729L46.1746 26.1012C46.4813 26.3469 46.9164 26.3598 47.2359 26.1305C48.6673 25.1132 50.2452 24.3526 51.9264 23.8695C52.3046 23.7605 52.5655 23.4157 52.5655 23.0205L52.5638 19.7696C54.9867 19.3029 57.4565 19.3029 59.8794 19.7696V23.0188C59.8794 23.4117 60.1397 23.7588 60.5185 23.8679C62.2032 24.3511 63.7817 25.1139 65.213 26.1307L65.2133 26.1305Z" fill="#1742E7"></path><path d="M46.0749 38.3985C46.0749 43.9949 50.6293 48.5493 56.2256 48.5493C61.822 48.5493 66.3764 43.9949 66.3764 38.3985C66.3764 32.8021 61.822 28.2477 56.2256 28.2477C50.6293 28.2483 46.0749 32.7997 46.0749 38.3985ZM64.6108 38.3985C64.6108 43.0221 60.8491 46.7837 56.2256 46.7837C51.6022 46.7837 47.8405 43.022 47.8405 38.3985C47.8405 33.775 51.6022 30.0133 56.2256 30.0133C60.8491 30.0133 64.6108 33.7732 64.6108 38.3985Z" fill="#1742E7"></path><path d="M52.6468 38.0052C52.3002 37.6628 51.7408 37.6645 51.3984 38.0117C51.056 38.3582 51.0577 38.9176 51.4048 39.2601L54.5092 42.3344C54.6816 42.5044 54.9061 42.5906 55.1313 42.5906C55.3582 42.5906 55.5834 42.5044 55.7552 42.332L61.4924 36.5948C61.8372 36.2501 61.8372 35.6912 61.4924 35.3464C61.1476 35.0017 60.5888 35.0017 60.244 35.3464L55.129 40.4614L52.6468 38.0052Z" fill="#1742E7"></path><path d="M65.2683 18.0777C65.3985 18.4372 65.7368 18.66 66.0986 18.66C66.1994 18.66 66.3003 18.643 66.3994 18.6072C66.8574 18.4413 67.0948 17.9346 66.9289 17.4767L65.9074 14.6603C75.7638 18.5925 82.2637 28.0871 82.2637 38.839C82.2637 53.197 70.5831 64.8775 56.2251 64.8775C51.1201 64.8775 46.1775 63.3999 41.9321 60.607C41.5246 60.3378 40.9781 60.4516 40.709 60.8591C40.4398 61.2667 40.5536 61.8132 40.9611 62.0823C45.4962 65.0664 50.7735 66.6426 56.2231 66.6426C63.6502 66.6426 70.6315 63.7505 75.8834 58.499C81.1352 53.2474 84.027 46.266 84.027 38.8387C84.027 32.8259 82.1401 27.1058 78.5672 22.2917C75.5579 18.2357 71.5922 15.1273 67.0021 13.2022L69.3387 12.3555C69.7967 12.1896 70.0342 11.6829 69.8682 11.225C69.7023 10.767 69.1957 10.5295 68.7377 10.6955L64.1353 12.3643C63.9148 12.444 63.7359 12.6082 63.6374 12.8205C63.5389 13.0328 63.5283 13.2744 63.6081 13.4948L65.2683 18.0777Z" fill="#1742E7"></path><path d="M33.2492 58.2584C32.7619 58.2584 32.3667 58.6537 32.3667 59.1409C32.3667 59.6282 32.7619 60.0234 33.2492 60.0234H38.5453C39.0326 60.0234 39.4278 59.6282 39.4278 59.1409V54.2863C39.4278 53.799 39.0326 53.4038 38.5453 53.4038C38.0581 53.4038 37.6628 53.799 37.6628 54.2863V57.092C32.8921 52.2374 30.1877 45.6928 30.1877 38.8398C30.1877 24.4818 41.8683 12.8012 56.2262 12.8012C57.6635 12.8012 59.1077 12.9191 60.5133 13.1525C60.9924 13.2322 61.4486 12.9068 61.5283 12.4254C61.6081 11.9439 61.2826 11.4901 60.8012 11.4103C59.2983 11.1623 57.7602 11.0362 56.224 11.0362C48.7968 11.0362 41.8155 13.9283 36.5637 19.1799C31.3132 24.4291 28.4219 31.4128 28.4219 38.8401C28.4219 46.1265 31.2823 53.0827 36.3321 58.2587L33.2492 58.2584Z" fill="#1742E7"></path><path d="M60.9615 18.1933C59.3983 17.8362 57.8051 17.6532 56.2247 17.6532C54.6443 17.6532 53.0495 17.8338 51.4879 18.1933C51.0862 18.286 50.803 18.6431 50.803 19.0529V22.3671C49.3781 22.838 48.0247 23.4895 46.7681 24.3134L44.1746 22.2452C43.8533 21.989 43.3971 21.989 43.0758 22.2452C41.8209 23.2433 40.6863 24.3761 39.7006 25.6123C38.7149 26.8478 37.8618 28.2076 37.1681 29.6536C36.9892 30.0236 37.0924 30.4693 37.4138 30.7255L40.0026 32.7914C39.4813 34.1993 39.1471 35.6641 39.0087 37.1628L35.7766 37.9005C35.375 37.9931 35.0917 38.3479 35.0894 38.7601C35.087 40.3639 35.2659 41.9589 35.6171 43.4992C35.9684 45.0395 36.4996 46.5547 37.1974 47.9985C37.3762 48.3685 37.7879 48.5661 38.1895 48.4758L41.4216 47.7382C42.1968 49.0223 43.1344 50.195 44.2169 51.2394L42.7773 54.2275C42.5985 54.5975 42.6993 55.0432 43.0212 55.2994C44.2738 56.2998 45.6313 57.1553 47.0561 57.8402C48.481 58.5252 49.9962 59.0552 51.5577 59.41C51.9594 59.5026 52.3687 59.3027 52.5499 58.9327L53.9894 55.9445C55.49 56.1398 56.9695 56.1398 58.47 55.9445L59.9095 58.9327C60.0585 59.2434 60.3716 59.4328 60.7041 59.4328C60.7692 59.4328 60.8343 59.4264 60.8994 59.4117C62.4626 59.0564 63.9785 58.5292 65.4009 57.842C66.8258 57.1571 68.1833 56.3015 69.4358 55.3012C69.7572 55.0449 69.858 54.5993 69.6798 54.2293L68.2402 51.2411C69.3227 50.1968 70.2597 49.024 71.0355 47.7399L74.2675 48.4776C74.6692 48.5679 75.0808 48.3703 75.2597 48.0003C75.9575 46.5566 76.4893 45.0432 76.8399 43.5009C77.1912 41.9605 77.3694 40.3655 77.3677 38.7619C77.3677 38.3502 77.0821 37.9925 76.6804 37.9022L73.4484 37.1646C73.3076 35.6664 72.9757 34.2016 72.4544 32.7931L75.0433 30.7273C75.3646 30.471 75.4655 30.0254 75.289 29.6554C74.5953 28.2094 73.7421 26.8519 72.7564 25.614C71.7707 24.3785 70.6361 23.2457 69.3813 22.2453C69.06 21.9891 68.6037 21.9891 68.2824 22.2453L65.6889 24.3135C64.43 23.4896 63.0789 22.8381 61.654 22.3672L61.6529 19.0548C61.6488 18.6432 61.3632 18.2854 60.9615 18.1933ZM65.2133 26.1305C65.5347 26.3598 65.968 26.3469 66.2747 26.1012L68.8177 24.0729C69.7548 24.8756 70.6126 25.7629 71.3731 26.7146C72.1319 27.6669 72.8062 28.7006 73.3803 29.7937L70.8419 31.8172C70.5352 32.0629 70.4255 32.4816 70.5768 32.8451C71.2471 34.4613 71.6358 36.1716 71.7326 37.9268C71.7537 38.3196 72.0334 38.6515 72.4175 38.7377L75.5868 39.4607C75.5446 40.6945 75.3851 41.9176 75.1142 43.105C74.8433 44.2924 74.4545 45.4628 73.9584 46.5933L70.7914 45.8703C70.409 45.7818 70.0138 45.9589 69.8227 46.3031C68.9736 47.8353 67.8805 49.2057 66.5718 50.3761C66.2775 50.6388 66.1936 51.0633 66.3637 51.4163L67.7739 54.3459C66.7817 55.0812 65.7268 55.7204 64.6298 56.25C63.5327 56.7795 62.3746 57.204 61.1812 57.5212L59.771 54.5916C59.6221 54.2826 59.3107 54.0915 58.9764 54.0915C58.9284 54.0915 58.8779 54.0956 58.8293 54.1044C57.9573 54.2515 57.0808 54.3272 56.2235 54.3272C55.3662 54.3272 54.4895 54.2515 53.6177 54.1044C53.2289 54.0393 52.8466 54.2369 52.6759 54.5916L51.2657 57.5212C50.0718 57.2058 48.9161 56.7795 47.8172 56.25C46.72 55.7222 45.6651 55.0837 44.673 54.3459L46.0833 51.4163C46.2533 51.061 46.1695 50.6364 45.8775 50.3761C44.5681 49.2057 43.4732 47.8353 42.6266 46.3031C42.4355 45.9583 42.0426 45.7818 41.6579 45.8703L38.4908 46.5933C37.9948 45.4628 37.606 44.2924 37.3351 43.105C37.0642 41.9176 36.9064 40.6943 36.8625 39.4607L40.0318 38.7377C40.4165 38.6492 40.6962 38.3196 40.7167 37.9268C40.8134 36.1718 41.2022 34.4637 41.8724 32.8451C42.0237 32.4816 41.9147 32.0611 41.6074 31.8172L39.069 29.7937C39.6425 28.7007 40.3151 27.6669 41.0762 26.7146C41.8367 25.7623 42.6923 24.8757 43.6315 24.0729L46.1746 26.1012C46.4813 26.3469 46.9164 26.3598 47.2359 26.1305C48.6673 25.1132 50.2452 24.3526 51.9264 23.8695C52.3046 23.7605 52.5655 23.4157 52.5655 23.0205L52.5638 19.7696C54.9867 19.3029 57.4565 19.3029 59.8794 19.7696V23.0188C59.8794 23.4117 60.1397 23.7588 60.5185 23.8679C62.2032 24.3511 63.7817 25.1139 65.213 26.1307L65.2133 26.1305Z" stroke="#1742E7" stroke-width="0.56" mask="url(#path-1-inside-1_9894_11019)"></path><path d="M46.0749 38.3985C46.0749 43.9949 50.6293 48.5493 56.2256 48.5493C61.822 48.5493 66.3764 43.9949 66.3764 38.3985C66.3764 32.8021 61.822 28.2477 56.2256 28.2477C50.6293 28.2483 46.0749 32.7997 46.0749 38.3985ZM64.6108 38.3985C64.6108 43.0221 60.8491 46.7837 56.2256 46.7837C51.6022 46.7837 47.8405 43.022 47.8405 38.3985C47.8405 33.775 51.6022 30.0133 56.2256 30.0133C60.8491 30.0133 64.6108 33.7732 64.6108 38.3985Z" stroke="#1742E7" stroke-width="0.56" mask="url(#path-1-inside-1_9894_11019)"></path><path d="M52.6468 38.0052C52.3002 37.6628 51.7408 37.6645 51.3984 38.0117C51.056 38.3582 51.0577 38.9176 51.4048 39.2601L54.5092 42.3344C54.6816 42.5044 54.9061 42.5906 55.1313 42.5906C55.3582 42.5906 55.5834 42.5044 55.7552 42.332L61.4924 36.5948C61.8372 36.2501 61.8372 35.6912 61.4924 35.3464C61.1476 35.0017 60.5888 35.0017 60.244 35.3464L55.129 40.4614L52.6468 38.0052Z" stroke="#1742E7" stroke-width="0.56" mask="url(#path-1-inside-1_9894_11019)"></path><path d="M65.2683 18.0777C65.3985 18.4372 65.7368 18.66 66.0986 18.66C66.1994 18.66 66.3003 18.643 66.3994 18.6072C66.8574 18.4413 67.0948 17.9346 66.9289 17.4767L65.9074 14.6603C75.7638 18.5925 82.2637 28.0871 82.2637 38.839C82.2637 53.197 70.5831 64.8775 56.2251 64.8775C51.1201 64.8775 46.1775 63.3999 41.9321 60.607C41.5246 60.3378 40.9781 60.4516 40.709 60.8591C40.4398 61.2667 40.5536 61.8132 40.9611 62.0823C45.4962 65.0664 50.7735 66.6426 56.2231 66.6426C63.6502 66.6426 70.6315 63.7505 75.8834 58.499C81.1352 53.2474 84.027 46.266 84.027 38.8387C84.027 32.8259 82.1401 27.1058 78.5672 22.2917C75.5579 18.2357 71.5922 15.1273 67.0021 13.2022L69.3387 12.3555C69.7967 12.1896 70.0342 11.6829 69.8682 11.225C69.7023 10.767 69.1957 10.5295 68.7377 10.6955L64.1353 12.3643C63.9148 12.444 63.7359 12.6082 63.6374 12.8205C63.5389 13.0328 63.5283 13.2744 63.6081 13.4948L65.2683 18.0777Z" stroke="#1742E7" stroke-width="0.56" mask="url(#path-1-inside-1_9894_11019)"></path><path d="M33.2492 58.2584C32.7619 58.2584 32.3667 58.6537 32.3667 59.1409C32.3667 59.6282 32.7619 60.0234 33.2492 60.0234H38.5453C39.0326 60.0234 39.4278 59.6282 39.4278 59.1409V54.2863C39.4278 53.799 39.0326 53.4038 38.5453 53.4038C38.0581 53.4038 37.6628 53.799 37.6628 54.2863V57.092C32.8921 52.2374 30.1877 45.6928 30.1877 38.8398C30.1877 24.4818 41.8683 12.8012 56.2262 12.8012C57.6635 12.8012 59.1077 12.9191 60.5133 13.1525C60.9924 13.2322 61.4486 12.9068 61.5283 12.4254C61.6081 11.9439 61.2826 11.4901 60.8012 11.4103C59.2983 11.1623 57.7602 11.0362 56.224 11.0362C48.7968 11.0362 41.8155 13.9283 36.5637 19.1799C31.3132 24.4291 28.4219 31.4128 28.4219 38.8401C28.4219 46.1265 31.2823 53.0827 36.3321 58.2587L33.2492 58.2584Z" stroke="#1742E7" stroke-width="0.56" mask="url(#path-1-inside-1_9894_11019)"></path></svg>