<svg xmlns="http://www.w3.org/2000/svg" viewBox="0 0 101 100" fill="none"><path d="M82.1577 54.7287C80.41 54.26 78.5907 54.4975 77.0333 55.3968L58.8625 65.8866C58.6078 62.9052 56.5292 60.2564 53.4788 59.4252L33.098 53.8784C33.0427 53.863 32.9865 53.8521 32.9294 53.8449C29.8782 53.4406 27.0934 54.1848 24.6513 56.0549L19.0954 60.3099L18.8325 59.3282C18.6611 58.6873 18.2487 58.1507 17.6713 57.8171C17.0947 57.4835 16.423 57.3946 15.7821 57.5669L10.9323 58.8659C9.60614 59.2212 8.81567 60.59 9.17102 61.9162L16.2009 88.1535C16.4991 89.2648 17.5081 90 18.6077 90C18.8207 90 19.0364 89.9728 19.2513 89.9148L24.1001 88.6158C25.4263 88.2605 26.2168 86.8917 25.8615 85.5655L25.575 84.4976C28.5093 82.2813 31.2016 81.6549 34.4696 82.4046L46.1462 85.0814C47.1751 85.3171 48.164 85.4359 49.1195 85.4359C51.0694 85.4359 52.8787 84.9436 54.5956 83.9519L83.7894 67.0977C87.0147 65.2357 88.1234 61.0958 86.2614 57.8706C85.3622 56.3123 83.9045 55.1964 82.1577 54.7287ZM18.6657 87.4093L11.6775 61.3297L16.3686 60.0724L23.3568 86.1529L18.6657 87.4093ZM82.5022 64.8695L53.3093 81.7238C51.3404 82.8605 49.1848 83.1388 46.7209 82.5741L35.047 79.8981C31.3276 79.046 28.1277 79.6443 24.8661 81.8444L19.816 62.9985L26.215 58.0981C28.1005 56.654 30.1592 56.0929 32.5079 56.3848L52.8026 61.9089C55.3372 62.5988 56.8383 65.2221 56.1485 67.7567C55.4586 70.2912 52.8361 71.7923 50.3007 71.1016L39.4136 68.1383C38.7292 67.9516 38.0212 68.3559 37.8354 69.0412C37.6487 69.7265 38.053 70.4335 38.7383 70.6203L49.6253 73.5836C50.268 73.7585 50.9134 73.8419 51.5498 73.8419C54.5431 73.8419 57.3106 71.9918 58.4038 69.1218L78.3196 57.624C79.2823 57.0683 80.4091 56.9224 81.4924 57.2124C82.5756 57.5025 83.4785 58.1924 84.0342 59.155C85.1863 61.1529 84.4992 63.7165 82.5022 64.8695ZM80.9693 33.7445C83.1957 32.1364 84.6497 29.5202 84.6497 26.5705C84.6497 21.6927 80.681 17.7242 75.8032 17.7242C70.9253 17.7242 66.9567 21.6927 66.9567 26.5705C66.9567 29.5211 68.4098 32.1364 70.637 33.7445C69.6109 34.1143 68.6355 34.5911 67.7245 35.1613C66.7717 32.576 65.1174 30.259 62.9472 28.5077C61.6183 27.4353 60.1235 26.6014 58.5362 26.0285C60.7689 24.4213 62.2275 21.8015 62.2275 18.8464C62.2275 13.9686 58.2588 10 53.3809 10C48.5031 10 44.5344 13.9686 44.5344 18.8464C44.5344 21.7997 45.9903 24.4176 48.2202 26.0248C44.1338 27.4997 40.7924 30.6805 39.1643 34.825C38.4174 34.4008 37.6323 34.0382 36.8147 33.7436C39.041 32.1355 40.4951 29.5193 40.4951 26.5696C40.4951 21.6918 36.5264 17.7232 31.6485 17.7232C26.7707 17.7232 22.802 21.6918 22.802 26.5696C22.802 29.5202 24.2551 32.1355 26.4824 33.7436C20.5947 35.8656 16.3741 41.5085 16.3741 48.1177C16.3741 48.8284 16.9497 49.404 17.6604 49.404H45.6376C46.3483 49.404 46.924 48.8284 46.924 48.1177C46.924 45.8188 46.4127 43.6378 45.4989 41.6798H61.9555C61.0418 43.6369 60.5305 45.8188 60.5305 48.1177C60.5305 48.8284 61.1061 49.404 61.8168 49.404H89.7941C90.5048 49.404 91.0804 48.8284 91.0804 48.1177C91.0777 41.5094 86.857 35.8675 80.9693 33.7445ZM69.5284 26.5705C69.5284 23.1105 72.3431 20.2968 75.8023 20.2968C79.2615 20.2968 82.0761 23.1114 82.0761 26.5705C82.0761 30.0297 79.2615 32.8443 75.8023 32.8443C72.3431 32.8443 69.5284 30.0297 69.5284 26.5705ZM47.1062 18.8473C47.1062 15.3872 49.9208 12.5735 53.38 12.5735C56.8401 12.5735 59.6548 15.3881 59.6548 18.8473C59.6548 22.3064 56.841 25.1202 53.3818 25.1211H53.3782C49.919 25.1202 47.1062 22.3064 47.1062 18.8473ZM25.3729 26.5705C25.3729 23.1105 28.1875 20.2968 31.6467 20.2968C35.1059 20.2968 37.9206 23.1114 37.9206 26.5705C37.9206 30.0297 35.1059 32.8443 31.6467 32.8443C28.1875 32.8443 25.3729 30.0297 25.3729 26.5705ZM19.0092 46.8332C19.6556 40.4307 25.0764 35.4169 31.6476 35.4169C38.2179 35.4169 43.6388 40.4307 44.2851 46.8332H19.0092ZM43.9733 39.109C43.2173 38.0775 42.3362 37.1438 41.3508 36.3316C43.0895 31.2063 47.9184 27.6937 53.3782 27.6937H53.3818C58.9731 27.6946 63.9725 31.481 65.5579 36.8002C64.7892 37.4973 64.0912 38.2714 63.4775 39.1099L43.9733 39.109ZM63.1648 46.8332C63.8111 40.4307 69.232 35.4169 75.8023 35.4169C82.3726 35.4169 87.7934 40.4307 88.4398 46.8332H63.1648Z" fill="#1742E7"></path></svg>