<svg xmlns="http://www.w3.org/2000/svg" viewBox="0 0 112 77" fill="none"><path fill-rule="evenodd" clip-rule="evenodd" d="M30.5186 10.3844C29.6851 10.7043 28.7722 11.6293 28.4562 12.4742L28.2188 13.1087L28.247 32.7079L28.2752 52.3072L28.5218 52.8077C28.9225 53.6208 29.4782 54.1806 30.2734 54.5722L31.0047 54.9323L37.0539 54.9631L43.1031 54.9941L43.0721 56.0996L43.0409 57.2053L40.1971 58.8277C38.633 59.7201 37.221 60.5964 37.0594 60.7753C36.6492 61.2288 36.5342 61.7453 36.5342 63.1355C36.5342 64.531 36.6584 65.092 37.0627 65.5242C37.686 66.1903 35.94 66.1436 60.1253 66.141C81.4998 66.1387 82.3226 66.1312 82.7442 65.9356C82.9848 65.8239 83.3392 65.5666 83.5316 65.3637C84.2711 64.5843 84.2208 65.8234 84.2208 48.3856V32.5897L83.9159 32.003C83.675 31.5391 83.4803 31.3387 82.9862 31.0455L82.3614 30.6746V21.8893C82.3614 13.1515 82.3601 13.1006 82.1248 12.4718C81.8017 11.6082 80.8957 10.7023 80.0322 10.3792L79.4 10.1426L55.2594 10.1483L31.119 10.154L30.5186 10.3844ZM79.5172 12.343C79.7439 12.4704 80.0335 12.7601 80.161 12.9868C80.3914 13.3969 80.3926 13.4421 80.3926 21.9948V30.5907L72.0527 30.6207C63.7568 30.6506 63.7106 30.6519 63.2739 30.8857C62.6896 31.1988 62.2489 31.6487 62.0043 32.182C61.8168 32.5905 61.8034 33.0487 61.8012 39.1L61.7988 45.5806H45.994H30.1893V29.5093C30.1893 20.4868 30.2316 13.3271 30.2857 13.1849C30.4029 12.8778 30.9281 12.3369 31.2283 12.2145C31.3486 12.1654 42.1701 12.1221 55.2761 12.1182L79.1051 12.1114L79.5172 12.343ZM64.2597 13.9397C63.9269 14.0202 63.5681 14.3991 63.4907 14.752C63.4462 14.9547 63.3003 15.1309 63.0846 15.2424C62.7765 15.4017 62.7169 15.4015 62.3791 15.2405C61.7728 14.9513 61.4308 15.0145 60.7948 15.533C60.4787 15.7907 60.0093 16.2601 59.7516 16.5762C59.2336 17.2116 59.1433 17.7025 59.4563 18.1802C59.603 18.404 59.6084 18.5023 59.4921 18.824C59.3849 19.1205 59.279 19.2178 59.0084 19.2685C58.8178 19.3043 58.5432 19.4598 58.3983 19.6141C58.147 19.8816 58.1347 19.9626 58.1347 21.351C58.1347 22.9943 58.2033 23.1648 58.9552 23.3902C59.4752 23.5459 59.7273 24.1042 59.454 24.4944C59.36 24.6285 59.2831 24.9237 59.2831 25.1504C59.2831 25.4887 59.3857 25.6828 59.8574 26.2371C60.5156 27.0106 61.372 27.6428 61.7615 27.6428C61.9083 27.6428 62.1767 27.5662 62.3578 27.4725C62.8653 27.21 63.3706 27.4143 63.5027 27.9354C63.6844 28.6522 64.0185 28.7913 65.5577 28.7913C67.1162 28.7913 67.3963 28.6797 67.6076 27.9745C67.7755 27.414 68.2681 27.2043 68.7867 27.4725C68.9678 27.5662 69.2342 27.6428 69.3785 27.6428C70.0284 27.6428 71.8613 25.8167 71.8613 25.1692C71.8613 25.0298 71.7801 24.7454 71.6808 24.5372C71.4207 23.9918 71.6134 23.5626 72.1969 23.3879C72.7754 23.2145 72.9589 22.8928 73.0323 21.9236C73.1605 20.2278 72.8743 19.4179 72.0911 19.2613C71.6202 19.1671 71.4373 18.6808 71.6808 18.1702C71.8935 17.724 71.9083 17.4357 71.735 17.1081C71.4932 16.651 70.861 15.9538 70.2864 15.5106C69.6499 15.0195 69.1469 14.9314 68.713 15.2354C68.51 15.3776 68.4081 15.3842 68.1058 15.2749C67.8253 15.1735 67.7071 15.0411 67.587 14.6938C67.3562 14.026 66.9445 13.8585 65.5722 13.8743C64.9707 13.8812 64.38 13.9106 64.2597 13.9397ZM65.9653 16.1307C66.1424 16.5963 66.371 16.7899 66.9797 16.9899C67.2883 17.0913 67.6381 17.2409 67.7568 17.3225C68.0169 17.5013 68.7273 17.5167 69.0381 17.3505C69.2195 17.2534 69.3039 17.2711 69.4751 17.4421C69.6781 17.6453 69.6793 17.6707 69.5017 18.0432C69.3 18.4661 69.2898 18.4142 69.8391 19.7677C70.1456 20.5231 70.5342 20.9709 70.8831 20.9709C71.0451 20.9709 71.0957 21.0469 71.0957 21.29C71.0957 21.5499 71.0198 21.6464 70.6871 21.8096C70.252 22.0229 70.1963 22.1077 69.6656 23.365C69.3309 24.1577 69.3278 24.1817 69.4997 24.6192C69.6637 25.0368 69.6623 25.0778 69.4794 25.2608C69.2964 25.4438 69.2553 25.4451 68.8378 25.2812C68.4003 25.1092 68.3762 25.1124 67.5835 25.4471C66.3263 25.9778 66.2415 26.0335 66.0281 26.4686C65.8668 26.7975 65.767 26.8772 65.5172 26.8772C65.2615 26.8772 65.1941 26.8195 65.1351 26.5504C65.0674 26.2424 64.6276 25.7834 64.4001 25.7834C64.3431 25.7834 63.9491 25.631 63.5246 25.4447C62.767 25.1122 62.7446 25.1091 62.3067 25.2812C61.8855 25.4467 61.8491 25.4449 61.6546 25.2504C61.4823 25.0779 61.47 25.0047 61.5794 24.8002C61.7538 24.4742 61.6692 23.9106 61.3162 23.049C60.9029 22.04 60.8968 22.0313 60.4514 21.8096C60.1292 21.6491 60.0488 21.5472 60.0488 21.2987C60.0488 21.0451 60.1069 20.9754 60.3655 20.9187C60.7619 20.8316 60.9672 20.6001 61.1435 20.0412C61.2194 19.8005 61.3733 19.421 61.4854 19.1979C61.7151 18.7409 61.7481 18.2226 61.5691 17.8877C61.4718 17.7059 61.49 17.6215 61.6651 17.4465C61.8401 17.2714 61.9245 17.2531 62.1063 17.3505C62.463 17.5414 62.9342 17.4922 63.5653 17.1985C63.8871 17.0486 64.2299 16.9256 64.327 16.925C64.619 16.9233 65.0585 16.5054 65.1351 16.157C65.1949 15.8844 65.2602 15.8302 65.5289 15.8302C65.7797 15.8302 65.8764 15.8968 65.9653 16.1307ZM43.427 17.7533C42.8395 18.0082 42.6965 18.1903 42.2639 19.2341C42.0424 19.7682 41.812 20.2052 41.7519 20.2052C41.6917 20.2052 41.2258 20.3843 40.7164 20.603L39.7902 21.0008L38.8999 20.6322C37.387 20.0059 36.8747 20.1602 35.4862 21.6599C34.8542 22.3424 34.5669 22.8734 34.5649 23.3619C34.5646 23.4438 34.7426 23.951 34.9604 24.4893L35.3566 25.4677L35.0218 26.1998C34.8376 26.6024 34.6554 27.0619 34.6168 27.2207C34.5584 27.4609 34.3847 27.5768 33.5874 27.9072C32.0881 28.5287 31.9393 28.7789 31.9393 30.6779C31.9393 31.7396 31.9766 32.0258 32.1657 32.4166C32.3967 32.8938 32.5629 33.0033 34.0174 33.6358C34.4913 33.8419 34.525 33.8888 34.9246 34.8973L35.3395 35.9448L35.0116 36.7155C34.5445 37.8131 34.503 38.1386 34.7583 38.706C34.9995 39.2423 36.55 40.8061 37.0163 40.9834C37.5141 41.1727 37.9692 41.1087 38.9239 40.7155L39.8383 40.3389L40.3458 40.5958C40.625 40.7372 41.0632 40.9155 41.3195 40.9921C41.8851 41.1613 41.8934 41.1715 42.2782 42.1665C42.5929 42.9803 42.9574 43.4546 43.3969 43.6222C43.835 43.7891 45.3187 43.854 46.0239 43.737C47.0135 43.5728 47.2622 43.3498 47.7585 42.1822C48.1788 41.193 48.185 41.1854 48.7284 40.9944C49.0292 40.8885 49.4831 40.6956 49.7372 40.5656L50.1991 40.3291L51.1255 40.7127C52.619 41.3309 52.9982 41.2383 54.2977 39.9388C55.1676 39.0691 55.455 38.6073 55.455 38.0796C55.455 37.9207 55.2796 37.3573 55.0652 36.8277L54.6754 35.8649L54.9167 35.3919C55.0493 35.1317 55.2414 34.6733 55.3434 34.3732C55.5247 33.8398 55.5473 33.8201 56.3473 33.4969C57.9517 32.8489 58.0922 32.6258 58.0922 30.7265C58.0922 28.8312 57.9224 28.5249 56.5606 27.9635C56.1028 27.7748 55.6843 27.5787 55.6301 27.5279C55.5761 27.477 55.3453 26.9831 55.1174 26.4304L54.7028 25.4254L55.0789 24.5168C55.2858 24.0171 55.455 23.4808 55.455 23.3251C55.455 22.8273 55.1503 22.2888 54.4644 21.5745C53.0996 20.1532 52.5863 20.0098 51.1323 20.6438C50.4929 20.9226 50.2411 20.984 50.0533 20.9071C49.9185 20.852 49.4326 20.6591 48.9734 20.4787L48.1384 20.1505L47.7922 19.2568C47.4145 18.2818 47.0554 17.8529 46.4787 17.6874C45.8869 17.5177 43.8698 17.5613 43.427 17.7533ZM64.6789 18.6522C63.8933 18.9313 63.4329 19.3147 63.0597 20.0004C62.288 21.418 62.904 23.2737 64.3667 23.9381C65.3119 24.3675 66.7547 24.121 67.5274 23.398C68.2493 22.7227 68.5478 21.4547 68.2327 20.4029C67.821 19.0289 66.0604 18.1615 64.6789 18.6522ZM46.2013 20.5804C46.4258 21.1477 46.6718 21.6636 46.7479 21.7268C46.8241 21.79 47.2762 21.9721 47.7528 22.1315C48.2292 22.2908 48.9469 22.5923 49.3477 22.8014C50.1704 23.2308 50.1946 23.2285 51.6206 22.5894L52.3253 22.2735L52.8694 22.8176L53.4134 23.3616L53.0107 24.3264C52.7892 24.857 52.6087 25.4032 52.6096 25.5401C52.6105 25.6769 52.7766 26.1199 52.9786 26.5244C53.1808 26.929 53.4564 27.6045 53.591 28.0256C53.7258 28.4467 53.9299 28.8732 54.0445 28.9733C54.1591 29.0734 54.6709 29.3195 55.1817 29.5202L56.1105 29.885L56.1108 30.6658L56.1113 31.4464L55.2089 31.8038C54.0806 32.2506 53.8508 32.4568 53.6353 33.216C53.5405 33.5496 53.2677 34.2164 53.0289 34.6976C52.5162 35.7312 52.5184 35.9467 53.0538 37.187L53.4203 38.0358L52.9383 38.5269C52.6733 38.797 52.3971 39.018 52.3247 39.018C52.2524 39.018 51.7906 38.8457 51.2987 38.6352C50.8069 38.4246 50.2864 38.2523 50.1422 38.2523C49.9979 38.2523 49.5561 38.4242 49.1601 38.6343C48.7642 38.8443 48.1048 39.1181 47.6947 39.2426C47.2845 39.3672 46.8525 39.5768 46.7346 39.7084C46.6166 39.84 46.3612 40.349 46.1671 40.8393C45.8335 41.682 45.7927 41.735 45.426 41.8038C45.2128 41.8438 44.8542 41.8455 44.6295 41.8075C44.2297 41.74 44.2117 41.7159 43.8115 40.7045C43.3747 39.6009 43.3168 39.5419 42.4042 39.2709C42.0936 39.1787 41.4587 38.9117 40.9934 38.6777C40.528 38.4438 40.0275 38.2523 39.8811 38.2523C39.7347 38.2523 39.2063 38.4272 38.7068 38.6411C37.6681 39.0856 37.525 39.0617 36.9606 38.3491L36.6413 37.9461L37.0247 37.0504C37.2356 36.5579 37.408 36.0102 37.408 35.8336C37.408 35.657 37.2427 35.1815 37.0405 34.7769C36.8384 34.3723 36.5856 33.7706 36.4788 33.4398C36.1274 32.3509 36.0936 32.316 34.951 31.8639L33.8989 31.4475L33.9308 30.6721L33.9627 29.8969L34.8924 29.5259C35.4037 29.3218 35.9085 29.0774 36.0141 28.9829C36.1197 28.8884 36.3066 28.4733 36.4296 28.0606C36.5524 27.648 36.8229 26.9844 37.0305 26.586C37.2382 26.1877 37.408 25.7051 37.408 25.5137C37.408 25.3223 37.2307 24.7566 37.0141 24.2565L36.6201 23.3474L37.1565 22.811L37.6927 22.2746L38.5075 22.622C39.8929 23.2127 39.862 23.2113 40.8506 22.7296C41.3334 22.4944 42.0553 22.1967 42.4548 22.0682C42.8544 21.9397 43.2535 21.7509 43.3417 21.6488C43.4299 21.5466 43.669 21.0325 43.873 20.5064L44.244 19.5497L45.0185 19.5494L45.793 19.549L46.2013 20.5804ZM65.9472 20.584C66.4576 20.8479 66.5576 21.492 66.1548 21.9209C65.7318 22.3711 64.999 22.2235 64.7571 21.6395C64.5903 21.2369 64.7765 20.7744 65.1894 20.5655C65.5366 20.3898 65.5737 20.3908 65.9472 20.584ZM43.4784 23.3117C41.8757 23.6789 40.66 24.3852 39.5089 25.6176C35.6217 29.78 37.712 36.6279 43.2823 37.979C44.4417 38.2603 46.3631 38.1713 47.4525 37.786C49.6333 37.0145 51.3213 35.338 52.0998 33.1703C52.517 32.0089 52.6216 30.2702 52.3485 29.0423C51.7683 26.4342 49.8576 24.3439 47.3065 23.5265C46.2249 23.1799 44.4807 23.082 43.4784 23.3117ZM46.0612 25.2382C47.0713 25.4286 48.1874 26.0351 48.9341 26.7994C50.0125 27.9031 50.5294 29.1692 50.5318 30.7128C50.5341 32.1683 50.0283 33.4013 48.9823 34.4907C47.9027 35.615 46.5802 36.1742 45.0013 36.1742C41.9688 36.1742 39.493 33.7166 39.4875 30.701C39.4813 27.2494 42.6704 24.5991 46.0612 25.2382ZM82.0089 32.7351C82.2349 32.8933 82.252 32.9894 82.252 34.1023V35.2992H73.0098H63.7675V34.1507C63.7675 33.1481 63.7953 32.9745 63.9863 32.7835C64.2014 32.5684 64.3508 32.5648 72.9854 32.5648C80.7553 32.5648 81.7938 32.5843 82.0089 32.7351ZM82.252 48.4244V59.5808H73.0098H63.7675V48.4244V37.268H73.0098H82.252V48.4244ZM72.0801 40.9447C71.5097 41.0537 71.2148 41.2375 71.0487 41.5876C70.9543 41.7866 70.877 41.9947 70.877 42.0499C70.877 42.105 70.7224 42.2234 70.5335 42.3128C70.2208 42.4609 70.1529 42.457 69.7717 42.2684C69.1683 41.9698 68.8228 42.0911 67.935 42.913C66.7373 44.022 66.5463 44.442 66.9013 45.1862C67.1621 45.7333 66.9684 46.1543 66.3465 46.3917C65.6702 46.6501 65.5722 46.9084 65.5722 48.4329C65.5722 49.8908 65.7102 50.232 66.3909 50.4583C66.5991 50.5276 66.8197 50.708 66.9125 50.8852C67.0555 51.1582 67.0538 51.2333 66.897 51.5621C66.6075 52.1692 66.6705 52.5109 67.1891 53.1471C67.4468 53.4632 67.9163 53.9327 68.2324 54.1904C68.8612 54.703 69.3198 54.791 69.8728 54.5049C70.3038 54.282 70.8554 54.5236 70.9456 54.9748C71.0523 55.5081 71.4211 55.7599 72.2457 55.8622C73.0523 55.9622 74.0509 55.9054 74.506 55.7337C74.772 55.6333 75.1426 55.0776 75.1426 54.7794C75.1426 54.7134 75.3025 54.5924 75.4981 54.5106C75.7976 54.3851 75.9 54.3851 76.1489 54.5103C76.8574 54.8666 77.502 54.6024 78.4897 53.5506C79.3408 52.6444 79.4712 52.2469 79.1327 51.5922C78.8944 51.1314 79.1339 50.5629 79.6063 50.4684C80.344 50.3208 80.5636 49.7006 80.4821 47.9958C80.4271 46.8442 80.259 46.5164 79.6375 46.3491C79.0924 46.2023 78.8825 45.7405 79.1371 45.2481C79.3503 44.8358 79.342 44.3802 79.1152 44.0464C78.5396 43.1985 77.4739 42.2389 76.9901 42.1326C76.7972 42.0903 76.5426 42.1427 76.2759 42.2795C75.8951 42.4748 75.8331 42.4787 75.5151 42.3271C75.2666 42.2085 75.133 42.0422 75.0419 41.738C74.8582 41.1252 74.5787 40.9905 73.3817 40.9378C72.8162 40.9128 72.2305 40.916 72.0801 40.9447ZM73.3926 43.0565C73.3926 43.3808 73.9053 43.9152 74.2979 44.0001C74.4918 44.042 74.8826 44.1932 75.1663 44.3362C75.7644 44.6376 76.0192 44.6575 76.4472 44.4362C76.7302 44.2899 76.7731 44.2943 76.9484 44.4881C77.1133 44.6703 77.1212 44.7459 77.0042 45.0284C76.826 45.4586 76.9007 45.8899 77.3316 46.9186C77.6438 47.6642 77.7361 47.7866 78.1095 47.9514C78.4483 48.1008 78.5332 48.1965 78.5332 48.4289C78.5332 48.6637 78.4535 48.7506 78.1172 48.8828C77.7461 49.0286 77.6613 49.1396 77.3323 49.911C76.9687 50.7636 76.855 51.5506 77.0395 51.9377C77.1609 52.1925 76.8156 52.5094 76.5208 52.4137C75.9221 52.2194 75.5997 52.2389 75.0768 52.5009C74.7821 52.6487 74.3513 52.831 74.1193 52.9062C73.7774 53.0169 73.6567 53.1349 73.4824 53.5292C73.2994 53.943 73.2256 54.0106 72.9881 53.9817C72.7781 53.9563 72.6784 53.8529 72.5859 53.5652C72.4989 53.2947 72.3508 53.1299 72.0801 53.0028C70.3581 52.194 70.1477 52.141 69.6197 52.3816C69.3754 52.4928 69.3045 52.4786 69.104 52.2781C68.936 52.1102 68.9025 52.0061 68.9834 51.9031C69.2476 51.5662 69.2117 51.2274 68.802 50.1927C68.4163 49.2187 68.3483 49.118 67.9388 48.9166C67.5946 48.7472 67.4933 48.6346 67.4902 48.418C67.4872 48.1973 67.5745 48.0994 67.9046 47.9538C68.2854 47.7858 68.3648 47.6704 68.7921 46.6647L69.2615 45.5602L69.0843 45.1091C68.9175 44.6845 68.9188 44.6464 69.1062 44.459C69.2891 44.276 69.3309 44.2734 69.6262 44.4274C70.0474 44.647 70.3066 44.6395 70.7692 44.3937C70.9789 44.2824 71.4141 44.1044 71.7364 43.9982C72.256 43.8271 72.3464 43.7508 72.5344 43.3257C72.716 42.9154 72.7932 42.8462 73.0696 42.8462C73.3154 42.8462 73.3926 42.8965 73.3926 43.0565ZM72.0393 45.7411C70.9545 46.1279 70.2207 47.195 70.2207 48.3856C70.2207 49.5269 70.6951 50.3591 71.6382 50.8724C72.3506 51.2602 73.0814 51.3426 73.8392 51.1209C75.0465 50.7677 75.829 49.7134 75.8329 48.435C75.8354 47.6031 75.6555 47.1111 75.1297 46.5124C74.4041 45.6859 73.1044 45.3615 72.0393 45.7411ZM61.7988 50.2849V53.0205L46.5489 52.9919L31.299 52.9635L30.9902 52.7347C30.8204 52.6088 30.5708 52.3431 30.4354 52.1443C30.2011 51.8001 30.1893 51.6811 30.1893 49.666V47.5494H45.994H61.7988V50.2849ZM73.6105 47.8219C74.124 48.3685 73.7385 49.2994 72.9987 49.2994C72.5947 49.2994 72.1895 48.8403 72.1895 48.3826C72.1895 47.6429 73.1035 47.2823 73.6105 47.8219ZM52.9017 49.4233C52.7908 49.4877 52.6303 49.7077 52.5449 49.9121C52.4101 50.2347 52.4108 50.3344 52.5498 50.6672C52.6446 50.8941 52.8268 51.0952 52.9959 51.1594C53.4279 51.3237 57.3063 51.2966 57.6425 51.127C57.9931 50.9501 58.2003 50.348 58.0546 49.9299C57.8476 49.3358 57.686 49.2991 55.2939 49.3027C53.9404 49.3047 53.0264 49.3508 52.9017 49.4233ZM61.7988 55.862V56.737H53.4316H45.0643V55.862V54.987H53.4316H61.7988V55.862ZM61.7988 59.5808V60.4558L51.5995 60.4525C45.2772 60.4504 41.4626 60.4105 41.5643 60.3476C41.6545 60.2917 42.319 59.9022 43.0409 59.4821L44.3534 58.7182L53.0761 58.712L61.7988 58.7058V59.5808ZM82.252 62.6505C82.252 63.256 82.201 63.8467 82.1388 63.9631C82.0282 64.1696 81.8121 64.1746 73.0684 64.1746C65.0714 64.1746 64.0928 64.1562 63.9394 64.0028C63.8052 63.8684 63.7675 63.5813 63.7675 62.6902V61.5496H73.0098H82.252V62.6505ZM61.7988 63.2996V64.1746H50.1503H38.5018V63.2996V62.4246H50.1503H61.7988V63.2996Z" fill="#1742E7"></path></svg>