<svg xmlns="http://www.w3.org/2000/svg" viewBox="0 0 112 77" fill="none"><mask id="path-1-inside-1_9894_11013" fill="white"><path d="M56.2188 18.6345C60.4464 18.6345 64.2759 20.3668 67.0461 23.1646C69.8167 25.9634 71.5316 29.8313 71.5316 34.1018C71.5316 36.4087 71.0278 38.6028 70.128 40.5744C69.1954 42.6176 67.8302 44.4234 66.1568 45.8671C65.0536 46.819 64.2146 47.9233 63.6541 49.1517C63.0945 50.3764 62.8087 51.738 62.8087 53.2047V53.3751H62.8211C63.3638 53.3751 63.804 53.8199 63.804 54.3681C63.804 54.9163 63.3638 55.361 62.8211 55.361H62.8087V61.5371C62.8087 62.5601 62.3922 63.4952 61.722 64.1733C61.3356 64.5621 60.8702 64.866 60.3527 65.0554C60.1652 65.9444 59.7062 66.7273 59.0721 67.3129C58.315 68.0121 57.3092 68.4365 56.2192 68.4365C55.1292 68.4365 54.1235 68.0121 53.3663 67.3129C52.7322 66.7273 52.2732 65.9454 52.0858 65.0558C51.5673 64.8665 51.1028 64.564 50.7192 64.1774C50.0467 63.5018 49.6292 62.5651 49.6292 61.5367V55.3606H49.6169C49.0742 55.3606 48.6339 54.9158 48.6339 54.3676C48.6339 53.8194 49.0742 53.3747 49.6169 53.3747H49.6292V53.2043C49.6292 51.7347 49.343 50.3741 48.7848 49.1512C48.2243 47.9227 47.3844 46.8186 46.2812 45.8667C44.6073 44.423 43.2426 42.6177 42.3099 40.574C41.4102 38.6024 40.9063 36.4083 40.9063 34.1014C40.9063 29.8308 42.6212 25.9629 45.3919 23.1642C48.1616 20.3664 51.9915 18.6341 56.2192 18.6341L56.2188 18.6345ZM80.2358 33.1082C80.7785 33.1082 81.2188 33.553 81.2188 34.1012C81.2188 34.6494 80.7785 35.0941 80.2358 35.0941H74.4779C73.9352 35.0941 73.4949 34.6494 73.4949 34.1012C73.4949 33.553 73.9352 33.1082 74.4779 33.1082H80.2358ZM72.5069 16.2439C72.89 15.8569 73.5141 15.8569 73.8973 16.2439C74.2804 16.6309 74.2804 17.2614 73.8973 17.6484L69.8255 21.761C69.4424 22.148 68.8183 22.148 68.4351 21.761C68.052 21.374 68.052 20.7436 68.4351 20.3566L72.5069 16.2439ZM38.5401 17.6484C38.157 17.2614 38.157 16.631 38.5401 16.2439C38.9233 15.8569 39.5473 15.8569 39.9305 16.2439L44.0023 20.3566C44.3854 20.7436 44.3854 21.374 44.0023 21.761C43.6191 22.148 42.995 22.148 42.6119 21.761L38.5401 17.6484ZM68.4338 47.8455C68.0507 47.4585 68.0507 46.828 68.4338 46.441C68.817 46.054 69.4411 46.054 69.8242 46.441L73.896 50.5541C74.2791 50.9411 74.2791 51.5715 73.896 51.9586C73.5128 52.3456 72.8888 52.3456 72.5056 51.9586L68.4338 47.8455ZM42.612 46.441C42.9951 46.054 43.6192 46.054 44.0024 46.441C44.3855 46.828 44.3855 47.4584 44.0024 47.8455L39.9306 51.9586C39.5475 52.3456 38.9234 52.3456 38.5402 51.9586C38.1571 51.5716 38.1571 50.9411 38.5402 50.5541L42.612 46.441ZM55.235 9.8406C55.235 9.2924 55.6753 8.84766 56.218 8.84766C56.7607 8.84766 57.2009 9.2924 57.2009 9.8406V15.6569C57.2009 16.2051 56.7607 16.6499 56.218 16.6499C55.6753 16.6499 55.235 16.2051 55.235 15.6569V9.8406ZM37.9596 33.1071C38.5023 33.1071 38.9426 33.5518 38.9426 34.1C38.9426 34.6482 38.5023 35.0929 37.9596 35.0929H32.2017C31.659 35.0929 31.2188 34.6482 31.2188 34.1C31.2188 33.5518 31.659 33.1071 32.2017 33.1071H37.9596ZM58.2032 65.2739H54.2348C54.3541 65.4914 54.5073 65.6867 54.6869 65.8525C55.0888 66.2238 55.6292 66.4492 56.219 66.4492C56.8088 66.4492 57.3492 66.2239 57.7511 65.8525C57.9308 65.6867 58.0839 65.4914 58.2032 65.2739ZM51.5958 59.8741H60.8421V58.6104H51.5958V59.8741ZM51.626 61.8604C51.6928 62.2124 51.8647 62.5283 52.1061 62.7721C52.4179 63.0903 52.8531 63.2875 53.33 63.2875H59.1089C59.5858 63.2875 60.0192 63.0912 60.3314 62.7753C60.5751 62.5296 60.7466 62.2133 60.8124 61.8604H51.626ZM51.5958 56.6242H60.8421V55.3597H51.5958V56.6242ZM60.8421 53.3733V53.2029C60.8421 51.4512 61.1905 49.8108 61.8718 48.3194C62.5507 46.8318 63.5593 45.5003 64.881 44.3611C66.3409 43.1012 67.5318 41.5263 68.3461 39.7428C69.1279 38.0294 69.5654 36.1174 69.5654 34.1005C69.5654 30.3781 68.0704 27.0072 65.656 24.5677C63.2415 22.1288 59.9039 20.6195 56.219 20.6195C52.534 20.6195 49.1969 22.1288 46.782 24.5677C44.3675 27.0067 42.8725 30.3781 42.8725 34.1005C42.8725 36.1174 43.3101 38.0293 44.0919 39.7428C44.9062 41.5264 46.0967 43.1012 47.5569 44.3611C48.8782 45.5004 49.8877 46.8323 50.5667 48.3194C51.247 49.8093 51.5954 51.4498 51.5954 53.2029V53.3733H60.8421ZM67.2233 30.2641C67.4039 30.7804 67.135 31.3471 66.6239 31.5295C66.1128 31.7119 65.5518 31.4404 65.3712 30.924L65.2999 30.7222C65.1193 30.2059 65.3881 29.6392 65.8993 29.4568C66.4104 29.2744 66.9714 29.5459 67.152 30.0623L67.2233 30.2641ZM65.4297 26.9163C65.7603 27.3486 65.6812 27.9711 65.2533 28.305C64.8253 28.6389 64.209 28.559 63.8785 28.1268C63.1077 27.1181 62.1384 26.2623 61.032 25.6214C59.9521 24.9951 58.7451 24.5725 57.4677 24.4068C56.9314 24.3389 56.552 23.8429 56.6192 23.3011C56.6864 22.7594 57.1774 22.3761 57.7137 22.444C59.2645 22.6449 60.7175 23.1515 62.0073 23.8993C63.3336 24.6678 64.4985 25.6972 65.4298 26.9165L65.4297 26.9163Z"></path></mask><path d="M56.2188 18.6345C60.4464 18.6345 64.2759 20.3668 67.0461 23.1646C69.8167 25.9634 71.5316 29.8313 71.5316 34.1018C71.5316 36.4087 71.0278 38.6028 70.128 40.5744C69.1954 42.6176 67.8302 44.4234 66.1568 45.8671C65.0536 46.819 64.2146 47.9233 63.6541 49.1517C63.0945 50.3764 62.8087 51.738 62.8087 53.2047V53.3751H62.8211C63.3638 53.3751 63.804 53.8199 63.804 54.3681C63.804 54.9163 63.3638 55.361 62.8211 55.361H62.8087V61.5371C62.8087 62.5601 62.3922 63.4952 61.722 64.1733C61.3356 64.5621 60.8702 64.866 60.3527 65.0554C60.1652 65.9444 59.7062 66.7273 59.0721 67.3129C58.315 68.0121 57.3092 68.4365 56.2192 68.4365C55.1292 68.4365 54.1235 68.0121 53.3663 67.3129C52.7322 66.7273 52.2732 65.9454 52.0858 65.0558C51.5673 64.8665 51.1028 64.564 50.7192 64.1774C50.0467 63.5018 49.6292 62.5651 49.6292 61.5367V55.3606H49.6169C49.0742 55.3606 48.6339 54.9158 48.6339 54.3676C48.6339 53.8194 49.0742 53.3747 49.6169 53.3747H49.6292V53.2043C49.6292 51.7347 49.343 50.3741 48.7848 49.1512C48.2243 47.9227 47.3844 46.8186 46.2812 45.8667C44.6073 44.423 43.2426 42.6177 42.3099 40.574C41.4102 38.6024 40.9063 36.4083 40.9063 34.1014C40.9063 29.8308 42.6212 25.9629 45.3919 23.1642C48.1616 20.3664 51.9915 18.6341 56.2192 18.6341L56.2188 18.6345ZM80.2358 33.1082C80.7785 33.1082 81.2188 33.553 81.2188 34.1012C81.2188 34.6494 80.7785 35.0941 80.2358 35.0941H74.4779C73.9352 35.0941 73.4949 34.6494 73.4949 34.1012C73.4949 33.553 73.9352 33.1082 74.4779 33.1082H80.2358ZM72.5069 16.2439C72.89 15.8569 73.5141 15.8569 73.8973 16.2439C74.2804 16.6309 74.2804 17.2614 73.8973 17.6484L69.8255 21.761C69.4424 22.148 68.8183 22.148 68.4351 21.761C68.052 21.374 68.052 20.7436 68.4351 20.3566L72.5069 16.2439ZM38.5401 17.6484C38.157 17.2614 38.157 16.631 38.5401 16.2439C38.9233 15.8569 39.5473 15.8569 39.9305 16.2439L44.0023 20.3566C44.3854 20.7436 44.3854 21.374 44.0023 21.761C43.6191 22.148 42.995 22.148 42.6119 21.761L38.5401 17.6484ZM68.4338 47.8455C68.0507 47.4585 68.0507 46.828 68.4338 46.441C68.817 46.054 69.4411 46.054 69.8242 46.441L73.896 50.5541C74.2791 50.9411 74.2791 51.5715 73.896 51.9586C73.5128 52.3456 72.8888 52.3456 72.5056 51.9586L68.4338 47.8455ZM42.612 46.441C42.9951 46.054 43.6192 46.054 44.0024 46.441C44.3855 46.828 44.3855 47.4584 44.0024 47.8455L39.9306 51.9586C39.5475 52.3456 38.9234 52.3456 38.5402 51.9586C38.1571 51.5716 38.1571 50.9411 38.5402 50.5541L42.612 46.441ZM55.235 9.8406C55.235 9.2924 55.6753 8.84766 56.218 8.84766C56.7607 8.84766 57.2009 9.2924 57.2009 9.8406V15.6569C57.2009 16.2051 56.7607 16.6499 56.218 16.6499C55.6753 16.6499 55.235 16.2051 55.235 15.6569V9.8406ZM37.9596 33.1071C38.5023 33.1071 38.9426 33.5518 38.9426 34.1C38.9426 34.6482 38.5023 35.0929 37.9596 35.0929H32.2017C31.659 35.0929 31.2188 34.6482 31.2188 34.1C31.2188 33.5518 31.659 33.1071 32.2017 33.1071H37.9596ZM58.2032 65.2739H54.2348C54.3541 65.4914 54.5073 65.6867 54.6869 65.8525C55.0888 66.2238 55.6292 66.4492 56.219 66.4492C56.8088 66.4492 57.3492 66.2239 57.7511 65.8525C57.9308 65.6867 58.0839 65.4914 58.2032 65.2739ZM51.5958 59.8741H60.8421V58.6104H51.5958V59.8741ZM51.626 61.8604C51.6928 62.2124 51.8647 62.5283 52.1061 62.7721C52.4179 63.0903 52.8531 63.2875 53.33 63.2875H59.1089C59.5858 63.2875 60.0192 63.0912 60.3314 62.7753C60.5751 62.5296 60.7466 62.2133 60.8124 61.8604H51.626ZM51.5958 56.6242H60.8421V55.3597H51.5958V56.6242ZM60.8421 53.3733V53.2029C60.8421 51.4512 61.1905 49.8108 61.8718 48.3194C62.5507 46.8318 63.5593 45.5003 64.881 44.3611C66.3409 43.1012 67.5318 41.5263 68.3461 39.7428C69.1279 38.0294 69.5654 36.1174 69.5654 34.1005C69.5654 30.3781 68.0704 27.0072 65.656 24.5677C63.2415 22.1288 59.9039 20.6195 56.219 20.6195C52.534 20.6195 49.1969 22.1288 46.782 24.5677C44.3675 27.0067 42.8725 30.3781 42.8725 34.1005C42.8725 36.1174 43.3101 38.0293 44.0919 39.7428C44.9062 41.5264 46.0967 43.1012 47.5569 44.3611C48.8782 45.5004 49.8877 46.8323 50.5667 48.3194C51.247 49.8093 51.5954 51.4498 51.5954 53.2029V53.3733H60.8421ZM67.2233 30.2641C67.4039 30.7804 67.135 31.3471 66.6239 31.5295C66.1128 31.7119 65.5518 31.4404 65.3712 30.924L65.2999 30.7222C65.1193 30.2059 65.3881 29.6392 65.8993 29.4568C66.4104 29.2744 66.9714 29.5459 67.152 30.0623L67.2233 30.2641ZM65.4297 26.9163C65.7603 27.3486 65.6812 27.9711 65.2533 28.305C64.8253 28.6389 64.209 28.559 63.8785 28.1268C63.1077 27.1181 62.1384 26.2623 61.032 25.6214C59.9521 24.9951 58.7451 24.5725 57.4677 24.4068C56.9314 24.3389 56.552 23.8429 56.6192 23.3011C56.6864 22.7594 57.1774 22.3761 57.7137 22.444C59.2645 22.6449 60.7175 23.1515 62.0073 23.8993C63.3336 24.6678 64.4985 25.6972 65.4298 26.9165L65.4297 26.9163Z" fill="#1742E7" stroke="#1742E7" stroke-width="0.393268" mask="url(#path-1-inside-1_9894_11013)"></path></svg>