<svg xmlns="http://www.w3.org/2000/svg" viewBox="0 0 112 77" fill="none"><mask id="path-1-inside-1_9894_10961" fill="white"><path d="M41.7502 34.0374C41.7851 33.552 42.2058 33.1863 42.6912 33.2192C43.1515 33.251 43.6133 33.251 44.0736 33.2192C44.316 33.1863 44.561 33.2551 44.7506 33.4092C44.9401 33.5638 45.0577 33.7898 45.0747 34.0338C45.0916 34.2778 45.0064 34.5177 44.8399 34.6965C44.6735 34.8757 44.4403 34.978 44.1958 34.9785C43.9261 34.9975 43.6523 35.0072 43.3857 35.0072C43.1191 35.0072 42.8418 34.9975 42.5721 34.9785C42.0851 34.9456 41.7173 34.5244 41.7502 34.0374ZM42.5685 45.8201C42.8382 45.8391 43.1114 45.8488 43.3821 45.8488C43.6533 45.8488 43.9271 45.8391 44.1922 45.8201C44.4367 45.819 44.6699 45.7168 44.8363 45.5381C45.0028 45.3588 45.088 45.1189 45.0711 44.8749C45.0541 44.6309 44.9365 44.4049 44.747 44.2508C44.5574 44.0967 44.3124 44.0279 44.07 44.0607C43.6097 44.0921 43.1479 44.0921 42.6876 44.0607C42.4457 44.0279 42.2007 44.0967 42.0106 44.2508C41.8211 44.4049 41.704 44.6309 41.687 44.8744C41.6701 45.1184 41.7543 45.3583 41.9207 45.5375C42.0871 45.7168 42.3204 45.819 42.5649 45.8201H42.5685ZM44.0745 54.9033C43.6143 54.9351 43.153 54.9351 42.6927 54.9033C42.2274 54.9012 41.84 55.2608 41.8077 55.7256C41.7753 56.19 42.1087 56.5999 42.57 56.6626C42.8397 56.6816 43.1134 56.6913 43.3836 56.6913C43.6538 56.6913 43.9286 56.6816 44.1937 56.6626C44.4382 56.6616 44.6709 56.5593 44.8373 56.3801C45.0037 56.2013 45.0885 55.9609 45.0715 55.7174C45.0546 55.4734 44.937 55.2474 44.7474 55.0933C44.5579 54.9392 44.3129 54.8704 44.0704 54.9033H44.0745ZM77.0573 50.1549V53.6125C77.0557 54.5566 76.2909 55.322 75.3462 55.323H74.0317C73.8129 56.0385 73.5252 56.7315 73.1739 57.3925L74.1041 58.3233C74.7709 58.9911 74.7709 60.0734 74.1041 60.7417L71.659 63.1874C70.9908 63.8541 69.9085 63.8541 69.2401 63.1874L68.3098 62.2571C67.6488 62.609 66.9553 62.8961 66.2393 63.1144V64.432C66.2382 65.3762 65.4734 66.141 64.5292 66.1426H61.0682C60.1256 66.139 59.3622 65.3746 59.3613 64.432V63.1144C58.6458 62.8956 57.9528 62.6089 57.2923 62.2571L56.362 63.1874C55.6938 63.8541 54.6115 63.8541 53.9431 63.1874L51.9773 61.2216C49.1527 61.8267 46.2705 62.1251 43.3816 62.1123C32.0012 62.1123 23.0859 57.8431 23.0859 52.3937V19.8633C23.0859 14.4138 32.0002 10.1426 43.3803 10.1426C54.7604 10.1426 63.6759 14.4137 63.6759 19.8633V37.6276H64.5296H64.5291C65.4738 37.6291 66.2386 38.395 66.2391 39.3392V40.6547C66.9552 40.873 67.6482 41.1601 68.3092 41.5115L69.2395 40.5812L69.2389 40.5817C69.9077 39.915 70.9895 39.915 71.6583 40.5817L74.1034 43.0274H74.1029C74.7701 43.6957 74.7701 44.7779 74.1029 45.4463L73.1736 46.3766C73.5255 47.0366 73.8126 47.7301 74.0309 48.4456H75.3459C76.2906 48.4466 77.0554 49.212 77.057 50.1561L77.0573 50.1549ZM24.8546 19.8627C24.8546 21.828 26.7392 23.8128 30.0241 25.3122C33.5781 26.9322 38.3234 27.8209 43.3857 27.8209C48.448 27.8209 53.1932 26.9297 56.7474 25.3122C60.0323 23.8164 61.916 21.832 61.916 19.8627C61.916 17.8938 60.0324 15.9126 56.7474 14.4173C53.1929 12.7972 48.4476 11.9086 43.3857 11.9086C38.3239 11.9086 33.5793 12.7998 30.0241 14.4173C26.7355 15.9126 24.8546 17.8969 24.8546 19.8627ZM24.8546 30.7098C24.8546 32.6751 26.7392 34.66 30.0241 36.1593C33.5781 37.7794 38.3234 38.6681 43.3857 38.6681C48.4481 38.6681 53.1902 37.7738 56.7448 36.1537C60.0296 34.6578 61.9134 32.6735 61.9134 30.7042V23.895C58.7712 27.2781 51.7421 29.5808 43.3825 29.5808C35.023 29.5808 27.9944 27.278 24.8555 23.895L24.8546 30.7098ZM24.8546 41.5518C24.8546 43.5171 26.7392 45.502 30.0241 46.9972C33.5786 48.6173 38.3234 49.506 43.3857 49.506C45.2257 49.508 47.0642 49.3853 48.8882 49.1382C49.2098 48.7031 49.7183 48.4463 50.2592 48.4458H51.5717C51.79 47.7302 52.0771 47.0373 52.4285 46.3768L51.4982 45.4465H51.4987C50.8325 44.7777 50.8325 43.696 51.4987 43.0276L53.9428 40.5805C54.6116 39.9138 55.6929 39.9138 56.3617 40.5805L57.292 41.5107V41.5102C57.9525 41.1589 58.6455 40.8717 59.361 40.6534V39.3379C59.362 38.3928 60.1279 37.6268 61.0731 37.6263H61.9135V34.742C58.7713 38.1246 51.7422 40.4248 43.3825 40.4248C35.0231 40.4248 27.9945 38.1246 24.8556 34.742L24.8546 41.5518ZM43.3815 60.3471C45.9391 60.3532 48.491 60.1108 51.0018 59.6233C50.9741 59.1389 51.1544 58.6658 51.4975 58.3227L52.4277 57.3925H52.4272C52.0759 56.7314 51.7887 56.0384 51.5704 55.3224H50.2549C49.3108 55.3214 48.5454 54.556 48.5444 53.6118V50.9608C46.8313 51.1688 45.1074 51.2726 43.3814 51.2716C35.0225 51.2716 27.9907 48.9682 24.8505 45.5858V52.395C24.8505 54.3602 26.7352 56.3451 30.02 57.8445C33.5746 59.4569 38.3188 60.347 43.3817 60.347L43.3815 60.3471ZM75.2965 50.2078H73.3584C72.9516 50.2068 72.5977 49.9284 72.5011 49.5328C72.2587 48.5276 71.8601 47.566 71.3202 46.684C71.1081 46.3363 71.1615 45.8884 71.4491 45.6002L72.8175 44.2318L70.4479 41.8622L69.0795 43.2306L69.079 43.2301C68.7908 43.5172 68.3434 43.5706 67.9962 43.359C67.1147 42.8201 66.1541 42.4226 65.1499 42.1806C64.7538 42.0846 64.4749 41.7307 64.4744 41.3238V39.3934H61.1247V41.3279C61.1237 41.7347 60.8453 42.0887 60.4497 42.1852C59.4455 42.4272 58.4854 42.8247 57.604 43.3636C57.2557 43.5752 56.8083 43.5223 56.5196 43.2346L55.1512 41.8663L52.7816 44.2359L54.15 45.6043C54.4376 45.8929 54.4911 46.3404 54.2789 46.6881C53.7401 47.5696 53.3425 48.5302 53.1006 49.5344C53.0045 49.9299 52.6506 50.2084 52.2432 50.2089H50.3082V53.56H52.2427V53.5605C52.6496 53.561 53.0035 53.8394 53.1 54.235C53.3415 55.2392 53.739 56.1997 54.2779 57.0813C54.49 57.429 54.4371 57.8769 54.1495 58.1651L52.7811 59.5335L55.1507 61.9031L56.518 60.5332C56.8067 60.2455 57.2546 60.1926 57.6024 60.4047C58.4838 60.9436 59.4439 61.3412 60.4487 61.5826C60.8458 61.6786 61.1252 62.0346 61.1247 62.443V64.3775H64.4758V62.443C64.4763 62.0356 64.7553 61.6812 65.1513 61.5852C66.1555 61.3432 67.1156 60.9456 67.9971 60.4068C68.3448 60.1952 68.7922 60.2481 69.0804 60.5357L70.4488 61.9041L72.8184 59.5345L71.45 58.1661L71.4505 58.1656C71.1629 57.8774 71.11 57.43 71.3216 57.0828C71.8605 56.2013 72.2575 55.2407 72.4995 54.2365C72.5955 53.8404 72.9499 53.5615 73.3578 53.561H75.2964L75.2965 50.2078ZM69.9352 51.8839L69.9358 51.8834C69.9358 53.7753 69.1843 55.589 67.8466 56.9267C66.509 58.2643 64.6947 59.0158 62.8034 59.0158C60.9115 59.0158 59.0977 58.2643 57.7601 56.9267C56.4225 55.589 55.6715 53.7747 55.6715 51.883C55.6715 49.9916 56.423 48.1773 57.7606 46.8402C59.0982 45.5026 60.9125 44.7516 62.8043 44.7516C64.6941 44.7557 66.5053 45.5088 67.8414 46.8454C69.1769 48.1819 69.9289 49.9936 69.9316 51.8834L69.9352 51.8839ZM59.5797 56.1741C60.7349 55.2808 61.9117 53.9812 61.9117 52.3935V46.5905C60.5232 46.8227 59.2812 47.5922 58.4547 48.732C57.6282 49.8718 57.2825 51.2911 57.4931 52.6832C57.7037 54.0757 58.4532 55.3291 59.5797 56.1741ZM68.1682 51.8834C68.1666 50.612 67.7141 49.3828 66.8917 48.413C66.0693 47.4437 64.93 46.797 63.6761 46.5879V52.3929C63.5939 54.2118 62.7274 55.9059 61.2999 57.036C62.9221 57.5097 64.6722 57.1917 66.0237 56.1772C67.3751 55.1632 68.1697 53.5714 68.1683 51.8814L68.1682 51.8834ZM89.3619 25.6821V28.5638C89.3609 29.4314 88.6577 30.1345 87.7896 30.1356H86.8008C86.6313 30.6698 86.4166 31.1886 86.1587 31.6858L86.8573 32.3844V32.3849C87.4701 32.9993 87.4701 33.9937 86.8573 34.6086L84.8201 36.6463C84.2058 37.2596 83.2103 37.2596 82.5959 36.6463L81.8973 35.9482C81.3996 36.2056 80.8808 36.4203 80.3471 36.5903V37.5776C80.3461 38.4462 79.6423 39.1499 78.7742 39.1504H75.8925C75.0244 39.1494 74.3212 38.4457 74.3202 37.5776V36.5903C73.7865 36.4203 73.2677 36.2056 72.7705 35.9482L72.0719 36.6463H72.0714C71.457 37.2596 70.4621 37.2596 69.8477 36.6463L67.81 34.6065C67.1962 33.9921 67.1962 32.9967 67.81 32.3823L68.5081 31.6842C68.2507 31.1865 68.036 30.6677 67.866 30.1334H66.8782C66.0106 30.1324 65.3069 29.4292 65.3064 28.5611V25.6819C65.3064 24.8138 66.0101 24.1096 66.8782 24.1091H67.866C68.0355 23.5748 68.2507 23.0565 68.5086 22.5588L67.81 21.8602C67.1962 21.2454 67.1962 20.2504 67.81 19.636L69.8477 17.5957C70.4621 16.9829 71.4565 16.9829 72.0714 17.5957L72.77 18.2943H72.7705C73.2677 18.0364 73.786 17.8217 74.3202 17.6522V16.667C74.3197 15.7978 75.0234 15.0931 75.8925 15.0916H78.7742C79.6423 15.0926 80.3455 15.7959 80.3471 16.6639V17.6522C80.8813 17.8218 81.3996 18.0365 81.8973 18.2943L82.5959 17.5957C83.2108 16.9829 84.2052 16.9829 84.8201 17.5957L86.8583 19.6361C87.4712 20.251 87.4712 21.2454 86.8583 21.8603L86.1598 22.5589H86.1592C86.4171 23.0566 86.6318 23.5749 86.8013 24.1091H87.7896C88.6577 24.1101 89.3609 24.814 89.3619 25.6821ZM87.5985 25.8737H86.133C85.7256 25.8726 85.3717 25.5937 85.2757 25.1982C85.0774 24.3758 84.7517 23.59 84.3105 22.8682C84.0983 22.5204 84.1518 22.0735 84.4389 21.7848L85.475 20.7477L83.7075 18.9802L82.6704 20.0163L82.6709 20.0168C82.3827 20.3045 81.9353 20.3574 81.5876 20.1458C80.8664 19.7045 80.0799 19.3789 79.258 19.1806C78.8625 19.084 78.5841 18.7301 78.5831 18.3233V16.8593H76.0841V18.3248C76.083 18.7317 75.8046 19.0856 75.4096 19.1822C74.5872 19.3804 73.8009 19.7061 73.0796 20.1473C72.7318 20.3595 72.2839 20.3061 71.9952 20.0184L70.9591 18.9818L69.1917 20.7493L70.2288 21.7864V21.7859C70.5164 22.0741 70.5693 22.5215 70.3577 22.8692C69.9164 23.5904 69.5903 24.3769 69.3925 25.1987C69.2965 25.5948 68.9425 25.8737 68.5352 25.8742H67.0696V28.3727H68.5352C68.942 28.3737 69.296 28.6521 69.3925 29.0472C69.5908 29.8695 69.9165 30.6559 70.3577 31.3772C70.5698 31.7255 70.5164 32.1729 70.2288 32.4616L69.1922 33.4966L70.9597 35.2641L71.9957 34.227H71.9952C72.2839 33.9393 72.7318 33.8864 73.0796 34.0986C73.8008 34.5398 74.5872 34.8655 75.4096 35.0637C75.8051 35.1603 76.0836 35.5142 76.0841 35.9216V37.3861H78.5836L78.5831 35.9216C78.5836 35.5142 78.862 35.1603 79.2581 35.0637C80.0799 34.8655 80.8663 34.5398 81.5876 34.0986C81.9353 33.8869 82.3827 33.9399 82.6709 34.227L83.708 35.2641L85.4755 33.4966L84.4394 32.4605H84.4389C84.1513 32.1724 84.0983 31.7244 84.3105 31.3767C84.7512 30.655 85.0769 29.869 85.2752 29.0466C85.3712 28.6511 85.7251 28.3727 86.132 28.3722H87.5944L87.5985 25.8737ZM83.1065 27.1255C83.1065 28.6568 82.4978 30.1249 81.4156 31.2076C80.3327 32.2904 78.8642 32.8986 77.3329 32.8986C75.8016 32.8986 74.3331 32.2904 73.2507 31.2076C72.1679 30.1248 71.5598 28.6568 71.5598 27.1255C71.5598 25.5942 72.168 24.1257 73.2507 23.0428C74.3331 21.9605 75.8016 21.3519 77.3329 21.3519C78.8631 21.3534 80.3307 21.9621 81.4129 23.0439C82.4952 24.1252 83.1044 25.5922 83.107 27.1225L83.1065 27.1255ZM81.339 27.1255C81.339 26.0617 80.9163 25.042 80.1643 24.2901C79.4122 23.5382 78.3926 23.1158 77.3289 23.1158C76.2656 23.1158 75.2459 23.5386 74.4939 24.2906C73.7418 25.0426 73.3196 26.0623 73.3196 27.126C73.3196 28.1893 73.7424 29.2095 74.4944 29.961C75.2464 30.713 76.2666 31.1352 77.3298 31.1352C78.3941 31.1347 79.4147 30.712 80.1673 29.9595C80.9198 29.2069 81.3425 28.1868 81.3425 27.1225L81.339 27.1255Z"></path></mask><path d="M41.7502 34.0374C41.7851 33.552 42.2058 33.1863 42.6912 33.2192C43.1515 33.251 43.6133 33.251 44.0736 33.2192C44.316 33.1863 44.561 33.2551 44.7506 33.4092C44.9401 33.5638 45.0577 33.7898 45.0747 34.0338C45.0916 34.2778 45.0064 34.5177 44.8399 34.6965C44.6735 34.8757 44.4403 34.978 44.1958 34.9785C43.9261 34.9975 43.6523 35.0072 43.3857 35.0072C43.1191 35.0072 42.8418 34.9975 42.5721 34.9785C42.0851 34.9456 41.7173 34.5244 41.7502 34.0374ZM42.5685 45.8201C42.8382 45.8391 43.1114 45.8488 43.3821 45.8488C43.6533 45.8488 43.9271 45.8391 44.1922 45.8201C44.4367 45.819 44.6699 45.7168 44.8363 45.5381C45.0028 45.3588 45.088 45.1189 45.0711 44.8749C45.0541 44.6309 44.9365 44.4049 44.747 44.2508C44.5574 44.0967 44.3124 44.0279 44.07 44.0607C43.6097 44.0921 43.1479 44.0921 42.6876 44.0607C42.4457 44.0279 42.2007 44.0967 42.0106 44.2508C41.8211 44.4049 41.704 44.6309 41.687 44.8744C41.6701 45.1184 41.7543 45.3583 41.9207 45.5375C42.0871 45.7168 42.3204 45.819 42.5649 45.8201H42.5685ZM44.0745 54.9033C43.6143 54.9351 43.153 54.9351 42.6927 54.9033C42.2274 54.9012 41.84 55.2608 41.8077 55.7256C41.7753 56.19 42.1087 56.5999 42.57 56.6626C42.8397 56.6816 43.1134 56.6913 43.3836 56.6913C43.6538 56.6913 43.9286 56.6816 44.1937 56.6626C44.4382 56.6616 44.6709 56.5593 44.8373 56.3801C45.0037 56.2013 45.0885 55.9609 45.0715 55.7174C45.0546 55.4734 44.937 55.2474 44.7474 55.0933C44.5579 54.9392 44.3129 54.8704 44.0704 54.9033H44.0745ZM77.0573 50.1549V53.6125C77.0557 54.5566 76.2909 55.322 75.3462 55.323H74.0317C73.8129 56.0385 73.5252 56.7315 73.1739 57.3925L74.1041 58.3233C74.7709 58.9911 74.7709 60.0734 74.1041 60.7417L71.659 63.1874C70.9908 63.8541 69.9085 63.8541 69.2401 63.1874L68.3098 62.2571C67.6488 62.609 66.9553 62.8961 66.2393 63.1144V64.432C66.2382 65.3762 65.4734 66.141 64.5292 66.1426H61.0682C60.1256 66.139 59.3622 65.3746 59.3613 64.432V63.1144C58.6458 62.8956 57.9528 62.6089 57.2923 62.2571L56.362 63.1874C55.6938 63.8541 54.6115 63.8541 53.9431 63.1874L51.9773 61.2216C49.1527 61.8267 46.2705 62.1251 43.3816 62.1123C32.0012 62.1123 23.0859 57.8431 23.0859 52.3937V19.8633C23.0859 14.4138 32.0002 10.1426 43.3803 10.1426C54.7604 10.1426 63.6759 14.4137 63.6759 19.8633V37.6276H64.5296H64.5291C65.4738 37.6291 66.2386 38.395 66.2391 39.3392V40.6547C66.9552 40.873 67.6482 41.1601 68.3092 41.5115L69.2395 40.5812L69.2389 40.5817C69.9077 39.915 70.9895 39.915 71.6583 40.5817L74.1034 43.0274H74.1029C74.7701 43.6957 74.7701 44.7779 74.1029 45.4463L73.1736 46.3766C73.5255 47.0366 73.8126 47.7301 74.0309 48.4456H75.3459C76.2906 48.4466 77.0554 49.212 77.057 50.1561L77.0573 50.1549ZM24.8546 19.8627C24.8546 21.828 26.7392 23.8128 30.0241 25.3122C33.5781 26.9322 38.3234 27.8209 43.3857 27.8209C48.448 27.8209 53.1932 26.9297 56.7474 25.3122C60.0323 23.8164 61.916 21.832 61.916 19.8627C61.916 17.8938 60.0324 15.9126 56.7474 14.4173C53.1929 12.7972 48.4476 11.9086 43.3857 11.9086C38.3239 11.9086 33.5793 12.7998 30.0241 14.4173C26.7355 15.9126 24.8546 17.8969 24.8546 19.8627ZM24.8546 30.7098C24.8546 32.6751 26.7392 34.66 30.0241 36.1593C33.5781 37.7794 38.3234 38.6681 43.3857 38.6681C48.4481 38.6681 53.1902 37.7738 56.7448 36.1537C60.0296 34.6578 61.9134 32.6735 61.9134 30.7042V23.895C58.7712 27.2781 51.7421 29.5808 43.3825 29.5808C35.023 29.5808 27.9944 27.278 24.8555 23.895L24.8546 30.7098ZM24.8546 41.5518C24.8546 43.5171 26.7392 45.502 30.0241 46.9972C33.5786 48.6173 38.3234 49.506 43.3857 49.506C45.2257 49.508 47.0642 49.3853 48.8882 49.1382C49.2098 48.7031 49.7183 48.4463 50.2592 48.4458H51.5717C51.79 47.7302 52.0771 47.0373 52.4285 46.3768L51.4982 45.4465H51.4987C50.8325 44.7777 50.8325 43.696 51.4987 43.0276L53.9428 40.5805C54.6116 39.9138 55.6929 39.9138 56.3617 40.5805L57.292 41.5107V41.5102C57.9525 41.1589 58.6455 40.8717 59.361 40.6534V39.3379C59.362 38.3928 60.1279 37.6268 61.0731 37.6263H61.9135V34.742C58.7713 38.1246 51.7422 40.4248 43.3825 40.4248C35.0231 40.4248 27.9945 38.1246 24.8556 34.742L24.8546 41.5518ZM43.3815 60.3471C45.9391 60.3532 48.491 60.1108 51.0018 59.6233C50.9741 59.1389 51.1544 58.6658 51.4975 58.3227L52.4277 57.3925H52.4272C52.0759 56.7314 51.7887 56.0384 51.5704 55.3224H50.2549C49.3108 55.3214 48.5454 54.556 48.5444 53.6118V50.9608C46.8313 51.1688 45.1074 51.2726 43.3814 51.2716C35.0225 51.2716 27.9907 48.9682 24.8505 45.5858V52.395C24.8505 54.3602 26.7352 56.3451 30.02 57.8445C33.5746 59.4569 38.3188 60.347 43.3817 60.347L43.3815 60.3471ZM75.2965 50.2078H73.3584C72.9516 50.2068 72.5977 49.9284 72.5011 49.5328C72.2587 48.5276 71.8601 47.566 71.3202 46.684C71.1081 46.3363 71.1615 45.8884 71.4491 45.6002L72.8175 44.2318L70.4479 41.8622L69.0795 43.2306L69.079 43.2301C68.7908 43.5172 68.3434 43.5706 67.9962 43.359C67.1147 42.8201 66.1541 42.4226 65.1499 42.1806C64.7538 42.0846 64.4749 41.7307 64.4744 41.3238V39.3934H61.1247V41.3279C61.1237 41.7347 60.8453 42.0887 60.4497 42.1852C59.4455 42.4272 58.4854 42.8247 57.604 43.3636C57.2557 43.5752 56.8083 43.5223 56.5196 43.2346L55.1512 41.8663L52.7816 44.2359L54.15 45.6043C54.4376 45.8929 54.4911 46.3404 54.2789 46.6881C53.7401 47.5696 53.3425 48.5302 53.1006 49.5344C53.0045 49.9299 52.6506 50.2084 52.2432 50.2089H50.3082V53.56H52.2427V53.5605C52.6496 53.561 53.0035 53.8394 53.1 54.235C53.3415 55.2392 53.739 56.1997 54.2779 57.0813C54.49 57.429 54.4371 57.8769 54.1495 58.1651L52.7811 59.5335L55.1507 61.9031L56.518 60.5332C56.8067 60.2455 57.2546 60.1926 57.6024 60.4047C58.4838 60.9436 59.4439 61.3412 60.4487 61.5826C60.8458 61.6786 61.1252 62.0346 61.1247 62.443V64.3775H64.4758V62.443C64.4763 62.0356 64.7553 61.6812 65.1513 61.5852C66.1555 61.3432 67.1156 60.9456 67.9971 60.4068C68.3448 60.1952 68.7922 60.2481 69.0804 60.5357L70.4488 61.9041L72.8184 59.5345L71.45 58.1661L71.4505 58.1656C71.1629 57.8774 71.11 57.43 71.3216 57.0828C71.8605 56.2013 72.2575 55.2407 72.4995 54.2365C72.5955 53.8404 72.9499 53.5615 73.3578 53.561H75.2964L75.2965 50.2078ZM69.9352 51.8839L69.9358 51.8834C69.9358 53.7753 69.1843 55.589 67.8466 56.9267C66.509 58.2643 64.6947 59.0158 62.8034 59.0158C60.9115 59.0158 59.0977 58.2643 57.7601 56.9267C56.4225 55.589 55.6715 53.7747 55.6715 51.883C55.6715 49.9916 56.423 48.1773 57.7606 46.8402C59.0982 45.5026 60.9125 44.7516 62.8043 44.7516C64.6941 44.7557 66.5053 45.5088 67.8414 46.8454C69.1769 48.1819 69.9289 49.9936 69.9316 51.8834L69.9352 51.8839ZM59.5797 56.1741C60.7349 55.2808 61.9117 53.9812 61.9117 52.3935V46.5905C60.5232 46.8227 59.2812 47.5922 58.4547 48.732C57.6282 49.8718 57.2825 51.2911 57.4931 52.6832C57.7037 54.0757 58.4532 55.3291 59.5797 56.1741ZM68.1682 51.8834C68.1666 50.612 67.7141 49.3828 66.8917 48.413C66.0693 47.4437 64.93 46.797 63.6761 46.5879V52.3929C63.5939 54.2118 62.7274 55.9059 61.2999 57.036C62.9221 57.5097 64.6722 57.1917 66.0237 56.1772C67.3751 55.1632 68.1697 53.5714 68.1683 51.8814L68.1682 51.8834ZM89.3619 25.6821V28.5638C89.3609 29.4314 88.6577 30.1345 87.7896 30.1356H86.8008C86.6313 30.6698 86.4166 31.1886 86.1587 31.6858L86.8573 32.3844V32.3849C87.4701 32.9993 87.4701 33.9937 86.8573 34.6086L84.8201 36.6463C84.2058 37.2596 83.2103 37.2596 82.5959 36.6463L81.8973 35.9482C81.3996 36.2056 80.8808 36.4203 80.3471 36.5903V37.5776C80.3461 38.4462 79.6423 39.1499 78.7742 39.1504H75.8925C75.0244 39.1494 74.3212 38.4457 74.3202 37.5776V36.5903C73.7865 36.4203 73.2677 36.2056 72.7705 35.9482L72.0719 36.6463H72.0714C71.457 37.2596 70.4621 37.2596 69.8477 36.6463L67.81 34.6065C67.1962 33.9921 67.1962 32.9967 67.81 32.3823L68.5081 31.6842C68.2507 31.1865 68.036 30.6677 67.866 30.1334H66.8782C66.0106 30.1324 65.3069 29.4292 65.3064 28.5611V25.6819C65.3064 24.8138 66.0101 24.1096 66.8782 24.1091H67.866C68.0355 23.5748 68.2507 23.0565 68.5086 22.5588L67.81 21.8602C67.1962 21.2454 67.1962 20.2504 67.81 19.636L69.8477 17.5957C70.4621 16.9829 71.4565 16.9829 72.0714 17.5957L72.77 18.2943H72.7705C73.2677 18.0364 73.786 17.8217 74.3202 17.6522V16.667C74.3197 15.7978 75.0234 15.0931 75.8925 15.0916H78.7742C79.6423 15.0926 80.3455 15.7959 80.3471 16.6639V17.6522C80.8813 17.8218 81.3996 18.0365 81.8973 18.2943L82.5959 17.5957C83.2108 16.9829 84.2052 16.9829 84.8201 17.5957L86.8583 19.6361C87.4712 20.251 87.4712 21.2454 86.8583 21.8603L86.1598 22.5589H86.1592C86.4171 23.0566 86.6318 23.5749 86.8013 24.1091H87.7896C88.6577 24.1101 89.3609 24.814 89.3619 25.6821ZM87.5985 25.8737H86.133C85.7256 25.8726 85.3717 25.5937 85.2757 25.1982C85.0774 24.3758 84.7517 23.59 84.3105 22.8682C84.0983 22.5204 84.1518 22.0735 84.4389 21.7848L85.475 20.7477L83.7075 18.9802L82.6704 20.0163L82.6709 20.0168C82.3827 20.3045 81.9353 20.3574 81.5876 20.1458C80.8664 19.7045 80.0799 19.3789 79.258 19.1806C78.8625 19.084 78.5841 18.7301 78.5831 18.3233V16.8593H76.0841V18.3248C76.083 18.7317 75.8046 19.0856 75.4096 19.1822C74.5872 19.3804 73.8009 19.7061 73.0796 20.1473C72.7318 20.3595 72.2839 20.3061 71.9952 20.0184L70.9591 18.9818L69.1917 20.7493L70.2288 21.7864V21.7859C70.5164 22.0741 70.5693 22.5215 70.3577 22.8692C69.9164 23.5904 69.5903 24.3769 69.3925 25.1987C69.2965 25.5948 68.9425 25.8737 68.5352 25.8742H67.0696V28.3727H68.5352C68.942 28.3737 69.296 28.6521 69.3925 29.0472C69.5908 29.8695 69.9165 30.6559 70.3577 31.3772C70.5698 31.7255 70.5164 32.1729 70.2288 32.4616L69.1922 33.4966L70.9597 35.2641L71.9957 34.227H71.9952C72.2839 33.9393 72.7318 33.8864 73.0796 34.0986C73.8008 34.5398 74.5872 34.8655 75.4096 35.0637C75.8051 35.1603 76.0836 35.5142 76.0841 35.9216V37.3861H78.5836L78.5831 35.9216C78.5836 35.5142 78.862 35.1603 79.2581 35.0637C80.0799 34.8655 80.8663 34.5398 81.5876 34.0986C81.9353 33.8869 82.3827 33.9399 82.6709 34.227L83.708 35.2641L85.4755 33.4966L84.4394 32.4605H84.4389C84.1513 32.1724 84.0983 31.7244 84.3105 31.3767C84.7512 30.655 85.0769 29.869 85.2752 29.0466C85.3712 28.6511 85.7251 28.3727 86.132 28.3722H87.5944L87.5985 25.8737ZM83.1065 27.1255C83.1065 28.6568 82.4978 30.1249 81.4156 31.2076C80.3327 32.2904 78.8642 32.8986 77.3329 32.8986C75.8016 32.8986 74.3331 32.2904 73.2507 31.2076C72.1679 30.1248 71.5598 28.6568 71.5598 27.1255C71.5598 25.5942 72.168 24.1257 73.2507 23.0428C74.3331 21.9605 75.8016 21.3519 77.3329 21.3519C78.8631 21.3534 80.3307 21.9621 81.4129 23.0439C82.4952 24.1252 83.1044 25.5922 83.107 27.1225L83.1065 27.1255ZM81.339 27.1255C81.339 26.0617 80.9163 25.042 80.1643 24.2901C79.4122 23.5382 78.3926 23.1158 77.3289 23.1158C76.2656 23.1158 75.2459 23.5386 74.4939 24.2906C73.7418 25.0426 73.3196 26.0623 73.3196 27.126C73.3196 28.1893 73.7424 29.2095 74.4944 29.961C75.2464 30.713 76.2666 31.1352 77.3298 31.1352C78.3941 31.1347 79.4147 30.712 80.1673 29.9595C80.9198 29.2069 81.3425 28.1868 81.3425 27.1225L81.339 27.1255Z" fill="#1742E7" stroke="#1742E7" stroke-width="0.56" mask="url(#path-1-inside-1_9894_10961)"></path></svg>