<svg xmlns="http://www.w3.org/2000/svg" viewBox="0 0 71 70" fill="none"><g clip-path="url(#clip0_9894_8185)"><mask id="mask0_9894_8185" style="mask-type:luminance" maskUnits="userSpaceOnUse" x="0" y="0" width="71" height="70"><path d="M70.8359 0H0.835938V70H70.8359V0Z" fill="white"></path></mask><g mask="url(#mask0_9894_8185)"><mask id="mask1_9894_8185" style="mask-type:luminance" maskUnits="userSpaceOnUse" x="0" y="0" width="71" height="70"><path d="M70.8359 0H0.835938V70H70.8359V0Z" fill="white"></path></mask><g mask="url(#mask1_9894_8185)"><mask id="mask2_9894_8185" style="mask-type:alpha" maskUnits="userSpaceOnUse" x="0" y="7" width="71" height="56"><path d="M45.4674 7.28711C46.2972 7.28711 47.0877 7.64054 47.6409 8.25894L69.823 33.0506C70.8137 34.1579 70.8137 35.833 69.823 36.9403L47.6409 61.7319C47.0877 62.3503 46.2972 62.7038 45.4674 62.7038H3.71145C1.19031 62.7038 -0.14326 59.7211 1.53782 57.8423L21.9797 34.9954L1.53782 12.1486C-0.14326 10.2698 1.19031 7.28711 3.71145 7.28711H45.4674Z" fill="white"></path></mask><g mask="url(#mask2_9894_8185)"><path d="M46.7708 7.28711L21.9792 34.9954L-2.8125 7.28711H46.7708Z" fill="url(#paint0_linear_9894_8185)"></path><g filter="url(#filter0_f_9894_8185)"><path d="M46.7708 7.58105L-2.8125 62.9977H46.7708L71.5625 35.2894L46.7708 7.58105Z" fill="black" fill-opacity="0.24"></path></g><g filter="url(#filter1_f_9894_8185)"><path d="M46.7708 8.74316L-2.8125 64.1598H46.7708L71.5625 36.4515L46.7708 8.74316Z" fill="black" fill-opacity="0.32"></path></g><path d="M-2.8125 62.7038L46.7708 7.28711L71.5625 34.9954L46.7708 62.7038H-2.8125Z" fill="url(#paint1_linear_9894_8185)"></path><path d="M-2.8125 62.7038L46.7708 7.28711L59.1667 21.1413L21.9792 62.7038H-2.8125Z" fill="url(#paint2_linear_9894_8185)"></path></g></g></g></g><defs><filter id="filter0_f_9894_8185" x="-3.14583" y="7.24772" width="75.0417" height="56.0837" filterUnits="userSpaceOnUse" color-interpolation-filters="sRGB"></filter><filter id="filter1_f_9894_8185" x="-6.14583" y="5.40983" width="81.0417" height="62.0837" filterUnits="userSpaceOnUse" color-interpolation-filters="sRGB"></filter><linearGradient id="paint0_linear_9894_8185" x1="32.1875" y1="40.0996" x2="21.9792" y2="7.28711" gradientUnits="userSpaceOnUse"><stop stop-color="#0D36A5"></stop><stop offset="1" stop-color="#1152D4"></stop></linearGradient><linearGradient id="paint1_linear_9894_8185" x1="34.375" y1="7.28711" x2="34.375" y2="62.7038" gradientUnits="userSpaceOnUse"><stop stop-color="#84CAFF"></stop><stop offset="1" stop-color="#61B1FB"></stop></linearGradient><linearGradient id="paint2_linear_9894_8185" x1="28.1771" y1="7.28711" x2="28.1771" y2="62.7038" gradientUnits="userSpaceOnUse"><stop stop-color="#3B90F5"></stop><stop offset="1" stop-color="#2A78EE"></stop></linearGradient><clipPath id="clip0_9894_8185"><rect width="70" height="70" fill="white" transform="translate(0.835938)"></rect></clipPath></defs></svg>