<svg xmlns="http://www.w3.org/2000/svg" viewBox="0 0 71 70" fill="none"><g clip-path="url(#clip0_9889_3090)"><g clip-path="url(#clip1_9889_3090)"><mask id="mask0_9889_3090" style="mask-type:luminance" maskUnits="userSpaceOnUse" x="0" y="0" width="71" height="70"><path d="M70.8359 0H0.835938V70H70.8359V0Z" fill="white"></path></mask><g mask="url(#mask0_9889_3090)"><mask id="mask1_9889_3090" style="mask-type:luminance" maskUnits="userSpaceOnUse" x="0" y="0" width="71" height="70"><path d="M70.8359 0H0.835938V70H70.8359V0Z" fill="white"></path></mask><g mask="url(#mask1_9889_3090)"><mask id="mask2_9889_3090" style="mask-type:luminance" maskUnits="userSpaceOnUse" x="0" y="0" width="71" height="70"><path d="M70.8359 0H0.835938V70H70.8359V0Z" fill="white"></path></mask><g mask="url(#mask2_9889_3090)"><mask id="mask3_9889_3090" style="mask-type:alpha" maskUnits="userSpaceOnUse" x="0" y="1" width="71" height="68"><path d="M1.89498 32.1139C0.451674 33.7634 0.451674 36.2263 1.89498 37.8758L27.8041 67.4862C28.9661 68.8143 31.0322 68.8143 32.1942 67.4862L34.9842 64.2976L38.0567 67.6493C39.2127 68.9104 41.2008 68.9104 42.3568 67.6493L69.5801 37.9511C71.1134 36.2785 71.1134 33.7112 69.5801 32.0386L42.3568 2.34034C41.2008 1.07926 39.2127 1.07926 38.0567 2.34034L34.9842 5.69212L32.1942 2.50344C31.0322 1.1754 28.9661 1.1754 27.8041 2.50344L1.89498 32.1139Z" fill="white"></path></mask><g mask="url(#mask3_9889_3090)"><path d="M30 69.9932L-0.625 34.9932L30 -0.00683594L60.625 34.9932L30 69.9932Z" fill="url(#paint0_linear_9889_3090)"></path><g filter="url(#filter0_f_9889_3090)"><path d="M40.2048 1.44922L72.2881 36.4492L40.2048 71.4492L25.9698 55.9201C24.9476 54.805 24.9476 53.0935 25.9698 51.9784L38.3982 38.4201C39.4204 37.305 39.4204 35.5935 38.3982 34.4784L25.9698 20.9201C24.9476 19.805 24.9476 18.0935 25.9698 16.9784L40.2048 1.44922Z" fill="black" fill-opacity="0.32"></path></g><g filter="url(#filter1_f_9889_3090)"><path d="M40.2048 0.273438L72.2881 35.2734L40.2048 70.2734L25.9698 54.7443C24.9476 53.6292 24.9476 51.9177 25.9698 50.8025L38.3982 37.2443C39.4204 36.1292 39.4204 34.4177 38.3982 33.3025L25.9698 19.7443C24.9476 18.6292 24.9476 16.9177 25.9698 15.8026L40.2048 0.273438Z" fill="black" fill-opacity="0.24"></path></g><path d="M40.2048 -0.00585938L72.2881 34.9941L40.2048 69.9941L25.9698 54.465C24.9476 53.3499 24.9476 51.6384 25.9698 50.5233L38.3982 36.965C39.4204 35.8499 39.4204 34.1384 38.3982 33.0233L25.9698 19.465C24.9476 18.3499 24.9476 16.6384 25.9698 15.5233L40.2048 -0.00585938Z" fill="url(#paint1_linear_9889_3090)"></path><path d="M54.0973 19.8404C55.2532 18.5793 57.2414 18.5793 58.3973 19.8404L72.289 34.9948L58.3973 50.1493C57.2414 51.4104 55.2532 51.4104 54.0973 50.1493L42.9156 37.9511C41.3823 36.2785 41.3823 33.7112 42.9156 32.0386L54.0973 19.8404Z" fill="url(#paint2_linear_9889_3090)"></path></g></g></g></g></g></g><defs><filter id="filter0_f_9889_3090" x="12.7031" y="-11.0508" width="72.0859" height="95" filterUnits="userSpaceOnUse" color-interpolation-filters="sRGB"></filter><filter id="filter1_f_9889_3090" x="24.0156" y="-0.914063" width="49.4609" height="72.375" filterUnits="userSpaceOnUse" color-interpolation-filters="sRGB"></filter><linearGradient id="paint0_linear_9889_3090" x1="52.6042" y1="69.9933" x2="11.7708" y2="-29.9025" gradientUnits="userSpaceOnUse"><stop stop-color="#742774"></stop><stop offset="1" stop-color="#BB35A4"></stop></linearGradient><linearGradient id="paint1_linear_9889_3090" x1="24.1639" y1="-0.00568162" x2="57.7055" y2="69.9943" gradientUnits="userSpaceOnUse"><stop stop-color="#E48CC7"></stop><stop offset="1" stop-color="#D467B9"></stop></linearGradient><linearGradient id="paint2_linear_9889_3090" x1="46.039" y1="21.1408" x2="56.2473" y2="52.4948" gradientUnits="userSpaceOnUse"><stop stop-color="#E9A1CB"></stop><stop offset="1" stop-color="#E48CC7"></stop></linearGradient><clipPath id="clip0_9889_3090"><rect width="70" height="70" fill="white" transform="translate(0.835938)"></rect></clipPath><clipPath id="clip1_9889_3090"><rect width="70" height="70" fill="white" transform="translate(0.835938)"></rect></clipPath></defs></svg>