<svg xmlns="http://www.w3.org/2000/svg" viewBox="0 0 75 62" fill="none"><g clip-path="url(#clip0_9894_8206)"><g clip-path="url(#clip1_9894_8206)"><g clip-path="url(#clip2_9894_8206)"><mask id="mask0_9894_8206" style="mask-type:luminance" maskUnits="userSpaceOnUse" x="-6" y="-1" width="75" height="83"><path d="M68.4922 -0.00195312H-5.50781V81.8518H68.4922V-0.00195312Z" fill="white"></path></mask><g mask="url(#mask0_9894_8206)"><mask id="mask1_9894_8206" style="mask-type:alpha" maskUnits="userSpaceOnUse" x="3" y="-1" width="57" height="83"><path d="M34.5755 3.40862C34.5755 1.52501 35.956 -0.00195312 37.6589 -0.00195312H56.1589C57.8617 -0.00195312 59.2422 1.52501 59.2422 3.40862V78.4413C59.2422 80.3248 57.8617 81.8518 56.1589 81.8518H6.82552C5.12267 81.8518 3.74219 80.3248 3.74219 78.4413V44.3355C3.74219 42.4519 5.12267 40.9249 6.82552 40.9249H19.1589V23.8721C19.1589 21.9885 20.5394 20.4615 22.2423 20.4615H34.5755V3.40862Z" fill="white"></path></mask><g mask="url(#mask1_9894_8206)"><path d="M59.237 -0.00195312V81.8518H34.5703V-0.00195312H59.237Z" fill="url(#paint0_linear_9894_8206)"></path><g filter="url(#filter0_f_9894_8206)"><path d="M43.8229 24.2162V82.196H19.1562V20.8057H40.7396C42.4424 20.8057 43.8229 22.3327 43.8229 24.2162Z" fill="black" fill-opacity="0.2"></path></g><g filter="url(#filter1_f_9894_8206)"><path d="M43.8229 25.5824V83.5622H19.1562V22.1719H40.7396C42.4424 22.1719 43.8229 23.6989 43.8229 25.5824Z" fill="black" fill-opacity="0.18"></path></g><path d="M43.8307 23.8725V81.8522H19.1641V20.4619H40.7474C42.4502 20.4619 43.8307 21.9889 43.8307 23.8725Z" fill="url(#paint1_linear_9894_8206)"></path><path d="M3.74219 40.9248V81.8517H28.4088V44.3354C28.4088 42.4518 27.0284 40.9248 25.3255 40.9248H3.74219Z" fill="url(#paint2_linear_9894_8206)"></path></g></g></g></g></g><defs><filter id="filter0_f_9894_8206" x="18.8479" y="20.4973" width="25.2807" height="62.0073" filterUnits="userSpaceOnUse" color-interpolation-filters="sRGB"></filter><filter id="filter1_f_9894_8206" x="16.0729" y="19.0885" width="30.8307" height="67.5573" filterUnits="userSpaceOnUse" color-interpolation-filters="sRGB"></filter><linearGradient id="paint0_linear_9894_8206" x1="30.4592" y1="-0.00195357" x2="68.702" y2="73.2819" gradientUnits="userSpaceOnUse"><stop stop-color="#E6AD10"></stop><stop offset="1" stop-color="#C87E0E"></stop></linearGradient><linearGradient id="paint1_linear_9894_8206" x1="19.1621" y1="20.4619" x2="51.1317" y2="76.5146" gradientUnits="userSpaceOnUse"><stop stop-color="#F6D751"></stop><stop offset="1" stop-color="#E6AD10"></stop></linearGradient><linearGradient id="paint2_linear_9894_8206" x1="3.74018" y1="40.9248" x2="21.6315" y2="79.2586" gradientUnits="userSpaceOnUse"><stop stop-color="#F9E589"></stop><stop offset="1" stop-color="#F6D751"></stop></linearGradient><clipPath id="clip0_9894_8206"><rect width="74" height="61.975" fill="white" transform="translate(0.835938)"></rect></clipPath><clipPath id="clip1_9894_8206"><rect width="74" height="81.8538" fill="white" transform="translate(-5.50781 -0.000976562)"></rect></clipPath><clipPath id="clip2_9894_8206"><rect width="74" height="81.8538" fill="white" transform="translate(-5.50781 -0.000976562)"></rect></clipPath></defs></svg>