<svg xmlns="http://www.w3.org/2000/svg" viewBox="0 0 112 77" fill="none"><path d="M81.2265 66.6426H31.2266C28.4685 66.6426 26.2266 64.4006 26.2266 61.6426C26.2266 61.0908 26.6748 60.6426 27.2266 60.6426H49.2265C49.7783 60.6426 50.2265 61.0908 50.2265 61.6426C50.2265 62.1944 49.7783 62.6426 49.2265 62.6426H28.398C28.81 63.8065 29.9221 64.6426 31.2261 64.6426H81.226C82.53 64.6426 83.6421 63.8064 84.0541 62.6426H63.2256C62.6738 62.6426 62.2256 62.1944 62.2256 61.6426C62.2256 61.0908 62.6738 60.6426 63.2256 60.6426H85.2256C85.7773 60.6426 86.2256 61.0908 86.2256 61.6426C86.2256 64.4006 83.9836 66.6426 81.2256 66.6426H81.2265Z" fill="#1742E7"></path><path d="M31.2262 58.6438C30.6744 58.6438 30.2262 58.1956 30.2262 57.6438V25.6439C30.2262 23.9898 31.5721 22.6439 33.2262 22.6439H43.2261C43.7779 22.6439 44.2261 23.0921 44.2261 23.6439C44.2261 24.1957 43.7779 24.6439 43.2261 24.6439H33.2262C32.6762 24.6439 32.2262 25.0939 32.2262 25.6439V57.6438C32.2262 58.1956 31.7779 58.6438 31.2262 58.6438Z" fill="#1742E7"></path><path d="M81.2236 58.641C80.6718 58.641 80.2236 58.1928 80.2236 57.641V51.6411C80.2236 51.0893 80.6718 50.6411 81.2236 50.6411C81.7754 50.6411 82.2236 51.0893 82.2236 51.6411V57.641C82.2236 58.1928 81.7754 58.641 81.2236 58.641Z" fill="#1742E7"></path><path d="M81.2291 36.6439C80.6773 36.6439 80.2291 36.1957 80.2291 35.6439V25.6439C80.2291 25.0939 79.7791 24.6439 79.2291 24.6439H77.2291C76.6773 24.6439 76.2291 24.1957 76.2291 23.6439C76.2291 23.0921 76.6773 22.6439 77.2291 22.6439H79.2291C80.8832 22.6439 82.2291 23.9898 82.2291 25.6439V35.6439C82.2291 36.1957 81.7809 36.6439 81.2291 36.6439Z" fill="#1742E7"></path><path d="M53.2269 58.6446H49.2269C48.6751 58.6446 48.2269 58.1964 48.2269 57.6446V41.6446C48.2269 41.0928 48.6751 40.6446 49.2269 40.6446H53.2269C53.7786 40.6446 54.2269 41.0928 54.2269 41.6446V57.6446C54.2269 58.1964 53.7786 58.6446 53.2269 58.6446ZM50.2269 56.6446H52.2269V42.6446H50.2269V56.6446Z" fill="#1742E7"></path><path d="M45.2277 58.6424H41.2277C40.6759 58.6424 40.2277 58.1942 40.2277 57.6424V37.6425C40.2277 37.0907 40.6759 36.6425 41.2277 36.6425H45.2277C45.7795 36.6425 46.2277 37.0907 46.2277 37.6425V57.6424C46.2277 58.1942 45.7795 58.6424 45.2277 58.6424ZM42.2277 56.6424H44.2277V38.6425H42.2277V56.6424Z" fill="#1742E7"></path><path d="M69.2252 58.6438H65.2252C64.6735 58.6438 64.2252 58.1956 64.2252 57.6438V49.6438C64.2252 49.092 64.6735 48.6438 65.2252 48.6438H69.2252C69.777 48.6438 70.2252 49.092 70.2252 49.6438V57.6438C70.2252 58.1956 69.777 58.6438 69.2252 58.6438ZM66.2252 56.6438H68.2252V50.6438H66.2252V56.6438Z" fill="#1742E7"></path><path d="M61.2261 58.6442H57.2261C56.6743 58.6442 56.2261 58.196 56.2261 57.6442V45.6442C56.2261 45.0924 56.6743 44.6442 57.2261 44.6442H61.2261C61.7778 44.6442 62.226 45.0924 62.226 45.6442V57.6442C62.226 58.196 61.7778 58.6442 61.2261 58.6442ZM58.2261 56.6442H60.2261V46.6442H58.2261V56.6442Z" fill="#1742E7"></path><path d="M69.2503 33.6629L68.2503 34.0789L71.0784 36.907C71.4686 37.2972 72.1025 37.2972 72.4922 36.907C72.8824 36.5168 72.8824 35.8829 72.4922 35.4932L69.6641 32.6633L69.2503 33.6629Z" fill="#1742E7"></path><path d="M60.2296 38.6425C52.5118 38.6425 46.2296 32.3604 46.2296 24.6426C46.2296 16.9247 52.5118 10.6426 60.2296 10.6426C67.9474 10.6426 74.2296 16.9247 74.2296 24.6426C74.2296 32.3604 67.9474 38.6425 60.2296 38.6425ZM60.2296 12.6426C53.6118 12.6426 48.2296 18.0247 48.2296 24.6426C48.2296 31.2604 53.6118 36.6425 60.2296 36.6425C66.8474 36.6425 72.2296 31.2604 72.2296 24.6426C72.2296 18.0247 66.8474 12.6426 60.2296 12.6426Z" fill="#1742E7"></path><path d="M70.2299 24.6425C70.2299 25.1948 69.7822 25.6425 69.2299 25.6425C68.6777 25.6425 68.2299 25.1948 68.2299 24.6425C68.2299 24.0903 68.6777 23.6425 69.2299 23.6425C69.7822 23.6425 70.2299 24.0903 70.2299 24.6425Z" fill="#1742E7"></path><path d="M60.227 34.6424C59.6752 34.6424 59.227 34.1942 59.227 33.6424C59.227 33.0906 59.6752 32.6424 60.227 32.6424C63.4909 32.6424 66.4011 30.6883 67.6368 27.6665C67.8449 27.1545 68.431 26.9125 68.9408 27.1205C69.4529 27.3286 69.6966 27.9125 69.4868 28.4245C67.9409 32.2004 64.3069 34.6424 60.227 34.6424Z" fill="#1742E7"></path><path d="M74.2272 36.6427C74.7392 36.6427 75.2513 36.8387 75.641 37.2288L81.641 43.2288C82.4231 44.011 82.4231 45.2748 81.641 46.0569C81.2508 46.4471 80.7392 46.6431 80.2272 46.6431C79.7151 46.6431 79.2031 46.4471 78.8133 46.0569L72.8133 40.0569C72.0312 39.2748 72.0312 38.011 72.8133 37.2288C73.2035 36.8387 73.7151 36.6427 74.2272 36.6427ZM74.2272 34.6427C73.1593 34.6427 72.1553 35.0587 71.3991 35.8146C70.6433 36.5704 70.2272 37.5743 70.2272 38.6427C70.2272 39.7105 70.6432 40.7146 71.3991 41.4708L77.3991 47.4708C78.1549 48.2266 79.1588 48.6427 80.2272 48.6427C81.295 48.6427 82.299 48.2266 83.0553 47.4708C83.8111 46.715 84.2272 45.711 84.2272 44.6427C84.2272 43.5748 83.8111 42.5708 83.0553 41.8146L77.0553 35.8146C76.2995 35.0588 75.2955 34.6427 74.2272 34.6427Z" fill="#1742E7"></path></svg>