<svg xmlns="http://www.w3.org/2000/svg" viewBox="0 0 61 60" fill="none"><path d="M12.7908 0.197341C12.1697 0.361403 12.029 0.443435 12.0525 0.630935C12.0642 0.806716 13.9626 8.38875 14.0095 8.49422C14.0329 8.51765 15.99 8.03718 16.0486 8.00203C16.0603 7.99031 15.615 6.1739 15.0525 3.97078C13.904 -0.55266 14.1384 -0.154222 12.7908 0.197341Z" fill="#1742E7"></path><path d="M42.2634 0.46687C41.9822 0.712964 41.9353 0.912183 41.6306 2.90437C41.3025 5.14265 41.1618 5.56453 40.7165 5.67C40.1189 5.82234 39.8845 5.62312 38.5603 3.86531C37.2595 2.13093 36.9782 1.8614 36.4861 1.84968C36.1111 1.84968 35.8884 1.97859 34.3298 3.16218L32.9587 4.19343L30.697 4.22859C28.9275 4.26375 28.1658 4.33406 27.2048 4.53328C23.0681 5.41218 19.4353 7.49812 16.7634 10.5567C14.115 13.5802 12.404 17.5059 12.1228 21.2091L12.0525 22.1231H11.6775C11.0447 22.1231 10.8454 22.463 10.4587 24.338C10.2595 25.2637 10.0954 26.0372 10.0954 26.0606C10.0954 26.0841 9.45091 25.6505 8.66575 25.1114C6.61497 23.6817 6.7556 23.6466 4.56419 25.8497C2.37278 28.0294 2.40794 27.8887 3.76731 29.9161C4.28294 30.6778 4.68138 31.3223 4.64622 31.3575C4.62278 31.3927 3.87278 31.5684 2.98216 31.7559C0.697001 32.2364 0.837626 32.0137 0.837626 35.0723C0.837626 38.1309 0.697001 37.9083 2.98216 38.4005C3.87278 38.588 4.6345 38.7637 4.65794 38.7989C4.69309 38.8341 4.29466 39.4786 3.77903 40.2403C2.39622 42.2442 2.37278 42.1036 4.56419 44.295C6.7556 46.4864 6.61497 46.463 8.61888 45.0802C9.38059 44.5645 10.0251 44.1661 10.0603 44.2012C10.0954 44.2364 10.2829 44.9864 10.4704 45.877C10.74 47.1661 10.8689 47.5528 11.1033 47.7872L11.3845 48.0802H16.1892L16.4704 47.7872C16.7048 47.5528 16.8337 47.1661 17.1033 45.877C17.2908 44.9864 17.4783 44.2364 17.5017 44.2012C17.5368 44.1661 18.1931 44.5645 18.9548 45.0919C20.7947 46.3458 20.9236 46.3458 22.1072 45.1973L22.9626 44.3653L23.0095 46.2872C23.0447 48.0333 23.0681 48.2442 23.3259 48.7247C23.7361 49.4981 24.029 49.8614 24.5329 50.2012L24.9783 50.5177V53.6583C24.9783 57.42 25.0486 57.713 26.1384 58.8145C27.2165 59.8927 27.5681 59.9747 30.9548 59.9747C34.2243 59.9747 34.6697 59.8809 35.6775 58.9317C36.8493 57.8419 37.0486 57.0216 37.0486 53.2012V50.5997L37.7282 49.92C38.8415 48.8302 38.947 48.4669 39.0407 44.9161C39.1345 41.6466 39.1931 41.3653 39.9548 40.3458C40.1892 40.0177 40.8454 39.4317 41.3845 39.0216C43.0837 37.7677 43.6228 37.3223 43.5759 37.1934C43.5173 37.0294 42.404 35.7403 42.2986 35.7286C42.1111 35.7052 39.5212 37.6973 38.865 38.3536C38.1853 39.045 37.5993 39.9825 37.2009 41.0137C37.0486 41.4122 36.99 42.1505 36.9431 44.5059C36.8611 47.8341 36.8259 47.963 36.029 48.5723L35.6072 48.9005L31.1423 48.9356C26.7009 48.9708 26.6775 48.9591 26.1618 48.7012C25.1775 48.1973 25.1658 48.1622 25.0837 44.8809C24.99 41.6583 24.8962 41.0958 24.2048 39.8184C23.6658 38.8458 22.9743 38.1192 21.5798 37.1231C20.0329 35.9981 19.2009 35.2716 18.2634 34.2169C12.779 28.0177 12.6033 18.8653 17.8415 12.4434C20.7243 8.91609 25.4353 6.49031 29.6072 6.38484C30.6501 6.3614 30.6618 6.3614 30.697 6.65437C30.7204 6.81843 31.3064 7.70906 32.0095 8.64656C32.7009 9.58406 33.3103 10.463 33.3454 10.6036C33.4626 10.9669 33.1228 11.5528 32.7478 11.6466C32.5837 11.6934 31.6462 11.6114 30.6736 11.4708C28.3298 11.1427 27.9079 11.1427 27.5681 11.5059C27.3337 11.752 27.24 12.1856 26.8415 14.9395C26.5954 16.6622 26.3845 18.1739 26.3845 18.2794C26.3845 18.3848 26.5017 18.6192 26.654 18.7833C26.9001 19.0762 27.0759 19.1231 29.0798 19.4161C30.2751 19.5919 31.365 19.8028 31.4939 19.8731C31.8806 20.0841 32.0681 20.6231 31.8689 20.9864C31.7868 21.1505 30.9314 21.877 29.9704 22.6153C28.0251 24.0802 27.8493 24.3145 28.1892 25.0059C28.4001 25.463 31.74 29.9395 32.0681 30.2091C32.1736 30.3028 32.4665 30.3848 32.7126 30.3848C33.0759 30.3848 33.404 30.1856 34.9157 29.0606C36.5329 27.8536 36.7204 27.7364 37.1189 27.7716C37.4704 27.795 37.6111 27.877 37.7751 28.17C37.9743 28.5098 37.9743 28.5919 37.6697 30.7598C37.365 32.9044 37.365 32.9981 37.5642 33.3028C37.6697 33.4786 37.8806 33.6661 38.0212 33.713C38.1618 33.7716 39.6853 34.0177 41.4197 34.252C44.1736 34.6505 44.5837 34.6856 44.8532 34.545C45.0173 34.4512 45.2048 34.2872 45.2634 34.17C45.322 34.0645 45.5095 33.0333 45.6736 31.8848C46.0251 29.4239 46.1189 29.213 46.904 29.213H47.4197L48.7439 30.9708C50.1032 32.7755 50.49 33.1153 51.0407 32.9747C51.4275 32.8809 56.4431 29.1309 56.5368 28.8614C56.654 28.5684 56.6306 28.1114 56.49 27.8419C56.4197 27.7012 55.8103 26.8692 55.1423 25.9669C54.4157 24.9942 53.9236 24.2325 53.9236 24.0684C53.9236 23.9161 54.029 23.6583 54.1697 23.4825C54.4743 23.0958 54.697 23.0958 57.1462 23.4239C59.1501 23.7052 59.5603 23.6817 59.8415 23.2598C60.029 22.9786 60.8376 17.6934 60.8376 16.7677C60.8376 16.3809 60.7673 16.1817 60.5447 15.9708C60.3923 15.8067 60.2165 15.6778 60.1462 15.6778C59.572 15.6778 55.9275 15.045 55.7165 14.9161C55.365 14.6817 55.2478 14.1895 55.4587 13.8145C55.5525 13.6505 56.3376 12.9708 57.2048 12.3145C58.072 11.6583 58.8806 11.002 58.9978 10.8614C59.4665 10.2872 59.3376 10.0059 57.24 7.21687C55.2126 4.53328 54.99 4.31062 54.3572 4.47468C54.1931 4.50984 53.279 5.13093 52.3298 5.83406C50.4314 7.24031 50.1501 7.34578 49.6462 6.83015C49.2829 6.47859 49.2829 6.43171 49.6462 3.97078C49.9509 1.82625 49.9392 1.53328 49.447 1.21687C49.1892 1.05281 43.7751 0.209058 42.9548 0.209058C42.7204 0.209058 42.4509 0.314526 42.2634 0.46687ZM46.0603 2.74031L47.6189 2.95125L47.5603 3.5489C47.5251 3.86531 47.4314 4.65046 47.3493 5.28328C47.1736 6.6075 47.279 7.24031 47.8064 8.00203C48.322 8.74031 49.072 9.13875 50.1032 9.20906C51.1579 9.27937 51.5915 9.08015 53.2673 7.81453C53.8884 7.3575 54.4157 6.99421 54.4392 7.01765C54.9665 7.6739 56.6189 9.94734 56.6189 10.0177C56.6072 10.0645 56.1736 10.4278 55.6462 10.8145C53.6072 12.3028 53.2907 12.7598 53.279 14.1544C53.279 15.2442 53.6189 16.0059 54.3689 16.5802C54.9665 17.0372 55.3298 17.1427 57.1462 17.4005C57.9197 17.5059 58.5759 17.5997 58.5993 17.6231C58.6345 17.6583 58.1423 21.3262 58.0837 21.3966C58.072 21.4083 57.5095 21.338 56.8532 21.2442C54.5447 20.8927 53.6892 21.0098 52.8103 21.795C52.1072 22.4044 51.8728 22.9786 51.8728 24.0567C51.8728 25.1583 51.9197 25.252 53.1618 26.9161C53.6423 27.5723 54.0407 28.1231 54.0407 28.1466C54.0407 28.2169 51.1814 30.338 51.0642 30.338C51.0056 30.3497 50.5017 29.752 49.9509 29.0255C49.0954 27.9005 48.8376 27.6427 48.2868 27.3614C47.1736 26.7872 45.8259 26.9278 44.9118 27.7012C44.2087 28.2872 43.9743 28.8614 43.7048 30.6895C43.5759 31.6153 43.4587 32.3887 43.447 32.4005C43.4236 32.4356 39.7439 31.8966 39.697 31.838C39.6736 31.8145 39.7556 31.0997 39.8728 30.2677C40.1306 28.5567 40.0837 27.9591 39.6736 27.1387C39.1931 26.1895 38.197 25.627 37.0017 25.6153C36.0759 25.6153 35.7009 25.7911 34.1775 26.9161L32.9118 27.8536L31.8103 26.4005C31.2126 25.5919 30.7204 24.8887 30.7204 24.8302C30.7204 24.7716 31.2126 24.3614 31.8103 23.9161C33.2048 22.8497 33.4626 22.6153 33.779 21.9942C34.3767 20.8809 34.0017 19.0645 33.029 18.3262C32.4079 17.8575 31.904 17.6934 30.3103 17.4708C29.3845 17.3419 28.7986 17.213 28.7634 17.1192C28.7048 16.9552 29.1501 13.5802 29.2439 13.4864C29.279 13.4512 29.947 13.5216 30.7204 13.627C32.8767 13.9317 33.7322 13.7911 34.5759 12.9591C35.2204 12.3262 35.4665 11.7403 35.4548 10.8145C35.4548 9.80671 35.2907 9.44343 34.0603 7.82625L33.1931 6.67781L34.7165 5.52937L36.2517 4.38093L36.4743 4.68562C38.3142 7.20515 38.865 7.68562 40.0837 7.79109C41.0681 7.88484 41.7478 7.66218 42.4275 7.05281C43.1189 6.43171 43.3298 5.95125 43.5525 4.39265C43.8572 2.28328 43.822 2.40046 44.1736 2.47078C44.3493 2.50593 45.1931 2.62312 46.0603 2.74031ZM12.7087 28.2403C12.9548 29.0723 12.9548 29.1544 12.697 29.1544C12.2868 29.1544 11.0915 29.6348 10.4822 30.0333C9.28685 30.8302 8.44309 31.9669 7.97434 33.3966C7.65794 34.4044 7.69309 36.1153 8.06809 37.1348C8.37278 37.9786 9.12278 39.0919 9.76731 39.6427C10.3533 40.1348 11.6775 40.8028 12.4392 40.9786C14.7478 41.5059 17.4431 40.4395 18.7439 38.4708L19.0837 37.9669L20.0681 38.67C21.3572 39.5841 21.9665 40.1934 22.365 40.9552L22.6931 41.5762L21.697 42.5723C21.1579 43.1231 20.654 43.5684 20.6072 43.5684C20.5486 43.5684 20.0915 43.2872 19.5993 42.9473C19.1072 42.5958 18.5447 42.2325 18.3337 42.127C17.5251 41.7052 16.2595 42.0216 15.7556 42.7833C15.6033 42.9942 15.3923 43.6505 15.2634 44.295C14.8533 46.2403 15.0408 46.0294 13.7868 46.0294C12.8376 46.0294 12.6853 46.0059 12.6267 45.8184C12.6033 45.713 12.4626 45.1036 12.322 44.4708C12.1931 43.8262 12.0056 43.17 11.9236 43.0059C11.5603 42.3145 10.904 41.9278 10.0837 41.9278C9.52122 41.9278 9.16966 42.1036 7.96263 42.9356C7.45872 43.2872 7.01341 43.5684 6.96653 43.5684C6.83763 43.5684 5.29075 42.0098 5.29075 41.8927C5.29075 41.8341 5.58372 41.377 5.93528 40.8731C6.91966 39.4786 7.11888 38.8106 6.80247 37.9786C6.5095 37.1934 5.98216 36.8653 4.447 36.5372C3.84934 36.4083 3.23997 36.2794 3.09935 36.2442C2.84153 36.1856 2.82981 36.127 2.82981 35.0723C2.82981 34.1231 2.85325 33.9708 3.04075 33.9122C3.14622 33.8887 3.81419 33.7364 4.51731 33.5958C5.92356 33.3145 6.46263 32.9864 6.76731 32.2364C7.13059 31.3809 6.95481 30.7364 5.947 29.295C5.58372 28.7794 5.29075 28.3223 5.29075 28.2637C5.29075 28.1466 6.82591 26.5762 6.94309 26.5762C6.98997 26.5762 7.54075 26.9278 8.17356 27.3614C9.14622 28.0294 9.40403 28.1466 9.93138 28.1934C10.8572 28.2755 11.5134 27.9122 11.9001 27.127C12.0642 26.7989 12.2165 26.4473 12.2165 26.3536C12.2283 26.2481 12.2986 26.4825 12.3806 26.8692C12.4509 27.2559 12.6033 27.8653 12.7087 28.2403ZM14.1618 31.8966C14.7243 33.0216 15.4743 34.1348 16.4822 35.3536L17.3845 36.4434L17.1853 36.8887C16.5525 38.2833 14.5954 39.2208 13.0486 38.8927C11.3493 38.5177 10.0837 37.1231 9.90794 35.4122C9.72044 33.6427 10.9158 31.8614 12.6618 31.3341C13.6579 31.0177 13.7517 31.0528 14.1618 31.8966ZM34.9392 52.9434H27.0876V51.0684H34.9392V52.9434ZM34.9392 55.4747C34.9392 56.0606 34.7282 56.8223 34.4822 57.127C34.365 57.2677 34.0954 57.4903 33.8728 57.6192C33.4978 57.8419 33.2986 57.8653 30.9431 57.8653C28.5056 57.8653 28.4001 57.8536 28.0134 57.5958C27.3454 57.1505 27.0876 56.6466 27.0876 55.8028V55.0528H34.9392V55.4747Z" fill="#1742E7"></path><path d="M42.6501 9.46687C40.8689 9.6778 39.3806 10.4161 38.0329 11.752C36.4978 13.2755 35.7947 14.8458 35.6775 17.0255C35.5954 18.5489 35.8298 19.627 36.5095 21.0098C37.822 23.67 40.2478 25.2286 43.2712 25.3809C44.8298 25.4512 45.9431 25.2169 47.2204 24.5841C49.3181 23.5294 50.7947 21.7012 51.4157 19.4278C51.6853 18.4317 51.6853 16.4864 51.4275 15.4434C50.4079 11.5294 46.6814 8.99812 42.6501 9.46687ZM45.4626 11.8341C48.1462 12.6895 49.9275 15.5606 49.4822 18.2794C49.0134 21.127 46.5056 23.2833 43.6697 23.295C39.8728 23.295 36.9783 19.6153 37.9275 15.9708C38.197 14.9512 38.654 14.1895 39.5212 13.2989C41.1501 11.6583 43.2712 11.1309 45.4626 11.8341Z" fill="#1742E7"></path><path d="M4.00169 6.19734C3.66185 6.65437 3.43919 7.06453 3.49778 7.1114C3.5681 7.14656 5.13841 8.27156 7.01341 9.6075C8.88841 10.9552 10.447 12.045 10.4822 12.045C10.5525 12.045 11.6072 10.5684 11.654 10.4044C11.6775 10.3106 5.0681 5.52937 4.75169 5.40046C4.68138 5.37703 4.34153 5.72859 4.00169 6.19734Z" fill="#1742E7"></path><path d="M22.7517 11.7872C19.6579 14.0723 17.7243 17.2833 17.115 21.1036C16.9158 22.3692 17.0447 25.1817 17.3493 26.3419C18.0993 29.213 19.4236 31.4981 21.404 33.3497C22.5408 34.4161 23.572 35.0841 25.4822 36.0098C27.5915 37.0294 28.5993 37.92 29.2908 39.3731C29.5837 40.0177 29.9001 41.1895 29.9001 41.6817V42.045H32.0447L31.9626 41.2481C31.8337 40.0411 31.6814 39.502 31.1072 38.3302C30.7439 37.5684 30.3572 37.0059 29.8181 36.42C28.8923 35.4122 28.1072 34.8731 26.6189 34.1934C24.5681 33.2559 23.572 32.5645 22.3064 31.2052C20.8064 29.5997 19.8337 27.7247 19.3298 25.4747C19.0251 24.0919 19.0837 21.6075 19.447 20.2247C20.1618 17.5645 21.7204 15.2325 23.8298 13.6622C24.2634 13.3341 24.6267 13.0411 24.6267 13.0059C24.6267 12.9473 23.572 11.2247 23.5368 11.2247C23.5251 11.2247 23.1736 11.4825 22.7517 11.7872Z" fill="#1742E7"></path><path d="M5.8181 16.1231C3.62669 16.6739 1.822 17.1192 1.81028 17.1309C1.81028 17.1427 1.90403 17.5997 2.03294 18.1739C2.23216 19.0059 2.31419 19.1934 2.46653 19.1466C2.572 19.1114 4.36497 18.6544 6.46263 18.1387C8.54856 17.6114 10.2829 17.1661 10.3064 17.1427C10.365 17.0841 9.97825 15.4552 9.87278 15.2559C9.82591 15.1739 8.47825 15.4669 5.8181 16.1231Z" fill="#1742E7"></path><path d="M49.822 39.1153H56.8532V37.0059H49.822V39.1153Z" fill="#1742E7"></path><path d="M48.779 43.0528C48.4392 43.4747 48.1697 43.838 48.1931 43.8614C48.2165 43.8731 49.5876 45.0098 51.2282 46.3809L54.2165 48.8653L54.779 48.2442C55.0837 47.8927 55.3884 47.5177 55.4587 47.4122C55.5525 47.2364 55.1072 46.8262 52.6111 44.7403C50.9939 43.3927 49.5993 42.2794 49.5407 42.2794C49.4704 42.2794 49.1306 42.6309 48.779 43.0528Z" fill="#1742E7"></path><path d="M29.9001 47.0841H32.0095V44.0372H29.9001V47.0841Z" fill="#1742E7"></path><path d="M43.8454 52.0059H45.9548V44.9747H43.8454V52.0059Z" fill="#1742E7"></path></svg>