<svg xmlns="http://www.w3.org/2000/svg" viewBox="0 0 101 101" fill="none"><path fill-rule="evenodd" clip-rule="evenodd" d="M44.211 10.9625C43.8381 11.2911 43.7531 11.6159 43.3139 14.3899C43.0471 16.0754 42.7958 17.6004 42.7556 17.7786C42.6977 18.0361 42.38 18.1819 41.2165 18.4856C39.2821 18.9901 36.0179 20.3264 34.164 21.3724C33.345 21.8344 32.6316 22.2125 32.5787 22.2125C32.5258 22.2125 31.345 21.3886 29.9548 20.3815C27.0026 18.243 26.8295 18.142 26.3306 18.2672C25.8652 18.3841 18.064 26.1874 17.9181 26.6822C17.7785 27.1551 17.8947 27.3541 20.0319 30.3044C21.039 31.6946 21.8629 32.8754 21.8629 32.9283C21.8629 32.9812 21.4848 33.6946 21.0227 34.5136C19.9768 36.3675 18.6405 39.6317 18.136 41.5661C17.8323 42.7296 17.6865 43.0474 17.429 43.1053C17.2508 43.1454 15.7258 43.3967 14.0403 43.6635C11.2663 44.1027 10.9415 44.1877 10.6129 44.5606C10.2513 44.9709 10.25 44.9936 10.25 50.5996C10.25 56.2059 10.2513 56.2283 10.6129 56.6378C10.9411 57.0098 11.2684 57.0953 14.0403 57.5333C15.7258 57.7998 17.2508 58.0512 17.429 58.0923C17.6861 58.1515 17.8327 58.4712 18.136 59.6332C18.6405 61.5675 19.9768 64.8317 21.0227 66.6856C21.4848 67.5046 21.8629 68.218 21.8629 68.2709C21.8629 68.3238 21.039 69.5046 20.0319 70.8948C17.8947 73.8451 17.7785 74.0441 17.9181 74.517C18.064 75.0119 25.8652 82.8151 26.3306 82.932C26.8302 83.0574 27.0005 82.9578 29.9881 80.7935L32.5487 78.9385L33.6171 79.5365C36.0855 80.9183 39.2466 82.2243 41.5063 82.7962C42.4181 83.0269 42.6984 83.1667 42.7553 83.4193C42.7956 83.5983 43.0471 85.1238 43.3139 86.8093C43.7531 89.5833 43.8381 89.9082 44.211 90.2367C44.6213 90.5983 44.644 90.5996 50.25 90.5996C55.8563 90.5996 55.8787 90.5983 56.2884 90.2367C56.6542 89.9138 56.7445 89.5896 57.1085 87.2932C57.3335 85.8738 57.5569 84.5157 57.605 84.2753C57.691 83.844 57.7056 83.8523 58.6731 84.8865C62.5645 89.0465 68.7085 91.2146 74.3736 90.4267C84.3348 89.0411 91.4487 79.7256 90.0771 69.8632C89.515 65.8219 87.4171 61.7169 84.5369 59.0227C83.5027 58.0553 83.4944 58.0406 83.9256 57.9546C84.1661 57.9065 85.5242 57.6832 86.9435 57.4582C89.24 57.0941 89.5642 57.0038 89.8871 56.638C90.2487 56.2283 90.25 56.2059 90.25 50.5996C90.25 44.9936 90.2487 44.9709 89.8871 44.5606C89.5585 44.1877 89.2337 44.1027 86.4597 43.6635C84.7742 43.3967 83.2487 43.1453 83.0697 43.1049C82.8171 43.048 82.6773 42.7677 82.4466 41.8559C81.8747 39.5962 80.5687 36.4351 79.1869 33.9667L78.5889 32.8983L80.4439 30.3377C82.6066 27.3522 82.7216 27.1557 82.5819 26.6822C82.436 26.1874 74.6348 18.3841 74.1693 18.2672C73.6692 18.1417 73.4963 18.243 70.5158 20.4078L67.9592 22.2649L66.8868 21.6648C64.4139 20.2806 61.2548 18.9753 58.9937 18.403C58.0819 18.1724 57.8016 18.0325 57.7447 17.7799C57.7044 17.6009 57.4529 16.0754 57.1861 14.3899C56.7469 11.6159 56.6619 11.2911 56.289 10.9625C55.8787 10.6009 55.856 10.5996 50.25 10.5996C44.644 10.5996 44.6213 10.6009 44.211 10.9625ZM54.9037 16.4464C55.285 18.8167 55.5064 19.7912 55.7113 19.9993C55.8666 20.157 56.7881 20.4956 57.759 20.7517C60.9453 21.5922 63.464 22.6377 66.119 24.222C66.9427 24.7136 67.7953 25.1157 68.0137 25.1157C68.2645 25.1157 69.4073 24.3959 71.1211 23.1583L73.8318 21.2007L76.7182 24.084C78.306 25.6698 79.6032 27.0043 79.6011 27.0496C79.5992 27.0948 78.7282 28.3261 77.6656 29.7857C76.4314 31.4812 75.7339 32.5838 75.7339 32.8391C75.7339 33.0588 76.1658 33.9694 76.6937 34.8627C78.2903 37.5643 79.2556 39.8975 80.0979 43.0906C80.354 44.0615 80.6926 44.983 80.8503 45.1385C81.0576 45.3427 81.9913 45.5578 84.2156 45.9136C85.9089 46.1844 87.3787 46.4061 87.4818 46.4061C87.6195 46.4061 87.6693 47.5201 87.6693 50.5996C87.6693 53.6791 87.6195 54.7932 87.4818 54.7932C86.8642 54.7932 81.1423 55.8053 80.8982 55.9577C80.6576 56.108 80.3592 56.0309 79.2892 55.5417C78.5668 55.2115 77.5258 54.8233 76.9758 54.6791L75.9758 54.4169L75.9715 50.6936C75.9676 47.4591 75.9206 46.7641 75.6135 45.3965C74.4358 40.1512 72.2284 36.1159 68.4832 32.3611C64.7279 28.5961 60.3176 26.2165 55.1445 25.1643C52.94 24.7159 47.199 24.758 45.0469 25.2382C39.8126 26.4064 35.755 28.6254 32.0153 32.3649C28.2765 36.104 26.0613 40.154 24.8874 45.3965C24.5823 46.7601 24.535 47.4561 24.535 50.5996C24.535 54.594 24.7094 55.793 25.7345 58.8528C28.2552 66.3769 34.4727 72.5944 41.9968 75.1151C45.0761 76.1469 46.2484 76.3162 50.344 76.3211L54.0673 76.3254L54.3295 77.3254C54.4737 77.8754 54.8619 78.9164 55.1921 79.6388C55.6805 80.707 55.7582 81.0075 55.6085 81.247C55.5074 81.4091 55.1892 82.999 54.9016 84.7803L54.3785 88.019H50.2176C47.1626 88.019 46.0564 87.9691 46.0564 87.8314C46.0564 87.7283 45.8366 86.2585 45.5681 84.5653C44.9927 80.9386 45.0019 80.9533 43.0455 80.5183C40.3469 79.9185 37.3702 78.7072 34.564 77.067C33.6385 76.5261 32.7034 76.0835 32.4856 76.0835C32.2353 76.0835 31.1152 76.7932 29.4361 78.0153C27.9765 79.0778 26.7452 79.9488 26.7 79.9507C26.6547 79.9528 25.32 78.6553 23.7339 77.0674L20.8502 74.1803L21.2318 73.6399C21.4418 73.3428 22.3227 72.1248 23.1898 70.9332C24.1856 69.5646 24.7661 68.6182 24.7661 68.3636C24.7661 68.1419 24.3342 67.2298 23.8063 66.3365C22.2097 63.6349 21.2444 61.3017 20.4021 58.1086C20.146 57.1377 19.8074 56.2162 19.6497 56.0609C19.4416 55.8561 18.4671 55.6346 16.0968 55.2533L12.8306 54.7282V50.5985V46.469L16.0968 45.9482C18.4984 45.5651 19.4389 45.3517 19.6497 45.1415C19.8074 44.9844 20.146 44.0615 20.4021 43.0906C21.2444 39.8975 22.2097 37.5643 23.8063 34.8627C24.3342 33.9694 24.7661 33.0588 24.7661 32.8391C24.7661 32.5838 24.0685 31.4812 22.8344 29.7857C21.7718 28.3261 20.9008 27.0948 20.8989 27.0496C20.8968 27.0043 22.1944 25.6696 23.7823 24.0835L26.6694 21.1998L27.2097 21.5814C27.5068 21.7914 28.7248 22.6724 29.9165 23.5394C31.2718 24.5256 32.2324 25.1157 32.4821 25.1157C32.7018 25.1157 33.6382 24.6735 34.5631 24.1328C37.349 22.5044 41.2323 20.9703 43.6768 20.5322C44.9026 20.3125 45.0242 20.0619 45.5681 16.634C45.8366 14.9407 46.0564 13.4709 46.0564 13.3678C46.0564 13.2301 47.1626 13.1803 50.2176 13.1803H54.3785L54.9037 16.4464ZM54.9274 27.7565C62.8029 29.5699 69.0013 34.7682 71.8744 41.9688C72.8856 44.5036 73.3355 46.6969 73.4321 49.5657C73.4802 50.993 73.4681 52.5717 73.4053 53.0738L73.2913 53.9867H71.7918C69.9037 53.9867 67.8216 54.3444 66.0564 54.9719C65.3024 55.2401 64.5584 55.4994 64.4032 55.5483C64.1479 55.6288 64.121 55.4901 64.121 54.0922C64.121 51.9699 63.7545 51.0112 62.4416 49.6988C60.9468 48.2048 58.6389 47.2738 55.0511 46.7174L53.8039 46.524L54.6924 45.5641C56.2121 43.9227 56.9979 42.008 57.1394 39.6014C57.2498 37.7225 57.0168 36.3682 56.3684 35.1222C55.8011 34.0322 55.5394 33.7215 54.5534 32.969C52.3735 31.3049 48.1344 31.2991 45.9624 32.9569C44.9784 33.7082 44.5489 34.2151 44.0653 35.1964C43.4785 36.3875 43.254 37.7903 43.3606 39.6014C43.5023 42.0094 44.2879 43.9227 45.8103 45.5672L46.7019 46.5301L45.7744 46.6449C44.1961 46.8404 41.3529 47.6275 40.1692 48.1967C38.6284 48.9377 37.1966 50.3593 36.7277 51.6138C36.3911 52.5146 36.379 52.7773 36.379 59.1423V65.7375L36.804 66.0717C37.2219 66.4006 37.3721 66.4061 45.8856 66.4061H54.5423L54.1571 67.898C53.8906 68.9294 53.744 70.0467 53.6819 71.5183L53.5921 73.6465L52.7016 73.7578C52.2119 73.819 50.6434 73.8298 49.2161 73.7817C47.0461 73.7086 46.3132 73.6149 44.7421 73.2104C40.404 72.0936 36.8365 70.0844 33.8008 67.0488C30.7768 64.0248 28.7885 60.502 27.6256 56.1075C27.1466 54.2973 27.1281 54.1017 27.1166 50.7609C27.1069 47.9199 27.159 47.0599 27.4048 46.0028C28.93 39.4422 32.3147 34.5191 37.711 31.0119C40.46 29.2251 43.8497 27.9696 47.2661 27.4725C48.3471 27.3153 53.906 27.5214 54.9274 27.7565ZM52.7213 34.8485C54.1294 35.6736 54.7047 37.1072 54.564 39.4407C54.3697 42.6651 52.5615 44.9917 50.25 44.9917C48.6255 44.9917 47.1565 43.7638 46.3461 41.7286C46.0573 41.003 45.9913 40.5038 45.9844 38.9867C45.9768 37.3548 46.0215 37.0393 46.3552 36.3614C47.089 34.8711 48.3079 34.2807 50.4998 34.3535C51.7524 34.3951 52.0676 34.4654 52.7213 34.8485ZM55.8063 49.4649C58.8142 50.1172 60.3092 50.8622 61.1203 52.1133C61.5208 52.7309 61.5403 52.8633 61.5403 54.9732V57.1854L60.8548 57.7101C60.4779 57.9986 59.7882 58.6011 59.3226 59.0488L58.4758 59.8628V57.8801C58.4758 55.9038 58.4744 55.8959 58.0044 55.4259C57.745 55.1665 57.4148 54.9544 57.2705 54.9544C56.8719 54.9544 56.1082 55.3935 55.9953 55.6875C55.9403 55.8311 55.8952 57.6061 55.8952 59.6319C55.8952 61.6577 55.8511 63.4299 55.7973 63.5703C55.7106 63.7961 55.0616 63.8254 50.1521 63.8254H44.6048V59.887C44.6048 57.7209 44.5597 55.8311 44.5047 55.6875C44.3918 55.3935 43.6281 54.9544 43.2295 54.9544C43.0852 54.9544 42.755 55.1665 42.4956 55.4259L42.0242 55.8974V59.8614V63.8254H40.4919H38.9597V58.2932V52.7609L39.3797 52.1133C40.2385 50.7886 42.1366 49.927 45.5726 49.3019C47.9697 48.8657 53.4452 48.953 55.8063 49.4649ZM75.0081 56.8728C78.0366 57.5011 80.6005 58.8519 82.8015 60.9786C84.9542 63.059 86.386 65.4749 87.1389 68.2983C87.7218 70.4844 87.7555 73.8424 87.2161 75.9932C86.06 80.6022 82.9037 84.4478 78.606 86.4838C76.2676 87.5914 74.6794 87.9293 71.8629 87.918C69.8766 87.9101 69.2882 87.8457 67.9584 87.4909C61.0602 85.6507 56.2219 79.3857 56.2219 72.2932C56.2219 64.8515 61.4513 58.4432 68.7984 56.8815C70.6339 56.4912 73.1524 56.4878 75.0081 56.8728ZM79.121 64.1462C78.8105 64.2043 78.3387 64.3686 78.0726 64.5117C77.8064 64.6548 75.7387 66.627 73.4777 68.8946L69.3668 73.0173L67.7519 71.4215C65.845 69.5372 65.3587 69.2533 64.0403 69.254C61.3352 69.2554 59.4908 72.0383 60.5831 74.4706C60.9827 75.3607 66.7718 81.254 67.75 81.7667C68.6673 82.2473 70.0947 82.2428 71.0895 81.7557C71.6524 81.4803 73.2798 79.9198 77.3952 75.7098C80.446 72.5886 83.0779 69.7811 83.2439 69.4706C83.679 68.6565 83.6547 67.0188 83.1947 66.1441C82.4227 64.6765 80.7295 63.8462 79.121 64.1462ZM80.7902 67.2554C81.0023 67.5394 81.0656 67.799 80.9934 68.0867C80.9295 68.3417 78.7331 70.679 75.3676 74.0732C71.0798 78.3975 69.7589 79.6401 69.4532 79.6365C69.161 79.633 68.2766 78.853 66.0192 76.6077C64.3471 74.9444 62.9363 73.4146 62.8842 73.2082C62.6698 72.3591 63.7047 71.5025 64.4692 71.8959C64.6769 72.0028 65.7603 72.9886 66.8768 74.0869C68.6642 75.8449 68.9726 76.0841 69.4574 76.089C69.9679 76.0941 70.3368 75.7598 74.5242 71.4949C77.0081 68.9653 79.2218 66.8311 79.4436 66.7523C79.9592 66.5694 80.4013 66.7346 80.7902 67.2554Z" fill="#1742E7"></path></svg>