<svg xmlns="http://www.w3.org/2000/svg" viewBox="0 0 101 100" fill="none"><path d="M67.75 13.9265C66.3906 14.4734 65.7812 15.489 65.375 17.8484C65.0469 19.8015 64.9844 19.8953 63.7188 20.4734L62.9062 20.8328L61.5156 19.7078C59.5156 18.114 58.7344 17.864 57.2031 18.3172C56.3906 18.5672 54.5469 20.2859 54.0781 21.2547C53.2188 22.9422 53.4062 23.864 55.0156 26.0047C55.6406 26.864 56.1719 27.6297 56.1562 27.7234C56.1562 27.8172 55.9688 28.2859 55.7344 28.7547L55.3125 29.614L53.2812 29.9578C50.9844 30.364 50.2656 30.7234 49.6406 31.8015C49.3125 32.3797 49.2969 32.5828 49.3281 34.7078C49.375 36.9265 49.3906 37.0047 49.7969 37.5515C50.5469 38.5203 51.0312 38.7547 52.9375 39.0828C53.8906 39.2547 54.8281 39.4265 55.0156 39.4578C55.2344 39.5047 55.4688 39.8328 55.7656 40.5359L56.2031 41.5515L55.2344 42.8172C54.0625 44.364 53.6875 45.1765 53.6719 46.1453C53.6719 47.2703 54.0312 47.9265 55.4375 49.3328C56.8125 50.739 57.2969 50.989 58.5781 50.9734C59.6406 50.9578 60.0781 50.7859 61.4688 49.7078C63.1875 48.3953 63.1406 48.4265 64.0625 48.7859C64.4844 48.9578 64.9219 49.1609 65.0156 49.239C65.1094 49.3172 65.3125 50.1297 65.4531 51.0672C65.7969 53.2703 66.0625 53.9422 66.8125 54.5984C67.6719 55.3328 68.5 55.5203 70.4219 55.4422C71.8438 55.3953 72.125 55.3328 72.7656 54.9578C73.8594 54.3172 74.2188 53.5828 74.6094 51.2547C74.7812 50.1922 74.9688 49.2703 75.0312 49.2078C75.1094 49.1609 75.5469 48.9265 76.0312 48.7078L76.9219 48.3172L78.2969 49.4109C79.9688 50.7234 80.4219 50.9422 81.5625 50.9422C82.5938 50.9422 83.0156 50.739 84.6562 49.5047C85.9219 48.5359 86.375 47.8953 86.5469 46.7859C86.7344 45.7234 86.4062 44.8797 85.1406 43.1765L83.9844 41.5984L84.3438 40.6297C84.5625 40.0203 84.7969 39.5984 85 39.5203C85.1719 39.4578 86.0469 39.2703 86.9531 39.1297C88.8281 38.8328 89.5781 38.5203 90.1406 37.7703C90.5469 37.2547 90.5469 37.1922 90.5469 34.614C90.5469 32.2859 90.5156 31.9422 90.2344 31.5047C89.7656 30.7234 88.8594 30.3172 86.75 29.9422L84.8438 29.614L84.4219 28.8328C84.1875 28.3953 83.9844 27.9265 83.9844 27.7547C83.9844 27.5984 84.4375 26.864 84.9844 26.114C86.3125 24.3172 86.3906 24.1453 86.3906 22.9734C86.4062 21.6922 85.9844 20.9265 84.5156 19.5359C83.2812 18.3953 82.7344 18.1297 81.5781 18.1297C80.4375 18.1297 80.1719 18.2547 78.4531 19.5515L76.9688 20.6609L76.2031 20.4109C74.9531 19.989 74.9375 19.9578 74.5938 17.8172C74.2188 15.4422 73.8125 14.7078 72.5469 14.0515C72.0625 13.8015 71.6406 13.7547 70.0469 13.7703C68.9844 13.7703 67.9531 13.8484 67.75 13.9265ZM71.2031 16.7547C71.3594 16.8953 71.5312 17.5672 71.7031 18.6765C72 20.5984 72.5156 21.864 73.1875 22.3484C73.9688 22.8953 75.9375 23.5984 76.7031 23.5984C77.7188 23.5984 78.2812 23.3172 79.8906 22.0515C80.6719 21.4422 81.3594 20.9422 81.4375 20.9422C81.625 20.9422 83.5156 22.8953 83.5156 23.0984C83.5156 23.1765 83.0625 23.8328 82.5156 24.5515C81.3438 26.114 81.0938 26.5828 80.9375 27.4422C80.8125 28.239 81.0312 29.0828 81.75 30.5984C82.5 32.1765 83.0625 32.5203 85.4844 32.9109C86.4844 33.0672 87.4062 33.2859 87.5156 33.4109C87.75 33.6453 87.8281 35.864 87.6094 36.2078C87.5469 36.3015 86.625 36.5359 85.5625 36.7234C82.7969 37.1922 82.5 37.3953 81.5469 39.4578C81.0938 40.4265 80.9688 40.9109 80.9688 41.5672C80.9688 42.614 81.1719 43.0359 82.6094 44.9422C83.5 46.114 83.6719 46.4422 83.5469 46.6765C83.25 47.2234 81.6406 48.614 81.4375 48.5047C81.3438 48.4422 80.6406 47.9422 79.9062 47.4109C78.2656 46.2078 77.6875 45.9422 76.5781 45.9422C75.9219 45.9422 75.4375 46.0828 74.4219 46.5515C72.4375 47.4578 72.1875 47.8484 71.7188 50.7859C71.5625 51.6922 71.375 52.5203 71.2969 52.614C71.1094 52.8484 69.0312 52.8953 68.6719 52.6609C68.5312 52.5672 68.3281 51.8172 68.1094 50.5515C67.625 47.8172 67.3281 47.3484 65.4688 46.4265C63.2031 45.3015 62.2656 45.4422 59.9219 47.1922C59.1094 47.8015 58.375 48.2859 58.2812 48.2859C57.9688 48.2859 56.1406 46.2703 56.2656 46.0672C56.3281 45.9578 56.8125 45.2703 57.3438 44.5359C57.8906 43.8015 58.4531 42.9578 58.5938 42.6609C59.0156 41.8328 58.9688 40.5828 58.4688 39.489C58.2344 38.989 58.0469 38.5203 58.0469 38.4422C58.0469 38.1609 56.875 36.989 56.4062 36.8015C56.1562 36.6922 55.1719 36.4734 54.2188 36.3328C53.2812 36.1765 52.4062 35.989 52.3125 35.8953C52.1719 35.8015 52.1094 35.3015 52.1094 34.4578C52.1094 33.614 52.1719 33.114 52.3125 33.0047C52.4062 32.9265 53.2344 32.739 54.1406 32.5828C56.7656 32.1609 57.3438 31.7859 58.2031 30.0359C59.3281 27.7078 59.2188 26.8484 57.4844 24.5203C56.8438 23.6609 56.3281 22.8797 56.3281 22.7703C56.3281 22.4265 58.3281 20.5984 58.5469 20.7234C58.6562 20.8015 59.4375 21.3484 60.2656 21.9734C62.5156 23.6453 63.2656 23.739 65.625 22.6609C67.5781 21.7703 67.8438 21.3172 68.2031 18.4422C68.3125 17.6297 68.4688 16.864 68.5469 16.7547C68.6562 16.6453 69.125 16.5672 69.8281 16.5672C70.5 16.5672 71.0625 16.6453 71.2031 16.7547Z" fill="#1742E7"></path><path d="M67.9688 26.3172C64.9375 27.0672 62.4688 29.614 61.8125 32.6297C61.5781 33.7859 61.5938 35.5515 61.875 36.614C63.5156 42.9265 71.4062 45.0672 76.0156 40.4734C80.6094 35.864 78.4688 27.9734 72.1562 26.3328C71.0938 26.0515 69.0625 26.0515 67.9688 26.3172ZM72.0312 29.239C73.25 29.6922 74.5938 30.9734 75.1719 32.2234C75.5625 33.0672 75.625 33.3953 75.625 34.5359C75.625 36.1922 75.1719 37.2703 73.9844 38.4422C73.5625 38.8797 72.7969 39.4265 72.2969 39.6609C71.5312 40.0203 71.2031 40.0828 70 40.0828C68.7969 40.0672 68.4688 40.0047 67.7031 39.6453C66.5312 39.0672 65.4688 38.0203 64.9531 36.9109C64.5781 36.1297 64.5312 35.8328 64.5312 34.4578C64.5312 33.0672 64.5781 32.8015 64.9531 32.0984C65.7344 30.614 66.7812 29.6609 68.2031 29.1765C69.2344 28.8172 70.9688 28.8484 72.0312 29.239Z" fill="#1742E7"></path><path d="M14.9844 24.5046C13.1875 25.1296 11.875 26.3171 11.0625 28.0671L10.625 28.989V81.6453L11.0469 82.5515C11.6094 83.739 13.0156 85.2078 14.125 85.739L15 86.1765L45.2344 86.2234C66.6562 86.2546 75.7656 86.2078 76.4688 86.0984C78.6562 85.7234 80.4375 84.3796 81.375 82.3953L81.875 81.3328L81.9219 67.8953C81.9375 60.5046 81.9219 54.3015 81.875 54.114C81.7812 53.7234 81.0625 53.2859 80.5469 53.2859C80.3594 53.2859 80 53.489 79.75 53.739L79.2969 54.1921V67.2078C79.2969 76.614 79.25 80.364 79.1094 80.8015C78.875 81.5984 78.0312 82.5828 77.2031 83.0203L76.5625 83.364H46.25C17.3906 83.364 15.9062 83.3484 15.375 83.0828C14.5781 82.6921 13.8281 81.9265 13.4531 81.0984C13.125 80.3953 13.125 80.3328 13.0781 60.1921L13.0312 40.0046H46.75L47.0781 39.6453C47.5625 39.1296 47.5469 38.1453 47.0625 37.6921L46.7031 37.3484H13.0156L13.0781 33.5515L13.125 29.7703L13.5938 28.9265C13.8438 28.4734 14.2656 27.9265 14.5312 27.7234C15.7031 26.8328 14.6719 26.8796 33.3594 26.8796C52.2344 26.8796 51.2344 26.9265 51.6406 25.9421C51.875 25.3953 51.6406 24.6296 51.1562 24.3796C50.9844 24.2859 44.2812 24.2234 33.3281 24.2234C17 24.239 15.7188 24.2546 14.9844 24.5046Z" fill="#1742E7"></path><path d="M18.1875 31.239C17.6094 31.8328 17.5781 32.5203 18.125 33.0515C18.4844 33.4265 18.5938 33.4422 20.3594 33.4422C22.0156 33.4422 22.2656 33.4109 22.6406 33.114C22.9688 32.864 23.0469 32.6609 23.0469 32.114C23.0469 31.5672 22.9688 31.364 22.6406 31.114C22.2656 30.8328 22 30.7859 20.4375 30.7859C18.6719 30.7859 18.6406 30.7859 18.1875 31.239Z" fill="#1742E7"></path><path d="M24.2812 31.239C24.0312 31.489 23.8281 31.8484 23.8281 32.0359C23.8281 32.489 24.2344 33.2234 24.5312 33.3484C25.0156 33.5203 28.4219 33.4422 28.6875 33.239C29.4062 32.6922 29.4219 31.6609 28.7188 31.0984C28.375 30.8328 28.0781 30.7859 26.5312 30.7859C24.7656 30.7859 24.7344 30.7859 24.2812 31.239Z" fill="#1742E7"></path><path d="M30.5 31.0984C29.7969 31.6609 29.8125 32.6922 30.5312 33.239C30.7031 33.364 31.4375 33.4265 32.7031 33.4422C34.3906 33.4422 34.6406 33.4109 34.9219 33.1297C35.5781 32.4734 35.4375 31.3172 34.6719 30.9578C34.4531 30.864 33.5156 30.7859 32.5938 30.7859C31.1406 30.7859 30.8438 30.8328 30.5 31.0984Z" fill="#1742E7"></path><path d="M21.7188 44.1609C20.7812 44.489 19.9375 45.2703 19.5156 46.1609C19.1406 46.9578 19.1406 46.9734 19.1406 53.2078C19.1406 57.2234 19.2031 59.6765 19.3125 60.0672C19.5312 60.8797 20.9219 62.2703 21.7344 62.489C22.625 62.739 41.7812 62.7234 42.6094 62.4734C43.4844 62.2234 44.5 61.2547 44.9062 60.3172C45.2344 59.5359 45.25 59.4109 45.2031 53.0828L45.1562 46.6453L44.7188 45.9109C44.1875 45.0047 43.4531 44.4265 42.4844 44.1297C41.3906 43.8015 22.6406 43.8328 21.7188 44.1609ZM42.0156 46.9734L42.4219 47.3953V53.239C42.4219 56.7547 42.3594 59.2078 42.2656 59.3797C41.9531 59.9734 41.4062 60.0047 32.1562 60.0047C22.0625 60.0047 22.2656 60.0203 21.9531 58.9578C21.8281 58.5515 21.7969 56.6297 21.8281 52.8484L21.875 47.3172L22.75 46.5672H41.5938L42.0156 46.9734Z" fill="#1742E7"></path><path d="M52.1406 52.7078C51.7031 53.1609 51.6875 54.0515 52.0938 54.5515C52.3438 54.864 52.5625 54.9265 53.5469 54.9734C54.625 55.0359 54.7344 55.0047 55.2031 54.614C55.8438 54.0828 55.9062 53.2078 55.3438 52.6922C55.0312 52.3953 54.7969 52.3484 53.7344 52.3484C52.625 52.3484 52.4375 52.3953 52.1406 52.7078Z" fill="#1742E7"></path><path d="M52.1406 60.989C51.6875 61.4578 51.6719 62.3797 52.1094 62.8172C52.4219 63.1297 52.625 63.1297 62.8906 63.1297H73.375L73.75 62.739C74.2344 62.2703 74.25 61.5984 73.8125 61.0359L73.5 60.6297H52.4687L52.1406 60.989Z" fill="#1742E7"></path><path d="M19 69.1609C18.375 69.6765 18.3281 70.5515 18.875 71.0672L19.2344 71.4109H46.2969C73.0313 71.4109 73.3594 71.4109 73.6719 71.0984C74.3438 70.4265 74.2031 69.3797 73.3594 68.9578C73.0469 68.8015 67.2969 68.7547 46.2188 68.7547H19.4844L19 69.1609Z" fill="#1742E7"></path><path d="M19.2188 77.2234C18.4062 77.6609 18.25 78.6609 18.9062 79.3015L19.2812 79.6922H73.2344L73.6875 79.239C74.3438 78.5672 74.2188 77.5828 73.4062 77.2078C72.875 76.9578 19.6719 76.9734 19.2188 77.2234Z" fill="#1742E7"></path></svg>