<svg xmlns="http://www.w3.org/2000/svg" viewBox="0 0 112 77" fill="none"><mask id="path-1-inside-1_9894_10981" fill="white"><path fill-rule="evenodd" clip-rule="evenodd" d="M37.2466 10.9473C36.5983 11.2703 36.1793 11.726 35.8868 12.4263C35.7294 12.8028 35.7081 14.6959 35.7081 28.3068V43.7599L36.0156 44.0016C36.4301 44.3276 36.9998 44.3154 37.3211 43.9735L37.5747 43.7034V31.8406V19.9777H56.2407H74.9067V31.8569V43.7361L75.1766 43.9898C75.5474 44.338 76.1849 44.3296 76.5209 43.9721L76.7758 43.7007L76.7454 28.1259L76.7149 12.5513L76.3619 11.9802C76.1431 11.6263 75.7917 11.2749 75.4377 11.056L74.8667 10.703L56.3624 10.6728L37.8581 10.6426L37.2466 10.9473ZM74.3634 12.6408C74.8494 12.8622 74.9067 13.1876 74.9067 15.725V18.1111H56.2407H37.5747V15.725C37.5747 13.2272 37.6346 12.8652 38.0839 12.6478C38.4478 12.4715 73.9769 12.4647 74.3634 12.6408ZM39.7277 14.6643C39.5472 14.8448 39.4413 15.0839 39.4413 15.3112C39.4413 15.5384 39.5472 15.7776 39.7277 15.9581C40.3064 16.5368 41.3079 16.1268 41.3079 15.3112C41.3079 14.8316 40.8542 14.3779 40.3746 14.3779C40.1474 14.3779 39.9082 14.4837 39.7277 14.6643ZM43.4609 14.6643C42.8822 15.2429 43.2922 16.2445 44.1078 16.2445C44.5874 16.2445 45.0411 15.7908 45.0411 15.3112C45.0411 14.8316 44.5874 14.3779 44.1078 14.3779C43.8806 14.3779 43.6414 14.4837 43.4609 14.6643ZM47.1941 14.6643C46.6154 15.2429 47.0254 16.2445 47.841 16.2445C48.3206 16.2445 48.7743 15.7908 48.7743 15.3112C48.7743 14.8316 48.3206 14.3779 47.841 14.3779C47.6138 14.3779 47.3746 14.4837 47.1941 14.6643ZM60.2275 14.6478C59.88 15.0179 59.8877 15.6561 60.2439 15.9908C60.5139 16.2445 60.5147 16.2445 66.4907 16.2445H72.4674L72.7537 15.9581C72.9343 15.7776 73.0401 15.5384 73.0401 15.3112C73.0401 15.0839 72.9343 14.8448 72.7537 14.6643L72.4674 14.3779H66.4743H60.4813L60.2275 14.6478ZM29.7706 16.5519C29.0983 16.8869 28.5509 17.5296 28.3522 18.2173C28.2705 18.5005 28.2425 24.2868 28.2657 36.0863L28.3001 53.5364L28.6531 54.1074C28.872 54.4614 29.2234 54.8128 29.5773 55.0316L30.1484 55.3847H56.2407H82.333L82.9041 55.0316C83.2581 54.8128 83.6095 54.4614 83.8283 54.1074L84.1813 53.5364V35.8437V18.1511L83.8283 17.58C83.6098 17.2266 83.2577 16.8743 82.9047 16.6558C82.3553 16.3157 82.2766 16.3014 80.767 16.2644C79.2744 16.2278 79.1862 16.2385 78.9197 16.4889C78.5411 16.8446 78.5364 17.5065 78.9098 17.8574C79.1505 18.0834 79.3088 18.1111 80.3626 18.1111C81.658 18.1111 82.0472 18.2234 82.2436 18.6544C82.3361 18.8576 82.3731 22.8162 82.3731 32.5243V46.11H56.2407H30.1084V32.5243C30.1084 22.8162 30.1453 18.8576 30.2379 18.6544C30.4347 18.2225 30.8237 18.1111 32.1351 18.1111C33.2377 18.1111 33.3546 18.0894 33.5879 17.8411C33.9355 17.4711 33.9278 16.8328 33.5716 16.4981C33.324 16.2657 33.18 16.2445 31.8445 16.2445C30.5043 16.2445 30.3381 16.2691 29.7706 16.5519ZM58.3568 24.0083C58.0636 24.3812 52.5075 41.0172 52.5075 41.5225C52.5075 42.2943 53.6468 42.6867 54.1246 42.0793C54.4135 41.712 59.9739 25.0743 59.9739 24.577C59.9739 23.7791 58.8485 23.3834 58.3568 24.0083ZM48.1858 27.649C48.0226 27.7608 46.6442 28.8943 45.1228 30.1676C42.3308 32.5046 42.1353 32.7224 42.2866 33.3256C42.3638 33.6332 48.1685 38.5495 48.6227 38.6918C49.2386 38.885 50.0027 38.0197 49.735 37.4322C49.668 37.2851 48.5087 36.2507 47.1589 35.1334C45.809 34.0162 44.7044 33.0759 44.7042 33.0438C44.704 33.0118 45.7552 32.1193 47.0404 31.0606C48.3255 30.0019 49.4513 29.0321 49.5423 28.9055C50.168 28.0348 49.0858 27.0323 48.1858 27.649ZM63.0274 27.714C62.8622 27.8899 62.7738 28.1332 62.7738 28.4118C62.7738 28.8265 62.8496 28.9023 65.2749 30.9125C66.6505 32.0527 67.7762 33.0118 67.7764 33.0438C67.7766 33.0759 66.6731 34.0156 65.324 35.1322C63.9751 36.2487 62.8244 37.2854 62.7671 37.4363C62.5623 37.9749 63.0902 38.6825 63.6969 38.6825C63.9645 38.6825 64.6592 38.1613 67.0789 36.145C70.1544 33.582 70.3479 33.3722 70.1957 32.7658C70.1511 32.5878 69.0464 31.5825 67.1206 29.9677C64.4418 27.7212 64.0702 27.4473 63.6982 27.4458C63.4115 27.4446 63.2018 27.5285 63.0274 27.714ZM82.3731 50.3627C82.3731 52.9001 82.3158 53.2255 81.8298 53.4469C81.4247 53.6315 31.0567 53.6315 30.6517 53.4469C30.1656 53.2255 30.1084 52.9001 30.1084 50.3627V47.9766H56.2407H82.3731V50.3627ZM53.7272 50.1296C53.5466 50.3101 53.4408 50.5492 53.4408 50.7765C53.4408 51.0038 53.5466 51.2429 53.7272 51.4234C54.0118 51.7079 54.028 51.7098 56.299 51.7098C58.5701 51.7098 58.5863 51.7079 58.8709 51.4234C59.0515 51.2429 59.1573 51.0038 59.1573 50.7765C59.1573 50.5492 59.0515 50.3101 58.8709 50.1296C58.5863 49.8451 58.5701 49.8432 56.299 49.8432C54.028 49.8432 54.0118 49.8451 53.7272 50.1296ZM50.5066 57.3125C50.4006 57.3743 50.1443 57.7271 49.9369 58.0965C49.4402 58.9809 48.5214 60.1313 47.9176 60.6246C47.4483 61.0079 47.3949 61.0219 46.2564 61.0609C45.1872 61.0975 45.0283 61.1332 44.5096 61.4541C44.1569 61.6724 43.8042 62.0252 43.5859 62.3778C43.2464 62.9264 43.2315 63.0075 43.1947 64.5001C43.1572 66.0284 43.1611 66.0565 43.452 66.3473L43.7472 66.6426H56.2407H68.7342L69.0295 66.3473C69.3203 66.0565 69.3243 66.0284 69.2867 64.5001C69.25 63.0075 69.235 62.9264 68.8955 62.3778C68.6773 62.0252 68.3245 61.6724 67.9718 61.4541C67.4531 61.1332 67.2942 61.0975 66.225 61.0609C65.0865 61.0219 65.0331 61.0079 64.5639 60.6246C63.9578 60.1294 63.0407 58.9801 62.5391 58.0869C62.3288 57.7123 62.037 57.3512 61.8905 57.2846C61.3044 57.0176 60.557 57.5058 60.5576 58.1554C60.5578 58.5623 61.1216 59.5951 61.7943 60.4207C62.0122 60.6883 62.1905 60.9376 62.1905 60.9749C62.1905 61.0122 59.5131 61.0428 56.2407 61.0428C52.9683 61.0428 50.2909 61.0122 50.2909 60.9749C50.2909 60.9376 50.4692 60.6883 50.6871 60.4207C50.9049 60.1534 51.2723 59.6195 51.5034 59.2345C52.0847 58.2662 52.0678 57.6835 51.4492 57.3636C51.0701 57.1676 50.7816 57.152 50.5066 57.3125ZM66.897 63.0389C67.2623 63.2054 67.4403 63.6042 67.4403 64.2565V64.776H56.2407H45.0411V64.2565C45.0411 63.6257 45.2172 63.2071 45.5502 63.0459C45.9125 62.8704 66.5126 62.8638 66.897 63.0389Z"></path></mask><path fill-rule="evenodd" clip-rule="evenodd" d="M37.2466 10.9473C36.5983 11.2703 36.1793 11.726 35.8868 12.4263C35.7294 12.8028 35.7081 14.6959 35.7081 28.3068V43.7599L36.0156 44.0016C36.4301 44.3276 36.9998 44.3154 37.3211 43.9735L37.5747 43.7034V31.8406V19.9777H56.2407H74.9067V31.8569V43.7361L75.1766 43.9898C75.5474 44.338 76.1849 44.3296 76.5209 43.9721L76.7758 43.7007L76.7454 28.1259L76.7149 12.5513L76.3619 11.9802C76.1431 11.6263 75.7917 11.2749 75.4377 11.056L74.8667 10.703L56.3624 10.6728L37.8581 10.6426L37.2466 10.9473ZM74.3634 12.6408C74.8494 12.8622 74.9067 13.1876 74.9067 15.725V18.1111H56.2407H37.5747V15.725C37.5747 13.2272 37.6346 12.8652 38.0839 12.6478C38.4478 12.4715 73.9769 12.4647 74.3634 12.6408ZM39.7277 14.6643C39.5472 14.8448 39.4413 15.0839 39.4413 15.3112C39.4413 15.5384 39.5472 15.7776 39.7277 15.9581C40.3064 16.5368 41.3079 16.1268 41.3079 15.3112C41.3079 14.8316 40.8542 14.3779 40.3746 14.3779C40.1474 14.3779 39.9082 14.4837 39.7277 14.6643ZM43.4609 14.6643C42.8822 15.2429 43.2922 16.2445 44.1078 16.2445C44.5874 16.2445 45.0411 15.7908 45.0411 15.3112C45.0411 14.8316 44.5874 14.3779 44.1078 14.3779C43.8806 14.3779 43.6414 14.4837 43.4609 14.6643ZM47.1941 14.6643C46.6154 15.2429 47.0254 16.2445 47.841 16.2445C48.3206 16.2445 48.7743 15.7908 48.7743 15.3112C48.7743 14.8316 48.3206 14.3779 47.841 14.3779C47.6138 14.3779 47.3746 14.4837 47.1941 14.6643ZM60.2275 14.6478C59.88 15.0179 59.8877 15.6561 60.2439 15.9908C60.5139 16.2445 60.5147 16.2445 66.4907 16.2445H72.4674L72.7537 15.9581C72.9343 15.7776 73.0401 15.5384 73.0401 15.3112C73.0401 15.0839 72.9343 14.8448 72.7537 14.6643L72.4674 14.3779H66.4743H60.4813L60.2275 14.6478ZM29.7706 16.5519C29.0983 16.8869 28.5509 17.5296 28.3522 18.2173C28.2705 18.5005 28.2425 24.2868 28.2657 36.0863L28.3001 53.5364L28.6531 54.1074C28.872 54.4614 29.2234 54.8128 29.5773 55.0316L30.1484 55.3847H56.2407H82.333L82.9041 55.0316C83.2581 54.8128 83.6095 54.4614 83.8283 54.1074L84.1813 53.5364V35.8437V18.1511L83.8283 17.58C83.6098 17.2266 83.2577 16.8743 82.9047 16.6558C82.3553 16.3157 82.2766 16.3014 80.767 16.2644C79.2744 16.2278 79.1862 16.2385 78.9197 16.4889C78.5411 16.8446 78.5364 17.5065 78.9098 17.8574C79.1505 18.0834 79.3088 18.1111 80.3626 18.1111C81.658 18.1111 82.0472 18.2234 82.2436 18.6544C82.3361 18.8576 82.3731 22.8162 82.3731 32.5243V46.11H56.2407H30.1084V32.5243C30.1084 22.8162 30.1453 18.8576 30.2379 18.6544C30.4347 18.2225 30.8237 18.1111 32.1351 18.1111C33.2377 18.1111 33.3546 18.0894 33.5879 17.8411C33.9355 17.4711 33.9278 16.8328 33.5716 16.4981C33.324 16.2657 33.18 16.2445 31.8445 16.2445C30.5043 16.2445 30.3381 16.2691 29.7706 16.5519ZM58.3568 24.0083C58.0636 24.3812 52.5075 41.0172 52.5075 41.5225C52.5075 42.2943 53.6468 42.6867 54.1246 42.0793C54.4135 41.712 59.9739 25.0743 59.9739 24.577C59.9739 23.7791 58.8485 23.3834 58.3568 24.0083ZM48.1858 27.649C48.0226 27.7608 46.6442 28.8943 45.1228 30.1676C42.3308 32.5046 42.1353 32.7224 42.2866 33.3256C42.3638 33.6332 48.1685 38.5495 48.6227 38.6918C49.2386 38.885 50.0027 38.0197 49.735 37.4322C49.668 37.2851 48.5087 36.2507 47.1589 35.1334C45.809 34.0162 44.7044 33.0759 44.7042 33.0438C44.704 33.0118 45.7552 32.1193 47.0404 31.0606C48.3255 30.0019 49.4513 29.0321 49.5423 28.9055C50.168 28.0348 49.0858 27.0323 48.1858 27.649ZM63.0274 27.714C62.8622 27.8899 62.7738 28.1332 62.7738 28.4118C62.7738 28.8265 62.8496 28.9023 65.2749 30.9125C66.6505 32.0527 67.7762 33.0118 67.7764 33.0438C67.7766 33.0759 66.6731 34.0156 65.324 35.1322C63.9751 36.2487 62.8244 37.2854 62.7671 37.4363C62.5623 37.9749 63.0902 38.6825 63.6969 38.6825C63.9645 38.6825 64.6592 38.1613 67.0789 36.145C70.1544 33.582 70.3479 33.3722 70.1957 32.7658C70.1511 32.5878 69.0464 31.5825 67.1206 29.9677C64.4418 27.7212 64.0702 27.4473 63.6982 27.4458C63.4115 27.4446 63.2018 27.5285 63.0274 27.714ZM82.3731 50.3627C82.3731 52.9001 82.3158 53.2255 81.8298 53.4469C81.4247 53.6315 31.0567 53.6315 30.6517 53.4469C30.1656 53.2255 30.1084 52.9001 30.1084 50.3627V47.9766H56.2407H82.3731V50.3627ZM53.7272 50.1296C53.5466 50.3101 53.4408 50.5492 53.4408 50.7765C53.4408 51.0038 53.5466 51.2429 53.7272 51.4234C54.0118 51.7079 54.028 51.7098 56.299 51.7098C58.5701 51.7098 58.5863 51.7079 58.8709 51.4234C59.0515 51.2429 59.1573 51.0038 59.1573 50.7765C59.1573 50.5492 59.0515 50.3101 58.8709 50.1296C58.5863 49.8451 58.5701 49.8432 56.299 49.8432C54.028 49.8432 54.0118 49.8451 53.7272 50.1296ZM50.5066 57.3125C50.4006 57.3743 50.1443 57.7271 49.9369 58.0965C49.4402 58.9809 48.5214 60.1313 47.9176 60.6246C47.4483 61.0079 47.3949 61.0219 46.2564 61.0609C45.1872 61.0975 45.0283 61.1332 44.5096 61.4541C44.1569 61.6724 43.8042 62.0252 43.5859 62.3778C43.2464 62.9264 43.2315 63.0075 43.1947 64.5001C43.1572 66.0284 43.1611 66.0565 43.452 66.3473L43.7472 66.6426H56.2407H68.7342L69.0295 66.3473C69.3203 66.0565 69.3243 66.0284 69.2867 64.5001C69.25 63.0075 69.235 62.9264 68.8955 62.3778C68.6773 62.0252 68.3245 61.6724 67.9718 61.4541C67.4531 61.1332 67.2942 61.0975 66.225 61.0609C65.0865 61.0219 65.0331 61.0079 64.5639 60.6246C63.9578 60.1294 63.0407 58.9801 62.5391 58.0869C62.3288 57.7123 62.037 57.3512 61.8905 57.2846C61.3044 57.0176 60.557 57.5058 60.5576 58.1554C60.5578 58.5623 61.1216 59.5951 61.7943 60.4207C62.0122 60.6883 62.1905 60.9376 62.1905 60.9749C62.1905 61.0122 59.5131 61.0428 56.2407 61.0428C52.9683 61.0428 50.2909 61.0122 50.2909 60.9749C50.2909 60.9376 50.4692 60.6883 50.6871 60.4207C50.9049 60.1534 51.2723 59.6195 51.5034 59.2345C52.0847 58.2662 52.0678 57.6835 51.4492 57.3636C51.0701 57.1676 50.7816 57.152 50.5066 57.3125ZM66.897 63.0389C67.2623 63.2054 67.4403 63.6042 67.4403 64.2565V64.776H56.2407H45.0411V64.2565C45.0411 63.6257 45.2172 63.2071 45.5502 63.0459C45.9125 62.8704 66.5126 62.8638 66.897 63.0389Z" fill="#1742E7" stroke="#1742E7" stroke-width="0.56" mask="url(#path-1-inside-1_9894_10981)"></path></svg>