<svg xmlns="http://www.w3.org/2000/svg" viewBox="0 0 61 60" fill="none"><path d="M25.1395 0.117344C24.6122 0.257969 23.8504 0.961094 23.5692 1.54703C23.3465 2.00406 23.3231 2.26188 23.3231 4.21891V6.37516L22.3622 6.70328C21.8231 6.89078 20.9911 7.24234 20.5106 7.48844L19.6317 7.93375L18.1083 6.43375C16.7606 5.10953 16.5145 4.91031 15.952 4.74625C15.1551 4.51188 14.8504 4.51188 14.0653 4.74625C13.4911 4.92203 13.2333 5.13297 11.1122 7.23063C8.48716 9.82047 8.20591 10.2306 8.20591 11.4025C8.21763 12.4689 8.48716 12.9259 10.0692 14.5548L11.4872 16.008L11.0301 17.0158C10.7723 17.5666 10.4559 18.3869 10.3036 18.8322L10.0458 19.6642L5.41685 19.7345L4.91294 20.0861C4.63169 20.2853 4.24497 20.672 4.04575 20.9533L3.69419 21.4572L3.65903 25.1017C3.6356 28.1838 3.65903 28.8283 3.81138 29.2384C4.1395 30.0939 5.03013 30.797 6.0145 30.9728L6.4481 31.0548V30.047C6.4481 29.1095 6.43638 29.0392 6.17857 28.9455C5.59263 28.7228 5.56919 28.6056 5.53403 25.7814C5.48716 22.8283 5.54575 22.2189 5.87388 21.8908C6.08482 21.6798 6.28403 21.6681 8.83872 21.6681H11.5809L11.7215 21.047C12.0731 19.5822 12.9872 17.4025 13.7958 16.1252L14.0887 15.6681L12.1434 13.7111C10.5379 12.0822 10.1981 11.6955 10.1981 11.4142C10.1981 11.133 10.5614 10.7111 12.4012 8.87125C13.6083 7.6525 14.7098 6.63297 14.8504 6.59781C15.2606 6.49234 15.5536 6.72672 17.4754 8.62516L19.3036 10.4298L19.9247 10.0666C21.3075 9.25797 22.9364 8.56656 24.5301 8.12125L25.1981 7.94547V5.51969C25.1981 2.98844 25.2918 2.29703 25.6668 2.09781C25.9598 1.94547 31.9364 1.94547 32.2293 2.09781C32.6043 2.29703 32.6981 2.98844 32.6981 5.51969V7.94547L33.3778 8.12125C34.9598 8.56656 36.5887 9.25797 37.9715 10.0666L38.5926 10.4298L40.4208 8.62516C42.3426 6.72672 42.6356 6.49234 43.0458 6.59781C43.1864 6.63297 44.2879 7.6525 45.5067 8.87125C47.3348 10.7111 47.6981 11.133 47.6981 11.4142C47.6981 11.6955 47.3583 12.0822 45.7528 13.6994L43.8075 15.6564L44.1708 16.2423C44.827 17.297 45.5653 19.008 45.9637 20.3439L46.3504 21.6681H49.0809C51.6122 21.6681 51.8114 21.6798 52.0223 21.8908C52.3504 22.2189 52.409 22.8283 52.3622 25.7814C52.327 28.6056 52.3036 28.7228 51.7176 28.9455C51.4598 29.0392 51.4481 29.1095 51.4481 30.047V31.0548L51.8934 30.9728C52.8426 30.797 53.6512 30.1877 54.0379 29.3439C54.2372 28.922 54.2606 28.5119 54.2606 25.3127C54.2606 21.9259 54.2489 21.715 54.0145 21.2345C53.7215 20.6134 53.0067 19.9923 52.3973 19.8166C52.1278 19.7345 51.12 19.6759 49.9012 19.6759H47.8622L47.6512 18.9963C47.534 18.633 47.2059 17.8009 46.9247 17.1681L46.409 16.008L47.827 14.5548C49.409 12.9259 49.6786 12.4689 49.6903 11.4025C49.6903 10.2306 49.409 9.82047 46.784 7.23063C44.6629 5.13297 44.4051 4.92203 43.8309 4.74625C43.0458 4.51188 42.7411 4.51188 41.9442 4.74625C41.3817 4.91031 41.1356 5.10953 39.7879 6.42203L38.2645 7.92203L37.3856 7.47672C36.9051 7.24234 36.0731 6.89078 35.5458 6.70328L34.5731 6.37516V4.21891C34.5731 2.26188 34.5497 2.00406 34.327 1.54703C34.034 0.925938 33.3192 0.304844 32.7098 0.129063C32.1708 -0.0349994 25.6903 -0.0467182 25.1395 0.117344Z" fill="#1742E7"></path><path d="M26.5692 12.3517C21.1903 13.3713 17.0184 17.5197 15.9989 22.8752C15.9051 23.3791 15.8231 24.1642 15.8231 24.6213V25.4298L17.7567 25.3595L17.8387 24.3517C18.1903 19.7345 21.5536 15.7502 26.159 14.4963C27.5653 14.1095 30.3309 14.1095 31.7372 14.4963C36.3426 15.7502 39.7059 19.7345 40.0575 24.3517L40.1395 25.3595L42.0731 25.4298V24.6213C42.0731 21.7267 40.5614 18.2814 38.2762 16.008C36.7059 14.4377 34.4208 13.1252 32.2879 12.5744C30.7997 12.1877 28.0223 12.0822 26.5692 12.3517Z" fill="#1742E7"></path><path d="M27.3075 21.7736C25.6786 22.3009 24.5418 23.2853 23.8153 24.797C23.4286 25.6291 23.3817 25.8166 23.3465 26.8947C23.2762 28.7697 23.745 30.0119 24.9872 31.2541C27.0497 33.3166 30.6004 33.3986 32.7098 31.4298C34.0926 30.1525 34.6317 28.8048 34.5497 26.8595C34.5145 25.8283 34.4676 25.6173 34.0692 24.797C33.0965 22.7345 31.1864 21.5392 28.9012 21.5627C28.327 21.5627 27.6942 21.6447 27.3075 21.7736ZM30.495 23.8713C32.3348 24.7736 33.12 27.0002 32.2293 28.7931C30.8465 31.5353 27.0497 31.5353 25.6668 28.7931C24.7176 26.8713 25.6786 24.5041 27.7411 23.7189C28.4208 23.4611 29.8153 23.5431 30.495 23.8713Z" fill="#1742E7"></path><path d="M11.37 25.5236C9.74107 26.0509 8.60435 27.0353 7.87778 28.547C7.49107 29.3791 7.44419 29.5666 7.40903 30.6447C7.33872 32.5197 7.80747 33.7619 9.04966 35.0041C11.1122 37.0666 14.6629 37.1486 16.7723 35.1798C18.1551 33.9025 18.6942 32.5548 18.6122 30.6095C18.577 29.5783 18.5301 29.3673 18.1317 28.547C17.159 26.4845 15.2489 25.2892 12.9637 25.3127C12.3895 25.3127 11.7567 25.3947 11.37 25.5236ZM14.5575 27.6213C16.3973 28.5236 17.1825 30.7502 16.2918 32.5431C14.909 35.2853 11.1122 35.2853 9.72935 32.5431C8.78013 30.6213 9.74107 28.2541 11.8036 27.4689C12.4833 27.2111 13.8778 27.2931 14.5575 27.6213Z" fill="#1742E7"></path><path d="M43.245 25.5236C41.6161 26.0509 40.4793 27.0353 39.7528 28.547C39.3661 29.3791 39.3192 29.5666 39.284 30.6447C39.2137 32.5197 39.6825 33.7619 40.9247 35.0041C42.9872 37.0666 46.5379 37.1486 48.6473 35.1798C50.0301 33.9025 50.5692 32.5548 50.4872 30.6095C50.452 29.5783 50.4051 29.3673 50.0067 28.547C49.034 26.4845 47.1239 25.2892 44.8387 25.3127C44.2645 25.3127 43.6317 25.3947 43.245 25.5236ZM46.4325 27.6213C48.2723 28.5236 49.0575 30.7502 48.1668 32.5431C46.784 35.2853 42.9872 35.2853 41.6043 32.5431C40.6551 30.6213 41.6161 28.2541 43.6786 27.4689C44.3582 27.2111 45.7528 27.2931 46.4325 27.6213Z" fill="#1742E7"></path><path d="M23.1122 33.9611C21.4129 34.383 19.7254 35.4611 18.6239 36.8205L18.0848 37.5002L13.1161 37.4884C8.49888 37.4884 8.077 37.5002 7.20982 37.7228C4.72544 38.3439 2.75669 39.9494 1.64341 42.2345C0.88169 43.8048 0.799659 44.3322 0.846534 48.0236C0.88169 51.047 0.905128 51.3048 1.15122 51.9611C1.702 53.4377 2.827 54.7384 4.22153 55.5119C5.60435 56.2736 5.62778 56.2853 11.4637 56.3322L16.7606 56.3673V54.3634H8.3231V44.0509H6.4481V54.2345L6.09653 54.1291C5.44028 53.9416 4.56138 53.3791 4.03403 52.8166C2.90903 51.6095 2.6395 50.4025 2.73325 47.0392C2.78013 45.3166 2.83872 44.7775 3.04966 44.1095C3.56528 42.4689 4.74888 41.0158 6.202 40.2541C7.61997 39.5158 7.87778 39.4806 12.7528 39.4806H17.1356L17.0653 39.7384C16.784 40.7462 16.7489 41.4728 16.784 46.9806L16.8192 52.8986L17.1356 53.5666C17.7684 54.9259 19.1161 55.9572 20.6161 56.2384C20.9559 56.297 21.9286 56.3556 22.7489 56.3556H24.2606V41.2384H22.3856V54.3634H21.8231C20.5575 54.3634 19.5965 53.8361 19.034 52.8166L18.6942 52.1955V41.1798L19.0223 40.2658C19.62 38.5666 20.7098 37.2541 22.1512 36.5041C23.5692 35.7541 23.7918 35.7306 28.9481 35.7306C34.0458 35.7306 34.2918 35.7541 35.6512 36.4455C36.5067 36.8791 37.6083 37.8869 38.159 38.7423C38.3817 39.0705 38.6981 39.7619 38.8739 40.2658L39.202 41.1798V52.1955L38.8622 52.8166C38.2997 53.8361 37.3387 54.3634 36.0731 54.3634H35.5106V41.2384H33.6356V56.3556H35.1473C35.9676 56.3556 36.9403 56.297 37.2801 56.2384C38.7801 55.9572 40.1278 54.9259 40.7606 53.5666L41.077 52.8986L41.1122 46.9572C41.1356 41.9181 41.1122 40.9103 40.9598 40.3127C40.8661 39.9377 40.784 39.5861 40.784 39.5509C40.784 39.5158 42.7528 39.4806 45.1551 39.4806C49.9481 39.4806 50.2293 39.5158 51.5887 40.1955C52.4442 40.6291 53.5458 41.6369 54.0965 42.4923C54.3192 42.8205 54.6239 43.5119 54.7997 44.0158C55.0692 44.8244 55.1161 45.1642 55.1629 47.0392C55.2567 50.4142 54.9872 51.6212 53.8622 52.8166C53.3348 53.3791 52.4559 53.9416 51.7997 54.1291L51.4481 54.2345V44.0509H49.5731V54.3634H41.1356V56.3673L46.4442 56.3322C51.1317 56.2853 51.8114 56.2619 52.3856 56.0744C54.5067 55.3947 56.1473 53.7775 56.7801 51.7619C57.0614 50.8712 57.0731 50.7072 57.0731 47.7541C57.0731 45.0705 57.0379 44.5548 56.8387 43.7697C56.0887 40.8166 53.7098 38.4845 50.6864 37.7228C49.8192 37.5002 49.3973 37.4884 44.7801 37.4884L39.8114 37.5002L39.1786 36.7267C38.0536 35.3673 36.5653 34.4416 34.7606 33.9728C33.8934 33.7502 33.4833 33.7384 28.9012 33.7502C24.577 33.7502 23.8622 33.7853 23.1122 33.9611Z" fill="#1742E7"></path><path d="M25.1981 56.3556H32.6981V54.3634H25.1981V56.3556Z" fill="#1742E7"></path></svg>