<svg xmlns="http://www.w3.org/2000/svg" viewBox="0 0 112 77" fill="none"><mask id="path-1-inside-1_9894_10955" fill="white"><path fill-rule="evenodd" clip-rule="evenodd" d="M30.389 10.2779C29.4935 10.5346 28.517 11.5585 28.3091 12.4588C28.2362 12.7745 28.1975 21.6343 28.1957 38.3931C28.1932 63.2496 28.198 63.8575 28.4026 64.2579C28.6795 64.7999 29.3682 65.4981 29.9777 65.8548L30.4696 66.1426L44.3622 66.1082C54.9799 66.0819 58.348 66.0422 58.6505 65.9395C59.1094 65.7838 60.0459 64.841 60.3682 64.2103C60.5794 63.7968 60.591 63.5388 60.6266 58.4594C60.6472 55.5343 60.6957 53.1096 60.7345 53.0709C60.8261 52.9796 63.4816 54.3124 64.0859 54.7531C64.3503 54.9459 64.8139 55.4908 65.1607 56.0167C66.7352 58.4037 68.9673 59.381 71.4007 58.7489C72.4198 58.4842 77.488 55.8028 77.6932 55.4197C77.9672 54.9087 77.5856 54.2166 77.0298 54.2166C76.8394 54.2166 75.6638 54.7451 74.1163 55.5265C71.0119 57.0936 70.6842 57.214 69.7098 57.1444C68.359 57.0478 67.58 56.5326 66.6808 55.1409C65.5937 53.4582 65.4626 53.3738 58.6973 50.0025C51.8831 46.6068 51.3443 46.3127 51 45.8025C50.4331 44.9626 50.8836 43.5106 51.87 42.9982C52.5301 42.6553 52.9039 42.7694 55.7063 44.1693C58.5915 45.6107 58.6506 45.6252 59.1126 45.0055L59.3359 44.7061L58.431 42.8732C57.9334 41.8652 56.1923 38.4902 54.562 35.3732C51.3977 29.3236 51.0882 28.6755 51.0841 28.09C51.0799 27.4841 51.4854 26.788 52.0555 26.4222C52.4981 26.1382 52.6378 26.1037 53.1949 26.1412C53.7218 26.1767 53.8834 26.2386 54.1445 26.5046C54.5346 26.9023 55.3524 28.3702 58.2527 33.8782C61.1919 39.4601 61.8018 40.5733 62.0118 40.7397C62.4406 41.0795 63.3471 40.6879 63.3471 40.163C63.3471 40.0198 63.0021 39.2056 62.5805 38.3537C61.7258 36.6266 61.6653 36.2963 62.0603 35.5142C62.3763 34.8884 63.0288 34.509 63.7887 34.509C64.6769 34.509 64.9322 34.7388 65.7623 36.2857C66.5655 37.7824 67.0201 38.3614 67.3921 38.3614C67.6719 38.3614 68.2752 37.8059 68.2752 37.5483C68.2752 37.4527 67.9056 36.6376 67.4539 35.7371C66.9486 34.7298 66.6325 33.966 66.6325 33.7524C66.6325 32.865 67.6321 31.9712 68.6082 31.9858C69.5768 32.0005 69.6383 32.0681 71.0658 34.6831C71.5592 35.5867 71.8027 35.8464 72.1568 35.8464C72.5459 35.8464 73.0117 35.4055 73.0117 35.0371C73.0117 34.8695 72.6606 34.0202 72.2314 33.15C71.3967 31.4573 71.305 31.0425 71.6405 30.4755C71.8888 30.0558 72.4802 29.6571 73.0965 29.4939C73.5333 29.3784 73.6511 29.3891 74.0939 29.5846C74.7358 29.8681 74.9295 30.137 76.163 32.4567C78.8505 37.5109 79.7329 39.5772 80.9285 43.6166C81.3212 44.9434 81.8248 46.4565 82.0477 46.9791C82.4134 47.8366 82.4531 48.0252 82.4551 48.9133C82.4572 49.8385 82.4338 49.9401 82.0658 50.6082C81.7828 51.1221 81.4718 51.4817 80.9433 51.9068C80.299 52.425 80.2122 52.539 80.2122 52.8686C80.2122 53.3161 80.6196 53.7792 81.0133 53.7792C81.5343 53.7792 82.8939 52.6408 83.4945 51.7016C84.0784 50.7886 84.292 49.9274 84.2402 48.6946C84.1994 47.7223 84.1431 47.4739 83.733 46.453C83.4793 45.8215 82.9999 44.37 82.6677 43.2273C81.5979 39.5484 80.8268 37.6557 78.7777 33.6781C76.534 29.3228 76.0925 28.6685 75.0147 28.1004C74.5218 27.8406 74.3456 27.8098 73.3676 27.8127C72.4387 27.8155 72.1994 27.8544 71.7915 28.0689C71.1247 28.4195 70.3252 29.193 70.0145 29.7883L69.7537 30.2879L69.1441 30.221C67.5679 30.048 65.9218 30.9195 65.2314 32.2927L65.0115 32.73L64.0424 32.7312C62.7334 32.7329 62.0987 32.9622 61.2613 33.7365L60.6092 34.3391L60.6082 23.4201L60.6071 12.501L60.287 11.9436C59.918 11.3012 59.003 10.4354 58.5588 10.3083C58.3916 10.2605 53.6462 10.2036 48.0136 10.1819L37.7724 10.1426L37.5824 10.4638C37.3457 10.8637 37.3434 11.0726 37.5712 11.4576L37.7502 11.7601L47.7414 11.8119L57.7326 11.8637L58.1319 12.11C58.3515 12.2456 58.5753 12.4387 58.6291 12.5392C58.683 12.6396 58.7629 13.3979 58.8068 14.2243L58.8866 15.7267H44.3445H29.8025L29.867 14.3636C29.9734 12.1152 30.1771 11.9195 32.514 11.822C33.7502 11.7705 33.9757 11.7324 34.1889 11.5386C34.5196 11.2382 34.5163 10.7014 34.1819 10.3877C33.9446 10.1652 33.8271 10.1507 32.3476 10.1599C31.478 10.1653 30.5968 10.2185 30.389 10.2779ZM58.857 24.274C58.857 28.0728 58.8383 31.1605 58.8153 31.1354C58.7924 31.1104 58.3779 30.3426 57.8942 29.4292L57.0148 27.7687L56.9742 25.0007C56.9288 21.889 56.8836 21.6724 56.1667 21.1264L55.7529 20.8113L44.3999 20.782L33.047 20.7527L32.5502 21.1893C31.8458 21.8084 31.807 22.0452 31.807 25.7291C31.807 29.0093 31.8482 29.3341 32.3311 29.8669C32.8625 30.4532 32.5082 30.4294 41.6085 30.4884L50.0411 30.5431L50.8733 32.1286C54.3181 38.692 56.2117 42.3513 56.1797 42.3831C56.1591 42.4037 55.5958 42.147 54.9279 41.8125C54.2599 41.4781 53.6416 41.2044 53.5539 41.2044C53.3331 41.2044 53.305 41.1386 53.1048 40.1563C52.7452 38.3913 51.8917 36.8522 50.5329 35.5184C49.5733 34.5764 48.4564 33.898 47.0538 33.4049C46.1508 33.0876 46.0088 33.0692 44.4559 33.069C43.2501 33.0689 42.6356 33.118 42.1453 33.2535C40.5408 33.6972 39.147 34.5378 37.9774 35.7672C36.1982 37.6373 35.4388 39.6883 35.5618 42.2915C35.6343 43.8244 35.8199 44.5637 36.4557 45.8516C37.5598 48.0881 39.6537 49.8005 42.1013 50.4685C43.0861 50.7373 45.692 50.7378 46.7009 50.4693C47.8155 50.1728 49.2978 49.3908 50.0708 48.6918L50.7576 48.0707L53.5205 49.4401C55.0401 50.1933 56.8625 51.0807 57.5702 51.4121L58.857 52.0145V53.6075V55.2007H44.3464H29.8358V36.2838V17.3669H44.3464H58.857V24.274ZM55.0984 22.5437C55.2126 22.6574 55.2907 25.0211 55.1802 25.0211C55.1349 25.0211 54.8719 24.8858 54.5956 24.7204C54.1365 24.4456 53.9986 24.4198 52.998 24.4205C51.9934 24.4212 51.8549 24.4477 51.3237 24.7409C50.1307 25.3992 49.3687 26.587 49.2526 27.9691L49.188 28.7389H41.3736H33.5592L33.56 26.3606C33.5604 25.0525 33.5921 23.6515 33.6303 23.247L33.6999 22.5117L35.3544 22.4724C38.5674 22.3959 55.0096 22.4553 55.0984 22.5437ZM46.1534 34.9908C46.4244 35.0541 47.0651 35.3039 47.577 35.546C48.8917 36.1676 50.1009 37.3743 50.727 38.6894C51.1737 39.6278 51.5507 40.887 51.4573 41.1295C51.4295 41.2019 51.1858 41.3782 50.9155 41.5214C50.2662 41.8653 49.5962 42.6061 49.2412 43.3722C48.8579 44.1996 48.8487 45.334 49.2176 46.2825L49.4702 46.9322L49.053 47.282C47.7819 48.3473 46.3947 48.8733 44.6749 48.9416C43.1814 49.001 42.3115 48.8162 41.0745 48.1768C39.7517 47.4929 38.6629 46.3701 38.0148 45.0218C37.4365 43.8185 37.2821 43.1661 37.2846 41.9371C37.2883 40.1897 37.7886 38.721 38.8216 37.4248C39.8648 36.1157 41.6166 35.0727 43.1256 34.862C43.892 34.7549 45.4228 34.8201 46.1534 34.9908ZM45.4808 40.8412L42.6552 43.6492L41.5629 42.5908C40.3344 41.4006 40.1122 41.3168 39.647 41.8689C39.1394 42.4712 39.2168 42.6267 40.823 44.2303C42.0962 45.5016 42.3279 45.6876 42.6379 45.6876C42.9534 45.6876 43.2575 45.4275 45.3538 43.364C48.2004 40.562 49.4388 39.2089 49.4388 38.9007C49.4388 38.5977 48.8621 38.0333 48.5525 38.0333C48.3773 38.0333 47.4939 38.8408 45.4808 40.8412ZM58.7995 60.3127C58.7544 62.2429 58.6747 63.7327 58.6123 63.8104C58.5527 63.8849 58.3245 64.0571 58.1055 64.1932L57.7071 64.4404L44.4559 64.4405C31.4226 64.4405 31.1976 64.4369 30.7697 64.2218C29.9332 63.8014 29.9025 63.6628 29.8532 60.097L29.8097 56.9503H44.3439H58.8781L58.7995 60.3127ZM41.2518 58.5741C40.8274 58.6961 40.2253 59.2549 40.0114 59.7252C39.5548 60.7292 39.8612 61.9004 40.7598 62.5854L41.2568 62.9643L44.061 62.9595C45.6033 62.9569 47.0789 62.9136 47.3402 62.8632C48.3166 62.6748 49.1262 61.4126 48.9372 60.3732C48.8429 59.8546 48.5462 59.2549 48.2531 58.9901C47.7609 58.5457 47.323 58.4904 44.3464 58.4969C42.7803 58.5001 41.3877 58.5349 41.2518 58.5741ZM46.8652 60.3267C47.1413 60.3856 47.1937 60.449 47.1937 60.7238C47.1937 61.0499 47.1917 61.051 46.3724 61.1392C45.9206 61.1879 44.6998 61.2096 43.6595 61.1875C42.0557 61.1535 41.7394 61.119 41.5806 60.9603C41.3122 60.6923 41.5243 60.4113 42.0578 60.3282C42.6288 60.2393 46.45 60.2381 46.8652 60.3267Z"></path></mask><path fill-rule="evenodd" clip-rule="evenodd" d="M30.389 10.2779C29.4935 10.5346 28.517 11.5585 28.3091 12.4588C28.2362 12.7745 28.1975 21.6343 28.1957 38.3931C28.1932 63.2496 28.198 63.8575 28.4026 64.2579C28.6795 64.7999 29.3682 65.4981 29.9777 65.8548L30.4696 66.1426L44.3622 66.1082C54.9799 66.0819 58.348 66.0422 58.6505 65.9395C59.1094 65.7838 60.0459 64.841 60.3682 64.2103C60.5794 63.7968 60.591 63.5388 60.6266 58.4594C60.6472 55.5343 60.6957 53.1096 60.7345 53.0709C60.8261 52.9796 63.4816 54.3124 64.0859 54.7531C64.3503 54.9459 64.8139 55.4908 65.1607 56.0167C66.7352 58.4037 68.9673 59.381 71.4007 58.7489C72.4198 58.4842 77.488 55.8028 77.6932 55.4197C77.9672 54.9087 77.5856 54.2166 77.0298 54.2166C76.8394 54.2166 75.6638 54.7451 74.1163 55.5265C71.0119 57.0936 70.6842 57.214 69.7098 57.1444C68.359 57.0478 67.58 56.5326 66.6808 55.1409C65.5937 53.4582 65.4626 53.3738 58.6973 50.0025C51.8831 46.6068 51.3443 46.3127 51 45.8025C50.4331 44.9626 50.8836 43.5106 51.87 42.9982C52.5301 42.6553 52.9039 42.7694 55.7063 44.1693C58.5915 45.6107 58.6506 45.6252 59.1126 45.0055L59.3359 44.7061L58.431 42.8732C57.9334 41.8652 56.1923 38.4902 54.562 35.3732C51.3977 29.3236 51.0882 28.6755 51.0841 28.09C51.0799 27.4841 51.4854 26.788 52.0555 26.4222C52.4981 26.1382 52.6378 26.1037 53.1949 26.1412C53.7218 26.1767 53.8834 26.2386 54.1445 26.5046C54.5346 26.9023 55.3524 28.3702 58.2527 33.8782C61.1919 39.4601 61.8018 40.5733 62.0118 40.7397C62.4406 41.0795 63.3471 40.6879 63.3471 40.163C63.3471 40.0198 63.0021 39.2056 62.5805 38.3537C61.7258 36.6266 61.6653 36.2963 62.0603 35.5142C62.3763 34.8884 63.0288 34.509 63.7887 34.509C64.6769 34.509 64.9322 34.7388 65.7623 36.2857C66.5655 37.7824 67.0201 38.3614 67.3921 38.3614C67.6719 38.3614 68.2752 37.8059 68.2752 37.5483C68.2752 37.4527 67.9056 36.6376 67.4539 35.7371C66.9486 34.7298 66.6325 33.966 66.6325 33.7524C66.6325 32.865 67.6321 31.9712 68.6082 31.9858C69.5768 32.0005 69.6383 32.0681 71.0658 34.6831C71.5592 35.5867 71.8027 35.8464 72.1568 35.8464C72.5459 35.8464 73.0117 35.4055 73.0117 35.0371C73.0117 34.8695 72.6606 34.0202 72.2314 33.15C71.3967 31.4573 71.305 31.0425 71.6405 30.4755C71.8888 30.0558 72.4802 29.6571 73.0965 29.4939C73.5333 29.3784 73.6511 29.3891 74.0939 29.5846C74.7358 29.8681 74.9295 30.137 76.163 32.4567C78.8505 37.5109 79.7329 39.5772 80.9285 43.6166C81.3212 44.9434 81.8248 46.4565 82.0477 46.9791C82.4134 47.8366 82.4531 48.0252 82.4551 48.9133C82.4572 49.8385 82.4338 49.9401 82.0658 50.6082C81.7828 51.1221 81.4718 51.4817 80.9433 51.9068C80.299 52.425 80.2122 52.539 80.2122 52.8686C80.2122 53.3161 80.6196 53.7792 81.0133 53.7792C81.5343 53.7792 82.8939 52.6408 83.4945 51.7016C84.0784 50.7886 84.292 49.9274 84.2402 48.6946C84.1994 47.7223 84.1431 47.4739 83.733 46.453C83.4793 45.8215 82.9999 44.37 82.6677 43.2273C81.5979 39.5484 80.8268 37.6557 78.7777 33.6781C76.534 29.3228 76.0925 28.6685 75.0147 28.1004C74.5218 27.8406 74.3456 27.8098 73.3676 27.8127C72.4387 27.8155 72.1994 27.8544 71.7915 28.0689C71.1247 28.4195 70.3252 29.193 70.0145 29.7883L69.7537 30.2879L69.1441 30.221C67.5679 30.048 65.9218 30.9195 65.2314 32.2927L65.0115 32.73L64.0424 32.7312C62.7334 32.7329 62.0987 32.9622 61.2613 33.7365L60.6092 34.3391L60.6082 23.4201L60.6071 12.501L60.287 11.9436C59.918 11.3012 59.003 10.4354 58.5588 10.3083C58.3916 10.2605 53.6462 10.2036 48.0136 10.1819L37.7724 10.1426L37.5824 10.4638C37.3457 10.8637 37.3434 11.0726 37.5712 11.4576L37.7502 11.7601L47.7414 11.8119L57.7326 11.8637L58.1319 12.11C58.3515 12.2456 58.5753 12.4387 58.6291 12.5392C58.683 12.6396 58.7629 13.3979 58.8068 14.2243L58.8866 15.7267H44.3445H29.8025L29.867 14.3636C29.9734 12.1152 30.1771 11.9195 32.514 11.822C33.7502 11.7705 33.9757 11.7324 34.1889 11.5386C34.5196 11.2382 34.5163 10.7014 34.1819 10.3877C33.9446 10.1652 33.8271 10.1507 32.3476 10.1599C31.478 10.1653 30.5968 10.2185 30.389 10.2779ZM58.857 24.274C58.857 28.0728 58.8383 31.1605 58.8153 31.1354C58.7924 31.1104 58.3779 30.3426 57.8942 29.4292L57.0148 27.7687L56.9742 25.0007C56.9288 21.889 56.8836 21.6724 56.1667 21.1264L55.7529 20.8113L44.3999 20.782L33.047 20.7527L32.5502 21.1893C31.8458 21.8084 31.807 22.0452 31.807 25.7291C31.807 29.0093 31.8482 29.3341 32.3311 29.8669C32.8625 30.4532 32.5082 30.4294 41.6085 30.4884L50.0411 30.5431L50.8733 32.1286C54.3181 38.692 56.2117 42.3513 56.1797 42.3831C56.1591 42.4037 55.5958 42.147 54.9279 41.8125C54.2599 41.4781 53.6416 41.2044 53.5539 41.2044C53.3331 41.2044 53.305 41.1386 53.1048 40.1563C52.7452 38.3913 51.8917 36.8522 50.5329 35.5184C49.5733 34.5764 48.4564 33.898 47.0538 33.4049C46.1508 33.0876 46.0088 33.0692 44.4559 33.069C43.2501 33.0689 42.6356 33.118 42.1453 33.2535C40.5408 33.6972 39.147 34.5378 37.9774 35.7672C36.1982 37.6373 35.4388 39.6883 35.5618 42.2915C35.6343 43.8244 35.8199 44.5637 36.4557 45.8516C37.5598 48.0881 39.6537 49.8005 42.1013 50.4685C43.0861 50.7373 45.692 50.7378 46.7009 50.4693C47.8155 50.1728 49.2978 49.3908 50.0708 48.6918L50.7576 48.0707L53.5205 49.4401C55.0401 50.1933 56.8625 51.0807 57.5702 51.4121L58.857 52.0145V53.6075V55.2007H44.3464H29.8358V36.2838V17.3669H44.3464H58.857V24.274ZM55.0984 22.5437C55.2126 22.6574 55.2907 25.0211 55.1802 25.0211C55.1349 25.0211 54.8719 24.8858 54.5956 24.7204C54.1365 24.4456 53.9986 24.4198 52.998 24.4205C51.9934 24.4212 51.8549 24.4477 51.3237 24.7409C50.1307 25.3992 49.3687 26.587 49.2526 27.9691L49.188 28.7389H41.3736H33.5592L33.56 26.3606C33.5604 25.0525 33.5921 23.6515 33.6303 23.247L33.6999 22.5117L35.3544 22.4724C38.5674 22.3959 55.0096 22.4553 55.0984 22.5437ZM46.1534 34.9908C46.4244 35.0541 47.0651 35.3039 47.577 35.546C48.8917 36.1676 50.1009 37.3743 50.727 38.6894C51.1737 39.6278 51.5507 40.887 51.4573 41.1295C51.4295 41.2019 51.1858 41.3782 50.9155 41.5214C50.2662 41.8653 49.5962 42.6061 49.2412 43.3722C48.8579 44.1996 48.8487 45.334 49.2176 46.2825L49.4702 46.9322L49.053 47.282C47.7819 48.3473 46.3947 48.8733 44.6749 48.9416C43.1814 49.001 42.3115 48.8162 41.0745 48.1768C39.7517 47.4929 38.6629 46.3701 38.0148 45.0218C37.4365 43.8185 37.2821 43.1661 37.2846 41.9371C37.2883 40.1897 37.7886 38.721 38.8216 37.4248C39.8648 36.1157 41.6166 35.0727 43.1256 34.862C43.892 34.7549 45.4228 34.8201 46.1534 34.9908ZM45.4808 40.8412L42.6552 43.6492L41.5629 42.5908C40.3344 41.4006 40.1122 41.3168 39.647 41.8689C39.1394 42.4712 39.2168 42.6267 40.823 44.2303C42.0962 45.5016 42.3279 45.6876 42.6379 45.6876C42.9534 45.6876 43.2575 45.4275 45.3538 43.364C48.2004 40.562 49.4388 39.2089 49.4388 38.9007C49.4388 38.5977 48.8621 38.0333 48.5525 38.0333C48.3773 38.0333 47.4939 38.8408 45.4808 40.8412ZM58.7995 60.3127C58.7544 62.2429 58.6747 63.7327 58.6123 63.8104C58.5527 63.8849 58.3245 64.0571 58.1055 64.1932L57.7071 64.4404L44.4559 64.4405C31.4226 64.4405 31.1976 64.4369 30.7697 64.2218C29.9332 63.8014 29.9025 63.6628 29.8532 60.097L29.8097 56.9503H44.3439H58.8781L58.7995 60.3127ZM41.2518 58.5741C40.8274 58.6961 40.2253 59.2549 40.0114 59.7252C39.5548 60.7292 39.8612 61.9004 40.7598 62.5854L41.2568 62.9643L44.061 62.9595C45.6033 62.9569 47.0789 62.9136 47.3402 62.8632C48.3166 62.6748 49.1262 61.4126 48.9372 60.3732C48.8429 59.8546 48.5462 59.2549 48.2531 58.9901C47.7609 58.5457 47.323 58.4904 44.3464 58.4969C42.7803 58.5001 41.3877 58.5349 41.2518 58.5741ZM46.8652 60.3267C47.1413 60.3856 47.1937 60.449 47.1937 60.7238C47.1937 61.0499 47.1917 61.051 46.3724 61.1392C45.9206 61.1879 44.6998 61.2096 43.6595 61.1875C42.0557 61.1535 41.7394 61.119 41.5806 60.9603C41.3122 60.6923 41.5243 60.4113 42.0578 60.3282C42.6288 60.2393 46.45 60.2381 46.8652 60.3267Z" fill="#1742E7" stroke="#1742E7" stroke-width="0.581284" mask="url(#path-1-inside-1_9894_10955)"></path></svg>