<svg xmlns="http://www.w3.org/2000/svg" viewBox="0 0 46 46" fill="none"><rect x="0.5" y="0.5" width="45" height="45" rx="3" fill="#2F69F2"></rect><path d="M22.083 20.5362C21.5858 20.5914 21.2268 21.061 21.2544 21.5858C21.3096 22.083 21.7516 22.4697 22.304 22.4144C22.8564 22.3592 23.4088 22.5249 23.7955 22.9116C24.2099 23.3259 24.3756 23.8784 24.3203 24.4308C24.2651 24.9832 24.6518 25.4252 25.149 25.4804C25.4528 25.508 25.729 25.3975 25.9224 25.2042C26.0605 25.0661 26.171 24.8451 26.1986 24.6518C26.3091 23.4917 25.9224 22.3868 25.1214 21.5858C24.348 20.8124 23.2431 20.4257 22.083 20.5362ZM21.7239 16.8073C21.1715 16.8625 20.8124 17.3321 20.8677 17.8293C20.8953 18.3541 21.3649 18.7132 21.8897 18.6855C23.6022 18.5198 25.2319 19.0999 26.4196 20.2876C27.5797 21.4477 28.1873 23.105 28.0216 24.8175C27.9664 25.3147 28.3254 25.7842 28.8502 25.8119C29.1541 25.8395 29.4027 25.7566 29.596 25.5633C29.7618 25.3975 29.8446 25.2042 29.8999 24.9832C30.1485 22.7459 29.3751 20.5362 27.773 18.9341C26.171 17.3321 23.9889 16.5863 21.7239 16.8073ZM21.3649 13.0784C20.8401 13.106 20.481 13.5756 20.5086 14.1004C20.5638 14.5976 21.0058 14.9843 21.5306 14.9567C24.348 14.6804 27.1101 15.6196 29.0988 17.6083C31.06 19.5694 32.0267 22.3592 31.7505 25.1766C31.7229 25.7014 32.1096 26.1433 32.6068 26.1986C32.9106 26.2262 33.1868 26.1157 33.3802 25.9223C33.5183 25.7842 33.6011 25.5909 33.6287 25.3423C33.9878 22.0001 32.8277 18.6855 30.4247 16.2825C27.994 13.8518 24.7347 12.747 21.3649 13.0784ZM18.216 24.0165C18.5199 23.7679 18.658 23.2983 18.4922 22.9116L17.0836 19.6799C16.9178 19.238 16.4206 19.017 16.0063 19.0999L12.968 19.818C12.5536 19.9009 12.2498 20.3152 12.2498 20.7571C12.2498 28.3254 18.4094 34.485 25.9776 34.485C26.4196 34.485 26.8339 34.1811 26.9168 33.7668L27.6349 30.7285C27.7178 30.3141 27.4968 29.817 27.0549 29.6512L23.8232 28.2425C23.4365 28.0768 22.9669 28.2149 22.7183 28.5187L21.3925 30.1208C19.2933 29.1264 17.6084 27.4415 16.614 25.3423L18.216 24.0165Z" fill="white"></path></svg>