<svg xmlns="http://www.w3.org/2000/svg" viewBox="0 0 112 77" fill="none"><path d="M79.4866 24.2553H53.2346C51.7851 20.7753 48.9649 18.0473 45.4391 16.7134V15.3426H60.8768C61.1318 15.3494 61.3787 15.2527 61.5613 15.075C61.7439 14.8974 61.8469 14.6532 61.8469 14.3982C61.8469 14.1432 61.7439 13.899 61.5613 13.7214C61.3787 13.5433 61.1318 13.447 60.8768 13.4538H44.495C43.9733 13.4538 43.5506 13.8765 43.5501 14.3978V16.1467C42.5819 15.9304 41.5934 15.8188 40.6013 15.8148H40.5757C35.9525 15.8116 31.6401 18.1435 29.1113 22.0139C26.5824 25.8842 26.179 30.7701 28.0387 35.0028C29.8982 39.2357 33.7695 42.243 38.3307 42.9985L38.3217 46.4979H37.5698C37.3197 46.4974 37.0791 46.5968 36.9019 46.774C36.7252 46.9507 36.6253 47.1909 36.6253 47.441L36.6074 58.3419C36.6069 58.8632 37.0283 59.2864 37.5495 59.2877L43.5849 59.2994C44.1061 59.2994 44.5284 58.8771 44.5288 58.3559V56.6523L53.8957 56.6527L51.1267 60.8653L48.1734 60.8649C47.1917 60.9373 46.3138 61.5031 45.8425 62.3675C45.3716 63.2318 45.3716 64.2761 45.8425 65.1405C46.3138 66.0044 47.1917 66.5702 48.1734 66.6426H74.3989C75.3806 66.5702 76.2584 66.0044 76.7298 65.1405C77.2011 64.2761 77.2011 63.2318 76.7298 62.3675C76.2585 61.5031 75.3806 60.9373 74.3989 60.8649H71.4451L68.6775 56.6523L79.4862 56.6527C80.4194 56.6514 81.3134 56.2799 81.9728 55.6197C82.6321 54.9599 83.0027 54.0654 83.0031 53.1323V27.7761C83.0027 26.8429 82.6325 25.9484 81.9728 25.2882C81.3135 24.6285 80.4195 24.257 79.4862 24.2557L79.4866 24.2553ZM48.9426 21.1747C51.5438 23.7799 52.7782 27.4511 52.2795 31.0983C51.7808 34.7461 49.6058 37.9508 46.4011 39.7618V37.7043C49.2244 35.7026 50.8201 32.389 50.6245 28.9333C50.4293 25.4775 48.4699 22.3654 45.4387 20.6951V18.7582C46.7434 19.3446 47.9307 20.1637 48.9426 21.1747ZM42.2237 21.4935L42.2493 21.5003C42.489 21.5497 42.7243 21.6122 42.9563 21.6828C43.0337 21.7058 43.1083 21.735 43.1843 21.7611C43.3066 21.8025 43.4267 21.8474 43.5459 21.8969V24.5404H43.5464C43.5396 24.7954 43.6363 25.0419 43.8139 25.2244C43.992 25.4075 44.2358 25.5105 44.4908 25.5105C44.7458 25.5105 44.99 25.4075 45.1676 25.2244C45.3457 25.0419 45.4419 24.7954 45.4352 24.5404V22.9448C45.5031 22.9929 45.567 23.0406 45.6308 23.0905C45.6947 23.1409 45.7518 23.1823 45.8098 23.2304C46.1885 23.5461 46.5384 23.8942 46.855 24.2715C46.904 24.33 46.9485 24.3925 46.9962 24.4527C47.1005 24.5886 47.1999 24.7194 47.2998 24.8598C47.3519 24.9358 47.401 25.014 47.4513 25.0914C47.5354 25.2218 47.6168 25.3549 47.6937 25.4903C47.7414 25.5739 47.7868 25.6585 47.8295 25.7439C47.8975 25.8797 47.9654 26.0214 48.0333 26.1635C48.0728 26.2503 48.112 26.3366 48.1488 26.4252C48.2114 26.5786 48.2662 26.7355 48.3197 26.8934C48.3467 26.973 48.3773 27.0517 48.402 27.1331C48.4695 27.3535 48.5271 27.5779 48.5752 27.8068C48.5801 27.827 48.586 27.8464 48.59 27.8666C48.6368 28.0955 48.6696 28.3289 48.6966 28.5637L41.5302 28.5641V21.3874C41.765 21.4144 41.9984 21.4472 42.2273 21.494L42.2237 21.4935ZM40.5822 30.4517L48.693 30.4521C48.4839 32.2586 47.6775 33.9433 46.4012 35.239V34.1192C46.4079 33.8642 46.3113 33.6173 46.1336 33.4347C45.9555 33.2521 45.7118 33.1491 45.4568 33.1491C45.2018 33.1491 44.9576 33.2521 44.7799 33.4347C44.6018 33.6173 44.5056 33.8642 44.5124 34.1192V36.6749C43.3103 37.3392 41.9588 37.6873 40.5854 37.6859C37.7746 37.6895 35.159 36.2486 33.6596 33.8708C32.1603 31.4927 31.9871 28.5114 33.2018 25.9764C34.4165 23.4413 36.8482 21.708 39.641 21.3865V29.5077C39.641 30.0293 40.0638 30.4521 40.5854 30.4521L40.5822 30.4517ZM28.7687 29.4879C28.7786 26.3614 30.0266 23.3657 32.2396 21.1572C34.4528 18.949 37.4507 17.7069 40.5771 17.7038H40.5996C41.5962 17.7087 42.5879 17.8391 43.5521 18.0923V19.8867C40.4108 18.9167 36.9942 19.5409 34.3993 21.5592C31.8044 23.5776 30.3584 26.7356 30.5257 30.0186C30.693 33.3017 32.4523 36.2963 35.2389 38.0404C38.0254 39.7844 41.4883 40.0583 44.514 38.7739V40.6228C43.2512 41.0757 41.9196 41.3087 40.578 41.3118H40.5591C37.4298 41.3001 34.4324 40.0494 32.223 37.8336C30.0135 35.6178 28.7715 32.617 28.7687 29.4879ZM40.5557 43.1999H40.5773C40.7023 43.1999 40.8228 43.1841 40.9465 43.181L40.9371 46.4978H40.2108L40.2198 43.1847C40.3322 43.1851 40.4424 43.1999 40.5557 43.1999ZM42.6478 57.4081L38.5018 57.4L38.5081 48.3857L42.6554 48.3951L42.6478 57.4081ZM75.1962 63.7537V63.7533C75.2394 64.2448 74.89 64.6842 74.4016 64.753H48.1738C47.7088 64.6446 47.3801 64.2304 47.3801 63.7533C47.3801 63.2757 47.7088 62.8615 48.1738 62.7531H74.3993C74.8881 62.8219 75.2371 63.2613 75.1944 63.7528L75.1962 63.7537ZM69.1833 60.8642H53.3875L56.1529 56.652H66.4144L69.1833 60.8642ZM81.1154 53.1316C81.1154 54.031 80.386 54.7604 79.4866 54.7604H44.5354L44.548 47.4542C44.5489 46.9325 44.1271 46.5088 43.6054 46.5079H42.8264L42.8359 42.9978C43.4025 42.907 43.9625 42.7802 44.5129 42.6178V44.4109C44.5129 44.9325 44.9356 45.3557 45.4573 45.3557H51.6226C52.134 45.3418 52.5419 44.9231 52.5419 44.4113C52.5419 43.8991 52.134 43.4804 51.6226 43.4669H46.4017V41.8807C49.2849 40.5405 51.6087 38.233 52.9681 35.3589C54.3281 32.4846 54.6385 29.2251 53.8456 26.1453H79.4862C80.3861 26.1453 81.115 26.8748 81.115 27.7742L81.1154 53.1316ZM64.8867 22.4506H69.1208C69.3713 22.4506 69.6115 22.3512 69.7887 22.174C69.9659 21.9968 70.0657 21.7566 70.0657 21.5057V11.5866C70.0657 11.0653 69.643 10.6426 69.1217 10.6426H64.8867C64.3654 10.6426 63.9423 11.0653 63.9418 11.5866V21.5057C63.9418 21.7566 64.0416 21.9968 64.2188 22.174C64.396 22.3512 64.6362 22.4506 64.8867 22.4506ZM65.8307 12.5314H68.176V20.5617H65.8307V12.5314ZM71.5728 12.4024C71.5732 11.8807 71.996 11.4584 72.5177 11.4584H84.6178C85.1296 11.4719 85.5371 11.891 85.5371 12.4028C85.5371 12.9146 85.1296 13.3333 84.6178 13.3472H72.5177C72.2672 13.3472 72.0266 13.2474 71.8498 13.0702C71.6726 12.893 71.5728 12.6529 71.5728 12.4024ZM85.5611 16.5457C85.5611 17.0669 85.1383 17.4901 84.6171 17.4901H72.5169C72.2619 17.4973 72.015 17.4006 71.8325 17.2229C71.6499 17.0448 71.5469 16.8006 71.5469 16.5461C71.5469 16.2911 71.6499 16.0469 71.8325 15.8688C72.015 15.6912 72.2619 15.5945 72.5169 15.6017H84.6171C84.8671 15.6017 85.1073 15.7011 85.2845 15.8778C85.4617 16.055 85.5611 16.2952 85.5611 16.5457ZM85.5611 20.6854C85.5611 21.2071 85.1383 21.6298 84.6171 21.6303H72.5169C71.9953 21.6303 71.5721 21.2071 71.5721 20.6854C71.5721 20.1637 71.9953 19.7405 72.5169 19.7405H84.6171C84.868 19.741 85.1086 19.8408 85.2858 20.0189C85.463 20.1965 85.562 20.4376 85.5611 20.689V20.6854ZM56.325 29.5481C56.3254 29.0264 56.7482 28.6041 57.2698 28.6041H73.7668C74.0218 28.5969 74.2683 28.6936 74.4513 28.8713C74.6339 29.0494 74.7369 29.2936 74.7369 29.5481C74.7369 29.8031 74.6339 30.0473 74.4513 30.2254C74.2683 30.403 74.0218 30.4993 73.7668 30.4925H57.2698C56.7482 30.4925 56.325 30.0698 56.325 29.5481ZM56.325 32.7111C56.3254 32.1898 56.7482 31.7671 57.2698 31.7671H66.7541C67.0091 31.7604 67.2556 31.857 67.4386 32.0347C67.6212 32.2123 67.7242 32.4565 67.7242 32.7115C67.7242 32.9665 67.6212 33.2107 67.4386 33.3884C67.2556 33.5665 67.0091 33.6627 66.7541 33.6559H57.2698C56.7491 33.6559 56.3268 33.2345 56.325 32.7138V32.7111ZM56.325 35.874C56.3254 35.3524 56.7482 34.9296 57.2698 34.9296H66.7541C67.0091 34.9229 67.2556 35.0196 67.4386 35.1972C67.6212 35.3753 67.7242 35.619 67.7242 35.874C67.7242 36.129 67.6212 36.3732 67.4386 36.5509C67.2556 36.729 67.0091 36.8252 66.7541 36.8185H57.2698C56.7491 36.8185 56.3268 36.3971 56.325 35.8767V35.874ZM61.1897 43.5427H57.4713C56.9496 43.5427 56.5269 43.9655 56.5269 44.4872V51.1607C56.5269 51.6823 56.9496 52.1055 57.4713 52.1055H61.1897C61.4402 52.1055 61.6808 52.0057 61.858 51.8285C62.0352 51.6513 62.1345 51.4112 62.1345 51.1607V44.4907C62.1345 44.2402 62.0351 44.0001 61.858 43.8229C61.6808 43.6457 61.4402 43.5458 61.1897 43.5458V43.5427ZM60.2457 50.2198H58.4135V45.4348H60.2457V50.2198ZM67.8717 39.6247H64.1524H64.1529C63.6321 39.6261 63.2107 40.0488 63.2107 40.5696V51.1642C63.2107 51.6854 63.6334 52.1082 64.1546 52.1086H67.8739C68.1244 52.1086 68.3646 52.0093 68.5418 51.8321C68.719 51.6549 68.8188 51.4147 68.8188 51.1642V40.5696C68.8188 40.3187 68.719 40.0781 68.5413 39.9009C68.3637 39.7237 68.1226 39.6243 67.8717 39.6247ZM66.9273 50.2198H65.0951L65.0946 41.5136H66.9268L66.9273 50.2198ZM74.5555 35.809H70.8355C70.3142 35.8094 69.8915 36.2322 69.8915 36.7539V51.1635C69.8915 51.6848 70.3142 52.1075 70.8355 52.108H74.5555C75.0768 52.1075 75.4995 51.6848 75.4995 51.1635V36.7539C75.4995 36.2322 75.0768 35.8094 74.5555 35.809ZM73.6107 50.2198H71.7785V37.6983H73.6107V50.2198Z" fill="#1742E7"></path></svg>