<svg xmlns="http://www.w3.org/2000/svg" viewBox="0 0 87 81" fill="none"><mask id="path-1-inside-1_922_23649" fill="white"><path fill-rule="evenodd" clip-rule="evenodd" d="M5.18231 0.761159C3.44539 1.10493 1.95161 2.31355 1.15473 4.01983L0.685547 5.0245V34.9136V64.8027L1.15456 65.8074C1.76708 67.1199 2.74647 68.1001 4.0127 68.6684C4.89682 69.0651 5.31225 69.1378 7.08818 69.2062L9.14157 69.2853V67.8394V66.3935L7.5927 66.3861C5.28161 66.3752 4.3712 65.959 3.76337 64.6353C3.46867 63.9935 3.45577 62.7504 3.45577 34.9136C3.45577 7.07689 3.46867 5.83377 3.76337 5.19195C4.14029 4.37113 4.57046 3.97395 5.40485 3.6764C6.35644 3.33698 69.1933 3.33698 70.1449 3.6764C71.571 4.18493 71.9663 4.93542 72.0678 7.32689L72.1443 9.12693H73.546H74.9479V7.73445C74.9479 5.04862 74.4882 3.63504 73.194 2.34101C72.2947 1.44149 71.4598 1.00613 70.1815 0.769866C68.9982 0.551182 6.28595 0.54281 5.18231 0.761159ZM6.29499 7.70364V9.12693H7.71828H9.14157V7.70364V6.28035H7.71828H6.29499V7.70364ZM12.0998 6.39204C12.0384 6.45332 11.9882 7.0938 11.9882 7.81533V9.12693H13.4114H14.8347V7.70364V6.28035H13.5231C12.8016 6.28035 12.1611 6.33058 12.0998 6.39204ZM17.793 6.39204C17.7316 6.45332 17.6813 7.0938 17.6813 7.81533V9.12693H19.1046H20.5279V7.70364V6.28035H19.2163C18.4948 6.28035 17.8543 6.33058 17.793 6.39204ZM16.9032 12.1415C14.5112 12.4916 12.6102 14.377 12.1524 16.8537C12.0396 17.4644 11.997 27.6649 12.0268 46.9831L12.0719 76.1891L12.5414 77.1938C13.3132 78.8451 14.4963 79.8702 16.2031 80.3665C17.0152 80.6026 20.4636 80.6252 49.5865 80.5862L82.0643 80.5427L82.8473 80.1808C83.8163 79.7331 85.0581 78.6068 85.5767 77.7058C85.7919 77.3321 86.0546 76.6119 86.1606 76.1054C86.3031 75.4252 86.3399 67.4995 86.3019 45.7976L86.2505 16.4108L85.8034 15.4571C84.9452 13.6264 83.3118 12.427 81.2755 12.1326C80.0093 11.9494 18.1564 11.9579 16.9032 12.1415ZM82.2932 15.4733C82.6032 15.6945 82.9972 16.1843 83.1686 16.5617C83.4687 17.2224 83.4804 18.3314 83.4839 46.3472C83.487 70.4147 83.4484 75.5399 83.2614 75.9878C82.9607 76.7075 81.9526 77.5722 81.2725 77.6937C80.9712 77.7477 66.3269 77.7703 48.7295 77.744L16.7342 77.6961L16.1192 77.2269C15.781 76.9689 15.3724 76.5168 15.2113 76.2222C14.9362 75.7192 14.9153 73.9364 14.8672 46.886C14.8307 26.3826 14.8691 17.8442 15.0002 17.2481C15.209 16.2991 15.537 15.837 16.358 15.3355L16.9278 14.9874L49.3286 15.0292L81.7294 15.0713L82.2932 15.4733ZM17.7165 19.2156L17.765 20.597L19.1465 20.6455L20.5279 20.6943V19.2641V17.8341H19.0979H17.6678L17.7165 19.2156ZM23.5419 19.2641V20.6943L24.9234 20.6455L26.3048 20.597L26.3534 19.2156L26.4021 17.8341H24.9719H23.5419V19.2641ZM29.2351 19.2641V20.6943L30.6165 20.6455L31.998 20.597L32.0465 19.2156L32.0952 17.8341H30.6651H29.2351V19.2641ZM17.7165 24.9087L17.765 26.2902L49.203 26.3325L80.641 26.3747V24.9511V23.5273H49.1545H17.6678L17.7165 24.9087ZM44.004 29.56C43.5285 30.0029 43.4745 30.2811 43.4255 32.5416L43.3843 34.4393L42.078 34.9433L40.7718 35.4473L39.3066 34.0349C37.7266 32.5118 37.2034 32.2532 36.4756 32.6367C36.2233 32.7698 34.5662 34.3393 32.7933 36.1246C28.8113 40.1344 28.9054 39.8069 31.0938 42.0383L32.6175 43.592L32.0824 44.9331L31.5474 46.274L29.3995 46.3288C27.3952 46.38 27.2229 46.4108 26.82 46.7896L26.3885 47.1956V52.0768V56.9581L26.8205 57.3641C27.2231 57.7425 27.3982 57.774 29.4037 57.8285L31.5551 57.8867L32.0919 59.2184L32.6287 60.5503L31.0993 62.1097C29.5012 63.7393 29.3692 64.0198 29.8083 64.853C29.9394 65.1016 31.4697 66.718 33.2091 68.4447C36.234 71.4478 36.4001 71.5843 37.0282 71.5843C37.6313 71.5843 37.8082 71.4616 39.1976 70.0778L40.7105 68.5711L42.0474 69.1518L43.3843 69.7324L43.468 71.9293C43.5501 74.0838 43.5608 74.134 44.0216 74.5297L44.4914 74.9332H49.079C53.8694 74.9332 54.3209 74.8743 54.668 74.2032C54.77 74.0061 54.8724 72.918 54.8957 71.7854L54.9381 69.726L56.2776 69.1729L57.6172 68.62L59.1435 70.1021C61.4283 72.3209 61.1347 72.4113 65.3571 68.189C69.5693 63.9767 69.4689 64.3091 67.2363 61.9737L65.7201 60.3879L66.0414 59.7487C66.2182 59.3973 66.4517 58.8345 66.5603 58.4982L66.7581 57.8871L68.8855 57.8248C71.2237 57.7563 71.6423 57.6135 71.9308 56.7856C72.1716 56.0949 72.1549 48.0106 71.9112 47.3117C71.6316 46.5096 70.972 46.3003 68.7159 46.298L66.8267 46.2961L66.2757 44.9341L65.7244 43.5721L67.2385 42.0282C69.4263 39.7972 69.5387 40.1564 65.3315 35.9349C61.0915 31.6809 61.4269 31.7841 59.1611 34.038C57.965 35.2278 57.5606 35.5375 57.366 35.4131C57.2279 35.3249 56.6062 35.0566 55.9846 34.8173L54.8543 34.382V32.2119C54.8543 30.0801 54.8465 30.0344 54.4113 29.631L53.9682 29.2205H49.1684C44.578 29.2205 44.3525 29.2354 44.004 29.56ZM17.7952 30.6695C17.7326 30.732 17.6813 31.3735 17.6813 32.095V33.4066H23.4649H29.2487L29.1999 32.0252L29.1514 30.6438L23.5302 30.5997C20.4385 30.5754 17.8578 30.6069 17.7952 30.6695ZM52.0356 34.0593C52.1005 36.3761 52.206 36.5784 53.5764 37.0164C54.0489 37.1676 55.1727 37.6304 56.0732 38.045C57.2969 38.6082 57.8235 38.7704 58.1564 38.6869C58.4015 38.6254 59.2125 37.9792 59.9584 37.251L61.3149 35.927L63.3099 37.9272L65.3048 39.9273L63.9309 41.335C62.3119 42.9936 62.2633 43.2089 63.1193 44.9227C63.4288 45.5421 63.8489 46.5562 64.053 47.1762C64.6635 49.0307 64.6916 49.0488 67.1044 49.1465L69.171 49.2303L69.2169 52.0172L69.2626 54.8042L67.2346 54.8642C65.2755 54.9219 65.1935 54.9392 64.8199 55.3735C64.6072 55.6208 64.2641 56.3365 64.0575 56.9639C63.8509 57.5915 63.4288 58.6116 63.1193 59.231C62.2712 60.9289 62.3161 61.1271 63.9274 62.8056L65.298 64.2333L63.3062 66.2302L61.3144 68.2272L59.8642 66.8081C58.8484 65.8141 58.2918 65.3888 58.0067 65.3888C57.7826 65.3888 57.0007 65.6782 56.2688 66.0316C55.5369 66.3851 54.4382 66.8406 53.8272 67.0435C52.1802 67.5907 52.102 67.7235 52.0356 70.0944L51.9798 72.0867H49.1471H46.3146V70.2526C46.3146 69.2439 46.2295 68.2317 46.1254 68.0033C45.9486 67.6153 45.0392 67.115 43.9704 66.8178C43.7401 66.7537 42.8984 66.3963 42.0998 66.0236C40.9945 65.5077 40.5372 65.3736 40.1841 65.4623C39.929 65.5263 39.1099 66.1745 38.3639 66.9027L37.0074 68.2267L35.0125 66.2265L33.0175 64.2264L34.3914 62.8187C36.0281 61.142 36.0924 60.844 35.203 59.0635C34.8936 58.4442 34.4767 57.4477 34.2766 56.8491C34.0763 56.2504 33.8106 55.626 33.6856 55.4613C33.3496 55.0177 32.5187 54.8397 30.7851 54.8397H29.2351V51.9931V49.1465H31.2153C33.5797 49.1465 33.6175 49.1213 34.3352 47.0535C34.5909 46.3167 35.0172 45.2827 35.2827 44.7559C36.0533 43.2267 35.986 42.9686 34.3914 41.335L33.0175 39.9273L35.0093 37.9303L37.0013 35.9332L38.3828 37.2597C39.1429 37.9893 39.9552 38.6339 40.1881 38.6924C40.4932 38.7691 41.0695 38.5879 42.2492 38.045C43.1497 37.6304 44.2813 37.1649 44.7635 37.0106C46.1458 36.5683 46.3146 36.2375 46.3146 33.9701V32.067H49.1471H51.9798L52.0356 34.0593ZM17.7165 37.8021L17.765 39.1835H22.0349H26.3048L26.3534 37.8021L26.4021 36.4206H22.0349H17.6678L17.7165 37.8021ZM46.7834 42.3732C44.4928 42.9286 42.076 44.6659 40.7569 46.7055C39.2906 48.9722 38.8252 52.3422 39.6219 54.9234C40.8614 58.939 44.3655 61.7224 48.5217 61.9932C50.3316 62.1112 51.692 61.858 53.3457 61.0957C56.6914 59.5533 58.8761 56.3784 59.1487 52.6629C59.408 49.1254 57.4082 45.3554 54.2703 43.4658C52.2347 42.2401 49.1742 41.7935 46.7834 42.3732ZM52.1811 45.6566C55.0958 47.056 56.6787 50.0022 56.1916 53.122C55.2959 58.8584 48.3671 61.1548 44.2076 57.0937C41.4916 54.4422 41.3937 50.0357 43.9883 47.2209C45.4337 45.6528 47.1778 44.9428 49.4182 45.0106C50.7586 45.0511 51.0736 45.1248 52.1811 45.6566ZM72.1013 73.5099V74.9332H76.3712H80.641V73.5099V72.0867H76.3712H72.1013V73.5099Z"></path></mask><path fill-rule="evenodd" clip-rule="evenodd" d="M5.18231 0.761159C3.44539 1.10493 1.95161 2.31355 1.15473 4.01983L0.685547 5.0245V34.9136V64.8027L1.15456 65.8074C1.76708 67.1199 2.74647 68.1001 4.0127 68.6684C4.89682 69.0651 5.31225 69.1378 7.08818 69.2062L9.14157 69.2853V67.8394V66.3935L7.5927 66.3861C5.28161 66.3752 4.3712 65.959 3.76337 64.6353C3.46867 63.9935 3.45577 62.7504 3.45577 34.9136C3.45577 7.07689 3.46867 5.83377 3.76337 5.19195C4.14029 4.37113 4.57046 3.97395 5.40485 3.6764C6.35644 3.33698 69.1933 3.33698 70.1449 3.6764C71.571 4.18493 71.9663 4.93542 72.0678 7.32689L72.1443 9.12693H73.546H74.9479V7.73445C74.9479 5.04862 74.4882 3.63504 73.194 2.34101C72.2947 1.44149 71.4598 1.00613 70.1815 0.769866C68.9982 0.551182 6.28595 0.54281 5.18231 0.761159ZM6.29499 7.70364V9.12693H7.71828H9.14157V7.70364V6.28035H7.71828H6.29499V7.70364ZM12.0998 6.39204C12.0384 6.45332 11.9882 7.0938 11.9882 7.81533V9.12693H13.4114H14.8347V7.70364V6.28035H13.5231C12.8016 6.28035 12.1611 6.33058 12.0998 6.39204ZM17.793 6.39204C17.7316 6.45332 17.6813 7.0938 17.6813 7.81533V9.12693H19.1046H20.5279V7.70364V6.28035H19.2163C18.4948 6.28035 17.8543 6.33058 17.793 6.39204ZM16.9032 12.1415C14.5112 12.4916 12.6102 14.377 12.1524 16.8537C12.0396 17.4644 11.997 27.6649 12.0268 46.9831L12.0719 76.1891L12.5414 77.1938C13.3132 78.8451 14.4963 79.8702 16.2031 80.3665C17.0152 80.6026 20.4636 80.6252 49.5865 80.5862L82.0643 80.5427L82.8473 80.1808C83.8163 79.7331 85.0581 78.6068 85.5767 77.7058C85.7919 77.3321 86.0546 76.6119 86.1606 76.1054C86.3031 75.4252 86.3399 67.4995 86.3019 45.7976L86.2505 16.4108L85.8034 15.4571C84.9452 13.6264 83.3118 12.427 81.2755 12.1326C80.0093 11.9494 18.1564 11.9579 16.9032 12.1415ZM82.2932 15.4733C82.6032 15.6945 82.9972 16.1843 83.1686 16.5617C83.4687 17.2224 83.4804 18.3314 83.4839 46.3472C83.487 70.4147 83.4484 75.5399 83.2614 75.9878C82.9607 76.7075 81.9526 77.5722 81.2725 77.6937C80.9712 77.7477 66.3269 77.7703 48.7295 77.744L16.7342 77.6961L16.1192 77.2269C15.781 76.9689 15.3724 76.5168 15.2113 76.2222C14.9362 75.7192 14.9153 73.9364 14.8672 46.886C14.8307 26.3826 14.8691 17.8442 15.0002 17.2481C15.209 16.2991 15.537 15.837 16.358 15.3355L16.9278 14.9874L49.3286 15.0292L81.7294 15.0713L82.2932 15.4733ZM17.7165 19.2156L17.765 20.597L19.1465 20.6455L20.5279 20.6943V19.2641V17.8341H19.0979H17.6678L17.7165 19.2156ZM23.5419 19.2641V20.6943L24.9234 20.6455L26.3048 20.597L26.3534 19.2156L26.4021 17.8341H24.9719H23.5419V19.2641ZM29.2351 19.2641V20.6943L30.6165 20.6455L31.998 20.597L32.0465 19.2156L32.0952 17.8341H30.6651H29.2351V19.2641ZM17.7165 24.9087L17.765 26.2902L49.203 26.3325L80.641 26.3747V24.9511V23.5273H49.1545H17.6678L17.7165 24.9087ZM44.004 29.56C43.5285 30.0029 43.4745 30.2811 43.4255 32.5416L43.3843 34.4393L42.078 34.9433L40.7718 35.4473L39.3066 34.0349C37.7266 32.5118 37.2034 32.2532 36.4756 32.6367C36.2233 32.7698 34.5662 34.3393 32.7933 36.1246C28.8113 40.1344 28.9054 39.8069 31.0938 42.0383L32.6175 43.592L32.0824 44.9331L31.5474 46.274L29.3995 46.3288C27.3952 46.38 27.2229 46.4108 26.82 46.7896L26.3885 47.1956V52.0768V56.9581L26.8205 57.3641C27.2231 57.7425 27.3982 57.774 29.4037 57.8285L31.5551 57.8867L32.0919 59.2184L32.6287 60.5503L31.0993 62.1097C29.5012 63.7393 29.3692 64.0198 29.8083 64.853C29.9394 65.1016 31.4697 66.718 33.2091 68.4447C36.234 71.4478 36.4001 71.5843 37.0282 71.5843C37.6313 71.5843 37.8082 71.4616 39.1976 70.0778L40.7105 68.5711L42.0474 69.1518L43.3843 69.7324L43.468 71.9293C43.5501 74.0838 43.5608 74.134 44.0216 74.5297L44.4914 74.9332H49.079C53.8694 74.9332 54.3209 74.8743 54.668 74.2032C54.77 74.0061 54.8724 72.918 54.8957 71.7854L54.9381 69.726L56.2776 69.1729L57.6172 68.62L59.1435 70.1021C61.4283 72.3209 61.1347 72.4113 65.3571 68.189C69.5693 63.9767 69.4689 64.3091 67.2363 61.9737L65.7201 60.3879L66.0414 59.7487C66.2182 59.3973 66.4517 58.8345 66.5603 58.4982L66.7581 57.8871L68.8855 57.8248C71.2237 57.7563 71.6423 57.6135 71.9308 56.7856C72.1716 56.0949 72.1549 48.0106 71.9112 47.3117C71.6316 46.5096 70.972 46.3003 68.7159 46.298L66.8267 46.2961L66.2757 44.9341L65.7244 43.5721L67.2385 42.0282C69.4263 39.7972 69.5387 40.1564 65.3315 35.9349C61.0915 31.6809 61.4269 31.7841 59.1611 34.038C57.965 35.2278 57.5606 35.5375 57.366 35.4131C57.2279 35.3249 56.6062 35.0566 55.9846 34.8173L54.8543 34.382V32.2119C54.8543 30.0801 54.8465 30.0344 54.4113 29.631L53.9682 29.2205H49.1684C44.578 29.2205 44.3525 29.2354 44.004 29.56ZM17.7952 30.6695C17.7326 30.732 17.6813 31.3735 17.6813 32.095V33.4066H23.4649H29.2487L29.1999 32.0252L29.1514 30.6438L23.5302 30.5997C20.4385 30.5754 17.8578 30.6069 17.7952 30.6695ZM52.0356 34.0593C52.1005 36.3761 52.206 36.5784 53.5764 37.0164C54.0489 37.1676 55.1727 37.6304 56.0732 38.045C57.2969 38.6082 57.8235 38.7704 58.1564 38.6869C58.4015 38.6254 59.2125 37.9792 59.9584 37.251L61.3149 35.927L63.3099 37.9272L65.3048 39.9273L63.9309 41.335C62.3119 42.9936 62.2633 43.2089 63.1193 44.9227C63.4288 45.5421 63.8489 46.5562 64.053 47.1762C64.6635 49.0307 64.6916 49.0488 67.1044 49.1465L69.171 49.2303L69.2169 52.0172L69.2626 54.8042L67.2346 54.8642C65.2755 54.9219 65.1935 54.9392 64.8199 55.3735C64.6072 55.6208 64.2641 56.3365 64.0575 56.9639C63.8509 57.5915 63.4288 58.6116 63.1193 59.231C62.2712 60.9289 62.3161 61.1271 63.9274 62.8056L65.298 64.2333L63.3062 66.2302L61.3144 68.2272L59.8642 66.8081C58.8484 65.8141 58.2918 65.3888 58.0067 65.3888C57.7826 65.3888 57.0007 65.6782 56.2688 66.0316C55.5369 66.3851 54.4382 66.8406 53.8272 67.0435C52.1802 67.5907 52.102 67.7235 52.0356 70.0944L51.9798 72.0867H49.1471H46.3146V70.2526C46.3146 69.2439 46.2295 68.2317 46.1254 68.0033C45.9486 67.6153 45.0392 67.115 43.9704 66.8178C43.7401 66.7537 42.8984 66.3963 42.0998 66.0236C40.9945 65.5077 40.5372 65.3736 40.1841 65.4623C39.929 65.5263 39.1099 66.1745 38.3639 66.9027L37.0074 68.2267L35.0125 66.2265L33.0175 64.2264L34.3914 62.8187C36.0281 61.142 36.0924 60.844 35.203 59.0635C34.8936 58.4442 34.4767 57.4477 34.2766 56.8491C34.0763 56.2504 33.8106 55.626 33.6856 55.4613C33.3496 55.0177 32.5187 54.8397 30.7851 54.8397H29.2351V51.9931V49.1465H31.2153C33.5797 49.1465 33.6175 49.1213 34.3352 47.0535C34.5909 46.3167 35.0172 45.2827 35.2827 44.7559C36.0533 43.2267 35.986 42.9686 34.3914 41.335L33.0175 39.9273L35.0093 37.9303L37.0013 35.9332L38.3828 37.2597C39.1429 37.9893 39.9552 38.6339 40.1881 38.6924C40.4932 38.7691 41.0695 38.5879 42.2492 38.045C43.1497 37.6304 44.2813 37.1649 44.7635 37.0106C46.1458 36.5683 46.3146 36.2375 46.3146 33.9701V32.067H49.1471H51.9798L52.0356 34.0593ZM17.7165 37.8021L17.765 39.1835H22.0349H26.3048L26.3534 37.8021L26.4021 36.4206H22.0349H17.6678L17.7165 37.8021ZM46.7834 42.3732C44.4928 42.9286 42.076 44.6659 40.7569 46.7055C39.2906 48.9722 38.8252 52.3422 39.6219 54.9234C40.8614 58.939 44.3655 61.7224 48.5217 61.9932C50.3316 62.1112 51.692 61.858 53.3457 61.0957C56.6914 59.5533 58.8761 56.3784 59.1487 52.6629C59.408 49.1254 57.4082 45.3554 54.2703 43.4658C52.2347 42.2401 49.1742 41.7935 46.7834 42.3732ZM52.1811 45.6566C55.0958 47.056 56.6787 50.0022 56.1916 53.122C55.2959 58.8584 48.3671 61.1548 44.2076 57.0937C41.4916 54.4422 41.3937 50.0357 43.9883 47.2209C45.4337 45.6528 47.1778 44.9428 49.4182 45.0106C50.7586 45.0511 51.0736 45.1248 52.1811 45.6566ZM72.1013 73.5099V74.9332H76.3712H80.641V73.5099V72.0867H76.3712H72.1013V73.5099Z" fill="#1742E7" stroke="#1742E7" stroke-width="0.7" mask="url(#path-1-inside-1_922_23649)"></path></svg>