<svg xmlns="http://www.w3.org/2000/svg" viewBox="0 0 85 81" fill="none"><path d="M75.7361 20.0483H38.2333C36.1626 15.0768 32.1337 11.1797 27.0968 9.27411V7.31591H49.1508C49.515 7.32555 49.8678 7.18742 50.1286 6.93365C50.3894 6.67987 50.5366 6.33101 50.5366 5.96674C50.5366 5.60247 50.3895 5.25361 50.1286 4.99983C49.8678 4.74541 49.515 4.60792 49.1508 4.61756H25.7481C25.0029 4.61756 24.399 5.22148 24.3983 5.9661V8.46458C23.0151 8.15556 21.603 7.99622 20.1857 7.99045H20.1491C13.5446 7.98595 7.38399 11.3172 3.77137 16.8462C0.158759 22.3753 -0.417549 29.3551 2.23909 35.4019C4.89563 41.4489 10.426 45.745 16.942 46.8243L16.9292 51.8234H15.855C15.4977 51.8228 15.154 51.9648 14.9009 52.2179C14.6484 52.4704 14.5058 52.8134 14.5058 53.1707L14.4801 68.7435C14.4794 69.4881 15.0814 70.0927 15.8261 70.0946L24.448 70.1113C25.1926 70.1113 25.7959 69.508 25.7965 68.7634V66.3297L39.1777 66.3304L35.222 72.3484L31.003 72.3477C29.6005 72.4512 28.3465 73.2594 27.6731 74.4942C27.0005 75.7291 27.0005 77.2208 27.6731 78.4557C28.3464 79.6899 29.6006 80.4981 31.003 80.6016H68.4679C69.8704 80.4981 71.1245 79.6899 71.7978 78.4557C72.4711 77.2209 72.4711 75.7291 71.7978 74.4942C71.1245 73.2594 69.8704 72.4512 68.4679 72.3477H64.2483L60.2945 66.3297L75.7356 66.3304C77.0687 66.3284 78.3459 65.7977 79.2878 64.8546C80.2297 63.9121 80.7591 62.6342 80.7597 61.3012V25.078C80.7591 23.7449 80.2303 22.467 79.2878 21.5239C78.346 20.5814 77.0688 20.0508 75.7356 20.0488L75.7361 20.0483ZM32.1018 15.6474C35.8179 19.3692 37.5814 24.6137 36.8689 29.824C36.1564 35.0351 33.0494 39.6133 28.4711 42.2005V39.2612C32.5045 36.4016 34.784 31.6679 34.5046 26.7311C34.2258 21.7943 31.4265 17.3485 27.0963 14.9624V12.1953C28.9601 13.0331 30.6563 14.2032 32.1018 15.6474ZM22.5035 16.1029L22.5401 16.1125C22.8825 16.1832 23.2185 16.2725 23.55 16.3734C23.6605 16.4061 23.7672 16.4479 23.8758 16.4851C24.0505 16.5443 24.2221 16.6085 24.3923 16.6792V20.4556H24.3929C24.3833 20.8199 24.5214 21.172 24.7752 21.4328C25.0296 21.6943 25.3778 21.8414 25.7421 21.8414C26.1064 21.8414 26.4552 21.6943 26.709 21.4328C26.9634 21.172 27.1009 20.8199 27.0913 20.4556V18.1762C27.1883 18.2449 27.2795 18.313 27.3708 18.3843C27.462 18.4563 27.5436 18.5154 27.6265 18.5841C28.1674 19.0352 28.6673 19.5324 29.1196 20.0715C29.1896 20.155 29.2532 20.2443 29.3213 20.3304C29.4703 20.5244 29.6123 20.7114 29.755 20.9118C29.8295 21.0204 29.8995 21.1322 29.9715 21.2427C30.0916 21.429 30.2079 21.6192 30.3178 21.8125C30.3859 21.932 30.4507 22.0528 30.5118 22.1749C30.6088 22.3689 30.7058 22.5713 30.8028 22.7743C30.8594 22.8983 30.9152 23.0217 30.9679 23.1482C31.0572 23.3673 31.1356 23.5915 31.2121 23.817C31.2506 23.9307 31.2943 24.0432 31.3296 24.1595C31.426 24.4743 31.5082 24.7949 31.577 25.1219C31.5841 25.1508 31.5924 25.1784 31.5982 25.2073C31.665 25.5343 31.7119 25.8678 31.7505 26.2032L21.5128 26.2038V15.9513C21.8481 15.9898 22.1816 16.0367 22.5086 16.1036L22.5035 16.1029ZM20.1584 28.9002L31.7453 28.9009C31.4465 31.4816 30.2946 33.8883 28.4713 35.7393V34.1395C28.4809 33.7753 28.3428 33.4225 28.089 33.1617C27.8346 32.9009 27.4864 32.7537 27.1221 32.7537C26.7578 32.7537 26.409 32.9009 26.1552 33.1617C25.9008 33.4225 25.7633 33.7753 25.7729 34.1395V37.7906C24.0557 38.7396 22.125 39.2368 20.163 39.2349C16.1476 39.24 12.411 37.1816 10.2691 33.7848C8.12714 30.3875 7.87978 26.1285 9.61502 22.507C11.3503 18.8855 14.8242 16.4094 18.8139 15.95V27.5517C18.8139 28.2969 19.4178 28.9008 20.1631 28.9008L20.1584 28.9002ZM3.28201 27.5234C3.29615 23.0571 5.07903 18.7775 8.2405 15.6225C11.4021 12.4679 15.6848 10.6934 20.1512 10.689H20.1833C21.607 10.696 23.0237 10.8823 24.4012 11.2441V13.8075C19.9136 12.4217 15.0327 13.3134 11.3257 16.1968C7.61868 19.0801 5.55308 23.5916 5.79206 28.2817C6.03105 32.9717 8.54432 37.2498 12.5252 39.7414C16.5059 42.2328 21.4529 42.6241 25.7753 40.7892V43.4305C23.9712 44.0774 22.069 44.4102 20.1524 44.4147H20.1254C15.6551 44.398 11.3731 42.6113 8.21669 39.4459C5.06032 36.2805 3.28596 31.9936 3.28201 27.5234ZM20.1206 47.112H20.1514C20.33 47.112 20.5022 47.0895 20.6789 47.085L20.6654 51.8233H19.6278L19.6407 47.0903C19.8013 47.0909 19.9587 47.112 20.1206 47.112ZM23.1094 67.4094L17.1864 67.3979L17.1954 54.5202L23.1202 54.5337L23.1094 67.4094ZM69.6071 76.4746V76.474C69.6687 77.1762 69.1695 77.8039 68.4718 77.9022H31.0036C30.3393 77.7473 29.8697 77.1556 29.8697 76.474C29.8697 75.7917 30.3393 75.2 31.0036 75.0451H68.4685C69.1669 75.1434 69.6655 75.7711 69.6044 76.4733L69.6071 76.4746ZM61.0172 72.3467H38.4517L42.4023 66.3293H57.0615L61.0172 72.3467ZM78.063 61.3001C78.063 62.5851 77.021 63.6271 75.7361 63.6271H25.8059L25.8239 53.1895C25.8251 52.4443 25.2225 51.8391 24.4773 51.8378H23.3645L23.378 46.8234C24.1875 46.6936 24.9874 46.5124 25.7737 46.2805V48.842C25.7737 49.5872 26.3776 50.1918 27.1229 50.1918H35.9305C36.6609 50.1719 37.2437 49.5737 37.2437 48.8426C37.2437 48.1109 36.6609 47.5127 35.9305 47.4934H28.472V45.2275C32.5909 43.3129 35.9106 40.0164 37.8526 35.9105C39.7954 31.8045 40.2388 27.148 39.1061 22.7484H75.7355C77.0211 22.7484 78.0624 23.7904 78.0624 25.0753L78.063 61.3001ZM54.8791 17.4701H60.9279C61.2858 17.4701 61.6288 17.3281 61.882 17.075C62.1351 16.8219 62.2777 16.4788 62.2777 16.1203V1.9501C62.2777 1.20549 61.6738 0.601562 60.9292 0.601562H54.8791C54.1345 0.601562 53.5299 1.20549 53.5293 1.9501V16.1203C53.5293 16.4788 53.6719 16.8219 53.9251 17.075C54.1782 17.3281 54.5213 17.4701 54.8791 17.4701ZM56.2277 3.29992H59.5781V14.7718H56.2277V3.29992ZM64.4307 3.11553C64.4313 2.37027 65.0352 1.76699 65.7805 1.76699H83.0664C83.7976 1.78627 84.3797 2.38504 84.3797 3.11617C84.3797 3.84729 83.7976 4.44543 83.0664 4.46534H65.7805C65.4226 4.46534 65.0789 4.32272 64.8264 4.06959C64.5733 3.81645 64.4307 3.47338 64.4307 3.11553ZM84.414 9.03453C84.414 9.77914 83.81 10.3837 83.0654 10.3837H65.7795C65.4152 10.394 65.0625 10.2559 64.8017 10.0021C64.5408 9.74766 64.3937 9.3988 64.3937 9.03517C64.3937 8.6709 64.5408 8.32204 64.8017 8.06762C65.0625 7.81384 65.4152 7.67571 65.7795 7.68599H83.0654C83.4226 7.68599 83.7657 7.82798 84.0188 8.08046C84.272 8.3336 84.414 8.67667 84.414 9.03453ZM84.414 14.9484C84.414 15.6937 83.81 16.2976 83.0654 16.2982H65.7795C65.0342 16.2982 64.4297 15.6937 64.4297 14.9484C64.4297 14.2032 65.0342 13.5986 65.7795 13.5986H83.0654C83.4239 13.5993 83.7676 13.7419 84.0208 13.9963C84.2739 14.2501 84.4152 14.5944 84.414 14.9536V14.9484ZM42.6481 27.6094C42.6487 26.8642 43.2527 26.2609 43.9979 26.2609H67.565C67.9293 26.2506 68.2814 26.3888 68.5429 26.6425C68.8037 26.897 68.9508 27.2458 68.9508 27.6094C68.9508 27.9737 68.8037 28.3226 68.5429 28.577C68.2814 28.8308 67.9293 28.9683 67.565 28.9586H43.9979C43.2527 28.9586 42.6481 28.3547 42.6481 27.6094ZM42.6481 32.128C42.6487 31.3834 43.2527 30.7795 43.9979 30.7795H57.5469C57.9112 30.7698 58.2633 30.9079 58.5247 31.1617C58.7856 31.4155 58.9327 31.7644 58.9327 32.1286C58.9327 32.4929 58.7856 32.8418 58.5247 33.0955C58.2633 33.35 57.9112 33.4874 57.5469 33.4778H43.9979C43.2539 33.4778 42.6507 32.8758 42.6481 32.1318V32.128ZM42.6481 36.6465C42.6487 35.9012 43.2527 35.2973 43.9979 35.2973H57.5469C57.9112 35.2877 58.2633 35.4258 58.5247 35.6796C58.7856 35.934 58.9327 36.2822 58.9327 36.6465C58.9327 37.0108 58.7856 37.3596 58.5247 37.6134C58.2633 37.8678 57.9112 38.0053 57.5469 37.9957H43.9979C43.2539 37.9957 42.6507 37.3937 42.6481 36.6503V36.6465ZM49.5977 47.6018H44.2857C43.5405 47.6018 42.9366 48.2057 42.9366 48.951V58.4845C42.9366 59.2298 43.5405 59.8344 44.2857 59.8344H49.5977C49.9555 59.8344 50.2992 59.6917 50.5524 59.4386C50.8055 59.1855 50.9475 58.8424 50.9475 58.4845V48.9561C50.9475 48.5982 50.8055 48.2551 50.5524 48.002C50.2992 47.7488 49.9555 47.6062 49.5977 47.6062V47.6018ZM48.2491 57.1405H45.6317V50.3047H48.2491V57.1405ZM59.1434 42.0047H53.8302H53.8308C53.0868 42.0066 52.4848 42.6105 52.4848 43.3545V58.4896C52.4848 59.2342 53.0887 59.8382 53.8334 59.8388H59.1466C59.5045 59.8388 59.8475 59.6968 60.1007 59.4437C60.3538 59.1906 60.4964 58.8475 60.4964 58.4896V43.3545C60.4964 42.996 60.3538 42.6523 60.1 42.3991C59.8462 42.146 59.5019 42.004 59.1434 42.0047ZM57.7942 57.1405H55.1768L55.1762 44.703H57.7936L57.7942 57.1405ZM68.6918 36.5536H63.3774C62.6328 36.5542 62.0288 37.1581 62.0288 37.9034V58.4886C62.0288 59.2333 62.6328 59.8372 63.3774 59.8378H68.6918C69.4364 59.8372 70.0403 59.2333 70.0403 58.4886V37.9034C70.0403 37.1581 69.4364 36.5542 68.6918 36.5536ZM67.3419 57.1405H64.7246V39.2525H67.3419V57.1405Z" fill="#1742E7"></path></svg>