<svg xmlns="http://www.w3.org/2000/svg" viewBox="0 0 81 81" fill="none"><mask id="path-1-inside-1_922_23634" fill="white"><path d="M34.0467 65.1172H36.6274V67.6978H34.0467V65.1172Z"></path><path d="M44.3692 65.1172H46.9499V67.6978H44.3692V65.1172Z"></path><path d="M39.208 65.1172H41.7886V67.6978H39.208V65.1172Z"></path><path d="M15.9824 57.3753H28.8855V44.4722H15.9824V57.3753ZM18.563 47.0528H26.3049V54.7947H18.563V47.0528Z"></path><path d="M15.9824 34.1496H28.8855V36.7303H15.9824V34.1496Z"></path><path d="M15.9824 39.3109H23.7243V41.8915H15.9824V39.3109Z"></path><path d="M26.3049 39.3109H28.8855V41.8915H26.3049V39.3109Z"></path><path d="M65.0142 49.6334H49.5305V57.3753H65.0142V49.6334ZM62.4336 54.7947H52.1111V52.214H62.4336V54.7947Z"></path><path d="M62.4336 44.4722H65.0142V47.0528H62.4336V44.4722Z"></path><path d="M49.5305 44.4722H59.853V47.0528H49.5305V44.4722Z"></path><path d="M49.5305 39.3109H65.0142V41.8915H49.5305V39.3109Z"></path><path d="M54.6917 34.1496H65.0142V36.7303H54.6917V34.1496Z"></path><path d="M15.0106 15.7992L17.5278 16.3706C18.6004 11.6454 22.741 8.34353 27.5952 8.34353V5.7629C21.5284 5.7629 16.3528 9.89073 15.0106 15.7992Z"></path><path d="M80.4979 25.1175C80.4979 18.7148 75.2889 13.5046 68.8851 13.5046C66.3097 13.5046 63.9354 14.3577 62.0079 15.7806C59.5499 11.2144 54.8271 8.34338 49.5305 8.34338C47.3732 8.34338 45.2494 8.83992 43.311 9.79095C40.1267 4.16651 34.0997 0.601562 27.5958 0.601562C19.472 0.601562 12.4645 5.92635 10.2511 13.6637C4.71423 14.5629 0.5 19.4245 0.5 25.1175C0.5 31.0841 5.02538 36.0103 10.8225 36.6542V66.4081C10.8225 69.9657 13.7165 72.8597 17.274 72.8597H27.5965V78.0209H22.4353V80.6016H58.564V78.0209H53.4027V72.8597H63.7252C67.2828 72.8597 70.1768 69.9657 70.1768 66.4081V36.6542C75.9739 36.0102 80.4993 31.0841 80.4993 25.1175L80.4979 25.1175ZM34.2532 37.4826C34.9214 37.9095 35.3373 38.7344 35.3373 39.6335V41.8915C35.3373 44.7377 37.6523 47.0528 40.4985 47.0528C43.3447 47.0528 45.6598 44.7377 45.6598 41.8915V39.5793C45.6598 38.7158 46.0855 37.9059 46.7721 37.4646C48.9823 36.0442 50.586 33.96 51.4317 31.569H63.7241C65.8584 31.569 67.5951 33.3057 67.5951 35.44V59.9559H13.402V35.44C13.402 33.3057 15.1387 31.569 17.2729 31.569H29.5672C30.4093 33.9584 32.0095 36.0488 34.2532 37.4826ZM43.0792 41.8915C43.0792 43.3149 41.922 44.4721 40.4986 44.4721C39.0752 44.4721 37.918 43.3149 37.918 41.8915H43.0792ZM39.2083 27.6981C39.2083 26.9873 39.7866 26.4078 40.4986 26.4078C41.2106 26.4078 41.7889 26.9873 41.7889 27.6981C41.7889 28.4089 41.2106 28.9884 40.4986 28.9884C39.7866 28.9884 39.2083 28.4089 39.2083 27.6981ZM43.0959 39.3109H41.7889V31.3318C43.2871 30.7978 44.3695 29.3784 44.3695 27.6981C44.3695 25.5638 42.6328 23.8271 40.4986 23.8271C38.3643 23.8271 36.6276 25.5638 36.6276 27.6981C36.6276 29.3778 37.71 30.7972 39.2082 31.3318V39.3109H37.8983C37.8027 37.6438 36.9807 36.1622 35.6414 35.3069C32.6634 33.4038 31.093 30.0311 31.5424 26.5047C32.0573 22.4569 35.3798 19.1844 39.4392 18.7253C39.7992 18.6856 40.1552 18.666 40.5089 18.666C42.7359 18.666 44.8367 19.4621 46.5141 20.9604C48.4299 22.6723 49.5307 25.1292 49.5307 27.6982C49.5307 30.7822 47.9784 33.6221 45.3758 35.2944C44.0135 36.1717 43.1783 37.6594 43.0959 39.3109ZM50.8211 78.0203H30.1761V72.859H50.8211V78.0203ZM63.7242 70.2784H17.273C15.1388 70.2784 13.4021 68.5417 13.4021 66.4075V62.5365H67.5951V66.4075C67.5951 68.5417 65.8584 70.2784 63.7242 70.2784ZM70.0219 34.07C69.3912 31.1709 66.8106 28.9888 63.7242 28.9888H52.0301C52.0779 28.5632 52.1114 28.1334 52.1114 27.6985C52.1114 24.3956 50.6972 21.2378 48.2329 19.0368C45.771 16.8357 42.4651 15.7902 39.1506 16.1618C33.9226 16.7528 29.6473 20.9659 28.9831 26.1785C28.8616 27.1306 28.88 28.069 28.9808 28.989H17.2729C14.1865 28.989 11.6058 31.171 10.9751 34.0702C6.53101 33.5091 3.07946 29.713 3.07946 25.118C3.07946 20.4481 6.72581 16.4977 11.3812 16.1233L12.3208 16.0484L12.535 15.1308C14.1785 8.0963 20.372 3.18279 27.5955 3.18279C33.5633 3.18279 39.0626 6.68625 41.6046 12.1078L42.2187 13.4177L43.4508 12.6579C45.2895 11.5248 47.3915 10.9246 49.5308 10.9246C54.0946 10.9246 58.1176 13.5439 60.0237 17.6302C58.3112 19.6539 57.2726 22.265 57.2726 25.118H59.8532C59.8532 20.1377 63.9062 16.0858 68.8854 16.0858C73.8647 16.0858 77.9176 20.1377 77.9176 25.118C77.9176 29.713 74.4661 33.5089 70.0219 34.07Z"></path></mask><path d="M34.0467 65.1172H36.6274V67.6978H34.0467V65.1172Z" fill="#1742E7"></path><path d="M44.3692 65.1172H46.9499V67.6978H44.3692V65.1172Z" fill="#1742E7"></path><path d="M39.208 65.1172H41.7886V67.6978H39.208V65.1172Z" fill="#1742E7"></path><path d="M15.9824 57.3753H28.8855V44.4722H15.9824V57.3753ZM18.563 47.0528H26.3049V54.7947H18.563V47.0528Z" fill="#1742E7"></path><path d="M15.9824 34.1496H28.8855V36.7303H15.9824V34.1496Z" fill="#1742E7"></path><path d="M15.9824 39.3109H23.7243V41.8915H15.9824V39.3109Z" fill="#1742E7"></path><path d="M26.3049 39.3109H28.8855V41.8915H26.3049V39.3109Z" fill="#1742E7"></path><path d="M65.0142 49.6334H49.5305V57.3753H65.0142V49.6334ZM62.4336 54.7947H52.1111V52.214H62.4336V54.7947Z" fill="#1742E7"></path><path d="M62.4336 44.4722H65.0142V47.0528H62.4336V44.4722Z" fill="#1742E7"></path><path d="M49.5305 44.4722H59.853V47.0528H49.5305V44.4722Z" fill="#1742E7"></path><path d="M49.5305 39.3109H65.0142V41.8915H49.5305V39.3109Z" fill="#1742E7"></path><path d="M54.6917 34.1496H65.0142V36.7303H54.6917V34.1496Z" fill="#1742E7"></path><path d="M15.0106 15.7992L17.5278 16.3706C18.6004 11.6454 22.741 8.34353 27.5952 8.34353V5.7629C21.5284 5.7629 16.3528 9.89073 15.0106 15.7992Z" fill="#1742E7"></path><path d="M80.4979 25.1175C80.4979 18.7148 75.2889 13.5046 68.8851 13.5046C66.3097 13.5046 63.9354 14.3577 62.0079 15.7806C59.5499 11.2144 54.8271 8.34338 49.5305 8.34338C47.3732 8.34338 45.2494 8.83992 43.311 9.79095C40.1267 4.16651 34.0997 0.601562 27.5958 0.601562C19.472 0.601562 12.4645 5.92635 10.2511 13.6637C4.71423 14.5629 0.5 19.4245 0.5 25.1175C0.5 31.0841 5.02538 36.0103 10.8225 36.6542V66.4081C10.8225 69.9657 13.7165 72.8597 17.274 72.8597H27.5965V78.0209H22.4353V80.6016H58.564V78.0209H53.4027V72.8597H63.7252C67.2828 72.8597 70.1768 69.9657 70.1768 66.4081V36.6542C75.9739 36.0102 80.4993 31.0841 80.4993 25.1175L80.4979 25.1175ZM34.2532 37.4826C34.9214 37.9095 35.3373 38.7344 35.3373 39.6335V41.8915C35.3373 44.7377 37.6523 47.0528 40.4985 47.0528C43.3447 47.0528 45.6598 44.7377 45.6598 41.8915V39.5793C45.6598 38.7158 46.0855 37.9059 46.7721 37.4646C48.9823 36.0442 50.586 33.96 51.4317 31.569H63.7241C65.8584 31.569 67.5951 33.3057 67.5951 35.44V59.9559H13.402V35.44C13.402 33.3057 15.1387 31.569 17.2729 31.569H29.5672C30.4093 33.9584 32.0095 36.0488 34.2532 37.4826ZM43.0792 41.8915C43.0792 43.3149 41.922 44.4721 40.4986 44.4721C39.0752 44.4721 37.918 43.3149 37.918 41.8915H43.0792ZM39.2083 27.6981C39.2083 26.9873 39.7866 26.4078 40.4986 26.4078C41.2106 26.4078 41.7889 26.9873 41.7889 27.6981C41.7889 28.4089 41.2106 28.9884 40.4986 28.9884C39.7866 28.9884 39.2083 28.4089 39.2083 27.6981ZM43.0959 39.3109H41.7889V31.3318C43.2871 30.7978 44.3695 29.3784 44.3695 27.6981C44.3695 25.5638 42.6328 23.8271 40.4986 23.8271C38.3643 23.8271 36.6276 25.5638 36.6276 27.6981C36.6276 29.3778 37.71 30.7972 39.2082 31.3318V39.3109H37.8983C37.8027 37.6438 36.9807 36.1622 35.6414 35.3069C32.6634 33.4038 31.093 30.0311 31.5424 26.5047C32.0573 22.4569 35.3798 19.1844 39.4392 18.7253C39.7992 18.6856 40.1552 18.666 40.5089 18.666C42.7359 18.666 44.8367 19.4621 46.5141 20.9604C48.4299 22.6723 49.5307 25.1292 49.5307 27.6982C49.5307 30.7822 47.9784 33.6221 45.3758 35.2944C44.0135 36.1717 43.1783 37.6594 43.0959 39.3109ZM50.8211 78.0203H30.1761V72.859H50.8211V78.0203ZM63.7242 70.2784H17.273C15.1388 70.2784 13.4021 68.5417 13.4021 66.4075V62.5365H67.5951V66.4075C67.5951 68.5417 65.8584 70.2784 63.7242 70.2784ZM70.0219 34.07C69.3912 31.1709 66.8106 28.9888 63.7242 28.9888H52.0301C52.0779 28.5632 52.1114 28.1334 52.1114 27.6985C52.1114 24.3956 50.6972 21.2378 48.2329 19.0368C45.771 16.8357 42.4651 15.7902 39.1506 16.1618C33.9226 16.7528 29.6473 20.9659 28.9831 26.1785C28.8616 27.1306 28.88 28.069 28.9808 28.989H17.2729C14.1865 28.989 11.6058 31.171 10.9751 34.0702C6.53101 33.5091 3.07946 29.713 3.07946 25.118C3.07946 20.4481 6.72581 16.4977 11.3812 16.1233L12.3208 16.0484L12.535 15.1308C14.1785 8.0963 20.372 3.18279 27.5955 3.18279C33.5633 3.18279 39.0626 6.68625 41.6046 12.1078L42.2187 13.4177L43.4508 12.6579C45.2895 11.5248 47.3915 10.9246 49.5308 10.9246C54.0946 10.9246 58.1176 13.5439 60.0237 17.6302C58.3112 19.6539 57.2726 22.265 57.2726 25.118H59.8532C59.8532 20.1377 63.9062 16.0858 68.8854 16.0858C73.8647 16.0858 77.9176 20.1377 77.9176 25.118C77.9176 29.713 74.4661 33.5089 70.0219 34.07Z" fill="#1742E7"></path><path d="M34.0467 65.1172H36.6274V67.6978H34.0467V65.1172Z" stroke="#1742E7" stroke-width="0.8" mask="url(#path-1-inside-1_922_23634)"></path><path d="M44.3692 65.1172H46.9499V67.6978H44.3692V65.1172Z" stroke="#1742E7" stroke-width="0.8" mask="url(#path-1-inside-1_922_23634)"></path><path d="M39.208 65.1172H41.7886V67.6978H39.208V65.1172Z" stroke="#1742E7" stroke-width="0.8" mask="url(#path-1-inside-1_922_23634)"></path><path d="M15.9824 57.3753H28.8855V44.4722H15.9824V57.3753ZM18.563 47.0528H26.3049V54.7947H18.563V47.0528Z" stroke="#1742E7" stroke-width="0.8" mask="url(#path-1-inside-1_922_23634)"></path><path d="M15.9824 34.1496H28.8855V36.7303H15.9824V34.1496Z" stroke="#1742E7" stroke-width="0.8" mask="url(#path-1-inside-1_922_23634)"></path><path d="M15.9824 39.3109H23.7243V41.8915H15.9824V39.3109Z" stroke="#1742E7" stroke-width="0.8" mask="url(#path-1-inside-1_922_23634)"></path><path d="M26.3049 39.3109H28.8855V41.8915H26.3049V39.3109Z" stroke="#1742E7" stroke-width="0.8" mask="url(#path-1-inside-1_922_23634)"></path><path d="M65.0142 49.6334H49.5305V57.3753H65.0142V49.6334ZM62.4336 54.7947H52.1111V52.214H62.4336V54.7947Z" stroke="#1742E7" stroke-width="0.8" mask="url(#path-1-inside-1_922_23634)"></path><path d="M62.4336 44.4722H65.0142V47.0528H62.4336V44.4722Z" stroke="#1742E7" stroke-width="0.8" mask="url(#path-1-inside-1_922_23634)"></path><path d="M49.5305 44.4722H59.853V47.0528H49.5305V44.4722Z" stroke="#1742E7" stroke-width="0.8" mask="url(#path-1-inside-1_922_23634)"></path><path d="M49.5305 39.3109H65.0142V41.8915H49.5305V39.3109Z" stroke="#1742E7" stroke-width="0.8" mask="url(#path-1-inside-1_922_23634)"></path><path d="M54.6917 34.1496H65.0142V36.7303H54.6917V34.1496Z" stroke="#1742E7" stroke-width="0.8" mask="url(#path-1-inside-1_922_23634)"></path><path d="M15.0106 15.7992L17.5278 16.3706C18.6004 11.6454 22.741 8.34353 27.5952 8.34353V5.7629C21.5284 5.7629 16.3528 9.89073 15.0106 15.7992Z" stroke="#1742E7" stroke-width="0.8" mask="url(#path-1-inside-1_922_23634)"></path><path d="M80.4979 25.1175C80.4979 18.7148 75.2889 13.5046 68.8851 13.5046C66.3097 13.5046 63.9354 14.3577 62.0079 15.7806C59.5499 11.2144 54.8271 8.34338 49.5305 8.34338C47.3732 8.34338 45.2494 8.83992 43.311 9.79095C40.1267 4.16651 34.0997 0.601562 27.5958 0.601562C19.472 0.601562 12.4645 5.92635 10.2511 13.6637C4.71423 14.5629 0.5 19.4245 0.5 25.1175C0.5 31.0841 5.02538 36.0103 10.8225 36.6542V66.4081C10.8225 69.9657 13.7165 72.8597 17.274 72.8597H27.5965V78.0209H22.4353V80.6016H58.564V78.0209H53.4027V72.8597H63.7252C67.2828 72.8597 70.1768 69.9657 70.1768 66.4081V36.6542C75.9739 36.0102 80.4993 31.0841 80.4993 25.1175L80.4979 25.1175ZM34.2532 37.4826C34.9214 37.9095 35.3373 38.7344 35.3373 39.6335V41.8915C35.3373 44.7377 37.6523 47.0528 40.4985 47.0528C43.3447 47.0528 45.6598 44.7377 45.6598 41.8915V39.5793C45.6598 38.7158 46.0855 37.9059 46.7721 37.4646C48.9823 36.0442 50.586 33.96 51.4317 31.569H63.7241C65.8584 31.569 67.5951 33.3057 67.5951 35.44V59.9559H13.402V35.44C13.402 33.3057 15.1387 31.569 17.2729 31.569H29.5672C30.4093 33.9584 32.0095 36.0488 34.2532 37.4826ZM43.0792 41.8915C43.0792 43.3149 41.922 44.4721 40.4986 44.4721C39.0752 44.4721 37.918 43.3149 37.918 41.8915H43.0792ZM39.2083 27.6981C39.2083 26.9873 39.7866 26.4078 40.4986 26.4078C41.2106 26.4078 41.7889 26.9873 41.7889 27.6981C41.7889 28.4089 41.2106 28.9884 40.4986 28.9884C39.7866 28.9884 39.2083 28.4089 39.2083 27.6981ZM43.0959 39.3109H41.7889V31.3318C43.2871 30.7978 44.3695 29.3784 44.3695 27.6981C44.3695 25.5638 42.6328 23.8271 40.4986 23.8271C38.3643 23.8271 36.6276 25.5638 36.6276 27.6981C36.6276 29.3778 37.71 30.7972 39.2082 31.3318V39.3109H37.8983C37.8027 37.6438 36.9807 36.1622 35.6414 35.3069C32.6634 33.4038 31.093 30.0311 31.5424 26.5047C32.0573 22.4569 35.3798 19.1844 39.4392 18.7253C39.7992 18.6856 40.1552 18.666 40.5089 18.666C42.7359 18.666 44.8367 19.4621 46.5141 20.9604C48.4299 22.6723 49.5307 25.1292 49.5307 27.6982C49.5307 30.7822 47.9784 33.6221 45.3758 35.2944C44.0135 36.1717 43.1783 37.6594 43.0959 39.3109ZM50.8211 78.0203H30.1761V72.859H50.8211V78.0203ZM63.7242 70.2784H17.273C15.1388 70.2784 13.4021 68.5417 13.4021 66.4075V62.5365H67.5951V66.4075C67.5951 68.5417 65.8584 70.2784 63.7242 70.2784ZM70.0219 34.07C69.3912 31.1709 66.8106 28.9888 63.7242 28.9888H52.0301C52.0779 28.5632 52.1114 28.1334 52.1114 27.6985C52.1114 24.3956 50.6972 21.2378 48.2329 19.0368C45.771 16.8357 42.4651 15.7902 39.1506 16.1618C33.9226 16.7528 29.6473 20.9659 28.9831 26.1785C28.8616 27.1306 28.88 28.069 28.9808 28.989H17.2729C14.1865 28.989 11.6058 31.171 10.9751 34.0702C6.53101 33.5091 3.07946 29.713 3.07946 25.118C3.07946 20.4481 6.72581 16.4977 11.3812 16.1233L12.3208 16.0484L12.535 15.1308C14.1785 8.0963 20.372 3.18279 27.5955 3.18279C33.5633 3.18279 39.0626 6.68625 41.6046 12.1078L42.2187 13.4177L43.4508 12.6579C45.2895 11.5248 47.3915 10.9246 49.5308 10.9246C54.0946 10.9246 58.1176 13.5439 60.0237 17.6302C58.3112 19.6539 57.2726 22.265 57.2726 25.118H59.8532C59.8532 20.1377 63.9062 16.0858 68.8854 16.0858C73.8647 16.0858 77.9176 20.1377 77.9176 25.118C77.9176 29.713 74.4661 33.5089 70.0219 34.07Z" stroke="#1742E7" stroke-width="0.8" mask="url(#path-1-inside-1_922_23634)"></path></svg>