<svg xmlns="http://www.w3.org/2000/svg" width="81" height="80" viewBox="0 0 81 80" fill="none"><mask id="path-1-inside-1_6392_19315" fill="white"><path d="M44.983 21.7476C43.5872 21.4287 42.1647 21.2654 40.7537 21.2654C39.3426 21.2654 37.9187 21.4266 36.5244 21.7476C36.1657 21.8303 35.9129 22.1491 35.9129 22.5151V25.4742C34.6406 25.8946 33.4322 26.4763 32.3103 27.2119L29.9947 25.3654C29.7078 25.1366 29.3004 25.1366 29.0135 25.3654C27.8931 26.2565 26.88 27.2679 26 28.3717C25.1199 29.4748 24.3582 30.6889 23.7388 31.98C23.5791 32.3104 23.6713 32.7083 23.9582 32.937L26.2696 34.7816C25.8042 36.0386 25.5058 37.3465 25.3822 38.6846L22.4964 39.3433C22.1378 39.426 21.8849 39.7427 21.8828 40.1108C21.8807 41.5428 22.0404 42.9668 22.354 44.3421C22.6676 45.7174 23.142 47.0703 23.765 48.3594C23.9246 48.6897 24.2922 48.8662 24.6508 48.7855L27.5366 48.1269C28.2287 49.2735 29.0659 50.3206 30.0324 51.253L28.747 53.921C28.5874 54.2514 28.6774 54.6493 28.9648 54.878C30.0831 55.7712 31.2952 56.535 32.5674 57.1466C33.8396 57.7582 35.1925 58.2314 36.5867 58.5482C36.9453 58.6309 37.3108 58.4524 37.4725 58.122L38.7579 55.454C40.0976 55.6284 41.4186 55.6284 42.7584 55.454L44.0437 58.122C44.1767 58.3995 44.4562 58.5686 44.7531 58.5686C44.8112 58.5686 44.8693 58.5628 44.9274 58.5497C46.3232 58.2325 47.6766 57.7618 48.9467 57.1482C50.2189 56.5367 51.4309 55.7728 52.5493 54.8796C52.8362 54.6508 52.9262 54.2529 52.7671 53.9226L51.4818 51.2546C52.4482 50.3221 53.2849 49.275 53.9775 48.1285L56.8633 48.7871C57.222 48.8677 57.5895 48.6913 57.7492 48.3609C58.3722 47.0719 58.8471 45.7207 59.1601 44.3437C59.4737 42.9683 59.6329 41.5442 59.6313 40.1124C59.6313 39.7448 59.3763 39.4255 59.0177 39.3448L56.1319 38.6862C56.0062 37.3485 55.7099 36.0407 55.2445 34.7831L57.556 32.9386C57.8429 32.7098 57.9329 32.3119 57.7753 31.9816C57.156 30.6905 56.3941 29.4784 55.5141 28.3732C54.634 27.2701 53.6209 26.2586 52.5006 25.3655C52.2137 25.1367 51.8064 25.1367 51.5195 25.3655L49.2038 27.212C48.0798 26.4764 46.8735 25.8947 45.6013 25.4743L45.6002 22.5168C45.5965 22.1493 45.3416 21.8298 44.983 21.7476ZM48.7792 28.8344C49.0661 29.0391 49.453 29.0276 49.7268 28.8082L51.9974 26.9972C52.8341 27.714 53.6 28.5061 54.279 29.3559C54.9565 30.2061 55.5586 31.1291 56.0711 32.1051L53.8047 33.9118C53.5309 34.1311 53.433 34.505 53.568 34.8296C54.1665 36.2725 54.5136 37.7997 54.6 39.3667C54.6188 39.7175 54.8685 40.0138 55.2115 40.0908L58.0412 40.7363C58.0035 41.8379 57.8611 42.93 57.6193 43.9902C57.3774 45.0504 57.0303 46.0954 56.5873 47.1047L53.7596 46.4592C53.4182 46.3801 53.0654 46.5383 52.8947 46.8456C52.1366 48.2136 51.1606 49.4372 49.9921 50.4822C49.7293 50.7168 49.6544 51.0958 49.8063 51.411L51.0654 54.0267C50.1796 54.6832 49.2377 55.2539 48.2582 55.7267C47.2786 56.1995 46.2446 56.5786 45.1791 56.8618L43.92 54.2461C43.787 53.9702 43.509 53.7995 43.2106 53.7995C43.1676 53.7995 43.1226 53.8032 43.0791 53.811C42.3006 53.9424 41.518 54.01 40.7525 54.01C39.9871 54.01 39.2044 53.9424 38.4259 53.811C38.0788 53.7529 37.7374 53.9293 37.5851 54.2461L36.326 56.8618C35.26 56.5801 34.2281 56.1995 33.2469 55.7267C32.2673 55.2555 31.3255 54.6854 30.4397 54.0267L31.6988 51.411C31.8506 51.0937 31.7758 50.7147 31.515 50.4822C30.3459 49.4372 29.3684 48.2136 28.6125 46.8456C28.4418 46.5377 28.091 46.3801 27.7476 46.4592L24.9198 47.1047C24.4769 46.0953 24.1298 45.0503 23.8879 43.9902C23.646 42.93 23.5052 41.8378 23.4659 40.7363L26.2957 40.0908C26.6391 40.0117 26.8889 39.7175 26.9072 39.3667C26.9936 37.7998 27.3407 36.2747 27.9391 34.8296C28.0742 34.505 27.9768 34.1296 27.7025 33.9118L25.436 32.1051C25.9481 31.1292 26.5486 30.2061 27.2282 29.3559C27.9072 28.5056 28.6711 27.714 29.5097 26.9972L31.7803 28.8082C32.0541 29.0276 32.4426 29.0391 32.728 28.8344C34.0059 27.926 35.4148 27.2469 36.9158 26.8156C37.2535 26.7183 37.4865 26.4104 37.4865 26.0575L37.4849 23.155C39.6483 22.7383 41.8535 22.7383 44.0167 23.155V26.0561C44.0167 26.4068 44.2492 26.7168 44.5874 26.8142C46.0916 27.2456 47.5009 27.9267 48.7789 28.8345L48.7792 28.8344Z"></path><path d="M31.6913 39.7879C31.6913 44.7847 35.7577 48.8511 40.7545 48.8511C45.7512 48.8511 49.8177 44.7847 49.8177 39.7879C49.8177 34.7912 45.7512 30.7247 40.7545 30.7247C35.7577 30.7253 31.6913 34.789 31.6913 39.7879ZM48.2412 39.7879C48.2412 43.9162 44.8826 47.2747 40.7545 47.2747C36.6264 47.2747 33.2677 43.916 33.2677 39.7879C33.2677 35.6598 36.6264 32.3012 40.7545 32.3012C44.8826 32.3012 48.2412 35.6582 48.2412 39.7879Z"></path><path d="M37.5591 39.4368C37.2497 39.131 36.7502 39.1326 36.4444 39.4425C36.1387 39.752 36.1403 40.2514 36.4502 40.5572L39.2219 43.3021C39.3758 43.4539 39.5764 43.5309 39.7774 43.5309C39.98 43.5309 40.1811 43.4539 40.3345 43.3L45.4569 38.1775C45.7648 37.8697 45.7648 37.3707 45.4569 37.0629C45.1491 36.755 44.6501 36.755 44.3423 37.0629L39.7754 41.6298L37.5591 39.4368Z"></path><path d="M48.8283 21.6444C48.9445 21.9653 49.2466 22.1643 49.5696 22.1643C49.6597 22.1643 49.7497 22.1491 49.8382 22.1171C50.2471 21.969 50.4591 21.5166 50.311 21.1077L49.3989 18.5931C58.1993 22.104 64.0028 30.5813 64.0028 40.1812C64.0028 53.0008 53.5737 63.4299 40.754 63.4299C36.196 63.4299 31.7829 62.1106 27.9924 59.6169C27.6286 59.3766 27.1406 59.4782 26.9003 59.8421C26.66 60.2059 26.7616 60.6939 27.1254 60.9342C31.1746 63.5986 35.8865 65.0059 40.7522 65.0059C47.3836 65.0059 53.6169 62.4236 58.306 57.7348C62.9952 53.0459 65.5771 46.8124 65.5771 40.1809C65.5771 34.8124 63.8924 29.7052 60.7023 25.4069C58.0154 21.7854 54.4747 19.0101 50.3763 17.2913L52.4626 16.5353C52.8715 16.3871 53.0835 15.9347 52.9354 15.5259C52.7872 15.117 52.3349 14.9049 51.926 15.0531L47.8166 16.5431C47.6198 16.6143 47.4601 16.7609 47.3721 16.9504C47.2842 17.14 47.2748 17.3557 47.346 17.5525L48.8283 21.6444Z"></path><path d="M20.2398 57.52C19.8047 57.52 19.4519 57.8729 19.4519 58.308C19.4519 58.743 19.8047 59.0959 20.2398 59.0959H24.9685C25.4036 59.0959 25.7564 58.743 25.7564 58.308V53.9735C25.7564 53.5384 25.4036 53.1855 24.9685 53.1855C24.5334 53.1855 24.1805 53.5384 24.1805 53.9735V56.4786C19.921 52.1441 17.5063 46.3007 17.5063 40.182C17.5063 27.3623 27.9354 16.9332 40.755 16.9332C42.0382 16.9332 43.3277 17.0385 44.5828 17.2468C45.0105 17.318 45.4178 17.0275 45.489 16.5976C45.5602 16.1678 45.2697 15.7626 44.8398 15.6914C43.4979 15.4699 42.1247 15.3573 40.753 15.3573C34.1216 15.3573 27.8883 17.9395 23.1992 22.6284C18.5112 27.3153 15.9297 33.5507 15.9297 40.1822C15.9297 46.6879 18.4836 52.8988 22.9924 57.5203L20.2398 57.52Z"></path></mask><path d="M44.983 21.7476C43.5872 21.4287 42.1647 21.2654 40.7537 21.2654C39.3426 21.2654 37.9187 21.4266 36.5244 21.7476C36.1657 21.8303 35.9129 22.1491 35.9129 22.5151V25.4742C34.6406 25.8946 33.4322 26.4763 32.3103 27.2119L29.9947 25.3654C29.7078 25.1366 29.3004 25.1366 29.0135 25.3654C27.8931 26.2565 26.88 27.2679 26 28.3717C25.1199 29.4748 24.3582 30.6889 23.7388 31.98C23.5791 32.3104 23.6713 32.7083 23.9582 32.937L26.2696 34.7816C25.8042 36.0386 25.5058 37.3465 25.3822 38.6846L22.4964 39.3433C22.1378 39.426 21.8849 39.7427 21.8828 40.1108C21.8807 41.5428 22.0404 42.9668 22.354 44.3421C22.6676 45.7174 23.142 47.0703 23.765 48.3594C23.9246 48.6897 24.2922 48.8662 24.6508 48.7855L27.5366 48.1269C28.2287 49.2735 29.0659 50.3206 30.0324 51.253L28.747 53.921C28.5874 54.2514 28.6774 54.6493 28.9648 54.878C30.0831 55.7712 31.2952 56.535 32.5674 57.1466C33.8396 57.7582 35.1925 58.2314 36.5867 58.5482C36.9453 58.6309 37.3108 58.4524 37.4725 58.122L38.7579 55.454C40.0976 55.6284 41.4186 55.6284 42.7584 55.454L44.0437 58.122C44.1767 58.3995 44.4562 58.5686 44.7531 58.5686C44.8112 58.5686 44.8693 58.5628 44.9274 58.5497C46.3232 58.2325 47.6766 57.7618 48.9467 57.1482C50.2189 56.5367 51.4309 55.7728 52.5493 54.8796C52.8362 54.6508 52.9262 54.2529 52.7671 53.9226L51.4818 51.2546C52.4482 50.3221 53.2849 49.275 53.9775 48.1285L56.8633 48.7871C57.222 48.8677 57.5895 48.6913 57.7492 48.3609C58.3722 47.0719 58.8471 45.7207 59.1601 44.3437C59.4737 42.9683 59.6329 41.5442 59.6313 40.1124C59.6313 39.7448 59.3763 39.4255 59.0177 39.3448L56.1319 38.6862C56.0062 37.3485 55.7099 36.0407 55.2445 34.7831L57.556 32.9386C57.8429 32.7098 57.9329 32.3119 57.7753 31.9816C57.156 30.6905 56.3941 29.4784 55.5141 28.3732C54.634 27.2701 53.6209 26.2586 52.5006 25.3655C52.2137 25.1367 51.8064 25.1367 51.5195 25.3655L49.2038 27.212C48.0798 26.4764 46.8735 25.8947 45.6013 25.4743L45.6002 22.5168C45.5965 22.1493 45.3416 21.8298 44.983 21.7476ZM48.7792 28.8344C49.0661 29.0391 49.453 29.0276 49.7268 28.8082L51.9974 26.9972C52.8341 27.714 53.6 28.5061 54.279 29.3559C54.9565 30.2061 55.5586 31.1291 56.0711 32.1051L53.8047 33.9118C53.5309 34.1311 53.433 34.505 53.568 34.8296C54.1665 36.2725 54.5136 37.7997 54.6 39.3667C54.6188 39.7175 54.8685 40.0138 55.2115 40.0908L58.0412 40.7363C58.0035 41.8379 57.8611 42.93 57.6193 43.9902C57.3774 45.0504 57.0303 46.0954 56.5873 47.1047L53.7596 46.4592C53.4182 46.3801 53.0654 46.5383 52.8947 46.8456C52.1366 48.2136 51.1606 49.4372 49.9921 50.4822C49.7293 50.7168 49.6544 51.0958 49.8063 51.411L51.0654 54.0267C50.1796 54.6832 49.2377 55.2539 48.2582 55.7267C47.2786 56.1995 46.2446 56.5786 45.1791 56.8618L43.92 54.2461C43.787 53.9702 43.509 53.7995 43.2106 53.7995C43.1676 53.7995 43.1226 53.8032 43.0791 53.811C42.3006 53.9424 41.518 54.01 40.7525 54.01C39.9871 54.01 39.2044 53.9424 38.4259 53.811C38.0788 53.7529 37.7374 53.9293 37.5851 54.2461L36.326 56.8618C35.26 56.5801 34.2281 56.1995 33.2469 55.7267C32.2673 55.2555 31.3255 54.6854 30.4397 54.0267L31.6988 51.411C31.8506 51.0937 31.7758 50.7147 31.515 50.4822C30.3459 49.4372 29.3684 48.2136 28.6125 46.8456C28.4418 46.5377 28.091 46.3801 27.7476 46.4592L24.9198 47.1047C24.4769 46.0953 24.1298 45.0503 23.8879 43.9902C23.646 42.93 23.5052 41.8378 23.4659 40.7363L26.2957 40.0908C26.6391 40.0117 26.8889 39.7175 26.9072 39.3667C26.9936 37.7998 27.3407 36.2747 27.9391 34.8296C28.0742 34.505 27.9768 34.1296 27.7025 33.9118L25.436 32.1051C25.9481 31.1292 26.5486 30.2061 27.2282 29.3559C27.9072 28.5056 28.6711 27.714 29.5097 26.9972L31.7803 28.8082C32.0541 29.0276 32.4426 29.0391 32.728 28.8344C34.0059 27.926 35.4148 27.2469 36.9158 26.8156C37.2535 26.7183 37.4865 26.4104 37.4865 26.0575L37.4849 23.155C39.6483 22.7383 41.8535 22.7383 44.0167 23.155V26.0561C44.0167 26.4068 44.2492 26.7168 44.5874 26.8142C46.0916 27.2456 47.5009 27.9267 48.7789 28.8345L48.7792 28.8344Z" fill="#1742E7"></path><path d="M31.6913 39.7879C31.6913 44.7847 35.7577 48.8511 40.7545 48.8511C45.7512 48.8511 49.8177 44.7847 49.8177 39.7879C49.8177 34.7912 45.7512 30.7247 40.7545 30.7247C35.7577 30.7253 31.6913 34.789 31.6913 39.7879ZM48.2412 39.7879C48.2412 43.9162 44.8826 47.2747 40.7545 47.2747C36.6264 47.2747 33.2677 43.916 33.2677 39.7879C33.2677 35.6598 36.6264 32.3012 40.7545 32.3012C44.8826 32.3012 48.2412 35.6582 48.2412 39.7879Z" fill="#1742E7"></path><path d="M37.5591 39.4368C37.2497 39.131 36.7502 39.1326 36.4444 39.4425C36.1387 39.752 36.1403 40.2514 36.4502 40.5572L39.2219 43.3021C39.3758 43.4539 39.5764 43.5309 39.7774 43.5309C39.98 43.5309 40.1811 43.4539 40.3345 43.3L45.4569 38.1775C45.7648 37.8697 45.7648 37.3707 45.4569 37.0629C45.1491 36.755 44.6501 36.755 44.3423 37.0629L39.7754 41.6298L37.5591 39.4368Z" fill="#1742E7"></path><path d="M48.8283 21.6444C48.9445 21.9653 49.2466 22.1643 49.5696 22.1643C49.6597 22.1643 49.7497 22.1491 49.8382 22.1171C50.2471 21.969 50.4591 21.5166 50.311 21.1077L49.3989 18.5931C58.1993 22.104 64.0028 30.5813 64.0028 40.1812C64.0028 53.0008 53.5737 63.4299 40.754 63.4299C36.196 63.4299 31.7829 62.1106 27.9924 59.6169C27.6286 59.3766 27.1406 59.4782 26.9003 59.8421C26.66 60.2059 26.7616 60.6939 27.1254 60.9342C31.1746 63.5986 35.8865 65.0059 40.7522 65.0059C47.3836 65.0059 53.6169 62.4236 58.306 57.7348C62.9952 53.0459 65.5771 46.8124 65.5771 40.1809C65.5771 34.8124 63.8924 29.7052 60.7023 25.4069C58.0154 21.7854 54.4747 19.0101 50.3763 17.2913L52.4626 16.5353C52.8715 16.3871 53.0835 15.9347 52.9354 15.5259C52.7872 15.117 52.3349 14.9049 51.926 15.0531L47.8166 16.5431C47.6198 16.6143 47.4601 16.7609 47.3721 16.9504C47.2842 17.14 47.2748 17.3557 47.346 17.5525L48.8283 21.6444Z" fill="#1742E7"></path><path d="M20.2398 57.52C19.8047 57.52 19.4519 57.8729 19.4519 58.308C19.4519 58.743 19.8047 59.0959 20.2398 59.0959H24.9685C25.4036 59.0959 25.7564 58.743 25.7564 58.308V53.9735C25.7564 53.5384 25.4036 53.1855 24.9685 53.1855C24.5334 53.1855 24.1805 53.5384 24.1805 53.9735V56.4786C19.921 52.1441 17.5063 46.3007 17.5063 40.182C17.5063 27.3623 27.9354 16.9332 40.755 16.9332C42.0382 16.9332 43.3277 17.0385 44.5828 17.2468C45.0105 17.318 45.4178 17.0275 45.489 16.5976C45.5602 16.1678 45.2697 15.7626 44.8398 15.6914C43.4979 15.4699 42.1247 15.3573 40.753 15.3573C34.1216 15.3573 27.8883 17.9395 23.1992 22.6284C18.5112 27.3153 15.9297 33.5507 15.9297 40.1822C15.9297 46.6879 18.4836 52.8988 22.9924 57.5203L20.2398 57.52Z" fill="#1742E7"></path><path d="M44.983 21.7476C43.5872 21.4287 42.1647 21.2654 40.7537 21.2654C39.3426 21.2654 37.9187 21.4266 36.5244 21.7476C36.1657 21.8303 35.9129 22.1491 35.9129 22.5151V25.4742C34.6406 25.8946 33.4322 26.4763 32.3103 27.2119L29.9947 25.3654C29.7078 25.1366 29.3004 25.1366 29.0135 25.3654C27.8931 26.2565 26.88 27.2679 26 28.3717C25.1199 29.4748 24.3582 30.6889 23.7388 31.98C23.5791 32.3104 23.6713 32.7083 23.9582 32.937L26.2696 34.7816C25.8042 36.0386 25.5058 37.3465 25.3822 38.6846L22.4964 39.3433C22.1378 39.426 21.8849 39.7427 21.8828 40.1108C21.8807 41.5428 22.0404 42.9668 22.354 44.3421C22.6676 45.7174 23.142 47.0703 23.765 48.3594C23.9246 48.6897 24.2922 48.8662 24.6508 48.7855L27.5366 48.1269C28.2287 49.2735 29.0659 50.3206 30.0324 51.253L28.747 53.921C28.5874 54.2514 28.6774 54.6493 28.9648 54.878C30.0831 55.7712 31.2952 56.535 32.5674 57.1466C33.8396 57.7582 35.1925 58.2314 36.5867 58.5482C36.9453 58.6309 37.3108 58.4524 37.4725 58.122L38.7579 55.454C40.0976 55.6284 41.4186 55.6284 42.7584 55.454L44.0437 58.122C44.1767 58.3995 44.4562 58.5686 44.7531 58.5686C44.8112 58.5686 44.8693 58.5628 44.9274 58.5497C46.3232 58.2325 47.6766 57.7618 48.9467 57.1482C50.2189 56.5367 51.4309 55.7728 52.5493 54.8796C52.8362 54.6508 52.9262 54.2529 52.7671 53.9226L51.4818 51.2546C52.4482 50.3221 53.2849 49.275 53.9775 48.1285L56.8633 48.7871C57.222 48.8677 57.5895 48.6913 57.7492 48.3609C58.3722 47.0719 58.8471 45.7207 59.1601 44.3437C59.4737 42.9683 59.6329 41.5442 59.6313 40.1124C59.6313 39.7448 59.3763 39.4255 59.0177 39.3448L56.1319 38.6862C56.0062 37.3485 55.7099 36.0407 55.2445 34.7831L57.556 32.9386C57.8429 32.7098 57.9329 32.3119 57.7753 31.9816C57.156 30.6905 56.3941 29.4784 55.5141 28.3732C54.634 27.2701 53.6209 26.2586 52.5006 25.3655C52.2137 25.1367 51.8064 25.1367 51.5195 25.3655L49.2038 27.212C48.0798 26.4764 46.8735 25.8947 45.6013 25.4743L45.6002 22.5168C45.5965 22.1493 45.3416 21.8298 44.983 21.7476ZM48.7792 28.8344C49.0661 29.0391 49.453 29.0276 49.7268 28.8082L51.9974 26.9972C52.8341 27.714 53.6 28.5061 54.279 29.3559C54.9565 30.2061 55.5586 31.1291 56.0711 32.1051L53.8047 33.9118C53.5309 34.1311 53.433 34.505 53.568 34.8296C54.1665 36.2725 54.5136 37.7997 54.6 39.3667C54.6188 39.7175 54.8685 40.0138 55.2115 40.0908L58.0412 40.7363C58.0035 41.8379 57.8611 42.93 57.6193 43.9902C57.3774 45.0504 57.0303 46.0954 56.5873 47.1047L53.7596 46.4592C53.4182 46.3801 53.0654 46.5383 52.8947 46.8456C52.1366 48.2136 51.1606 49.4372 49.9921 50.4822C49.7293 50.7168 49.6544 51.0958 49.8063 51.411L51.0654 54.0267C50.1796 54.6832 49.2377 55.2539 48.2582 55.7267C47.2786 56.1995 46.2446 56.5786 45.1791 56.8618L43.92 54.2461C43.787 53.9702 43.509 53.7995 43.2106 53.7995C43.1676 53.7995 43.1226 53.8032 43.0791 53.811C42.3006 53.9424 41.518 54.01 40.7525 54.01C39.9871 54.01 39.2044 53.9424 38.4259 53.811C38.0788 53.7529 37.7374 53.9293 37.5851 54.2461L36.326 56.8618C35.26 56.5801 34.2281 56.1995 33.2469 55.7267C32.2673 55.2555 31.3255 54.6854 30.4397 54.0267L31.6988 51.411C31.8506 51.0937 31.7758 50.7147 31.515 50.4822C30.3459 49.4372 29.3684 48.2136 28.6125 46.8456C28.4418 46.5377 28.091 46.3801 27.7476 46.4592L24.9198 47.1047C24.4769 46.0953 24.1298 45.0503 23.8879 43.9902C23.646 42.93 23.5052 41.8378 23.4659 40.7363L26.2957 40.0908C26.6391 40.0117 26.8889 39.7175 26.9072 39.3667C26.9936 37.7998 27.3407 36.2747 27.9391 34.8296C28.0742 34.505 27.9768 34.1296 27.7025 33.9118L25.436 32.1051C25.9481 31.1292 26.5486 30.2061 27.2282 29.3559C27.9072 28.5056 28.6711 27.714 29.5097 26.9972L31.7803 28.8082C32.0541 29.0276 32.4426 29.0391 32.728 28.8344C34.0059 27.926 35.4148 27.2469 36.9158 26.8156C37.2535 26.7183 37.4865 26.4104 37.4865 26.0575L37.4849 23.155C39.6483 22.7383 41.8535 22.7383 44.0167 23.155V26.0561C44.0167 26.4068 44.2492 26.7168 44.5874 26.8142C46.0916 27.2456 47.5009 27.9267 48.7789 28.8345L48.7792 28.8344Z" stroke="#1742E7" stroke-width="0.5" mask="url(#path-1-inside-1_6392_19315)"></path><path d="M31.6913 39.7879C31.6913 44.7847 35.7577 48.8511 40.7545 48.8511C45.7512 48.8511 49.8177 44.7847 49.8177 39.7879C49.8177 34.7912 45.7512 30.7247 40.7545 30.7247C35.7577 30.7253 31.6913 34.789 31.6913 39.7879ZM48.2412 39.7879C48.2412 43.9162 44.8826 47.2747 40.7545 47.2747C36.6264 47.2747 33.2677 43.916 33.2677 39.7879C33.2677 35.6598 36.6264 32.3012 40.7545 32.3012C44.8826 32.3012 48.2412 35.6582 48.2412 39.7879Z" stroke="#1742E7" stroke-width="0.5" mask="url(#path-1-inside-1_6392_19315)"></path><path d="M37.5591 39.4368C37.2497 39.131 36.7502 39.1326 36.4444 39.4425C36.1387 39.752 36.1403 40.2514 36.4502 40.5572L39.2219 43.3021C39.3758 43.4539 39.5764 43.5309 39.7774 43.5309C39.98 43.5309 40.1811 43.4539 40.3345 43.3L45.4569 38.1775C45.7648 37.8697 45.7648 37.3707 45.4569 37.0629C45.1491 36.755 44.6501 36.755 44.3423 37.0629L39.7754 41.6298L37.5591 39.4368Z" stroke="#1742E7" stroke-width="0.5" mask="url(#path-1-inside-1_6392_19315)"></path><path d="M48.8283 21.6444C48.9445 21.9653 49.2466 22.1643 49.5696 22.1643C49.6597 22.1643 49.7497 22.1491 49.8382 22.1171C50.2471 21.969 50.4591 21.5166 50.311 21.1077L49.3989 18.5931C58.1993 22.104 64.0028 30.5813 64.0028 40.1812C64.0028 53.0008 53.5737 63.4299 40.754 63.4299C36.196 63.4299 31.7829 62.1106 27.9924 59.6169C27.6286 59.3766 27.1406 59.4782 26.9003 59.8421C26.66 60.2059 26.7616 60.6939 27.1254 60.9342C31.1746 63.5986 35.8865 65.0059 40.7522 65.0059C47.3836 65.0059 53.6169 62.4236 58.306 57.7348C62.9952 53.0459 65.5771 46.8124 65.5771 40.1809C65.5771 34.8124 63.8924 29.7052 60.7023 25.4069C58.0154 21.7854 54.4747 19.0101 50.3763 17.2913L52.4626 16.5353C52.8715 16.3871 53.0835 15.9347 52.9354 15.5259C52.7872 15.117 52.3349 14.9049 51.926 15.0531L47.8166 16.5431C47.6198 16.6143 47.4601 16.7609 47.3721 16.9504C47.2842 17.14 47.2748 17.3557 47.346 17.5525L48.8283 21.6444Z" stroke="#1742E7" stroke-width="0.5" mask="url(#path-1-inside-1_6392_19315)"></path><path d="M20.2398 57.52C19.8047 57.52 19.4519 57.8729 19.4519 58.308C19.4519 58.743 19.8047 59.0959 20.2398 59.0959H24.9685C25.4036 59.0959 25.7564 58.743 25.7564 58.308V53.9735C25.7564 53.5384 25.4036 53.1855 24.9685 53.1855C24.5334 53.1855 24.1805 53.5384 24.1805 53.9735V56.4786C19.921 52.1441 17.5063 46.3007 17.5063 40.182C17.5063 27.3623 27.9354 16.9332 40.755 16.9332C42.0382 16.9332 43.3277 17.0385 44.5828 17.2468C45.0105 17.318 45.4178 17.0275 45.489 16.5976C45.5602 16.1678 45.2697 15.7626 44.8398 15.6914C43.4979 15.4699 42.1247 15.3573 40.753 15.3573C34.1216 15.3573 27.8883 17.9395 23.1992 22.6284C18.5112 27.3153 15.9297 33.5507 15.9297 40.1822C15.9297 46.6879 18.4836 52.8988 22.9924 57.5203L20.2398 57.52Z" stroke="#1742E7" stroke-width="0.5" mask="url(#path-1-inside-1_6392_19315)"></path></svg>