<svg xmlns="http://www.w3.org/2000/svg" width="81" height="81" viewBox="0 0 81 81" fill="none"><path fill-rule="evenodd" clip-rule="evenodd" d="M26.1817 51.8585H24.9808C19.2181 51.8585 14.5488 47.2513 14.5488 41.587C14.5488 35.9227 19.2182 31.3155 24.9808 31.3155C25.3785 31.3155 25.7702 31.3377 26.1568 31.3806C26.0559 30.7306 26.0036 30.0659 26.0036 29.3892C26.0036 22.1713 31.9563 16.3027 39.2994 16.3027C46.642 16.3027 52.5951 22.171 52.5951 29.3892C52.5951 29.4623 52.5939 29.5353 52.5931 29.6079C53.2357 29.4968 53.8969 29.4392 54.5724 29.4392C60.8614 29.4392 65.9586 34.4666 65.9586 40.6484C65.9586 40.9285 65.9479 41.2059 65.9277 41.4797C65.8913 41.9694 65.4659 42.3365 64.9772 42.3C64.4897 42.2635 64.1229 41.8361 64.1601 41.3472C64.1771 41.1163 64.1858 40.8833 64.1858 40.6484C64.1858 35.4377 59.8735 31.2166 54.5722 31.2166C53.6364 31.2166 52.7322 31.3472 51.8767 31.5924C51.5922 31.6741 51.2863 31.6075 51.0603 31.4166C50.8352 31.2245 50.7193 30.9329 50.7529 30.6388C50.798 30.2281 50.8221 29.811 50.8221 29.3888C50.8221 23.1428 45.6542 18.0801 39.2992 18.0801C32.9446 18.0801 27.7762 23.1424 27.7762 29.3888C27.7762 30.3781 27.9056 31.3372 28.1494 32.2519C28.2297 32.5551 28.1446 32.8789 27.9258 33.1035C27.707 33.3277 27.3869 33.419 27.0822 33.3456C26.4091 33.1801 25.7055 33.0928 24.9806 33.0928C20.2064 33.0928 16.3214 36.894 16.3214 41.5864C16.3214 46.2797 20.2065 50.0805 24.9806 50.0805H26.0716C26.0716 42.2308 32.4262 35.8582 40.2537 35.8582C48.0812 35.8582 54.4358 42.2308 54.4358 50.0805H54.5723C58.5218 50.0805 61.9214 47.7384 63.3997 44.3872C63.5984 43.9384 64.1223 43.7356 64.5691 43.9336C65.0166 44.1328 65.2196 44.6582 65.0209 45.1063C63.2704 49.0753 59.2495 51.8583 54.5728 51.8583H54.3263C53.4526 58.8698 47.481 64.3027 40.2546 64.3027C33.027 64.3027 27.0551 58.8698 26.1829 51.8583L26.1817 51.8585ZM40.2534 37.6362C33.4045 37.6362 27.844 43.2125 27.844 50.0807C27.844 56.9489 33.4045 62.5252 40.2534 62.5252C47.1022 62.5252 52.6627 56.9489 52.6627 50.0807C52.6627 43.2125 47.1022 37.6362 40.2534 37.6362ZM40.2534 52.7474C40.7417 52.7474 41.1398 52.349 41.1398 51.8585C41.1398 51.368 40.7417 50.9696 40.2534 50.9696C38.7845 50.9696 37.5942 49.776 37.5942 48.3029C37.5942 47.1422 38.3342 46.1537 39.367 45.7882V44.7474C39.367 44.2569 39.7643 43.8585 40.2534 43.8585C40.7417 43.8585 41.1398 44.2569 41.1398 44.7474V45.6363H42.0261C42.5152 45.6363 42.9125 46.0347 42.9125 46.5252C42.9125 47.0156 42.5152 47.414 42.0261 47.414H40.2534C39.7643 47.414 39.367 47.8125 39.367 48.3029C39.367 48.7934 39.7643 49.1918 40.2534 49.1918C41.7222 49.1918 42.9125 50.3855 42.9125 51.8585C42.9125 53.0192 42.1725 54.0069 41.1398 54.3732V55.4141C41.1398 55.9045 40.7417 56.3029 40.2534 56.3029C39.7643 56.3029 39.367 55.9045 39.367 55.4141V54.5252H38.4806C37.9915 54.5252 37.5942 54.1268 37.5942 53.6363C37.5942 53.1458 37.9915 52.7474 38.4806 52.7474H40.2534ZM45.57 42.9696C45.1791 42.6755 45.0999 42.1172 45.3935 41.7251C45.6876 41.3331 46.2435 41.2541 46.6353 41.549C49.2181 43.4958 50.8899 46.5934 50.8899 50.0807C50.8899 55.968 46.124 60.7474 40.2533 60.7474C34.3827 60.7474 29.6168 55.968 29.6168 50.0807C29.6168 44.1934 34.3827 39.414 40.2533 39.414C41.2869 39.414 42.2869 39.5624 43.2314 39.839C43.7015 39.9759 43.9718 40.4699 43.8344 40.941C43.6979 41.4124 43.2049 41.6823 42.7351 41.5458C41.9481 41.3152 41.1147 41.1918 40.2533 41.1918C35.3611 41.1918 31.3895 45.1747 31.3895 50.0807C31.3895 54.9867 35.3611 58.9696 40.2533 58.9696C45.1454 58.9696 49.1171 54.9867 49.1171 50.0807C49.1171 47.1748 47.7227 44.5927 45.57 42.9696Z" fill="#1742E7"></path></svg>