<svg xmlns="http://www.w3.org/2000/svg" width="81" height="80" viewBox="0 0 81 80" fill="none"><path d="M68.3344 55.3078H65.6655L65.6651 17.5862C65.6651 16.1629 64.5085 15.0063 63.0852 15.0063L17.4451 15.0059C16.0218 15.0059 14.8651 16.1625 14.8651 17.5858V55.3084H13.1748C12.6411 55.3084 12.2852 55.6643 12.2852 56.198C12.2852 61.0021 16.1996 65.0059 21.0929 65.0059H60.4166C65.31 65.0059 69.2244 61.0914 69.2244 56.198C69.2244 55.7536 68.8685 55.3084 68.3348 55.3084L68.3344 55.3078ZM16.6442 17.5862C16.6442 17.1414 17.0001 16.7855 17.445 16.7855H62.997C63.4418 16.7855 63.7977 17.1414 63.7977 17.5862V55.3088L16.6446 55.3084L16.6442 17.5862ZM60.4158 63.2264H21.0921C17.5336 63.2264 14.5977 60.5576 14.1524 57.0875H67.4438C66.9101 60.5576 63.9741 63.2264 60.4157 63.2264H60.4158Z" fill="#1742E7"></path><path d="M50.808 29.5072C50.0072 17.3188 31.7695 17.496 30.8793 29.4183C27.2315 29.2405 23.5841 32.2653 23.5841 36.4468C23.5841 40.2724 26.6978 43.4754 30.6126 43.4754H33.1926V49.9699H29.1C28.5663 49.9699 28.2104 50.3258 28.2104 50.8595C28.2104 51.3932 28.5663 51.7491 29.1 51.7491H34.0823C34.616 51.7491 34.9719 51.3932 34.9719 50.8595V35.7352C34.9719 35.2015 34.616 34.8456 34.0823 34.8456C33.5486 34.8456 33.1926 35.2015 33.1926 35.7352V41.7848H30.6127C27.6768 41.7848 25.3635 39.4715 25.3635 36.5356C25.3635 33.0659 28.6554 30.6637 31.5024 31.3756C31.7694 31.4644 32.0361 31.3756 32.3031 31.1978C32.4809 31.02 32.6591 30.753 32.6591 30.4859C32.4809 19.4541 49.029 19.365 49.029 30.3082C49.029 30.8419 49.3849 31.1978 49.9186 31.1978C52.8545 31.1978 55.1678 33.5111 55.1678 36.447C55.1678 39.2941 52.8545 41.6963 49.9186 41.6963H47.3386V35.6467C47.3386 35.113 46.9827 34.7571 46.449 34.7571C45.9153 34.7571 45.5594 35.113 45.5594 35.6467V50.8601C45.5594 51.3938 45.9153 51.7497 46.449 51.7497L51.4309 51.7493C51.9646 51.7493 52.3205 51.3934 52.3205 50.8597C52.3205 50.326 51.9646 49.9701 51.4309 49.9701H47.3383V43.4755H49.9182C53.8327 43.4755 56.9468 40.3619 56.9468 36.447C56.9472 32.8881 54.2779 29.9522 50.8082 29.5073L50.808 29.5072Z" fill="#1742E7"></path><path d="M40.2208 34.8453C39.6871 34.8453 39.3312 35.2013 39.3312 35.735V50.9484C39.3312 51.4821 39.6871 51.838 40.2208 51.838C40.7545 51.838 41.1104 51.4821 41.1104 50.9484V35.735C41.1104 35.2013 40.7545 34.8453 40.2208 34.8453Z" fill="#1742E7"></path><path d="M44.6687 59.3111H36.7505C36.2168 59.3111 35.8609 59.6671 35.8609 60.2008C35.8609 60.7345 36.2168 61.0904 36.7505 61.0904H44.6687C45.2024 61.0904 45.5583 60.7345 45.5583 60.2008C45.5583 59.6671 45.2028 59.3111 44.6687 59.3111Z" fill="#1742E7"></path></svg>