<svg xmlns="http://www.w3.org/2000/svg" width="81" height="80" viewBox="0 0 81 80" fill="none"><path d="M44.1107 42.0621L44.0487 42.0134L43.6169 41.6744L44.1107 42.0621ZM44.1107 42.0621L44.1842 42.0336L44.6968 41.8349L44.6468 41.7057M44.1107 42.0621L44.6468 41.7057M44.6468 41.7057L44.6968 41.8349C45.6583 41.462 46.68 41.2703 47.7109 41.2696L47.7112 41.2697H47.7394C50.009 41.2697 52.1825 42.1841 53.77 43.8063C55.3571 45.4284 56.2239 47.6215 56.1749 49.8904C56.1259 52.1592 55.1648 54.3128 53.5088 55.8643L53.506 55.8668L52.942 56.3495C51.4549 57.5083 49.6245 58.14 47.739 58.1452H30.4147C28.7425 58.1452 27.1778 57.3229 26.2292 55.9456C25.281 54.5688 25.071 52.8133 25.6671 51.2509C26.2635 49.6889 27.5898 48.5204 29.2146 48.1256L29.2524 48.1165L29.2528 48.1161L29.8557 47.9695L29.948 47.9471L29.9603 47.853L30.0463 47.1985L30.0463 47.1982C30.2909 45.3043 31.1784 43.5513 32.5608 42.2334L32.5613 42.233C34.0275 40.8231 35.9532 39.9904 37.9848 39.8879L37.9848 39.8879M44.6468 41.7057L37.9848 39.8879M37.9848 39.8879C40.0163 39.785 42.0162 40.4197 43.6168 41.6744L37.9848 39.8879ZM52.212 54.4058L52.2257 54.4305L51.7302 54.8546L51.7248 54.8592L51.7247 54.8591C50.5825 55.7398 49.1815 56.2183 47.7394 56.2204H47.7392H30.4146H30.4145V56.0819L52.212 54.4058ZM52.212 54.4058L52.2309 54.4256C53.4946 53.2216 54.2221 51.5602 54.2503 49.8151C54.2789 48.0696 53.6052 46.3859 52.3813 45.1413L52.2826 45.2384L52.3813 45.1413C51.1571 43.8968 49.4851 43.1958 47.7393 43.1948C47.7392 43.1948 47.7391 43.1948 47.7389 43.1948L47.7389 43.3333L52.212 54.4058ZM31.9543 47.4502L31.9544 47.4498C32.1644 45.8866 32.9342 44.4523 34.1213 43.4136L34.1213 43.4135C35.3086 42.3753 36.8321 41.8026 38.4094 41.8023H38.4096C39.8666 41.8036 41.2809 42.2916 42.4286 43.1889L42.4287 43.189L43.786 44.2535L31.9543 47.4502ZM31.9543 47.4502L31.6844 49.5057L29.6694 49.9966L31.9543 47.4502ZM64.8953 58.2669C64.9817 58.2778 65.0689 58.2831 65.156 58.2831C65.5441 58.2831 65.9245 58.176 66.2558 57.9741C66.5871 57.7722 66.8568 57.483 67.0344 57.1383L64.8953 58.2669ZM64.8953 58.2669L62.1249 57.9193C61.5693 57.85 61.0641 57.5625 60.7206 57.1205C60.3772 56.6785 60.2239 56.1177 60.2944 55.5625L64.8953 58.2669ZM68.202 46.6451L68.2123 46.6887C69.0428 50.1939 68.581 53.8816 66.9117 57.0742L66.9113 57.0749C66.7454 57.3969 66.4934 57.6671 66.1837 57.8559C65.8741 58.0446 65.5186 58.1446 65.156 58.1446C65.0744 58.1446 64.9931 58.1397 64.9127 58.1295L64.9125 58.1295L62.1421 57.782L62.142 57.7819C61.623 57.7172 61.1509 57.4485 60.83 57.0355C60.5091 56.6226 60.3659 56.0987 60.4318 55.58L60.4322 55.577L61.5862 44.5795L61.587 44.5721L61.587 44.5646C61.5719 39.0491 59.3703 33.7652 55.4649 29.8703C51.5596 25.976 46.2694 23.7892 40.7539 23.7892C35.2384 23.7892 29.9483 25.9759 26.0429 29.8703L26.0429 29.8703C22.1375 33.7652 19.936 39.0492 19.9209 44.5646L19.9209 44.5721L19.9216 44.5795L21.0786 55.5988L21.0787 55.6003C21.1386 56.1163 20.992 56.6349 20.6711 57.0438C20.3502 57.4522 19.8808 57.7174 19.3651 57.7814L19.3649 57.7815L16.5953 58.129L16.5952 58.129C16.194 58.1797 15.7871 58.1055 15.4294 57.9168C15.0717 57.7281 14.7812 57.4342 14.5967 57.0746L14.5962 57.0737C12.9267 53.8816 12.4651 50.1944 13.2956 46.6892L13.2957 46.6884C13.384 46.3061 13.5841 45.9586 13.8706 45.6903C14.1571 45.4223 14.5167 45.2454 14.9038 45.1829L14.9039 45.1833L14.9145 45.1808L15.5289 45.0311L15.5291 45.0311C16.0451 44.9045 16.5658 45.2207 16.692 45.7368C16.8182 46.2534 16.5023 46.7741 15.9859 46.9003L15.9858 46.9003L15.2591 47.0783L15.1768 47.0984L15.1573 47.1809C14.442 50.2043 14.8404 53.3847 16.2796 56.1384L16.4065 56.1072L16.4196 56.2112L18.7542 55.9182L18.7534 55.9192L19.1143 55.874L19.1273 55.8723L19.2671 55.8548L19.2472 55.7154L19.2456 55.704L19.2029 55.4054L19.1313 55.4873L17.9953 44.6148C17.9882 41.6276 18.573 38.6685 19.7164 35.9086C20.8606 33.1466 22.5416 30.6394 24.6616 28.5315L24.6619 28.5312C27.8449 25.3484 31.9 23.1807 36.3142 22.3025C40.7291 21.4242 45.3049 21.8749 49.4636 23.5971C53.6218 25.3193 57.1764 28.2362 59.6769 31.9789L59.7921 31.902L59.6769 31.9789C62.1772 35.7208 63.5117 40.1197 63.5128 44.6195L63.5071 44.7274L62.3513 55.7318L62.3372 55.8667L62.4718 55.8836L65.0885 56.2121L65.184 56.2241L65.2285 56.1388C66.6676 53.3852 67.066 50.2051 66.3508 47.1814L66.3313 47.0989L66.249 47.0787L65.5223 46.9007L65.5222 46.9007C65.0058 46.7746 64.6899 46.2539 64.8161 45.7373C64.8767 45.4895 65.0334 45.2757 65.2514 45.1436L65.2515 45.1435C65.4693 45.011 65.7313 44.9709 65.9791 45.0315L65.9793 45.0316L66.5936 45.1812L66.5935 45.1816L66.6043 45.1834C66.9915 45.2459 67.3511 45.4224 67.6375 45.6907L67.6376 45.6908C67.9133 45.9486 68.1089 46.2797 68.202 46.6451Z" fill="#1742E7" stroke="white" stroke-width="0.276948"></path></svg>