<svg xmlns="http://www.w3.org/2000/svg" width="81" height="81" viewBox="0 0 81 81" fill="none"><mask id="path-1-inside-1_6352_1740" fill="white"><path d="M32.449 26.8072C32.1561 26.5134 32.1561 26.0365 32.449 25.7427C34.5339 23.6511 37.3061 22.4989 40.2544 22.4989C43.2028 22.4989 45.9746 23.6511 48.0598 25.7427C48.3527 26.0365 48.3527 26.5134 48.0598 26.8072C47.913 26.9545 47.7211 27.0282 47.5292 27.0282C47.3374 27.0282 47.1448 26.9545 46.9987 26.8072C43.2798 23.0764 37.23 23.0764 33.5105 26.8072C33.2169 27.1018 32.7415 27.1018 32.4486 26.8072H32.449ZM40.2544 25.2515C38.0387 25.2515 35.9556 26.1171 34.3889 27.6888C34.096 27.9826 34.096 28.4595 34.3889 28.7533C34.6818 29.0472 35.1571 29.0472 35.45 28.7533C36.7332 27.466 38.4395 26.7572 40.2537 26.7572C42.0682 26.7572 43.7748 27.466 45.0573 28.7533C45.2041 28.9006 45.396 28.9743 45.5879 28.9743C45.7798 28.9743 45.9724 28.9006 46.1185 28.7533C46.4114 28.4595 46.4114 27.9826 46.1185 27.6888C44.5533 26.117 42.4701 25.2515 40.2544 25.2515ZM40.2544 28.0038C38.7716 28.0038 37.3772 28.5831 36.3288 29.6352C36.0359 29.9291 36.0359 30.406 36.3288 30.6998C36.4756 30.8471 36.6675 30.9207 36.8594 30.9207C37.0513 30.9207 37.2439 30.8471 37.39 30.6998C38.155 29.9323 39.1718 29.5094 40.2537 29.5094C41.3356 29.5094 42.3525 29.9323 43.1181 30.6998C43.411 30.9936 43.8864 30.9936 44.1793 30.6998C44.4722 30.4059 44.4722 29.9291 44.1793 29.6352C43.1315 28.5827 41.7372 28.0038 40.2544 28.0038ZM42.4462 32.9552C42.4462 34.1674 41.4628 35.154 40.2544 35.154C39.046 35.154 38.0626 34.1679 38.0626 32.9552C38.0626 31.7422 39.046 30.7563 40.2544 30.7563C41.4627 30.756 42.4462 31.7421 42.4462 32.9552ZM40.9449 32.9552C40.9449 32.5727 40.6349 32.2625 40.2544 32.2625C39.8739 32.2625 39.5639 32.5735 39.5639 32.9552C39.5639 33.3376 39.8739 33.6479 40.2544 33.6479C40.6349 33.6479 40.9449 33.3369 40.9449 32.9552ZM41.0053 57.6214V59.5846H42.787C43.5695 59.5846 44.2066 60.2238 44.2066 61.0087V61.1906H58.6372C59.0518 61.1906 59.388 61.5279 59.388 61.9439C59.388 62.3599 59.0518 62.6971 58.6372 62.6971L44.2066 62.6967V62.8787C44.2066 63.6636 43.5695 64.3027 42.787 64.3027H37.7222C36.9397 64.3027 36.3026 63.6636 36.3026 62.8787V62.6967H21.8711C21.4565 62.6967 21.1203 62.3595 21.1203 61.9435C21.1203 61.5275 21.4565 61.1903 21.8711 61.1903H36.3017V61.0083C36.3017 60.2234 36.9388 59.5843 37.7212 59.5843H39.5026V57.621C35.1442 57.4923 30.9649 56.2483 30.9649 53.9821V49.703H27.2802C21.2526 49.703 16.3496 44.7836 16.3496 38.7372C16.3496 36.1457 17.2796 33.6243 18.9669 31.6358C20.5155 29.8118 22.6091 28.5478 24.9143 28.032C25.173 21.5204 30.5345 16.3027 37.0878 16.3027C40.7297 16.3027 44.1999 17.9613 46.5039 20.7711C47.5087 20.2246 48.6302 19.938 49.7877 19.938C53.593 19.938 56.6886 23.0435 56.6886 26.8611C56.6886 27.3442 56.6392 27.8229 56.5407 28.2902C58.5827 28.949 60.4194 30.2171 61.7714 31.9167C63.3101 33.8505 64.1573 36.2724 64.1573 38.7366C64.1573 44.7836 59.2537 49.7023 53.2267 49.7023H49.542V53.9815C49.5428 56.2492 45.363 57.4934 41.0053 57.6214ZM42.7053 61.0908H37.8035V62.7962H42.7053V61.0908ZM48.0416 39.9629C48.0416 39.7346 47.6255 39.1619 46.0512 38.6273C44.5136 38.1056 42.4552 37.8183 40.2543 37.8183C38.0534 37.8183 35.9951 38.1056 34.4574 38.6273C32.8827 39.1618 32.4669 39.7346 32.4669 39.9629C32.4669 40.1911 32.883 40.7638 34.4574 41.2984C35.9943 41.8201 38.0534 42.1074 40.2543 42.1074C42.4552 42.1074 44.5135 41.8201 46.0512 41.2984C47.6236 40.7646 48.0409 40.1922 48.0416 39.9632V39.9629ZM32.4667 44.6361C32.4667 44.8643 32.8828 45.437 34.4572 45.9716C35.9941 46.4933 38.0532 46.7806 40.2541 46.7806C42.455 46.7806 44.5133 46.4933 46.0506 45.9716C47.6253 45.4371 48.0411 44.8644 48.0411 44.6361V42.0461C46.2938 43.08 43.2618 43.613 40.2538 43.613C37.2458 43.613 34.2138 43.0804 32.4665 42.0461L32.4667 44.6361ZM32.4667 49.3096C32.4667 49.5379 32.8828 50.1106 34.4572 50.6451C35.9948 51.1665 38.0532 51.4534 40.2541 51.4534C42.455 51.4534 44.5133 51.1661 46.0506 50.6444C47.6253 50.1099 48.0411 49.5372 48.0411 49.3089V46.7189C46.2942 47.754 43.2622 48.2866 40.2542 48.2866C37.2462 48.2866 34.2142 47.754 32.4669 46.7197L32.4667 49.3096ZM27.2808 48.1977H30.9654V39.9629C30.9654 37.5664 35.6379 36.3123 40.254 36.3123C44.8697 36.3123 49.5422 37.5661 49.5422 39.9629V48.1974H53.2268C58.4266 48.1974 62.6568 43.9536 62.6568 38.7371C62.6568 34.3628 59.6921 30.5824 55.4463 29.5441C55.2427 29.4945 55.0687 29.3611 54.9673 29.1773C54.8659 28.9932 54.8455 28.7748 54.912 28.575C55.0948 28.0242 55.1879 27.4478 55.1879 26.8615C55.1879 23.8745 52.7653 21.4438 49.7875 21.4438C48.6954 21.4438 47.6433 21.769 46.745 22.3852C46.4106 22.6145 45.9549 22.5361 45.7158 22.208C43.7083 19.4531 40.483 17.8085 37.0869 17.8085C31.197 17.8085 26.4056 22.6156 26.4056 28.5241C26.4056 28.5471 26.4059 28.5701 26.4067 28.593L26.407 28.6481C26.4107 29.0203 26.1428 29.3397 25.7765 29.3991C21.2578 30.1334 17.8501 34.1486 17.8501 38.7381C17.8512 43.9538 22.0817 48.1974 27.281 48.1974L27.2808 48.1977ZM34.4572 55.318C35.9941 55.8397 38.0532 56.127 40.2541 56.127C42.455 56.127 44.5133 55.8397 46.0506 55.318C47.6253 54.7835 48.0411 54.2108 48.0411 53.9825V51.3925C46.2938 52.4264 43.2618 52.9594 40.2538 52.9594C37.2458 52.9594 34.2138 52.4268 32.4665 51.3925V53.9825C32.4669 54.2107 32.8829 54.7835 34.4572 55.318ZM39.5934 45.9501H40.9144C41.329 45.9501 41.6652 45.6129 41.6652 45.1969C41.6652 44.7809 41.329 44.4436 40.9144 44.4436H39.5934C39.1787 44.4436 38.8425 44.7809 38.8425 45.1969C38.8425 45.6132 39.1791 45.9501 39.5934 45.9501ZM39.5934 50.6233H40.9144C41.329 50.6233 41.6652 50.2861 41.6652 49.8701C41.6652 49.4541 41.329 49.1169 40.9144 49.1169H39.5934C39.1787 49.1169 38.8425 49.4541 38.8425 49.8701C38.8425 50.2861 39.1791 50.6233 39.5934 50.6233ZM41.6649 54.5433C41.6649 54.1273 41.3287 53.7901 40.914 53.7901H39.593C39.1784 53.7901 38.8422 54.1273 38.8422 54.5433C38.8422 54.9593 39.1784 55.2965 39.593 55.2965H40.914C41.3291 55.2962 41.6649 54.9593 41.6649 54.5433Z"></path></mask><path d="M32.449 26.8072C32.1561 26.5134 32.1561 26.0365 32.449 25.7427C34.5339 23.6511 37.3061 22.4989 40.2544 22.4989C43.2028 22.4989 45.9746 23.6511 48.0598 25.7427C48.3527 26.0365 48.3527 26.5134 48.0598 26.8072C47.913 26.9545 47.7211 27.0282 47.5292 27.0282C47.3374 27.0282 47.1448 26.9545 46.9987 26.8072C43.2798 23.0764 37.23 23.0764 33.5105 26.8072C33.2169 27.1018 32.7415 27.1018 32.4486 26.8072H32.449ZM40.2544 25.2515C38.0387 25.2515 35.9556 26.1171 34.3889 27.6888C34.096 27.9826 34.096 28.4595 34.3889 28.7533C34.6818 29.0472 35.1571 29.0472 35.45 28.7533C36.7332 27.466 38.4395 26.7572 40.2537 26.7572C42.0682 26.7572 43.7748 27.466 45.0573 28.7533C45.2041 28.9006 45.396 28.9743 45.5879 28.9743C45.7798 28.9743 45.9724 28.9006 46.1185 28.7533C46.4114 28.4595 46.4114 27.9826 46.1185 27.6888C44.5533 26.117 42.4701 25.2515 40.2544 25.2515ZM40.2544 28.0038C38.7716 28.0038 37.3772 28.5831 36.3288 29.6352C36.0359 29.9291 36.0359 30.406 36.3288 30.6998C36.4756 30.8471 36.6675 30.9207 36.8594 30.9207C37.0513 30.9207 37.2439 30.8471 37.39 30.6998C38.155 29.9323 39.1718 29.5094 40.2537 29.5094C41.3356 29.5094 42.3525 29.9323 43.1181 30.6998C43.411 30.9936 43.8864 30.9936 44.1793 30.6998C44.4722 30.4059 44.4722 29.9291 44.1793 29.6352C43.1315 28.5827 41.7372 28.0038 40.2544 28.0038ZM42.4462 32.9552C42.4462 34.1674 41.4628 35.154 40.2544 35.154C39.046 35.154 38.0626 34.1679 38.0626 32.9552C38.0626 31.7422 39.046 30.7563 40.2544 30.7563C41.4627 30.756 42.4462 31.7421 42.4462 32.9552ZM40.9449 32.9552C40.9449 32.5727 40.6349 32.2625 40.2544 32.2625C39.8739 32.2625 39.5639 32.5735 39.5639 32.9552C39.5639 33.3376 39.8739 33.6479 40.2544 33.6479C40.6349 33.6479 40.9449 33.3369 40.9449 32.9552ZM41.0053 57.6214V59.5846H42.787C43.5695 59.5846 44.2066 60.2238 44.2066 61.0087V61.1906H58.6372C59.0518 61.1906 59.388 61.5279 59.388 61.9439C59.388 62.3599 59.0518 62.6971 58.6372 62.6971L44.2066 62.6967V62.8787C44.2066 63.6636 43.5695 64.3027 42.787 64.3027H37.7222C36.9397 64.3027 36.3026 63.6636 36.3026 62.8787V62.6967H21.8711C21.4565 62.6967 21.1203 62.3595 21.1203 61.9435C21.1203 61.5275 21.4565 61.1903 21.8711 61.1903H36.3017V61.0083C36.3017 60.2234 36.9388 59.5843 37.7212 59.5843H39.5026V57.621C35.1442 57.4923 30.9649 56.2483 30.9649 53.9821V49.703H27.2802C21.2526 49.703 16.3496 44.7836 16.3496 38.7372C16.3496 36.1457 17.2796 33.6243 18.9669 31.6358C20.5155 29.8118 22.6091 28.5478 24.9143 28.032C25.173 21.5204 30.5345 16.3027 37.0878 16.3027C40.7297 16.3027 44.1999 17.9613 46.5039 20.7711C47.5087 20.2246 48.6302 19.938 49.7877 19.938C53.593 19.938 56.6886 23.0435 56.6886 26.8611C56.6886 27.3442 56.6392 27.8229 56.5407 28.2902C58.5827 28.949 60.4194 30.2171 61.7714 31.9167C63.3101 33.8505 64.1573 36.2724 64.1573 38.7366C64.1573 44.7836 59.2537 49.7023 53.2267 49.7023H49.542V53.9815C49.5428 56.2492 45.363 57.4934 41.0053 57.6214ZM42.7053 61.0908H37.8035V62.7962H42.7053V61.0908ZM48.0416 39.9629C48.0416 39.7346 47.6255 39.1619 46.0512 38.6273C44.5136 38.1056 42.4552 37.8183 40.2543 37.8183C38.0534 37.8183 35.9951 38.1056 34.4574 38.6273C32.8827 39.1618 32.4669 39.7346 32.4669 39.9629C32.4669 40.1911 32.883 40.7638 34.4574 41.2984C35.9943 41.8201 38.0534 42.1074 40.2543 42.1074C42.4552 42.1074 44.5135 41.8201 46.0512 41.2984C47.6236 40.7646 48.0409 40.1922 48.0416 39.9632V39.9629ZM32.4667 44.6361C32.4667 44.8643 32.8828 45.437 34.4572 45.9716C35.9941 46.4933 38.0532 46.7806 40.2541 46.7806C42.455 46.7806 44.5133 46.4933 46.0506 45.9716C47.6253 45.4371 48.0411 44.8644 48.0411 44.6361V42.0461C46.2938 43.08 43.2618 43.613 40.2538 43.613C37.2458 43.613 34.2138 43.0804 32.4665 42.0461L32.4667 44.6361ZM32.4667 49.3096C32.4667 49.5379 32.8828 50.1106 34.4572 50.6451C35.9948 51.1665 38.0532 51.4534 40.2541 51.4534C42.455 51.4534 44.5133 51.1661 46.0506 50.6444C47.6253 50.1099 48.0411 49.5372 48.0411 49.3089V46.7189C46.2942 47.754 43.2622 48.2866 40.2542 48.2866C37.2462 48.2866 34.2142 47.754 32.4669 46.7197L32.4667 49.3096ZM27.2808 48.1977H30.9654V39.9629C30.9654 37.5664 35.6379 36.3123 40.254 36.3123C44.8697 36.3123 49.5422 37.5661 49.5422 39.9629V48.1974H53.2268C58.4266 48.1974 62.6568 43.9536 62.6568 38.7371C62.6568 34.3628 59.6921 30.5824 55.4463 29.5441C55.2427 29.4945 55.0687 29.3611 54.9673 29.1773C54.8659 28.9932 54.8455 28.7748 54.912 28.575C55.0948 28.0242 55.1879 27.4478 55.1879 26.8615C55.1879 23.8745 52.7653 21.4438 49.7875 21.4438C48.6954 21.4438 47.6433 21.769 46.745 22.3852C46.4106 22.6145 45.9549 22.5361 45.7158 22.208C43.7083 19.4531 40.483 17.8085 37.0869 17.8085C31.197 17.8085 26.4056 22.6156 26.4056 28.5241C26.4056 28.5471 26.4059 28.5701 26.4067 28.593L26.407 28.6481C26.4107 29.0203 26.1428 29.3397 25.7765 29.3991C21.2578 30.1334 17.8501 34.1486 17.8501 38.7381C17.8512 43.9538 22.0817 48.1974 27.281 48.1974L27.2808 48.1977ZM34.4572 55.318C35.9941 55.8397 38.0532 56.127 40.2541 56.127C42.455 56.127 44.5133 55.8397 46.0506 55.318C47.6253 54.7835 48.0411 54.2108 48.0411 53.9825V51.3925C46.2938 52.4264 43.2618 52.9594 40.2538 52.9594C37.2458 52.9594 34.2138 52.4268 32.4665 51.3925V53.9825C32.4669 54.2107 32.8829 54.7835 34.4572 55.318ZM39.5934 45.9501H40.9144C41.329 45.9501 41.6652 45.6129 41.6652 45.1969C41.6652 44.7809 41.329 44.4436 40.9144 44.4436H39.5934C39.1787 44.4436 38.8425 44.7809 38.8425 45.1969C38.8425 45.6132 39.1791 45.9501 39.5934 45.9501ZM39.5934 50.6233H40.9144C41.329 50.6233 41.6652 50.2861 41.6652 49.8701C41.6652 49.4541 41.329 49.1169 40.9144 49.1169H39.5934C39.1787 49.1169 38.8425 49.4541 38.8425 49.8701C38.8425 50.2861 39.1791 50.6233 39.5934 50.6233ZM41.6649 54.5433C41.6649 54.1273 41.3287 53.7901 40.914 53.7901H39.593C39.1784 53.7901 38.8422 54.1273 38.8422 54.5433C38.8422 54.9593 39.1784 55.2965 39.593 55.2965H40.914C41.3291 55.2962 41.6649 54.9593 41.6649 54.5433Z" fill="#1742E7" stroke="#1742E7" stroke-width="0.497778" mask="url(#path-1-inside-1_6352_1740)"></path></svg>