<svg xmlns="http://www.w3.org/2000/svg" width="81" height="80" viewBox="0 0 81 80" fill="none"><mask id="path-1-inside-1_6404_249" fill="white"><path d="M47.0365 48.3493C46.72 48.0517 46.2443 48 45.8712 48.2223L44.4079 46.7591C46.794 43.3775 47.8883 39.2522 47.4911 35.1331C47.094 31.0132 45.2319 27.1727 42.2437 24.3097C39.2555 21.4462 35.3394 19.7497 31.2062 19.5288V16.8885H66.6156C67.1354 16.8885 67.5569 16.467 67.5569 15.9472C67.5569 15.4274 67.1354 15.0059 66.6156 15.0059H30.2649C29.7451 15.0059 29.3236 15.4274 29.3236 15.9472V19.5288C23.93 19.8191 18.9818 22.6115 15.9452 27.0782C12.9082 31.5451 12.1316 37.1737 13.8449 42.2962C15.5582 47.4186 19.5651 51.4467 24.6781 53.1874C29.7909 54.928 35.4237 54.1812 39.9057 51.1682L41.4118 52.6743C41.1769 53.0457 41.2307 53.5307 41.5413 53.8417L51.6477 63.949C52.3259 64.626 53.245 65.0059 54.2035 65.0059C55.1617 65.0059 56.0807 64.626 56.759 63.949L57.1393 63.5687C57.8158 62.8904 58.1961 61.9714 58.1961 61.0133C58.1961 60.0552 57.8158 59.1361 57.1393 58.4574L47.0365 48.3493ZM30.265 26.7626C30.5146 26.7626 30.7542 26.6634 30.9307 26.4869C31.1072 26.3105 31.2063 26.0713 31.2063 25.8213V25.0515C35.2952 25.3788 38.9209 27.8073 40.7795 31.4637C42.6386 35.1205 42.4646 39.4804 40.3194 42.9767C38.1745 46.4734 34.3673 48.6043 30.265 48.6043C26.1627 48.6043 22.3555 46.4733 20.2102 42.9767C18.0653 39.48 17.8913 35.1201 19.7501 31.4637C21.6091 27.8073 25.2344 25.3788 29.3236 25.0515V25.8213C29.3236 26.0713 29.4228 26.3105 29.5993 26.4869C29.7758 26.6634 30.0154 26.7626 30.265 26.7626ZM30.265 52.2253C24.8676 52.2257 19.8632 49.4043 17.0695 44.786C14.2762 40.1677 14.101 34.4253 16.6068 29.6455C19.1131 24.8654 23.936 21.7436 29.3236 21.4145V23.1626V23.1622C24.5604 23.4908 20.3131 26.2795 18.1183 30.5196C15.9235 34.7597 16.0983 39.8377 18.5797 43.9163C21.0615 47.9954 25.4903 50.4852 30.2648 50.4852C35.0395 50.4852 39.4683 47.9953 41.95 43.9163C44.4314 39.8376 44.6062 34.7596 42.4114 30.5196C40.2166 26.2795 35.9693 23.4909 31.2061 23.1622V21.4158C36.5934 21.7448 41.4163 24.8667 43.9218 29.6468C46.428 34.4269 46.2528 40.1697 43.4595 44.7874C40.6663 49.4057 35.6618 52.227 30.264 52.227L30.265 52.2253ZM41.4198 50.017C42.0653 49.4712 42.6704 48.8791 43.2297 48.2453L44.5164 49.5321L42.7255 51.3235L41.4198 50.017ZM55.8095 62.2347L55.4287 62.6154V62.6158C55.1035 62.9394 54.6635 63.121 54.205 63.121C53.7461 63.121 53.3062 62.9394 52.9813 62.6158L43.5392 53.1759L46.3682 50.3469L55.8099 59.7882H55.8103C56.1343 60.113 56.3167 60.5534 56.3167 61.0123C56.3167 61.4716 56.1343 61.9116 55.8103 62.2369L55.8095 62.2347Z"></path><path d="M21.605 36.805C21.605 39.102 22.5173 41.3044 24.1415 42.9286C25.7652 44.5528 27.968 45.4651 30.265 45.4651C32.5616 45.4651 34.7644 44.5528 36.3886 42.9286C38.0128 41.3044 38.9251 39.102 38.9251 36.805C38.9251 34.508 38.0127 32.3057 36.3886 30.6815C34.7644 29.0573 32.5616 28.145 30.265 28.145C27.9689 28.1475 25.7677 29.0607 24.1444 30.6844C22.5206 32.3077 21.6075 34.5089 21.605 36.805ZM31.2063 30.1008C32.6615 30.3067 34.0109 30.9803 35.0501 32.02C36.0897 33.0592 36.7634 34.4081 36.9693 35.8637H31.2068L31.2063 30.1008ZM29.3237 30.1008V36.805C29.3237 37.0547 29.4229 37.2942 29.5994 37.4707C29.7759 37.6472 30.0154 37.7463 30.265 37.7463H36.9693C36.7356 39.4184 35.8864 40.9426 34.5874 42.0209C33.2885 43.0991 31.6336 43.6535 29.9472 43.5757C28.2608 43.4975 26.6644 42.7924 25.471 41.5985C24.2771 40.405 23.5725 38.8086 23.4943 37.1223C23.4165 35.4359 23.9708 33.781 25.0491 32.4821C26.1278 31.1832 27.6519 30.3339 29.324 30.1007L29.3237 30.1008Z"></path><path d="M66.6157 19.9422H51.1965C50.6767 19.9422 50.2552 20.3632 50.2552 20.8835C50.2552 21.4033 50.6767 21.8248 51.1965 21.8248H66.6157C67.1355 21.8248 67.557 21.4033 67.557 20.8835C67.557 20.3632 67.1355 19.9422 66.6157 19.9422Z"></path><path d="M66.6157 30.3019H51.1965C50.6767 30.3019 50.2552 30.7234 50.2552 31.2432C50.2552 31.7631 50.6767 32.1846 51.1965 32.1846H66.6157C67.1355 32.1846 67.557 31.7631 67.557 31.2432C67.557 30.7234 67.1355 30.3019 66.6157 30.3019Z"></path><path d="M66.6157 35.4818H56.3764C55.8566 35.4818 55.4351 35.9033 55.4351 36.4231C55.4351 36.943 55.8566 37.3644 56.3764 37.3644H66.6157C67.1355 37.3644 67.557 36.943 67.557 36.4231C67.557 35.9033 67.1355 35.4818 66.6157 35.4818Z"></path><path d="M66.6157 25.122H58.4486C57.9287 25.122 57.5073 25.5435 57.5073 26.0634C57.5073 26.5832 57.9287 27.0047 58.4486 27.0047H66.6157C67.1355 27.0047 67.557 26.5832 67.557 26.0634C67.557 25.5435 67.1355 25.122 66.6157 25.122Z"></path><path d="M51.1965 27.0047H54.6243C55.1441 27.0047 55.5656 26.5832 55.5656 26.0634C55.5656 25.5435 55.1441 25.122 54.6243 25.122H51.1965C50.6767 25.122 50.2552 25.5435 50.2552 26.0634C50.2552 26.5832 50.6767 27.0047 51.1965 27.0047Z"></path></mask><path d="M47.0365 48.3493C46.72 48.0517 46.2443 48 45.8712 48.2223L44.4079 46.7591C46.794 43.3775 47.8883 39.2522 47.4911 35.1331C47.094 31.0132 45.2319 27.1727 42.2437 24.3097C39.2555 21.4462 35.3394 19.7497 31.2062 19.5288V16.8885H66.6156C67.1354 16.8885 67.5569 16.467 67.5569 15.9472C67.5569 15.4274 67.1354 15.0059 66.6156 15.0059H30.2649C29.7451 15.0059 29.3236 15.4274 29.3236 15.9472V19.5288C23.93 19.8191 18.9818 22.6115 15.9452 27.0782C12.9082 31.5451 12.1316 37.1737 13.8449 42.2962C15.5582 47.4186 19.5651 51.4467 24.6781 53.1874C29.7909 54.928 35.4237 54.1812 39.9057 51.1682L41.4118 52.6743C41.1769 53.0457 41.2307 53.5307 41.5413 53.8417L51.6477 63.949C52.3259 64.626 53.245 65.0059 54.2035 65.0059C55.1617 65.0059 56.0807 64.626 56.759 63.949L57.1393 63.5687C57.8158 62.8904 58.1961 61.9714 58.1961 61.0133C58.1961 60.0552 57.8158 59.1361 57.1393 58.4574L47.0365 48.3493ZM30.265 26.7626C30.5146 26.7626 30.7542 26.6634 30.9307 26.4869C31.1072 26.3105 31.2063 26.0713 31.2063 25.8213V25.0515C35.2952 25.3788 38.9209 27.8073 40.7795 31.4637C42.6386 35.1205 42.4646 39.4804 40.3194 42.9767C38.1745 46.4734 34.3673 48.6043 30.265 48.6043C26.1627 48.6043 22.3555 46.4733 20.2102 42.9767C18.0653 39.48 17.8913 35.1201 19.7501 31.4637C21.6091 27.8073 25.2344 25.3788 29.3236 25.0515V25.8213C29.3236 26.0713 29.4228 26.3105 29.5993 26.4869C29.7758 26.6634 30.0154 26.7626 30.265 26.7626ZM30.265 52.2253C24.8676 52.2257 19.8632 49.4043 17.0695 44.786C14.2762 40.1677 14.101 34.4253 16.6068 29.6455C19.1131 24.8654 23.936 21.7436 29.3236 21.4145V23.1626V23.1622C24.5604 23.4908 20.3131 26.2795 18.1183 30.5196C15.9235 34.7597 16.0983 39.8377 18.5797 43.9163C21.0615 47.9954 25.4903 50.4852 30.2648 50.4852C35.0395 50.4852 39.4683 47.9953 41.95 43.9163C44.4314 39.8376 44.6062 34.7596 42.4114 30.5196C40.2166 26.2795 35.9693 23.4909 31.2061 23.1622V21.4158C36.5934 21.7448 41.4163 24.8667 43.9218 29.6468C46.428 34.4269 46.2528 40.1697 43.4595 44.7874C40.6663 49.4057 35.6618 52.227 30.264 52.227L30.265 52.2253ZM41.4198 50.017C42.0653 49.4712 42.6704 48.8791 43.2297 48.2453L44.5164 49.5321L42.7255 51.3235L41.4198 50.017ZM55.8095 62.2347L55.4287 62.6154V62.6158C55.1035 62.9394 54.6635 63.121 54.205 63.121C53.7461 63.121 53.3062 62.9394 52.9813 62.6158L43.5392 53.1759L46.3682 50.3469L55.8099 59.7882H55.8103C56.1343 60.113 56.3167 60.5534 56.3167 61.0123C56.3167 61.4716 56.1343 61.9116 55.8103 62.2369L55.8095 62.2347Z" fill="#1742E7"></path><path d="M21.605 36.805C21.605 39.102 22.5173 41.3044 24.1415 42.9286C25.7652 44.5528 27.968 45.4651 30.265 45.4651C32.5616 45.4651 34.7644 44.5528 36.3886 42.9286C38.0128 41.3044 38.9251 39.102 38.9251 36.805C38.9251 34.508 38.0127 32.3057 36.3886 30.6815C34.7644 29.0573 32.5616 28.145 30.265 28.145C27.9689 28.1475 25.7677 29.0607 24.1444 30.6844C22.5206 32.3077 21.6075 34.5089 21.605 36.805ZM31.2063 30.1008C32.6615 30.3067 34.0109 30.9803 35.0501 32.02C36.0897 33.0592 36.7634 34.4081 36.9693 35.8637H31.2068L31.2063 30.1008ZM29.3237 30.1008V36.805C29.3237 37.0547 29.4229 37.2942 29.5994 37.4707C29.7759 37.6472 30.0154 37.7463 30.265 37.7463H36.9693C36.7356 39.4184 35.8864 40.9426 34.5874 42.0209C33.2885 43.0991 31.6336 43.6535 29.9472 43.5757C28.2608 43.4975 26.6644 42.7924 25.471 41.5985C24.2771 40.405 23.5725 38.8086 23.4943 37.1223C23.4165 35.4359 23.9708 33.781 25.0491 32.4821C26.1278 31.1832 27.6519 30.3339 29.324 30.1007L29.3237 30.1008Z" fill="#1742E7"></path><path d="M66.6157 19.9422H51.1965C50.6767 19.9422 50.2552 20.3632 50.2552 20.8835C50.2552 21.4033 50.6767 21.8248 51.1965 21.8248H66.6157C67.1355 21.8248 67.557 21.4033 67.557 20.8835C67.557 20.3632 67.1355 19.9422 66.6157 19.9422Z" fill="#1742E7"></path><path d="M66.6157 30.3019H51.1965C50.6767 30.3019 50.2552 30.7234 50.2552 31.2432C50.2552 31.7631 50.6767 32.1846 51.1965 32.1846H66.6157C67.1355 32.1846 67.557 31.7631 67.557 31.2432C67.557 30.7234 67.1355 30.3019 66.6157 30.3019Z" fill="#1742E7"></path><path d="M66.6157 35.4818H56.3764C55.8566 35.4818 55.4351 35.9033 55.4351 36.4231C55.4351 36.943 55.8566 37.3644 56.3764 37.3644H66.6157C67.1355 37.3644 67.557 36.943 67.557 36.4231C67.557 35.9033 67.1355 35.4818 66.6157 35.4818Z" fill="#1742E7"></path><path d="M66.6157 25.122H58.4486C57.9287 25.122 57.5073 25.5435 57.5073 26.0634C57.5073 26.5832 57.9287 27.0047 58.4486 27.0047H66.6157C67.1355 27.0047 67.557 26.5832 67.557 26.0634C67.557 25.5435 67.1355 25.122 66.6157 25.122Z" fill="#1742E7"></path><path d="M51.1965 27.0047H54.6243C55.1441 27.0047 55.5656 26.5832 55.5656 26.0634C55.5656 25.5435 55.1441 25.122 54.6243 25.122H51.1965C50.6767 25.122 50.2552 25.5435 50.2552 26.0634C50.2552 26.5832 50.6767 27.0047 51.1965 27.0047Z" fill="#1742E7"></path><path d="M47.0365 48.3493C46.72 48.0517 46.2443 48 45.8712 48.2223L44.4079 46.7591C46.794 43.3775 47.8883 39.2522 47.4911 35.1331C47.094 31.0132 45.2319 27.1727 42.2437 24.3097C39.2555 21.4462 35.3394 19.7497 31.2062 19.5288V16.8885H66.6156C67.1354 16.8885 67.5569 16.467 67.5569 15.9472C67.5569 15.4274 67.1354 15.0059 66.6156 15.0059H30.2649C29.7451 15.0059 29.3236 15.4274 29.3236 15.9472V19.5288C23.93 19.8191 18.9818 22.6115 15.9452 27.0782C12.9082 31.5451 12.1316 37.1737 13.8449 42.2962C15.5582 47.4186 19.5651 51.4467 24.6781 53.1874C29.7909 54.928 35.4237 54.1812 39.9057 51.1682L41.4118 52.6743C41.1769 53.0457 41.2307 53.5307 41.5413 53.8417L51.6477 63.949C52.3259 64.626 53.245 65.0059 54.2035 65.0059C55.1617 65.0059 56.0807 64.626 56.759 63.949L57.1393 63.5687C57.8158 62.8904 58.1961 61.9714 58.1961 61.0133C58.1961 60.0552 57.8158 59.1361 57.1393 58.4574L47.0365 48.3493ZM30.265 26.7626C30.5146 26.7626 30.7542 26.6634 30.9307 26.4869C31.1072 26.3105 31.2063 26.0713 31.2063 25.8213V25.0515C35.2952 25.3788 38.9209 27.8073 40.7795 31.4637C42.6386 35.1205 42.4646 39.4804 40.3194 42.9767C38.1745 46.4734 34.3673 48.6043 30.265 48.6043C26.1627 48.6043 22.3555 46.4733 20.2102 42.9767C18.0653 39.48 17.8913 35.1201 19.7501 31.4637C21.6091 27.8073 25.2344 25.3788 29.3236 25.0515V25.8213C29.3236 26.0713 29.4228 26.3105 29.5993 26.4869C29.7758 26.6634 30.0154 26.7626 30.265 26.7626ZM30.265 52.2253C24.8676 52.2257 19.8632 49.4043 17.0695 44.786C14.2762 40.1677 14.101 34.4253 16.6068 29.6455C19.1131 24.8654 23.936 21.7436 29.3236 21.4145V23.1626V23.1622C24.5604 23.4908 20.3131 26.2795 18.1183 30.5196C15.9235 34.7597 16.0983 39.8377 18.5797 43.9163C21.0615 47.9954 25.4903 50.4852 30.2648 50.4852C35.0395 50.4852 39.4683 47.9953 41.95 43.9163C44.4314 39.8376 44.6062 34.7596 42.4114 30.5196C40.2166 26.2795 35.9693 23.4909 31.2061 23.1622V21.4158C36.5934 21.7448 41.4163 24.8667 43.9218 29.6468C46.428 34.4269 46.2528 40.1697 43.4595 44.7874C40.6663 49.4057 35.6618 52.227 30.264 52.227L30.265 52.2253ZM41.4198 50.017C42.0653 49.4712 42.6704 48.8791 43.2297 48.2453L44.5164 49.5321L42.7255 51.3235L41.4198 50.017ZM55.8095 62.2347L55.4287 62.6154V62.6158C55.1035 62.9394 54.6635 63.121 54.205 63.121C53.7461 63.121 53.3062 62.9394 52.9813 62.6158L43.5392 53.1759L46.3682 50.3469L55.8099 59.7882H55.8103C56.1343 60.113 56.3167 60.5534 56.3167 61.0123C56.3167 61.4716 56.1343 61.9116 55.8103 62.2369L55.8095 62.2347Z" stroke="#1742E7" stroke-width="0.5" mask="url(#path-1-inside-1_6404_249)"></path><path d="M21.605 36.805C21.605 39.102 22.5173 41.3044 24.1415 42.9286C25.7652 44.5528 27.968 45.4651 30.265 45.4651C32.5616 45.4651 34.7644 44.5528 36.3886 42.9286C38.0128 41.3044 38.9251 39.102 38.9251 36.805C38.9251 34.508 38.0127 32.3057 36.3886 30.6815C34.7644 29.0573 32.5616 28.145 30.265 28.145C27.9689 28.1475 25.7677 29.0607 24.1444 30.6844C22.5206 32.3077 21.6075 34.5089 21.605 36.805ZM31.2063 30.1008C32.6615 30.3067 34.0109 30.9803 35.0501 32.02C36.0897 33.0592 36.7634 34.4081 36.9693 35.8637H31.2068L31.2063 30.1008ZM29.3237 30.1008V36.805C29.3237 37.0547 29.4229 37.2942 29.5994 37.4707C29.7759 37.6472 30.0154 37.7463 30.265 37.7463H36.9693C36.7356 39.4184 35.8864 40.9426 34.5874 42.0209C33.2885 43.0991 31.6336 43.6535 29.9472 43.5757C28.2608 43.4975 26.6644 42.7924 25.471 41.5985C24.2771 40.405 23.5725 38.8086 23.4943 37.1223C23.4165 35.4359 23.9708 33.781 25.0491 32.4821C26.1278 31.1832 27.6519 30.3339 29.324 30.1007L29.3237 30.1008Z" stroke="#1742E7" stroke-width="0.5" mask="url(#path-1-inside-1_6404_249)"></path><path d="M66.6157 19.9422H51.1965C50.6767 19.9422 50.2552 20.3632 50.2552 20.8835C50.2552 21.4033 50.6767 21.8248 51.1965 21.8248H66.6157C67.1355 21.8248 67.557 21.4033 67.557 20.8835C67.557 20.3632 67.1355 19.9422 66.6157 19.9422Z" stroke="#1742E7" stroke-width="0.5" mask="url(#path-1-inside-1_6404_249)"></path><path d="M66.6157 30.3019H51.1965C50.6767 30.3019 50.2552 30.7234 50.2552 31.2432C50.2552 31.7631 50.6767 32.1846 51.1965 32.1846H66.6157C67.1355 32.1846 67.557 31.7631 67.557 31.2432C67.557 30.7234 67.1355 30.3019 66.6157 30.3019Z" stroke="#1742E7" stroke-width="0.5" mask="url(#path-1-inside-1_6404_249)"></path><path d="M66.6157 35.4818H56.3764C55.8566 35.4818 55.4351 35.9033 55.4351 36.4231C55.4351 36.943 55.8566 37.3644 56.3764 37.3644H66.6157C67.1355 37.3644 67.557 36.943 67.557 36.4231C67.557 35.9033 67.1355 35.4818 66.6157 35.4818Z" stroke="#1742E7" stroke-width="0.5" mask="url(#path-1-inside-1_6404_249)"></path><path d="M66.6157 25.122H58.4486C57.9287 25.122 57.5073 25.5435 57.5073 26.0634C57.5073 26.5832 57.9287 27.0047 58.4486 27.0047H66.6157C67.1355 27.0047 67.557 26.5832 67.557 26.0634C67.557 25.5435 67.1355 25.122 66.6157 25.122Z" stroke="#1742E7" stroke-width="0.5" mask="url(#path-1-inside-1_6404_249)"></path><path d="M51.1965 27.0047H54.6243C55.1441 27.0047 55.5656 26.5832 55.5656 26.0634C55.5656 25.5435 55.1441 25.122 54.6243 25.122H51.1965C50.6767 25.122 50.2552 25.5435 50.2552 26.0634C50.2552 26.5832 50.6767 27.0047 51.1965 27.0047Z" stroke="#1742E7" stroke-width="0.5" mask="url(#path-1-inside-1_6404_249)"></path></svg>