<svg xmlns="http://www.w3.org/2000/svg" width="81" height="81" viewBox="0 0 81 81" fill="none"><mask id="path-1-inside-1_6357_2491" fill="white"><path d="M34.8244 46.4894C36.753 46.4894 38.3213 44.9205 38.3213 42.9924C38.3213 41.0643 36.753 39.4955 34.8244 39.4955C32.8958 39.4955 31.3274 41.0643 31.3274 42.9924C31.3274 44.921 32.8958 46.4894 34.8244 46.4894ZM34.8244 41.2378C35.7921 41.2378 36.5794 42.0252 36.5794 42.9928C36.5794 43.9604 35.792 44.7478 34.8244 44.7478C33.8567 44.7478 33.0693 43.9604 33.0693 42.9928C33.0693 42.0252 33.8567 41.2378 34.8244 41.2378Z"></path><path d="M41.4351 41.2374H49.4367C49.9179 41.2374 50.3077 40.8476 50.3077 40.3664C50.3077 39.8853 49.9179 39.4955 49.4367 39.4955H41.4351C40.9539 39.4955 40.5641 39.8853 40.5641 40.3664C40.5641 40.8476 40.9544 41.2374 41.4351 41.2374Z"></path><path d="M41.4351 44.4849H49.4367C49.9179 44.4849 50.3077 44.0951 50.3077 43.6139C50.3077 43.1328 49.9179 42.743 49.4367 42.743H41.4351C40.9539 42.743 40.5641 43.1328 40.5641 43.6139C40.5641 44.0951 40.9544 44.4849 41.4351 44.4849Z"></path><path d="M41.4351 47.7324H49.4367C49.9179 47.7324 50.3077 47.3426 50.3077 46.8614C50.3077 46.3803 49.9179 45.9905 49.4367 45.9905H41.4351C40.9539 45.9905 40.5641 46.3803 40.5641 46.8614C40.5641 47.3426 40.9544 47.7324 41.4351 47.7324Z"></path><path d="M32.1978 50.9787H38.42C38.9012 50.9787 39.291 50.5889 39.291 50.1077C39.291 49.6265 38.9012 49.2367 38.42 49.2367H32.1978C31.7166 49.2367 31.3268 49.6265 31.3268 50.1077C31.3268 50.5889 31.7171 50.9787 32.1978 50.9787Z"></path><path d="M32.1978 54.2262H38.42C38.9012 54.2262 39.291 53.8364 39.291 53.3552C39.291 52.874 38.9012 52.4842 38.42 52.4842H32.1978C31.7166 52.4842 31.3268 52.874 31.3268 53.3552C31.3268 53.8364 31.7171 54.2262 32.1978 54.2262Z"></path><path d="M49.1469 49.2367H41.958C41.4769 49.2367 41.0871 49.6265 41.0871 50.1077V53.3549C41.0871 53.8361 41.4769 54.2259 41.958 54.2259H49.1469C49.6281 54.2259 50.0179 53.8361 50.0179 53.3549V50.1077C50.0179 49.6265 49.6281 49.2367 49.1469 49.2367ZM48.276 52.484H42.829V50.9787H48.276V52.484Z"></path><path d="M44.272 28.7613H37.2312C36.7501 28.7613 36.3603 29.1511 36.3603 29.6323C36.3603 30.1135 36.7501 30.5033 37.2312 30.5033H44.272C44.7531 30.5033 45.1429 30.1135 45.1429 29.6323C45.1429 29.1511 44.7527 28.7613 44.272 28.7613Z"></path><path d="M34.0019 29.6323C34.0019 30.2087 33.5348 30.6763 32.9584 30.6763C32.382 30.6763 31.9149 30.2087 31.9149 29.6323C31.9149 29.0558 32.382 28.5888 32.9584 28.5888C33.5348 28.5888 34.0019 29.0558 34.0019 29.6323Z"></path><path d="M37.2308 64.9616H44.2715C44.7526 64.9616 45.1424 64.5718 45.1424 64.0906C45.1424 63.6094 44.7526 63.2196 44.2715 63.2196H37.2308C36.7496 63.2196 36.3598 63.6094 36.3598 64.0906C36.3598 64.5718 36.7496 64.9616 37.2308 64.9616Z"></path><path d="M60.777 28.4117C59.5808 24.7421 56.1737 22.2356 52.265 22.2356C52.2432 22.2356 52.2213 22.2356 52.2004 22.2361C50.9533 17.4997 46.6499 14.1367 41.6893 14.1367C37.4609 14.1367 33.5925 16.6481 31.8258 20.4615C31.3174 20.3507 30.793 20.2943 30.2588 20.2943C26.3991 20.2943 23.221 23.2683 22.8958 27.0449C22.3262 26.8908 21.741 26.813 21.1441 26.813C17.0692 26.8135 13.7539 30.4879 13.7539 35.0042C13.7539 39.5166 17.0692 43.1876 21.1441 43.1876H27.7178V63.8388C27.7178 65.992 29.4666 67.7437 31.6153 67.7437H49.8858C51.9 67.7437 53.6045 66.1756 53.7664 64.1741C53.7747 64.0682 53.7829 63.9535 53.7829 63.8393V61.3459C53.7834 61.3342 53.7897 61.324 53.7897 61.3124L53.7902 43.1886H60.3639C64.4393 43.1886 67.7541 39.8733 67.7541 35.7984C67.7546 31.8581 64.6615 28.6274 60.7771 28.4126L60.777 28.4117ZM52.0483 33.2798V60.4406L29.4602 60.4401V33.2806L52.0483 33.2798ZM52.0415 31.5378H29.4608V29.8829C29.4608 28.6901 30.4275 27.7205 31.6159 27.7205H49.8864C51.0004 27.7205 51.9419 28.5851 52.0313 29.6889C52.0366 29.7506 52.042 29.8167 52.042 29.8828L52.0415 31.5378ZM52.0415 63.8374C52.0415 63.9035 52.0361 63.9701 52.0308 64.0318C51.9418 65.1356 50.9999 65.9997 49.8869 65.9997L31.6164 66.0002C30.4275 66.0002 29.4608 65.0301 29.4608 63.8373V62.1828H52.0415L52.0415 63.8374ZM60.3644 41.4458H53.7908L53.7903 32.4089C53.7903 32.372 53.7883 32.336 53.7835 32.3006V29.883C53.7835 29.7683 53.7752 29.6541 53.767 29.5486C53.6051 27.5466 51.9006 25.9787 49.8855 25.9787H31.6149C29.4661 25.9787 27.7179 27.7304 27.7179 29.883V41.4459H21.1443C18.0298 41.4459 15.496 38.5564 15.496 35.0044C15.496 31.4486 18.0302 28.5557 21.1443 28.5557C21.92 28.5557 22.6724 28.7336 23.3811 29.0845C23.6664 29.2259 24.0037 29.2006 24.2652 29.0194C24.5257 28.8381 24.6672 28.5294 24.6341 28.2135C24.6166 28.0414 24.6108 27.8631 24.6108 27.6847C24.6108 24.5702 27.1449 22.0364 30.2591 22.0364C30.8812 22.0364 31.4834 22.1351 32.0487 22.3295C32.4958 22.4845 32.9814 22.2542 33.1476 21.8128C34.4827 18.2634 37.9156 15.8789 41.6901 15.8789C46.0722 15.8789 49.8438 19.0041 50.6584 23.3104C50.7415 23.7488 51.1552 24.0502 51.5955 24.0157C51.8186 23.9967 52.0363 23.9778 52.2657 23.9778C55.6014 23.9778 58.4836 26.2452 59.2743 29.4913C59.3764 29.9088 59.7706 30.1951 60.2046 30.1518C60.2596 30.1474 60.3096 30.1421 60.3645 30.1421C63.479 30.1421 66.0128 32.6792 66.0128 35.7971C66.0123 38.9116 63.4782 41.4457 60.3642 41.4457L60.3644 41.4458Z"></path></mask><path d="M34.8244 46.4894C36.753 46.4894 38.3213 44.9205 38.3213 42.9924C38.3213 41.0643 36.753 39.4955 34.8244 39.4955C32.8958 39.4955 31.3274 41.0643 31.3274 42.9924C31.3274 44.921 32.8958 46.4894 34.8244 46.4894ZM34.8244 41.2378C35.7921 41.2378 36.5794 42.0252 36.5794 42.9928C36.5794 43.9604 35.792 44.7478 34.8244 44.7478C33.8567 44.7478 33.0693 43.9604 33.0693 42.9928C33.0693 42.0252 33.8567 41.2378 34.8244 41.2378Z" fill="#1742E7"></path><path d="M41.4351 41.2374H49.4367C49.9179 41.2374 50.3077 40.8476 50.3077 40.3664C50.3077 39.8853 49.9179 39.4955 49.4367 39.4955H41.4351C40.9539 39.4955 40.5641 39.8853 40.5641 40.3664C40.5641 40.8476 40.9544 41.2374 41.4351 41.2374Z" fill="#1742E7"></path><path d="M41.4351 44.4849H49.4367C49.9179 44.4849 50.3077 44.0951 50.3077 43.6139C50.3077 43.1328 49.9179 42.743 49.4367 42.743H41.4351C40.9539 42.743 40.5641 43.1328 40.5641 43.6139C40.5641 44.0951 40.9544 44.4849 41.4351 44.4849Z" fill="#1742E7"></path><path d="M41.4351 47.7324H49.4367C49.9179 47.7324 50.3077 47.3426 50.3077 46.8614C50.3077 46.3803 49.9179 45.9905 49.4367 45.9905H41.4351C40.9539 45.9905 40.5641 46.3803 40.5641 46.8614C40.5641 47.3426 40.9544 47.7324 41.4351 47.7324Z" fill="#1742E7"></path><path d="M32.1978 50.9787H38.42C38.9012 50.9787 39.291 50.5889 39.291 50.1077C39.291 49.6265 38.9012 49.2367 38.42 49.2367H32.1978C31.7166 49.2367 31.3268 49.6265 31.3268 50.1077C31.3268 50.5889 31.7171 50.9787 32.1978 50.9787Z" fill="#1742E7"></path><path d="M32.1978 54.2262H38.42C38.9012 54.2262 39.291 53.8364 39.291 53.3552C39.291 52.874 38.9012 52.4842 38.42 52.4842H32.1978C31.7166 52.4842 31.3268 52.874 31.3268 53.3552C31.3268 53.8364 31.7171 54.2262 32.1978 54.2262Z" fill="#1742E7"></path><path d="M49.1469 49.2367H41.958C41.4769 49.2367 41.0871 49.6265 41.0871 50.1077V53.3549C41.0871 53.8361 41.4769 54.2259 41.958 54.2259H49.1469C49.6281 54.2259 50.0179 53.8361 50.0179 53.3549V50.1077C50.0179 49.6265 49.6281 49.2367 49.1469 49.2367ZM48.276 52.484H42.829V50.9787H48.276V52.484Z" fill="#1742E7"></path><path d="M44.272 28.7613H37.2312C36.7501 28.7613 36.3603 29.1511 36.3603 29.6323C36.3603 30.1135 36.7501 30.5033 37.2312 30.5033H44.272C44.7531 30.5033 45.1429 30.1135 45.1429 29.6323C45.1429 29.1511 44.7527 28.7613 44.272 28.7613Z" fill="#1742E7"></path><path d="M34.0019 29.6323C34.0019 30.2087 33.5348 30.6763 32.9584 30.6763C32.382 30.6763 31.9149 30.2087 31.9149 29.6323C31.9149 29.0558 32.382 28.5888 32.9584 28.5888C33.5348 28.5888 34.0019 29.0558 34.0019 29.6323Z" fill="#1742E7"></path><path d="M37.2308 64.9616H44.2715C44.7526 64.9616 45.1424 64.5718 45.1424 64.0906C45.1424 63.6094 44.7526 63.2196 44.2715 63.2196H37.2308C36.7496 63.2196 36.3598 63.6094 36.3598 64.0906C36.3598 64.5718 36.7496 64.9616 37.2308 64.9616Z" fill="#1742E7"></path><path d="M60.777 28.4117C59.5808 24.7421 56.1737 22.2356 52.265 22.2356C52.2432 22.2356 52.2213 22.2356 52.2004 22.2361C50.9533 17.4997 46.6499 14.1367 41.6893 14.1367C37.4609 14.1367 33.5925 16.6481 31.8258 20.4615C31.3174 20.3507 30.793 20.2943 30.2588 20.2943C26.3991 20.2943 23.221 23.2683 22.8958 27.0449C22.3262 26.8908 21.741 26.813 21.1441 26.813C17.0692 26.8135 13.7539 30.4879 13.7539 35.0042C13.7539 39.5166 17.0692 43.1876 21.1441 43.1876H27.7178V63.8388C27.7178 65.992 29.4666 67.7437 31.6153 67.7437H49.8858C51.9 67.7437 53.6045 66.1756 53.7664 64.1741C53.7747 64.0682 53.7829 63.9535 53.7829 63.8393V61.3459C53.7834 61.3342 53.7897 61.324 53.7897 61.3124L53.7902 43.1886H60.3639C64.4393 43.1886 67.7541 39.8733 67.7541 35.7984C67.7546 31.8581 64.6615 28.6274 60.7771 28.4126L60.777 28.4117ZM52.0483 33.2798V60.4406L29.4602 60.4401V33.2806L52.0483 33.2798ZM52.0415 31.5378H29.4608V29.8829C29.4608 28.6901 30.4275 27.7205 31.6159 27.7205H49.8864C51.0004 27.7205 51.9419 28.5851 52.0313 29.6889C52.0366 29.7506 52.042 29.8167 52.042 29.8828L52.0415 31.5378ZM52.0415 63.8374C52.0415 63.9035 52.0361 63.9701 52.0308 64.0318C51.9418 65.1356 50.9999 65.9997 49.8869 65.9997L31.6164 66.0002C30.4275 66.0002 29.4608 65.0301 29.4608 63.8373V62.1828H52.0415L52.0415 63.8374ZM60.3644 41.4458H53.7908L53.7903 32.4089C53.7903 32.372 53.7883 32.336 53.7835 32.3006V29.883C53.7835 29.7683 53.7752 29.6541 53.767 29.5486C53.6051 27.5466 51.9006 25.9787 49.8855 25.9787H31.6149C29.4661 25.9787 27.7179 27.7304 27.7179 29.883V41.4459H21.1443C18.0298 41.4459 15.496 38.5564 15.496 35.0044C15.496 31.4486 18.0302 28.5557 21.1443 28.5557C21.92 28.5557 22.6724 28.7336 23.3811 29.0845C23.6664 29.2259 24.0037 29.2006 24.2652 29.0194C24.5257 28.8381 24.6672 28.5294 24.6341 28.2135C24.6166 28.0414 24.6108 27.8631 24.6108 27.6847C24.6108 24.5702 27.1449 22.0364 30.2591 22.0364C30.8812 22.0364 31.4834 22.1351 32.0487 22.3295C32.4958 22.4845 32.9814 22.2542 33.1476 21.8128C34.4827 18.2634 37.9156 15.8789 41.6901 15.8789C46.0722 15.8789 49.8438 19.0041 50.6584 23.3104C50.7415 23.7488 51.1552 24.0502 51.5955 24.0157C51.8186 23.9967 52.0363 23.9778 52.2657 23.9778C55.6014 23.9778 58.4836 26.2452 59.2743 29.4913C59.3764 29.9088 59.7706 30.1951 60.2046 30.1518C60.2596 30.1474 60.3096 30.1421 60.3645 30.1421C63.479 30.1421 66.0128 32.6792 66.0128 35.7971C66.0123 38.9116 63.4782 41.4457 60.3642 41.4457L60.3644 41.4458Z" fill="#1742E7"></path><path d="M34.8244 46.4894C36.753 46.4894 38.3213 44.9205 38.3213 42.9924C38.3213 41.0643 36.753 39.4955 34.8244 39.4955C32.8958 39.4955 31.3274 41.0643 31.3274 42.9924C31.3274 44.921 32.8958 46.4894 34.8244 46.4894ZM34.8244 41.2378C35.7921 41.2378 36.5794 42.0252 36.5794 42.9928C36.5794 43.9604 35.792 44.7478 34.8244 44.7478C33.8567 44.7478 33.0693 43.9604 33.0693 42.9928C33.0693 42.0252 33.8567 41.2378 34.8244 41.2378Z" stroke="#1742E7" stroke-width="0.536069" mask="url(#path-1-inside-1_6357_2491)"></path><path d="M41.4351 41.2374H49.4367C49.9179 41.2374 50.3077 40.8476 50.3077 40.3664C50.3077 39.8853 49.9179 39.4955 49.4367 39.4955H41.4351C40.9539 39.4955 40.5641 39.8853 40.5641 40.3664C40.5641 40.8476 40.9544 41.2374 41.4351 41.2374Z" stroke="#1742E7" stroke-width="0.536069" mask="url(#path-1-inside-1_6357_2491)"></path><path d="M41.4351 44.4849H49.4367C49.9179 44.4849 50.3077 44.0951 50.3077 43.6139C50.3077 43.1328 49.9179 42.743 49.4367 42.743H41.4351C40.9539 42.743 40.5641 43.1328 40.5641 43.6139C40.5641 44.0951 40.9544 44.4849 41.4351 44.4849Z" stroke="#1742E7" stroke-width="0.536069" mask="url(#path-1-inside-1_6357_2491)"></path><path d="M41.4351 47.7324H49.4367C49.9179 47.7324 50.3077 47.3426 50.3077 46.8614C50.3077 46.3803 49.9179 45.9905 49.4367 45.9905H41.4351C40.9539 45.9905 40.5641 46.3803 40.5641 46.8614C40.5641 47.3426 40.9544 47.7324 41.4351 47.7324Z" stroke="#1742E7" stroke-width="0.536069" mask="url(#path-1-inside-1_6357_2491)"></path><path d="M32.1978 50.9787H38.42C38.9012 50.9787 39.291 50.5889 39.291 50.1077C39.291 49.6265 38.9012 49.2367 38.42 49.2367H32.1978C31.7166 49.2367 31.3268 49.6265 31.3268 50.1077C31.3268 50.5889 31.7171 50.9787 32.1978 50.9787Z" stroke="#1742E7" stroke-width="0.536069" mask="url(#path-1-inside-1_6357_2491)"></path><path d="M32.1978 54.2262H38.42C38.9012 54.2262 39.291 53.8364 39.291 53.3552C39.291 52.874 38.9012 52.4842 38.42 52.4842H32.1978C31.7166 52.4842 31.3268 52.874 31.3268 53.3552C31.3268 53.8364 31.7171 54.2262 32.1978 54.2262Z" stroke="#1742E7" stroke-width="0.536069" mask="url(#path-1-inside-1_6357_2491)"></path><path d="M49.1469 49.2367H41.958C41.4769 49.2367 41.0871 49.6265 41.0871 50.1077V53.3549C41.0871 53.8361 41.4769 54.2259 41.958 54.2259H49.1469C49.6281 54.2259 50.0179 53.8361 50.0179 53.3549V50.1077C50.0179 49.6265 49.6281 49.2367 49.1469 49.2367ZM48.276 52.484H42.829V50.9787H48.276V52.484Z" stroke="#1742E7" stroke-width="0.536069" mask="url(#path-1-inside-1_6357_2491)"></path><path d="M44.272 28.7613H37.2312C36.7501 28.7613 36.3603 29.1511 36.3603 29.6323C36.3603 30.1135 36.7501 30.5033 37.2312 30.5033H44.272C44.7531 30.5033 45.1429 30.1135 45.1429 29.6323C45.1429 29.1511 44.7527 28.7613 44.272 28.7613Z" stroke="#1742E7" stroke-width="0.536069" mask="url(#path-1-inside-1_6357_2491)"></path><path d="M34.0019 29.6323C34.0019 30.2087 33.5348 30.6763 32.9584 30.6763C32.382 30.6763 31.9149 30.2087 31.9149 29.6323C31.9149 29.0558 32.382 28.5888 32.9584 28.5888C33.5348 28.5888 34.0019 29.0558 34.0019 29.6323Z" stroke="#1742E7" stroke-width="0.536069" mask="url(#path-1-inside-1_6357_2491)"></path><path d="M37.2308 64.9616H44.2715C44.7526 64.9616 45.1424 64.5718 45.1424 64.0906C45.1424 63.6094 44.7526 63.2196 44.2715 63.2196H37.2308C36.7496 63.2196 36.3598 63.6094 36.3598 64.0906C36.3598 64.5718 36.7496 64.9616 37.2308 64.9616Z" stroke="#1742E7" stroke-width="0.536069" mask="url(#path-1-inside-1_6357_2491)"></path><path d="M60.777 28.4117C59.5808 24.7421 56.1737 22.2356 52.265 22.2356C52.2432 22.2356 52.2213 22.2356 52.2004 22.2361C50.9533 17.4997 46.6499 14.1367 41.6893 14.1367C37.4609 14.1367 33.5925 16.6481 31.8258 20.4615C31.3174 20.3507 30.793 20.2943 30.2588 20.2943C26.3991 20.2943 23.221 23.2683 22.8958 27.0449C22.3262 26.8908 21.741 26.813 21.1441 26.813C17.0692 26.8135 13.7539 30.4879 13.7539 35.0042C13.7539 39.5166 17.0692 43.1876 21.1441 43.1876H27.7178V63.8388C27.7178 65.992 29.4666 67.7437 31.6153 67.7437H49.8858C51.9 67.7437 53.6045 66.1756 53.7664 64.1741C53.7747 64.0682 53.7829 63.9535 53.7829 63.8393V61.3459C53.7834 61.3342 53.7897 61.324 53.7897 61.3124L53.7902 43.1886H60.3639C64.4393 43.1886 67.7541 39.8733 67.7541 35.7984C67.7546 31.8581 64.6615 28.6274 60.7771 28.4126L60.777 28.4117ZM52.0483 33.2798V60.4406L29.4602 60.4401V33.2806L52.0483 33.2798ZM52.0415 31.5378H29.4608V29.8829C29.4608 28.6901 30.4275 27.7205 31.6159 27.7205H49.8864C51.0004 27.7205 51.9419 28.5851 52.0313 29.6889C52.0366 29.7506 52.042 29.8167 52.042 29.8828L52.0415 31.5378ZM52.0415 63.8374C52.0415 63.9035 52.0361 63.9701 52.0308 64.0318C51.9418 65.1356 50.9999 65.9997 49.8869 65.9997L31.6164 66.0002C30.4275 66.0002 29.4608 65.0301 29.4608 63.8373V62.1828H52.0415L52.0415 63.8374ZM60.3644 41.4458H53.7908L53.7903 32.4089C53.7903 32.372 53.7883 32.336 53.7835 32.3006V29.883C53.7835 29.7683 53.7752 29.6541 53.767 29.5486C53.6051 27.5466 51.9006 25.9787 49.8855 25.9787H31.6149C29.4661 25.9787 27.7179 27.7304 27.7179 29.883V41.4459H21.1443C18.0298 41.4459 15.496 38.5564 15.496 35.0044C15.496 31.4486 18.0302 28.5557 21.1443 28.5557C21.92 28.5557 22.6724 28.7336 23.3811 29.0845C23.6664 29.2259 24.0037 29.2006 24.2652 29.0194C24.5257 28.8381 24.6672 28.5294 24.6341 28.2135C24.6166 28.0414 24.6108 27.8631 24.6108 27.6847C24.6108 24.5702 27.1449 22.0364 30.2591 22.0364C30.8812 22.0364 31.4834 22.1351 32.0487 22.3295C32.4958 22.4845 32.9814 22.2542 33.1476 21.8128C34.4827 18.2634 37.9156 15.8789 41.6901 15.8789C46.0722 15.8789 49.8438 19.0041 50.6584 23.3104C50.7415 23.7488 51.1552 24.0502 51.5955 24.0157C51.8186 23.9967 52.0363 23.9778 52.2657 23.9778C55.6014 23.9778 58.4836 26.2452 59.2743 29.4913C59.3764 29.9088 59.7706 30.1951 60.2046 30.1518C60.2596 30.1474 60.3096 30.1421 60.3645 30.1421C63.479 30.1421 66.0128 32.6792 66.0128 35.7971C66.0123 38.9116 63.4782 41.4457 60.3642 41.4457L60.3644 41.4458Z" stroke="#1742E7" stroke-width="0.536069" mask="url(#path-1-inside-1_6357_2491)"></path></svg>