<svg xmlns="http://www.w3.org/2000/svg" width="81" height="80" viewBox="0 0 81 80" fill="none"><mask id="path-1-inside-1_6404_224" fill="white"><path d="M35.2539 60.0059C34.7937 60.0059 34.4206 60.379 34.4206 60.8392C34.4206 61.2994 34.7937 61.6725 35.2539 61.6725H45.2539C45.7141 61.6725 46.0872 61.2994 46.0872 60.8392C46.0872 60.379 45.7141 60.0059 45.2539 60.0059H35.2539Z"></path><path d="M64.4206 27.5059H54.4206V19.1725C54.4191 18.068 53.9797 17.0088 53.1989 16.2276C52.4176 15.4467 51.3585 15.0074 50.2539 15.0059H30.2539C29.1493 15.0073 28.0902 15.4467 27.309 16.2276C26.5281 17.0088 26.0888 18.068 26.0872 19.1725V34.1725H16.0872C15.627 34.1725 15.2539 34.5457 15.2539 35.0059V51.6725C15.2539 51.8935 15.3417 52.1056 15.498 52.2618C15.6542 52.4181 15.8663 52.5059 16.0872 52.5059H26.0872V60.8392C26.0887 61.9438 26.5281 63.0029 27.309 63.7841C28.0902 64.565 29.1493 65.0043 30.2539 65.0059H50.2539C51.3585 65.0044 52.4176 64.565 53.1989 63.7841C53.9797 63.0029 54.4191 61.9438 54.4206 60.8392V45.8392H64.4206C64.6416 45.8392 64.8536 45.7514 65.0099 45.5951C65.1661 45.4389 65.2539 45.2268 65.2539 45.0059V28.3392C65.2539 28.1182 65.1661 27.9062 65.0099 27.7499C64.8536 27.5937 64.6416 27.5059 64.4206 27.5059ZM46.4053 16.6725L45.8019 17.8782C45.6617 18.1614 45.3726 18.3403 45.0568 18.3392H35.4501C35.1342 18.3403 34.8452 18.1613 34.7049 17.8782L34.1015 16.6725H46.4053ZM27.7539 19.1725C27.7539 18.5096 28.0173 17.8734 28.486 17.4047C28.9548 16.936 29.591 16.6726 30.2539 16.6726H32.239L33.2148 18.6242C33.4213 19.0405 33.7401 19.3906 34.1352 19.6346C34.5303 19.8786 34.986 20.0073 35.4506 20.0059H45.0573C45.522 20.0073 45.9777 19.8786 46.3727 19.6346C46.7678 19.3905 47.0866 19.0405 47.2931 18.6242L48.2689 16.6726H50.2541C50.917 16.6726 51.5532 16.936 52.0219 17.4047C52.4905 17.8735 52.754 18.5097 52.754 19.1725V27.5059H43.1369L38.3869 21.9641C38.1603 21.6989 37.7924 21.6033 37.465 21.7242C37.1376 21.8447 36.9204 22.1569 36.9204 22.5058V34.1725H27.7537L27.7539 19.1725ZM16.9206 35.8392H36.9206V45.0059C36.9206 45.2268 37.0084 45.4389 37.1646 45.5951C37.3209 45.7514 37.5329 45.8392 37.7539 45.8392H41.0872V55.8021L34.9321 51.0152V51.0156C34.7859 50.9017 34.6058 50.8396 34.4206 50.8396H16.9206L16.9206 35.8392ZM52.7539 60.8392C52.7539 61.5021 52.4905 62.1383 52.0218 62.607C51.553 63.0757 50.9168 63.3391 50.254 63.3391H30.254C29.591 63.3391 28.9548 63.0758 28.4861 62.607C28.0175 62.1383 27.754 61.5021 27.754 60.8392V52.5059H34.135L41.4091 58.1632C41.6603 58.3589 42.0007 58.3939 42.2867 58.2543C42.5725 58.1145 42.754 57.8239 42.754 57.5058V45.8392H52.754L52.7539 60.8392ZM63.5872 44.1725H38.5872V24.7554L42.1214 28.8778C42.2792 29.0638 42.5102 29.1713 42.7539 29.172H63.5872L63.5872 44.1725Z"></path><path d="M29.7539 37.5059H29.0954C28.2989 37.5055 27.5351 37.8213 26.9711 38.3838C26.4071 38.9463 26.0891 39.7094 26.0872 40.5058V41.6725C26.0872 42.1327 26.4604 42.5058 26.9205 42.5058C27.3807 42.5058 27.7539 42.1327 27.7539 41.6725V40.5058C27.7572 39.7692 28.3547 39.1733 29.0913 39.1725H29.7498C30.3394 39.1721 30.8595 39.5583 31.0303 40.1227C31.201 40.687 30.9823 41.2968 30.4912 41.6234L28.9577 42.6457H28.958C28.7263 42.8005 28.5871 43.0605 28.5871 43.3392V45.8392C28.5849 46.0609 28.672 46.2741 28.8286 46.431C28.9856 46.5877 29.1988 46.6747 29.4205 46.6725C29.5983 46.6688 29.7702 46.6066 29.9097 46.4958C29.945 46.4761 29.9793 46.4545 30.012 46.4307C30.169 46.2741 30.256 46.0609 30.2538 45.8392V43.7849L31.4205 43.0059C32.1385 42.5248 32.6143 41.758 32.7271 40.9017C32.8394 40.0449 32.5779 39.1811 32.0087 38.5311C31.4395 37.8808 30.618 37.5073 29.7538 37.5058L29.7539 37.5059Z"></path><path d="M45.2539 30.8392H61.9206V32.5059H45.2539V30.8392Z"></path><path d="M40.2539 34.1725H61.9206V35.8392H40.2539V34.1725Z"></path><path d="M50.2539 37.5059H61.9206V39.1725H50.2539V37.5059Z"></path><path d="M40.2539 40.8392H51.9206V42.5059H40.2539V40.8392Z"></path><path d="M53.5872 40.8392H61.9206V42.5059H53.5872V40.8392Z"></path><path d="M40.2539 37.5059H48.5872V39.1725H40.2539V37.5059Z"></path><path d="M40.2539 30.8392H43.5872V32.5059H40.2539V30.8392Z"></path><path d="M30.2539 48.3392C30.2539 48.7994 29.8808 49.1725 29.4206 49.1725C28.9604 49.1725 28.5872 48.7994 28.5872 48.3392C28.5872 47.879 28.9604 47.5059 29.4206 47.5059C29.8808 47.5059 30.2539 47.879 30.2539 48.3392Z"></path></mask><path d="M35.2539 60.0059C34.7937 60.0059 34.4206 60.379 34.4206 60.8392C34.4206 61.2994 34.7937 61.6725 35.2539 61.6725H45.2539C45.7141 61.6725 46.0872 61.2994 46.0872 60.8392C46.0872 60.379 45.7141 60.0059 45.2539 60.0059H35.2539Z" fill="#1742E7"></path><path d="M64.4206 27.5059H54.4206V19.1725C54.4191 18.068 53.9797 17.0088 53.1989 16.2276C52.4176 15.4467 51.3585 15.0074 50.2539 15.0059H30.2539C29.1493 15.0073 28.0902 15.4467 27.309 16.2276C26.5281 17.0088 26.0888 18.068 26.0872 19.1725V34.1725H16.0872C15.627 34.1725 15.2539 34.5457 15.2539 35.0059V51.6725C15.2539 51.8935 15.3417 52.1056 15.498 52.2618C15.6542 52.4181 15.8663 52.5059 16.0872 52.5059H26.0872V60.8392C26.0887 61.9438 26.5281 63.0029 27.309 63.7841C28.0902 64.565 29.1493 65.0043 30.2539 65.0059H50.2539C51.3585 65.0044 52.4176 64.565 53.1989 63.7841C53.9797 63.0029 54.4191 61.9438 54.4206 60.8392V45.8392H64.4206C64.6416 45.8392 64.8536 45.7514 65.0099 45.5951C65.1661 45.4389 65.2539 45.2268 65.2539 45.0059V28.3392C65.2539 28.1182 65.1661 27.9062 65.0099 27.7499C64.8536 27.5937 64.6416 27.5059 64.4206 27.5059ZM46.4053 16.6725L45.8019 17.8782C45.6617 18.1614 45.3726 18.3403 45.0568 18.3392H35.4501C35.1342 18.3403 34.8452 18.1613 34.7049 17.8782L34.1015 16.6725H46.4053ZM27.7539 19.1725C27.7539 18.5096 28.0173 17.8734 28.486 17.4047C28.9548 16.936 29.591 16.6726 30.2539 16.6726H32.239L33.2148 18.6242C33.4213 19.0405 33.7401 19.3906 34.1352 19.6346C34.5303 19.8786 34.986 20.0073 35.4506 20.0059H45.0573C45.522 20.0073 45.9777 19.8786 46.3727 19.6346C46.7678 19.3905 47.0866 19.0405 47.2931 18.6242L48.2689 16.6726H50.2541C50.917 16.6726 51.5532 16.936 52.0219 17.4047C52.4905 17.8735 52.754 18.5097 52.754 19.1725V27.5059H43.1369L38.3869 21.9641C38.1603 21.6989 37.7924 21.6033 37.465 21.7242C37.1376 21.8447 36.9204 22.1569 36.9204 22.5058V34.1725H27.7537L27.7539 19.1725ZM16.9206 35.8392H36.9206V45.0059C36.9206 45.2268 37.0084 45.4389 37.1646 45.5951C37.3209 45.7514 37.5329 45.8392 37.7539 45.8392H41.0872V55.8021L34.9321 51.0152V51.0156C34.7859 50.9017 34.6058 50.8396 34.4206 50.8396H16.9206L16.9206 35.8392ZM52.7539 60.8392C52.7539 61.5021 52.4905 62.1383 52.0218 62.607C51.553 63.0757 50.9168 63.3391 50.254 63.3391H30.254C29.591 63.3391 28.9548 63.0758 28.4861 62.607C28.0175 62.1383 27.754 61.5021 27.754 60.8392V52.5059H34.135L41.4091 58.1632C41.6603 58.3589 42.0007 58.3939 42.2867 58.2543C42.5725 58.1145 42.754 57.8239 42.754 57.5058V45.8392H52.754L52.7539 60.8392ZM63.5872 44.1725H38.5872V24.7554L42.1214 28.8778C42.2792 29.0638 42.5102 29.1713 42.7539 29.172H63.5872L63.5872 44.1725Z" fill="#1742E7"></path><path d="M29.7539 37.5059H29.0954C28.2989 37.5055 27.5351 37.8213 26.9711 38.3838C26.4071 38.9463 26.0891 39.7094 26.0872 40.5058V41.6725C26.0872 42.1327 26.4604 42.5058 26.9205 42.5058C27.3807 42.5058 27.7539 42.1327 27.7539 41.6725V40.5058C27.7572 39.7692 28.3547 39.1733 29.0913 39.1725H29.7498C30.3394 39.1721 30.8595 39.5583 31.0303 40.1227C31.201 40.687 30.9823 41.2968 30.4912 41.6234L28.9577 42.6457H28.958C28.7263 42.8005 28.5871 43.0605 28.5871 43.3392V45.8392C28.5849 46.0609 28.672 46.2741 28.8286 46.431C28.9856 46.5877 29.1988 46.6747 29.4205 46.6725C29.5983 46.6688 29.7702 46.6066 29.9097 46.4958C29.945 46.4761 29.9793 46.4545 30.012 46.4307C30.169 46.2741 30.256 46.0609 30.2538 45.8392V43.7849L31.4205 43.0059C32.1385 42.5248 32.6143 41.758 32.7271 40.9017C32.8394 40.0449 32.5779 39.1811 32.0087 38.5311C31.4395 37.8808 30.618 37.5073 29.7538 37.5058L29.7539 37.5059Z" fill="#1742E7"></path><path d="M45.2539 30.8392H61.9206V32.5059H45.2539V30.8392Z" fill="#1742E7"></path><path d="M40.2539 34.1725H61.9206V35.8392H40.2539V34.1725Z" fill="#1742E7"></path><path d="M50.2539 37.5059H61.9206V39.1725H50.2539V37.5059Z" fill="#1742E7"></path><path d="M40.2539 40.8392H51.9206V42.5059H40.2539V40.8392Z" fill="#1742E7"></path><path d="M53.5872 40.8392H61.9206V42.5059H53.5872V40.8392Z" fill="#1742E7"></path><path d="M40.2539 37.5059H48.5872V39.1725H40.2539V37.5059Z" fill="#1742E7"></path><path d="M40.2539 30.8392H43.5872V32.5059H40.2539V30.8392Z" fill="#1742E7"></path><path d="M30.2539 48.3392C30.2539 48.7994 29.8808 49.1725 29.4206 49.1725C28.9604 49.1725 28.5872 48.7994 28.5872 48.3392C28.5872 47.879 28.9604 47.5059 29.4206 47.5059C29.8808 47.5059 30.2539 47.879 30.2539 48.3392Z" fill="#1742E7"></path><path d="M35.2539 60.0059C34.7937 60.0059 34.4206 60.379 34.4206 60.8392C34.4206 61.2994 34.7937 61.6725 35.2539 61.6725H45.2539C45.7141 61.6725 46.0872 61.2994 46.0872 60.8392C46.0872 60.379 45.7141 60.0059 45.2539 60.0059H35.2539Z" stroke="#F1F4F4" stroke-width="0.3125" mask="url(#path-1-inside-1_6404_224)"></path><path d="M64.4206 27.5059H54.4206V19.1725C54.4191 18.068 53.9797 17.0088 53.1989 16.2276C52.4176 15.4467 51.3585 15.0074 50.2539 15.0059H30.2539C29.1493 15.0073 28.0902 15.4467 27.309 16.2276C26.5281 17.0088 26.0888 18.068 26.0872 19.1725V34.1725H16.0872C15.627 34.1725 15.2539 34.5457 15.2539 35.0059V51.6725C15.2539 51.8935 15.3417 52.1056 15.498 52.2618C15.6542 52.4181 15.8663 52.5059 16.0872 52.5059H26.0872V60.8392C26.0887 61.9438 26.5281 63.0029 27.309 63.7841C28.0902 64.565 29.1493 65.0043 30.2539 65.0059H50.2539C51.3585 65.0044 52.4176 64.565 53.1989 63.7841C53.9797 63.0029 54.4191 61.9438 54.4206 60.8392V45.8392H64.4206C64.6416 45.8392 64.8536 45.7514 65.0099 45.5951C65.1661 45.4389 65.2539 45.2268 65.2539 45.0059V28.3392C65.2539 28.1182 65.1661 27.9062 65.0099 27.7499C64.8536 27.5937 64.6416 27.5059 64.4206 27.5059ZM46.4053 16.6725L45.8019 17.8782C45.6617 18.1614 45.3726 18.3403 45.0568 18.3392H35.4501C35.1342 18.3403 34.8452 18.1613 34.7049 17.8782L34.1015 16.6725H46.4053ZM27.7539 19.1725C27.7539 18.5096 28.0173 17.8734 28.486 17.4047C28.9548 16.936 29.591 16.6726 30.2539 16.6726H32.239L33.2148 18.6242C33.4213 19.0405 33.7401 19.3906 34.1352 19.6346C34.5303 19.8786 34.986 20.0073 35.4506 20.0059H45.0573C45.522 20.0073 45.9777 19.8786 46.3727 19.6346C46.7678 19.3905 47.0866 19.0405 47.2931 18.6242L48.2689 16.6726H50.2541C50.917 16.6726 51.5532 16.936 52.0219 17.4047C52.4905 17.8735 52.754 18.5097 52.754 19.1725V27.5059H43.1369L38.3869 21.9641C38.1603 21.6989 37.7924 21.6033 37.465 21.7242C37.1376 21.8447 36.9204 22.1569 36.9204 22.5058V34.1725H27.7537L27.7539 19.1725ZM16.9206 35.8392H36.9206V45.0059C36.9206 45.2268 37.0084 45.4389 37.1646 45.5951C37.3209 45.7514 37.5329 45.8392 37.7539 45.8392H41.0872V55.8021L34.9321 51.0152V51.0156C34.7859 50.9017 34.6058 50.8396 34.4206 50.8396H16.9206L16.9206 35.8392ZM52.7539 60.8392C52.7539 61.5021 52.4905 62.1383 52.0218 62.607C51.553 63.0757 50.9168 63.3391 50.254 63.3391H30.254C29.591 63.3391 28.9548 63.0758 28.4861 62.607C28.0175 62.1383 27.754 61.5021 27.754 60.8392V52.5059H34.135L41.4091 58.1632C41.6603 58.3589 42.0007 58.3939 42.2867 58.2543C42.5725 58.1145 42.754 57.8239 42.754 57.5058V45.8392H52.754L52.7539 60.8392ZM63.5872 44.1725H38.5872V24.7554L42.1214 28.8778C42.2792 29.0638 42.5102 29.1713 42.7539 29.172H63.5872L63.5872 44.1725Z" stroke="#F1F4F4" stroke-width="0.3125" mask="url(#path-1-inside-1_6404_224)"></path><path d="M29.7539 37.5059H29.0954C28.2989 37.5055 27.5351 37.8213 26.9711 38.3838C26.4071 38.9463 26.0891 39.7094 26.0872 40.5058V41.6725C26.0872 42.1327 26.4604 42.5058 26.9205 42.5058C27.3807 42.5058 27.7539 42.1327 27.7539 41.6725V40.5058C27.7572 39.7692 28.3547 39.1733 29.0913 39.1725H29.7498C30.3394 39.1721 30.8595 39.5583 31.0303 40.1227C31.201 40.687 30.9823 41.2968 30.4912 41.6234L28.9577 42.6457H28.958C28.7263 42.8005 28.5871 43.0605 28.5871 43.3392V45.8392C28.5849 46.0609 28.672 46.2741 28.8286 46.431C28.9856 46.5877 29.1988 46.6747 29.4205 46.6725C29.5983 46.6688 29.7702 46.6066 29.9097 46.4958C29.945 46.4761 29.9793 46.4545 30.012 46.4307C30.169 46.2741 30.256 46.0609 30.2538 45.8392V43.7849L31.4205 43.0059C32.1385 42.5248 32.6143 41.758 32.7271 40.9017C32.8394 40.0449 32.5779 39.1811 32.0087 38.5311C31.4395 37.8808 30.618 37.5073 29.7538 37.5058L29.7539 37.5059Z" stroke="#F1F4F4" stroke-width="0.3125" mask="url(#path-1-inside-1_6404_224)"></path><path d="M45.2539 30.8392H61.9206V32.5059H45.2539V30.8392Z" stroke="#F1F4F4" stroke-width="0.3125" mask="url(#path-1-inside-1_6404_224)"></path><path d="M40.2539 34.1725H61.9206V35.8392H40.2539V34.1725Z" stroke="#F1F4F4" stroke-width="0.3125" mask="url(#path-1-inside-1_6404_224)"></path><path d="M50.2539 37.5059H61.9206V39.1725H50.2539V37.5059Z" stroke="#F1F4F4" stroke-width="0.3125" mask="url(#path-1-inside-1_6404_224)"></path><path d="M40.2539 40.8392H51.9206V42.5059H40.2539V40.8392Z" stroke="#F1F4F4" stroke-width="0.3125" mask="url(#path-1-inside-1_6404_224)"></path><path d="M53.5872 40.8392H61.9206V42.5059H53.5872V40.8392Z" stroke="#F1F4F4" stroke-width="0.3125" mask="url(#path-1-inside-1_6404_224)"></path><path d="M40.2539 37.5059H48.5872V39.1725H40.2539V37.5059Z" stroke="#F1F4F4" stroke-width="0.3125" mask="url(#path-1-inside-1_6404_224)"></path><path d="M40.2539 30.8392H43.5872V32.5059H40.2539V30.8392Z" stroke="#F1F4F4" stroke-width="0.3125" mask="url(#path-1-inside-1_6404_224)"></path><path d="M30.2539 48.3392C30.2539 48.7994 29.8808 49.1725 29.4206 49.1725C28.9604 49.1725 28.5872 48.7994 28.5872 48.3392C28.5872 47.879 28.9604 47.5059 29.4206 47.5059C29.8808 47.5059 30.2539 47.879 30.2539 48.3392Z" stroke="#F1F4F4" stroke-width="0.3125" mask="url(#path-1-inside-1_6404_224)"></path></svg>