<svg xmlns="http://www.w3.org/2000/svg" width="81" height="80" viewBox="0 0 81 80" fill="none"><mask id="path-1-inside-1_6404_257" fill="white"><path fill-rule="evenodd" clip-rule="evenodd" d="M17.1891 15.1267C16.3896 15.3559 15.5177 16.2701 15.3321 17.0739C15.267 17.3558 15.2325 25.2664 15.2308 40.2295C15.2285 62.4228 15.2328 62.9656 15.4155 63.3231C15.6628 63.8071 16.2777 64.4304 16.8219 64.7489L17.2611 65.0059L29.6651 64.9752C39.1453 64.9517 42.1525 64.9162 42.4226 64.8246C42.8324 64.6855 43.6685 63.8438 43.9562 63.2806C44.1449 62.9114 44.1552 62.6811 44.187 58.1458C44.2054 55.5342 44.2487 53.3693 44.2833 53.3347C44.3651 53.2532 46.736 54.4432 47.2756 54.8366C47.5117 55.0089 47.9256 55.4954 48.2353 55.9649C49.6411 58.0961 51.6341 58.9688 53.8067 58.4044C54.7166 58.168 59.2418 55.7739 59.425 55.4319C59.6697 54.9756 59.3289 54.3577 58.8327 54.3577C58.6627 54.3577 57.613 54.8295 56.2313 55.5272C53.4595 56.9264 53.167 57.0339 52.297 56.9717C51.0909 56.8855 50.3954 56.4255 49.5925 55.1829C48.6218 53.6805 48.5048 53.6051 42.4644 50.5951C36.3803 47.5632 35.8992 47.3006 35.5918 46.8451C35.0856 46.0952 35.4879 44.7987 36.3686 44.3412C36.958 44.0351 37.2917 44.1369 39.7938 45.3869C42.37 46.6738 42.4227 46.6867 42.8352 46.1335L43.0346 45.8661L42.2266 44.2297C41.7823 43.3296 40.2278 40.3162 38.7721 37.5332C35.9469 32.1317 35.6705 31.5531 35.6669 31.0304C35.6631 30.4894 36.0252 29.8679 36.5342 29.5412C36.9294 29.2877 37.0541 29.2568 37.5515 29.2903C38.0219 29.322 38.1663 29.3773 38.3994 29.6148C38.7477 29.9699 39.4779 31.2805 42.0674 36.1984C44.6917 41.1822 45.2363 42.1762 45.4237 42.3247C45.8066 42.6281 46.616 42.2785 46.616 41.8098C46.616 41.682 46.308 40.955 45.9315 40.1944C45.1684 38.6523 45.1144 38.3574 45.4671 37.6591C45.7492 37.1004 46.3318 36.7616 47.0103 36.7616C47.8033 36.7616 48.0312 36.9668 48.7724 38.3479C49.4895 39.6843 49.8954 40.2012 50.2276 40.2012C50.4774 40.2012 51.0161 39.7053 51.0161 39.4752C51.0161 39.3899 50.6861 38.6622 50.2827 37.8581C49.8316 36.9587 49.5494 36.2768 49.5494 36.0861C49.5494 35.2937 50.4419 34.4957 51.3134 34.5088C52.1782 34.5218 52.2332 34.5822 53.5077 36.917C53.9482 37.7238 54.1656 37.9557 54.4818 37.9557C54.8292 37.9557 55.2451 37.5621 55.2451 37.2331C55.2451 37.0835 54.9316 36.3252 54.5484 35.5482C53.8031 34.0368 53.7213 33.6665 54.0208 33.1603C54.2426 32.7855 54.7706 32.4295 55.3208 32.2839C55.7108 32.1807 55.816 32.1902 56.2114 32.3648C56.7845 32.6179 56.9574 32.858 58.0587 34.9292C60.4584 39.4418 61.2462 41.2868 62.3136 44.8934C62.6643 46.078 63.114 47.429 63.313 47.8956C63.6395 48.6612 63.6749 48.8296 63.6767 49.6226C63.6786 50.4486 63.6577 50.5393 63.3291 51.1359C63.0764 51.5947 62.7987 51.9158 62.3268 52.2953C61.7516 52.758 61.6742 52.8598 61.6742 53.1541C61.6742 53.5537 62.0379 53.9671 62.3894 53.9671C62.8546 53.9671 64.0685 52.9507 64.6047 52.1122C65.1261 51.2969 65.3168 50.528 65.2705 49.4273C65.2341 48.5592 65.1839 48.3374 64.8177 47.4259C64.5911 46.8621 64.1632 45.566 63.8665 44.5458C62.9114 41.2611 62.2229 39.5711 60.3933 36.0197C58.39 32.1311 57.9959 31.5468 57.0335 31.0396C56.5934 30.8077 56.4361 30.7801 55.5629 30.7828C54.7335 30.7852 54.5199 30.82 54.1556 31.0115C53.5602 31.3245 52.8464 32.0152 52.569 32.5467L52.3361 32.9928L51.7919 32.933C50.3845 32.7786 48.9148 33.5567 48.2984 34.7827L48.102 35.1732L47.2368 35.1743C46.068 35.1758 45.5014 35.3805 44.7536 36.0718L44.1715 36.6099L44.1706 26.8608L44.1696 17.1116L43.8838 16.6139C43.5543 16.0404 42.7373 15.2673 42.3407 15.1539C42.1914 15.1111 37.9545 15.0603 32.9253 15.041L23.7814 15.0059L23.6118 15.2927C23.4004 15.6497 23.3984 15.8362 23.6018 16.18L23.7617 16.4501L32.6824 16.4963L41.6031 16.5426L41.9596 16.7625C42.1556 16.8836 42.3555 17.056 42.4035 17.1457C42.4516 17.2354 42.523 17.9124 42.5622 18.6502L42.6334 19.9917H29.6494H16.6654L16.723 18.7746C16.8181 16.7671 16.9999 16.5924 19.0865 16.5054C20.1902 16.4594 20.3915 16.4253 20.5819 16.2523C20.8771 15.9841 20.8742 15.5048 20.5757 15.2247C20.3638 15.0261 20.2589 15.0131 18.9378 15.0213C18.1615 15.0262 17.3746 15.0736 17.1891 15.1267ZM42.607 27.6232C42.607 31.015 42.5903 33.7718 42.5697 33.7495C42.5493 33.7271 42.1792 33.0416 41.7473 32.2261L40.9621 30.7434L40.9259 28.272C40.8854 25.4937 40.845 25.3003 40.2049 24.8129L39.8355 24.5315L29.6989 24.5053L19.5624 24.4792L19.1187 24.869C18.4898 25.4218 18.4552 25.6332 18.4552 28.9224C18.4552 31.8512 18.492 32.1411 18.9232 32.6169C19.3976 33.1404 19.0813 33.1191 27.2066 33.1718L34.7356 33.2206L35.4787 34.6363C38.5544 40.4965 40.2451 43.7637 40.2165 43.7921C40.1982 43.8104 39.6952 43.5812 39.0988 43.2825C38.5024 42.984 37.9504 42.7396 37.8721 42.7396C37.6749 42.7396 37.6498 42.6808 37.4711 41.8038C37.15 40.228 36.3879 38.8537 35.1748 37.6628C34.3179 36.8217 33.3208 36.216 32.0684 35.7758C31.2622 35.4925 31.1354 35.4761 29.7488 35.4759C28.6723 35.4758 28.1235 35.5196 27.6858 35.6406C26.2532 36.0368 25.0087 36.7873 23.9644 37.885C22.3759 39.5547 21.6979 41.386 21.8077 43.7103C21.8724 45.0789 22.0382 45.739 22.6058 46.8889C23.5916 48.8858 25.4612 50.4148 27.6466 51.0112C28.5258 51.2512 30.8525 51.2516 31.7533 51.0119C32.7485 50.7471 34.072 50.0489 34.7621 49.4248L35.3753 48.8702L37.8422 50.093C39.199 50.7654 40.8262 51.5577 41.4581 51.8536L42.607 52.3915V53.8139V55.2363H29.6511H16.6952V38.3462V21.4561H29.6511H42.607V27.6232ZM39.2511 26.0783C39.353 26.1798 39.4228 28.2903 39.3241 28.2903C39.2837 28.2903 39.0488 28.1694 38.8021 28.0218C38.3922 27.7764 38.2691 27.7534 37.3757 27.754C36.4788 27.7547 36.3551 27.7783 35.8809 28.04C34.8156 28.6279 34.1353 29.6883 34.0316 30.9224L33.9739 31.6097H26.9968H20.0197L20.0204 29.4862C20.0208 28.3183 20.049 27.0674 20.0831 26.7062L20.1452 26.0497L21.6225 26.0146C24.4913 25.9464 39.1718 25.9994 39.2511 26.0783ZM31.2644 37.1918C31.5064 37.2483 32.0785 37.4714 32.5356 37.6875C33.7093 38.2425 34.789 39.3199 35.348 40.4941C35.7469 41.332 36.0835 42.4562 36.0001 42.6727C35.9753 42.7374 35.7576 42.8948 35.5163 43.0226C34.9366 43.3297 34.3384 43.9911 34.0215 44.6751C33.6792 45.4139 33.671 46.4267 34.0003 47.2737L34.2259 47.8537L33.8534 48.166C32.7185 49.1172 31.4799 49.5868 29.9444 49.6479C28.6109 49.7009 27.8342 49.5359 26.7298 48.9649C25.5487 48.3544 24.5766 47.3519 23.9979 46.148C23.4815 45.0737 23.3436 44.4911 23.3459 43.3938C23.3492 41.8336 23.7959 40.5223 24.7182 39.365C25.6497 38.1962 27.2138 37.2649 28.5611 37.0767C29.2454 36.9812 30.6121 37.0394 31.2644 37.1918ZM30.664 42.4154L28.141 44.9224L27.1658 43.9775C26.069 42.9148 25.8706 42.84 25.4552 43.3329C25.002 43.8707 25.0711 44.0095 26.5052 45.4414C27.642 46.5764 27.8489 46.7425 28.1256 46.7425C28.4073 46.7425 28.6788 46.5102 30.5505 44.6678C33.0922 42.166 34.1979 40.958 34.1979 40.6827C34.1979 40.4122 33.6829 39.9083 33.4065 39.9083C33.2501 39.9083 32.4614 40.6292 30.664 42.4154ZM42.5556 59.8006C42.5154 61.524 42.4442 62.8542 42.3885 62.9236C42.3352 62.9901 42.1316 63.1438 41.936 63.2653L41.5803 63.486L29.7488 63.4861C18.112 63.4861 17.9111 63.4829 17.529 63.2909C16.7822 62.9155 16.7547 62.7918 16.7107 59.6081L16.6719 56.7984H29.6488H42.6258L42.5556 59.8006ZM26.8881 58.2483C26.5091 58.3572 25.9715 58.8561 25.7805 59.276C25.3729 60.1725 25.6465 61.2182 26.4488 61.8298L26.8925 62.1681L29.3962 62.1638C30.7733 62.1615 32.0908 62.1228 32.3241 62.0778C33.1959 61.9096 33.9188 60.7826 33.75 59.8547C33.6658 59.3916 33.4009 58.8561 33.1392 58.6197C32.6998 58.223 32.3087 58.1736 29.6511 58.1793C28.2528 58.1823 27.0094 58.2133 26.8881 58.2483ZM31.9 59.8131C32.1465 59.8657 32.1934 59.9223 32.1934 60.1677C32.1934 60.4588 32.1915 60.4598 31.46 60.5386C31.0567 60.582 29.9666 60.6014 29.0378 60.5817C27.6058 60.5514 27.3234 60.5205 27.1816 60.3788C26.942 60.1396 27.1314 59.8886 27.6076 59.8144C28.1175 59.7351 31.5293 59.734 31.9 59.8131Z"></path></mask><path fill-rule="evenodd" clip-rule="evenodd" d="M17.1891 15.1267C16.3896 15.3559 15.5177 16.2701 15.3321 17.0739C15.267 17.3558 15.2325 25.2664 15.2308 40.2295C15.2285 62.4228 15.2328 62.9656 15.4155 63.3231C15.6628 63.8071 16.2777 64.4304 16.8219 64.7489L17.2611 65.0059L29.6651 64.9752C39.1453 64.9517 42.1525 64.9162 42.4226 64.8246C42.8324 64.6855 43.6685 63.8438 43.9562 63.2806C44.1449 62.9114 44.1552 62.6811 44.187 58.1458C44.2054 55.5342 44.2487 53.3693 44.2833 53.3347C44.3651 53.2532 46.736 54.4432 47.2756 54.8366C47.5117 55.0089 47.9256 55.4954 48.2353 55.9649C49.6411 58.0961 51.6341 58.9688 53.8067 58.4044C54.7166 58.168 59.2418 55.7739 59.425 55.4319C59.6697 54.9756 59.3289 54.3577 58.8327 54.3577C58.6627 54.3577 57.613 54.8295 56.2313 55.5272C53.4595 56.9264 53.167 57.0339 52.297 56.9717C51.0909 56.8855 50.3954 56.4255 49.5925 55.1829C48.6218 53.6805 48.5048 53.6051 42.4644 50.5951C36.3803 47.5632 35.8992 47.3006 35.5918 46.8451C35.0856 46.0952 35.4879 44.7987 36.3686 44.3412C36.958 44.0351 37.2917 44.1369 39.7938 45.3869C42.37 46.6738 42.4227 46.6867 42.8352 46.1335L43.0346 45.8661L42.2266 44.2297C41.7823 43.3296 40.2278 40.3162 38.7721 37.5332C35.9469 32.1317 35.6705 31.5531 35.6669 31.0304C35.6631 30.4894 36.0252 29.8679 36.5342 29.5412C36.9294 29.2877 37.0541 29.2568 37.5515 29.2903C38.0219 29.322 38.1663 29.3773 38.3994 29.6148C38.7477 29.9699 39.4779 31.2805 42.0674 36.1984C44.6917 41.1822 45.2363 42.1762 45.4237 42.3247C45.8066 42.6281 46.616 42.2785 46.616 41.8098C46.616 41.682 46.308 40.955 45.9315 40.1944C45.1684 38.6523 45.1144 38.3574 45.4671 37.6591C45.7492 37.1004 46.3318 36.7616 47.0103 36.7616C47.8033 36.7616 48.0312 36.9668 48.7724 38.3479C49.4895 39.6843 49.8954 40.2012 50.2276 40.2012C50.4774 40.2012 51.0161 39.7053 51.0161 39.4752C51.0161 39.3899 50.6861 38.6622 50.2827 37.8581C49.8316 36.9587 49.5494 36.2768 49.5494 36.0861C49.5494 35.2937 50.4419 34.4957 51.3134 34.5088C52.1782 34.5218 52.2332 34.5822 53.5077 36.917C53.9482 37.7238 54.1656 37.9557 54.4818 37.9557C54.8292 37.9557 55.2451 37.5621 55.2451 37.2331C55.2451 37.0835 54.9316 36.3252 54.5484 35.5482C53.8031 34.0368 53.7213 33.6665 54.0208 33.1603C54.2426 32.7855 54.7706 32.4295 55.3208 32.2839C55.7108 32.1807 55.816 32.1902 56.2114 32.3648C56.7845 32.6179 56.9574 32.858 58.0587 34.9292C60.4584 39.4418 61.2462 41.2868 62.3136 44.8934C62.6643 46.078 63.114 47.429 63.313 47.8956C63.6395 48.6612 63.6749 48.8296 63.6767 49.6226C63.6786 50.4486 63.6577 50.5393 63.3291 51.1359C63.0764 51.5947 62.7987 51.9158 62.3268 52.2953C61.7516 52.758 61.6742 52.8598 61.6742 53.1541C61.6742 53.5537 62.0379 53.9671 62.3894 53.9671C62.8546 53.9671 64.0685 52.9507 64.6047 52.1122C65.1261 51.2969 65.3168 50.528 65.2705 49.4273C65.2341 48.5592 65.1839 48.3374 64.8177 47.4259C64.5911 46.8621 64.1632 45.566 63.8665 44.5458C62.9114 41.2611 62.2229 39.5711 60.3933 36.0197C58.39 32.1311 57.9959 31.5468 57.0335 31.0396C56.5934 30.8077 56.4361 30.7801 55.5629 30.7828C54.7335 30.7852 54.5199 30.82 54.1556 31.0115C53.5602 31.3245 52.8464 32.0152 52.569 32.5467L52.3361 32.9928L51.7919 32.933C50.3845 32.7786 48.9148 33.5567 48.2984 34.7827L48.102 35.1732L47.2368 35.1743C46.068 35.1758 45.5014 35.3805 44.7536 36.0718L44.1715 36.6099L44.1706 26.8608L44.1696 17.1116L43.8838 16.6139C43.5543 16.0404 42.7373 15.2673 42.3407 15.1539C42.1914 15.1111 37.9545 15.0603 32.9253 15.041L23.7814 15.0059L23.6118 15.2927C23.4004 15.6497 23.3984 15.8362 23.6018 16.18L23.7617 16.4501L32.6824 16.4963L41.6031 16.5426L41.9596 16.7625C42.1556 16.8836 42.3555 17.056 42.4035 17.1457C42.4516 17.2354 42.523 17.9124 42.5622 18.6502L42.6334 19.9917H29.6494H16.6654L16.723 18.7746C16.8181 16.7671 16.9999 16.5924 19.0865 16.5054C20.1902 16.4594 20.3915 16.4253 20.5819 16.2523C20.8771 15.9841 20.8742 15.5048 20.5757 15.2247C20.3638 15.0261 20.2589 15.0131 18.9378 15.0213C18.1615 15.0262 17.3746 15.0736 17.1891 15.1267ZM42.607 27.6232C42.607 31.015 42.5903 33.7718 42.5697 33.7495C42.5493 33.7271 42.1792 33.0416 41.7473 32.2261L40.9621 30.7434L40.9259 28.272C40.8854 25.4937 40.845 25.3003 40.2049 24.8129L39.8355 24.5315L29.6989 24.5053L19.5624 24.4792L19.1187 24.869C18.4898 25.4218 18.4552 25.6332 18.4552 28.9224C18.4552 31.8512 18.492 32.1411 18.9232 32.6169C19.3976 33.1404 19.0813 33.1191 27.2066 33.1718L34.7356 33.2206L35.4787 34.6363C38.5544 40.4965 40.2451 43.7637 40.2165 43.7921C40.1982 43.8104 39.6952 43.5812 39.0988 43.2825C38.5024 42.984 37.9504 42.7396 37.8721 42.7396C37.6749 42.7396 37.6498 42.6808 37.4711 41.8038C37.15 40.228 36.3879 38.8537 35.1748 37.6628C34.3179 36.8217 33.3208 36.216 32.0684 35.7758C31.2622 35.4925 31.1354 35.4761 29.7488 35.4759C28.6723 35.4758 28.1235 35.5196 27.6858 35.6406C26.2532 36.0368 25.0087 36.7873 23.9644 37.885C22.3759 39.5547 21.6979 41.386 21.8077 43.7103C21.8724 45.0789 22.0382 45.739 22.6058 46.8889C23.5916 48.8858 25.4612 50.4148 27.6466 51.0112C28.5258 51.2512 30.8525 51.2516 31.7533 51.0119C32.7485 50.7471 34.072 50.0489 34.7621 49.4248L35.3753 48.8702L37.8422 50.093C39.199 50.7654 40.8262 51.5577 41.4581 51.8536L42.607 52.3915V53.8139V55.2363H29.6511H16.6952V38.3462V21.4561H29.6511H42.607V27.6232ZM39.2511 26.0783C39.353 26.1798 39.4228 28.2903 39.3241 28.2903C39.2837 28.2903 39.0488 28.1694 38.8021 28.0218C38.3922 27.7764 38.2691 27.7534 37.3757 27.754C36.4788 27.7547 36.3551 27.7783 35.8809 28.04C34.8156 28.6279 34.1353 29.6883 34.0316 30.9224L33.9739 31.6097H26.9968H20.0197L20.0204 29.4862C20.0208 28.3183 20.049 27.0674 20.0831 26.7062L20.1452 26.0497L21.6225 26.0146C24.4913 25.9464 39.1718 25.9994 39.2511 26.0783ZM31.2644 37.1918C31.5064 37.2483 32.0785 37.4714 32.5356 37.6875C33.7093 38.2425 34.789 39.3199 35.348 40.4941C35.7469 41.332 36.0835 42.4562 36.0001 42.6727C35.9753 42.7374 35.7576 42.8948 35.5163 43.0226C34.9366 43.3297 34.3384 43.9911 34.0215 44.6751C33.6792 45.4139 33.671 46.4267 34.0003 47.2737L34.2259 47.8537L33.8534 48.166C32.7185 49.1172 31.4799 49.5868 29.9444 49.6479C28.6109 49.7009 27.8342 49.5359 26.7298 48.9649C25.5487 48.3544 24.5766 47.3519 23.9979 46.148C23.4815 45.0737 23.3436 44.4911 23.3459 43.3938C23.3492 41.8336 23.7959 40.5223 24.7182 39.365C25.6497 38.1962 27.2138 37.2649 28.5611 37.0767C29.2454 36.9812 30.6121 37.0394 31.2644 37.1918ZM30.664 42.4154L28.141 44.9224L27.1658 43.9775C26.069 42.9148 25.8706 42.84 25.4552 43.3329C25.002 43.8707 25.0711 44.0095 26.5052 45.4414C27.642 46.5764 27.8489 46.7425 28.1256 46.7425C28.4073 46.7425 28.6788 46.5102 30.5505 44.6678C33.0922 42.166 34.1979 40.958 34.1979 40.6827C34.1979 40.4122 33.6829 39.9083 33.4065 39.9083C33.2501 39.9083 32.4614 40.6292 30.664 42.4154ZM42.5556 59.8006C42.5154 61.524 42.4442 62.8542 42.3885 62.9236C42.3352 62.9901 42.1316 63.1438 41.936 63.2653L41.5803 63.486L29.7488 63.4861C18.112 63.4861 17.9111 63.4829 17.529 63.2909C16.7822 62.9155 16.7547 62.7918 16.7107 59.6081L16.6719 56.7984H29.6488H42.6258L42.5556 59.8006ZM26.8881 58.2483C26.5091 58.3572 25.9715 58.8561 25.7805 59.276C25.3729 60.1725 25.6465 61.2182 26.4488 61.8298L26.8925 62.1681L29.3962 62.1638C30.7733 62.1615 32.0908 62.1228 32.3241 62.0778C33.1959 61.9096 33.9188 60.7826 33.75 59.8547C33.6658 59.3916 33.4009 58.8561 33.1392 58.6197C32.6998 58.223 32.3087 58.1736 29.6511 58.1793C28.2528 58.1823 27.0094 58.2133 26.8881 58.2483ZM31.9 59.8131C32.1465 59.8657 32.1934 59.9223 32.1934 60.1677C32.1934 60.4588 32.1915 60.4598 31.46 60.5386C31.0567 60.582 29.9666 60.6014 29.0378 60.5817C27.6058 60.5514 27.3234 60.5205 27.1816 60.3788C26.942 60.1396 27.1314 59.8886 27.6076 59.8144C28.1175 59.7351 31.5293 59.734 31.9 59.8131Z" fill="#1742E7" stroke="#1742E7" stroke-width="0.519004" mask="url(#path-1-inside-1_6404_257)"></path></svg>