<svg xmlns="http://www.w3.org/2000/svg" width="81" height="81" viewBox="0 0 81 81" fill="none"><mask id="path-1-inside-1_6355_2074" fill="white"><path d="M26.9195 51.4165C26.911 51.4165 26.9026 51.4165 26.8941 51.4158C24.1216 51.3096 21.5313 50.1462 19.601 48.1385C17.6657 46.126 16.5996 43.4772 16.5996 40.6796C16.5996 39.2299 16.8829 37.8229 17.4415 36.4976C17.9808 35.2182 18.7527 34.0693 19.7359 33.0826C20.7198 32.0962 21.8651 31.3219 23.14 30.7808C24.4611 30.2201 25.8632 29.9362 27.3086 29.9362L29.9351 29.9365C29.6747 29.0004 29.5435 28.0326 29.5435 27.0479C29.5435 25.5975 29.8269 24.1902 30.3854 22.8649C30.9247 21.5851 31.6973 20.4359 32.6806 19.4495C33.6637 18.4628 34.8097 17.6884 36.085 17.147C37.4064 16.587 38.8092 16.3027 40.2549 16.3027C41.7007 16.3027 43.1035 16.587 44.4245 17.1473C45.7002 17.6884 46.8458 18.4631 47.829 19.4498C48.8125 20.4365 49.5844 21.5858 50.1241 22.8652C50.683 24.1905 50.966 25.5978 50.966 27.0482C50.966 28.0329 50.8345 29.001 50.5741 29.9369H53.2006C54.646 29.9369 56.0485 30.2211 57.3691 30.7815C58.6445 31.3225 59.7897 32.0972 60.7729 33.0836C61.7561 34.0701 62.528 35.2189 63.0677 36.4983C63.6262 37.8232 63.9096 39.2302 63.9096 40.6803C63.9096 42.1303 63.6262 43.5373 63.0677 44.8622C62.5284 46.1416 61.7565 47.2905 60.7732 48.2772C58.8578 50.1981 56.3156 51.3124 53.6151 51.4159C53.2516 51.4308 52.9477 51.1462 52.9341 50.7829C52.9203 50.4193 53.2029 50.1134 53.5654 50.0998C55.9342 50.0092 58.1644 49.0313 59.8448 47.3462C61.6192 45.565 62.5963 43.1981 62.5963 40.6809C62.5963 35.4834 58.3815 31.255 53.2007 31.255H49.6694C49.454 31.255 49.2522 31.1489 49.1294 30.9711C49.0067 30.7934 48.9786 30.5665 49.0547 30.364C49.4517 29.3056 49.6525 28.1901 49.6525 27.0486C49.6525 21.8501 45.4366 17.621 40.2551 17.621C35.0735 17.621 30.8576 21.8504 30.8576 27.0486C30.8576 28.1901 31.0588 29.3056 31.4551 30.3643C31.5308 30.5668 31.5031 30.7934 31.3804 30.9711C31.2576 31.1485 31.0561 31.2547 30.8407 31.2547L27.3088 31.2537C24.8001 31.2537 22.4404 32.234 20.6649 34.0144C18.8905 35.7956 17.9134 38.1625 17.9134 40.6797C17.9134 45.7676 21.8801 49.905 26.9447 50.0986C27.3071 50.1125 27.5898 50.4181 27.5759 50.7818C27.5624 51.1372 27.2713 51.4164 26.92 51.4164L26.9195 51.4165Z"></path><path d="M51.7144 47.1303H28.796C27.3992 47.1303 26.2628 45.9903 26.2628 44.589V39.7677C26.2628 38.3665 27.3992 37.2264 28.796 37.2264H51.7144C53.1112 37.2264 54.2476 38.3665 54.2476 39.7677V44.589C54.2476 45.9899 53.1115 47.1303 51.7144 47.1303ZM28.796 38.5442C28.1235 38.5442 27.5764 39.0934 27.5764 39.7677V44.589C27.5764 45.2637 28.1238 45.8125 28.796 45.8125H51.7144C52.3869 45.8125 52.934 45.2634 52.934 44.589V39.7677C52.934 39.0931 52.3866 38.5442 51.7144 38.5442H28.796Z"></path><path d="M45.2261 43.9557C44.2497 43.9557 43.4548 43.1585 43.4548 42.1786C43.4548 41.199 44.2493 40.4015 45.2261 40.4015C46.2026 40.4015 46.9975 41.1986 46.9975 42.1786C46.9975 43.1582 46.2029 43.9557 45.2261 43.9557ZM45.2261 41.7193C44.9739 41.7193 44.7683 41.9256 44.7683 42.1786C44.7683 42.4316 44.9739 42.6379 45.2261 42.6379C45.4784 42.6379 45.6839 42.4316 45.6839 42.1786C45.6839 41.9256 45.4787 41.7193 45.2261 41.7193Z"></path><path d="M49.7487 43.9557C48.7723 43.9557 47.9773 43.1585 47.9773 42.1786C47.9773 41.199 48.7719 40.4015 49.7487 40.4015C50.7251 40.4015 51.5201 41.1986 51.5201 42.1786C51.5201 43.1582 50.7255 43.9557 49.7487 43.9557ZM49.7487 41.7193C49.4965 41.7193 49.2909 41.9256 49.2909 42.1786C49.2909 42.4316 49.4965 42.6379 49.7487 42.6379C50.0009 42.6379 50.2065 42.4316 50.2065 42.1786C50.2065 41.9256 50.0013 41.7193 49.7487 41.7193Z"></path><path d="M40.4292 41.7197H29.6469C29.2841 41.7197 28.9902 41.4249 28.9902 41.0609C28.9902 40.697 29.2841 40.4022 29.6469 40.4022H40.4292C40.792 40.4022 41.0858 40.697 41.0858 41.0609C41.0858 41.4246 40.7916 41.7197 40.4288 41.7197H40.4292Z"></path><path d="M40.4292 43.9557H29.6469C29.2841 43.9557 28.9902 43.6609 28.9902 43.2969C28.9902 42.933 29.2841 42.6382 29.6469 42.6382H40.4292C40.792 42.6382 41.0858 42.933 41.0858 43.2969C41.0858 43.6606 40.7916 43.9557 40.4288 43.9557H40.4292Z"></path><path d="M51.7144 55.7165H28.796C27.3992 55.7165 26.2628 54.5765 26.2628 53.1752V48.3539C26.2628 46.9527 27.3992 45.8125 28.796 45.8125H51.7144C53.1112 45.8125 54.2476 46.9527 54.2476 48.3539V53.1752C54.2476 54.5765 53.1115 55.7165 51.7144 55.7165ZM28.796 47.1308C28.1235 47.1308 27.5764 47.6799 27.5764 48.3543V53.1756C27.5764 53.8502 28.1238 54.3991 28.796 54.3991H51.7144C52.3869 54.3991 52.934 53.8499 52.934 53.1756V48.3543C52.934 47.6796 52.3866 47.1308 51.7144 47.1308H28.796Z"></path><path d="M45.2261 52.5419C44.2497 52.5419 43.4548 51.7447 43.4548 50.7648C43.4548 49.7852 44.2493 48.9877 45.2261 48.9877C46.2026 48.9877 46.9975 49.7848 46.9975 50.7648C46.9975 51.7447 46.2029 52.5419 45.2261 52.5419ZM45.2261 50.3059C44.9739 50.3059 44.7683 50.5121 44.7683 50.7651C44.7683 51.0182 44.9739 51.2244 45.2261 51.2244C45.4784 51.2244 45.6839 51.0182 45.6839 50.7651C45.6839 50.5118 45.4787 50.3059 45.2261 50.3059Z"></path><path d="M49.7487 52.5419C48.7723 52.5419 47.9773 51.7447 47.9773 50.7648C47.9773 49.7852 48.7719 48.9877 49.7487 48.9877C50.7251 48.9877 51.5201 49.7848 51.5201 50.7648C51.5201 51.7447 50.7255 52.5419 49.7487 52.5419ZM49.7487 50.3059C49.4965 50.3059 49.2909 50.5121 49.2909 50.7651C49.2909 51.0182 49.4965 51.2244 49.7487 51.2244C50.0009 51.2244 50.2065 51.0182 50.2065 50.7651C50.2065 50.5118 50.0013 50.3059 49.7487 50.3059Z"></path><path d="M40.4292 50.3059H29.6469C29.2841 50.3059 28.9902 50.0111 28.9902 49.6472C28.9902 49.2832 29.2841 48.9884 29.6469 48.9884H40.4292C40.792 48.9884 41.0858 49.2832 41.0858 49.6472C41.0858 50.0108 40.7916 50.3059 40.4288 50.3059H40.4292Z"></path><path d="M40.4292 52.5419H29.6469C29.2841 52.5419 28.9902 52.2471 28.9902 51.8831C28.9902 51.5192 29.2841 51.2244 29.6469 51.2244H40.4292C40.792 51.2244 41.0858 51.5192 41.0858 51.8831C41.0858 52.2471 40.7916 52.5419 40.4288 52.5419H40.4292Z"></path><path d="M51.7144 64.3027H28.796C27.3992 64.3027 26.2628 63.1627 26.2628 61.7614V56.9401C26.2628 55.5389 27.3992 54.3988 28.796 54.3988H51.7144C53.1112 54.3988 54.2476 55.5389 54.2476 56.9401V61.7614C54.2476 63.1627 53.1115 64.3027 51.7144 64.3027ZM28.796 55.7165C28.1235 55.7165 27.5764 56.2658 27.5764 56.9401V61.7614C27.5764 62.4361 28.1238 62.9849 28.796 62.9849H51.7144C52.3869 62.9849 52.934 62.4358 52.934 61.7614V56.9401C52.934 56.2655 52.3866 55.7165 51.7144 55.7165H28.796Z"></path><path d="M45.2261 61.1272C44.2497 61.1272 43.4548 60.3301 43.4548 59.3501C43.4548 58.3705 44.2493 57.5731 45.2261 57.5731C46.2026 57.5731 46.9975 58.3702 46.9975 59.3501C46.9975 60.3301 46.2029 61.1272 45.2261 61.1272ZM45.2261 58.8909C44.9739 58.8909 44.7683 59.0971 44.7683 59.3501C44.7683 59.6032 44.9739 59.8094 45.2261 59.8094C45.4784 59.8094 45.6839 59.6032 45.6839 59.3501C45.6839 59.0971 45.4787 58.8909 45.2261 58.8909Z"></path><path d="M49.7487 61.1272C48.7723 61.1272 47.9773 60.3301 47.9773 59.3501C47.9773 58.3705 48.7719 57.5731 49.7487 57.5731C50.7251 57.5731 51.5201 58.3702 51.5201 59.3501C51.5201 60.3301 50.7255 61.1272 49.7487 61.1272ZM49.7487 58.8909C49.4965 58.8909 49.2909 59.0971 49.2909 59.3501C49.2909 59.6032 49.4965 59.8094 49.7487 59.8094C50.0009 59.8094 50.2065 59.6032 50.2065 59.3501C50.2065 59.0971 50.0013 58.8909 49.7487 58.8909Z"></path><path d="M40.4292 58.8912H29.6469C29.2841 58.8912 28.9902 58.5964 28.9902 58.2325C28.9902 57.8685 29.2841 57.5738 29.6469 57.5738H40.4292C40.792 57.5738 41.0858 57.8685 41.0858 58.2325C41.0858 58.5964 40.7916 58.8912 40.4288 58.8912H40.4292Z"></path><path d="M40.4292 61.1272H29.6469C29.2841 61.1272 28.9902 60.8324 28.9902 60.4685C28.9902 60.1045 29.2841 59.8098 29.6469 59.8098H40.4292C40.792 59.8098 41.0858 60.1045 41.0858 60.4685C41.0858 60.8324 40.7916 61.1272 40.4288 61.1272H40.4292Z"></path></mask><path d="M26.9195 51.4165C26.911 51.4165 26.9026 51.4165 26.8941 51.4158C24.1216 51.3096 21.5313 50.1462 19.601 48.1385C17.6657 46.126 16.5996 43.4772 16.5996 40.6796C16.5996 39.2299 16.8829 37.8229 17.4415 36.4976C17.9808 35.2182 18.7527 34.0693 19.7359 33.0826C20.7198 32.0962 21.8651 31.3219 23.14 30.7808C24.4611 30.2201 25.8632 29.9362 27.3086 29.9362L29.9351 29.9365C29.6747 29.0004 29.5435 28.0326 29.5435 27.0479C29.5435 25.5975 29.8269 24.1902 30.3854 22.8649C30.9247 21.5851 31.6973 20.4359 32.6806 19.4495C33.6637 18.4628 34.8097 17.6884 36.085 17.147C37.4064 16.587 38.8092 16.3027 40.2549 16.3027C41.7007 16.3027 43.1035 16.587 44.4245 17.1473C45.7002 17.6884 46.8458 18.4631 47.829 19.4498C48.8125 20.4365 49.5844 21.5858 50.1241 22.8652C50.683 24.1905 50.966 25.5978 50.966 27.0482C50.966 28.0329 50.8345 29.001 50.5741 29.9369H53.2006C54.646 29.9369 56.0485 30.2211 57.3691 30.7815C58.6445 31.3225 59.7897 32.0972 60.7729 33.0836C61.7561 34.0701 62.528 35.2189 63.0677 36.4983C63.6262 37.8232 63.9096 39.2302 63.9096 40.6803C63.9096 42.1303 63.6262 43.5373 63.0677 44.8622C62.5284 46.1416 61.7565 47.2905 60.7732 48.2772C58.8578 50.1981 56.3156 51.3124 53.6151 51.4159C53.2516 51.4308 52.9477 51.1462 52.9341 50.7829C52.9203 50.4193 53.2029 50.1134 53.5654 50.0998C55.9342 50.0092 58.1644 49.0313 59.8448 47.3462C61.6192 45.565 62.5963 43.1981 62.5963 40.6809C62.5963 35.4834 58.3815 31.255 53.2007 31.255H49.6694C49.454 31.255 49.2522 31.1489 49.1294 30.9711C49.0067 30.7934 48.9786 30.5665 49.0547 30.364C49.4517 29.3056 49.6525 28.1901 49.6525 27.0486C49.6525 21.8501 45.4366 17.621 40.2551 17.621C35.0735 17.621 30.8576 21.8504 30.8576 27.0486C30.8576 28.1901 31.0588 29.3056 31.4551 30.3643C31.5308 30.5668 31.5031 30.7934 31.3804 30.9711C31.2576 31.1485 31.0561 31.2547 30.8407 31.2547L27.3088 31.2537C24.8001 31.2537 22.4404 32.234 20.6649 34.0144C18.8905 35.7956 17.9134 38.1625 17.9134 40.6797C17.9134 45.7676 21.8801 49.905 26.9447 50.0986C27.3071 50.1125 27.5898 50.4181 27.5759 50.7818C27.5624 51.1372 27.2713 51.4164 26.92 51.4164L26.9195 51.4165Z" fill="#1742E7"></path><path d="M51.7144 47.1303H28.796C27.3992 47.1303 26.2628 45.9903 26.2628 44.589V39.7677C26.2628 38.3665 27.3992 37.2264 28.796 37.2264H51.7144C53.1112 37.2264 54.2476 38.3665 54.2476 39.7677V44.589C54.2476 45.9899 53.1115 47.1303 51.7144 47.1303ZM28.796 38.5442C28.1235 38.5442 27.5764 39.0934 27.5764 39.7677V44.589C27.5764 45.2637 28.1238 45.8125 28.796 45.8125H51.7144C52.3869 45.8125 52.934 45.2634 52.934 44.589V39.7677C52.934 39.0931 52.3866 38.5442 51.7144 38.5442H28.796Z" fill="#1742E7"></path><path d="M45.2261 43.9557C44.2497 43.9557 43.4548 43.1585 43.4548 42.1786C43.4548 41.199 44.2493 40.4015 45.2261 40.4015C46.2026 40.4015 46.9975 41.1986 46.9975 42.1786C46.9975 43.1582 46.2029 43.9557 45.2261 43.9557ZM45.2261 41.7193C44.9739 41.7193 44.7683 41.9256 44.7683 42.1786C44.7683 42.4316 44.9739 42.6379 45.2261 42.6379C45.4784 42.6379 45.6839 42.4316 45.6839 42.1786C45.6839 41.9256 45.4787 41.7193 45.2261 41.7193Z" fill="#1742E7"></path><path d="M49.7487 43.9557C48.7723 43.9557 47.9773 43.1585 47.9773 42.1786C47.9773 41.199 48.7719 40.4015 49.7487 40.4015C50.7251 40.4015 51.5201 41.1986 51.5201 42.1786C51.5201 43.1582 50.7255 43.9557 49.7487 43.9557ZM49.7487 41.7193C49.4965 41.7193 49.2909 41.9256 49.2909 42.1786C49.2909 42.4316 49.4965 42.6379 49.7487 42.6379C50.0009 42.6379 50.2065 42.4316 50.2065 42.1786C50.2065 41.9256 50.0013 41.7193 49.7487 41.7193Z" fill="#1742E7"></path><path d="M40.4292 41.7197H29.6469C29.2841 41.7197 28.9902 41.4249 28.9902 41.0609C28.9902 40.697 29.2841 40.4022 29.6469 40.4022H40.4292C40.792 40.4022 41.0858 40.697 41.0858 41.0609C41.0858 41.4246 40.7916 41.7197 40.4288 41.7197H40.4292Z" fill="#1742E7"></path><path d="M40.4292 43.9557H29.6469C29.2841 43.9557 28.9902 43.6609 28.9902 43.2969C28.9902 42.933 29.2841 42.6382 29.6469 42.6382H40.4292C40.792 42.6382 41.0858 42.933 41.0858 43.2969C41.0858 43.6606 40.7916 43.9557 40.4288 43.9557H40.4292Z" fill="#1742E7"></path><path d="M51.7144 55.7165H28.796C27.3992 55.7165 26.2628 54.5765 26.2628 53.1752V48.3539C26.2628 46.9527 27.3992 45.8125 28.796 45.8125H51.7144C53.1112 45.8125 54.2476 46.9527 54.2476 48.3539V53.1752C54.2476 54.5765 53.1115 55.7165 51.7144 55.7165ZM28.796 47.1308C28.1235 47.1308 27.5764 47.6799 27.5764 48.3543V53.1756C27.5764 53.8502 28.1238 54.3991 28.796 54.3991H51.7144C52.3869 54.3991 52.934 53.8499 52.934 53.1756V48.3543C52.934 47.6796 52.3866 47.1308 51.7144 47.1308H28.796Z" fill="#1742E7"></path><path d="M45.2261 52.5419C44.2497 52.5419 43.4548 51.7447 43.4548 50.7648C43.4548 49.7852 44.2493 48.9877 45.2261 48.9877C46.2026 48.9877 46.9975 49.7848 46.9975 50.7648C46.9975 51.7447 46.2029 52.5419 45.2261 52.5419ZM45.2261 50.3059C44.9739 50.3059 44.7683 50.5121 44.7683 50.7651C44.7683 51.0182 44.9739 51.2244 45.2261 51.2244C45.4784 51.2244 45.6839 51.0182 45.6839 50.7651C45.6839 50.5118 45.4787 50.3059 45.2261 50.3059Z" fill="#1742E7"></path><path d="M49.7487 52.5419C48.7723 52.5419 47.9773 51.7447 47.9773 50.7648C47.9773 49.7852 48.7719 48.9877 49.7487 48.9877C50.7251 48.9877 51.5201 49.7848 51.5201 50.7648C51.5201 51.7447 50.7255 52.5419 49.7487 52.5419ZM49.7487 50.3059C49.4965 50.3059 49.2909 50.5121 49.2909 50.7651C49.2909 51.0182 49.4965 51.2244 49.7487 51.2244C50.0009 51.2244 50.2065 51.0182 50.2065 50.7651C50.2065 50.5118 50.0013 50.3059 49.7487 50.3059Z" fill="#1742E7"></path><path d="M40.4292 50.3059H29.6469C29.2841 50.3059 28.9902 50.0111 28.9902 49.6472C28.9902 49.2832 29.2841 48.9884 29.6469 48.9884H40.4292C40.792 48.9884 41.0858 49.2832 41.0858 49.6472C41.0858 50.0108 40.7916 50.3059 40.4288 50.3059H40.4292Z" fill="#1742E7"></path><path d="M40.4292 52.5419H29.6469C29.2841 52.5419 28.9902 52.2471 28.9902 51.8831C28.9902 51.5192 29.2841 51.2244 29.6469 51.2244H40.4292C40.792 51.2244 41.0858 51.5192 41.0858 51.8831C41.0858 52.2471 40.7916 52.5419 40.4288 52.5419H40.4292Z" fill="#1742E7"></path><path d="M51.7144 64.3027H28.796C27.3992 64.3027 26.2628 63.1627 26.2628 61.7614V56.9401C26.2628 55.5389 27.3992 54.3988 28.796 54.3988H51.7144C53.1112 54.3988 54.2476 55.5389 54.2476 56.9401V61.7614C54.2476 63.1627 53.1115 64.3027 51.7144 64.3027ZM28.796 55.7165C28.1235 55.7165 27.5764 56.2658 27.5764 56.9401V61.7614C27.5764 62.4361 28.1238 62.9849 28.796 62.9849H51.7144C52.3869 62.9849 52.934 62.4358 52.934 61.7614V56.9401C52.934 56.2655 52.3866 55.7165 51.7144 55.7165H28.796Z" fill="#1742E7"></path><path d="M45.2261 61.1272C44.2497 61.1272 43.4548 60.3301 43.4548 59.3501C43.4548 58.3705 44.2493 57.5731 45.2261 57.5731C46.2026 57.5731 46.9975 58.3702 46.9975 59.3501C46.9975 60.3301 46.2029 61.1272 45.2261 61.1272ZM45.2261 58.8909C44.9739 58.8909 44.7683 59.0971 44.7683 59.3501C44.7683 59.6032 44.9739 59.8094 45.2261 59.8094C45.4784 59.8094 45.6839 59.6032 45.6839 59.3501C45.6839 59.0971 45.4787 58.8909 45.2261 58.8909Z" fill="#1742E7"></path><path d="M49.7487 61.1272C48.7723 61.1272 47.9773 60.3301 47.9773 59.3501C47.9773 58.3705 48.7719 57.5731 49.7487 57.5731C50.7251 57.5731 51.5201 58.3702 51.5201 59.3501C51.5201 60.3301 50.7255 61.1272 49.7487 61.1272ZM49.7487 58.8909C49.4965 58.8909 49.2909 59.0971 49.2909 59.3501C49.2909 59.6032 49.4965 59.8094 49.7487 59.8094C50.0009 59.8094 50.2065 59.6032 50.2065 59.3501C50.2065 59.0971 50.0013 58.8909 49.7487 58.8909Z" fill="#1742E7"></path><path d="M40.4292 58.8912H29.6469C29.2841 58.8912 28.9902 58.5964 28.9902 58.2325C28.9902 57.8685 29.2841 57.5738 29.6469 57.5738H40.4292C40.792 57.5738 41.0858 57.8685 41.0858 58.2325C41.0858 58.5964 40.7916 58.8912 40.4288 58.8912H40.4292Z" fill="#1742E7"></path><path d="M40.4292 61.1272H29.6469C29.2841 61.1272 28.9902 60.8324 28.9902 60.4685C28.9902 60.1045 29.2841 59.8098 29.6469 59.8098H40.4292C40.792 59.8098 41.0858 60.1045 41.0858 60.4685C41.0858 60.8324 40.7916 61.1272 40.4288 61.1272H40.4292Z" fill="#1742E7"></path><path d="M28.796 45.937H51.7144V45.6881H28.796V45.937ZM51.7144 55.5921H28.796V55.841H51.7144V55.5921ZM26.9195 51.4165V51.6654H26.9397L26.9598 51.6621L26.9195 51.4165ZM26.8941 51.4158L26.914 51.1675L26.9036 51.1671L26.8941 51.4158ZM19.601 48.1385L19.7805 47.966L19.7804 47.966L19.601 48.1385ZM17.4415 36.4976L17.2122 36.401L17.2122 36.401L17.4415 36.4976ZM19.7359 33.0826L19.5597 32.9068L19.5596 32.9069L19.7359 33.0826ZM23.14 30.7808L23.2373 31.0099L23.2373 31.0099L23.14 30.7808ZM27.3086 29.9362L27.3086 29.6873H27.3086V29.9362ZM29.9351 29.9365L29.935 30.1854L30.2626 30.1854L30.1748 29.8698L29.9351 29.9365ZM30.3854 22.8649L30.6148 22.9615L30.6148 22.9615L30.3854 22.8649ZM32.6806 19.4495L32.8568 19.6252L32.8569 19.6252L32.6806 19.4495ZM36.085 17.147L35.9879 16.9178L35.9877 16.9179L36.085 17.147ZM44.4245 17.1473L44.3273 17.3765L44.3273 17.3765L44.4245 17.1473ZM47.829 19.4498L47.6526 19.6255L47.6527 19.6256L47.829 19.4498ZM50.1241 22.8652L50.3534 22.7685L50.3534 22.7685L50.1241 22.8652ZM50.5741 29.9369L50.3343 29.8702L50.2465 30.1857H50.5741V29.9369ZM57.3691 30.7815L57.2719 31.0106L57.2719 31.0106L57.3691 30.7815ZM63.0677 36.4983L63.297 36.4016L63.297 36.4016L63.0677 36.4983ZM63.0677 44.8622L62.8383 44.7655L62.8383 44.7655L63.0677 44.8622ZM60.7732 48.2772L60.9495 48.453L60.9495 48.4529L60.7732 48.2772ZM53.6151 51.4159L53.6056 51.1672L53.6049 51.1672L53.6151 51.4159ZM52.9341 50.7829L53.1829 50.7737L53.1828 50.7734L52.9341 50.7829ZM53.5654 50.0998L53.5747 50.3485L53.5749 50.3485L53.5654 50.0998ZM59.8448 47.3462L60.021 47.5219L60.0211 47.5218L59.8448 47.3462ZM49.1294 30.9711L48.9246 31.1126L48.9246 31.1126L49.1294 30.9711ZM49.0547 30.364L49.2877 30.4515L49.2878 30.4514L49.0547 30.364ZM31.4551 30.3643L31.6882 30.2771L31.6882 30.2771L31.4551 30.3643ZM31.3804 30.9711L31.585 31.1127L31.5852 31.1126L31.3804 30.9711ZM30.8407 31.2547L30.8407 31.5036H30.8407V31.2547ZM27.3088 31.2537L27.3089 31.0048H27.3088V31.2537ZM20.6649 34.0144L20.4887 33.8387L20.4886 33.8388L20.6649 34.0144ZM26.9447 50.0986L26.9542 49.8499H26.9542L26.9447 50.0986ZM27.5759 50.7818L27.3272 50.7723V50.7723L27.5759 50.7818ZM26.92 51.4164V51.1675H26.8997L26.8797 51.1708L26.92 51.4164ZM26.9195 51.1676C26.9148 51.1676 26.9131 51.1676 26.9118 51.1676C26.9107 51.1675 26.9118 51.1675 26.914 51.1677L26.8742 51.6639C26.8942 51.6655 26.9127 51.6654 26.9195 51.6654V51.1676ZM26.9036 51.1671C24.1957 51.0634 21.6663 49.9274 19.7805 47.966L19.4216 48.311C21.3964 50.365 24.0475 51.5559 26.8846 51.6645L26.9036 51.1671ZM19.7804 47.966C17.8898 45.9999 16.8485 43.413 16.8485 40.6796H16.3507C16.3507 43.5414 17.4417 46.2521 19.4216 48.311L19.7804 47.966ZM16.8485 40.6796C16.8485 39.2628 17.1253 37.8887 17.6709 36.5943L17.2122 36.401C16.6406 37.7571 16.3507 39.1969 16.3507 40.6796H16.8485ZM17.6709 36.5943C18.1977 35.3445 18.9515 34.2224 19.9122 33.2583L19.5596 32.9069C18.5538 33.9162 17.7639 35.0919 17.2122 36.401L17.6709 36.5943ZM19.9122 33.2584C20.8735 32.2946 21.992 31.5384 23.2373 31.0099L23.0428 30.5517C21.7381 31.1053 20.5661 31.8979 19.5597 32.9068L19.9122 33.2584ZM23.2373 31.0099C24.5273 30.4624 25.8963 30.1851 27.3086 30.1851V29.6873C25.83 29.6873 24.3948 29.9778 23.0428 30.5517L23.2373 31.0099ZM27.3086 30.1851L29.935 30.1854L29.9351 29.6876L27.3086 29.6873L27.3086 30.1851ZM30.1748 29.8698C29.9206 28.9557 29.7924 28.0103 29.7924 27.0479H29.2946C29.2946 28.0548 29.4288 29.045 29.6953 30.0032L30.1748 29.8698ZM29.7924 27.0479C29.7924 25.6304 30.0692 24.256 30.6148 22.9615L30.1561 22.7682C29.5845 24.1243 29.2946 25.5646 29.2946 27.0479H29.7924ZM30.6148 22.9615C31.1416 21.7114 31.8961 20.589 32.8568 19.6252L32.5043 19.2738C31.4985 20.2827 30.7079 21.4588 30.1561 22.7682L30.6148 22.9615ZM32.8569 19.6252C33.8174 18.6612 34.9365 17.9049 36.1822 17.3761L35.9877 16.9179C34.6828 17.4719 33.51 18.2644 32.5042 19.2738L32.8569 19.6252ZM36.1821 17.3762C37.4726 16.8292 38.8423 16.5516 40.2549 16.5516V16.0538C38.776 16.0538 37.3402 16.3447 35.9879 16.9178L36.1821 17.3762ZM40.2549 16.5516C41.6675 16.5516 43.0373 16.8292 44.3273 17.3765L44.5217 16.9182C43.1697 16.3447 41.7338 16.0538 40.2549 16.0538V16.5516ZM44.3273 17.3765C45.5733 17.9049 46.692 18.6614 47.6526 19.6255L48.0053 19.2742C46.9995 18.2647 45.8271 17.4718 44.5217 16.9182L44.3273 17.3765ZM47.6527 19.6256C48.6137 20.5896 49.3675 21.7121 49.8948 22.962L50.3534 22.7685C49.8013 21.4595 49.0113 20.2835 48.0052 19.2741L47.6527 19.6256ZM49.8947 22.9619C50.4406 24.2563 50.7171 25.6307 50.7171 27.0482H51.2149C51.2149 25.5649 50.9253 24.1247 50.3534 22.7685L49.8947 22.9619ZM50.7171 27.0482C50.7171 28.0106 50.5886 28.9562 50.3343 29.8702L50.8139 30.0036C51.0804 29.0457 51.2149 28.0552 51.2149 27.0482H50.7171ZM50.5741 30.1857H53.2006V29.688H50.5741V30.1857ZM53.2006 30.1857C54.6128 30.1857 55.9822 30.4634 57.2719 31.0106L57.4664 30.5523C56.1147 29.9788 54.6791 29.688 53.2006 29.688V30.1857ZM57.2719 31.0106C58.5175 31.539 59.6359 32.2955 60.5966 33.2593L60.9492 32.9079C59.9434 31.8989 58.7714 31.106 57.4663 30.5523L57.2719 31.0106ZM60.5966 33.2593C61.5573 34.2232 62.3111 35.3452 62.8383 36.595L63.297 36.4016C62.7448 35.0926 61.9549 33.917 60.9492 32.9079L60.5966 33.2593ZM62.8383 36.595C63.3839 37.8891 63.6607 39.2631 63.6607 40.6803H64.1584C64.1584 39.1973 63.8686 37.7574 63.297 36.4016L62.8383 36.595ZM63.6607 40.6803C63.6607 42.0974 63.3839 43.4715 62.8383 44.7655L63.297 44.9589C63.8686 43.6031 64.1584 42.1632 64.1584 40.6803H63.6607ZM62.8383 44.7655C62.3115 46.0154 61.5577 47.1375 60.5969 48.1016L60.9495 48.4529C61.9553 47.4436 62.7452 46.2679 63.297 44.9589L62.8383 44.7655ZM60.597 48.1015C58.7258 49.978 56.243 51.0661 53.6056 51.1672L53.6246 51.6646C56.3881 51.5587 58.9898 50.4182 60.9495 48.453L60.597 48.1015ZM53.6049 51.1672C53.3809 51.1764 53.1913 51.001 53.1829 50.7737L52.6854 50.7922C52.704 51.2915 53.1224 51.6852 53.6253 51.6646L53.6049 51.1672ZM53.1828 50.7734C53.1742 50.5464 53.3505 50.3569 53.5747 50.3485L53.5561 49.8511C53.0554 49.8698 52.6664 50.2922 52.6854 50.7924L53.1828 50.7734ZM53.5749 50.3485C56.0068 50.2555 58.2965 49.2513 60.021 47.5219L59.6686 47.1704C58.0323 48.8112 55.8616 49.7629 53.5559 49.8511L53.5749 50.3485ZM60.0211 47.5218C61.8421 45.694 62.8452 43.2638 62.8452 40.6809H62.3474C62.3474 43.1323 61.3964 45.4361 59.6685 47.1705L60.0211 47.5218ZM62.8452 40.6809C62.8452 35.3467 58.5197 31.0061 53.2007 31.0061V31.5039C58.2433 31.5039 62.3474 35.6201 62.3474 40.6809H62.8452ZM53.2007 31.0061H49.6694V31.5039H53.2007V31.0061ZM49.6694 31.0061C49.5361 31.0061 49.4107 30.9404 49.3342 30.8297L48.9246 31.1126C49.0937 31.3573 49.3719 31.5039 49.6694 31.5039V31.0061ZM49.3343 30.8297C49.2578 30.719 49.2403 30.5776 49.2877 30.4515L48.8217 30.2764C48.717 30.5553 48.7556 30.8678 48.9246 31.1126L49.3343 30.8297ZM49.2878 30.4514C49.6953 29.3647 49.9014 28.2195 49.9014 27.0486H49.4036C49.4036 28.1606 49.208 29.2465 48.8217 30.2766L49.2878 30.4514ZM49.9014 27.0486C49.9014 21.7134 45.5748 17.3721 40.2551 17.3721V17.8699C45.2984 17.8699 49.4036 21.9868 49.4036 27.0486H49.9014ZM40.2551 17.3721C34.9353 17.3721 30.6088 21.7137 30.6088 27.0486H31.1065C31.1065 21.9871 35.2118 17.8699 40.2551 17.8699V17.3721ZM30.6088 27.0486C30.6088 28.2196 30.8152 29.3647 31.222 30.4516L31.6882 30.2771C31.3025 29.2465 31.1065 28.1605 31.1065 27.0486H30.6088ZM31.222 30.4515C31.2693 30.5781 31.2518 30.7192 31.1756 30.8297L31.5852 31.1126C31.7544 30.8675 31.7923 30.5555 31.6882 30.2771L31.222 30.4515ZM31.1757 30.8295C31.0992 30.9402 30.9739 31.0058 30.8407 31.0058V31.5036C31.1383 31.5036 31.4161 31.3569 31.585 31.1127L31.1757 30.8295ZM30.8408 31.0058L27.3089 31.0048L27.3087 31.5026L30.8407 31.5036L30.8408 31.0058ZM27.3088 31.0048C24.7338 31.0048 22.3107 32.0115 20.4887 33.8387L20.8412 34.1902C22.57 32.4564 24.8663 31.5026 27.3088 31.5026V31.0048ZM20.4886 33.8388C18.6677 35.6666 17.6645 38.0967 17.6645 40.6797H18.1623C18.1623 38.2283 19.1134 35.9245 20.8412 34.1901L20.4886 33.8388ZM17.6645 40.6797C17.6645 45.9005 21.736 50.1485 26.9352 50.3473L26.9542 49.8499C22.0241 49.6614 18.1623 45.6348 18.1623 40.6797H17.6645ZM26.9351 50.3473C27.1597 50.3559 27.3359 50.5455 27.3272 50.7723L27.8246 50.7912C27.8437 50.2908 27.4545 49.8691 26.9542 49.8499L26.9351 50.3473ZM27.3272 50.7723C27.3188 50.9946 27.137 51.1675 26.92 51.1675V51.6653C27.4056 51.6653 27.806 51.2799 27.8246 50.7912L27.3272 50.7723ZM26.8797 51.1708L26.8792 51.1709L26.9598 51.6621L26.9603 51.662L26.8797 51.1708ZM51.7144 46.8814H28.796V47.3792H51.7144V46.8814ZM28.796 46.8814C27.5375 46.8814 26.5117 45.8536 26.5117 44.589H26.014C26.014 46.127 27.261 47.3792 28.796 47.3792V46.8814ZM26.5117 44.589V39.7677H26.014V44.589H26.5117ZM26.5117 39.7677C26.5117 38.5032 27.5375 37.4753 28.796 37.4753V36.9775C27.261 36.9775 26.014 38.2298 26.014 39.7677H26.5117ZM28.796 37.4753H51.7144V36.9775H28.796V37.4753ZM51.7144 37.4753C52.9729 37.4753 53.9987 38.5032 53.9987 39.7677H54.4964C54.4964 38.2298 53.2494 36.9775 51.7144 36.9775V37.4753ZM53.9987 39.7677V44.589H54.4964V39.7677H53.9987ZM53.9987 44.589C53.9987 45.8533 52.9732 46.8814 51.7144 46.8814V47.3792C53.2498 47.3792 54.4964 46.1266 54.4964 44.589H53.9987ZM28.796 38.2953C27.9853 38.2953 27.3275 38.9567 27.3275 39.7677H27.8253C27.8253 39.23 28.2618 38.7931 28.796 38.7931V38.2953ZM27.3275 39.7677V44.589H27.8253V39.7677H27.3275ZM27.3275 44.589C27.3275 45.4004 27.9857 46.0614 28.796 46.0614V45.5636C28.262 45.5636 27.8253 45.1269 27.8253 44.589H27.3275ZM51.7144 46.0614C52.5251 46.0614 53.1829 45.4 53.1829 44.589H52.6851C52.6851 45.1267 52.2486 45.5636 51.7144 45.5636V46.0614ZM53.1829 44.589V39.7677H52.6851V44.589H53.1829ZM53.1829 39.7677C53.1829 38.9563 52.5247 38.2953 51.7144 38.2953V38.7931C52.2484 38.7931 52.6851 39.2298 52.6851 39.7677H53.1829ZM51.7144 38.2953H28.796V38.7931H51.7144V38.2953ZM45.2261 43.7068C44.3879 43.7068 43.7036 43.0218 43.7036 42.1786H43.2059C43.2059 43.2953 44.1115 44.2045 45.2261 44.2045V43.7068ZM43.7036 42.1786C43.7036 41.3357 44.3876 40.6504 45.2261 40.6504V40.1526C44.1111 40.1526 43.2059 41.0623 43.2059 42.1786H43.7036ZM45.2261 40.6504C46.0644 40.6504 46.7486 41.3354 46.7486 42.1786H47.2464C47.2464 41.0619 46.3407 40.1526 45.2261 40.1526V40.6504ZM46.7486 42.1786C46.7486 43.0215 46.0647 43.7068 45.2261 43.7068V44.2045C46.3412 44.2045 47.2464 43.2948 47.2464 42.1786H46.7486ZM45.2261 41.4704C44.8357 41.4704 44.5194 41.7889 44.5194 42.1786H45.0172C45.0172 42.0623 45.1121 41.9682 45.2261 41.9682V41.4704ZM44.5194 42.1786C44.5194 42.5683 44.8357 42.8868 45.2261 42.8868V42.389C45.1121 42.389 45.0172 42.2949 45.0172 42.1786H44.5194ZM45.2261 42.8868C45.6166 42.8868 45.9328 42.5683 45.9328 42.1786H45.435C45.435 42.2949 45.3402 42.389 45.2261 42.389V42.8868ZM45.9328 42.1786C45.9328 41.789 45.617 41.4704 45.2261 41.4704V41.9682C45.3404 41.9682 45.435 42.0621 45.435 42.1786H45.9328ZM49.7487 43.7068C48.9104 43.7068 48.2262 43.0218 48.2262 42.1786H47.7284C47.7284 43.2953 48.6341 44.2045 49.7487 44.2045V43.7068ZM48.2262 42.1786C48.2262 41.3357 48.9101 40.6504 49.7487 40.6504V40.1526C48.6336 40.1526 47.7284 41.0623 47.7284 42.1786H48.2262ZM49.7487 40.6504C50.587 40.6504 51.2712 41.3354 51.2712 42.1786H51.769C51.769 41.0619 50.8633 40.1526 49.7487 40.1526V40.6504ZM51.2712 42.1786C51.2712 43.0215 50.5873 43.7068 49.7487 43.7068V44.2045C50.8638 44.2045 51.769 43.2948 51.769 42.1786H51.2712ZM49.7487 41.4704C49.3583 41.4704 49.042 41.7889 49.042 42.1786H49.5398C49.5398 42.0623 49.6347 41.9682 49.7487 41.9682V41.4704ZM49.042 42.1786C49.042 42.5683 49.3583 42.8868 49.7487 42.8868V42.389C49.6347 42.389 49.5398 42.2949 49.5398 42.1786H49.042ZM49.7487 42.8868C50.1391 42.8868 50.4554 42.5683 50.4554 42.1786H49.9576C49.9576 42.2949 49.8627 42.389 49.7487 42.389V42.8868ZM50.4554 42.1786C50.4554 41.789 50.1396 41.4704 49.7487 41.4704V41.9682C49.8629 41.9682 49.9576 42.0621 49.9576 42.1786H50.4554ZM40.4292 41.4708H29.6469V41.9686H40.4292V41.4708ZM29.6469 41.4708C29.4223 41.4708 29.2391 41.2882 29.2391 41.0609H28.7414C28.7414 41.5616 29.1459 41.9686 29.6469 41.9686V41.4708ZM29.2391 41.0609C29.2391 40.8337 29.4223 40.6511 29.6469 40.6511V40.1533C29.1459 40.1533 28.7414 40.5603 28.7414 41.0609H29.2391ZM29.6469 40.6511H40.4292V40.1533H29.6469V40.6511ZM40.4292 40.6511C40.6538 40.6511 40.8369 40.8337 40.8369 41.0609H41.3347C41.3347 40.5603 40.9302 40.1533 40.4292 40.1533V40.6511ZM40.8369 41.0609C40.8369 41.2878 40.6535 41.4708 40.4288 41.4708V41.9686C40.9298 41.9686 41.3347 41.5614 41.3347 41.0609H40.8369ZM40.4288 41.9686H40.4292V41.4708H40.4288V41.9686ZM40.4292 43.7068H29.6469V44.2045H40.4292V43.7068ZM29.6469 43.7068C29.4223 43.7068 29.2391 43.5242 29.2391 43.2969H28.7414C28.7414 43.7976 29.1459 44.2045 29.6469 44.2045V43.7068ZM29.2391 43.2969C29.2391 43.0697 29.4223 42.8871 29.6469 42.8871V42.3893C29.1459 42.3893 28.7414 42.7963 28.7414 43.2969H29.2391ZM29.6469 42.8871H40.4292V42.3893H29.6469V42.8871ZM40.4292 42.8871C40.6538 42.8871 40.8369 43.0697 40.8369 43.2969H41.3347C41.3347 42.7963 40.9302 42.3893 40.4292 42.3893V42.8871ZM40.8369 43.2969C40.8369 43.5238 40.6535 43.7068 40.4288 43.7068V44.2045C40.9298 44.2045 41.3347 43.7973 41.3347 43.2969H40.8369ZM40.4288 44.2045H40.4292V43.7068H40.4288V44.2045ZM28.796 55.4676C27.5375 55.4676 26.5117 54.4398 26.5117 53.1752H26.014C26.014 54.7132 27.261 55.9654 28.796 55.9654V55.4676ZM26.5117 53.1752V48.3539H26.014V53.1752H26.5117ZM26.5117 48.3539C26.5117 47.0894 27.5375 46.0614 28.796 46.0614V45.5636C27.261 45.5636 26.014 46.816 26.014 48.3539H26.5117ZM51.7144 46.0614C52.9729 46.0614 53.9987 47.0894 53.9987 48.3539H54.4964C54.4964 46.816 53.2494 45.5636 51.7144 45.5636V46.0614ZM53.9987 48.3539V53.1752H54.4964V48.3539H53.9987ZM53.9987 53.1752C53.9987 54.4398 52.9733 55.4676 51.7144 55.4676V55.9654C53.2497 55.9654 54.4964 54.7132 54.4964 53.1752H53.9987ZM28.796 46.8819C27.9853 46.8819 27.3275 47.5433 27.3275 48.3543H27.8253C27.8253 47.8166 28.2618 47.3797 28.796 47.3797V46.8819ZM27.3275 48.3543V53.1756H27.8253V48.3543H27.3275ZM27.3275 53.1756C27.3275 53.987 27.9857 54.648 28.796 54.648V54.1502C28.262 54.1502 27.8253 53.7135 27.8253 53.1756H27.3275ZM28.796 54.648H51.7144V54.1502H28.796V54.648ZM51.7144 54.648C52.5252 54.648 53.1829 53.9866 53.1829 53.1756H52.6851C52.6851 53.7133 52.2486 54.1502 51.7144 54.1502V54.648ZM53.1829 53.1756V48.3543H52.6851V53.1756H53.1829ZM53.1829 48.3543C53.1829 47.5429 52.5247 46.8819 51.7144 46.8819V47.3797C52.2484 47.3797 52.6851 47.8163 52.6851 48.3543H53.1829ZM51.7144 46.8819H28.796V47.3797H51.7144V46.8819ZM45.2261 52.293C44.3879 52.293 43.7036 51.608 43.7036 50.7648H43.2059C43.2059 51.8815 44.1115 52.7907 45.2261 52.7907V52.293ZM43.7036 50.7648C43.7036 49.9219 44.3876 49.2366 45.2261 49.2366V48.7388C44.1111 48.7388 43.2059 49.6485 43.2059 50.7648H43.7036ZM45.2261 49.2366C46.0644 49.2366 46.7486 49.9216 46.7486 50.7648H47.2464C47.2464 49.6481 46.3407 48.7388 45.2261 48.7388V49.2366ZM46.7486 50.7648C46.7486 51.608 46.0647 52.293 45.2261 52.293V52.7907C46.3412 52.7907 47.2464 51.8814 47.2464 50.7648H46.7486ZM45.2261 50.057C44.8357 50.057 44.5194 50.3754 44.5194 50.7651H45.0172C45.0172 50.6488 45.1121 50.5548 45.2261 50.5548V50.057ZM44.5194 50.7651C44.5194 51.1549 44.8357 51.4733 45.2261 51.4733V50.9755C45.1121 50.9755 45.0172 50.8815 45.0172 50.7651H44.5194ZM45.2261 51.4733C45.6166 51.4733 45.9328 51.1549 45.9328 50.7651H45.435C45.435 50.8815 45.3402 50.9755 45.2261 50.9755V51.4733ZM45.9328 50.7651C45.9328 50.3751 45.6169 50.057 45.2261 50.057V50.5548C45.3405 50.5548 45.435 50.6485 45.435 50.7651H45.9328ZM49.7487 52.293C48.9104 52.293 48.2262 51.608 48.2262 50.7648H47.7284C47.7284 51.8815 48.6341 52.7907 49.7487 52.7907V52.293ZM48.2262 50.7648C48.2262 49.9219 48.9101 49.2366 49.7487 49.2366V48.7388C48.6336 48.7388 47.7284 49.6485 47.7284 50.7648H48.2262ZM49.7487 49.2366C50.587 49.2366 51.2712 49.9216 51.2712 50.7648H51.769C51.769 49.6481 50.8633 48.7388 49.7487 48.7388V49.2366ZM51.2712 50.7648C51.2712 51.608 50.5873 52.293 49.7487 52.293V52.7907C50.8637 52.7907 51.769 51.8814 51.769 50.7648H51.2712ZM49.7487 50.057C49.3583 50.057 49.042 50.3754 49.042 50.7651H49.5398C49.5398 50.6488 49.6347 50.5548 49.7487 50.5548V50.057ZM49.042 50.7651C49.042 51.1549 49.3583 51.4733 49.7487 51.4733V50.9755C49.6347 50.9755 49.5398 50.8815 49.5398 50.7651H49.042ZM49.7487 51.4733C50.1391 51.4733 50.4554 51.1549 50.4554 50.7651H49.9576C49.9576 50.8815 49.8627 50.9755 49.7487 50.9755V51.4733ZM50.4554 50.7651C50.4554 50.3751 50.1395 50.057 49.7487 50.057V50.5548C49.8631 50.5548 49.9576 50.6485 49.9576 50.7651H50.4554ZM40.4292 50.057H29.6469V50.5548H40.4292V50.057ZM29.6469 50.057C29.4223 50.057 29.2391 49.8744 29.2391 49.6472H28.7414C28.7414 50.1478 29.1459 50.5548 29.6469 50.5548V50.057ZM29.2391 49.6472C29.2391 49.4199 29.4223 49.2373 29.6469 49.2373V48.7395C29.1459 48.7395 28.7414 49.1465 28.7414 49.6472H29.2391ZM29.6469 49.2373H40.4292V48.7395H29.6469V49.2373ZM40.4292 49.2373C40.6538 49.2373 40.8369 49.4199 40.8369 49.6472H41.3347C41.3347 49.1465 40.9302 48.7395 40.4292 48.7395V49.2373ZM40.8369 49.6472C40.8369 49.874 40.6535 50.057 40.4288 50.057V50.5548C40.9298 50.5548 41.3347 50.1476 41.3347 49.6472H40.8369ZM40.4288 50.5548H40.4292V50.057H40.4288V50.5548ZM40.4292 52.293H29.6469V52.7907H40.4292V52.293ZM29.6469 52.293C29.4223 52.293 29.2391 52.1104 29.2391 51.8831H28.7414C28.7414 52.3838 29.1459 52.7907 29.6469 52.7907V52.293ZM29.2391 51.8831C29.2391 51.6559 29.4223 51.4733 29.6469 51.4733V50.9755C29.1459 50.9755 28.7414 51.3825 28.7414 51.8831H29.2391ZM29.6469 51.4733H40.4292V50.9755H29.6469V51.4733ZM40.4292 51.4733C40.6538 51.4733 40.8369 51.6559 40.8369 51.8831H41.3347C41.3347 51.3825 40.9302 50.9755 40.4292 50.9755V51.4733ZM40.8369 51.8831C40.8369 52.1102 40.6536 52.293 40.4288 52.293V52.7907C40.9297 52.7907 41.3347 52.384 41.3347 51.8831H40.8369ZM40.4288 52.7907H40.4292V52.293H40.4288V52.7907ZM51.7144 64.0538H28.796V64.5516H51.7144V64.0538ZM28.796 64.0538C27.5375 64.0538 26.5117 63.026 26.5117 61.7614H26.014C26.014 63.2994 27.261 64.5516 28.796 64.5516V64.0538ZM26.5117 61.7614V56.9401H26.014V61.7614H26.5117ZM26.5117 56.9401C26.5117 55.6756 27.5375 54.6477 28.796 54.6477V54.1499C27.261 54.1499 26.014 55.4022 26.014 56.9401H26.5117ZM28.796 54.6477H51.7144V54.1499H28.796V54.6477ZM51.7144 54.6477C52.9729 54.6477 53.9987 55.6756 53.9987 56.9401H54.4964C54.4964 55.4022 53.2494 54.1499 51.7144 54.1499V54.6477ZM53.9987 56.9401V61.7614H54.4964V56.9401H53.9987ZM53.9987 61.7614C53.9987 63.026 52.9733 64.0538 51.7144 64.0538V64.5516C53.2497 64.5516 54.4964 63.2994 54.4964 61.7614H53.9987ZM28.796 55.4676C27.9852 55.4676 27.3275 56.1291 27.3275 56.9401H27.8253C27.8253 56.4024 28.2618 55.9654 28.796 55.9654V55.4676ZM27.3275 56.9401V61.7614H27.8253V56.9401H27.3275ZM27.3275 61.7614C27.3275 62.5728 27.9857 63.2338 28.796 63.2338V62.736C28.262 62.736 27.8253 62.2994 27.8253 61.7614H27.3275ZM28.796 63.2338H51.7144V62.736H28.796V63.2338ZM51.7144 63.2338C52.5251 63.2338 53.1829 62.5724 53.1829 61.7614H52.6851C52.6851 62.2991 52.2486 62.736 51.7144 62.736V63.2338ZM53.1829 61.7614V56.9401H52.6851V61.7614H53.1829ZM53.1829 56.9401C53.1829 56.1287 52.5248 55.4676 51.7144 55.4676V55.9654C52.2484 55.9654 52.6851 56.4022 52.6851 56.9401H53.1829ZM45.2261 60.8783C44.3879 60.8783 43.7036 60.1933 43.7036 59.3501H43.2059C43.2059 60.4668 44.1115 61.3761 45.2261 61.3761V60.8783ZM43.7036 59.3501C43.7036 58.5072 44.3876 57.8219 45.2261 57.8219V57.3242C44.1111 57.3242 43.2059 58.2339 43.2059 59.3501H43.7036ZM45.2261 57.8219C46.0644 57.8219 46.7486 58.5069 46.7486 59.3501H47.2464C47.2464 58.2334 46.3407 57.3242 45.2261 57.3242V57.8219ZM46.7486 59.3501C46.7486 60.1934 46.0647 60.8783 45.2261 60.8783V61.3761C46.3412 61.3761 47.2464 60.4668 47.2464 59.3501H46.7486ZM45.2261 58.642C44.8357 58.642 44.5194 58.9604 44.5194 59.3501H45.0172C45.0172 59.2338 45.1121 59.1397 45.2261 59.1397V58.642ZM44.5194 59.3501C44.5194 59.7399 44.8357 60.0583 45.2261 60.0583V59.5605C45.1121 59.5605 45.0172 59.4665 45.0172 59.3501H44.5194ZM45.2261 60.0583C45.6166 60.0583 45.9328 59.7399 45.9328 59.3501H45.435C45.435 59.4665 45.3402 59.5605 45.2261 59.5605V60.0583ZM45.9328 59.3501C45.9328 58.9605 45.617 58.642 45.2261 58.642V59.1397C45.3404 59.1397 45.435 59.2337 45.435 59.3501H45.9328ZM49.7487 60.8783C48.9104 60.8783 48.2262 60.1933 48.2262 59.3501H47.7284C47.7284 60.4668 48.6341 61.3761 49.7487 61.3761V60.8783ZM48.2262 59.3501C48.2262 58.5072 48.9101 57.8219 49.7487 57.8219V57.3242C48.6336 57.3242 47.7284 58.2339 47.7284 59.3501H48.2262ZM49.7487 57.8219C50.587 57.8219 51.2712 58.5069 51.2712 59.3501H51.769C51.769 58.2334 50.8633 57.3242 49.7487 57.3242V57.8219ZM51.2712 59.3501C51.2712 60.1934 50.5873 60.8783 49.7487 60.8783V61.3761C50.8637 61.3761 51.769 60.4668 51.769 59.3501H51.2712ZM49.7487 58.642C49.3583 58.642 49.042 58.9604 49.042 59.3501H49.5398C49.5398 59.2338 49.6347 59.1397 49.7487 59.1397V58.642ZM49.042 59.3501C49.042 59.7399 49.3583 60.0583 49.7487 60.0583V59.5605C49.6347 59.5605 49.5398 59.4665 49.5398 59.3501H49.042ZM49.7487 60.0583C50.1391 60.0583 50.4554 59.7399 50.4554 59.3501H49.9576C49.9576 59.4665 49.8627 59.5605 49.7487 59.5605V60.0583ZM50.4554 59.3501C50.4554 58.9605 50.1396 58.642 49.7487 58.642V59.1397C49.8629 59.1397 49.9576 59.2337 49.9576 59.3501H50.4554ZM40.4292 58.6423H29.6469V59.1401H40.4292V58.6423ZM29.6469 58.6423C29.4223 58.6423 29.2391 58.4597 29.2391 58.2325H28.7414C28.7414 58.7332 29.1459 59.1401 29.6469 59.1401V58.6423ZM29.2391 58.2325C29.2391 58.0052 29.4223 57.8227 29.6469 57.8227V57.3249C29.1459 57.3249 28.7414 57.7318 28.7414 58.2325H29.2391ZM29.6469 57.8227H40.4292V57.3249H29.6469V57.8227ZM40.4292 57.8227C40.6538 57.8227 40.8369 58.0052 40.8369 58.2325H41.3347C41.3347 57.7318 40.9302 57.3249 40.4292 57.3249V57.8227ZM40.8369 58.2325C40.8369 58.4596 40.6536 58.6423 40.4288 58.6423V59.1401C40.9297 59.1401 41.3347 58.7333 41.3347 58.2325H40.8369ZM40.4288 59.1401H40.4292V58.6423H40.4288V59.1401ZM40.4292 60.8783H29.6469V61.3761H40.4292V60.8783ZM29.6469 60.8783C29.4223 60.8783 29.2391 60.6957 29.2391 60.4685H28.7414C28.7414 60.9691 29.1458 61.3761 29.6469 61.3761V60.8783ZM29.2391 60.4685C29.2391 60.2412 29.4223 60.0586 29.6469 60.0586V59.5609C29.1459 59.5609 28.7414 59.9678 28.7414 60.4685H29.2391ZM29.6469 60.0586H40.4292V59.5609H29.6469V60.0586ZM40.4292 60.0586C40.6538 60.0586 40.8369 60.2412 40.8369 60.4685H41.3347C41.3347 59.9678 40.9302 59.5609 40.4292 59.5609V60.0586ZM40.8369 60.4685C40.8369 60.6956 40.6536 60.8783 40.4288 60.8783V61.3761C40.9297 61.3761 41.3347 60.9693 41.3347 60.4685H40.8369ZM40.4288 61.3761H40.4292V60.8783H40.4288V61.3761Z" fill="#1742E7" mask="url(#path-1-inside-1_6355_2074)"></path></svg>