<svg xmlns="http://www.w3.org/2000/svg" width="81" height="81" viewBox="0 0 81 81" fill="none"><mask id="path-1-inside-1_6355_2066" fill="white"><path d="M54.4869 35.2307C54.4869 31.7659 52.9873 28.4432 50.3183 25.9933C47.6489 23.5437 44.0286 22.1673 40.2535 22.1673C36.4784 22.1673 32.8581 23.5437 30.1888 25.9933C27.5198 28.4432 26.0202 31.7659 26.0202 35.2307C26.0202 38.6955 27.5198 42.0182 30.1888 44.4681C32.8581 46.9177 36.4784 48.294 40.2535 48.294C44.0272 48.2903 47.6452 46.9127 50.3138 44.464C52.9818 42.0148 54.4828 38.6942 54.4869 35.2307ZM40.2534 45.919C37.1648 45.919 34.2029 44.7928 32.0187 42.7885C29.8349 40.7838 28.6078 38.0654 28.6078 35.2307C28.6078 32.396 29.8349 29.6776 32.0187 27.6729C34.2029 25.6686 37.1648 24.5424 40.2534 24.5424C43.342 24.5424 46.3039 25.6686 48.4881 27.6729C50.6719 29.6776 51.899 32.396 51.899 35.2307C51.8954 38.0647 50.6674 40.7814 48.484 42.7848C46.301 44.7886 43.3411 45.9156 40.2534 45.919ZM45.7813 31.212C46.3527 31.6059 46.4687 32.3497 46.0399 32.8746L39.3373 40.9784C39.0931 41.2775 38.7095 41.4535 38.302 41.4535C37.8927 41.4506 37.5086 41.27 37.2672 40.9668L34.4669 37.449C34.0454 36.9193 34.1713 36.1758 34.749 35.7889C35.3262 35.4017 36.1363 35.5176 36.5578 36.0478L38.3305 38.2758L43.9748 31.4399C44.4062 30.9213 45.2132 30.8197 45.7813 31.212ZM53.5291 48.4129C55.1082 48.4858 56.6449 47.932 57.7479 46.8928C58.4772 45.5765 58.5525 44.0357 57.9546 42.6651C57.7203 41.9415 57.6328 41.1847 57.696 40.4321C58.1085 39.8224 58.6446 39.2901 59.2746 38.8648C60.6704 38.0551 61.615 36.7292 61.8623 35.2307C61.615 33.7321 60.6704 32.4062 59.2746 31.5966C58.6446 31.1712 58.1084 30.639 57.696 30.0293C57.6328 29.2767 57.7203 28.52 57.9546 27.7963C58.5525 26.4257 58.4772 24.8849 57.7479 23.5686C56.6002 22.5169 55.0189 21.964 53.4001 22.0485C52.5914 22.0559 51.7895 21.9105 51.0447 21.621C50.5131 21.0585 50.1083 20.4045 49.8546 19.697C49.2337 18.367 48.5346 16.8469 46.9303 16.3719C45.3602 16.13 43.7537 16.5293 42.5306 17.4646C41.8474 17.9111 41.073 18.2263 40.2534 18.3907C39.4338 18.2263 38.6594 17.9111 37.9762 17.4646C36.7518 16.5318 35.1466 16.1329 33.5765 16.3719C31.9721 16.847 31.273 18.367 30.6522 19.697C30.3985 20.4045 29.9937 21.0585 29.4621 21.621C28.7174 21.9106 27.9154 22.0559 27.1067 22.0485C25.4879 21.964 23.9066 22.5169 22.7589 23.5686C22.0296 24.8849 21.9543 26.4257 22.5522 27.7963C22.7864 28.5199 22.874 29.2766 22.8108 30.0293C22.3983 30.639 21.8622 31.1713 21.2322 31.5966C19.8364 32.4063 18.8918 33.7322 18.6445 35.2307C18.8918 36.7293 19.8364 38.0551 21.2322 38.8648C21.8622 39.2902 22.3984 39.8224 22.8108 40.4321C22.874 41.1847 22.7865 41.9414 22.5522 42.6651C21.9543 44.0357 22.0296 45.5765 22.7589 46.8928C23.8619 47.932 25.3986 48.4858 26.9777 48.4129L20.1194 56.631C19.813 57.0179 19.7854 57.5344 20.0494 57.9469C20.3134 58.359 20.8184 58.5885 21.3361 58.5313L27.2883 57.7949L28.0907 63.2813C28.1679 63.7531 28.5447 64.1366 29.0479 64.2551C29.1576 64.2829 29.2708 64.2986 29.3846 64.3027C29.7912 64.3003 30.1734 64.1246 30.4194 63.8277L40.1759 52.0939C40.2219 52.0624 40.2851 52.0624 40.3311 52.0939L50.0877 63.8277C50.3336 64.1246 50.7159 64.3002 51.1225 64.3027C51.2362 64.2986 51.3495 64.2829 51.4591 64.2551C51.9623 64.1366 52.3396 63.7531 52.4168 63.2813L53.2192 57.7949L59.1714 58.5313C59.689 58.5885 60.1936 58.359 60.4576 57.9469C60.7216 57.5344 60.6941 57.0179 60.3876 56.631L53.5291 48.4129ZM30.238 60.1223L29.6946 56.2985C29.5827 55.649 28.931 55.1971 28.2197 55.2767L24.0791 55.7994L29.695 49.0538C30.0916 49.5844 30.4134 50.1593 30.6522 50.764C31.2731 52.094 31.9722 53.6141 33.5765 54.0891C34.1041 54.2428 34.6659 54.2677 35.207 54.1604L30.238 60.1223ZM40.2532 49.6953C39.9386 49.6994 39.6259 49.7396 39.3221 49.8138C39.2964 49.8138 39.2964 49.8138 39.2702 49.8374C39.1619 49.8382 39.0554 49.863 38.9598 49.909C38.934 49.909 38.9079 49.9326 38.8564 49.9326C38.0888 50.206 37.3514 50.5481 36.6564 50.954C35.8801 51.3815 34.7929 51.9754 34.3791 51.833C33.8872 51.6905 33.3957 50.6214 33.0334 49.8142C32.6435 48.7062 31.9372 47.7133 30.9891 46.94C30.6777 46.7259 30.327 46.5647 29.9538 46.4649C29.8166 46.4007 29.6672 46.3601 29.5138 46.346C28.8007 46.1837 28.0732 46.0801 27.34 46.0375C26.4085 45.9662 25.1404 45.8473 24.8556 45.4911C24.5708 45.1349 24.8556 44.0186 25.0627 43.1873C25.4639 42.0603 25.5357 40.8559 25.2699 39.6956C24.7459 38.6448 23.9344 37.7364 22.915 37.0593C22.1645 36.4653 21.233 35.7052 21.233 35.2306C21.233 34.7555 22.1644 33.9955 22.915 33.3779C23.939 32.7147 24.7517 31.8126 25.2699 30.7647C25.5357 29.6045 25.4639 28.4004 25.0627 27.2734C24.8556 26.4421 24.5708 25.3258 24.8556 24.9696C25.1403 24.6133 26.4084 24.4945 27.34 24.4232C28.6226 24.4261 29.8821 24.1147 30.9891 23.5203C31.9373 22.747 32.6435 21.7546 33.0335 20.6465C33.3958 19.8389 33.8873 18.7703 34.3792 18.6277C34.418 18.6062 34.4636 18.5975 34.5087 18.6037C35.2777 18.7839 36.0052 19.0896 36.6564 19.5063C37.7147 20.2083 38.9549 20.6424 40.2537 20.7654C41.5525 20.6424 42.7928 20.2083 43.851 19.5063C44.6273 19.0788 45.7144 18.5089 46.1283 18.6273C46.6202 18.7698 47.1116 19.8389 47.474 20.6461C47.8639 21.7541 48.5702 22.747 49.5183 23.5203C50.6253 24.1147 51.8849 24.4261 53.1675 24.4232C54.099 24.4945 55.3671 24.6134 55.6519 24.9696C55.9367 25.3258 55.6519 26.4421 55.4447 27.2734C55.0435 28.4004 54.9718 29.6044 55.2376 30.7647C55.7557 31.8126 56.5685 32.7143 57.5925 33.3775C58.343 33.995 59.2745 34.7551 59.2745 35.2302C59.2745 35.7053 58.343 36.4653 57.5925 37.0589C56.573 37.7361 55.7615 38.6448 55.2376 39.6956C54.9718 40.8557 55.0435 42.0599 55.4447 43.1869C55.6519 44.0182 55.9366 45.1345 55.6519 45.4907C55.3671 45.847 54.099 45.9658 53.1675 46.037C52.371 46.0801 51.5816 46.1998 50.8121 46.3937C50.7864 46.3937 50.7603 46.4173 50.7345 46.4173C50.2963 46.5179 49.8834 46.6952 49.5183 46.94C48.5702 47.7133 47.8639 48.7057 47.474 49.8138C47.1116 50.6214 46.6202 51.69 46.1283 51.8325C45.714 51.9514 44.6273 51.3811 43.851 50.9536C43.1561 50.5477 42.419 50.206 41.6514 49.9326C41.5995 49.9326 41.5738 49.909 41.5481 49.909C41.4524 49.863 41.3455 49.8386 41.2372 49.8378C41.2114 49.8142 41.2114 49.8142 41.1853 49.8142C40.8815 49.74 40.5677 49.6994 40.2532 49.6953ZM52.2869 55.2771C51.5757 55.1975 50.924 55.6486 50.812 56.298L50.2687 60.1219L45.2999 54.1603C45.5377 54.2087 45.781 54.2328 46.0247 54.2315C46.3329 54.2286 46.6384 54.1806 46.9304 54.089C48.5348 53.614 49.2339 52.0939 49.8548 50.7639C50.0935 50.1592 50.4153 49.5843 50.812 49.0537L56.4278 55.7993L52.2869 55.2771Z"></path></mask><path d="M54.4869 35.2307C54.4869 31.7659 52.9873 28.4432 50.3183 25.9933C47.6489 23.5437 44.0286 22.1673 40.2535 22.1673C36.4784 22.1673 32.8581 23.5437 30.1888 25.9933C27.5198 28.4432 26.0202 31.7659 26.0202 35.2307C26.0202 38.6955 27.5198 42.0182 30.1888 44.4681C32.8581 46.9177 36.4784 48.294 40.2535 48.294C44.0272 48.2903 47.6452 46.9127 50.3138 44.464C52.9818 42.0148 54.4828 38.6942 54.4869 35.2307ZM40.2534 45.919C37.1648 45.919 34.2029 44.7928 32.0187 42.7885C29.8349 40.7838 28.6078 38.0654 28.6078 35.2307C28.6078 32.396 29.8349 29.6776 32.0187 27.6729C34.2029 25.6686 37.1648 24.5424 40.2534 24.5424C43.342 24.5424 46.3039 25.6686 48.4881 27.6729C50.6719 29.6776 51.899 32.396 51.899 35.2307C51.8954 38.0647 50.6674 40.7814 48.484 42.7848C46.301 44.7886 43.3411 45.9156 40.2534 45.919ZM45.7813 31.212C46.3527 31.6059 46.4687 32.3497 46.0399 32.8746L39.3373 40.9784C39.0931 41.2775 38.7095 41.4535 38.302 41.4535C37.8927 41.4506 37.5086 41.27 37.2672 40.9668L34.4669 37.449C34.0454 36.9193 34.1713 36.1758 34.749 35.7889C35.3262 35.4017 36.1363 35.5176 36.5578 36.0478L38.3305 38.2758L43.9748 31.4399C44.4062 30.9213 45.2132 30.8197 45.7813 31.212ZM53.5291 48.4129C55.1082 48.4858 56.6449 47.932 57.7479 46.8928C58.4772 45.5765 58.5525 44.0357 57.9546 42.6651C57.7203 41.9415 57.6328 41.1847 57.696 40.4321C58.1085 39.8224 58.6446 39.2901 59.2746 38.8648C60.6704 38.0551 61.615 36.7292 61.8623 35.2307C61.615 33.7321 60.6704 32.4062 59.2746 31.5966C58.6446 31.1712 58.1084 30.639 57.696 30.0293C57.6328 29.2767 57.7203 28.52 57.9546 27.7963C58.5525 26.4257 58.4772 24.8849 57.7479 23.5686C56.6002 22.5169 55.0189 21.964 53.4001 22.0485C52.5914 22.0559 51.7895 21.9105 51.0447 21.621C50.5131 21.0585 50.1083 20.4045 49.8546 19.697C49.2337 18.367 48.5346 16.8469 46.9303 16.3719C45.3602 16.13 43.7537 16.5293 42.5306 17.4646C41.8474 17.9111 41.073 18.2263 40.2534 18.3907C39.4338 18.2263 38.6594 17.9111 37.9762 17.4646C36.7518 16.5318 35.1466 16.1329 33.5765 16.3719C31.9721 16.847 31.273 18.367 30.6522 19.697C30.3985 20.4045 29.9937 21.0585 29.4621 21.621C28.7174 21.9106 27.9154 22.0559 27.1067 22.0485C25.4879 21.964 23.9066 22.5169 22.7589 23.5686C22.0296 24.8849 21.9543 26.4257 22.5522 27.7963C22.7864 28.5199 22.874 29.2766 22.8108 30.0293C22.3983 30.639 21.8622 31.1713 21.2322 31.5966C19.8364 32.4063 18.8918 33.7322 18.6445 35.2307C18.8918 36.7293 19.8364 38.0551 21.2322 38.8648C21.8622 39.2902 22.3984 39.8224 22.8108 40.4321C22.874 41.1847 22.7865 41.9414 22.5522 42.6651C21.9543 44.0357 22.0296 45.5765 22.7589 46.8928C23.8619 47.932 25.3986 48.4858 26.9777 48.4129L20.1194 56.631C19.813 57.0179 19.7854 57.5344 20.0494 57.9469C20.3134 58.359 20.8184 58.5885 21.3361 58.5313L27.2883 57.7949L28.0907 63.2813C28.1679 63.7531 28.5447 64.1366 29.0479 64.2551C29.1576 64.2829 29.2708 64.2986 29.3846 64.3027C29.7912 64.3003 30.1734 64.1246 30.4194 63.8277L40.1759 52.0939C40.2219 52.0624 40.2851 52.0624 40.3311 52.0939L50.0877 63.8277C50.3336 64.1246 50.7159 64.3002 51.1225 64.3027C51.2362 64.2986 51.3495 64.2829 51.4591 64.2551C51.9623 64.1366 52.3396 63.7531 52.4168 63.2813L53.2192 57.7949L59.1714 58.5313C59.689 58.5885 60.1936 58.359 60.4576 57.9469C60.7216 57.5344 60.6941 57.0179 60.3876 56.631L53.5291 48.4129ZM30.238 60.1223L29.6946 56.2985C29.5827 55.649 28.931 55.1971 28.2197 55.2767L24.0791 55.7994L29.695 49.0538C30.0916 49.5844 30.4134 50.1593 30.6522 50.764C31.2731 52.094 31.9722 53.6141 33.5765 54.0891C34.1041 54.2428 34.6659 54.2677 35.207 54.1604L30.238 60.1223ZM40.2532 49.6953C39.9386 49.6994 39.6259 49.7396 39.3221 49.8138C39.2964 49.8138 39.2964 49.8138 39.2702 49.8374C39.1619 49.8382 39.0554 49.863 38.9598 49.909C38.934 49.909 38.9079 49.9326 38.8564 49.9326C38.0888 50.206 37.3514 50.5481 36.6564 50.954C35.8801 51.3815 34.7929 51.9754 34.3791 51.833C33.8872 51.6905 33.3957 50.6214 33.0334 49.8142C32.6435 48.7062 31.9372 47.7133 30.9891 46.94C30.6777 46.7259 30.327 46.5647 29.9538 46.4649C29.8166 46.4007 29.6672 46.3601 29.5138 46.346C28.8007 46.1837 28.0732 46.0801 27.34 46.0375C26.4085 45.9662 25.1404 45.8473 24.8556 45.4911C24.5708 45.1349 24.8556 44.0186 25.0627 43.1873C25.4639 42.0603 25.5357 40.8559 25.2699 39.6956C24.7459 38.6448 23.9344 37.7364 22.915 37.0593C22.1645 36.4653 21.233 35.7052 21.233 35.2306C21.233 34.7555 22.1644 33.9955 22.915 33.3779C23.939 32.7147 24.7517 31.8126 25.2699 30.7647C25.5357 29.6045 25.4639 28.4004 25.0627 27.2734C24.8556 26.4421 24.5708 25.3258 24.8556 24.9696C25.1403 24.6133 26.4084 24.4945 27.34 24.4232C28.6226 24.4261 29.8821 24.1147 30.9891 23.5203C31.9373 22.747 32.6435 21.7546 33.0335 20.6465C33.3958 19.8389 33.8873 18.7703 34.3792 18.6277C34.418 18.6062 34.4636 18.5975 34.5087 18.6037C35.2777 18.7839 36.0052 19.0896 36.6564 19.5063C37.7147 20.2083 38.9549 20.6424 40.2537 20.7654C41.5525 20.6424 42.7928 20.2083 43.851 19.5063C44.6273 19.0788 45.7144 18.5089 46.1283 18.6273C46.6202 18.7698 47.1116 19.8389 47.474 20.6461C47.8639 21.7541 48.5702 22.747 49.5183 23.5203C50.6253 24.1147 51.8849 24.4261 53.1675 24.4232C54.099 24.4945 55.3671 24.6134 55.6519 24.9696C55.9367 25.3258 55.6519 26.4421 55.4447 27.2734C55.0435 28.4004 54.9718 29.6044 55.2376 30.7647C55.7557 31.8126 56.5685 32.7143 57.5925 33.3775C58.343 33.995 59.2745 34.7551 59.2745 35.2302C59.2745 35.7053 58.343 36.4653 57.5925 37.0589C56.573 37.7361 55.7615 38.6448 55.2376 39.6956C54.9718 40.8557 55.0435 42.0599 55.4447 43.1869C55.6519 44.0182 55.9366 45.1345 55.6519 45.4907C55.3671 45.847 54.099 45.9658 53.1675 46.037C52.371 46.0801 51.5816 46.1998 50.8121 46.3937C50.7864 46.3937 50.7603 46.4173 50.7345 46.4173C50.2963 46.5179 49.8834 46.6952 49.5183 46.94C48.5702 47.7133 47.8639 48.7057 47.474 49.8138C47.1116 50.6214 46.6202 51.69 46.1283 51.8325C45.714 51.9514 44.6273 51.3811 43.851 50.9536C43.1561 50.5477 42.419 50.206 41.6514 49.9326C41.5995 49.9326 41.5738 49.909 41.5481 49.909C41.4524 49.863 41.3455 49.8386 41.2372 49.8378C41.2114 49.8142 41.2114 49.8142 41.1853 49.8142C40.8815 49.74 40.5677 49.6994 40.2532 49.6953ZM52.2869 55.2771C51.5757 55.1975 50.924 55.6486 50.812 56.298L50.2687 60.1219L45.2999 54.1603C45.5377 54.2087 45.781 54.2328 46.0247 54.2315C46.3329 54.2286 46.6384 54.1806 46.9304 54.089C48.5348 53.614 49.2339 52.0939 49.8548 50.7639C50.0935 50.1592 50.4153 49.5843 50.812 49.0537L56.4278 55.7993L52.2869 55.2771Z" fill="#1742E7" stroke="white" mask="url(#path-1-inside-1_6355_2066)"></path></svg>