<svg xmlns="http://www.w3.org/2000/svg" width="81" height="81" viewBox="0 0 81 81" fill="none"><mask id="path-1-inside-1_6352_1723" fill="white"><path fill-rule="evenodd" clip-rule="evenodd" d="M37.2388 13.3178C37.3063 13.0231 37.5681 12.8145 37.8705 12.8145H42.9966C43.2986 12.8145 43.5604 13.0231 43.6279 13.3178L44.2242 15.9215L46.9671 17.2471L49.3695 16.0754C49.6426 15.9423 49.9716 16.0168 50.1609 16.2544L53.3563 20.2712C53.5445 20.5077 53.5441 20.8432 53.3551 21.0792L51.6867 23.1646L52.3678 26.1278L54.7714 27.2802C55.044 27.4106 55.1902 27.7126 55.1231 28.0076L53.9915 33.0006C53.9244 33.2956 53.6622 33.5054 53.3594 33.5054H50.6978L48.8018 35.8801L49.3977 38.4822C49.4652 38.7773 49.3198 39.0796 49.0468 39.2108L44.4309 41.43C44.159 41.5607 43.8328 41.4863 43.6446 41.2507L41.975 39.1641H38.9362L37.267 41.2507C37.0784 41.4863 36.7522 41.5607 36.4802 41.43L31.8644 39.2108C31.5918 39.0796 31.446 38.7773 31.5135 38.4822L32.1094 35.882L30.1933 33.5054H27.5295C27.2267 33.5054 26.9645 33.2956 26.8977 33.0006L25.7658 28.0076C25.699 27.7126 25.8452 27.4106 26.1179 27.2802L28.5215 26.1278L29.2022 23.1646L27.5341 21.0792C27.3451 20.8432 27.3447 20.5077 27.5329 20.2712L30.7282 16.2544C30.918 16.016 31.2481 15.942 31.5212 16.0766L33.9009 17.2464L36.6427 15.9215L37.2388 13.3178ZM38.3866 14.1103L37.8362 16.5139C37.7922 16.706 37.6638 16.8672 37.4864 16.9528L34.18 18.5507C34.0007 18.6375 33.7912 18.6367 33.6123 18.5488L31.4174 17.4696L28.8689 20.6734L30.4096 22.5999C30.5334 22.7542 30.5797 22.9567 30.5354 23.1495L29.7143 26.7225C29.6703 26.9146 29.5407 27.0762 29.3629 27.1614L27.1441 28.2251L28.0469 32.2095H30.5029C30.6989 32.2095 30.8844 32.2982 31.0074 32.4505L33.3153 35.313C33.4399 35.4677 33.4869 35.6709 33.4426 35.8645L32.8922 38.2669L36.577 40.0387L38.1189 38.1111C38.2419 37.9572 38.4278 37.8681 38.6249 37.8681H42.2862C42.4832 37.8681 42.6691 37.9572 42.7922 38.1111L44.3341 40.0387L48.0188 38.2669L47.4689 35.8645C47.4245 35.6721 47.4708 35.47 47.5938 35.3153L49.8797 32.4528C50.0023 32.2989 50.189 32.2095 50.3861 32.2095H52.8421L53.745 28.2251L51.5261 27.1614C51.3479 27.0762 51.2187 26.9146 51.1748 26.7225L50.3537 23.1495C50.3093 22.9567 50.3556 22.7542 50.479 22.5999L52.0201 20.6734L49.47 17.4681L47.2524 18.5495C47.0738 18.6366 46.8655 18.637 46.6866 18.5506L43.3802 16.9527C43.2032 16.8671 43.0743 16.7059 43.0304 16.5138L42.48 14.1103L38.3866 14.1103ZM32.3183 27.2874C32.3183 22.8255 35.9356 19.1831 40.4222 19.1831C44.9076 19.1831 48.5264 22.8019 48.5264 27.2874C48.5264 31.7724 44.9076 35.3912 40.4222 35.3912C35.9371 35.3912 32.3183 31.7724 32.3183 27.2874ZM40.4222 20.479C36.6541 20.479 33.6142 23.5385 33.6142 27.2874C33.6142 31.057 36.6525 34.0953 40.4222 34.0953C44.1918 34.0953 47.2305 31.057 47.2305 27.2874C47.2305 23.5177 44.1918 20.479 40.4222 20.479Z"></path><path fill-rule="evenodd" clip-rule="evenodd" d="M44.0958 54.3678C43.9774 54.2378 43.8066 54.1561 43.6168 54.1561C43.2589 54.1561 42.9689 54.4461 42.9689 54.804C42.9689 54.9297 43.004 55.0663 43.0896 55.1889C43.1475 55.2715 43.2134 55.3243 43.2493 55.3501C43.7376 55.8041 44.2486 56.3062 44.7766 56.825C45.666 57.6986 46.6036 58.6196 47.562 59.438C48.6507 60.3679 49.8294 61.2249 51.1265 61.8369C50.335 62.4224 49.8259 63.3627 49.8259 64.4129C49.8259 64.7172 49.8672 65.0123 49.9455 65.2919C48.5486 64.6328 47.2307 63.7372 45.9695 62.714C44.3269 61.3811 42.8108 59.8585 41.3494 58.3906C41.14 58.18 40.9314 57.971 40.7243 57.7635C40.4713 57.5105 40.0609 57.5105 39.8079 57.7635C39.5549 58.0165 39.5549 58.4264 39.8079 58.6794C40.0119 58.8839 40.2186 59.0917 40.4277 59.3015C41.8844 60.7652 43.4526 62.3407 45.153 63.7203C47.101 65.3008 49.262 66.6584 51.7014 67.3237C52.0227 67.4112 52.3582 67.2407 52.477 66.9295C52.5958 66.6186 52.4593 66.2681 52.1615 66.1188C51.5367 65.8064 51.1217 65.1646 51.1217 64.413C51.1217 63.369 51.9672 62.5089 53.0254 62.5089H53.0694C53.3953 62.5089 53.6714 62.2663 53.7127 61.9427C53.754 61.6191 53.548 61.3152 53.2322 61.2335C51.4851 60.7814 49.9096 59.7385 48.4035 58.4527C47.4663 57.6524 46.6036 56.804 45.7477 55.9617C45.2039 55.4263 44.6628 54.8938 44.1063 54.3777C44.1028 54.3746 44.0993 54.3711 44.0959 54.368L44.0958 54.3678Z"></path><path fill-rule="evenodd" clip-rule="evenodd" d="M25.1528 41.8533C25.1967 41.844 25.2415 41.839 25.2866 41.839H25.5084C25.8836 41.839 26.2558 41.8626 26.6048 41.8842L26.6141 41.8849C26.621 41.8853 26.628 41.8857 26.6349 41.8865C29.603 42.168 32.1832 43.5032 34.4727 45.2102C36.5384 46.7507 38.4058 48.6247 40.1221 50.3467C40.3019 50.5276 40.4804 50.7061 40.6571 50.8832L40.6582 50.8843C40.6945 50.9202 40.7759 51.0016 40.8449 51.1404C40.9683 51.3869 40.922 51.6846 40.7296 51.8821L37.4012 55.2995C37.1563 55.5506 36.7559 55.5614 36.4979 55.3238C35.9028 54.7758 35.3232 54.205 34.7411 53.6318C33.7526 52.6588 32.7576 51.6788 31.668 50.7924C29.9703 49.411 28.183 48.3862 26.161 48.1918C26.1452 48.1906 26.1293 48.1891 26.1139 48.1879C25.8632 48.1671 25.6611 48.1502 25.4421 48.1502H25.2866C25.2377 48.1502 25.1891 48.1444 25.1408 48.1336C23.6995 47.8007 22.6417 46.5233 22.6417 44.9945C22.6417 43.4495 23.6954 42.1614 25.1529 41.8532L25.1528 41.8533ZM25.3595 43.1349C24.5399 43.3373 23.9375 44.0771 23.9375 44.9946C23.9375 45.8836 24.5342 46.6314 25.3657 46.8544H25.4417C25.7171 46.8544 25.9716 46.8756 26.2119 46.8956C26.2323 46.8976 26.2524 46.8991 26.2725 46.901L26.2806 46.9014C28.6726 47.1297 30.7012 48.335 32.4862 49.7874C33.6127 50.7042 34.7004 51.7729 35.7255 52.781C36.1328 53.1814 36.5304 53.572 36.9165 53.94L39.3666 51.4242L39.2093 51.2669C37.483 49.5348 35.683 47.729 33.6984 46.2492C31.5189 44.6239 29.1651 43.4307 26.5228 43.1773C26.1683 43.1553 25.837 43.1349 25.5088 43.1349L25.3595 43.1349Z"></path><path fill-rule="evenodd" clip-rule="evenodd" d="M18.1427 54.9326C18.4701 54.9441 18.7374 55.1983 18.7655 55.5246C19.0702 59.0604 21.6836 61.5007 25.1767 61.5007C25.7741 61.5007 26.3423 61.4389 26.9058 61.2982C26.9127 61.2962 26.92 61.2947 26.927 61.2932C27.2089 61.233 27.492 61.152 27.777 61.0502C27.8468 61.0251 27.9205 61.0124 27.9949 61.0124H28.1939C29.9422 61.0124 31.3723 62.4047 31.3723 64.168C31.3723 65.3667 30.7031 66.4285 29.6954 66.9603C29.668 66.9746 29.6398 66.9869 29.6109 66.9973C29.2757 67.1169 28.9456 67.211 28.6078 67.3009C27.4168 67.6279 26.1614 67.7895 24.8439 67.7895C17.8361 67.7895 12.7026 62.8336 12.2366 55.8901C12.2142 55.5584 12.4468 55.2634 12.775 55.2078C13.1028 55.1523 13.4199 55.3544 13.5078 55.6753C13.7435 56.5334 14.5364 57.1737 15.4794 57.1737C16.4895 57.1737 17.3295 56.4316 17.48 55.4794C17.5313 55.1558 17.8155 54.9213 18.143 54.9329L18.1427 54.9326ZM17.8372 57.4893C17.2344 58.0944 16.3991 58.4693 15.4792 58.4693C14.8976 58.4693 14.3518 58.3208 13.8763 58.0605C15.1208 63.1159 19.3229 66.4937 24.8437 66.4937C26.0551 66.4937 27.1951 66.3449 28.267 66.051L28.2716 66.0498C28.5809 65.9669 28.8578 65.8878 29.1286 65.7933C29.6974 65.4751 30.0762 64.8623 30.0762 64.1681C30.0762 63.1352 29.242 62.3083 28.1944 62.3083H28.1053C27.808 62.4101 27.5087 62.4935 27.209 62.5582C26.5333 62.726 25.8622 62.7966 25.1765 62.7966C21.6402 62.7966 18.8387 60.673 17.837 57.4893L17.8372 57.4893Z"></path><path fill-rule="evenodd" clip-rule="evenodd" d="M25.9081 42.3924C25.9459 42.7241 25.7253 43.0303 25.3982 43.0997C24.5493 43.2791 23.9176 44.03 23.9149 44.9676C23.9346 45.9152 24.5729 46.6677 25.4206 46.847C25.7427 46.9149 25.9621 47.2134 25.9317 47.5412C25.9012 47.8686 25.6301 48.1213 25.3011 48.1286C21.6657 48.2092 18.8937 51.1349 18.7669 54.5493V54.8031C18.7669 55.0534 18.7673 55.2902 18.7862 55.4996C18.7916 55.556 18.7892 55.6127 18.7796 55.6682C18.5046 57.2629 17.1281 58.4473 15.4781 58.4473C13.9354 58.4473 12.6426 57.4014 12.2569 55.996C12.2454 55.9539 12.238 55.9111 12.2353 55.8675L12.2346 55.8595C12.213 55.5312 12.1895 55.1803 12.1895 54.8039V54.4996C12.3534 47.7641 17.8015 41.9574 25.2519 41.8172C25.5859 41.8111 25.8702 42.0598 25.908 42.3919L25.9081 42.3924ZM13.4854 54.5238V54.8042C13.4854 55.1112 13.5031 55.4028 13.5236 55.7117C13.7785 56.5405 14.5568 57.1518 15.4782 57.1518C16.4652 57.1518 17.2905 56.4646 17.4883 55.5235C17.471 55.2782 17.471 55.026 17.471 54.817V54.5377C17.471 54.53 17.471 54.5227 17.4714 54.515C17.5948 51.0373 20.0138 47.9793 23.417 47.0907C22.9288 46.5276 22.6337 45.7906 22.6194 44.9853L22.6191 44.9737C22.6191 44.3809 22.7745 43.8259 23.0479 43.3496C17.4753 44.4442 13.6192 49.1688 13.4854 54.5243L13.4854 54.5238Z"></path><path fill-rule="evenodd" clip-rule="evenodd" d="M62.3675 54.8003C62.6954 54.7891 62.9796 55.0243 63.0301 55.3487C63.1813 56.3245 64.0233 57.0634 65.0307 57.0634C65.9706 57.0634 66.7643 56.4263 67.0011 55.5458C67.0879 55.223 67.4064 55.0193 67.7358 55.0756C68.0656 55.1316 68.2981 55.4293 68.2731 55.7629C67.7817 62.2867 62.3347 67.7907 55.0003 67.7907C54.33 67.7907 53.6496 67.7448 52.9843 67.6264C52.5389 67.5558 52.1173 67.4621 51.6977 67.3456C51.6576 67.3344 51.6187 67.3194 51.5816 67.3008C50.5199 66.7698 49.8253 65.6806 49.8253 64.4356C49.8253 62.6835 51.2434 61.2356 53.0252 61.2356H53.0688C53.1178 61.2356 53.1675 61.241 53.2154 61.2522C53.4969 61.317 53.7842 61.3783 54.0654 61.4188C54.4202 61.4632 54.7589 61.5017 55.089 61.5017C58.6654 61.5017 61.4608 58.7121 61.7442 55.393C61.772 55.0663 62.0397 54.8118 62.3675 54.8006L62.3675 54.8003ZM62.6495 57.3516C61.6031 60.4477 58.6809 62.7973 55.089 62.7973C54.6667 62.7973 54.2525 62.7479 53.8992 62.7036L53.8876 62.7024C53.5775 62.6581 53.2721 62.5941 52.9971 62.5312C51.9515 62.5462 51.1211 63.4005 51.1211 64.4353C51.1211 65.1661 51.5134 65.7925 52.1089 66.1141C52.4645 66.2106 52.8197 66.2881 53.193 66.3471L53.2057 66.3494C53.7811 66.452 54.3855 66.4944 55.0003 66.4944C60.7461 66.4944 65.1817 62.7792 66.563 57.9863C66.1044 58.2247 65.5834 58.3593 65.0303 58.3593C64.0974 58.3593 63.2531 57.974 62.6492 57.3515L62.6495 57.3516Z"></path><path fill-rule="evenodd" clip-rule="evenodd" d="M57.0477 43.2089C57.4107 43.7273 57.6236 44.3587 57.6236 45.0397C57.6236 45.7725 57.3798 46.4502 56.9644 46.9905C60.4718 47.6871 62.9139 50.6275 63.0601 54.4684C63.0601 54.4765 63.0605 54.485 63.0605 54.4931V54.8205C63.0605 55.0022 63.0604 55.2155 63.0435 55.4222C63.2251 56.3613 64.0494 57.0629 65.0309 57.0629C65.9577 57.0629 66.7421 56.4435 66.9913 55.5823C67.0229 55.3385 67.0237 55.104 67.0237 54.8036C67.0237 54.7681 67.0163 54.7207 66.992 54.598C66.9843 54.561 66.9805 54.5232 66.9793 54.4854C66.9052 51.1392 65.7077 48.3072 63.7304 46.3144C62.0399 44.6104 59.7548 43.4951 57.0477 43.2089ZM55.6335 41.8398H55.6443C59.2889 41.8398 62.4152 43.1488 64.6507 45.4019C66.8726 47.6412 68.1804 50.7794 68.2737 54.399C68.2938 54.5012 68.3196 54.6485 68.3196 54.8036V54.8206C68.3196 55.121 68.3196 55.4488 68.2687 55.8052C68.2652 55.831 68.2598 55.8569 68.2529 55.882C67.8688 57.3097 66.5764 58.3588 65.0309 58.3588C63.3755 58.3588 61.9979 57.1447 61.75 55.5469C61.7411 55.4902 61.74 55.4327 61.7461 55.376C61.7639 55.2186 61.7646 55.0343 61.7646 54.8036V54.5059C61.6165 50.7583 58.9572 48.1287 55.3334 48.1287H55.1568C54.8344 48.1287 54.5601 47.8915 54.5146 47.5725C54.4691 47.2532 54.665 46.9493 54.9747 46.859C55.7654 46.628 56.3277 45.9037 56.3277 45.0398C56.3277 44.0814 55.6165 43.2842 54.687 43.1515C54.36 43.1048 54.1205 42.8194 54.1313 42.4889C54.1421 42.1587 54.3997 41.8895 54.7291 41.8641C55.0426 41.8398 55.3519 41.8398 55.6335 41.8398Z"></path><path fill-rule="evenodd" clip-rule="evenodd" d="M54.7897 41.8849C54.8283 41.883 54.8668 41.8845 54.905 41.8895C56.4323 42.0874 57.6225 43.433 57.6225 45.0397C57.6225 46.4899 56.6479 47.7117 55.3397 48.1017C55.2795 48.1194 55.2174 48.1287 55.1545 48.1287C54.8506 48.1287 54.5602 48.1661 54.2235 48.2112C52.3251 48.4893 50.5603 49.4446 48.8953 50.7262C47.2474 51.9952 45.7428 53.5471 44.3301 55.0034L44.2803 55.0551C44.0555 55.2869 43.6945 55.3177 43.4334 55.1276C43.1727 54.937 43.0917 54.5842 43.2436 54.2991C43.364 54.0731 43.4334 53.7812 43.4334 53.4722C43.4334 52.4541 42.5918 51.6125 41.574 51.6125C41.2713 51.6125 41.0001 51.6796 40.7695 51.8026C40.486 51.9538 40.1351 51.8744 39.9438 51.6167C39.7528 51.3587 39.7791 50.9997 40.0062 50.7729C40.1088 50.6699 40.2118 50.5669 40.3152 50.4639C43.9212 46.8536 47.8869 42.8835 53.4547 42.0253C53.8797 41.9547 54.3248 41.908 54.7898 41.8849L54.7897 41.8849ZM54.7924 43.1824C54.394 43.2043 54.018 43.2452 53.6635 43.3042L53.6554 43.3058C49.0272 44.0177 45.5716 47.082 42.2299 50.3857C43.4394 50.6449 44.3994 51.6037 44.6596 52.8128C45.7241 51.7413 46.8727 50.6483 48.1053 49.6996C49.862 48.347 51.8351 47.2501 54.0404 46.9285L54.0485 46.9274L54.064 46.925C54.359 46.8857 54.6919 46.8414 55.0502 46.834C55.7868 46.5772 56.3268 45.8679 56.3268 45.0398C56.3268 44.0922 55.6376 43.3201 54.7926 43.1825L54.7924 43.1824Z"></path><path fill-rule="evenodd" clip-rule="evenodd" d="M40.9156 51.6744L40.793 51.797L39.8184 52.794L37.4457 55.211C37.4453 55.2114 37.4449 55.2114 37.4449 55.2118C37.3377 55.3217 37.2293 55.4332 37.1202 55.5454C35.1162 57.6069 32.7485 60.0428 29.9936 61.4856C30.8479 62.0468 31.4159 63.0125 31.4159 64.1233C31.4159 64.3589 31.3893 64.5888 31.3392 64.8102C34.3621 63.215 36.9033 60.6703 39.4531 58.1171C39.5781 57.9922 39.7027 57.8672 39.8276 57.7422C39.8284 57.7419 39.8292 57.7411 39.8299 57.7403L42.3311 55.1945L42.3334 55.1925L43.1259 54.3784C43.1811 54.3082 43.2351 54.2492 43.2821 54.2002C43.3793 53.9865 43.4345 53.7246 43.4345 53.4496C43.4345 52.433 42.5914 51.5818 41.6249 51.5235C41.3626 51.5255 41.1243 51.5783 40.9156 51.6744ZM40.2272 50.5701C40.6618 50.3383 41.1455 50.2276 41.6415 50.2276C41.6526 50.2276 41.6634 50.228 41.6742 50.2284C43.3199 50.3121 44.7303 51.7202 44.7303 53.4496C44.7303 53.9398 44.6223 54.4466 44.3879 54.8863C44.3578 54.9426 44.3196 54.9943 44.2745 55.0394C44.2062 55.1077 44.1703 55.1447 44.1348 55.1921C44.1183 55.2141 44.1001 55.2353 44.0809 55.2554L43.2597 56.0985L43.2574 56.1008L40.7458 58.6567C40.5977 58.8048 40.4493 58.9537 40.3 59.1033C37.2404 62.1699 33.9355 65.482 29.6476 66.9553C29.3286 67.0648 28.9792 66.9117 28.8439 66.6032C28.7081 66.2946 28.8315 65.934 29.1277 65.7732C29.7093 65.4573 30.1205 64.8248 30.1205 64.1233C30.1205 63.087 29.2824 62.2639 28.2607 62.2639H28.0621C27.7447 62.2639 27.4732 62.0341 27.4219 61.7209C27.3702 61.4077 27.5534 61.1034 27.8538 61.002C31.0526 59.922 33.7925 57.107 36.2729 54.558C36.3546 54.4739 36.4364 54.3903 36.5178 54.3066L36.5193 54.305L38.8932 51.8872L39.8743 50.8833L40.0741 50.6835C40.1196 50.6384 40.1709 50.6002 40.2276 50.5701L40.2272 50.5701Z"></path><path fill-rule="evenodd" clip-rule="evenodd" d="M44.0771 24.8553C44.3293 25.1094 44.3282 25.5194 44.0744 25.7717L40.346 29.4776C40.2241 29.5991 40.0587 29.6666 39.8867 29.6658C39.7146 29.6655 39.55 29.596 39.4289 29.4738L37.232 27.2549C36.9802 27.0004 36.9821 26.5904 37.2367 26.3386C37.4908 26.0867 37.9012 26.0886 38.153 26.3432L39.8928 28.1007L43.1607 24.8526C43.4145 24.6004 43.8249 24.6015 44.0771 24.8553Z"></path></mask><path fill-rule="evenodd" clip-rule="evenodd" d="M37.2388 13.3178C37.3063 13.0231 37.5681 12.8145 37.8705 12.8145H42.9966C43.2986 12.8145 43.5604 13.0231 43.6279 13.3178L44.2242 15.9215L46.9671 17.2471L49.3695 16.0754C49.6426 15.9423 49.9716 16.0168 50.1609 16.2544L53.3563 20.2712C53.5445 20.5077 53.5441 20.8432 53.3551 21.0792L51.6867 23.1646L52.3678 26.1278L54.7714 27.2802C55.044 27.4106 55.1902 27.7126 55.1231 28.0076L53.9915 33.0006C53.9244 33.2956 53.6622 33.5054 53.3594 33.5054H50.6978L48.8018 35.8801L49.3977 38.4822C49.4652 38.7773 49.3198 39.0796 49.0468 39.2108L44.4309 41.43C44.159 41.5607 43.8328 41.4863 43.6446 41.2507L41.975 39.1641H38.9362L37.267 41.2507C37.0784 41.4863 36.7522 41.5607 36.4802 41.43L31.8644 39.2108C31.5918 39.0796 31.446 38.7773 31.5135 38.4822L32.1094 35.882L30.1933 33.5054H27.5295C27.2267 33.5054 26.9645 33.2956 26.8977 33.0006L25.7658 28.0076C25.699 27.7126 25.8452 27.4106 26.1179 27.2802L28.5215 26.1278L29.2022 23.1646L27.5341 21.0792C27.3451 20.8432 27.3447 20.5077 27.5329 20.2712L30.7282 16.2544C30.918 16.016 31.2481 15.942 31.5212 16.0766L33.9009 17.2464L36.6427 15.9215L37.2388 13.3178ZM38.3866 14.1103L37.8362 16.5139C37.7922 16.706 37.6638 16.8672 37.4864 16.9528L34.18 18.5507C34.0007 18.6375 33.7912 18.6367 33.6123 18.5488L31.4174 17.4696L28.8689 20.6734L30.4096 22.5999C30.5334 22.7542 30.5797 22.9567 30.5354 23.1495L29.7143 26.7225C29.6703 26.9146 29.5407 27.0762 29.3629 27.1614L27.1441 28.2251L28.0469 32.2095H30.5029C30.6989 32.2095 30.8844 32.2982 31.0074 32.4505L33.3153 35.313C33.4399 35.4677 33.4869 35.6709 33.4426 35.8645L32.8922 38.2669L36.577 40.0387L38.1189 38.1111C38.2419 37.9572 38.4278 37.8681 38.6249 37.8681H42.2862C42.4832 37.8681 42.6691 37.9572 42.7922 38.1111L44.3341 40.0387L48.0188 38.2669L47.4689 35.8645C47.4245 35.6721 47.4708 35.47 47.5938 35.3153L49.8797 32.4528C50.0023 32.2989 50.189 32.2095 50.3861 32.2095H52.8421L53.745 28.2251L51.5261 27.1614C51.3479 27.0762 51.2187 26.9146 51.1748 26.7225L50.3537 23.1495C50.3093 22.9567 50.3556 22.7542 50.479 22.5999L52.0201 20.6734L49.47 17.4681L47.2524 18.5495C47.0738 18.6366 46.8655 18.637 46.6866 18.5506L43.3802 16.9527C43.2032 16.8671 43.0743 16.7059 43.0304 16.5138L42.48 14.1103L38.3866 14.1103ZM32.3183 27.2874C32.3183 22.8255 35.9356 19.1831 40.4222 19.1831C44.9076 19.1831 48.5264 22.8019 48.5264 27.2874C48.5264 31.7724 44.9076 35.3912 40.4222 35.3912C35.9371 35.3912 32.3183 31.7724 32.3183 27.2874ZM40.4222 20.479C36.6541 20.479 33.6142 23.5385 33.6142 27.2874C33.6142 31.057 36.6525 34.0953 40.4222 34.0953C44.1918 34.0953 47.2305 31.057 47.2305 27.2874C47.2305 23.5177 44.1918 20.479 40.4222 20.479Z" fill="#1742E7"></path><path fill-rule="evenodd" clip-rule="evenodd" d="M44.0958 54.3678C43.9774 54.2378 43.8066 54.1561 43.6168 54.1561C43.2589 54.1561 42.9689 54.4461 42.9689 54.804C42.9689 54.9297 43.004 55.0663 43.0896 55.1889C43.1475 55.2715 43.2134 55.3243 43.2493 55.3501C43.7376 55.8041 44.2486 56.3062 44.7766 56.825C45.666 57.6986 46.6036 58.6196 47.562 59.438C48.6507 60.3679 49.8294 61.2249 51.1265 61.8369C50.335 62.4224 49.8259 63.3627 49.8259 64.4129C49.8259 64.7172 49.8672 65.0123 49.9455 65.2919C48.5486 64.6328 47.2307 63.7372 45.9695 62.714C44.3269 61.3811 42.8108 59.8585 41.3494 58.3906C41.14 58.18 40.9314 57.971 40.7243 57.7635C40.4713 57.5105 40.0609 57.5105 39.8079 57.7635C39.5549 58.0165 39.5549 58.4264 39.8079 58.6794C40.0119 58.8839 40.2186 59.0917 40.4277 59.3015C41.8844 60.7652 43.4526 62.3407 45.153 63.7203C47.101 65.3008 49.262 66.6584 51.7014 67.3237C52.0227 67.4112 52.3582 67.2407 52.477 66.9295C52.5958 66.6186 52.4593 66.2681 52.1615 66.1188C51.5367 65.8064 51.1217 65.1646 51.1217 64.413C51.1217 63.369 51.9672 62.5089 53.0254 62.5089H53.0694C53.3953 62.5089 53.6714 62.2663 53.7127 61.9427C53.754 61.6191 53.548 61.3152 53.2322 61.2335C51.4851 60.7814 49.9096 59.7385 48.4035 58.4527C47.4663 57.6524 46.6036 56.804 45.7477 55.9617C45.2039 55.4263 44.6628 54.8938 44.1063 54.3777C44.1028 54.3746 44.0993 54.3711 44.0959 54.368L44.0958 54.3678Z" fill="#1742E7"></path><path fill-rule="evenodd" clip-rule="evenodd" d="M25.1528 41.8533C25.1967 41.844 25.2415 41.839 25.2866 41.839H25.5084C25.8836 41.839 26.2558 41.8626 26.6048 41.8842L26.6141 41.8849C26.621 41.8853 26.628 41.8857 26.6349 41.8865C29.603 42.168 32.1832 43.5032 34.4727 45.2102C36.5384 46.7507 38.4058 48.6247 40.1221 50.3467C40.3019 50.5276 40.4804 50.7061 40.6571 50.8832L40.6582 50.8843C40.6945 50.9202 40.7759 51.0016 40.8449 51.1404C40.9683 51.3869 40.922 51.6846 40.7296 51.8821L37.4012 55.2995C37.1563 55.5506 36.7559 55.5614 36.4979 55.3238C35.9028 54.7758 35.3232 54.205 34.7411 53.6318C33.7526 52.6588 32.7576 51.6788 31.668 50.7924C29.9703 49.411 28.183 48.3862 26.161 48.1918C26.1452 48.1906 26.1293 48.1891 26.1139 48.1879C25.8632 48.1671 25.6611 48.1502 25.4421 48.1502H25.2866C25.2377 48.1502 25.1891 48.1444 25.1408 48.1336C23.6995 47.8007 22.6417 46.5233 22.6417 44.9945C22.6417 43.4495 23.6954 42.1614 25.1529 41.8532L25.1528 41.8533ZM25.3595 43.1349C24.5399 43.3373 23.9375 44.0771 23.9375 44.9946C23.9375 45.8836 24.5342 46.6314 25.3657 46.8544H25.4417C25.7171 46.8544 25.9716 46.8756 26.2119 46.8956C26.2323 46.8976 26.2524 46.8991 26.2725 46.901L26.2806 46.9014C28.6726 47.1297 30.7012 48.335 32.4862 49.7874C33.6127 50.7042 34.7004 51.7729 35.7255 52.781C36.1328 53.1814 36.5304 53.572 36.9165 53.94L39.3666 51.4242L39.2093 51.2669C37.483 49.5348 35.683 47.729 33.6984 46.2492C31.5189 44.6239 29.1651 43.4307 26.5228 43.1773C26.1683 43.1553 25.837 43.1349 25.5088 43.1349L25.3595 43.1349Z" fill="#1742E7"></path><path fill-rule="evenodd" clip-rule="evenodd" d="M18.1427 54.9326C18.4701 54.9441 18.7374 55.1983 18.7655 55.5246C19.0702 59.0604 21.6836 61.5007 25.1767 61.5007C25.7741 61.5007 26.3423 61.4389 26.9058 61.2982C26.9127 61.2962 26.92 61.2947 26.927 61.2932C27.2089 61.233 27.492 61.152 27.777 61.0502C27.8468 61.0251 27.9205 61.0124 27.9949 61.0124H28.1939C29.9422 61.0124 31.3723 62.4047 31.3723 64.168C31.3723 65.3667 30.7031 66.4285 29.6954 66.9603C29.668 66.9746 29.6398 66.9869 29.6109 66.9973C29.2757 67.1169 28.9456 67.211 28.6078 67.3009C27.4168 67.6279 26.1614 67.7895 24.8439 67.7895C17.8361 67.7895 12.7026 62.8336 12.2366 55.8901C12.2142 55.5584 12.4468 55.2634 12.775 55.2078C13.1028 55.1523 13.4199 55.3544 13.5078 55.6753C13.7435 56.5334 14.5364 57.1737 15.4794 57.1737C16.4895 57.1737 17.3295 56.4316 17.48 55.4794C17.5313 55.1558 17.8155 54.9213 18.143 54.9329L18.1427 54.9326ZM17.8372 57.4893C17.2344 58.0944 16.3991 58.4693 15.4792 58.4693C14.8976 58.4693 14.3518 58.3208 13.8763 58.0605C15.1208 63.1159 19.3229 66.4937 24.8437 66.4937C26.0551 66.4937 27.1951 66.3449 28.267 66.051L28.2716 66.0498C28.5809 65.9669 28.8578 65.8878 29.1286 65.7933C29.6974 65.4751 30.0762 64.8623 30.0762 64.1681C30.0762 63.1352 29.242 62.3083 28.1944 62.3083H28.1053C27.808 62.4101 27.5087 62.4935 27.209 62.5582C26.5333 62.726 25.8622 62.7966 25.1765 62.7966C21.6402 62.7966 18.8387 60.673 17.837 57.4893L17.8372 57.4893Z" fill="#1742E7"></path><path fill-rule="evenodd" clip-rule="evenodd" d="M25.9081 42.3924C25.9459 42.7241 25.7253 43.0303 25.3982 43.0997C24.5493 43.2791 23.9176 44.03 23.9149 44.9676C23.9346 45.9152 24.5729 46.6677 25.4206 46.847C25.7427 46.9149 25.9621 47.2134 25.9317 47.5412C25.9012 47.8686 25.6301 48.1213 25.3011 48.1286C21.6657 48.2092 18.8937 51.1349 18.7669 54.5493V54.8031C18.7669 55.0534 18.7673 55.2902 18.7862 55.4996C18.7916 55.556 18.7892 55.6127 18.7796 55.6682C18.5046 57.2629 17.1281 58.4473 15.4781 58.4473C13.9354 58.4473 12.6426 57.4014 12.2569 55.996C12.2454 55.9539 12.238 55.9111 12.2353 55.8675L12.2346 55.8595C12.213 55.5312 12.1895 55.1803 12.1895 54.8039V54.4996C12.3534 47.7641 17.8015 41.9574 25.2519 41.8172C25.5859 41.8111 25.8702 42.0598 25.908 42.3919L25.9081 42.3924ZM13.4854 54.5238V54.8042C13.4854 55.1112 13.5031 55.4028 13.5236 55.7117C13.7785 56.5405 14.5568 57.1518 15.4782 57.1518C16.4652 57.1518 17.2905 56.4646 17.4883 55.5235C17.471 55.2782 17.471 55.026 17.471 54.817V54.5377C17.471 54.53 17.471 54.5227 17.4714 54.515C17.5948 51.0373 20.0138 47.9793 23.417 47.0907C22.9288 46.5276 22.6337 45.7906 22.6194 44.9853L22.6191 44.9737C22.6191 44.3809 22.7745 43.8259 23.0479 43.3496C17.4753 44.4442 13.6192 49.1688 13.4854 54.5243L13.4854 54.5238Z" fill="#1742E7"></path><path fill-rule="evenodd" clip-rule="evenodd" d="M62.3675 54.8003C62.6954 54.7891 62.9796 55.0243 63.0301 55.3487C63.1813 56.3245 64.0233 57.0634 65.0307 57.0634C65.9706 57.0634 66.7643 56.4263 67.0011 55.5458C67.0879 55.223 67.4064 55.0193 67.7358 55.0756C68.0656 55.1316 68.2981 55.4293 68.2731 55.7629C67.7817 62.2867 62.3347 67.7907 55.0003 67.7907C54.33 67.7907 53.6496 67.7448 52.9843 67.6264C52.5389 67.5558 52.1173 67.4621 51.6977 67.3456C51.6576 67.3344 51.6187 67.3194 51.5816 67.3008C50.5199 66.7698 49.8253 65.6806 49.8253 64.4356C49.8253 62.6835 51.2434 61.2356 53.0252 61.2356H53.0688C53.1178 61.2356 53.1675 61.241 53.2154 61.2522C53.4969 61.317 53.7842 61.3783 54.0654 61.4188C54.4202 61.4632 54.7589 61.5017 55.089 61.5017C58.6654 61.5017 61.4608 58.7121 61.7442 55.393C61.772 55.0663 62.0397 54.8118 62.3675 54.8006L62.3675 54.8003ZM62.6495 57.3516C61.6031 60.4477 58.6809 62.7973 55.089 62.7973C54.6667 62.7973 54.2525 62.7479 53.8992 62.7036L53.8876 62.7024C53.5775 62.6581 53.2721 62.5941 52.9971 62.5312C51.9515 62.5462 51.1211 63.4005 51.1211 64.4353C51.1211 65.1661 51.5134 65.7925 52.1089 66.1141C52.4645 66.2106 52.8197 66.2881 53.193 66.3471L53.2057 66.3494C53.7811 66.452 54.3855 66.4944 55.0003 66.4944C60.7461 66.4944 65.1817 62.7792 66.563 57.9863C66.1044 58.2247 65.5834 58.3593 65.0303 58.3593C64.0974 58.3593 63.2531 57.974 62.6492 57.3515L62.6495 57.3516Z" fill="#1742E7"></path><path fill-rule="evenodd" clip-rule="evenodd" d="M57.0477 43.2089C57.4107 43.7273 57.6236 44.3587 57.6236 45.0397C57.6236 45.7725 57.3798 46.4502 56.9644 46.9905C60.4718 47.6871 62.9139 50.6275 63.0601 54.4684C63.0601 54.4765 63.0605 54.485 63.0605 54.4931V54.8205C63.0605 55.0022 63.0604 55.2155 63.0435 55.4222C63.2251 56.3613 64.0494 57.0629 65.0309 57.0629C65.9577 57.0629 66.7421 56.4435 66.9913 55.5823C67.0229 55.3385 67.0237 55.104 67.0237 54.8036C67.0237 54.7681 67.0163 54.7207 66.992 54.598C66.9843 54.561 66.9805 54.5232 66.9793 54.4854C66.9052 51.1392 65.7077 48.3072 63.7304 46.3144C62.0399 44.6104 59.7548 43.4951 57.0477 43.2089ZM55.6335 41.8398H55.6443C59.2889 41.8398 62.4152 43.1488 64.6507 45.4019C66.8726 47.6412 68.1804 50.7794 68.2737 54.399C68.2938 54.5012 68.3196 54.6485 68.3196 54.8036V54.8206C68.3196 55.121 68.3196 55.4488 68.2687 55.8052C68.2652 55.831 68.2598 55.8569 68.2529 55.882C67.8688 57.3097 66.5764 58.3588 65.0309 58.3588C63.3755 58.3588 61.9979 57.1447 61.75 55.5469C61.7411 55.4902 61.74 55.4327 61.7461 55.376C61.7639 55.2186 61.7646 55.0343 61.7646 54.8036V54.5059C61.6165 50.7583 58.9572 48.1287 55.3334 48.1287H55.1568C54.8344 48.1287 54.5601 47.8915 54.5146 47.5725C54.4691 47.2532 54.665 46.9493 54.9747 46.859C55.7654 46.628 56.3277 45.9037 56.3277 45.0398C56.3277 44.0814 55.6165 43.2842 54.687 43.1515C54.36 43.1048 54.1205 42.8194 54.1313 42.4889C54.1421 42.1587 54.3997 41.8895 54.7291 41.8641C55.0426 41.8398 55.3519 41.8398 55.6335 41.8398Z" fill="#1742E7"></path><path fill-rule="evenodd" clip-rule="evenodd" d="M54.7897 41.8849C54.8283 41.883 54.8668 41.8845 54.905 41.8895C56.4323 42.0874 57.6225 43.433 57.6225 45.0397C57.6225 46.4899 56.6479 47.7117 55.3397 48.1017C55.2795 48.1194 55.2174 48.1287 55.1545 48.1287C54.8506 48.1287 54.5602 48.1661 54.2235 48.2112C52.3251 48.4893 50.5603 49.4446 48.8953 50.7262C47.2474 51.9952 45.7428 53.5471 44.3301 55.0034L44.2803 55.0551C44.0555 55.2869 43.6945 55.3177 43.4334 55.1276C43.1727 54.937 43.0917 54.5842 43.2436 54.2991C43.364 54.0731 43.4334 53.7812 43.4334 53.4722C43.4334 52.4541 42.5918 51.6125 41.574 51.6125C41.2713 51.6125 41.0001 51.6796 40.7695 51.8026C40.486 51.9538 40.1351 51.8744 39.9438 51.6167C39.7528 51.3587 39.7791 50.9997 40.0062 50.7729C40.1088 50.6699 40.2118 50.5669 40.3152 50.4639C43.9212 46.8536 47.8869 42.8835 53.4547 42.0253C53.8797 41.9547 54.3248 41.908 54.7898 41.8849L54.7897 41.8849ZM54.7924 43.1824C54.394 43.2043 54.018 43.2452 53.6635 43.3042L53.6554 43.3058C49.0272 44.0177 45.5716 47.082 42.2299 50.3857C43.4394 50.6449 44.3994 51.6037 44.6596 52.8128C45.7241 51.7413 46.8727 50.6483 48.1053 49.6996C49.862 48.347 51.8351 47.2501 54.0404 46.9285L54.0485 46.9274L54.064 46.925C54.359 46.8857 54.6919 46.8414 55.0502 46.834C55.7868 46.5772 56.3268 45.8679 56.3268 45.0398C56.3268 44.0922 55.6376 43.3201 54.7926 43.1825L54.7924 43.1824Z" fill="#1742E7"></path><path fill-rule="evenodd" clip-rule="evenodd" d="M40.9156 51.6744L40.793 51.797L39.8184 52.794L37.4457 55.211C37.4453 55.2114 37.4449 55.2114 37.4449 55.2118C37.3377 55.3217 37.2293 55.4332 37.1202 55.5454C35.1162 57.6069 32.7485 60.0428 29.9936 61.4856C30.8479 62.0468 31.4159 63.0125 31.4159 64.1233C31.4159 64.3589 31.3893 64.5888 31.3392 64.8102C34.3621 63.215 36.9033 60.6703 39.4531 58.1171C39.5781 57.9922 39.7027 57.8672 39.8276 57.7422C39.8284 57.7419 39.8292 57.7411 39.8299 57.7403L42.3311 55.1945L42.3334 55.1925L43.1259 54.3784C43.1811 54.3082 43.2351 54.2492 43.2821 54.2002C43.3793 53.9865 43.4345 53.7246 43.4345 53.4496C43.4345 52.433 42.5914 51.5818 41.6249 51.5235C41.3626 51.5255 41.1243 51.5783 40.9156 51.6744ZM40.2272 50.5701C40.6618 50.3383 41.1455 50.2276 41.6415 50.2276C41.6526 50.2276 41.6634 50.228 41.6742 50.2284C43.3199 50.3121 44.7303 51.7202 44.7303 53.4496C44.7303 53.9398 44.6223 54.4466 44.3879 54.8863C44.3578 54.9426 44.3196 54.9943 44.2745 55.0394C44.2062 55.1077 44.1703 55.1447 44.1348 55.1921C44.1183 55.2141 44.1001 55.2353 44.0809 55.2554L43.2597 56.0985L43.2574 56.1008L40.7458 58.6567C40.5977 58.8048 40.4493 58.9537 40.3 59.1033C37.2404 62.1699 33.9355 65.482 29.6476 66.9553C29.3286 67.0648 28.9792 66.9117 28.8439 66.6032C28.7081 66.2946 28.8315 65.934 29.1277 65.7732C29.7093 65.4573 30.1205 64.8248 30.1205 64.1233C30.1205 63.087 29.2824 62.2639 28.2607 62.2639H28.0621C27.7447 62.2639 27.4732 62.0341 27.4219 61.7209C27.3702 61.4077 27.5534 61.1034 27.8538 61.002C31.0526 59.922 33.7925 57.107 36.2729 54.558C36.3546 54.4739 36.4364 54.3903 36.5178 54.3066L36.5193 54.305L38.8932 51.8872L39.8743 50.8833L40.0741 50.6835C40.1196 50.6384 40.1709 50.6002 40.2276 50.5701L40.2272 50.5701Z" fill="#1742E7"></path><path fill-rule="evenodd" clip-rule="evenodd" d="M44.0771 24.8553C44.3293 25.1094 44.3282 25.5194 44.0744 25.7717L40.346 29.4776C40.2241 29.5991 40.0587 29.6666 39.8867 29.6658C39.7146 29.6655 39.55 29.596 39.4289 29.4738L37.232 27.2549C36.9802 27.0004 36.9821 26.5904 37.2367 26.3386C37.4908 26.0867 37.9012 26.0886 38.153 26.3432L39.8928 28.1007L43.1607 24.8526C43.4145 24.6004 43.8249 24.6015 44.0771 24.8553Z" fill="#1742E7"></path><path fill-rule="evenodd" clip-rule="evenodd" d="M37.2388 13.3178C37.3063 13.0231 37.5681 12.8145 37.8705 12.8145H42.9966C43.2986 12.8145 43.5604 13.0231 43.6279 13.3178L44.2242 15.9215L46.9671 17.2471L49.3695 16.0754C49.6426 15.9423 49.9716 16.0168 50.1609 16.2544L53.3563 20.2712C53.5445 20.5077 53.5441 20.8432 53.3551 21.0792L51.6867 23.1646L52.3678 26.1278L54.7714 27.2802C55.044 27.4106 55.1902 27.7126 55.1231 28.0076L53.9915 33.0006C53.9244 33.2956 53.6622 33.5054 53.3594 33.5054H50.6978L48.8018 35.8801L49.3977 38.4822C49.4652 38.7773 49.3198 39.0796 49.0468 39.2108L44.4309 41.43C44.159 41.5607 43.8328 41.4863 43.6446 41.2507L41.975 39.1641H38.9362L37.267 41.2507C37.0784 41.4863 36.7522 41.5607 36.4802 41.43L31.8644 39.2108C31.5918 39.0796 31.446 38.7773 31.5135 38.4822L32.1094 35.882L30.1933 33.5054H27.5295C27.2267 33.5054 26.9645 33.2956 26.8977 33.0006L25.7658 28.0076C25.699 27.7126 25.8452 27.4106 26.1179 27.2802L28.5215 26.1278L29.2022 23.1646L27.5341 21.0792C27.3451 20.8432 27.3447 20.5077 27.5329 20.2712L30.7282 16.2544C30.918 16.016 31.2481 15.942 31.5212 16.0766L33.9009 17.2464L36.6427 15.9215L37.2388 13.3178ZM38.3866 14.1103L37.8362 16.5139C37.7922 16.706 37.6638 16.8672 37.4864 16.9528L34.18 18.5507C34.0007 18.6375 33.7912 18.6367 33.6123 18.5488L31.4174 17.4696L28.8689 20.6734L30.4096 22.5999C30.5334 22.7542 30.5797 22.9567 30.5354 23.1495L29.7143 26.7225C29.6703 26.9146 29.5407 27.0762 29.3629 27.1614L27.1441 28.2251L28.0469 32.2095H30.5029C30.6989 32.2095 30.8844 32.2982 31.0074 32.4505L33.3153 35.313C33.4399 35.4677 33.4869 35.6709 33.4426 35.8645L32.8922 38.2669L36.577 40.0387L38.1189 38.1111C38.2419 37.9572 38.4278 37.8681 38.6249 37.8681H42.2862C42.4832 37.8681 42.6691 37.9572 42.7922 38.1111L44.3341 40.0387L48.0188 38.2669L47.4689 35.8645C47.4245 35.6721 47.4708 35.47 47.5938 35.3153L49.8797 32.4528C50.0023 32.2989 50.189 32.2095 50.3861 32.2095H52.8421L53.745 28.2251L51.5261 27.1614C51.3479 27.0762 51.2187 26.9146 51.1748 26.7225L50.3537 23.1495C50.3093 22.9567 50.3556 22.7542 50.479 22.5999L52.0201 20.6734L49.47 17.4681L47.2524 18.5495C47.0738 18.6366 46.8655 18.637 46.6866 18.5506L43.3802 16.9527C43.2032 16.8671 43.0743 16.7059 43.0304 16.5138L42.48 14.1103L38.3866 14.1103ZM32.3183 27.2874C32.3183 22.8255 35.9356 19.1831 40.4222 19.1831C44.9076 19.1831 48.5264 22.8019 48.5264 27.2874C48.5264 31.7724 44.9076 35.3912 40.4222 35.3912C35.9371 35.3912 32.3183 31.7724 32.3183 27.2874ZM40.4222 20.479C36.6541 20.479 33.6142 23.5385 33.6142 27.2874C33.6142 31.057 36.6525 34.0953 40.4222 34.0953C44.1918 34.0953 47.2305 31.057 47.2305 27.2874C47.2305 23.5177 44.1918 20.479 40.4222 20.479Z" stroke="#1742E7" stroke-width="0.56" mask="url(#path-1-inside-1_6352_1723)"></path><path fill-rule="evenodd" clip-rule="evenodd" d="M44.0958 54.3678C43.9774 54.2378 43.8066 54.1561 43.6168 54.1561C43.2589 54.1561 42.9689 54.4461 42.9689 54.804C42.9689 54.9297 43.004 55.0663 43.0896 55.1889C43.1475 55.2715 43.2134 55.3243 43.2493 55.3501C43.7376 55.8041 44.2486 56.3062 44.7766 56.825C45.666 57.6986 46.6036 58.6196 47.562 59.438C48.6507 60.3679 49.8294 61.2249 51.1265 61.8369C50.335 62.4224 49.8259 63.3627 49.8259 64.4129C49.8259 64.7172 49.8672 65.0123 49.9455 65.2919C48.5486 64.6328 47.2307 63.7372 45.9695 62.714C44.3269 61.3811 42.8108 59.8585 41.3494 58.3906C41.14 58.18 40.9314 57.971 40.7243 57.7635C40.4713 57.5105 40.0609 57.5105 39.8079 57.7635C39.5549 58.0165 39.5549 58.4264 39.8079 58.6794C40.0119 58.8839 40.2186 59.0917 40.4277 59.3015C41.8844 60.7652 43.4526 62.3407 45.153 63.7203C47.101 65.3008 49.262 66.6584 51.7014 67.3237C52.0227 67.4112 52.3582 67.2407 52.477 66.9295C52.5958 66.6186 52.4593 66.2681 52.1615 66.1188C51.5367 65.8064 51.1217 65.1646 51.1217 64.413C51.1217 63.369 51.9672 62.5089 53.0254 62.5089H53.0694C53.3953 62.5089 53.6714 62.2663 53.7127 61.9427C53.754 61.6191 53.548 61.3152 53.2322 61.2335C51.4851 60.7814 49.9096 59.7385 48.4035 58.4527C47.4663 57.6524 46.6036 56.804 45.7477 55.9617C45.2039 55.4263 44.6628 54.8938 44.1063 54.3777C44.1028 54.3746 44.0993 54.3711 44.0959 54.368L44.0958 54.3678Z" stroke="#1742E7" stroke-width="0.56" mask="url(#path-1-inside-1_6352_1723)"></path><path fill-rule="evenodd" clip-rule="evenodd" d="M25.1528 41.8533C25.1967 41.844 25.2415 41.839 25.2866 41.839H25.5084C25.8836 41.839 26.2558 41.8626 26.6048 41.8842L26.6141 41.8849C26.621 41.8853 26.628 41.8857 26.6349 41.8865C29.603 42.168 32.1832 43.5032 34.4727 45.2102C36.5384 46.7507 38.4058 48.6247 40.1221 50.3467C40.3019 50.5276 40.4804 50.7061 40.6571 50.8832L40.6582 50.8843C40.6945 50.9202 40.7759 51.0016 40.8449 51.1404C40.9683 51.3869 40.922 51.6846 40.7296 51.8821L37.4012 55.2995C37.1563 55.5506 36.7559 55.5614 36.4979 55.3238C35.9028 54.7758 35.3232 54.205 34.7411 53.6318C33.7526 52.6588 32.7576 51.6788 31.668 50.7924C29.9703 49.411 28.183 48.3862 26.161 48.1918C26.1452 48.1906 26.1293 48.1891 26.1139 48.1879C25.8632 48.1671 25.6611 48.1502 25.4421 48.1502H25.2866C25.2377 48.1502 25.1891 48.1444 25.1408 48.1336C23.6995 47.8007 22.6417 46.5233 22.6417 44.9945C22.6417 43.4495 23.6954 42.1614 25.1529 41.8532L25.1528 41.8533ZM25.3595 43.1349C24.5399 43.3373 23.9375 44.0771 23.9375 44.9946C23.9375 45.8836 24.5342 46.6314 25.3657 46.8544H25.4417C25.7171 46.8544 25.9716 46.8756 26.2119 46.8956C26.2323 46.8976 26.2524 46.8991 26.2725 46.901L26.2806 46.9014C28.6726 47.1297 30.7012 48.335 32.4862 49.7874C33.6127 50.7042 34.7004 51.7729 35.7255 52.781C36.1328 53.1814 36.5304 53.572 36.9165 53.94L39.3666 51.4242L39.2093 51.2669C37.483 49.5348 35.683 47.729 33.6984 46.2492C31.5189 44.6239 29.1651 43.4307 26.5228 43.1773C26.1683 43.1553 25.837 43.1349 25.5088 43.1349L25.3595 43.1349Z" stroke="#1742E7" stroke-width="0.56" mask="url(#path-1-inside-1_6352_1723)"></path><path fill-rule="evenodd" clip-rule="evenodd" d="M18.1427 54.9326C18.4701 54.9441 18.7374 55.1983 18.7655 55.5246C19.0702 59.0604 21.6836 61.5007 25.1767 61.5007C25.7741 61.5007 26.3423 61.4389 26.9058 61.2982C26.9127 61.2962 26.92 61.2947 26.927 61.2932C27.2089 61.233 27.492 61.152 27.777 61.0502C27.8468 61.0251 27.9205 61.0124 27.9949 61.0124H28.1939C29.9422 61.0124 31.3723 62.4047 31.3723 64.168C31.3723 65.3667 30.7031 66.4285 29.6954 66.9603C29.668 66.9746 29.6398 66.9869 29.6109 66.9973C29.2757 67.1169 28.9456 67.211 28.6078 67.3009C27.4168 67.6279 26.1614 67.7895 24.8439 67.7895C17.8361 67.7895 12.7026 62.8336 12.2366 55.8901C12.2142 55.5584 12.4468 55.2634 12.775 55.2078C13.1028 55.1523 13.4199 55.3544 13.5078 55.6753C13.7435 56.5334 14.5364 57.1737 15.4794 57.1737C16.4895 57.1737 17.3295 56.4316 17.48 55.4794C17.5313 55.1558 17.8155 54.9213 18.143 54.9329L18.1427 54.9326ZM17.8372 57.4893C17.2344 58.0944 16.3991 58.4693 15.4792 58.4693C14.8976 58.4693 14.3518 58.3208 13.8763 58.0605C15.1208 63.1159 19.3229 66.4937 24.8437 66.4937C26.0551 66.4937 27.1951 66.3449 28.267 66.051L28.2716 66.0498C28.5809 65.9669 28.8578 65.8878 29.1286 65.7933C29.6974 65.4751 30.0762 64.8623 30.0762 64.1681C30.0762 63.1352 29.242 62.3083 28.1944 62.3083H28.1053C27.808 62.4101 27.5087 62.4935 27.209 62.5582C26.5333 62.726 25.8622 62.7966 25.1765 62.7966C21.6402 62.7966 18.8387 60.673 17.837 57.4893L17.8372 57.4893Z" stroke="#1742E7" stroke-width="0.56" mask="url(#path-1-inside-1_6352_1723)"></path><path fill-rule="evenodd" clip-rule="evenodd" d="M25.9081 42.3924C25.9459 42.7241 25.7253 43.0303 25.3982 43.0997C24.5493 43.2791 23.9176 44.03 23.9149 44.9676C23.9346 45.9152 24.5729 46.6677 25.4206 46.847C25.7427 46.9149 25.9621 47.2134 25.9317 47.5412C25.9012 47.8686 25.6301 48.1213 25.3011 48.1286C21.6657 48.2092 18.8937 51.1349 18.7669 54.5493V54.8031C18.7669 55.0534 18.7673 55.2902 18.7862 55.4996C18.7916 55.556 18.7892 55.6127 18.7796 55.6682C18.5046 57.2629 17.1281 58.4473 15.4781 58.4473C13.9354 58.4473 12.6426 57.4014 12.2569 55.996C12.2454 55.9539 12.238 55.9111 12.2353 55.8675L12.2346 55.8595C12.213 55.5312 12.1895 55.1803 12.1895 54.8039V54.4996C12.3534 47.7641 17.8015 41.9574 25.2519 41.8172C25.5859 41.8111 25.8702 42.0598 25.908 42.3919L25.9081 42.3924ZM13.4854 54.5238V54.8042C13.4854 55.1112 13.5031 55.4028 13.5236 55.7117C13.7785 56.5405 14.5568 57.1518 15.4782 57.1518C16.4652 57.1518 17.2905 56.4646 17.4883 55.5235C17.471 55.2782 17.471 55.026 17.471 54.817V54.5377C17.471 54.53 17.471 54.5227 17.4714 54.515C17.5948 51.0373 20.0138 47.9793 23.417 47.0907C22.9288 46.5276 22.6337 45.7906 22.6194 44.9853L22.6191 44.9737C22.6191 44.3809 22.7745 43.8259 23.0479 43.3496C17.4753 44.4442 13.6192 49.1688 13.4854 54.5243L13.4854 54.5238Z" stroke="#1742E7" stroke-width="0.56" mask="url(#path-1-inside-1_6352_1723)"></path><path fill-rule="evenodd" clip-rule="evenodd" d="M62.3675 54.8003C62.6954 54.7891 62.9796 55.0243 63.0301 55.3487C63.1813 56.3245 64.0233 57.0634 65.0307 57.0634C65.9706 57.0634 66.7643 56.4263 67.0011 55.5458C67.0879 55.223 67.4064 55.0193 67.7358 55.0756C68.0656 55.1316 68.2981 55.4293 68.2731 55.7629C67.7817 62.2867 62.3347 67.7907 55.0003 67.7907C54.33 67.7907 53.6496 67.7448 52.9843 67.6264C52.5389 67.5558 52.1173 67.4621 51.6977 67.3456C51.6576 67.3344 51.6187 67.3194 51.5816 67.3008C50.5199 66.7698 49.8253 65.6806 49.8253 64.4356C49.8253 62.6835 51.2434 61.2356 53.0252 61.2356H53.0688C53.1178 61.2356 53.1675 61.241 53.2154 61.2522C53.4969 61.317 53.7842 61.3783 54.0654 61.4188C54.4202 61.4632 54.7589 61.5017 55.089 61.5017C58.6654 61.5017 61.4608 58.7121 61.7442 55.393C61.772 55.0663 62.0397 54.8118 62.3675 54.8006L62.3675 54.8003ZM62.6495 57.3516C61.6031 60.4477 58.6809 62.7973 55.089 62.7973C54.6667 62.7973 54.2525 62.7479 53.8992 62.7036L53.8876 62.7024C53.5775 62.6581 53.2721 62.5941 52.9971 62.5312C51.9515 62.5462 51.1211 63.4005 51.1211 64.4353C51.1211 65.1661 51.5134 65.7925 52.1089 66.1141C52.4645 66.2106 52.8197 66.2881 53.193 66.3471L53.2057 66.3494C53.7811 66.452 54.3855 66.4944 55.0003 66.4944C60.7461 66.4944 65.1817 62.7792 66.563 57.9863C66.1044 58.2247 65.5834 58.3593 65.0303 58.3593C64.0974 58.3593 63.2531 57.974 62.6492 57.3515L62.6495 57.3516Z" stroke="#1742E7" stroke-width="0.56" mask="url(#path-1-inside-1_6352_1723)"></path><path fill-rule="evenodd" clip-rule="evenodd" d="M57.0477 43.2089C57.4107 43.7273 57.6236 44.3587 57.6236 45.0397C57.6236 45.7725 57.3798 46.4502 56.9644 46.9905C60.4718 47.6871 62.9139 50.6275 63.0601 54.4684C63.0601 54.4765 63.0605 54.485 63.0605 54.4931V54.8205C63.0605 55.0022 63.0604 55.2155 63.0435 55.4222C63.2251 56.3613 64.0494 57.0629 65.0309 57.0629C65.9577 57.0629 66.7421 56.4435 66.9913 55.5823C67.0229 55.3385 67.0237 55.104 67.0237 54.8036C67.0237 54.7681 67.0163 54.7207 66.992 54.598C66.9843 54.561 66.9805 54.5232 66.9793 54.4854C66.9052 51.1392 65.7077 48.3072 63.7304 46.3144C62.0399 44.6104 59.7548 43.4951 57.0477 43.2089ZM55.6335 41.8398H55.6443C59.2889 41.8398 62.4152 43.1488 64.6507 45.4019C66.8726 47.6412 68.1804 50.7794 68.2737 54.399C68.2938 54.5012 68.3196 54.6485 68.3196 54.8036V54.8206C68.3196 55.121 68.3196 55.4488 68.2687 55.8052C68.2652 55.831 68.2598 55.8569 68.2529 55.882C67.8688 57.3097 66.5764 58.3588 65.0309 58.3588C63.3755 58.3588 61.9979 57.1447 61.75 55.5469C61.7411 55.4902 61.74 55.4327 61.7461 55.376C61.7639 55.2186 61.7646 55.0343 61.7646 54.8036V54.5059C61.6165 50.7583 58.9572 48.1287 55.3334 48.1287H55.1568C54.8344 48.1287 54.5601 47.8915 54.5146 47.5725C54.4691 47.2532 54.665 46.9493 54.9747 46.859C55.7654 46.628 56.3277 45.9037 56.3277 45.0398C56.3277 44.0814 55.6165 43.2842 54.687 43.1515C54.36 43.1048 54.1205 42.8194 54.1313 42.4889C54.1421 42.1587 54.3997 41.8895 54.7291 41.8641C55.0426 41.8398 55.3519 41.8398 55.6335 41.8398Z" stroke="#1742E7" stroke-width="0.56" mask="url(#path-1-inside-1_6352_1723)"></path><path fill-rule="evenodd" clip-rule="evenodd" d="M54.7897 41.8849C54.8283 41.883 54.8668 41.8845 54.905 41.8895C56.4323 42.0874 57.6225 43.433 57.6225 45.0397C57.6225 46.4899 56.6479 47.7117 55.3397 48.1017C55.2795 48.1194 55.2174 48.1287 55.1545 48.1287C54.8506 48.1287 54.5602 48.1661 54.2235 48.2112C52.3251 48.4893 50.5603 49.4446 48.8953 50.7262C47.2474 51.9952 45.7428 53.5471 44.3301 55.0034L44.2803 55.0551C44.0555 55.2869 43.6945 55.3177 43.4334 55.1276C43.1727 54.937 43.0917 54.5842 43.2436 54.2991C43.364 54.0731 43.4334 53.7812 43.4334 53.4722C43.4334 52.4541 42.5918 51.6125 41.574 51.6125C41.2713 51.6125 41.0001 51.6796 40.7695 51.8026C40.486 51.9538 40.1351 51.8744 39.9438 51.6167C39.7528 51.3587 39.7791 50.9997 40.0062 50.7729C40.1088 50.6699 40.2118 50.5669 40.3152 50.4639C43.9212 46.8536 47.8869 42.8835 53.4547 42.0253C53.8797 41.9547 54.3248 41.908 54.7898 41.8849L54.7897 41.8849ZM54.7924 43.1824C54.394 43.2043 54.018 43.2452 53.6635 43.3042L53.6554 43.3058C49.0272 44.0177 45.5716 47.082 42.2299 50.3857C43.4394 50.6449 44.3994 51.6037 44.6596 52.8128C45.7241 51.7413 46.8727 50.6483 48.1053 49.6996C49.862 48.347 51.8351 47.2501 54.0404 46.9285L54.0485 46.9274L54.064 46.925C54.359 46.8857 54.6919 46.8414 55.0502 46.834C55.7868 46.5772 56.3268 45.8679 56.3268 45.0398C56.3268 44.0922 55.6376 43.3201 54.7926 43.1825L54.7924 43.1824Z" stroke="#1742E7" stroke-width="0.56" mask="url(#path-1-inside-1_6352_1723)"></path><path fill-rule="evenodd" clip-rule="evenodd" d="M40.9156 51.6744L40.793 51.797L39.8184 52.794L37.4457 55.211C37.4453 55.2114 37.4449 55.2114 37.4449 55.2118C37.3377 55.3217 37.2293 55.4332 37.1202 55.5454C35.1162 57.6069 32.7485 60.0428 29.9936 61.4856C30.8479 62.0468 31.4159 63.0125 31.4159 64.1233C31.4159 64.3589 31.3893 64.5888 31.3392 64.8102C34.3621 63.215 36.9033 60.6703 39.4531 58.1171C39.5781 57.9922 39.7027 57.8672 39.8276 57.7422C39.8284 57.7419 39.8292 57.7411 39.8299 57.7403L42.3311 55.1945L42.3334 55.1925L43.1259 54.3784C43.1811 54.3082 43.2351 54.2492 43.2821 54.2002C43.3793 53.9865 43.4345 53.7246 43.4345 53.4496C43.4345 52.433 42.5914 51.5818 41.6249 51.5235C41.3626 51.5255 41.1243 51.5783 40.9156 51.6744ZM40.2272 50.5701C40.6618 50.3383 41.1455 50.2276 41.6415 50.2276C41.6526 50.2276 41.6634 50.228 41.6742 50.2284C43.3199 50.3121 44.7303 51.7202 44.7303 53.4496C44.7303 53.9398 44.6223 54.4466 44.3879 54.8863C44.3578 54.9426 44.3196 54.9943 44.2745 55.0394C44.2062 55.1077 44.1703 55.1447 44.1348 55.1921C44.1183 55.2141 44.1001 55.2353 44.0809 55.2554L43.2597 56.0985L43.2574 56.1008L40.7458 58.6567C40.5977 58.8048 40.4493 58.9537 40.3 59.1033C37.2404 62.1699 33.9355 65.482 29.6476 66.9553C29.3286 67.0648 28.9792 66.9117 28.8439 66.6032C28.7081 66.2946 28.8315 65.934 29.1277 65.7732C29.7093 65.4573 30.1205 64.8248 30.1205 64.1233C30.1205 63.087 29.2824 62.2639 28.2607 62.2639H28.0621C27.7447 62.2639 27.4732 62.0341 27.4219 61.7209C27.3702 61.4077 27.5534 61.1034 27.8538 61.002C31.0526 59.922 33.7925 57.107 36.2729 54.558C36.3546 54.4739 36.4364 54.3903 36.5178 54.3066L36.5193 54.305L38.8932 51.8872L39.8743 50.8833L40.0741 50.6835C40.1196 50.6384 40.1709 50.6002 40.2276 50.5701L40.2272 50.5701Z" stroke="#1742E7" stroke-width="0.56" mask="url(#path-1-inside-1_6352_1723)"></path><path fill-rule="evenodd" clip-rule="evenodd" d="M44.0771 24.8553C44.3293 25.1094 44.3282 25.5194 44.0744 25.7717L40.346 29.4776C40.2241 29.5991 40.0587 29.6666 39.8867 29.6658C39.7146 29.6655 39.55 29.596 39.4289 29.4738L37.232 27.2549C36.9802 27.0004 36.9821 26.5904 37.2367 26.3386C37.4908 26.0867 37.9012 26.0886 38.153 26.3432L39.8928 28.1007L43.1607 24.8526C43.4145 24.6004 43.8249 24.6015 44.0771 24.8553Z" stroke="#1742E7" stroke-width="0.56" mask="url(#path-1-inside-1_6352_1723)"></path></svg>