<svg xmlns="http://www.w3.org/2000/svg" width="81" height="81" viewBox="0 0 81 81" fill="none"><mask id="path-1-inside-1_6352_1732" fill="white"><path d="M50.286 41.8507V41.0766H56.4597C60.7148 41.0766 64.1769 37.6034 64.1769 33.3346C64.1769 29.0658 60.7148 25.5927 56.4597 25.5927C56.1232 25.5927 55.7907 25.6221 55.461 25.6656C54.4061 20.2756 49.6687 16.3027 44.112 16.3027C40.0088 16.3027 36.2784 18.4393 34.1891 21.9319C33.0022 21.3049 31.6531 20.9479 30.221 20.9479C25.7843 20.9479 22.138 24.3813 21.7683 28.7379C18.71 29.1039 16.3301 31.7186 16.3301 34.8834C16.3301 38.2985 19.0997 41.0769 22.5038 41.0769H30.221V41.8511C30.221 42.1235 30.2764 42.3823 30.3629 42.6253H16.3301V64.3027H34.8512V51.9156H45.6552V64.3027H64.1763V42.6253H50.1435C50.2299 42.3823 50.2854 42.1235 50.2854 41.8511L50.286 41.8507ZM47.9709 34.883H32.5366C32.1115 34.883 31.7649 34.5353 31.7649 34.1088V32.5604C31.7649 32.1339 32.1115 31.7862 32.5366 31.7862H47.9709C48.396 31.7862 48.7426 32.1339 48.7426 32.5604V34.1088C48.7426 34.5353 48.396 34.883 47.9709 34.883ZM33.3084 36.4314H47.1992V37.9798H33.3084V36.4314ZM17.8741 34.883C17.8741 32.3213 19.9508 30.2378 22.5044 30.2378C25.0579 30.2378 27.1346 32.3213 27.1346 34.883H28.6781C28.6781 31.7438 26.3351 29.1478 23.3122 28.7489C23.6705 25.2412 26.6324 22.4959 30.2215 22.4959C33.8075 22.4959 36.7787 25.1918 37.1328 28.7662L38.6686 28.6137C38.4316 26.2237 37.2347 24.1608 35.4853 22.7772C37.2913 19.7219 40.5386 17.8507 44.1122 17.8507C48.9455 17.8507 53.0632 21.3197 53.9567 26.0178C52.7212 26.4436 51.596 27.1767 50.7068 28.173L51.8568 29.2058C53.0281 27.8934 54.706 27.141 56.4592 27.141C59.8634 27.141 62.6329 29.9194 62.6329 33.3346C62.6329 36.7497 59.8634 39.5281 56.4592 39.5281H50.1436C49.9107 38.8725 49.3957 38.3561 48.7421 38.1221V36.2879C49.6382 35.9675 50.2855 35.1159 50.2855 34.1077V32.5593C50.2855 31.2787 49.2468 30.2367 47.9704 30.2367L32.5361 30.2371C31.2596 30.2371 30.221 31.2791 30.221 32.5596V34.108C30.221 35.1159 30.8683 35.9675 31.7644 36.2883V38.1224C31.1108 38.3561 30.5962 38.8728 30.3629 39.5285L22.5038 39.5281C19.9503 39.5281 17.8736 37.4447 17.8736 34.8829L17.8741 34.883ZM31.7649 41.8507V40.3024C31.7649 39.8759 32.1115 39.5282 32.5366 39.5282H47.9709C48.396 39.5282 48.7426 39.8759 48.7426 40.3024V41.8507C48.7426 42.2772 48.396 42.6249 47.9709 42.6249H32.5366C32.1115 42.6249 31.7649 42.2772 31.7649 41.8507ZM34.8518 44.1733H45.6558V45.7217H34.8518V44.1733ZM33.3084 62.754H17.8741V44.1733H33.3084V62.754ZM34.8518 50.3669V47.2701H45.6558V50.3669H34.8518ZM62.6335 62.754H47.1992V44.1733H62.6335V62.754Z"></path><path d="M48.7426 47.2701H50.286V48.8185H48.7426V47.2701Z"></path><path d="M51.8295 47.2701H61.09V48.8185H51.8295V47.2701Z"></path><path d="M48.7426 50.3669H61.09V51.9153H48.7426V50.3669Z"></path><path d="M48.7426 53.4636H61.09V55.012H48.7426V53.4636Z"></path><path d="M48.7426 56.5604H61.09V58.1088H48.7426V56.5604Z"></path><path d="M48.7426 59.6572H58.0032V61.2056H48.7426V59.6572Z"></path><path d="M59.5466 59.6572H61.09V61.2056H59.5466V59.6572Z"></path><path d="M19.4175 47.2701H31.7649V48.8185H19.4175V47.2701Z"></path><path d="M22.5044 50.3669H31.7649V51.9153H22.5044V50.3669Z"></path><path d="M19.4175 50.3669H20.9609V51.9153H19.4175V50.3669Z"></path><path d="M19.4175 53.4636H31.7649V55.012H19.4175V53.4636Z"></path><path d="M30.2215 56.5604H31.7649V58.1088H30.2215V56.5604Z"></path><path d="M19.4175 56.5604H28.6781V58.1088H19.4175V56.5604Z"></path><path d="M19.4175 59.6572H31.7649V61.2056H19.4175V59.6572Z"></path></mask><path d="M50.286 41.8507V41.0766H56.4597C60.7148 41.0766 64.1769 37.6034 64.1769 33.3346C64.1769 29.0658 60.7148 25.5927 56.4597 25.5927C56.1232 25.5927 55.7907 25.6221 55.461 25.6656C54.4061 20.2756 49.6687 16.3027 44.112 16.3027C40.0088 16.3027 36.2784 18.4393 34.1891 21.9319C33.0022 21.3049 31.6531 20.9479 30.221 20.9479C25.7843 20.9479 22.138 24.3813 21.7683 28.7379C18.71 29.1039 16.3301 31.7186 16.3301 34.8834C16.3301 38.2985 19.0997 41.0769 22.5038 41.0769H30.221V41.8511C30.221 42.1235 30.2764 42.3823 30.3629 42.6253H16.3301V64.3027H34.8512V51.9156H45.6552V64.3027H64.1763V42.6253H50.1435C50.2299 42.3823 50.2854 42.1235 50.2854 41.8511L50.286 41.8507ZM47.9709 34.883H32.5366C32.1115 34.883 31.7649 34.5353 31.7649 34.1088V32.5604C31.7649 32.1339 32.1115 31.7862 32.5366 31.7862H47.9709C48.396 31.7862 48.7426 32.1339 48.7426 32.5604V34.1088C48.7426 34.5353 48.396 34.883 47.9709 34.883ZM33.3084 36.4314H47.1992V37.9798H33.3084V36.4314ZM17.8741 34.883C17.8741 32.3213 19.9508 30.2378 22.5044 30.2378C25.0579 30.2378 27.1346 32.3213 27.1346 34.883H28.6781C28.6781 31.7438 26.3351 29.1478 23.3122 28.7489C23.6705 25.2412 26.6324 22.4959 30.2215 22.4959C33.8075 22.4959 36.7787 25.1918 37.1328 28.7662L38.6686 28.6137C38.4316 26.2237 37.2347 24.1608 35.4853 22.7772C37.2913 19.7219 40.5386 17.8507 44.1122 17.8507C48.9455 17.8507 53.0632 21.3197 53.9567 26.0178C52.7212 26.4436 51.596 27.1767 50.7068 28.173L51.8568 29.2058C53.0281 27.8934 54.706 27.141 56.4592 27.141C59.8634 27.141 62.6329 29.9194 62.6329 33.3346C62.6329 36.7497 59.8634 39.5281 56.4592 39.5281H50.1436C49.9107 38.8725 49.3957 38.3561 48.7421 38.1221V36.2879C49.6382 35.9675 50.2855 35.1159 50.2855 34.1077V32.5593C50.2855 31.2787 49.2468 30.2367 47.9704 30.2367L32.5361 30.2371C31.2596 30.2371 30.221 31.2791 30.221 32.5596V34.108C30.221 35.1159 30.8683 35.9675 31.7644 36.2883V38.1224C31.1108 38.3561 30.5962 38.8728 30.3629 39.5285L22.5038 39.5281C19.9503 39.5281 17.8736 37.4447 17.8736 34.8829L17.8741 34.883ZM31.7649 41.8507V40.3024C31.7649 39.8759 32.1115 39.5282 32.5366 39.5282H47.9709C48.396 39.5282 48.7426 39.8759 48.7426 40.3024V41.8507C48.7426 42.2772 48.396 42.6249 47.9709 42.6249H32.5366C32.1115 42.6249 31.7649 42.2772 31.7649 41.8507ZM34.8518 44.1733H45.6558V45.7217H34.8518V44.1733ZM33.3084 62.754H17.8741V44.1733H33.3084V62.754ZM34.8518 50.3669V47.2701H45.6558V50.3669H34.8518ZM62.6335 62.754H47.1992V44.1733H62.6335V62.754Z" fill="#1742E7"></path><path d="M48.7426 47.2701H50.286V48.8185H48.7426V47.2701Z" fill="#1742E7"></path><path d="M51.8295 47.2701H61.09V48.8185H51.8295V47.2701Z" fill="#1742E7"></path><path d="M48.7426 50.3669H61.09V51.9153H48.7426V50.3669Z" fill="#1742E7"></path><path d="M48.7426 53.4636H61.09V55.012H48.7426V53.4636Z" fill="#1742E7"></path><path d="M48.7426 56.5604H61.09V58.1088H48.7426V56.5604Z" fill="#1742E7"></path><path d="M48.7426 59.6572H58.0032V61.2056H48.7426V59.6572Z" fill="#1742E7"></path><path d="M59.5466 59.6572H61.09V61.2056H59.5466V59.6572Z" fill="#1742E7"></path><path d="M19.4175 47.2701H31.7649V48.8185H19.4175V47.2701Z" fill="#1742E7"></path><path d="M22.5044 50.3669H31.7649V51.9153H22.5044V50.3669Z" fill="#1742E7"></path><path d="M19.4175 50.3669H20.9609V51.9153H19.4175V50.3669Z" fill="#1742E7"></path><path d="M19.4175 53.4636H31.7649V55.012H19.4175V53.4636Z" fill="#1742E7"></path><path d="M30.2215 56.5604H31.7649V58.1088H30.2215V56.5604Z" fill="#1742E7"></path><path d="M19.4175 56.5604H28.6781V58.1088H19.4175V56.5604Z" fill="#1742E7"></path><path d="M19.4175 59.6572H31.7649V61.2056H19.4175V59.6572Z" fill="#1742E7"></path><path d="M50.286 41.8507V41.0766H56.4597C60.7148 41.0766 64.1769 37.6034 64.1769 33.3346C64.1769 29.0658 60.7148 25.5927 56.4597 25.5927C56.1232 25.5927 55.7907 25.6221 55.461 25.6656C54.4061 20.2756 49.6687 16.3027 44.112 16.3027C40.0088 16.3027 36.2784 18.4393 34.1891 21.9319C33.0022 21.3049 31.6531 20.9479 30.221 20.9479C25.7843 20.9479 22.138 24.3813 21.7683 28.7379C18.71 29.1039 16.3301 31.7186 16.3301 34.8834C16.3301 38.2985 19.0997 41.0769 22.5038 41.0769H30.221V41.8511C30.221 42.1235 30.2764 42.3823 30.3629 42.6253H16.3301V64.3027H34.8512V51.9156H45.6552V64.3027H64.1763V42.6253H50.1435C50.2299 42.3823 50.2854 42.1235 50.2854 41.8511L50.286 41.8507ZM47.9709 34.883H32.5366C32.1115 34.883 31.7649 34.5353 31.7649 34.1088V32.5604C31.7649 32.1339 32.1115 31.7862 32.5366 31.7862H47.9709C48.396 31.7862 48.7426 32.1339 48.7426 32.5604V34.1088C48.7426 34.5353 48.396 34.883 47.9709 34.883ZM33.3084 36.4314H47.1992V37.9798H33.3084V36.4314ZM17.8741 34.883C17.8741 32.3213 19.9508 30.2378 22.5044 30.2378C25.0579 30.2378 27.1346 32.3213 27.1346 34.883H28.6781C28.6781 31.7438 26.3351 29.1478 23.3122 28.7489C23.6705 25.2412 26.6324 22.4959 30.2215 22.4959C33.8075 22.4959 36.7787 25.1918 37.1328 28.7662L38.6686 28.6137C38.4316 26.2237 37.2347 24.1608 35.4853 22.7772C37.2913 19.7219 40.5386 17.8507 44.1122 17.8507C48.9455 17.8507 53.0632 21.3197 53.9567 26.0178C52.7212 26.4436 51.596 27.1767 50.7068 28.173L51.8568 29.2058C53.0281 27.8934 54.706 27.141 56.4592 27.141C59.8634 27.141 62.6329 29.9194 62.6329 33.3346C62.6329 36.7497 59.8634 39.5281 56.4592 39.5281H50.1436C49.9107 38.8725 49.3957 38.3561 48.7421 38.1221V36.2879C49.6382 35.9675 50.2855 35.1159 50.2855 34.1077V32.5593C50.2855 31.2787 49.2468 30.2367 47.9704 30.2367L32.5361 30.2371C31.2596 30.2371 30.221 31.2791 30.221 32.5596V34.108C30.221 35.1159 30.8683 35.9675 31.7644 36.2883V38.1224C31.1108 38.3561 30.5962 38.8728 30.3629 39.5285L22.5038 39.5281C19.9503 39.5281 17.8736 37.4447 17.8736 34.8829L17.8741 34.883ZM31.7649 41.8507V40.3024C31.7649 39.8759 32.1115 39.5282 32.5366 39.5282H47.9709C48.396 39.5282 48.7426 39.8759 48.7426 40.3024V41.8507C48.7426 42.2772 48.396 42.6249 47.9709 42.6249H32.5366C32.1115 42.6249 31.7649 42.2772 31.7649 41.8507ZM34.8518 44.1733H45.6558V45.7217H34.8518V44.1733ZM33.3084 62.754H17.8741V44.1733H33.3084V62.754ZM34.8518 50.3669V47.2701H45.6558V50.3669H34.8518ZM62.6335 62.754H47.1992V44.1733H62.6335V62.754Z" stroke="#1742E7" stroke-width="0.476506" mask="url(#path-1-inside-1_6352_1732)"></path><path d="M48.7426 47.2701H50.286V48.8185H48.7426V47.2701Z" stroke="#1742E7" stroke-width="0.476506" mask="url(#path-1-inside-1_6352_1732)"></path><path d="M51.8295 47.2701H61.09V48.8185H51.8295V47.2701Z" stroke="#1742E7" stroke-width="0.476506" mask="url(#path-1-inside-1_6352_1732)"></path><path d="M48.7426 50.3669H61.09V51.9153H48.7426V50.3669Z" stroke="#1742E7" stroke-width="0.476506" mask="url(#path-1-inside-1_6352_1732)"></path><path d="M48.7426 53.4636H61.09V55.012H48.7426V53.4636Z" stroke="#1742E7" stroke-width="0.476506" mask="url(#path-1-inside-1_6352_1732)"></path><path d="M48.7426 56.5604H61.09V58.1088H48.7426V56.5604Z" stroke="#1742E7" stroke-width="0.476506" mask="url(#path-1-inside-1_6352_1732)"></path><path d="M48.7426 59.6572H58.0032V61.2056H48.7426V59.6572Z" stroke="#1742E7" stroke-width="0.476506" mask="url(#path-1-inside-1_6352_1732)"></path><path d="M59.5466 59.6572H61.09V61.2056H59.5466V59.6572Z" stroke="#1742E7" stroke-width="0.476506" mask="url(#path-1-inside-1_6352_1732)"></path><path d="M19.4175 47.2701H31.7649V48.8185H19.4175V47.2701Z" stroke="#1742E7" stroke-width="0.476506" mask="url(#path-1-inside-1_6352_1732)"></path><path d="M22.5044 50.3669H31.7649V51.9153H22.5044V50.3669Z" stroke="#1742E7" stroke-width="0.476506" mask="url(#path-1-inside-1_6352_1732)"></path><path d="M19.4175 50.3669H20.9609V51.9153H19.4175V50.3669Z" stroke="#1742E7" stroke-width="0.476506" mask="url(#path-1-inside-1_6352_1732)"></path><path d="M19.4175 53.4636H31.7649V55.012H19.4175V53.4636Z" stroke="#1742E7" stroke-width="0.476506" mask="url(#path-1-inside-1_6352_1732)"></path><path d="M30.2215 56.5604H31.7649V58.1088H30.2215V56.5604Z" stroke="#1742E7" stroke-width="0.476506" mask="url(#path-1-inside-1_6352_1732)"></path><path d="M19.4175 56.5604H28.6781V58.1088H19.4175V56.5604Z" stroke="#1742E7" stroke-width="0.476506" mask="url(#path-1-inside-1_6352_1732)"></path><path d="M19.4175 59.6572H31.7649V61.2056H19.4175V59.6572Z" stroke="#1742E7" stroke-width="0.476506" mask="url(#path-1-inside-1_6352_1732)"></path></svg>