<svg xmlns="http://www.w3.org/2000/svg" width="81" height="81" viewBox="0 0 81 81" fill="none"><mask id="path-1-inside-1_6366_247" fill="white"><path fill-rule="evenodd" clip-rule="evenodd" d="M17.7625 17.0352C16.7204 17.2415 15.8241 17.9666 15.346 18.9904L15.0645 19.5932V37.5267V55.4602L15.3459 56.063C15.7134 56.8504 16.301 57.4386 17.0607 57.7796C17.5912 58.0176 17.8405 58.0612 18.906 58.1023L20.1381 58.1497V57.2821V56.4146L19.2087 56.4102C17.8221 56.4037 17.2758 56.1539 16.9111 55.3597C16.7343 54.9746 16.7266 54.2287 16.7266 37.5267C16.7266 20.8246 16.7343 20.0788 16.9111 19.6937C17.1373 19.2012 17.3954 18.9629 17.896 18.7844C18.467 18.5807 56.1691 18.5807 56.74 18.7844C57.5957 19.0895 57.8329 19.5398 57.8938 20.9746L57.9397 22.0547H58.7807H59.6218V21.2192C59.6218 19.6077 59.3461 18.7595 58.5696 17.9831C58.0299 17.4434 57.529 17.1822 56.762 17.0404C56.052 16.9092 18.4247 16.9042 17.7625 17.0352ZM18.4301 21.2007V22.0547H19.2841H20.1381V21.2007V20.3467H19.2841H18.4301V21.2007ZM21.913 20.4137C21.8762 20.4505 21.846 20.8348 21.846 21.2677V22.0547H22.7H23.554V21.2007V20.3467H22.767C22.3341 20.3467 21.9498 20.3769 21.913 20.4137ZM25.3289 20.4137C25.2921 20.4505 25.2619 20.8348 25.2619 21.2677V22.0547H26.1159H26.9699V21.2007V20.3467H26.1829C25.75 20.3467 25.3657 20.3769 25.3289 20.4137ZM24.795 23.8634C23.3599 24.0735 22.2193 25.2047 21.9446 26.6908C21.8769 27.0572 21.8513 33.1774 21.8692 44.7684L21.8963 62.292L22.178 62.8948C22.641 63.8856 23.3509 64.5006 24.375 64.7984C24.8623 64.9401 26.9313 64.9537 44.405 64.9302L63.8917 64.9041L64.3615 64.687C64.9429 64.4184 65.688 63.7426 65.9991 63.202C66.1282 62.9778 66.2859 62.5456 66.3495 62.2417C66.435 61.8336 66.4571 57.0782 66.4343 44.0571L66.4034 26.425L66.1352 25.8528C65.6203 24.7543 64.6402 24.0347 63.4184 23.8581C62.6587 23.7482 25.5469 23.7533 24.795 23.8634ZM64.0291 25.8625C64.215 25.9952 64.4514 26.2891 64.5543 26.5155C64.7343 26.912 64.7414 27.5774 64.7435 44.3868C64.7453 58.8273 64.7222 61.9025 64.61 62.1712C64.4295 62.603 63.8247 63.1218 63.4166 63.1948C63.2359 63.2271 54.4493 63.2407 43.8908 63.2249L24.6937 63.1962L24.3247 62.9147C24.1217 62.7598 23.8766 62.4886 23.7799 62.3119C23.6149 62.0101 23.6023 60.9404 23.5735 44.7101C23.5516 32.4081 23.5746 27.285 23.6532 26.9274C23.7785 26.358 23.9753 26.0807 24.4679 25.7798L24.8098 25.5709L44.2503 25.5961L63.6908 25.6213L64.0291 25.8625ZM25.283 28.1079L25.3122 28.9367L26.141 28.9658L26.9699 28.9951V28.137V27.279H26.1119H25.2538L25.283 28.1079ZM28.7783 28.137V28.9951L29.6071 28.9658L30.436 28.9367L30.4651 28.1079L30.4944 27.279H29.6363H28.7783V28.137ZM32.1942 28.137V28.9951L33.023 28.9658L33.8519 28.9367L33.881 28.1079L33.9103 27.279H33.0522H32.1942V28.137ZM25.283 31.5237L25.3122 32.3526L44.175 32.378L63.0378 32.4033V31.5492V30.6949H44.1458H25.2538L25.283 31.5237ZM41.0555 34.3145C40.7702 34.5803 40.7379 34.7472 40.7084 36.1035L40.6837 37.2421L39.9 37.5445L39.1162 37.8469L38.2371 36.9994C37.2891 36.0856 36.9751 35.9305 36.5385 36.1605C36.3871 36.2404 35.3929 37.1821 34.3291 38.2533C31.9399 40.6592 31.9964 40.4627 33.3094 41.8015L34.2236 42.7337L33.9025 43.5384L33.5815 44.3429L32.2928 44.3758C31.0902 44.4065 30.9869 44.425 30.7451 44.6523L30.4862 44.8959V47.8246V50.7534L30.7454 50.997C30.987 51.224 31.0921 51.2429 32.2954 51.2756L33.5862 51.3105L33.9083 52.1096L34.2304 52.9087L33.3127 53.8443C32.3538 54.8221 32.2747 54.9904 32.5381 55.4903C32.6168 55.6395 33.5349 56.6093 34.5786 57.6453C36.3935 59.4472 36.4932 59.5291 36.8701 59.5291C37.2319 59.5291 37.338 59.4555 38.1717 58.6252L39.0794 57.7212L39.8816 58.0696L40.6837 58.4179L40.7339 59.7361C40.7832 61.0288 40.7896 61.0589 41.0661 61.2963L41.348 61.5385H44.1005C46.9748 61.5385 47.2456 61.5031 47.4539 61.1004C47.5151 60.9822 47.5766 60.3293 47.5905 59.6498L47.616 58.4141L48.4197 58.0823L49.2234 57.7505L50.1392 58.6398C51.5101 59.9711 51.334 60.0253 53.8674 57.4919C56.3947 54.9646 56.3344 55.164 54.9949 53.7628L54.0852 52.8112L54.278 52.4277C54.3841 52.2169 54.5241 51.8792 54.5893 51.6775L54.708 51.3107L55.9844 51.2734C57.3874 51.2323 57.6385 51.1466 57.8116 50.6499C57.9561 50.2354 57.946 45.3849 57.7999 44.9655C57.6321 44.4843 57.2363 44.3587 55.8826 44.3573L54.7492 44.3562L54.4185 43.539L54.0878 42.7218L54.9962 41.7955C56.3089 40.4568 56.3763 40.6723 53.852 38.1394C51.3081 35.5871 51.5093 35.649 50.1498 37.0013C49.4321 37.7152 49.1895 37.901 49.0728 37.8264C48.9899 37.7734 48.6168 37.6125 48.2439 37.4689L47.5657 37.2077V35.9056C47.5657 34.6266 47.561 34.5992 47.2999 34.3571L47.0341 34.1108H44.1542C41.3999 34.1108 41.2646 34.1197 41.0555 34.3145ZM25.3302 34.9802C25.2927 35.0177 25.2619 35.4026 25.2619 35.8355V36.6225H28.7321H32.2023L32.1731 35.7936L32.144 34.9648L28.7713 34.9383C26.9162 34.9238 25.3678 34.9427 25.3302 34.9802ZM45.8745 37.0141C45.9134 38.4042 45.9767 38.5255 46.799 38.7884C47.0825 38.8791 47.7567 39.1568 48.297 39.4055C49.0313 39.7434 49.3472 39.8408 49.547 39.7906C49.694 39.7538 50.1806 39.3661 50.6282 38.9291L51.4421 38.1347L52.639 39.3348L53.836 40.5349L53.0117 41.3795C52.0403 42.3747 52.0111 42.5039 52.5247 43.5321C52.7104 43.9038 52.9625 44.5122 53.0849 44.8842C53.4512 45.9969 53.4681 46.0078 54.9157 46.0664L56.1557 46.1167L56.1832 47.7889L56.2107 49.461L54.9939 49.497C53.8184 49.5317 53.7692 49.542 53.5451 49.8026C53.4175 49.951 53.2116 50.3804 53.0876 50.7569C52.9637 51.1334 52.7104 51.7455 52.5247 52.1171C52.0158 53.1358 52.0428 53.2548 53.0096 54.2619L53.8319 55.1185L52.6368 56.3167L51.4418 57.5148L50.5716 56.6634C49.9622 56.067 49.6282 55.8118 49.4571 55.8118C49.3227 55.8118 48.8535 55.9854 48.4144 56.1975C47.9752 56.4096 47.3161 56.6829 46.9495 56.8046C45.9613 57.1329 45.9143 57.2126 45.8745 58.6351L45.841 59.8305H44.1414H42.4419V58.7301C42.4419 58.1249 42.3908 57.5175 42.3284 57.3805C42.2223 57.1477 41.6766 56.8475 41.0353 56.6692C40.8972 56.6307 40.3921 56.4163 39.913 56.1927C39.2498 55.8831 38.9754 55.8027 38.7636 55.8559C38.6106 55.8943 38.1191 56.2832 37.6715 56.7201L36.8576 57.5145L35.6606 56.3144L34.4636 55.1144L35.288 54.2697C36.27 53.2637 36.3085 53.0849 35.775 52.0166C35.5893 51.645 35.3391 51.0471 35.2191 50.688C35.0989 50.3288 34.9395 49.9541 34.8645 49.8553C34.6629 49.5891 34.1644 49.4823 33.1242 49.4823H32.1942V47.7744V46.0664H33.3823C34.8009 46.0664 34.8236 46.0513 35.2542 44.8106C35.4076 44.3685 35.6634 43.7481 35.8228 43.4321C36.2851 42.5145 36.2447 42.3597 35.288 41.3795L34.4636 40.5349L35.6587 39.3367L36.8539 38.1384L37.6828 38.9343C38.1389 39.3721 38.6262 39.7589 38.766 39.7939C38.949 39.84 39.2948 39.7313 40.0026 39.4055C40.5429 39.1568 41.2219 38.8775 41.5113 38.7848C42.3406 38.5195 42.4419 38.321 42.4419 36.9606V35.8187H44.1414H45.841L45.8745 37.0141ZM25.283 39.2598L25.3122 40.0886H27.8741H30.436L30.4651 39.2598L30.4944 38.4309H27.8741H25.2538L25.283 39.2598ZM42.7232 42.0024C41.3488 42.3357 39.8987 43.378 39.1073 44.6018C38.2275 45.9619 37.9483 47.9839 38.4263 49.5326C39.17 51.9419 41.2724 53.612 43.7661 53.7744C44.8521 53.8452 45.6683 53.6933 46.6605 53.2359C48.668 52.3105 49.9788 50.4055 50.1423 48.1763C50.298 46.0538 49.0981 43.7918 47.2153 42.658C45.9939 41.9226 44.1577 41.6546 42.7232 42.0024ZM45.9618 43.9725C47.7106 44.8121 48.6603 46.5798 48.3681 48.4517C47.8307 51.8936 43.6734 53.2714 41.1777 50.8347C39.5481 49.2438 39.4893 46.5999 41.0461 44.9111C41.9133 43.9702 42.9598 43.5442 44.3041 43.5849C45.1083 43.6092 45.2973 43.6534 45.9618 43.9725ZM57.9139 60.6845V61.5385H60.4758H63.0378V60.6845V59.8305H60.4758H57.9139V60.6845Z"></path></mask><path fill-rule="evenodd" clip-rule="evenodd" d="M17.7625 17.0352C16.7204 17.2415 15.8241 17.9666 15.346 18.9904L15.0645 19.5932V37.5267V55.4602L15.3459 56.063C15.7134 56.8504 16.301 57.4386 17.0607 57.7796C17.5912 58.0176 17.8405 58.0612 18.906 58.1023L20.1381 58.1497V57.2821V56.4146L19.2087 56.4102C17.8221 56.4037 17.2758 56.1539 16.9111 55.3597C16.7343 54.9746 16.7266 54.2287 16.7266 37.5267C16.7266 20.8246 16.7343 20.0788 16.9111 19.6937C17.1373 19.2012 17.3954 18.9629 17.896 18.7844C18.467 18.5807 56.1691 18.5807 56.74 18.7844C57.5957 19.0895 57.8329 19.5398 57.8938 20.9746L57.9397 22.0547H58.7807H59.6218V21.2192C59.6218 19.6077 59.3461 18.7595 58.5696 17.9831C58.0299 17.4434 57.529 17.1822 56.762 17.0404C56.052 16.9092 18.4247 16.9042 17.7625 17.0352ZM18.4301 21.2007V22.0547H19.2841H20.1381V21.2007V20.3467H19.2841H18.4301V21.2007ZM21.913 20.4137C21.8762 20.4505 21.846 20.8348 21.846 21.2677V22.0547H22.7H23.554V21.2007V20.3467H22.767C22.3341 20.3467 21.9498 20.3769 21.913 20.4137ZM25.3289 20.4137C25.2921 20.4505 25.2619 20.8348 25.2619 21.2677V22.0547H26.1159H26.9699V21.2007V20.3467H26.1829C25.75 20.3467 25.3657 20.3769 25.3289 20.4137ZM24.795 23.8634C23.3599 24.0735 22.2193 25.2047 21.9446 26.6908C21.8769 27.0572 21.8513 33.1774 21.8692 44.7684L21.8963 62.292L22.178 62.8948C22.641 63.8856 23.3509 64.5006 24.375 64.7984C24.8623 64.9401 26.9313 64.9537 44.405 64.9302L63.8917 64.9041L64.3615 64.687C64.9429 64.4184 65.688 63.7426 65.9991 63.202C66.1282 62.9778 66.2859 62.5456 66.3495 62.2417C66.435 61.8336 66.4571 57.0782 66.4343 44.0571L66.4034 26.425L66.1352 25.8528C65.6203 24.7543 64.6402 24.0347 63.4184 23.8581C62.6587 23.7482 25.5469 23.7533 24.795 23.8634ZM64.0291 25.8625C64.215 25.9952 64.4514 26.2891 64.5543 26.5155C64.7343 26.912 64.7414 27.5774 64.7435 44.3868C64.7453 58.8273 64.7222 61.9025 64.61 62.1712C64.4295 62.603 63.8247 63.1218 63.4166 63.1948C63.2359 63.2271 54.4493 63.2407 43.8908 63.2249L24.6937 63.1962L24.3247 62.9147C24.1217 62.7598 23.8766 62.4886 23.7799 62.3119C23.6149 62.0101 23.6023 60.9404 23.5735 44.7101C23.5516 32.4081 23.5746 27.285 23.6532 26.9274C23.7785 26.358 23.9753 26.0807 24.4679 25.7798L24.8098 25.5709L44.2503 25.5961L63.6908 25.6213L64.0291 25.8625ZM25.283 28.1079L25.3122 28.9367L26.141 28.9658L26.9699 28.9951V28.137V27.279H26.1119H25.2538L25.283 28.1079ZM28.7783 28.137V28.9951L29.6071 28.9658L30.436 28.9367L30.4651 28.1079L30.4944 27.279H29.6363H28.7783V28.137ZM32.1942 28.137V28.9951L33.023 28.9658L33.8519 28.9367L33.881 28.1079L33.9103 27.279H33.0522H32.1942V28.137ZM25.283 31.5237L25.3122 32.3526L44.175 32.378L63.0378 32.4033V31.5492V30.6949H44.1458H25.2538L25.283 31.5237ZM41.0555 34.3145C40.7702 34.5803 40.7379 34.7472 40.7084 36.1035L40.6837 37.2421L39.9 37.5445L39.1162 37.8469L38.2371 36.9994C37.2891 36.0856 36.9751 35.9305 36.5385 36.1605C36.3871 36.2404 35.3929 37.1821 34.3291 38.2533C31.9399 40.6592 31.9964 40.4627 33.3094 41.8015L34.2236 42.7337L33.9025 43.5384L33.5815 44.3429L32.2928 44.3758C31.0902 44.4065 30.9869 44.425 30.7451 44.6523L30.4862 44.8959V47.8246V50.7534L30.7454 50.997C30.987 51.224 31.0921 51.2429 32.2954 51.2756L33.5862 51.3105L33.9083 52.1096L34.2304 52.9087L33.3127 53.8443C32.3538 54.8221 32.2747 54.9904 32.5381 55.4903C32.6168 55.6395 33.5349 56.6093 34.5786 57.6453C36.3935 59.4472 36.4932 59.5291 36.8701 59.5291C37.2319 59.5291 37.338 59.4555 38.1717 58.6252L39.0794 57.7212L39.8816 58.0696L40.6837 58.4179L40.7339 59.7361C40.7832 61.0288 40.7896 61.0589 41.0661 61.2963L41.348 61.5385H44.1005C46.9748 61.5385 47.2456 61.5031 47.4539 61.1004C47.5151 60.9822 47.5766 60.3293 47.5905 59.6498L47.616 58.4141L48.4197 58.0823L49.2234 57.7505L50.1392 58.6398C51.5101 59.9711 51.334 60.0253 53.8674 57.4919C56.3947 54.9646 56.3344 55.164 54.9949 53.7628L54.0852 52.8112L54.278 52.4277C54.3841 52.2169 54.5241 51.8792 54.5893 51.6775L54.708 51.3107L55.9844 51.2734C57.3874 51.2323 57.6385 51.1466 57.8116 50.6499C57.9561 50.2354 57.946 45.3849 57.7999 44.9655C57.6321 44.4843 57.2363 44.3587 55.8826 44.3573L54.7492 44.3562L54.4185 43.539L54.0878 42.7218L54.9962 41.7955C56.3089 40.4568 56.3763 40.6723 53.852 38.1394C51.3081 35.5871 51.5093 35.649 50.1498 37.0013C49.4321 37.7152 49.1895 37.901 49.0728 37.8264C48.9899 37.7734 48.6168 37.6125 48.2439 37.4689L47.5657 37.2077V35.9056C47.5657 34.6266 47.561 34.5992 47.2999 34.3571L47.0341 34.1108H44.1542C41.3999 34.1108 41.2646 34.1197 41.0555 34.3145ZM25.3302 34.9802C25.2927 35.0177 25.2619 35.4026 25.2619 35.8355V36.6225H28.7321H32.2023L32.1731 35.7936L32.144 34.9648L28.7713 34.9383C26.9162 34.9238 25.3678 34.9427 25.3302 34.9802ZM45.8745 37.0141C45.9134 38.4042 45.9767 38.5255 46.799 38.7884C47.0825 38.8791 47.7567 39.1568 48.297 39.4055C49.0313 39.7434 49.3472 39.8408 49.547 39.7906C49.694 39.7538 50.1806 39.3661 50.6282 38.9291L51.4421 38.1347L52.639 39.3348L53.836 40.5349L53.0117 41.3795C52.0403 42.3747 52.0111 42.5039 52.5247 43.5321C52.7104 43.9038 52.9625 44.5122 53.0849 44.8842C53.4512 45.9969 53.4681 46.0078 54.9157 46.0664L56.1557 46.1167L56.1832 47.7889L56.2107 49.461L54.9939 49.497C53.8184 49.5317 53.7692 49.542 53.5451 49.8026C53.4175 49.951 53.2116 50.3804 53.0876 50.7569C52.9637 51.1334 52.7104 51.7455 52.5247 52.1171C52.0158 53.1358 52.0428 53.2548 53.0096 54.2619L53.8319 55.1185L52.6368 56.3167L51.4418 57.5148L50.5716 56.6634C49.9622 56.067 49.6282 55.8118 49.4571 55.8118C49.3227 55.8118 48.8535 55.9854 48.4144 56.1975C47.9752 56.4096 47.3161 56.6829 46.9495 56.8046C45.9613 57.1329 45.9143 57.2126 45.8745 58.6351L45.841 59.8305H44.1414H42.4419V58.7301C42.4419 58.1249 42.3908 57.5175 42.3284 57.3805C42.2223 57.1477 41.6766 56.8475 41.0353 56.6692C40.8972 56.6307 40.3921 56.4163 39.913 56.1927C39.2498 55.8831 38.9754 55.8027 38.7636 55.8559C38.6106 55.8943 38.1191 56.2832 37.6715 56.7201L36.8576 57.5145L35.6606 56.3144L34.4636 55.1144L35.288 54.2697C36.27 53.2637 36.3085 53.0849 35.775 52.0166C35.5893 51.645 35.3391 51.0471 35.2191 50.688C35.0989 50.3288 34.9395 49.9541 34.8645 49.8553C34.6629 49.5891 34.1644 49.4823 33.1242 49.4823H32.1942V47.7744V46.0664H33.3823C34.8009 46.0664 34.8236 46.0513 35.2542 44.8106C35.4076 44.3685 35.6634 43.7481 35.8228 43.4321C36.2851 42.5145 36.2447 42.3597 35.288 41.3795L34.4636 40.5349L35.6587 39.3367L36.8539 38.1384L37.6828 38.9343C38.1389 39.3721 38.6262 39.7589 38.766 39.7939C38.949 39.84 39.2948 39.7313 40.0026 39.4055C40.5429 39.1568 41.2219 38.8775 41.5113 38.7848C42.3406 38.5195 42.4419 38.321 42.4419 36.9606V35.8187H44.1414H45.841L45.8745 37.0141ZM25.283 39.2598L25.3122 40.0886H27.8741H30.436L30.4651 39.2598L30.4944 38.4309H27.8741H25.2538L25.283 39.2598ZM42.7232 42.0024C41.3488 42.3357 39.8987 43.378 39.1073 44.6018C38.2275 45.9619 37.9483 47.9839 38.4263 49.5326C39.17 51.9419 41.2724 53.612 43.7661 53.7744C44.8521 53.8452 45.6683 53.6933 46.6605 53.2359C48.668 52.3105 49.9788 50.4055 50.1423 48.1763C50.298 46.0538 49.0981 43.7918 47.2153 42.658C45.9939 41.9226 44.1577 41.6546 42.7232 42.0024ZM45.9618 43.9725C47.7106 44.8121 48.6603 46.5798 48.3681 48.4517C47.8307 51.8936 43.6734 53.2714 41.1777 50.8347C39.5481 49.2438 39.4893 46.5999 41.0461 44.9111C41.9133 43.9702 42.9598 43.5442 44.3041 43.5849C45.1083 43.6092 45.2973 43.6534 45.9618 43.9725ZM57.9139 60.6845V61.5385H60.4758H63.0378V60.6845V59.8305H60.4758H57.9139V60.6845Z" fill="#1742E7" stroke="#1742E7" stroke-width="0.56" mask="url(#path-1-inside-1_6366_247)"></path></svg>