<svg xmlns="http://www.w3.org/2000/svg" viewBox="0 0 55 55" fill="none"><mask id="path-1-inside-1_3325_214" fill="white"><path d="M21.963 33.098C23.8916 33.098 25.46 31.5291 25.46 29.601C25.46 27.6729 23.8916 26.104 21.963 26.104C20.0345 26.104 18.4661 27.6729 18.4661 29.601C18.4661 31.5296 20.0345 33.098 21.963 33.098ZM21.963 27.8464C22.9307 27.8464 23.7181 28.6337 23.7181 29.6014C23.7181 30.569 22.9307 31.3564 21.963 31.3564C20.9954 31.3564 20.208 30.569 20.208 29.6014C20.208 28.6337 20.9954 27.8464 21.963 27.8464Z"></path><path d="M28.5737 27.846H36.5754C37.0566 27.846 37.4464 27.4562 37.4464 26.975C37.4464 26.4938 37.0566 26.104 36.5754 26.104H28.5737C28.0926 26.104 27.7028 26.4938 27.7028 26.975C27.7028 27.4562 28.0931 27.846 28.5737 27.846Z"></path><path d="M28.5737 31.0935H36.5754C37.0566 31.0935 37.4464 30.7037 37.4464 30.2225C37.4464 29.7413 37.0566 29.3515 36.5754 29.3515H28.5737C28.0926 29.3515 27.7028 29.7413 27.7028 30.2225C27.7028 30.7037 28.0931 31.0935 28.5737 31.0935Z"></path><path d="M28.5737 34.341H36.5754C37.0566 34.341 37.4464 33.9512 37.4464 33.47C37.4464 32.9888 37.0566 32.599 36.5754 32.599H28.5737C28.0926 32.599 27.7028 32.9888 27.7028 33.47C27.7028 33.9512 28.0931 34.341 28.5737 34.341Z"></path><path d="M19.3364 37.5872H25.5587C26.0399 37.5872 26.4297 37.1974 26.4297 36.7163C26.4297 36.2351 26.0399 35.8453 25.5587 35.8453H19.3364C18.8553 35.8453 18.4655 36.2351 18.4655 36.7163C18.4655 37.1974 18.8557 37.5872 19.3364 37.5872Z"></path><path d="M19.3364 40.8347H25.5587C26.0399 40.8347 26.4297 40.445 26.4297 39.9638C26.4297 39.4826 26.0399 39.0928 25.5587 39.0928H19.3364C18.8553 39.0928 18.4655 39.4826 18.4655 39.9638C18.4655 40.445 18.8557 40.8347 19.3364 40.8347Z"></path><path d="M36.2856 35.8453H29.0967C28.6155 35.8453 28.2257 36.2351 28.2257 36.7163V39.9635C28.2257 40.4447 28.6155 40.8345 29.0967 40.8345H36.2856C36.7668 40.8345 37.1566 40.4447 37.1566 39.9635V36.7163C37.1566 36.2351 36.7668 35.8453 36.2856 35.8453ZM35.4146 39.0925H29.9677V37.5872H35.4146V39.0925Z"></path><path d="M31.4106 15.3699H24.3699C23.8887 15.3699 23.4989 15.7597 23.4989 16.2409C23.4989 16.722 23.8887 17.1118 24.3699 17.1118H31.4106C31.8918 17.1118 32.2816 16.722 32.2816 16.2409C32.2816 15.7597 31.8913 15.3699 31.4106 15.3699Z"></path><path d="M21.1406 16.2409C21.1406 16.8173 20.6735 17.2849 20.0971 17.2849C19.5206 17.2849 19.0536 16.8173 19.0536 16.2409C19.0536 15.6644 19.5206 15.1973 20.0971 15.1973C20.6735 15.1973 21.1406 15.6644 21.1406 16.2409Z"></path><path d="M24.3694 51.5702H31.4101C31.8913 51.5702 32.2811 51.1804 32.2811 50.6992C32.2811 50.218 31.8913 49.8282 31.4101 49.8282H24.3694C23.8882 49.8282 23.4984 50.218 23.4984 50.6992C23.4984 51.1804 23.8882 51.5702 24.3694 51.5702Z"></path><path d="M47.9156 15.0202C46.7195 11.3507 43.3124 8.84415 39.4037 8.84415C39.3818 8.84415 39.36 8.84415 39.3391 8.84464C38.092 4.10827 33.7886 0.7453 28.828 0.7453C24.5995 0.7453 20.7312 3.2567 18.9645 7.07008C18.4561 6.95927 17.9316 6.90288 17.3974 6.90288C13.5378 6.90288 10.3597 9.87689 10.0345 13.6534C9.46483 13.4994 8.87965 13.4216 8.28281 13.4216C4.20789 13.4221 0.892578 17.0965 0.892578 21.6128C0.892578 26.1252 4.20789 29.7962 8.28281 29.7962H14.8564V50.4474C14.8564 52.6006 16.6052 54.3522 18.7539 54.3522H37.0245C39.0387 54.3522 40.7432 52.7842 40.9051 50.7827C40.9133 50.6768 40.9216 50.5621 40.9216 50.4478V47.9545C40.9221 47.9428 40.9284 47.9326 40.9284 47.9209L40.9289 29.7972H47.5025C51.5779 29.7972 54.8927 26.4819 54.8927 22.4069C54.8932 18.4666 51.8002 15.2359 47.9157 15.0212L47.9156 15.0202ZM39.187 19.8884V47.0492L16.5988 47.0487V19.8891L39.187 19.8884ZM39.1802 18.1464H16.5995V16.4914C16.5995 15.2987 17.5662 14.3291 18.7545 14.3291H37.0251C38.1391 14.3291 39.0806 15.1937 39.17 16.2975C39.1753 16.3592 39.1806 16.4253 39.1806 16.4914L39.1802 18.1464ZM39.1802 50.446C39.1802 50.5121 39.1748 50.5787 39.1695 50.6404C39.0805 51.7442 38.1386 52.6083 37.0256 52.6083L18.755 52.6088C17.5662 52.6088 16.5995 51.6387 16.5995 50.4459V48.7914H39.1802L39.1802 50.446ZM47.5031 28.0544H40.9294L40.929 19.0175C40.929 18.9806 40.927 18.9446 40.9222 18.9091V16.4916C40.9222 16.3769 40.9139 16.2626 40.9056 16.1572C40.7438 14.1552 39.0393 12.5873 37.0242 12.5873H18.7536C16.6048 12.5873 14.8566 14.3389 14.8566 16.4916V28.0545H8.28299C5.1685 28.0545 2.63471 25.1649 2.63471 21.613C2.63471 18.0571 5.16887 15.1643 8.28299 15.1643C9.0587 15.1643 9.81105 15.3421 10.5198 15.6931C10.8051 15.8345 11.1424 15.8092 11.4039 15.6279C11.6644 15.4466 11.8058 15.138 11.7728 14.8221C11.7553 14.65 11.7494 14.4717 11.7494 14.2933C11.7494 11.1788 14.2836 8.64499 17.3977 8.64499C18.0198 8.64499 18.622 8.74366 19.1873 8.93808C19.6345 9.09312 20.12 8.86274 20.2863 8.42142C21.6213 4.87195 25.0542 2.48746 28.8288 2.48746C33.2109 2.48746 36.9825 5.61265 37.7971 9.91901C37.8802 10.3574 38.2938 10.6588 38.7342 10.6242C38.9573 10.6053 39.175 10.5863 39.4044 10.5863C42.7401 10.5863 45.6223 12.8537 46.413 16.0999C46.5151 16.5174 46.9093 16.8036 47.3433 16.7604C47.3982 16.756 47.4483 16.7507 47.5032 16.7507C50.6177 16.7507 53.1515 19.2878 53.1515 22.4057C53.151 25.5202 50.6168 28.0543 47.5028 28.0543L47.5031 28.0544Z"></path></mask><path d="M21.963 33.098C23.8916 33.098 25.46 31.5291 25.46 29.601C25.46 27.6729 23.8916 26.104 21.963 26.104C20.0345 26.104 18.4661 27.6729 18.4661 29.601C18.4661 31.5296 20.0345 33.098 21.963 33.098ZM21.963 27.8464C22.9307 27.8464 23.7181 28.6337 23.7181 29.6014C23.7181 30.569 22.9307 31.3564 21.963 31.3564C20.9954 31.3564 20.208 30.569 20.208 29.6014C20.208 28.6337 20.9954 27.8464 21.963 27.8464Z" fill="#1742E7"></path><path d="M28.5737 27.846H36.5754C37.0566 27.846 37.4464 27.4562 37.4464 26.975C37.4464 26.4938 37.0566 26.104 36.5754 26.104H28.5737C28.0926 26.104 27.7028 26.4938 27.7028 26.975C27.7028 27.4562 28.0931 27.846 28.5737 27.846Z" fill="#1742E7"></path><path d="M28.5737 31.0935H36.5754C37.0566 31.0935 37.4464 30.7037 37.4464 30.2225C37.4464 29.7413 37.0566 29.3515 36.5754 29.3515H28.5737C28.0926 29.3515 27.7028 29.7413 27.7028 30.2225C27.7028 30.7037 28.0931 31.0935 28.5737 31.0935Z" fill="#1742E7"></path><path d="M28.5737 34.341H36.5754C37.0566 34.341 37.4464 33.9512 37.4464 33.47C37.4464 32.9888 37.0566 32.599 36.5754 32.599H28.5737C28.0926 32.599 27.7028 32.9888 27.7028 33.47C27.7028 33.9512 28.0931 34.341 28.5737 34.341Z" fill="#1742E7"></path><path d="M19.3364 37.5872H25.5587C26.0399 37.5872 26.4297 37.1974 26.4297 36.7163C26.4297 36.2351 26.0399 35.8453 25.5587 35.8453H19.3364C18.8553 35.8453 18.4655 36.2351 18.4655 36.7163C18.4655 37.1974 18.8557 37.5872 19.3364 37.5872Z" fill="#1742E7"></path><path d="M19.3364 40.8347H25.5587C26.0399 40.8347 26.4297 40.445 26.4297 39.9638C26.4297 39.4826 26.0399 39.0928 25.5587 39.0928H19.3364C18.8553 39.0928 18.4655 39.4826 18.4655 39.9638C18.4655 40.445 18.8557 40.8347 19.3364 40.8347Z" fill="#1742E7"></path><path d="M36.2856 35.8453H29.0967C28.6155 35.8453 28.2257 36.2351 28.2257 36.7163V39.9635C28.2257 40.4447 28.6155 40.8345 29.0967 40.8345H36.2856C36.7668 40.8345 37.1566 40.4447 37.1566 39.9635V36.7163C37.1566 36.2351 36.7668 35.8453 36.2856 35.8453ZM35.4146 39.0925H29.9677V37.5872H35.4146V39.0925Z" fill="#1742E7"></path><path d="M31.4106 15.3699H24.3699C23.8887 15.3699 23.4989 15.7597 23.4989 16.2409C23.4989 16.722 23.8887 17.1118 24.3699 17.1118H31.4106C31.8918 17.1118 32.2816 16.722 32.2816 16.2409C32.2816 15.7597 31.8913 15.3699 31.4106 15.3699Z" fill="#1742E7"></path><path d="M21.1406 16.2409C21.1406 16.8173 20.6735 17.2849 20.0971 17.2849C19.5206 17.2849 19.0536 16.8173 19.0536 16.2409C19.0536 15.6644 19.5206 15.1973 20.0971 15.1973C20.6735 15.1973 21.1406 15.6644 21.1406 16.2409Z" fill="#1742E7"></path><path d="M24.3694 51.5702H31.4101C31.8913 51.5702 32.2811 51.1804 32.2811 50.6992C32.2811 50.218 31.8913 49.8282 31.4101 49.8282H24.3694C23.8882 49.8282 23.4984 50.218 23.4984 50.6992C23.4984 51.1804 23.8882 51.5702 24.3694 51.5702Z" fill="#1742E7"></path><path d="M47.9156 15.0202C46.7195 11.3507 43.3124 8.84415 39.4037 8.84415C39.3818 8.84415 39.36 8.84415 39.3391 8.84464C38.092 4.10827 33.7886 0.7453 28.828 0.7453C24.5995 0.7453 20.7312 3.2567 18.9645 7.07008C18.4561 6.95927 17.9316 6.90288 17.3974 6.90288C13.5378 6.90288 10.3597 9.87689 10.0345 13.6534C9.46483 13.4994 8.87965 13.4216 8.28281 13.4216C4.20789 13.4221 0.892578 17.0965 0.892578 21.6128C0.892578 26.1252 4.20789 29.7962 8.28281 29.7962H14.8564V50.4474C14.8564 52.6006 16.6052 54.3522 18.7539 54.3522H37.0245C39.0387 54.3522 40.7432 52.7842 40.9051 50.7827C40.9133 50.6768 40.9216 50.5621 40.9216 50.4478V47.9545C40.9221 47.9428 40.9284 47.9326 40.9284 47.9209L40.9289 29.7972H47.5025C51.5779 29.7972 54.8927 26.4819 54.8927 22.4069C54.8932 18.4666 51.8002 15.2359 47.9157 15.0212L47.9156 15.0202ZM39.187 19.8884V47.0492L16.5988 47.0487V19.8891L39.187 19.8884ZM39.1802 18.1464H16.5995V16.4914C16.5995 15.2987 17.5662 14.3291 18.7545 14.3291H37.0251C38.1391 14.3291 39.0806 15.1937 39.17 16.2975C39.1753 16.3592 39.1806 16.4253 39.1806 16.4914L39.1802 18.1464ZM39.1802 50.446C39.1802 50.5121 39.1748 50.5787 39.1695 50.6404C39.0805 51.7442 38.1386 52.6083 37.0256 52.6083L18.755 52.6088C17.5662 52.6088 16.5995 51.6387 16.5995 50.4459V48.7914H39.1802L39.1802 50.446ZM47.5031 28.0544H40.9294L40.929 19.0175C40.929 18.9806 40.927 18.9446 40.9222 18.9091V16.4916C40.9222 16.3769 40.9139 16.2626 40.9056 16.1572C40.7438 14.1552 39.0393 12.5873 37.0242 12.5873H18.7536C16.6048 12.5873 14.8566 14.3389 14.8566 16.4916V28.0545H8.28299C5.1685 28.0545 2.63471 25.1649 2.63471 21.613C2.63471 18.0571 5.16887 15.1643 8.28299 15.1643C9.0587 15.1643 9.81105 15.3421 10.5198 15.6931C10.8051 15.8345 11.1424 15.8092 11.4039 15.6279C11.6644 15.4466 11.8058 15.138 11.7728 14.8221C11.7553 14.65 11.7494 14.4717 11.7494 14.2933C11.7494 11.1788 14.2836 8.64499 17.3977 8.64499C18.0198 8.64499 18.622 8.74366 19.1873 8.93808C19.6345 9.09312 20.12 8.86274 20.2863 8.42142C21.6213 4.87195 25.0542 2.48746 28.8288 2.48746C33.2109 2.48746 36.9825 5.61265 37.7971 9.91901C37.8802 10.3574 38.2938 10.6588 38.7342 10.6242C38.9573 10.6053 39.175 10.5863 39.4044 10.5863C42.7401 10.5863 45.6223 12.8537 46.413 16.0999C46.5151 16.5174 46.9093 16.8036 47.3433 16.7604C47.3982 16.756 47.4483 16.7507 47.5032 16.7507C50.6177 16.7507 53.1515 19.2878 53.1515 22.4057C53.151 25.5202 50.6168 28.0543 47.5028 28.0543L47.5031 28.0544Z" fill="#1742E7"></path><path d="M21.963 33.098C23.8916 33.098 25.46 31.5291 25.46 29.601C25.46 27.6729 23.8916 26.104 21.963 26.104C20.0345 26.104 18.4661 27.6729 18.4661 29.601C18.4661 31.5296 20.0345 33.098 21.963 33.098ZM21.963 27.8464C22.9307 27.8464 23.7181 28.6337 23.7181 29.6014C23.7181 30.569 22.9307 31.3564 21.963 31.3564C20.9954 31.3564 20.208 30.569 20.208 29.6014C20.208 28.6337 20.9954 27.8464 21.963 27.8464Z" stroke="#1742E7" stroke-width="0.536069" mask="url(#path-1-inside-1_3325_214)"></path><path d="M28.5737 27.846H36.5754C37.0566 27.846 37.4464 27.4562 37.4464 26.975C37.4464 26.4938 37.0566 26.104 36.5754 26.104H28.5737C28.0926 26.104 27.7028 26.4938 27.7028 26.975C27.7028 27.4562 28.0931 27.846 28.5737 27.846Z" stroke="#1742E7" stroke-width="0.536069" mask="url(#path-1-inside-1_3325_214)"></path><path d="M28.5737 31.0935H36.5754C37.0566 31.0935 37.4464 30.7037 37.4464 30.2225C37.4464 29.7413 37.0566 29.3515 36.5754 29.3515H28.5737C28.0926 29.3515 27.7028 29.7413 27.7028 30.2225C27.7028 30.7037 28.0931 31.0935 28.5737 31.0935Z" stroke="#1742E7" stroke-width="0.536069" mask="url(#path-1-inside-1_3325_214)"></path><path d="M28.5737 34.341H36.5754C37.0566 34.341 37.4464 33.9512 37.4464 33.47C37.4464 32.9888 37.0566 32.599 36.5754 32.599H28.5737C28.0926 32.599 27.7028 32.9888 27.7028 33.47C27.7028 33.9512 28.0931 34.341 28.5737 34.341Z" stroke="#1742E7" stroke-width="0.536069" mask="url(#path-1-inside-1_3325_214)"></path><path d="M19.3364 37.5872H25.5587C26.0399 37.5872 26.4297 37.1974 26.4297 36.7163C26.4297 36.2351 26.0399 35.8453 25.5587 35.8453H19.3364C18.8553 35.8453 18.4655 36.2351 18.4655 36.7163C18.4655 37.1974 18.8557 37.5872 19.3364 37.5872Z" stroke="#1742E7" stroke-width="0.536069" mask="url(#path-1-inside-1_3325_214)"></path><path d="M19.3364 40.8347H25.5587C26.0399 40.8347 26.4297 40.445 26.4297 39.9638C26.4297 39.4826 26.0399 39.0928 25.5587 39.0928H19.3364C18.8553 39.0928 18.4655 39.4826 18.4655 39.9638C18.4655 40.445 18.8557 40.8347 19.3364 40.8347Z" stroke="#1742E7" stroke-width="0.536069" mask="url(#path-1-inside-1_3325_214)"></path><path d="M36.2856 35.8453H29.0967C28.6155 35.8453 28.2257 36.2351 28.2257 36.7163V39.9635C28.2257 40.4447 28.6155 40.8345 29.0967 40.8345H36.2856C36.7668 40.8345 37.1566 40.4447 37.1566 39.9635V36.7163C37.1566 36.2351 36.7668 35.8453 36.2856 35.8453ZM35.4146 39.0925H29.9677V37.5872H35.4146V39.0925Z" stroke="#1742E7" stroke-width="0.536069" mask="url(#path-1-inside-1_3325_214)"></path><path d="M31.4106 15.3699H24.3699C23.8887 15.3699 23.4989 15.7597 23.4989 16.2409C23.4989 16.722 23.8887 17.1118 24.3699 17.1118H31.4106C31.8918 17.1118 32.2816 16.722 32.2816 16.2409C32.2816 15.7597 31.8913 15.3699 31.4106 15.3699Z" stroke="#1742E7" stroke-width="0.536069" mask="url(#path-1-inside-1_3325_214)"></path><path d="M21.1406 16.2409C21.1406 16.8173 20.6735 17.2849 20.0971 17.2849C19.5206 17.2849 19.0536 16.8173 19.0536 16.2409C19.0536 15.6644 19.5206 15.1973 20.0971 15.1973C20.6735 15.1973 21.1406 15.6644 21.1406 16.2409Z" stroke="#1742E7" stroke-width="0.536069" mask="url(#path-1-inside-1_3325_214)"></path><path d="M24.3694 51.5702H31.4101C31.8913 51.5702 32.2811 51.1804 32.2811 50.6992C32.2811 50.218 31.8913 49.8282 31.4101 49.8282H24.3694C23.8882 49.8282 23.4984 50.218 23.4984 50.6992C23.4984 51.1804 23.8882 51.5702 24.3694 51.5702Z" stroke="#1742E7" stroke-width="0.536069" mask="url(#path-1-inside-1_3325_214)"></path><path d="M47.9156 15.0202C46.7195 11.3507 43.3124 8.84415 39.4037 8.84415C39.3818 8.84415 39.36 8.84415 39.3391 8.84464C38.092 4.10827 33.7886 0.7453 28.828 0.7453C24.5995 0.7453 20.7312 3.2567 18.9645 7.07008C18.4561 6.95927 17.9316 6.90288 17.3974 6.90288C13.5378 6.90288 10.3597 9.87689 10.0345 13.6534C9.46483 13.4994 8.87965 13.4216 8.28281 13.4216C4.20789 13.4221 0.892578 17.0965 0.892578 21.6128C0.892578 26.1252 4.20789 29.7962 8.28281 29.7962H14.8564V50.4474C14.8564 52.6006 16.6052 54.3522 18.7539 54.3522H37.0245C39.0387 54.3522 40.7432 52.7842 40.9051 50.7827C40.9133 50.6768 40.9216 50.5621 40.9216 50.4478V47.9545C40.9221 47.9428 40.9284 47.9326 40.9284 47.9209L40.9289 29.7972H47.5025C51.5779 29.7972 54.8927 26.4819 54.8927 22.4069C54.8932 18.4666 51.8002 15.2359 47.9157 15.0212L47.9156 15.0202ZM39.187 19.8884V47.0492L16.5988 47.0487V19.8891L39.187 19.8884ZM39.1802 18.1464H16.5995V16.4914C16.5995 15.2987 17.5662 14.3291 18.7545 14.3291H37.0251C38.1391 14.3291 39.0806 15.1937 39.17 16.2975C39.1753 16.3592 39.1806 16.4253 39.1806 16.4914L39.1802 18.1464ZM39.1802 50.446C39.1802 50.5121 39.1748 50.5787 39.1695 50.6404C39.0805 51.7442 38.1386 52.6083 37.0256 52.6083L18.755 52.6088C17.5662 52.6088 16.5995 51.6387 16.5995 50.4459V48.7914H39.1802L39.1802 50.446ZM47.5031 28.0544H40.9294L40.929 19.0175C40.929 18.9806 40.927 18.9446 40.9222 18.9091V16.4916C40.9222 16.3769 40.9139 16.2626 40.9056 16.1572C40.7438 14.1552 39.0393 12.5873 37.0242 12.5873H18.7536C16.6048 12.5873 14.8566 14.3389 14.8566 16.4916V28.0545H8.28299C5.1685 28.0545 2.63471 25.1649 2.63471 21.613C2.63471 18.0571 5.16887 15.1643 8.28299 15.1643C9.0587 15.1643 9.81105 15.3421 10.5198 15.6931C10.8051 15.8345 11.1424 15.8092 11.4039 15.6279C11.6644 15.4466 11.8058 15.138 11.7728 14.8221C11.7553 14.65 11.7494 14.4717 11.7494 14.2933C11.7494 11.1788 14.2836 8.64499 17.3977 8.64499C18.0198 8.64499 18.622 8.74366 19.1873 8.93808C19.6345 9.09312 20.12 8.86274 20.2863 8.42142C21.6213 4.87195 25.0542 2.48746 28.8288 2.48746C33.2109 2.48746 36.9825 5.61265 37.7971 9.91901C37.8802 10.3574 38.2938 10.6588 38.7342 10.6242C38.9573 10.6053 39.175 10.5863 39.4044 10.5863C42.7401 10.5863 45.6223 12.8537 46.413 16.0999C46.5151 16.5174 46.9093 16.8036 47.3433 16.7604C47.3982 16.756 47.4483 16.7507 47.5032 16.7507C50.6177 16.7507 53.1515 19.2878 53.1515 22.4057C53.151 25.5202 50.6168 28.0543 47.5028 28.0543L47.5031 28.0544Z" stroke="#1742E7" stroke-width="0.536069" mask="url(#path-1-inside-1_3325_214)"></path></svg>