<svg xmlns="http://www.w3.org/2000/svg" viewBox="0 0 55 55" fill="none"><mask id="path-1-inside-1_2836_1510" fill="white"><path d="M18.6167 12.7238C18.2872 12.3932 18.2872 11.8567 18.6167 11.5262C20.9622 9.17311 24.0809 7.87699 27.3978 7.87699C30.7147 7.87699 33.8329 9.17311 36.1789 11.5262C36.5084 11.8567 36.5084 12.3932 36.1789 12.7238C36.0137 12.8895 35.7978 12.9724 35.582 12.9724C35.3661 12.9724 35.1494 12.8895 34.9851 12.7238C30.8013 8.52663 23.9954 8.52663 19.8109 12.7238C19.4806 13.0552 18.9458 13.0552 18.6163 12.7238H18.6167ZM27.3978 10.9737C24.9051 10.9737 22.5616 11.9474 20.7991 13.7155C20.4695 14.0461 20.4695 14.5826 20.7991 14.9132C21.1286 15.2437 21.6633 15.2437 21.9928 14.9132C23.4365 13.4649 25.356 12.6675 27.397 12.6675C29.4383 12.6675 31.3583 13.4649 32.8011 14.9132C32.9662 15.0789 33.1821 15.1617 33.398 15.1617C33.6138 15.1617 33.8305 15.0789 33.9949 14.9132C34.3244 14.5826 34.3244 14.0461 33.9949 13.7155C32.234 11.9473 29.8905 10.9737 27.3978 10.9737ZM27.3978 14.0699C25.7297 14.0699 24.161 14.7216 22.9815 15.9053C22.652 16.2359 22.652 16.7724 22.9815 17.1029C23.1467 17.2686 23.3625 17.3515 23.5784 17.3515C23.7943 17.3515 24.011 17.2686 24.1753 17.1029C25.0359 16.2395 26.1798 15.7638 27.397 15.7638C28.6141 15.7638 29.7581 16.2395 30.6195 17.1029C30.949 17.4335 31.4838 17.4335 31.8133 17.1029C32.1428 16.7724 32.1428 16.2359 31.8133 15.9053C30.6345 14.7212 29.0659 14.0699 27.3978 14.0699ZM29.8636 19.6403C29.8636 21.004 28.7573 22.114 27.3978 22.114C26.0383 22.114 24.932 21.0045 24.932 19.6403C24.932 18.2757 26.0383 17.1666 27.3978 17.1666C28.7572 17.1662 29.8636 18.2756 29.8636 19.6403ZM28.1746 19.6403C28.1746 19.21 27.8259 18.861 27.3978 18.861C26.9697 18.861 26.621 19.2108 26.621 19.6403C26.621 20.0705 26.9697 20.4196 27.3978 20.4196C27.8259 20.4196 28.1746 20.0697 28.1746 19.6403ZM28.2425 47.3897V49.5984H30.247C31.1272 49.5984 31.844 50.3174 31.844 51.2005V51.4051H48.0784C48.5449 51.4051 48.923 51.7845 48.923 52.2525C48.923 52.7205 48.5449 53.0999 48.0784 53.0999L31.844 53.0995V53.3042C31.844 54.1872 31.1273 54.9062 30.247 54.9062H24.549C23.6688 54.9062 22.952 54.1872 22.952 53.3042V53.0995H6.71658C6.25009 53.0995 5.87191 52.7201 5.87191 52.2521C5.87191 51.7841 6.25009 51.4047 6.71658 51.4047H22.951V51.2001C22.951 50.317 23.6677 49.598 24.5479 49.598H26.5521V47.3893C21.6488 47.2445 16.947 45.8451 16.947 43.2955V38.4815H12.8018C6.02077 38.4815 0.504883 32.9473 0.504883 26.145C0.504883 23.2296 1.55111 20.393 3.44939 18.156C5.19152 16.104 7.54677 14.682 10.1401 14.1016C10.4312 6.77618 16.4629 0.90625 23.8354 0.90625C27.9325 0.90625 31.8364 2.7721 34.4284 5.93313C35.5589 5.3183 36.8205 4.99592 38.1227 4.99592C42.4037 4.99592 45.8863 8.48959 45.8863 12.7844C45.8863 13.3279 45.8307 13.8664 45.7199 14.3922C48.0172 15.1333 50.0834 16.5599 51.6044 18.472C53.3354 20.6475 54.2885 23.3721 54.2885 26.1443C54.2885 32.9472 48.772 38.4808 41.9916 38.4808H37.8463V43.2948C37.8472 45.846 33.1449 47.2457 28.2425 47.3897ZM30.155 51.2928H24.6405V53.2114H30.155V51.2928ZM36.1584 27.5239C36.1584 27.2671 35.6903 26.6228 33.9191 26.0214C32.1894 25.4345 29.8737 25.1113 27.3976 25.1113C24.9216 25.1113 22.606 25.4345 20.8761 26.0214C19.1046 26.6227 18.6368 27.2671 18.6368 27.5239C18.6368 27.7807 19.105 28.425 20.8761 29.0263C22.6052 29.6133 24.9216 29.9365 27.3976 29.9365C29.8737 29.9365 32.1892 29.6133 33.9191 29.0263C35.6882 28.4259 36.1576 27.7819 36.1584 27.5243V27.5239ZM18.6366 32.7812C18.6366 33.038 19.1048 33.6824 20.8759 34.2837C22.605 34.8706 24.9214 35.1938 27.3974 35.1938C29.8735 35.1938 32.189 34.8706 33.9185 34.2837C35.69 33.6824 36.1578 33.0381 36.1578 32.7812V29.8675C34.1921 31.0307 30.7811 31.6303 27.3971 31.6303C24.0131 31.6303 20.6021 31.0311 18.6364 29.8675L18.6366 32.7812ZM18.6366 38.039C18.6366 38.2958 19.1048 38.9401 20.8759 39.5415C22.6057 40.128 24.9214 40.4508 27.3974 40.4508C29.8735 40.4508 32.189 40.1276 33.9185 39.5406C35.69 38.9394 36.1578 38.295 36.1578 38.0382V35.1244C34.1925 36.2889 30.7815 36.8881 27.3975 36.8881C24.0135 36.8881 20.6025 36.2889 18.6368 35.1253L18.6366 38.039ZM12.8025 36.788H16.9477V27.5239C16.9477 24.8279 22.2042 23.417 27.3973 23.417C32.59 23.417 37.8465 24.8276 37.8465 27.5239V36.7877H41.9917C47.8415 36.7877 52.6005 32.0134 52.6005 26.1449C52.6005 21.2238 49.2652 16.9709 44.4886 15.8028C44.2597 15.747 44.0638 15.5969 43.9498 15.3902C43.8357 15.183 43.8128 14.9374 43.8876 14.7126C44.0933 14.0928 44.1979 13.4444 44.1979 12.7849C44.1979 9.42446 41.4726 6.68995 38.1225 6.68995C36.894 6.68995 35.7103 7.05581 34.6997 7.74898C34.3235 8.00696 33.8109 7.91878 33.5419 7.54964C31.2834 4.45046 27.655 2.60025 23.8343 2.60025C17.2081 2.60025 11.8179 8.00818 11.8179 14.6553C11.8179 14.6812 11.8183 14.707 11.8191 14.7328L11.8195 14.7948C11.8236 15.2135 11.5223 15.5728 11.1102 15.6397C6.02663 16.4658 2.1929 20.9828 2.1929 26.146C2.19413 32.0137 6.95343 36.7878 12.8027 36.7878L12.8025 36.788ZM20.8759 44.7984C22.605 45.3853 24.9214 45.7085 27.3974 45.7085C29.8735 45.7085 32.189 45.3853 33.9185 44.7984C35.69 44.1971 36.1578 43.5528 36.1578 43.296V40.3822C34.1921 41.5454 30.7811 42.1451 27.3971 42.1451C24.0131 42.1451 20.6021 41.5458 18.6364 40.3822V43.296C18.6368 43.5527 19.1049 44.1971 20.8759 44.7984ZM26.6541 34.2595H28.1402C28.6067 34.2595 28.9849 33.8801 28.9849 33.4122C28.9849 32.9442 28.6067 32.5648 28.1402 32.5648H26.6541C26.1876 32.5648 25.8094 32.9442 25.8094 33.4122C25.8094 33.8806 26.188 34.2595 26.6541 34.2595ZM26.6541 39.5169H28.1402C28.6067 39.5169 28.9849 39.1375 28.9849 38.6695C28.9849 38.2015 28.6067 37.8221 28.1402 37.8221H26.6541C26.1876 37.8221 25.8094 38.2015 25.8094 38.6695C25.8094 39.1375 26.188 39.5169 26.6541 39.5169ZM28.9845 43.9269C28.9845 43.4589 28.6064 43.0795 28.1399 43.0795H26.6538C26.1873 43.0795 25.8091 43.4589 25.8091 43.9269C25.8091 44.3949 26.1873 44.7743 26.6538 44.7743H28.1399C28.6068 44.7739 28.9845 44.3949 28.9845 43.9269Z"></path></mask><path d="M18.6167 12.7238C18.2872 12.3932 18.2872 11.8567 18.6167 11.5262C20.9622 9.17311 24.0809 7.87699 27.3978 7.87699C30.7147 7.87699 33.8329 9.17311 36.1789 11.5262C36.5084 11.8567 36.5084 12.3932 36.1789 12.7238C36.0137 12.8895 35.7978 12.9724 35.582 12.9724C35.3661 12.9724 35.1494 12.8895 34.9851 12.7238C30.8013 8.52663 23.9954 8.52663 19.8109 12.7238C19.4806 13.0552 18.9458 13.0552 18.6163 12.7238H18.6167ZM27.3978 10.9737C24.9051 10.9737 22.5616 11.9474 20.7991 13.7155C20.4695 14.0461 20.4695 14.5826 20.7991 14.9132C21.1286 15.2437 21.6633 15.2437 21.9928 14.9132C23.4365 13.4649 25.356 12.6675 27.397 12.6675C29.4383 12.6675 31.3583 13.4649 32.8011 14.9132C32.9662 15.0789 33.1821 15.1617 33.398 15.1617C33.6138 15.1617 33.8305 15.0789 33.9949 14.9132C34.3244 14.5826 34.3244 14.0461 33.9949 13.7155C32.234 11.9473 29.8905 10.9737 27.3978 10.9737ZM27.3978 14.0699C25.7297 14.0699 24.161 14.7216 22.9815 15.9053C22.652 16.2359 22.652 16.7724 22.9815 17.1029C23.1467 17.2686 23.3625 17.3515 23.5784 17.3515C23.7943 17.3515 24.011 17.2686 24.1753 17.1029C25.0359 16.2395 26.1798 15.7638 27.397 15.7638C28.6141 15.7638 29.7581 16.2395 30.6195 17.1029C30.949 17.4335 31.4838 17.4335 31.8133 17.1029C32.1428 16.7724 32.1428 16.2359 31.8133 15.9053C30.6345 14.7212 29.0659 14.0699 27.3978 14.0699ZM29.8636 19.6403C29.8636 21.004 28.7573 22.114 27.3978 22.114C26.0383 22.114 24.932 21.0045 24.932 19.6403C24.932 18.2757 26.0383 17.1666 27.3978 17.1666C28.7572 17.1662 29.8636 18.2756 29.8636 19.6403ZM28.1746 19.6403C28.1746 19.21 27.8259 18.861 27.3978 18.861C26.9697 18.861 26.621 19.2108 26.621 19.6403C26.621 20.0705 26.9697 20.4196 27.3978 20.4196C27.8259 20.4196 28.1746 20.0697 28.1746 19.6403ZM28.2425 47.3897V49.5984H30.247C31.1272 49.5984 31.844 50.3174 31.844 51.2005V51.4051H48.0784C48.5449 51.4051 48.923 51.7845 48.923 52.2525C48.923 52.7205 48.5449 53.0999 48.0784 53.0999L31.844 53.0995V53.3042C31.844 54.1872 31.1273 54.9062 30.247 54.9062H24.549C23.6688 54.9062 22.952 54.1872 22.952 53.3042V53.0995H6.71658C6.25009 53.0995 5.87191 52.7201 5.87191 52.2521C5.87191 51.7841 6.25009 51.4047 6.71658 51.4047H22.951V51.2001C22.951 50.317 23.6677 49.598 24.5479 49.598H26.5521V47.3893C21.6488 47.2445 16.947 45.8451 16.947 43.2955V38.4815H12.8018C6.02077 38.4815 0.504883 32.9473 0.504883 26.145C0.504883 23.2296 1.55111 20.393 3.44939 18.156C5.19152 16.104 7.54677 14.682 10.1401 14.1016C10.4312 6.77618 16.4629 0.90625 23.8354 0.90625C27.9325 0.90625 31.8364 2.7721 34.4284 5.93313C35.5589 5.3183 36.8205 4.99592 38.1227 4.99592C42.4037 4.99592 45.8863 8.48959 45.8863 12.7844C45.8863 13.3279 45.8307 13.8664 45.7199 14.3922C48.0172 15.1333 50.0834 16.5599 51.6044 18.472C53.3354 20.6475 54.2885 23.3721 54.2885 26.1443C54.2885 32.9472 48.772 38.4808 41.9916 38.4808H37.8463V43.2948C37.8472 45.846 33.1449 47.2457 28.2425 47.3897ZM30.155 51.2928H24.6405V53.2114H30.155V51.2928ZM36.1584 27.5239C36.1584 27.2671 35.6903 26.6228 33.9191 26.0214C32.1894 25.4345 29.8737 25.1113 27.3976 25.1113C24.9216 25.1113 22.606 25.4345 20.8761 26.0214C19.1046 26.6227 18.6368 27.2671 18.6368 27.5239C18.6368 27.7807 19.105 28.425 20.8761 29.0263C22.6052 29.6133 24.9216 29.9365 27.3976 29.9365C29.8737 29.9365 32.1892 29.6133 33.9191 29.0263C35.6882 28.4259 36.1576 27.7819 36.1584 27.5243V27.5239ZM18.6366 32.7812C18.6366 33.038 19.1048 33.6824 20.8759 34.2837C22.605 34.8706 24.9214 35.1938 27.3974 35.1938C29.8735 35.1938 32.189 34.8706 33.9185 34.2837C35.69 33.6824 36.1578 33.0381 36.1578 32.7812V29.8675C34.1921 31.0307 30.7811 31.6303 27.3971 31.6303C24.0131 31.6303 20.6021 31.0311 18.6364 29.8675L18.6366 32.7812ZM18.6366 38.039C18.6366 38.2958 19.1048 38.9401 20.8759 39.5415C22.6057 40.128 24.9214 40.4508 27.3974 40.4508C29.8735 40.4508 32.189 40.1276 33.9185 39.5406C35.69 38.9394 36.1578 38.295 36.1578 38.0382V35.1244C34.1925 36.2889 30.7815 36.8881 27.3975 36.8881C24.0135 36.8881 20.6025 36.2889 18.6368 35.1253L18.6366 38.039ZM12.8025 36.788H16.9477V27.5239C16.9477 24.8279 22.2042 23.417 27.3973 23.417C32.59 23.417 37.8465 24.8276 37.8465 27.5239V36.7877H41.9917C47.8415 36.7877 52.6005 32.0134 52.6005 26.1449C52.6005 21.2238 49.2652 16.9709 44.4886 15.8028C44.2597 15.747 44.0638 15.5969 43.9498 15.3902C43.8357 15.183 43.8128 14.9374 43.8876 14.7126C44.0933 14.0928 44.1979 13.4444 44.1979 12.7849C44.1979 9.42446 41.4726 6.68995 38.1225 6.68995C36.894 6.68995 35.7103 7.05581 34.6997 7.74898C34.3235 8.00696 33.8109 7.91878 33.5419 7.54964C31.2834 4.45046 27.655 2.60025 23.8343 2.60025C17.2081 2.60025 11.8179 8.00818 11.8179 14.6553C11.8179 14.6812 11.8183 14.707 11.8191 14.7328L11.8195 14.7948C11.8236 15.2135 11.5223 15.5728 11.1102 15.6397C6.02663 16.4658 2.1929 20.9828 2.1929 26.146C2.19413 32.0137 6.95343 36.7878 12.8027 36.7878L12.8025 36.788ZM20.8759 44.7984C22.605 45.3853 24.9214 45.7085 27.3974 45.7085C29.8735 45.7085 32.189 45.3853 33.9185 44.7984C35.69 44.1971 36.1578 43.5528 36.1578 43.296V40.3822C34.1921 41.5454 30.7811 42.1451 27.3971 42.1451C24.0131 42.1451 20.6021 41.5458 18.6364 40.3822V43.296C18.6368 43.5527 19.1049 44.1971 20.8759 44.7984ZM26.6541 34.2595H28.1402C28.6067 34.2595 28.9849 33.8801 28.9849 33.4122C28.9849 32.9442 28.6067 32.5648 28.1402 32.5648H26.6541C26.1876 32.5648 25.8094 32.9442 25.8094 33.4122C25.8094 33.8806 26.188 34.2595 26.6541 34.2595ZM26.6541 39.5169H28.1402C28.6067 39.5169 28.9849 39.1375 28.9849 38.6695C28.9849 38.2015 28.6067 37.8221 28.1402 37.8221H26.6541C26.1876 37.8221 25.8094 38.2015 25.8094 38.6695C25.8094 39.1375 26.188 39.5169 26.6541 39.5169ZM28.9845 43.9269C28.9845 43.4589 28.6064 43.0795 28.1399 43.0795H26.6538C26.1873 43.0795 25.8091 43.4589 25.8091 43.9269C25.8091 44.3949 26.1873 44.7743 26.6538 44.7743H28.1399C28.6068 44.7739 28.9845 44.3949 28.9845 43.9269Z" fill="#1742E7" stroke="#1742E7" stroke-width="0.56" mask="url(#path-1-inside-1_2836_1510)"></path></svg>