<svg xmlns="http://www.w3.org/2000/svg" viewBox="0 0 54 55" fill="none"><mask id="path-1-inside-1_3325_208" fill="white"><path d="M11.8911 39.8853C11.8816 39.8853 11.8721 39.8853 11.8626 39.8845C8.74351 39.7651 5.82944 38.4562 3.65786 36.1976C1.48063 33.9335 0.28125 30.9536 0.28125 27.8063C0.28125 26.1754 0.6 24.5925 1.22839 23.1016C1.83509 21.6622 2.70344 20.3697 3.80963 19.2597C4.9165 18.15 6.20488 17.2788 7.63923 16.6701C9.12538 16.0394 10.7028 15.7199 12.3288 15.7199L15.2836 15.7203C14.9907 14.6671 14.8432 13.5784 14.8432 12.4706C14.8432 10.8389 15.1619 9.25567 15.7903 7.76474C16.397 6.325 17.2661 5.03209 18.3723 3.92244C19.4784 2.8124 20.7676 1.94121 22.2023 1.33212C23.6888 0.702109 25.267 0.382324 26.8935 0.382324C28.5199 0.382324 30.0981 0.702099 31.5843 1.33251C33.0194 1.94116 34.3082 2.81269 35.4143 3.92282C36.5207 5.03286 37.3891 6.32578 37.9963 7.76512C38.625 9.25605 38.9434 10.8393 38.9434 12.471C38.9434 13.5788 38.7955 14.6678 38.5026 15.7207H41.4573C43.0834 15.7207 44.6612 16.0405 46.147 16.6709C47.5817 17.2795 48.8701 18.1511 49.9762 19.2608C51.0823 20.3706 51.9507 21.663 52.5578 23.1023C53.1862 24.5929 53.5049 26.1757 53.5049 27.807C53.5049 29.4383 53.1862 31.0212 52.5578 32.5117C51.9511 33.9511 51.0828 35.2436 49.9766 36.3536C47.8217 38.5146 44.9617 39.7682 41.9237 39.8846C41.5148 39.9014 41.1728 39.5812 41.1576 39.1725C41.142 38.7635 41.46 38.4193 41.8678 38.404C44.5326 38.3021 47.0416 37.2019 48.9321 35.3062C50.9283 33.3024 52.0276 30.6396 52.0276 27.8078C52.0276 21.9606 47.2859 17.2037 41.4574 17.2037H37.4848C37.2425 17.2037 37.0154 17.0842 36.8773 16.8843C36.7392 16.6843 36.7077 16.429 36.7933 16.2012C37.2398 15.0106 37.4657 13.7556 37.4657 12.4714C37.4657 6.6231 32.7229 1.86536 26.8936 1.86536C21.0644 1.86536 16.3215 6.62349 16.3215 12.4714C16.3215 13.7556 16.5479 15.0106 16.9937 16.2016C17.0789 16.4294 17.0477 16.6843 16.9096 16.8843C16.7715 17.0839 16.5448 17.2033 16.3025 17.2033L12.3291 17.2021C9.50675 17.2021 6.85209 18.305 4.85472 20.308C2.85851 22.3118 1.75923 24.9746 1.75923 27.8064C1.75923 33.5303 6.22178 38.1848 11.9194 38.4027C12.3272 38.4183 12.6452 38.7621 12.6296 39.1712C12.6144 39.5711 12.2869 39.8852 11.8917 39.8852L11.8911 39.8853Z"></path><path d="M39.7854 35.0634H14.0022C12.4308 35.0634 11.1524 33.7808 11.1524 32.2044V26.7804C11.1524 25.204 12.4308 23.9215 14.0022 23.9215H39.7854C41.3567 23.9215 42.6352 25.204 42.6352 26.7804V32.2044C42.6352 33.7804 41.3571 35.0634 39.7854 35.0634ZM14.0022 25.404C13.2456 25.404 12.6302 26.0218 12.6302 26.7804V32.2044C12.6302 32.9634 13.246 33.5808 14.0022 33.5808H39.7854C40.5419 33.5808 41.1574 32.963 41.1574 32.2044V26.7804C41.1574 26.0214 40.5416 25.404 39.7854 25.404H14.0022Z"></path><path d="M32.4861 31.4919C31.3876 31.4919 30.4933 30.5951 30.4933 29.4927C30.4933 28.3906 31.3872 27.4935 32.4861 27.4935C33.5846 27.4935 34.4789 28.3902 34.4789 29.4927C34.4789 30.5947 33.585 31.4919 32.4861 31.4919ZM32.4861 28.976C32.2023 28.976 31.9711 29.208 31.9711 29.4927C31.9711 29.7773 32.2023 30.0094 32.4861 30.0094C32.7698 30.0094 33.0011 29.7773 33.0011 29.4927C33.0011 29.208 32.7702 28.976 32.4861 28.976Z"></path><path d="M37.574 31.4919C36.4755 31.4919 35.5812 30.5951 35.5812 29.4927C35.5812 28.3906 36.4751 27.4935 37.574 27.4935C38.6725 27.4935 39.5668 28.3902 39.5668 29.4927C39.5668 30.5947 38.6729 31.4919 37.574 31.4919ZM37.574 28.976C37.2902 28.976 37.0589 29.208 37.0589 29.4927C37.0589 29.7773 37.2902 30.0094 37.574 30.0094C37.8577 30.0094 38.089 29.7773 38.089 29.4927C38.089 29.208 37.8581 28.976 37.574 28.976Z"></path><path d="M27.0895 28.9764H14.9594C14.5513 28.9764 14.2207 28.6448 14.2207 28.2353C14.2207 27.8259 14.5513 27.4943 14.9594 27.4943H27.0895C27.4977 27.4943 27.8282 27.8259 27.8282 28.2353C27.8282 28.6444 27.4973 28.9764 27.0891 28.9764H27.0895Z"></path><path d="M27.0895 31.4919H14.9594C14.5513 31.4919 14.2207 31.1603 14.2207 30.7508C14.2207 30.3414 14.5513 30.0097 14.9594 30.0097H27.0895C27.4977 30.0097 27.8282 30.3414 27.8282 30.7508C27.8282 31.1599 27.4973 31.4919 27.0891 31.4919H27.0895Z"></path><path d="M39.7854 44.7228H14.0022C12.4308 44.7228 11.1524 43.4403 11.1524 41.8639V36.4399C11.1524 34.8635 12.4308 33.5808 14.0022 33.5808H39.7854C41.3567 33.5808 42.6352 34.8635 42.6352 36.4399V41.8639C42.6352 43.4403 41.3571 44.7228 39.7854 44.7228ZM14.0022 35.0639C13.2456 35.0639 12.6302 35.6817 12.6302 36.4403V41.8643C12.6302 42.6233 13.246 43.2407 14.0022 43.2407H39.7854C40.5419 43.2407 41.1574 42.6229 41.1574 41.8643V36.4403C41.1574 35.6813 40.5416 35.0639 39.7854 35.0639H14.0022Z"></path><path d="M32.4861 41.1513C31.3876 41.1513 30.4933 40.2546 30.4933 39.1521C30.4933 38.0501 31.3872 37.1529 32.4861 37.1529C33.5846 37.1529 34.4789 38.0497 34.4789 39.1521C34.4789 40.2546 33.585 41.1513 32.4861 41.1513ZM32.4861 38.6359C32.2023 38.6359 31.9711 38.8679 31.9711 39.1525C31.9711 39.4372 32.2023 39.6692 32.4861 39.6692C32.7698 39.6692 33.0011 39.4372 33.0011 39.1525C33.0011 38.8675 32.7702 38.6359 32.4861 38.6359Z"></path><path d="M37.574 41.1513C36.4755 41.1513 35.5812 40.2546 35.5812 39.1521C35.5812 38.0501 36.4751 37.1529 37.574 37.1529C38.6725 37.1529 39.5668 38.0497 39.5668 39.1521C39.5668 40.2546 38.6729 41.1513 37.574 41.1513ZM37.574 38.6359C37.2902 38.6359 37.0589 38.8679 37.0589 39.1525C37.0589 39.4372 37.2902 39.6692 37.574 39.6692C37.8577 39.6692 38.089 39.4372 38.089 39.1525C38.089 38.8675 37.8581 38.6359 37.574 38.6359Z"></path><path d="M27.0895 38.6359H14.9594C14.5513 38.6359 14.2207 38.3042 14.2207 37.8948C14.2207 37.4853 14.5513 37.1537 14.9594 37.1537H27.0895C27.4977 37.1537 27.8282 37.4853 27.8282 37.8948C27.8282 38.3039 27.4973 38.6359 27.0891 38.6359H27.0895Z"></path><path d="M27.0895 41.1513H14.9594C14.5513 41.1513 14.2207 40.8197 14.2207 40.4103C14.2207 40.0008 14.5513 39.6692 14.9594 39.6692H27.0895C27.4977 39.6692 27.8282 40.0008 27.8282 40.4103C27.8282 40.8197 27.4973 41.1513 27.0891 41.1513H27.0895Z"></path><path d="M39.7854 54.3823H14.0022C12.4308 54.3823 11.1524 53.0998 11.1524 51.5234V46.0994C11.1524 44.523 12.4308 43.2404 14.0022 43.2404H39.7854C41.3567 43.2404 42.6352 44.523 42.6352 46.0994V51.5234C42.6352 53.0998 41.3571 54.3823 39.7854 54.3823ZM14.0022 44.7228C13.2456 44.7228 12.6302 45.3407 12.6302 46.0994V51.5234C12.6302 52.2824 13.246 52.8998 14.0022 52.8998H39.7854C40.5419 52.8998 41.1574 52.282 41.1574 51.5234V46.0994C41.1574 45.3404 40.5416 44.7228 39.7854 44.7228H14.0022Z"></path><path d="M32.4861 50.8098C31.3876 50.8098 30.4933 49.9131 30.4933 48.8106C30.4933 47.7086 31.3872 46.8114 32.4861 46.8114C33.5846 46.8114 34.4789 47.7082 34.4789 48.8106C34.4789 49.9131 33.585 50.8098 32.4861 50.8098ZM32.4861 48.294C32.2023 48.294 31.9711 48.526 31.9711 48.8106C31.9711 49.0953 32.2023 49.3273 32.4861 49.3273C32.7698 49.3273 33.0011 49.0953 33.0011 48.8106C33.0011 48.526 32.7702 48.294 32.4861 48.294Z"></path><path d="M37.574 50.8098C36.4755 50.8098 35.5812 49.9131 35.5812 48.8106C35.5812 47.7086 36.4751 46.8114 37.574 46.8114C38.6725 46.8114 39.5668 47.7082 39.5668 48.8106C39.5668 49.9131 38.6729 50.8098 37.574 50.8098ZM37.574 48.294C37.2902 48.294 37.0589 48.526 37.0589 48.8106C37.0589 49.0953 37.2902 49.3273 37.574 49.3273C37.8577 49.3273 38.089 49.0953 38.089 48.8106C38.089 48.526 37.8581 48.294 37.574 48.294Z"></path><path d="M27.0895 48.2944H14.9594C14.5513 48.2944 14.2207 47.9627 14.2207 47.5533C14.2207 47.1438 14.5513 46.8122 14.9594 46.8122H27.0895C27.4977 46.8122 27.8282 47.1438 27.8282 47.5533C27.8282 47.9627 27.4973 48.2944 27.0891 48.2944H27.0895Z"></path><path d="M27.0895 50.8098H14.9594C14.5513 50.8098 14.2207 50.4782 14.2207 50.0688C14.2207 49.6593 14.5513 49.3277 14.9594 49.3277H27.0895C27.4977 49.3277 27.8282 49.6593 27.8282 50.0688C27.8282 50.4782 27.4973 50.8098 27.0891 50.8098H27.0895Z"></path></mask><path d="M11.8911 39.8853C11.8816 39.8853 11.8721 39.8853 11.8626 39.8845C8.74351 39.7651 5.82944 38.4562 3.65786 36.1976C1.48063 33.9335 0.28125 30.9536 0.28125 27.8063C0.28125 26.1754 0.6 24.5925 1.22839 23.1016C1.83509 21.6622 2.70344 20.3697 3.80963 19.2597C4.9165 18.15 6.20488 17.2788 7.63923 16.6701C9.12538 16.0394 10.7028 15.7199 12.3288 15.7199L15.2836 15.7203C14.9907 14.6671 14.8432 13.5784 14.8432 12.4706C14.8432 10.8389 15.1619 9.25567 15.7903 7.76474C16.397 6.325 17.2661 5.03209 18.3723 3.92244C19.4784 2.8124 20.7676 1.94121 22.2023 1.33212C23.6888 0.702109 25.267 0.382324 26.8935 0.382324C28.5199 0.382324 30.0981 0.702099 31.5843 1.33251C33.0194 1.94116 34.3082 2.81269 35.4143 3.92282C36.5207 5.03286 37.3891 6.32578 37.9963 7.76512C38.625 9.25605 38.9434 10.8393 38.9434 12.471C38.9434 13.5788 38.7955 14.6678 38.5026 15.7207H41.4573C43.0834 15.7207 44.6612 16.0405 46.147 16.6709C47.5817 17.2795 48.8701 18.1511 49.9762 19.2608C51.0823 20.3706 51.9507 21.663 52.5578 23.1023C53.1862 24.5929 53.5049 26.1757 53.5049 27.807C53.5049 29.4383 53.1862 31.0212 52.5578 32.5117C51.9511 33.9511 51.0828 35.2436 49.9766 36.3536C47.8217 38.5146 44.9617 39.7682 41.9237 39.8846C41.5148 39.9014 41.1728 39.5812 41.1576 39.1725C41.142 38.7635 41.46 38.4193 41.8678 38.404C44.5326 38.3021 47.0416 37.2019 48.9321 35.3062C50.9283 33.3024 52.0276 30.6396 52.0276 27.8078C52.0276 21.9606 47.2859 17.2037 41.4574 17.2037H37.4848C37.2425 17.2037 37.0154 17.0842 36.8773 16.8843C36.7392 16.6843 36.7077 16.429 36.7933 16.2012C37.2398 15.0106 37.4657 13.7556 37.4657 12.4714C37.4657 6.6231 32.7229 1.86536 26.8936 1.86536C21.0644 1.86536 16.3215 6.62349 16.3215 12.4714C16.3215 13.7556 16.5479 15.0106 16.9937 16.2016C17.0789 16.4294 17.0477 16.6843 16.9096 16.8843C16.7715 17.0839 16.5448 17.2033 16.3025 17.2033L12.3291 17.2021C9.50675 17.2021 6.85209 18.305 4.85472 20.308C2.85851 22.3118 1.75923 24.9746 1.75923 27.8064C1.75923 33.5303 6.22178 38.1848 11.9194 38.4027C12.3272 38.4183 12.6452 38.7621 12.6296 39.1712C12.6144 39.5711 12.2869 39.8852 11.8917 39.8852L11.8911 39.8853Z" fill="#1742E7"></path><path d="M39.7854 35.0634H14.0022C12.4308 35.0634 11.1524 33.7808 11.1524 32.2044V26.7804C11.1524 25.204 12.4308 23.9215 14.0022 23.9215H39.7854C41.3567 23.9215 42.6352 25.204 42.6352 26.7804V32.2044C42.6352 33.7804 41.3571 35.0634 39.7854 35.0634ZM14.0022 25.404C13.2456 25.404 12.6302 26.0218 12.6302 26.7804V32.2044C12.6302 32.9634 13.246 33.5808 14.0022 33.5808H39.7854C40.5419 33.5808 41.1574 32.963 41.1574 32.2044V26.7804C41.1574 26.0214 40.5416 25.404 39.7854 25.404H14.0022Z" fill="#1742E7"></path><path d="M32.4861 31.4919C31.3876 31.4919 30.4933 30.5951 30.4933 29.4927C30.4933 28.3906 31.3872 27.4935 32.4861 27.4935C33.5846 27.4935 34.4789 28.3902 34.4789 29.4927C34.4789 30.5947 33.585 31.4919 32.4861 31.4919ZM32.4861 28.976C32.2023 28.976 31.9711 29.208 31.9711 29.4927C31.9711 29.7773 32.2023 30.0094 32.4861 30.0094C32.7698 30.0094 33.0011 29.7773 33.0011 29.4927C33.0011 29.208 32.7702 28.976 32.4861 28.976Z" fill="#1742E7"></path><path d="M37.574 31.4919C36.4755 31.4919 35.5812 30.5951 35.5812 29.4927C35.5812 28.3906 36.4751 27.4935 37.574 27.4935C38.6725 27.4935 39.5668 28.3902 39.5668 29.4927C39.5668 30.5947 38.6729 31.4919 37.574 31.4919ZM37.574 28.976C37.2902 28.976 37.0589 29.208 37.0589 29.4927C37.0589 29.7773 37.2902 30.0094 37.574 30.0094C37.8577 30.0094 38.089 29.7773 38.089 29.4927C38.089 29.208 37.8581 28.976 37.574 28.976Z" fill="#1742E7"></path><path d="M27.0895 28.9764H14.9594C14.5513 28.9764 14.2207 28.6448 14.2207 28.2353C14.2207 27.8259 14.5513 27.4943 14.9594 27.4943H27.0895C27.4977 27.4943 27.8282 27.8259 27.8282 28.2353C27.8282 28.6444 27.4973 28.9764 27.0891 28.9764H27.0895Z" fill="#1742E7"></path><path d="M27.0895 31.4919H14.9594C14.5513 31.4919 14.2207 31.1603 14.2207 30.7508C14.2207 30.3414 14.5513 30.0097 14.9594 30.0097H27.0895C27.4977 30.0097 27.8282 30.3414 27.8282 30.7508C27.8282 31.1599 27.4973 31.4919 27.0891 31.4919H27.0895Z" fill="#1742E7"></path><path d="M39.7854 44.7228H14.0022C12.4308 44.7228 11.1524 43.4403 11.1524 41.8639V36.4399C11.1524 34.8635 12.4308 33.5808 14.0022 33.5808H39.7854C41.3567 33.5808 42.6352 34.8635 42.6352 36.4399V41.8639C42.6352 43.4403 41.3571 44.7228 39.7854 44.7228ZM14.0022 35.0639C13.2456 35.0639 12.6302 35.6817 12.6302 36.4403V41.8643C12.6302 42.6233 13.246 43.2407 14.0022 43.2407H39.7854C40.5419 43.2407 41.1574 42.6229 41.1574 41.8643V36.4403C41.1574 35.6813 40.5416 35.0639 39.7854 35.0639H14.0022Z" fill="#1742E7"></path><path d="M32.4861 41.1513C31.3876 41.1513 30.4933 40.2546 30.4933 39.1521C30.4933 38.0501 31.3872 37.1529 32.4861 37.1529C33.5846 37.1529 34.4789 38.0497 34.4789 39.1521C34.4789 40.2546 33.585 41.1513 32.4861 41.1513ZM32.4861 38.6359C32.2023 38.6359 31.9711 38.8679 31.9711 39.1525C31.9711 39.4372 32.2023 39.6692 32.4861 39.6692C32.7698 39.6692 33.0011 39.4372 33.0011 39.1525C33.0011 38.8675 32.7702 38.6359 32.4861 38.6359Z" fill="#1742E7"></path><path d="M37.574 41.1513C36.4755 41.1513 35.5812 40.2546 35.5812 39.1521C35.5812 38.0501 36.4751 37.1529 37.574 37.1529C38.6725 37.1529 39.5668 38.0497 39.5668 39.1521C39.5668 40.2546 38.6729 41.1513 37.574 41.1513ZM37.574 38.6359C37.2902 38.6359 37.0589 38.8679 37.0589 39.1525C37.0589 39.4372 37.2902 39.6692 37.574 39.6692C37.8577 39.6692 38.089 39.4372 38.089 39.1525C38.089 38.8675 37.8581 38.6359 37.574 38.6359Z" fill="#1742E7"></path><path d="M27.0895 38.6359H14.9594C14.5513 38.6359 14.2207 38.3042 14.2207 37.8948C14.2207 37.4853 14.5513 37.1537 14.9594 37.1537H27.0895C27.4977 37.1537 27.8282 37.4853 27.8282 37.8948C27.8282 38.3039 27.4973 38.6359 27.0891 38.6359H27.0895Z" fill="#1742E7"></path><path d="M27.0895 41.1513H14.9594C14.5513 41.1513 14.2207 40.8197 14.2207 40.4103C14.2207 40.0008 14.5513 39.6692 14.9594 39.6692H27.0895C27.4977 39.6692 27.8282 40.0008 27.8282 40.4103C27.8282 40.8197 27.4973 41.1513 27.0891 41.1513H27.0895Z" fill="#1742E7"></path><path d="M39.7854 54.3823H14.0022C12.4308 54.3823 11.1524 53.0998 11.1524 51.5234V46.0994C11.1524 44.523 12.4308 43.2404 14.0022 43.2404H39.7854C41.3567 43.2404 42.6352 44.523 42.6352 46.0994V51.5234C42.6352 53.0998 41.3571 54.3823 39.7854 54.3823ZM14.0022 44.7228C13.2456 44.7228 12.6302 45.3407 12.6302 46.0994V51.5234C12.6302 52.2824 13.246 52.8998 14.0022 52.8998H39.7854C40.5419 52.8998 41.1574 52.282 41.1574 51.5234V46.0994C41.1574 45.3404 40.5416 44.7228 39.7854 44.7228H14.0022Z" fill="#1742E7"></path><path d="M32.4861 50.8098C31.3876 50.8098 30.4933 49.9131 30.4933 48.8106C30.4933 47.7086 31.3872 46.8114 32.4861 46.8114C33.5846 46.8114 34.4789 47.7082 34.4789 48.8106C34.4789 49.9131 33.585 50.8098 32.4861 50.8098ZM32.4861 48.294C32.2023 48.294 31.9711 48.526 31.9711 48.8106C31.9711 49.0953 32.2023 49.3273 32.4861 49.3273C32.7698 49.3273 33.0011 49.0953 33.0011 48.8106C33.0011 48.526 32.7702 48.294 32.4861 48.294Z" fill="#1742E7"></path><path d="M37.574 50.8098C36.4755 50.8098 35.5812 49.9131 35.5812 48.8106C35.5812 47.7086 36.4751 46.8114 37.574 46.8114C38.6725 46.8114 39.5668 47.7082 39.5668 48.8106C39.5668 49.9131 38.6729 50.8098 37.574 50.8098ZM37.574 48.294C37.2902 48.294 37.0589 48.526 37.0589 48.8106C37.0589 49.0953 37.2902 49.3273 37.574 49.3273C37.8577 49.3273 38.089 49.0953 38.089 48.8106C38.089 48.526 37.8581 48.294 37.574 48.294Z" fill="#1742E7"></path><path d="M27.0895 48.2944H14.9594C14.5513 48.2944 14.2207 47.9627 14.2207 47.5533C14.2207 47.1438 14.5513 46.8122 14.9594 46.8122H27.0895C27.4977 46.8122 27.8282 47.1438 27.8282 47.5533C27.8282 47.9627 27.4973 48.2944 27.0891 48.2944H27.0895Z" fill="#1742E7"></path><path d="M27.0895 50.8098H14.9594C14.5513 50.8098 14.2207 50.4782 14.2207 50.0688C14.2207 49.6593 14.5513 49.3277 14.9594 49.3277H27.0895C27.4977 49.3277 27.8282 49.6593 27.8282 50.0688C27.8282 50.4782 27.4973 50.8098 27.0891 50.8098H27.0895Z" fill="#1742E7"></path><path d="M14.0022 33.7208H39.7854V33.4408H14.0022V33.7208ZM39.7854 44.5828H14.0022V44.8628H39.7854V44.5828ZM11.8911 39.8853V40.1653H11.9139L11.9364 40.1616L11.8911 39.8853ZM11.8626 39.8845L11.885 39.6052L11.8733 39.6047L11.8626 39.8845ZM3.65786 36.1976L3.8597 36.0035L3.85968 36.0035L3.65786 36.1976ZM1.22839 23.1016L0.97037 22.9928L0.970367 22.9928L1.22839 23.1016ZM3.80963 19.2597L3.61139 19.0619L3.61129 19.062L3.80963 19.2597ZM7.63923 16.6701L7.74861 16.9279L7.74862 16.9279L7.63923 16.6701ZM12.3288 15.7199L12.3289 15.4399H12.3288V15.7199ZM15.2836 15.7203L15.2836 16.0003L15.6521 16.0004L15.5534 15.6453L15.2836 15.7203ZM15.7903 7.76474L16.0483 7.87349L16.0483 7.87347L15.7903 7.76474ZM18.3723 3.92244L18.5706 4.12012L18.5707 4.12008L18.3723 3.92244ZM22.2023 1.33212L22.093 1.07432L22.0929 1.07439L22.2023 1.33212ZM31.5843 1.33251L31.4749 1.59027L31.4749 1.59028L31.5843 1.33251ZM35.4143 3.92282L35.2159 4.12045L35.216 4.1205L35.4143 3.92282ZM37.9963 7.76512L38.2543 7.65632L38.2543 7.6563L37.9963 7.76512ZM38.5026 15.7207L38.2328 15.6457L38.134 16.0007H38.5026V15.7207ZM46.147 16.6709L46.0376 16.9286L46.0376 16.9287L46.147 16.6709ZM52.5578 23.1023L52.8158 22.9936L52.8158 22.9935L52.5578 23.1023ZM52.5578 32.5117L52.2998 32.403L52.2998 32.403L52.5578 32.5117ZM49.9766 36.3536L50.1748 36.5513L50.1749 36.5513L49.9766 36.3536ZM41.9237 39.8846L41.9129 39.6048L41.9122 39.6048L41.9237 39.8846ZM41.1576 39.1725L41.4374 39.1621L41.4374 39.1619L41.1576 39.1725ZM41.8678 38.404L41.8782 38.6838L41.8785 38.6838L41.8678 38.404ZM48.9321 35.3062L49.1304 35.5039L49.1305 35.5038L48.9321 35.3062ZM36.8773 16.8843L36.6469 17.0434L36.6469 17.0434L36.8773 16.8843ZM36.7933 16.2012L37.0554 16.2997L37.0554 16.2995L36.7933 16.2012ZM16.9937 16.2016L17.2559 16.1035L17.2559 16.1034L16.9937 16.2016ZM16.9096 16.8843L17.1399 17.0436L17.14 17.0434L16.9096 16.8843ZM16.3025 17.2033L16.3024 17.4833H16.3025V17.2033ZM12.3291 17.2021L12.3292 16.9221H12.3291V17.2021ZM4.85472 20.308L4.65645 20.1103L4.65635 20.1104L4.85472 20.308ZM11.9194 38.4027L11.9302 38.1229H11.9301L11.9194 38.4027ZM12.6296 39.1712L12.3498 39.1606V39.1606L12.6296 39.1712ZM11.8917 39.8852V39.6052H11.8689L11.8463 39.6089L11.8917 39.8852ZM11.8911 39.6053C11.8859 39.6053 11.8839 39.6053 11.8824 39.6053C11.8813 39.6052 11.8824 39.6052 11.885 39.6054L11.8402 40.1636C11.8627 40.1654 11.8834 40.1653 11.8911 40.1653V39.6053ZM11.8733 39.6047C8.82687 39.4881 5.98124 38.2101 3.8597 36.0035L3.45601 36.3916C5.67764 38.7023 8.66014 40.0421 11.8518 40.1643L11.8733 39.6047ZM3.85968 36.0035C1.7327 33.7917 0.56125 30.8814 0.56125 27.8063H0.00125C0.00125 31.0258 1.22855 34.0753 3.45603 36.3916L3.85968 36.0035ZM0.56125 27.8063C0.56125 26.2124 0.872639 24.6666 1.4864 23.2103L0.970367 22.9928C0.327361 24.5184 0.00125 26.1383 0.00125 27.8063H0.56125ZM1.4864 23.2103C2.07907 21.8043 2.92712 20.5419 4.00796 19.4573L3.61129 19.062C2.47976 20.1975 1.59111 21.5202 0.97037 22.9928L1.4864 23.2103ZM4.00786 19.4574C5.08941 18.3731 6.34767 17.5224 7.74861 16.9279L7.52984 16.4124C6.06209 17.0353 4.74358 17.9269 3.61139 19.0619L4.00786 19.4574ZM7.74862 16.9279C9.19988 16.3119 10.74 15.9999 12.3288 15.9999V15.4399C10.6655 15.4399 9.05087 15.7668 7.52983 16.4124L7.74862 16.9279ZM12.3288 15.9999L15.2836 16.0003L15.2837 15.4403L12.3289 15.4399L12.3288 15.9999ZM15.5534 15.6453C15.2674 14.6169 15.1232 13.5534 15.1232 12.4706H14.5632C14.5632 13.6034 14.7141 14.7174 15.0139 15.7954L15.5534 15.6453ZM15.1232 12.4706C15.1232 10.876 15.4345 9.32971 16.0483 7.87349L15.5323 7.65599C14.8893 9.18163 14.5632 10.8019 14.5632 12.4706H15.1232ZM16.0483 7.87347C16.641 6.46709 17.4898 5.20435 18.5706 4.12012L18.174 3.72476C17.0425 4.85983 16.153 6.18292 15.5323 7.65601L16.0483 7.87347ZM18.5707 4.12008C19.6513 3.03556 20.9103 2.1848 22.3117 1.58986L22.0929 1.07439C20.6248 1.69763 19.3055 2.58925 18.174 3.72481L18.5707 4.12008ZM22.3116 1.58993C23.7633 0.974653 25.3043 0.662324 26.8935 0.662324V0.102324C25.2297 0.102324 23.6144 0.429564 22.093 1.07432L22.3116 1.58993ZM26.8935 0.662324C28.4827 0.662324 30.0236 0.974645 31.4749 1.59027L31.6936 1.07474C30.1726 0.429553 28.5572 0.102324 26.8935 0.102324V0.662324ZM31.4749 1.59028C32.8766 2.18475 34.1352 3.03579 35.2159 4.12045L35.6126 3.7252C34.4811 2.58958 33.1622 1.69757 31.6936 1.07473L31.4749 1.59028ZM35.216 4.1205C36.2971 5.20507 37.1452 6.46783 37.7383 7.87395L38.2543 7.6563C37.6331 6.18372 36.7444 4.86066 35.6126 3.72515L35.216 4.1205ZM37.7383 7.87393C38.3524 9.33008 38.6634 10.8763 38.6634 12.471H39.2234C39.2234 10.8023 38.8977 9.18202 38.2543 7.65632L37.7383 7.87393ZM38.6634 12.471C38.6634 13.5537 38.5188 14.6175 38.2328 15.6457L38.7723 15.7958C39.0721 14.7181 39.2234 13.6039 39.2234 12.471H38.6634ZM38.5026 16.0007H41.4573V15.4407H38.5026V16.0007ZM41.4573 16.0007C43.0461 16.0007 44.5867 16.313 46.0376 16.9286L46.2563 16.4131C44.7357 15.7679 43.1207 15.4407 41.4573 15.4407V16.0007ZM46.0376 16.9287C47.4389 17.5231 48.6971 18.3742 49.7779 19.4585L50.1745 19.0632C49.043 17.928 47.7245 17.036 46.2563 16.4131L46.0376 16.9287ZM49.7779 19.4585C50.8586 20.5428 51.7067 21.8051 52.2998 23.2112L52.8158 22.9935C52.1946 21.5209 51.3059 20.1983 50.1745 19.0632L49.7779 19.4585ZM52.2998 23.2111C52.9135 24.6669 53.2249 26.2128 53.2249 27.807H53.7849C53.7849 26.1387 53.4588 24.5188 52.8158 22.9936L52.2998 23.2111ZM53.2249 27.807C53.2249 29.4013 52.9136 30.9471 52.2998 32.403L52.8158 32.6205C53.4588 31.0953 53.7849 29.4754 53.7849 27.807H53.2249ZM52.2998 32.403C51.7071 33.809 50.8591 35.0714 49.7782 36.156L50.1749 36.5513C51.3064 35.4158 52.1951 34.0931 52.8158 32.6205L52.2998 32.403ZM49.7783 36.1559C47.6732 38.267 44.8801 39.4911 41.9129 39.6048L41.9344 40.1644C45.0433 40.0452 47.9703 38.7622 50.1748 36.5513L49.7783 36.1559ZM41.9122 39.6048C41.6602 39.6152 41.4469 39.4178 41.4374 39.1621L40.8778 39.183C40.8987 39.7446 41.3694 40.1876 41.9352 40.1644L41.9122 39.6048ZM41.4374 39.1619C41.4277 38.9065 41.626 38.6933 41.8782 38.6838L41.8573 38.1242C41.294 38.1453 40.8563 38.6204 40.8778 39.1832L41.4374 39.1619ZM41.8785 38.6838C44.6143 38.5792 47.1902 37.4495 49.1304 35.5039L48.7338 35.1085C46.8931 36.9544 44.451 38.025 41.8571 38.1242L41.8785 38.6838ZM49.1305 35.5038C51.179 33.4475 52.3076 30.7136 52.3076 27.8078H51.7476C51.7476 30.5656 50.6776 33.1573 48.7337 35.1086L49.1305 35.5038ZM52.3076 27.8078C52.3076 21.8068 47.4413 16.9237 41.4574 16.9237V17.4837C47.1304 17.4837 51.7476 22.1144 51.7476 27.8078H52.3076ZM41.4574 16.9237H37.4848V17.4837H41.4574V16.9237ZM37.4848 16.9237C37.3348 16.9237 37.1937 16.8497 37.1077 16.7252L36.6469 17.0434C36.8371 17.3187 37.1501 17.4837 37.4848 17.4837V16.9237ZM37.1077 16.7252C37.0217 16.6006 37.0021 16.4416 37.0554 16.2997L36.5311 16.1027C36.4133 16.4165 36.4567 16.768 36.6469 17.0434L37.1077 16.7252ZM37.0554 16.2995C37.5139 15.0771 37.7457 13.7887 37.7457 12.4714H37.1857C37.1857 13.7224 36.9657 14.9441 36.5311 16.1029L37.0554 16.2995ZM37.7457 12.4714C37.7457 6.4693 32.8783 1.58536 26.8936 1.58536V2.14536C32.5674 2.14536 37.1857 6.7769 37.1857 12.4714H37.7457ZM26.8936 1.58536C20.9089 1.58536 16.0415 6.4697 16.0415 12.4714H16.6015C16.6015 6.77728 21.2199 2.14536 26.8936 2.14536V1.58536ZM16.0415 12.4714C16.0415 13.7888 16.2738 15.0771 16.7314 16.2997L17.2559 16.1034C16.822 14.9441 16.6015 13.7223 16.6015 12.4714H16.0415ZM16.7314 16.2997C16.7847 16.4421 16.765 16.6009 16.6792 16.7252L17.14 17.0434C17.3303 16.7677 17.3731 16.4167 17.2559 16.1035L16.7314 16.2997ZM16.6793 16.725C16.5932 16.8494 16.4523 16.9233 16.3025 16.9233V17.4833C16.6373 17.4833 16.9498 17.3183 17.1399 17.0436L16.6793 16.725ZM16.3026 16.9233L12.3292 16.9221L12.329 17.4821L16.3024 17.4833L16.3026 16.9233ZM12.3291 16.9221C9.4322 16.9221 6.70624 18.0547 4.65645 20.1103L5.05299 20.5057C6.99794 18.5552 9.58131 17.4821 12.3291 17.4821V16.9221ZM4.65635 20.1104C2.6078 22.1667 1.47923 24.9006 1.47923 27.8064H2.03923C2.03923 25.0485 3.10923 22.4568 5.05308 20.5056L4.65635 20.1104ZM1.47923 27.8064C1.47923 33.6798 6.05972 38.4588 11.9087 38.6825L11.9301 38.1229C6.38383 37.9108 2.03923 33.3809 2.03923 27.8064H1.47923ZM11.9087 38.6825C12.1614 38.6922 12.3595 38.9054 12.3498 39.1606L12.9094 39.1819C12.9309 38.6189 12.493 38.1445 11.9302 38.1229L11.9087 38.6825ZM12.3498 39.1606C12.3403 39.4107 12.1358 39.6052 11.8917 39.6052V40.1652C12.438 40.1652 12.8885 39.7316 12.9094 39.1819L12.3498 39.1606ZM11.8463 39.6089L11.8457 39.609L11.9364 40.1616L11.937 40.1615L11.8463 39.6089ZM39.7854 34.7834H14.0022V35.3434H39.7854V34.7834ZM14.0022 34.7834C12.5863 34.7834 11.4324 33.627 11.4324 32.2044H10.8724C10.8724 33.9346 12.2754 35.3434 14.0022 35.3434V34.7834ZM11.4324 32.2044V26.7804H10.8724V32.2044H11.4324ZM11.4324 26.7804C11.4324 25.3578 12.5863 24.2015 14.0022 24.2015V23.6415C12.2754 23.6415 10.8724 25.0502 10.8724 26.7804H11.4324ZM14.0022 24.2015H39.7854V23.6415H14.0022V24.2015ZM39.7854 24.2015C41.2012 24.2015 42.3552 25.3578 42.3552 26.7804H42.9152C42.9152 25.0502 41.5122 23.6415 39.7854 23.6415V24.2015ZM42.3552 26.7804V32.2044H42.9152V26.7804H42.3552ZM42.3552 32.2044C42.3552 33.6267 41.2016 34.7834 39.7854 34.7834V35.3434C41.5127 35.3434 42.9152 33.9342 42.9152 32.2044H42.3552ZM14.0022 25.124C13.0901 25.124 12.3502 25.868 12.3502 26.7804H12.9102C12.9102 26.1755 13.4012 25.684 14.0022 25.684V25.124ZM12.3502 26.7804V32.2044H12.9102V26.7804H12.3502ZM12.3502 32.2044C12.3502 33.1172 13.0906 33.8608 14.0022 33.8608V33.3008C13.4014 33.3008 12.9102 32.8096 12.9102 32.2044H12.3502ZM39.7854 33.8608C40.6975 33.8608 41.4374 33.1168 41.4374 32.2044H40.8774C40.8774 32.8093 40.3864 33.3008 39.7854 33.3008V33.8608ZM41.4374 32.2044V26.7804H40.8774V32.2044H41.4374ZM41.4374 26.7804C41.4374 25.8676 40.697 25.124 39.7854 25.124V25.684C40.3861 25.684 40.8774 26.1753 40.8774 26.7804H41.4374ZM39.7854 25.124H14.0022V25.684H39.7854V25.124ZM32.4861 31.2119C31.543 31.2119 30.7733 30.4413 30.7733 29.4927H30.2133C30.2133 30.7489 31.2321 31.7719 32.4861 31.7719V31.2119ZM30.7733 29.4927C30.7733 28.5444 31.5427 27.7735 32.4861 27.7735V27.2135C31.2316 27.2135 30.2133 28.2369 30.2133 29.4927H30.7733ZM32.4861 27.7735C33.4291 27.7735 34.1989 28.544 34.1989 29.4927H34.7589C34.7589 28.2364 33.74 27.2135 32.4861 27.2135V27.7735ZM34.1989 29.4927C34.1989 30.4409 33.4295 31.2119 32.4861 31.2119V31.7719C33.7405 31.7719 34.7589 30.7484 34.7589 29.4927H34.1989ZM32.4861 28.696C32.0468 28.696 31.691 29.0542 31.691 29.4927H32.251C32.251 29.3618 32.3578 29.256 32.4861 29.256V28.696ZM31.691 29.4927C31.691 29.9311 32.0468 30.2894 32.4861 30.2894V29.7294C32.3578 29.7294 32.251 29.6236 32.251 29.4927H31.691ZM32.4861 30.2894C32.9253 30.2894 33.2811 29.9311 33.2811 29.4927H32.7211C32.7211 29.6236 32.6144 29.7294 32.4861 29.7294V30.2894ZM33.2811 29.4927C33.2811 29.0543 32.9258 28.696 32.4861 28.696V29.256C32.6146 29.256 32.7211 29.3617 32.7211 29.4927H33.2811ZM37.574 31.2119C36.6309 31.2119 35.8612 30.4413 35.8612 29.4927H35.3012C35.3012 30.7489 36.32 31.7719 37.574 31.7719V31.2119ZM35.8612 29.4927C35.8612 28.5444 36.6306 27.7735 37.574 27.7735V27.2135C36.3195 27.2135 35.3012 28.2369 35.3012 29.4927H35.8612ZM37.574 27.7735C38.517 27.7735 39.2868 28.544 39.2868 29.4927H39.8468C39.8468 28.2364 38.8279 27.2135 37.574 27.2135V27.7735ZM39.2868 29.4927C39.2868 30.4409 38.5174 31.2119 37.574 31.2119V31.7719C38.8284 31.7719 39.8468 30.7484 39.8468 29.4927H39.2868ZM37.574 28.696C37.1347 28.696 36.7789 29.0542 36.7789 29.4927H37.3389C37.3389 29.3618 37.4457 29.256 37.574 29.256V28.696ZM36.7789 29.4927C36.7789 29.9311 37.1347 30.2894 37.574 30.2894V29.7294C37.4457 29.7294 37.3389 29.6236 37.3389 29.4927H36.7789ZM37.574 30.2894C38.0132 30.2894 38.369 29.9311 38.369 29.4927H37.809C37.809 29.6236 37.7023 29.7294 37.574 29.7294V30.2894ZM38.369 29.4927C38.369 29.0543 38.0137 28.696 37.574 28.696V29.256C37.7025 29.256 37.809 29.3617 37.809 29.4927H38.369ZM27.0895 28.6964H14.9594V29.2564H27.0895V28.6964ZM14.9594 28.6964C14.7067 28.6964 14.5007 28.491 14.5007 28.2353H13.9407C13.9407 28.7986 14.3958 29.2564 14.9594 29.2564V28.6964ZM14.5007 28.2353C14.5007 27.9797 14.7067 27.7743 14.9594 27.7743V27.2143C14.3958 27.2143 13.9407 27.6721 13.9407 28.2353H14.5007ZM14.9594 27.7743H27.0895V27.2143H14.9594V27.7743ZM27.0895 27.7743C27.3422 27.7743 27.5482 27.9797 27.5482 28.2353H28.1082C28.1082 27.6721 27.6531 27.2143 27.0895 27.2143V27.7743ZM27.5482 28.2353C27.5482 28.4905 27.3419 28.6964 27.0891 28.6964V29.2564C27.6527 29.2564 28.1082 28.7983 28.1082 28.2353H27.5482ZM27.0891 29.2564H27.0895V28.6964H27.0891V29.2564ZM27.0895 31.2119H14.9594V31.7719H27.0895V31.2119ZM14.9594 31.2119C14.7067 31.2119 14.5007 31.0065 14.5007 30.7508H13.9407C13.9407 31.3141 14.3958 31.7719 14.9594 31.7719V31.2119ZM14.5007 30.7508C14.5007 30.4951 14.7067 30.2897 14.9594 30.2897V29.7297C14.3958 29.7297 13.9407 30.1876 13.9407 30.7508H14.5007ZM14.9594 30.2897H27.0895V29.7297H14.9594V30.2897ZM27.0895 30.2897C27.3422 30.2897 27.5482 30.4951 27.5482 30.7508H28.1082C28.1082 30.1876 27.6531 29.7297 27.0895 29.7297V30.2897ZM27.5482 30.7508C27.5482 31.006 27.3419 31.2119 27.0891 31.2119V31.7719C27.6527 31.7719 28.1082 31.3138 28.1082 30.7508H27.5482ZM27.0891 31.7719H27.0895V31.2119H27.0891V31.7719ZM14.0022 44.4428C12.5863 44.4428 11.4324 43.2865 11.4324 41.8639H10.8724C10.8724 43.5941 12.2754 45.0028 14.0022 45.0028V44.4428ZM11.4324 41.8639V36.4399H10.8724V41.8639H11.4324ZM11.4324 36.4399C11.4324 35.0173 12.5863 33.8608 14.0022 33.8608V33.3008C12.2753 33.3008 10.8724 34.7097 10.8724 36.4399H11.4324ZM39.7854 33.8608C41.2012 33.8608 42.3552 35.0173 42.3552 36.4399H42.9152C42.9152 34.7097 41.5122 33.3008 39.7854 33.3008V33.8608ZM42.3552 36.4399V41.8639H42.9152V36.4399H42.3552ZM42.3552 41.8639C42.3552 43.2865 41.2016 44.4428 39.7854 44.4428V45.0028C41.5126 45.0028 42.9152 43.5941 42.9152 41.8639H42.3552ZM14.0022 34.7839C13.0901 34.7839 12.3502 35.5279 12.3502 36.4403H12.9102C12.9102 35.8354 13.4012 35.3439 14.0022 35.3439V34.7839ZM12.3502 36.4403V41.8643H12.9102V36.4403H12.3502ZM12.3502 41.8643C12.3502 42.7771 13.0906 43.5207 14.0022 43.5207V42.9607C13.4014 42.9607 12.9102 42.4694 12.9102 41.8643H12.3502ZM14.0022 43.5207H39.7854V42.9607H14.0022V43.5207ZM39.7854 43.5207C40.6975 43.5207 41.4374 42.7766 41.4374 41.8643H40.8774C40.8774 42.4692 40.3864 42.9607 39.7854 42.9607V43.5207ZM41.4374 41.8643V36.4403H40.8774V41.8643H41.4374ZM41.4374 36.4403C41.4374 35.5275 40.697 34.7839 39.7854 34.7839V35.3439C40.3861 35.3439 40.8774 35.8351 40.8774 36.4403H41.4374ZM39.7854 34.7839H14.0022V35.3439H39.7854V34.7839ZM32.4861 40.8713C31.543 40.8713 30.7733 40.1008 30.7733 39.1521H30.2133C30.2133 40.4084 31.2321 41.4313 32.4861 41.4313V40.8713ZM30.7733 39.1521C30.7733 38.2039 31.5427 37.4329 32.4861 37.4329V36.8729C31.2316 36.8729 30.2133 37.8964 30.2133 39.1521H30.7733ZM32.4861 37.4329C33.4291 37.4329 34.1989 38.2035 34.1989 39.1521H34.7589C34.7589 37.8959 33.74 36.8729 32.4861 36.8729V37.4329ZM34.1989 39.1521C34.1989 40.1008 33.4295 40.8713 32.4861 40.8713V41.4313C33.7405 41.4313 34.7589 40.4083 34.7589 39.1521H34.1989ZM32.4861 38.3559C32.0468 38.3559 31.691 38.7141 31.691 39.1525H32.251C32.251 39.0217 32.3578 38.9159 32.4861 38.9159V38.3559ZM31.691 39.1525C31.691 39.591 32.0468 39.9492 32.4861 39.9492V39.3892C32.3578 39.3892 32.251 39.2834 32.251 39.1525H31.691ZM32.4861 39.9492C32.9253 39.9492 33.2811 39.591 33.2811 39.1525H32.7211C32.7211 39.2834 32.6144 39.3892 32.4861 39.3892V39.9492ZM33.2811 39.1525C33.2811 38.7137 32.9257 38.3559 32.4861 38.3559V38.9159C32.6147 38.9159 32.7211 39.0213 32.7211 39.1525H33.2811ZM37.574 40.8713C36.6309 40.8713 35.8612 40.1008 35.8612 39.1521H35.3012C35.3012 40.4084 36.32 41.4313 37.574 41.4313V40.8713ZM35.8612 39.1521C35.8612 38.2039 36.6306 37.4329 37.574 37.4329V36.8729C36.3195 36.8729 35.3012 37.8964 35.3012 39.1521H35.8612ZM37.574 37.4329C38.517 37.4329 39.2868 38.2035 39.2868 39.1521H39.8468C39.8468 37.8959 38.8279 36.8729 37.574 36.8729V37.4329ZM39.2868 39.1521C39.2868 40.1008 38.5174 40.8713 37.574 40.8713V41.4313C38.8284 41.4313 39.8468 40.4083 39.8468 39.1521H39.2868ZM37.574 38.3559C37.1347 38.3559 36.7789 38.7141 36.7789 39.1525H37.3389C37.3389 39.0217 37.4457 38.9159 37.574 38.9159V38.3559ZM36.7789 39.1525C36.7789 39.591 37.1347 39.9492 37.574 39.9492V39.3892C37.4457 39.3892 37.3389 39.2834 37.3389 39.1525H36.7789ZM37.574 39.9492C38.0132 39.9492 38.369 39.591 38.369 39.1525H37.809C37.809 39.2834 37.7023 39.3892 37.574 39.3892V39.9492ZM38.369 39.1525C38.369 38.7137 38.0136 38.3559 37.574 38.3559V38.9159C37.7026 38.9159 37.809 39.0213 37.809 39.1525H38.369ZM27.0895 38.3559H14.9594V38.9159H27.0895V38.3559ZM14.9594 38.3559C14.7067 38.3559 14.5007 38.1505 14.5007 37.8948H13.9407C13.9407 38.458 14.3958 38.9159 14.9594 38.9159V38.3559ZM14.5007 37.8948C14.5007 37.6391 14.7067 37.4337 14.9594 37.4337V36.8737C14.3958 36.8737 13.9407 37.3315 13.9407 37.8948H14.5007ZM14.9594 37.4337H27.0895V36.8737H14.9594V37.4337ZM27.0895 37.4337C27.3422 37.4337 27.5482 37.6391 27.5482 37.8948H28.1082C28.1082 37.3316 27.6531 36.8737 27.0895 36.8737V37.4337ZM27.5482 37.8948C27.5482 38.15 27.3419 38.3559 27.0891 38.3559V38.9159C27.6527 38.9159 28.1082 38.4577 28.1082 37.8948H27.5482ZM27.0891 38.9159H27.0895V38.3559H27.0891V38.9159ZM27.0895 40.8713H14.9594V41.4313H27.0895V40.8713ZM14.9594 40.8713C14.7067 40.8713 14.5007 40.6659 14.5007 40.4103H13.9407C13.9407 40.9735 14.3958 41.4313 14.9594 41.4313V40.8713ZM14.5007 40.4103C14.5007 40.1546 14.7067 39.9492 14.9594 39.9492V39.3892C14.3958 39.3892 13.9407 39.847 13.9407 40.4103H14.5007ZM14.9594 39.9492H27.0895V39.3892H14.9594V39.9492ZM27.0895 39.9492C27.3422 39.9492 27.5482 40.1546 27.5482 40.4103H28.1082C28.1082 39.847 27.6531 39.3892 27.0895 39.3892V39.9492ZM27.5482 40.4103C27.5482 40.6658 27.342 40.8713 27.0891 40.8713V41.4313C27.6526 41.4313 28.1082 40.9737 28.1082 40.4103H27.5482ZM27.0891 41.4313H27.0895V40.8713H27.0891V41.4313ZM39.7854 54.1023H14.0022V54.6623H39.7854V54.1023ZM14.0022 54.1023C12.5863 54.1023 11.4324 52.946 11.4324 51.5234H10.8724C10.8724 53.2536 12.2754 54.6623 14.0022 54.6623V54.1023ZM11.4324 51.5234V46.0994H10.8724V51.5234H11.4324ZM11.4324 46.0994C11.4324 44.6768 12.5863 43.5204 14.0022 43.5204V42.9604C12.2754 42.9604 10.8724 44.3692 10.8724 46.0994H11.4324ZM14.0022 43.5204H39.7854V42.9604H14.0022V43.5204ZM39.7854 43.5204C41.2012 43.5204 42.3552 44.6768 42.3552 46.0994H42.9152C42.9152 44.3692 41.5122 42.9604 39.7854 42.9604V43.5204ZM42.3552 46.0994V51.5234H42.9152V46.0994H42.3552ZM42.3552 51.5234C42.3552 52.946 41.2016 54.1023 39.7854 54.1023V54.6623C41.5126 54.6623 42.9152 53.2535 42.9152 51.5234H42.3552ZM14.0022 44.4428C13.0901 44.4428 12.3502 45.187 12.3502 46.0994H12.9102C12.9102 45.4945 13.4012 45.0028 14.0022 45.0028V44.4428ZM12.3502 46.0994V51.5234H12.9102V46.0994H12.3502ZM12.3502 51.5234C12.3502 52.4362 13.0906 53.1798 14.0022 53.1798V52.6198C13.4014 52.6198 12.9102 52.1285 12.9102 51.5234H12.3502ZM14.0022 53.1798H39.7854V52.6198H14.0022V53.1798ZM39.7854 53.1798C40.6975 53.1798 41.4374 52.4357 41.4374 51.5234H40.8774C40.8774 52.1283 40.3864 52.6198 39.7854 52.6198V53.1798ZM41.4374 51.5234V46.0994H40.8774V51.5234H41.4374ZM41.4374 46.0994C41.4374 45.1866 40.697 44.4428 39.7854 44.4428V45.0028C40.3861 45.0028 40.8774 45.4942 40.8774 46.0994H41.4374ZM32.4861 50.5298C31.543 50.5298 30.7733 49.7593 30.7733 48.8106H30.2133C30.2133 50.0669 31.2321 51.0898 32.4861 51.0898V50.5298ZM30.7733 48.8106C30.7733 47.8624 31.5427 47.0914 32.4861 47.0914V46.5314C31.2316 46.5314 30.2133 47.5549 30.2133 48.8106H30.7733ZM32.4861 47.0914C33.4291 47.0914 34.1989 47.862 34.1989 48.8106H34.7589C34.7589 47.5544 33.74 46.5314 32.4861 46.5314V47.0914ZM34.1989 48.8106C34.1989 49.7593 33.4295 50.5298 32.4861 50.5298V51.0898C33.7405 51.0898 34.7589 50.0669 34.7589 48.8106H34.1989ZM32.4861 48.014C32.0468 48.014 31.691 48.3722 31.691 48.8106H32.251C32.251 48.6798 32.3578 48.574 32.4861 48.574V48.014ZM31.691 48.8106C31.691 49.2491 32.0468 49.6073 32.4861 49.6073V49.0473C32.3578 49.0473 32.251 48.9415 32.251 48.8106H31.691ZM32.4861 49.6073C32.9253 49.6073 33.2811 49.2491 33.2811 48.8106H32.7211C32.7211 48.9415 32.6144 49.0473 32.4861 49.0473V49.6073ZM33.2811 48.8106C33.2811 48.3723 32.9258 48.014 32.4861 48.014V48.574C32.6146 48.574 32.7211 48.6796 32.7211 48.8106H33.2811ZM37.574 50.5298C36.6309 50.5298 35.8612 49.7593 35.8612 48.8106H35.3012C35.3012 50.0669 36.32 51.0898 37.574 51.0898V50.5298ZM35.8612 48.8106C35.8612 47.8624 36.6306 47.0914 37.574 47.0914V46.5314C36.3195 46.5314 35.3012 47.5549 35.3012 48.8106H35.8612ZM37.574 47.0914C38.517 47.0914 39.2868 47.862 39.2868 48.8106H39.8468C39.8468 47.5544 38.8279 46.5314 37.574 46.5314V47.0914ZM39.2868 48.8106C39.2868 49.7593 38.5174 50.5298 37.574 50.5298V51.0898C38.8284 51.0898 39.8468 50.0669 39.8468 48.8106H39.2868ZM37.574 48.014C37.1347 48.014 36.7789 48.3722 36.7789 48.8106H37.3389C37.3389 48.6798 37.4457 48.574 37.574 48.574V48.014ZM36.7789 48.8106C36.7789 49.2491 37.1347 49.6073 37.574 49.6073V49.0473C37.4457 49.0473 37.3389 48.9415 37.3389 48.8106H36.7789ZM37.574 49.6073C38.0132 49.6073 38.369 49.2491 38.369 48.8106H37.809C37.809 48.9415 37.7023 49.0473 37.574 49.0473V49.6073ZM38.369 48.8106C38.369 48.3723 38.0137 48.014 37.574 48.014V48.574C37.7025 48.574 37.809 48.6796 37.809 48.8106H38.369ZM27.0895 48.0144H14.9594V48.5744H27.0895V48.0144ZM14.9594 48.0144C14.7067 48.0144 14.5007 47.809 14.5007 47.5533H13.9407C13.9407 48.1165 14.3958 48.5744 14.9594 48.5744V48.0144ZM14.5007 47.5533C14.5007 47.2976 14.7067 47.0922 14.9594 47.0922V46.5322C14.3958 46.5322 13.9407 46.9901 13.9407 47.5533H14.5007ZM14.9594 47.0922H27.0895V46.5322H14.9594V47.0922ZM27.0895 47.0922C27.3422 47.0922 27.5482 47.2976 27.5482 47.5533H28.1082C28.1082 46.9901 27.6531 46.5322 27.0895 46.5322V47.0922ZM27.5482 47.5533C27.5482 47.8088 27.342 48.0144 27.0891 48.0144V48.5744C27.6526 48.5744 28.1082 48.1167 28.1082 47.5533H27.5482ZM27.0891 48.5744H27.0895V48.0144H27.0891V48.5744ZM27.0895 50.5298H14.9594V51.0898H27.0895V50.5298ZM14.9594 50.5298C14.7067 50.5298 14.5007 50.3244 14.5007 50.0688H13.9407C13.9407 50.632 14.3958 51.0898 14.9594 51.0898V50.5298ZM14.5007 50.0688C14.5007 49.8131 14.7067 49.6077 14.9594 49.6077V49.0477C14.3958 49.0477 13.9407 49.5055 13.9407 50.0688H14.5007ZM14.9594 49.6077H27.0895V49.0477H14.9594V49.6077ZM27.0895 49.6077C27.3422 49.6077 27.5482 49.8131 27.5482 50.0688H28.1082C28.1082 49.5055 27.6531 49.0477 27.0895 49.0477V49.6077ZM27.5482 50.0688C27.5482 50.3243 27.342 50.5298 27.0891 50.5298V51.0898C27.6526 51.0898 28.1082 50.6322 28.1082 50.0688H27.5482ZM27.0891 51.0898H27.0895V50.5298H27.0891V51.0898Z" fill="#1742E7" mask="url(#path-1-inside-1_3325_208)"></path></svg>