<svg xmlns="http://www.w3.org/2000/svg" viewBox="0 0 57 56" fill="none"><mask id="path-1-inside-1_3325_155" fill="white"><path fill-rule="evenodd" clip-rule="evenodd" d="M25.8775 0.90981C25.9449 0.615148 26.2068 0.406494 26.5092 0.406494H31.6353C31.9372 0.406494 32.1991 0.615148 32.2666 0.90981L32.8629 3.51352L35.6058 4.83912L38.0082 3.66744C38.2812 3.53438 38.6102 3.60882 38.7996 3.8464L41.9949 7.86329C42.1831 8.0997 42.1827 8.43525 41.9938 8.67128L40.3254 10.7566L41.0065 13.7198L43.41 14.8723C43.6827 15.0026 43.8289 15.3046 43.7618 15.5997L42.6302 20.5926C42.5631 20.8877 42.3008 21.0975 41.9981 21.0975H39.3365L37.4405 23.4721L38.0364 26.0743C38.1039 26.3693 37.9585 26.6717 37.6854 26.8028L33.0696 29.022C32.7977 29.1528 32.4714 29.0783 32.2832 28.8427L30.6136 26.7562H27.5749L25.9057 28.8427C25.7171 29.0783 25.3908 29.1528 25.1189 29.022L20.5031 26.8028C20.2304 26.6717 20.0847 26.3693 20.1521 26.0743L20.748 23.474L18.832 21.0975H16.1682C15.8654 21.0975 15.6031 20.8877 15.5364 20.5926L14.4044 15.5997C14.3377 15.3046 14.4839 15.0026 14.7566 14.8723L17.1601 13.7198L17.8409 10.7566L16.1727 8.67128C15.9838 8.43525 15.9834 8.0997 16.1716 7.86329L19.3669 3.8464C19.5567 3.60805 19.8868 3.534 20.1599 3.6686L22.5395 4.8384L25.2814 3.51359L25.8775 0.90981ZM27.0252 1.70238L26.4749 4.10595C26.4309 4.29802 26.3025 4.45923 26.1251 4.54485L22.8187 6.14276C22.6393 6.22954 22.4299 6.22877 22.2509 6.14083L20.0561 5.06167L17.5076 8.26549L19.0483 10.192C19.1721 10.3463 19.2184 10.5487 19.174 10.7416L18.3529 14.3146C18.309 14.5066 18.1794 14.6682 18.0016 14.7535L15.7827 15.8171L16.6856 19.8015H19.1416C19.3375 19.8015 19.523 19.8902 19.6461 20.0426L21.954 22.9051C22.0786 23.0597 22.1256 23.263 22.0813 23.4566L21.5309 25.859L25.2156 27.6307L26.7576 25.7032C26.8806 25.5493 27.0665 25.4602 27.2636 25.4602H30.9248C31.1219 25.4602 31.3078 25.5493 31.4308 25.7032L32.9728 27.6307L36.6575 25.859L36.1075 23.4566C36.0632 23.2641 36.1095 23.062 36.2325 22.9074L38.5184 20.0449C38.641 19.891 38.8277 19.8015 39.0248 19.8015H41.4808L42.3836 15.8171L40.1648 14.7535C39.9866 14.6682 39.8574 14.5066 39.8134 14.3146L38.9923 10.7416C38.948 10.5487 38.9943 10.3463 39.1177 10.192L40.6588 8.26549L38.1087 5.06009L35.8911 6.14152C35.7125 6.22869 35.5042 6.22907 35.3253 6.14268L32.0189 4.54477C31.8418 4.45915 31.713 4.29794 31.6691 4.10587L31.1187 1.7023L27.0252 1.70238ZM20.957 14.8794C20.957 10.4175 24.5743 6.77512 29.0608 6.77512C33.5463 6.77512 37.1651 10.3939 37.1651 14.8794C37.1651 19.3645 33.5463 22.9833 29.0608 22.9833C24.5757 22.9833 20.957 19.3645 20.957 14.8794ZM29.0608 8.071C25.2928 8.071 22.2528 11.1306 22.2528 14.8794C22.2528 18.649 25.2912 21.6874 29.0608 21.6874C32.8305 21.6874 35.8692 18.649 35.8692 14.8794C35.8692 11.1097 32.8305 8.071 29.0608 8.071Z"></path><path fill-rule="evenodd" clip-rule="evenodd" d="M32.7345 41.9599C32.6161 41.8299 32.4453 41.7481 32.2555 41.7481C31.8976 41.7481 31.6076 42.0382 31.6076 42.3961C31.6076 42.5218 31.6427 42.6583 31.7283 42.781C31.7861 42.8635 31.8521 42.9163 31.888 42.9422C32.3762 43.3961 32.8872 43.8983 33.4153 44.4171C34.3046 45.2906 35.2422 46.2117 36.2006 47.0301C37.2894 47.9599 38.4681 48.8169 39.7651 49.429C38.9737 50.0145 38.4646 50.9547 38.4646 52.005C38.4646 52.3093 38.5059 52.6043 38.5842 52.8839C37.1873 52.2248 35.8694 51.3293 34.6082 50.3061C32.9655 48.9732 31.4495 47.4505 29.9881 45.9826C29.7787 45.772 29.57 45.563 29.3629 45.3555C29.1099 45.1025 28.6996 45.1025 28.4466 45.3555C28.1936 45.6085 28.1936 46.0185 28.4466 46.2715C28.6506 46.4759 28.8573 46.6838 29.0663 46.8936C30.5231 48.3572 32.0912 49.9327 33.7916 51.3123C35.7397 52.8928 37.9006 54.2504 40.3401 54.9157C40.6613 55.0033 40.9969 54.8328 41.1157 54.5215C41.2345 54.2107 41.0979 53.8601 40.8002 53.7108C40.1754 53.3984 39.7604 52.7567 39.7604 52.005C39.7604 50.961 40.6058 50.1009 41.6641 50.1009H41.7081C42.034 50.1009 42.3101 49.8584 42.3514 49.5348C42.3926 49.2112 42.1867 48.9073 41.8708 48.8255C40.1237 48.3735 38.5482 47.3306 37.0421 46.0448C36.1049 45.2445 35.2422 44.396 34.3864 43.5537C33.8426 43.0184 33.3015 42.4858 32.745 41.9697C32.7415 41.9666 32.738 41.9632 32.7345 41.9601L32.7345 41.9599Z"></path><path fill-rule="evenodd" clip-rule="evenodd" d="M13.7914 29.4453C13.8354 29.4361 13.8802 29.4311 13.9253 29.4311H14.147C14.5223 29.4311 14.8945 29.4546 15.2435 29.4762L15.2527 29.477C15.2597 29.4774 15.2666 29.4777 15.2736 29.4785C18.2417 29.7601 20.8219 31.0953 23.1114 32.8023C25.1771 34.3427 27.0445 36.2167 28.7608 37.9387C28.9405 38.1196 29.1191 38.2982 29.2957 38.4752L29.2969 38.4764C29.3332 38.5122 29.4145 38.5936 29.4836 38.7324C29.607 38.9789 29.5607 39.2766 29.3682 39.4741L26.0398 42.8916C25.7949 43.1427 25.3946 43.1535 25.1366 42.9159C24.5415 42.3678 23.9618 41.797 23.3798 41.2239C22.3913 40.2508 21.3962 39.2708 20.3067 38.3845C18.609 37.003 16.8217 35.9782 14.7996 35.7838C14.7838 35.7827 14.768 35.7811 14.7526 35.78C14.5019 35.7592 14.2998 35.7422 14.0807 35.7422H13.9253C13.8763 35.7422 13.8277 35.7364 13.7795 35.7256C12.3382 35.3928 11.2804 34.1154 11.2804 32.5866C11.2804 31.0416 12.3341 29.7534 13.7916 29.4452L13.7914 29.4453ZM13.9982 30.7269C13.1786 30.9294 12.5762 31.6691 12.5762 32.5867C12.5762 33.4756 13.1729 34.2235 14.0044 34.4464H14.0804C14.3558 34.4464 14.6103 34.4676 14.8506 34.4877C14.871 34.4896 14.8911 34.4911 14.9111 34.4931L14.9192 34.4935C17.3113 34.7218 19.3398 35.9271 21.1248 37.3795C22.2514 38.2962 23.3391 39.3649 24.3642 40.3731C24.7715 40.7734 25.1691 41.1641 25.5551 41.532L28.0053 39.0163L27.8479 38.8589C26.1217 37.1268 24.3217 35.3211 22.337 33.8412C20.1576 32.216 17.8038 31.0227 15.1614 30.7693C14.807 30.7474 14.4757 30.7269 14.1474 30.7269L13.9982 30.7269Z"></path><path fill-rule="evenodd" clip-rule="evenodd" d="M6.78135 42.5246C7.10879 42.5362 7.37606 42.7903 7.40422 43.1166C7.7089 46.6525 10.3223 49.0927 13.8154 49.0927C14.4128 49.0927 14.981 49.031 15.5444 48.8902C15.5514 48.8883 15.5587 48.8867 15.5656 48.8852C15.8476 48.825 16.1307 48.744 16.4157 48.6422C16.4855 48.6172 16.5591 48.6044 16.6336 48.6044H16.8326C18.5809 48.6044 20.0109 49.9968 20.0109 51.7601C20.0109 52.9588 19.3418 54.0206 18.334 54.5523C18.3067 54.5666 18.2785 54.579 18.2496 54.5894C17.9144 54.7089 17.5843 54.803 17.2464 54.8929C16.0555 55.22 14.8001 55.3816 13.4826 55.3816C6.47478 55.3816 1.34131 50.4256 0.875286 43.4822C0.852917 43.1505 1.08548 42.8554 1.41369 42.7999C1.74152 42.7444 2.05854 42.9464 2.14648 43.2673C2.38213 44.1255 3.17509 44.7657 4.1181 44.7657C5.12815 44.7657 5.96817 44.0237 6.11864 43.0714C6.16994 42.7479 6.45418 42.5134 6.78162 42.5249L6.78135 42.5246ZM6.47589 45.0813C5.87307 45.6865 5.03773 46.0613 4.11783 46.0613C3.53622 46.0613 2.99048 45.9129 2.51498 45.6525C3.75952 50.708 7.96153 54.0858 13.4823 54.0858C14.6938 54.0858 15.8338 53.9369 16.9056 53.643L16.9103 53.6419C17.2196 53.5589 17.4965 53.4799 17.7672 53.3854C18.3361 53.0672 18.7149 52.4543 18.7149 51.7601C18.7149 50.7273 17.8806 49.9004 16.8331 49.9004H16.744C16.4466 50.0022 16.1473 50.0855 15.8477 50.1503C15.172 50.318 14.5009 50.3886 13.8151 50.3886C10.2789 50.3886 7.47733 48.2651 6.47567 45.0813L6.47589 45.0813Z"></path><path fill-rule="evenodd" clip-rule="evenodd" d="M14.5468 29.9844C14.5846 30.3161 14.3639 30.6223 14.0369 30.6918C13.188 30.8711 12.5563 31.622 12.5536 32.5596C12.5733 33.5072 13.2116 34.2597 14.0593 34.439C14.3813 34.5069 14.6008 34.8054 14.5703 35.1332C14.5399 35.4607 14.2687 35.7133 13.9397 35.7206C10.3044 35.8012 7.53242 38.727 7.40554 42.1414V42.3952C7.40554 42.6455 7.40593 42.8823 7.42483 43.0917C7.43023 43.148 7.42791 43.2047 7.41827 43.2602C7.14328 44.855 5.76675 46.0394 4.11681 46.0394C2.57409 46.0394 1.28127 44.9934 0.895619 43.588C0.884048 43.546 0.87672 43.5032 0.874021 43.4596L0.873249 43.4515C0.851651 43.1233 0.828125 42.7723 0.828125 42.3959V42.0916C0.992043 35.3561 6.44016 29.5495 13.8906 29.4093C14.2246 29.4031 14.5089 29.6519 14.5466 29.9839L14.5468 29.9844ZM2.12407 42.1159V42.3962C2.12407 42.7032 2.14182 42.9948 2.16226 43.3037C2.41719 44.1326 3.19551 44.7439 4.11689 44.7439C5.10384 44.7439 5.92915 44.0566 6.12701 43.1156C6.10966 42.8703 6.10966 42.618 6.10966 42.409V42.1298C6.10966 42.1221 6.10966 42.1147 6.11004 42.107C6.23346 38.6293 8.65244 35.5713 12.0557 34.6827C11.5674 34.1196 11.2724 33.3826 11.2581 32.5773L11.2577 32.5658C11.2577 31.973 11.4132 31.418 11.6866 30.9417C6.11397 32.0362 2.25792 36.7609 2.12404 42.1164L2.12407 42.1159Z"></path><path fill-rule="evenodd" clip-rule="evenodd" d="M51.0062 42.3923C51.334 42.3811 51.6183 42.6164 51.6688 42.9407C51.82 43.9165 52.662 44.6555 53.6693 44.6555C54.6092 44.6555 55.403 44.0183 55.6398 43.1378C55.7265 42.815 56.0451 42.6114 56.3745 42.6677C56.7042 42.7236 56.9368 43.0213 56.9117 43.355C56.4204 49.8787 50.9734 55.3827 43.639 55.3827C42.9686 55.3827 42.2883 55.3368 41.623 55.2184C41.1775 55.1478 40.756 55.0541 40.3364 54.9376C40.2963 54.9264 40.2573 54.9114 40.2203 54.8929C39.1585 54.3618 38.4639 53.2727 38.4639 52.0276C38.4639 50.2755 39.882 48.8277 41.6639 48.8277H41.7075C41.7565 48.8277 41.8062 48.8331 41.854 48.8443C42.1356 48.909 42.4229 48.9704 42.7041 49.0109C43.0589 49.0552 43.3975 49.0938 43.7277 49.0938C47.3041 49.0938 50.0994 46.3042 50.3829 42.985C50.4107 42.6584 50.6783 42.4038 51.0062 42.3926L51.0062 42.3923ZM51.2881 44.9436C50.2417 48.0398 47.3195 50.3894 43.7277 50.3894C43.3054 50.3894 42.8911 50.34 42.5378 50.2956L42.5263 50.2945C42.2162 50.2501 41.9107 50.1861 41.6357 50.1232C40.5902 50.1383 39.7598 50.9926 39.7598 52.0273C39.7598 52.7582 40.152 53.3845 40.7475 53.7062C41.1031 53.8026 41.4583 53.8801 41.8316 53.9391L41.8444 53.9415C42.4198 54.044 43.0241 54.0865 43.639 54.0865C49.3848 54.0865 53.8204 50.3712 55.2017 45.5784C54.7431 45.8167 54.222 45.9513 53.669 45.9513C52.7361 45.9513 51.8918 45.566 51.2879 44.9436L51.2881 44.9436Z"></path><path fill-rule="evenodd" clip-rule="evenodd" d="M45.6864 30.801C46.0493 31.3193 46.2622 31.9507 46.2622 32.6318C46.2622 33.3646 46.0185 34.0422 45.6031 34.5826C49.1104 35.2791 51.5526 38.2195 51.6987 42.0605C51.6987 42.0686 51.6991 42.077 51.6991 42.0851V42.4126C51.6991 42.5942 51.6991 42.8075 51.6822 43.0143C51.8638 43.9534 52.6881 44.6549 53.6696 44.6549C54.5963 44.6549 55.3808 44.0355 55.6299 43.1743C55.6615 42.9305 55.6623 42.6961 55.6623 42.3956C55.6623 42.3601 55.655 42.3127 55.6307 42.1901C55.623 42.153 55.6191 42.1152 55.618 42.0774C55.5439 38.7313 54.3464 35.8993 52.369 33.9064C50.6786 32.2025 48.3935 31.0871 45.6864 30.801ZM44.2722 29.4318H44.283C47.9276 29.4318 51.0539 30.7408 53.2894 32.9939C55.5113 35.2332 56.8191 38.3715 56.9124 41.9911C56.9324 42.0933 56.9583 42.2406 56.9583 42.3956V42.4126C56.9583 42.7131 56.9583 43.0409 56.9074 43.3972C56.9039 43.4231 56.8985 43.4489 56.8916 43.474C56.5074 44.9018 55.2151 45.9508 53.6696 45.9508C52.0142 45.9508 50.6366 44.7367 50.3887 43.1389C50.3798 43.0822 50.3786 43.0247 50.3848 42.968C50.4025 42.8107 50.4033 42.6263 50.4033 42.3957V42.0979C50.2552 38.3503 47.5959 35.7207 43.9721 35.7207H43.7954C43.473 35.7207 43.1988 35.4835 43.1533 35.1646C43.1078 34.8452 43.3037 34.5413 43.6134 34.4511C44.4041 34.2201 44.9664 33.4957 44.9664 32.6318C44.9664 31.6734 44.2552 30.8762 43.3257 30.7435C42.9986 30.6968 42.7591 30.4114 42.7699 30.0809C42.7807 29.7508 43.0384 29.4816 43.3677 29.4561C43.6813 29.4318 43.9906 29.4318 44.2722 29.4318Z"></path><path fill-rule="evenodd" clip-rule="evenodd" d="M43.4284 29.4769C43.4669 29.475 43.5055 29.4766 43.5437 29.4816C45.071 29.6794 46.2612 31.0251 46.2612 32.6318C46.2612 34.082 45.2865 35.3037 43.9783 35.6937C43.9182 35.7114 43.8561 35.7207 43.7932 35.7207C43.4893 35.7207 43.1989 35.7581 42.8622 35.8032C40.9638 36.0813 39.1989 37.0366 37.534 38.3183C35.886 39.5872 34.3814 41.1391 32.9687 42.5954L32.919 42.6471C32.6941 42.8789 32.3331 42.9098 32.072 42.7196C31.8113 42.5291 31.7303 42.1762 31.8823 41.8912C32.0026 41.6652 32.072 41.3732 32.072 41.0643C32.072 40.0461 31.2305 39.2045 30.2127 39.2045C29.9099 39.2045 29.6388 39.2716 29.4082 39.3947C29.1247 39.5459 28.7737 39.4664 28.5824 39.2088C28.3915 38.9508 28.4177 38.5917 28.6449 38.3649C28.7475 38.2619 28.8505 38.159 28.9538 38.056C32.5599 34.4457 36.5255 30.4755 42.0933 29.6173C42.5183 29.5467 42.9634 29.5001 43.4285 29.4769L43.4284 29.4769ZM43.4311 30.7744C43.0327 30.7964 42.6566 30.8373 42.3022 30.8963L42.2941 30.8978C37.6659 31.6098 34.2102 34.674 30.8686 37.9777C32.0781 38.2369 33.0381 39.1957 33.2983 40.4048C34.3628 39.3333 35.5113 38.2404 36.7439 37.2916C38.5007 35.9391 40.4738 34.8421 42.6791 34.5206L42.6872 34.5194L42.7026 34.5171C42.9977 34.4777 43.3305 34.4334 43.6888 34.4261C44.4255 34.1692 44.9655 33.4599 44.9655 32.6319C44.9655 31.6843 44.2762 30.9121 43.4312 30.7745L43.4311 30.7744Z"></path><path fill-rule="evenodd" clip-rule="evenodd" d="M29.5543 39.2664L29.4317 39.389L28.457 40.3861L26.0844 42.8031C26.084 42.8034 26.0836 42.8034 26.0836 42.8038C25.9764 42.9138 25.868 43.0252 25.7589 43.1374C23.7549 45.1989 21.3872 47.6349 18.6322 49.0777C19.4865 49.6388 20.0546 50.6046 20.0546 51.7153C20.0546 51.951 20.028 52.1809 19.9779 52.4022C23.0008 50.8071 25.542 48.2623 28.0918 45.7092C28.2168 45.5842 28.3413 45.4592 28.4663 45.3343C28.4671 45.3339 28.4678 45.3331 28.4686 45.3324L30.9697 42.7865L30.9721 42.7846L31.7646 41.9704C31.8198 41.9002 31.8738 41.8412 31.9208 41.7922C32.018 41.5786 32.0732 41.3167 32.0732 41.0417C32.0732 40.025 31.2301 39.1738 30.2636 39.1156C30.0013 39.1175 29.763 39.1704 29.5543 39.2664ZM28.8659 38.1622C29.3005 37.9304 29.7842 37.8197 30.2801 37.8197C30.2913 37.8197 30.3021 37.8201 30.3129 37.8204C31.9586 37.9041 33.369 39.3122 33.369 41.0416C33.369 41.5318 33.261 42.0386 33.0265 42.4783C32.9964 42.5346 32.9583 42.5863 32.9131 42.6314C32.8449 42.6997 32.809 42.7367 32.7735 42.7842C32.7569 42.8061 32.7388 42.8274 32.7195 42.8474L31.8984 43.6905L31.8961 43.6928L29.3845 46.2487C29.2364 46.3968 29.0879 46.5457 28.9387 46.6954C25.8791 49.7619 22.5742 53.074 18.2863 54.5474C17.9673 54.6569 17.6179 54.5038 17.4825 54.1952C17.3468 53.8867 17.4702 53.5261 17.7664 53.3653C18.348 53.0494 18.7592 52.4169 18.7592 51.7153C18.7592 50.679 17.9211 49.856 16.8994 49.856H16.7008C16.3834 49.856 16.1119 49.6261 16.0606 49.3129C16.0089 48.9997 16.1921 48.6955 16.4925 48.594C19.6913 47.5141 22.4312 44.6991 24.9115 42.1501C24.9933 42.066 25.0751 41.9823 25.1565 41.8986L25.158 41.8971L27.5319 39.4793L28.513 38.4753L28.7128 38.2756C28.7583 38.2304 28.8096 38.1922 28.8663 38.1622L28.8659 38.1622Z"></path><path fill-rule="evenodd" clip-rule="evenodd" d="M32.7158 12.4473C32.968 12.7015 32.9668 13.1115 32.7131 13.3637L28.9847 17.0697C28.8628 17.1912 28.6973 17.2587 28.5253 17.2579C28.3533 17.2575 28.1886 17.1881 28.0675 17.0658L25.8707 14.847C25.6189 14.5924 25.6208 14.1824 25.8753 13.9306C26.1295 13.6787 26.5399 13.6807 26.7917 13.9352L28.5315 15.6928L31.7994 12.4446C32.0532 12.1924 32.4635 12.1935 32.7158 12.4473Z"></path></mask><path fill-rule="evenodd" clip-rule="evenodd" d="M25.8775 0.90981C25.9449 0.615148 26.2068 0.406494 26.5092 0.406494H31.6353C31.9372 0.406494 32.1991 0.615148 32.2666 0.90981L32.8629 3.51352L35.6058 4.83912L38.0082 3.66744C38.2812 3.53438 38.6102 3.60882 38.7996 3.8464L41.9949 7.86329C42.1831 8.0997 42.1827 8.43525 41.9938 8.67128L40.3254 10.7566L41.0065 13.7198L43.41 14.8723C43.6827 15.0026 43.8289 15.3046 43.7618 15.5997L42.6302 20.5926C42.5631 20.8877 42.3008 21.0975 41.9981 21.0975H39.3365L37.4405 23.4721L38.0364 26.0743C38.1039 26.3693 37.9585 26.6717 37.6854 26.8028L33.0696 29.022C32.7977 29.1528 32.4714 29.0783 32.2832 28.8427L30.6136 26.7562H27.5749L25.9057 28.8427C25.7171 29.0783 25.3908 29.1528 25.1189 29.022L20.5031 26.8028C20.2304 26.6717 20.0847 26.3693 20.1521 26.0743L20.748 23.474L18.832 21.0975H16.1682C15.8654 21.0975 15.6031 20.8877 15.5364 20.5926L14.4044 15.5997C14.3377 15.3046 14.4839 15.0026 14.7566 14.8723L17.1601 13.7198L17.8409 10.7566L16.1727 8.67128C15.9838 8.43525 15.9834 8.0997 16.1716 7.86329L19.3669 3.8464C19.5567 3.60805 19.8868 3.534 20.1599 3.6686L22.5395 4.8384L25.2814 3.51359L25.8775 0.90981ZM27.0252 1.70238L26.4749 4.10595C26.4309 4.29802 26.3025 4.45923 26.1251 4.54485L22.8187 6.14276C22.6393 6.22954 22.4299 6.22877 22.2509 6.14083L20.0561 5.06167L17.5076 8.26549L19.0483 10.192C19.1721 10.3463 19.2184 10.5487 19.174 10.7416L18.3529 14.3146C18.309 14.5066 18.1794 14.6682 18.0016 14.7535L15.7827 15.8171L16.6856 19.8015H19.1416C19.3375 19.8015 19.523 19.8902 19.6461 20.0426L21.954 22.9051C22.0786 23.0597 22.1256 23.263 22.0813 23.4566L21.5309 25.859L25.2156 27.6307L26.7576 25.7032C26.8806 25.5493 27.0665 25.4602 27.2636 25.4602H30.9248C31.1219 25.4602 31.3078 25.5493 31.4308 25.7032L32.9728 27.6307L36.6575 25.859L36.1075 23.4566C36.0632 23.2641 36.1095 23.062 36.2325 22.9074L38.5184 20.0449C38.641 19.891 38.8277 19.8015 39.0248 19.8015H41.4808L42.3836 15.8171L40.1648 14.7535C39.9866 14.6682 39.8574 14.5066 39.8134 14.3146L38.9923 10.7416C38.948 10.5487 38.9943 10.3463 39.1177 10.192L40.6588 8.26549L38.1087 5.06009L35.8911 6.14152C35.7125 6.22869 35.5042 6.22907 35.3253 6.14268L32.0189 4.54477C31.8418 4.45915 31.713 4.29794 31.6691 4.10587L31.1187 1.7023L27.0252 1.70238ZM20.957 14.8794C20.957 10.4175 24.5743 6.77512 29.0608 6.77512C33.5463 6.77512 37.1651 10.3939 37.1651 14.8794C37.1651 19.3645 33.5463 22.9833 29.0608 22.9833C24.5757 22.9833 20.957 19.3645 20.957 14.8794ZM29.0608 8.071C25.2928 8.071 22.2528 11.1306 22.2528 14.8794C22.2528 18.649 25.2912 21.6874 29.0608 21.6874C32.8305 21.6874 35.8692 18.649 35.8692 14.8794C35.8692 11.1097 32.8305 8.071 29.0608 8.071Z" fill="#1742E7"></path><path fill-rule="evenodd" clip-rule="evenodd" d="M32.7345 41.9599C32.6161 41.8299 32.4453 41.7481 32.2555 41.7481C31.8976 41.7481 31.6076 42.0382 31.6076 42.3961C31.6076 42.5218 31.6427 42.6583 31.7283 42.781C31.7861 42.8635 31.8521 42.9163 31.888 42.9422C32.3762 43.3961 32.8872 43.8983 33.4153 44.4171C34.3046 45.2906 35.2422 46.2117 36.2006 47.0301C37.2894 47.9599 38.4681 48.8169 39.7651 49.429C38.9737 50.0145 38.4646 50.9547 38.4646 52.005C38.4646 52.3093 38.5059 52.6043 38.5842 52.8839C37.1873 52.2248 35.8694 51.3293 34.6082 50.3061C32.9655 48.9732 31.4495 47.4505 29.9881 45.9826C29.7787 45.772 29.57 45.563 29.3629 45.3555C29.1099 45.1025 28.6996 45.1025 28.4466 45.3555C28.1936 45.6085 28.1936 46.0185 28.4466 46.2715C28.6506 46.4759 28.8573 46.6838 29.0663 46.8936C30.5231 48.3572 32.0912 49.9327 33.7916 51.3123C35.7397 52.8928 37.9006 54.2504 40.3401 54.9157C40.6613 55.0033 40.9969 54.8328 41.1157 54.5215C41.2345 54.2107 41.0979 53.8601 40.8002 53.7108C40.1754 53.3984 39.7604 52.7567 39.7604 52.005C39.7604 50.961 40.6058 50.1009 41.6641 50.1009H41.7081C42.034 50.1009 42.3101 49.8584 42.3514 49.5348C42.3926 49.2112 42.1867 48.9073 41.8708 48.8255C40.1237 48.3735 38.5482 47.3306 37.0421 46.0448C36.1049 45.2445 35.2422 44.396 34.3864 43.5537C33.8426 43.0184 33.3015 42.4858 32.745 41.9697C32.7415 41.9666 32.738 41.9632 32.7345 41.9601L32.7345 41.9599Z" fill="#1742E7"></path><path fill-rule="evenodd" clip-rule="evenodd" d="M13.7914 29.4453C13.8354 29.4361 13.8802 29.4311 13.9253 29.4311H14.147C14.5223 29.4311 14.8945 29.4546 15.2435 29.4762L15.2527 29.477C15.2597 29.4774 15.2666 29.4777 15.2736 29.4785C18.2417 29.7601 20.8219 31.0953 23.1114 32.8023C25.1771 34.3427 27.0445 36.2167 28.7608 37.9387C28.9405 38.1196 29.1191 38.2982 29.2957 38.4752L29.2969 38.4764C29.3332 38.5122 29.4145 38.5936 29.4836 38.7324C29.607 38.9789 29.5607 39.2766 29.3682 39.4741L26.0398 42.8916C25.7949 43.1427 25.3946 43.1535 25.1366 42.9159C24.5415 42.3678 23.9618 41.797 23.3798 41.2239C22.3913 40.2508 21.3962 39.2708 20.3067 38.3845C18.609 37.003 16.8217 35.9782 14.7996 35.7838C14.7838 35.7827 14.768 35.7811 14.7526 35.78C14.5019 35.7592 14.2998 35.7422 14.0807 35.7422H13.9253C13.8763 35.7422 13.8277 35.7364 13.7795 35.7256C12.3382 35.3928 11.2804 34.1154 11.2804 32.5866C11.2804 31.0416 12.3341 29.7534 13.7916 29.4452L13.7914 29.4453ZM13.9982 30.7269C13.1786 30.9294 12.5762 31.6691 12.5762 32.5867C12.5762 33.4756 13.1729 34.2235 14.0044 34.4464H14.0804C14.3558 34.4464 14.6103 34.4676 14.8506 34.4877C14.871 34.4896 14.8911 34.4911 14.9111 34.4931L14.9192 34.4935C17.3113 34.7218 19.3398 35.9271 21.1248 37.3795C22.2514 38.2962 23.3391 39.3649 24.3642 40.3731C24.7715 40.7734 25.1691 41.1641 25.5551 41.532L28.0053 39.0163L27.8479 38.8589C26.1217 37.1268 24.3217 35.3211 22.337 33.8412C20.1576 32.216 17.8038 31.0227 15.1614 30.7693C14.807 30.7474 14.4757 30.7269 14.1474 30.7269L13.9982 30.7269Z" fill="#1742E7"></path><path fill-rule="evenodd" clip-rule="evenodd" d="M6.78135 42.5246C7.10879 42.5362 7.37606 42.7903 7.40422 43.1166C7.7089 46.6525 10.3223 49.0927 13.8154 49.0927C14.4128 49.0927 14.981 49.031 15.5444 48.8902C15.5514 48.8883 15.5587 48.8867 15.5656 48.8852C15.8476 48.825 16.1307 48.744 16.4157 48.6422C16.4855 48.6172 16.5591 48.6044 16.6336 48.6044H16.8326C18.5809 48.6044 20.0109 49.9968 20.0109 51.7601C20.0109 52.9588 19.3418 54.0206 18.334 54.5523C18.3067 54.5666 18.2785 54.579 18.2496 54.5894C17.9144 54.7089 17.5843 54.803 17.2464 54.8929C16.0555 55.22 14.8001 55.3816 13.4826 55.3816C6.47478 55.3816 1.34131 50.4256 0.875286 43.4822C0.852917 43.1505 1.08548 42.8554 1.41369 42.7999C1.74152 42.7444 2.05854 42.9464 2.14648 43.2673C2.38213 44.1255 3.17509 44.7657 4.1181 44.7657C5.12815 44.7657 5.96817 44.0237 6.11864 43.0714C6.16994 42.7479 6.45418 42.5134 6.78162 42.5249L6.78135 42.5246ZM6.47589 45.0813C5.87307 45.6865 5.03773 46.0613 4.11783 46.0613C3.53622 46.0613 2.99048 45.9129 2.51498 45.6525C3.75952 50.708 7.96153 54.0858 13.4823 54.0858C14.6938 54.0858 15.8338 53.9369 16.9056 53.643L16.9103 53.6419C17.2196 53.5589 17.4965 53.4799 17.7672 53.3854C18.3361 53.0672 18.7149 52.4543 18.7149 51.7601C18.7149 50.7273 17.8806 49.9004 16.8331 49.9004H16.744C16.4466 50.0022 16.1473 50.0855 15.8477 50.1503C15.172 50.318 14.5009 50.3886 13.8151 50.3886C10.2789 50.3886 7.47733 48.2651 6.47567 45.0813L6.47589 45.0813Z" fill="#1742E7"></path><path fill-rule="evenodd" clip-rule="evenodd" d="M14.5468 29.9844C14.5846 30.3161 14.3639 30.6223 14.0369 30.6918C13.188 30.8711 12.5563 31.622 12.5536 32.5596C12.5733 33.5072 13.2116 34.2597 14.0593 34.439C14.3813 34.5069 14.6008 34.8054 14.5703 35.1332C14.5399 35.4607 14.2687 35.7133 13.9397 35.7206C10.3044 35.8012 7.53242 38.727 7.40554 42.1414V42.3952C7.40554 42.6455 7.40593 42.8823 7.42483 43.0917C7.43023 43.148 7.42791 43.2047 7.41827 43.2602C7.14328 44.855 5.76675 46.0394 4.11681 46.0394C2.57409 46.0394 1.28127 44.9934 0.895619 43.588C0.884048 43.546 0.87672 43.5032 0.874021 43.4596L0.873249 43.4515C0.851651 43.1233 0.828125 42.7723 0.828125 42.3959V42.0916C0.992043 35.3561 6.44016 29.5495 13.8906 29.4093C14.2246 29.4031 14.5089 29.6519 14.5466 29.9839L14.5468 29.9844ZM2.12407 42.1159V42.3962C2.12407 42.7032 2.14182 42.9948 2.16226 43.3037C2.41719 44.1326 3.19551 44.7439 4.11689 44.7439C5.10384 44.7439 5.92915 44.0566 6.12701 43.1156C6.10966 42.8703 6.10966 42.618 6.10966 42.409V42.1298C6.10966 42.1221 6.10966 42.1147 6.11004 42.107C6.23346 38.6293 8.65244 35.5713 12.0557 34.6827C11.5674 34.1196 11.2724 33.3826 11.2581 32.5773L11.2577 32.5658C11.2577 31.973 11.4132 31.418 11.6866 30.9417C6.11397 32.0362 2.25792 36.7609 2.12404 42.1164L2.12407 42.1159Z" fill="#1742E7"></path><path fill-rule="evenodd" clip-rule="evenodd" d="M51.0062 42.3923C51.334 42.3811 51.6183 42.6164 51.6688 42.9407C51.82 43.9165 52.662 44.6555 53.6693 44.6555C54.6092 44.6555 55.403 44.0183 55.6398 43.1378C55.7265 42.815 56.0451 42.6114 56.3745 42.6677C56.7042 42.7236 56.9368 43.0213 56.9117 43.355C56.4204 49.8787 50.9734 55.3827 43.639 55.3827C42.9686 55.3827 42.2883 55.3368 41.623 55.2184C41.1775 55.1478 40.756 55.0541 40.3364 54.9376C40.2963 54.9264 40.2573 54.9114 40.2203 54.8929C39.1585 54.3618 38.4639 53.2727 38.4639 52.0276C38.4639 50.2755 39.882 48.8277 41.6639 48.8277H41.7075C41.7565 48.8277 41.8062 48.8331 41.854 48.8443C42.1356 48.909 42.4229 48.9704 42.7041 49.0109C43.0589 49.0552 43.3975 49.0938 43.7277 49.0938C47.3041 49.0938 50.0994 46.3042 50.3829 42.985C50.4107 42.6584 50.6783 42.4038 51.0062 42.3926L51.0062 42.3923ZM51.2881 44.9436C50.2417 48.0398 47.3195 50.3894 43.7277 50.3894C43.3054 50.3894 42.8911 50.34 42.5378 50.2956L42.5263 50.2945C42.2162 50.2501 41.9107 50.1861 41.6357 50.1232C40.5902 50.1383 39.7598 50.9926 39.7598 52.0273C39.7598 52.7582 40.152 53.3845 40.7475 53.7062C41.1031 53.8026 41.4583 53.8801 41.8316 53.9391L41.8444 53.9415C42.4198 54.044 43.0241 54.0865 43.639 54.0865C49.3848 54.0865 53.8204 50.3712 55.2017 45.5784C54.7431 45.8167 54.222 45.9513 53.669 45.9513C52.7361 45.9513 51.8918 45.566 51.2879 44.9436L51.2881 44.9436Z" fill="#1742E7"></path><path fill-rule="evenodd" clip-rule="evenodd" d="M45.6864 30.801C46.0493 31.3193 46.2622 31.9507 46.2622 32.6318C46.2622 33.3646 46.0185 34.0422 45.6031 34.5826C49.1104 35.2791 51.5526 38.2195 51.6987 42.0605C51.6987 42.0686 51.6991 42.077 51.6991 42.0851V42.4126C51.6991 42.5942 51.6991 42.8075 51.6822 43.0143C51.8638 43.9534 52.6881 44.6549 53.6696 44.6549C54.5963 44.6549 55.3808 44.0355 55.6299 43.1743C55.6615 42.9305 55.6623 42.6961 55.6623 42.3956C55.6623 42.3601 55.655 42.3127 55.6307 42.1901C55.623 42.153 55.6191 42.1152 55.618 42.0774C55.5439 38.7313 54.3464 35.8993 52.369 33.9064C50.6786 32.2025 48.3935 31.0871 45.6864 30.801ZM44.2722 29.4318H44.283C47.9276 29.4318 51.0539 30.7408 53.2894 32.9939C55.5113 35.2332 56.8191 38.3715 56.9124 41.9911C56.9324 42.0933 56.9583 42.2406 56.9583 42.3956V42.4126C56.9583 42.7131 56.9583 43.0409 56.9074 43.3972C56.9039 43.4231 56.8985 43.4489 56.8916 43.474C56.5074 44.9018 55.2151 45.9508 53.6696 45.9508C52.0142 45.9508 50.6366 44.7367 50.3887 43.1389C50.3798 43.0822 50.3786 43.0247 50.3848 42.968C50.4025 42.8107 50.4033 42.6263 50.4033 42.3957V42.0979C50.2552 38.3503 47.5959 35.7207 43.9721 35.7207H43.7954C43.473 35.7207 43.1988 35.4835 43.1533 35.1646C43.1078 34.8452 43.3037 34.5413 43.6134 34.4511C44.4041 34.2201 44.9664 33.4957 44.9664 32.6318C44.9664 31.6734 44.2552 30.8762 43.3257 30.7435C42.9986 30.6968 42.7591 30.4114 42.7699 30.0809C42.7807 29.7508 43.0384 29.4816 43.3677 29.4561C43.6813 29.4318 43.9906 29.4318 44.2722 29.4318Z" fill="#1742E7"></path><path fill-rule="evenodd" clip-rule="evenodd" d="M43.4284 29.4769C43.4669 29.475 43.5055 29.4766 43.5437 29.4816C45.071 29.6794 46.2612 31.0251 46.2612 32.6318C46.2612 34.082 45.2865 35.3037 43.9783 35.6937C43.9182 35.7114 43.8561 35.7207 43.7932 35.7207C43.4893 35.7207 43.1989 35.7581 42.8622 35.8032C40.9638 36.0813 39.1989 37.0366 37.534 38.3183C35.886 39.5872 34.3814 41.1391 32.9687 42.5954L32.919 42.6471C32.6941 42.8789 32.3331 42.9098 32.072 42.7196C31.8113 42.5291 31.7303 42.1762 31.8823 41.8912C32.0026 41.6652 32.072 41.3732 32.072 41.0643C32.072 40.0461 31.2305 39.2045 30.2127 39.2045C29.9099 39.2045 29.6388 39.2716 29.4082 39.3947C29.1247 39.5459 28.7737 39.4664 28.5824 39.2088C28.3915 38.9508 28.4177 38.5917 28.6449 38.3649C28.7475 38.2619 28.8505 38.159 28.9538 38.056C32.5599 34.4457 36.5255 30.4755 42.0933 29.6173C42.5183 29.5467 42.9634 29.5001 43.4285 29.4769L43.4284 29.4769ZM43.4311 30.7744C43.0327 30.7964 42.6566 30.8373 42.3022 30.8963L42.2941 30.8978C37.6659 31.6098 34.2102 34.674 30.8686 37.9777C32.0781 38.2369 33.0381 39.1957 33.2983 40.4048C34.3628 39.3333 35.5113 38.2404 36.7439 37.2916C38.5007 35.9391 40.4738 34.8421 42.6791 34.5206L42.6872 34.5194L42.7026 34.5171C42.9977 34.4777 43.3305 34.4334 43.6888 34.4261C44.4255 34.1692 44.9655 33.4599 44.9655 32.6319C44.9655 31.6843 44.2762 30.9121 43.4312 30.7745L43.4311 30.7744Z" fill="#1742E7"></path><path fill-rule="evenodd" clip-rule="evenodd" d="M29.5543 39.2664L29.4317 39.389L28.457 40.3861L26.0844 42.8031C26.084 42.8034 26.0836 42.8034 26.0836 42.8038C25.9764 42.9138 25.868 43.0252 25.7589 43.1374C23.7549 45.1989 21.3872 47.6349 18.6322 49.0777C19.4865 49.6388 20.0546 50.6046 20.0546 51.7153C20.0546 51.951 20.028 52.1809 19.9779 52.4022C23.0008 50.8071 25.542 48.2623 28.0918 45.7092C28.2168 45.5842 28.3413 45.4592 28.4663 45.3343C28.4671 45.3339 28.4678 45.3331 28.4686 45.3324L30.9697 42.7865L30.9721 42.7846L31.7646 41.9704C31.8198 41.9002 31.8738 41.8412 31.9208 41.7922C32.018 41.5786 32.0732 41.3167 32.0732 41.0417C32.0732 40.025 31.2301 39.1738 30.2636 39.1156C30.0013 39.1175 29.763 39.1704 29.5543 39.2664ZM28.8659 38.1622C29.3005 37.9304 29.7842 37.8197 30.2801 37.8197C30.2913 37.8197 30.3021 37.8201 30.3129 37.8204C31.9586 37.9041 33.369 39.3122 33.369 41.0416C33.369 41.5318 33.261 42.0386 33.0265 42.4783C32.9964 42.5346 32.9583 42.5863 32.9131 42.6314C32.8449 42.6997 32.809 42.7367 32.7735 42.7842C32.7569 42.8061 32.7388 42.8274 32.7195 42.8474L31.8984 43.6905L31.8961 43.6928L29.3845 46.2487C29.2364 46.3968 29.0879 46.5457 28.9387 46.6954C25.8791 49.7619 22.5742 53.074 18.2863 54.5474C17.9673 54.6569 17.6179 54.5038 17.4825 54.1952C17.3468 53.8867 17.4702 53.5261 17.7664 53.3653C18.348 53.0494 18.7592 52.4169 18.7592 51.7153C18.7592 50.679 17.9211 49.856 16.8994 49.856H16.7008C16.3834 49.856 16.1119 49.6261 16.0606 49.3129C16.0089 48.9997 16.1921 48.6955 16.4925 48.594C19.6913 47.5141 22.4312 44.6991 24.9115 42.1501C24.9933 42.066 25.0751 41.9823 25.1565 41.8986L25.158 41.8971L27.5319 39.4793L28.513 38.4753L28.7128 38.2756C28.7583 38.2304 28.8096 38.1922 28.8663 38.1622L28.8659 38.1622Z" fill="#1742E7"></path><path fill-rule="evenodd" clip-rule="evenodd" d="M32.7158 12.4473C32.968 12.7015 32.9668 13.1115 32.7131 13.3637L28.9847 17.0697C28.8628 17.1912 28.6973 17.2587 28.5253 17.2579C28.3533 17.2575 28.1886 17.1881 28.0675 17.0658L25.8707 14.847C25.6189 14.5924 25.6208 14.1824 25.8753 13.9306C26.1295 13.6787 26.5399 13.6807 26.7917 13.9352L28.5315 15.6928L31.7994 12.4446C32.0532 12.1924 32.4635 12.1935 32.7158 12.4473Z" fill="#1742E7"></path><path fill-rule="evenodd" clip-rule="evenodd" d="M25.8775 0.90981C25.9449 0.615148 26.2068 0.406494 26.5092 0.406494H31.6353C31.9372 0.406494 32.1991 0.615148 32.2666 0.90981L32.8629 3.51352L35.6058 4.83912L38.0082 3.66744C38.2812 3.53438 38.6102 3.60882 38.7996 3.8464L41.9949 7.86329C42.1831 8.0997 42.1827 8.43525 41.9938 8.67128L40.3254 10.7566L41.0065 13.7198L43.41 14.8723C43.6827 15.0026 43.8289 15.3046 43.7618 15.5997L42.6302 20.5926C42.5631 20.8877 42.3008 21.0975 41.9981 21.0975H39.3365L37.4405 23.4721L38.0364 26.0743C38.1039 26.3693 37.9585 26.6717 37.6854 26.8028L33.0696 29.022C32.7977 29.1528 32.4714 29.0783 32.2832 28.8427L30.6136 26.7562H27.5749L25.9057 28.8427C25.7171 29.0783 25.3908 29.1528 25.1189 29.022L20.5031 26.8028C20.2304 26.6717 20.0847 26.3693 20.1521 26.0743L20.748 23.474L18.832 21.0975H16.1682C15.8654 21.0975 15.6031 20.8877 15.5364 20.5926L14.4044 15.5997C14.3377 15.3046 14.4839 15.0026 14.7566 14.8723L17.1601 13.7198L17.8409 10.7566L16.1727 8.67128C15.9838 8.43525 15.9834 8.0997 16.1716 7.86329L19.3669 3.8464C19.5567 3.60805 19.8868 3.534 20.1599 3.6686L22.5395 4.8384L25.2814 3.51359L25.8775 0.90981ZM27.0252 1.70238L26.4749 4.10595C26.4309 4.29802 26.3025 4.45923 26.1251 4.54485L22.8187 6.14276C22.6393 6.22954 22.4299 6.22877 22.2509 6.14083L20.0561 5.06167L17.5076 8.26549L19.0483 10.192C19.1721 10.3463 19.2184 10.5487 19.174 10.7416L18.3529 14.3146C18.309 14.5066 18.1794 14.6682 18.0016 14.7535L15.7827 15.8171L16.6856 19.8015H19.1416C19.3375 19.8015 19.523 19.8902 19.6461 20.0426L21.954 22.9051C22.0786 23.0597 22.1256 23.263 22.0813 23.4566L21.5309 25.859L25.2156 27.6307L26.7576 25.7032C26.8806 25.5493 27.0665 25.4602 27.2636 25.4602H30.9248C31.1219 25.4602 31.3078 25.5493 31.4308 25.7032L32.9728 27.6307L36.6575 25.859L36.1075 23.4566C36.0632 23.2641 36.1095 23.062 36.2325 22.9074L38.5184 20.0449C38.641 19.891 38.8277 19.8015 39.0248 19.8015H41.4808L42.3836 15.8171L40.1648 14.7535C39.9866 14.6682 39.8574 14.5066 39.8134 14.3146L38.9923 10.7416C38.948 10.5487 38.9943 10.3463 39.1177 10.192L40.6588 8.26549L38.1087 5.06009L35.8911 6.14152C35.7125 6.22869 35.5042 6.22907 35.3253 6.14268L32.0189 4.54477C31.8418 4.45915 31.713 4.29794 31.6691 4.10587L31.1187 1.7023L27.0252 1.70238ZM20.957 14.8794C20.957 10.4175 24.5743 6.77512 29.0608 6.77512C33.5463 6.77512 37.1651 10.3939 37.1651 14.8794C37.1651 19.3645 33.5463 22.9833 29.0608 22.9833C24.5757 22.9833 20.957 19.3645 20.957 14.8794ZM29.0608 8.071C25.2928 8.071 22.2528 11.1306 22.2528 14.8794C22.2528 18.649 25.2912 21.6874 29.0608 21.6874C32.8305 21.6874 35.8692 18.649 35.8692 14.8794C35.8692 11.1097 32.8305 8.071 29.0608 8.071Z" stroke="#1742E7" stroke-width="0.56" mask="url(#path-1-inside-1_3325_155)"></path><path fill-rule="evenodd" clip-rule="evenodd" d="M32.7345 41.9599C32.6161 41.8299 32.4453 41.7481 32.2555 41.7481C31.8976 41.7481 31.6076 42.0382 31.6076 42.3961C31.6076 42.5218 31.6427 42.6583 31.7283 42.781C31.7861 42.8635 31.8521 42.9163 31.888 42.9422C32.3762 43.3961 32.8872 43.8983 33.4153 44.4171C34.3046 45.2906 35.2422 46.2117 36.2006 47.0301C37.2894 47.9599 38.4681 48.8169 39.7651 49.429C38.9737 50.0145 38.4646 50.9547 38.4646 52.005C38.4646 52.3093 38.5059 52.6043 38.5842 52.8839C37.1873 52.2248 35.8694 51.3293 34.6082 50.3061C32.9655 48.9732 31.4495 47.4505 29.9881 45.9826C29.7787 45.772 29.57 45.563 29.3629 45.3555C29.1099 45.1025 28.6996 45.1025 28.4466 45.3555C28.1936 45.6085 28.1936 46.0185 28.4466 46.2715C28.6506 46.4759 28.8573 46.6838 29.0663 46.8936C30.5231 48.3572 32.0912 49.9327 33.7916 51.3123C35.7397 52.8928 37.9006 54.2504 40.3401 54.9157C40.6613 55.0033 40.9969 54.8328 41.1157 54.5215C41.2345 54.2107 41.0979 53.8601 40.8002 53.7108C40.1754 53.3984 39.7604 52.7567 39.7604 52.005C39.7604 50.961 40.6058 50.1009 41.6641 50.1009H41.7081C42.034 50.1009 42.3101 49.8584 42.3514 49.5348C42.3926 49.2112 42.1867 48.9073 41.8708 48.8255C40.1237 48.3735 38.5482 47.3306 37.0421 46.0448C36.1049 45.2445 35.2422 44.396 34.3864 43.5537C33.8426 43.0184 33.3015 42.4858 32.745 41.9697C32.7415 41.9666 32.738 41.9632 32.7345 41.9601L32.7345 41.9599Z" stroke="#1742E7" stroke-width="0.56" mask="url(#path-1-inside-1_3325_155)"></path><path fill-rule="evenodd" clip-rule="evenodd" d="M13.7914 29.4453C13.8354 29.4361 13.8802 29.4311 13.9253 29.4311H14.147C14.5223 29.4311 14.8945 29.4546 15.2435 29.4762L15.2527 29.477C15.2597 29.4774 15.2666 29.4777 15.2736 29.4785C18.2417 29.7601 20.8219 31.0953 23.1114 32.8023C25.1771 34.3427 27.0445 36.2167 28.7608 37.9387C28.9405 38.1196 29.1191 38.2982 29.2957 38.4752L29.2969 38.4764C29.3332 38.5122 29.4145 38.5936 29.4836 38.7324C29.607 38.9789 29.5607 39.2766 29.3682 39.4741L26.0398 42.8916C25.7949 43.1427 25.3946 43.1535 25.1366 42.9159C24.5415 42.3678 23.9618 41.797 23.3798 41.2239C22.3913 40.2508 21.3962 39.2708 20.3067 38.3845C18.609 37.003 16.8217 35.9782 14.7996 35.7838C14.7838 35.7827 14.768 35.7811 14.7526 35.78C14.5019 35.7592 14.2998 35.7422 14.0807 35.7422H13.9253C13.8763 35.7422 13.8277 35.7364 13.7795 35.7256C12.3382 35.3928 11.2804 34.1154 11.2804 32.5866C11.2804 31.0416 12.3341 29.7534 13.7916 29.4452L13.7914 29.4453ZM13.9982 30.7269C13.1786 30.9294 12.5762 31.6691 12.5762 32.5867C12.5762 33.4756 13.1729 34.2235 14.0044 34.4464H14.0804C14.3558 34.4464 14.6103 34.4676 14.8506 34.4877C14.871 34.4896 14.8911 34.4911 14.9111 34.4931L14.9192 34.4935C17.3113 34.7218 19.3398 35.9271 21.1248 37.3795C22.2514 38.2962 23.3391 39.3649 24.3642 40.3731C24.7715 40.7734 25.1691 41.1641 25.5551 41.532L28.0053 39.0163L27.8479 38.8589C26.1217 37.1268 24.3217 35.3211 22.337 33.8412C20.1576 32.216 17.8038 31.0227 15.1614 30.7693C14.807 30.7474 14.4757 30.7269 14.1474 30.7269L13.9982 30.7269Z" stroke="#1742E7" stroke-width="0.56" mask="url(#path-1-inside-1_3325_155)"></path><path fill-rule="evenodd" clip-rule="evenodd" d="M6.78135 42.5246C7.10879 42.5362 7.37606 42.7903 7.40422 43.1166C7.7089 46.6525 10.3223 49.0927 13.8154 49.0927C14.4128 49.0927 14.981 49.031 15.5444 48.8902C15.5514 48.8883 15.5587 48.8867 15.5656 48.8852C15.8476 48.825 16.1307 48.744 16.4157 48.6422C16.4855 48.6172 16.5591 48.6044 16.6336 48.6044H16.8326C18.5809 48.6044 20.0109 49.9968 20.0109 51.7601C20.0109 52.9588 19.3418 54.0206 18.334 54.5523C18.3067 54.5666 18.2785 54.579 18.2496 54.5894C17.9144 54.7089 17.5843 54.803 17.2464 54.8929C16.0555 55.22 14.8001 55.3816 13.4826 55.3816C6.47478 55.3816 1.34131 50.4256 0.875286 43.4822C0.852917 43.1505 1.08548 42.8554 1.41369 42.7999C1.74152 42.7444 2.05854 42.9464 2.14648 43.2673C2.38213 44.1255 3.17509 44.7657 4.1181 44.7657C5.12815 44.7657 5.96817 44.0237 6.11864 43.0714C6.16994 42.7479 6.45418 42.5134 6.78162 42.5249L6.78135 42.5246ZM6.47589 45.0813C5.87307 45.6865 5.03773 46.0613 4.11783 46.0613C3.53622 46.0613 2.99048 45.9129 2.51498 45.6525C3.75952 50.708 7.96153 54.0858 13.4823 54.0858C14.6938 54.0858 15.8338 53.9369 16.9056 53.643L16.9103 53.6419C17.2196 53.5589 17.4965 53.4799 17.7672 53.3854C18.3361 53.0672 18.7149 52.4543 18.7149 51.7601C18.7149 50.7273 17.8806 49.9004 16.8331 49.9004H16.744C16.4466 50.0022 16.1473 50.0855 15.8477 50.1503C15.172 50.318 14.5009 50.3886 13.8151 50.3886C10.2789 50.3886 7.47733 48.2651 6.47567 45.0813L6.47589 45.0813Z" stroke="#1742E7" stroke-width="0.56" mask="url(#path-1-inside-1_3325_155)"></path><path fill-rule="evenodd" clip-rule="evenodd" d="M14.5468 29.9844C14.5846 30.3161 14.3639 30.6223 14.0369 30.6918C13.188 30.8711 12.5563 31.622 12.5536 32.5596C12.5733 33.5072 13.2116 34.2597 14.0593 34.439C14.3813 34.5069 14.6008 34.8054 14.5703 35.1332C14.5399 35.4607 14.2687 35.7133 13.9397 35.7206C10.3044 35.8012 7.53242 38.727 7.40554 42.1414V42.3952C7.40554 42.6455 7.40593 42.8823 7.42483 43.0917C7.43023 43.148 7.42791 43.2047 7.41827 43.2602C7.14328 44.855 5.76675 46.0394 4.11681 46.0394C2.57409 46.0394 1.28127 44.9934 0.895619 43.588C0.884048 43.546 0.87672 43.5032 0.874021 43.4596L0.873249 43.4515C0.851651 43.1233 0.828125 42.7723 0.828125 42.3959V42.0916C0.992043 35.3561 6.44016 29.5495 13.8906 29.4093C14.2246 29.4031 14.5089 29.6519 14.5466 29.9839L14.5468 29.9844ZM2.12407 42.1159V42.3962C2.12407 42.7032 2.14182 42.9948 2.16226 43.3037C2.41719 44.1326 3.19551 44.7439 4.11689 44.7439C5.10384 44.7439 5.92915 44.0566 6.12701 43.1156C6.10966 42.8703 6.10966 42.618 6.10966 42.409V42.1298C6.10966 42.1221 6.10966 42.1147 6.11004 42.107C6.23346 38.6293 8.65244 35.5713 12.0557 34.6827C11.5674 34.1196 11.2724 33.3826 11.2581 32.5773L11.2577 32.5658C11.2577 31.973 11.4132 31.418 11.6866 30.9417C6.11397 32.0362 2.25792 36.7609 2.12404 42.1164L2.12407 42.1159Z" stroke="#1742E7" stroke-width="0.56" mask="url(#path-1-inside-1_3325_155)"></path><path fill-rule="evenodd" clip-rule="evenodd" d="M51.0062 42.3923C51.334 42.3811 51.6183 42.6164 51.6688 42.9407C51.82 43.9165 52.662 44.6555 53.6693 44.6555C54.6092 44.6555 55.403 44.0183 55.6398 43.1378C55.7265 42.815 56.0451 42.6114 56.3745 42.6677C56.7042 42.7236 56.9368 43.0213 56.9117 43.355C56.4204 49.8787 50.9734 55.3827 43.639 55.3827C42.9686 55.3827 42.2883 55.3368 41.623 55.2184C41.1775 55.1478 40.756 55.0541 40.3364 54.9376C40.2963 54.9264 40.2573 54.9114 40.2203 54.8929C39.1585 54.3618 38.4639 53.2727 38.4639 52.0276C38.4639 50.2755 39.882 48.8277 41.6639 48.8277H41.7075C41.7565 48.8277 41.8062 48.8331 41.854 48.8443C42.1356 48.909 42.4229 48.9704 42.7041 49.0109C43.0589 49.0552 43.3975 49.0938 43.7277 49.0938C47.3041 49.0938 50.0994 46.3042 50.3829 42.985C50.4107 42.6584 50.6783 42.4038 51.0062 42.3926L51.0062 42.3923ZM51.2881 44.9436C50.2417 48.0398 47.3195 50.3894 43.7277 50.3894C43.3054 50.3894 42.8911 50.34 42.5378 50.2956L42.5263 50.2945C42.2162 50.2501 41.9107 50.1861 41.6357 50.1232C40.5902 50.1383 39.7598 50.9926 39.7598 52.0273C39.7598 52.7582 40.152 53.3845 40.7475 53.7062C41.1031 53.8026 41.4583 53.8801 41.8316 53.9391L41.8444 53.9415C42.4198 54.044 43.0241 54.0865 43.639 54.0865C49.3848 54.0865 53.8204 50.3712 55.2017 45.5784C54.7431 45.8167 54.222 45.9513 53.669 45.9513C52.7361 45.9513 51.8918 45.566 51.2879 44.9436L51.2881 44.9436Z" stroke="#1742E7" stroke-width="0.56" mask="url(#path-1-inside-1_3325_155)"></path><path fill-rule="evenodd" clip-rule="evenodd" d="M45.6864 30.801C46.0493 31.3193 46.2622 31.9507 46.2622 32.6318C46.2622 33.3646 46.0185 34.0422 45.6031 34.5826C49.1104 35.2791 51.5526 38.2195 51.6987 42.0605C51.6987 42.0686 51.6991 42.077 51.6991 42.0851V42.4126C51.6991 42.5942 51.6991 42.8075 51.6822 43.0143C51.8638 43.9534 52.6881 44.6549 53.6696 44.6549C54.5963 44.6549 55.3808 44.0355 55.6299 43.1743C55.6615 42.9305 55.6623 42.6961 55.6623 42.3956C55.6623 42.3601 55.655 42.3127 55.6307 42.1901C55.623 42.153 55.6191 42.1152 55.618 42.0774C55.5439 38.7313 54.3464 35.8993 52.369 33.9064C50.6786 32.2025 48.3935 31.0871 45.6864 30.801ZM44.2722 29.4318H44.283C47.9276 29.4318 51.0539 30.7408 53.2894 32.9939C55.5113 35.2332 56.8191 38.3715 56.9124 41.9911C56.9324 42.0933 56.9583 42.2406 56.9583 42.3956V42.4126C56.9583 42.7131 56.9583 43.0409 56.9074 43.3972C56.9039 43.4231 56.8985 43.4489 56.8916 43.474C56.5074 44.9018 55.2151 45.9508 53.6696 45.9508C52.0142 45.9508 50.6366 44.7367 50.3887 43.1389C50.3798 43.0822 50.3786 43.0247 50.3848 42.968C50.4025 42.8107 50.4033 42.6263 50.4033 42.3957V42.0979C50.2552 38.3503 47.5959 35.7207 43.9721 35.7207H43.7954C43.473 35.7207 43.1988 35.4835 43.1533 35.1646C43.1078 34.8452 43.3037 34.5413 43.6134 34.4511C44.4041 34.2201 44.9664 33.4957 44.9664 32.6318C44.9664 31.6734 44.2552 30.8762 43.3257 30.7435C42.9986 30.6968 42.7591 30.4114 42.7699 30.0809C42.7807 29.7508 43.0384 29.4816 43.3677 29.4561C43.6813 29.4318 43.9906 29.4318 44.2722 29.4318Z" stroke="#1742E7" stroke-width="0.56" mask="url(#path-1-inside-1_3325_155)"></path><path fill-rule="evenodd" clip-rule="evenodd" d="M43.4284 29.4769C43.4669 29.475 43.5055 29.4766 43.5437 29.4816C45.071 29.6794 46.2612 31.0251 46.2612 32.6318C46.2612 34.082 45.2865 35.3037 43.9783 35.6937C43.9182 35.7114 43.8561 35.7207 43.7932 35.7207C43.4893 35.7207 43.1989 35.7581 42.8622 35.8032C40.9638 36.0813 39.1989 37.0366 37.534 38.3183C35.886 39.5872 34.3814 41.1391 32.9687 42.5954L32.919 42.6471C32.6941 42.8789 32.3331 42.9098 32.072 42.7196C31.8113 42.5291 31.7303 42.1762 31.8823 41.8912C32.0026 41.6652 32.072 41.3732 32.072 41.0643C32.072 40.0461 31.2305 39.2045 30.2127 39.2045C29.9099 39.2045 29.6388 39.2716 29.4082 39.3947C29.1247 39.5459 28.7737 39.4664 28.5824 39.2088C28.3915 38.9508 28.4177 38.5917 28.6449 38.3649C28.7475 38.2619 28.8505 38.159 28.9538 38.056C32.5599 34.4457 36.5255 30.4755 42.0933 29.6173C42.5183 29.5467 42.9634 29.5001 43.4285 29.4769L43.4284 29.4769ZM43.4311 30.7744C43.0327 30.7964 42.6566 30.8373 42.3022 30.8963L42.2941 30.8978C37.6659 31.6098 34.2102 34.674 30.8686 37.9777C32.0781 38.2369 33.0381 39.1957 33.2983 40.4048C34.3628 39.3333 35.5113 38.2404 36.7439 37.2916C38.5007 35.9391 40.4738 34.8421 42.6791 34.5206L42.6872 34.5194L42.7026 34.5171C42.9977 34.4777 43.3305 34.4334 43.6888 34.4261C44.4255 34.1692 44.9655 33.4599 44.9655 32.6319C44.9655 31.6843 44.2762 30.9121 43.4312 30.7745L43.4311 30.7744Z" stroke="#1742E7" stroke-width="0.56" mask="url(#path-1-inside-1_3325_155)"></path><path fill-rule="evenodd" clip-rule="evenodd" d="M29.5543 39.2664L29.4317 39.389L28.457 40.3861L26.0844 42.8031C26.084 42.8034 26.0836 42.8034 26.0836 42.8038C25.9764 42.9138 25.868 43.0252 25.7589 43.1374C23.7549 45.1989 21.3872 47.6349 18.6322 49.0777C19.4865 49.6388 20.0546 50.6046 20.0546 51.7153C20.0546 51.951 20.028 52.1809 19.9779 52.4022C23.0008 50.8071 25.542 48.2623 28.0918 45.7092C28.2168 45.5842 28.3413 45.4592 28.4663 45.3343C28.4671 45.3339 28.4678 45.3331 28.4686 45.3324L30.9697 42.7865L30.9721 42.7846L31.7646 41.9704C31.8198 41.9002 31.8738 41.8412 31.9208 41.7922C32.018 41.5786 32.0732 41.3167 32.0732 41.0417C32.0732 40.025 31.2301 39.1738 30.2636 39.1156C30.0013 39.1175 29.763 39.1704 29.5543 39.2664ZM28.8659 38.1622C29.3005 37.9304 29.7842 37.8197 30.2801 37.8197C30.2913 37.8197 30.3021 37.8201 30.3129 37.8204C31.9586 37.9041 33.369 39.3122 33.369 41.0416C33.369 41.5318 33.261 42.0386 33.0265 42.4783C32.9964 42.5346 32.9583 42.5863 32.9131 42.6314C32.8449 42.6997 32.809 42.7367 32.7735 42.7842C32.7569 42.8061 32.7388 42.8274 32.7195 42.8474L31.8984 43.6905L31.8961 43.6928L29.3845 46.2487C29.2364 46.3968 29.0879 46.5457 28.9387 46.6954C25.8791 49.7619 22.5742 53.074 18.2863 54.5474C17.9673 54.6569 17.6179 54.5038 17.4825 54.1952C17.3468 53.8867 17.4702 53.5261 17.7664 53.3653C18.348 53.0494 18.7592 52.4169 18.7592 51.7153C18.7592 50.679 17.9211 49.856 16.8994 49.856H16.7008C16.3834 49.856 16.1119 49.6261 16.0606 49.3129C16.0089 48.9997 16.1921 48.6955 16.4925 48.594C19.6913 47.5141 22.4312 44.6991 24.9115 42.1501C24.9933 42.066 25.0751 41.9823 25.1565 41.8986L25.158 41.8971L27.5319 39.4793L28.513 38.4753L28.7128 38.2756C28.7583 38.2304 28.8096 38.1922 28.8663 38.1622L28.8659 38.1622Z" stroke="#1742E7" stroke-width="0.56" mask="url(#path-1-inside-1_3325_155)"></path><path fill-rule="evenodd" clip-rule="evenodd" d="M32.7158 12.4473C32.968 12.7015 32.9668 13.1115 32.7131 13.3637L28.9847 17.0697C28.8628 17.1912 28.6973 17.2587 28.5253 17.2579C28.3533 17.2575 28.1886 17.1881 28.0675 17.0658L25.8707 14.847C25.6189 14.5924 25.6208 14.1824 25.8753 13.9306C26.1295 13.6787 26.5399 13.6807 26.7917 13.9352L28.5315 15.6928L31.7994 12.4446C32.0532 12.1924 32.4635 12.1935 32.7158 12.4473Z" stroke="#1742E7" stroke-width="0.56" mask="url(#path-1-inside-1_3325_155)"></path></svg>