<svg xmlns="http://www.w3.org/2000/svg" viewBox="0 0 55 55" fill="none"><mask id="path-1-inside-1_3325_177" fill="white"><path d="M39.179 28.9879V28.1169H46.1244C50.9114 28.1169 54.8062 24.2096 54.8062 19.4072C54.8062 14.6048 50.9114 10.6975 46.1244 10.6975C45.7457 10.6975 45.3717 10.7306 45.0008 10.7796C43.8141 4.71585 38.4844 0.246338 32.2332 0.246338C27.6171 0.246338 23.4204 2.65001 21.0699 6.57912C19.7347 5.8738 18.2169 5.47214 16.6058 5.47214C11.6145 5.47214 7.51243 9.33476 7.0965 14.2359C3.65594 14.6476 0.978575 17.5891 0.978575 21.1496C0.978575 24.9916 4.09429 28.1173 7.92399 28.1173H16.6058V28.9883C16.6058 29.2947 16.6682 29.5859 16.7655 29.8592H0.978516V54.2463H21.8148V40.3109H33.9693V54.2463H54.8055V29.8592H39.0186C39.1159 29.5859 39.1783 29.2947 39.1783 28.9883L39.179 28.9879ZM36.5744 21.1491H19.2109C18.7326 21.1491 18.3427 20.758 18.3427 20.2782V18.5362C18.3427 18.0564 18.7326 17.6653 19.2109 17.6653H36.5744C37.0527 17.6653 37.4426 18.0564 37.4426 18.5362V20.2782C37.4426 20.758 37.0527 21.1491 36.5744 21.1491ZM20.0791 22.8911H35.7063V24.633H20.0791V22.8911ZM2.71553 21.1491C2.71553 18.2672 5.05186 15.9233 7.92459 15.9233C10.7973 15.9233 13.1337 18.2672 13.1337 21.1491H14.87C14.87 17.6175 12.2341 14.697 8.83345 14.2483C9.23653 10.3021 12.5686 7.21366 16.6064 7.21366C20.6407 7.21366 23.9832 10.2465 24.3816 14.2677L26.1094 14.0962C25.8427 11.4075 24.4963 9.08662 22.5281 7.53012C24.5599 4.09294 28.2132 1.98778 32.2335 1.98778C37.6708 1.98778 42.3033 5.89042 43.3084 11.1757C41.9185 11.6548 40.6527 12.4795 39.6524 13.6004L40.9461 14.7622C42.2638 13.2859 44.1514 12.4394 46.1238 12.4394C49.9535 12.4394 53.0692 15.5651 53.0692 19.4071C53.0692 23.2492 49.9535 26.3749 46.1238 26.3749H39.0187C38.7567 25.6373 38.1773 25.0564 37.442 24.7931V22.7297C38.4501 22.3692 39.1784 21.4112 39.1784 20.2769V18.535C39.1784 17.0943 38.0099 15.9221 36.5738 15.9221L19.2103 15.9225C17.7743 15.9225 16.6058 17.0947 16.6058 18.5354V20.2773C16.6058 21.4112 17.334 22.3692 18.3421 22.73V24.7935C17.6069 25.0563 17.0278 25.6376 16.7654 26.3753L7.92399 26.3749C5.05127 26.3749 2.71493 24.031 2.71493 21.1491L2.71553 21.1491ZM18.3427 28.9879V27.2459C18.3427 26.7661 18.7326 26.375 19.2109 26.375H36.5744C37.0527 26.375 37.4426 26.7661 37.4426 27.2459V28.9879C37.4426 29.4677 37.0527 29.8588 36.5744 29.8588H19.2109C18.7326 29.8588 18.3427 29.4677 18.3427 28.9879ZM21.8154 31.6008H33.9699V33.3427H21.8154V31.6008ZM20.0791 52.504H2.71553V31.6008H20.0791V52.504ZM21.8154 38.5685V35.0846H33.9699V38.5685H21.8154ZM53.0698 52.504H35.7063V31.6008H53.0698V52.504Z"></path><path d="M37.4426 35.0846H39.179V36.8266H37.4426V35.0846Z"></path><path d="M40.9153 35.0846H51.3335V36.8266H40.9153V35.0846Z"></path><path d="M37.4426 38.5685H51.3335V40.3104H37.4426V38.5685Z"></path><path d="M37.4426 42.0524H51.3335V43.7943H37.4426V42.0524Z"></path><path d="M37.4426 45.5362H51.3335V47.2782H37.4426V45.5362Z"></path><path d="M37.4426 49.0201H47.8607V50.762H37.4426V49.0201Z"></path><path d="M49.5971 49.0201H51.3335V50.762H49.5971V49.0201Z"></path><path d="M4.45188 35.0846H18.3427V36.8266H4.45188V35.0846Z"></path><path d="M7.92459 38.5685H18.3427V40.3104H7.92459V38.5685Z"></path><path d="M4.45188 38.5685H6.18823V40.3104H4.45188V38.5685Z"></path><path d="M4.45188 42.0524H18.3427V43.7943H4.45188V42.0524Z"></path><path d="M16.6064 45.5362H18.3427V47.2782H16.6064V45.5362Z"></path><path d="M4.45188 45.5362H14.87V47.2782H4.45188V45.5362Z"></path><path d="M4.45188 49.0201H18.3427V50.762H4.45188V49.0201Z"></path></mask><path d="M39.179 28.9879V28.1169H46.1244C50.9114 28.1169 54.8062 24.2096 54.8062 19.4072C54.8062 14.6048 50.9114 10.6975 46.1244 10.6975C45.7457 10.6975 45.3717 10.7306 45.0008 10.7796C43.8141 4.71585 38.4844 0.246338 32.2332 0.246338C27.6171 0.246338 23.4204 2.65001 21.0699 6.57912C19.7347 5.8738 18.2169 5.47214 16.6058 5.47214C11.6145 5.47214 7.51243 9.33476 7.0965 14.2359C3.65594 14.6476 0.978575 17.5891 0.978575 21.1496C0.978575 24.9916 4.09429 28.1173 7.92399 28.1173H16.6058V28.9883C16.6058 29.2947 16.6682 29.5859 16.7655 29.8592H0.978516V54.2463H21.8148V40.3109H33.9693V54.2463H54.8055V29.8592H39.0186C39.1159 29.5859 39.1783 29.2947 39.1783 28.9883L39.179 28.9879ZM36.5744 21.1491H19.2109C18.7326 21.1491 18.3427 20.758 18.3427 20.2782V18.5362C18.3427 18.0564 18.7326 17.6653 19.2109 17.6653H36.5744C37.0527 17.6653 37.4426 18.0564 37.4426 18.5362V20.2782C37.4426 20.758 37.0527 21.1491 36.5744 21.1491ZM20.0791 22.8911H35.7063V24.633H20.0791V22.8911ZM2.71553 21.1491C2.71553 18.2672 5.05186 15.9233 7.92459 15.9233C10.7973 15.9233 13.1337 18.2672 13.1337 21.1491H14.87C14.87 17.6175 12.2341 14.697 8.83345 14.2483C9.23653 10.3021 12.5686 7.21366 16.6064 7.21366C20.6407 7.21366 23.9832 10.2465 24.3816 14.2677L26.1094 14.0962C25.8427 11.4075 24.4963 9.08662 22.5281 7.53012C24.5599 4.09294 28.2132 1.98778 32.2335 1.98778C37.6708 1.98778 42.3033 5.89042 43.3084 11.1757C41.9185 11.6548 40.6527 12.4795 39.6524 13.6004L40.9461 14.7622C42.2638 13.2859 44.1514 12.4394 46.1238 12.4394C49.9535 12.4394 53.0692 15.5651 53.0692 19.4071C53.0692 23.2492 49.9535 26.3749 46.1238 26.3749H39.0187C38.7567 25.6373 38.1773 25.0564 37.442 24.7931V22.7297C38.4501 22.3692 39.1784 21.4112 39.1784 20.2769V18.535C39.1784 17.0943 38.0099 15.9221 36.5738 15.9221L19.2103 15.9225C17.7743 15.9225 16.6058 17.0947 16.6058 18.5354V20.2773C16.6058 21.4112 17.334 22.3692 18.3421 22.73V24.7935C17.6069 25.0563 17.0278 25.6376 16.7654 26.3753L7.92399 26.3749C5.05127 26.3749 2.71493 24.031 2.71493 21.1491L2.71553 21.1491ZM18.3427 28.9879V27.2459C18.3427 26.7661 18.7326 26.375 19.2109 26.375H36.5744C37.0527 26.375 37.4426 26.7661 37.4426 27.2459V28.9879C37.4426 29.4677 37.0527 29.8588 36.5744 29.8588H19.2109C18.7326 29.8588 18.3427 29.4677 18.3427 28.9879ZM21.8154 31.6008H33.9699V33.3427H21.8154V31.6008ZM20.0791 52.504H2.71553V31.6008H20.0791V52.504ZM21.8154 38.5685V35.0846H33.9699V38.5685H21.8154ZM53.0698 52.504H35.7063V31.6008H53.0698V52.504Z" fill="#1742E7"></path><path d="M37.4426 35.0846H39.179V36.8266H37.4426V35.0846Z" fill="#1742E7"></path><path d="M40.9153 35.0846H51.3335V36.8266H40.9153V35.0846Z" fill="#1742E7"></path><path d="M37.4426 38.5685H51.3335V40.3104H37.4426V38.5685Z" fill="#1742E7"></path><path d="M37.4426 42.0524H51.3335V43.7943H37.4426V42.0524Z" fill="#1742E7"></path><path d="M37.4426 45.5362H51.3335V47.2782H37.4426V45.5362Z" fill="#1742E7"></path><path d="M37.4426 49.0201H47.8607V50.762H37.4426V49.0201Z" fill="#1742E7"></path><path d="M49.5971 49.0201H51.3335V50.762H49.5971V49.0201Z" fill="#1742E7"></path><path d="M4.45188 35.0846H18.3427V36.8266H4.45188V35.0846Z" fill="#1742E7"></path><path d="M7.92459 38.5685H18.3427V40.3104H7.92459V38.5685Z" fill="#1742E7"></path><path d="M4.45188 38.5685H6.18823V40.3104H4.45188V38.5685Z" fill="#1742E7"></path><path d="M4.45188 42.0524H18.3427V43.7943H4.45188V42.0524Z" fill="#1742E7"></path><path d="M16.6064 45.5362H18.3427V47.2782H16.6064V45.5362Z" fill="#1742E7"></path><path d="M4.45188 45.5362H14.87V47.2782H4.45188V45.5362Z" fill="#1742E7"></path><path d="M4.45188 49.0201H18.3427V50.762H4.45188V49.0201Z" fill="#1742E7"></path><path d="M39.179 28.9879V28.1169H46.1244C50.9114 28.1169 54.8062 24.2096 54.8062 19.4072C54.8062 14.6048 50.9114 10.6975 46.1244 10.6975C45.7457 10.6975 45.3717 10.7306 45.0008 10.7796C43.8141 4.71585 38.4844 0.246338 32.2332 0.246338C27.6171 0.246338 23.4204 2.65001 21.0699 6.57912C19.7347 5.8738 18.2169 5.47214 16.6058 5.47214C11.6145 5.47214 7.51243 9.33476 7.0965 14.2359C3.65594 14.6476 0.978575 17.5891 0.978575 21.1496C0.978575 24.9916 4.09429 28.1173 7.92399 28.1173H16.6058V28.9883C16.6058 29.2947 16.6682 29.5859 16.7655 29.8592H0.978516V54.2463H21.8148V40.3109H33.9693V54.2463H54.8055V29.8592H39.0186C39.1159 29.5859 39.1783 29.2947 39.1783 28.9883L39.179 28.9879ZM36.5744 21.1491H19.2109C18.7326 21.1491 18.3427 20.758 18.3427 20.2782V18.5362C18.3427 18.0564 18.7326 17.6653 19.2109 17.6653H36.5744C37.0527 17.6653 37.4426 18.0564 37.4426 18.5362V20.2782C37.4426 20.758 37.0527 21.1491 36.5744 21.1491ZM20.0791 22.8911H35.7063V24.633H20.0791V22.8911ZM2.71553 21.1491C2.71553 18.2672 5.05186 15.9233 7.92459 15.9233C10.7973 15.9233 13.1337 18.2672 13.1337 21.1491H14.87C14.87 17.6175 12.2341 14.697 8.83345 14.2483C9.23653 10.3021 12.5686 7.21366 16.6064 7.21366C20.6407 7.21366 23.9832 10.2465 24.3816 14.2677L26.1094 14.0962C25.8427 11.4075 24.4963 9.08662 22.5281 7.53012C24.5599 4.09294 28.2132 1.98778 32.2335 1.98778C37.6708 1.98778 42.3033 5.89042 43.3084 11.1757C41.9185 11.6548 40.6527 12.4795 39.6524 13.6004L40.9461 14.7622C42.2638 13.2859 44.1514 12.4394 46.1238 12.4394C49.9535 12.4394 53.0692 15.5651 53.0692 19.4071C53.0692 23.2492 49.9535 26.3749 46.1238 26.3749H39.0187C38.7567 25.6373 38.1773 25.0564 37.442 24.7931V22.7297C38.4501 22.3692 39.1784 21.4112 39.1784 20.2769V18.535C39.1784 17.0943 38.0099 15.9221 36.5738 15.9221L19.2103 15.9225C17.7743 15.9225 16.6058 17.0947 16.6058 18.5354V20.2773C16.6058 21.4112 17.334 22.3692 18.3421 22.73V24.7935C17.6069 25.0563 17.0278 25.6376 16.7654 26.3753L7.92399 26.3749C5.05127 26.3749 2.71493 24.031 2.71493 21.1491L2.71553 21.1491ZM18.3427 28.9879V27.2459C18.3427 26.7661 18.7326 26.375 19.2109 26.375H36.5744C37.0527 26.375 37.4426 26.7661 37.4426 27.2459V28.9879C37.4426 29.4677 37.0527 29.8588 36.5744 29.8588H19.2109C18.7326 29.8588 18.3427 29.4677 18.3427 28.9879ZM21.8154 31.6008H33.9699V33.3427H21.8154V31.6008ZM20.0791 52.504H2.71553V31.6008H20.0791V52.504ZM21.8154 38.5685V35.0846H33.9699V38.5685H21.8154ZM53.0698 52.504H35.7063V31.6008H53.0698V52.504Z" stroke="#1742E7" stroke-width="0.536069" mask="url(#path-1-inside-1_3325_177)"></path><path d="M37.4426 35.0846H39.179V36.8266H37.4426V35.0846Z" stroke="#1742E7" stroke-width="0.536069" mask="url(#path-1-inside-1_3325_177)"></path><path d="M40.9153 35.0846H51.3335V36.8266H40.9153V35.0846Z" stroke="#1742E7" stroke-width="0.536069" mask="url(#path-1-inside-1_3325_177)"></path><path d="M37.4426 38.5685H51.3335V40.3104H37.4426V38.5685Z" stroke="#1742E7" stroke-width="0.536069" mask="url(#path-1-inside-1_3325_177)"></path><path d="M37.4426 42.0524H51.3335V43.7943H37.4426V42.0524Z" stroke="#1742E7" stroke-width="0.536069" mask="url(#path-1-inside-1_3325_177)"></path><path d="M37.4426 45.5362H51.3335V47.2782H37.4426V45.5362Z" stroke="#1742E7" stroke-width="0.536069" mask="url(#path-1-inside-1_3325_177)"></path><path d="M37.4426 49.0201H47.8607V50.762H37.4426V49.0201Z" stroke="#1742E7" stroke-width="0.536069" mask="url(#path-1-inside-1_3325_177)"></path><path d="M49.5971 49.0201H51.3335V50.762H49.5971V49.0201Z" stroke="#1742E7" stroke-width="0.536069" mask="url(#path-1-inside-1_3325_177)"></path><path d="M4.45188 35.0846H18.3427V36.8266H4.45188V35.0846Z" stroke="#1742E7" stroke-width="0.536069" mask="url(#path-1-inside-1_3325_177)"></path><path d="M7.92459 38.5685H18.3427V40.3104H7.92459V38.5685Z" stroke="#1742E7" stroke-width="0.536069" mask="url(#path-1-inside-1_3325_177)"></path><path d="M4.45188 38.5685H6.18823V40.3104H4.45188V38.5685Z" stroke="#1742E7" stroke-width="0.536069" mask="url(#path-1-inside-1_3325_177)"></path><path d="M4.45188 42.0524H18.3427V43.7943H4.45188V42.0524Z" stroke="#1742E7" stroke-width="0.536069" mask="url(#path-1-inside-1_3325_177)"></path><path d="M16.6064 45.5362H18.3427V47.2782H16.6064V45.5362Z" stroke="#1742E7" stroke-width="0.536069" mask="url(#path-1-inside-1_3325_177)"></path><path d="M4.45188 45.5362H14.87V47.2782H4.45188V45.5362Z" stroke="#1742E7" stroke-width="0.536069" mask="url(#path-1-inside-1_3325_177)"></path><path d="M4.45188 49.0201H18.3427V50.762H4.45188V49.0201Z" stroke="#1742E7" stroke-width="0.536069" mask="url(#path-1-inside-1_3325_177)"></path></svg>