<svg xmlns="http://www.w3.org/2000/svg" viewBox="0 0 56 57" fill="none"><mask id="path-1-inside-1_3325_125" fill="white"><path d="M32.6315 8.45716C31.0682 8.10006 29.475 7.9171 27.8947 7.9171C26.3143 7.9171 24.7195 8.0977 23.1578 8.45716C22.7562 8.54981 22.473 8.90692 22.473 9.3168V12.631C21.0481 13.1018 19.6947 13.7533 18.4381 14.5772L15.8446 12.5091C15.5232 12.2529 15.067 12.2529 14.7457 12.5091C13.4908 13.5071 12.3562 14.64 11.3706 15.8761C10.3849 17.1116 9.53168 18.4714 8.83801 19.9175C8.65916 20.2875 8.76236 20.7331 9.0837 20.9894L11.6725 23.0552C11.1512 24.4631 10.817 25.9279 10.6786 27.4267L7.44655 28.1643C7.04488 28.257 6.76166 28.6117 6.75932 29.024C6.75697 30.6278 6.93582 32.2227 7.28705 33.763C7.63829 35.3033 8.16955 36.8186 8.86729 38.2624C9.04614 38.6324 9.45778 38.83 9.85945 38.7397L13.0915 38.002C13.8667 39.2862 14.8043 40.4589 15.8868 41.5032L14.4472 44.4914C14.2684 44.8614 14.3692 45.307 14.6912 45.5633C15.9437 46.5637 17.3012 47.4191 18.726 48.1041C20.1509 48.7891 21.6662 49.3191 23.2276 49.6738C23.6293 49.7665 24.0386 49.5665 24.2198 49.1965L25.6593 46.2084C27.1599 46.4036 28.6394 46.4036 30.1399 46.2084L31.5795 49.1965C31.7284 49.5073 32.0415 49.6967 32.374 49.6967C32.4391 49.6967 32.5042 49.6902 32.5693 49.6756C34.1326 49.3202 35.6484 48.7931 37.0709 48.1058C38.4958 47.421 39.8532 46.5654 41.1057 45.565C41.4271 45.3088 41.5279 44.8631 41.3497 44.4931L39.9101 41.505C40.9926 40.4607 41.9296 39.2878 42.7054 38.0038L45.9375 38.7414C46.3391 38.8317 46.7508 38.6341 46.9296 38.2641C47.6274 36.8204 48.1593 35.307 48.5099 33.7648C48.8611 32.2243 49.0393 30.6294 49.0376 29.0257C49.0376 28.6141 48.752 28.2564 48.3504 28.1661L45.1183 27.4284C44.9775 25.9302 44.6457 24.4655 44.1244 23.057L46.7132 20.9911C47.0345 20.7349 47.1354 20.2892 46.9589 19.9192C46.2652 18.4732 45.412 17.1157 44.4264 15.8779C43.4407 14.6424 42.306 13.5096 41.0512 12.5092C40.7299 12.253 40.2737 12.253 39.9523 12.5092L37.3588 14.5773C36.0999 13.7534 34.7488 13.102 33.324 12.6311L33.3228 9.3187C33.3187 8.90706 33.0331 8.54923 32.6315 8.45716ZM36.8833 16.3944C37.2046 16.6236 37.6379 16.6108 37.9446 16.3651L40.4877 14.3367C41.4247 15.1395 42.2826 16.0267 43.043 16.9784C43.8018 17.9307 44.4762 18.9644 45.0502 20.0575L42.5118 22.0811C42.2051 22.3268 42.0955 22.7454 42.2468 23.109C42.917 24.7251 43.3058 26.4355 43.4025 28.1906C43.4236 28.5835 43.7033 28.9154 44.0874 29.0016L47.2567 29.7246C47.2145 30.9583 47.055 32.1815 46.7841 33.3689C46.5132 34.5563 46.1244 35.7267 45.6284 36.8572L42.4613 36.1342C42.079 36.0456 41.6837 36.2227 41.4926 36.5669C40.6435 38.0991 39.5504 39.4695 38.2417 40.6399C37.9474 40.9026 37.8635 41.3272 38.0336 41.6802L39.4438 44.6098C38.4517 45.3451 37.3967 45.9842 36.2997 46.5138C35.2026 47.0433 34.0446 47.4678 32.8512 47.7851L31.4409 44.8555C31.292 44.5465 30.9806 44.3553 30.6464 44.3553C30.5983 44.3553 30.5479 44.3594 30.4992 44.3682C29.6272 44.5154 28.7507 44.591 27.8934 44.591C27.0361 44.591 26.1594 44.5154 25.2876 44.3682C24.8988 44.3031 24.5165 44.5007 24.3459 44.8555L22.9356 47.7851C21.7418 47.4696 20.5861 47.0433 19.4871 46.5138C18.39 45.9861 17.3351 45.3475 16.343 44.6098L17.7532 41.6802C17.9232 41.3248 17.8394 40.9003 17.5474 40.6399C16.238 39.4695 15.1432 38.0991 14.2965 36.5669C14.1054 36.2221 13.7125 36.0456 13.3278 36.1342L10.1608 36.8572C9.66468 35.7267 9.27592 34.5563 9.00501 33.3689C8.7341 32.1814 8.57636 30.9582 8.5324 29.7246L11.7017 29.0016C12.0864 28.913 12.3661 28.5835 12.3866 28.1906C12.4834 26.4356 12.8721 24.7275 13.5424 23.109C13.6937 22.7454 13.5846 22.325 13.2773 22.0811L10.7389 20.0575C11.3124 18.9645 11.985 17.9307 12.7461 16.9784C13.5066 16.0261 14.3622 15.1395 15.3014 14.3367L17.8445 16.3651C18.1512 16.6108 18.5863 16.6237 18.9059 16.3944C20.3372 15.377 21.9152 14.6164 23.5963 14.1334C23.9745 14.0243 24.2354 13.6795 24.2354 13.2843L24.2337 10.0335C26.6566 9.56671 29.1265 9.56671 31.5493 10.0335V13.2827C31.5493 13.6755 31.8096 14.0227 32.1884 14.1317C33.8731 14.6149 35.4516 15.3778 36.8829 16.3945L36.8833 16.3944Z"></path><path d="M17.7448 28.6624C17.7448 34.2587 22.2992 38.8131 27.8956 38.8131C33.4919 38.8131 38.0463 34.2587 38.0463 28.6624C38.0463 23.066 33.4919 18.5116 27.8956 18.5116C22.2992 18.5122 17.7448 23.0636 17.7448 28.6624ZM36.2807 28.6624C36.2807 33.286 32.519 37.0475 27.8956 37.0475C23.2721 37.0475 19.5104 33.2858 19.5104 28.6624C19.5104 24.0389 23.2721 20.2772 27.8956 20.2772C32.519 20.2772 36.2807 24.0371 36.2807 28.6624Z"></path><path d="M24.3167 28.2691C23.9702 27.9266 23.4108 27.9284 23.0683 28.2755C22.7259 28.6221 22.7276 29.1815 23.0748 29.5239L26.1791 32.5982C26.3515 32.7683 26.5761 32.8545 26.8012 32.8545C27.0282 32.8545 27.2533 32.7683 27.4251 32.5959L33.1623 26.8587C33.5071 26.5139 33.5071 25.9551 33.1623 25.6103C32.8175 25.2655 32.2587 25.2655 31.9139 25.6103L26.799 30.7253L24.3167 28.2691Z"></path><path d="M36.9382 8.34158C37.0684 8.70102 37.4067 8.92385 37.7685 8.92385C37.8694 8.92385 37.9702 8.90684 38.0693 8.87107C38.5273 8.70513 38.7648 8.19849 38.5988 7.74054L37.5773 4.92413C47.4338 8.85633 53.9336 18.351 53.9336 29.1028C53.9336 43.4608 42.2531 55.1414 27.8951 55.1414C22.79 55.1414 17.8474 53.6637 13.6021 50.8708C13.1945 50.6017 12.648 50.7154 12.3789 51.123C12.1097 51.5305 12.2235 52.077 12.631 52.3462C17.1661 55.3303 22.4435 56.9064 27.893 56.9064C35.3201 56.9064 42.3014 54.0144 47.5533 48.7628C52.8051 43.5113 55.6969 36.5298 55.6969 29.1025C55.6969 23.0897 53.81 17.3697 50.2372 12.5556C47.2278 8.49953 43.2622 5.39114 38.672 3.4661L41.0087 2.61937C41.4666 2.45342 41.7041 1.94679 41.5382 1.48884C41.3722 1.03087 40.8656 0.793395 40.4076 0.959345L35.8052 2.62815C35.5847 2.7079 35.4058 2.87208 35.3073 3.08436C35.2088 3.29663 35.1983 3.53821 35.278 3.7587L36.9382 8.34158Z"></path><path d="M4.91913 48.5223C4.43185 48.5223 4.03663 48.9175 4.03663 49.4048C4.03663 49.8921 4.43185 50.2873 4.91913 50.2873H10.2153C10.7025 50.2873 11.0978 49.8921 11.0978 49.4048V44.5501C11.0978 44.0629 10.7025 43.6676 10.2153 43.6676C9.72798 43.6676 9.33276 44.0629 9.33276 44.5501V47.3559C4.56202 42.5013 1.85759 35.9566 1.85759 29.1037C1.85759 14.7457 13.5382 3.06509 27.8962 3.06509C29.3334 3.06509 30.7776 3.18296 32.1832 3.41633C32.6623 3.49607 33.1185 3.17064 33.1983 2.68921C33.278 2.2078 32.9526 1.75393 32.4711 1.67419C30.9682 1.42616 29.4302 1.30008 27.8939 1.30008C20.4668 1.30008 13.4855 4.19216 8.23362 9.44371C2.98312 14.693 0.0917969 21.6767 0.0917969 29.104C0.0917969 36.3903 2.9522 43.3466 8.002 48.5226L4.91913 48.5223Z"></path></mask><path d="M32.6315 8.45716C31.0682 8.10006 29.475 7.9171 27.8947 7.9171C26.3143 7.9171 24.7195 8.0977 23.1578 8.45716C22.7562 8.54981 22.473 8.90692 22.473 9.3168V12.631C21.0481 13.1018 19.6947 13.7533 18.4381 14.5772L15.8446 12.5091C15.5232 12.2529 15.067 12.2529 14.7457 12.5091C13.4908 13.5071 12.3562 14.64 11.3706 15.8761C10.3849 17.1116 9.53168 18.4714 8.83801 19.9175C8.65916 20.2875 8.76236 20.7331 9.0837 20.9894L11.6725 23.0552C11.1512 24.4631 10.817 25.9279 10.6786 27.4267L7.44655 28.1643C7.04488 28.257 6.76166 28.6117 6.75932 29.024C6.75697 30.6278 6.93582 32.2227 7.28705 33.763C7.63829 35.3033 8.16955 36.8186 8.86729 38.2624C9.04614 38.6324 9.45778 38.83 9.85945 38.7397L13.0915 38.002C13.8667 39.2862 14.8043 40.4589 15.8868 41.5032L14.4472 44.4914C14.2684 44.8614 14.3692 45.307 14.6912 45.5633C15.9437 46.5637 17.3012 47.4191 18.726 48.1041C20.1509 48.7891 21.6662 49.3191 23.2276 49.6738C23.6293 49.7665 24.0386 49.5665 24.2198 49.1965L25.6593 46.2084C27.1599 46.4036 28.6394 46.4036 30.1399 46.2084L31.5795 49.1965C31.7284 49.5073 32.0415 49.6967 32.374 49.6967C32.4391 49.6967 32.5042 49.6902 32.5693 49.6756C34.1326 49.3202 35.6484 48.7931 37.0709 48.1058C38.4958 47.421 39.8532 46.5654 41.1057 45.565C41.4271 45.3088 41.5279 44.8631 41.3497 44.4931L39.9101 41.505C40.9926 40.4607 41.9296 39.2878 42.7054 38.0038L45.9375 38.7414C46.3391 38.8317 46.7508 38.6341 46.9296 38.2641C47.6274 36.8204 48.1593 35.307 48.5099 33.7648C48.8611 32.2243 49.0393 30.6294 49.0376 29.0257C49.0376 28.6141 48.752 28.2564 48.3504 28.1661L45.1183 27.4284C44.9775 25.9302 44.6457 24.4655 44.1244 23.057L46.7132 20.9911C47.0345 20.7349 47.1354 20.2892 46.9589 19.9192C46.2652 18.4732 45.412 17.1157 44.4264 15.8779C43.4407 14.6424 42.306 13.5096 41.0512 12.5092C40.7299 12.253 40.2737 12.253 39.9523 12.5092L37.3588 14.5773C36.0999 13.7534 34.7488 13.102 33.324 12.6311L33.3228 9.3187C33.3187 8.90706 33.0331 8.54923 32.6315 8.45716ZM36.8833 16.3944C37.2046 16.6236 37.6379 16.6108 37.9446 16.3651L40.4877 14.3367C41.4247 15.1395 42.2826 16.0267 43.043 16.9784C43.8018 17.9307 44.4762 18.9644 45.0502 20.0575L42.5118 22.0811C42.2051 22.3268 42.0955 22.7454 42.2468 23.109C42.917 24.7251 43.3058 26.4355 43.4025 28.1906C43.4236 28.5835 43.7033 28.9154 44.0874 29.0016L47.2567 29.7246C47.2145 30.9583 47.055 32.1815 46.7841 33.3689C46.5132 34.5563 46.1244 35.7267 45.6284 36.8572L42.4613 36.1342C42.079 36.0456 41.6837 36.2227 41.4926 36.5669C40.6435 38.0991 39.5504 39.4695 38.2417 40.6399C37.9474 40.9026 37.8635 41.3272 38.0336 41.6802L39.4438 44.6098C38.4517 45.3451 37.3967 45.9842 36.2997 46.5138C35.2026 47.0433 34.0446 47.4678 32.8512 47.7851L31.4409 44.8555C31.292 44.5465 30.9806 44.3553 30.6464 44.3553C30.5983 44.3553 30.5479 44.3594 30.4992 44.3682C29.6272 44.5154 28.7507 44.591 27.8934 44.591C27.0361 44.591 26.1594 44.5154 25.2876 44.3682C24.8988 44.3031 24.5165 44.5007 24.3459 44.8555L22.9356 47.7851C21.7418 47.4696 20.5861 47.0433 19.4871 46.5138C18.39 45.9861 17.3351 45.3475 16.343 44.6098L17.7532 41.6802C17.9232 41.3248 17.8394 40.9003 17.5474 40.6399C16.238 39.4695 15.1432 38.0991 14.2965 36.5669C14.1054 36.2221 13.7125 36.0456 13.3278 36.1342L10.1608 36.8572C9.66468 35.7267 9.27592 34.5563 9.00501 33.3689C8.7341 32.1814 8.57636 30.9582 8.5324 29.7246L11.7017 29.0016C12.0864 28.913 12.3661 28.5835 12.3866 28.1906C12.4834 26.4356 12.8721 24.7275 13.5424 23.109C13.6937 22.7454 13.5846 22.325 13.2773 22.0811L10.7389 20.0575C11.3124 18.9645 11.985 17.9307 12.7461 16.9784C13.5066 16.0261 14.3622 15.1395 15.3014 14.3367L17.8445 16.3651C18.1512 16.6108 18.5863 16.6237 18.9059 16.3944C20.3372 15.377 21.9152 14.6164 23.5963 14.1334C23.9745 14.0243 24.2354 13.6795 24.2354 13.2843L24.2337 10.0335C26.6566 9.56671 29.1265 9.56671 31.5493 10.0335V13.2827C31.5493 13.6755 31.8096 14.0227 32.1884 14.1317C33.8731 14.6149 35.4516 15.3778 36.8829 16.3945L36.8833 16.3944Z" fill="#1742E7"></path><path d="M17.7448 28.6624C17.7448 34.2587 22.2992 38.8131 27.8956 38.8131C33.4919 38.8131 38.0463 34.2587 38.0463 28.6624C38.0463 23.066 33.4919 18.5116 27.8956 18.5116C22.2992 18.5122 17.7448 23.0636 17.7448 28.6624ZM36.2807 28.6624C36.2807 33.286 32.519 37.0475 27.8956 37.0475C23.2721 37.0475 19.5104 33.2858 19.5104 28.6624C19.5104 24.0389 23.2721 20.2772 27.8956 20.2772C32.519 20.2772 36.2807 24.0371 36.2807 28.6624Z" fill="#1742E7"></path><path d="M24.3167 28.2691C23.9702 27.9266 23.4108 27.9284 23.0683 28.2755C22.7259 28.6221 22.7276 29.1815 23.0748 29.5239L26.1791 32.5982C26.3515 32.7683 26.5761 32.8545 26.8012 32.8545C27.0282 32.8545 27.2533 32.7683 27.4251 32.5959L33.1623 26.8587C33.5071 26.5139 33.5071 25.9551 33.1623 25.6103C32.8175 25.2655 32.2587 25.2655 31.9139 25.6103L26.799 30.7253L24.3167 28.2691Z" fill="#1742E7"></path><path d="M36.9382 8.34158C37.0684 8.70102 37.4067 8.92385 37.7685 8.92385C37.8694 8.92385 37.9702 8.90684 38.0693 8.87107C38.5273 8.70513 38.7648 8.19849 38.5988 7.74054L37.5773 4.92413C47.4338 8.85633 53.9336 18.351 53.9336 29.1028C53.9336 43.4608 42.2531 55.1414 27.8951 55.1414C22.79 55.1414 17.8474 53.6637 13.6021 50.8708C13.1945 50.6017 12.648 50.7154 12.3789 51.123C12.1097 51.5305 12.2235 52.077 12.631 52.3462C17.1661 55.3303 22.4435 56.9064 27.893 56.9064C35.3201 56.9064 42.3014 54.0144 47.5533 48.7628C52.8051 43.5113 55.6969 36.5298 55.6969 29.1025C55.6969 23.0897 53.81 17.3697 50.2372 12.5556C47.2278 8.49953 43.2622 5.39114 38.672 3.4661L41.0087 2.61937C41.4666 2.45342 41.7041 1.94679 41.5382 1.48884C41.3722 1.03087 40.8656 0.793395 40.4076 0.959345L35.8052 2.62815C35.5847 2.7079 35.4058 2.87208 35.3073 3.08436C35.2088 3.29663 35.1983 3.53821 35.278 3.7587L36.9382 8.34158Z" fill="#1742E7"></path><path d="M4.91913 48.5223C4.43185 48.5223 4.03663 48.9175 4.03663 49.4048C4.03663 49.8921 4.43185 50.2873 4.91913 50.2873H10.2153C10.7025 50.2873 11.0978 49.8921 11.0978 49.4048V44.5501C11.0978 44.0629 10.7025 43.6676 10.2153 43.6676C9.72798 43.6676 9.33276 44.0629 9.33276 44.5501V47.3559C4.56202 42.5013 1.85759 35.9566 1.85759 29.1037C1.85759 14.7457 13.5382 3.06509 27.8962 3.06509C29.3334 3.06509 30.7776 3.18296 32.1832 3.41633C32.6623 3.49607 33.1185 3.17064 33.1983 2.68921C33.278 2.2078 32.9526 1.75393 32.4711 1.67419C30.9682 1.42616 29.4302 1.30008 27.8939 1.30008C20.4668 1.30008 13.4855 4.19216 8.23362 9.44371C2.98312 14.693 0.0917969 21.6767 0.0917969 29.104C0.0917969 36.3903 2.9522 43.3466 8.002 48.5226L4.91913 48.5223Z" fill="#1742E7"></path><path d="M32.6315 8.45716C31.0682 8.10006 29.475 7.9171 27.8947 7.9171C26.3143 7.9171 24.7195 8.0977 23.1578 8.45716C22.7562 8.54981 22.473 8.90692 22.473 9.3168V12.631C21.0481 13.1018 19.6947 13.7533 18.4381 14.5772L15.8446 12.5091C15.5232 12.2529 15.067 12.2529 14.7457 12.5091C13.4908 13.5071 12.3562 14.64 11.3706 15.8761C10.3849 17.1116 9.53168 18.4714 8.83801 19.9175C8.65916 20.2875 8.76236 20.7331 9.0837 20.9894L11.6725 23.0552C11.1512 24.4631 10.817 25.9279 10.6786 27.4267L7.44655 28.1643C7.04488 28.257 6.76166 28.6117 6.75932 29.024C6.75697 30.6278 6.93582 32.2227 7.28705 33.763C7.63829 35.3033 8.16955 36.8186 8.86729 38.2624C9.04614 38.6324 9.45778 38.83 9.85945 38.7397L13.0915 38.002C13.8667 39.2862 14.8043 40.4589 15.8868 41.5032L14.4472 44.4914C14.2684 44.8614 14.3692 45.307 14.6912 45.5633C15.9437 46.5637 17.3012 47.4191 18.726 48.1041C20.1509 48.7891 21.6662 49.3191 23.2276 49.6738C23.6293 49.7665 24.0386 49.5665 24.2198 49.1965L25.6593 46.2084C27.1599 46.4036 28.6394 46.4036 30.1399 46.2084L31.5795 49.1965C31.7284 49.5073 32.0415 49.6967 32.374 49.6967C32.4391 49.6967 32.5042 49.6902 32.5693 49.6756C34.1326 49.3202 35.6484 48.7931 37.0709 48.1058C38.4958 47.421 39.8532 46.5654 41.1057 45.565C41.4271 45.3088 41.5279 44.8631 41.3497 44.4931L39.9101 41.505C40.9926 40.4607 41.9296 39.2878 42.7054 38.0038L45.9375 38.7414C46.3391 38.8317 46.7508 38.6341 46.9296 38.2641C47.6274 36.8204 48.1593 35.307 48.5099 33.7648C48.8611 32.2243 49.0393 30.6294 49.0376 29.0257C49.0376 28.6141 48.752 28.2564 48.3504 28.1661L45.1183 27.4284C44.9775 25.9302 44.6457 24.4655 44.1244 23.057L46.7132 20.9911C47.0345 20.7349 47.1354 20.2892 46.9589 19.9192C46.2652 18.4732 45.412 17.1157 44.4264 15.8779C43.4407 14.6424 42.306 13.5096 41.0512 12.5092C40.7299 12.253 40.2737 12.253 39.9523 12.5092L37.3588 14.5773C36.0999 13.7534 34.7488 13.102 33.324 12.6311L33.3228 9.3187C33.3187 8.90706 33.0331 8.54923 32.6315 8.45716ZM36.8833 16.3944C37.2046 16.6236 37.6379 16.6108 37.9446 16.3651L40.4877 14.3367C41.4247 15.1395 42.2826 16.0267 43.043 16.9784C43.8018 17.9307 44.4762 18.9644 45.0502 20.0575L42.5118 22.0811C42.2051 22.3268 42.0955 22.7454 42.2468 23.109C42.917 24.7251 43.3058 26.4355 43.4025 28.1906C43.4236 28.5835 43.7033 28.9154 44.0874 29.0016L47.2567 29.7246C47.2145 30.9583 47.055 32.1815 46.7841 33.3689C46.5132 34.5563 46.1244 35.7267 45.6284 36.8572L42.4613 36.1342C42.079 36.0456 41.6837 36.2227 41.4926 36.5669C40.6435 38.0991 39.5504 39.4695 38.2417 40.6399C37.9474 40.9026 37.8635 41.3272 38.0336 41.6802L39.4438 44.6098C38.4517 45.3451 37.3967 45.9842 36.2997 46.5138C35.2026 47.0433 34.0446 47.4678 32.8512 47.7851L31.4409 44.8555C31.292 44.5465 30.9806 44.3553 30.6464 44.3553C30.5983 44.3553 30.5479 44.3594 30.4992 44.3682C29.6272 44.5154 28.7507 44.591 27.8934 44.591C27.0361 44.591 26.1594 44.5154 25.2876 44.3682C24.8988 44.3031 24.5165 44.5007 24.3459 44.8555L22.9356 47.7851C21.7418 47.4696 20.5861 47.0433 19.4871 46.5138C18.39 45.9861 17.3351 45.3475 16.343 44.6098L17.7532 41.6802C17.9232 41.3248 17.8394 40.9003 17.5474 40.6399C16.238 39.4695 15.1432 38.0991 14.2965 36.5669C14.1054 36.2221 13.7125 36.0456 13.3278 36.1342L10.1608 36.8572C9.66468 35.7267 9.27592 34.5563 9.00501 33.3689C8.7341 32.1814 8.57636 30.9582 8.5324 29.7246L11.7017 29.0016C12.0864 28.913 12.3661 28.5835 12.3866 28.1906C12.4834 26.4356 12.8721 24.7275 13.5424 23.109C13.6937 22.7454 13.5846 22.325 13.2773 22.0811L10.7389 20.0575C11.3124 18.9645 11.985 17.9307 12.7461 16.9784C13.5066 16.0261 14.3622 15.1395 15.3014 14.3367L17.8445 16.3651C18.1512 16.6108 18.5863 16.6237 18.9059 16.3944C20.3372 15.377 21.9152 14.6164 23.5963 14.1334C23.9745 14.0243 24.2354 13.6795 24.2354 13.2843L24.2337 10.0335C26.6566 9.56671 29.1265 9.56671 31.5493 10.0335V13.2827C31.5493 13.6755 31.8096 14.0227 32.1884 14.1317C33.8731 14.6149 35.4516 15.3778 36.8829 16.3945L36.8833 16.3944Z" stroke="#1742E7" stroke-width="0.56" mask="url(#path-1-inside-1_3325_125)"></path><path d="M17.7448 28.6624C17.7448 34.2587 22.2992 38.8131 27.8956 38.8131C33.4919 38.8131 38.0463 34.2587 38.0463 28.6624C38.0463 23.066 33.4919 18.5116 27.8956 18.5116C22.2992 18.5122 17.7448 23.0636 17.7448 28.6624ZM36.2807 28.6624C36.2807 33.286 32.519 37.0475 27.8956 37.0475C23.2721 37.0475 19.5104 33.2858 19.5104 28.6624C19.5104 24.0389 23.2721 20.2772 27.8956 20.2772C32.519 20.2772 36.2807 24.0371 36.2807 28.6624Z" stroke="#1742E7" stroke-width="0.56" mask="url(#path-1-inside-1_3325_125)"></path><path d="M24.3167 28.2691C23.9702 27.9266 23.4108 27.9284 23.0683 28.2755C22.7259 28.6221 22.7276 29.1815 23.0748 29.5239L26.1791 32.5982C26.3515 32.7683 26.5761 32.8545 26.8012 32.8545C27.0282 32.8545 27.2533 32.7683 27.4251 32.5959L33.1623 26.8587C33.5071 26.5139 33.5071 25.9551 33.1623 25.6103C32.8175 25.2655 32.2587 25.2655 31.9139 25.6103L26.799 30.7253L24.3167 28.2691Z" stroke="#1742E7" stroke-width="0.56" mask="url(#path-1-inside-1_3325_125)"></path><path d="M36.9382 8.34158C37.0684 8.70102 37.4067 8.92385 37.7685 8.92385C37.8694 8.92385 37.9702 8.90684 38.0693 8.87107C38.5273 8.70513 38.7648 8.19849 38.5988 7.74054L37.5773 4.92413C47.4338 8.85633 53.9336 18.351 53.9336 29.1028C53.9336 43.4608 42.2531 55.1414 27.8951 55.1414C22.79 55.1414 17.8474 53.6637 13.6021 50.8708C13.1945 50.6017 12.648 50.7154 12.3789 51.123C12.1097 51.5305 12.2235 52.077 12.631 52.3462C17.1661 55.3303 22.4435 56.9064 27.893 56.9064C35.3201 56.9064 42.3014 54.0144 47.5533 48.7628C52.8051 43.5113 55.6969 36.5298 55.6969 29.1025C55.6969 23.0897 53.81 17.3697 50.2372 12.5556C47.2278 8.49953 43.2622 5.39114 38.672 3.4661L41.0087 2.61937C41.4666 2.45342 41.7041 1.94679 41.5382 1.48884C41.3722 1.03087 40.8656 0.793395 40.4076 0.959345L35.8052 2.62815C35.5847 2.7079 35.4058 2.87208 35.3073 3.08436C35.2088 3.29663 35.1983 3.53821 35.278 3.7587L36.9382 8.34158Z" stroke="#1742E7" stroke-width="0.56" mask="url(#path-1-inside-1_3325_125)"></path><path d="M4.91913 48.5223C4.43185 48.5223 4.03663 48.9175 4.03663 49.4048C4.03663 49.8921 4.43185 50.2873 4.91913 50.2873H10.2153C10.7025 50.2873 11.0978 49.8921 11.0978 49.4048V44.5501C11.0978 44.0629 10.7025 43.6676 10.2153 43.6676C9.72798 43.6676 9.33276 44.0629 9.33276 44.5501V47.3559C4.56202 42.5013 1.85759 35.9566 1.85759 29.1037C1.85759 14.7457 13.5382 3.06509 27.8962 3.06509C29.3334 3.06509 30.7776 3.18296 32.1832 3.41633C32.6623 3.49607 33.1185 3.17064 33.1983 2.68921C33.278 2.2078 32.9526 1.75393 32.4711 1.67419C30.9682 1.42616 29.4302 1.30008 27.8939 1.30008C20.4668 1.30008 13.4855 4.19216 8.23362 9.44371C2.98312 14.693 0.0917969 21.6767 0.0917969 29.104C0.0917969 36.3903 2.9522 43.3466 8.002 48.5226L4.91913 48.5223Z" stroke="#1742E7" stroke-width="0.56" mask="url(#path-1-inside-1_3325_125)"></path></svg>