<svg xmlns="http://www.w3.org/2000/svg" viewBox="0 0 55 55" fill="none"><mask id="path-1-inside-1_3325_112" fill="white"><path fill-rule="evenodd" clip-rule="evenodd" d="M3.00597 0.467282C2.14326 0.714521 1.20248 1.70095 1.00223 2.56823C0.931967 2.87246 0.894724 11.4078 0.89293 27.553C0.890504 51.4993 0.895146 52.0849 1.09223 52.4707C1.35905 52.9929 2.02256 53.6655 2.60969 54.0091L3.08362 54.2864L16.4675 54.2533C26.6964 54.2279 29.9412 54.1897 30.2326 54.0908C30.6747 53.9408 31.5769 53.0325 31.8874 52.4249C32.0909 52.0265 32.1021 51.778 32.1364 46.8845C32.1562 44.0666 32.203 41.7306 32.2403 41.6933C32.3285 41.6053 34.8868 42.8894 35.469 43.3139C35.7238 43.4997 36.1703 44.0246 36.5045 44.5312C38.0213 46.8309 40.1717 47.7724 42.516 47.1634C43.4977 46.9084 48.3803 44.3252 48.5781 43.9562C48.842 43.4638 48.4743 42.7971 47.9389 42.7971C47.7556 42.7971 46.623 43.3062 45.1321 44.059C42.1414 45.5688 41.8257 45.6847 40.887 45.6176C39.5856 45.5246 38.8352 45.0282 37.9689 43.6875C36.9215 42.0664 36.7952 41.9851 30.2777 38.7373C23.7131 35.4659 23.194 35.1826 22.8623 34.6911C22.3161 33.8819 22.7501 32.4831 23.7004 31.9895C24.3364 31.6591 24.6965 31.769 27.3962 33.1177C30.1758 34.5063 30.2327 34.5202 30.6778 33.9232L30.8929 33.6348L30.0211 31.8691C29.5417 30.8979 27.8644 27.6465 26.2938 24.6436C23.2454 18.8155 22.9472 18.1912 22.9433 17.6272C22.9392 17.0435 23.3299 16.3729 23.8791 16.0204C24.3055 15.7468 24.4401 15.7135 24.9768 15.7496C25.4844 15.7839 25.6401 15.8435 25.8916 16.0998C26.2674 16.4829 27.0553 17.8971 29.8494 23.2034C32.681 28.5809 33.2686 29.6534 33.4708 29.8136C33.884 30.141 34.7572 29.7638 34.7572 29.258C34.7572 29.1201 34.4249 28.3358 34.0187 27.515C33.1953 25.8512 33.137 25.5329 33.5176 24.7795C33.822 24.1766 34.4506 23.8111 35.1827 23.8111C36.0384 23.8111 36.2843 24.0325 37.084 25.5227C37.8578 26.9646 38.2957 27.5224 38.6541 27.5224C38.9237 27.5224 39.5049 26.9873 39.5049 26.7391C39.5049 26.647 39.1488 25.8618 38.7136 24.9942C38.2268 24.0238 37.9224 23.288 37.9224 23.0822C37.9224 22.2273 38.8854 21.3662 39.8257 21.3803C40.7588 21.3944 40.8181 21.4595 42.1934 23.9788C42.6687 24.8493 42.9032 25.0995 43.2444 25.0995C43.6193 25.0995 44.068 24.6748 44.068 24.3199C44.068 24.1584 43.7297 23.3402 43.3162 22.5019C42.5121 20.8711 42.4238 20.4715 42.747 19.9253C42.9862 19.5209 43.556 19.1368 44.1496 18.9797C44.5705 18.8683 44.684 18.8786 45.1106 19.067C45.7289 19.3401 45.9156 19.5992 47.1038 21.8339C49.693 26.7031 50.5431 28.6937 51.6949 32.5852C52.0732 33.8634 52.5584 35.3211 52.7731 35.8246C53.1254 36.6507 53.1637 36.8324 53.1656 37.688C53.1676 38.5793 53.1451 38.6771 52.7905 39.3208C52.5179 39.8159 52.2183 40.1624 51.7091 40.5718C51.0884 41.071 51.0049 41.1809 51.0049 41.4984C51.0049 41.9296 51.3973 42.3757 51.7766 42.3757C52.2785 42.3757 53.5883 41.279 54.1669 40.3742C54.7295 39.4946 54.9352 38.6649 54.8853 37.4773C54.8461 36.5406 54.7918 36.3012 54.3967 35.3178C54.1523 34.7094 53.6905 33.311 53.3704 32.2102C52.3398 28.666 51.597 26.8425 49.6229 23.0106C47.4613 18.8148 47.036 18.1844 45.9976 17.6372C45.5228 17.3869 45.353 17.3572 44.4109 17.36C43.516 17.3626 43.2854 17.4002 42.8924 17.6068C42.25 17.9446 41.4798 18.6898 41.1805 19.2632L40.9292 19.7446L40.342 19.6801C38.8235 19.5134 37.2376 20.353 36.5725 21.6759L36.3607 22.0973L35.4271 22.0984C34.166 22.1 33.5546 22.3209 32.7478 23.0668L32.1196 23.6474L32.1187 13.1282L32.1176 2.6089L31.8092 2.07197C31.4537 1.45308 30.5722 0.618976 30.1443 0.496568C29.9832 0.450428 25.4116 0.395649 19.9852 0.374792L10.119 0.336868L9.9359 0.646365C9.70791 1.0316 9.70569 1.23281 9.92514 1.60372L10.0976 1.8952L19.723 1.94503L29.3483 1.99496L29.733 2.2323C29.9445 2.36292 30.1602 2.54896 30.212 2.64577C30.2639 2.74247 30.3409 3.47302 30.3832 4.2691L30.46 5.7165H16.4505H2.44089L2.50303 4.4033C2.60558 2.23725 2.80182 2.04869 5.05317 1.95482C6.2441 1.90521 6.46133 1.86844 6.66675 1.68178C6.98527 1.3924 6.9821 0.875274 6.66 0.573046C6.43137 0.358674 6.31816 0.344664 4.8928 0.353512C4.0551 0.35878 3.20611 0.409976 3.00597 0.467282ZM30.4316 13.9508C30.4316 17.6105 30.4135 20.5852 30.3914 20.5611C30.3693 20.5369 29.97 19.7972 29.504 18.9173L28.6568 17.3176L28.6177 14.6509C28.5739 11.6532 28.5304 11.4445 27.8397 10.9185L27.4411 10.6149L16.5038 10.5867L5.56666 10.5585L5.08799 10.9791C4.40938 11.5756 4.37204 11.8036 4.37204 15.3527C4.37204 18.5128 4.4117 18.8256 4.87698 19.339C5.38888 19.9038 5.04758 19.8809 13.8147 19.9377L21.9385 19.9904L22.7402 21.5179C26.0588 27.841 27.8831 31.3663 27.8523 31.3969C27.8325 31.4167 27.2897 31.1694 26.6463 30.8471C26.0028 30.525 25.4071 30.2613 25.3226 30.2613C25.1099 30.2613 25.0828 30.1979 24.89 29.2516C24.5436 27.5513 23.7213 26.0685 22.4123 24.7835C21.4878 23.876 20.4118 23.2224 19.0605 22.7474C18.1907 22.4417 18.0538 22.424 16.5578 22.4238C15.3962 22.4237 14.8041 22.471 14.3317 22.6015C12.786 23.029 11.4432 23.8388 10.3165 25.0233C8.60243 26.8248 7.87087 28.8007 7.98935 31.3086C8.05919 32.7854 8.23802 33.4977 8.85047 34.7384C9.91417 36.893 11.9314 38.5427 14.2894 39.1863C15.2381 39.4452 17.7486 39.4456 18.7206 39.187C19.7943 38.9013 21.2224 38.148 21.9671 37.4745L22.6287 36.8762L25.2904 38.1955C26.7544 38.9211 28.5101 39.776 29.1919 40.0953L30.4316 40.6756V42.2103V43.7452H16.4523H2.47296V25.5209V7.29664H16.4523H30.4316V13.9508ZM26.8106 12.2839C26.9206 12.3934 26.9958 14.6706 26.8894 14.6706C26.8458 14.6706 26.5924 14.5402 26.3262 14.3809C25.8839 14.1162 25.7511 14.0913 24.7871 14.092C23.8193 14.0927 23.6858 14.1182 23.1741 14.4006C22.0248 15.0349 21.2907 16.1791 21.1788 17.5107L21.1166 18.2523H13.5883H6.0601L6.06084 15.9611C6.06126 14.7009 6.09175 13.3511 6.12857 12.9614L6.19557 12.2531L7.78953 12.2152C10.8849 12.1416 26.725 12.1988 26.8106 12.2839ZM18.1931 24.2752C18.4542 24.3362 19.0714 24.5769 19.5646 24.8102C20.8311 25.4089 21.9961 26.5715 22.5992 27.8384C23.0296 28.7425 23.3927 29.9555 23.3029 30.1892C23.2761 30.2589 23.0412 30.4288 22.7808 30.5667C22.1553 30.898 21.5098 31.6117 21.1679 32.3497C20.7986 33.1469 20.7897 34.2397 21.1451 35.1535L21.3885 35.7794L20.9865 36.1164C19.762 37.1427 18.4256 37.6494 16.7688 37.7153C15.3299 37.7725 14.4919 37.5944 13.3002 36.9784C12.0258 36.3196 10.9769 35.2379 10.3525 33.9389C9.79537 32.7797 9.64661 32.1512 9.64904 30.9672C9.65262 29.2837 10.1346 27.8689 11.1298 26.6202C12.1348 25.359 13.8225 24.3541 15.2762 24.1511C16.0145 24.048 17.4893 24.1108 18.1931 24.2752ZM17.5452 29.9115L14.823 32.6166L13.7707 31.597C12.5872 30.4503 12.3732 30.3696 11.925 30.9015C11.436 31.4817 11.5106 31.6315 13.0579 33.1765C14.2845 34.4012 14.5077 34.5804 14.8063 34.5804C15.1102 34.5804 15.4032 34.3298 17.4228 32.3418C20.1652 29.6424 21.3582 28.3389 21.3582 28.042C21.3582 27.7501 20.8026 27.2064 20.5044 27.2064C20.3356 27.2064 19.4846 27.9842 17.5452 29.9115ZM30.3762 48.6699C30.3327 50.5294 30.2559 51.9647 30.1959 52.0396C30.1384 52.1114 29.9186 52.2773 29.7076 52.4083L29.3238 52.6465L16.5578 52.6466C4.00172 52.6466 3.7849 52.6431 3.3727 52.4359C2.56686 52.0309 2.53721 51.8974 2.48974 48.4622L2.44785 45.4306H16.4498H30.4519L30.3762 48.6699ZM13.471 46.995C13.0621 47.1125 12.482 47.6509 12.276 48.1039C11.8361 49.0712 12.1313 50.1995 12.997 50.8595L13.4758 51.2245L16.1773 51.2199C17.6631 51.2173 19.0847 51.1756 19.3364 51.127C20.2771 50.9455 21.0571 49.7296 20.875 48.7283C20.7842 48.2287 20.4983 47.6508 20.2159 47.3958C19.7418 46.9677 19.3199 46.9144 16.4523 46.9206C14.9436 46.9238 13.602 46.9573 13.471 46.995ZM18.8789 48.6834C19.1448 48.7402 19.1954 48.8013 19.1954 49.066C19.1954 49.3802 19.1934 49.3812 18.4041 49.4662C17.9689 49.5131 16.7927 49.5341 15.7905 49.5128C14.2454 49.48 13.9407 49.4467 13.7878 49.2939C13.5292 49.0357 13.7335 48.765 14.2474 48.6849C14.7975 48.5992 18.4789 48.5981 18.8789 48.6834Z"></path></mask><path fill-rule="evenodd" clip-rule="evenodd" d="M3.00597 0.467282C2.14326 0.714521 1.20248 1.70095 1.00223 2.56823C0.931967 2.87246 0.894724 11.4078 0.89293 27.553C0.890504 51.4993 0.895146 52.0849 1.09223 52.4707C1.35905 52.9929 2.02256 53.6655 2.60969 54.0091L3.08362 54.2864L16.4675 54.2533C26.6964 54.2279 29.9412 54.1897 30.2326 54.0908C30.6747 53.9408 31.5769 53.0325 31.8874 52.4249C32.0909 52.0265 32.1021 51.778 32.1364 46.8845C32.1562 44.0666 32.203 41.7306 32.2403 41.6933C32.3285 41.6053 34.8868 42.8894 35.469 43.3139C35.7238 43.4997 36.1703 44.0246 36.5045 44.5312C38.0213 46.8309 40.1717 47.7724 42.516 47.1634C43.4977 46.9084 48.3803 44.3252 48.5781 43.9562C48.842 43.4638 48.4743 42.7971 47.9389 42.7971C47.7556 42.7971 46.623 43.3062 45.1321 44.059C42.1414 45.5688 41.8257 45.6847 40.887 45.6176C39.5856 45.5246 38.8352 45.0282 37.9689 43.6875C36.9215 42.0664 36.7952 41.9851 30.2777 38.7373C23.7131 35.4659 23.194 35.1826 22.8623 34.6911C22.3161 33.8819 22.7501 32.4831 23.7004 31.9895C24.3364 31.6591 24.6965 31.769 27.3962 33.1177C30.1758 34.5063 30.2327 34.5202 30.6778 33.9232L30.8929 33.6348L30.0211 31.8691C29.5417 30.8979 27.8644 27.6465 26.2938 24.6436C23.2454 18.8155 22.9472 18.1912 22.9433 17.6272C22.9392 17.0435 23.3299 16.3729 23.8791 16.0204C24.3055 15.7468 24.4401 15.7135 24.9768 15.7496C25.4844 15.7839 25.6401 15.8435 25.8916 16.0998C26.2674 16.4829 27.0553 17.8971 29.8494 23.2034C32.681 28.5809 33.2686 29.6534 33.4708 29.8136C33.884 30.141 34.7572 29.7638 34.7572 29.258C34.7572 29.1201 34.4249 28.3358 34.0187 27.515C33.1953 25.8512 33.137 25.5329 33.5176 24.7795C33.822 24.1766 34.4506 23.8111 35.1827 23.8111C36.0384 23.8111 36.2843 24.0325 37.084 25.5227C37.8578 26.9646 38.2957 27.5224 38.6541 27.5224C38.9237 27.5224 39.5049 26.9873 39.5049 26.7391C39.5049 26.647 39.1488 25.8618 38.7136 24.9942C38.2268 24.0238 37.9224 23.288 37.9224 23.0822C37.9224 22.2273 38.8854 21.3662 39.8257 21.3803C40.7588 21.3944 40.8181 21.4595 42.1934 23.9788C42.6687 24.8493 42.9032 25.0995 43.2444 25.0995C43.6193 25.0995 44.068 24.6748 44.068 24.3199C44.068 24.1584 43.7297 23.3402 43.3162 22.5019C42.5121 20.8711 42.4238 20.4715 42.747 19.9253C42.9862 19.5209 43.556 19.1368 44.1496 18.9797C44.5705 18.8683 44.684 18.8786 45.1106 19.067C45.7289 19.3401 45.9156 19.5992 47.1038 21.8339C49.693 26.7031 50.5431 28.6937 51.6949 32.5852C52.0732 33.8634 52.5584 35.3211 52.7731 35.8246C53.1254 36.6507 53.1637 36.8324 53.1656 37.688C53.1676 38.5793 53.1451 38.6771 52.7905 39.3208C52.5179 39.8159 52.2183 40.1624 51.7091 40.5718C51.0884 41.071 51.0049 41.1809 51.0049 41.4984C51.0049 41.9296 51.3973 42.3757 51.7766 42.3757C52.2785 42.3757 53.5883 41.279 54.1669 40.3742C54.7295 39.4946 54.9352 38.6649 54.8853 37.4773C54.8461 36.5406 54.7918 36.3012 54.3967 35.3178C54.1523 34.7094 53.6905 33.311 53.3704 32.2102C52.3398 28.666 51.597 26.8425 49.6229 23.0106C47.4613 18.8148 47.036 18.1844 45.9976 17.6372C45.5228 17.3869 45.353 17.3572 44.4109 17.36C43.516 17.3626 43.2854 17.4002 42.8924 17.6068C42.25 17.9446 41.4798 18.6898 41.1805 19.2632L40.9292 19.7446L40.342 19.6801C38.8235 19.5134 37.2376 20.353 36.5725 21.6759L36.3607 22.0973L35.4271 22.0984C34.166 22.1 33.5546 22.3209 32.7478 23.0668L32.1196 23.6474L32.1187 13.1282L32.1176 2.6089L31.8092 2.07197C31.4537 1.45308 30.5722 0.618976 30.1443 0.496568C29.9832 0.450428 25.4116 0.395649 19.9852 0.374792L10.119 0.336868L9.9359 0.646365C9.70791 1.0316 9.70569 1.23281 9.92514 1.60372L10.0976 1.8952L19.723 1.94503L29.3483 1.99496L29.733 2.2323C29.9445 2.36292 30.1602 2.54896 30.212 2.64577C30.2639 2.74247 30.3409 3.47302 30.3832 4.2691L30.46 5.7165H16.4505H2.44089L2.50303 4.4033C2.60558 2.23725 2.80182 2.04869 5.05317 1.95482C6.2441 1.90521 6.46133 1.86844 6.66675 1.68178C6.98527 1.3924 6.9821 0.875274 6.66 0.573046C6.43137 0.358674 6.31816 0.344664 4.8928 0.353512C4.0551 0.35878 3.20611 0.409976 3.00597 0.467282ZM30.4316 13.9508C30.4316 17.6105 30.4135 20.5852 30.3914 20.5611C30.3693 20.5369 29.97 19.7972 29.504 18.9173L28.6568 17.3176L28.6177 14.6509C28.5739 11.6532 28.5304 11.4445 27.8397 10.9185L27.4411 10.6149L16.5038 10.5867L5.56666 10.5585L5.08799 10.9791C4.40938 11.5756 4.37204 11.8036 4.37204 15.3527C4.37204 18.5128 4.4117 18.8256 4.87698 19.339C5.38888 19.9038 5.04758 19.8809 13.8147 19.9377L21.9385 19.9904L22.7402 21.5179C26.0588 27.841 27.8831 31.3663 27.8523 31.3969C27.8325 31.4167 27.2897 31.1694 26.6463 30.8471C26.0028 30.525 25.4071 30.2613 25.3226 30.2613C25.1099 30.2613 25.0828 30.1979 24.89 29.2516C24.5436 27.5513 23.7213 26.0685 22.4123 24.7835C21.4878 23.876 20.4118 23.2224 19.0605 22.7474C18.1907 22.4417 18.0538 22.424 16.5578 22.4238C15.3962 22.4237 14.8041 22.471 14.3317 22.6015C12.786 23.029 11.4432 23.8388 10.3165 25.0233C8.60243 26.8248 7.87087 28.8007 7.98935 31.3086C8.05919 32.7854 8.23802 33.4977 8.85047 34.7384C9.91417 36.893 11.9314 38.5427 14.2894 39.1863C15.2381 39.4452 17.7486 39.4456 18.7206 39.187C19.7943 38.9013 21.2224 38.148 21.9671 37.4745L22.6287 36.8762L25.2904 38.1955C26.7544 38.9211 28.5101 39.776 29.1919 40.0953L30.4316 40.6756V42.2103V43.7452H16.4523H2.47296V25.5209V7.29664H16.4523H30.4316V13.9508ZM26.8106 12.2839C26.9206 12.3934 26.9958 14.6706 26.8894 14.6706C26.8458 14.6706 26.5924 14.5402 26.3262 14.3809C25.8839 14.1162 25.7511 14.0913 24.7871 14.092C23.8193 14.0927 23.6858 14.1182 23.1741 14.4006C22.0248 15.0349 21.2907 16.1791 21.1788 17.5107L21.1166 18.2523H13.5883H6.0601L6.06084 15.9611C6.06126 14.7009 6.09175 13.3511 6.12857 12.9614L6.19557 12.2531L7.78953 12.2152C10.8849 12.1416 26.725 12.1988 26.8106 12.2839ZM18.1931 24.2752C18.4542 24.3362 19.0714 24.5769 19.5646 24.8102C20.8311 25.4089 21.9961 26.5715 22.5992 27.8384C23.0296 28.7425 23.3927 29.9555 23.3029 30.1892C23.2761 30.2589 23.0412 30.4288 22.7808 30.5667C22.1553 30.898 21.5098 31.6117 21.1679 32.3497C20.7986 33.1469 20.7897 34.2397 21.1451 35.1535L21.3885 35.7794L20.9865 36.1164C19.762 37.1427 18.4256 37.6494 16.7688 37.7153C15.3299 37.7725 14.4919 37.5944 13.3002 36.9784C12.0258 36.3196 10.9769 35.2379 10.3525 33.9389C9.79537 32.7797 9.64661 32.1512 9.64904 30.9672C9.65262 29.2837 10.1346 27.8689 11.1298 26.6202C12.1348 25.359 13.8225 24.3541 15.2762 24.1511C16.0145 24.048 17.4893 24.1108 18.1931 24.2752ZM17.5452 29.9115L14.823 32.6166L13.7707 31.597C12.5872 30.4503 12.3732 30.3696 11.925 30.9015C11.436 31.4817 11.5106 31.6315 13.0579 33.1765C14.2845 34.4012 14.5077 34.5804 14.8063 34.5804C15.1102 34.5804 15.4032 34.3298 17.4228 32.3418C20.1652 29.6424 21.3582 28.3389 21.3582 28.042C21.3582 27.7501 20.8026 27.2064 20.5044 27.2064C20.3356 27.2064 19.4846 27.9842 17.5452 29.9115ZM30.3762 48.6699C30.3327 50.5294 30.2559 51.9647 30.1959 52.0396C30.1384 52.1114 29.9186 52.2773 29.7076 52.4083L29.3238 52.6465L16.5578 52.6466C4.00172 52.6466 3.7849 52.6431 3.3727 52.4359C2.56686 52.0309 2.53721 51.8974 2.48974 48.4622L2.44785 45.4306H16.4498H30.4519L30.3762 48.6699ZM13.471 46.995C13.0621 47.1125 12.482 47.6509 12.276 48.1039C11.8361 49.0712 12.1313 50.1995 12.997 50.8595L13.4758 51.2245L16.1773 51.2199C17.6631 51.2173 19.0847 51.1756 19.3364 51.127C20.2771 50.9455 21.0571 49.7296 20.875 48.7283C20.7842 48.2287 20.4983 47.6508 20.2159 47.3958C19.7418 46.9677 19.3199 46.9144 16.4523 46.9206C14.9436 46.9238 13.602 46.9573 13.471 46.995ZM18.8789 48.6834C19.1448 48.7402 19.1954 48.8013 19.1954 49.066C19.1954 49.3802 19.1934 49.3812 18.4041 49.4662C17.9689 49.5131 16.7927 49.5341 15.7905 49.5128C14.2454 49.48 13.9407 49.4467 13.7878 49.2939C13.5292 49.0357 13.7335 48.765 14.2474 48.6849C14.7975 48.5992 18.4789 48.5981 18.8789 48.6834Z" fill="#1742E7" stroke="#1742E7" stroke-width="0.56" mask="url(#path-1-inside-1_3325_112)"></path></svg>