<svg xmlns="http://www.w3.org/2000/svg" viewBox="0 0 57 54" fill="none"><mask id="path-1-inside-1_3325_122" fill="white"><path d="M40.0501 36.7211H6.51816C6.16346 36.7211 5.88471 36.4424 5.88471 36.0877C5.88471 35.733 6.16346 35.4542 6.51816 35.4542H40.0511C40.4058 35.4542 40.6846 35.733 40.6846 36.0877C40.6842 36.4428 40.4048 36.7211 40.0501 36.7211Z"></path><path d="M15.4356 36.7211H8.56947C8.21477 36.7211 7.93602 36.4424 7.93602 36.0877V21.2029C7.93602 20.3162 8.65815 19.5813 9.55765 19.5813H14.4602C15.3469 19.5813 16.0818 20.3034 16.0818 21.2029V36.0877C16.0691 36.4424 15.7903 36.7211 15.4356 36.7211ZM14.8021 35.4547V21.2031C14.8021 21.013 14.6375 20.8484 14.4474 20.8484H9.54485C9.35477 20.8484 9.19015 21.013 9.19015 21.2031V35.4547H14.8021Z"></path><path d="M26.7228 36.7211H19.8567C19.502 36.7211 19.2233 36.4424 19.2233 36.0877V15.1603C19.2233 14.2608 19.9581 13.5259 20.8576 13.5259H25.7347C26.6342 13.5259 27.3691 14.2608 27.3691 15.1603V36.0877C27.3563 36.4424 27.0775 36.7211 26.7228 36.7211ZM20.4901 35.4547H26.0894V15.1604C26.0894 14.9576 25.9247 14.793 25.7219 14.793H20.8448C20.642 14.793 20.4774 14.9576 20.4774 15.1604L20.4901 35.4547Z"></path><path d="M38.0101 36.7211H31.144C30.7893 36.7211 30.5105 36.4424 30.5105 36.0877V8.29406C30.5105 7.39459 31.2454 6.67243 32.1449 6.67243H37.022C37.9214 6.67243 38.6563 7.40728 38.6563 8.29406V36.0877C38.6436 36.4424 38.3648 36.7211 38.0101 36.7211ZM31.7774 35.4547H37.3766V8.29423C37.3766 8.09143 37.212 7.93953 37.0092 7.93953H32.1321C31.942 7.93953 31.7647 8.10415 31.7647 8.29423L31.7774 35.4547Z"></path><path d="M12.003 17.7197C10.7997 17.7197 9.8116 16.7316 9.8116 15.5283C9.8116 14.3251 10.7997 13.3369 12.003 13.3369C13.2062 13.3369 14.1944 14.3251 14.1944 15.5283C14.1948 16.7316 13.2066 17.7197 12.003 17.7197ZM12.003 14.6034C11.4964 14.6034 11.0781 15.0213 11.0781 15.5283C11.0781 16.0349 11.496 16.4532 12.003 16.4532C12.5096 16.4532 12.9279 16.0353 12.9279 15.5283C12.9279 15.0213 12.5096 14.6034 12.003 14.6034Z"></path><path d="M23.2902 11.6638C22.087 11.6638 21.0989 10.6757 21.0989 9.47243C21.0989 8.26878 22.087 7.29336 23.2902 7.29336C24.4935 7.29336 25.4816 8.2815 25.4816 9.48474C25.482 10.6884 24.4939 11.6638 23.2902 11.6638ZM23.2902 8.56022C22.7836 8.56022 22.3653 8.97815 22.3653 9.48514C22.3653 9.99174 22.7833 10.4101 23.2902 10.4101C23.7968 10.4101 24.2152 9.99213 24.2152 9.48514C24.2152 8.97814 23.7972 8.56022 23.2902 8.56022Z"></path><path d="M34.5775 4.79781C33.3743 4.79781 32.3861 3.80966 32.3861 2.60642C32.3861 1.40318 33.3743 0.415039 34.5775 0.415039C35.7807 0.415039 36.7689 1.40318 36.7689 2.60642C36.7689 3.80966 35.7807 4.79781 34.5775 4.79781ZM34.5775 1.6815C34.0709 1.6815 33.6526 2.09942 33.6526 2.60641C33.6526 3.11302 34.0705 3.53133 34.5775 3.53133C35.0841 3.53133 35.5024 3.1134 35.5024 2.60641C35.502 2.09941 35.0841 1.6815 34.5775 1.6815Z"></path><path d="M13.3711 15.4262C13.1433 15.4262 12.9278 15.2994 12.8136 15.097C12.649 14.7928 12.7631 14.4003 13.0669 14.2357L21.6179 9.64963C21.9221 9.485 22.3146 9.59912 22.4792 9.90293C22.6438 10.2071 22.5297 10.5996 22.2259 10.7642L13.6749 15.3503C13.5739 15.4008 13.4725 15.4262 13.3711 15.4262ZM24.6207 9.29459C24.4052 9.29459 24.2028 9.19319 24.076 8.99039C23.8986 8.68619 23.9873 8.30643 24.2915 8.11637L32.9184 2.85906C33.2226 2.68171 33.6023 2.77039 33.7924 3.07459C33.9697 3.37879 33.8811 3.75854 33.5769 3.94861L24.95 9.20591C24.8486 9.26954 24.7345 9.29459 24.6207 9.29459Z"></path><path d="M13.9534 11.9427H1.52603C1.17133 11.9427 0.892578 11.664 0.892578 11.3093C0.892578 10.9546 1.17133 10.6758 1.52603 10.6758H13.9534C14.3081 10.6758 14.5869 10.9546 14.5869 11.3093C14.5869 11.664 14.3081 11.9427 13.9534 11.9427Z"></path><path d="M18.7928 8.34472H1.52603C1.17133 8.34472 0.892578 8.06597 0.892578 7.71127C0.892578 7.35657 1.17133 7.07782 1.52603 7.07782H18.7928C19.1475 7.07782 19.4263 7.35657 19.4263 7.71127C19.4263 8.06597 19.1348 8.34472 18.7928 8.34472Z"></path><path d="M24.8355 4.74691H1.52603C1.17133 4.74691 0.892578 4.46816 0.892578 4.11346C0.892578 3.75875 1.17133 3.48 1.52603 3.48H24.8477C25.2024 3.48 25.4812 3.75875 25.4812 4.11346C25.4685 4.45583 25.1902 4.74691 24.8355 4.74691Z"></path><path d="M42.3935 45.8931H4.18701C2.37532 45.8931 0.893363 44.411 0.893363 42.5994V18.783C0.893363 16.9586 2.37543 15.4893 4.18701 15.4893H10.5716C10.9263 15.4893 11.2051 15.7681 11.2051 16.1228C11.2051 16.4775 10.9263 16.7562 10.5716 16.7562H4.18701C3.07243 16.7562 2.16023 17.6684 2.16023 18.783V42.5862C2.16023 43.7008 3.07242 44.613 4.18701 44.613H42.3935C43.508 44.613 44.4203 43.7008 44.4203 42.5862V21.9123C44.4203 21.5576 44.699 21.2788 45.0537 21.2788C45.4084 21.2788 45.6872 21.5576 45.6872 21.9123V42.5994C45.6872 44.4107 44.2051 45.8931 42.3935 45.8931ZM40.62 16.7567H38.0102C37.6555 16.7567 37.3767 16.478 37.3767 16.1233C37.3767 15.7686 37.6555 15.4898 38.0102 15.4898H40.62C40.9747 15.4898 41.2534 15.7686 41.2534 16.1233C41.2534 16.478 40.9747 16.7567 40.62 16.7567ZM31.1441 16.7567H26.723C26.3683 16.7567 26.0896 16.478 26.0896 16.1233C26.0896 15.7686 26.3683 15.4898 26.723 15.4898H31.1441C31.4988 15.4898 31.7775 15.7686 31.7775 16.1233C31.7775 16.478 31.4988 16.7567 31.1441 16.7567ZM19.8568 16.7567H13.4468C13.0921 16.7567 12.8133 16.478 12.8133 16.1233C12.8133 15.7686 13.0921 15.4898 13.4468 15.4898H19.8568C20.2115 15.4898 20.4903 15.7686 20.4903 16.1233C20.4903 16.478 20.1988 16.7567 19.8568 16.7567Z"></path><path d="M45.0534 40.395H1.52603C1.17133 40.395 0.892578 40.1162 0.892578 39.7615C0.892578 39.4068 1.17133 39.1281 1.52603 39.1281H45.0656C45.4203 39.1281 45.6991 39.4068 45.6991 39.7615C45.6991 40.1162 45.4081 40.395 45.0534 40.395Z"></path><path d="M31.094 53.8861H15.4743C15.2464 53.8861 15.0309 53.7593 14.9168 53.5696C14.8026 53.3795 14.8026 53.1262 14.9295 52.9362L19.7179 44.9428C19.8953 44.6386 20.2881 44.5499 20.5919 44.7272C20.8961 44.9046 20.9848 45.2975 20.8075 45.6013L16.5889 52.632H29.966L25.7475 45.6013C25.5701 45.2971 25.6715 44.9173 25.963 44.7272C26.2672 44.5499 26.6469 44.6513 26.837 44.9428L31.6382 52.9362C31.7523 53.1262 31.765 53.3795 31.6509 53.5696C31.5372 53.7593 31.3219 53.8861 31.094 53.8861Z"></path><path d="M26.6974 43.1435H19.8694C19.5147 43.1435 19.236 42.8648 19.236 42.5101C19.236 42.1554 19.5147 41.8766 19.8694 41.8766L26.6974 41.877C27.0521 41.877 27.3308 42.1558 27.3308 42.5105C27.3308 42.8652 27.0521 43.1435 26.6974 43.1435Z"></path><path d="M48.3853 23.2799C45.4463 23.2799 42.5832 21.7596 40.9998 19.0235C38.6561 14.9572 40.0498 9.75043 44.1161 7.40646C45.2943 6.7225 46.5736 6.34237 47.9291 6.27916C48.1319 6.26643 48.322 6.35511 48.4484 6.50701C48.5753 6.65891 48.6258 6.87443 48.5625 7.06451L46.1556 16.0333L55.1244 18.4403C55.3145 18.4908 55.4791 18.6304 55.555 18.8205C55.631 19.0106 55.6055 19.2257 55.4918 19.3907C54.757 20.5307 53.7815 21.4429 52.6033 22.1269C51.286 22.9127 49.8291 23.2799 48.3853 23.2799ZM47.1184 7.64792C46.2949 7.7871 45.4968 8.07857 44.762 8.50921C41.3036 10.5109 40.1127 14.9447 42.1144 18.3902C44.1162 21.8359 48.55 23.0395 51.9955 21.0378C52.7431 20.6071 53.3889 20.0751 53.9209 19.4289L45.2431 17.0979C45.0785 17.0598 44.9389 16.946 44.8629 16.8065C44.787 16.6673 44.7615 16.4899 44.7997 16.3249L47.1184 7.64792Z"></path><path d="M55.9742 17.4408C55.9237 17.4408 55.8601 17.4281 55.8096 17.4153L48.2086 15.3758C48.044 15.3377 47.9044 15.2239 47.8285 15.0844C47.7525 14.9452 47.7271 14.7678 47.7652 14.6028L49.8047 7.00183C49.8934 6.65986 50.2481 6.45706 50.5774 6.55846C52.7687 7.14101 54.6059 8.56019 55.7459 10.5233C56.8859 12.4869 57.1902 14.7797 56.5945 16.9716C56.5563 17.1362 56.4426 17.2758 56.303 17.3517C56.202 17.4153 56.0879 17.4408 55.9742 17.4408ZM49.1459 14.3245L55.4927 16.022C55.7969 14.3499 55.4927 12.6396 54.6314 11.145C53.7701 9.65017 52.44 8.54791 50.8439 7.96543L49.1459 14.3245Z"></path></mask><path d="M40.0501 36.7211H6.51816C6.16346 36.7211 5.88471 36.4424 5.88471 36.0877C5.88471 35.733 6.16346 35.4542 6.51816 35.4542H40.0511C40.4058 35.4542 40.6846 35.733 40.6846 36.0877C40.6842 36.4428 40.4048 36.7211 40.0501 36.7211Z" fill="#1742E7"></path><path d="M15.4356 36.7211H8.56947C8.21477 36.7211 7.93602 36.4424 7.93602 36.0877V21.2029C7.93602 20.3162 8.65815 19.5813 9.55765 19.5813H14.4602C15.3469 19.5813 16.0818 20.3034 16.0818 21.2029V36.0877C16.0691 36.4424 15.7903 36.7211 15.4356 36.7211ZM14.8021 35.4547V21.2031C14.8021 21.013 14.6375 20.8484 14.4474 20.8484H9.54485C9.35477 20.8484 9.19015 21.013 9.19015 21.2031V35.4547H14.8021Z" fill="#1742E7"></path><path d="M26.7228 36.7211H19.8567C19.502 36.7211 19.2233 36.4424 19.2233 36.0877V15.1603C19.2233 14.2608 19.9581 13.5259 20.8576 13.5259H25.7347C26.6342 13.5259 27.3691 14.2608 27.3691 15.1603V36.0877C27.3563 36.4424 27.0775 36.7211 26.7228 36.7211ZM20.4901 35.4547H26.0894V15.1604C26.0894 14.9576 25.9247 14.793 25.7219 14.793H20.8448C20.642 14.793 20.4774 14.9576 20.4774 15.1604L20.4901 35.4547Z" fill="#1742E7"></path><path d="M38.0101 36.7211H31.144C30.7893 36.7211 30.5105 36.4424 30.5105 36.0877V8.29406C30.5105 7.39459 31.2454 6.67243 32.1449 6.67243H37.022C37.9214 6.67243 38.6563 7.40728 38.6563 8.29406V36.0877C38.6436 36.4424 38.3648 36.7211 38.0101 36.7211ZM31.7774 35.4547H37.3766V8.29423C37.3766 8.09143 37.212 7.93953 37.0092 7.93953H32.1321C31.942 7.93953 31.7647 8.10415 31.7647 8.29423L31.7774 35.4547Z" fill="#1742E7"></path><path d="M12.003 17.7197C10.7997 17.7197 9.8116 16.7316 9.8116 15.5283C9.8116 14.3251 10.7997 13.3369 12.003 13.3369C13.2062 13.3369 14.1944 14.3251 14.1944 15.5283C14.1948 16.7316 13.2066 17.7197 12.003 17.7197ZM12.003 14.6034C11.4964 14.6034 11.0781 15.0213 11.0781 15.5283C11.0781 16.0349 11.496 16.4532 12.003 16.4532C12.5096 16.4532 12.9279 16.0353 12.9279 15.5283C12.9279 15.0213 12.5096 14.6034 12.003 14.6034Z" fill="#1742E7"></path><path d="M23.2902 11.6638C22.087 11.6638 21.0989 10.6757 21.0989 9.47243C21.0989 8.26878 22.087 7.29336 23.2902 7.29336C24.4935 7.29336 25.4816 8.2815 25.4816 9.48474C25.482 10.6884 24.4939 11.6638 23.2902 11.6638ZM23.2902 8.56022C22.7836 8.56022 22.3653 8.97815 22.3653 9.48514C22.3653 9.99174 22.7833 10.4101 23.2902 10.4101C23.7968 10.4101 24.2152 9.99213 24.2152 9.48514C24.2152 8.97814 23.7972 8.56022 23.2902 8.56022Z" fill="#1742E7"></path><path d="M34.5775 4.79781C33.3743 4.79781 32.3861 3.80966 32.3861 2.60642C32.3861 1.40318 33.3743 0.415039 34.5775 0.415039C35.7807 0.415039 36.7689 1.40318 36.7689 2.60642C36.7689 3.80966 35.7807 4.79781 34.5775 4.79781ZM34.5775 1.6815C34.0709 1.6815 33.6526 2.09942 33.6526 2.60641C33.6526 3.11302 34.0705 3.53133 34.5775 3.53133C35.0841 3.53133 35.5024 3.1134 35.5024 2.60641C35.502 2.09941 35.0841 1.6815 34.5775 1.6815Z" fill="#1742E7"></path><path d="M13.3711 15.4262C13.1433 15.4262 12.9278 15.2994 12.8136 15.097C12.649 14.7928 12.7631 14.4003 13.0669 14.2357L21.6179 9.64963C21.9221 9.485 22.3146 9.59912 22.4792 9.90293C22.6438 10.2071 22.5297 10.5996 22.2259 10.7642L13.6749 15.3503C13.5739 15.4008 13.4725 15.4262 13.3711 15.4262ZM24.6207 9.29459C24.4052 9.29459 24.2028 9.19319 24.076 8.99039C23.8986 8.68619 23.9873 8.30643 24.2915 8.11637L32.9184 2.85906C33.2226 2.68171 33.6023 2.77039 33.7924 3.07459C33.9697 3.37879 33.8811 3.75854 33.5769 3.94861L24.95 9.20591C24.8486 9.26954 24.7345 9.29459 24.6207 9.29459Z" fill="#1742E7"></path><path d="M13.9534 11.9427H1.52603C1.17133 11.9427 0.892578 11.664 0.892578 11.3093C0.892578 10.9546 1.17133 10.6758 1.52603 10.6758H13.9534C14.3081 10.6758 14.5869 10.9546 14.5869 11.3093C14.5869 11.664 14.3081 11.9427 13.9534 11.9427Z" fill="#1742E7"></path><path d="M18.7928 8.34472H1.52603C1.17133 8.34472 0.892578 8.06597 0.892578 7.71127C0.892578 7.35657 1.17133 7.07782 1.52603 7.07782H18.7928C19.1475 7.07782 19.4263 7.35657 19.4263 7.71127C19.4263 8.06597 19.1348 8.34472 18.7928 8.34472Z" fill="#1742E7"></path><path d="M24.8355 4.74691H1.52603C1.17133 4.74691 0.892578 4.46816 0.892578 4.11346C0.892578 3.75875 1.17133 3.48 1.52603 3.48H24.8477C25.2024 3.48 25.4812 3.75875 25.4812 4.11346C25.4685 4.45583 25.1902 4.74691 24.8355 4.74691Z" fill="#1742E7"></path><path d="M42.3935 45.8931H4.18701C2.37532 45.8931 0.893363 44.411 0.893363 42.5994V18.783C0.893363 16.9586 2.37543 15.4893 4.18701 15.4893H10.5716C10.9263 15.4893 11.2051 15.7681 11.2051 16.1228C11.2051 16.4775 10.9263 16.7562 10.5716 16.7562H4.18701C3.07243 16.7562 2.16023 17.6684 2.16023 18.783V42.5862C2.16023 43.7008 3.07242 44.613 4.18701 44.613H42.3935C43.508 44.613 44.4203 43.7008 44.4203 42.5862V21.9123C44.4203 21.5576 44.699 21.2788 45.0537 21.2788C45.4084 21.2788 45.6872 21.5576 45.6872 21.9123V42.5994C45.6872 44.4107 44.2051 45.8931 42.3935 45.8931ZM40.62 16.7567H38.0102C37.6555 16.7567 37.3767 16.478 37.3767 16.1233C37.3767 15.7686 37.6555 15.4898 38.0102 15.4898H40.62C40.9747 15.4898 41.2534 15.7686 41.2534 16.1233C41.2534 16.478 40.9747 16.7567 40.62 16.7567ZM31.1441 16.7567H26.723C26.3683 16.7567 26.0896 16.478 26.0896 16.1233C26.0896 15.7686 26.3683 15.4898 26.723 15.4898H31.1441C31.4988 15.4898 31.7775 15.7686 31.7775 16.1233C31.7775 16.478 31.4988 16.7567 31.1441 16.7567ZM19.8568 16.7567H13.4468C13.0921 16.7567 12.8133 16.478 12.8133 16.1233C12.8133 15.7686 13.0921 15.4898 13.4468 15.4898H19.8568C20.2115 15.4898 20.4903 15.7686 20.4903 16.1233C20.4903 16.478 20.1988 16.7567 19.8568 16.7567Z" fill="#1742E7"></path><path d="M45.0534 40.395H1.52603C1.17133 40.395 0.892578 40.1162 0.892578 39.7615C0.892578 39.4068 1.17133 39.1281 1.52603 39.1281H45.0656C45.4203 39.1281 45.6991 39.4068 45.6991 39.7615C45.6991 40.1162 45.4081 40.395 45.0534 40.395Z" fill="#1742E7"></path><path d="M31.094 53.8861H15.4743C15.2464 53.8861 15.0309 53.7593 14.9168 53.5696C14.8026 53.3795 14.8026 53.1262 14.9295 52.9362L19.7179 44.9428C19.8953 44.6386 20.2881 44.5499 20.5919 44.7272C20.8961 44.9046 20.9848 45.2975 20.8075 45.6013L16.5889 52.632H29.966L25.7475 45.6013C25.5701 45.2971 25.6715 44.9173 25.963 44.7272C26.2672 44.5499 26.6469 44.6513 26.837 44.9428L31.6382 52.9362C31.7523 53.1262 31.765 53.3795 31.6509 53.5696C31.5372 53.7593 31.3219 53.8861 31.094 53.8861Z" fill="#1742E7"></path><path d="M26.6974 43.1435H19.8694C19.5147 43.1435 19.236 42.8648 19.236 42.5101C19.236 42.1554 19.5147 41.8766 19.8694 41.8766L26.6974 41.877C27.0521 41.877 27.3308 42.1558 27.3308 42.5105C27.3308 42.8652 27.0521 43.1435 26.6974 43.1435Z" fill="#1742E7"></path><path d="M48.3853 23.2799C45.4463 23.2799 42.5832 21.7596 40.9998 19.0235C38.6561 14.9572 40.0498 9.75043 44.1161 7.40646C45.2943 6.7225 46.5736 6.34237 47.9291 6.27916C48.1319 6.26643 48.322 6.35511 48.4484 6.50701C48.5753 6.65891 48.6258 6.87443 48.5625 7.06451L46.1556 16.0333L55.1244 18.4403C55.3145 18.4908 55.4791 18.6304 55.555 18.8205C55.631 19.0106 55.6055 19.2257 55.4918 19.3907C54.757 20.5307 53.7815 21.4429 52.6033 22.1269C51.286 22.9127 49.8291 23.2799 48.3853 23.2799ZM47.1184 7.64792C46.2949 7.7871 45.4968 8.07857 44.762 8.50921C41.3036 10.5109 40.1127 14.9447 42.1144 18.3902C44.1162 21.8359 48.55 23.0395 51.9955 21.0378C52.7431 20.6071 53.3889 20.0751 53.9209 19.4289L45.2431 17.0979C45.0785 17.0598 44.9389 16.946 44.8629 16.8065C44.787 16.6673 44.7615 16.4899 44.7997 16.3249L47.1184 7.64792Z" fill="#1742E7"></path><path d="M55.9742 17.4408C55.9237 17.4408 55.8601 17.4281 55.8096 17.4153L48.2086 15.3758C48.044 15.3377 47.9044 15.2239 47.8285 15.0844C47.7525 14.9452 47.7271 14.7678 47.7652 14.6028L49.8047 7.00183C49.8934 6.65986 50.2481 6.45706 50.5774 6.55846C52.7687 7.14101 54.6059 8.56019 55.7459 10.5233C56.8859 12.4869 57.1902 14.7797 56.5945 16.9716C56.5563 17.1362 56.4426 17.2758 56.303 17.3517C56.202 17.4153 56.0879 17.4408 55.9742 17.4408ZM49.1459 14.3245L55.4927 16.022C55.7969 14.3499 55.4927 12.6396 54.6314 11.145C53.7701 9.65017 52.44 8.54791 50.8439 7.96543L49.1459 14.3245Z" fill="#1742E7"></path><path d="M40.0501 36.7211H6.51816C6.16346 36.7211 5.88471 36.4424 5.88471 36.0877C5.88471 35.733 6.16346 35.4542 6.51816 35.4542H40.0511C40.4058 35.4542 40.6846 35.733 40.6846 36.0877C40.6842 36.4428 40.4048 36.7211 40.0501 36.7211Z" stroke="#1742E7" stroke-width="2" mask="url(#path-1-inside-1_3325_122)"></path><path d="M15.4356 36.7211H8.56947C8.21477 36.7211 7.93602 36.4424 7.93602 36.0877V21.2029C7.93602 20.3162 8.65815 19.5813 9.55765 19.5813H14.4602C15.3469 19.5813 16.0818 20.3034 16.0818 21.2029V36.0877C16.0691 36.4424 15.7903 36.7211 15.4356 36.7211ZM14.8021 35.4547V21.2031C14.8021 21.013 14.6375 20.8484 14.4474 20.8484H9.54485C9.35477 20.8484 9.19015 21.013 9.19015 21.2031V35.4547H14.8021Z" stroke="#1742E7" stroke-width="2" mask="url(#path-1-inside-1_3325_122)"></path><path d="M26.7228 36.7211H19.8567C19.502 36.7211 19.2233 36.4424 19.2233 36.0877V15.1603C19.2233 14.2608 19.9581 13.5259 20.8576 13.5259H25.7347C26.6342 13.5259 27.3691 14.2608 27.3691 15.1603V36.0877C27.3563 36.4424 27.0775 36.7211 26.7228 36.7211ZM20.4901 35.4547H26.0894V15.1604C26.0894 14.9576 25.9247 14.793 25.7219 14.793H20.8448C20.642 14.793 20.4774 14.9576 20.4774 15.1604L20.4901 35.4547Z" stroke="#1742E7" stroke-width="2" mask="url(#path-1-inside-1_3325_122)"></path><path d="M38.0101 36.7211H31.144C30.7893 36.7211 30.5105 36.4424 30.5105 36.0877V8.29406C30.5105 7.39459 31.2454 6.67243 32.1449 6.67243H37.022C37.9214 6.67243 38.6563 7.40728 38.6563 8.29406V36.0877C38.6436 36.4424 38.3648 36.7211 38.0101 36.7211ZM31.7774 35.4547H37.3766V8.29423C37.3766 8.09143 37.212 7.93953 37.0092 7.93953H32.1321C31.942 7.93953 31.7647 8.10415 31.7647 8.29423L31.7774 35.4547Z" stroke="#1742E7" stroke-width="2" mask="url(#path-1-inside-1_3325_122)"></path><path d="M12.003 17.7197C10.7997 17.7197 9.8116 16.7316 9.8116 15.5283C9.8116 14.3251 10.7997 13.3369 12.003 13.3369C13.2062 13.3369 14.1944 14.3251 14.1944 15.5283C14.1948 16.7316 13.2066 17.7197 12.003 17.7197ZM12.003 14.6034C11.4964 14.6034 11.0781 15.0213 11.0781 15.5283C11.0781 16.0349 11.496 16.4532 12.003 16.4532C12.5096 16.4532 12.9279 16.0353 12.9279 15.5283C12.9279 15.0213 12.5096 14.6034 12.003 14.6034Z" stroke="#1742E7" stroke-width="2" mask="url(#path-1-inside-1_3325_122)"></path><path d="M23.2902 11.6638C22.087 11.6638 21.0989 10.6757 21.0989 9.47243C21.0989 8.26878 22.087 7.29336 23.2902 7.29336C24.4935 7.29336 25.4816 8.2815 25.4816 9.48474C25.482 10.6884 24.4939 11.6638 23.2902 11.6638ZM23.2902 8.56022C22.7836 8.56022 22.3653 8.97815 22.3653 9.48514C22.3653 9.99174 22.7833 10.4101 23.2902 10.4101C23.7968 10.4101 24.2152 9.99213 24.2152 9.48514C24.2152 8.97814 23.7972 8.56022 23.2902 8.56022Z" stroke="#1742E7" stroke-width="2" mask="url(#path-1-inside-1_3325_122)"></path><path d="M34.5775 4.79781C33.3743 4.79781 32.3861 3.80966 32.3861 2.60642C32.3861 1.40318 33.3743 0.415039 34.5775 0.415039C35.7807 0.415039 36.7689 1.40318 36.7689 2.60642C36.7689 3.80966 35.7807 4.79781 34.5775 4.79781ZM34.5775 1.6815C34.0709 1.6815 33.6526 2.09942 33.6526 2.60641C33.6526 3.11302 34.0705 3.53133 34.5775 3.53133C35.0841 3.53133 35.5024 3.1134 35.5024 2.60641C35.502 2.09941 35.0841 1.6815 34.5775 1.6815Z" stroke="#1742E7" stroke-width="2" mask="url(#path-1-inside-1_3325_122)"></path><path d="M13.3711 15.4262C13.1433 15.4262 12.9278 15.2994 12.8136 15.097C12.649 14.7928 12.7631 14.4003 13.0669 14.2357L21.6179 9.64963C21.9221 9.485 22.3146 9.59912 22.4792 9.90293C22.6438 10.2071 22.5297 10.5996 22.2259 10.7642L13.6749 15.3503C13.5739 15.4008 13.4725 15.4262 13.3711 15.4262ZM24.6207 9.29459C24.4052 9.29459 24.2028 9.19319 24.076 8.99039C23.8986 8.68619 23.9873 8.30643 24.2915 8.11637L32.9184 2.85906C33.2226 2.68171 33.6023 2.77039 33.7924 3.07459C33.9697 3.37879 33.8811 3.75854 33.5769 3.94861L24.95 9.20591C24.8486 9.26954 24.7345 9.29459 24.6207 9.29459Z" stroke="#1742E7" stroke-width="2" mask="url(#path-1-inside-1_3325_122)"></path><path d="M13.9534 11.9427H1.52603C1.17133 11.9427 0.892578 11.664 0.892578 11.3093C0.892578 10.9546 1.17133 10.6758 1.52603 10.6758H13.9534C14.3081 10.6758 14.5869 10.9546 14.5869 11.3093C14.5869 11.664 14.3081 11.9427 13.9534 11.9427Z" stroke="#1742E7" stroke-width="2" mask="url(#path-1-inside-1_3325_122)"></path><path d="M18.7928 8.34472H1.52603C1.17133 8.34472 0.892578 8.06597 0.892578 7.71127C0.892578 7.35657 1.17133 7.07782 1.52603 7.07782H18.7928C19.1475 7.07782 19.4263 7.35657 19.4263 7.71127C19.4263 8.06597 19.1348 8.34472 18.7928 8.34472Z" stroke="#1742E7" stroke-width="2" mask="url(#path-1-inside-1_3325_122)"></path><path d="M24.8355 4.74691H1.52603C1.17133 4.74691 0.892578 4.46816 0.892578 4.11346C0.892578 3.75875 1.17133 3.48 1.52603 3.48H24.8477C25.2024 3.48 25.4812 3.75875 25.4812 4.11346C25.4685 4.45583 25.1902 4.74691 24.8355 4.74691Z" stroke="#1742E7" stroke-width="2" mask="url(#path-1-inside-1_3325_122)"></path><path d="M42.3935 45.8931H4.18701C2.37532 45.8931 0.893363 44.411 0.893363 42.5994V18.783C0.893363 16.9586 2.37543 15.4893 4.18701 15.4893H10.5716C10.9263 15.4893 11.2051 15.7681 11.2051 16.1228C11.2051 16.4775 10.9263 16.7562 10.5716 16.7562H4.18701C3.07243 16.7562 2.16023 17.6684 2.16023 18.783V42.5862C2.16023 43.7008 3.07242 44.613 4.18701 44.613H42.3935C43.508 44.613 44.4203 43.7008 44.4203 42.5862V21.9123C44.4203 21.5576 44.699 21.2788 45.0537 21.2788C45.4084 21.2788 45.6872 21.5576 45.6872 21.9123V42.5994C45.6872 44.4107 44.2051 45.8931 42.3935 45.8931ZM40.62 16.7567H38.0102C37.6555 16.7567 37.3767 16.478 37.3767 16.1233C37.3767 15.7686 37.6555 15.4898 38.0102 15.4898H40.62C40.9747 15.4898 41.2534 15.7686 41.2534 16.1233C41.2534 16.478 40.9747 16.7567 40.62 16.7567ZM31.1441 16.7567H26.723C26.3683 16.7567 26.0896 16.478 26.0896 16.1233C26.0896 15.7686 26.3683 15.4898 26.723 15.4898H31.1441C31.4988 15.4898 31.7775 15.7686 31.7775 16.1233C31.7775 16.478 31.4988 16.7567 31.1441 16.7567ZM19.8568 16.7567H13.4468C13.0921 16.7567 12.8133 16.478 12.8133 16.1233C12.8133 15.7686 13.0921 15.4898 13.4468 15.4898H19.8568C20.2115 15.4898 20.4903 15.7686 20.4903 16.1233C20.4903 16.478 20.1988 16.7567 19.8568 16.7567Z" stroke="#1742E7" stroke-width="2" mask="url(#path-1-inside-1_3325_122)"></path><path d="M45.0534 40.395H1.52603C1.17133 40.395 0.892578 40.1162 0.892578 39.7615C0.892578 39.4068 1.17133 39.1281 1.52603 39.1281H45.0656C45.4203 39.1281 45.6991 39.4068 45.6991 39.7615C45.6991 40.1162 45.4081 40.395 45.0534 40.395Z" stroke="#1742E7" stroke-width="2" mask="url(#path-1-inside-1_3325_122)"></path><path d="M31.094 53.8861H15.4743C15.2464 53.8861 15.0309 53.7593 14.9168 53.5696C14.8026 53.3795 14.8026 53.1262 14.9295 52.9362L19.7179 44.9428C19.8953 44.6386 20.2881 44.5499 20.5919 44.7272C20.8961 44.9046 20.9848 45.2975 20.8075 45.6013L16.5889 52.632H29.966L25.7475 45.6013C25.5701 45.2971 25.6715 44.9173 25.963 44.7272C26.2672 44.5499 26.6469 44.6513 26.837 44.9428L31.6382 52.9362C31.7523 53.1262 31.765 53.3795 31.6509 53.5696C31.5372 53.7593 31.3219 53.8861 31.094 53.8861Z" stroke="#1742E7" stroke-width="2" mask="url(#path-1-inside-1_3325_122)"></path><path d="M26.6974 43.1435H19.8694C19.5147 43.1435 19.236 42.8648 19.236 42.5101C19.236 42.1554 19.5147 41.8766 19.8694 41.8766L26.6974 41.877C27.0521 41.877 27.3308 42.1558 27.3308 42.5105C27.3308 42.8652 27.0521 43.1435 26.6974 43.1435Z" stroke="#1742E7" stroke-width="2" mask="url(#path-1-inside-1_3325_122)"></path><path d="M48.3853 23.2799C45.4463 23.2799 42.5832 21.7596 40.9998 19.0235C38.6561 14.9572 40.0498 9.75043 44.1161 7.40646C45.2943 6.7225 46.5736 6.34237 47.9291 6.27916C48.1319 6.26643 48.322 6.35511 48.4484 6.50701C48.5753 6.65891 48.6258 6.87443 48.5625 7.06451L46.1556 16.0333L55.1244 18.4403C55.3145 18.4908 55.4791 18.6304 55.555 18.8205C55.631 19.0106 55.6055 19.2257 55.4918 19.3907C54.757 20.5307 53.7815 21.4429 52.6033 22.1269C51.286 22.9127 49.8291 23.2799 48.3853 23.2799ZM47.1184 7.64792C46.2949 7.7871 45.4968 8.07857 44.762 8.50921C41.3036 10.5109 40.1127 14.9447 42.1144 18.3902C44.1162 21.8359 48.55 23.0395 51.9955 21.0378C52.7431 20.6071 53.3889 20.0751 53.9209 19.4289L45.2431 17.0979C45.0785 17.0598 44.9389 16.946 44.8629 16.8065C44.787 16.6673 44.7615 16.4899 44.7997 16.3249L47.1184 7.64792Z" stroke="#1742E7" stroke-width="2" mask="url(#path-1-inside-1_3325_122)"></path><path d="M55.9742 17.4408C55.9237 17.4408 55.8601 17.4281 55.8096 17.4153L48.2086 15.3758C48.044 15.3377 47.9044 15.2239 47.8285 15.0844C47.7525 14.9452 47.7271 14.7678 47.7652 14.6028L49.8047 7.00183C49.8934 6.65986 50.2481 6.45706 50.5774 6.55846C52.7687 7.14101 54.6059 8.56019 55.7459 10.5233C56.8859 12.4869 57.1902 14.7797 56.5945 16.9716C56.5563 17.1362 56.4426 17.2758 56.303 17.3517C56.202 17.4153 56.0879 17.4408 55.9742 17.4408ZM49.1459 14.3245L55.4927 16.022C55.7969 14.3499 55.4927 12.6396 54.6314 11.145C53.7701 9.65017 52.44 8.54791 50.8439 7.96543L49.1459 14.3245Z" stroke="#1742E7" stroke-width="2" mask="url(#path-1-inside-1_3325_122)"></path></svg>