<svg xmlns="http://www.w3.org/2000/svg" viewBox="0 0 54 55" fill="none"><mask id="path-1-inside-1_3325_106" fill="white"><path d="M11.8911 40.3855C11.8816 40.3855 11.8721 40.3855 11.8626 40.3847C8.74351 40.2653 5.82944 38.9564 3.65786 36.6978C1.48063 34.4337 0.28125 31.4538 0.28125 28.3065C0.28125 26.6756 0.6 25.0927 1.22839 23.6018C1.83509 22.1624 2.70344 20.8699 3.80963 19.7599C4.9165 18.6502 6.20488 17.779 7.63923 17.1703C9.12538 16.5396 10.7028 16.2201 12.3288 16.2201L15.2836 16.2205C14.9907 15.1673 14.8432 14.0786 14.8432 12.9708C14.8432 11.3391 15.1619 9.75587 15.7903 8.26494C16.397 6.8252 17.2661 5.53229 18.3723 4.42264C19.4784 3.3126 20.7676 2.44141 22.2023 1.83232C23.6888 1.20231 25.267 0.882523 26.8935 0.882523C28.5199 0.882523 30.0981 1.2023 31.5843 1.8327C33.0194 2.44135 34.3082 3.31289 35.4143 4.42302C36.5207 5.53306 37.3891 6.82597 37.9963 8.26532C38.625 9.75625 38.9434 11.3395 38.9434 12.9712C38.9434 14.079 38.7955 15.168 38.5026 16.2209H41.4573C43.0834 16.2209 44.6612 16.5407 46.147 17.1711C47.5817 17.7797 48.8701 18.6513 49.9762 19.761C51.0823 20.8708 51.9507 22.1632 52.5578 23.6025C53.1862 25.0931 53.5049 26.6759 53.5049 28.3072C53.5049 29.9385 53.1862 31.5214 52.5578 33.0119C51.9511 34.4513 51.0828 35.7438 49.9766 36.8538C47.8217 39.0148 44.9617 40.2684 41.9237 40.3848C41.5148 40.4016 41.1728 40.0814 41.1576 39.6727C41.142 39.2637 41.46 38.9195 41.8678 38.9042C44.5326 38.8023 47.0416 37.7021 48.9321 35.8064C50.9283 33.8026 52.0276 31.1398 52.0276 28.308C52.0276 22.4608 47.2859 17.7039 41.4574 17.7039H37.4848C37.2425 17.7039 37.0154 17.5844 36.8773 17.3845C36.7392 17.1845 36.7077 16.9292 36.7933 16.7014C37.2398 15.5108 37.4657 14.2558 37.4657 12.9716C37.4657 7.1233 32.7229 2.36556 26.8936 2.36556C21.0644 2.36556 16.3215 7.12369 16.3215 12.9716C16.3215 14.2558 16.5479 15.5108 16.9937 16.7018C17.0789 16.9296 17.0477 17.1845 16.9096 17.3845C16.7715 17.5841 16.5448 17.7035 16.3025 17.7035L12.3291 17.7023C9.50675 17.7023 6.85209 18.8052 4.85472 20.8082C2.85851 22.812 1.75923 25.4748 1.75923 28.3066C1.75923 34.0305 6.22178 38.685 11.9194 38.9029C12.3272 38.9185 12.6452 39.2623 12.6296 39.6714C12.6144 40.0713 12.2869 40.3854 11.8917 40.3854L11.8911 40.3855Z"></path><path d="M39.7854 35.5636H14.0022C12.4308 35.5636 11.1524 34.281 11.1524 32.7046V27.2806C11.1524 25.7042 12.4308 24.4217 14.0022 24.4217H39.7854C41.3567 24.4217 42.6352 25.7042 42.6352 27.2806V32.7046C42.6352 34.2806 41.3571 35.5636 39.7854 35.5636ZM14.0022 25.9042C13.2456 25.9042 12.6302 26.522 12.6302 27.2806V32.7046C12.6302 33.4636 13.246 34.081 14.0022 34.081H39.7854C40.5419 34.081 41.1574 33.4632 41.1574 32.7046V27.2806C41.1574 26.5216 40.5416 25.9042 39.7854 25.9042H14.0022Z"></path><path d="M32.4861 31.9921C31.3876 31.9921 30.4933 31.0953 30.4933 29.9929C30.4933 28.8908 31.3872 27.9937 32.4861 27.9937C33.5846 27.9937 34.4789 28.8904 34.4789 29.9929C34.4789 31.0949 33.585 31.9921 32.4861 31.9921ZM32.4861 29.4762C32.2023 29.4762 31.9711 29.7082 31.9711 29.9929C31.9711 30.2775 32.2023 30.5096 32.4861 30.5096C32.7698 30.5096 33.0011 30.2775 33.0011 29.9929C33.0011 29.7082 32.7702 29.4762 32.4861 29.4762Z"></path><path d="M37.574 31.9921C36.4755 31.9921 35.5812 31.0953 35.5812 29.9929C35.5812 28.8908 36.4751 27.9937 37.574 27.9937C38.6725 27.9937 39.5668 28.8904 39.5668 29.9929C39.5668 31.0949 38.6729 31.9921 37.574 31.9921ZM37.574 29.4762C37.2902 29.4762 37.0589 29.7082 37.0589 29.9929C37.0589 30.2775 37.2902 30.5096 37.574 30.5096C37.8577 30.5096 38.089 30.2775 38.089 29.9929C38.089 29.7082 37.8581 29.4762 37.574 29.4762Z"></path><path d="M27.0895 29.4766H14.9594C14.5513 29.4766 14.2207 29.145 14.2207 28.7355C14.2207 28.3261 14.5513 27.9945 14.9594 27.9945H27.0895C27.4977 27.9945 27.8282 28.3261 27.8282 28.7355C27.8282 29.1446 27.4973 29.4766 27.0891 29.4766H27.0895Z"></path><path d="M27.0895 31.9921H14.9594C14.5513 31.9921 14.2207 31.6605 14.2207 31.251C14.2207 30.8416 14.5513 30.5099 14.9594 30.5099H27.0895C27.4977 30.5099 27.8282 30.8416 27.8282 31.251C27.8282 31.6601 27.4973 31.9921 27.0891 31.9921H27.0895Z"></path><path d="M39.7854 45.223H14.0022C12.4308 45.223 11.1524 43.9405 11.1524 42.3641V36.9401C11.1524 35.3637 12.4308 34.081 14.0022 34.081H39.7854C41.3567 34.081 42.6352 35.3637 42.6352 36.9401V42.3641C42.6352 43.9405 41.3571 45.223 39.7854 45.223ZM14.0022 35.5641C13.2456 35.5641 12.6302 36.1819 12.6302 36.9405V42.3645C12.6302 43.1235 13.246 43.7409 14.0022 43.7409H39.7854C40.5419 43.7409 41.1574 43.1231 41.1574 42.3645V36.9405C41.1574 36.1815 40.5416 35.5641 39.7854 35.5641H14.0022Z"></path><path d="M32.4861 41.6515C31.3876 41.6515 30.4933 40.7548 30.4933 39.6523C30.4933 38.5503 31.3872 37.6531 32.4861 37.6531C33.5846 37.6531 34.4789 38.5499 34.4789 39.6523C34.4789 40.7547 33.585 41.6515 32.4861 41.6515ZM32.4861 39.1361C32.2023 39.1361 31.9711 39.3681 31.9711 39.6527C31.9711 39.9374 32.2023 40.1694 32.4861 40.1694C32.7698 40.1694 33.0011 39.9374 33.0011 39.6527C33.0011 39.3677 32.7702 39.1361 32.4861 39.1361Z"></path><path d="M37.574 41.6515C36.4755 41.6515 35.5812 40.7548 35.5812 39.6523C35.5812 38.5503 36.4751 37.6531 37.574 37.6531C38.6725 37.6531 39.5668 38.5499 39.5668 39.6523C39.5668 40.7547 38.6729 41.6515 37.574 41.6515ZM37.574 39.1361C37.2902 39.1361 37.0589 39.3681 37.0589 39.6527C37.0589 39.9374 37.2902 40.1694 37.574 40.1694C37.8577 40.1694 38.089 39.9374 38.089 39.6527C38.089 39.3677 37.8581 39.1361 37.574 39.1361Z"></path><path d="M27.0895 39.1361H14.9594C14.5513 39.1361 14.2207 38.8044 14.2207 38.395C14.2207 37.9855 14.5513 37.6539 14.9594 37.6539H27.0895C27.4977 37.6539 27.8282 37.9855 27.8282 38.395C27.8282 38.8041 27.4973 39.1361 27.0891 39.1361H27.0895Z"></path><path d="M27.0895 41.6515H14.9594C14.5513 41.6515 14.2207 41.3199 14.2207 40.9105C14.2207 40.501 14.5513 40.1694 14.9594 40.1694H27.0895C27.4977 40.1694 27.8282 40.501 27.8282 40.9105C27.8282 41.3199 27.4973 41.6515 27.0891 41.6515H27.0895Z"></path><path d="M39.7854 54.8825H14.0022C12.4308 54.8825 11.1524 53.6 11.1524 52.0236V46.5996C11.1524 45.0232 12.4308 43.7406 14.0022 43.7406H39.7854C41.3567 43.7406 42.6352 45.0232 42.6352 46.5996V52.0236C42.6352 53.6 41.3571 54.8825 39.7854 54.8825ZM14.0022 45.223C13.2456 45.223 12.6302 45.8409 12.6302 46.5996V52.0236C12.6302 52.7826 13.246 53.4 14.0022 53.4H39.7854C40.5419 53.4 41.1574 52.7822 41.1574 52.0236V46.5996C41.1574 45.8406 40.5416 45.223 39.7854 45.223H14.0022Z"></path><path d="M32.4861 51.31C31.3876 51.31 30.4933 50.4133 30.4933 49.3108C30.4933 48.2088 31.3872 47.3116 32.4861 47.3116C33.5846 47.3116 34.4789 48.2084 34.4789 49.3108C34.4789 50.4133 33.585 51.31 32.4861 51.31ZM32.4861 48.7942C32.2023 48.7942 31.9711 49.0262 31.9711 49.3108C31.9711 49.5955 32.2023 49.8275 32.4861 49.8275C32.7698 49.8275 33.0011 49.5955 33.0011 49.3108C33.0011 49.0262 32.7702 48.7942 32.4861 48.7942Z"></path><path d="M37.574 51.31C36.4755 51.31 35.5812 50.4133 35.5812 49.3108C35.5812 48.2088 36.4751 47.3116 37.574 47.3116C38.6725 47.3116 39.5668 48.2084 39.5668 49.3108C39.5668 50.4133 38.6729 51.31 37.574 51.31ZM37.574 48.7942C37.2902 48.7942 37.0589 49.0262 37.0589 49.3108C37.0589 49.5955 37.2902 49.8275 37.574 49.8275C37.8577 49.8275 38.089 49.5955 38.089 49.3108C38.089 49.0262 37.8581 48.7942 37.574 48.7942Z"></path><path d="M27.0895 48.7946H14.9594C14.5513 48.7946 14.2207 48.4629 14.2207 48.0535C14.2207 47.644 14.5513 47.3124 14.9594 47.3124H27.0895C27.4977 47.3124 27.8282 47.644 27.8282 48.0535C27.8282 48.4629 27.4973 48.7946 27.0891 48.7946H27.0895Z"></path><path d="M27.0895 51.31H14.9594C14.5513 51.31 14.2207 50.9784 14.2207 50.569C14.2207 50.1595 14.5513 49.8279 14.9594 49.8279H27.0895C27.4977 49.8279 27.8282 50.1595 27.8282 50.569C27.8282 50.9784 27.4973 51.31 27.0891 51.31H27.0895Z"></path></mask><path d="M11.8911 40.3855C11.8816 40.3855 11.8721 40.3855 11.8626 40.3847C8.74351 40.2653 5.82944 38.9564 3.65786 36.6978C1.48063 34.4337 0.28125 31.4538 0.28125 28.3065C0.28125 26.6756 0.6 25.0927 1.22839 23.6018C1.83509 22.1624 2.70344 20.8699 3.80963 19.7599C4.9165 18.6502 6.20488 17.779 7.63923 17.1703C9.12538 16.5396 10.7028 16.2201 12.3288 16.2201L15.2836 16.2205C14.9907 15.1673 14.8432 14.0786 14.8432 12.9708C14.8432 11.3391 15.1619 9.75587 15.7903 8.26494C16.397 6.8252 17.2661 5.53229 18.3723 4.42264C19.4784 3.3126 20.7676 2.44141 22.2023 1.83232C23.6888 1.20231 25.267 0.882523 26.8935 0.882523C28.5199 0.882523 30.0981 1.2023 31.5843 1.8327C33.0194 2.44135 34.3082 3.31289 35.4143 4.42302C36.5207 5.53306 37.3891 6.82597 37.9963 8.26532C38.625 9.75625 38.9434 11.3395 38.9434 12.9712C38.9434 14.079 38.7955 15.168 38.5026 16.2209H41.4573C43.0834 16.2209 44.6612 16.5407 46.147 17.1711C47.5817 17.7797 48.8701 18.6513 49.9762 19.761C51.0823 20.8708 51.9507 22.1632 52.5578 23.6025C53.1862 25.0931 53.5049 26.6759 53.5049 28.3072C53.5049 29.9385 53.1862 31.5214 52.5578 33.0119C51.9511 34.4513 51.0828 35.7438 49.9766 36.8538C47.8217 39.0148 44.9617 40.2684 41.9237 40.3848C41.5148 40.4016 41.1728 40.0814 41.1576 39.6727C41.142 39.2637 41.46 38.9195 41.8678 38.9042C44.5326 38.8023 47.0416 37.7021 48.9321 35.8064C50.9283 33.8026 52.0276 31.1398 52.0276 28.308C52.0276 22.4608 47.2859 17.7039 41.4574 17.7039H37.4848C37.2425 17.7039 37.0154 17.5844 36.8773 17.3845C36.7392 17.1845 36.7077 16.9292 36.7933 16.7014C37.2398 15.5108 37.4657 14.2558 37.4657 12.9716C37.4657 7.1233 32.7229 2.36556 26.8936 2.36556C21.0644 2.36556 16.3215 7.12369 16.3215 12.9716C16.3215 14.2558 16.5479 15.5108 16.9937 16.7018C17.0789 16.9296 17.0477 17.1845 16.9096 17.3845C16.7715 17.5841 16.5448 17.7035 16.3025 17.7035L12.3291 17.7023C9.50675 17.7023 6.85209 18.8052 4.85472 20.8082C2.85851 22.812 1.75923 25.4748 1.75923 28.3066C1.75923 34.0305 6.22178 38.685 11.9194 38.9029C12.3272 38.9185 12.6452 39.2623 12.6296 39.6714C12.6144 40.0713 12.2869 40.3854 11.8917 40.3854L11.8911 40.3855Z" fill="#1742E7"></path><path d="M39.7854 35.5636H14.0022C12.4308 35.5636 11.1524 34.281 11.1524 32.7046V27.2806C11.1524 25.7042 12.4308 24.4217 14.0022 24.4217H39.7854C41.3567 24.4217 42.6352 25.7042 42.6352 27.2806V32.7046C42.6352 34.2806 41.3571 35.5636 39.7854 35.5636ZM14.0022 25.9042C13.2456 25.9042 12.6302 26.522 12.6302 27.2806V32.7046C12.6302 33.4636 13.246 34.081 14.0022 34.081H39.7854C40.5419 34.081 41.1574 33.4632 41.1574 32.7046V27.2806C41.1574 26.5216 40.5416 25.9042 39.7854 25.9042H14.0022Z" fill="#1742E7"></path><path d="M32.4861 31.9921C31.3876 31.9921 30.4933 31.0953 30.4933 29.9929C30.4933 28.8908 31.3872 27.9937 32.4861 27.9937C33.5846 27.9937 34.4789 28.8904 34.4789 29.9929C34.4789 31.0949 33.585 31.9921 32.4861 31.9921ZM32.4861 29.4762C32.2023 29.4762 31.9711 29.7082 31.9711 29.9929C31.9711 30.2775 32.2023 30.5096 32.4861 30.5096C32.7698 30.5096 33.0011 30.2775 33.0011 29.9929C33.0011 29.7082 32.7702 29.4762 32.4861 29.4762Z" fill="#1742E7"></path><path d="M37.574 31.9921C36.4755 31.9921 35.5812 31.0953 35.5812 29.9929C35.5812 28.8908 36.4751 27.9937 37.574 27.9937C38.6725 27.9937 39.5668 28.8904 39.5668 29.9929C39.5668 31.0949 38.6729 31.9921 37.574 31.9921ZM37.574 29.4762C37.2902 29.4762 37.0589 29.7082 37.0589 29.9929C37.0589 30.2775 37.2902 30.5096 37.574 30.5096C37.8577 30.5096 38.089 30.2775 38.089 29.9929C38.089 29.7082 37.8581 29.4762 37.574 29.4762Z" fill="#1742E7"></path><path d="M27.0895 29.4766H14.9594C14.5513 29.4766 14.2207 29.145 14.2207 28.7355C14.2207 28.3261 14.5513 27.9945 14.9594 27.9945H27.0895C27.4977 27.9945 27.8282 28.3261 27.8282 28.7355C27.8282 29.1446 27.4973 29.4766 27.0891 29.4766H27.0895Z" fill="#1742E7"></path><path d="M27.0895 31.9921H14.9594C14.5513 31.9921 14.2207 31.6605 14.2207 31.251C14.2207 30.8416 14.5513 30.5099 14.9594 30.5099H27.0895C27.4977 30.5099 27.8282 30.8416 27.8282 31.251C27.8282 31.6601 27.4973 31.9921 27.0891 31.9921H27.0895Z" fill="#1742E7"></path><path d="M39.7854 45.223H14.0022C12.4308 45.223 11.1524 43.9405 11.1524 42.3641V36.9401C11.1524 35.3637 12.4308 34.081 14.0022 34.081H39.7854C41.3567 34.081 42.6352 35.3637 42.6352 36.9401V42.3641C42.6352 43.9405 41.3571 45.223 39.7854 45.223ZM14.0022 35.5641C13.2456 35.5641 12.6302 36.1819 12.6302 36.9405V42.3645C12.6302 43.1235 13.246 43.7409 14.0022 43.7409H39.7854C40.5419 43.7409 41.1574 43.1231 41.1574 42.3645V36.9405C41.1574 36.1815 40.5416 35.5641 39.7854 35.5641H14.0022Z" fill="#1742E7"></path><path d="M32.4861 41.6515C31.3876 41.6515 30.4933 40.7548 30.4933 39.6523C30.4933 38.5503 31.3872 37.6531 32.4861 37.6531C33.5846 37.6531 34.4789 38.5499 34.4789 39.6523C34.4789 40.7547 33.585 41.6515 32.4861 41.6515ZM32.4861 39.1361C32.2023 39.1361 31.9711 39.3681 31.9711 39.6527C31.9711 39.9374 32.2023 40.1694 32.4861 40.1694C32.7698 40.1694 33.0011 39.9374 33.0011 39.6527C33.0011 39.3677 32.7702 39.1361 32.4861 39.1361Z" fill="#1742E7"></path><path d="M37.574 41.6515C36.4755 41.6515 35.5812 40.7548 35.5812 39.6523C35.5812 38.5503 36.4751 37.6531 37.574 37.6531C38.6725 37.6531 39.5668 38.5499 39.5668 39.6523C39.5668 40.7547 38.6729 41.6515 37.574 41.6515ZM37.574 39.1361C37.2902 39.1361 37.0589 39.3681 37.0589 39.6527C37.0589 39.9374 37.2902 40.1694 37.574 40.1694C37.8577 40.1694 38.089 39.9374 38.089 39.6527C38.089 39.3677 37.8581 39.1361 37.574 39.1361Z" fill="#1742E7"></path><path d="M27.0895 39.1361H14.9594C14.5513 39.1361 14.2207 38.8044 14.2207 38.395C14.2207 37.9855 14.5513 37.6539 14.9594 37.6539H27.0895C27.4977 37.6539 27.8282 37.9855 27.8282 38.395C27.8282 38.8041 27.4973 39.1361 27.0891 39.1361H27.0895Z" fill="#1742E7"></path><path d="M27.0895 41.6515H14.9594C14.5513 41.6515 14.2207 41.3199 14.2207 40.9105C14.2207 40.501 14.5513 40.1694 14.9594 40.1694H27.0895C27.4977 40.1694 27.8282 40.501 27.8282 40.9105C27.8282 41.3199 27.4973 41.6515 27.0891 41.6515H27.0895Z" fill="#1742E7"></path><path d="M39.7854 54.8825H14.0022C12.4308 54.8825 11.1524 53.6 11.1524 52.0236V46.5996C11.1524 45.0232 12.4308 43.7406 14.0022 43.7406H39.7854C41.3567 43.7406 42.6352 45.0232 42.6352 46.5996V52.0236C42.6352 53.6 41.3571 54.8825 39.7854 54.8825ZM14.0022 45.223C13.2456 45.223 12.6302 45.8409 12.6302 46.5996V52.0236C12.6302 52.7826 13.246 53.4 14.0022 53.4H39.7854C40.5419 53.4 41.1574 52.7822 41.1574 52.0236V46.5996C41.1574 45.8406 40.5416 45.223 39.7854 45.223H14.0022Z" fill="#1742E7"></path><path d="M32.4861 51.31C31.3876 51.31 30.4933 50.4133 30.4933 49.3108C30.4933 48.2088 31.3872 47.3116 32.4861 47.3116C33.5846 47.3116 34.4789 48.2084 34.4789 49.3108C34.4789 50.4133 33.585 51.31 32.4861 51.31ZM32.4861 48.7942C32.2023 48.7942 31.9711 49.0262 31.9711 49.3108C31.9711 49.5955 32.2023 49.8275 32.4861 49.8275C32.7698 49.8275 33.0011 49.5955 33.0011 49.3108C33.0011 49.0262 32.7702 48.7942 32.4861 48.7942Z" fill="#1742E7"></path><path d="M37.574 51.31C36.4755 51.31 35.5812 50.4133 35.5812 49.3108C35.5812 48.2088 36.4751 47.3116 37.574 47.3116C38.6725 47.3116 39.5668 48.2084 39.5668 49.3108C39.5668 50.4133 38.6729 51.31 37.574 51.31ZM37.574 48.7942C37.2902 48.7942 37.0589 49.0262 37.0589 49.3108C37.0589 49.5955 37.2902 49.8275 37.574 49.8275C37.8577 49.8275 38.089 49.5955 38.089 49.3108C38.089 49.0262 37.8581 48.7942 37.574 48.7942Z" fill="#1742E7"></path><path d="M27.0895 48.7946H14.9594C14.5513 48.7946 14.2207 48.4629 14.2207 48.0535C14.2207 47.644 14.5513 47.3124 14.9594 47.3124H27.0895C27.4977 47.3124 27.8282 47.644 27.8282 48.0535C27.8282 48.4629 27.4973 48.7946 27.0891 48.7946H27.0895Z" fill="#1742E7"></path><path d="M27.0895 51.31H14.9594C14.5513 51.31 14.2207 50.9784 14.2207 50.569C14.2207 50.1595 14.5513 49.8279 14.9594 49.8279H27.0895C27.4977 49.8279 27.8282 50.1595 27.8282 50.569C27.8282 50.9784 27.4973 51.31 27.0891 51.31H27.0895Z" fill="#1742E7"></path><path d="M14.0022 34.221H39.7854V33.941H14.0022V34.221ZM39.7854 45.083H14.0022V45.363H39.7854V45.083ZM11.8911 40.3855V40.6655H11.9139L11.9364 40.6618L11.8911 40.3855ZM11.8626 40.3847L11.885 40.1054L11.8733 40.1049L11.8626 40.3847ZM3.65786 36.6978L3.8597 36.5037L3.85968 36.5037L3.65786 36.6978ZM1.22839 23.6018L0.97037 23.493L0.970367 23.493L1.22839 23.6018ZM3.80963 19.7599L3.61139 19.5621L3.61129 19.5622L3.80963 19.7599ZM7.63923 17.1703L7.74861 17.4281L7.74862 17.4281L7.63923 17.1703ZM12.3288 16.2201L12.3289 15.9401H12.3288V16.2201ZM15.2836 16.2205L15.2836 16.5005L15.6521 16.5006L15.5534 16.1455L15.2836 16.2205ZM15.7903 8.26494L16.0483 8.37369L16.0483 8.37367L15.7903 8.26494ZM18.3723 4.42264L18.5706 4.62032L18.5707 4.62028L18.3723 4.42264ZM22.2023 1.83232L22.093 1.57452L22.0929 1.57459L22.2023 1.83232ZM31.5843 1.8327L31.4749 2.09047L31.4749 2.09048L31.5843 1.8327ZM35.4143 4.42302L35.2159 4.62065L35.216 4.62069L35.4143 4.42302ZM37.9963 8.26532L38.2543 8.15652L38.2543 8.1565L37.9963 8.26532ZM38.5026 16.2209L38.2328 16.1459L38.134 16.5009H38.5026V16.2209ZM46.147 17.1711L46.0376 17.4288L46.0376 17.4289L46.147 17.1711ZM52.5578 23.6025L52.8158 23.4938L52.8158 23.4937L52.5578 23.6025ZM52.5578 33.0119L52.2998 32.9032L52.2998 32.9032L52.5578 33.0119ZM49.9766 36.8538L50.1748 37.0515L50.1749 37.0515L49.9766 36.8538ZM41.9237 40.3848L41.9129 40.105L41.9122 40.105L41.9237 40.3848ZM41.1576 39.6727L41.4374 39.6623L41.4374 39.6621L41.1576 39.6727ZM41.8678 38.9042L41.8782 39.184L41.8785 39.184L41.8678 38.9042ZM48.9321 35.8064L49.1304 36.0041L49.1305 36.004L48.9321 35.8064ZM36.8773 17.3845L36.6469 17.5436L36.6469 17.5436L36.8773 17.3845ZM36.7933 16.7014L37.0554 16.7999L37.0554 16.7997L36.7933 16.7014ZM16.9937 16.7018L17.2559 16.6037L17.2559 16.6036L16.9937 16.7018ZM16.9096 17.3845L17.1399 17.5438L17.14 17.5436L16.9096 17.3845ZM16.3025 17.7035L16.3024 17.9835H16.3025V17.7035ZM12.3291 17.7023L12.3292 17.4223H12.3291V17.7023ZM4.85472 20.8082L4.65645 20.6105L4.65635 20.6105L4.85472 20.8082ZM11.9194 38.9029L11.9302 38.6231H11.9301L11.9194 38.9029ZM12.6296 39.6714L12.3498 39.6608V39.6608L12.6296 39.6714ZM11.8917 40.3854V40.1054H11.8689L11.8463 40.1091L11.8917 40.3854ZM11.8911 40.1055C11.8859 40.1055 11.8839 40.1055 11.8824 40.1054C11.8813 40.1054 11.8824 40.1054 11.885 40.1056L11.8402 40.6638C11.8627 40.6656 11.8834 40.6655 11.8911 40.6655V40.1055ZM11.8733 40.1049C8.82687 39.9883 5.98124 38.7103 3.8597 36.5037L3.45601 36.8918C5.67764 39.2025 8.66014 40.5423 11.8518 40.6645L11.8733 40.1049ZM3.85968 36.5037C1.7327 34.2919 0.56125 31.3816 0.56125 28.3065H0.00125C0.00125 31.526 1.22855 34.5755 3.45603 36.8918L3.85968 36.5037ZM0.56125 28.3065C0.56125 26.7126 0.872639 25.1668 1.4864 23.7105L0.970367 23.493C0.327361 25.0186 0.00125 26.6385 0.00125 28.3065H0.56125ZM1.4864 23.7105C2.07907 22.3045 2.92712 21.0421 4.00796 19.9575L3.61129 19.5622C2.47976 20.6977 1.59111 22.0204 0.97037 23.493L1.4864 23.7105ZM4.00786 19.9576C5.08941 18.8733 6.34767 18.0226 7.74861 17.4281L7.52984 16.9126C6.06209 17.5355 4.74358 18.4271 3.61139 19.5621L4.00786 19.9576ZM7.74862 17.4281C9.19988 16.8121 10.74 16.5001 12.3288 16.5001V15.9401C10.6655 15.9401 9.05087 16.267 7.52983 16.9126L7.74862 17.4281ZM12.3288 16.5001L15.2836 16.5005L15.2837 15.9405L12.3289 15.9401L12.3288 16.5001ZM15.5534 16.1455C15.2674 15.1171 15.1232 14.0536 15.1232 12.9708H14.5632C14.5632 14.1036 14.7141 15.2176 15.0139 16.2955L15.5534 16.1455ZM15.1232 12.9708C15.1232 11.3762 15.4345 9.82991 16.0483 8.37369L15.5323 8.15619C14.8893 9.68183 14.5632 11.3021 14.5632 12.9708H15.1232ZM16.0483 8.37367C16.641 6.96729 17.4898 5.70455 18.5706 4.62032L18.174 4.22496C17.0425 5.36003 16.153 6.68311 15.5323 8.15621L16.0483 8.37367ZM18.5707 4.62028C19.6513 3.53575 20.9103 2.685 22.3117 2.09006L22.0929 1.57459C20.6248 2.19782 19.3055 3.08945 18.174 4.225L18.5707 4.62028ZM22.3116 2.09013C23.7633 1.47485 25.3043 1.16252 26.8935 1.16252V0.602523C25.2297 0.602523 23.6144 0.929763 22.093 1.57452L22.3116 2.09013ZM26.8935 1.16252C28.4827 1.16252 30.0236 1.47484 31.4749 2.09047L31.6936 1.57494C30.1726 0.929752 28.5572 0.602523 26.8935 0.602523V1.16252ZM31.4749 2.09048C32.8766 2.68494 34.1352 3.53599 35.2159 4.62065L35.6126 4.22539C34.4811 3.08978 33.1622 2.19776 31.6936 1.57493L31.4749 2.09048ZM35.216 4.62069C36.2971 5.70527 37.1452 6.96803 37.7383 8.37414L38.2543 8.1565C37.6331 6.68392 36.7444 5.36085 35.6126 4.22535L35.216 4.62069ZM37.7383 8.37412C38.3524 9.83028 38.6634 11.3765 38.6634 12.9712H39.2234C39.2234 11.3025 38.8977 9.68222 38.2543 8.15652L37.7383 8.37412ZM38.6634 12.9712C38.6634 14.0539 38.5188 15.1177 38.2328 16.1459L38.7723 16.2959C39.0721 15.2183 39.2234 14.1041 39.2234 12.9712H38.6634ZM38.5026 16.5009H41.4573V15.9409H38.5026V16.5009ZM41.4573 16.5009C43.0461 16.5009 44.5867 16.8132 46.0376 17.4288L46.2563 16.9133C44.7357 16.2681 43.1207 15.9409 41.4573 15.9409V16.5009ZM46.0376 17.4289C47.4389 18.0233 48.6971 18.8744 49.7779 19.9587L50.1745 19.5634C49.043 18.4282 47.7245 17.5362 46.2563 16.9133L46.0376 17.4289ZM49.7779 19.9587C50.8586 21.043 51.7067 22.3053 52.2998 23.7114L52.8158 23.4937C52.1946 22.0211 51.3059 20.6985 50.1745 19.5634L49.7779 19.9587ZM52.2998 23.7113C52.9135 25.1671 53.2249 26.713 53.2249 28.3072H53.7849C53.7849 26.6389 53.4588 25.019 52.8158 23.4938L52.2998 23.7113ZM53.2249 28.3072C53.2249 29.9015 52.9136 31.4473 52.2998 32.9032L52.8158 33.1207C53.4588 31.5955 53.7849 29.9756 53.7849 28.3072H53.2249ZM52.2998 32.9032C51.7071 34.3092 50.8591 35.5716 49.7782 36.6562L50.1749 37.0515C51.3064 35.916 52.1951 34.5933 52.8158 33.1207L52.2998 32.9032ZM49.7783 36.6561C47.6732 38.7672 44.8801 39.9913 41.9129 40.105L41.9344 40.6646C45.0433 40.5454 47.9703 39.2624 50.1748 37.0515L49.7783 36.6561ZM41.9122 40.105C41.6602 40.1154 41.4469 39.918 41.4374 39.6623L40.8778 39.6832C40.8987 40.2448 41.3694 40.6878 41.9352 40.6646L41.9122 40.105ZM41.4374 39.6621C41.4277 39.4067 41.626 39.1935 41.8782 39.184L41.8573 38.6244C41.294 38.6455 40.8563 39.1206 40.8778 39.6834L41.4374 39.6621ZM41.8785 39.184C44.6143 39.0794 47.1902 37.9497 49.1304 36.0041L48.7338 35.6087C46.8931 37.4546 44.451 38.5252 41.8571 38.6244L41.8785 39.184ZM49.1305 36.004C51.179 33.9477 52.3076 31.2138 52.3076 28.308H51.7476C51.7476 31.0658 50.6776 33.6575 48.7337 35.6088L49.1305 36.004ZM52.3076 28.308C52.3076 22.307 47.4413 17.4239 41.4574 17.4239V17.9839C47.1304 17.9839 51.7476 22.6146 51.7476 28.308H52.3076ZM41.4574 17.4239H37.4848V17.9839H41.4574V17.4239ZM37.4848 17.4239C37.3348 17.4239 37.1937 17.3499 37.1077 17.2254L36.6469 17.5436C36.8371 17.8189 37.1501 17.9839 37.4848 17.9839V17.4239ZM37.1077 17.2254C37.0217 17.1008 37.0021 16.9418 37.0554 16.7999L36.5311 16.6029C36.4133 16.9167 36.4567 17.2682 36.6469 17.5436L37.1077 17.2254ZM37.0554 16.7997C37.5139 15.5773 37.7457 14.2889 37.7457 12.9716H37.1857C37.1857 14.2226 36.9657 15.4443 36.5311 16.6031L37.0554 16.7997ZM37.7457 12.9716C37.7457 6.9695 32.8783 2.08556 26.8936 2.08556V2.64556C32.5674 2.64556 37.1857 7.2771 37.1857 12.9716H37.7457ZM26.8936 2.08556C20.9089 2.08556 16.0415 6.9699 16.0415 12.9716H16.6015C16.6015 7.27748 21.2199 2.64556 26.8936 2.64556V2.08556ZM16.0415 12.9716C16.0415 14.289 16.2738 15.5773 16.7314 16.7999L17.2559 16.6036C16.822 15.4443 16.6015 14.2225 16.6015 12.9716H16.0415ZM16.7314 16.7999C16.7847 16.9423 16.765 17.1011 16.6792 17.2254L17.14 17.5436C17.3303 17.2679 17.3731 16.9169 17.2559 16.6037L16.7314 16.7999ZM16.6793 17.2252C16.5932 17.3496 16.4523 17.4235 16.3025 17.4235V17.9835C16.6373 17.9835 16.9498 17.8185 17.1399 17.5438L16.6793 17.2252ZM16.3026 17.4235L12.3292 17.4223L12.329 17.9823L16.3024 17.9835L16.3026 17.4235ZM12.3291 17.4223C9.4322 17.4223 6.70624 18.5549 4.65645 20.6105L5.05299 21.0059C6.99794 19.0554 9.58131 17.9823 12.3291 17.9823V17.4223ZM4.65635 20.6105C2.6078 22.6669 1.47923 25.4008 1.47923 28.3066H2.03923C2.03923 25.5487 3.10923 22.957 5.05308 21.0058L4.65635 20.6105ZM1.47923 28.3066C1.47923 34.18 6.05972 38.959 11.9087 39.1827L11.9301 38.6231C6.38383 38.411 2.03923 33.8811 2.03923 28.3066H1.47923ZM11.9087 39.1827C12.1614 39.1924 12.3595 39.4056 12.3498 39.6608L12.9094 39.6821C12.9309 39.1191 12.493 38.6447 11.9302 38.6231L11.9087 39.1827ZM12.3498 39.6608C12.3403 39.9109 12.1358 40.1054 11.8917 40.1054V40.6654C12.438 40.6654 12.8885 40.2318 12.9094 39.6821L12.3498 39.6608ZM11.8463 40.1091L11.8457 40.1092L11.9364 40.6618L11.937 40.6617L11.8463 40.1091ZM39.7854 35.2836H14.0022V35.8436H39.7854V35.2836ZM14.0022 35.2836C12.5863 35.2836 11.4324 34.1272 11.4324 32.7046H10.8724C10.8724 34.4348 12.2754 35.8436 14.0022 35.8436V35.2836ZM11.4324 32.7046V27.2806H10.8724V32.7046H11.4324ZM11.4324 27.2806C11.4324 25.858 12.5863 24.7017 14.0022 24.7017V24.1417C12.2754 24.1417 10.8724 25.5504 10.8724 27.2806H11.4324ZM14.0022 24.7017H39.7854V24.1417H14.0022V24.7017ZM39.7854 24.7017C41.2012 24.7017 42.3552 25.858 42.3552 27.2806H42.9152C42.9152 25.5504 41.5122 24.1417 39.7854 24.1417V24.7017ZM42.3552 27.2806V32.7046H42.9152V27.2806H42.3552ZM42.3552 32.7046C42.3552 34.1269 41.2016 35.2836 39.7854 35.2836V35.8436C41.5127 35.8436 42.9152 34.4344 42.9152 32.7046H42.3552ZM14.0022 25.6242C13.0901 25.6242 12.3502 26.3682 12.3502 27.2806H12.9102C12.9102 26.6757 13.4012 26.1842 14.0022 26.1842V25.6242ZM12.3502 27.2806V32.7046H12.9102V27.2806H12.3502ZM12.3502 32.7046C12.3502 33.6174 13.0906 34.361 14.0022 34.361V33.801C13.4014 33.801 12.9102 33.3098 12.9102 32.7046H12.3502ZM39.7854 34.361C40.6975 34.361 41.4374 33.617 41.4374 32.7046H40.8774C40.8774 33.3095 40.3864 33.801 39.7854 33.801V34.361ZM41.4374 32.7046V27.2806H40.8774V32.7046H41.4374ZM41.4374 27.2806C41.4374 26.3678 40.697 25.6242 39.7854 25.6242V26.1842C40.3861 26.1842 40.8774 26.6755 40.8774 27.2806H41.4374ZM39.7854 25.6242H14.0022V26.1842H39.7854V25.6242ZM32.4861 31.7121C31.543 31.7121 30.7733 30.9415 30.7733 29.9929H30.2133C30.2133 31.2491 31.2321 32.2721 32.4861 32.2721V31.7121ZM30.7733 29.9929C30.7733 29.0446 31.5427 28.2737 32.4861 28.2737V27.7137C31.2316 27.7137 30.2133 28.7371 30.2133 29.9929H30.7733ZM32.4861 28.2737C33.4291 28.2737 34.1989 29.0442 34.1989 29.9929H34.7589C34.7589 28.7366 33.74 27.7137 32.4861 27.7137V28.2737ZM34.1989 29.9929C34.1989 30.9411 33.4295 31.7121 32.4861 31.7121V32.2721C33.7405 32.2721 34.7589 31.2486 34.7589 29.9929H34.1989ZM32.4861 29.1962C32.0468 29.1962 31.691 29.5544 31.691 29.9929H32.251C32.251 29.862 32.3578 29.7562 32.4861 29.7562V29.1962ZM31.691 29.9929C31.691 30.4313 32.0468 30.7896 32.4861 30.7896V30.2296C32.3578 30.2296 32.251 30.1238 32.251 29.9929H31.691ZM32.4861 30.7896C32.9253 30.7896 33.2811 30.4313 33.2811 29.9929H32.7211C32.7211 30.1238 32.6144 30.2296 32.4861 30.2296V30.7896ZM33.2811 29.9929C33.2811 29.5545 32.9258 29.1962 32.4861 29.1962V29.7562C32.6146 29.7562 32.7211 29.8618 32.7211 29.9929H33.2811ZM37.574 31.7121C36.6309 31.7121 35.8612 30.9415 35.8612 29.9929H35.3012C35.3012 31.2491 36.32 32.2721 37.574 32.2721V31.7121ZM35.8612 29.9929C35.8612 29.0446 36.6306 28.2737 37.574 28.2737V27.7137C36.3195 27.7137 35.3012 28.7371 35.3012 29.9929H35.8612ZM37.574 28.2737C38.517 28.2737 39.2868 29.0442 39.2868 29.9929H39.8468C39.8468 28.7366 38.8279 27.7137 37.574 27.7137V28.2737ZM39.2868 29.9929C39.2868 30.9411 38.5174 31.7121 37.574 31.7121V32.2721C38.8284 32.2721 39.8468 31.2486 39.8468 29.9929H39.2868ZM37.574 29.1962C37.1347 29.1962 36.7789 29.5544 36.7789 29.9929H37.3389C37.3389 29.862 37.4457 29.7562 37.574 29.7562V29.1962ZM36.7789 29.9929C36.7789 30.4313 37.1347 30.7896 37.574 30.7896V30.2296C37.4457 30.2296 37.3389 30.1238 37.3389 29.9929H36.7789ZM37.574 30.7896C38.0132 30.7896 38.369 30.4313 38.369 29.9929H37.809C37.809 30.1238 37.7023 30.2296 37.574 30.2296V30.7896ZM38.369 29.9929C38.369 29.5545 38.0137 29.1962 37.574 29.1962V29.7562C37.7025 29.7562 37.809 29.8618 37.809 29.9929H38.369ZM27.0895 29.1966H14.9594V29.7566H27.0895V29.1966ZM14.9594 29.1966C14.7067 29.1966 14.5007 28.9912 14.5007 28.7355H13.9407C13.9407 29.2988 14.3958 29.7566 14.9594 29.7566V29.1966ZM14.5007 28.7355C14.5007 28.4799 14.7067 28.2745 14.9594 28.2745V27.7145C14.3958 27.7145 13.9407 28.1723 13.9407 28.7355H14.5007ZM14.9594 28.2745H27.0895V27.7145H14.9594V28.2745ZM27.0895 28.2745C27.3422 28.2745 27.5482 28.4799 27.5482 28.7355H28.1082C28.1082 28.1723 27.6531 27.7145 27.0895 27.7145V28.2745ZM27.5482 28.7355C27.5482 28.9907 27.3419 29.1966 27.0891 29.1966V29.7566C27.6527 29.7566 28.1082 29.2985 28.1082 28.7355H27.5482ZM27.0891 29.7566H27.0895V29.1966H27.0891V29.7566ZM27.0895 31.7121H14.9594V32.2721H27.0895V31.7121ZM14.9594 31.7121C14.7067 31.7121 14.5007 31.5067 14.5007 31.251H13.9407C13.9407 31.8142 14.3958 32.2721 14.9594 32.2721V31.7121ZM14.5007 31.251C14.5007 30.9953 14.7067 30.7899 14.9594 30.7899V30.2299C14.3958 30.2299 13.9407 30.6878 13.9407 31.251H14.5007ZM14.9594 30.7899H27.0895V30.2299H14.9594V30.7899ZM27.0895 30.7899C27.3422 30.7899 27.5482 30.9953 27.5482 31.251H28.1082C28.1082 30.6878 27.6531 30.2299 27.0895 30.2299V30.7899ZM27.5482 31.251C27.5482 31.5062 27.3419 31.7121 27.0891 31.7121V32.2721C27.6527 32.2721 28.1082 31.814 28.1082 31.251H27.5482ZM27.0891 32.2721H27.0895V31.7121H27.0891V32.2721ZM14.0022 44.943C12.5863 44.943 11.4324 43.7867 11.4324 42.3641H10.8724C10.8724 44.0943 12.2754 45.503 14.0022 45.503V44.943ZM11.4324 42.3641V36.9401H10.8724V42.3641H11.4324ZM11.4324 36.9401C11.4324 35.5175 12.5863 34.361 14.0022 34.361V33.801C12.2753 33.801 10.8724 35.2099 10.8724 36.9401H11.4324ZM39.7854 34.361C41.2012 34.361 42.3552 35.5175 42.3552 36.9401H42.9152C42.9152 35.2099 41.5122 33.801 39.7854 33.801V34.361ZM42.3552 36.9401V42.3641H42.9152V36.9401H42.3552ZM42.3552 42.3641C42.3552 43.7867 41.2016 44.943 39.7854 44.943V45.503C41.5126 45.503 42.9152 44.0942 42.9152 42.3641H42.3552ZM14.0022 35.2841C13.0901 35.2841 12.3502 36.0281 12.3502 36.9405H12.9102C12.9102 36.3356 13.4012 35.8441 14.0022 35.8441V35.2841ZM12.3502 36.9405V42.3645H12.9102V36.9405H12.3502ZM12.3502 42.3645C12.3502 43.2773 13.0906 44.0209 14.0022 44.0209V43.4609C13.4014 43.4609 12.9102 42.9696 12.9102 42.3645H12.3502ZM14.0022 44.0209H39.7854V43.4609H14.0022V44.0209ZM39.7854 44.0209C40.6975 44.0209 41.4374 43.2768 41.4374 42.3645H40.8774C40.8774 42.9694 40.3864 43.4609 39.7854 43.4609V44.0209ZM41.4374 42.3645V36.9405H40.8774V42.3645H41.4374ZM41.4374 36.9405C41.4374 36.0277 40.697 35.2841 39.7854 35.2841V35.8441C40.3861 35.8441 40.8774 36.3353 40.8774 36.9405H41.4374ZM39.7854 35.2841H14.0022V35.8441H39.7854V35.2841ZM32.4861 41.3715C31.543 41.3715 30.7733 40.601 30.7733 39.6523H30.2133C30.2133 40.9086 31.2321 41.9315 32.4861 41.9315V41.3715ZM30.7733 39.6523C30.7733 38.7041 31.5427 37.9331 32.4861 37.9331V37.3731C31.2316 37.3731 30.2133 38.3965 30.2133 39.6523H30.7733ZM32.4861 37.9331C33.4291 37.9331 34.1989 38.7037 34.1989 39.6523H34.7589C34.7589 38.3961 33.74 37.3731 32.4861 37.3731V37.9331ZM34.1989 39.6523C34.1989 40.601 33.4295 41.3715 32.4861 41.3715V41.9315C33.7405 41.9315 34.7589 40.9085 34.7589 39.6523H34.1989ZM32.4861 38.8561C32.0468 38.8561 31.691 39.2143 31.691 39.6527H32.251C32.251 39.5219 32.3578 39.416 32.4861 39.416V38.8561ZM31.691 39.6527C31.691 40.0912 32.0468 40.4494 32.4861 40.4494V39.8894C32.3578 39.8894 32.251 39.7836 32.251 39.6527H31.691ZM32.4861 40.4494C32.9253 40.4494 33.2811 40.0912 33.2811 39.6527H32.7211C32.7211 39.7836 32.6144 39.8894 32.4861 39.8894V40.4494ZM33.2811 39.6527C33.2811 39.2139 32.9257 38.8561 32.4861 38.8561V39.416C32.6147 39.416 32.7211 39.5215 32.7211 39.6527H33.2811ZM37.574 41.3715C36.6309 41.3715 35.8612 40.601 35.8612 39.6523H35.3012C35.3012 40.9086 36.32 41.9315 37.574 41.9315V41.3715ZM35.8612 39.6523C35.8612 38.7041 36.6306 37.9331 37.574 37.9331V37.3731C36.3195 37.3731 35.3012 38.3965 35.3012 39.6523H35.8612ZM37.574 37.9331C38.517 37.9331 39.2868 38.7037 39.2868 39.6523H39.8468C39.8468 38.3961 38.8279 37.3731 37.574 37.3731V37.9331ZM39.2868 39.6523C39.2868 40.601 38.5174 41.3715 37.574 41.3715V41.9315C38.8284 41.9315 39.8468 40.9085 39.8468 39.6523H39.2868ZM37.574 38.8561C37.1347 38.8561 36.7789 39.2143 36.7789 39.6527H37.3389C37.3389 39.5219 37.4457 39.416 37.574 39.416V38.8561ZM36.7789 39.6527C36.7789 40.0912 37.1347 40.4494 37.574 40.4494V39.8894C37.4457 39.8894 37.3389 39.7836 37.3389 39.6527H36.7789ZM37.574 40.4494C38.0132 40.4494 38.369 40.0912 38.369 39.6527H37.809C37.809 39.7836 37.7023 39.8894 37.574 39.8894V40.4494ZM38.369 39.6527C38.369 39.2139 38.0136 38.8561 37.574 38.8561V39.416C37.7026 39.416 37.809 39.5215 37.809 39.6527H38.369ZM27.0895 38.8561H14.9594V39.416H27.0895V38.8561ZM14.9594 38.8561C14.7067 38.8561 14.5007 38.6507 14.5007 38.395H13.9407C13.9407 38.9582 14.3958 39.416 14.9594 39.416V38.8561ZM14.5007 38.395C14.5007 38.1393 14.7067 37.9339 14.9594 37.9339V37.3739C14.3958 37.3739 13.9407 37.8317 13.9407 38.395H14.5007ZM14.9594 37.9339H27.0895V37.3739H14.9594V37.9339ZM27.0895 37.9339C27.3422 37.9339 27.5482 38.1393 27.5482 38.395H28.1082C28.1082 37.8317 27.6531 37.3739 27.0895 37.3739V37.9339ZM27.5482 38.395C27.5482 38.6502 27.3419 38.8561 27.0891 38.8561V39.416C27.6527 39.416 28.1082 38.9579 28.1082 38.395H27.5482ZM27.0891 39.416H27.0895V38.8561H27.0891V39.416ZM27.0895 41.3715H14.9594V41.9315H27.0895V41.3715ZM14.9594 41.3715C14.7067 41.3715 14.5007 41.1661 14.5007 40.9105H13.9407C13.9407 41.4737 14.3958 41.9315 14.9594 41.9315V41.3715ZM14.5007 40.9105C14.5007 40.6548 14.7067 40.4494 14.9594 40.4494V39.8894C14.3958 39.8894 13.9407 40.3472 13.9407 40.9105H14.5007ZM14.9594 40.4494H27.0895V39.8894H14.9594V40.4494ZM27.0895 40.4494C27.3422 40.4494 27.5482 40.6548 27.5482 40.9105H28.1082C28.1082 40.3472 27.6531 39.8894 27.0895 39.8894V40.4494ZM27.5482 40.9105C27.5482 41.166 27.342 41.3715 27.0891 41.3715V41.9315C27.6526 41.9315 28.1082 41.4739 28.1082 40.9105H27.5482ZM27.0891 41.9315H27.0895V41.3715H27.0891V41.9315ZM39.7854 54.6025H14.0022V55.1625H39.7854V54.6025ZM14.0022 54.6025C12.5863 54.6025 11.4324 53.4462 11.4324 52.0236H10.8724C10.8724 53.7538 12.2754 55.1625 14.0022 55.1625V54.6025ZM11.4324 52.0236V46.5996H10.8724V52.0236H11.4324ZM11.4324 46.5996C11.4324 45.177 12.5863 44.0206 14.0022 44.0206V43.4606C12.2754 43.4606 10.8724 44.8694 10.8724 46.5996H11.4324ZM14.0022 44.0206H39.7854V43.4606H14.0022V44.0206ZM39.7854 44.0206C41.2012 44.0206 42.3552 45.177 42.3552 46.5996H42.9152C42.9152 44.8694 41.5122 43.4606 39.7854 43.4606V44.0206ZM42.3552 46.5996V52.0236H42.9152V46.5996H42.3552ZM42.3552 52.0236C42.3552 53.4462 41.2016 54.6025 39.7854 54.6025V55.1625C41.5126 55.1625 42.9152 53.7537 42.9152 52.0236H42.3552ZM14.0022 44.943C13.0901 44.943 12.3502 45.6872 12.3502 46.5996H12.9102C12.9102 45.9947 13.4012 45.503 14.0022 45.503V44.943ZM12.3502 46.5996V52.0236H12.9102V46.5996H12.3502ZM12.3502 52.0236C12.3502 52.9364 13.0906 53.68 14.0022 53.68V53.12C13.4014 53.12 12.9102 52.6287 12.9102 52.0236H12.3502ZM14.0022 53.68H39.7854V53.12H14.0022V53.68ZM39.7854 53.68C40.6975 53.68 41.4374 52.9359 41.4374 52.0236H40.8774C40.8774 52.6284 40.3864 53.12 39.7854 53.12V53.68ZM41.4374 52.0236V46.5996H40.8774V52.0236H41.4374ZM41.4374 46.5996C41.4374 45.6868 40.697 44.943 39.7854 44.943V45.503C40.3861 45.503 40.8774 45.9944 40.8774 46.5996H41.4374ZM32.4861 51.03C31.543 51.03 30.7733 50.2595 30.7733 49.3108H30.2133C30.2133 50.5671 31.2321 51.59 32.4861 51.59V51.03ZM30.7733 49.3108C30.7733 48.3626 31.5427 47.5916 32.4861 47.5916V47.0316C31.2316 47.0316 30.2133 48.0551 30.2133 49.3108H30.7733ZM32.4861 47.5916C33.4291 47.5916 34.1989 48.3622 34.1989 49.3108H34.7589C34.7589 48.0546 33.74 47.0316 32.4861 47.0316V47.5916ZM34.1989 49.3108C34.1989 50.2595 33.4295 51.03 32.4861 51.03V51.59C33.7405 51.59 34.7589 50.5671 34.7589 49.3108H34.1989ZM32.4861 48.5142C32.0468 48.5142 31.691 48.8724 31.691 49.3108H32.251C32.251 49.18 32.3578 49.0742 32.4861 49.0742V48.5142ZM31.691 49.3108C31.691 49.7493 32.0468 50.1075 32.4861 50.1075V49.5475C32.3578 49.5475 32.251 49.4417 32.251 49.3108H31.691ZM32.4861 50.1075C32.9253 50.1075 33.2811 49.7493 33.2811 49.3108H32.7211C32.7211 49.4417 32.6144 49.5475 32.4861 49.5475V50.1075ZM33.2811 49.3108C33.2811 48.8725 32.9258 48.5142 32.4861 48.5142V49.0742C32.6146 49.0742 32.7211 49.1798 32.7211 49.3108H33.2811ZM37.574 51.03C36.6309 51.03 35.8612 50.2595 35.8612 49.3108H35.3012C35.3012 50.5671 36.32 51.59 37.574 51.59V51.03ZM35.8612 49.3108C35.8612 48.3626 36.6306 47.5916 37.574 47.5916V47.0316C36.3195 47.0316 35.3012 48.0551 35.3012 49.3108H35.8612ZM37.574 47.5916C38.517 47.5916 39.2868 48.3622 39.2868 49.3108H39.8468C39.8468 48.0546 38.8279 47.0316 37.574 47.0316V47.5916ZM39.2868 49.3108C39.2868 50.2595 38.5174 51.03 37.574 51.03V51.59C38.8284 51.59 39.8468 50.5671 39.8468 49.3108H39.2868ZM37.574 48.5142C37.1347 48.5142 36.7789 48.8724 36.7789 49.3108H37.3389C37.3389 49.18 37.4457 49.0742 37.574 49.0742V48.5142ZM36.7789 49.3108C36.7789 49.7493 37.1347 50.1075 37.574 50.1075V49.5475C37.4457 49.5475 37.3389 49.4417 37.3389 49.3108H36.7789ZM37.574 50.1075C38.0132 50.1075 38.369 49.7493 38.369 49.3108H37.809C37.809 49.4417 37.7023 49.5475 37.574 49.5475V50.1075ZM38.369 49.3108C38.369 48.8725 38.0137 48.5142 37.574 48.5142V49.0742C37.7025 49.0742 37.809 49.1798 37.809 49.3108H38.369ZM27.0895 48.5146H14.9594V49.0746H27.0895V48.5146ZM14.9594 48.5146C14.7067 48.5146 14.5007 48.3092 14.5007 48.0535H13.9407C13.9407 48.6167 14.3958 49.0746 14.9594 49.0746V48.5146ZM14.5007 48.0535C14.5007 47.7978 14.7067 47.5924 14.9594 47.5924V47.0324C14.3958 47.0324 13.9407 47.4902 13.9407 48.0535H14.5007ZM14.9594 47.5924H27.0895V47.0324H14.9594V47.5924ZM27.0895 47.5924C27.3422 47.5924 27.5482 47.7978 27.5482 48.0535H28.1082C28.1082 47.4902 27.6531 47.0324 27.0895 47.0324V47.5924ZM27.5482 48.0535C27.5482 48.309 27.342 48.5146 27.0891 48.5146V49.0746C27.6526 49.0746 28.1082 48.6169 28.1082 48.0535H27.5482ZM27.0891 49.0746H27.0895V48.5146H27.0891V49.0746ZM27.0895 51.03H14.9594V51.59H27.0895V51.03ZM14.9594 51.03C14.7067 51.03 14.5007 50.8246 14.5007 50.569H13.9407C13.9407 51.1322 14.3958 51.59 14.9594 51.59V51.03ZM14.5007 50.569C14.5007 50.3133 14.7067 50.1079 14.9594 50.1079V49.5479C14.3958 49.5479 13.9407 50.0057 13.9407 50.569H14.5007ZM14.9594 50.1079H27.0895V49.5479H14.9594V50.1079ZM27.0895 50.1079C27.3422 50.1079 27.5482 50.3133 27.5482 50.569H28.1082C28.1082 50.0057 27.6531 49.5479 27.0895 49.5479V50.1079ZM27.5482 50.569C27.5482 50.8245 27.342 51.03 27.0891 51.03V51.59C27.6526 51.59 28.1082 51.1324 28.1082 50.569H27.5482ZM27.0891 51.59H27.0895V51.03H27.0891V51.59Z" fill="#1742E7" mask="url(#path-1-inside-1_3325_106)"></path></svg>