<svg xmlns="http://www.w3.org/2000/svg" viewBox="0 0 55 53" fill="none"><path d="M49.3024 13.3898H25.1434C23.8095 10.1873 21.2141 7.67675 17.9694 6.4492V5.18775H32.1763C32.411 5.19396 32.6382 5.10498 32.8063 4.9415C32.9743 4.77802 33.0691 4.55328 33.0691 4.31862C33.0691 4.08396 32.9743 3.85923 32.8063 3.69575C32.6382 3.53185 32.411 3.44329 32.1763 3.4495H17.1006C16.6205 3.4495 16.2315 3.83854 16.231 4.31821V5.92771C15.34 5.72864 14.4303 5.626 13.5173 5.62228H13.4937C9.23917 5.61938 5.27056 7.76535 2.94335 11.3271C0.616136 14.8889 0.244883 19.3852 1.95627 23.2805C3.66759 27.1759 7.23019 29.9434 11.4278 30.6387L11.4195 33.8591H10.7275C10.4974 33.8587 10.276 33.9501 10.1129 34.1132C9.95023 34.2758 9.85836 34.4968 9.85836 34.727L9.84181 44.7588C9.84139 45.2385 10.2292 45.628 10.7089 45.6292L16.263 45.64C16.7427 45.64 17.1313 45.2513 17.1317 44.7717V43.2039L25.7518 43.2043L23.2036 47.0811L20.4857 47.0806C19.5822 47.1473 18.7744 47.6679 18.3406 48.4634C17.9073 49.2589 17.9073 50.2199 18.3406 51.0154C18.7744 51.8104 19.5823 52.3311 20.4857 52.3977H44.6203C45.5238 52.3311 46.3316 51.8104 46.7654 51.0154C47.1991 50.2199 47.1991 49.2589 46.7654 48.4634C46.3316 47.668 45.5237 47.1473 44.6203 47.0806H41.902L39.3551 43.2039L49.3021 43.2043C50.1608 43.2031 50.9836 42.8612 51.5904 42.2536C52.1971 41.6465 52.5381 40.8233 52.5386 39.9646V16.6299C52.5381 15.7711 52.1975 14.9479 51.5904 14.3404C50.9836 13.7333 50.1609 13.3914 49.3021 13.3902L49.3024 13.3898ZM21.1936 10.5548C23.5874 12.9524 24.7234 16.3308 24.2645 19.6873C23.8055 23.0442 21.804 25.9935 18.8547 27.6601V25.7666C21.4529 23.9244 22.9214 20.8751 22.7414 17.6948C22.5618 14.5146 20.7585 11.6507 17.9691 10.1135V8.331C19.1697 8.87069 20.2624 9.62445 21.1936 10.5548ZM15.0104 10.8482L15.034 10.8544C15.2546 10.9 15.471 10.9575 15.6846 11.0225C15.7558 11.0436 15.8245 11.0705 15.8944 11.0945C16.007 11.1326 16.1175 11.174 16.2272 11.2195V13.6522H16.2276C16.2214 13.8869 16.3103 14.1137 16.4738 14.2817C16.6377 14.4502 16.862 14.5449 17.0967 14.5449C17.3314 14.5449 17.5561 14.4502 17.7196 14.2817C17.8835 14.1137 17.972 13.8869 17.9658 13.6522V12.1838C18.0283 12.2281 18.0871 12.272 18.1459 12.3179C18.2046 12.3643 18.2572 12.4024 18.3106 12.4466C18.6591 12.7372 18.9811 13.0575 19.2724 13.4048C19.3175 13.4586 19.3585 13.5161 19.4024 13.5715C19.4984 13.6965 19.5899 13.817 19.6817 13.9461C19.7297 14.0161 19.7749 14.0881 19.8212 14.1592C19.8986 14.2793 19.9735 14.4018 20.0443 14.5263C20.0882 14.6033 20.13 14.6811 20.1693 14.7598C20.2318 14.8848 20.2943 15.0151 20.3568 15.1459C20.3932 15.2258 20.4292 15.3052 20.4631 15.3868C20.5207 15.5279 20.5711 15.6723 20.6204 15.8176C20.6452 15.8909 20.6734 15.9633 20.6961 16.0382C20.7582 16.241 20.8112 16.4475 20.8555 16.6582C20.86 16.6768 20.8654 16.6946 20.8691 16.7132C20.9122 16.9239 20.9424 17.1387 20.9672 17.3547L14.3722 17.3552V10.7506C14.5882 10.7754 14.803 10.8056 15.0137 10.8487L15.0104 10.8482ZM13.4997 19.0922L20.9639 19.0926C20.7714 20.7551 20.0294 22.3055 18.8548 23.4978V22.4673C18.861 22.2326 18.772 22.0054 18.6086 21.8374C18.4447 21.6693 18.2203 21.5746 17.9857 21.5746C17.751 21.5746 17.5263 21.6693 17.3628 21.8374C17.1989 22.0054 17.1104 22.2326 17.1166 22.4673V24.8193C16.0103 25.4306 14.7666 25.7509 13.5027 25.7497C10.916 25.753 8.50889 24.427 7.1291 22.2388C5.7493 20.0502 5.58995 17.3066 6.70777 14.9737C7.82559 12.6408 10.0634 11.0457 12.6336 10.7498V18.2234C12.6336 18.7035 13.0226 19.0926 13.5027 19.0926L13.4997 19.0922ZM2.62811 18.2053C2.63721 15.328 3.78573 12.5712 5.82232 10.5387C7.85901 8.5066 10.6179 7.3635 13.4951 7.36064H13.5158C14.4329 7.36519 15.3455 7.48521 16.2329 7.71822V9.36958C13.342 8.47685 10.1978 9.05131 7.80978 10.9087C5.42175 12.7662 4.09111 15.6724 4.24506 18.6937C4.39902 21.715 6.01804 24.4709 8.58248 26.0759C11.1468 27.6809 14.3336 27.9329 17.1181 26.751V28.4524C15.9559 28.8692 14.7305 29.0836 13.4958 29.0865H13.4785C10.5987 29.0757 7.84028 27.9247 5.80698 25.8856C3.77368 23.8465 2.63065 21.0849 2.62811 18.2053ZM13.4754 30.824H13.4952C13.6103 30.824 13.7212 30.8095 13.835 30.8066L13.8263 33.859H13.1579L13.1662 30.81C13.2697 30.8104 13.3711 30.824 13.4754 30.824ZM15.4007 43.8994L11.5852 43.892L11.591 35.5963L15.4077 35.605L15.4007 43.8994ZM45.3541 49.7391V49.7387C45.3938 50.1911 45.0723 50.5954 44.6228 50.6588H20.4861C20.0582 50.559 19.7556 50.1778 19.7556 49.7387C19.7556 49.2992 20.0582 48.918 20.4861 48.8183H44.6207C45.0706 48.8816 45.3917 49.286 45.3524 49.7383L45.3541 49.7391ZM39.8206 47.08H25.2841L27.8291 43.2037H37.2724L39.8206 47.08ZM50.8014 39.9639C50.8014 40.7916 50.1301 41.4629 49.3024 41.4629H17.1378L17.1494 34.7391C17.1502 34.259 16.762 33.8692 16.2819 33.8683H15.5651L15.5738 30.6381C16.0952 30.5545 16.6105 30.4378 17.117 30.2884V31.9385C17.117 32.4185 17.5061 32.808 17.9862 32.808H23.6599C24.1305 32.7952 24.5059 32.4099 24.5059 31.9389C24.5059 31.4675 24.1305 31.0822 23.6599 31.0697H18.8553V29.6101C21.5086 28.3767 23.6471 26.2531 24.8982 23.6081C26.1497 20.9631 26.4353 17.9634 25.7057 15.1292H49.302C50.1302 15.1292 50.801 15.8005 50.801 16.6282L50.8014 39.9639ZM35.8665 11.729H39.7631C39.9936 11.729 40.2146 11.6375 40.3777 11.4745C40.5407 11.3114 40.6326 11.0904 40.6326 10.8595V1.73114C40.6326 1.25147 40.2436 0.862427 39.7639 0.862427H35.8665C35.3868 0.862427 34.9974 1.25147 34.997 1.73114V10.8595C34.997 11.0904 35.0888 11.3114 35.2519 11.4745C35.415 11.6375 35.636 11.729 35.8665 11.729ZM36.7352 2.60068H38.8936V9.99077H36.7352V2.60068ZM42.0195 2.4819C42.0199 2.00181 42.409 1.61319 42.8891 1.61319H54.0245C54.4955 1.6256 54.8705 2.01133 54.8705 2.48231C54.8705 2.9533 54.4955 3.33861 54.0245 3.35144H42.8891C42.6585 3.35144 42.4371 3.25956 42.2745 3.0965C42.1114 2.93343 42.0195 2.71243 42.0195 2.4819ZM54.8926 6.29486C54.8926 6.77454 54.5035 7.16399 54.0239 7.16399H42.8884C42.6538 7.17061 42.4265 7.08163 42.2585 6.91815C42.0905 6.75426 41.9957 6.52953 41.9957 6.29528C41.9957 6.06062 42.0905 5.83589 42.2585 5.67199C42.4265 5.50851 42.6538 5.41953 42.8884 5.42615H54.0239C54.254 5.42615 54.475 5.51762 54.638 5.68026C54.8011 5.84333 54.8926 6.06434 54.8926 6.29486ZM54.8926 10.1045C54.8926 10.5846 54.5035 10.9737 54.0239 10.9741H42.8884C42.4083 10.9741 42.0189 10.5846 42.0189 10.1045C42.0189 9.62446 42.4083 9.23501 42.8884 9.23501H54.0239C54.2548 9.23542 54.4762 9.3273 54.6393 9.4912C54.8024 9.65468 54.8934 9.87651 54.8926 10.1079V10.1045ZM27.9874 18.2607C27.9878 17.7806 28.3768 17.3919 28.8569 17.3919H44.0386C44.2733 17.3853 44.5001 17.4743 44.6685 17.6378C44.8366 17.8017 44.9314 18.0264 44.9314 18.2607C44.9314 18.4953 44.8366 18.72 44.6685 18.8839C44.5001 19.0474 44.2733 19.136 44.0386 19.1298H28.8569C28.3768 19.1298 27.9874 18.7407 27.9874 18.2607ZM27.9874 21.1715C27.9878 20.6918 28.3768 20.3027 28.8569 20.3027H37.5851C37.8197 20.2965 38.0465 20.3855 38.215 20.549C38.383 20.7125 38.4778 20.9372 38.4778 21.1719C38.4778 21.4065 38.383 21.6313 38.215 21.7948C38.0465 21.9586 37.8197 22.0472 37.5851 22.041H28.8569C28.3777 22.041 27.989 21.6532 27.9874 21.1739V21.1715ZM27.9874 24.0822C27.9878 23.6022 28.3768 23.2131 28.8569 23.2131H37.5851C37.8197 23.2069 38.0465 23.2959 38.215 23.4594C38.383 23.6233 38.4778 23.8476 38.4778 24.0822C38.4778 24.3169 38.383 24.5416 38.215 24.7051C38.0465 24.869 37.8197 24.9576 37.5851 24.9514H28.8569C28.3777 24.9514 27.989 24.5636 27.9874 24.0847V24.0822ZM32.4642 31.1395H29.0423C28.5623 31.1395 28.1732 31.5286 28.1732 32.0087V38.1501C28.1732 38.6302 28.5623 39.0197 29.0423 39.0197H32.4642C32.6948 39.0197 32.9162 38.9278 33.0793 38.7647C33.2423 38.6016 33.3338 38.3806 33.3338 38.1501V32.0119C33.3338 31.7814 33.2423 31.5604 33.0793 31.3973C32.9162 31.2343 32.6948 31.1424 32.4642 31.1424V31.1395ZM31.5955 37.2843H29.9094V32.8807H31.5955V37.2843ZM38.6135 27.5339H35.1908H35.1912C34.7119 27.5352 34.3241 27.9242 34.3241 28.4035V38.1534C34.3241 38.6331 34.7132 39.0221 35.1928 39.0225H38.6156C38.8461 39.0225 39.0671 38.931 39.2302 38.768C39.3932 38.6049 39.4851 38.3839 39.4851 38.1534V28.4035C39.4851 28.1725 39.3932 27.9511 39.2297 27.788C39.0663 27.625 38.8444 27.5335 38.6135 27.5339ZM37.7444 37.2843H36.0583L36.0579 29.2721H37.744L37.7444 37.2843ZM44.7645 24.0224H41.341C40.8613 24.0228 40.4723 24.4118 40.4723 24.8919V38.1528C40.4723 38.6324 40.8613 39.0215 41.341 39.0219H44.7645C45.2441 39.0215 45.6332 38.6324 45.6332 38.1528V24.8919C45.6332 24.4118 45.2441 24.0228 44.7645 24.0224ZM43.8949 37.2843H42.2088V25.761H43.8949V37.2843Z" fill="#1742E7"></path></svg>