<svg xmlns="http://www.w3.org/2000/svg" width="181" height="40" viewBox="0 0 181 40" fill="none"><path d="M94.935 4H94.065V40H94.935V4Z" fill="black"></path><path d="M115.832 31.8248H107.684L106.284 35.8008H102.952L109.924 16.3128H113.62L120.592 35.8008H117.232L115.832 31.8248ZM114.936 29.2208L111.772 20.1768L108.58 29.2208H114.936ZM126.451 33.1968H133.451V35.8008H122.755V33.1968L129.783 22.9768H122.755V20.3728H133.451V22.9768L126.451 33.1968ZM150.775 20.3728V35.8008H147.583V33.9808C147.079 34.6154 146.416 35.1194 145.595 35.4928C144.792 35.8474 143.934 36.0248 143.019 36.0248C141.806 36.0248 140.714 35.7728 139.743 35.2688C138.791 34.7648 138.035 34.0181 137.475 33.0288C136.934 32.0394 136.663 30.8448 136.663 29.4448V20.3728H139.827V28.9688C139.827 30.3501 140.172 31.4141 140.863 32.1608C141.554 32.8888 142.496 33.2528 143.691 33.2528C144.886 33.2528 145.828 32.8888 146.519 32.1608C147.228 31.4141 147.583 30.3501 147.583 28.9688V20.3728H150.775ZM158.179 22.6128C158.645 21.8288 159.261 21.2221 160.027 20.7928C160.811 20.3448 161.735 20.1208 162.799 20.1208V23.4248H161.987C160.736 23.4248 159.784 23.7421 159.131 24.3768C158.496 25.0114 158.179 26.1128 158.179 27.6808V35.8008H154.987V20.3728H158.179V22.6128ZM179.873 27.7088C179.873 28.2874 179.835 28.8101 179.761 29.2768H167.973C168.066 30.5088 168.523 31.4981 169.345 32.2448C170.166 32.9914 171.174 33.3648 172.369 33.3648C174.086 33.3648 175.299 32.6461 176.009 31.2088H179.453C178.986 32.6274 178.137 33.7941 176.905 34.7088C175.691 35.6048 174.179 36.0528 172.369 36.0528C170.894 36.0528 169.569 35.7261 168.393 35.0728C167.235 34.4008 166.321 33.4674 165.649 32.2728C164.995 31.0594 164.669 29.6594 164.669 28.0728C164.669 26.4861 164.986 25.0954 165.621 23.9008C166.274 22.6874 167.179 21.7541 168.337 21.1008C169.513 20.4474 170.857 20.1208 172.369 20.1208C173.825 20.1208 175.122 20.4381 176.261 21.0728C177.399 21.7074 178.286 22.6034 178.921 23.7608C179.555 24.8994 179.873 26.2154 179.873 27.7088ZM176.541 26.7008C176.522 25.5248 176.102 24.5821 175.281 23.8728C174.459 23.1634 173.442 22.8088 172.229 22.8088C171.127 22.8088 170.185 23.1634 169.401 23.8728C168.617 24.5634 168.15 25.5061 168.001 26.7008H176.541Z" fill="#121127"></path><path d="M10.9507 26.0852H7.45666V39H2.52392V26.0852H0V21.9457H2.52392V20.3191C2.52392 16.1389 5.15472 14 9.15844 14C9.77816 14.0055 10.3955 14.0764 11 14.2115V19.0911C10.4766 18.8849 9.91899 18.7774 9.35575 18.7739C9.10024 18.7543 8.84349 18.7898 8.6031 18.8777C8.36279 18.9656 8.14447 19.1039 7.96326 19.2832C7.78205 19.4624 7.64222 19.6784 7.55335 19.9162C7.46448 20.154 7.42868 20.4079 7.44843 20.6607V21.9457H10.9507V26.0852Z" fill="#ED2639"></path><path fill-rule="evenodd" clip-rule="evenodd" d="M26.3237 22.3525C24.7669 21.3169 22.9378 20.7667 21.0681 20.7717C19.8253 20.7538 18.5917 20.9855 17.4401 21.453C16.2886 21.9206 15.2427 22.6146 14.3642 23.4938C13.4859 24.373 12.7928 25.4196 12.3263 26.5714C11.8597 27.7234 11.6291 28.9573 11.6481 30.1999C11.6448 32.0696 12.1966 33.8982 13.2334 35.4542C14.2704 37.0101 15.7458 38.2233 17.4728 38.9399C19.1997 39.6566 21.1006 39.8445 22.9345 39.4799C24.7684 39.1153 26.4527 38.2146 27.7743 36.892C29.0958 35.5693 29.9951 33.8841 30.358 32.0498C30.721 30.2157 30.5313 28.315 29.8132 26.5887C29.095 24.8623 27.8805 23.3881 26.3237 22.3525ZM23.6829 34.1455C22.8982 34.626 21.9877 34.8606 21.0685 34.8192C20.4753 34.8074 19.8904 34.6783 19.3474 34.4393C18.8045 34.2004 18.3142 33.8562 17.9048 33.4269C17.4955 32.9975 17.1753 32.4913 16.9625 31.9376C16.7497 31.3838 16.6487 30.7935 16.6653 30.2005C16.6679 29.2804 16.9457 28.3821 17.4631 27.6212C17.9805 26.8603 18.7137 26.2715 19.5683 25.9307C20.4231 25.59 21.3603 25.5129 22.2592 25.7092C23.1582 25.9054 23.9779 26.3662 24.6128 27.0322C25.2477 27.6981 25.6687 28.5389 25.8219 29.4462C25.975 30.3535 25.8531 31.2859 25.472 32.1233C25.0908 32.9608 24.4677 33.6652 23.6829 34.1455Z" fill="#ED2639"></path><path d="M38 39H33V14H38V39Z" fill="#ED2639"></path><path fill-rule="evenodd" clip-rule="evenodd" d="M44.8659 13.1297C44.5075 12.9837 44.1232 12.912 43.7363 12.9189C43.3514 12.9166 42.9699 12.9915 42.6145 13.1393C42.2591 13.287 41.9369 13.5046 41.6671 13.7791C41.3972 14.0536 41.1851 14.3794 41.0435 14.7373C40.9019 15.0952 40.8335 15.4779 40.8423 15.8627C40.8121 16.2622 40.8647 16.6637 40.9968 17.042C41.129 17.4203 41.3379 17.7673 41.6103 18.0611C41.8827 18.355 42.2129 18.5894 42.5802 18.7497C42.9475 18.9101 43.3438 18.9928 43.7446 18.9928C44.1453 18.9928 44.5417 18.9101 44.909 18.7497C45.2762 18.5894 45.6064 18.355 45.8788 18.0611C46.1513 17.7673 46.3602 17.4203 46.4924 17.042C46.6245 16.6637 46.677 16.2622 46.6468 15.8627C46.6581 15.4759 46.5908 15.0908 46.4489 14.7307C46.3071 14.3706 46.0937 14.0431 45.8216 13.7679C45.5495 13.4926 45.2244 13.2755 44.8659 13.1297ZM41.2465 39.2552H46.2218V21.1368H41.2465V39.2552Z" fill="#ED2639"></path><path fill-rule="evenodd" clip-rule="evenodd" d="M63.2496 22.3525C61.6929 21.3169 59.8637 20.7667 57.9939 20.7717C56.7512 20.7538 55.5176 20.9855 54.3661 21.453C53.2146 21.9206 52.1686 22.6146 51.2902 23.4938C50.4118 24.373 49.7188 25.4196 49.2522 26.5714C48.7857 27.7234 48.555 28.9573 48.574 30.1999C48.5707 32.0696 49.1225 33.8982 50.1594 35.4542C51.1963 37.0101 52.6717 38.2233 54.3986 38.9399C56.1257 39.6566 58.0265 39.8445 59.8604 39.4799C61.6943 39.1153 63.3787 38.2146 64.7002 36.892C66.0217 35.5693 66.9209 33.8841 67.2839 32.0498C67.6469 30.2157 67.4572 28.315 66.7391 26.5887C66.0209 24.8623 64.8065 23.3881 63.2496 22.3525ZM60.6089 34.1455C59.8242 34.626 58.9136 34.8606 57.9944 34.8192C57.4013 34.8074 56.8164 34.6783 56.2735 34.4393C55.7305 34.2004 55.2402 33.8562 54.8309 33.4269C54.4215 32.9975 54.1013 32.4913 53.8885 31.9376C53.6757 31.3838 53.5747 30.7935 53.5912 30.2005C53.5938 29.2804 53.8717 28.3821 54.389 27.6212C54.9065 26.8603 55.6396 26.2715 56.4944 25.9307C57.3491 25.59 58.2863 25.5129 59.1852 25.7092C60.0842 25.9054 60.9038 26.3662 61.5387 27.0322C62.1736 27.6981 62.5948 28.5389 62.7479 29.4462C62.901 30.3535 62.7791 31.2859 62.3979 32.1233C62.0167 32.9608 61.3937 33.6652 60.6089 34.1455Z" fill="#ED2639"></path><path d="M70.8091 24.0792H74.3017C74.6306 24.1094 74.9621 24.0709 75.2755 23.9659C75.5889 23.8609 75.8774 23.6916 76.1228 23.469C76.3682 23.2462 76.5652 22.9746 76.7016 22.6714C76.8378 22.3683 76.9105 22.04 76.9149 21.7071C76.9149 20.2636 75.8093 19.2591 74.0421 19.2591C72.3367 19.2456 70.669 19.7646 69.268 20.7448V15.0805C70.8506 14.3727 72.562 14.0047 74.2933 14C79.2182 14 82.3004 17.0812 82.3004 21.0066C82.3718 22.1249 82.1312 23.241 81.6057 24.2287C81.0802 25.2163 80.2909 26.036 79.327 26.5948C80.4606 27.1246 81.4135 27.9801 82.0662 29.0539C82.7189 30.1277 83.0424 31.372 82.9955 32.6305C82.9955 36.7837 79.4359 40 74.5111 40C72.6191 39.9673 70.7498 39.5778 69 38.8519V32.9428C70.4612 34.1694 72.3171 34.815 74.218 34.7577C76.1276 34.7577 77.5682 33.6097 77.5682 31.9129C77.5682 30.2162 76.2532 29.1694 74.3352 29.1694H70.8091V24.0792Z" fill="#ED2639"></path><path fill-rule="evenodd" clip-rule="evenodd" d="M60.7874 1.13167e-05C61.9921 -0.00209447 63.1781 0.289711 64.2367 0.848793C65.2955 1.40787 66.1928 2.21635 66.8468 3.20007C67.5008 4.18377 67.8904 5.31127 67.9801 6.47935C68.0697 7.64743 67.8563 8.81872 67.3597 9.88592C66.863 10.953 66.0989 11.8819 65.1372 12.5875C64.1756 13.2931 63.0471 13.7528 61.8554 13.9244C60.6637 14.0961 59.4467 13.9741 58.316 13.57C57.1852 13.1658 56.1768 12.4923 55.3832 11.6109C55.6423 10.8626 55.7758 10.0785 55.7784 9.28875C55.7846 7.5947 55.152 5.95719 54 4.68614C54.4929 3.31783 55.4106 2.13208 56.6264 1.29266C57.8423 0.453231 59.2962 0.00156013 60.7874 1.13167e-05Z" fill="#2F69F2"></path><path fill-rule="evenodd" clip-rule="evenodd" d="M49 4.00002C50.5913 4.00002 52.1174 4.5795 53.2427 5.61094C54.3679 6.64238 55 8.04132 55 9.49996C55 10.9587 54.3679 12.3576 53.2427 13.389C52.1174 14.4205 50.5913 15 49 15C48.6534 14.9931 48.3075 14.9659 47.9646 14.9188C47.9018 14.0544 47.4828 13.2442 46.7928 12.6522C46.1027 12.0603 45.1929 11.7309 44.2478 11.7308C44.0072 11.7323 43.7673 11.754 43.531 11.7957C43.1816 11.0726 43.0007 10.2908 43 9.49996C42.9977 8.7771 43.1513 8.06093 43.452 7.39268C43.7527 6.72442 44.1946 6.11733 44.7522 5.60619C45.3098 5.09504 45.9721 4.68998 46.7012 4.41434C47.4302 4.1387 48.2114 3.99787 49 4.00002Z" fill="#F5C300"></path></svg>