<svg xmlns="http://www.w3.org/2000/svg" viewBox="0 0 61 61" fill="none"><mask id="path-1-inside-1_171_1548" fill="white"><path d="M25.6601 48.8769H27.5955V50.8124H25.6601V48.8769Z"></path><path d="M33.4019 48.8769H35.3374V50.8124H33.4019V48.8769Z"></path><path d="M29.531 48.8769H31.4665V50.8124H29.531V48.8769Z"></path><path d="M12.1118 43.0705H21.7891V33.3932H12.1118V43.0705ZM14.0473 35.3286H19.8537V41.1351H14.0473V35.3286Z"></path><path d="M12.1118 25.6513H21.7891V27.5868H12.1118V25.6513Z"></path><path d="M12.1118 29.5222H17.9182V31.4577H12.1118V29.5222Z"></path><path d="M19.8537 29.5222H21.7891V31.4577H19.8537V29.5222Z"></path><path d="M48.8856 37.2641H37.2729V43.0705H48.8856V37.2641ZM46.9502 41.1351H39.2083V39.1996H46.9502V41.1351Z"></path><path d="M46.9502 33.3932H48.8857V35.3286H46.9502V33.3932Z"></path><path d="M37.2729 33.3932H45.0147V35.3286H37.2729V33.3932Z"></path><path d="M37.2729 29.5222H48.8856V31.4577H37.2729V29.5222Z"></path><path d="M41.1438 25.6513H48.8857V27.5868H41.1438V25.6513Z"></path><path d="M11.383 11.8884L13.2709 12.317C14.0753 8.77312 17.1807 6.29671 20.8214 6.29671V4.36124C16.2713 4.36124 12.3896 7.45711 11.383 11.8884Z"></path><path d="M60.4984 18.8772C60.4984 14.0752 56.5917 10.1675 51.7888 10.1675C49.8573 10.1675 48.0765 10.8074 46.6309 11.8745C44.7874 8.44984 41.2453 6.2966 37.2729 6.2966C35.6549 6.2966 34.0621 6.66901 32.6083 7.38228C30.22 3.16395 25.6998 0.490234 20.8218 0.490234C14.729 0.490234 9.47337 4.48383 7.8133 10.2868C3.66067 10.9612 0.5 14.6074 0.5 18.8772C0.5 23.3521 3.89403 27.0468 8.24186 27.5297V49.8452C8.24186 52.5133 10.4124 54.6838 13.0805 54.6838H20.8224V58.5548H16.9515V60.4902H44.048V58.5548H40.1771V54.6838H47.9189C50.5871 54.6838 52.7576 52.5133 52.7576 49.8452V27.5297C57.1054 27.0467 60.4994 23.3521 60.4994 18.8772L60.4984 18.8772ZM25.8149 28.151C26.316 28.4712 26.628 29.0898 26.628 29.7642V31.4577C26.628 33.5924 28.3642 35.3286 30.4989 35.3286C32.6336 35.3286 34.3698 33.5924 34.3698 31.4577V29.7235C34.3698 29.0759 34.6891 28.4685 35.2041 28.1375C36.8617 27.0722 38.0645 25.5091 38.6988 23.7158H47.9181C49.5188 23.7158 50.8213 25.0183 50.8213 26.619V45.006H10.1765V26.619C10.1765 25.0183 11.479 23.7158 13.0797 23.7158H22.3004C22.932 25.5079 24.1321 27.0757 25.8149 28.151ZM32.4344 31.4577C32.4344 32.5252 31.5665 33.3932 30.4989 33.3932C29.4314 33.3932 28.5635 32.5252 28.5635 31.4577H32.4344ZM29.5312 20.8126C29.5312 20.2795 29.965 19.8449 30.4989 19.8449C31.0329 19.8449 31.4667 20.2795 31.4667 20.8126C31.4667 21.3457 31.0329 21.7804 30.4989 21.7804C29.965 21.7804 29.5312 21.3457 29.5312 20.8126ZM32.4469 29.5222H31.4666V23.5379C32.5903 23.1374 33.4021 22.0729 33.4021 20.8126C33.4021 19.2119 32.0996 17.9094 30.4989 17.9094C28.8982 17.9094 27.5957 19.2119 27.5957 20.8126C27.5957 22.0724 28.4075 23.137 29.5312 23.5379V29.5222H28.5488C28.477 28.2719 27.8605 27.1607 26.8561 26.5193C24.6225 25.0919 23.4448 22.5624 23.7818 19.9175C24.168 16.8817 26.6599 14.4273 29.7044 14.083C29.9744 14.0532 30.2414 14.0386 30.5067 14.0386C32.1769 14.0386 33.7525 14.6356 35.0106 15.7593C36.4474 17.0433 37.2731 18.886 37.2731 20.8127C37.2731 23.1257 36.1088 25.2557 34.1568 26.5098C33.1351 27.1678 32.5087 28.2836 32.4469 29.5222ZM38.2408 58.5543H22.7571V54.6833H38.2408V58.5543ZM47.9181 52.7479H13.0798C11.4791 52.7479 10.1766 51.4454 10.1766 49.8447V46.9415H50.8213V49.8447C50.8213 51.4454 49.5188 52.7479 47.9181 52.7479ZM52.6414 25.5916C52.1684 23.4172 50.233 21.7807 47.9181 21.7807H39.1476C39.1835 21.4614 39.2085 21.1391 39.2085 20.813C39.2085 18.3358 38.1479 15.9674 36.2997 14.3166C34.4532 12.6658 31.9739 11.8817 29.4879 12.1604C25.5669 12.6037 22.3605 15.7635 21.8623 19.6729C21.7712 20.387 21.785 21.0908 21.8606 21.7808H13.0797C10.7648 21.7808 8.82938 23.4173 8.35635 25.5917C5.02326 25.1709 2.4346 22.3238 2.4346 18.8776C2.4346 15.3752 5.16936 12.4124 8.66094 12.1315L9.36557 12.0754L9.52628 11.3872C10.7589 6.11129 15.404 2.42616 20.8217 2.42616C25.2974 2.42616 29.422 5.05375 31.3285 9.1199L31.789 10.1023L32.7131 9.53248C34.0922 8.68269 35.6686 8.23251 37.2731 8.23251C40.696 8.23251 43.7132 10.197 45.1428 13.2617C43.8584 14.7795 43.0795 16.7378 43.0795 18.8776H45.0149C45.0149 15.1424 48.0546 12.1034 51.7891 12.1034C55.5235 12.1034 58.5632 15.1424 58.5632 18.8776C58.5632 22.3238 55.9745 25.1707 52.6414 25.5916Z"></path></mask><path d="M25.6601 48.8769H27.5955V50.8124H25.6601V48.8769Z" fill="#1742E7"></path><path d="M33.4019 48.8769H35.3374V50.8124H33.4019V48.8769Z" fill="#1742E7"></path><path d="M29.531 48.8769H31.4665V50.8124H29.531V48.8769Z" fill="#1742E7"></path><path d="M12.1118 43.0705H21.7891V33.3932H12.1118V43.0705ZM14.0473 35.3286H19.8537V41.1351H14.0473V35.3286Z" fill="#1742E7"></path><path d="M12.1118 25.6513H21.7891V27.5868H12.1118V25.6513Z" fill="#1742E7"></path><path d="M12.1118 29.5222H17.9182V31.4577H12.1118V29.5222Z" fill="#1742E7"></path><path d="M19.8537 29.5222H21.7891V31.4577H19.8537V29.5222Z" fill="#1742E7"></path><path d="M48.8856 37.2641H37.2729V43.0705H48.8856V37.2641ZM46.9502 41.1351H39.2083V39.1996H46.9502V41.1351Z" fill="#1742E7"></path><path d="M46.9502 33.3932H48.8857V35.3286H46.9502V33.3932Z" fill="#1742E7"></path><path d="M37.2729 33.3932H45.0147V35.3286H37.2729V33.3932Z" fill="#1742E7"></path><path d="M37.2729 29.5222H48.8856V31.4577H37.2729V29.5222Z" fill="#1742E7"></path><path d="M41.1438 25.6513H48.8857V27.5868H41.1438V25.6513Z" fill="#1742E7"></path><path d="M11.383 11.8884L13.2709 12.317C14.0753 8.77312 17.1807 6.29671 20.8214 6.29671V4.36124C16.2713 4.36124 12.3896 7.45711 11.383 11.8884Z" fill="#1742E7"></path><path d="M60.4984 18.8772C60.4984 14.0752 56.5917 10.1675 51.7888 10.1675C49.8573 10.1675 48.0765 10.8074 46.6309 11.8745C44.7874 8.44984 41.2453 6.2966 37.2729 6.2966C35.6549 6.2966 34.0621 6.66901 32.6083 7.38228C30.22 3.16395 25.6998 0.490234 20.8218 0.490234C14.729 0.490234 9.47337 4.48383 7.8133 10.2868C3.66067 10.9612 0.5 14.6074 0.5 18.8772C0.5 23.3521 3.89403 27.0468 8.24186 27.5297V49.8452C8.24186 52.5133 10.4124 54.6838 13.0805 54.6838H20.8224V58.5548H16.9515V60.4902H44.048V58.5548H40.1771V54.6838H47.9189C50.5871 54.6838 52.7576 52.5133 52.7576 49.8452V27.5297C57.1054 27.0467 60.4994 23.3521 60.4994 18.8772L60.4984 18.8772ZM25.8149 28.151C26.316 28.4712 26.628 29.0898 26.628 29.7642V31.4577C26.628 33.5924 28.3642 35.3286 30.4989 35.3286C32.6336 35.3286 34.3698 33.5924 34.3698 31.4577V29.7235C34.3698 29.0759 34.6891 28.4685 35.2041 28.1375C36.8617 27.0722 38.0645 25.5091 38.6988 23.7158H47.9181C49.5188 23.7158 50.8213 25.0183 50.8213 26.619V45.006H10.1765V26.619C10.1765 25.0183 11.479 23.7158 13.0797 23.7158H22.3004C22.932 25.5079 24.1321 27.0757 25.8149 28.151ZM32.4344 31.4577C32.4344 32.5252 31.5665 33.3932 30.4989 33.3932C29.4314 33.3932 28.5635 32.5252 28.5635 31.4577H32.4344ZM29.5312 20.8126C29.5312 20.2795 29.965 19.8449 30.4989 19.8449C31.0329 19.8449 31.4667 20.2795 31.4667 20.8126C31.4667 21.3457 31.0329 21.7804 30.4989 21.7804C29.965 21.7804 29.5312 21.3457 29.5312 20.8126ZM32.4469 29.5222H31.4666V23.5379C32.5903 23.1374 33.4021 22.0729 33.4021 20.8126C33.4021 19.2119 32.0996 17.9094 30.4989 17.9094C28.8982 17.9094 27.5957 19.2119 27.5957 20.8126C27.5957 22.0724 28.4075 23.137 29.5312 23.5379V29.5222H28.5488C28.477 28.2719 27.8605 27.1607 26.8561 26.5193C24.6225 25.0919 23.4448 22.5624 23.7818 19.9175C24.168 16.8817 26.6599 14.4273 29.7044 14.083C29.9744 14.0532 30.2414 14.0386 30.5067 14.0386C32.1769 14.0386 33.7525 14.6356 35.0106 15.7593C36.4474 17.0433 37.2731 18.886 37.2731 20.8127C37.2731 23.1257 36.1088 25.2557 34.1568 26.5098C33.1351 27.1678 32.5087 28.2836 32.4469 29.5222ZM38.2408 58.5543H22.7571V54.6833H38.2408V58.5543ZM47.9181 52.7479H13.0798C11.4791 52.7479 10.1766 51.4454 10.1766 49.8447V46.9415H50.8213V49.8447C50.8213 51.4454 49.5188 52.7479 47.9181 52.7479ZM52.6414 25.5916C52.1684 23.4172 50.233 21.7807 47.9181 21.7807H39.1476C39.1835 21.4614 39.2085 21.1391 39.2085 20.813C39.2085 18.3358 38.1479 15.9674 36.2997 14.3166C34.4532 12.6658 31.9739 11.8817 29.4879 12.1604C25.5669 12.6037 22.3605 15.7635 21.8623 19.6729C21.7712 20.387 21.785 21.0908 21.8606 21.7808H13.0797C10.7648 21.7808 8.82938 23.4173 8.35635 25.5917C5.02326 25.1709 2.4346 22.3238 2.4346 18.8776C2.4346 15.3752 5.16936 12.4124 8.66094 12.1315L9.36557 12.0754L9.52628 11.3872C10.7589 6.11129 15.404 2.42616 20.8217 2.42616C25.2974 2.42616 29.422 5.05375 31.3285 9.1199L31.789 10.1023L32.7131 9.53248C34.0922 8.68269 35.6686 8.23251 37.2731 8.23251C40.696 8.23251 43.7132 10.197 45.1428 13.2617C43.8584 14.7795 43.0795 16.7378 43.0795 18.8776H45.0149C45.0149 15.1424 48.0546 12.1034 51.7891 12.1034C55.5235 12.1034 58.5632 15.1424 58.5632 18.8776C58.5632 22.3238 55.9745 25.1707 52.6414 25.5916Z" fill="#1742E7"></path><path d="M25.6601 48.8769H27.5955V50.8124H25.6601V48.8769Z" stroke="#1742E7" stroke-width="0.8" mask="url(#path-1-inside-1_171_1548)"></path><path d="M33.4019 48.8769H35.3374V50.8124H33.4019V48.8769Z" stroke="#1742E7" stroke-width="0.8" mask="url(#path-1-inside-1_171_1548)"></path><path d="M29.531 48.8769H31.4665V50.8124H29.531V48.8769Z" stroke="#1742E7" stroke-width="0.8" mask="url(#path-1-inside-1_171_1548)"></path><path d="M12.1118 43.0705H21.7891V33.3932H12.1118V43.0705ZM14.0473 35.3286H19.8537V41.1351H14.0473V35.3286Z" stroke="#1742E7" stroke-width="0.8" mask="url(#path-1-inside-1_171_1548)"></path><path d="M12.1118 25.6513H21.7891V27.5868H12.1118V25.6513Z" stroke="#1742E7" stroke-width="0.8" mask="url(#path-1-inside-1_171_1548)"></path><path d="M12.1118 29.5222H17.9182V31.4577H12.1118V29.5222Z" stroke="#1742E7" stroke-width="0.8" mask="url(#path-1-inside-1_171_1548)"></path><path d="M19.8537 29.5222H21.7891V31.4577H19.8537V29.5222Z" stroke="#1742E7" stroke-width="0.8" mask="url(#path-1-inside-1_171_1548)"></path><path d="M48.8856 37.2641H37.2729V43.0705H48.8856V37.2641ZM46.9502 41.1351H39.2083V39.1996H46.9502V41.1351Z" stroke="#1742E7" stroke-width="0.8" mask="url(#path-1-inside-1_171_1548)"></path><path d="M46.9502 33.3932H48.8857V35.3286H46.9502V33.3932Z" stroke="#1742E7" stroke-width="0.8" mask="url(#path-1-inside-1_171_1548)"></path><path d="M37.2729 33.3932H45.0147V35.3286H37.2729V33.3932Z" stroke="#1742E7" stroke-width="0.8" mask="url(#path-1-inside-1_171_1548)"></path><path d="M37.2729 29.5222H48.8856V31.4577H37.2729V29.5222Z" stroke="#1742E7" stroke-width="0.8" mask="url(#path-1-inside-1_171_1548)"></path><path d="M41.1438 25.6513H48.8857V27.5868H41.1438V25.6513Z" stroke="#1742E7" stroke-width="0.8" mask="url(#path-1-inside-1_171_1548)"></path><path d="M11.383 11.8884L13.2709 12.317C14.0753 8.77312 17.1807 6.29671 20.8214 6.29671V4.36124C16.2713 4.36124 12.3896 7.45711 11.383 11.8884Z" stroke="#1742E7" stroke-width="0.8" mask="url(#path-1-inside-1_171_1548)"></path><path d="M60.4984 18.8772C60.4984 14.0752 56.5917 10.1675 51.7888 10.1675C49.8573 10.1675 48.0765 10.8074 46.6309 11.8745C44.7874 8.44984 41.2453 6.2966 37.2729 6.2966C35.6549 6.2966 34.0621 6.66901 32.6083 7.38228C30.22 3.16395 25.6998 0.490234 20.8218 0.490234C14.729 0.490234 9.47337 4.48383 7.8133 10.2868C3.66067 10.9612 0.5 14.6074 0.5 18.8772C0.5 23.3521 3.89403 27.0468 8.24186 27.5297V49.8452C8.24186 52.5133 10.4124 54.6838 13.0805 54.6838H20.8224V58.5548H16.9515V60.4902H44.048V58.5548H40.1771V54.6838H47.9189C50.5871 54.6838 52.7576 52.5133 52.7576 49.8452V27.5297C57.1054 27.0467 60.4994 23.3521 60.4994 18.8772L60.4984 18.8772ZM25.8149 28.151C26.316 28.4712 26.628 29.0898 26.628 29.7642V31.4577C26.628 33.5924 28.3642 35.3286 30.4989 35.3286C32.6336 35.3286 34.3698 33.5924 34.3698 31.4577V29.7235C34.3698 29.0759 34.6891 28.4685 35.2041 28.1375C36.8617 27.0722 38.0645 25.5091 38.6988 23.7158H47.9181C49.5188 23.7158 50.8213 25.0183 50.8213 26.619V45.006H10.1765V26.619C10.1765 25.0183 11.479 23.7158 13.0797 23.7158H22.3004C22.932 25.5079 24.1321 27.0757 25.8149 28.151ZM32.4344 31.4577C32.4344 32.5252 31.5665 33.3932 30.4989 33.3932C29.4314 33.3932 28.5635 32.5252 28.5635 31.4577H32.4344ZM29.5312 20.8126C29.5312 20.2795 29.965 19.8449 30.4989 19.8449C31.0329 19.8449 31.4667 20.2795 31.4667 20.8126C31.4667 21.3457 31.0329 21.7804 30.4989 21.7804C29.965 21.7804 29.5312 21.3457 29.5312 20.8126ZM32.4469 29.5222H31.4666V23.5379C32.5903 23.1374 33.4021 22.0729 33.4021 20.8126C33.4021 19.2119 32.0996 17.9094 30.4989 17.9094C28.8982 17.9094 27.5957 19.2119 27.5957 20.8126C27.5957 22.0724 28.4075 23.137 29.5312 23.5379V29.5222H28.5488C28.477 28.2719 27.8605 27.1607 26.8561 26.5193C24.6225 25.0919 23.4448 22.5624 23.7818 19.9175C24.168 16.8817 26.6599 14.4273 29.7044 14.083C29.9744 14.0532 30.2414 14.0386 30.5067 14.0386C32.1769 14.0386 33.7525 14.6356 35.0106 15.7593C36.4474 17.0433 37.2731 18.886 37.2731 20.8127C37.2731 23.1257 36.1088 25.2557 34.1568 26.5098C33.1351 27.1678 32.5087 28.2836 32.4469 29.5222ZM38.2408 58.5543H22.7571V54.6833H38.2408V58.5543ZM47.9181 52.7479H13.0798C11.4791 52.7479 10.1766 51.4454 10.1766 49.8447V46.9415H50.8213V49.8447C50.8213 51.4454 49.5188 52.7479 47.9181 52.7479ZM52.6414 25.5916C52.1684 23.4172 50.233 21.7807 47.9181 21.7807H39.1476C39.1835 21.4614 39.2085 21.1391 39.2085 20.813C39.2085 18.3358 38.1479 15.9674 36.2997 14.3166C34.4532 12.6658 31.9739 11.8817 29.4879 12.1604C25.5669 12.6037 22.3605 15.7635 21.8623 19.6729C21.7712 20.387 21.785 21.0908 21.8606 21.7808H13.0797C10.7648 21.7808 8.82938 23.4173 8.35635 25.5917C5.02326 25.1709 2.4346 22.3238 2.4346 18.8776C2.4346 15.3752 5.16936 12.4124 8.66094 12.1315L9.36557 12.0754L9.52628 11.3872C10.7589 6.11129 15.404 2.42616 20.8217 2.42616C25.2974 2.42616 29.422 5.05375 31.3285 9.1199L31.789 10.1023L32.7131 9.53248C34.0922 8.68269 35.6686 8.23251 37.2731 8.23251C40.696 8.23251 43.7132 10.197 45.1428 13.2617C43.8584 14.7795 43.0795 16.7378 43.0795 18.8776H45.0149C45.0149 15.1424 48.0546 12.1034 51.7891 12.1034C55.5235 12.1034 58.5632 15.1424 58.5632 18.8776C58.5632 22.3238 55.9745 25.1707 52.6414 25.5916Z" stroke="#1742E7" stroke-width="0.8" mask="url(#path-1-inside-1_171_1548)"></path></svg>