<svg xmlns="http://www.w3.org/2000/svg" viewBox="0 0 81 81" fill="none"><mask id="path-1-inside-1_171_4267" fill="white"><path fill-rule="evenodd" clip-rule="evenodd" d="M21.7718 0.383429C15.9021 1.49659 11.0584 6.35245 10.091 12.0935L9.8727 13.3886L8.29954 13.4952C5.88918 13.6583 4.21063 14.4127 2.69766 16.013C-1.50946 20.4621 0.615443 27.6757 6.59181 29.2326C7.36847 29.4351 8.9208 29.4814 14.9072 29.4814H22.2675L22.0419 30.3516C20.9883 34.4138 23.6824 38.7979 27.909 39.8991C28.7042 40.1062 30.0608 40.1544 35.0992 40.1544H41.3092L40.9 40.5638C40.5639 40.8998 40.4907 41.1383 40.4907 41.8979V42.8226H23.5445C10.7267 42.8226 6.43108 42.872 5.91202 43.0254C4.99613 43.2961 3.61488 44.6775 3.34427 45.5936C3.1927 46.1067 3.14151 49.5493 3.14151 59.2266V72.1733H2.30032C1.62937 72.1733 1.3761 72.2561 1.04979 72.5827C0.824698 72.8078 0.640453 73.1323 0.640453 73.3039C0.640453 73.9965 1.34092 77.4465 1.58669 77.9645C1.94251 78.7146 3.14251 79.7421 3.94302 79.9819C4.88409 80.2639 52.0871 80.2639 53.0282 79.9819C53.8287 79.7421 55.0287 78.7146 55.3845 77.9645C55.6303 77.4465 56.3307 73.9965 56.3307 73.3039C56.3307 73.1323 56.1465 72.8078 55.9214 72.5827C55.5951 72.2561 55.3418 72.1733 54.6709 72.1733H53.8297V64.1685V56.1638H54.7542C55.5137 56.1638 55.7522 56.0906 56.0881 55.7544C56.3132 55.5293 56.4986 55.2104 56.5 55.0457C56.5055 54.4063 56.7291 54.3134 57.4172 54.6643C57.7882 54.8534 58.215 54.9534 58.4086 54.8966C58.8496 54.7667 62.9807 50.6949 63.1795 50.194C63.3157 49.8508 63.1808 49.3566 62.7065 48.4603C62.6728 48.3966 62.9474 48.2632 63.3169 48.1636C64.4455 47.8598 64.5009 47.6701 64.5009 44.112C64.5009 41.0017 64.4972 40.9694 64.0915 40.5638L63.6824 40.1544H68.5584C72.3991 40.1544 73.6428 40.1002 74.4147 39.8991C78.6849 38.7866 81.3389 34.411 80.2589 30.264C79.3038 26.5967 76.1026 24.1471 72.2608 24.1439L71.087 24.1429L71.0773 22.6014C71.062 20.1324 70.202 18.0627 68.4611 16.3053C65.5593 13.3759 61.4516 12.6828 57.7003 14.4896L56.3186 15.155L55.4494 14.4125C54.1813 13.3297 52.3672 12.2598 51.0227 11.8018L49.846 11.4013L49.584 10.2271C48.667 6.11548 45.3684 3.20543 41.2277 2.85489C39.5811 2.71547 37.993 3.02916 36.3579 3.81662L34.9762 4.48201L34.107 3.74441C32.3162 2.22485 30.3931 1.21292 28.1556 0.612898C26.4794 0.163466 23.4967 0.056236 21.7718 0.383429ZM26.689 3.03516C29.2022 3.51611 30.9608 4.47017 33.1204 6.52455C34.3784 7.72109 34.5503 7.83115 35.0155 7.7381C35.297 7.6819 35.7964 7.39957 36.1253 7.11056C36.4542 6.82172 37.2146 6.35261 37.8151 6.06811C38.7978 5.60234 39.0648 5.55064 40.4907 5.55064C41.9231 5.55064 42.1812 5.60117 43.1885 6.07845C44.6963 6.79287 45.6969 7.75628 46.4082 9.17811C46.73 9.82166 46.9935 10.4507 46.9935 10.5759C46.9935 10.7464 46.705 10.8037 45.8481 10.8037C44.263 10.8037 42.02 11.2217 40.5576 11.7897C36.029 13.5484 32.3666 17.8352 31.4977 22.3939C31.1312 24.317 31.2614 24.1449 30.1725 24.1449C28.0311 24.1449 25.9505 24.8887 24.5941 26.1391L23.8473 26.8277L15.4536 26.7788L7.05984 26.7298L6.00523 26.158C4.86074 25.5373 4.18346 24.8282 3.60971 23.6498C3.06748 22.5362 3.08532 20.3821 3.64623 19.2254C4.16361 18.1584 5.16654 17.1575 6.22616 16.6507C6.94246 16.308 7.39648 16.2379 9.45086 16.1542C11.7045 16.0625 11.8604 16.0342 12.1603 15.6631C12.3634 15.4121 12.4788 15.0096 12.4788 14.5521C12.4788 13.5625 12.8783 11.5775 13.3072 10.4357C13.5037 9.91221 14.0243 8.93664 14.4638 8.26774C17.1475 4.18417 21.9505 2.12846 26.689 3.03516ZM48.0314 13.7081C50.5446 14.1891 52.3032 15.1431 54.4628 17.1975C55.7208 18.394 55.8927 18.5041 56.3579 18.4111C56.6394 18.3549 57.1388 18.0725 57.4677 17.7835C57.7965 17.4947 58.557 17.0256 59.1574 16.7411C60.1402 16.2753 60.4071 16.2236 61.8331 16.2236C63.2655 16.2236 63.5236 16.2741 64.5309 16.7514C66.0544 17.4732 67.0485 18.4354 67.7613 19.8779C68.5089 21.3908 68.6736 22.8869 68.2673 24.4721C67.9432 25.7367 68.0971 26.3477 68.8087 26.6226C69.053 26.717 70.3033 26.8222 71.5872 26.8562C73.5677 26.9089 74.0361 26.9736 74.677 27.2838C75.854 27.8533 76.564 28.5319 77.1816 29.6774C77.7013 30.6414 77.7503 30.8541 77.7503 32.1497C77.7503 33.4443 77.7011 33.6584 77.1838 34.6179C76.5548 35.7845 76.0361 36.2869 74.7731 36.9533L73.9215 37.4028L68.3487 37.4548L62.7758 37.5068L60.7621 35.512C59.6547 34.4147 58.5955 33.4719 58.4086 33.4171C58.215 33.36 57.7882 33.4599 57.4172 33.6492C56.7291 34.0001 56.5055 33.9072 56.5 33.2678C56.4986 33.1031 56.3132 32.7842 56.0881 32.5591C55.6823 32.153 55.6531 32.1497 52.4958 32.1497C49.3384 32.1497 49.3093 32.153 48.9034 32.5591C48.6783 32.7842 48.4929 33.1031 48.4916 33.2678C48.4861 33.9072 48.2625 34.0001 47.5744 33.6492C47.2034 33.4599 46.7765 33.36 46.5829 33.4171C46.396 33.4719 45.3377 34.414 44.2311 35.5103L42.2193 37.5035L35.3107 37.4531L28.4022 37.4028L27.3476 36.8309C26.2031 36.2102 25.5258 35.5011 24.9521 34.3228C24.4099 33.2091 24.4277 31.055 24.9886 29.8983C25.506 28.8314 26.5089 27.8304 27.5685 27.3236C28.2848 26.9809 28.7389 26.9109 30.7932 26.8272C33.0469 26.7355 33.2028 26.7071 33.5027 26.3361C33.7058 26.0851 33.8212 25.6825 33.8212 25.2251C33.8212 24.2355 34.2207 22.2505 34.6495 21.1086C34.8461 20.5852 35.3667 19.6096 35.8062 18.9407C38.4898 14.8571 43.2929 12.8014 48.0314 13.7081ZM54.3436 35.7313C54.7291 37.454 55.47 37.7987 56.9904 36.9627L58.0003 36.4073L59.1221 37.5293L60.2439 38.6513L59.6887 39.6614C58.8528 41.182 59.1975 41.9231 60.9199 42.3086L61.8331 42.5129V44.1567V45.8005L60.9199 46.0048C59.1975 46.3904 58.8528 47.1315 59.6887 48.6521L60.2439 49.6622L59.1221 50.7841L58.0003 51.9061L56.9904 51.3508C55.47 50.5148 54.7291 50.8595 54.3436 52.5822L54.1393 53.4956H52.4958H50.8523L50.648 52.5822C50.2625 50.8595 49.5215 50.5148 48.0012 51.3508L46.9913 51.9061L45.8695 50.7841L44.7477 49.6622L45.3029 48.6521C46.1388 47.1315 45.7941 46.3904 44.0717 46.0048L43.1585 45.8005V44.1567V42.5129L44.0717 42.3086C45.7941 41.9231 46.1388 41.182 45.3029 39.6614L44.7477 38.6513L45.8695 37.5293L46.9913 36.4073L48.0012 36.9627C49.5215 37.7987 50.2625 37.454 50.648 35.7313L50.8523 34.8179H52.4958H54.1393L54.3436 35.7313ZM50.8292 39.0874C48.4616 39.9506 47.005 42.1394 47.1999 44.541C47.6301 49.8406 54.5863 51.3208 57.1508 46.6582C57.7037 45.6528 57.7467 45.4715 57.7443 44.1567C57.742 42.8636 57.6918 42.6467 57.1731 41.6844C56.222 39.9202 54.7826 39.0079 52.7571 38.8855C51.9294 38.8354 51.3558 38.8955 50.8292 39.0874ZM53.5511 41.716C55.2641 42.4319 55.6818 44.6782 54.3496 46.0108C52.4763 47.8844 49.4065 46.2063 49.8993 43.5779C50.194 42.008 52.0208 41.0764 53.5511 41.716ZM71.1704 51.0998C71.1704 57.1112 71.1149 59.565 70.9676 60.0634C70.697 60.9795 69.3158 62.361 68.3999 62.6316C67.9207 62.7732 66.0212 62.8344 62.1055 62.8344H56.4975V64.1779V65.5215L62.6343 65.4703L68.771 65.4193L70.0306 64.7964C71.5475 64.0463 72.4929 63.0802 73.2271 61.5303L73.7548 60.4163L73.8035 51.6195L73.852 42.8226H72.5113H71.1704V51.0998ZM40.4907 46.3709C40.4907 47.4652 40.7957 47.927 41.6747 48.1636C42.0442 48.2632 42.3188 48.3966 42.2851 48.4603C41.8108 49.3566 41.6759 49.8508 41.8121 50.194C42.0108 50.6949 46.1419 54.7667 46.5829 54.8966C46.7765 54.9534 47.2034 54.8534 47.5744 54.6643C48.2625 54.3134 48.4861 54.4063 48.4916 55.0457C48.4929 55.2104 48.6783 55.5293 48.9034 55.7544C49.2394 56.0906 49.4778 56.1638 50.2373 56.1638H51.1619V64.1685V72.1733H41.567H31.9719L31.5627 72.5827C31.3376 72.8078 31.1534 73.108 31.1534 73.2497C31.1534 73.4714 30.7807 73.5074 28.4856 73.5074C26.1905 73.5074 25.8178 73.4714 25.8178 73.2497C25.8178 73.108 25.6336 72.8078 25.4085 72.5827L24.9993 72.1733H15.4042H5.80931V59.2415V46.3095L6.21865 45.9003L6.62783 45.4909H23.5593H40.4907V46.3709ZM21.8161 58.8321V60.1662H23.15H24.4839V58.8321V57.4979H23.15H21.8161V58.8321ZM27.1517 58.8321V60.1662H28.4856H29.8195V58.8321V57.4979H28.4856H27.1517V58.8321ZM32.4873 58.8321V60.1662H33.8212H35.1551V58.8321V57.4979H33.8212H32.4873V58.8321ZM23.15 75.0992C23.15 75.2409 23.3342 75.5411 23.5593 75.7662L23.9685 76.1756H28.4856H33.0027L33.4119 75.7662C33.637 75.5411 33.8212 75.2409 33.8212 75.0992C33.8212 74.8697 34.8908 74.8415 43.5972 74.8415H53.3732L53.2698 75.4669C53.2129 75.8109 53.1656 76.227 53.1646 76.3916C53.1636 76.5563 52.9785 76.8752 52.7534 77.1003L52.3442 77.5097H28.4856H4.62698L4.2178 77.1003C3.99271 76.8752 3.80763 76.5563 3.80663 76.3916C3.80563 76.227 3.75828 75.8109 3.70142 75.4669L3.59804 74.8415H13.374C22.0804 74.8415 23.15 74.8697 23.15 75.0992Z"></path></mask><path fill-rule="evenodd" clip-rule="evenodd" d="M21.7718 0.383429C15.9021 1.49659 11.0584 6.35245 10.091 12.0935L9.8727 13.3886L8.29954 13.4952C5.88918 13.6583 4.21063 14.4127 2.69766 16.013C-1.50946 20.4621 0.615443 27.6757 6.59181 29.2326C7.36847 29.4351 8.9208 29.4814 14.9072 29.4814H22.2675L22.0419 30.3516C20.9883 34.4138 23.6824 38.7979 27.909 39.8991C28.7042 40.1062 30.0608 40.1544 35.0992 40.1544H41.3092L40.9 40.5638C40.5639 40.8998 40.4907 41.1383 40.4907 41.8979V42.8226H23.5445C10.7267 42.8226 6.43108 42.872 5.91202 43.0254C4.99613 43.2961 3.61488 44.6775 3.34427 45.5936C3.1927 46.1067 3.14151 49.5493 3.14151 59.2266V72.1733H2.30032C1.62937 72.1733 1.3761 72.2561 1.04979 72.5827C0.824698 72.8078 0.640453 73.1323 0.640453 73.3039C0.640453 73.9965 1.34092 77.4465 1.58669 77.9645C1.94251 78.7146 3.14251 79.7421 3.94302 79.9819C4.88409 80.2639 52.0871 80.2639 53.0282 79.9819C53.8287 79.7421 55.0287 78.7146 55.3845 77.9645C55.6303 77.4465 56.3307 73.9965 56.3307 73.3039C56.3307 73.1323 56.1465 72.8078 55.9214 72.5827C55.5951 72.2561 55.3418 72.1733 54.6709 72.1733H53.8297V64.1685V56.1638H54.7542C55.5137 56.1638 55.7522 56.0906 56.0881 55.7544C56.3132 55.5293 56.4986 55.2104 56.5 55.0457C56.5055 54.4063 56.7291 54.3134 57.4172 54.6643C57.7882 54.8534 58.215 54.9534 58.4086 54.8966C58.8496 54.7667 62.9807 50.6949 63.1795 50.194C63.3157 49.8508 63.1808 49.3566 62.7065 48.4603C62.6728 48.3966 62.9474 48.2632 63.3169 48.1636C64.4455 47.8598 64.5009 47.6701 64.5009 44.112C64.5009 41.0017 64.4972 40.9694 64.0915 40.5638L63.6824 40.1544H68.5584C72.3991 40.1544 73.6428 40.1002 74.4147 39.8991C78.6849 38.7866 81.3389 34.411 80.2589 30.264C79.3038 26.5967 76.1026 24.1471 72.2608 24.1439L71.087 24.1429L71.0773 22.6014C71.062 20.1324 70.202 18.0627 68.4611 16.3053C65.5593 13.3759 61.4516 12.6828 57.7003 14.4896L56.3186 15.155L55.4494 14.4125C54.1813 13.3297 52.3672 12.2598 51.0227 11.8018L49.846 11.4013L49.584 10.2271C48.667 6.11548 45.3684 3.20543 41.2277 2.85489C39.5811 2.71547 37.993 3.02916 36.3579 3.81662L34.9762 4.48201L34.107 3.74441C32.3162 2.22485 30.3931 1.21292 28.1556 0.612898C26.4794 0.163466 23.4967 0.056236 21.7718 0.383429ZM26.689 3.03516C29.2022 3.51611 30.9608 4.47017 33.1204 6.52455C34.3784 7.72109 34.5503 7.83115 35.0155 7.7381C35.297 7.6819 35.7964 7.39957 36.1253 7.11056C36.4542 6.82172 37.2146 6.35261 37.8151 6.06811C38.7978 5.60234 39.0648 5.55064 40.4907 5.55064C41.9231 5.55064 42.1812 5.60117 43.1885 6.07845C44.6963 6.79287 45.6969 7.75628 46.4082 9.17811C46.73 9.82166 46.9935 10.4507 46.9935 10.5759C46.9935 10.7464 46.705 10.8037 45.8481 10.8037C44.263 10.8037 42.02 11.2217 40.5576 11.7897C36.029 13.5484 32.3666 17.8352 31.4977 22.3939C31.1312 24.317 31.2614 24.1449 30.1725 24.1449C28.0311 24.1449 25.9505 24.8887 24.5941 26.1391L23.8473 26.8277L15.4536 26.7788L7.05984 26.7298L6.00523 26.158C4.86074 25.5373 4.18346 24.8282 3.60971 23.6498C3.06748 22.5362 3.08532 20.3821 3.64623 19.2254C4.16361 18.1584 5.16654 17.1575 6.22616 16.6507C6.94246 16.308 7.39648 16.2379 9.45086 16.1542C11.7045 16.0625 11.8604 16.0342 12.1603 15.6631C12.3634 15.4121 12.4788 15.0096 12.4788 14.5521C12.4788 13.5625 12.8783 11.5775 13.3072 10.4357C13.5037 9.91221 14.0243 8.93664 14.4638 8.26774C17.1475 4.18417 21.9505 2.12846 26.689 3.03516ZM48.0314 13.7081C50.5446 14.1891 52.3032 15.1431 54.4628 17.1975C55.7208 18.394 55.8927 18.5041 56.3579 18.4111C56.6394 18.3549 57.1388 18.0725 57.4677 17.7835C57.7965 17.4947 58.557 17.0256 59.1574 16.7411C60.1402 16.2753 60.4071 16.2236 61.8331 16.2236C63.2655 16.2236 63.5236 16.2741 64.5309 16.7514C66.0544 17.4732 67.0485 18.4354 67.7613 19.8779C68.5089 21.3908 68.6736 22.8869 68.2673 24.4721C67.9432 25.7367 68.0971 26.3477 68.8087 26.6226C69.053 26.717 70.3033 26.8222 71.5872 26.8562C73.5677 26.9089 74.0361 26.9736 74.677 27.2838C75.854 27.8533 76.564 28.5319 77.1816 29.6774C77.7013 30.6414 77.7503 30.8541 77.7503 32.1497C77.7503 33.4443 77.7011 33.6584 77.1838 34.6179C76.5548 35.7845 76.0361 36.2869 74.7731 36.9533L73.9215 37.4028L68.3487 37.4548L62.7758 37.5068L60.7621 35.512C59.6547 34.4147 58.5955 33.4719 58.4086 33.4171C58.215 33.36 57.7882 33.4599 57.4172 33.6492C56.7291 34.0001 56.5055 33.9072 56.5 33.2678C56.4986 33.1031 56.3132 32.7842 56.0881 32.5591C55.6823 32.153 55.6531 32.1497 52.4958 32.1497C49.3384 32.1497 49.3093 32.153 48.9034 32.5591C48.6783 32.7842 48.4929 33.1031 48.4916 33.2678C48.4861 33.9072 48.2625 34.0001 47.5744 33.6492C47.2034 33.4599 46.7765 33.36 46.5829 33.4171C46.396 33.4719 45.3377 34.414 44.2311 35.5103L42.2193 37.5035L35.3107 37.4531L28.4022 37.4028L27.3476 36.8309C26.2031 36.2102 25.5258 35.5011 24.9521 34.3228C24.4099 33.2091 24.4277 31.055 24.9886 29.8983C25.506 28.8314 26.5089 27.8304 27.5685 27.3236C28.2848 26.9809 28.7389 26.9109 30.7932 26.8272C33.0469 26.7355 33.2028 26.7071 33.5027 26.3361C33.7058 26.0851 33.8212 25.6825 33.8212 25.2251C33.8212 24.2355 34.2207 22.2505 34.6495 21.1086C34.8461 20.5852 35.3667 19.6096 35.8062 18.9407C38.4898 14.8571 43.2929 12.8014 48.0314 13.7081ZM54.3436 35.7313C54.7291 37.454 55.47 37.7987 56.9904 36.9627L58.0003 36.4073L59.1221 37.5293L60.2439 38.6513L59.6887 39.6614C58.8528 41.182 59.1975 41.9231 60.9199 42.3086L61.8331 42.5129V44.1567V45.8005L60.9199 46.0048C59.1975 46.3904 58.8528 47.1315 59.6887 48.6521L60.2439 49.6622L59.1221 50.7841L58.0003 51.9061L56.9904 51.3508C55.47 50.5148 54.7291 50.8595 54.3436 52.5822L54.1393 53.4956H52.4958H50.8523L50.648 52.5822C50.2625 50.8595 49.5215 50.5148 48.0012 51.3508L46.9913 51.9061L45.8695 50.7841L44.7477 49.6622L45.3029 48.6521C46.1388 47.1315 45.7941 46.3904 44.0717 46.0048L43.1585 45.8005V44.1567V42.5129L44.0717 42.3086C45.7941 41.9231 46.1388 41.182 45.3029 39.6614L44.7477 38.6513L45.8695 37.5293L46.9913 36.4073L48.0012 36.9627C49.5215 37.7987 50.2625 37.454 50.648 35.7313L50.8523 34.8179H52.4958H54.1393L54.3436 35.7313ZM50.8292 39.0874C48.4616 39.9506 47.005 42.1394 47.1999 44.541C47.6301 49.8406 54.5863 51.3208 57.1508 46.6582C57.7037 45.6528 57.7467 45.4715 57.7443 44.1567C57.742 42.8636 57.6918 42.6467 57.1731 41.6844C56.222 39.9202 54.7826 39.0079 52.7571 38.8855C51.9294 38.8354 51.3558 38.8955 50.8292 39.0874ZM53.5511 41.716C55.2641 42.4319 55.6818 44.6782 54.3496 46.0108C52.4763 47.8844 49.4065 46.2063 49.8993 43.5779C50.194 42.008 52.0208 41.0764 53.5511 41.716ZM71.1704 51.0998C71.1704 57.1112 71.1149 59.565 70.9676 60.0634C70.697 60.9795 69.3158 62.361 68.3999 62.6316C67.9207 62.7732 66.0212 62.8344 62.1055 62.8344H56.4975V64.1779V65.5215L62.6343 65.4703L68.771 65.4193L70.0306 64.7964C71.5475 64.0463 72.4929 63.0802 73.2271 61.5303L73.7548 60.4163L73.8035 51.6195L73.852 42.8226H72.5113H71.1704V51.0998ZM40.4907 46.3709C40.4907 47.4652 40.7957 47.927 41.6747 48.1636C42.0442 48.2632 42.3188 48.3966 42.2851 48.4603C41.8108 49.3566 41.6759 49.8508 41.8121 50.194C42.0108 50.6949 46.1419 54.7667 46.5829 54.8966C46.7765 54.9534 47.2034 54.8534 47.5744 54.6643C48.2625 54.3134 48.4861 54.4063 48.4916 55.0457C48.4929 55.2104 48.6783 55.5293 48.9034 55.7544C49.2394 56.0906 49.4778 56.1638 50.2373 56.1638H51.1619V64.1685V72.1733H41.567H31.9719L31.5627 72.5827C31.3376 72.8078 31.1534 73.108 31.1534 73.2497C31.1534 73.4714 30.7807 73.5074 28.4856 73.5074C26.1905 73.5074 25.8178 73.4714 25.8178 73.2497C25.8178 73.108 25.6336 72.8078 25.4085 72.5827L24.9993 72.1733H15.4042H5.80931V59.2415V46.3095L6.21865 45.9003L6.62783 45.4909H23.5593H40.4907V46.3709ZM21.8161 58.8321V60.1662H23.15H24.4839V58.8321V57.4979H23.15H21.8161V58.8321ZM27.1517 58.8321V60.1662H28.4856H29.8195V58.8321V57.4979H28.4856H27.1517V58.8321ZM32.4873 58.8321V60.1662H33.8212H35.1551V58.8321V57.4979H33.8212H32.4873V58.8321ZM23.15 75.0992C23.15 75.2409 23.3342 75.5411 23.5593 75.7662L23.9685 76.1756H28.4856H33.0027L33.4119 75.7662C33.637 75.5411 33.8212 75.2409 33.8212 75.0992C33.8212 74.8697 34.8908 74.8415 43.5972 74.8415H53.3732L53.2698 75.4669C53.2129 75.8109 53.1656 76.227 53.1646 76.3916C53.1636 76.5563 52.9785 76.8752 52.7534 77.1003L52.3442 77.5097H28.4856H4.62698L4.2178 77.1003C3.99271 76.8752 3.80763 76.5563 3.80663 76.3916C3.80563 76.227 3.75828 75.8109 3.70142 75.4669L3.59804 74.8415H13.374C22.0804 74.8415 23.15 74.8697 23.15 75.0992Z" fill="#1742E7" stroke="#1742E7" stroke-width="0.8" mask="url(#path-1-inside-1_171_4267)"></path></svg>