<svg xmlns="http://www.w3.org/2000/svg" viewBox="0 0 65 61" fill="none"><mask id="path-1-inside-1_171_1536" fill="white"><path fill-rule="evenodd" clip-rule="evenodd" d="M3.87257 0.609932C2.56988 0.867757 1.44954 1.77423 0.851888 3.05393L0.5 3.80744V26.2243V48.6411L0.851762 49.3946C1.31115 50.379 2.04569 51.1141 2.99536 51.5404C3.65845 51.8379 3.97003 51.8924 5.30198 51.9437L6.84202 52.003V50.9186V49.8342L5.68036 49.8286C3.94704 49.8205 3.26424 49.5083 2.80837 48.5155C2.58734 48.0342 2.57767 47.1018 2.57767 26.2243C2.57767 5.34673 2.58734 4.41439 2.80837 3.93302C3.09106 3.31741 3.41369 3.01952 4.03947 2.79636C4.75317 2.5418 51.8808 2.5418 52.5945 2.79636C53.6641 3.17776 53.9606 3.74063 54.0367 5.53423L54.0941 6.88426H55.1454H56.1967V5.8399C56.1967 3.82552 55.852 2.76534 54.8814 1.79482C54.2069 1.12018 53.5807 0.793662 52.622 0.616462C51.7345 0.452449 4.7003 0.44617 3.87257 0.609932ZM4.70708 5.81679V6.88426H5.77455H6.84202V5.81679V4.74932H5.77455H4.70708V5.81679ZM9.06072 4.83309C9.01463 4.87905 8.97696 5.35941 8.97696 5.90056V6.88426H10.0444H11.1119V5.81679V4.74932H10.1282C9.58705 4.74932 9.10669 4.787 9.06072 4.83309ZM13.3306 4.83309C13.2845 4.87905 13.2468 5.35941 13.2468 5.90056V6.88426H14.3143H15.3818V5.81679V4.74932H14.3981C13.8569 4.74932 13.3766 4.787 13.3306 4.83309ZM12.6632 9.14516C10.8693 9.40776 9.4435 10.8218 9.10016 12.6794C9.01551 13.1374 8.98361 20.7877 9.00597 35.2764L9.03975 57.1809L9.39189 57.9344C9.97071 59.1729 10.8581 59.9417 12.1382 60.314C12.7473 60.491 15.3335 60.508 37.1757 60.4787L61.5341 60.4461L62.1213 60.1747C62.8481 59.8389 63.7794 58.9942 64.1684 58.3184C64.3297 58.0381 64.5268 57.498 64.6063 57.1181C64.7131 56.608 64.7408 50.6637 64.7123 34.3873L64.6737 12.3472L64.3384 11.6319C63.6948 10.2588 62.4697 9.35928 60.9425 9.1385C59.9928 9.00111 13.6031 9.00752 12.6632 9.14516ZM61.7058 11.644C61.9382 11.8099 62.2337 12.1773 62.3623 12.4603C62.5874 12.9559 62.5962 13.7876 62.5988 34.7994C62.6011 52.8501 62.5722 56.694 62.4319 57.0299C62.2063 57.5697 61.4503 58.2182 60.9402 58.3094C60.7143 58.3498 49.731 58.3668 36.533 58.347L12.5365 58.3111L12.0753 57.9592C11.8216 57.7657 11.5151 57.4266 11.3943 57.2057C11.188 56.8285 11.1723 55.4914 11.1363 35.2036C11.1089 19.826 11.1376 13.4222 11.236 12.9751C11.3926 12.2634 11.6386 11.9168 12.2543 11.5407L12.6817 11.2796L36.9823 11.311L61.2829 11.3425L61.7058 11.644ZM13.2732 14.4507L13.3096 15.4868L14.3457 15.5232L15.3818 15.5598V14.4871V13.4147H14.3093H13.2367L13.2732 14.4507ZM17.6423 14.4871V15.5598L18.6784 15.5232L19.7144 15.4868L19.7509 14.4507L19.7874 13.4147H18.7148H17.6423V14.4871ZM21.9122 14.4871V15.5598L22.9482 15.5232L23.9843 15.4868L24.0207 14.4507L24.0573 13.4147H22.9847H21.9122V14.4871ZM13.2732 18.7206L13.3096 19.7567L36.8881 19.7885L60.4666 19.8201V18.7524V17.6845H36.8517H13.2367L13.2732 18.7206ZM32.9888 22.2091C32.6322 22.5413 32.5917 22.7499 32.555 24.4452L32.5241 25.8685L31.5444 26.2465L30.5647 26.6245L29.4658 25.5652C28.2808 24.4229 27.8884 24.229 27.3426 24.5166C27.1533 24.6164 25.9105 25.7935 24.5808 27.1325C21.5943 30.1399 21.6649 29.8942 23.3062 31.5678L24.449 32.7331L24.0476 33.7389L23.6464 34.7446L22.0355 34.7856C20.5322 34.8241 20.403 34.8472 20.1009 35.1312L19.7772 35.4358V39.0967V42.7576L20.1012 43.0622C20.4031 43.346 20.5345 43.3696 22.0386 43.4104L23.6521 43.4541L24.0548 44.4529L24.4574 45.4518L23.3103 46.6213C22.1117 47.8435 22.0128 48.0539 22.342 48.6788C22.4404 48.8653 23.5881 50.0776 24.8927 51.3726C27.1613 53.6249 27.2859 53.7273 27.757 53.7273C28.2094 53.7273 28.342 53.6352 29.3841 52.5974L30.5187 51.4674L31.5214 51.9029L32.5241 52.3383L32.5868 53.986C32.6484 55.6019 32.6564 55.6396 33.002 55.9363L33.3544 56.239H36.7951C40.3879 56.239 40.7265 56.1948 40.9868 55.6914C41.0633 55.5436 41.1402 54.7276 41.1576 53.8781L41.1894 52.3336L42.1941 51.9188L43.1987 51.5041L44.3434 52.6156C46.057 54.2797 45.8369 54.3476 49.0036 51.1808C52.1628 48.0216 52.0875 48.2709 50.4131 46.5194L49.2759 45.33L49.5169 44.8506C49.6495 44.587 49.8246 44.1649 49.9061 43.9127L50.0544 43.4544L51.65 43.4076C53.4036 43.3563 53.7176 43.2491 53.934 42.6283C54.1146 42.1102 54.102 36.047 53.9193 35.5228C53.7095 34.9213 53.2149 34.7643 51.5227 34.7625L50.1059 34.7611L49.6926 33.7396L49.2792 32.7181L50.4147 31.5602C52.0556 29.887 52.1399 30.1563 48.9844 26.9902C45.8045 23.7997 46.056 23.8771 44.3566 25.5676C43.4596 26.4599 43.1563 26.6922 43.0104 26.5989C42.9068 26.5327 42.4405 26.3315 41.9743 26.1521L41.1266 25.8256V24.198C41.1266 22.5992 41.1207 22.5649 40.7943 22.2623L40.462 21.9544H36.8621C33.4193 21.9544 33.2502 21.9656 32.9888 22.2091ZM13.3322 23.0412C13.2853 23.0881 13.2468 23.5692 13.2468 24.1103V25.094H17.5845H21.9223L21.8858 24.0579L21.8494 23.0219L17.6335 22.9888C15.3147 22.9706 13.3792 22.9942 13.3322 23.0412ZM39.0125 25.5835C39.0612 27.3211 39.1404 27.4728 40.1681 27.8014C40.5225 27.9148 41.3653 28.2619 42.0407 28.5728C42.9585 28.9952 43.3535 29.1169 43.6031 29.0542C43.787 29.0081 44.3952 28.5235 44.9547 27.9773L45.972 26.9843L47.4682 28.4844L48.9645 29.9845L47.934 31.0403C46.7198 32.2842 46.6833 32.4457 47.3253 33.7311C47.5574 34.1956 47.8725 34.9562 48.0256 35.4212C48.4835 36.8121 48.5046 36.8256 50.3141 36.899L51.8641 36.9618L51.8985 39.052L51.9328 41.1422L50.4118 41.1872C48.9425 41.2305 48.8809 41.2434 48.6008 41.5692C48.4413 41.7547 48.1839 42.2914 48.029 42.762C47.874 43.2327 47.5574 43.9978 47.3253 44.4623C46.6892 45.7357 46.7229 45.8844 47.9314 47.1433L48.9593 48.214L47.4655 49.7117L45.9716 51.2094L44.884 50.1451C44.1222 49.3997 43.7047 49.0807 43.4909 49.0807C43.3228 49.0807 42.7363 49.2977 42.1874 49.5628C41.6385 49.8279 40.8145 50.1695 40.3563 50.3217C39.121 50.7321 39.0624 50.8317 39.0125 52.6098L38.9707 54.104H36.8462H34.7218V52.7285C34.7218 51.972 34.658 51.2128 34.5799 51.0415C34.4473 50.7506 33.7652 50.3753 32.9636 50.1524C32.7909 50.1043 32.1596 49.8363 31.5607 49.5568C30.7317 49.1698 30.3887 49.0692 30.1239 49.1358C29.9326 49.1838 29.3183 49.6699 28.7588 50.2161L27.7414 51.2091L26.2452 49.709L24.749 48.2089L25.7794 47.1531C27.0069 45.8956 27.0551 45.6721 26.3881 44.3367C26.156 43.8722 25.8433 43.1248 25.6933 42.6759C25.5431 42.2269 25.3438 41.7586 25.2501 41.635C24.998 41.3023 24.3749 41.1688 23.0747 41.1688H21.9122V39.0339V36.899H23.3973C25.1706 36.899 25.199 36.88 25.7372 35.3292C25.929 34.7766 26.2487 34.0011 26.4479 33.606C27.0258 32.459 26.9754 32.2655 25.7794 31.0403L24.749 29.9845L26.2428 28.4868L27.7368 26.989L28.773 27.9838C29.343 28.531 29.9522 29.0145 30.1269 29.0583C30.3557 29.1159 30.788 28.98 31.6727 28.5728C32.3481 28.2619 33.1968 27.9128 33.5585 27.797C34.5952 27.4653 34.7218 27.2172 34.7218 25.5166V24.0893H36.8462H38.9707L39.0125 25.5835ZM13.2732 28.3906L13.3096 29.4267H16.512H19.7144L19.7509 28.3906L19.7874 27.3545H16.512H13.2367L13.2732 28.3906ZM35.0734 31.8189C33.3554 32.2355 31.5429 33.5384 30.5535 35.0682C29.4538 36.7682 29.1048 39.2957 29.7023 41.2316C30.6319 44.2433 33.26 46.3309 36.3771 46.5339C37.7346 46.6225 38.7548 46.4326 39.9951 45.8608C42.5044 44.704 44.1429 42.3228 44.3473 39.5362C44.5419 36.8831 43.042 34.0556 40.6886 32.6384C39.1618 31.7191 36.8665 31.3842 35.0734 31.8189ZM39.1216 34.2815C41.3077 35.331 42.4948 37.5407 42.1295 39.8806C41.4578 44.1829 36.2612 45.9051 33.1416 42.8593C31.1046 40.8707 31.0311 37.5658 32.977 35.4547C34.0611 34.2786 35.3692 33.7462 37.0495 33.797C38.0548 33.8274 38.291 33.8827 39.1216 34.2815ZM54.0618 55.1715V56.239H57.2642H60.4666V55.1715V54.104H57.2642H54.0618V55.1715Z"></path></mask><path fill-rule="evenodd" clip-rule="evenodd" d="M3.87257 0.609932C2.56988 0.867757 1.44954 1.77423 0.851888 3.05393L0.5 3.80744V26.2243V48.6411L0.851762 49.3946C1.31115 50.379 2.04569 51.1141 2.99536 51.5404C3.65845 51.8379 3.97003 51.8924 5.30198 51.9437L6.84202 52.003V50.9186V49.8342L5.68036 49.8286C3.94704 49.8205 3.26424 49.5083 2.80837 48.5155C2.58734 48.0342 2.57767 47.1018 2.57767 26.2243C2.57767 5.34673 2.58734 4.41439 2.80837 3.93302C3.09106 3.31741 3.41369 3.01952 4.03947 2.79636C4.75317 2.5418 51.8808 2.5418 52.5945 2.79636C53.6641 3.17776 53.9606 3.74063 54.0367 5.53423L54.0941 6.88426H55.1454H56.1967V5.8399C56.1967 3.82552 55.852 2.76534 54.8814 1.79482C54.2069 1.12018 53.5807 0.793662 52.622 0.616462C51.7345 0.452449 4.7003 0.44617 3.87257 0.609932ZM4.70708 5.81679V6.88426H5.77455H6.84202V5.81679V4.74932H5.77455H4.70708V5.81679ZM9.06072 4.83309C9.01463 4.87905 8.97696 5.35941 8.97696 5.90056V6.88426H10.0444H11.1119V5.81679V4.74932H10.1282C9.58705 4.74932 9.10669 4.787 9.06072 4.83309ZM13.3306 4.83309C13.2845 4.87905 13.2468 5.35941 13.2468 5.90056V6.88426H14.3143H15.3818V5.81679V4.74932H14.3981C13.8569 4.74932 13.3766 4.787 13.3306 4.83309ZM12.6632 9.14516C10.8693 9.40776 9.4435 10.8218 9.10016 12.6794C9.01551 13.1374 8.98361 20.7877 9.00597 35.2764L9.03975 57.1809L9.39189 57.9344C9.97071 59.1729 10.8581 59.9417 12.1382 60.314C12.7473 60.491 15.3335 60.508 37.1757 60.4787L61.5341 60.4461L62.1213 60.1747C62.8481 59.8389 63.7794 58.9942 64.1684 58.3184C64.3297 58.0381 64.5268 57.498 64.6063 57.1181C64.7131 56.608 64.7408 50.6637 64.7123 34.3873L64.6737 12.3472L64.3384 11.6319C63.6948 10.2588 62.4697 9.35928 60.9425 9.1385C59.9928 9.00111 13.6031 9.00752 12.6632 9.14516ZM61.7058 11.644C61.9382 11.8099 62.2337 12.1773 62.3623 12.4603C62.5874 12.9559 62.5962 13.7876 62.5988 34.7994C62.6011 52.8501 62.5722 56.694 62.4319 57.0299C62.2063 57.5697 61.4503 58.2182 60.9402 58.3094C60.7143 58.3498 49.731 58.3668 36.533 58.347L12.5365 58.3111L12.0753 57.9592C11.8216 57.7657 11.5151 57.4266 11.3943 57.2057C11.188 56.8285 11.1723 55.4914 11.1363 35.2036C11.1089 19.826 11.1376 13.4222 11.236 12.9751C11.3926 12.2634 11.6386 11.9168 12.2543 11.5407L12.6817 11.2796L36.9823 11.311L61.2829 11.3425L61.7058 11.644ZM13.2732 14.4507L13.3096 15.4868L14.3457 15.5232L15.3818 15.5598V14.4871V13.4147H14.3093H13.2367L13.2732 14.4507ZM17.6423 14.4871V15.5598L18.6784 15.5232L19.7144 15.4868L19.7509 14.4507L19.7874 13.4147H18.7148H17.6423V14.4871ZM21.9122 14.4871V15.5598L22.9482 15.5232L23.9843 15.4868L24.0207 14.4507L24.0573 13.4147H22.9847H21.9122V14.4871ZM13.2732 18.7206L13.3096 19.7567L36.8881 19.7885L60.4666 19.8201V18.7524V17.6845H36.8517H13.2367L13.2732 18.7206ZM32.9888 22.2091C32.6322 22.5413 32.5917 22.7499 32.555 24.4452L32.5241 25.8685L31.5444 26.2465L30.5647 26.6245L29.4658 25.5652C28.2808 24.4229 27.8884 24.229 27.3426 24.5166C27.1533 24.6164 25.9105 25.7935 24.5808 27.1325C21.5943 30.1399 21.6649 29.8942 23.3062 31.5678L24.449 32.7331L24.0476 33.7389L23.6464 34.7446L22.0355 34.7856C20.5322 34.8241 20.403 34.8472 20.1009 35.1312L19.7772 35.4358V39.0967V42.7576L20.1012 43.0622C20.4031 43.346 20.5345 43.3696 22.0386 43.4104L23.6521 43.4541L24.0548 44.4529L24.4574 45.4518L23.3103 46.6213C22.1117 47.8435 22.0128 48.0539 22.342 48.6788C22.4404 48.8653 23.5881 50.0776 24.8927 51.3726C27.1613 53.6249 27.2859 53.7273 27.757 53.7273C28.2094 53.7273 28.342 53.6352 29.3841 52.5974L30.5187 51.4674L31.5214 51.9029L32.5241 52.3383L32.5868 53.986C32.6484 55.6019 32.6564 55.6396 33.002 55.9363L33.3544 56.239H36.7951C40.3879 56.239 40.7265 56.1948 40.9868 55.6914C41.0633 55.5436 41.1402 54.7276 41.1576 53.8781L41.1894 52.3336L42.1941 51.9188L43.1987 51.5041L44.3434 52.6156C46.057 54.2797 45.8369 54.3476 49.0036 51.1808C52.1628 48.0216 52.0875 48.2709 50.4131 46.5194L49.2759 45.33L49.5169 44.8506C49.6495 44.587 49.8246 44.1649 49.9061 43.9127L50.0544 43.4544L51.65 43.4076C53.4036 43.3563 53.7176 43.2491 53.934 42.6283C54.1146 42.1102 54.102 36.047 53.9193 35.5228C53.7095 34.9213 53.2149 34.7643 51.5227 34.7625L50.1059 34.7611L49.6926 33.7396L49.2792 32.7181L50.4147 31.5602C52.0556 29.887 52.1399 30.1563 48.9844 26.9902C45.8045 23.7997 46.056 23.8771 44.3566 25.5676C43.4596 26.4599 43.1563 26.6922 43.0104 26.5989C42.9068 26.5327 42.4405 26.3315 41.9743 26.1521L41.1266 25.8256V24.198C41.1266 22.5992 41.1207 22.5649 40.7943 22.2623L40.462 21.9544H36.8621C33.4193 21.9544 33.2502 21.9656 32.9888 22.2091ZM13.3322 23.0412C13.2853 23.0881 13.2468 23.5692 13.2468 24.1103V25.094H17.5845H21.9223L21.8858 24.0579L21.8494 23.0219L17.6335 22.9888C15.3147 22.9706 13.3792 22.9942 13.3322 23.0412ZM39.0125 25.5835C39.0612 27.3211 39.1404 27.4728 40.1681 27.8014C40.5225 27.9148 41.3653 28.2619 42.0407 28.5728C42.9585 28.9952 43.3535 29.1169 43.6031 29.0542C43.787 29.0081 44.3952 28.5235 44.9547 27.9773L45.972 26.9843L47.4682 28.4844L48.9645 29.9845L47.934 31.0403C46.7198 32.2842 46.6833 32.4457 47.3253 33.7311C47.5574 34.1956 47.8725 34.9562 48.0256 35.4212C48.4835 36.8121 48.5046 36.8256 50.3141 36.899L51.8641 36.9618L51.8985 39.052L51.9328 41.1422L50.4118 41.1872C48.9425 41.2305 48.8809 41.2434 48.6008 41.5692C48.4413 41.7547 48.1839 42.2914 48.029 42.762C47.874 43.2327 47.5574 43.9978 47.3253 44.4623C46.6892 45.7357 46.7229 45.8844 47.9314 47.1433L48.9593 48.214L47.4655 49.7117L45.9716 51.2094L44.884 50.1451C44.1222 49.3997 43.7047 49.0807 43.4909 49.0807C43.3228 49.0807 42.7363 49.2977 42.1874 49.5628C41.6385 49.8279 40.8145 50.1695 40.3563 50.3217C39.121 50.7321 39.0624 50.8317 39.0125 52.6098L38.9707 54.104H36.8462H34.7218V52.7285C34.7218 51.972 34.658 51.2128 34.5799 51.0415C34.4473 50.7506 33.7652 50.3753 32.9636 50.1524C32.7909 50.1043 32.1596 49.8363 31.5607 49.5568C30.7317 49.1698 30.3887 49.0692 30.1239 49.1358C29.9326 49.1838 29.3183 49.6699 28.7588 50.2161L27.7414 51.2091L26.2452 49.709L24.749 48.2089L25.7794 47.1531C27.0069 45.8956 27.0551 45.6721 26.3881 44.3367C26.156 43.8722 25.8433 43.1248 25.6933 42.6759C25.5431 42.2269 25.3438 41.7586 25.2501 41.635C24.998 41.3023 24.3749 41.1688 23.0747 41.1688H21.9122V39.0339V36.899H23.3973C25.1706 36.899 25.199 36.88 25.7372 35.3292C25.929 34.7766 26.2487 34.0011 26.4479 33.606C27.0258 32.459 26.9754 32.2655 25.7794 31.0403L24.749 29.9845L26.2428 28.4868L27.7368 26.989L28.773 27.9838C29.343 28.531 29.9522 29.0145 30.1269 29.0583C30.3557 29.1159 30.788 28.98 31.6727 28.5728C32.3481 28.2619 33.1968 27.9128 33.5585 27.797C34.5952 27.4653 34.7218 27.2172 34.7218 25.5166V24.0893H36.8462H38.9707L39.0125 25.5835ZM13.2732 28.3906L13.3096 29.4267H16.512H19.7144L19.7509 28.3906L19.7874 27.3545H16.512H13.2367L13.2732 28.3906ZM35.0734 31.8189C33.3554 32.2355 31.5429 33.5384 30.5535 35.0682C29.4538 36.7682 29.1048 39.2957 29.7023 41.2316C30.6319 44.2433 33.26 46.3309 36.3771 46.5339C37.7346 46.6225 38.7548 46.4326 39.9951 45.8608C42.5044 44.704 44.1429 42.3228 44.3473 39.5362C44.5419 36.8831 43.042 34.0556 40.6886 32.6384C39.1618 31.7191 36.8665 31.3842 35.0734 31.8189ZM39.1216 34.2815C41.3077 35.331 42.4948 37.5407 42.1295 39.8806C41.4578 44.1829 36.2612 45.9051 33.1416 42.8593C31.1046 40.8707 31.0311 37.5658 32.977 35.4547C34.0611 34.2786 35.3692 33.7462 37.0495 33.797C38.0548 33.8274 38.291 33.8827 39.1216 34.2815ZM54.0618 55.1715V56.239H57.2642H60.4666V55.1715V54.104H57.2642H54.0618V55.1715Z" fill="#1742E7" stroke="#1742E7" stroke-width="0.7" mask="url(#path-1-inside-1_171_1536)"></path></svg>