<svg xmlns="http://www.w3.org/2000/svg" viewBox="0 0 82 81" fill="none"><path d="M39.6819 80.1934C38.7887 80.1821 37.9069 79.9911 37.0891 79.6316C36.2713 79.2721 35.5343 78.7516 34.922 78.1011C34.3098 77.4506 33.8349 76.6835 33.5256 75.8454C33.2162 75.0074 33.0789 74.1156 33.1218 73.2233H29.1262C28.6678 73.2227 28.2282 73.0404 27.904 72.7162C27.5798 72.392 27.3974 71.9524 27.3969 71.4939V58.7734C27.3974 58.3149 27.5798 57.8753 27.904 57.5511C28.2282 57.2269 28.6678 57.0445 29.1262 57.044H30.1741C30.0094 55.2667 29.4665 53.5452 28.5819 51.9949C27.6972 50.4447 26.4913 49.1016 25.0449 48.0557C22.0087 45.7955 19.492 42.9111 17.6644 39.5965C15.8367 36.2819 14.7405 32.6142 14.4496 28.8403C12.7573 29.1146 11.0257 29.0196 9.37357 28.5617C7.72147 28.1038 6.18798 27.2939 4.87834 26.1876C3.5687 25.0813 2.5139 23.7048 1.78633 22.1524C1.05876 20.6001 0.675644 18.9087 0.663264 17.1944C0.606858 6.54023 13.9857 1.30935 21.1532 9.16696C31.1669 -2.89141 50.7059 -2.69968 60.8585 9.15416C68.0144 1.3112 81.399 6.54808 81.3369 17.1947C81.3226 18.9115 80.9369 20.6049 80.2064 22.1586C79.4759 23.7122 78.4178 25.0895 77.1048 26.1956C75.7917 27.3018 74.2549 28.1107 72.5998 28.5669C70.9446 29.0231 69.2103 29.1157 67.516 28.8384C67.0121 35.5436 63.9619 41.802 58.9908 46.3301C54.3779 49.7761 52.0362 53.2758 51.8043 57.0439H52.8778C53.3363 57.0445 53.7758 57.2269 54.1 57.5511C54.4242 57.8753 54.6066 58.3148 54.6072 58.7733V71.4939C54.6066 71.9524 54.4242 72.3919 54.1 72.7161C53.7758 73.0403 53.3363 73.2227 52.8778 73.2233H48.8823C48.925 74.1147 48.788 75.0056 48.4793 75.8429C48.1706 76.6803 47.6965 77.447 47.0854 78.0973C46.4743 78.7476 45.7385 79.2684 44.9219 79.6284C44.1054 79.9885 43.2247 80.1806 42.3324 80.1933L39.6819 80.1934ZM35.0894 73.2233C35.0465 73.8578 35.1332 74.4944 35.3442 75.0943C35.5552 75.6942 35.8861 76.2449 36.3167 76.7129C36.7473 77.1809 37.2686 77.5563 37.8489 77.8164C38.4292 78.0765 39.0564 78.2157 39.6923 78.2257H42.3222C42.9571 78.2142 43.5831 78.0739 44.1622 77.8132C44.7413 77.5525 45.2613 77.1768 45.6908 76.709C46.1203 76.2412 46.4502 75.691 46.6606 75.0918C46.871 74.4926 46.9574 73.8569 46.9147 73.2233L35.0894 73.2233ZM52.6395 71.2557V66.1188H29.3645V71.2557H52.6395ZM29.3645 64.1485H52.6395V59.0116H29.3645L29.3645 64.1485ZM45.3632 57.0433H49.8314C50.0518 52.6231 52.6484 48.6122 57.7431 44.8114C62.3908 40.5469 65.2 34.6435 65.5778 28.3471C63.8976 27.7403 62.3759 26.7624 61.1258 25.4862C59.8758 24.21 58.9297 22.6683 58.3578 20.9759C57.786 19.2835 57.6032 17.4839 57.823 15.711C58.0428 13.9382 58.6596 12.2377 59.6275 10.7362C50.1996 -0.604848 31.6915 -0.792772 22.3894 10.7497C23.3537 12.2541 23.9663 13.9566 24.1817 15.7305C24.3971 17.5045 24.2097 19.3041 23.6334 20.9956C23.0571 22.6871 22.1069 24.2268 20.8533 25.5003C19.5997 26.7738 18.0751 27.7482 16.3929 28.351C16.6156 31.9079 17.6115 35.3733 19.3111 38.5058C21.0107 41.6382 23.3732 44.3622 26.2338 46.4877C27.924 47.715 29.328 49.2942 30.3488 51.1166C31.3697 52.9389 31.9832 54.961 32.147 57.0433H36.6408V20.3804H30.7557L32.7106 22.3359C32.8891 22.5216 32.9877 22.7699 32.9851 23.0275C32.9826 23.2851 32.8792 23.5314 32.697 23.7135C32.5148 23.8957 32.2685 23.9991 32.0109 24.0017C31.7534 24.0042 31.505 23.9056 31.3194 23.727C31.3089 23.7144 27.6842 20.0943 27.6762 20.0832L27.6748 20.0813L27.671 20.0775C27.4977 19.8955 27.4002 19.6542 27.3985 19.4029C27.3969 19.1515 27.4911 18.909 27.662 18.7247L27.6633 18.7241C27.6658 18.7091 31.3084 15.0847 31.3193 15.0661C31.505 14.8874 31.7534 14.7887 32.011 14.7912C32.2687 14.7937 32.5151 14.8971 32.6973 15.0793C32.8795 15.2615 32.983 15.508 32.9855 15.7656C32.9879 16.0233 32.8892 16.2717 32.7105 16.4573L30.7557 18.4128H37.6246C37.8855 18.4128 38.1357 18.5165 38.3202 18.701C38.5047 18.8855 38.6083 19.1357 38.6084 19.3966V57.0433H43.3956V19.3966C43.3957 19.1357 43.4993 18.8855 43.6838 18.701C43.8683 18.5165 44.1185 18.4128 44.3794 18.4128H51.2483L49.2934 16.4573C49.1149 16.2716 49.0163 16.0233 49.0189 15.7657C49.0214 15.5081 49.1249 15.2618 49.307 15.0796C49.4892 14.8975 49.7355 14.7941 49.9931 14.7915C50.2507 14.789 50.499 14.8876 50.6847 15.0661C50.7186 15.1113 54.3091 18.6823 54.3407 18.7234L54.342 18.7247C54.5129 18.909 54.6071 19.1515 54.6055 19.4029C54.6038 19.6542 54.5064 19.8954 54.333 20.0775C54.3271 20.0826 54.3469 20.0755 54.3292 20.0813L54.3279 20.0832L54.3252 20.0851C54.323 20.0931 50.6896 23.7193 50.6846 23.7271C50.4989 23.9057 50.2505 24.0043 49.9929 24.0018C49.7353 23.9993 49.4889 23.8959 49.3068 23.7137C49.1246 23.5315 49.0211 23.2851 49.0187 23.0275C49.0162 22.7699 49.1148 22.5215 49.2934 22.3359L51.2482 20.3804H45.3633L45.3632 57.0433ZM66.8857 26.6958C68.3486 27.0846 69.8809 27.134 71.3657 26.8401C72.8504 26.5462 74.2484 25.9169 75.4528 25.0002C76.6572 24.0835 77.6362 22.9037 78.315 21.5508C78.9937 20.1979 79.3543 18.7078 79.3692 17.1943C79.4044 7.82551 67.2326 3.74991 61.6591 11.2687C60.7024 12.5538 60.072 14.0519 59.8221 15.6344C59.5721 17.2169 59.7101 18.8364 60.2242 20.3538C60.7383 21.8712 61.6131 23.241 62.7734 24.3457C63.9338 25.4504 65.345 26.2569 66.8857 26.6958ZM12.4896 7.33639C9.87586 7.33913 7.36993 8.37861 5.52167 10.2268C3.6734 12.0749 2.63376 14.5808 2.63085 17.1945C3.17341 30.2309 21.7551 30.2444 22.3471 17.2463C22.3443 14.6279 21.3065 12.1169 19.46 10.2605C17.6135 8.40414 15.1079 7.35305 12.4896 7.33639ZM16.7247 22.409C16.5955 22.4092 16.4675 22.3838 16.3481 22.3344C16.2287 22.2849 16.1203 22.2123 16.0291 22.1207L12.4871 18.5794L8.9463 22.1207C8.85507 22.2126 8.7466 22.2856 8.62711 22.3355C8.50761 22.3854 8.37945 22.4112 8.24996 22.4114C8.12048 22.4116 7.99222 22.3863 7.87255 22.3369C7.75287 22.2874 7.64414 22.2148 7.55258 22.1233C7.46102 22.0317 7.38843 21.923 7.33899 21.8033C7.28955 21.6836 7.26422 21.5554 7.26445 21.4259C7.26469 21.2964 7.29049 21.1682 7.34036 21.0487C7.39024 20.9292 7.46322 20.8208 7.55511 20.7296L11.0959 17.1881L7.55511 13.6467C7.37174 13.462 7.26904 13.2121 7.26952 12.9519C7.26999 12.6916 7.3736 12.4421 7.55764 12.2581C7.74169 12.074 7.99117 11.9704 8.25145 11.9699C8.51173 11.9695 8.76158 12.0722 8.9463 12.2555L12.4871 15.7969L16.0291 12.2555C16.2138 12.0722 16.4637 11.9695 16.7239 11.9699C16.9842 11.9704 17.2337 12.074 17.4177 12.2581C17.6018 12.4421 17.7054 12.6916 17.7059 12.9519C17.7063 13.2121 17.6036 13.462 17.4203 13.6467L13.8795 17.1881L17.4203 20.7295C17.5548 20.8683 17.6457 21.0433 17.6819 21.2331C17.7182 21.4229 17.6981 21.6192 17.6241 21.7977C17.5502 21.9763 17.4256 22.1292 17.2658 22.2379C17.106 22.3465 16.9179 22.4059 16.7247 22.409ZM68.4114 20.9512C68.1507 20.9456 67.9017 20.842 67.714 20.661C67.5379 20.4806 64.3946 17.3485 64.3002 17.2431C64.1384 17.0496 64.0572 16.8014 64.0731 16.5497C64.089 16.298 64.2009 16.062 64.3858 15.8904C64.5706 15.7188 64.8142 15.6246 65.0664 15.6274C65.3186 15.6302 65.5601 15.7296 65.7411 15.9052C65.8208 15.9849 68.4114 18.5762 68.4114 18.5762L73.2819 13.7057C73.4676 13.5272 73.7159 13.4286 73.9735 13.4311C74.2311 13.4337 74.4774 13.5371 74.6596 13.7193C74.8417 13.9014 74.9451 14.1478 74.9477 14.4053C74.9502 14.6629 74.8516 14.9112 74.6731 15.0969L69.1071 20.6629C69.0157 20.7543 68.9073 20.8268 68.7879 20.8763C68.6686 20.9257 68.5406 20.9512 68.4114 20.9512Z" fill="#1742E7"></path></svg>