<svg xmlns="http://www.w3.org/2000/svg" viewBox="0 0 80 81" fill="none"><path d="M39.9732 73.5256C39.8398 73.5256 39.6931 73.4989 39.5598 73.4589L38.5729 73.1389C28.878 70.0317 23.9705 64.004 23.9705 55.2425V42.8938C23.9705 42.3337 24.3172 41.8403 24.8506 41.6403L39.5198 36.266C39.8131 36.1594 40.1465 36.1594 40.4399 36.266L55.109 41.6403C55.6291 41.827 55.9892 42.3337 55.9892 42.8938V55.2425C55.9892 64.004 51.0817 70.0317 41.3867 73.1389L40.3999 73.4589C40.2665 73.4989 40.1332 73.5256 39.9865 73.5256H39.9732ZM26.6376 43.8273V55.2425C26.6376 62.8171 30.8116 67.8446 39.3864 70.6051L39.9732 70.7918L40.5599 70.6051C49.1347 67.8446 53.3087 62.8171 53.3087 55.2425V43.8273L39.9732 38.9332L26.6376 43.8273Z" fill="#1742E7"></path><path d="M39.9732 80.1934C39.8398 80.1934 39.7065 80.18 39.5864 80.14L38.1462 79.7C24.3172 75.4726 17.3161 67.2979 17.3161 55.4026V38.3064C17.3161 37.733 17.6761 37.2395 18.2095 37.0528L39.5464 29.5983C39.8265 29.5049 40.1465 29.5049 40.4266 29.5983L61.7635 37.0528C62.2969 37.2395 62.6569 37.7463 62.6569 38.3064V55.4026C62.6569 67.2979 55.6424 75.4726 41.8268 79.7L40.3866 80.14C40.2532 80.18 40.1332 80.1934 39.9998 80.1934H39.9732ZM38.9197 77.1395L39.9732 77.4596L41.0267 77.1395C53.6021 73.2855 59.9765 65.9777 59.9765 55.3892V39.2399L39.9732 32.252L19.9698 39.2399V55.3892C19.9698 65.9777 26.3442 73.2989 38.9197 77.1395Z" fill="#1742E7"></path><path d="M66.6443 52.6821C66.0842 52.6821 65.5508 52.3221 65.3774 51.762C65.1507 51.0552 65.5374 50.3084 66.2442 50.0817C72.872 47.948 77.326 41.827 77.326 34.8525C77.326 26.0243 70.1515 18.8498 61.3234 18.8498C60.1098 18.8498 58.883 18.9965 57.5894 19.3032C57.2027 19.3966 56.8026 19.3032 56.4826 19.0765C56.1625 18.8365 55.9758 18.4764 55.9492 18.0763C55.5358 9.54158 48.5346 2.84714 39.9865 2.84714C31.4384 2.84714 24.4372 9.54158 24.0238 18.0763C24.0105 18.4764 23.8105 18.8365 23.4904 19.0765C23.1704 19.3165 22.7703 19.3966 22.3836 19.3032C21.09 18.9965 19.8631 18.8498 18.6496 18.8498C9.82147 18.8498 2.64694 26.0243 2.64694 34.8525C2.64694 41.827 7.10101 47.948 13.7288 50.0817C14.4356 50.3084 14.809 51.0552 14.5956 51.762C14.3689 52.4687 13.6221 52.8555 12.9153 52.6288C5.1807 50.135 -0.00683594 43.0005 -0.00683594 34.8658C-0.00683594 24.5708 8.36789 16.196 18.6629 16.196C19.6098 16.196 20.5433 16.276 21.5034 16.4227C22.7036 7.20786 30.5449 0.193359 39.9998 0.193359C49.4547 0.193359 57.296 7.20786 58.4962 16.4227C59.4564 16.2627 60.4032 16.196 61.3367 16.196C71.6318 16.196 80.0065 24.5708 80.0065 34.8658C80.0065 43.0005 74.8056 50.1484 67.0844 52.6288C66.951 52.6688 66.8043 52.6954 66.6709 52.6954L66.6443 52.6821Z" fill="#1742E7"></path><path d="M38.6396 60.19C38.3596 60.19 38.0795 60.0967 37.8395 59.9233L32.5052 55.9227C31.9185 55.4826 31.7985 54.6424 32.2385 54.0557C32.6786 53.4689 33.5188 53.3489 34.1055 53.789L38.4529 57.0428L46.9743 47.3079C47.4544 46.7478 48.3079 46.6945 48.8546 47.1879C49.4147 47.6679 49.4681 48.5214 48.9747 49.0682L39.6398 59.7366C39.3731 60.03 39.013 60.19 38.6396 60.19Z" fill="#1742E7"></path></svg>