<svg xmlns="http://www.w3.org/2000/svg" viewBox="0 0 58 61" fill="none"><mask id="path-1-inside-1_171_1572" fill="white"><path fill-rule="evenodd" clip-rule="evenodd" d="M33.4586 0.817775C32.5847 1.26067 32.1118 1.99031 32.0457 2.99767L31.9982 3.72192L31.0136 4.05121C30.4721 4.23234 29.6322 4.5682 29.1473 4.79762L28.2654 5.21461L27.8784 4.85846C27.0979 4.14019 26.2289 3.90022 25.2288 4.12659C24.6288 4.26235 24.4684 4.38978 22.5191 6.27847C20.5163 8.21898 20.4423 8.30784 20.2992 8.94006C20.1052 9.79654 20.3463 10.6588 20.9806 11.3777L21.4274 11.8841L21.08 12.5469C20.8888 12.9115 20.5369 13.7109 20.298 14.3234L19.8637 15.4371L19.062 15.5046C18.0829 15.5869 17.4206 15.9842 16.9401 16.777C16.6185 17.3076 16.615 17.3375 16.5767 19.8661C16.5321 22.8029 16.6201 23.2558 17.373 23.9675C17.9397 24.5033 18.559 24.7569 19.3007 24.7569H19.879L20.1578 25.5482C20.3112 25.9834 20.6587 26.7987 20.9301 27.3598L21.4235 28.3802L21.0459 28.7975C20.4435 29.4631 20.2592 29.9035 20.2597 30.677C20.2599 31.1638 20.3381 31.5247 20.5137 31.8493C20.8129 32.4023 24.1863 35.6763 24.7119 35.924C25.6886 36.384 26.7478 36.2401 27.6869 35.5201L28.3003 35.0497L29.3499 35.5228C29.9272 35.7829 30.7648 36.1121 31.2113 36.2543L32.023 36.5128L32.0257 37.1119C32.0271 37.4413 32.1285 37.9247 32.2509 38.1863C32.5415 38.807 33.3513 39.4703 34.017 39.6329C34.832 39.8319 38.9755 39.8008 39.707 39.59C40.7848 39.2796 41.5697 38.2298 41.5697 37.0987V36.5377L42.3854 36.2632C42.8339 36.1122 43.6716 35.7774 44.2467 35.5192L45.2924 35.0497L45.9058 35.5201C46.8449 36.2401 47.9041 36.384 48.8807 35.924C49.4015 35.6786 52.7766 32.4065 53.0836 31.8493C53.2675 31.5154 53.3405 31.1778 53.3372 30.677C53.332 29.9044 53.1439 29.4572 52.5468 28.7975L52.1692 28.3802L52.6626 27.3598C52.934 26.7987 53.2815 25.9834 53.4349 25.5482L53.7137 24.7569H54.292C55.0336 24.7569 55.653 24.5033 56.2197 23.9675C56.9726 23.2558 57.0606 22.8029 57.016 19.8661C56.9777 17.3363 56.9743 17.3078 56.652 16.7761C56.1869 16.0083 55.4741 15.5854 54.5072 15.5032L53.729 15.4371L53.2947 14.3234C53.0558 13.7109 52.7039 12.9115 52.5127 12.5469L52.1653 11.8841L52.612 11.3777C53.2464 10.6588 53.4874 9.79654 53.2935 8.94006C53.1504 8.30784 53.0763 8.21898 51.0736 6.27847C49.1242 4.38978 48.9639 4.26235 48.3639 4.12659C47.3672 3.90093 46.5987 4.111 45.7375 4.84463L45.3099 5.20874L44.4971 4.8186C44.0501 4.60395 43.2222 4.2668 42.6573 4.06927L41.6301 3.71008L41.5581 2.98126C41.4574 1.96405 40.9877 1.25035 40.134 0.817775L39.4878 0.490234H36.7963H34.1049L33.4586 0.817775ZM39.1573 3.94852C39.2536 5.516 39.2355 5.49795 41.325 6.11833C42.0213 6.32513 43.2075 6.80507 43.9609 7.18501C44.7145 7.56483 45.4658 7.87573 45.6304 7.87573C45.8323 7.87573 46.2015 7.62802 46.766 7.11373C47.2259 6.69464 47.646 6.35174 47.6994 6.35174C47.7528 6.35174 48.5269 7.0618 49.4197 7.92965L51.043 9.50769L50.3009 10.2574C49.2149 11.3546 49.1953 11.5747 50.0538 13.0426C50.5712 13.9274 51.1775 15.4208 51.5371 16.6966C51.7907 17.5963 52.0405 17.7443 53.4528 17.8309L54.5604 17.8989V20.1263V22.3536L53.4665 22.4123C52.0073 22.4904 51.806 22.6242 51.4824 23.7304C51.1061 25.017 50.5423 26.3554 49.9537 27.3597C49.2206 28.611 49.2403 28.7961 50.2144 29.8022C50.8516 30.4605 50.9819 30.6577 50.8887 30.8234C50.8252 30.9363 50.0875 31.6848 49.2493 32.4869L47.7255 33.9451L47.0342 33.2916C46.2721 32.5708 45.9547 32.3772 45.5353 32.3762C45.3813 32.3759 44.5485 32.7172 43.6844 33.1347C42.8204 33.5522 41.9912 33.9253 41.8416 33.9638L41.5697 34.0339V31.5079V28.9819L42.0833 28.729C43.7776 27.8948 45.4694 26.2808 46.4956 24.5199C47.0388 23.588 47.5776 21.9318 47.7343 20.7124C48.1945 17.1332 46.4636 13.3099 43.4302 11.2049C41.7269 10.0229 40.5575 9.90451 39.6745 10.8247C39.1481 11.3731 39.1202 11.6154 39.1425 15.4371C39.1673 19.6935 39.1202 19.9773 38.2589 20.7474C37.2766 21.6258 36.3166 21.6262 35.3355 20.7489C34.4743 19.9788 34.4271 19.6957 34.4493 15.4371C34.4692 11.6199 34.4402 11.3685 33.9182 10.8247C33.0345 9.90381 31.8688 10.0226 30.1567 11.2076C27.8818 12.7825 26.2596 15.4618 25.857 18.3092C25.5416 20.5406 26.1925 23.2592 27.5008 25.1743C28.4605 26.5794 30.1193 28.0511 31.5094 28.7308L32.023 28.9819V31.5079V34.0339L31.7511 33.9638C31.6015 33.9253 30.7723 33.5522 29.9082 33.1347C29.0442 32.7172 28.2113 32.3759 28.0574 32.3762C27.6379 32.3772 27.3206 32.5708 26.5584 33.2916L25.8672 33.9451L24.3434 32.4869C23.5052 31.6848 22.7674 30.9363 22.704 30.8234C22.6108 30.6577 22.7411 30.4605 23.3783 29.8022C24.3524 28.7961 24.3721 28.611 23.639 27.3597C23.0503 26.3554 22.4866 25.017 22.1103 23.7304C21.7867 22.6242 21.5853 22.4904 20.1261 22.4123L19.0323 22.3536V20.1263V17.8989L20.1399 17.8309C21.5522 17.7443 21.802 17.5963 22.0555 16.6966C22.4152 15.4208 23.0214 13.9274 23.5389 13.0426C24.3974 11.5747 24.3778 11.3546 23.2918 10.2574L22.5497 9.50769L24.173 7.92965C25.0658 7.0618 25.8399 6.35174 25.8933 6.35174C25.9467 6.35174 26.3668 6.69464 26.8267 7.11373C27.3815 7.61923 27.7617 7.87573 27.9562 7.87573C28.1174 7.87573 28.887 7.55921 29.6664 7.17247C30.4457 6.78561 31.6347 6.30567 32.3084 6.10579C32.9823 5.90591 33.6643 5.68177 33.8242 5.60744C34.2402 5.41413 34.4399 4.84603 34.4399 3.85462C34.4399 3.37972 34.4773 2.95488 34.523 2.91045C34.5687 2.86614 35.6156 2.8441 36.8493 2.86168L39.0924 2.89345L39.1573 3.94852ZM32.0467 15.8766C32.0055 19.327 32.0926 20.0952 32.6447 21.1564C33.5536 22.903 35.7092 24.0398 37.4541 23.6926C39.5318 23.2794 41.0875 21.7254 41.4491 19.7021C41.531 19.2429 41.5685 17.7654 41.546 15.8766C41.5258 14.184 41.5292 12.7993 41.5535 12.7993C41.5778 12.7994 41.87 12.9933 42.2027 13.2302C43.4942 14.15 44.6976 15.9379 45.15 17.6096C45.4236 18.6202 45.4267 20.4729 45.1564 21.4744C44.5229 23.8228 42.8586 25.7607 40.5333 26.858C39.9765 27.1207 39.4553 27.4522 39.3691 27.5985C39.2518 27.7979 39.1982 29.0388 39.1528 32.6113L39.0924 37.3591H36.7963H34.5003L34.4399 32.6113C34.3947 29.0611 34.3404 27.7972 34.2249 27.601C34.1398 27.4567 33.625 27.123 33.0807 26.8596C31.8441 26.2609 31.1223 25.7501 30.3406 24.9204C28.6901 23.1685 27.8921 20.575 28.3057 18.3076C28.6644 16.3417 29.7409 14.5213 31.2315 13.3598C31.627 13.0516 31.9805 12.7994 32.017 12.7993C32.0536 12.7993 32.0669 14.184 32.0467 15.8766ZM2.2266 39.6192C1.88969 39.7346 1.45465 39.9501 1.25985 40.0981C0.801004 40.4465 0.275574 41.2055 0.121981 41.742C0.0475411 42.0019 0.000412104 44.6827 4.95723e-05 48.6798C-0.000796336 55.9472 0.000170449 55.9569 0.805596 56.8697C1.05369 57.1508 1.52824 57.5023 1.86564 57.6547C2.45826 57.9224 2.57113 57.9306 5.61857 57.9292C8.51774 57.9279 8.80257 57.9094 9.30432 57.6892C9.96751 57.3984 10.5761 56.8502 10.8883 56.2624L11.1219 55.8228H12.5576H13.9932L20.8026 57.5901C24.5479 58.5621 28.3463 59.558 29.2436 59.8033C30.1409 60.0485 31.282 60.3151 31.7795 60.3959C33.8033 60.724 36.0463 60.1906 38.1174 58.8885C39.2945 58.1486 41.0963 56.845 41.265 56.6113C41.8637 55.7823 40.8894 54.5341 39.9222 54.8908C39.7738 54.9457 38.9825 55.4471 38.1639 56.0052C34.8116 58.2908 33.6685 58.532 30.3312 57.6579C29.5004 57.4404 25.5595 56.4109 21.5736 55.3703L14.3267 53.4782H12.7809H11.2352L11.2667 48.7011L11.2982 43.924L12.6879 43.8564C13.9436 43.7954 14.2234 43.7373 15.5882 43.2548C17.6799 42.5153 18.7757 42.2919 20.3011 42.2942C22.8136 42.298 24.791 43.1629 27.3705 45.3865C28.7467 46.5728 28.3666 46.4949 33.1106 46.5616C37.0398 46.6169 37.304 46.6341 37.7025 46.8613C38.4917 47.311 38.8699 48.3752 38.5412 49.221C38.3504 49.7119 37.7105 50.2998 37.2246 50.4307C36.972 50.4988 34.4997 50.5464 31.1993 50.5468C27.593 50.5472 25.5197 50.5904 25.3699 50.6682C25.0768 50.8204 24.7724 51.382 24.7724 51.7708C24.7724 51.9341 24.931 52.24 25.125 52.4506L25.4777 52.8335H31.5599H37.6422L38.452 52.4614C39.4497 52.0028 40.2139 51.2792 40.6667 50.3644C40.9559 49.78 41.0156 49.4991 41.0382 48.6151L41.0652 47.5617L45.9926 45.1059C50.1349 43.0415 51.0176 42.6431 51.5318 42.6064C52.6655 42.5257 53.5332 43.2627 53.5332 44.3064C53.5332 45.2654 53.239 45.5756 50.5641 47.4369C47.7449 49.3984 47.6404 49.5296 48.1195 50.5053C48.2664 50.8043 48.7029 51.0164 49.1717 51.0164C49.5501 51.0164 49.563 51.0085 52.4383 49.0251C55.3867 46.9913 55.8896 46.3078 55.8896 44.3343C55.8896 43.4441 55.8377 43.1118 55.6313 42.6788C54.7267 40.7802 52.4895 39.8168 50.3831 40.4188C50.022 40.522 47.5095 41.7124 44.7997 43.0643L39.8727 45.5223L39.4015 45.1603C39.1424 44.9612 38.6677 44.6807 38.3468 44.537C37.7854 44.2856 37.6074 44.2744 33.6932 44.2406L29.6233 44.2056L28.8594 43.5443C26.9011 41.8492 24.9125 40.7156 23.0201 40.2156C22.243 40.0103 21.7216 39.96 20.3615 39.9594C18.3755 39.9585 17.6335 40.0964 15.1012 40.9375C13.4727 41.4784 13.2609 41.5208 12.1838 41.5208C11.0805 41.5208 11.0189 41.5075 10.9529 41.257C10.8369 40.8161 10.2117 40.1841 9.5286 39.8169L8.88136 39.4692L5.86026 39.4392C3.21366 39.413 2.76327 39.4352 2.2266 39.6192ZM8.50251 41.9982L8.82094 42.2411V48.7004C8.82094 54.5462 8.80197 55.1799 8.62094 55.374C8.43835 55.5697 8.18131 55.5884 5.66026 55.5884C3.06067 55.5884 2.88544 55.5746 2.65789 55.3539C2.42213 55.1252 2.41621 54.9632 2.41621 48.7251V42.3307L2.71288 42.043C3.00931 41.7553 3.01088 41.7552 5.59682 41.7552C8.03134 41.7552 8.20294 41.7695 8.50251 41.9982ZM44.2751 51.8322C43.4871 52.1488 43.2656 53.1485 43.8564 53.7217C44.7422 54.581 46.2265 53.7252 45.8337 52.5819C45.6376 52.0116 44.8143 51.6154 44.2751 51.8322Z"></path></mask><path fill-rule="evenodd" clip-rule="evenodd" d="M33.4586 0.817775C32.5847 1.26067 32.1118 1.99031 32.0457 2.99767L31.9982 3.72192L31.0136 4.05121C30.4721 4.23234 29.6322 4.5682 29.1473 4.79762L28.2654 5.21461L27.8784 4.85846C27.0979 4.14019 26.2289 3.90022 25.2288 4.12659C24.6288 4.26235 24.4684 4.38978 22.5191 6.27847C20.5163 8.21898 20.4423 8.30784 20.2992 8.94006C20.1052 9.79654 20.3463 10.6588 20.9806 11.3777L21.4274 11.8841L21.08 12.5469C20.8888 12.9115 20.5369 13.7109 20.298 14.3234L19.8637 15.4371L19.062 15.5046C18.0829 15.5869 17.4206 15.9842 16.9401 16.777C16.6185 17.3076 16.615 17.3375 16.5767 19.8661C16.5321 22.8029 16.6201 23.2558 17.373 23.9675C17.9397 24.5033 18.559 24.7569 19.3007 24.7569H19.879L20.1578 25.5482C20.3112 25.9834 20.6587 26.7987 20.9301 27.3598L21.4235 28.3802L21.0459 28.7975C20.4435 29.4631 20.2592 29.9035 20.2597 30.677C20.2599 31.1638 20.3381 31.5247 20.5137 31.8493C20.8129 32.4023 24.1863 35.6763 24.7119 35.924C25.6886 36.384 26.7478 36.2401 27.6869 35.5201L28.3003 35.0497L29.3499 35.5228C29.9272 35.7829 30.7648 36.1121 31.2113 36.2543L32.023 36.5128L32.0257 37.1119C32.0271 37.4413 32.1285 37.9247 32.2509 38.1863C32.5415 38.807 33.3513 39.4703 34.017 39.6329C34.832 39.8319 38.9755 39.8008 39.707 39.59C40.7848 39.2796 41.5697 38.2298 41.5697 37.0987V36.5377L42.3854 36.2632C42.8339 36.1122 43.6716 35.7774 44.2467 35.5192L45.2924 35.0497L45.9058 35.5201C46.8449 36.2401 47.9041 36.384 48.8807 35.924C49.4015 35.6786 52.7766 32.4065 53.0836 31.8493C53.2675 31.5154 53.3405 31.1778 53.3372 30.677C53.332 29.9044 53.1439 29.4572 52.5468 28.7975L52.1692 28.3802L52.6626 27.3598C52.934 26.7987 53.2815 25.9834 53.4349 25.5482L53.7137 24.7569H54.292C55.0336 24.7569 55.653 24.5033 56.2197 23.9675C56.9726 23.2558 57.0606 22.8029 57.016 19.8661C56.9777 17.3363 56.9743 17.3078 56.652 16.7761C56.1869 16.0083 55.4741 15.5854 54.5072 15.5032L53.729 15.4371L53.2947 14.3234C53.0558 13.7109 52.7039 12.9115 52.5127 12.5469L52.1653 11.8841L52.612 11.3777C53.2464 10.6588 53.4874 9.79654 53.2935 8.94006C53.1504 8.30784 53.0763 8.21898 51.0736 6.27847C49.1242 4.38978 48.9639 4.26235 48.3639 4.12659C47.3672 3.90093 46.5987 4.111 45.7375 4.84463L45.3099 5.20874L44.4971 4.8186C44.0501 4.60395 43.2222 4.2668 42.6573 4.06927L41.6301 3.71008L41.5581 2.98126C41.4574 1.96405 40.9877 1.25035 40.134 0.817775L39.4878 0.490234H36.7963H34.1049L33.4586 0.817775ZM39.1573 3.94852C39.2536 5.516 39.2355 5.49795 41.325 6.11833C42.0213 6.32513 43.2075 6.80507 43.9609 7.18501C44.7145 7.56483 45.4658 7.87573 45.6304 7.87573C45.8323 7.87573 46.2015 7.62802 46.766 7.11373C47.2259 6.69464 47.646 6.35174 47.6994 6.35174C47.7528 6.35174 48.5269 7.0618 49.4197 7.92965L51.043 9.50769L50.3009 10.2574C49.2149 11.3546 49.1953 11.5747 50.0538 13.0426C50.5712 13.9274 51.1775 15.4208 51.5371 16.6966C51.7907 17.5963 52.0405 17.7443 53.4528 17.8309L54.5604 17.8989V20.1263V22.3536L53.4665 22.4123C52.0073 22.4904 51.806 22.6242 51.4824 23.7304C51.1061 25.017 50.5423 26.3554 49.9537 27.3597C49.2206 28.611 49.2403 28.7961 50.2144 29.8022C50.8516 30.4605 50.9819 30.6577 50.8887 30.8234C50.8252 30.9363 50.0875 31.6848 49.2493 32.4869L47.7255 33.9451L47.0342 33.2916C46.2721 32.5708 45.9547 32.3772 45.5353 32.3762C45.3813 32.3759 44.5485 32.7172 43.6844 33.1347C42.8204 33.5522 41.9912 33.9253 41.8416 33.9638L41.5697 34.0339V31.5079V28.9819L42.0833 28.729C43.7776 27.8948 45.4694 26.2808 46.4956 24.5199C47.0388 23.588 47.5776 21.9318 47.7343 20.7124C48.1945 17.1332 46.4636 13.3099 43.4302 11.2049C41.7269 10.0229 40.5575 9.90451 39.6745 10.8247C39.1481 11.3731 39.1202 11.6154 39.1425 15.4371C39.1673 19.6935 39.1202 19.9773 38.2589 20.7474C37.2766 21.6258 36.3166 21.6262 35.3355 20.7489C34.4743 19.9788 34.4271 19.6957 34.4493 15.4371C34.4692 11.6199 34.4402 11.3685 33.9182 10.8247C33.0345 9.90381 31.8688 10.0226 30.1567 11.2076C27.8818 12.7825 26.2596 15.4618 25.857 18.3092C25.5416 20.5406 26.1925 23.2592 27.5008 25.1743C28.4605 26.5794 30.1193 28.0511 31.5094 28.7308L32.023 28.9819V31.5079V34.0339L31.7511 33.9638C31.6015 33.9253 30.7723 33.5522 29.9082 33.1347C29.0442 32.7172 28.2113 32.3759 28.0574 32.3762C27.6379 32.3772 27.3206 32.5708 26.5584 33.2916L25.8672 33.9451L24.3434 32.4869C23.5052 31.6848 22.7674 30.9363 22.704 30.8234C22.6108 30.6577 22.7411 30.4605 23.3783 29.8022C24.3524 28.7961 24.3721 28.611 23.639 27.3597C23.0503 26.3554 22.4866 25.017 22.1103 23.7304C21.7867 22.6242 21.5853 22.4904 20.1261 22.4123L19.0323 22.3536V20.1263V17.8989L20.1399 17.8309C21.5522 17.7443 21.802 17.5963 22.0555 16.6966C22.4152 15.4208 23.0214 13.9274 23.5389 13.0426C24.3974 11.5747 24.3778 11.3546 23.2918 10.2574L22.5497 9.50769L24.173 7.92965C25.0658 7.0618 25.8399 6.35174 25.8933 6.35174C25.9467 6.35174 26.3668 6.69464 26.8267 7.11373C27.3815 7.61923 27.7617 7.87573 27.9562 7.87573C28.1174 7.87573 28.887 7.55921 29.6664 7.17247C30.4457 6.78561 31.6347 6.30567 32.3084 6.10579C32.9823 5.90591 33.6643 5.68177 33.8242 5.60744C34.2402 5.41413 34.4399 4.84603 34.4399 3.85462C34.4399 3.37972 34.4773 2.95488 34.523 2.91045C34.5687 2.86614 35.6156 2.8441 36.8493 2.86168L39.0924 2.89345L39.1573 3.94852ZM32.0467 15.8766C32.0055 19.327 32.0926 20.0952 32.6447 21.1564C33.5536 22.903 35.7092 24.0398 37.4541 23.6926C39.5318 23.2794 41.0875 21.7254 41.4491 19.7021C41.531 19.2429 41.5685 17.7654 41.546 15.8766C41.5258 14.184 41.5292 12.7993 41.5535 12.7993C41.5778 12.7994 41.87 12.9933 42.2027 13.2302C43.4942 14.15 44.6976 15.9379 45.15 17.6096C45.4236 18.6202 45.4267 20.4729 45.1564 21.4744C44.5229 23.8228 42.8586 25.7607 40.5333 26.858C39.9765 27.1207 39.4553 27.4522 39.3691 27.5985C39.2518 27.7979 39.1982 29.0388 39.1528 32.6113L39.0924 37.3591H36.7963H34.5003L34.4399 32.6113C34.3947 29.0611 34.3404 27.7972 34.2249 27.601C34.1398 27.4567 33.625 27.123 33.0807 26.8596C31.8441 26.2609 31.1223 25.7501 30.3406 24.9204C28.6901 23.1685 27.8921 20.575 28.3057 18.3076C28.6644 16.3417 29.7409 14.5213 31.2315 13.3598C31.627 13.0516 31.9805 12.7994 32.017 12.7993C32.0536 12.7993 32.0669 14.184 32.0467 15.8766ZM2.2266 39.6192C1.88969 39.7346 1.45465 39.9501 1.25985 40.0981C0.801004 40.4465 0.275574 41.2055 0.121981 41.742C0.0475411 42.0019 0.000412104 44.6827 4.95723e-05 48.6798C-0.000796336 55.9472 0.000170449 55.9569 0.805596 56.8697C1.05369 57.1508 1.52824 57.5023 1.86564 57.6547C2.45826 57.9224 2.57113 57.9306 5.61857 57.9292C8.51774 57.9279 8.80257 57.9094 9.30432 57.6892C9.96751 57.3984 10.5761 56.8502 10.8883 56.2624L11.1219 55.8228H12.5576H13.9932L20.8026 57.5901C24.5479 58.5621 28.3463 59.558 29.2436 59.8033C30.1409 60.0485 31.282 60.3151 31.7795 60.3959C33.8033 60.724 36.0463 60.1906 38.1174 58.8885C39.2945 58.1486 41.0963 56.845 41.265 56.6113C41.8637 55.7823 40.8894 54.5341 39.9222 54.8908C39.7738 54.9457 38.9825 55.4471 38.1639 56.0052C34.8116 58.2908 33.6685 58.532 30.3312 57.6579C29.5004 57.4404 25.5595 56.4109 21.5736 55.3703L14.3267 53.4782H12.7809H11.2352L11.2667 48.7011L11.2982 43.924L12.6879 43.8564C13.9436 43.7954 14.2234 43.7373 15.5882 43.2548C17.6799 42.5153 18.7757 42.2919 20.3011 42.2942C22.8136 42.298 24.791 43.1629 27.3705 45.3865C28.7467 46.5728 28.3666 46.4949 33.1106 46.5616C37.0398 46.6169 37.304 46.6341 37.7025 46.8613C38.4917 47.311 38.8699 48.3752 38.5412 49.221C38.3504 49.7119 37.7105 50.2998 37.2246 50.4307C36.972 50.4988 34.4997 50.5464 31.1993 50.5468C27.593 50.5472 25.5197 50.5904 25.3699 50.6682C25.0768 50.8204 24.7724 51.382 24.7724 51.7708C24.7724 51.9341 24.931 52.24 25.125 52.4506L25.4777 52.8335H31.5599H37.6422L38.452 52.4614C39.4497 52.0028 40.2139 51.2792 40.6667 50.3644C40.9559 49.78 41.0156 49.4991 41.0382 48.6151L41.0652 47.5617L45.9926 45.1059C50.1349 43.0415 51.0176 42.6431 51.5318 42.6064C52.6655 42.5257 53.5332 43.2627 53.5332 44.3064C53.5332 45.2654 53.239 45.5756 50.5641 47.4369C47.7449 49.3984 47.6404 49.5296 48.1195 50.5053C48.2664 50.8043 48.7029 51.0164 49.1717 51.0164C49.5501 51.0164 49.563 51.0085 52.4383 49.0251C55.3867 46.9913 55.8896 46.3078 55.8896 44.3343C55.8896 43.4441 55.8377 43.1118 55.6313 42.6788C54.7267 40.7802 52.4895 39.8168 50.3831 40.4188C50.022 40.522 47.5095 41.7124 44.7997 43.0643L39.8727 45.5223L39.4015 45.1603C39.1424 44.9612 38.6677 44.6807 38.3468 44.537C37.7854 44.2856 37.6074 44.2744 33.6932 44.2406L29.6233 44.2056L28.8594 43.5443C26.9011 41.8492 24.9125 40.7156 23.0201 40.2156C22.243 40.0103 21.7216 39.96 20.3615 39.9594C18.3755 39.9585 17.6335 40.0964 15.1012 40.9375C13.4727 41.4784 13.2609 41.5208 12.1838 41.5208C11.0805 41.5208 11.0189 41.5075 10.9529 41.257C10.8369 40.8161 10.2117 40.1841 9.5286 39.8169L8.88136 39.4692L5.86026 39.4392C3.21366 39.413 2.76327 39.4352 2.2266 39.6192ZM8.50251 41.9982L8.82094 42.2411V48.7004C8.82094 54.5462 8.80197 55.1799 8.62094 55.374C8.43835 55.5697 8.18131 55.5884 5.66026 55.5884C3.06067 55.5884 2.88544 55.5746 2.65789 55.3539C2.42213 55.1252 2.41621 54.9632 2.41621 48.7251V42.3307L2.71288 42.043C3.00931 41.7553 3.01088 41.7552 5.59682 41.7552C8.03134 41.7552 8.20294 41.7695 8.50251 41.9982ZM44.2751 51.8322C43.4871 52.1488 43.2656 53.1485 43.8564 53.7217C44.7422 54.581 46.2265 53.7252 45.8337 52.5819C45.6376 52.0116 44.8143 51.6154 44.2751 51.8322Z" fill="#1742E7" stroke="#1742E7" stroke-width="0.663355" mask="url(#path-1-inside-1_171_1572)"></path></svg>