<svg xmlns="http://www.w3.org/2000/svg" viewBox="0 0 61 61" fill="none"><mask id="path-1-inside-1_171_1525" fill="white"><path d="M35.3639 8.5803C33.689 8.19769 31.9821 8.00166 30.2888 8.00166C28.5955 8.00166 26.8868 8.19516 25.2136 8.5803C24.7833 8.67957 24.4798 9.06218 24.4798 9.50134V13.0523C22.9531 13.5568 21.5031 14.2548 20.1567 15.1375L17.378 12.9217C17.0337 12.6471 16.5449 12.6471 16.2006 12.9217C14.8561 13.991 13.6404 15.2047 12.5844 16.5292C11.5283 17.853 10.6142 19.3099 9.87094 20.8592C9.67932 21.2556 9.78989 21.7331 10.1342 22.0077L12.9079 24.2211C12.3494 25.7295 11.9913 27.299 11.843 28.9048L8.38009 29.6951C7.94973 29.7944 7.64628 30.1745 7.64377 30.6162C7.64126 32.3345 7.83288 34.0434 8.2092 35.6937C8.58553 37.3441 9.15474 38.9675 9.90232 40.5144C10.0939 40.9109 10.535 41.1226 10.9653 41.0259L14.4283 40.2355C15.2589 41.6114 16.2634 42.8679 17.4232 43.9868L15.8808 47.1884C15.6892 47.5848 15.7973 48.0623 16.1422 48.3369C17.4842 49.4087 18.9386 50.3253 20.4653 51.0592C21.9919 51.793 23.6154 52.3609 25.2884 52.741C25.7188 52.8403 26.1573 52.626 26.3514 52.2296L27.8938 49.028C29.5015 49.2372 31.0867 49.2372 32.6944 49.028L34.2368 52.2296C34.3964 52.5626 34.7319 52.7655 35.0881 52.7655C35.1578 52.7655 35.2276 52.7586 35.2973 52.7429C36.9722 52.3622 38.5964 51.7974 40.1204 51.061C41.6471 50.3272 43.1015 49.4105 44.4435 48.3387C44.7878 48.0642 44.8959 47.5867 44.7049 47.1903L43.1625 43.9887C44.3223 42.8698 45.3262 41.6132 46.1574 40.2374L49.6204 41.0277C50.0507 41.1245 50.4918 40.9128 50.6834 40.5163C51.431 38.9695 52.0008 37.348 52.3765 35.6956C52.7528 34.0451 52.9438 32.3362 52.9419 30.618C52.9419 30.177 52.636 29.7938 52.2056 29.697L48.7427 28.9066C48.5919 27.3014 48.2363 25.7321 47.6778 24.223L50.4515 22.0095C50.7958 21.735 50.9039 21.2575 50.7148 20.8611C49.9715 19.3118 49.0574 17.8573 48.0013 16.5311C46.9452 15.2073 45.7295 13.9936 44.3851 12.9218C44.0408 12.6472 43.552 12.6472 43.2077 12.9218L40.429 15.1376C39.0801 14.2549 37.6325 13.5569 36.1059 13.0524L36.1046 9.50338C36.1002 9.06234 35.7943 8.67894 35.3639 8.5803ZM39.9194 17.0845C40.2637 17.3301 40.728 17.3163 41.0566 17.0531L43.7813 14.8798C44.7853 15.7399 45.7044 16.6905 46.5192 17.7102C47.3322 18.7305 48.0547 19.8381 48.6697 21.0093L45.95 23.1773C45.6214 23.4406 45.5039 23.8892 45.666 24.2787C46.3841 26.0102 46.8007 27.8428 46.9043 29.7233C46.9269 30.1442 47.2266 30.4998 47.6381 30.5922L51.0339 31.3668C50.9886 32.6887 50.8177 33.9992 50.5275 35.2714C50.2372 36.5436 49.8207 37.7976 49.2892 39.0089L45.8959 38.2342C45.4862 38.1394 45.0628 38.3291 44.858 38.6979C43.9483 40.3395 42.7771 41.8078 41.3749 43.0619C41.0596 43.3433 40.9697 43.7982 41.1519 44.1764L42.6629 47.3152C41.5999 48.1031 40.4696 48.7879 39.2942 49.3553C38.1187 49.9226 36.878 50.3775 35.5993 50.7174L34.0883 47.5785C33.9288 47.2474 33.5952 47.0426 33.237 47.0426C33.1855 47.0426 33.1315 47.047 33.0794 47.0564C32.1451 47.2141 31.2059 47.2952 30.2874 47.2952C29.3689 47.2952 28.4296 47.2141 27.4955 47.0564C27.0789 46.9867 26.6693 47.1984 26.4865 47.5785L24.9755 50.7174C23.6964 50.3794 22.4581 49.9226 21.2807 49.3553C20.1052 48.7899 18.9749 48.1057 17.912 47.3153L19.4229 44.1764C19.6051 43.7957 19.5153 43.3408 19.2024 43.0619C17.7995 41.8078 16.6265 40.3396 15.7194 38.6979C15.5146 38.3285 15.0936 38.1394 14.6815 38.2343L11.2882 39.0089C10.7567 37.7976 10.3401 36.5436 10.0499 35.2714C9.75961 33.9992 9.59061 32.6886 9.5435 31.3668L12.9392 30.5922C13.3514 30.4973 13.651 30.1442 13.673 29.7233C13.7767 27.843 14.1932 26.0128 14.9113 24.2787C15.0734 23.8892 14.9566 23.4387 14.6274 23.1773L11.9076 21.0093C12.5221 19.8382 13.2427 18.7306 14.0582 17.7102C14.873 16.6899 15.7897 15.74 16.7961 14.8799L19.5208 17.0531C19.8494 17.3163 20.3155 17.3301 20.6579 17.0845C22.1915 15.9944 23.8822 15.1795 25.6834 14.662C26.0886 14.5451 26.3682 14.1757 26.3682 13.7523L26.3663 10.2692C28.9623 9.7691 31.6086 9.7691 34.2044 10.2692V13.7505C34.2044 14.1714 34.4834 14.5434 34.8892 14.6602C36.6943 15.1779 38.3855 15.9953 39.919 17.0846L39.9194 17.0845Z"></path><path d="M19.4139 30.2287C19.4139 36.2248 24.2936 41.1046 30.2897 41.1046C36.2858 41.1046 41.1656 36.2248 41.1656 30.2287C41.1656 24.2326 36.2858 19.3529 30.2897 19.3529C24.2936 19.3535 19.4139 24.2301 19.4139 30.2287ZM39.2738 30.2287C39.2738 35.1826 35.2435 39.2128 30.2897 39.2128C25.336 39.2128 21.3056 35.1825 21.3056 30.2287C21.3056 25.275 25.336 21.2446 30.2897 21.2446C35.2435 21.2446 39.2738 25.2731 39.2738 30.2287Z"></path><path d="M26.4553 29.8073C26.084 29.4404 25.4846 29.4423 25.1177 29.8142C24.7508 30.1856 24.7527 30.7849 25.1246 31.1518L28.4507 34.4457C28.6354 34.6279 28.876 34.7203 29.1173 34.7203C29.3604 34.7203 29.6017 34.6279 29.7857 34.4432L35.9327 28.2962C36.3021 27.9268 36.3021 27.3281 35.9327 26.9587C35.5633 26.5892 34.9645 26.5892 34.5951 26.9587L29.1148 32.439L26.4553 29.8073Z"></path><path d="M39.9783 8.45646C40.1178 8.84158 40.4803 9.08032 40.8679 9.08032C40.976 9.08032 41.084 9.0621 41.1902 9.02378C41.6809 8.84598 41.9353 8.30316 41.7575 7.8125L40.6631 4.79491C51.2235 9.00799 58.1877 19.1808 58.1877 30.7006C58.1877 46.0842 45.6728 58.5991 30.2892 58.5991C24.8195 58.5991 19.5239 57.0159 14.9753 54.0235C14.5387 53.7351 13.9531 53.857 13.6647 54.2937C13.3764 54.7303 13.4982 55.3159 13.9349 55.6042C18.7939 58.8015 24.4482 60.4902 30.287 60.4902C38.2447 60.4902 45.7246 57.3916 51.3516 51.7649C56.9786 46.1383 60.0769 38.6581 60.0769 30.7003C60.0769 24.2581 58.0552 18.1295 54.2272 12.9715C51.0029 8.6257 46.754 5.29528 41.8359 3.23273L44.3395 2.32552C44.8302 2.14772 45.0846 1.6049 44.9068 1.11424C44.729 0.623565 44.1862 0.369122 43.6955 0.546926L38.7643 2.33493C38.5281 2.42038 38.3365 2.59629 38.2309 2.82373C38.1254 3.05116 38.1141 3.30999 38.1995 3.54623L39.9783 8.45646Z"></path><path d="M5.67214 51.5072C5.15005 51.5072 4.7266 51.9307 4.7266 52.4528C4.7266 52.9748 5.15005 53.3983 5.67214 53.3983H11.3466C11.8687 53.3983 12.2921 52.9748 12.2921 52.4528V47.2514C12.2921 46.7293 11.8687 46.3058 11.3466 46.3058C10.8245 46.3058 10.401 46.7293 10.401 47.2514V50.2575C5.28953 45.0561 2.39192 38.044 2.39192 30.7016C2.39192 15.318 14.9068 2.80308 30.2904 2.80308C31.8303 2.80308 33.3776 2.92937 34.8837 3.17941C35.397 3.26485 35.8858 2.91617 35.9712 2.40035C36.0567 1.88455 35.708 1.39827 35.1922 1.31283C33.5819 1.04708 31.934 0.911999 30.288 0.911999C22.3303 0.911999 14.8504 4.01065 9.22338 9.63731C3.59785 15.2616 0.5 22.7441 0.5 30.7019C0.5 38.5087 3.56472 45.9618 8.97521 51.5076L5.67214 51.5072Z"></path></mask><path d="M35.3639 8.5803C33.689 8.19769 31.9821 8.00166 30.2888 8.00166C28.5955 8.00166 26.8868 8.19516 25.2136 8.5803C24.7833 8.67957 24.4798 9.06218 24.4798 9.50134V13.0523C22.9531 13.5568 21.5031 14.2548 20.1567 15.1375L17.378 12.9217C17.0337 12.6471 16.5449 12.6471 16.2006 12.9217C14.8561 13.991 13.6404 15.2047 12.5844 16.5292C11.5283 17.853 10.6142 19.3099 9.87094 20.8592C9.67932 21.2556 9.78989 21.7331 10.1342 22.0077L12.9079 24.2211C12.3494 25.7295 11.9913 27.299 11.843 28.9048L8.38009 29.6951C7.94973 29.7944 7.64628 30.1745 7.64377 30.6162C7.64126 32.3345 7.83288 34.0434 8.2092 35.6937C8.58553 37.3441 9.15474 38.9675 9.90232 40.5144C10.0939 40.9109 10.535 41.1226 10.9653 41.0259L14.4283 40.2355C15.2589 41.6114 16.2634 42.8679 17.4232 43.9868L15.8808 47.1884C15.6892 47.5848 15.7973 48.0623 16.1422 48.3369C17.4842 49.4087 18.9386 50.3253 20.4653 51.0592C21.9919 51.793 23.6154 52.3609 25.2884 52.741C25.7188 52.8403 26.1573 52.626 26.3514 52.2296L27.8938 49.028C29.5015 49.2372 31.0867 49.2372 32.6944 49.028L34.2368 52.2296C34.3964 52.5626 34.7319 52.7655 35.0881 52.7655C35.1578 52.7655 35.2276 52.7586 35.2973 52.7429C36.9722 52.3622 38.5964 51.7974 40.1204 51.061C41.6471 50.3272 43.1015 49.4105 44.4435 48.3387C44.7878 48.0642 44.8959 47.5867 44.7049 47.1903L43.1625 43.9887C44.3223 42.8698 45.3262 41.6132 46.1574 40.2374L49.6204 41.0277C50.0507 41.1245 50.4918 40.9128 50.6834 40.5163C51.431 38.9695 52.0008 37.348 52.3765 35.6956C52.7528 34.0451 52.9438 32.3362 52.9419 30.618C52.9419 30.177 52.636 29.7938 52.2056 29.697L48.7427 28.9066C48.5919 27.3014 48.2363 25.7321 47.6778 24.223L50.4515 22.0095C50.7958 21.735 50.9039 21.2575 50.7148 20.8611C49.9715 19.3118 49.0574 17.8573 48.0013 16.5311C46.9452 15.2073 45.7295 13.9936 44.3851 12.9218C44.0408 12.6472 43.552 12.6472 43.2077 12.9218L40.429 15.1376C39.0801 14.2549 37.6325 13.5569 36.1059 13.0524L36.1046 9.50338C36.1002 9.06234 35.7943 8.67894 35.3639 8.5803ZM39.9194 17.0845C40.2637 17.3301 40.728 17.3163 41.0566 17.0531L43.7813 14.8798C44.7853 15.7399 45.7044 16.6905 46.5192 17.7102C47.3322 18.7305 48.0547 19.8381 48.6697 21.0093L45.95 23.1773C45.6214 23.4406 45.5039 23.8892 45.666 24.2787C46.3841 26.0102 46.8007 27.8428 46.9043 29.7233C46.9269 30.1442 47.2266 30.4998 47.6381 30.5922L51.0339 31.3668C50.9886 32.6887 50.8177 33.9992 50.5275 35.2714C50.2372 36.5436 49.8207 37.7976 49.2892 39.0089L45.8959 38.2342C45.4862 38.1394 45.0628 38.3291 44.858 38.6979C43.9483 40.3395 42.7771 41.8078 41.3749 43.0619C41.0596 43.3433 40.9697 43.7982 41.1519 44.1764L42.6629 47.3152C41.5999 48.1031 40.4696 48.7879 39.2942 49.3553C38.1187 49.9226 36.878 50.3775 35.5993 50.7174L34.0883 47.5785C33.9288 47.2474 33.5952 47.0426 33.237 47.0426C33.1855 47.0426 33.1315 47.047 33.0794 47.0564C32.1451 47.2141 31.2059 47.2952 30.2874 47.2952C29.3689 47.2952 28.4296 47.2141 27.4955 47.0564C27.0789 46.9867 26.6693 47.1984 26.4865 47.5785L24.9755 50.7174C23.6964 50.3794 22.4581 49.9226 21.2807 49.3553C20.1052 48.7899 18.9749 48.1057 17.912 47.3153L19.4229 44.1764C19.6051 43.7957 19.5153 43.3408 19.2024 43.0619C17.7995 41.8078 16.6265 40.3396 15.7194 38.6979C15.5146 38.3285 15.0936 38.1394 14.6815 38.2343L11.2882 39.0089C10.7567 37.7976 10.3401 36.5436 10.0499 35.2714C9.75961 33.9992 9.59061 32.6886 9.5435 31.3668L12.9392 30.5922C13.3514 30.4973 13.651 30.1442 13.673 29.7233C13.7767 27.843 14.1932 26.0128 14.9113 24.2787C15.0734 23.8892 14.9566 23.4387 14.6274 23.1773L11.9076 21.0093C12.5221 19.8382 13.2427 18.7306 14.0582 17.7102C14.873 16.6899 15.7897 15.74 16.7961 14.8799L19.5208 17.0531C19.8494 17.3163 20.3155 17.3301 20.6579 17.0845C22.1915 15.9944 23.8822 15.1795 25.6834 14.662C26.0886 14.5451 26.3682 14.1757 26.3682 13.7523L26.3663 10.2692C28.9623 9.7691 31.6086 9.7691 34.2044 10.2692V13.7505C34.2044 14.1714 34.4834 14.5434 34.8892 14.6602C36.6943 15.1779 38.3855 15.9953 39.919 17.0846L39.9194 17.0845Z" fill="#1742E7"></path><path d="M19.4139 30.2287C19.4139 36.2248 24.2936 41.1046 30.2897 41.1046C36.2858 41.1046 41.1656 36.2248 41.1656 30.2287C41.1656 24.2326 36.2858 19.3529 30.2897 19.3529C24.2936 19.3535 19.4139 24.2301 19.4139 30.2287ZM39.2738 30.2287C39.2738 35.1826 35.2435 39.2128 30.2897 39.2128C25.336 39.2128 21.3056 35.1825 21.3056 30.2287C21.3056 25.275 25.336 21.2446 30.2897 21.2446C35.2435 21.2446 39.2738 25.2731 39.2738 30.2287Z" fill="#1742E7"></path><path d="M26.4553 29.8073C26.084 29.4404 25.4846 29.4423 25.1177 29.8142C24.7508 30.1856 24.7527 30.7849 25.1246 31.1518L28.4507 34.4457C28.6354 34.6279 28.876 34.7203 29.1173 34.7203C29.3604 34.7203 29.6017 34.6279 29.7857 34.4432L35.9327 28.2962C36.3021 27.9268 36.3021 27.3281 35.9327 26.9587C35.5633 26.5892 34.9645 26.5892 34.5951 26.9587L29.1148 32.439L26.4553 29.8073Z" fill="#1742E7"></path><path d="M39.9783 8.45646C40.1178 8.84158 40.4803 9.08032 40.8679 9.08032C40.976 9.08032 41.084 9.0621 41.1902 9.02378C41.6809 8.84598 41.9353 8.30316 41.7575 7.8125L40.6631 4.79491C51.2235 9.00799 58.1877 19.1808 58.1877 30.7006C58.1877 46.0842 45.6728 58.5991 30.2892 58.5991C24.8195 58.5991 19.5239 57.0159 14.9753 54.0235C14.5387 53.7351 13.9531 53.857 13.6647 54.2937C13.3764 54.7303 13.4982 55.3159 13.9349 55.6042C18.7939 58.8015 24.4482 60.4902 30.287 60.4902C38.2447 60.4902 45.7246 57.3916 51.3516 51.7649C56.9786 46.1383 60.0769 38.6581 60.0769 30.7003C60.0769 24.2581 58.0552 18.1295 54.2272 12.9715C51.0029 8.6257 46.754 5.29528 41.8359 3.23273L44.3395 2.32552C44.8302 2.14772 45.0846 1.6049 44.9068 1.11424C44.729 0.623565 44.1862 0.369122 43.6955 0.546926L38.7643 2.33493C38.5281 2.42038 38.3365 2.59629 38.2309 2.82373C38.1254 3.05116 38.1141 3.30999 38.1995 3.54623L39.9783 8.45646Z" fill="#1742E7"></path><path d="M5.67214 51.5072C5.15005 51.5072 4.7266 51.9307 4.7266 52.4528C4.7266 52.9748 5.15005 53.3983 5.67214 53.3983H11.3466C11.8687 53.3983 12.2921 52.9748 12.2921 52.4528V47.2514C12.2921 46.7293 11.8687 46.3058 11.3466 46.3058C10.8245 46.3058 10.401 46.7293 10.401 47.2514V50.2575C5.28953 45.0561 2.39192 38.044 2.39192 30.7016C2.39192 15.318 14.9068 2.80308 30.2904 2.80308C31.8303 2.80308 33.3776 2.92937 34.8837 3.17941C35.397 3.26485 35.8858 2.91617 35.9712 2.40035C36.0567 1.88455 35.708 1.39827 35.1922 1.31283C33.5819 1.04708 31.934 0.911999 30.288 0.911999C22.3303 0.911999 14.8504 4.01065 9.22338 9.63731C3.59785 15.2616 0.5 22.7441 0.5 30.7019C0.5 38.5087 3.56472 45.9618 8.97521 51.5076L5.67214 51.5072Z" fill="#1742E7"></path><path d="M35.3639 8.5803C33.689 8.19769 31.9821 8.00166 30.2888 8.00166C28.5955 8.00166 26.8868 8.19516 25.2136 8.5803C24.7833 8.67957 24.4798 9.06218 24.4798 9.50134V13.0523C22.9531 13.5568 21.5031 14.2548 20.1567 15.1375L17.378 12.9217C17.0337 12.6471 16.5449 12.6471 16.2006 12.9217C14.8561 13.991 13.6404 15.2047 12.5844 16.5292C11.5283 17.853 10.6142 19.3099 9.87094 20.8592C9.67932 21.2556 9.78989 21.7331 10.1342 22.0077L12.9079 24.2211C12.3494 25.7295 11.9913 27.299 11.843 28.9048L8.38009 29.6951C7.94973 29.7944 7.64628 30.1745 7.64377 30.6162C7.64126 32.3345 7.83288 34.0434 8.2092 35.6937C8.58553 37.3441 9.15474 38.9675 9.90232 40.5144C10.0939 40.9109 10.535 41.1226 10.9653 41.0259L14.4283 40.2355C15.2589 41.6114 16.2634 42.8679 17.4232 43.9868L15.8808 47.1884C15.6892 47.5848 15.7973 48.0623 16.1422 48.3369C17.4842 49.4087 18.9386 50.3253 20.4653 51.0592C21.9919 51.793 23.6154 52.3609 25.2884 52.741C25.7188 52.8403 26.1573 52.626 26.3514 52.2296L27.8938 49.028C29.5015 49.2372 31.0867 49.2372 32.6944 49.028L34.2368 52.2296C34.3964 52.5626 34.7319 52.7655 35.0881 52.7655C35.1578 52.7655 35.2276 52.7586 35.2973 52.7429C36.9722 52.3622 38.5964 51.7974 40.1204 51.061C41.6471 50.3272 43.1015 49.4105 44.4435 48.3387C44.7878 48.0642 44.8959 47.5867 44.7049 47.1903L43.1625 43.9887C44.3223 42.8698 45.3262 41.6132 46.1574 40.2374L49.6204 41.0277C50.0507 41.1245 50.4918 40.9128 50.6834 40.5163C51.431 38.9695 52.0008 37.348 52.3765 35.6956C52.7528 34.0451 52.9438 32.3362 52.9419 30.618C52.9419 30.177 52.636 29.7938 52.2056 29.697L48.7427 28.9066C48.5919 27.3014 48.2363 25.7321 47.6778 24.223L50.4515 22.0095C50.7958 21.735 50.9039 21.2575 50.7148 20.8611C49.9715 19.3118 49.0574 17.8573 48.0013 16.5311C46.9452 15.2073 45.7295 13.9936 44.3851 12.9218C44.0408 12.6472 43.552 12.6472 43.2077 12.9218L40.429 15.1376C39.0801 14.2549 37.6325 13.5569 36.1059 13.0524L36.1046 9.50338C36.1002 9.06234 35.7943 8.67894 35.3639 8.5803ZM39.9194 17.0845C40.2637 17.3301 40.728 17.3163 41.0566 17.0531L43.7813 14.8798C44.7853 15.7399 45.7044 16.6905 46.5192 17.7102C47.3322 18.7305 48.0547 19.8381 48.6697 21.0093L45.95 23.1773C45.6214 23.4406 45.5039 23.8892 45.666 24.2787C46.3841 26.0102 46.8007 27.8428 46.9043 29.7233C46.9269 30.1442 47.2266 30.4998 47.6381 30.5922L51.0339 31.3668C50.9886 32.6887 50.8177 33.9992 50.5275 35.2714C50.2372 36.5436 49.8207 37.7976 49.2892 39.0089L45.8959 38.2342C45.4862 38.1394 45.0628 38.3291 44.858 38.6979C43.9483 40.3395 42.7771 41.8078 41.3749 43.0619C41.0596 43.3433 40.9697 43.7982 41.1519 44.1764L42.6629 47.3152C41.5999 48.1031 40.4696 48.7879 39.2942 49.3553C38.1187 49.9226 36.878 50.3775 35.5993 50.7174L34.0883 47.5785C33.9288 47.2474 33.5952 47.0426 33.237 47.0426C33.1855 47.0426 33.1315 47.047 33.0794 47.0564C32.1451 47.2141 31.2059 47.2952 30.2874 47.2952C29.3689 47.2952 28.4296 47.2141 27.4955 47.0564C27.0789 46.9867 26.6693 47.1984 26.4865 47.5785L24.9755 50.7174C23.6964 50.3794 22.4581 49.9226 21.2807 49.3553C20.1052 48.7899 18.9749 48.1057 17.912 47.3153L19.4229 44.1764C19.6051 43.7957 19.5153 43.3408 19.2024 43.0619C17.7995 41.8078 16.6265 40.3396 15.7194 38.6979C15.5146 38.3285 15.0936 38.1394 14.6815 38.2343L11.2882 39.0089C10.7567 37.7976 10.3401 36.5436 10.0499 35.2714C9.75961 33.9992 9.59061 32.6886 9.5435 31.3668L12.9392 30.5922C13.3514 30.4973 13.651 30.1442 13.673 29.7233C13.7767 27.843 14.1932 26.0128 14.9113 24.2787C15.0734 23.8892 14.9566 23.4387 14.6274 23.1773L11.9076 21.0093C12.5221 19.8382 13.2427 18.7306 14.0582 17.7102C14.873 16.6899 15.7897 15.74 16.7961 14.8799L19.5208 17.0531C19.8494 17.3163 20.3155 17.3301 20.6579 17.0845C22.1915 15.9944 23.8822 15.1795 25.6834 14.662C26.0886 14.5451 26.3682 14.1757 26.3682 13.7523L26.3663 10.2692C28.9623 9.7691 31.6086 9.7691 34.2044 10.2692V13.7505C34.2044 14.1714 34.4834 14.5434 34.8892 14.6602C36.6943 15.1779 38.3855 15.9953 39.919 17.0846L39.9194 17.0845Z" stroke="#1742E7" stroke-width="0.6" mask="url(#path-1-inside-1_171_1525)"></path><path d="M19.4139 30.2287C19.4139 36.2248 24.2936 41.1046 30.2897 41.1046C36.2858 41.1046 41.1656 36.2248 41.1656 30.2287C41.1656 24.2326 36.2858 19.3529 30.2897 19.3529C24.2936 19.3535 19.4139 24.2301 19.4139 30.2287ZM39.2738 30.2287C39.2738 35.1826 35.2435 39.2128 30.2897 39.2128C25.336 39.2128 21.3056 35.1825 21.3056 30.2287C21.3056 25.275 25.336 21.2446 30.2897 21.2446C35.2435 21.2446 39.2738 25.2731 39.2738 30.2287Z" stroke="#1742E7" stroke-width="0.6" mask="url(#path-1-inside-1_171_1525)"></path><path d="M26.4553 29.8073C26.084 29.4404 25.4846 29.4423 25.1177 29.8142C24.7508 30.1856 24.7527 30.7849 25.1246 31.1518L28.4507 34.4457C28.6354 34.6279 28.876 34.7203 29.1173 34.7203C29.3604 34.7203 29.6017 34.6279 29.7857 34.4432L35.9327 28.2962C36.3021 27.9268 36.3021 27.3281 35.9327 26.9587C35.5633 26.5892 34.9645 26.5892 34.5951 26.9587L29.1148 32.439L26.4553 29.8073Z" stroke="#1742E7" stroke-width="0.6" mask="url(#path-1-inside-1_171_1525)"></path><path d="M39.9783 8.45646C40.1178 8.84158 40.4803 9.08032 40.8679 9.08032C40.976 9.08032 41.084 9.0621 41.1902 9.02378C41.6809 8.84598 41.9353 8.30316 41.7575 7.8125L40.6631 4.79491C51.2235 9.00799 58.1877 19.1808 58.1877 30.7006C58.1877 46.0842 45.6728 58.5991 30.2892 58.5991C24.8195 58.5991 19.5239 57.0159 14.9753 54.0235C14.5387 53.7351 13.9531 53.857 13.6647 54.2937C13.3764 54.7303 13.4982 55.3159 13.9349 55.6042C18.7939 58.8015 24.4482 60.4902 30.287 60.4902C38.2447 60.4902 45.7246 57.3916 51.3516 51.7649C56.9786 46.1383 60.0769 38.6581 60.0769 30.7003C60.0769 24.2581 58.0552 18.1295 54.2272 12.9715C51.0029 8.6257 46.754 5.29528 41.8359 3.23273L44.3395 2.32552C44.8302 2.14772 45.0846 1.6049 44.9068 1.11424C44.729 0.623565 44.1862 0.369122 43.6955 0.546926L38.7643 2.33493C38.5281 2.42038 38.3365 2.59629 38.2309 2.82373C38.1254 3.05116 38.1141 3.30999 38.1995 3.54623L39.9783 8.45646Z" stroke="#1742E7" stroke-width="0.6" mask="url(#path-1-inside-1_171_1525)"></path><path d="M5.67214 51.5072C5.15005 51.5072 4.7266 51.9307 4.7266 52.4528C4.7266 52.9748 5.15005 53.3983 5.67214 53.3983H11.3466C11.8687 53.3983 12.2921 52.9748 12.2921 52.4528V47.2514C12.2921 46.7293 11.8687 46.3058 11.3466 46.3058C10.8245 46.3058 10.401 46.7293 10.401 47.2514V50.2575C5.28953 45.0561 2.39192 38.044 2.39192 30.7016C2.39192 15.318 14.9068 2.80308 30.2904 2.80308C31.8303 2.80308 33.3776 2.92937 34.8837 3.17941C35.397 3.26485 35.8858 2.91617 35.9712 2.40035C36.0567 1.88455 35.708 1.39827 35.1922 1.31283C33.5819 1.04708 31.934 0.911999 30.288 0.911999C22.3303 0.911999 14.8504 4.01065 9.22338 9.63731C3.59785 15.2616 0.5 22.7441 0.5 30.7019C0.5 38.5087 3.56472 45.9618 8.97521 51.5076L5.67214 51.5072Z" stroke="#1742E7" stroke-width="0.6" mask="url(#path-1-inside-1_171_1525)"></path></svg>