<svg xmlns="http://www.w3.org/2000/svg" viewBox="0 0 60 61" fill="none"><mask id="path-1-inside-1_171_1561" fill="white"><path fill-rule="evenodd" clip-rule="evenodd" d="M3.51456 1.05664C1.87509 1.58344 0.617681 2.92804 0.158151 4.6458C0.0308753 5.12185 0.0012244 8.34348 5.24281e-05 21.8199C-0.00123674 36.4367 0.0202103 38.4909 0.180536 39.1064C0.544902 40.5055 1.44732 41.6263 2.72371 42.2649C3.17598 42.4911 3.60796 42.6763 3.68356 42.6763C3.75915 42.6763 3.91865 42.294 4.03796 41.8266C4.15727 41.3592 4.27318 40.9242 4.29556 40.8597C4.31783 40.7952 4.09843 40.6449 3.80779 40.5257C3.14961 40.2555 2.41853 39.4434 2.23699 38.7806C2.13491 38.4083 2.10866 34.0319 2.13351 21.5715L2.16679 4.86179L2.5226 4.28495C2.9226 3.63661 3.81716 3.02391 4.53792 2.90484C5.36557 2.76807 45.0582 2.81858 45.7048 2.95722C47.0105 3.23732 47.8756 4.35046 48.0084 5.92172L48.0838 6.81394H49.0628H50.0418V5.94727C50.0418 3.67048 48.6423 1.7154 46.5501 1.06918C45.8119 0.84123 45.414 0.837011 24.9786 0.843222C5.40413 0.849082 4.12058 0.861856 3.51456 1.05664ZM3.98335 5.81777V6.81394H5.03812H6.09289V5.81777V4.82159H5.03812H3.98335V5.81777ZM7.96805 5.81777V6.81394H9.02282H10.0776V5.81777V4.82159H9.02282H7.96805V5.81777ZM11.9527 5.81777V6.81394H13.0075H14.0623V5.81777V4.82159H13.0075H11.9527V5.81777ZM9.72882 8.99334C8.51723 9.32044 7.50113 10.0766 6.78342 11.1852C5.9355 12.4948 5.9757 11.5678 5.9757 29.8312C5.9757 41.4017 6.0139 46.3621 6.10637 46.8017C6.50707 48.7072 7.93465 50.2217 9.77991 50.6993C10.3701 50.852 11.5284 50.88 17.2512 50.88H24.024V49.8253V48.7705L17.1973 48.7679C10.5829 48.7655 10.3542 48.758 9.8432 48.5266C9.13498 48.2061 8.69748 47.7754 8.36453 47.0711L8.08759 46.4852V29.8432V13.2012L8.36347 12.6086C8.68611 11.9157 9.41801 11.2445 10.061 11.0519C10.398 10.9509 15.8253 10.9158 31.1344 10.9158H51.7537L52.3629 11.2194C52.6979 11.3864 53.132 11.7159 53.3275 11.9519C54.0663 12.8435 54.0327 11.935 53.9988 30.0838L53.9679 46.6024L53.6324 47.2398L53.2968 47.8773L53.984 48.4949C54.3619 48.8345 54.7238 49.0981 54.7883 49.0807C55.0058 49.0221 55.621 47.9955 55.8222 47.3552C56.0074 46.7663 56.0198 45.4594 55.9912 29.6088L55.9602 12.498L55.5749 11.7102C55.0419 10.6204 54.2433 9.83587 53.1219 9.3004L52.2099 8.86489L31.2903 8.84251C13.1498 8.82305 10.2854 8.84309 9.72882 8.99334ZM9.98513 13.8165L10.019 14.8419L11.0445 14.8758L12.0699 14.9097V13.8503V12.791H11.0106H9.95126L9.98513 13.8165ZM13.9946 12.9485C13.9613 13.0351 13.9498 13.4965 13.9689 13.974L14.0037 14.8419L15.0292 14.8758L16.0546 14.9097V13.8503V12.791H15.0548C14.3259 12.791 14.0386 12.8337 13.9946 12.9485ZM18.047 13.8458V14.9005H19.0432H20.0393V13.8458V12.791H19.0432H18.047V13.8458ZM40.041 16.8539C39.998 16.8968 39.9628 18.9993 39.9628 21.5259V26.1199L39.4648 26.0236C39.1909 25.9706 38.7697 25.925 38.5289 25.9222L38.0911 25.9171L38.0602 22.3719L38.0291 18.8266H37.0329H36.0367L36.0057 22.3719L35.9747 25.9171L35.5369 25.9222C35.2962 25.925 34.8764 25.9704 34.6042 26.023L34.1092 26.1189L34.0769 24.4651L34.0444 22.8113H33.0482H32.052L31.9934 24.7767L31.9348 26.7421L31.0286 27.184L30.1223 27.6258L30.091 24.7498L30.0597 21.8738L29.0342 21.8399L28.0087 21.806V25.4319V29.0576L27.0126 30.0742L26.0164 31.0907V27.4492V23.8075H25.0202H24.024V29.1781V34.5486L23.7309 35.4105C23.2091 36.9448 23.0358 38.1248 23.0472 40.0686L23.0576 41.8559H16.509H9.9604V42.8511V43.8463L16.7701 43.8766L23.5799 43.9068L23.8443 44.61C25.6319 49.3625 29.6052 52.7163 34.5472 53.6443C35.8711 53.8928 38.1987 53.8912 39.5354 53.6407C41.2327 53.3227 43.3544 52.4831 44.5812 51.6441L45.0391 51.3309L49.7999 56.0863C54.4556 60.737 54.5708 60.8418 55.0219 60.8418C55.4605 60.8418 55.5709 60.7539 57.2745 59.0503C58.8899 57.435 59.066 57.2194 59.066 56.8562C59.066 56.4819 58.7199 56.1069 54.181 51.5633L49.296 46.6731L49.7242 45.7588C49.9598 45.2559 50.225 44.6334 50.3136 44.3756L50.4747 43.9068L51.2544 43.8721L52.0341 43.8376V42.8467V41.8559H51.5212H51.0082L51.0186 40.0686C51.03 38.1248 50.8568 36.9448 50.3349 35.4105L50.0418 34.5486V29.7055V24.8623H49.0456H48.0494V27.98V31.0978L47.0533 30.0674L46.0571 29.037V24.8942V20.7513L45.0316 20.7851L44.0061 20.819L43.9751 24.222L43.944 27.6251L43.0082 27.1776L42.0724 26.7302V21.7529V16.7757H41.0958C40.5586 16.7757 40.0839 16.8109 40.041 16.8539ZM16.0546 33.8279V39.8635H17.0508H18.047V33.8279V27.7922H17.0508H16.0546V33.8279ZM39.4355 28.1314C45.0186 29.2898 48.987 34.1641 48.987 39.8635C48.987 45.265 45.2918 50.03 40.0214 51.4248C38.4088 51.8515 35.8658 51.8807 34.3014 51.4904C30.9893 50.6641 28.2999 48.6513 26.6581 45.7704C22.6463 38.7306 26.6441 29.8228 34.5718 28.1377C35.9344 27.848 38.0565 27.8452 39.4355 28.1314ZM35.5094 29.9134C31.9029 30.4623 28.7045 33.1661 27.5512 36.6406C26.2845 40.4568 27.2791 44.3831 30.2136 47.1514C32.1009 48.9318 34.3796 49.8253 37.0329 49.8253C40.4302 49.8253 43.4791 48.2092 45.3466 45.4184C46.5082 43.6826 47.0305 41.9119 47.0197 39.7463C46.9933 34.4163 42.7927 30.0743 37.4431 29.8472C36.7985 29.8198 35.9283 29.8496 35.5094 29.9134ZM20.0393 35.3514V39.8635H21.0355H22.0317V35.3514V30.8393H21.0355H20.0393V35.3514ZM35.9781 35.9374V39.8635H37.0329H38.0877V35.9374V32.0113H38.3437C38.4845 32.0113 38.9064 32.0973 39.2812 32.2026L39.9628 32.3938V36.1287V39.8635H41.0176H42.0724V36.8164C42.0724 35.0395 42.1174 33.7693 42.1802 33.7693C42.4527 33.7693 43.6454 35.3145 44.125 36.289C44.9206 37.9055 45.1825 39.6309 44.8689 41.1917L44.7356 41.8559H37.0329H29.3303L29.1969 41.1917C28.8164 39.2971 29.3148 37.0318 30.4878 35.3245C30.9459 34.6579 31.7477 33.7693 31.8911 33.7693C31.9474 33.7693 31.9934 35.1405 31.9934 36.8164V39.8635H33.0482H34.103V36.1282V32.3929L34.7183 32.2116C35.0566 32.1119 35.4787 32.026 35.6559 32.0208L35.9781 32.0113V35.9374ZM12.0309 33.8474C11.9879 33.8903 11.9527 35.2615 11.9527 36.8946V39.8635H13.0075H14.0623V36.8164V33.7693H13.0857C12.5485 33.7693 12.0738 33.8044 12.0309 33.8474ZM43.8303 43.9496C43.8303 44.2361 42.3776 45.8061 41.6311 46.3264C40.2016 47.3225 38.8036 47.7577 37.0329 47.7577C35.2622 47.7577 33.8643 47.3225 32.4347 46.3264C31.6883 45.8061 30.2355 44.2361 30.2355 43.9496C30.2355 43.8937 33.2858 43.8482 37.0329 43.8482C40.7801 43.8482 43.8303 43.8937 43.8303 43.9496ZM55.7847 57.6186L55.0267 58.3835L50.8434 54.2014L46.6602 50.0195L47.3841 49.2266L48.108 48.4337L52.3254 52.6437L56.5426 56.8539L55.7847 57.6186Z"></path></mask><path fill-rule="evenodd" clip-rule="evenodd" d="M3.51456 1.05664C1.87509 1.58344 0.617681 2.92804 0.158151 4.6458C0.0308753 5.12185 0.0012244 8.34348 5.24281e-05 21.8199C-0.00123674 36.4367 0.0202103 38.4909 0.180536 39.1064C0.544902 40.5055 1.44732 41.6263 2.72371 42.2649C3.17598 42.4911 3.60796 42.6763 3.68356 42.6763C3.75915 42.6763 3.91865 42.294 4.03796 41.8266C4.15727 41.3592 4.27318 40.9242 4.29556 40.8597C4.31783 40.7952 4.09843 40.6449 3.80779 40.5257C3.14961 40.2555 2.41853 39.4434 2.23699 38.7806C2.13491 38.4083 2.10866 34.0319 2.13351 21.5715L2.16679 4.86179L2.5226 4.28495C2.9226 3.63661 3.81716 3.02391 4.53792 2.90484C5.36557 2.76807 45.0582 2.81858 45.7048 2.95722C47.0105 3.23732 47.8756 4.35046 48.0084 5.92172L48.0838 6.81394H49.0628H50.0418V5.94727C50.0418 3.67048 48.6423 1.7154 46.5501 1.06918C45.8119 0.84123 45.414 0.837011 24.9786 0.843222C5.40413 0.849082 4.12058 0.861856 3.51456 1.05664ZM3.98335 5.81777V6.81394H5.03812H6.09289V5.81777V4.82159H5.03812H3.98335V5.81777ZM7.96805 5.81777V6.81394H9.02282H10.0776V5.81777V4.82159H9.02282H7.96805V5.81777ZM11.9527 5.81777V6.81394H13.0075H14.0623V5.81777V4.82159H13.0075H11.9527V5.81777ZM9.72882 8.99334C8.51723 9.32044 7.50113 10.0766 6.78342 11.1852C5.9355 12.4948 5.9757 11.5678 5.9757 29.8312C5.9757 41.4017 6.0139 46.3621 6.10637 46.8017C6.50707 48.7072 7.93465 50.2217 9.77991 50.6993C10.3701 50.852 11.5284 50.88 17.2512 50.88H24.024V49.8253V48.7705L17.1973 48.7679C10.5829 48.7655 10.3542 48.758 9.8432 48.5266C9.13498 48.2061 8.69748 47.7754 8.36453 47.0711L8.08759 46.4852V29.8432V13.2012L8.36347 12.6086C8.68611 11.9157 9.41801 11.2445 10.061 11.0519C10.398 10.9509 15.8253 10.9158 31.1344 10.9158H51.7537L52.3629 11.2194C52.6979 11.3864 53.132 11.7159 53.3275 11.9519C54.0663 12.8435 54.0327 11.935 53.9988 30.0838L53.9679 46.6024L53.6324 47.2398L53.2968 47.8773L53.984 48.4949C54.3619 48.8345 54.7238 49.0981 54.7883 49.0807C55.0058 49.0221 55.621 47.9955 55.8222 47.3552C56.0074 46.7663 56.0198 45.4594 55.9912 29.6088L55.9602 12.498L55.5749 11.7102C55.0419 10.6204 54.2433 9.83587 53.1219 9.3004L52.2099 8.86489L31.2903 8.84251C13.1498 8.82305 10.2854 8.84309 9.72882 8.99334ZM9.98513 13.8165L10.019 14.8419L11.0445 14.8758L12.0699 14.9097V13.8503V12.791H11.0106H9.95126L9.98513 13.8165ZM13.9946 12.9485C13.9613 13.0351 13.9498 13.4965 13.9689 13.974L14.0037 14.8419L15.0292 14.8758L16.0546 14.9097V13.8503V12.791H15.0548C14.3259 12.791 14.0386 12.8337 13.9946 12.9485ZM18.047 13.8458V14.9005H19.0432H20.0393V13.8458V12.791H19.0432H18.047V13.8458ZM40.041 16.8539C39.998 16.8968 39.9628 18.9993 39.9628 21.5259V26.1199L39.4648 26.0236C39.1909 25.9706 38.7697 25.925 38.5289 25.9222L38.0911 25.9171L38.0602 22.3719L38.0291 18.8266H37.0329H36.0367L36.0057 22.3719L35.9747 25.9171L35.5369 25.9222C35.2962 25.925 34.8764 25.9704 34.6042 26.023L34.1092 26.1189L34.0769 24.4651L34.0444 22.8113H33.0482H32.052L31.9934 24.7767L31.9348 26.7421L31.0286 27.184L30.1223 27.6258L30.091 24.7498L30.0597 21.8738L29.0342 21.8399L28.0087 21.806V25.4319V29.0576L27.0126 30.0742L26.0164 31.0907V27.4492V23.8075H25.0202H24.024V29.1781V34.5486L23.7309 35.4105C23.2091 36.9448 23.0358 38.1248 23.0472 40.0686L23.0576 41.8559H16.509H9.9604V42.8511V43.8463L16.7701 43.8766L23.5799 43.9068L23.8443 44.61C25.6319 49.3625 29.6052 52.7163 34.5472 53.6443C35.8711 53.8928 38.1987 53.8912 39.5354 53.6407C41.2327 53.3227 43.3544 52.4831 44.5812 51.6441L45.0391 51.3309L49.7999 56.0863C54.4556 60.737 54.5708 60.8418 55.0219 60.8418C55.4605 60.8418 55.5709 60.7539 57.2745 59.0503C58.8899 57.435 59.066 57.2194 59.066 56.8562C59.066 56.4819 58.7199 56.1069 54.181 51.5633L49.296 46.6731L49.7242 45.7588C49.9598 45.2559 50.225 44.6334 50.3136 44.3756L50.4747 43.9068L51.2544 43.8721L52.0341 43.8376V42.8467V41.8559H51.5212H51.0082L51.0186 40.0686C51.03 38.1248 50.8568 36.9448 50.3349 35.4105L50.0418 34.5486V29.7055V24.8623H49.0456H48.0494V27.98V31.0978L47.0533 30.0674L46.0571 29.037V24.8942V20.7513L45.0316 20.7851L44.0061 20.819L43.9751 24.222L43.944 27.6251L43.0082 27.1776L42.0724 26.7302V21.7529V16.7757H41.0958C40.5586 16.7757 40.0839 16.8109 40.041 16.8539ZM16.0546 33.8279V39.8635H17.0508H18.047V33.8279V27.7922H17.0508H16.0546V33.8279ZM39.4355 28.1314C45.0186 29.2898 48.987 34.1641 48.987 39.8635C48.987 45.265 45.2918 50.03 40.0214 51.4248C38.4088 51.8515 35.8658 51.8807 34.3014 51.4904C30.9893 50.6641 28.2999 48.6513 26.6581 45.7704C22.6463 38.7306 26.6441 29.8228 34.5718 28.1377C35.9344 27.848 38.0565 27.8452 39.4355 28.1314ZM35.5094 29.9134C31.9029 30.4623 28.7045 33.1661 27.5512 36.6406C26.2845 40.4568 27.2791 44.3831 30.2136 47.1514C32.1009 48.9318 34.3796 49.8253 37.0329 49.8253C40.4302 49.8253 43.4791 48.2092 45.3466 45.4184C46.5082 43.6826 47.0305 41.9119 47.0197 39.7463C46.9933 34.4163 42.7927 30.0743 37.4431 29.8472C36.7985 29.8198 35.9283 29.8496 35.5094 29.9134ZM20.0393 35.3514V39.8635H21.0355H22.0317V35.3514V30.8393H21.0355H20.0393V35.3514ZM35.9781 35.9374V39.8635H37.0329H38.0877V35.9374V32.0113H38.3437C38.4845 32.0113 38.9064 32.0973 39.2812 32.2026L39.9628 32.3938V36.1287V39.8635H41.0176H42.0724V36.8164C42.0724 35.0395 42.1174 33.7693 42.1802 33.7693C42.4527 33.7693 43.6454 35.3145 44.125 36.289C44.9206 37.9055 45.1825 39.6309 44.8689 41.1917L44.7356 41.8559H37.0329H29.3303L29.1969 41.1917C28.8164 39.2971 29.3148 37.0318 30.4878 35.3245C30.9459 34.6579 31.7477 33.7693 31.8911 33.7693C31.9474 33.7693 31.9934 35.1405 31.9934 36.8164V39.8635H33.0482H34.103V36.1282V32.3929L34.7183 32.2116C35.0566 32.1119 35.4787 32.026 35.6559 32.0208L35.9781 32.0113V35.9374ZM12.0309 33.8474C11.9879 33.8903 11.9527 35.2615 11.9527 36.8946V39.8635H13.0075H14.0623V36.8164V33.7693H13.0857C12.5485 33.7693 12.0738 33.8044 12.0309 33.8474ZM43.8303 43.9496C43.8303 44.2361 42.3776 45.8061 41.6311 46.3264C40.2016 47.3225 38.8036 47.7577 37.0329 47.7577C35.2622 47.7577 33.8643 47.3225 32.4347 46.3264C31.6883 45.8061 30.2355 44.2361 30.2355 43.9496C30.2355 43.8937 33.2858 43.8482 37.0329 43.8482C40.7801 43.8482 43.8303 43.8937 43.8303 43.9496ZM55.7847 57.6186L55.0267 58.3835L50.8434 54.2014L46.6602 50.0195L47.3841 49.2266L48.108 48.4337L52.3254 52.6437L56.5426 56.8539L55.7847 57.6186Z" fill="#1742E7" stroke="#1742E7" stroke-width="0.6" mask="url(#path-1-inside-1_171_1561)"></path></svg>