<svg xmlns="http://www.w3.org/2000/svg" viewBox="0 0 72 81" fill="none"><path d="M71.875 57.6705L60.9853 38.812L67.1796 36.4112C67.6141 36.2388 67.9059 35.8209 67.9059 35.3534V27.7994C67.9059 27.3319 67.6207 26.9074 67.1796 26.7416L60.6305 24.2048C60.1629 22.6629 59.5395 21.164 58.7768 19.7447L61.6187 13.3183C61.8077 12.8938 61.7149 12.3897 61.3833 12.0614L56.0378 6.71595C55.7095 6.38766 55.2055 6.2915 54.781 6.48052L48.3545 9.32241C46.9253 8.55972 45.4364 7.94624 43.8944 7.46873L41.3576 0.919575C41.1852 0.485172 40.7674 0.193359 40.2998 0.193359H32.7459C32.2783 0.193359 31.8538 0.478542 31.688 0.919575L29.1512 7.46873C27.6093 7.93629 26.1105 8.55975 24.6912 9.32241L18.2647 6.48052C17.8402 6.2915 17.3361 6.38435 17.0079 6.71595L11.6624 12.0614C11.3341 12.3897 11.2379 12.8938 11.4269 13.3183L14.2688 19.7447C13.5061 21.174 12.8927 22.6629 12.4152 24.2048L5.86599 26.7416C5.43159 26.914 5.13978 27.3319 5.13978 27.7994V35.3534C5.13978 35.8209 5.42496 36.2355 5.85936 36.4112L11.3508 38.5766L0.158775 57.9724C-0.152936 58.5196 0.029452 59.2126 0.57328 59.5243L5.25883 62.2368C5.80598 62.5585 6.4029 62.7044 6.99977 62.7044C8.04766 62.7044 9.06898 62.2368 9.74548 61.378L14.6831 65.0754C14.5173 66.3388 15.0047 67.6653 16.0857 68.5042C16.7688 69.0414 17.5746 69.2934 18.3804 69.2934C18.5197 69.2934 18.6589 69.2934 18.7949 69.2669C18.9242 70.2385 19.4183 71.104 20.1909 71.7108C20.8508 72.2315 21.6534 72.5001 22.4856 72.5001C22.6249 72.5001 22.7642 72.4901 22.9001 72.4735C23.0295 73.4087 23.497 74.294 24.3028 74.9175C24.9627 75.4381 25.7652 75.7067 26.5975 75.7067C26.7367 75.7067 26.876 75.6967 27.012 75.6802C27.1413 76.6153 27.6089 77.5006 28.4146 78.1241C29.0745 78.6447 29.877 78.9133 30.7093 78.9133C30.8652 78.9133 31.021 78.9034 31.1769 78.8868C32.1717 78.7641 33.057 78.2634 33.6705 77.4841L33.9723 77.0928L38.3561 79.623C39.0326 80.0143 39.7688 80.1934 40.495 80.1934C41.9772 80.1934 43.423 79.424 44.2189 78.0446C44.6102 77.3781 44.7892 76.642 44.7892 75.9124C46.6595 76.4927 48.7552 75.73 49.7799 73.9625C50.1778 73.2695 50.3602 72.5168 50.3502 71.7707C52.1707 72.2283 54.1438 71.4589 55.122 69.7611C55.5133 69.0946 55.6924 68.3484 55.6858 67.6223C56.4385 67.8478 57.2443 67.8644 58.0236 67.6555C59.1311 67.3603 60.0596 66.6507 60.63 65.6625C61.2003 64.6743 61.3496 63.5137 61.0544 62.4062C60.9417 61.9817 60.7693 61.5838 60.5338 61.219L61.7209 60.1977L61.9796 60.6553C62.4471 61.4611 63.1999 62.0414 64.1019 62.2735C64.4036 62.3531 64.7087 62.3962 65.0104 62.3962C65.6173 62.3962 66.2042 62.2404 66.7414 61.9286L71.427 59.2161C71.6857 59.0702 71.878 58.8182 71.9543 58.533C72.0338 58.2379 71.9874 57.9361 71.8415 57.6742L71.875 57.6705ZM7.40131 34.5844V28.5725L13.7416 26.1219C14.0699 25.9926 14.3319 25.714 14.4247 25.3692C14.9188 23.6183 15.6119 21.9403 16.5039 20.3553C16.6763 20.0436 16.6929 19.6722 16.5569 19.3406L13.8013 13.1131L18.0458 8.8686L24.2734 11.6242C24.6016 11.7702 24.9764 11.7536 25.2881 11.5712C26.8731 10.6792 28.561 9.97617 30.3019 9.49204C30.6467 9.39587 30.9253 9.14717 31.0546 8.80893L33.5052 2.4686H39.5072L41.9577 8.80893C42.0871 9.13722 42.3656 9.39918 42.7105 9.49204C44.4514 9.98613 46.1393 10.6792 47.7243 11.5712C48.036 11.7436 48.4074 11.7602 48.739 11.6242L54.9665 8.8686L59.2111 13.1131L56.4554 19.3406C56.3095 19.6689 56.3261 20.0436 56.5085 20.3553C57.4005 21.9404 58.1035 23.6283 58.5876 25.3692C58.6838 25.714 58.9325 25.9926 59.2707 26.1219L65.6111 28.5725V34.5745L59.8146 36.8194L59.3802 36.0733C59.2343 35.8147 58.9823 35.6223 58.6971 35.5461C58.402 35.4665 58.1002 35.5129 57.8383 35.6588L54.7378 37.4528C55.3446 35.5726 55.6663 33.5896 55.6663 31.5801C55.6663 21.012 47.0644 12.41 36.4963 12.41C25.9282 12.41 17.3262 21.012 17.3262 31.5801C17.3262 34.0041 17.7839 36.3618 18.6427 38.5604L14.1462 35.9606C13.8875 35.8147 13.5758 35.7716 13.2873 35.8479C12.9922 35.9274 12.7501 36.1165 12.6042 36.3751L12.4749 36.5906L7.39136 34.5811L7.40131 34.5844ZM36.3338 44.3469C33.3958 43.2626 31.7775 43.7831 29.9139 44.3734C28.9523 44.6752 27.8878 45.0134 26.4221 45.1891V40.9877C26.4221 37.1776 29.5226 34.0837 33.3261 34.0837H38.6882C42.4983 34.0837 45.5922 37.1842 45.5922 40.9877V42.407C44.7864 42.2246 43.8413 42.2943 42.2131 42.6226C41.467 42.7784 40.8701 42.8812 40.3329 42.9774C39.1989 43.1863 38.4461 43.3156 37.6635 43.6539C37.1595 43.8694 36.7184 44.1048 36.3305 44.3469L36.3338 44.3469ZM36.0055 31.8119C33.4323 31.8119 31.3365 29.7161 31.3365 27.1429C31.3365 24.5697 33.4323 22.4739 36.0055 22.4739C38.5787 22.4739 40.6745 24.5697 40.6745 27.1429C40.6745 29.7161 38.5787 31.8119 36.0055 31.8119ZM40.8735 32.0805C42.1469 30.8237 42.9427 29.0761 42.9427 27.1429C42.9427 23.3129 39.8322 20.2057 36.0055 20.2057C32.1755 20.2057 29.0683 23.3162 29.0683 27.1429C29.0683 29.0761 29.8642 30.8237 31.1375 32.0805C27.1351 33.0687 24.1572 36.6799 24.1572 40.9838V43.0962C21.2556 39.9857 19.6175 35.8904 19.6175 31.5765C19.6175 22.2555 27.198 14.6781 36.5159 14.6781C45.8369 14.6781 53.4142 22.2586 53.4142 31.5765C53.4142 36.1659 51.5274 40.5928 48.218 43.7626C48.0953 43.683 47.9759 43.6067 47.8632 43.5371V40.9804C47.8632 36.6762 44.8821 33.0551 40.8829 32.0771L40.8735 32.0805ZM6.3866 60.26L2.67924 58.1212L14.0105 38.4936L17.7178 40.6324C18.2981 40.9706 18.507 41.7234 18.1688 42.3037L8.0617 59.8192C7.72346 60.3996 6.97739 60.6085 6.39037 60.2702L6.3866 60.26ZM17.475 66.7131C16.835 66.209 16.7223 65.2838 17.223 64.6438L19.405 61.8451C19.647 61.5334 19.9952 61.341 20.3832 61.2913C20.7745 61.2382 21.1624 61.351 21.4675 61.5864C22.1075 62.0905 22.2202 63.0157 21.7195 63.6557L19.5276 66.4544C19.0236 67.0944 18.0984 67.2072 17.4584 66.7064L17.475 66.7131ZM21.5903 69.9263C20.9503 69.4223 20.8375 68.4971 21.3383 67.8571L23.5202 65.0584L25.9708 61.9214C26.2128 61.6097 26.561 61.4174 26.949 61.3676C27.0086 61.3676 27.0716 61.3577 27.1313 61.3577C27.4596 61.3577 27.7713 61.4605 28.0333 61.6694C28.6733 62.1734 28.786 63.0986 28.2853 63.7386L23.6495 69.671C23.4074 69.9827 23.0593 70.1751 22.6713 70.2248C22.28 70.2779 21.892 70.1651 21.5803 69.9297L21.5903 69.9263ZM25.7055 73.1396C25.3938 72.8976 25.2015 72.5494 25.1518 72.1614C25.0987 71.7701 25.2115 71.3822 25.4469 71.0771L30.0827 65.1447C30.2385 64.9457 30.3679 64.7302 30.4806 64.5113C30.5934 64.4417 30.6962 64.3555 30.7824 64.2427C31.0245 63.931 31.3726 63.7387 31.7606 63.689C32.1519 63.6359 32.5399 63.7487 32.8449 63.9841C33.4849 64.4881 33.5976 65.4133 33.0969 66.0533L27.7514 72.8976C27.5093 73.2093 27.1612 73.4017 26.7732 73.4514C26.3819 73.5045 25.994 73.3917 25.6889 73.1563L25.7055 73.1396ZM30.9018 76.648C30.5105 76.7011 30.1225 76.5883 29.8175 76.3529C29.1775 75.8488 29.0647 74.9236 29.5655 74.2837L32.2348 70.8715C32.4769 70.5598 32.8251 70.3674 33.213 70.3177C33.6043 70.2646 33.9923 70.3774 34.2974 70.6128C34.6091 70.8549 34.8014 71.2031 34.8511 71.591C34.9042 71.9823 34.7914 72.3703 34.556 72.6753L31.8866 76.0875C31.6445 76.3992 31.2964 76.5916 30.9084 76.6413L30.9018 76.648ZM58.69 64.5281C58.4214 64.9957 57.987 65.324 57.4597 65.4633C56.9325 65.6026 56.3853 65.5329 55.9277 65.2643L53.6396 63.9478L44.8551 58.8809C44.308 58.5692 43.615 58.7516 43.3032 59.2954C42.9915 59.8425 43.1739 60.5356 43.7177 60.8473L52.4751 65.9075C53.3936 66.4779 53.7053 67.7015 53.1582 68.6433C52.6044 69.6149 51.3576 69.9432 50.3959 69.3894L48.214 68.126L43.0177 65.1283C42.4706 64.8166 41.7776 64.999 41.4658 65.5428C41.1541 66.09 41.3365 66.783 41.8803 67.0947L47.0766 70.0924C48.0382 70.6561 48.3764 71.893 47.8128 72.8546C47.259 73.8262 46.0121 74.1545 45.0505 73.6008L42.6497 72.2147L39.7481 70.5334C39.201 70.2217 38.508 70.4041 38.1962 70.9479C37.8845 71.495 38.0669 72.1881 38.6107 72.4998L41.5123 74.1811C42.474 74.7348 42.8022 75.9751 42.2485 76.9433C41.6947 77.9149 40.4479 78.2432 39.4862 77.6894L35.381 75.3151L36.3327 74.0948C36.9462 73.3056 37.2148 72.3274 37.0954 71.3326C36.9727 70.3377 36.472 69.4524 35.6927 68.8389C35.2849 68.5172 34.8273 68.3017 34.3397 68.1724L34.9035 67.4528C36.1768 65.8246 35.8817 63.4669 34.2535 62.2035C33.4643 61.59 32.4861 61.3214 31.4913 61.4408C31.2061 61.4739 30.9275 61.5436 30.6689 61.6397C30.4434 60.9732 30.0289 60.3564 29.4287 59.8988C27.8005 58.6254 25.4428 58.9206 24.1794 60.5487L23.8511 60.9732C23.6157 60.5388 23.2874 60.1508 22.8729 59.8291C22.0837 59.2156 21.1055 58.947 20.1107 59.0664C19.1158 59.1891 18.2305 59.6898 17.617 60.4691L15.6506 62.9893L10.902 59.4378L19.6432 44.2967L25.0483 47.4072C25.2208 47.5033 25.4131 47.5531 25.6121 47.5531H25.6817C27.8902 47.4138 29.389 46.9396 30.5928 46.5582C31.9789 46.1172 32.9505 45.8121 34.4659 46.1669C33.7994 47.1883 33.5474 48.2991 33.3749 49.3371C33.229 50.2291 33.1594 51.1045 33.0897 51.9534C32.9505 53.5716 32.8311 55.107 32.2408 56.6656C32.1181 56.9938 32.1546 57.3686 32.3436 57.6703C32.5326 57.9721 32.8543 58.1644 33.2025 58.1976C39.3007 58.7348 40.1595 56.8977 41.7247 52.4376L47.9522 56.0322L57.9302 61.7922C58.3879 62.0608 58.7261 62.4952 58.8654 63.0224C59.0047 63.5497 58.935 64.0968 58.6664 64.5545L58.69 64.5281ZM58.8723 59.6768L41.6853 49.7582C41.6853 49.7582 41.6058 49.715 41.5626 49.6985C41.5527 49.6985 41.5361 49.6885 41.5295 49.6819C41.4963 49.6719 41.4598 49.6554 41.4333 49.6487C41.4234 49.6487 41.4068 49.6487 41.4002 49.6388C41.357 49.6288 41.3139 49.6222 41.2775 49.6123C41.2344 49.6123 41.1913 49.6123 41.1481 49.6023H41.1382H41.1216C41.0619 49.6023 40.9989 49.6023 40.9392 49.6189H40.9227C40.863 49.6288 40.8 49.6454 40.7502 49.662C40.7171 49.6786 40.6806 49.6885 40.6474 49.7051C40.6375 49.7051 40.6309 49.715 40.6143 49.7217C40.5877 49.7383 40.5612 49.7482 40.5446 49.7648C40.5347 49.7648 40.5181 49.7814 40.5115 49.7913C40.4849 49.8079 40.4684 49.8178 40.4518 49.8344C40.4418 49.8344 40.4352 49.851 40.4186 49.861C40.402 49.8775 40.3855 49.8941 40.3589 49.914L40.3258 49.9472C40.3092 49.9638 40.2926 49.9803 40.2727 50.0002C40.2628 50.0102 40.2561 50.0268 40.2396 50.0334C40.223 50.05 40.213 50.0666 40.1964 50.0864C40.1865 50.103 40.1799 50.113 40.1699 50.1296C40.1699 50.1296 40.1699 50.1395 40.16 50.1461C40.16 50.1627 40.1434 50.1727 40.1434 50.1892C40.1434 50.2058 40.1268 50.2224 40.1169 50.2324C40.1069 50.2589 40.1003 50.2854 40.0837 50.3119C40.0837 50.3219 40.0837 50.3285 40.0737 50.3385V50.355C39.9776 50.6336 39.8847 50.8922 39.7952 51.1443C39.0491 53.2831 38.555 54.6958 37.7956 55.3358C37.2418 55.8033 36.3664 56.0023 34.8509 55.9592C35.1792 54.6261 35.2853 53.3328 35.3981 52.0794C35.4677 51.2404 35.5373 50.4413 35.6667 49.6355C35.9784 47.679 36.499 46.5847 38.6046 45.7027C39.1584 45.4672 39.7752 45.3578 40.7965 45.1754C41.3172 45.0793 41.9572 44.9665 42.7298 44.8106C45.0079 44.3431 45.1305 44.4194 46.5598 45.3379C46.9942 45.6164 47.5214 45.9514 48.2244 46.3526C48.5261 46.525 48.8909 46.5516 49.2126 46.4222L52.9631 44.8902L60.6297 58.1714L58.9054 59.6537L58.8723 59.6768ZM65.647 59.962C65.3685 60.1278 65.0402 60.1709 64.7185 60.0847C64.3969 59.9985 64.1382 59.7995 63.9724 59.5209L63.0273 57.8828L54.399 42.931L53.8718 42.0125C53.706 41.7339 53.6628 41.4056 53.7491 41.0839C53.8353 40.7623 54.0342 40.5036 54.3194 40.3378L58.0268 38.199L69.358 57.8266L65.6507 59.9654L65.647 59.962Z" fill="#1742E7"></path></svg>