<svg xmlns="http://www.w3.org/2000/svg" viewBox="0 0 72 81" fill="none"><path d="M63.9251 43.4572V18.1554C68.2958 17.5261 71.6665 13.7668 71.6665 9.22613C71.6671 4.24784 67.6145 0.193359 62.6349 0.193359C57.6548 0.193359 53.6022 4.24784 53.6022 9.22613H0.333496V60.8377H30.4433C31.1148 71.6203 40.0757 80.1934 51.0212 80.1934C62.4046 80.1934 71.6658 70.9311 71.6658 59.5488C71.6671 53.0463 68.6388 47.2464 63.9251 43.4566V43.4572ZM62.6348 2.77433C66.192 2.77433 69.0864 5.66864 69.0864 9.22597C69.0864 12.7833 66.1932 15.6787 62.6348 15.6787C59.0764 15.6787 56.1832 12.7838 56.1832 9.22597C56.1832 5.6688 59.0768 2.77433 62.6348 2.77433ZM2.91369 11.8065H53.9824C54.2905 12.837 54.7816 13.7851 55.4116 14.6252L47.519 22.5178C47.013 22.2754 46.4568 22.1284 45.8591 22.1284C45.2632 22.1284 44.7064 22.2742 44.2012 22.5178L41.6013 19.918C41.8425 19.412 41.9888 18.8546 41.9888 18.2594C41.9888 16.124 40.2521 14.3871 38.1178 14.3871C35.9835 14.3871 34.2475 16.1238 34.2475 18.2594C34.2475 18.8552 34.3932 19.412 34.6356 19.9143L28.1637 26.3863C27.659 26.1451 27.1015 25.9994 26.5051 25.9994C24.3716 25.9994 22.6347 27.7356 22.6347 29.8697C22.6347 32.0032 24.3714 33.7401 26.5051 33.7401C28.6392 33.7401 30.3761 32.0039 30.3761 29.8697C30.3761 29.2738 30.2304 28.7152 29.9879 28.2118L36.4599 21.7403C36.9646 21.9815 37.5233 22.1278 38.1185 22.1278C38.7149 22.1278 39.2724 21.9821 39.7753 21.7397L42.3764 24.3408C42.1352 24.8449 41.9889 25.4023 41.9889 25.9994C41.9889 28.1329 43.7251 29.8697 45.8593 29.8697C47.9934 29.8697 49.7302 28.133 49.7302 25.9994C49.7302 25.4023 49.5845 24.8449 49.3421 24.3408L57.2347 16.4501C58.4159 17.3355 59.8173 17.9345 61.3431 18.1558V41.6957C58.3025 39.9304 54.7837 38.9017 51.0207 38.9017C44.8536 38.9017 39.323 41.6324 35.5369 45.9373V40.1931H27.7956V55.6769H30.7532C30.5932 56.5189 30.4965 57.3826 30.442 58.2576H2.91317L2.91369 11.8065ZM45.8601 24.7096C46.5713 24.7096 47.1498 25.2875 47.1498 26.0005C47.1498 26.7117 46.5713 27.2896 45.8601 27.2896C45.1489 27.2896 44.5691 26.7117 44.5691 26.0005C44.5691 25.2875 45.1489 24.7096 45.8601 24.7096ZM36.8273 18.2586C36.8273 17.5449 37.407 16.967 38.1182 16.967C38.8294 16.967 39.4092 17.5449 39.4092 18.2586C39.4092 18.9698 38.8294 19.5483 38.1182 19.5483C37.4064 19.5489 36.8273 18.9698 36.8273 18.2586ZM27.7952 29.8714C27.7952 30.5832 27.2167 31.1611 26.5055 31.1611C25.7943 31.1611 25.2158 30.5832 25.2158 29.8714C25.2158 29.1596 25.7943 28.5817 26.5055 28.5817C27.2167 28.5817 27.7952 29.1596 27.7952 29.8714ZM51.0207 69.8717C45.3294 69.8717 40.6983 65.2386 40.6983 59.5499C40.6983 53.8573 45.3288 49.228 51.0207 49.228C56.7121 49.228 61.3432 53.8573 61.3432 59.5499C61.3438 65.2388 56.7127 69.8717 51.0207 69.8717ZM32.9555 49.5763C32.338 50.6917 31.8277 51.8681 31.4221 53.0982H30.3749L30.3755 42.7751H32.9549V49.5765L32.9555 49.5763ZM49.7303 41.5505V46.7106C43.2191 47.3622 38.1175 52.8695 38.1175 59.5499C38.1175 61.4373 38.536 63.2255 39.2677 64.845L34.7909 67.4287C33.6271 65.044 32.9568 62.3753 32.9568 59.5497C32.9568 50.0222 40.3719 42.2162 49.73 41.5512L49.7303 41.5505ZM51.0206 77.6127C44.8089 77.6127 39.3203 74.4605 36.0682 69.6712L40.5635 67.0756C42.9091 70.3228 46.7175 72.4501 51.0225 72.4501C55.3262 72.4501 59.1344 70.3228 61.4802 67.0756L65.9754 69.6712C62.7227 74.4605 57.2347 77.6127 51.0231 77.6127H51.0206ZM67.2509 67.4298L62.7742 64.8442C63.5058 63.2266 63.9243 61.4377 63.9243 59.5491C63.9243 52.87 58.8232 47.3602 52.3116 46.7117V41.5497C61.6705 42.2157 69.0863 50.0227 69.0863 59.5467C69.0863 62.3735 68.4154 65.0428 67.2515 67.4274L67.2521 67.4293L67.2509 67.4298Z" fill="#1742E7"></path><path d="M51.0202 51.8065C46.7501 51.8065 43.2789 55.2787 43.2789 59.5496C43.2789 63.8174 46.7512 67.2903 51.0202 67.2903C55.2898 67.2903 58.7616 63.8174 58.7616 59.5496C58.7622 55.2794 55.2906 51.8065 51.0202 51.8065ZM51.0202 64.7083C48.1742 64.7083 45.8596 62.3943 45.8596 59.5489C45.8596 56.7016 48.1742 54.3852 51.0202 54.3852C53.8663 54.3852 56.1809 56.7011 56.1809 59.5489C56.1822 62.3956 53.8676 64.7083 51.0202 64.7083Z" fill="#1742E7"></path><path d="M7.15006 14.3871H9.73071V16.9678H7.15006V14.3871Z" fill="#1742E7"></path><path d="M12.312 14.3871H25.2151V16.9678L12.312 16.9672V14.3871Z" fill="#1742E7"></path><path d="M7.15006 19.5491H9.73071V22.1285H7.15006V19.5491Z" fill="#1742E7"></path><path d="M12.312 19.5491H25.2151V22.1285H12.312V19.5491Z" fill="#1742E7"></path><path d="M7.15006 55.6795H14.8925V45.3558H7.15006V55.6795ZM9.73135 47.9345H12.312V53.0982H9.73135V47.9345Z" fill="#1742E7"></path><path d="M17.4739 55.6795H25.2164V35.0317H17.4739V55.6795ZM20.0546 37.6127H22.6353V53.0984H20.0546V37.6127Z" fill="#1742E7"></path></svg>