<svg xmlns="http://www.w3.org/2000/svg" viewBox="0 0 84 89" fill="none"><path d="M49.4139 26.1491C49.4139 25.582 48.8185 25.2606 47.4573 24.6651C47.3061 24.5989 47.1454 24.5328 46.9942 24.4572C46.8429 24.391 46.7012 24.3248 46.5499 24.2587C45.0943 23.6159 43.2795 22.8219 43.2795 20.7708C43.2795 19.0316 44.5839 17.5571 46.342 17.1223V15.3452C46.342 14.7403 46.8335 14.2488 47.4384 14.2488C48.0434 14.2488 48.5349 14.7403 48.5349 15.3452V17.1223C50.3025 17.5571 51.5974 19.0316 51.5974 20.7708C51.5974 21.3757 51.1059 21.8673 50.5009 21.8673C49.896 21.8673 49.4045 21.3757 49.4045 20.7708C49.4045 19.8917 48.516 19.1734 47.4384 19.1734C46.3514 19.1734 45.4724 19.8917 45.4724 20.7708C45.4724 21.3379 46.0679 21.6593 47.429 22.2548C47.5802 22.321 47.7409 22.3871 47.8921 22.4627C48.0434 22.5289 48.1852 22.5951 48.3364 22.6612C49.792 23.304 51.6069 24.098 51.6069 26.1491C51.6069 27.8883 50.3025 29.3629 48.5443 29.7977V31.5747C48.5443 32.1796 48.0528 32.6711 47.4479 32.6711C46.8429 32.6711 46.3514 32.1796 46.3514 31.5747V29.7977C44.5839 29.3629 43.2889 27.8883 43.2889 26.1491C43.2889 25.5442 43.7804 25.0527 44.3854 25.0527C44.9903 25.0527 45.4818 25.5442 45.4818 26.1491C45.4818 27.0282 46.3703 27.7465 47.4479 27.7465C48.5254 27.7465 49.4139 27.0282 49.4139 26.1491ZM24.186 26.5083V20.4022C24.186 19.3435 24.9138 18.4456 25.9441 18.2187L29.9519 17.3586C29.9613 17.3586 29.9708 17.3491 29.9708 17.3491C29.9708 17.3491 29.9708 17.3397 29.9802 17.3302C30.2071 16.6875 30.4717 16.0447 30.7742 15.4303C30.7837 15.4209 30.7837 15.4114 30.7837 15.4114C30.7837 15.4114 30.7837 15.402 30.7742 15.3925L28.5435 11.9519C27.9669 11.0634 28.0898 9.91968 28.8365 9.1635L33.1562 4.84384C33.9029 4.09712 35.056 3.97424 35.9446 4.55082L39.3852 6.78154C39.3946 6.791 39.4041 6.791 39.4041 6.791C39.4041 6.791 39.4135 6.791 39.423 6.78154C40.0374 6.47907 40.6801 6.21441 41.3229 5.98756C41.3323 5.98756 41.3418 5.97811 41.3418 5.97811C41.3418 5.97811 41.3418 5.96866 41.3512 5.9592L42.2114 1.95147C42.4382 0.911727 43.3267 0.193359 44.3948 0.193359H50.5009C51.5596 0.193359 52.4576 0.921179 52.6844 1.95147L53.5446 5.9592C53.5446 5.96866 53.554 5.97811 53.554 5.97811C53.554 5.97811 53.5635 5.97811 53.5729 5.98756C54.2157 6.21441 54.8584 6.47907 55.4728 6.78154C55.4823 6.791 55.4917 6.791 55.4917 6.791C55.4917 6.791 55.5012 6.791 55.5106 6.78154L58.9512 4.55082C59.8397 3.97424 60.9834 4.09712 61.7396 4.84384L66.0593 9.1635C66.806 9.91022 66.9289 11.0634 66.3523 11.9519L64.1216 15.3925C64.1121 15.402 64.1121 15.4114 64.1121 15.4114C64.1121 15.4114 64.1121 15.4209 64.1216 15.4303C64.424 16.0447 64.6887 16.6875 64.9156 17.3302C64.9156 17.3397 64.925 17.3491 64.925 17.3491C64.925 17.3491 64.9345 17.3491 64.9439 17.3586L68.9516 18.2187C69.9914 18.4456 70.7098 19.3341 70.7098 20.4022V26.5083C70.7098 27.5669 69.9819 28.4649 68.9516 28.6917L64.9439 29.5519C64.9345 29.5519 64.925 29.5613 64.925 29.5613C64.925 29.5613 64.925 29.5708 64.9156 29.5803C64.6887 30.223 64.424 30.8658 64.1216 31.4802C64.1121 31.4896 64.1121 31.4991 64.1121 31.4991C64.1121 31.4991 64.1121 31.5085 64.1216 31.518L66.3523 34.9586C66.9289 35.8471 66.806 36.9908 66.0593 37.747L61.7396 42.0666C60.9929 42.8133 59.8397 42.9362 58.9512 42.3596L55.5106 40.1289C55.5012 40.1195 55.4917 40.1195 55.4917 40.1195C55.4917 40.1195 55.4823 40.1195 55.4728 40.1289C54.8584 40.4314 54.2157 40.696 53.5729 40.9229C53.5635 40.9229 53.554 40.9324 53.554 40.9324C53.554 40.9324 53.554 40.9418 53.5446 40.9513L52.675 44.959C52.4481 45.9987 51.5596 46.7171 50.4915 46.7171H44.3854C43.3267 46.7171 42.4288 45.9893 42.2019 44.959L41.3418 40.9513C41.3418 40.9418 41.3323 40.9324 41.3323 40.9324C41.3323 40.9324 41.3229 40.9324 41.3134 40.9229C40.6707 40.696 40.0279 40.4314 39.4135 40.1289C39.4041 40.1195 39.3946 40.1195 39.3946 40.1195C39.3946 40.1195 39.3852 40.1195 39.3757 40.1289L35.9351 42.3596C35.0466 42.9362 33.9029 42.8133 33.1467 42.0666L28.827 37.747C28.0803 37.0002 27.9574 35.8471 28.534 34.9586L30.7647 31.518C30.7742 31.5085 30.7742 31.4991 30.7742 31.4991C30.7742 31.4991 30.7742 31.4896 30.7647 31.4802C30.4623 30.8658 30.1976 30.223 29.9708 29.5803C29.9708 29.5708 29.9613 29.5613 29.9613 29.5613C29.9613 29.5613 29.9519 29.5614 29.9424 29.5519L25.9347 28.6917C24.9044 28.4649 24.186 27.5764 24.186 26.5083ZM26.3695 26.5083C26.3695 26.5366 26.3789 26.5366 26.3978 26.5461L30.4056 27.4062C31.1712 27.5669 31.7856 28.1057 32.0408 28.8524C32.2393 29.4196 32.4756 29.9867 32.7403 30.5255C33.0805 31.2344 33.0333 32.0473 32.6079 32.6995L30.3772 36.1401C30.3678 36.159 30.3678 36.1684 30.3867 36.1873L34.7063 40.507C34.7252 40.5259 34.7347 40.5259 34.7536 40.5165L38.1942 38.2857C38.5628 38.0494 38.9787 37.9266 39.4041 37.9266C39.7349 37.9266 40.0657 38.0022 40.3776 38.1534C40.9259 38.4181 41.4835 38.6544 42.0507 38.8529C42.788 39.1081 43.3267 39.7225 43.4969 40.4881L44.357 44.4958C44.3665 44.5147 44.3665 44.5242 44.3948 44.5242H50.5009C50.5293 44.5242 50.5293 44.5147 50.5388 44.4958L51.3989 40.4881C51.5596 39.7225 52.0984 39.1081 52.8356 38.8529C53.4028 38.6544 53.9699 38.4181 54.5087 38.1534C55.2176 37.8131 56.0305 37.8604 56.6827 38.2857L60.1233 40.5165C60.1422 40.5259 60.1516 40.5259 60.1706 40.507L64.4902 36.1873C64.5091 36.1684 64.5091 36.159 64.4997 36.1401L62.2689 32.6995C61.8436 32.0378 61.7963 31.2249 62.1366 30.5255C62.4013 29.9772 62.6376 29.4196 62.8361 28.8524C63.0913 28.1152 63.7057 27.5764 64.4713 27.4062L68.479 26.5461C68.4979 26.5366 68.5074 26.5366 68.5074 26.5083V20.4022C68.5074 20.3738 68.4979 20.3738 68.479 20.3644L64.4713 19.5042C63.7057 19.3435 63.0913 18.8047 62.8361 18.058C62.6376 17.4909 62.4013 16.9238 62.1366 16.385C61.7963 15.6761 61.8436 14.8632 62.2689 14.211L64.4997 10.7704C64.5091 10.7515 64.5091 10.742 64.4902 10.7231L60.1706 6.40346C60.1516 6.38455 60.1422 6.38455 60.1233 6.394L56.6827 8.62472C56.021 9.05007 55.2081 9.09733 54.5087 8.75705C53.9605 8.49239 53.4028 8.25609 52.8356 8.05759C52.0984 7.80238 51.5596 7.18799 51.3895 6.42236L50.5293 2.42408C50.5199 2.40517 50.5199 2.39572 50.4915 2.39572H44.3854C44.357 2.39572 44.357 2.40517 44.3476 2.42408L43.4874 6.43181C43.3267 7.19744 42.7879 7.81183 42.0412 8.06704C41.4741 8.26554 40.907 8.50185 40.3682 8.76651C39.6593 9.10679 38.8464 9.05953 38.1942 8.63418L34.7536 6.40346C34.7347 6.394 34.7252 6.394 34.7063 6.41291L30.3867 10.7326C30.3678 10.7515 30.3678 10.7609 30.3772 10.7798L32.6079 14.2204C33.0333 14.8821 33.0805 15.695 32.7403 16.3944C32.4756 16.9427 32.2393 17.5003 32.0408 18.0675C31.7856 18.8047 31.1712 19.3435 30.4056 19.5137L26.3978 20.3738C26.3789 20.3833 26.3695 20.3833 26.3695 20.4116V26.5083ZM34.9426 23.4647C34.9426 16.574 40.5478 10.9594 47.4479 10.9594C54.348 10.9594 59.9532 16.5646 59.9532 23.4647C59.9532 30.3553 54.348 35.9699 47.4479 35.9699C40.5478 35.9699 34.9426 30.3553 34.9426 23.4647ZM37.1261 23.4647C37.1261 29.1455 41.7482 33.777 47.4384 33.777C53.1287 33.777 57.7508 29.1549 57.7508 23.4647C57.7508 17.7839 53.1287 13.1523 47.4384 13.1523C41.7482 13.1523 37.1261 17.7745 37.1261 23.4647ZM82.8464 59.2035C82.2509 61.0939 80.9559 62.6441 79.2073 63.5609L46.6728 80.5087C45.3968 81.1798 44.1113 81.3972 42.873 81.3972C41.682 81.3972 40.5289 81.1893 39.4608 80.9624L26.5491 78.1929C25.7834 78.0322 25.2541 77.985 24.7721 78.2307L23.6283 78.8262L24.8949 81.246C25.5849 82.5599 25.0651 84.1951 23.7512 84.8851L17.9759 87.8909C17.5789 88.0988 17.1536 88.1934 16.7377 88.1934C15.7641 88.1934 14.8189 87.664 14.3463 86.7472L1.11319 61.3491C0.423179 60.0352 0.94305 58.4 2.25691 57.71L8.0322 54.7042C9.34606 54.0142 10.9813 54.5341 11.6713 55.8479L12.9379 58.2677L24.5074 52.2372C25.6417 51.6417 26.7759 51.3959 28.0614 51.4527L45.5102 52.2088C49.5935 52.3884 52.7789 55.8574 52.5993 59.9407C52.5899 60.2054 52.5615 60.4795 52.5237 60.7347L72.3544 50.4035C75.9841 48.513 80.4739 49.9308 82.3643 53.551C83.2623 55.2997 83.4419 57.313 82.8464 59.2035ZM22.9478 82.2668L9.71469 56.8688C9.62962 56.6986 9.45003 56.5947 9.26099 56.5947C9.18537 56.5947 9.10975 56.6136 9.03414 56.6514L3.25884 59.6572C3.01308 59.78 2.91856 60.092 3.04144 60.3377L16.2745 85.7358C16.3974 85.9815 16.7093 86.0761 16.9551 85.9532L22.7304 82.9474C22.9761 82.8245 23.0801 82.5126 22.9478 82.2668ZM80.4077 54.5624C79.075 52.0103 75.9085 51.0084 73.3564 52.3412L51.276 63.8539V63.8445C50.9641 64.2887 50.6049 64.7046 50.1985 65.0733C48.8185 66.3399 47.0509 67.0299 45.1983 67.0299C45.0943 67.0299 44.9809 67.0299 44.8769 67.0204L33.1373 66.51C32.5323 66.4817 32.0597 65.9712 32.0881 65.3663C32.1164 64.7614 32.6268 64.2982 33.2318 64.3171L44.9714 64.8275C46.3609 64.8842 47.6936 64.4022 48.7239 63.4475C49.7542 62.5023 50.3592 61.2168 50.4159 59.8273C50.5388 56.9444 48.2986 54.5057 45.4157 54.3828L27.9669 53.6267C27.0689 53.5889 26.3222 53.759 25.5282 54.1654L13.9398 60.2054L22.6264 76.8696L23.7701 76.2741C24.8855 75.6881 25.9914 75.8204 27.0122 76.0378L39.9239 78.8073C42.2208 79.2988 43.9789 79.4312 45.6614 78.5521L78.1959 61.6043C79.4247 60.9616 80.3416 59.8746 80.7575 58.5324C81.1733 57.209 81.0505 55.8007 80.4077 54.5624Z" fill="#1742E7"></path></svg>