<svg xmlns="http://www.w3.org/2000/svg" viewBox="0 0 76 81" fill="none"><path d="M12.2449 64.7564V78.8599C12.2449 79.596 11.6477 80.1932 10.9116 80.1932H1.46747C0.731384 80.1932 0.134177 79.596 0.134177 78.8599V68.3571C0.134177 67.7842 0.495276 67.2947 1.0022 67.1072L5.24855 65.5309L7.83175 64.5518L10.408 63.524C11.0885 63.2498 11.8663 63.5761 12.1441 64.2601C12.21 64.4233 12.2413 64.5935 12.2413 64.7601L12.2449 64.7564ZM1.93234 61.3433C1.24139 61.6003 0.474077 61.2461 0.217107 60.5586C-0.0398262 59.8677 0.314331 59.1004 1.0018 58.8434C16.9666 52.9234 30.7261 45.1594 42.2786 35.5597C53.1183 26.5565 62.038 15.9177 69.0315 3.65412L62.1706 5.45957C61.4623 5.64707 60.7331 5.22 60.5457 4.51169C60.3582 3.80339 60.7853 3.07423 61.4936 2.88677L71.5483 0.237525C72.2567 0.0500286 72.9858 0.477099 73.1733 1.1854L75.8225 11.2402C76.01 11.9485 75.5829 12.6776 74.8746 12.8651C74.1663 13.0526 73.4372 12.6255 73.2497 11.9172L71.3956 4.87577C64.2361 17.4514 55.0975 28.3612 43.9761 37.5965C32.1712 47.405 18.1539 55.3212 1.92861 61.3388L1.93234 61.3433ZM67.5861 68.3674C67.5861 67.6313 68.1834 67.0341 68.9194 67.0341C69.6555 67.0341 70.2527 67.6313 70.2527 68.3674V68.5653C70.2527 69.3013 69.6555 69.8986 68.9194 69.8986C68.1834 69.8986 67.5861 69.3013 67.5861 68.5653V68.3674ZM67.5861 73.3845C67.5861 72.6484 68.1834 72.0512 68.9194 72.0512C69.6555 72.0512 70.2527 72.6484 70.2527 73.3845V78.8601C70.2527 79.5962 69.6555 80.1934 68.9194 80.1934H59.4753C58.7392 80.1934 58.142 79.5962 58.142 78.8601V32.5523C58.142 32.1634 58.3087 31.8127 58.576 31.5696C60.2044 29.8613 61.7912 28.0976 63.3294 26.2782C64.871 24.4553 66.3814 22.5595 67.85 20.5944C68.291 20.0041 69.1243 19.8826 69.7146 20.3235C70.0653 20.5839 70.2493 20.9832 70.2493 21.3929V63.5551C70.2493 64.2912 69.6521 64.8884 68.916 64.8884C68.1799 64.8884 67.5827 64.2912 67.5827 63.5551V25.2959C66.8536 26.2056 66.1106 27.1084 65.3571 28.0007C63.885 29.7402 62.3676 31.4346 60.8052 33.0839V77.5304H67.5827V73.3882L67.5861 73.3845ZM50.9129 41.8336L50.9164 78.8599C50.9164 79.596 50.3192 80.1932 49.5831 80.1932H40.139C39.4029 80.1932 38.8057 79.596 38.8057 78.8599V49.0627C38.8057 48.5905 39.0522 48.1738 39.4237 47.9377C41.0452 46.8093 42.6181 45.66 44.1423 44.4969C45.736 43.2781 47.2672 42.0525 48.729 40.8234C49.288 40.3512 50.1283 40.4241 50.6005 40.9831C50.8088 41.2331 50.913 41.5352 50.9165 41.8372L50.9129 41.8336ZM48.2498 77.5266V44.6495C47.4165 45.3196 46.5832 45.9724 45.7568 46.6077C44.3367 47.6945 42.9063 48.7465 41.4723 49.7535V77.5268L48.2498 77.5266ZM31.5766 55.3362L31.5801 78.8599C31.5801 79.596 30.9829 80.1932 30.2468 80.1932H20.8026C20.0666 80.1932 19.4694 79.596 19.4694 78.8599V60.3467C19.4694 59.8016 19.7957 59.3364 20.2645 59.128C21.8513 58.3572 23.4206 57.5586 24.9623 56.7392L25.0352 56.7045C26.5734 55.8885 28.0906 55.0483 29.5837 54.1838C30.219 53.8157 31.035 54.031 31.3996 54.6664C31.5211 54.8747 31.5802 55.1073 31.5802 55.333L31.5766 55.3362ZM28.9135 77.5266V57.6206L26.2087 59.0927C24.865 59.8045 23.5039 60.5024 22.1359 61.176V77.5266H28.9135ZM9.57724 77.5266V66.7252L6.17806 68.0307L2.79969 69.2842V77.527L9.57724 77.5266Z" fill="#1742E7"></path></svg>