<svg xmlns="http://www.w3.org/2000/svg" viewBox="0 0 82 81" fill="none"><mask id="path-1-inside-1_171_4216" fill="white"><path fill-rule="evenodd" clip-rule="evenodd" d="M4.09628 0.386746C2.817 0.753369 1.42195 2.21611 1.12501 3.50218C1.02081 3.95331 0.965584 16.6102 0.962925 40.5512C0.959326 76.0605 0.96621 76.9289 1.25846 77.5009C1.65411 78.2753 2.63802 79.2727 3.50866 79.7822L4.21143 80.1934L24.0579 80.1443C39.2261 80.1067 44.0376 80.05 44.4697 79.9033C45.1254 79.6808 46.4632 78.334 46.9236 77.433C47.2254 76.8422 47.242 76.4737 47.2929 69.2173C47.3223 65.0387 47.3916 61.5748 47.447 61.5195C47.5778 61.3891 51.3713 63.2931 52.2346 63.9226C52.6124 64.1982 53.2747 64.9766 53.7702 65.7278C56.0194 69.1378 59.2082 70.534 62.6844 69.631C64.1402 69.2528 71.3805 65.4222 71.6737 64.875C72.0651 64.1449 71.5199 63.1563 70.7259 63.1563C70.454 63.1563 68.7745 63.9112 66.5637 65.0275C62.1289 67.2663 61.6608 67.4383 60.2689 67.3388C58.3391 67.2008 57.2263 66.4648 55.9417 64.4767C54.3886 62.0728 54.2013 61.9522 44.5367 57.1361C34.8022 52.285 34.0324 51.865 33.5406 51.1361C32.7306 49.9363 33.3742 47.862 34.7834 47.13C35.7265 46.6401 36.2604 46.803 40.2638 48.803C44.3856 50.8621 44.4699 50.8828 45.13 49.9975L45.449 49.5698L44.1562 46.9514C43.4453 45.5113 40.9581 40.6899 38.629 36.2371C34.1086 27.5948 33.6665 26.6689 33.6607 25.8326C33.6546 24.967 34.2339 23.9726 35.0484 23.4499C35.6806 23.0443 35.8802 22.9949 36.6761 23.0485C37.4288 23.0992 37.6597 23.1877 38.0327 23.5677C38.5899 24.1358 39.7583 26.2328 43.9015 34.1014C48.1004 42.0755 48.9717 43.6659 49.2716 43.9035C49.8843 44.389 51.1792 43.8296 51.1792 43.0796C51.1792 42.8752 50.6864 41.712 50.0841 40.495C48.8631 38.0277 48.7766 37.5558 49.3409 36.4386C49.7924 35.5446 50.7246 35.0025 51.8102 35.0025C53.079 35.0025 53.4436 35.3309 54.6295 37.5406C55.7769 39.6788 56.4263 40.5059 56.9578 40.5059C57.3575 40.5059 58.2194 39.7124 58.2194 39.3444C58.2194 39.2078 57.6914 38.0435 57.046 36.7569C56.3242 35.3179 55.8727 34.2268 55.8727 33.9217C55.8727 32.6539 57.3007 31.3771 58.6952 31.398C60.0788 31.4189 60.1667 31.5155 62.206 35.2512C62.9108 36.5421 63.2586 36.9131 63.7646 36.9131C64.3204 36.9131 64.9858 36.2833 64.9858 35.757C64.9858 35.5176 64.4842 34.3043 63.8711 33.0612C62.6787 30.6429 62.5477 30.0504 63.0269 29.2404C63.3817 28.6408 64.2266 28.0712 65.1069 27.8382C65.731 27.673 65.8993 27.6884 66.5318 27.9677C67.4488 28.3727 67.7255 28.7568 69.4876 32.0706C73.327 39.2909 74.5875 42.2428 76.2955 48.0133C76.8565 49.9088 77.576 52.0704 77.8944 52.8169C78.4168 54.0419 78.4736 54.3114 78.4764 55.5801C78.4793 56.9018 78.446 57.0469 77.9202 58.0014C77.5159 58.7355 77.0716 59.2493 76.3166 59.8565C75.3962 60.5968 75.2723 60.7597 75.2723 61.2305C75.2723 61.8699 75.8543 62.5314 76.4167 62.5314C77.161 62.5314 79.1033 60.9051 79.9612 59.5634C80.7954 58.2591 81.1005 57.0288 81.0265 55.2677C80.9683 53.8787 80.8879 53.5238 80.302 52.0654C79.9395 51.1633 79.2547 49.0896 78.78 47.4572C77.2518 42.2017 76.1503 39.4978 73.223 33.8155C70.0177 27.5937 69.387 26.6589 67.8473 25.8474C67.1431 25.4763 66.8913 25.4322 65.4943 25.4364C64.1673 25.4403 63.8254 25.496 63.2427 25.8024C62.29 26.3032 61.148 27.4083 60.7041 28.2587L60.3315 28.9724L59.4607 28.8768C57.2089 28.6297 54.8573 29.8747 53.8711 31.8363L53.5569 32.4612L52.1725 32.4629C50.3025 32.4652 49.3958 32.7928 48.1995 33.8989L47.268 34.7598L47.2666 19.1612L47.265 3.56248L46.8077 2.76628C46.2805 1.84855 44.9734 0.611687 44.3388 0.430172C44.0999 0.361753 37.3208 0.280524 29.2742 0.249595L14.6439 0.193359L14.3725 0.652302C14.0344 1.22356 14.0311 1.52192 14.3565 2.07193L14.6123 2.50416L28.8854 2.57805L43.1586 2.65209L43.729 3.00403C44.0426 3.19773 44.3624 3.47359 44.4392 3.61715C44.5162 3.76055 44.6304 4.84386 44.6932 6.02433L44.807 8.17065H24.0327H3.25834L3.35049 6.22334C3.50256 3.01137 3.79355 2.73176 7.13201 2.59258C8.898 2.519 9.22013 2.46448 9.52474 2.18768C9.99706 1.75857 9.99236 0.991744 9.51472 0.54358C9.1757 0.225695 9.00783 0.204919 6.89421 0.21804C5.65201 0.225851 4.39306 0.301769 4.09628 0.386746ZM44.7648 20.381C44.7648 25.8079 44.7381 30.2189 44.7052 30.1832C44.6725 30.1474 44.0803 29.0505 43.3893 27.7457L42.133 25.3735L42.0751 21.4192C42.0102 16.974 41.9456 16.6645 40.9215 15.8846L40.3304 15.4344L24.1119 15.3925L7.89345 15.3506L7.18364 15.9744C6.17736 16.8588 6.12198 17.197 6.12198 22.4599C6.12198 27.1458 6.1808 27.6098 6.87074 28.371C7.62983 29.2086 7.12372 29.1745 20.1241 29.2589L32.1707 29.337L33.3595 31.602C38.2806 40.9783 40.9858 46.2058 40.9401 46.2513C40.9107 46.2807 40.1059 45.9139 39.1517 45.4361C38.1976 44.9584 37.3143 44.5674 37.1889 44.5674C36.8735 44.5674 36.8333 44.4733 36.5473 43.0701C36.0337 40.5487 34.8144 38.3499 32.8733 36.4445C31.5023 35.0988 29.9069 34.1296 27.9031 33.4253C26.6132 32.972 26.4102 32.9457 24.1918 32.9454C22.4693 32.9453 21.5913 33.0154 20.8909 33.2089C18.5988 33.8428 16.6076 35.0436 14.9368 36.8C12.3951 39.4715 11.3103 42.4015 11.486 46.1204C11.5895 48.3103 11.8547 49.3664 12.7629 51.2063C14.3402 54.4012 17.3315 56.8476 20.8282 57.8019C22.2349 58.1858 25.9576 58.1865 27.399 57.803C28.9912 57.3793 31.1089 56.2623 32.2131 55.2636L33.1942 54.3764L37.1412 56.3327C39.3121 57.4087 41.9156 58.6763 42.9265 59.1498L44.7648 60.0104V62.2862V64.5621H24.0354H3.3059V37.538V10.5138H24.0354H44.7648V20.381ZM39.3953 17.9092C39.5585 18.0717 39.6701 21.4484 39.5122 21.4484C39.4476 21.4484 39.0718 21.255 38.6771 21.0188C38.0212 20.6263 37.8243 20.5894 36.3948 20.5904C34.9597 20.5915 34.7618 20.6293 34.003 21.0481C32.2987 21.9886 31.2101 23.6853 31.0443 25.6598L30.952 26.7595H19.7886H8.62516L8.62625 23.362C8.62688 21.4933 8.67209 19.4917 8.72669 18.9139L8.82604 17.8636L11.1897 17.8073C15.7797 17.6982 39.2685 17.783 39.3953 17.9092ZM26.6168 35.6908C27.004 35.7812 27.9192 36.1382 28.6506 36.484C30.5286 37.3719 32.2561 39.0958 33.1505 40.9746C33.7887 42.3151 34.3272 44.1139 34.1939 44.4604C34.1541 44.5638 33.8059 44.8157 33.4198 45.0202C32.4922 45.5115 31.535 46.5698 31.028 47.6642C30.4804 48.8463 30.4673 50.4668 30.9942 51.8219L31.3551 52.7499L30.7591 53.2496C28.9433 54.7716 26.9616 55.5229 24.5047 55.6206C22.3711 55.7054 21.1284 55.4414 19.3613 54.5279C17.4715 53.551 15.9161 51.947 14.9903 50.0208C14.1641 48.3019 13.9435 47.3698 13.9471 45.6141C13.9524 43.1177 14.667 41.0197 16.1428 39.168C17.6332 37.2979 20.1357 35.8078 22.2914 35.5068C23.3862 35.3538 25.5731 35.4469 26.6168 35.6908ZM25.656 44.0486L21.6193 48.0599L20.0589 46.5479C18.304 44.8476 17.9866 44.728 17.322 45.5167C16.5968 46.3771 16.7075 46.5992 19.0019 48.8901C20.8208 50.7062 21.1518 50.9719 21.5946 50.9719C22.0453 50.9719 22.4798 50.6003 25.4745 47.6525C29.5411 43.6496 31.3102 41.7167 31.3102 41.2764C31.3102 40.8435 30.4864 40.0373 30.0441 40.0373C29.7938 40.0373 28.5318 41.1908 25.656 44.0486ZM44.6827 71.8649C44.6182 74.6223 44.5043 76.7507 44.4153 76.8617C44.33 76.9681 44.0042 77.2141 43.6913 77.4085L43.1221 77.7617L24.1918 77.7618C5.57284 77.7618 5.25134 77.7567 4.64009 77.4494C3.44514 76.8488 3.40118 76.6509 3.33078 71.5569L3.26867 67.0615H24.0318H44.795L44.6827 71.8649ZM19.6146 69.3812C19.0082 69.5555 18.148 70.3538 17.8425 71.0256C17.1903 72.4599 17.628 74.1331 18.9117 75.1117L19.6216 75.653L23.6276 75.6461C25.8309 75.6424 27.9389 75.5805 28.3122 75.5085C29.7071 75.2393 30.8637 73.4362 30.5937 71.9515C30.459 71.2106 30.0352 70.3538 29.6164 69.9756C28.9133 69.3407 28.2876 69.2617 24.0354 69.2709C21.7981 69.2756 19.8087 69.3253 19.6146 69.3812ZM27.6337 71.8849C28.0281 71.9691 28.103 72.0597 28.103 72.4523C28.103 72.9181 28.1 72.9196 26.9297 73.0457C26.2843 73.1152 24.5402 73.1463 23.0541 73.1147C20.7629 73.0662 20.3111 73.0168 20.0842 72.7901C19.7008 72.4073 20.0038 72.0058 20.7659 71.8871C21.5816 71.7601 27.0406 71.7584 27.6337 71.8849Z"></path></mask><path fill-rule="evenodd" clip-rule="evenodd" d="M4.09628 0.386746C2.817 0.753369 1.42195 2.21611 1.12501 3.50218C1.02081 3.95331 0.965584 16.6102 0.962925 40.5512C0.959326 76.0605 0.96621 76.9289 1.25846 77.5009C1.65411 78.2753 2.63802 79.2727 3.50866 79.7822L4.21143 80.1934L24.0579 80.1443C39.2261 80.1067 44.0376 80.05 44.4697 79.9033C45.1254 79.6808 46.4632 78.334 46.9236 77.433C47.2254 76.8422 47.242 76.4737 47.2929 69.2173C47.3223 65.0387 47.3916 61.5748 47.447 61.5195C47.5778 61.3891 51.3713 63.2931 52.2346 63.9226C52.6124 64.1982 53.2747 64.9766 53.7702 65.7278C56.0194 69.1378 59.2082 70.534 62.6844 69.631C64.1402 69.2528 71.3805 65.4222 71.6737 64.875C72.0651 64.1449 71.5199 63.1563 70.7259 63.1563C70.454 63.1563 68.7745 63.9112 66.5637 65.0275C62.1289 67.2663 61.6608 67.4383 60.2689 67.3388C58.3391 67.2008 57.2263 66.4648 55.9417 64.4767C54.3886 62.0728 54.2013 61.9522 44.5367 57.1361C34.8022 52.285 34.0324 51.865 33.5406 51.1361C32.7306 49.9363 33.3742 47.862 34.7834 47.13C35.7265 46.6401 36.2604 46.803 40.2638 48.803C44.3856 50.8621 44.4699 50.8828 45.13 49.9975L45.449 49.5698L44.1562 46.9514C43.4453 45.5113 40.9581 40.6899 38.629 36.2371C34.1086 27.5948 33.6665 26.6689 33.6607 25.8326C33.6546 24.967 34.2339 23.9726 35.0484 23.4499C35.6806 23.0443 35.8802 22.9949 36.6761 23.0485C37.4288 23.0992 37.6597 23.1877 38.0327 23.5677C38.5899 24.1358 39.7583 26.2328 43.9015 34.1014C48.1004 42.0755 48.9717 43.6659 49.2716 43.9035C49.8843 44.389 51.1792 43.8296 51.1792 43.0796C51.1792 42.8752 50.6864 41.712 50.0841 40.495C48.8631 38.0277 48.7766 37.5558 49.3409 36.4386C49.7924 35.5446 50.7246 35.0025 51.8102 35.0025C53.079 35.0025 53.4436 35.3309 54.6295 37.5406C55.7769 39.6788 56.4263 40.5059 56.9578 40.5059C57.3575 40.5059 58.2194 39.7124 58.2194 39.3444C58.2194 39.2078 57.6914 38.0435 57.046 36.7569C56.3242 35.3179 55.8727 34.2268 55.8727 33.9217C55.8727 32.6539 57.3007 31.3771 58.6952 31.398C60.0788 31.4189 60.1667 31.5155 62.206 35.2512C62.9108 36.5421 63.2586 36.9131 63.7646 36.9131C64.3204 36.9131 64.9858 36.2833 64.9858 35.757C64.9858 35.5176 64.4842 34.3043 63.8711 33.0612C62.6787 30.6429 62.5477 30.0504 63.0269 29.2404C63.3817 28.6408 64.2266 28.0712 65.1069 27.8382C65.731 27.673 65.8993 27.6884 66.5318 27.9677C67.4488 28.3727 67.7255 28.7568 69.4876 32.0706C73.327 39.2909 74.5875 42.2428 76.2955 48.0133C76.8565 49.9088 77.576 52.0704 77.8944 52.8169C78.4168 54.0419 78.4736 54.3114 78.4764 55.5801C78.4793 56.9018 78.446 57.0469 77.9202 58.0014C77.5159 58.7355 77.0716 59.2493 76.3166 59.8565C75.3962 60.5968 75.2723 60.7597 75.2723 61.2305C75.2723 61.8699 75.8543 62.5314 76.4167 62.5314C77.161 62.5314 79.1033 60.9051 79.9612 59.5634C80.7954 58.2591 81.1005 57.0288 81.0265 55.2677C80.9683 53.8787 80.8879 53.5238 80.302 52.0654C79.9395 51.1633 79.2547 49.0896 78.78 47.4572C77.2518 42.2017 76.1503 39.4978 73.223 33.8155C70.0177 27.5937 69.387 26.6589 67.8473 25.8474C67.1431 25.4763 66.8913 25.4322 65.4943 25.4364C64.1673 25.4403 63.8254 25.496 63.2427 25.8024C62.29 26.3032 61.148 27.4083 60.7041 28.2587L60.3315 28.9724L59.4607 28.8768C57.2089 28.6297 54.8573 29.8747 53.8711 31.8363L53.5569 32.4612L52.1725 32.4629C50.3025 32.4652 49.3958 32.7928 48.1995 33.8989L47.268 34.7598L47.2666 19.1612L47.265 3.56248L46.8077 2.76628C46.2805 1.84855 44.9734 0.611687 44.3388 0.430172C44.0999 0.361753 37.3208 0.280524 29.2742 0.249595L14.6439 0.193359L14.3725 0.652302C14.0344 1.22356 14.0311 1.52192 14.3565 2.07193L14.6123 2.50416L28.8854 2.57805L43.1586 2.65209L43.729 3.00403C44.0426 3.19773 44.3624 3.47359 44.4392 3.61715C44.5162 3.76055 44.6304 4.84386 44.6932 6.02433L44.807 8.17065H24.0327H3.25834L3.35049 6.22334C3.50256 3.01137 3.79355 2.73176 7.13201 2.59258C8.898 2.519 9.22013 2.46448 9.52474 2.18768C9.99706 1.75857 9.99236 0.991744 9.51472 0.54358C9.1757 0.225695 9.00783 0.204919 6.89421 0.21804C5.65201 0.225851 4.39306 0.301769 4.09628 0.386746ZM44.7648 20.381C44.7648 25.8079 44.7381 30.2189 44.7052 30.1832C44.6725 30.1474 44.0803 29.0505 43.3893 27.7457L42.133 25.3735L42.0751 21.4192C42.0102 16.974 41.9456 16.6645 40.9215 15.8846L40.3304 15.4344L24.1119 15.3925L7.89345 15.3506L7.18364 15.9744C6.17736 16.8588 6.12198 17.197 6.12198 22.4599C6.12198 27.1458 6.1808 27.6098 6.87074 28.371C7.62983 29.2086 7.12372 29.1745 20.1241 29.2589L32.1707 29.337L33.3595 31.602C38.2806 40.9783 40.9858 46.2058 40.9401 46.2513C40.9107 46.2807 40.1059 45.9139 39.1517 45.4361C38.1976 44.9584 37.3143 44.5674 37.1889 44.5674C36.8735 44.5674 36.8333 44.4733 36.5473 43.0701C36.0337 40.5487 34.8144 38.3499 32.8733 36.4445C31.5023 35.0988 29.9069 34.1296 27.9031 33.4253C26.6132 32.972 26.4102 32.9457 24.1918 32.9454C22.4693 32.9453 21.5913 33.0154 20.8909 33.2089C18.5988 33.8428 16.6076 35.0436 14.9368 36.8C12.3951 39.4715 11.3103 42.4015 11.486 46.1204C11.5895 48.3103 11.8547 49.3664 12.7629 51.2063C14.3402 54.4012 17.3315 56.8476 20.8282 57.8019C22.2349 58.1858 25.9576 58.1865 27.399 57.803C28.9912 57.3793 31.1089 56.2623 32.2131 55.2636L33.1942 54.3764L37.1412 56.3327C39.3121 57.4087 41.9156 58.6763 42.9265 59.1498L44.7648 60.0104V62.2862V64.5621H24.0354H3.3059V37.538V10.5138H24.0354H44.7648V20.381ZM39.3953 17.9092C39.5585 18.0717 39.6701 21.4484 39.5122 21.4484C39.4476 21.4484 39.0718 21.255 38.6771 21.0188C38.0212 20.6263 37.8243 20.5894 36.3948 20.5904C34.9597 20.5915 34.7618 20.6293 34.003 21.0481C32.2987 21.9886 31.2101 23.6853 31.0443 25.6598L30.952 26.7595H19.7886H8.62516L8.62625 23.362C8.62688 21.4933 8.67209 19.4917 8.72669 18.9139L8.82604 17.8636L11.1897 17.8073C15.7797 17.6982 39.2685 17.783 39.3953 17.9092ZM26.6168 35.6908C27.004 35.7812 27.9192 36.1382 28.6506 36.484C30.5286 37.3719 32.2561 39.0958 33.1505 40.9746C33.7887 42.3151 34.3272 44.1139 34.1939 44.4604C34.1541 44.5638 33.8059 44.8157 33.4198 45.0202C32.4922 45.5115 31.535 46.5698 31.028 47.6642C30.4804 48.8463 30.4673 50.4668 30.9942 51.8219L31.3551 52.7499L30.7591 53.2496C28.9433 54.7716 26.9616 55.5229 24.5047 55.6206C22.3711 55.7054 21.1284 55.4414 19.3613 54.5279C17.4715 53.551 15.9161 51.947 14.9903 50.0208C14.1641 48.3019 13.9435 47.3698 13.9471 45.6141C13.9524 43.1177 14.667 41.0197 16.1428 39.168C17.6332 37.2979 20.1357 35.8078 22.2914 35.5068C23.3862 35.3538 25.5731 35.4469 26.6168 35.6908ZM25.656 44.0486L21.6193 48.0599L20.0589 46.5479C18.304 44.8476 17.9866 44.728 17.322 45.5167C16.5968 46.3771 16.7075 46.5992 19.0019 48.8901C20.8208 50.7062 21.1518 50.9719 21.5946 50.9719C22.0453 50.9719 22.4798 50.6003 25.4745 47.6525C29.5411 43.6496 31.3102 41.7167 31.3102 41.2764C31.3102 40.8435 30.4864 40.0373 30.0441 40.0373C29.7938 40.0373 28.5318 41.1908 25.656 44.0486ZM44.6827 71.8649C44.6182 74.6223 44.5043 76.7507 44.4153 76.8617C44.33 76.9681 44.0042 77.2141 43.6913 77.4085L43.1221 77.7617L24.1918 77.7618C5.57284 77.7618 5.25134 77.7567 4.64009 77.4494C3.44514 76.8488 3.40118 76.6509 3.33078 71.5569L3.26867 67.0615H24.0318H44.795L44.6827 71.8649ZM19.6146 69.3812C19.0082 69.5555 18.148 70.3538 17.8425 71.0256C17.1903 72.4599 17.628 74.1331 18.9117 75.1117L19.6216 75.653L23.6276 75.6461C25.8309 75.6424 27.9389 75.5805 28.3122 75.5085C29.7071 75.2393 30.8637 73.4362 30.5937 71.9515C30.459 71.2106 30.0352 70.3538 29.6164 69.9756C28.9133 69.3407 28.2876 69.2617 24.0354 69.2709C21.7981 69.2756 19.8087 69.3253 19.6146 69.3812ZM27.6337 71.8849C28.0281 71.9691 28.103 72.0597 28.103 72.4523C28.103 72.9181 28.1 72.9196 26.9297 73.0457C26.2843 73.1152 24.5402 73.1463 23.0541 73.1147C20.7629 73.0662 20.3111 73.0168 20.0842 72.7901C19.7008 72.4073 20.0038 72.0058 20.7659 71.8871C21.5816 71.7601 27.0406 71.7584 27.6337 71.8849Z" fill="#1742E7" stroke="#1742E7" stroke-width="0.830406" mask="url(#path-1-inside-1_171_4216)"></path></svg>