<svg xmlns="http://www.w3.org/2000/svg" width="81" height="81" viewBox="0 0 81 81" fill="none"><path d="M14.8789 15.3373C13.8945 15.6435 13.0086 16.3873 12.5711 17.2732L12.3086 17.8092V63.4185L12.5711 63.9545C12.9102 64.6435 13.5117 65.2451 14.2445 65.6279L14.8242 65.9342H65.6836L66.2633 65.6279C66.9742 65.256 67.6086 64.6107 67.9477 63.9326L68.1992 63.4185V17.8092L67.9367 17.2732C67.5977 16.5842 66.9961 15.9826 66.2633 15.5998L65.6836 15.2935L40.418 15.2717C26.5273 15.2607 15.032 15.2935 14.8789 15.3373ZM65.2352 17.6998C65.9461 18.0388 66.0117 18.3013 66.0445 20.9482L66.0883 23.3326H14.4195L14.4633 20.9482C14.4961 18.8263 14.518 18.542 14.7039 18.2248C15.1523 17.481 13.0523 17.5357 40.232 17.5357C62.0414 17.5357 64.9289 17.5576 65.2352 17.6998ZM66.0664 43.8623C66.0664 54.3842 66.0227 62.292 65.957 62.5326C65.9023 62.7732 65.7055 63.1123 65.5195 63.2982L65.1914 63.6373L40.407 63.6701C13.0414 63.692 15.1633 63.7467 14.7148 63.0029C14.4961 62.6638 14.4961 62.292 14.4633 44.1357L14.4414 25.6295H66.0664V43.8623Z" fill="#1742E7"></path><path d="M17.2961 19.6795C16.6617 20.2045 16.782 21.156 17.5148 21.5388C18.2695 21.9217 19.1445 21.342 19.1445 20.467C19.1445 19.5154 18.0508 19.0451 17.2961 19.6795Z" fill="#1742E7"></path><path d="M21.518 19.6138C21.1023 19.942 20.9492 20.4888 21.157 20.9592C21.3211 21.3638 21.8023 21.692 22.207 21.692C22.5242 21.692 23.0492 21.3967 23.1914 21.156C23.2461 21.0357 23.3008 20.7404 23.3008 20.4888C23.3008 19.5701 22.2398 19.0451 21.518 19.6138Z" fill="#1742E7"></path><path d="M25.6961 19.7123C25.4445 19.9748 25.3789 20.1279 25.3789 20.5107C25.3789 21.7357 27.0523 22.0967 27.5227 20.981C28.0039 19.8326 26.5711 18.8373 25.6961 19.7123Z" fill="#1742E7"></path><path d="M51.968 29.7857C48.6977 30.4748 46.1602 32.881 45.3289 36.0748C45.0336 37.2232 45.0555 39.2029 45.3836 40.3295C46.2039 43.2717 48.4242 45.492 51.3773 46.3232C52.4602 46.6295 54.4617 46.6513 55.5883 46.3779C58.4539 45.6779 60.7836 43.4576 61.6914 40.5592C62.0633 39.3779 62.118 37.4638 61.8117 36.1842C61.0898 33.1654 58.782 30.7592 55.8398 29.9498C55.0742 29.742 52.6789 29.6435 51.968 29.7857ZM52.3945 35.2107C52.3945 37.2779 52.4383 38.4154 52.5148 38.5685C52.5805 38.6998 53.6195 39.8045 54.8336 41.0185L57.0211 43.217L56.6492 43.4467C55.6977 44.0373 54.1555 44.3982 53.0836 44.2888C50.032 43.9826 47.6805 41.5982 47.407 38.5467C47.2211 36.5123 48.3914 34.1826 50.1852 33.0013C50.7539 32.6185 51.9352 32.1045 52.2633 32.0935C52.3617 32.0826 52.3945 32.7826 52.3945 35.2107ZM56.0477 32.4982C59.2852 33.931 60.6195 37.6935 59.0555 40.931L58.7164 41.6201L56.7039 39.6185L54.6914 37.606V32.0607L55.0523 32.1373C55.2383 32.181 55.6867 32.3451 56.0477 32.4982Z" fill="#1742E7"></path><path d="M30.793 33.417C30.6727 33.4826 30.4867 33.6357 30.3883 33.767C30.2133 33.9748 30.1914 34.5982 30.1914 42.2763V50.567H27.457V45.7982C27.457 42.7466 27.4133 40.9638 27.3477 40.8216C27.0742 40.3295 26.7789 40.2857 23.6289 40.2857C20.4789 40.2857 20.1836 40.3295 19.9102 40.8216C19.8445 40.9638 19.8008 42.7466 19.8008 45.7982V50.567H19.1336C18.543 50.567 18.4336 50.5998 18.1492 50.8842C17.8977 51.1357 17.832 51.2998 17.832 51.6607C17.832 52.2295 17.9742 52.492 18.3789 52.6998C18.6523 52.842 20.0305 52.8638 29.0977 52.8638C38.1648 52.8638 39.543 52.842 39.8164 52.6998C40.2211 52.492 40.3633 52.2295 40.3633 51.6607C40.3633 51.2998 40.2977 51.1357 40.0461 50.8842C39.7398 50.5779 39.6742 50.567 38.7883 50.567H37.8477V42.2982C37.8477 36.8404 37.8148 33.9638 37.7383 33.8217C37.4648 33.3295 37.1695 33.2857 33.9977 33.2857C32.0398 33.2966 30.9352 33.3295 30.793 33.417ZM35.5508 50.567H32.4883V35.5826H35.5508V50.567ZM25.1602 50.567H22.0977V42.5826H25.1602V50.567Z" fill="#1742E7"></path><path d="M45.482 50.8842C45.1758 51.1576 45.1211 51.2779 45.1211 51.7045C45.1211 52.0982 45.1867 52.2623 45.4273 52.5029L45.7227 52.8092L53.4117 52.842C59.0445 52.8638 61.1664 52.831 61.3961 52.7435C62.0633 52.4592 62.2383 51.4201 61.7023 50.8842L61.3852 50.567H45.832L45.482 50.8842Z" fill="#1742E7"></path><path d="M18.357 56.867C17.9633 57.0748 17.832 57.3373 17.832 57.8951C17.832 58.256 17.8977 58.4201 18.1492 58.6716C18.8602 59.3717 20.0195 58.8904 20.0195 57.8951C20.0195 57.3263 19.8773 57.0638 19.4727 56.856C19.0789 56.6482 18.7398 56.6482 18.357 56.867Z" fill="#1742E7"></path><path d="M23.5633 56.8013C23.432 56.8451 23.2242 57.031 23.082 57.206C22.7758 57.5888 22.8305 58.3435 23.1805 58.7045L23.4211 58.9342L61.3742 58.9888L61.7023 58.6716C62.0523 58.3217 62.118 57.8076 61.8883 57.2935C61.6039 56.6591 62.7961 56.692 42.4742 56.7029C32.2039 56.7029 23.6836 56.7467 23.5633 56.8013Z" fill="#1742E7"></path><path d="M14.8789 15.3373C13.8945 15.6435 13.0086 16.3873 12.5711 17.2732L12.3086 17.8092V63.4185L12.5711 63.9545C12.9102 64.6435 13.5117 65.2451 14.2445 65.6279L14.8242 65.9342H65.6836L66.2633 65.6279C66.9742 65.256 67.6086 64.6107 67.9477 63.9326L68.1992 63.4185V17.8092L67.9367 17.2732C67.5977 16.5842 66.9961 15.9826 66.2633 15.5998L65.6836 15.2935L40.418 15.2717C26.5273 15.2607 15.032 15.2935 14.8789 15.3373ZM65.2352 17.6998C65.9461 18.0388 66.0117 18.3013 66.0445 20.9482L66.0883 23.3326H14.4195L14.4633 20.9482C14.4961 18.8263 14.518 18.542 14.7039 18.2248C15.1523 17.481 13.0523 17.5357 40.232 17.5357C62.0414 17.5357 64.9289 17.5576 65.2352 17.6998ZM66.0664 43.8623C66.0664 54.3842 66.0227 62.292 65.957 62.5326C65.9023 62.7732 65.7055 63.1123 65.5195 63.2982L65.1914 63.6373L40.407 63.6701C13.0414 63.692 15.1633 63.7467 14.7148 63.0029C14.4961 62.6638 14.4961 62.292 14.4633 44.1357L14.4414 25.6295H66.0664V43.8623Z" stroke="white" stroke-width="0.5"></path><path d="M17.2961 19.6795C16.6617 20.2045 16.782 21.156 17.5148 21.5388C18.2695 21.9217 19.1445 21.342 19.1445 20.467C19.1445 19.5154 18.0508 19.0451 17.2961 19.6795Z" stroke="white" stroke-width="0.5"></path><path d="M21.518 19.6138C21.1023 19.942 20.9492 20.4888 21.157 20.9592C21.3211 21.3638 21.8023 21.692 22.207 21.692C22.5242 21.692 23.0492 21.3967 23.1914 21.156C23.2461 21.0357 23.3008 20.7404 23.3008 20.4888C23.3008 19.5701 22.2398 19.0451 21.518 19.6138Z" stroke="white" stroke-width="0.5"></path><path d="M25.6961 19.7123C25.4445 19.9748 25.3789 20.1279 25.3789 20.5107C25.3789 21.7357 27.0523 22.0967 27.5227 20.981C28.0039 19.8326 26.5711 18.8373 25.6961 19.7123Z" stroke="white" stroke-width="0.5"></path><path d="M51.968 29.7857C48.6977 30.4748 46.1602 32.881 45.3289 36.0748C45.0336 37.2232 45.0555 39.2029 45.3836 40.3295C46.2039 43.2717 48.4242 45.492 51.3773 46.3232C52.4602 46.6295 54.4617 46.6513 55.5883 46.3779C58.4539 45.6779 60.7836 43.4576 61.6914 40.5592C62.0633 39.3779 62.118 37.4638 61.8117 36.1842C61.0898 33.1654 58.782 30.7592 55.8398 29.9498C55.0742 29.742 52.6789 29.6435 51.968 29.7857ZM52.3945 35.2107C52.3945 37.2779 52.4383 38.4154 52.5148 38.5685C52.5805 38.6998 53.6195 39.8045 54.8336 41.0185L57.0211 43.217L56.6492 43.4467C55.6977 44.0373 54.1555 44.3982 53.0836 44.2888C50.032 43.9826 47.6805 41.5982 47.407 38.5467C47.2211 36.5123 48.3914 34.1826 50.1852 33.0013C50.7539 32.6185 51.9352 32.1045 52.2633 32.0935C52.3617 32.0826 52.3945 32.7826 52.3945 35.2107ZM56.0477 32.4982C59.2852 33.931 60.6195 37.6935 59.0555 40.931L58.7164 41.6201L56.7039 39.6185L54.6914 37.606V32.0607L55.0523 32.1373C55.2383 32.181 55.6867 32.3451 56.0477 32.4982Z" stroke="white" stroke-width="0.5"></path><path d="M30.793 33.417C30.6727 33.4826 30.4867 33.6357 30.3883 33.767C30.2133 33.9748 30.1914 34.5982 30.1914 42.2763V50.567H27.457V45.7982C27.457 42.7466 27.4133 40.9638 27.3477 40.8216C27.0742 40.3295 26.7789 40.2857 23.6289 40.2857C20.4789 40.2857 20.1836 40.3295 19.9102 40.8216C19.8445 40.9638 19.8008 42.7466 19.8008 45.7982V50.567H19.1336C18.543 50.567 18.4336 50.5998 18.1492 50.8842C17.8977 51.1357 17.832 51.2998 17.832 51.6607C17.832 52.2295 17.9742 52.492 18.3789 52.6998C18.6523 52.842 20.0305 52.8638 29.0977 52.8638C38.1648 52.8638 39.543 52.842 39.8164 52.6998C40.2211 52.492 40.3633 52.2295 40.3633 51.6607C40.3633 51.2998 40.2977 51.1357 40.0461 50.8842C39.7398 50.5779 39.6742 50.567 38.7883 50.567H37.8477V42.2982C37.8477 36.8404 37.8148 33.9638 37.7383 33.8217C37.4648 33.3295 37.1695 33.2857 33.9977 33.2857C32.0398 33.2966 30.9352 33.3295 30.793 33.417ZM35.5508 50.567H32.4883V35.5826H35.5508V50.567ZM25.1602 50.567H22.0977V42.5826H25.1602V50.567Z" stroke="white" stroke-width="0.5"></path><path d="M45.482 50.8842C45.1758 51.1576 45.1211 51.2779 45.1211 51.7045C45.1211 52.0982 45.1867 52.2623 45.4273 52.5029L45.7227 52.8092L53.4117 52.842C59.0445 52.8638 61.1664 52.831 61.3961 52.7435C62.0633 52.4592 62.2383 51.4201 61.7023 50.8842L61.3852 50.567H45.832L45.482 50.8842Z" stroke="white" stroke-width="0.5"></path><path d="M18.357 56.867C17.9633 57.0748 17.832 57.3373 17.832 57.8951C17.832 58.256 17.8977 58.4201 18.1492 58.6716C18.8602 59.3717 20.0195 58.8904 20.0195 57.8951C20.0195 57.3263 19.8773 57.0638 19.4727 56.856C19.0789 56.6482 18.7398 56.6482 18.357 56.867Z" stroke="white" stroke-width="0.5"></path><path d="M23.5633 56.8013C23.432 56.8451 23.2242 57.031 23.082 57.206C22.7758 57.5888 22.8305 58.3435 23.1805 58.7045L23.4211 58.9342L61.3742 58.9888L61.7023 58.6716C62.0523 58.3217 62.118 57.8076 61.8883 57.2935C61.6039 56.6591 62.7961 56.692 42.4742 56.7029C32.2039 56.7029 23.6836 56.7467 23.5633 56.8013Z" stroke="white" stroke-width="0.5"></path></svg>