<svg xmlns="http://www.w3.org/2000/svg" width="81" height="81" viewBox="0 0 81 81" fill="none"><mask id="path-1-inside-1_10191_3066" fill="white"><path d="M12.9755 12.8345C12.8011 13.1717 12.836 13.6135 13.0453 13.8228C13.2081 13.9856 14.0685 14.0089 20.8242 14.0089C29.1845 14.0089 28.7891 14.0437 28.7891 13.3112C28.7891 12.5787 29.1845 12.6135 20.766 12.6135C13.3011 12.6135 13.0918 12.6252 12.9755 12.8345Z"></path><path d="M12.9755 16.2065C12.8011 16.5437 12.836 16.9855 13.0453 17.1948C13.2081 17.3576 14.0685 17.3809 20.8242 17.3809C27.5798 17.3809 28.4403 17.3576 28.6031 17.1948C28.8124 16.9855 28.8473 16.5437 28.6728 16.2065C28.5566 15.9972 28.3473 15.9856 20.8242 15.9856C13.3011 15.9856 13.0918 15.9972 12.9755 16.2065Z"></path><path d="M54.6607 16.6716C52.684 17.1948 51.5793 19.2878 52.2421 21.2529L52.4747 21.9157L45.9748 28.0667L45.4864 27.8109C44.7888 27.4388 43.2423 27.4504 42.5098 27.8341C42.2191 27.9853 41.8702 28.2062 41.7423 28.3341C41.4284 28.6132 41.6493 28.7178 38.3819 26.7528L35.9518 25.2877L35.9401 24.2761C35.9401 23.3924 35.8936 23.1598 35.6146 22.5901C34.9867 21.3227 33.9402 20.6948 32.4518 20.7064C31.6844 20.7064 31.417 20.7645 30.9286 21.0203C30.1844 21.3924 29.4519 22.218 29.2077 22.9273C28.9752 23.6249 28.9752 24.6598 29.2077 25.3575C29.3821 25.8923 29.3821 25.904 29.1147 26.1598C28.9752 26.2993 27.545 27.59 25.9404 29.0318L23.0334 31.6364L22.3939 31.3457C21.0219 30.7178 19.3358 31.0783 18.3359 32.2178C16.801 33.9619 17.4522 36.8107 19.5917 37.7642C20.3707 38.1014 21.5916 38.0781 22.4055 37.706C24.0567 36.9502 24.8706 35.1131 24.2892 33.4154L24.0683 32.7759L27.2543 29.9039L30.4519 27.0435L30.9286 27.2876C31.5333 27.6016 32.7774 27.6946 33.51 27.4969C33.8123 27.4039 34.2774 27.1714 34.5564 26.9621L35.0564 26.5784L37.8354 28.2179L40.6028 29.869L40.5563 30.7527C40.4982 31.9038 40.7889 32.7061 41.5447 33.4619C42.4865 34.4038 43.94 34.7293 45.2539 34.2759C46.0678 33.9968 47.0445 32.9968 47.312 32.1596C47.5562 31.4038 47.5562 30.4969 47.3236 29.8806C47.2306 29.6248 47.1376 29.3574 47.1259 29.276C47.0911 29.055 53.4746 23.0668 53.6723 23.1249C53.7653 23.1598 54.0793 23.2645 54.37 23.3691C55.0793 23.6366 56.4629 23.5552 57.1025 23.2296C57.7304 22.904 58.3815 22.2296 58.6955 21.5785C59.1024 20.7645 59.0792 19.2878 58.6489 18.4739C58.2885 17.7762 57.6722 17.2065 56.9397 16.8809C56.3699 16.6367 55.2188 16.5204 54.6607 16.6716ZM56.6374 18.4739C57.1955 18.9041 57.4164 19.2646 57.4745 19.8692C57.5676 20.6017 57.1722 21.3575 56.5327 21.7413C54.5676 22.8924 52.5677 20.3924 54.1142 18.7297C54.8002 17.9971 55.8699 17.8925 56.6374 18.4739ZM33.2774 22.3691C34.4053 22.8808 34.8006 24.2296 34.1146 25.2412C33.103 26.7063 30.7658 26.1714 30.5682 24.4272C30.4868 23.7296 30.5798 23.3924 31.0216 22.8924C31.6844 22.1482 32.417 21.9738 33.2774 22.3691ZM44.7539 29.1713C45.5911 29.5202 46.1143 30.4969 45.9515 31.3922C45.8585 31.8573 45.312 32.5433 44.8237 32.7992C43.9981 33.2177 42.8353 32.8457 42.3353 31.9968C41.3935 30.3806 43.0446 28.4504 44.7539 29.1713ZM22.0567 32.9038C22.5218 33.2061 22.9753 34.0084 22.9753 34.5317C22.9753 34.7177 22.8707 35.0898 22.7311 35.3689C22.3125 36.2293 21.4056 36.6828 20.5451 36.4502C18.9986 36.0316 18.4987 34.1596 19.6382 33.1015C20.3126 32.462 21.266 32.3922 22.0567 32.9038Z"></path><path d="M13.3243 19.3227C12.8592 19.4855 12.6965 20.2297 13.0453 20.5669C13.1964 20.7296 13.6732 20.7529 16.5103 20.7529C19.5451 20.7529 19.8126 20.7413 19.987 20.5436C20.2312 20.2762 20.2428 19.8227 20.0219 19.5204C19.8591 19.3111 19.673 19.2994 16.6731 19.2762C14.929 19.2646 13.4174 19.2878 13.3243 19.3227Z"></path><path d="M51.8119 29.7876C51.7189 29.8225 51.5444 29.9271 51.4398 30.0318C51.2421 30.1945 51.2305 30.7178 51.2305 37.9851C51.2305 43.4501 51.1956 45.7523 51.1026 45.7523C50.9398 45.7523 49.5677 46.5895 48.8817 47.1012L48.3236 47.5198V43.3803C48.3236 39.392 48.312 39.2292 48.091 39.0083C47.8701 38.7874 47.7073 38.7758 44.0214 38.7758C40.3354 38.7758 40.1726 38.7874 39.9517 39.0083C39.7191 39.2409 39.7191 39.392 39.7191 46.3337V53.4266H36.8122V43.857C36.8122 35.3921 36.7889 34.2642 36.6262 34.0317C36.4517 33.7759 36.4517 33.7759 32.5216 33.7759C28.8589 33.7759 28.5798 33.7875 28.4054 33.9852C28.2194 34.1828 28.2077 35.0317 28.2077 43.8105V53.4266H25.3008V42.3687L24.7194 41.7873L20.8707 41.8222C17.2196 41.8571 17.0219 41.8687 16.8592 42.078C16.7196 42.2757 16.6964 43.2524 16.6964 47.8686V53.4266H14.7429C12.5104 53.4266 12.2779 53.4964 12.2779 54.1824C12.2779 54.9963 10.9291 54.9382 28.4752 54.9382H44.312V56.7754C44.3237 58.38 44.3586 58.7288 44.626 59.7055C45.7888 63.9147 48.8003 66.9844 53.0328 68.2751C54.0095 68.5658 54.2304 68.5891 56.2304 68.5891C58.8117 68.6007 59.6257 68.4263 61.6372 67.4379C64.0558 66.2635 65.9278 64.3915 67.1022 61.9729C68.0906 59.9613 68.265 59.1474 68.2534 56.5661C68.2534 54.5661 68.2301 54.3452 67.9394 53.3685C66.7302 49.4034 63.9279 46.4849 60.0443 45.1361C59.8466 45.0663 59.835 44.6012 59.835 37.6362C59.835 30.2294 59.835 30.2062 59.5908 29.9853C59.3582 29.776 59.1024 29.7643 55.6606 29.7411C53.6374 29.7294 51.9049 29.7527 51.8119 29.7876ZM58.3234 44.671L56.7885 44.6128C55.3583 44.5663 54.1955 44.6942 53.0095 45.0082L52.7421 45.0779V31.2178H58.3234V44.671ZM35.3006 53.4266H29.7193V35.1712H35.3006V53.4266ZM46.812 49.1476L46.405 49.7057C45.8934 50.4034 45.1492 51.8801 44.8702 52.7522L44.6609 53.4266H41.2307V40.2874H46.812V49.1476ZM23.7892 53.4266H18.208V43.3105H23.7892V53.4266ZM59.1722 46.4965C62.1605 47.3918 64.4163 49.2988 65.7651 52.0662C66.5441 53.6824 66.7069 54.3568 66.7767 56.2754C66.8232 57.6591 66.7999 58.0544 66.5906 58.9148C66.1023 60.9962 65.2186 62.5892 63.7302 64.0659C61.6721 66.1356 59.1954 67.1589 56.2653 67.1589C50.684 67.1589 46.0678 62.7636 45.8004 57.2056C45.7306 55.694 45.8818 54.5545 46.3353 53.2289C46.8934 51.6127 47.5445 50.6011 48.905 49.2406C50.2654 47.8802 51.277 47.2291 52.8932 46.6709C54.2537 46.2058 54.9165 46.1128 56.6374 46.1477C57.8583 46.1826 58.3466 46.2523 59.1722 46.4965Z"></path><path d="M55.6258 51.9964C55.5211 52.1127 55.1141 53.3103 54.7072 54.6708L53.963 57.1242L53.4398 55.7754C52.9863 54.6126 52.8584 54.4033 52.5793 54.2987C52.0444 54.1126 51.7189 54.4033 51.3119 55.4266L50.9631 56.3335H49.1259C47.0445 56.3335 46.8934 56.3917 46.9515 57.1358C47.0097 57.7986 47.2306 57.8567 49.6956 57.8219L51.8351 57.787L52.0909 57.473L52.3351 57.1591L52.8467 58.5544C53.4049 60.0544 53.649 60.3799 54.1955 60.2404C54.6141 60.1358 54.742 59.8567 55.4281 57.5777C55.7769 56.4149 56.0792 55.5777 56.1257 55.6591C56.1723 55.7405 56.5095 56.9847 56.8699 58.4265C57.242 59.8683 57.6141 61.1357 57.7187 61.2404C57.8117 61.3567 58.0559 61.4497 58.2652 61.4497C58.4745 61.4497 58.7071 61.3567 58.8117 61.2404C58.9048 61.1357 59.2071 60.1474 59.4861 59.066C59.9745 57.1126 60.1722 56.5196 60.1838 56.9382C60.1838 57.0428 60.3001 57.2637 60.4512 57.4265C60.707 57.7172 60.7187 57.7172 63.0093 57.7521L65.3232 57.787L65.5441 57.5079C65.7069 57.3102 65.7534 57.1358 65.7069 56.9265C65.5558 56.3451 65.5093 56.3335 63.4977 56.3335H61.6024L61.114 55.0777C60.5559 53.694 60.4861 53.5894 60.0443 53.4847C59.4745 53.3452 59.242 53.7406 58.742 55.8103C58.4862 56.8335 58.2652 57.6126 58.242 57.5312C58.2071 57.4498 57.8815 56.2056 57.5094 54.7405C57.0443 52.9615 56.7536 52.0429 56.6141 51.9499C56.335 51.7406 55.835 51.7638 55.6258 51.9964Z"></path></mask><path d="M12.9755 12.8345C12.8011 13.1717 12.836 13.6135 13.0453 13.8228C13.2081 13.9856 14.0685 14.0089 20.8242 14.0089C29.1845 14.0089 28.7891 14.0437 28.7891 13.3112C28.7891 12.5787 29.1845 12.6135 20.766 12.6135C13.3011 12.6135 13.0918 12.6252 12.9755 12.8345Z" fill="#1742E7"></path><path d="M12.9755 16.2065C12.8011 16.5437 12.836 16.9855 13.0453 17.1948C13.2081 17.3576 14.0685 17.3809 20.8242 17.3809C27.5798 17.3809 28.4403 17.3576 28.6031 17.1948C28.8124 16.9855 28.8473 16.5437 28.6728 16.2065C28.5566 15.9972 28.3473 15.9856 20.8242 15.9856C13.3011 15.9856 13.0918 15.9972 12.9755 16.2065Z" fill="#1742E7"></path><path d="M54.6607 16.6716C52.684 17.1948 51.5793 19.2878 52.2421 21.2529L52.4747 21.9157L45.9748 28.0667L45.4864 27.8109C44.7888 27.4388 43.2423 27.4504 42.5098 27.8341C42.2191 27.9853 41.8702 28.2062 41.7423 28.3341C41.4284 28.6132 41.6493 28.7178 38.3819 26.7528L35.9518 25.2877L35.9401 24.2761C35.9401 23.3924 35.8936 23.1598 35.6146 22.5901C34.9867 21.3227 33.9402 20.6948 32.4518 20.7064C31.6844 20.7064 31.417 20.7645 30.9286 21.0203C30.1844 21.3924 29.4519 22.218 29.2077 22.9273C28.9752 23.6249 28.9752 24.6598 29.2077 25.3575C29.3821 25.8923 29.3821 25.904 29.1147 26.1598C28.9752 26.2993 27.545 27.59 25.9404 29.0318L23.0334 31.6364L22.3939 31.3457C21.0219 30.7178 19.3358 31.0783 18.3359 32.2178C16.801 33.9619 17.4522 36.8107 19.5917 37.7642C20.3707 38.1014 21.5916 38.0781 22.4055 37.706C24.0567 36.9502 24.8706 35.1131 24.2892 33.4154L24.0683 32.7759L27.2543 29.9039L30.4519 27.0435L30.9286 27.2876C31.5333 27.6016 32.7774 27.6946 33.51 27.4969C33.8123 27.4039 34.2774 27.1714 34.5564 26.9621L35.0564 26.5784L37.8354 28.2179L40.6028 29.869L40.5563 30.7527C40.4982 31.9038 40.7889 32.7061 41.5447 33.4619C42.4865 34.4038 43.94 34.7293 45.2539 34.2759C46.0678 33.9968 47.0445 32.9968 47.312 32.1596C47.5562 31.4038 47.5562 30.4969 47.3236 29.8806C47.2306 29.6248 47.1376 29.3574 47.1259 29.276C47.0911 29.055 53.4746 23.0668 53.6723 23.1249C53.7653 23.1598 54.0793 23.2645 54.37 23.3691C55.0793 23.6366 56.4629 23.5552 57.1025 23.2296C57.7304 22.904 58.3815 22.2296 58.6955 21.5785C59.1024 20.7645 59.0792 19.2878 58.6489 18.4739C58.2885 17.7762 57.6722 17.2065 56.9397 16.8809C56.3699 16.6367 55.2188 16.5204 54.6607 16.6716ZM56.6374 18.4739C57.1955 18.9041 57.4164 19.2646 57.4745 19.8692C57.5676 20.6017 57.1722 21.3575 56.5327 21.7413C54.5676 22.8924 52.5677 20.3924 54.1142 18.7297C54.8002 17.9971 55.8699 17.8925 56.6374 18.4739ZM33.2774 22.3691C34.4053 22.8808 34.8006 24.2296 34.1146 25.2412C33.103 26.7063 30.7658 26.1714 30.5682 24.4272C30.4868 23.7296 30.5798 23.3924 31.0216 22.8924C31.6844 22.1482 32.417 21.9738 33.2774 22.3691ZM44.7539 29.1713C45.5911 29.5202 46.1143 30.4969 45.9515 31.3922C45.8585 31.8573 45.312 32.5433 44.8237 32.7992C43.9981 33.2177 42.8353 32.8457 42.3353 31.9968C41.3935 30.3806 43.0446 28.4504 44.7539 29.1713ZM22.0567 32.9038C22.5218 33.2061 22.9753 34.0084 22.9753 34.5317C22.9753 34.7177 22.8707 35.0898 22.7311 35.3689C22.3125 36.2293 21.4056 36.6828 20.5451 36.4502C18.9986 36.0316 18.4987 34.1596 19.6382 33.1015C20.3126 32.462 21.266 32.3922 22.0567 32.9038Z" fill="#1742E7"></path><path d="M13.3243 19.3227C12.8592 19.4855 12.6965 20.2297 13.0453 20.5669C13.1964 20.7296 13.6732 20.7529 16.5103 20.7529C19.5451 20.7529 19.8126 20.7413 19.987 20.5436C20.2312 20.2762 20.2428 19.8227 20.0219 19.5204C19.8591 19.3111 19.673 19.2994 16.6731 19.2762C14.929 19.2646 13.4174 19.2878 13.3243 19.3227Z" fill="#1742E7"></path><path d="M51.8119 29.7876C51.7189 29.8225 51.5444 29.9271 51.4398 30.0318C51.2421 30.1945 51.2305 30.7178 51.2305 37.9851C51.2305 43.4501 51.1956 45.7523 51.1026 45.7523C50.9398 45.7523 49.5677 46.5895 48.8817 47.1012L48.3236 47.5198V43.3803C48.3236 39.392 48.312 39.2292 48.091 39.0083C47.8701 38.7874 47.7073 38.7758 44.0214 38.7758C40.3354 38.7758 40.1726 38.7874 39.9517 39.0083C39.7191 39.2409 39.7191 39.392 39.7191 46.3337V53.4266H36.8122V43.857C36.8122 35.3921 36.7889 34.2642 36.6262 34.0317C36.4517 33.7759 36.4517 33.7759 32.5216 33.7759C28.8589 33.7759 28.5798 33.7875 28.4054 33.9852C28.2194 34.1828 28.2077 35.0317 28.2077 43.8105V53.4266H25.3008V42.3687L24.7194 41.7873L20.8707 41.8222C17.2196 41.8571 17.0219 41.8687 16.8592 42.078C16.7196 42.2757 16.6964 43.2524 16.6964 47.8686V53.4266H14.7429C12.5104 53.4266 12.2779 53.4964 12.2779 54.1824C12.2779 54.9963 10.9291 54.9382 28.4752 54.9382H44.312V56.7754C44.3237 58.38 44.3586 58.7288 44.626 59.7055C45.7888 63.9147 48.8003 66.9844 53.0328 68.2751C54.0095 68.5658 54.2304 68.5891 56.2304 68.5891C58.8117 68.6007 59.6257 68.4263 61.6372 67.4379C64.0558 66.2635 65.9278 64.3915 67.1022 61.9729C68.0906 59.9613 68.265 59.1474 68.2534 56.5661C68.2534 54.5661 68.2301 54.3452 67.9394 53.3685C66.7302 49.4034 63.9279 46.4849 60.0443 45.1361C59.8466 45.0663 59.835 44.6012 59.835 37.6362C59.835 30.2294 59.835 30.2062 59.5908 29.9853C59.3582 29.776 59.1024 29.7643 55.6606 29.7411C53.6374 29.7294 51.9049 29.7527 51.8119 29.7876ZM58.3234 44.671L56.7885 44.6128C55.3583 44.5663 54.1955 44.6942 53.0095 45.0082L52.7421 45.0779V31.2178H58.3234V44.671ZM35.3006 53.4266H29.7193V35.1712H35.3006V53.4266ZM46.812 49.1476L46.405 49.7057C45.8934 50.4034 45.1492 51.8801 44.8702 52.7522L44.6609 53.4266H41.2307V40.2874H46.812V49.1476ZM23.7892 53.4266H18.208V43.3105H23.7892V53.4266ZM59.1722 46.4965C62.1605 47.3918 64.4163 49.2988 65.7651 52.0662C66.5441 53.6824 66.7069 54.3568 66.7767 56.2754C66.8232 57.6591 66.7999 58.0544 66.5906 58.9148C66.1023 60.9962 65.2186 62.5892 63.7302 64.0659C61.6721 66.1356 59.1954 67.1589 56.2653 67.1589C50.684 67.1589 46.0678 62.7636 45.8004 57.2056C45.7306 55.694 45.8818 54.5545 46.3353 53.2289C46.8934 51.6127 47.5445 50.6011 48.905 49.2406C50.2654 47.8802 51.277 47.2291 52.8932 46.6709C54.2537 46.2058 54.9165 46.1128 56.6374 46.1477C57.8583 46.1826 58.3466 46.2523 59.1722 46.4965Z" fill="#1742E7"></path><path d="M55.6258 51.9964C55.5211 52.1127 55.1141 53.3103 54.7072 54.6708L53.963 57.1242L53.4398 55.7754C52.9863 54.6126 52.8584 54.4033 52.5793 54.2987C52.0444 54.1126 51.7189 54.4033 51.3119 55.4266L50.9631 56.3335H49.1259C47.0445 56.3335 46.8934 56.3917 46.9515 57.1358C47.0097 57.7986 47.2306 57.8567 49.6956 57.8219L51.8351 57.787L52.0909 57.473L52.3351 57.1591L52.8467 58.5544C53.4049 60.0544 53.649 60.3799 54.1955 60.2404C54.6141 60.1358 54.742 59.8567 55.4281 57.5777C55.7769 56.4149 56.0792 55.5777 56.1257 55.6591C56.1723 55.7405 56.5095 56.9847 56.8699 58.4265C57.242 59.8683 57.6141 61.1357 57.7187 61.2404C57.8117 61.3567 58.0559 61.4497 58.2652 61.4497C58.4745 61.4497 58.7071 61.3567 58.8117 61.2404C58.9048 61.1357 59.2071 60.1474 59.4861 59.066C59.9745 57.1126 60.1722 56.5196 60.1838 56.9382C60.1838 57.0428 60.3001 57.2637 60.4512 57.4265C60.707 57.7172 60.7187 57.7172 63.0093 57.7521L65.3232 57.787L65.5441 57.5079C65.7069 57.3102 65.7534 57.1358 65.7069 56.9265C65.5558 56.3451 65.5093 56.3335 63.4977 56.3335H61.6024L61.114 55.0777C60.5559 53.694 60.4861 53.5894 60.0443 53.4847C59.4745 53.3452 59.242 53.7406 58.742 55.8103C58.4862 56.8335 58.2652 57.6126 58.242 57.5312C58.2071 57.4498 57.8815 56.2056 57.5094 54.7405C57.0443 52.9615 56.7536 52.0429 56.6141 51.9499C56.335 51.7406 55.835 51.7638 55.6258 51.9964Z" fill="#1742E7"></path><path d="M12.9755 12.8345C12.8011 13.1717 12.836 13.6135 13.0453 13.8228C13.2081 13.9856 14.0685 14.0089 20.8242 14.0089C29.1845 14.0089 28.7891 14.0437 28.7891 13.3112C28.7891 12.5787 29.1845 12.6135 20.766 12.6135C13.3011 12.6135 13.0918 12.6252 12.9755 12.8345Z" stroke="#1742E7" stroke-width="0.56" mask="url(#path-1-inside-1_10191_3066)"></path><path d="M12.9755 16.2065C12.8011 16.5437 12.836 16.9855 13.0453 17.1948C13.2081 17.3576 14.0685 17.3809 20.8242 17.3809C27.5798 17.3809 28.4403 17.3576 28.6031 17.1948C28.8124 16.9855 28.8473 16.5437 28.6728 16.2065C28.5566 15.9972 28.3473 15.9856 20.8242 15.9856C13.3011 15.9856 13.0918 15.9972 12.9755 16.2065Z" stroke="#1742E7" stroke-width="0.56" mask="url(#path-1-inside-1_10191_3066)"></path><path d="M54.6607 16.6716C52.684 17.1948 51.5793 19.2878 52.2421 21.2529L52.4747 21.9157L45.9748 28.0667L45.4864 27.8109C44.7888 27.4388 43.2423 27.4504 42.5098 27.8341C42.2191 27.9853 41.8702 28.2062 41.7423 28.3341C41.4284 28.6132 41.6493 28.7178 38.3819 26.7528L35.9518 25.2877L35.9401 24.2761C35.9401 23.3924 35.8936 23.1598 35.6146 22.5901C34.9867 21.3227 33.9402 20.6948 32.4518 20.7064C31.6844 20.7064 31.417 20.7645 30.9286 21.0203C30.1844 21.3924 29.4519 22.218 29.2077 22.9273C28.9752 23.6249 28.9752 24.6598 29.2077 25.3575C29.3821 25.8923 29.3821 25.904 29.1147 26.1598C28.9752 26.2993 27.545 27.59 25.9404 29.0318L23.0334 31.6364L22.3939 31.3457C21.0219 30.7178 19.3358 31.0783 18.3359 32.2178C16.801 33.9619 17.4522 36.8107 19.5917 37.7642C20.3707 38.1014 21.5916 38.0781 22.4055 37.706C24.0567 36.9502 24.8706 35.1131 24.2892 33.4154L24.0683 32.7759L27.2543 29.9039L30.4519 27.0435L30.9286 27.2876C31.5333 27.6016 32.7774 27.6946 33.51 27.4969C33.8123 27.4039 34.2774 27.1714 34.5564 26.9621L35.0564 26.5784L37.8354 28.2179L40.6028 29.869L40.5563 30.7527C40.4982 31.9038 40.7889 32.7061 41.5447 33.4619C42.4865 34.4038 43.94 34.7293 45.2539 34.2759C46.0678 33.9968 47.0445 32.9968 47.312 32.1596C47.5562 31.4038 47.5562 30.4969 47.3236 29.8806C47.2306 29.6248 47.1376 29.3574 47.1259 29.276C47.0911 29.055 53.4746 23.0668 53.6723 23.1249C53.7653 23.1598 54.0793 23.2645 54.37 23.3691C55.0793 23.6366 56.4629 23.5552 57.1025 23.2296C57.7304 22.904 58.3815 22.2296 58.6955 21.5785C59.1024 20.7645 59.0792 19.2878 58.6489 18.4739C58.2885 17.7762 57.6722 17.2065 56.9397 16.8809C56.3699 16.6367 55.2188 16.5204 54.6607 16.6716ZM56.6374 18.4739C57.1955 18.9041 57.4164 19.2646 57.4745 19.8692C57.5676 20.6017 57.1722 21.3575 56.5327 21.7413C54.5676 22.8924 52.5677 20.3924 54.1142 18.7297C54.8002 17.9971 55.8699 17.8925 56.6374 18.4739ZM33.2774 22.3691C34.4053 22.8808 34.8006 24.2296 34.1146 25.2412C33.103 26.7063 30.7658 26.1714 30.5682 24.4272C30.4868 23.7296 30.5798 23.3924 31.0216 22.8924C31.6844 22.1482 32.417 21.9738 33.2774 22.3691ZM44.7539 29.1713C45.5911 29.5202 46.1143 30.4969 45.9515 31.3922C45.8585 31.8573 45.312 32.5433 44.8237 32.7992C43.9981 33.2177 42.8353 32.8457 42.3353 31.9968C41.3935 30.3806 43.0446 28.4504 44.7539 29.1713ZM22.0567 32.9038C22.5218 33.2061 22.9753 34.0084 22.9753 34.5317C22.9753 34.7177 22.8707 35.0898 22.7311 35.3689C22.3125 36.2293 21.4056 36.6828 20.5451 36.4502C18.9986 36.0316 18.4987 34.1596 19.6382 33.1015C20.3126 32.462 21.266 32.3922 22.0567 32.9038Z" stroke="#1742E7" stroke-width="0.56" mask="url(#path-1-inside-1_10191_3066)"></path><path d="M13.3243 19.3227C12.8592 19.4855 12.6965 20.2297 13.0453 20.5669C13.1964 20.7296 13.6732 20.7529 16.5103 20.7529C19.5451 20.7529 19.8126 20.7413 19.987 20.5436C20.2312 20.2762 20.2428 19.8227 20.0219 19.5204C19.8591 19.3111 19.673 19.2994 16.6731 19.2762C14.929 19.2646 13.4174 19.2878 13.3243 19.3227Z" stroke="#1742E7" stroke-width="0.56" mask="url(#path-1-inside-1_10191_3066)"></path><path d="M51.8119 29.7876C51.7189 29.8225 51.5444 29.9271 51.4398 30.0318C51.2421 30.1945 51.2305 30.7178 51.2305 37.9851C51.2305 43.4501 51.1956 45.7523 51.1026 45.7523C50.9398 45.7523 49.5677 46.5895 48.8817 47.1012L48.3236 47.5198V43.3803C48.3236 39.392 48.312 39.2292 48.091 39.0083C47.8701 38.7874 47.7073 38.7758 44.0214 38.7758C40.3354 38.7758 40.1726 38.7874 39.9517 39.0083C39.7191 39.2409 39.7191 39.392 39.7191 46.3337V53.4266H36.8122V43.857C36.8122 35.3921 36.7889 34.2642 36.6262 34.0317C36.4517 33.7759 36.4517 33.7759 32.5216 33.7759C28.8589 33.7759 28.5798 33.7875 28.4054 33.9852C28.2194 34.1828 28.2077 35.0317 28.2077 43.8105V53.4266H25.3008V42.3687L24.7194 41.7873L20.8707 41.8222C17.2196 41.8571 17.0219 41.8687 16.8592 42.078C16.7196 42.2757 16.6964 43.2524 16.6964 47.8686V53.4266H14.7429C12.5104 53.4266 12.2779 53.4964 12.2779 54.1824C12.2779 54.9963 10.9291 54.9382 28.4752 54.9382H44.312V56.7754C44.3237 58.38 44.3586 58.7288 44.626 59.7055C45.7888 63.9147 48.8003 66.9844 53.0328 68.2751C54.0095 68.5658 54.2304 68.5891 56.2304 68.5891C58.8117 68.6007 59.6257 68.4263 61.6372 67.4379C64.0558 66.2635 65.9278 64.3915 67.1022 61.9729C68.0906 59.9613 68.265 59.1474 68.2534 56.5661C68.2534 54.5661 68.2301 54.3452 67.9394 53.3685C66.7302 49.4034 63.9279 46.4849 60.0443 45.1361C59.8466 45.0663 59.835 44.6012 59.835 37.6362C59.835 30.2294 59.835 30.2062 59.5908 29.9853C59.3582 29.776 59.1024 29.7643 55.6606 29.7411C53.6374 29.7294 51.9049 29.7527 51.8119 29.7876ZM58.3234 44.671L56.7885 44.6128C55.3583 44.5663 54.1955 44.6942 53.0095 45.0082L52.7421 45.0779V31.2178H58.3234V44.671ZM35.3006 53.4266H29.7193V35.1712H35.3006V53.4266ZM46.812 49.1476L46.405 49.7057C45.8934 50.4034 45.1492 51.8801 44.8702 52.7522L44.6609 53.4266H41.2307V40.2874H46.812V49.1476ZM23.7892 53.4266H18.208V43.3105H23.7892V53.4266ZM59.1722 46.4965C62.1605 47.3918 64.4163 49.2988 65.7651 52.0662C66.5441 53.6824 66.7069 54.3568 66.7767 56.2754C66.8232 57.6591 66.7999 58.0544 66.5906 58.9148C66.1023 60.9962 65.2186 62.5892 63.7302 64.0659C61.6721 66.1356 59.1954 67.1589 56.2653 67.1589C50.684 67.1589 46.0678 62.7636 45.8004 57.2056C45.7306 55.694 45.8818 54.5545 46.3353 53.2289C46.8934 51.6127 47.5445 50.6011 48.905 49.2406C50.2654 47.8802 51.277 47.2291 52.8932 46.6709C54.2537 46.2058 54.9165 46.1128 56.6374 46.1477C57.8583 46.1826 58.3466 46.2523 59.1722 46.4965Z" stroke="#1742E7" stroke-width="0.56" mask="url(#path-1-inside-1_10191_3066)"></path><path d="M55.6258 51.9964C55.5211 52.1127 55.1141 53.3103 54.7072 54.6708L53.963 57.1242L53.4398 55.7754C52.9863 54.6126 52.8584 54.4033 52.5793 54.2987C52.0444 54.1126 51.7189 54.4033 51.3119 55.4266L50.9631 56.3335H49.1259C47.0445 56.3335 46.8934 56.3917 46.9515 57.1358C47.0097 57.7986 47.2306 57.8567 49.6956 57.8219L51.8351 57.787L52.0909 57.473L52.3351 57.1591L52.8467 58.5544C53.4049 60.0544 53.649 60.3799 54.1955 60.2404C54.6141 60.1358 54.742 59.8567 55.4281 57.5777C55.7769 56.4149 56.0792 55.5777 56.1257 55.6591C56.1723 55.7405 56.5095 56.9847 56.8699 58.4265C57.242 59.8683 57.6141 61.1357 57.7187 61.2404C57.8117 61.3567 58.0559 61.4497 58.2652 61.4497C58.4745 61.4497 58.7071 61.3567 58.8117 61.2404C58.9048 61.1357 59.2071 60.1474 59.4861 59.066C59.9745 57.1126 60.1722 56.5196 60.1838 56.9382C60.1838 57.0428 60.3001 57.2637 60.4512 57.4265C60.707 57.7172 60.7187 57.7172 63.0093 57.7521L65.3232 57.787L65.5441 57.5079C65.7069 57.3102 65.7534 57.1358 65.7069 56.9265C65.5558 56.3451 65.5093 56.3335 63.4977 56.3335H61.6024L61.114 55.0777C60.5559 53.694 60.4861 53.5894 60.0443 53.4847C59.4745 53.3452 59.242 53.7406 58.742 55.8103C58.4862 56.8335 58.2652 57.6126 58.242 57.5312C58.2071 57.4498 57.8815 56.2056 57.5094 54.7405C57.0443 52.9615 56.7536 52.0429 56.6141 51.9499C56.335 51.7406 55.835 51.7638 55.6258 51.9964Z" stroke="#1742E7" stroke-width="0.56" mask="url(#path-1-inside-1_10191_3066)"></path></svg>