<svg xmlns="http://www.w3.org/2000/svg" width="81" height="81" viewBox="0 0 81 81" fill="none"><mask id="path-1-inside-1_10198_6128" fill="white"><path d="M18.3429 17.1405C17.5978 17.4199 16.8876 17.9089 16.515 18.3746C15.246 19.9696 15.3624 22.2166 16.7712 23.6369C17.2601 24.1259 18.2381 24.6731 18.6339 24.6731C18.8202 24.6731 18.8319 24.8943 18.8319 27.6303C18.8319 30.5642 18.8319 30.5991 19.088 30.7737C19.3092 30.9367 19.9263 30.96 23.3841 30.96H27.424L26.9001 31.7401C25.4913 33.8473 24.5483 36.4902 24.3271 38.9351L24.2456 39.8665L22.0685 39.9014L19.8913 39.9247L19.7749 39.5172C19.5071 38.5392 18.7504 37.6428 17.7491 37.1072C17.33 36.8744 17.0855 36.8394 16.0377 36.8394C14.9084 36.8394 14.7687 36.8627 14.1982 37.1771C13.4996 37.5729 12.9059 38.1667 12.5217 38.9001C12.2888 39.3309 12.2539 39.5754 12.2539 40.6232C12.2539 41.7525 12.2772 41.8922 12.5915 42.4627C12.9874 43.1613 13.5811 43.755 14.3146 44.1392C14.7454 44.3721 14.9899 44.407 16.0377 44.407C17.0855 44.407 17.33 44.3721 17.7491 44.1392C18.7504 43.6037 19.5071 42.7072 19.7749 41.7292L19.8913 41.3218L22.0685 41.345L24.2456 41.38L24.3271 42.3114C24.5483 44.7563 25.4913 47.3991 26.9001 49.5064L27.424 50.2864H23.3841C19.9263 50.2864 19.3092 50.3097 19.088 50.4727C18.8319 50.6473 18.8319 50.6823 18.8319 53.6161C18.8319 56.3521 18.8202 56.5733 18.6339 56.5733C18.2381 56.5733 17.2601 57.1205 16.7712 57.6095C14.92 59.4723 15.3741 62.5575 17.6909 63.7916C18.3662 64.1642 18.5059 64.1991 19.4722 64.1991C20.357 64.1991 20.6132 64.1525 21.1604 63.8964C21.9288 63.5355 22.6855 62.802 23.0464 62.0685C23.2676 61.6028 23.3142 61.3351 23.3142 60.3571C23.3142 59.3209 23.2793 59.123 22.9999 58.5991C22.604 57.8423 21.6493 56.9808 20.9159 56.7247L20.3454 56.5151V51.7999H28.7512L29.5778 52.5683C31.6385 54.4777 34.5375 55.8864 37.4597 56.4103C38.9383 56.6781 41.5695 56.6781 43.0481 56.4103C45.9703 55.8864 48.8693 54.4777 50.93 52.5683L51.7566 51.7999H60.1624V56.5151L59.592 56.7247C58.8585 56.9808 57.9038 57.8423 57.508 58.5991C57.2285 59.123 57.1936 59.3209 57.1936 60.3571C57.1936 61.3351 57.2402 61.6028 57.4614 62.0569C57.8223 62.7904 58.5907 63.5355 59.3475 63.8964C59.8947 64.1525 60.1391 64.1991 61.0356 64.1991C62.0019 64.1991 62.1416 64.1642 62.8169 63.7916C65.1337 62.5575 65.5878 59.4723 63.7366 57.6095C63.2477 57.1205 62.2697 56.5733 61.8855 56.5733C61.6876 56.5733 61.6759 56.3521 61.6759 53.6161C61.6759 50.6823 61.6759 50.6473 61.4198 50.4727C61.1986 50.3097 60.5816 50.2864 57.1238 50.2864H53.0838L53.6077 49.5064C55.0165 47.3991 55.9595 44.7563 56.1807 42.3114L56.2622 41.38L58.4394 41.345L60.6165 41.3218L60.7329 41.7292C61.0007 42.7072 61.7574 43.6037 62.7587 44.1392C63.1778 44.3721 63.4223 44.407 64.4701 44.407C65.5179 44.407 65.7624 44.3721 66.1932 44.1392C66.9267 43.755 67.5204 43.1613 67.9163 42.4627C68.2306 41.8922 68.2539 41.7525 68.2539 40.6232C68.2539 39.4939 68.2306 39.3542 67.9163 38.7837C67.5204 38.0852 66.9267 37.4914 66.1932 37.1072C65.7624 36.8744 65.5179 36.8394 64.4701 36.8394C63.4223 36.8394 63.1778 36.8744 62.7587 37.1072C61.7574 37.6428 61.0007 38.5392 60.7329 39.5172L60.6165 39.9247L58.4394 39.9014L56.2622 39.8665L56.1807 38.9351C55.9595 36.4902 55.0165 33.8473 53.6077 31.7401L53.0838 30.96H57.1238C60.5816 30.96 61.1986 30.9367 61.4198 30.7737C61.6759 30.5991 61.6759 30.5642 61.6759 27.6303C61.6759 24.8943 61.6876 24.6731 61.8855 24.6731C62.2697 24.6731 63.2477 24.1259 63.7366 23.6369C65.5878 21.7742 65.1337 18.7006 62.8169 17.4432C62.1416 17.0706 62.0136 17.0473 61.0356 17.0473C60.1508 17.0473 59.8947 17.0939 59.3242 17.3617C58.5558 17.7226 57.8339 18.4211 57.4614 19.1779C57.2402 19.6436 57.1936 19.9114 57.1936 20.8893C57.1936 21.9255 57.2285 22.1234 57.508 22.6473C57.9038 23.4041 58.8585 24.2656 59.592 24.5218L60.1624 24.7313V29.4465H51.7566L50.93 28.6781C48.8693 26.7687 45.982 25.36 43.0481 24.8361C41.5695 24.5683 38.9383 24.5683 37.4597 24.8361C34.5258 25.36 31.6385 26.7687 29.5778 28.6781L28.7512 29.4465H20.3454V24.7313L20.9159 24.5218C21.6493 24.2656 22.604 23.4041 22.9999 22.6473C23.2793 22.1234 23.3142 21.9255 23.3142 20.8893C23.3142 19.9114 23.2676 19.6436 23.0464 19.1779C22.6739 18.4095 21.952 17.7226 21.1836 17.3617C20.392 17.0008 19.0181 16.896 18.3429 17.1405ZM20.8344 18.9218C21.5562 19.4224 21.8822 20.1326 21.8356 21.0174C21.7774 21.9721 21.3699 22.5775 20.5084 22.9966C19.74 23.3692 19.0996 23.3342 18.3196 22.8802C16.6198 21.8906 16.8527 19.4107 18.7154 18.6307C18.8784 18.5608 19.3092 18.5259 19.6818 18.5376C20.194 18.5725 20.4618 18.654 20.8344 18.9218ZM62.293 18.9218C63.3292 19.6552 63.6435 20.9825 63.0265 22.0419C62.6539 22.6706 61.8971 23.1596 61.152 23.2527C60.4302 23.3226 59.4988 22.8685 59.0448 22.2049C58.7537 21.7858 58.7071 21.6228 58.7071 20.8777C58.7071 20.1326 58.7421 19.9812 59.0564 19.5388C59.8132 18.4561 61.2452 18.1883 62.293 18.9218ZM42.9317 26.3729C48.8344 27.4906 53.5379 32.3105 54.5857 38.2947C54.7836 39.4124 54.7836 41.834 54.5857 42.9517C53.5379 48.9708 48.8577 53.7326 42.8385 54.8968C41.6044 55.1413 39.1479 55.1646 37.9254 54.955C31.8248 53.8839 26.9932 49.0523 25.9221 42.9517C25.7125 41.7292 25.7358 39.2727 25.9803 38.0386C27.0048 32.718 30.8352 28.4103 35.9462 26.792C36.9125 26.4893 37.5179 26.3613 39.1479 26.1401C39.7649 26.0469 41.9653 26.1866 42.9317 26.3729ZM17.2951 38.6207C17.9936 39.1213 18.2963 39.6453 18.3429 40.4486C18.436 41.8806 17.4464 42.9517 16.0377 42.9517C13.5462 42.9517 12.8127 39.6685 15.0481 38.4694C15.572 38.19 16.8061 38.2715 17.2951 38.6207ZM65.8323 38.7139C67.2759 39.8781 67.0897 41.9155 65.4714 42.7421C64.8543 43.0565 63.7483 42.9983 63.2127 42.6141C62.0136 41.7642 61.7574 40.1924 62.6656 39.1446C63.2477 38.4577 63.6784 38.2831 64.6098 38.318C65.2734 38.3529 65.4481 38.4112 65.8323 38.7139ZM20.5433 58.2615C21.3699 58.6806 21.7774 59.2976 21.8356 60.229C21.8822 61.1139 21.5562 61.8241 20.8227 62.3363C20.392 62.639 20.229 62.6856 19.5304 62.6856C18.8319 62.6856 18.6805 62.639 18.2265 62.3363C16.7013 61.2536 16.8294 59.123 18.471 58.2848C19.2626 57.8889 19.7865 57.8889 20.5433 58.2615ZM62.1882 58.3662C63.6901 59.2394 63.7366 61.3118 62.2813 62.3363C61.8389 62.639 61.6759 62.6856 60.9774 62.6856C60.2789 62.6856 60.1159 62.639 59.6851 62.3363C58.9516 61.8241 58.6256 61.1255 58.6722 60.229C58.7304 59.2976 59.1379 58.6806 59.9762 58.2615C60.7213 57.8773 61.4198 57.9122 62.1882 58.3662Z"></path><path d="M38.7404 34.1617C38.6473 34.185 38.1699 34.2665 37.6926 34.3363C36.4236 34.5459 34.5724 35.1862 33.2685 35.8615C31.5454 36.7579 30.1483 37.864 28.5882 39.5638C27.6917 40.5184 27.6917 40.728 28.5882 41.6827C31.1612 44.4885 33.8506 46.0719 37.3549 46.8636C38.6123 47.1546 41.8373 47.1546 43.1645 46.8636C46.3545 46.1766 49.0439 44.6515 51.4655 42.16C52.8743 40.7047 52.8859 40.5999 51.9312 39.5638C49.3932 36.8161 46.6922 35.1979 43.3974 34.4411C42.4892 34.2315 39.241 34.0336 38.7404 34.1617ZM41.2086 35.8615C43.6651 36.3737 45.493 38.97 45.0506 41.3218C44.6547 43.4407 43.083 45.024 40.9874 45.4199C38.5075 45.8739 35.9462 43.9995 35.4572 41.345C35.0265 39.0282 36.6797 36.5717 39.1013 35.9197C39.8813 35.7101 40.4053 35.6985 41.2086 35.8615ZM34.782 37.3168C33.6177 39.1563 33.6177 42.0902 34.782 43.9297C34.9799 44.2324 35.1196 44.5118 35.108 44.5351C35.0148 44.6282 33.7225 43.9413 32.6863 43.2428C31.5454 42.486 29.7757 40.891 29.7757 40.6232C29.7757 40.3554 31.5454 38.7604 32.6863 38.0037C33.7225 37.3051 35.0148 36.6182 35.108 36.7114C35.1196 36.7347 34.9799 37.0141 34.782 37.3168ZM47.0065 37.4681C48.5317 38.3762 50.7321 40.239 50.7321 40.6232C50.7321 40.891 48.9508 42.4976 47.8215 43.2428C46.7853 43.9413 45.493 44.6282 45.3998 44.5351C45.3882 44.5118 45.5279 44.2324 45.7258 43.9297C46.8901 42.0902 46.8901 39.1563 45.7258 37.3284C45.5396 37.0257 45.3766 36.7463 45.3766 36.723C45.3766 36.6182 46.2381 37.0141 47.0065 37.4681Z"></path><path d="M39.4972 37.4681C38.5308 37.7243 37.7974 38.3064 37.3317 39.2261C36.9358 39.9945 36.9475 41.2752 37.3666 42.0785C37.972 43.2544 38.915 43.8132 40.2539 43.8132C41.5928 43.8132 42.5358 43.2544 43.1412 42.0785C43.3857 41.6012 43.4439 41.3334 43.4439 40.6232C43.4439 39.2727 42.8618 38.318 41.6859 37.7243C41.1387 37.4565 40.0443 37.3168 39.4972 37.4681ZM40.8011 39.0049C41.5811 39.296 42.0934 40.1575 41.9421 40.9259C41.8489 41.4498 41.2784 42.0902 40.7662 42.2532C39.6019 42.6374 38.3329 41.5313 38.5541 40.3322C38.6938 39.6103 39.5088 38.8885 40.219 38.8769C40.3587 38.8769 40.6148 38.9351 40.8011 39.0049Z"></path></mask><path d="M18.3429 17.1405C17.5978 17.4199 16.8876 17.9089 16.515 18.3746C15.246 19.9696 15.3624 22.2166 16.7712 23.6369C17.2601 24.1259 18.2381 24.6731 18.6339 24.6731C18.8202 24.6731 18.8319 24.8943 18.8319 27.6303C18.8319 30.5642 18.8319 30.5991 19.088 30.7737C19.3092 30.9367 19.9263 30.96 23.3841 30.96H27.424L26.9001 31.7401C25.4913 33.8473 24.5483 36.4902 24.3271 38.9351L24.2456 39.8665L22.0685 39.9014L19.8913 39.9247L19.7749 39.5172C19.5071 38.5392 18.7504 37.6428 17.7491 37.1072C17.33 36.8744 17.0855 36.8394 16.0377 36.8394C14.9084 36.8394 14.7687 36.8627 14.1982 37.1771C13.4996 37.5729 12.9059 38.1667 12.5217 38.9001C12.2888 39.3309 12.2539 39.5754 12.2539 40.6232C12.2539 41.7525 12.2772 41.8922 12.5915 42.4627C12.9874 43.1613 13.5811 43.755 14.3146 44.1392C14.7454 44.3721 14.9899 44.407 16.0377 44.407C17.0855 44.407 17.33 44.3721 17.7491 44.1392C18.7504 43.6037 19.5071 42.7072 19.7749 41.7292L19.8913 41.3218L22.0685 41.345L24.2456 41.38L24.3271 42.3114C24.5483 44.7563 25.4913 47.3991 26.9001 49.5064L27.424 50.2864H23.3841C19.9263 50.2864 19.3092 50.3097 19.088 50.4727C18.8319 50.6473 18.8319 50.6823 18.8319 53.6161C18.8319 56.3521 18.8202 56.5733 18.6339 56.5733C18.2381 56.5733 17.2601 57.1205 16.7712 57.6095C14.92 59.4723 15.3741 62.5575 17.6909 63.7916C18.3662 64.1642 18.5059 64.1991 19.4722 64.1991C20.357 64.1991 20.6132 64.1525 21.1604 63.8964C21.9288 63.5355 22.6855 62.802 23.0464 62.0685C23.2676 61.6028 23.3142 61.3351 23.3142 60.3571C23.3142 59.3209 23.2793 59.123 22.9999 58.5991C22.604 57.8423 21.6493 56.9808 20.9159 56.7247L20.3454 56.5151V51.7999H28.7512L29.5778 52.5683C31.6385 54.4777 34.5375 55.8864 37.4597 56.4103C38.9383 56.6781 41.5695 56.6781 43.0481 56.4103C45.9703 55.8864 48.8693 54.4777 50.93 52.5683L51.7566 51.7999H60.1624V56.5151L59.592 56.7247C58.8585 56.9808 57.9038 57.8423 57.508 58.5991C57.2285 59.123 57.1936 59.3209 57.1936 60.3571C57.1936 61.3351 57.2402 61.6028 57.4614 62.0569C57.8223 62.7904 58.5907 63.5355 59.3475 63.8964C59.8947 64.1525 60.1391 64.1991 61.0356 64.1991C62.0019 64.1991 62.1416 64.1642 62.8169 63.7916C65.1337 62.5575 65.5878 59.4723 63.7366 57.6095C63.2477 57.1205 62.2697 56.5733 61.8855 56.5733C61.6876 56.5733 61.6759 56.3521 61.6759 53.6161C61.6759 50.6823 61.6759 50.6473 61.4198 50.4727C61.1986 50.3097 60.5816 50.2864 57.1238 50.2864H53.0838L53.6077 49.5064C55.0165 47.3991 55.9595 44.7563 56.1807 42.3114L56.2622 41.38L58.4394 41.345L60.6165 41.3218L60.7329 41.7292C61.0007 42.7072 61.7574 43.6037 62.7587 44.1392C63.1778 44.3721 63.4223 44.407 64.4701 44.407C65.5179 44.407 65.7624 44.3721 66.1932 44.1392C66.9267 43.755 67.5204 43.1613 67.9163 42.4627C68.2306 41.8922 68.2539 41.7525 68.2539 40.6232C68.2539 39.4939 68.2306 39.3542 67.9163 38.7837C67.5204 38.0852 66.9267 37.4914 66.1932 37.1072C65.7624 36.8744 65.5179 36.8394 64.4701 36.8394C63.4223 36.8394 63.1778 36.8744 62.7587 37.1072C61.7574 37.6428 61.0007 38.5392 60.7329 39.5172L60.6165 39.9247L58.4394 39.9014L56.2622 39.8665L56.1807 38.9351C55.9595 36.4902 55.0165 33.8473 53.6077 31.7401L53.0838 30.96H57.1238C60.5816 30.96 61.1986 30.9367 61.4198 30.7737C61.6759 30.5991 61.6759 30.5642 61.6759 27.6303C61.6759 24.8943 61.6876 24.6731 61.8855 24.6731C62.2697 24.6731 63.2477 24.1259 63.7366 23.6369C65.5878 21.7742 65.1337 18.7006 62.8169 17.4432C62.1416 17.0706 62.0136 17.0473 61.0356 17.0473C60.1508 17.0473 59.8947 17.0939 59.3242 17.3617C58.5558 17.7226 57.8339 18.4211 57.4614 19.1779C57.2402 19.6436 57.1936 19.9114 57.1936 20.8893C57.1936 21.9255 57.2285 22.1234 57.508 22.6473C57.9038 23.4041 58.8585 24.2656 59.592 24.5218L60.1624 24.7313V29.4465H51.7566L50.93 28.6781C48.8693 26.7687 45.982 25.36 43.0481 24.8361C41.5695 24.5683 38.9383 24.5683 37.4597 24.8361C34.5258 25.36 31.6385 26.7687 29.5778 28.6781L28.7512 29.4465H20.3454V24.7313L20.9159 24.5218C21.6493 24.2656 22.604 23.4041 22.9999 22.6473C23.2793 22.1234 23.3142 21.9255 23.3142 20.8893C23.3142 19.9114 23.2676 19.6436 23.0464 19.1779C22.6739 18.4095 21.952 17.7226 21.1836 17.3617C20.392 17.0008 19.0181 16.896 18.3429 17.1405ZM20.8344 18.9218C21.5562 19.4224 21.8822 20.1326 21.8356 21.0174C21.7774 21.9721 21.3699 22.5775 20.5084 22.9966C19.74 23.3692 19.0996 23.3342 18.3196 22.8802C16.6198 21.8906 16.8527 19.4107 18.7154 18.6307C18.8784 18.5608 19.3092 18.5259 19.6818 18.5376C20.194 18.5725 20.4618 18.654 20.8344 18.9218ZM62.293 18.9218C63.3292 19.6552 63.6435 20.9825 63.0265 22.0419C62.6539 22.6706 61.8971 23.1596 61.152 23.2527C60.4302 23.3226 59.4988 22.8685 59.0448 22.2049C58.7537 21.7858 58.7071 21.6228 58.7071 20.8777C58.7071 20.1326 58.7421 19.9812 59.0564 19.5388C59.8132 18.4561 61.2452 18.1883 62.293 18.9218ZM42.9317 26.3729C48.8344 27.4906 53.5379 32.3105 54.5857 38.2947C54.7836 39.4124 54.7836 41.834 54.5857 42.9517C53.5379 48.9708 48.8577 53.7326 42.8385 54.8968C41.6044 55.1413 39.1479 55.1646 37.9254 54.955C31.8248 53.8839 26.9932 49.0523 25.9221 42.9517C25.7125 41.7292 25.7358 39.2727 25.9803 38.0386C27.0048 32.718 30.8352 28.4103 35.9462 26.792C36.9125 26.4893 37.5179 26.3613 39.1479 26.1401C39.7649 26.0469 41.9653 26.1866 42.9317 26.3729ZM17.2951 38.6207C17.9936 39.1213 18.2963 39.6453 18.3429 40.4486C18.436 41.8806 17.4464 42.9517 16.0377 42.9517C13.5462 42.9517 12.8127 39.6685 15.0481 38.4694C15.572 38.19 16.8061 38.2715 17.2951 38.6207ZM65.8323 38.7139C67.2759 39.8781 67.0897 41.9155 65.4714 42.7421C64.8543 43.0565 63.7483 42.9983 63.2127 42.6141C62.0136 41.7642 61.7574 40.1924 62.6656 39.1446C63.2477 38.4577 63.6784 38.2831 64.6098 38.318C65.2734 38.3529 65.4481 38.4112 65.8323 38.7139ZM20.5433 58.2615C21.3699 58.6806 21.7774 59.2976 21.8356 60.229C21.8822 61.1139 21.5562 61.8241 20.8227 62.3363C20.392 62.639 20.229 62.6856 19.5304 62.6856C18.8319 62.6856 18.6805 62.639 18.2265 62.3363C16.7013 61.2536 16.8294 59.123 18.471 58.2848C19.2626 57.8889 19.7865 57.8889 20.5433 58.2615ZM62.1882 58.3662C63.6901 59.2394 63.7366 61.3118 62.2813 62.3363C61.8389 62.639 61.6759 62.6856 60.9774 62.6856C60.2789 62.6856 60.1159 62.639 59.6851 62.3363C58.9516 61.8241 58.6256 61.1255 58.6722 60.229C58.7304 59.2976 59.1379 58.6806 59.9762 58.2615C60.7213 57.8773 61.4198 57.9122 62.1882 58.3662Z" fill="#1742E7"></path><path d="M38.7404 34.1617C38.6473 34.185 38.1699 34.2665 37.6926 34.3363C36.4236 34.5459 34.5724 35.1862 33.2685 35.8615C31.5454 36.7579 30.1483 37.864 28.5882 39.5638C27.6917 40.5184 27.6917 40.728 28.5882 41.6827C31.1612 44.4885 33.8506 46.0719 37.3549 46.8636C38.6123 47.1546 41.8373 47.1546 43.1645 46.8636C46.3545 46.1766 49.0439 44.6515 51.4655 42.16C52.8743 40.7047 52.8859 40.5999 51.9312 39.5638C49.3932 36.8161 46.6922 35.1979 43.3974 34.4411C42.4892 34.2315 39.241 34.0336 38.7404 34.1617ZM41.2086 35.8615C43.6651 36.3737 45.493 38.97 45.0506 41.3218C44.6547 43.4407 43.083 45.024 40.9874 45.4199C38.5075 45.8739 35.9462 43.9995 35.4572 41.345C35.0265 39.0282 36.6797 36.5717 39.1013 35.9197C39.8813 35.7101 40.4053 35.6985 41.2086 35.8615ZM34.782 37.3168C33.6177 39.1563 33.6177 42.0902 34.782 43.9297C34.9799 44.2324 35.1196 44.5118 35.108 44.5351C35.0148 44.6282 33.7225 43.9413 32.6863 43.2428C31.5454 42.486 29.7757 40.891 29.7757 40.6232C29.7757 40.3554 31.5454 38.7604 32.6863 38.0037C33.7225 37.3051 35.0148 36.6182 35.108 36.7114C35.1196 36.7347 34.9799 37.0141 34.782 37.3168ZM47.0065 37.4681C48.5317 38.3762 50.7321 40.239 50.7321 40.6232C50.7321 40.891 48.9508 42.4976 47.8215 43.2428C46.7853 43.9413 45.493 44.6282 45.3998 44.5351C45.3882 44.5118 45.5279 44.2324 45.7258 43.9297C46.8901 42.0902 46.8901 39.1563 45.7258 37.3284C45.5396 37.0257 45.3766 36.7463 45.3766 36.723C45.3766 36.6182 46.2381 37.0141 47.0065 37.4681Z" fill="#1742E7"></path><path d="M39.4972 37.4681C38.5308 37.7243 37.7974 38.3064 37.3317 39.2261C36.9358 39.9945 36.9475 41.2752 37.3666 42.0785C37.972 43.2544 38.915 43.8132 40.2539 43.8132C41.5928 43.8132 42.5358 43.2544 43.1412 42.0785C43.3857 41.6012 43.4439 41.3334 43.4439 40.6232C43.4439 39.2727 42.8618 38.318 41.6859 37.7243C41.1387 37.4565 40.0443 37.3168 39.4972 37.4681ZM40.8011 39.0049C41.5811 39.296 42.0934 40.1575 41.9421 40.9259C41.8489 41.4498 41.2784 42.0902 40.7662 42.2532C39.6019 42.6374 38.3329 41.5313 38.5541 40.3322C38.6938 39.6103 39.5088 38.8885 40.219 38.8769C40.3587 38.8769 40.6148 38.9351 40.8011 39.0049Z" fill="#1742E7"></path><path d="M18.3429 17.1405C17.5978 17.4199 16.8876 17.9089 16.515 18.3746C15.246 19.9696 15.3624 22.2166 16.7712 23.6369C17.2601 24.1259 18.2381 24.6731 18.6339 24.6731C18.8202 24.6731 18.8319 24.8943 18.8319 27.6303C18.8319 30.5642 18.8319 30.5991 19.088 30.7737C19.3092 30.9367 19.9263 30.96 23.3841 30.96H27.424L26.9001 31.7401C25.4913 33.8473 24.5483 36.4902 24.3271 38.9351L24.2456 39.8665L22.0685 39.9014L19.8913 39.9247L19.7749 39.5172C19.5071 38.5392 18.7504 37.6428 17.7491 37.1072C17.33 36.8744 17.0855 36.8394 16.0377 36.8394C14.9084 36.8394 14.7687 36.8627 14.1982 37.1771C13.4996 37.5729 12.9059 38.1667 12.5217 38.9001C12.2888 39.3309 12.2539 39.5754 12.2539 40.6232C12.2539 41.7525 12.2772 41.8922 12.5915 42.4627C12.9874 43.1613 13.5811 43.755 14.3146 44.1392C14.7454 44.3721 14.9899 44.407 16.0377 44.407C17.0855 44.407 17.33 44.3721 17.7491 44.1392C18.7504 43.6037 19.5071 42.7072 19.7749 41.7292L19.8913 41.3218L22.0685 41.345L24.2456 41.38L24.3271 42.3114C24.5483 44.7563 25.4913 47.3991 26.9001 49.5064L27.424 50.2864H23.3841C19.9263 50.2864 19.3092 50.3097 19.088 50.4727C18.8319 50.6473 18.8319 50.6823 18.8319 53.6161C18.8319 56.3521 18.8202 56.5733 18.6339 56.5733C18.2381 56.5733 17.2601 57.1205 16.7712 57.6095C14.92 59.4723 15.3741 62.5575 17.6909 63.7916C18.3662 64.1642 18.5059 64.1991 19.4722 64.1991C20.357 64.1991 20.6132 64.1525 21.1604 63.8964C21.9288 63.5355 22.6855 62.802 23.0464 62.0685C23.2676 61.6028 23.3142 61.3351 23.3142 60.3571C23.3142 59.3209 23.2793 59.123 22.9999 58.5991C22.604 57.8423 21.6493 56.9808 20.9159 56.7247L20.3454 56.5151V51.7999H28.7512L29.5778 52.5683C31.6385 54.4777 34.5375 55.8864 37.4597 56.4103C38.9383 56.6781 41.5695 56.6781 43.0481 56.4103C45.9703 55.8864 48.8693 54.4777 50.93 52.5683L51.7566 51.7999H60.1624V56.5151L59.592 56.7247C58.8585 56.9808 57.9038 57.8423 57.508 58.5991C57.2285 59.123 57.1936 59.3209 57.1936 60.3571C57.1936 61.3351 57.2402 61.6028 57.4614 62.0569C57.8223 62.7904 58.5907 63.5355 59.3475 63.8964C59.8947 64.1525 60.1391 64.1991 61.0356 64.1991C62.0019 64.1991 62.1416 64.1642 62.8169 63.7916C65.1337 62.5575 65.5878 59.4723 63.7366 57.6095C63.2477 57.1205 62.2697 56.5733 61.8855 56.5733C61.6876 56.5733 61.6759 56.3521 61.6759 53.6161C61.6759 50.6823 61.6759 50.6473 61.4198 50.4727C61.1986 50.3097 60.5816 50.2864 57.1238 50.2864H53.0838L53.6077 49.5064C55.0165 47.3991 55.9595 44.7563 56.1807 42.3114L56.2622 41.38L58.4394 41.345L60.6165 41.3218L60.7329 41.7292C61.0007 42.7072 61.7574 43.6037 62.7587 44.1392C63.1778 44.3721 63.4223 44.407 64.4701 44.407C65.5179 44.407 65.7624 44.3721 66.1932 44.1392C66.9267 43.755 67.5204 43.1613 67.9163 42.4627C68.2306 41.8922 68.2539 41.7525 68.2539 40.6232C68.2539 39.4939 68.2306 39.3542 67.9163 38.7837C67.5204 38.0852 66.9267 37.4914 66.1932 37.1072C65.7624 36.8744 65.5179 36.8394 64.4701 36.8394C63.4223 36.8394 63.1778 36.8744 62.7587 37.1072C61.7574 37.6428 61.0007 38.5392 60.7329 39.5172L60.6165 39.9247L58.4394 39.9014L56.2622 39.8665L56.1807 38.9351C55.9595 36.4902 55.0165 33.8473 53.6077 31.7401L53.0838 30.96H57.1238C60.5816 30.96 61.1986 30.9367 61.4198 30.7737C61.6759 30.5991 61.6759 30.5642 61.6759 27.6303C61.6759 24.8943 61.6876 24.6731 61.8855 24.6731C62.2697 24.6731 63.2477 24.1259 63.7366 23.6369C65.5878 21.7742 65.1337 18.7006 62.8169 17.4432C62.1416 17.0706 62.0136 17.0473 61.0356 17.0473C60.1508 17.0473 59.8947 17.0939 59.3242 17.3617C58.5558 17.7226 57.8339 18.4211 57.4614 19.1779C57.2402 19.6436 57.1936 19.9114 57.1936 20.8893C57.1936 21.9255 57.2285 22.1234 57.508 22.6473C57.9038 23.4041 58.8585 24.2656 59.592 24.5218L60.1624 24.7313V29.4465H51.7566L50.93 28.6781C48.8693 26.7687 45.982 25.36 43.0481 24.8361C41.5695 24.5683 38.9383 24.5683 37.4597 24.8361C34.5258 25.36 31.6385 26.7687 29.5778 28.6781L28.7512 29.4465H20.3454V24.7313L20.9159 24.5218C21.6493 24.2656 22.604 23.4041 22.9999 22.6473C23.2793 22.1234 23.3142 21.9255 23.3142 20.8893C23.3142 19.9114 23.2676 19.6436 23.0464 19.1779C22.6739 18.4095 21.952 17.7226 21.1836 17.3617C20.392 17.0008 19.0181 16.896 18.3429 17.1405ZM20.8344 18.9218C21.5562 19.4224 21.8822 20.1326 21.8356 21.0174C21.7774 21.9721 21.3699 22.5775 20.5084 22.9966C19.74 23.3692 19.0996 23.3342 18.3196 22.8802C16.6198 21.8906 16.8527 19.4107 18.7154 18.6307C18.8784 18.5608 19.3092 18.5259 19.6818 18.5376C20.194 18.5725 20.4618 18.654 20.8344 18.9218ZM62.293 18.9218C63.3292 19.6552 63.6435 20.9825 63.0265 22.0419C62.6539 22.6706 61.8971 23.1596 61.152 23.2527C60.4302 23.3226 59.4988 22.8685 59.0448 22.2049C58.7537 21.7858 58.7071 21.6228 58.7071 20.8777C58.7071 20.1326 58.7421 19.9812 59.0564 19.5388C59.8132 18.4561 61.2452 18.1883 62.293 18.9218ZM42.9317 26.3729C48.8344 27.4906 53.5379 32.3105 54.5857 38.2947C54.7836 39.4124 54.7836 41.834 54.5857 42.9517C53.5379 48.9708 48.8577 53.7326 42.8385 54.8968C41.6044 55.1413 39.1479 55.1646 37.9254 54.955C31.8248 53.8839 26.9932 49.0523 25.9221 42.9517C25.7125 41.7292 25.7358 39.2727 25.9803 38.0386C27.0048 32.718 30.8352 28.4103 35.9462 26.792C36.9125 26.4893 37.5179 26.3613 39.1479 26.1401C39.7649 26.0469 41.9653 26.1866 42.9317 26.3729ZM17.2951 38.6207C17.9936 39.1213 18.2963 39.6453 18.3429 40.4486C18.436 41.8806 17.4464 42.9517 16.0377 42.9517C13.5462 42.9517 12.8127 39.6685 15.0481 38.4694C15.572 38.19 16.8061 38.2715 17.2951 38.6207ZM65.8323 38.7139C67.2759 39.8781 67.0897 41.9155 65.4714 42.7421C64.8543 43.0565 63.7483 42.9983 63.2127 42.6141C62.0136 41.7642 61.7574 40.1924 62.6656 39.1446C63.2477 38.4577 63.6784 38.2831 64.6098 38.318C65.2734 38.3529 65.4481 38.4112 65.8323 38.7139ZM20.5433 58.2615C21.3699 58.6806 21.7774 59.2976 21.8356 60.229C21.8822 61.1139 21.5562 61.8241 20.8227 62.3363C20.392 62.639 20.229 62.6856 19.5304 62.6856C18.8319 62.6856 18.6805 62.639 18.2265 62.3363C16.7013 61.2536 16.8294 59.123 18.471 58.2848C19.2626 57.8889 19.7865 57.8889 20.5433 58.2615ZM62.1882 58.3662C63.6901 59.2394 63.7366 61.3118 62.2813 62.3363C61.8389 62.639 61.6759 62.6856 60.9774 62.6856C60.2789 62.6856 60.1159 62.639 59.6851 62.3363C58.9516 61.8241 58.6256 61.1255 58.6722 60.229C58.7304 59.2976 59.1379 58.6806 59.9762 58.2615C60.7213 57.8773 61.4198 57.9122 62.1882 58.3662Z" stroke="#1742E7" stroke-width="0.56" mask="url(#path-1-inside-1_10198_6128)"></path><path d="M38.7404 34.1617C38.6473 34.185 38.1699 34.2665 37.6926 34.3363C36.4236 34.5459 34.5724 35.1862 33.2685 35.8615C31.5454 36.7579 30.1483 37.864 28.5882 39.5638C27.6917 40.5184 27.6917 40.728 28.5882 41.6827C31.1612 44.4885 33.8506 46.0719 37.3549 46.8636C38.6123 47.1546 41.8373 47.1546 43.1645 46.8636C46.3545 46.1766 49.0439 44.6515 51.4655 42.16C52.8743 40.7047 52.8859 40.5999 51.9312 39.5638C49.3932 36.8161 46.6922 35.1979 43.3974 34.4411C42.4892 34.2315 39.241 34.0336 38.7404 34.1617ZM41.2086 35.8615C43.6651 36.3737 45.493 38.97 45.0506 41.3218C44.6547 43.4407 43.083 45.024 40.9874 45.4199C38.5075 45.8739 35.9462 43.9995 35.4572 41.345C35.0265 39.0282 36.6797 36.5717 39.1013 35.9197C39.8813 35.7101 40.4053 35.6985 41.2086 35.8615ZM34.782 37.3168C33.6177 39.1563 33.6177 42.0902 34.782 43.9297C34.9799 44.2324 35.1196 44.5118 35.108 44.5351C35.0148 44.6282 33.7225 43.9413 32.6863 43.2428C31.5454 42.486 29.7757 40.891 29.7757 40.6232C29.7757 40.3554 31.5454 38.7604 32.6863 38.0037C33.7225 37.3051 35.0148 36.6182 35.108 36.7114C35.1196 36.7347 34.9799 37.0141 34.782 37.3168ZM47.0065 37.4681C48.5317 38.3762 50.7321 40.239 50.7321 40.6232C50.7321 40.891 48.9508 42.4976 47.8215 43.2428C46.7853 43.9413 45.493 44.6282 45.3998 44.5351C45.3882 44.5118 45.5279 44.2324 45.7258 43.9297C46.8901 42.0902 46.8901 39.1563 45.7258 37.3284C45.5396 37.0257 45.3766 36.7463 45.3766 36.723C45.3766 36.6182 46.2381 37.0141 47.0065 37.4681Z" stroke="#1742E7" stroke-width="0.56" mask="url(#path-1-inside-1_10198_6128)"></path><path d="M39.4972 37.4681C38.5308 37.7243 37.7974 38.3064 37.3317 39.2261C36.9358 39.9945 36.9475 41.2752 37.3666 42.0785C37.972 43.2544 38.915 43.8132 40.2539 43.8132C41.5928 43.8132 42.5358 43.2544 43.1412 42.0785C43.3857 41.6012 43.4439 41.3334 43.4439 40.6232C43.4439 39.2727 42.8618 38.318 41.6859 37.7243C41.1387 37.4565 40.0443 37.3168 39.4972 37.4681ZM40.8011 39.0049C41.5811 39.296 42.0934 40.1575 41.9421 40.9259C41.8489 41.4498 41.2784 42.0902 40.7662 42.2532C39.6019 42.6374 38.3329 41.5313 38.5541 40.3322C38.6938 39.6103 39.5088 38.8885 40.219 38.8769C40.3587 38.8769 40.6148 38.9351 40.8011 39.0049Z" stroke="#1742E7" stroke-width="0.56" mask="url(#path-1-inside-1_10198_6128)"></path></svg>