<svg xmlns="http://www.w3.org/2000/svg" width="100" height="101" viewBox="0 0 100 101" fill="none"><mask id="path-1-inside-1_1987_34959" fill="white"><path fill-rule="evenodd" clip-rule="evenodd" d="M13.1309 10.4842C11.8529 10.8505 10.4591 12.3119 10.1625 13.5967C10.0584 14.0475 10.0032 26.6925 10.0005 50.6112C9.99693 86.0873 10.0038 86.9549 10.2958 87.5264C10.6911 88.3 11.6741 89.2965 12.5439 89.8055L13.246 90.2163L33.0739 90.1673C48.2279 90.1297 53.035 90.073 53.4667 89.9265C54.1218 89.7043 55.4583 88.3587 55.9183 87.4585C56.2198 86.8683 56.2364 86.5001 56.2872 79.2505C56.3166 75.0758 56.3858 71.6151 56.4411 71.5599C56.5718 71.4296 60.3618 73.3318 61.2243 73.9608C61.6018 74.2361 62.2634 75.0137 62.7584 75.7642C65.0056 79.1711 68.1914 80.566 71.6644 79.6638C73.1188 79.286 80.3523 75.459 80.6452 74.9123C81.0363 74.1828 80.4916 73.1951 79.6983 73.1951C79.4267 73.1951 77.7488 73.9494 75.5401 75.0646C71.1094 77.3013 70.6417 77.4731 69.2511 77.3737C67.3231 77.2359 66.2113 76.5005 64.9279 74.5143C63.3763 72.1127 63.1892 71.9922 53.5336 67.1806C43.8081 62.334 43.0391 61.9144 42.5477 61.1862C41.7385 59.9875 42.3816 57.9151 43.7894 57.1838C44.7316 56.6944 45.265 56.8572 49.2647 58.8552C53.3826 60.9125 53.4669 60.9331 54.1263 60.0487L54.445 59.6214L53.1535 57.0054C52.4432 55.5667 49.9583 50.7498 47.6315 46.301C43.1153 37.6668 42.6735 36.7419 42.6678 35.9063C42.6617 35.0416 43.2405 34.0481 44.0542 33.5259C44.6858 33.1206 44.8852 33.0713 45.6803 33.1248C46.4323 33.1755 46.663 33.2638 47.0356 33.6435C47.5924 34.2111 48.7597 36.3061 52.899 44.1674C57.094 52.1341 57.9645 53.7229 58.2641 53.9603C58.8762 54.4454 60.1699 53.8865 60.1699 53.1372C60.1699 52.933 59.6775 51.7709 59.0758 50.555C57.856 48.09 57.7696 47.6185 58.3333 46.5024C58.7844 45.6092 59.7157 45.0677 60.8003 45.0677C62.0679 45.0677 62.4322 45.3957 63.617 47.6034C64.7633 49.7396 65.4121 50.5659 65.9431 50.5659C66.3424 50.5659 67.2035 49.7731 67.2035 49.4055C67.2035 49.2691 66.676 48.1058 66.0312 46.8204C65.3101 45.3828 64.859 44.2927 64.859 43.9879C64.859 42.7213 66.2857 41.4456 67.6788 41.4665C69.0612 41.4874 69.149 41.5839 71.1864 45.3161C71.8906 46.6058 72.238 46.9765 72.7435 46.9765C73.2988 46.9765 73.9636 46.3472 73.9636 45.8215C73.9636 45.5822 73.4625 44.3701 72.8499 43.1281C71.6586 40.7121 71.5278 40.1202 72.0065 39.311C72.361 38.7118 73.2051 38.1428 74.0846 37.91C74.7081 37.745 74.8763 37.7603 75.5082 38.0394C76.4243 38.444 76.7008 38.8278 78.4612 42.1385C82.297 49.3521 83.5564 52.3012 85.2627 58.0663C85.8232 59.96 86.5421 62.1196 86.8601 62.8654C87.382 64.0893 87.4388 64.3585 87.4416 65.626C87.4445 66.9465 87.4113 67.0915 86.8859 68.045C86.482 68.7785 86.0381 69.2918 85.2838 69.8984C84.3643 70.638 84.2405 70.8008 84.2405 71.2712C84.2405 71.9099 84.8219 72.5709 85.3839 72.5709C86.1274 72.5709 88.0679 70.9461 88.925 69.6057C89.7585 68.3025 90.0632 67.0734 89.9893 65.3139C89.9312 63.9262 89.8508 63.5716 89.2655 62.1146C88.9033 61.2134 88.2192 59.1416 87.745 57.5108C86.2182 52.2602 85.1177 49.5587 82.1931 43.8818C78.9908 37.6658 78.3607 36.7319 76.8224 35.9211C76.1189 35.5503 75.8674 35.5063 74.4716 35.5105C73.1458 35.5144 72.8043 35.57 72.2221 35.8762C71.2704 36.3765 70.1293 37.4805 69.6859 38.3301L69.3136 39.0432L68.4436 38.9477C66.194 38.7008 63.8446 39.9446 62.8592 41.9044L62.5454 42.5287L61.1623 42.5304C59.294 42.5327 58.3882 42.86 57.193 43.9651L56.2623 44.8252L56.2609 29.2412L56.2594 13.657L55.8025 12.8615C55.2758 11.9447 53.9698 10.709 53.3359 10.5276C53.0972 10.4593 46.3245 10.3781 38.2853 10.3472L23.6687 10.291L23.3975 10.7495C23.0598 11.3203 23.0565 11.6183 23.3816 12.1678L23.6371 12.5997L37.8969 12.6735L52.1567 12.7475L52.7266 13.0991C53.04 13.2926 53.3595 13.5682 53.4362 13.7116C53.5131 13.8549 53.6272 14.9372 53.6899 16.1165L53.8037 18.2609H33.0487H12.2938L12.3859 16.3154C12.5378 13.1064 12.8285 12.827 16.1638 12.688C17.9282 12.6145 18.25 12.56 18.5543 12.2835C19.0262 11.8548 19.0215 11.0887 18.5443 10.6409C18.2056 10.3233 18.0379 10.3026 15.9263 10.3157C14.6852 10.3235 13.4275 10.3993 13.1309 10.4842ZM53.7615 30.4598C53.7615 35.8816 53.7348 40.2886 53.7019 40.2528C53.6693 40.2171 53.0777 39.1212 52.3873 37.8176L51.1322 35.4476L51.0743 31.497C51.0095 27.056 50.9449 26.7468 49.9218 25.9676L49.3313 25.5178L33.1278 25.476L16.9246 25.4341L16.2154 26.0573C15.2101 26.9409 15.1548 27.2788 15.1548 32.5367C15.1548 37.2183 15.2135 37.6818 15.9028 38.4423C16.6612 39.2791 16.1556 39.2451 29.1438 39.3294L41.1791 39.4074L42.3669 41.6703C47.2834 51.0379 49.986 56.2605 49.9404 56.3059C49.911 56.3353 49.107 55.9689 48.1537 55.4915C47.2004 55.0142 46.3179 54.6236 46.1927 54.6236C45.8776 54.6236 45.8374 54.5296 45.5517 53.1277C45.0386 50.6087 43.8203 48.412 41.8811 46.5083C40.5114 45.1638 38.9174 44.1956 36.9155 43.4919C35.6268 43.039 35.4241 43.0128 33.2077 43.0125C31.4868 43.0123 30.6096 43.0824 29.9099 43.2758C27.6199 43.9091 25.6306 45.1087 23.9613 46.8635C21.422 49.5325 20.3382 52.4598 20.5137 56.1752C20.6172 58.363 20.8822 59.4182 21.7895 61.2563C23.3653 64.4482 26.3538 66.8923 29.8472 67.8457C31.2527 68.2293 34.9719 68.23 36.4119 67.8468C38.0026 67.4236 40.1183 66.3076 41.2215 65.3099L42.2017 64.4234L46.145 66.378C48.3139 67.4529 50.9149 68.7194 51.9249 69.1924L53.7615 70.0522V72.3258V74.5997H33.0514H12.3413V47.6007V20.6018H33.0514H53.7615V30.4598ZM48.397 27.9903C48.5601 28.1526 48.6715 31.5262 48.5138 31.5262C48.4492 31.5262 48.0738 31.333 47.6794 31.0971C47.0242 30.7049 46.8274 30.668 45.3993 30.669C43.9655 30.6701 43.7678 30.7078 43.0098 31.1262C41.307 32.0659 40.2194 33.7611 40.0538 35.7337L39.9615 36.8324H28.8086H17.6556L17.6567 33.438C17.6573 31.571 17.7025 29.5714 17.757 28.9941L17.8563 27.9447L20.2177 27.8886C24.8035 27.7795 48.2703 27.8642 48.397 27.9903ZM35.6304 45.7553C36.0172 45.8457 36.9316 46.2023 37.6623 46.5478C39.5386 47.4348 41.2645 49.1572 42.1581 51.0341C42.7956 52.3735 43.3336 54.1705 43.2004 54.5167C43.1607 54.62 42.8128 54.8717 42.4271 55.076C41.5003 55.5668 40.5441 56.6242 40.0375 57.7175C39.4904 58.8985 39.4773 60.5175 40.0037 61.8713L40.3643 62.7985L39.7688 63.2977C37.9548 64.8183 35.9749 65.5689 33.5203 65.6665C31.3887 65.7512 30.1471 65.4875 28.3817 64.5748C26.4937 63.5988 24.9398 61.9963 24.0148 60.0719C23.1893 58.3546 22.9689 57.4234 22.9725 55.6694C22.9779 53.1753 23.6918 51.0792 25.1662 49.2293C26.6552 47.3609 29.1554 45.8722 31.3091 45.5715C32.4029 45.4187 34.5877 45.5117 35.6304 45.7553ZM34.6705 54.1053L30.6376 58.1129L29.0787 56.6023C27.3254 54.9036 27.0083 54.784 26.3443 55.572C25.6198 56.4316 25.7303 56.6535 28.0227 58.9423C29.8399 60.7567 30.1706 61.0222 30.6129 61.0222C31.0632 61.0222 31.4973 60.6509 34.4892 57.7058C38.552 53.7067 40.3195 51.7756 40.3195 51.3356C40.3195 50.9032 39.4964 50.0978 39.0545 50.0978C38.8044 50.0978 37.5437 51.2501 34.6705 54.1053ZM53.6794 81.8956C53.615 84.6505 53.5012 86.7768 53.4123 86.8878C53.3271 86.9941 53.0016 87.2399 52.6889 87.434L52.1203 87.7869L33.2077 87.787C14.6061 87.787 14.2849 87.7819 13.6743 87.4749C12.4804 86.8748 12.4365 86.6771 12.3662 81.5879L12.3041 77.0967H33.0478H53.7917L53.6794 81.8956ZM28.6348 79.4142C28.0289 79.5884 27.1696 80.3859 26.8643 81.0571C26.2127 82.4901 26.65 84.1617 27.9325 85.1394L28.6418 85.6802L32.6441 85.6733C34.8453 85.6696 36.9513 85.6078 37.3242 85.5358C38.7178 85.2669 39.8734 83.4655 39.6036 81.9821C39.469 81.2419 39.0456 80.3859 38.6272 80.0081C37.9248 79.3738 37.2997 79.2948 33.0514 79.3041C30.8163 79.3087 28.8287 79.3584 28.6348 79.4142ZM36.6464 81.9156C37.0404 81.9997 37.1153 82.0903 37.1153 82.4824C37.1153 82.9478 37.1123 82.9494 35.943 83.0753C35.2983 83.1448 33.5558 83.1758 32.0711 83.1443C29.782 83.0958 29.3306 83.0465 29.104 82.82C28.7209 82.4375 29.0236 82.0364 29.785 81.9178C30.6 81.7909 36.0538 81.7892 36.6464 81.9156Z"></path></mask><path fill-rule="evenodd" clip-rule="evenodd" d="M13.1309 10.4842C11.8529 10.8505 10.4591 12.3119 10.1625 13.5967C10.0584 14.0475 10.0032 26.6925 10.0005 50.6112C9.99693 86.0873 10.0038 86.9549 10.2958 87.5264C10.6911 88.3 11.6741 89.2965 12.5439 89.8055L13.246 90.2163L33.0739 90.1673C48.2279 90.1297 53.035 90.073 53.4667 89.9265C54.1218 89.7043 55.4583 88.3587 55.9183 87.4585C56.2198 86.8683 56.2364 86.5001 56.2872 79.2505C56.3166 75.0758 56.3858 71.6151 56.4411 71.5599C56.5718 71.4296 60.3618 73.3318 61.2243 73.9608C61.6018 74.2361 62.2634 75.0137 62.7584 75.7642C65.0056 79.1711 68.1914 80.566 71.6644 79.6638C73.1188 79.286 80.3523 75.459 80.6452 74.9123C81.0363 74.1828 80.4916 73.1951 79.6983 73.1951C79.4267 73.1951 77.7488 73.9494 75.5401 75.0646C71.1094 77.3013 70.6417 77.4731 69.2511 77.3737C67.3231 77.2359 66.2113 76.5005 64.9279 74.5143C63.3763 72.1127 63.1892 71.9922 53.5336 67.1806C43.8081 62.334 43.0391 61.9144 42.5477 61.1862C41.7385 59.9875 42.3816 57.9151 43.7894 57.1838C44.7316 56.6944 45.265 56.8572 49.2647 58.8552C53.3826 60.9125 53.4669 60.9331 54.1263 60.0487L54.445 59.6214L53.1535 57.0054C52.4432 55.5667 49.9583 50.7498 47.6315 46.301C43.1153 37.6668 42.6735 36.7419 42.6678 35.9063C42.6617 35.0416 43.2405 34.0481 44.0542 33.5259C44.6858 33.1206 44.8852 33.0713 45.6803 33.1248C46.4323 33.1755 46.663 33.2638 47.0356 33.6435C47.5924 34.2111 48.7597 36.3061 52.899 44.1674C57.094 52.1341 57.9645 53.7229 58.2641 53.9603C58.8762 54.4454 60.1699 53.8865 60.1699 53.1372C60.1699 52.933 59.6775 51.7709 59.0758 50.555C57.856 48.09 57.7696 47.6185 58.3333 46.5024C58.7844 45.6092 59.7157 45.0677 60.8003 45.0677C62.0679 45.0677 62.4322 45.3957 63.617 47.6034C64.7633 49.7396 65.4121 50.5659 65.9431 50.5659C66.3424 50.5659 67.2035 49.7731 67.2035 49.4055C67.2035 49.2691 66.676 48.1058 66.0312 46.8204C65.3101 45.3828 64.859 44.2927 64.859 43.9879C64.859 42.7213 66.2857 41.4456 67.6788 41.4665C69.0612 41.4874 69.149 41.5839 71.1864 45.3161C71.8906 46.6058 72.238 46.9765 72.7435 46.9765C73.2988 46.9765 73.9636 46.3472 73.9636 45.8215C73.9636 45.5822 73.4625 44.3701 72.8499 43.1281C71.6586 40.7121 71.5278 40.1202 72.0065 39.311C72.361 38.7118 73.2051 38.1428 74.0846 37.91C74.7081 37.745 74.8763 37.7603 75.5082 38.0394C76.4243 38.444 76.7008 38.8278 78.4612 42.1385C82.297 49.3521 83.5564 52.3012 85.2627 58.0663C85.8232 59.96 86.5421 62.1196 86.8601 62.8654C87.382 64.0893 87.4388 64.3585 87.4416 65.626C87.4445 66.9465 87.4113 67.0915 86.8859 68.045C86.482 68.7785 86.0381 69.2918 85.2838 69.8984C84.3643 70.638 84.2405 70.8008 84.2405 71.2712C84.2405 71.9099 84.8219 72.5709 85.3839 72.5709C86.1274 72.5709 88.0679 70.9461 88.925 69.6057C89.7585 68.3025 90.0632 67.0734 89.9893 65.3139C89.9312 63.9262 89.8508 63.5716 89.2655 62.1146C88.9033 61.2134 88.2192 59.1416 87.745 57.5108C86.2182 52.2602 85.1177 49.5587 82.1931 43.8818C78.9908 37.6658 78.3607 36.7319 76.8224 35.9211C76.1189 35.5503 75.8674 35.5063 74.4716 35.5105C73.1458 35.5144 72.8043 35.57 72.2221 35.8762C71.2704 36.3765 70.1293 37.4805 69.6859 38.3301L69.3136 39.0432L68.4436 38.9477C66.194 38.7008 63.8446 39.9446 62.8592 41.9044L62.5454 42.5287L61.1623 42.5304C59.294 42.5327 58.3882 42.86 57.193 43.9651L56.2623 44.8252L56.2609 29.2412L56.2594 13.657L55.8025 12.8615C55.2758 11.9447 53.9698 10.709 53.3359 10.5276C53.0972 10.4593 46.3245 10.3781 38.2853 10.3472L23.6687 10.291L23.3975 10.7495C23.0598 11.3203 23.0565 11.6183 23.3816 12.1678L23.6371 12.5997L37.8969 12.6735L52.1567 12.7475L52.7266 13.0991C53.04 13.2926 53.3595 13.5682 53.4362 13.7116C53.5131 13.8549 53.6272 14.9372 53.6899 16.1165L53.8037 18.2609H33.0487H12.2938L12.3859 16.3154C12.5378 13.1064 12.8285 12.827 16.1638 12.688C17.9282 12.6145 18.25 12.56 18.5543 12.2835C19.0262 11.8548 19.0215 11.0887 18.5443 10.6409C18.2056 10.3233 18.0379 10.3026 15.9263 10.3157C14.6852 10.3235 13.4275 10.3993 13.1309 10.4842ZM53.7615 30.4598C53.7615 35.8816 53.7348 40.2886 53.7019 40.2528C53.6693 40.2171 53.0777 39.1212 52.3873 37.8176L51.1322 35.4476L51.0743 31.497C51.0095 27.056 50.9449 26.7468 49.9218 25.9676L49.3313 25.5178L33.1278 25.476L16.9246 25.4341L16.2154 26.0573C15.2101 26.9409 15.1548 27.2788 15.1548 32.5367C15.1548 37.2183 15.2135 37.6818 15.9028 38.4423C16.6612 39.2791 16.1556 39.2451 29.1438 39.3294L41.1791 39.4074L42.3669 41.6703C47.2834 51.0379 49.986 56.2605 49.9404 56.3059C49.911 56.3353 49.107 55.9689 48.1537 55.4915C47.2004 55.0142 46.3179 54.6236 46.1927 54.6236C45.8776 54.6236 45.8374 54.5296 45.5517 53.1277C45.0386 50.6087 43.8203 48.412 41.8811 46.5083C40.5114 45.1638 38.9174 44.1956 36.9155 43.4919C35.6268 43.039 35.4241 43.0128 33.2077 43.0125C31.4868 43.0123 30.6096 43.0824 29.9099 43.2758C27.6199 43.9091 25.6306 45.1087 23.9613 46.8635C21.422 49.5325 20.3382 52.4598 20.5137 56.1752C20.6172 58.363 20.8822 59.4182 21.7895 61.2563C23.3653 64.4482 26.3538 66.8923 29.8472 67.8457C31.2527 68.2293 34.9719 68.23 36.4119 67.8468C38.0026 67.4236 40.1183 66.3076 41.2215 65.3099L42.2017 64.4234L46.145 66.378C48.3139 67.4529 50.9149 68.7194 51.9249 69.1924L53.7615 70.0522V72.3258V74.5997H33.0514H12.3413V47.6007V20.6018H33.0514H53.7615V30.4598ZM48.397 27.9903C48.5601 28.1526 48.6715 31.5262 48.5138 31.5262C48.4492 31.5262 48.0738 31.333 47.6794 31.0971C47.0242 30.7049 46.8274 30.668 45.3993 30.669C43.9655 30.6701 43.7678 30.7078 43.0098 31.1262C41.307 32.0659 40.2194 33.7611 40.0538 35.7337L39.9615 36.8324H28.8086H17.6556L17.6567 33.438C17.6573 31.571 17.7025 29.5714 17.757 28.9941L17.8563 27.9447L20.2177 27.8886C24.8035 27.7795 48.2703 27.8642 48.397 27.9903ZM35.6304 45.7553C36.0172 45.8457 36.9316 46.2023 37.6623 46.5478C39.5386 47.4348 41.2645 49.1572 42.1581 51.0341C42.7956 52.3735 43.3336 54.1705 43.2004 54.5167C43.1607 54.62 42.8128 54.8717 42.4271 55.076C41.5003 55.5668 40.5441 56.6242 40.0375 57.7175C39.4904 58.8985 39.4773 60.5175 40.0037 61.8713L40.3643 62.7985L39.7688 63.2977C37.9548 64.8183 35.9749 65.5689 33.5203 65.6665C31.3887 65.7512 30.1471 65.4875 28.3817 64.5748C26.4937 63.5988 24.9398 61.9963 24.0148 60.0719C23.1893 58.3546 22.9689 57.4234 22.9725 55.6694C22.9779 53.1753 23.6918 51.0792 25.1662 49.2293C26.6552 47.3609 29.1554 45.8722 31.3091 45.5715C32.4029 45.4187 34.5877 45.5117 35.6304 45.7553ZM34.6705 54.1053L30.6376 58.1129L29.0787 56.6023C27.3254 54.9036 27.0083 54.784 26.3443 55.572C25.6198 56.4316 25.7303 56.6535 28.0227 58.9423C29.8399 60.7567 30.1706 61.0222 30.6129 61.0222C31.0632 61.0222 31.4973 60.6509 34.4892 57.7058C38.552 53.7067 40.3195 51.7756 40.3195 51.3356C40.3195 50.9032 39.4964 50.0978 39.0545 50.0978C38.8044 50.0978 37.5437 51.2501 34.6705 54.1053ZM53.6794 81.8956C53.615 84.6505 53.5012 86.7768 53.4123 86.8878C53.3271 86.9941 53.0016 87.2399 52.6889 87.434L52.1203 87.7869L33.2077 87.787C14.6061 87.787 14.2849 87.7819 13.6743 87.4749C12.4804 86.8748 12.4365 86.6771 12.3662 81.5879L12.3041 77.0967H33.0478H53.7917L53.6794 81.8956ZM28.6348 79.4142C28.0289 79.5884 27.1696 80.3859 26.8643 81.0571C26.2127 82.4901 26.65 84.1617 27.9325 85.1394L28.6418 85.6802L32.6441 85.6733C34.8453 85.6696 36.9513 85.6078 37.3242 85.5358C38.7178 85.2669 39.8734 83.4655 39.6036 81.9821C39.469 81.2419 39.0456 80.3859 38.6272 80.0081C37.9248 79.3738 37.2997 79.2948 33.0514 79.3041C30.8163 79.3087 28.8287 79.3584 28.6348 79.4142ZM36.6464 81.9156C37.0404 81.9997 37.1153 82.0903 37.1153 82.4824C37.1153 82.9478 37.1123 82.9494 35.943 83.0753C35.2983 83.1448 33.5558 83.1758 32.0711 83.1443C29.782 83.0958 29.3306 83.0465 29.104 82.82C28.7209 82.4375 29.0236 82.0364 29.785 81.9178C30.6 81.7909 36.0538 81.7892 36.6464 81.9156Z" fill="#1742E7" stroke="#1742E7" stroke-width="0.829631" mask="url(#path-1-inside-1_1987_34959)"></path></svg>