<svg xmlns="http://www.w3.org/2000/svg" width="71" height="71" viewBox="0 0 71 71" fill="none"><g clip-path="url(#clip0_1987_34910)"><path d="M4.42778 39.7321L35.2278 59.721L66.5722 39.6543L70.5 44.2432L35.2278 66.9543L0.5 44.2432L4.42778 39.7321Z" fill="#50E6FF"></path><path d="M6.76172 37.167L35.2284 3.25586L64.2784 37.2059L35.2284 55.5614L6.76172 37.167Z" fill="white"></path><path d="M35.2284 3.25586V55.5614L6.76172 37.167L35.2284 3.25586Z" fill="#50E6FF"></path><path d="M35.2266 3.25586V55.5614L64.2766 37.2059L35.2266 3.25586Z" fill="url(#paint0_linear_1987_34910)"></path><path d="M35.2266 30.2832L64.2766 37.2054L35.2266 55.561V30.2832Z" fill="#47A6EB"></path><path d="M35.2284 55.561L6.76172 37.1665L35.2284 30.2832V55.561Z" fill="#50E6FF"></path><path d="M35.2266 66.9543L70.4988 44.2432L66.571 39.6543L35.2266 59.721V66.9543Z" fill="url(#paint1_linear_1987_34910)"></path><circle cx="35.2285" cy="17.1309" r="3.45117" fill="white" stroke="white"></circle><circle cx="35.2285" cy="47.2852" r="3.45117" fill="white" stroke="white"></circle><circle cx="16.2012" cy="35.7051" r="3.45117" fill="white" stroke="white"></circle><circle cx="54.7949" cy="35.7051" r="3.45117" fill="white" stroke="white"></circle><path d="M38.1328 20.0859L52.0205 32.823M38.9002 45.4063L51.1 37.6568" stroke="white"></path><path d="M32.5312 20.0859L18.6436 32.823M31.7638 45.4063L19.564 37.6568" stroke="white"></path></g><defs><linearGradient id="paint0_linear_1987_34910" x1="52.0266" y1="50.7392" x2="34.021" y2="16.6336" gradientUnits="userSpaceOnUse"><stop stop-color="#1988D9"></stop><stop offset="0.9" stop-color="#54AEF0"></stop></linearGradient><linearGradient id="paint1_linear_1987_34910" x1="44.2877" y1="40.821" x2="56.7321" y2="62.2876" gradientUnits="userSpaceOnUse"><stop offset="0.1" stop-color="#54AEF0"></stop><stop offset="0.29" stop-color="#4FABEE"></stop><stop offset="0.51" stop-color="#41A2E9"></stop><stop offset="0.74" stop-color="#2A93E0"></stop><stop offset="0.88" stop-color="#1988D9"></stop></linearGradient><clipPath id="clip0_1987_34910"><rect width="70" height="70" fill="white" transform="translate(0.5 0.105469)"></rect></clipPath></defs></svg>