<svg xmlns="http://www.w3.org/2000/svg" width="71" height="71" viewBox="0 0 71 71" fill="none"><g clip-path="url(#clip0_1987_34926)"><path d="M22.0445 51.5697L19.7656 53.8564C19.571 54.0504 19.3074 54.1593 19.0326 54.1593C18.7578 54.1593 18.4942 54.0504 18.2995 53.8564L1.3673 36.9786C1.17411 36.786 1.02083 36.5572 0.916239 36.3053C0.81165 36.0534 0.757813 35.7833 0.757812 35.5105C0.757812 35.2378 0.81165 34.9677 0.916239 34.7158C1.02083 34.4639 1.17411 34.2351 1.3673 34.0425L3.65397 31.748L22.0562 50.0958C22.1528 50.1923 22.2295 50.3068 22.2818 50.433C22.3342 50.5591 22.3611 50.6943 22.3611 50.8308C22.3611 50.9674 22.3342 51.1026 22.2818 51.2287C22.2295 51.3548 22.1528 51.4694 22.0562 51.5658L22.0445 51.5697Z" fill="#50E6FF"></path><path d="M19.4116 17.3479L21.7061 19.6346C21.8027 19.731 21.8794 19.8456 21.9317 19.9717C21.984 20.0978 22.011 20.233 22.011 20.3696C22.011 20.5061 21.984 20.6413 21.9317 20.7674C21.8794 20.8935 21.8027 21.0081 21.7061 21.1046L3.6344 39.2307L1.33995 36.9401C1.14709 36.7479 0.994 36.5195 0.889422 36.2681C0.784844 36.0167 0.730832 35.7471 0.730471 35.4748C0.730109 35.2025 0.783407 34.9328 0.887317 34.6811C0.991228 34.4294 1.14371 34.2006 1.33607 34.0079L17.9533 17.344C18.1478 17.1512 18.4105 17.043 18.6844 17.043C18.9583 17.043 19.221 17.1512 19.4155 17.344L19.4116 17.3479Z" fill="#1490DF"></path><path d="M67.3498 31.7637L69.6364 34.0581C69.8288 34.2509 69.9813 34.4796 70.0852 34.7313C70.1891 34.983 70.2424 35.2527 70.242 35.525C70.2417 35.7973 70.1876 36.0669 70.0831 36.3183C69.9785 36.5697 69.8254 36.7981 69.6325 36.9903L52.7003 53.8681C52.5057 54.0621 52.2421 54.1711 51.9673 54.1711C51.6924 54.1711 51.4288 54.0621 51.2342 53.8681L48.9553 51.5853C48.7613 51.3907 48.6523 51.1271 48.6523 50.8523C48.6523 50.5775 48.7613 50.3139 48.9553 50.1192L67.3575 31.7714L67.3498 31.7637Z" fill="#50E6FF"></path><path d="M69.6495 36.9284L67.3551 39.2189L49.2795 21.0889C49.0855 20.8943 48.9766 20.6307 48.9766 20.3559C48.9766 20.0811 49.0855 19.8175 49.2795 19.6228L51.574 17.3362C51.6704 17.2395 51.785 17.1628 51.9111 17.1105C52.0372 17.0582 52.1724 17.0313 52.309 17.0312C52.4455 17.0313 52.5807 17.0582 52.7068 17.1105C52.833 17.1628 52.9475 17.2395 53.044 17.3362L69.6612 34.0039C70.049 34.3925 70.2668 34.9191 70.2668 35.4681C70.2668 36.0171 70.049 36.5437 69.6612 36.9323L69.6495 36.9284Z" fill="#1490DF"></path><path d="M33.3952 39.1062H19.4379C19.242 39.1137 19.051 39.0442 18.9057 38.9127C18.7603 38.7812 18.6722 38.598 18.6602 38.4023C18.6603 38.301 18.6842 38.201 18.7302 38.1107L35.464 5.00066C35.5353 4.87226 35.6404 4.7659 35.768 4.69321C35.8955 4.62051 36.0406 4.58427 36.1874 4.58844H52.6957C52.8916 4.58096 53.0826 4.65041 53.228 4.78195C53.3733 4.91349 53.4614 5.09667 53.4735 5.29233C53.4721 5.43339 53.4243 5.57007 53.3374 5.68122L33.6868 31.5851H52.8513C53.0472 31.5776 53.2382 31.6471 53.3835 31.7786C53.5289 31.9102 53.617 32.0933 53.629 32.289C53.6261 32.4675 53.5535 32.6377 53.4268 32.7634L21.5807 65.8929C21.2813 66.0718 19.154 67.8373 20.1963 65.1579L33.3952 39.1062Z" fill="url(#paint0_linear_1987_34926)"></path></g><defs><linearGradient id="paint0_linear_1987_34926" x1="35.9855" y1="66.1613" x2="35.9855" y2="4.0995" gradientUnits="userSpaceOnUse"><stop stop-color="#FEA11B"></stop><stop offset="0.284" stop-color="#FEA51A"></stop><stop offset="0.547" stop-color="#FEB018"></stop><stop offset="0.8" stop-color="#FFC314"></stop><stop offset="1" stop-color="#FFD70F"></stop></linearGradient><clipPath id="clip0_1987_34926"><rect width="70" height="70" fill="white" transform="translate(0.5 0.605469)"></rect></clipPath></defs></svg>