<svg xmlns="http://www.w3.org/2000/svg" width="81" height="81" viewBox="0 0 81 81" fill="none"><path d="M2.72266 26.4492H78.2782V68.5826C78.2782 69.2544 78.0113 69.8988 77.5362 70.3739C77.0611 70.849 76.4168 71.1159 75.7449 71.1159H5.25599C4.58411 71.1159 3.93974 70.849 3.46465 70.3739C2.98956 69.8988 2.72266 69.2544 2.72266 68.5826V26.4492Z" fill="url(#paint0_linear_1987_34891)"></path><path d="M5.25599 10.3594H75.7449C76.4168 10.3594 77.0611 10.6263 77.5362 11.1014C78.0113 11.5765 78.2782 12.2208 78.2782 12.8927V26.4483H2.72266V12.8483C2.73431 12.1841 3.00635 11.5511 3.48018 11.0856C3.95402 10.6201 4.59174 10.3593 5.25599 10.3594Z" fill="#198AB3"></path><path d="M12.9915 31.3379H67.9693C68.2798 31.3494 68.5737 31.4809 68.7892 31.7047C69.0047 31.9285 69.125 32.2272 69.1248 32.5379V38.7601C69.125 39.0708 69.0047 39.3695 68.7892 39.5933C68.5737 39.8171 68.2798 39.9486 67.9693 39.9601H12.9915C12.681 39.9486 12.3871 39.8171 12.1716 39.5933C11.956 39.3695 11.8357 39.0708 11.8359 38.7601V32.5379C11.8357 32.2272 11.956 31.9285 12.1716 31.7047C12.3871 31.4809 12.681 31.3494 12.9915 31.3379Z" fill="white"></path><path d="M13.0357 43.7383H68.0135C68.324 43.7498 68.6179 43.8813 68.8334 44.1051C69.049 44.3289 69.1693 44.6276 69.1691 44.9383V51.2049C69.1693 51.5157 69.049 51.8143 68.8334 52.0381C68.6179 52.2619 68.324 52.3934 68.0135 52.4049H13.0357C12.7252 52.3934 12.4313 52.2619 12.2158 52.0381C12.0003 51.8143 11.88 51.5157 11.8802 51.2049V45.1605C11.8478 44.9891 11.8533 44.8127 11.8961 44.6436C11.9389 44.4745 12.018 44.3167 12.128 44.1813C12.238 44.046 12.3762 43.9362 12.533 43.8597C12.6898 43.7831 12.8613 43.7417 13.0357 43.7383Z" fill="#9CEBFF"></path><path d="M13.0345 56.2715H68.0122C68.3227 56.283 68.6167 56.4145 68.8322 56.6383C69.0477 56.8621 69.168 57.1608 69.1678 57.4715V63.7382C69.168 64.0489 69.0477 64.3475 68.8322 64.5713C68.6167 64.7952 68.3227 64.9266 68.0122 64.9382H13.0345C12.724 64.9266 12.43 64.7952 12.2145 64.5713C11.999 64.3475 11.8787 64.0489 11.8789 63.7382V57.4715C11.8787 57.1608 11.999 56.8621 12.2145 56.6383C12.43 56.4145 12.724 56.283 13.0345 56.2715Z" fill="#50E6FF"></path><defs><linearGradient id="paint0_linear_1987_34891" x1="40.5004" y1="71.0714" x2="40.5004" y2="26.4492" gradientUnits="userSpaceOnUse"><stop stop-color="#32BEDD"></stop><stop offset="0.18" stop-color="#32CAEA"></stop><stop offset="0.41" stop-color="#32D2F2"></stop><stop offset="0.78" stop-color="#32D4F5"></stop></linearGradient></defs></svg>