<svg xmlns="http://www.w3.org/2000/svg" viewBox="0 0 56 55" fill="none"><path d="M28.2113 10.9151C28.957 10.9151 29.686 10.6939 30.3061 10.2796C30.9262 9.86532 31.4095 9.27644 31.6949 8.58746C31.9803 7.89848 32.0549 7.14035 31.9095 6.40893C31.764 5.67752 31.4048 5.00567 30.8775 4.47835C30.3502 3.95102 29.6783 3.59191 28.9469 3.44643C28.2154 3.30094 27.4573 3.37561 26.7683 3.66099C26.0793 3.94638 25.4904 4.42966 25.0761 5.04972C24.6617 5.66979 24.4406 6.39879 24.4406 7.14453C24.4417 8.1442 24.8394 9.10259 25.5463 9.80946C26.2531 10.5163 27.2116 10.914 28.2113 10.9151ZM28.2113 4.90175C28.6548 4.90175 29.0885 5.03329 29.4573 5.27973C29.8261 5.52617 30.1136 5.87644 30.2834 6.28626C30.4531 6.69607 30.4975 7.14702 30.411 7.58207C30.3245 8.01713 30.1108 8.41675 29.7972 8.73041C29.4835 9.04407 29.0839 9.25768 28.6488 9.34421C28.2137 9.43075 27.7628 9.38634 27.353 9.21659C26.9431 9.04684 26.5929 8.75937 26.3464 8.39055C26.1 8.02173 25.9684 7.58811 25.9684 7.14453C25.9691 6.54991 26.2056 5.97982 26.626 5.55936C27.0465 5.1389 27.6166 4.9024 28.2113 4.90175ZM19.3707 17.3073C20.3423 18.7609 21.6573 19.9524 23.1994 20.7765C24.7414 21.6005 26.4628 22.0316 28.2113 22.0316C29.9597 22.0316 31.6811 21.6005 33.2231 20.7765C34.7652 19.9524 36.0802 18.7609 37.0518 17.3073C37.0877 17.2637 37.1188 17.2164 37.1447 17.1661C38.1842 15.5596 38.7712 13.7026 38.8439 11.7905C38.9166 9.87841 38.4723 7.98211 37.5579 6.3013C36.6434 4.62049 35.2926 3.21738 33.6477 2.23973C32.0029 1.26209 30.1248 0.746094 28.2113 0.746094C26.2978 0.746094 24.4197 1.26209 22.7748 2.23973C21.1299 3.21738 19.7791 4.62049 18.8646 6.3013C17.9502 7.98211 17.5059 9.87841 17.5786 11.7905C17.6513 13.7026 18.2383 15.5596 19.2778 17.1661C19.3034 17.2165 19.3346 17.2638 19.3707 17.3073ZM28.2113 20.5053C26.7902 20.505 25.3889 20.1721 24.1195 19.5333C22.8501 18.8945 21.7479 17.9675 20.901 16.8264C21.7638 15.7086 22.8714 14.8036 24.1387 14.1809C25.406 13.5582 26.7992 13.2344 28.2113 13.2344C29.6233 13.2344 31.0165 13.5582 32.2838 14.1809C33.5511 14.8036 34.6588 15.7086 35.5216 16.8264C34.6746 17.9675 33.5724 18.8945 32.303 19.5333C31.0336 20.1721 29.6323 20.505 28.2113 20.5053ZM28.2113 2.28131C29.7631 2.28008 31.2894 2.67544 32.6455 3.42987C34.0015 4.1843 35.1423 5.27276 35.9595 6.59193C36.7766 7.91111 37.2431 9.41723 37.3146 10.9673C37.3861 12.5175 37.0602 14.0601 36.368 15.4489C35.3578 14.2749 34.1061 13.3327 32.6984 12.6868C31.2907 12.041 29.7601 11.7066 28.2113 11.7066C26.6624 11.7066 25.1319 12.041 23.7241 12.6868C22.3164 13.3327 21.0647 14.2749 20.0546 15.4489C19.3623 14.0601 19.0364 12.5175 19.1079 10.9673C19.1794 9.41723 19.6459 7.91111 20.4631 6.59193C21.2802 5.27276 22.421 4.1843 23.777 3.42987C25.1331 2.67544 26.6595 2.28008 28.2113 2.28131ZM55.4308 33.1999L48.1401 19.1706C47.8332 18.5831 47.306 18.1412 46.674 17.9416C46.042 17.7419 45.3566 17.8009 44.7679 18.1054L42.0918 19.4969C41.6351 19.735 41.2629 20.108 41.0258 20.5652C40.7888 21.0224 40.6983 21.5416 40.7668 22.052C38.4103 23.0676 35.524 23.306 32.7269 23.5357C29.9297 23.7655 27.0397 24.0039 24.5488 25.0024C24.0714 25.194 23.6075 25.4175 23.1603 25.6716C21.9607 25.0317 20.923 24.5826 19.9213 24.1493C18.8102 23.6986 17.7312 23.1722 16.6921 22.5739C16.8108 22.069 16.7699 21.5398 16.5751 21.0591C16.3803 20.5785 16.0411 20.1702 15.6043 19.8905L13.0614 18.2686C12.502 17.9131 11.8244 17.7937 11.1772 17.9366C10.5299 18.0796 9.96564 18.4732 9.60795 19.0312L1.10168 32.3596C0.746199 32.9191 0.626929 33.5967 0.769993 34.2439C0.913057 34.8912 1.30679 35.4554 1.86498 35.813L4.40788 37.4349C4.80798 37.6914 5.27339 37.8276 5.74869 37.8272C6.31032 37.8277 6.85595 37.6401 7.29851 37.2943C8.54154 38.1114 9.55968 38.8044 10.4764 39.4637L9.87746 40.403C9.57745 40.8733 9.40913 41.4154 9.39008 41.9728C9.37102 42.5303 9.50192 43.0827 9.76912 43.5723C10.0363 44.0619 10.43 44.4709 10.9092 44.7565C11.3883 45.042 11.9353 45.1938 12.4931 45.196C12.5701 45.196 12.6477 45.1917 12.7247 45.1862C12.637 45.7792 12.7235 46.3849 12.9736 46.9297C13.2238 47.4744 13.627 47.9347 14.134 48.2546C14.6333 48.5686 15.2113 48.735 15.8011 48.7343C15.8769 48.7343 15.9527 48.7306 16.0285 48.7251C15.9637 49.1192 15.9749 49.522 16.0615 49.9119C16.2126 50.6038 16.5954 51.2232 17.1467 51.6678C17.6979 52.1123 18.3845 52.3553 19.0926 52.3564C19.322 52.3563 19.5507 52.3313 19.7747 52.2818C20.5187 52.1203 21.1771 51.6901 21.6239 51.0736C21.8817 51.5891 22.2776 52.0228 22.7675 52.3262C23.2575 52.6297 23.8221 52.7909 24.3984 52.7921C24.628 52.7918 24.8569 52.7666 25.0811 52.7169C25.7406 52.5734 26.3351 52.2185 26.7745 51.7061L30.4034 54.021C31.029 54.4252 31.7571 54.6423 32.502 54.6468C33.0221 54.6613 33.5375 54.5437 33.9998 54.305C34.4622 54.0662 34.8564 53.7141 35.1457 53.2816C35.5186 52.6924 35.6672 51.9888 35.5643 51.2991C35.981 51.389 36.41 51.4058 36.8324 51.3486C37.268 51.299 37.6873 51.1538 38.0604 50.9234C38.4334 50.693 38.7509 50.3831 38.9903 50.0158C39.3725 49.4114 39.5189 48.6875 39.4016 47.982C40.0219 48.1207 40.6695 48.0707 41.2612 47.8384C41.8529 47.6061 42.3616 47.2022 42.7218 46.6785C43.0635 46.1521 43.2356 45.5336 43.215 44.9063C43.8224 45.1004 44.4698 45.1333 45.0936 45.0016C45.4822 44.9261 45.8513 44.772 46.1782 44.5488C46.5051 44.3255 46.7829 44.0378 46.9947 43.7034C47.2064 43.3689 47.3476 42.9947 47.4095 42.6037C47.4714 42.2127 47.4528 41.8132 47.3548 41.4297C47.189 40.7309 46.8226 40.0958 46.3006 39.6025C46.7443 39.278 47.1281 38.9474 47.5027 38.6247C47.9227 38.245 48.3687 37.895 48.8374 37.5772C49.2147 37.9278 49.6913 38.1531 50.2017 38.2221C50.7121 38.2912 51.2314 38.2006 51.6883 37.9629L54.3675 36.5707C54.9543 36.2635 55.3956 35.7364 55.5949 35.1048C55.7941 34.4731 55.7352 33.7882 55.4308 33.1999ZM5.2329 36.1472L2.68695 34.5247C2.46938 34.3858 2.3159 34.1661 2.2602 33.914C2.20451 33.6619 2.25118 33.398 2.38994 33.1803L10.8938 19.8538C10.9621 19.7455 11.0514 19.6519 11.1563 19.5785C11.2612 19.505 11.3797 19.4532 11.5049 19.426C11.5753 19.4103 11.6472 19.4023 11.7194 19.4022C11.9031 19.4023 12.0829 19.4549 12.2376 19.5537L14.7805 21.1763C14.9981 21.3152 15.1516 21.5349 15.2073 21.787C15.263 22.0391 15.2163 22.303 15.0775 22.5207L6.5731 35.8502C6.43414 36.0666 6.21527 36.2193 5.9642 36.2749C5.71314 36.3305 5.45026 36.2847 5.2329 36.1472ZM11.6497 43.4195C11.2958 43.1914 11.0462 42.8329 10.9554 42.4218C10.8645 42.0107 10.9397 41.5803 11.1645 41.2244L13.5326 37.5137C13.6446 37.3377 13.7905 37.1858 13.9617 37.0666C14.1329 36.9474 14.3261 36.8634 14.53 36.8195C14.645 36.794 14.7624 36.7811 14.8801 36.781C15.1646 36.7821 15.4436 36.8595 15.6879 37.0052C15.9322 37.1509 16.133 37.3595 16.2691 37.6092C16.4053 37.859 16.472 38.1407 16.4621 38.425C16.4522 38.7093 16.3662 38.9857 16.213 39.2254L13.8437 42.9349C13.6157 43.2888 13.257 43.5383 12.8459 43.6291C12.4347 43.7199 12.0044 43.6445 11.6485 43.4195H11.6497ZM14.9498 46.9639C14.7753 46.854 14.6243 46.7105 14.5056 46.5418C14.387 46.3731 14.303 46.1825 14.2586 45.9811C14.2142 45.7797 14.2103 45.5714 14.247 45.3685C14.2837 45.1655 14.3604 44.9718 14.4725 44.7987L18.3837 38.7628C18.5317 38.5358 18.7342 38.3494 18.9726 38.2207C19.2111 38.092 19.478 38.025 19.749 38.0258C20.0525 38.0245 20.3502 38.1093 20.6076 38.2702C20.9001 38.4543 21.123 38.7305 21.2412 39.0553C21.3593 39.38 21.3661 39.7349 21.2603 40.0639L17.1719 46.4701C16.9391 46.826 16.5762 47.0767 16.1609 47.1685C15.7457 47.2603 15.311 47.186 14.9498 46.9615V46.9639ZM19.4477 50.7919C19.1404 50.861 18.8194 50.8373 18.5256 50.7236C18.2318 50.6099 17.9785 50.4115 17.7977 50.1535C17.6169 49.8955 17.5169 49.5897 17.5104 49.2747C17.5038 48.9598 17.5911 48.65 17.761 48.3847L18.4534 47.2994L22.3646 41.2665C22.4725 41.1001 22.5642 40.9237 22.6384 40.7397L22.6787 40.6786C22.791 40.5023 22.9372 40.35 23.1088 40.2306C23.2805 40.1112 23.4741 40.0271 23.6785 39.9832C23.7933 39.9577 23.9105 39.9448 24.0281 39.9447C24.3126 39.9458 24.5915 40.0232 24.8359 40.1689C25.0802 40.3146 25.2809 40.5232 25.4171 40.7729C25.5533 41.0227 25.6199 41.3044 25.61 41.5887C25.6002 41.873 25.5141 42.1494 25.361 42.3891L22.4887 46.8869L21.7785 48.0004L20.4414 50.0959C20.3293 50.2714 20.1836 50.4231 20.0126 50.5422C19.8416 50.6612 19.6488 50.7452 19.4453 50.7895L19.4477 50.7919ZM24.7535 51.227C24.4469 51.2945 24.1272 51.2696 23.8348 51.1556C23.5423 51.0415 23.2902 50.8434 23.1102 50.5862C22.9302 50.3291 22.8305 50.0243 22.8235 49.7105C22.8165 49.3967 22.9027 49.0878 23.0711 48.8229L23.3724 48.3499L25.4386 45.111C25.5508 44.9351 25.6968 44.7831 25.868 44.664C26.0393 44.5448 26.2326 44.4608 26.4365 44.4168C26.5515 44.3913 26.6689 44.3784 26.7867 44.3783C27.0711 44.3795 27.35 44.457 27.5943 44.6027C27.8385 44.7485 28.0391 44.9571 28.1753 45.2068C28.3114 45.4566 28.3779 45.7382 28.368 46.0225C28.3581 46.3067 28.2721 46.5831 28.119 46.8227L25.7515 50.534C25.639 50.7101 25.4926 50.8621 25.3209 50.9812C25.1491 51.1003 24.9554 51.184 24.7511 51.2276L24.7535 51.227ZM45.7011 42.8945C45.5941 43.0543 45.4564 43.1912 45.296 43.2971C45.1355 43.4031 44.9556 43.4761 44.7667 43.5117C44.1786 43.6256 43.5693 43.5026 43.0714 43.1695L36.6149 39.014C36.4449 38.9148 36.2432 38.8851 36.0518 38.931C35.8605 38.9769 35.6942 39.0949 35.5877 39.2603C35.4812 39.4258 35.4426 39.6259 35.48 39.8191C35.5175 40.0123 35.628 40.1836 35.7886 40.2973L40.7607 43.4965L40.7699 43.502C40.9749 43.6054 41.1562 43.7503 41.3022 43.9275C41.4483 44.1047 41.556 44.3102 41.6184 44.5312C41.6809 44.7522 41.6968 44.9837 41.665 45.2111C41.6333 45.4385 41.5547 45.6569 41.4342 45.8523C40.9539 46.6046 39.7481 46.7299 38.8015 46.1261L34.4368 43.3443C34.266 43.2354 34.0589 43.1988 33.861 43.2426C33.6632 43.2864 33.4909 43.4069 33.382 43.5777C33.2731 43.7486 33.2365 43.9557 33.2803 44.1535C33.324 44.3513 33.4446 44.5236 33.6154 44.6325L36.8367 46.6877H36.841C37.3086 46.9758 37.6589 47.4203 37.8298 47.9423C37.9075 48.1458 37.9365 48.3646 37.9145 48.5813C37.8924 48.798 37.8199 49.0065 37.7028 49.1902C37.5856 49.3738 37.4271 49.5274 37.2398 49.6388C37.0526 49.7501 36.8419 49.816 36.6246 49.8312C36.0793 49.8967 35.5285 49.7668 35.0699 49.4646L32.1475 47.6007C31.9764 47.492 31.7692 47.4558 31.5714 47.4999C31.3736 47.544 31.2014 47.6649 31.0927 47.836C30.984 48.007 30.9478 48.2143 30.9919 48.4121C31.036 48.6099 31.1569 48.7821 31.328 48.8907L32.9933 49.9535H32.9982C33.4656 50.2417 33.8157 50.6862 33.9864 51.2081C34.0581 51.4127 34.0839 51.6305 34.0619 51.8462C34.0399 52.0618 33.9708 52.27 33.8593 52.456C33.3796 53.2082 32.1738 53.3335 31.2272 52.7297L27.6215 50.4314L29.4036 47.638C29.8466 46.9414 29.9957 46.0976 29.818 45.2914C29.6404 44.4852 29.1505 43.7822 28.4557 43.3364C27.9756 43.0276 27.4192 42.8583 26.8484 42.8475C27.0937 42.3205 27.1867 41.7354 27.1169 41.1583C27.0472 40.5813 26.8174 40.0352 26.4536 39.5819C26.0898 39.1285 25.6065 38.7859 25.0582 38.5928C24.5099 38.3997 23.9186 38.3637 23.351 38.489C23.1372 38.5375 22.9291 38.6082 22.7301 38.6999C22.5173 37.9864 22.0517 37.375 21.4204 36.9802C20.8625 36.6325 20.2101 36.4671 19.5539 36.5071C18.8976 36.547 18.2702 36.7904 17.7585 37.2032C17.5439 36.6731 17.1875 36.2122 16.7284 35.8711C16.2693 35.53 15.7252 35.3218 15.1557 35.2693C14.5862 35.2168 14.0131 35.322 13.4994 35.5735C12.9857 35.8249 12.5511 36.2128 12.2431 36.6948L11.2989 38.1749C10.4055 37.5351 9.42339 36.8647 8.23842 36.0843L15.9887 23.9354C17.0607 24.5472 18.1719 25.0876 19.3151 25.553C20.0827 25.8836 20.8698 26.2252 21.729 26.653C20.286 27.8685 19.1933 29.4469 18.5634 31.2254C18.4106 31.6194 18.3854 32.0515 18.4914 32.4606C18.5975 32.8698 18.8294 33.2352 19.1544 33.5054C20.2544 34.4325 21.7327 34.6726 23.4322 34.2002C24.7355 33.7991 25.9566 33.1683 27.0379 32.3376C27.8045 31.8853 28.6979 31.6957 29.5822 31.7978C30.4665 31.8998 31.2932 32.2878 31.9367 32.9029C32.9757 33.8117 34.2438 34.4185 35.6034 34.6574L44.8455 40.3981C45.3537 40.703 45.7201 41.1971 45.8643 41.7719C45.913 41.9605 45.9236 42.1569 45.8956 42.3496C45.8676 42.5424 45.8015 42.7276 45.7011 42.8945ZM46.5053 37.4672C46.0206 37.9046 45.5049 38.3063 44.9622 38.6693L38.8962 34.9018C39.9232 34.8719 40.94 34.6883 41.9127 34.3573C42.102 34.285 42.2549 34.1405 42.3376 33.9555C42.4204 33.7705 42.4262 33.5603 42.3539 33.371C42.2817 33.1817 42.1371 33.0288 41.9521 32.9461C41.7672 32.8633 41.5569 32.8575 41.3676 32.9297C39.5684 33.6166 35.0192 33.7052 32.9872 31.79C30.8574 29.7825 27.7645 29.8772 26.1212 31.1178C25.4661 31.6116 22.0994 33.99 20.1401 32.34C20.0568 32.2735 19.9972 32.1817 19.9705 32.0785C19.9437 31.9752 19.9511 31.8661 19.9916 31.7674C22.1959 25.938 27.3722 25.5121 32.8521 25.0611C35.7611 24.8215 38.763 24.5722 41.3383 23.4722L48.0044 36.2951C47.4777 36.65 46.9767 37.0417 46.5053 37.4672ZM54.1377 34.6445C54.0998 34.7665 54.0382 34.8798 53.9562 34.9777C53.8743 35.0757 53.7737 35.1565 53.6604 35.2153L50.9843 36.6062C50.7551 36.7239 50.4887 36.7464 50.243 36.6689C49.9973 36.5913 49.7922 36.4199 49.6722 36.1919L42.3814 22.1632C42.2628 21.9342 42.2398 21.6675 42.3176 21.4216C42.3954 21.1758 42.5676 20.9708 42.7964 20.8517L45.4725 19.4609C45.7015 19.3421 45.9683 19.3191 46.2142 19.3968C46.4602 19.4744 46.6653 19.6465 46.7846 19.8752L54.0754 33.9032C54.1343 34.0165 54.1702 34.1404 54.1809 34.2676C54.1916 34.3949 54.1769 34.523 54.1377 34.6445Z" fill="#1742E7"></path></svg>