<svg xmlns="http://www.w3.org/2000/svg" viewBox="0 0 80 81" fill="none"><mask id="path-1-inside-1_1260_3646" fill="white"><path fill-rule="evenodd" clip-rule="evenodd" d="M22.7634 0.613611C15.258 2.20984 10.0348 8.8919 10.3991 16.431C10.4506 17.4969 10.6305 18.829 10.8217 19.5622C11.0049 20.2639 11.1548 20.8629 11.1548 20.8931C11.1548 20.9232 10.1907 20.9479 9.01207 20.9479C7.60824 20.9479 6.54251 21.0331 5.92161 21.1949C3.14072 21.9197 0.998779 24.0697 0.270504 26.8671C-0.0901678 28.2525 -0.0901678 60.1026 0.270504 61.488C0.998779 64.2854 3.14072 66.4354 5.92161 67.1602C6.7168 67.3675 8.29105 67.4072 15.7031 67.4072H24.5369V69.9681V72.5288L23.2001 72.599C21.6151 72.6822 20.6097 73.1026 19.6152 74.0976C18.5578 75.1555 18.1894 76.0946 18.1148 77.9221C18.0535 79.4243 18.0669 79.4998 18.4651 79.8982L18.8792 80.3125H30.9861H43.093L43.5071 79.8982C43.9053 79.4998 43.9187 79.4243 43.8574 77.9221C43.782 76.0755 43.4148 75.1558 42.3123 74.0528C41.3398 73.0797 40.3863 72.6895 38.7654 72.6012L37.4353 72.5288V69.9681V67.4072H41.3048H45.1743V73.4638V79.5206L45.5701 79.9165L45.9658 80.3125H62.5872H79.2085L79.6042 79.9165L80 79.5206V46.1133V12.7061L79.6042 12.3102L79.2085 11.9142H62.5872H45.9658L45.5701 12.3102L45.1743 12.7061V16.8271V20.9479H42.8365C41.5507 20.9479 40.4987 20.9232 40.4987 20.8931C40.4987 20.8629 40.6481 20.2639 40.8308 19.5622C41.0135 18.8603 41.2032 17.4877 41.2526 16.5117C41.6979 7.71123 34.5673 0.262263 25.7461 0.312755C24.8413 0.318079 23.5324 0.450036 22.7634 0.613611ZM28.084 3.11079C30.7868 3.60039 33.1224 4.8656 35.0497 6.88416C37.1128 9.04467 38.2381 11.4084 38.6111 14.3657C38.9378 16.9552 38.3092 19.9036 36.9189 22.3028C36.0471 23.8074 33.8391 26.0146 32.3298 26.89C31.6942 27.2588 30.5696 27.7505 29.8307 27.9829C27.4592 28.7289 27.6567 28.5735 26.7438 30.4101C26.2877 31.3278 25.8749 32.0788 25.8267 32.0788C25.7785 32.0788 25.3658 31.3278 24.9097 30.4101C23.9968 28.5735 24.1943 28.7289 21.8228 27.9829C19.8774 27.3711 18.3903 26.4419 16.7834 24.834C14.5951 22.6446 13.4283 20.2654 13.0423 17.2057C12.6975 14.4723 13.4012 11.3975 14.9355 8.93465C15.787 7.56766 17.7643 5.61814 19.1586 4.77058C21.8073 3.1608 25.0407 2.55941 28.084 3.11079ZM22.353 7.14807C21.9717 7.52942 21.9572 7.62412 21.9572 9.72914V11.9142H19.7734C17.6695 11.9142 17.5748 11.9287 17.1937 12.3102C16.8011 12.7029 16.7979 12.7311 16.7979 15.7858C16.7979 18.8405 16.8011 18.8687 17.1937 19.2613C17.5748 19.6429 17.6695 19.6574 19.7734 19.6574H21.9572V21.8424C21.9572 23.9474 21.9717 24.0421 22.353 24.4235C22.7455 24.8163 22.7737 24.8195 25.8267 24.8195C28.8798 24.8195 28.908 24.8163 29.3004 24.4235C29.6817 24.0421 29.6963 23.9474 29.6963 21.8424V19.6574H31.8801C33.984 19.6574 34.0786 19.6429 34.4598 19.2613C34.8524 18.8687 34.8556 18.8405 34.8556 15.7858C34.8556 12.7311 34.8524 12.7029 34.4598 12.3102C34.0786 11.9287 33.984 11.9142 31.8801 11.9142H29.6963V9.72914C29.6963 7.62412 29.6817 7.52942 29.3004 7.14807C28.908 6.75526 28.8798 6.75204 25.8267 6.75204C22.7737 6.75204 22.7455 6.75526 22.353 7.14807ZM27.1166 11.5181C27.1166 13.6232 27.1311 13.7179 27.5124 14.0992C27.8935 14.4807 27.9882 14.4952 30.0921 14.4952H32.2759V15.7858V17.0763H30.0921C27.9882 17.0763 27.8935 17.0908 27.5124 17.4723C27.1311 17.8537 27.1166 17.9484 27.1166 20.0534V22.2384H25.8267H24.5369V20.0534C24.5369 17.9484 24.5224 17.8537 24.1411 17.4723C23.7599 17.0908 23.6653 17.0763 21.5614 17.0763H19.3775V15.7858V14.4952H21.5614C23.6653 14.4952 23.7599 14.4807 24.1411 14.0992C24.5224 13.7179 24.5369 13.6232 24.5369 11.5181V9.33311H25.8267H27.1166V11.5181ZM77.4203 46.1133V77.7314H62.5872H47.754V72.5693V67.4072H49.0438H50.3337V70.8827C50.3337 74.358 50.3337 74.3585 50.7295 74.7543L51.1252 75.1504H62.5872H74.0492L74.4448 74.7543L74.8406 74.3585V61.5997V48.841L74.4448 48.4452L74.0492 48.0491H67.9956H61.9422V46.7586V45.4681H67.9956H74.0492L74.4448 45.072C74.8374 44.6794 74.8406 44.6512 74.8406 41.5965C74.8406 38.5418 74.8374 38.5135 74.4448 38.1209L74.0492 37.7249H67.9956H61.9422V36.4343V35.1438H67.9956H74.0492L74.4448 34.7478C74.8374 34.3551 74.8406 34.3269 74.8406 31.2722C74.8406 28.2175 74.8374 28.1893 74.4448 27.7966L74.0492 27.4006H67.9331H61.817L61.7131 26.8473C61.3815 25.0788 59.5467 22.746 57.7846 21.8526C56.2308 21.0647 55.4099 20.9479 51.4284 20.9479H47.754V17.7216V14.4952H62.5872H77.4203V46.1133ZM69.6007 17.3189C68.7603 17.6167 67.5068 18.9295 67.2791 19.7503C66.8491 21.2997 67.1627 22.5062 68.2883 23.6322C69.8762 25.2212 72.0604 25.2306 73.6661 23.6555C75.2652 22.087 75.2195 19.7022 73.561 18.1499C72.4412 17.102 71.0417 16.8084 69.6007 17.3189ZM71.5169 19.8397C72.4512 20.2655 72.4032 21.6842 71.4409 22.0829C70.4271 22.503 69.4154 21.4957 69.8345 20.4835C70.1303 19.7689 70.7997 19.5127 71.5169 19.8397ZM12.9906 24.4204C13.9236 25.8266 15.7697 27.6622 17.2246 28.6308C18.5293 29.4995 20.7435 30.5264 21.7202 30.716C22.1662 30.8026 22.3284 31.0463 23.5744 33.5016C24.702 35.7236 25.0172 36.2188 25.3834 36.3445C26.3482 36.6755 26.6045 36.4066 28.0669 33.5306L29.4202 30.8689L30.8528 30.405C32.9558 29.7237 34.8258 28.5558 36.5664 26.836C37.3747 26.0375 38.3117 24.9642 38.6489 24.4509L39.2619 23.5177L47.3372 23.5637L55.4124 23.6096L56.3131 24.0323C57.458 24.5695 58.3226 25.4346 58.8595 26.5801L59.282 27.4812L59.3258 40.9915L59.3697 54.5018H30.9896H2.60963V41.3032C2.60963 26.8373 2.58351 27.2581 3.57475 25.7608C4.15292 24.8874 5.05 24.2288 6.20505 23.8294C6.87771 23.5969 7.57293 23.5385 9.72116 23.5343L12.399 23.529L12.9906 24.4204ZM72.261 31.2722V32.5627H67.1016H61.9422V31.2722V29.9817H67.1016H72.261V31.2722ZM72.261 41.5965V42.887H67.1016H61.9422V41.5965V40.3059H67.1016H72.261V41.5965ZM72.261 61.5997V72.5693H62.5872H52.9134V69.9882V67.4072H54.0081C57.6784 67.4072 60.7825 65.0189 61.7017 61.488C61.8897 60.7657 61.9422 59.4794 61.9422 55.5972V50.6302H67.1016H72.261V61.5997ZM59.3355 58.9784C59.2831 60.6015 59.2142 61.0032 58.8558 61.7749C58.3247 62.9184 57.4602 63.7846 56.3131 64.3228L55.4124 64.7454H30.9861H6.55976L5.65913 64.3228C4.51198 63.7846 3.64746 62.9184 3.11637 61.7749C2.75796 61.0032 2.68911 60.6015 2.63671 58.9784L2.57561 57.0829H30.9861H59.3966L59.3355 58.9784ZM49.0438 60.9545V62.245H51.6235H54.2032V60.9545V59.6639H51.6235H49.0438V60.9545ZM34.8556 69.9882V72.5693H30.9861H27.1166V69.9882V67.4072H30.9861H34.8556V69.9882ZM39.7981 75.4151C40.4714 75.7346 41.1041 76.5253 41.2431 77.2207L41.3451 77.7314H30.9861H20.6271L20.7291 77.2207C20.8657 76.538 21.4903 75.7456 22.1475 75.4217C22.6216 75.1878 23.6268 75.1573 30.9618 75.1541C38.3074 75.1508 39.3036 75.1802 39.7981 75.4151Z"></path></mask><path fill-rule="evenodd" clip-rule="evenodd" d="M22.7634 0.613611C15.258 2.20984 10.0348 8.8919 10.3991 16.431C10.4506 17.4969 10.6305 18.829 10.8217 19.5622C11.0049 20.2639 11.1548 20.8629 11.1548 20.8931C11.1548 20.9232 10.1907 20.9479 9.01207 20.9479C7.60824 20.9479 6.54251 21.0331 5.92161 21.1949C3.14072 21.9197 0.998779 24.0697 0.270504 26.8671C-0.0901678 28.2525 -0.0901678 60.1026 0.270504 61.488C0.998779 64.2854 3.14072 66.4354 5.92161 67.1602C6.7168 67.3675 8.29105 67.4072 15.7031 67.4072H24.5369V69.9681V72.5288L23.2001 72.599C21.6151 72.6822 20.6097 73.1026 19.6152 74.0976C18.5578 75.1555 18.1894 76.0946 18.1148 77.9221C18.0535 79.4243 18.0669 79.4998 18.4651 79.8982L18.8792 80.3125H30.9861H43.093L43.5071 79.8982C43.9053 79.4998 43.9187 79.4243 43.8574 77.9221C43.782 76.0755 43.4148 75.1558 42.3123 74.0528C41.3398 73.0797 40.3863 72.6895 38.7654 72.6012L37.4353 72.5288V69.9681V67.4072H41.3048H45.1743V73.4638V79.5206L45.5701 79.9165L45.9658 80.3125H62.5872H79.2085L79.6042 79.9165L80 79.5206V46.1133V12.7061L79.6042 12.3102L79.2085 11.9142H62.5872H45.9658L45.5701 12.3102L45.1743 12.7061V16.8271V20.9479H42.8365C41.5507 20.9479 40.4987 20.9232 40.4987 20.8931C40.4987 20.8629 40.6481 20.2639 40.8308 19.5622C41.0135 18.8603 41.2032 17.4877 41.2526 16.5117C41.6979 7.71123 34.5673 0.262263 25.7461 0.312755C24.8413 0.318079 23.5324 0.450036 22.7634 0.613611ZM28.084 3.11079C30.7868 3.60039 33.1224 4.8656 35.0497 6.88416C37.1128 9.04467 38.2381 11.4084 38.6111 14.3657C38.9378 16.9552 38.3092 19.9036 36.9189 22.3028C36.0471 23.8074 33.8391 26.0146 32.3298 26.89C31.6942 27.2588 30.5696 27.7505 29.8307 27.9829C27.4592 28.7289 27.6567 28.5735 26.7438 30.4101C26.2877 31.3278 25.8749 32.0788 25.8267 32.0788C25.7785 32.0788 25.3658 31.3278 24.9097 30.4101C23.9968 28.5735 24.1943 28.7289 21.8228 27.9829C19.8774 27.3711 18.3903 26.4419 16.7834 24.834C14.5951 22.6446 13.4283 20.2654 13.0423 17.2057C12.6975 14.4723 13.4012 11.3975 14.9355 8.93465C15.787 7.56766 17.7643 5.61814 19.1586 4.77058C21.8073 3.1608 25.0407 2.55941 28.084 3.11079ZM22.353 7.14807C21.9717 7.52942 21.9572 7.62412 21.9572 9.72914V11.9142H19.7734C17.6695 11.9142 17.5748 11.9287 17.1937 12.3102C16.8011 12.7029 16.7979 12.7311 16.7979 15.7858C16.7979 18.8405 16.8011 18.8687 17.1937 19.2613C17.5748 19.6429 17.6695 19.6574 19.7734 19.6574H21.9572V21.8424C21.9572 23.9474 21.9717 24.0421 22.353 24.4235C22.7455 24.8163 22.7737 24.8195 25.8267 24.8195C28.8798 24.8195 28.908 24.8163 29.3004 24.4235C29.6817 24.0421 29.6963 23.9474 29.6963 21.8424V19.6574H31.8801C33.984 19.6574 34.0786 19.6429 34.4598 19.2613C34.8524 18.8687 34.8556 18.8405 34.8556 15.7858C34.8556 12.7311 34.8524 12.7029 34.4598 12.3102C34.0786 11.9287 33.984 11.9142 31.8801 11.9142H29.6963V9.72914C29.6963 7.62412 29.6817 7.52942 29.3004 7.14807C28.908 6.75526 28.8798 6.75204 25.8267 6.75204C22.7737 6.75204 22.7455 6.75526 22.353 7.14807ZM27.1166 11.5181C27.1166 13.6232 27.1311 13.7179 27.5124 14.0992C27.8935 14.4807 27.9882 14.4952 30.0921 14.4952H32.2759V15.7858V17.0763H30.0921C27.9882 17.0763 27.8935 17.0908 27.5124 17.4723C27.1311 17.8537 27.1166 17.9484 27.1166 20.0534V22.2384H25.8267H24.5369V20.0534C24.5369 17.9484 24.5224 17.8537 24.1411 17.4723C23.7599 17.0908 23.6653 17.0763 21.5614 17.0763H19.3775V15.7858V14.4952H21.5614C23.6653 14.4952 23.7599 14.4807 24.1411 14.0992C24.5224 13.7179 24.5369 13.6232 24.5369 11.5181V9.33311H25.8267H27.1166V11.5181ZM77.4203 46.1133V77.7314H62.5872H47.754V72.5693V67.4072H49.0438H50.3337V70.8827C50.3337 74.358 50.3337 74.3585 50.7295 74.7543L51.1252 75.1504H62.5872H74.0492L74.4448 74.7543L74.8406 74.3585V61.5997V48.841L74.4448 48.4452L74.0492 48.0491H67.9956H61.9422V46.7586V45.4681H67.9956H74.0492L74.4448 45.072C74.8374 44.6794 74.8406 44.6512 74.8406 41.5965C74.8406 38.5418 74.8374 38.5135 74.4448 38.1209L74.0492 37.7249H67.9956H61.9422V36.4343V35.1438H67.9956H74.0492L74.4448 34.7478C74.8374 34.3551 74.8406 34.3269 74.8406 31.2722C74.8406 28.2175 74.8374 28.1893 74.4448 27.7966L74.0492 27.4006H67.9331H61.817L61.7131 26.8473C61.3815 25.0788 59.5467 22.746 57.7846 21.8526C56.2308 21.0647 55.4099 20.9479 51.4284 20.9479H47.754V17.7216V14.4952H62.5872H77.4203V46.1133ZM69.6007 17.3189C68.7603 17.6167 67.5068 18.9295 67.2791 19.7503C66.8491 21.2997 67.1627 22.5062 68.2883 23.6322C69.8762 25.2212 72.0604 25.2306 73.6661 23.6555C75.2652 22.087 75.2195 19.7022 73.561 18.1499C72.4412 17.102 71.0417 16.8084 69.6007 17.3189ZM71.5169 19.8397C72.4512 20.2655 72.4032 21.6842 71.4409 22.0829C70.4271 22.503 69.4154 21.4957 69.8345 20.4835C70.1303 19.7689 70.7997 19.5127 71.5169 19.8397ZM12.9906 24.4204C13.9236 25.8266 15.7697 27.6622 17.2246 28.6308C18.5293 29.4995 20.7435 30.5264 21.7202 30.716C22.1662 30.8026 22.3284 31.0463 23.5744 33.5016C24.702 35.7236 25.0172 36.2188 25.3834 36.3445C26.3482 36.6755 26.6045 36.4066 28.0669 33.5306L29.4202 30.8689L30.8528 30.405C32.9558 29.7237 34.8258 28.5558 36.5664 26.836C37.3747 26.0375 38.3117 24.9642 38.6489 24.4509L39.2619 23.5177L47.3372 23.5637L55.4124 23.6096L56.3131 24.0323C57.458 24.5695 58.3226 25.4346 58.8595 26.5801L59.282 27.4812L59.3258 40.9915L59.3697 54.5018H30.9896H2.60963V41.3032C2.60963 26.8373 2.58351 27.2581 3.57475 25.7608C4.15292 24.8874 5.05 24.2288 6.20505 23.8294C6.87771 23.5969 7.57293 23.5385 9.72116 23.5343L12.399 23.529L12.9906 24.4204ZM72.261 31.2722V32.5627H67.1016H61.9422V31.2722V29.9817H67.1016H72.261V31.2722ZM72.261 41.5965V42.887H67.1016H61.9422V41.5965V40.3059H67.1016H72.261V41.5965ZM72.261 61.5997V72.5693H62.5872H52.9134V69.9882V67.4072H54.0081C57.6784 67.4072 60.7825 65.0189 61.7017 61.488C61.8897 60.7657 61.9422 59.4794 61.9422 55.5972V50.6302H67.1016H72.261V61.5997ZM59.3355 58.9784C59.2831 60.6015 59.2142 61.0032 58.8558 61.7749C58.3247 62.9184 57.4602 63.7846 56.3131 64.3228L55.4124 64.7454H30.9861H6.55976L5.65913 64.3228C4.51198 63.7846 3.64746 62.9184 3.11637 61.7749C2.75796 61.0032 2.68911 60.6015 2.63671 58.9784L2.57561 57.0829H30.9861H59.3966L59.3355 58.9784ZM49.0438 60.9545V62.245H51.6235H54.2032V60.9545V59.6639H51.6235H49.0438V60.9545ZM34.8556 69.9882V72.5693H30.9861H27.1166V69.9882V67.4072H30.9861H34.8556V69.9882ZM39.7981 75.4151C40.4714 75.7346 41.1041 76.5253 41.2431 77.2207L41.3451 77.7314H30.9861H20.6271L20.7291 77.2207C20.8657 76.538 21.4903 75.7456 22.1475 75.4217C22.6216 75.1878 23.6268 75.1573 30.9618 75.1541C38.3074 75.1508 39.3036 75.1802 39.7981 75.4151Z" fill="#1742E7" stroke="#1742E7" stroke-width="0.56" mask="url(#path-1-inside-1_1260_3646)"></path></svg>