<svg xmlns="http://www.w3.org/2000/svg" viewBox="0 0 80 81" fill="none"><path fill-rule="evenodd" clip-rule="evenodd" d="M37.9148 0.529853C34.3095 0.950612 30.4816 2.70096 28.0166 5.0556C26.8174 6.20115 26.656 6.64653 27.1726 7.38303C27.5348 7.89933 28.1674 8.13175 28.6805 7.93687C28.9031 7.85233 29.5431 7.38131 30.1029 6.89013C31.5172 5.64903 33.3438 4.61883 35.2483 3.9882C40.239 2.33581 46.01 3.47895 49.8971 6.89013C50.4569 7.38131 51.0969 7.85233 51.3195 7.93687C52.1207 8.24107 53.1035 7.47944 53.1035 6.55442C53.1035 5.95875 51.1441 4.12903 49.3557 3.05458C45.8062 0.921862 41.9143 0.0629552 37.9148 0.529853ZM38.1959 6.05257C35.9617 6.37744 33.2985 7.61889 31.8 9.03387C31.0081 9.78156 30.8621 10.0143 30.8621 10.5287C30.8621 11.2957 31.4422 11.8866 32.1953 11.8866C32.5824 11.8866 32.9847 11.6683 33.6497 11.097C37.3383 7.92877 42.5591 7.93032 46.3781 11.1005C47.0605 11.6669 47.4767 11.8866 47.8676 11.8866C48.5612 11.8866 49.1084 11.4315 49.2412 10.7445C49.3293 10.2884 49.246 10.0949 48.7041 9.49595C47.209 7.84338 44.2838 6.41153 41.6581 6.04689C40.1533 5.83789 39.6664 5.83858 38.1959 6.05257ZM38.4769 11.6342C37.256 11.8988 36.1898 12.4619 35.2707 13.3274C34.5097 14.0441 34.4416 14.7878 35.0784 15.4236C35.6631 16.0076 36.3509 15.9695 37.1745 15.3077C38.1219 14.5466 38.8903 14.2624 40 14.2624C41.1097 14.2624 41.8781 14.5466 42.8255 15.3077C43.6491 15.9695 44.3369 16.0076 44.9216 15.4236C45.5585 14.7878 45.4903 14.0441 44.7293 13.3274C43.7897 12.4425 42.7455 11.9022 41.4421 11.6264C40.0329 11.3282 39.8862 11.3288 38.4769 11.6342ZM8.87931 18.7795C6.89121 19.4165 5.10638 21.2197 4.47983 23.2242C4.1469 24.2895 4.13793 24.8576 4.13793 44.7872V65.2562H2.49224C0.974656 65.2562 0.813448 65.289 0.423276 65.6788L0 66.1013V72.8312V79.5611L0.423276 79.9836L0.846379 80.4062H40H79.1536L79.5767 79.9836L80 79.5611V72.8312V66.1013L79.5767 65.6788C79.1866 65.289 79.0253 65.2562 77.5078 65.2562H75.8621V44.7727C75.8621 24.4482 75.8593 24.2809 75.501 23.1913C74.8264 21.1393 73.1474 19.4628 71.0924 18.7891C69.9929 18.4286 69.9886 18.4286 39.9533 18.4383C10.7898 18.4478 9.88362 18.4576 8.87931 18.7795ZM70.7759 21.6408C71.5828 22.0757 72.246 22.75 72.6959 23.5934C73.0034 24.1702 73.0191 25.0737 73.0631 44.7261L73.109 65.2562H40H6.89103L6.9369 44.7261C6.98086 25.0737 6.99655 24.1702 7.30414 23.5934C7.90759 22.4622 8.8131 21.7059 9.99897 21.3431C10.2366 21.2703 23.8534 21.224 40.2586 21.24L70.0862 21.2693L70.7759 21.6408ZM29.3476 27.0277C27.2124 27.6068 25.7898 28.463 24.0517 30.2151C22.3967 31.8833 21.7071 32.9063 20.7557 35.1035C19.9931 36.8646 19.6619 38.4438 19.6581 40.336L19.6552 41.8424H14.3888H9.12224L8.69914 42.2651C8.13914 42.8241 8.13914 43.6153 8.69914 44.1743L9.12224 44.597H14.7997H20.4772L20.8622 45.5442C22.1774 48.7799 25.6693 52.547 29.9138 55.3088C32.8138 57.1958 38.6066 59.747 39.9912 59.747C41.3853 59.747 47.3376 57.1607 50.1381 55.3379C54.2521 52.6603 57.8295 48.7631 59.1457 45.5246L59.5228 44.597H65.2003H70.8778L71.3009 44.1743C71.5678 43.908 71.7241 43.5551 71.7241 43.2197C71.7241 42.8843 71.5678 42.5314 71.3009 42.2651L70.8778 41.8424L65.5681 41.8414L60.2586 41.8403L60.2436 39.9046C60.2303 38.2012 60.1621 37.7725 59.6736 36.3333C57.9721 31.319 54.4469 27.8301 50.1724 26.9299C47.1936 26.3027 42.9805 27.2295 40.5603 29.0442L40 29.4644L39.4397 29.0442C36.8952 27.1363 32.3186 26.2218 29.3476 27.0277ZM34.9138 29.9747C36.4136 30.4371 37.4035 30.9376 38.6088 31.8427C39.6928 32.6566 40.0729 32.7042 40.8797 32.1259C43.3134 30.3815 45.1303 29.6555 47.4571 29.498C49.3419 29.3704 50.7785 29.7213 52.2445 30.6675C55.545 32.7975 57.7897 37.2616 57.4524 41.0246L57.3791 41.8424L54.336 41.8333L51.2931 41.8242L50.0862 40.0717C48.7952 38.1971 48.3231 37.8505 47.4691 38.1508C47.1019 38.2797 46.5934 39.0477 44.9928 41.8904C43.885 43.8581 42.9431 45.503 42.8998 45.5463C42.8567 45.5895 41.87 43.2436 40.7072 40.3334C39.5443 37.4232 38.4305 34.8679 38.2319 34.6547C38.0253 34.433 37.6667 34.2674 37.3933 34.2674C37.1307 34.2674 36.7212 34.4416 36.4833 34.6547C36.2303 34.8813 35.1803 36.9176 33.9531 39.5613C32.7991 42.0469 31.8062 44.0803 31.7466 44.0801C31.6867 44.08 31.4174 43.7315 31.1481 43.3056C30.2141 41.8295 30.2579 41.8424 26.2062 41.8424H22.6314L22.5245 41.1968C21.9991 38.0236 23.945 33.6448 26.9303 31.2823C27.8681 30.5401 29.3069 29.846 30.3752 29.6199C31.47 29.3883 33.536 29.5498 34.9138 29.9747ZM39.3921 44.4444C41.5038 49.7439 41.8029 50.2782 42.6572 50.2782C42.8605 50.2782 43.1922 50.1624 43.3947 50.0209C43.5969 49.8794 44.7193 48.0588 45.8888 45.9751C47.0583 43.8915 48.0626 42.1867 48.1205 42.1867C48.1784 42.1867 48.5524 42.6514 48.9514 43.2193C49.3503 43.7875 49.8221 44.3298 49.9995 44.4245C50.1798 44.5209 51.6581 44.597 53.3507 44.597C55.0164 44.597 56.3791 44.655 56.3788 44.7261C56.3779 44.9781 55.1195 46.937 54.2852 47.9847C51.5898 51.3701 46.6279 54.659 41.5086 56.4538L40 56.9828L38.4914 56.4538C33.8128 54.8135 29.6 52.1839 26.6724 49.0764C25.5288 47.8625 23.6207 45.147 23.6207 44.7333C23.6207 44.6583 24.765 44.5994 26.1638 44.6021L28.7069 44.6073L29.8276 46.2574C30.444 47.1649 31.1014 48.0147 31.2885 48.1459C31.8091 48.5112 32.4912 48.4342 32.9507 47.9582C33.1769 47.7239 34.2155 45.6719 35.2586 43.3984C36.3017 41.1248 37.194 39.2645 37.2414 39.2641C37.2888 39.2638 38.2566 41.5948 39.3921 44.4444ZM77.2414 72.8312V77.6517H40H2.75862V72.8312V68.0107H40H77.2414V72.8312ZM63.8716 71.1879C63.6047 71.4543 63.4483 71.8072 63.4483 72.1426C63.4483 72.4779 63.6047 72.8309 63.8716 73.0972C64.1383 73.3637 64.4917 73.5198 64.8276 73.5198C65.1635 73.5198 65.5169 73.3637 65.7836 73.0972C66.0505 72.8309 66.2069 72.4779 66.2069 72.1426C66.2069 71.8072 66.0505 71.4543 65.7836 71.1879C65.5169 70.9214 65.1635 70.7653 64.8276 70.7653C64.4917 70.7653 64.1383 70.9214 63.8716 71.1879ZM68.0095 71.1879C67.7426 71.4543 67.5862 71.8072 67.5862 72.1426C67.5862 72.4779 67.7426 72.8309 68.0095 73.0972C68.2762 73.3637 68.6297 73.5198 68.9655 73.5198C69.3014 73.5198 69.6548 73.3637 69.9216 73.0972C70.1885 72.8309 70.3448 72.4779 70.3448 72.1426C70.3448 71.8072 70.1885 71.4543 69.9216 71.1879C69.6548 70.9214 69.3014 70.7653 68.9655 70.7653C68.6297 70.7653 68.2762 70.9214 68.0095 71.1879ZM72.1474 71.1879C71.8805 71.4543 71.7241 71.8072 71.7241 72.1426C71.7241 72.4779 71.8805 72.8309 72.1474 73.0972C72.4141 73.3637 72.7676 73.5198 73.1034 73.5198C73.4393 73.5198 73.7928 73.3637 74.0595 73.0972C74.3264 72.8309 74.4828 72.4779 74.4828 72.1426C74.4828 71.8072 74.3264 71.4543 74.0595 71.1879C73.7928 70.9214 73.4393 70.7653 73.1034 70.7653C72.7676 70.7653 72.4141 70.9214 72.1474 71.1879ZM5.94052 72.5652C5.67362 72.8316 5.51724 73.1845 5.51724 73.5198C5.51724 73.8552 5.67362 74.2081 5.94052 74.4745C6.36017 74.8937 6.39034 74.8971 9.65517 74.8971C12.92 74.8971 12.9502 74.8937 13.3698 74.4745C13.6367 74.2081 13.7931 73.8552 13.7931 73.5198C13.7931 73.1845 13.6367 72.8316 13.3698 72.5652C12.9502 72.146 12.92 72.1426 9.65517 72.1426C6.39034 72.1426 6.36017 72.146 5.94052 72.5652ZM15.5957 72.5652C15.3288 72.8316 15.1724 73.1845 15.1724 73.5198C15.1724 73.8552 15.3288 74.2081 15.5957 74.4745C15.9941 74.8723 16.1307 74.8971 17.931 74.8971C19.7314 74.8971 19.8679 74.8723 20.2664 74.4745C20.5333 74.2081 20.6897 73.8552 20.6897 73.5198C20.6897 73.1845 20.5333 72.8316 20.2664 72.5652C19.8679 72.1674 19.7314 72.1426 17.931 72.1426C16.1307 72.1426 15.9941 72.1674 15.5957 72.5652Z" fill="#4B7EEF"></path></svg>