<svg xmlns="http://www.w3.org/2000/svg" viewBox="0 0 64 51" fill="none"><path d="M31.9159 26.0029C28.0601 26.0029 25.1523 28.7453 25.1523 32.382C25.1523 34.3533 25.9668 35.4803 26.8331 36.6787C27.4382 37.516 28.1242 38.4644 28.6626 39.8897C28.7076 40.0325 28.9498 40.9439 29.0228 41.3098C29.0932 41.6647 29.4042 41.9207 29.7665 41.9207H29.7681L31.9139 41.9159L34.0644 41.9207H34.066C34.4267 41.9207 34.7388 41.6658 34.8091 41.3119C34.8805 40.957 35.1207 40.0462 35.1693 39.8866C35.7099 38.4627 36.3953 37.5123 37.0036 36.6703C37.8673 35.4781 38.6823 34.3521 38.6823 32.3819C38.6828 28.7462 35.7748 26.0029 31.9159 26.0029ZM35.7759 35.7844C35.1147 36.6989 34.3658 37.7355 33.7576 39.345C33.7433 39.3762 33.7312 39.408 33.7211 39.4413C33.6862 39.555 33.5688 39.9935 33.4656 40.4044L31.9149 40.4013L30.3695 40.4044C30.2647 39.9882 30.1457 39.5492 30.1119 39.4408C30.1066 39.4249 30.087 39.3672 30.0817 39.353C29.4746 37.7456 28.7267 36.7105 28.0587 35.784C27.2527 34.6701 26.6698 33.8656 26.6698 32.3842C26.6698 29.6122 28.9256 27.5215 31.9197 27.5215C34.9112 27.5215 37.1669 29.6118 37.1669 32.3842C37.1664 33.8614 36.5841 34.6675 35.776 35.7845L35.7759 35.7844ZM33.0551 42.8723H30.7803C30.3609 42.8723 30.0218 43.2113 30.0218 43.6308C30.0218 44.0502 30.3609 44.3892 30.7803 44.3892H33.0551C33.4746 44.3892 33.8136 44.0502 33.8136 43.6308C33.8131 43.2113 33.4746 42.8723 33.0551 42.8723ZM54.4388 22.2916V21.7198C54.4388 10.0189 44.9201 0.5 33.2203 0.5H33.0506C23.1304 0.5 14.7459 7.09654 12.4684 16.6126C5.62804 17.4049 0.349609 23.2699 0.349609 30.208V30.6259C0.349609 38.1527 6.47374 44.2755 14.0006 44.2755H19.8186C22.6334 47.8774 27.0054 50.2051 31.92 50.2051C36.8351 50.2051 41.2076 47.8774 44.0224 44.2755H52.7679C58.6905 44.2755 63.5083 39.4577 63.5083 33.5356V32.9607C63.5908 27.616 59.6589 23.0607 54.4393 22.2916L54.4388 22.2916ZM43.1044 42.9712C43.0748 42.9992 43.0568 43.0346 43.0314 43.0674C40.5059 46.4688 36.4709 48.6876 31.918 48.6876C27.4409 48.6876 23.4636 46.5423 20.9306 43.2356C20.8846 43.1198 20.8063 43.0246 20.7132 42.9442C19.0577 40.6624 18.0693 37.8672 18.0693 34.8393C18.0693 34.2622 18.1047 33.6831 18.1756 33.1171C19.0319 26.2034 24.9398 20.9899 31.9187 20.9899C33.7038 20.9899 35.4422 21.3242 37.0855 21.9853C42.3598 24.1068 45.768 29.152 45.768 34.8399C45.7686 37.879 44.7711 40.6848 43.1045 42.9713L43.1044 42.9712ZM61.9899 33.5345C61.9899 38.62 57.8523 42.7575 52.7658 42.7575L45.0613 42.758C46.4624 40.4415 47.2843 37.7388 47.2843 34.8399C47.2843 28.53 43.5031 22.9316 37.6509 20.5782C35.8272 19.8452 33.8983 19.4733 31.9181 19.4733C24.1759 19.4733 17.6212 25.2586 16.6707 32.9308C16.5924 33.5581 16.5533 34.2007 16.5533 34.8402C16.5533 37.7391 17.3747 40.4429 18.7757 42.7584H13.9998C7.30804 42.7584 1.8651 37.3149 1.8651 30.6254V30.2076C1.8651 23.8702 6.81884 18.5388 13.1424 18.0702C13.4783 18.0453 13.7581 17.802 13.8279 17.472C15.7604 8.37166 23.6655 2.01614 33.0492 2.01614H33.219C44.0832 2.01614 52.9224 10.8546 52.9224 21.7195V22.9677C52.9224 23.3628 53.2254 23.6918 53.62 23.7235C58.3892 24.1064 62.0666 28.1531 61.991 32.9476L61.9904 33.5347L61.9899 33.5345Z" fill="#1742E7"></path></svg>