<svg xmlns="http://www.w3.org/2000/svg" viewBox="0 0 47 57" fill="none"><mask id="path-1-inside-1_1260_3764" fill="white"><path d="M38.7185 22.5826C38.7185 18.5404 37.1128 14.6639 34.2549 11.8056C31.3967 8.94776 27.5202 7.34204 23.4779 7.34204C19.4357 7.34204 15.5592 8.94776 12.701 11.8056C9.8431 14.6639 8.23738 18.5404 8.23738 22.5826C8.23738 26.6249 9.8431 30.5013 12.701 33.3596C15.5592 36.2175 19.4357 37.8232 23.4779 37.8232C27.5187 37.8188 31.3927 36.2117 34.2501 33.3548C37.107 30.4974 38.7142 26.6234 38.7185 22.5826ZM23.4778 35.0523C20.1706 35.0523 16.9992 33.7384 14.6604 31.4001C12.3221 29.0613 11.0082 25.8898 11.0082 22.5826C11.0082 19.2754 12.3221 16.104 14.6604 13.7652C16.9992 11.4268 20.1706 10.113 23.4778 10.113C26.785 10.113 29.9565 11.4268 32.2953 13.7652C34.6336 16.104 35.9475 19.2754 35.9475 22.5826C35.9436 25.8889 34.6287 29.0584 32.2908 31.3958C29.9534 33.7336 26.784 35.0483 23.4778 35.0523ZM29.3969 17.8941C30.0087 18.3537 30.1329 19.2215 29.6738 19.8339L22.4969 29.2883C22.2354 29.6372 21.8247 29.8426 21.3883 29.8426C20.95 29.8392 20.5388 29.6285 20.2803 29.2748L17.2819 25.1707C16.8306 24.5526 16.9654 23.6852 17.5839 23.2339C18.202 22.7821 19.0694 22.9174 19.5207 23.5359L21.4188 26.1353L27.4625 18.16C27.9245 17.555 28.7885 17.4365 29.3969 17.8941ZM37.693 37.9619C39.3838 38.0469 41.0292 37.4008 42.2102 36.1884C42.9911 34.6527 43.0718 32.8551 42.4316 31.2561C42.1808 30.4119 42.087 29.529 42.1547 28.6509C42.5963 27.9396 43.1704 27.3186 43.845 26.8224C45.3396 25.8777 46.3511 24.3308 46.6158 22.5826C46.351 20.8343 45.3396 19.2874 43.845 18.3428C43.1704 17.8465 42.5963 17.2256 42.1547 16.5143C42.087 15.6363 42.1808 14.7535 42.4316 13.9092C43.0718 12.3101 42.9911 10.5125 42.2102 8.97683C40.9814 7.7499 39.2882 7.10477 37.5548 7.20337C36.6888 7.21207 35.8302 7.04245 35.0328 6.70468C34.4635 6.04845 34.0301 5.28539 33.7585 4.46002C33.0935 2.90836 32.345 1.1349 30.6272 0.58069C28.946 0.298489 27.2258 0.764321 25.9162 1.85549C25.1846 2.37641 24.3554 2.74415 23.4778 2.936C22.6003 2.74415 21.771 2.37642 21.0394 1.85549C19.7284 0.767252 18.0096 0.301854 16.3284 0.58069C14.6105 1.13496 13.862 2.90836 13.1972 4.46002C12.9256 5.28538 12.4921 6.04841 11.9229 6.70468C11.1255 7.04246 10.2668 7.21208 9.40085 7.20337C7.66747 7.10479 5.97429 7.7499 4.74539 8.97683C3.96449 10.5125 3.8838 12.3101 4.52407 13.9092C4.77486 14.7534 4.86861 15.6362 4.80096 16.5143C4.35929 17.2256 3.78522 17.8466 3.11063 18.3428C1.616 19.2875 0.604576 20.8344 0.339844 22.5826C0.60465 24.331 1.616 25.8778 3.11063 26.8224C3.78522 27.3187 4.35932 27.9396 4.80096 28.6509C4.86861 29.529 4.77486 30.4118 4.52407 31.2561C3.88378 32.8551 3.96449 34.6527 4.74539 36.1884C5.92641 37.4008 7.57184 38.0469 9.26267 37.9619L1.91906 47.5497C1.59095 48.001 1.56147 48.6036 1.84416 49.0849C2.12686 49.5657 2.66758 49.8334 3.22188 49.7667L9.59526 48.9075L10.4544 55.3083C10.5371 55.8587 10.9406 56.3062 11.4794 56.4444C11.5968 56.4768 11.7181 56.4952 11.8399 56.5C12.2753 56.4971 12.6845 56.2922 12.9479 55.9457L23.3948 42.2563C23.4441 42.2196 23.5118 42.2196 23.5611 42.2563L34.008 55.9457C34.2713 56.2922 34.6806 56.4971 35.116 56.5C35.2378 56.4952 35.3591 56.4768 35.4765 56.4444C36.0153 56.3062 36.4193 55.8587 36.5019 55.3083L37.3611 48.9075L43.7345 49.7667C44.2888 49.8334 44.829 49.5657 45.1117 49.0849C45.3944 48.6036 45.3649 48.001 45.0368 47.5497L37.693 37.9619ZM12.7537 51.6228L12.1719 47.1617C12.052 46.404 11.3542 45.8768 10.5926 45.9696L6.15896 46.5794L12.1722 38.7095C12.597 39.3286 12.9415 39.9993 13.1972 40.7048C13.8621 42.2565 14.6106 44.0299 16.3284 44.5841C16.8933 44.7634 17.4949 44.7924 18.0743 44.6673L12.7537 51.6228ZM23.4776 39.458C23.1407 39.4628 22.8059 39.5097 22.4807 39.5962C22.4531 39.5962 22.4531 39.5962 22.4251 39.6237C22.3091 39.6247 22.1951 39.6537 22.0926 39.7073C22.0651 39.7073 22.0371 39.7349 21.982 39.7349C21.16 40.0538 20.3705 40.453 19.6262 40.9265C18.7951 41.4252 17.631 42.1182 17.1878 41.9519C16.6611 41.7857 16.1349 40.5385 15.7469 39.5967C15.3294 38.3041 14.5731 37.1457 13.5579 36.2435C13.2245 35.9937 12.849 35.8057 12.4494 35.6892C12.3025 35.6143 12.1425 35.567 11.9782 35.5505C11.2147 35.3611 10.4357 35.2403 9.65058 35.1905C8.65319 35.1074 7.29533 34.9687 6.99039 34.5531C6.68545 34.1376 6.99039 32.8352 7.2122 31.8654C7.64179 30.5505 7.71863 29.1453 7.434 27.7917C6.87297 26.5657 6.00407 25.506 4.91249 24.716C4.10887 24.023 3.11144 23.1362 3.11144 22.5825C3.11144 22.0283 4.10882 21.1416 4.91249 20.421C6.00894 19.6473 6.87918 18.5948 7.434 17.3722C7.71863 16.0188 7.64179 14.614 7.2122 13.2991C6.99039 12.3292 6.68548 11.0269 6.99039 10.6113C7.2953 10.1956 8.65313 10.057 9.65058 9.97392C11.024 9.9773 12.3726 9.61391 13.558 8.92048C14.5732 8.01828 15.3295 6.86051 15.747 5.56777C16.135 4.62547 16.6612 3.37878 17.1879 3.21252C17.2295 3.18739 17.2783 3.17724 17.3266 3.18449C18.15 3.39469 18.929 3.75131 19.6263 4.23744C20.7595 5.05652 22.0875 5.56296 23.4782 5.70646C24.8689 5.56294 26.1969 5.05652 27.33 4.23744C28.1612 3.73876 29.3253 3.07383 29.7684 3.21203C30.2951 3.37826 30.8214 4.6255 31.2093 5.56728C31.6269 6.8599 32.3831 8.01828 33.3983 8.92047C34.5837 9.61391 35.9324 9.9773 37.3057 9.97391C38.3031 10.057 39.661 10.1957 39.9659 10.6113C40.2709 11.0269 39.9659 12.3292 39.7441 13.2991C39.3145 14.6139 39.2377 16.0186 39.5223 17.3722C40.0771 18.5948 40.9474 19.6468 42.0438 20.4205C42.8474 21.141 43.8449 22.0277 43.8449 22.582C43.8449 23.1364 42.8475 24.023 42.0438 24.7155C40.9522 25.5056 40.0833 26.5658 39.5223 27.7917C39.2377 29.1452 39.3145 30.55 39.7441 31.8649C39.9659 32.8347 40.2708 34.137 39.9659 34.5527C39.661 34.9683 38.3032 35.1069 37.3057 35.19C36.4528 35.2403 35.6076 35.3799 34.7837 35.6061C34.7562 35.6061 34.7282 35.6336 34.7006 35.6336C34.2314 35.7511 33.7892 35.9579 33.3984 36.2435C32.3831 37.1457 31.6269 38.3034 31.2094 39.5962C30.8213 40.5385 30.2951 41.7852 29.7684 41.9514C29.3248 42.0901 28.1612 41.4247 27.33 40.926C26.5859 40.4525 25.7967 40.0538 24.9748 39.7349C24.9192 39.7349 24.8917 39.7073 24.8641 39.7073C24.7617 39.6537 24.6472 39.6252 24.5312 39.6242C24.5036 39.5967 24.5036 39.5967 24.4756 39.5967C24.1504 39.5102 23.8144 39.4628 23.4776 39.458ZM36.3629 45.97C35.6013 45.8773 34.9035 46.4035 34.7836 47.1612L34.2018 51.6223L28.8814 44.6671C29.1361 44.7237 29.3965 44.7517 29.6575 44.7503C29.9875 44.7469 30.3147 44.6908 30.6273 44.584C32.3452 44.0298 33.0938 42.2564 33.7586 40.7047C34.0142 39.9992 34.3588 39.3285 34.7835 38.7094L40.7968 46.5793L36.3629 45.97Z"></path></mask><path d="M38.7185 22.5826C38.7185 18.5404 37.1128 14.6639 34.2549 11.8056C31.3967 8.94776 27.5202 7.34204 23.4779 7.34204C19.4357 7.34204 15.5592 8.94776 12.701 11.8056C9.8431 14.6639 8.23738 18.5404 8.23738 22.5826C8.23738 26.6249 9.8431 30.5013 12.701 33.3596C15.5592 36.2175 19.4357 37.8232 23.4779 37.8232C27.5187 37.8188 31.3927 36.2117 34.2501 33.3548C37.107 30.4974 38.7142 26.6234 38.7185 22.5826ZM23.4778 35.0523C20.1706 35.0523 16.9992 33.7384 14.6604 31.4001C12.3221 29.0613 11.0082 25.8898 11.0082 22.5826C11.0082 19.2754 12.3221 16.104 14.6604 13.7652C16.9992 11.4268 20.1706 10.113 23.4778 10.113C26.785 10.113 29.9565 11.4268 32.2953 13.7652C34.6336 16.104 35.9475 19.2754 35.9475 22.5826C35.9436 25.8889 34.6287 29.0584 32.2908 31.3958C29.9534 33.7336 26.784 35.0483 23.4778 35.0523ZM29.3969 17.8941C30.0087 18.3537 30.1329 19.2215 29.6738 19.8339L22.4969 29.2883C22.2354 29.6372 21.8247 29.8426 21.3883 29.8426C20.95 29.8392 20.5388 29.6285 20.2803 29.2748L17.2819 25.1707C16.8306 24.5526 16.9654 23.6852 17.5839 23.2339C18.202 22.7821 19.0694 22.9174 19.5207 23.5359L21.4188 26.1353L27.4625 18.16C27.9245 17.555 28.7885 17.4365 29.3969 17.8941ZM37.693 37.9619C39.3838 38.0469 41.0292 37.4008 42.2102 36.1884C42.9911 34.6527 43.0718 32.8551 42.4316 31.2561C42.1808 30.4119 42.087 29.529 42.1547 28.6509C42.5963 27.9396 43.1704 27.3186 43.845 26.8224C45.3396 25.8777 46.3511 24.3308 46.6158 22.5826C46.351 20.8343 45.3396 19.2874 43.845 18.3428C43.1704 17.8465 42.5963 17.2256 42.1547 16.5143C42.087 15.6363 42.1808 14.7535 42.4316 13.9092C43.0718 12.3101 42.9911 10.5125 42.2102 8.97683C40.9814 7.7499 39.2882 7.10477 37.5548 7.20337C36.6888 7.21207 35.8302 7.04245 35.0328 6.70468C34.4635 6.04845 34.0301 5.28539 33.7585 4.46002C33.0935 2.90836 32.345 1.1349 30.6272 0.58069C28.946 0.298489 27.2258 0.764321 25.9162 1.85549C25.1846 2.37641 24.3554 2.74415 23.4778 2.936C22.6003 2.74415 21.771 2.37642 21.0394 1.85549C19.7284 0.767252 18.0096 0.301854 16.3284 0.58069C14.6105 1.13496 13.862 2.90836 13.1972 4.46002C12.9256 5.28538 12.4921 6.04841 11.9229 6.70468C11.1255 7.04246 10.2668 7.21208 9.40085 7.20337C7.66747 7.10479 5.97429 7.7499 4.74539 8.97683C3.96449 10.5125 3.8838 12.3101 4.52407 13.9092C4.77486 14.7534 4.86861 15.6362 4.80096 16.5143C4.35929 17.2256 3.78522 17.8466 3.11063 18.3428C1.616 19.2875 0.604576 20.8344 0.339844 22.5826C0.60465 24.331 1.616 25.8778 3.11063 26.8224C3.78522 27.3187 4.35932 27.9396 4.80096 28.6509C4.86861 29.529 4.77486 30.4118 4.52407 31.2561C3.88378 32.8551 3.96449 34.6527 4.74539 36.1884C5.92641 37.4008 7.57184 38.0469 9.26267 37.9619L1.91906 47.5497C1.59095 48.001 1.56147 48.6036 1.84416 49.0849C2.12686 49.5657 2.66758 49.8334 3.22188 49.7667L9.59526 48.9075L10.4544 55.3083C10.5371 55.8587 10.9406 56.3062 11.4794 56.4444C11.5968 56.4768 11.7181 56.4952 11.8399 56.5C12.2753 56.4971 12.6845 56.2922 12.9479 55.9457L23.3948 42.2563C23.4441 42.2196 23.5118 42.2196 23.5611 42.2563L34.008 55.9457C34.2713 56.2922 34.6806 56.4971 35.116 56.5C35.2378 56.4952 35.3591 56.4768 35.4765 56.4444C36.0153 56.3062 36.4193 55.8587 36.5019 55.3083L37.3611 48.9075L43.7345 49.7667C44.2888 49.8334 44.829 49.5657 45.1117 49.0849C45.3944 48.6036 45.3649 48.001 45.0368 47.5497L37.693 37.9619ZM12.7537 51.6228L12.1719 47.1617C12.052 46.404 11.3542 45.8768 10.5926 45.9696L6.15896 46.5794L12.1722 38.7095C12.597 39.3286 12.9415 39.9993 13.1972 40.7048C13.8621 42.2565 14.6106 44.0299 16.3284 44.5841C16.8933 44.7634 17.4949 44.7924 18.0743 44.6673L12.7537 51.6228ZM23.4776 39.458C23.1407 39.4628 22.8059 39.5097 22.4807 39.5962C22.4531 39.5962 22.4531 39.5962 22.4251 39.6237C22.3091 39.6247 22.1951 39.6537 22.0926 39.7073C22.0651 39.7073 22.0371 39.7349 21.982 39.7349C21.16 40.0538 20.3705 40.453 19.6262 40.9265C18.7951 41.4252 17.631 42.1182 17.1878 41.9519C16.6611 41.7857 16.1349 40.5385 15.7469 39.5967C15.3294 38.3041 14.5731 37.1457 13.5579 36.2435C13.2245 35.9937 12.849 35.8057 12.4494 35.6892C12.3025 35.6143 12.1425 35.567 11.9782 35.5505C11.2147 35.3611 10.4357 35.2403 9.65058 35.1905C8.65319 35.1074 7.29533 34.9687 6.99039 34.5531C6.68545 34.1376 6.99039 32.8352 7.2122 31.8654C7.64179 30.5505 7.71863 29.1453 7.434 27.7917C6.87297 26.5657 6.00407 25.506 4.91249 24.716C4.10887 24.023 3.11144 23.1362 3.11144 22.5825C3.11144 22.0283 4.10882 21.1416 4.91249 20.421C6.00894 19.6473 6.87918 18.5948 7.434 17.3722C7.71863 16.0188 7.64179 14.614 7.2122 13.2991C6.99039 12.3292 6.68548 11.0269 6.99039 10.6113C7.2953 10.1956 8.65313 10.057 9.65058 9.97392C11.024 9.9773 12.3726 9.61391 13.558 8.92048C14.5732 8.01828 15.3295 6.86051 15.747 5.56777C16.135 4.62547 16.6612 3.37878 17.1879 3.21252C17.2295 3.18739 17.2783 3.17724 17.3266 3.18449C18.15 3.39469 18.929 3.75131 19.6263 4.23744C20.7595 5.05652 22.0875 5.56296 23.4782 5.70646C24.8689 5.56294 26.1969 5.05652 27.33 4.23744C28.1612 3.73876 29.3253 3.07383 29.7684 3.21203C30.2951 3.37826 30.8214 4.6255 31.2093 5.56728C31.6269 6.8599 32.3831 8.01828 33.3983 8.92047C34.5837 9.61391 35.9324 9.9773 37.3057 9.97391C38.3031 10.057 39.661 10.1957 39.9659 10.6113C40.2709 11.0269 39.9659 12.3292 39.7441 13.2991C39.3145 14.6139 39.2377 16.0186 39.5223 17.3722C40.0771 18.5948 40.9474 19.6468 42.0438 20.4205C42.8474 21.141 43.8449 22.0277 43.8449 22.582C43.8449 23.1364 42.8475 24.023 42.0438 24.7155C40.9522 25.5056 40.0833 26.5658 39.5223 27.7917C39.2377 29.1452 39.3145 30.55 39.7441 31.8649C39.9659 32.8347 40.2708 34.137 39.9659 34.5527C39.661 34.9683 38.3032 35.1069 37.3057 35.19C36.4528 35.2403 35.6076 35.3799 34.7837 35.6061C34.7562 35.6061 34.7282 35.6336 34.7006 35.6336C34.2314 35.7511 33.7892 35.9579 33.3984 36.2435C32.3831 37.1457 31.6269 38.3034 31.2094 39.5962C30.8213 40.5385 30.2951 41.7852 29.7684 41.9514C29.3248 42.0901 28.1612 41.4247 27.33 40.926C26.5859 40.4525 25.7967 40.0538 24.9748 39.7349C24.9192 39.7349 24.8917 39.7073 24.8641 39.7073C24.7617 39.6537 24.6472 39.6252 24.5312 39.6242C24.5036 39.5967 24.5036 39.5967 24.4756 39.5967C24.1504 39.5102 23.8144 39.4628 23.4776 39.458ZM36.3629 45.97C35.6013 45.8773 34.9035 46.4035 34.7836 47.1612L34.2018 51.6223L28.8814 44.6671C29.1361 44.7237 29.3965 44.7517 29.6575 44.7503C29.9875 44.7469 30.3147 44.6908 30.6273 44.584C32.3452 44.0298 33.0938 42.2564 33.7586 40.7047C34.0142 39.9992 34.3588 39.3285 34.7835 38.7094L40.7968 46.5793L36.3629 45.97Z" fill="#1742E7" stroke="#F1F4F4" stroke-width="1.2" mask="url(#path-1-inside-1_1260_3764)"></path></svg>