<svg xmlns="http://www.w3.org/2000/svg" viewBox="0 0 70 81" fill="none"><path fill-rule="evenodd" clip-rule="evenodd" d="M5.92535 0.508467C4.8528 0.803766 3.89433 1.29883 3.03186 2.00271C2.18634 2.69271 1.19092 3.95249 0.829795 4.78949C0.127883 6.41638 0.150473 5.23663 0.150473 40.2899C0.150473 75.3431 0.127883 74.1634 0.829795 75.7902C1.18866 76.6218 2.18392 77.8894 2.98378 78.5335C3.93192 79.2969 5.20585 79.9186 6.27825 80.1411C6.91932 80.2743 11.8253 80.3119 23.9471 80.2765L40.7284 80.2278L41.623 79.855C43.3905 79.1186 45.2674 77.3497 45.9363 75.7902C46.6277 74.178 46.6141 74.6573 46.6161 51.7871L46.618 29.9625H47.2634H47.9089V31.5027C47.9089 32.9231 47.9397 33.0739 48.305 33.4391C48.5608 33.695 48.8843 33.8353 49.2183 33.8353C49.663 33.8353 50.0109 33.5632 51.6944 31.8989L53.6529 29.9625L60.2608 29.9589C66.3112 29.9557 66.9233 29.9305 67.5176 29.6606C68.3461 29.2841 69.1754 28.4548 69.5518 27.6262C69.8253 27.024 69.8469 26.3573 69.8502 18.3794C69.854 9.07164 69.8739 9.30191 68.9614 8.10539C68.7278 7.79911 68.1651 7.36343 67.7112 7.13719L66.8858 6.72587H56.6855H46.4851L46.3826 6.12075C46.166 4.84226 44.8805 2.87763 43.6366 1.92429C42.778 1.26608 41.5297 0.649662 40.641 0.444889C40.1719 0.336774 34.1391 0.282717 23.3016 0.289656C10.249 0.297885 6.51932 0.344843 5.92535 0.508467ZM40.9243 3.31429C41.9008 3.75578 43.1107 4.97377 43.5545 5.96229L43.861 6.64519L42.6742 6.73281C41.735 6.8022 41.325 6.92096 40.7087 7.30195C39.8008 7.86318 39.0487 8.97079 38.9191 9.93688L38.8303 10.5986H20.7594H2.68849L2.75739 8.7026C2.81564 7.09701 2.88938 6.67069 3.23921 5.91905C3.91546 4.46579 5.21505 3.38593 6.7194 3.02673C7.06197 2.94508 14.4714 2.89312 23.705 2.90781L40.083 2.93379L40.9243 3.31429ZM19.5097 6.72587V8.0168H23.3823H27.2549V6.72587V5.43495H23.3823H19.5097V6.72587ZM66.5205 9.48683C66.7367 9.58543 66.9943 9.84297 67.0929 10.0592C67.3436 10.6098 67.3436 26.0786 67.0929 26.6292C66.9943 26.8454 66.7367 27.1029 66.5205 27.2015C66.2522 27.3237 63.9715 27.3806 59.3438 27.3806H52.5604L51.5254 28.3745L50.4906 29.3682V28.7705C50.4906 28.3511 50.3725 28.0547 50.0945 27.7768L49.6985 27.3806H46.1489C43.891 27.3806 42.4561 27.3154 42.206 27.2015C41.9897 27.1029 41.7322 26.8454 41.6336 26.6292C41.3824 26.0775 41.3829 10.6096 41.6343 10.0579C41.7332 9.84087 41.9691 9.58817 42.1587 9.49652C42.6584 9.25447 65.9903 9.24527 66.5205 9.48683ZM44.0363 13.1805V14.4714H54.3632H64.6902V13.1805V11.8896H54.3632H44.0363V13.1805ZM38.8728 20.0876V26.9945L39.2841 27.8199C39.9857 29.2278 41.2536 29.9625 42.9823 29.9625H44.0363V46.099V62.2356H42.1H40.1637V58.4728C40.1637 55.5019 40.1094 54.5255 39.9063 53.8336C39.4629 52.324 38.6401 51.2027 37.2857 50.2619C36.8388 49.9515 35.1483 49.2965 32.6062 48.4488L28.6265 47.1216L28.5781 46.207L28.5297 45.2925L29.6445 44.1931C30.4839 43.3652 30.9307 42.7475 31.4538 41.6918L32.1485 40.2899L33.2919 40.2828C33.9208 40.2789 34.6962 40.1826 35.0147 40.0686C36.5281 39.5276 37.5819 38.0467 37.5819 36.461C37.5819 35.4904 37.2621 34.5937 36.703 33.9966C36.352 33.6219 36.3194 33.4268 36.2447 31.2534C36.1968 29.8634 36.0585 28.5207 35.9039 27.9454C35.7608 27.4129 35.3211 26.3237 34.9267 25.5249C33.6212 22.8802 31.757 21.0157 29.1106 19.7077C26.9866 18.658 25.9649 18.4302 23.3823 18.4302C20.7998 18.4302 19.778 18.658 17.6541 19.7077C15.0076 21.0157 13.1434 22.8802 11.8379 25.5249C11.4435 26.3237 11.0038 27.4129 10.8607 27.9454C10.7061 28.5207 10.5678 29.8634 10.5199 31.2534C10.4452 33.4268 10.4126 33.6219 10.0616 33.9966C9.5022 34.594 9.18223 35.4917 9.18626 36.4523C9.19045 37.4673 9.58304 38.4062 10.305 39.1282C11.1384 39.9616 11.7068 40.1805 13.2401 40.2576L14.6349 40.3278L15.3202 41.7107C15.8334 42.7465 16.2854 43.3697 17.1201 44.1931L18.235 45.2925L18.1865 46.207L18.1381 47.1216L14.1584 48.4488C11.5928 49.3044 9.92173 49.9526 9.45605 50.2731C8.41561 50.9889 7.47392 52.1262 7.05293 53.1754C6.71279 54.0229 6.68342 54.3719 6.63404 58.1611L6.58079 62.2356H4.65465H2.72835V37.708V13.1805H20.8006H38.8728V20.0876ZM44.0363 18.3442V19.6351H54.3632H64.6902V18.3442V17.0533H54.3632H44.0363V18.3442ZM26.5638 21.4861C29.6771 22.4695 32.2545 25.0955 33.2205 28.2681C33.4096 28.8896 33.608 30.1055 33.6612 30.971L33.758 32.5443H33.0882H32.4184V31.6496C32.4184 30.9145 32.3476 30.6838 32.0223 30.3586C31.6791 30.0153 31.4791 29.9625 30.5236 29.9625C29.0283 29.9625 28.119 29.51 27.618 28.5163C27.4182 28.1203 27.2549 27.5906 27.2549 27.3392C27.2549 26.7184 26.6053 26.0897 25.9641 26.0897C25.3228 26.0897 24.6732 26.7184 24.6732 27.3392C24.6732 27.5906 24.5099 28.1203 24.3101 28.5163C24.0448 29.0424 23.7531 29.3341 23.2271 29.5994C22.5432 29.9443 22.3227 29.9625 18.8228 29.9625H15.1383L14.7423 30.3586C14.417 30.6838 14.3462 30.9145 14.3462 31.6496V32.5443H13.6764H13.0066L13.1026 30.9675C13.2743 28.1507 14.2802 25.8177 16.1134 23.9842C17.6055 22.4921 19.5734 21.4753 21.7295 21.0821C22.9712 20.8558 25.1432 21.0372 26.5638 21.4861ZM44.0363 23.5079V24.7988H51.7815H59.5267V23.5079V22.2169H51.7815H44.0363V23.5079ZM62.1085 23.5079V24.7988H63.3994H64.6902V23.5079V22.2169H63.3994H62.1085V23.5079ZM26.6957 31.4913C27.4258 32.0486 28.7349 32.5443 29.4768 32.5443H29.8654L29.8033 35.812C29.7497 38.6383 29.6966 39.1906 29.4107 39.9016C28.6723 41.737 27.4227 42.9973 25.6413 43.7026C24.4833 44.1612 22.5236 44.2014 21.3413 43.7907C19.5253 43.1599 18.0957 41.7906 17.3917 40.0078C17.063 39.1756 17.0186 38.7419 16.9622 35.812L16.8992 32.5443H19.8695C23.2534 32.5443 24.0794 32.3828 25.1905 31.5037C25.5716 31.2023 25.901 30.95 25.9223 30.9431C25.9437 30.9363 26.2918 31.1829 26.6957 31.4913ZM14.3462 36.4171V37.708H13.6277C12.6861 37.708 12.1532 37.4502 11.9171 36.8802C11.7688 36.5221 11.769 36.3117 11.9177 35.9525C12.0236 35.6971 12.2684 35.4115 12.4617 35.318C12.6552 35.2244 13.1583 35.1431 13.5797 35.1371L14.3462 35.1262V36.4171ZM34.2555 35.3085C34.4756 35.4087 34.742 35.6992 34.8475 35.954C34.9956 36.3117 34.9956 36.5225 34.8475 36.8802C34.6114 37.4502 34.0785 37.708 33.1369 37.708H32.4184V36.4171V35.1262H33.1369C33.5321 35.1262 34.0356 35.2081 34.2555 35.3085ZM23.3823 46.6638C24.1367 46.6638 25.0262 46.606 25.359 46.5355C25.9624 46.4075 25.9641 46.4085 25.9641 46.9426C25.9641 47.3975 25.7696 47.6714 24.6732 48.7615L23.3823 50.0449L22.0914 48.7615C20.995 47.6714 20.8006 47.3975 20.8006 46.9426C20.8006 46.4085 20.8022 46.4075 21.4057 46.5355C21.7385 46.606 22.628 46.6638 23.3823 46.6638ZM23.3823 53.1991C23.8469 53.1991 24.163 52.958 25.7877 51.3636C27.5536 49.6308 27.6832 49.5366 28.1021 49.6826L28.5458 49.8374V51.5948C28.5458 53.3484 28.5448 53.3527 28.1021 53.583C27.3811 53.9578 26.4777 54.9667 26.1912 55.7166C26.0102 56.1906 25.9468 56.7244 25.9941 57.3765C26.0854 58.64 26.7331 59.7091 27.8113 60.3757C28.5105 60.8078 28.7431 60.8639 29.8367 60.8639C30.9302 60.8639 31.1629 60.8078 31.862 60.3757C33.2402 59.5235 33.9536 57.8598 33.6452 56.2166C33.491 55.3938 32.6948 54.3043 31.8641 53.7794L31.1275 53.3137V52.0461C31.1275 51.349 31.1855 50.7786 31.2561 50.7786C31.4993 50.7786 35.0862 52.0223 35.5673 52.2735C36.1653 52.5856 36.8058 53.2651 37.2005 54.0059C37.4648 54.5023 37.5074 55.0349 37.5521 58.4031L37.603 62.2356H23.3823H9.16157L9.21256 58.4031C9.25726 55.0349 9.29986 54.5023 9.56416 54.0059C9.95885 53.2651 10.5993 52.5856 11.1973 52.2735C11.6785 52.0223 15.2653 50.7786 15.5085 50.7786C15.5791 50.7786 15.6371 51.3879 15.6371 52.1328C15.6371 53.4021 15.6143 53.4926 15.274 53.5788C14.8214 53.6935 13.7672 54.7062 13.4135 55.3661C13.2241 55.7196 13.1299 56.4048 13.0847 57.7577L13.0213 59.6537H14.3293H15.6371V58.2897C15.6371 57.5395 15.719 56.7456 15.8194 56.5256C15.9196 56.3055 16.2101 56.0391 16.4648 55.9336C16.8226 55.7855 17.0333 55.7855 17.391 55.9336C17.6458 56.0391 17.9363 56.3055 18.0365 56.5256C18.1368 56.7456 18.2188 57.5395 18.2188 58.2897V59.6537H19.5266H20.8346L20.7712 57.7577C20.7262 56.4075 20.6316 55.7195 20.4432 55.3677C20.1006 54.7285 19.2481 53.8986 18.6722 53.6437L18.2188 53.4431V51.6401V49.8374L18.6626 49.6826C19.0814 49.5366 19.211 49.6308 20.9769 51.3636C22.6017 52.958 22.9178 53.1991 23.3823 53.1991ZM30.3829 55.9633C30.603 56.0635 30.8694 56.3539 30.9749 56.6087C31.1235 56.9676 31.1229 57.1776 30.972 57.5421C30.8644 57.8019 30.5667 58.0996 30.3069 58.2072C29.9396 58.3592 29.7337 58.3592 29.3665 58.2072C29.1067 58.0996 28.809 57.8019 28.7013 57.5421C28.5502 57.1771 28.5497 56.9679 28.6991 56.6073C28.8803 56.1698 29.3526 55.8164 29.7887 55.7919C29.8956 55.7858 30.1629 55.8629 30.3829 55.9633ZM44.0074 69.2953C43.9559 73.739 43.9524 73.78 43.534 74.6607C42.9978 75.7896 42.0993 76.6881 40.9704 77.2243L40.083 77.6459H23.3823H6.68164L5.79417 77.2243C4.6653 76.6881 3.76685 75.7896 3.23066 74.6607C2.81225 73.78 2.8087 73.739 2.75723 69.2953L2.70559 64.8174H23.3823H44.059L44.0074 69.2953ZM19.0527 67.8193C17.7004 68.4933 16.9279 69.7644 16.9279 71.3159C16.9279 72.3903 17.5208 73.6523 18.3074 74.2524C19.405 75.0896 19.724 75.1451 23.4175 75.1412C26.3939 75.1382 26.938 75.0985 27.5005 74.8429C28.3291 74.4664 29.1583 73.6371 29.5348 72.8085C29.6985 72.4479 29.8312 71.781 29.8331 71.3072C29.8394 69.7881 29.04 68.4812 27.6941 67.8106C26.8862 67.4078 26.7957 67.3992 23.3823 67.3992C19.9499 67.3992 19.8828 67.4057 19.0527 67.8193ZM26.5103 70.1634C26.7303 70.2636 26.9968 70.5541 27.1023 70.8089C27.2504 71.1666 27.2504 71.3774 27.1023 71.7351C26.9968 71.9899 26.7303 72.2804 26.5103 72.3806C26.2634 72.4932 25.0661 72.5629 23.3823 72.5629C21.6985 72.5629 20.5012 72.4932 20.2544 72.3806C20.0343 72.2804 19.7679 71.9899 19.6623 71.7351C19.514 71.3771 19.5142 71.1666 19.663 70.8074C19.7688 70.552 20.0136 70.2664 20.2069 70.173C20.6955 69.9367 25.9952 69.9286 26.5103 70.1634Z" fill="#4B7EEF"></path></svg>