<svg xmlns="http://www.w3.org/2000/svg" viewBox="0 0 55 57" fill="none"><path d="M20.3332 15.8525C19.9972 15.8525 19.7172 15.5725 19.7172 15.2365V14.0045C19.7172 12.4925 18.4852 11.3165 17.0292 11.3165C15.5172 11.3165 14.3412 12.5485 14.3412 14.0045V15.2365C14.3412 15.5725 14.0612 15.8525 13.7252 15.8525C13.3892 15.8525 13.1092 15.5725 13.1092 15.2365V14.0045C13.1092 11.8205 14.9012 10.0285 17.0852 10.0285C19.2692 10.0285 21.0612 11.8205 21.0612 14.0045V15.2365C21.0052 15.5725 20.7252 15.8525 20.3332 15.8525Z" fill="#1742E7"></path><path d="M22.6292 26.1565H11.3732C11.0372 26.1565 10.7572 25.8765 10.7572 25.5405V15.2365C10.7572 14.9005 11.0372 14.6205 11.3732 14.6205H22.6292C22.9652 14.6205 23.2452 14.9005 23.2452 15.2365V25.5405C23.3012 25.8765 23.0212 26.1565 22.6292 26.1565ZM12.0452 24.8685H22.0132V15.8525H12.0452V24.8685Z" fill="#1742E7"></path><path d="M18.9332 21.4525C18.5972 21.4525 18.3172 21.1725 18.3172 20.8365C18.3172 20.1645 17.7572 19.5485 17.0292 19.5485C16.3572 19.5485 15.7412 20.1085 15.7412 20.8365C15.7412 21.1725 15.4612 21.4525 15.1252 21.4525C14.7892 21.4525 14.5092 21.1725 14.5092 20.8365C14.5092 19.4365 15.6292 18.3165 17.0292 18.3165C18.4292 18.3165 19.5492 19.4365 19.5492 20.8365C19.5492 21.1725 19.2692 21.4525 18.9332 21.4525Z" fill="#1742E7"></path><path d="M17.0292 35.4525C16.8612 35.4525 13.4452 35.2845 10.0292 31.8125C5.54919 27.2765 3.30919 19.4365 3.30919 8.57251V8.06851L17.0292 4.87651L17.1972 4.93251L30.7492 8.06851V8.57251C30.7492 19.4365 28.5092 27.2765 24.0292 31.8125C20.6132 35.2845 17.1972 35.4525 17.0292 35.4525ZM4.59719 9.07651C4.70919 21.7885 8.06919 27.9485 10.8692 30.8605C13.7812 33.8845 16.7492 34.1645 17.0292 34.1645C17.3092 34.1645 20.2772 33.8845 23.1892 30.8605C25.9892 27.9485 29.3492 21.7885 29.4612 9.07651L17.0292 6.22051L4.59719 9.07651Z" fill="#1742E7"></path><path d="M25.7652 3.98051C25.7092 3.98051 25.6532 3.98051 25.5972 3.98051L17.0292 1.96451L8.40519 3.98051C8.06919 4.03651 7.73319 3.81251 7.62119 3.47651C7.56519 3.14051 7.73319 2.80451 8.06919 2.69251L17.0292 0.676514L25.9332 2.74851C26.2692 2.80451 26.4932 3.14051 26.3812 3.53251C26.3252 3.81251 26.0452 3.98051 25.7652 3.98051Z" fill="#1742E7"></path><path d="M39.7652 51.3005C39.7092 51.3005 39.6532 51.3005 39.5972 51.3005C35.3972 50.1805 31.0292 49.7325 26.6612 49.9565C25.6532 50.0125 24.6452 50.1245 23.6932 50.1805C21.7892 50.3485 19.8292 50.5165 17.8692 50.4605C14.5092 50.3485 11.1492 49.0045 9.07719 47.1005L0.733187 39.2045C0.341187 38.8125 0.117188 38.3085 0.117188 37.7485C0.117188 37.1885 0.285188 36.6845 0.677188 36.2925C1.62919 35.2845 2.97319 34.7245 4.37319 34.6685C5.77319 34.6685 7.11719 35.1725 8.12519 36.1245L11.4292 39.2045C11.7092 39.4285 11.7092 39.8205 11.4292 40.1005C11.2052 40.3805 10.8132 40.3805 10.5332 40.1005L7.22919 37.0765C5.66119 35.5645 3.08519 35.5645 1.57319 37.1885C1.40519 37.3565 1.34919 37.5245 1.34919 37.7485C1.34919 37.9725 1.46119 38.1405 1.57319 38.3085L9.91719 46.1485C11.7652 47.8845 14.8452 49.0605 17.8692 49.1725C19.7732 49.2285 21.6772 49.0605 23.5252 48.8925C24.5332 48.7805 25.5412 48.7245 26.5492 48.6685C31.0292 48.3885 35.5652 48.8925 39.8772 50.0125C40.2132 50.1245 40.4372 50.4605 40.3252 50.7965C40.2692 51.0765 40.0452 51.3005 39.7652 51.3005Z" fill="#1742E7"></path><path d="M16.5252 44.1325C14.7332 44.1325 13.2212 42.6765 13.2212 40.8845C13.2212 39.9885 13.5572 39.2045 14.1732 38.5885C14.7892 37.9725 15.6292 37.6365 16.4692 37.6365H18.9892C21.2292 37.6365 23.4132 37.1885 25.4292 36.2925L25.8212 36.1245C27.1652 35.5085 28.6212 34.9485 30.1332 34.5565C34.2772 33.4925 40.8292 34.3325 45.5332 40.0445C45.7572 40.3245 45.7012 40.7165 45.4212 40.9405C45.1412 41.1645 44.7492 41.1085 44.5252 40.8285C40.4932 35.9005 34.5012 34.7245 30.4132 35.7325C29.0132 36.0685 27.7252 36.6285 26.3252 37.2445L25.9332 37.4125C23.6932 38.3645 21.3972 38.8685 18.9892 38.8685H16.4692C15.9092 38.8685 15.4052 39.0925 15.0692 39.4845C14.6772 39.8765 14.5092 40.3805 14.5092 40.8845C14.5092 42.0045 15.4052 42.9005 16.5252 42.9005H19.3812C21.0052 42.9005 22.6852 42.7325 24.3092 42.3965L29.5732 41.2765C29.9092 41.2205 30.2452 41.4445 30.3012 41.7805C30.3572 42.1165 30.1332 42.4525 29.7972 42.5085L24.5332 43.6285C22.8532 44.0205 21.1172 44.1885 19.3252 44.1885L16.5252 44.1325Z" fill="#1742E7"></path><path d="M53.8212 56.6765H40.3812C39.5412 56.6765 38.7572 56.2285 38.3092 55.5005C37.8612 54.7725 37.8612 53.8765 38.2532 53.1485L46.3732 37.5805C46.7652 36.7965 47.6052 36.2925 48.5012 36.2925H53.8212C54.1572 36.2925 54.4372 36.5725 54.4372 36.9085C54.4372 37.2445 54.1572 37.5245 53.8212 37.5245H48.5012C48.0532 37.5245 47.6612 37.7485 47.4932 38.1405L39.3732 53.7645C39.2052 54.1005 39.2052 54.5485 39.4292 54.8845C39.6532 55.2205 39.9892 55.4445 40.3812 55.4445H53.8212C54.1572 55.4445 54.4372 55.7245 54.4372 56.0605C54.4372 56.3965 54.1572 56.6765 53.8212 56.6765Z" fill="#1742E7"></path></svg>