<svg xmlns="http://www.w3.org/2000/svg" viewBox="0 0 57 43" fill="none"><path d="M10.2814 0.500451C8.20207 0.500451 6.55341 2.27637 6.55341 4.38499V20.6346H4.52196C2.54569 20.6346 0.929688 22.2571 0.929688 24.2347V39.0454C0.929688 41.0231 2.54569 42.6455 4.52196 42.6455H13.3814C15.3577 42.6455 16.9737 41.0231 16.9737 39.0454V34.8683H25.2543V40.7123L22.2409 40.7128C21.7082 40.7145 21.2775 41.1468 21.2775 41.6792C21.2775 42.2119 21.7081 42.6443 22.2409 42.6456H41.2346C41.4915 42.6464 41.738 42.5451 41.9199 42.3637C42.1018 42.1822 42.204 41.9361 42.204 41.6792C42.204 41.4223 42.1018 41.1761 41.9199 40.9947C41.738 40.8136 41.4915 40.7119 41.2346 40.7128H38.2191V34.8687H53.194C55.2733 34.8687 56.9297 33.0872 56.9297 30.9781V4.38453C56.9297 2.27592 55.2736 0.5 53.194 0.5L10.2814 0.500451ZM10.2814 2.43328H53.1934C54.1788 2.43328 54.9964 3.25787 54.9964 4.3851V25.6324H16.9738V24.2349C16.9738 22.2573 15.3578 20.6349 13.3815 20.6349H8.47639V4.38521C8.47639 3.25802 9.29579 2.43339 10.2811 2.43339L10.2814 2.43328ZM4.52241 22.5605H13.3819C14.3194 22.5605 15.0414 23.2916 15.0414 24.2351V39.0459C15.0414 39.9894 14.3194 40.7131 13.3819 40.7131H4.52196C3.58446 40.7131 2.86072 39.9898 2.86072 39.0459V24.2351C2.86072 23.2916 3.58486 22.5605 4.52196 22.5605H4.52241ZM16.9737 27.5636H54.9963V30.9788C54.9963 32.106 54.1787 32.9383 53.1933 32.9383H16.9737V27.5636ZM27.1871 34.8694H36.2876V40.7134H27.1867L27.1871 34.8694ZM8.9511 36.825C8.26964 36.825 7.71701 37.3776 7.71701 38.0592C7.71701 38.7411 8.26959 39.2937 8.9511 39.2937C9.633 39.2937 10.1856 38.7411 10.1856 38.0592C10.1856 37.3777 9.63306 36.825 8.9511 36.825Z" fill="#1742E7"></path></svg>