<svg xmlns="http://www.w3.org/2000/svg" viewBox="0 0 57 57" fill="none"><path d="M28.3602 0.66544C26.2101 0.720505 24.4663 2.4997 24.4663 4.66274C24.4663 6.55894 25.8069 8.1594 27.5862 8.56262V14.8311L19.6838 18.6507L14.1838 13.1495L16.1487 13.1956C16.3799 13.2002 16.6034 13.1131 16.7706 12.9533C16.9377 12.7935 17.0348 12.5741 17.0406 12.3429C17.0452 12.1117 16.9581 11.888 16.7983 11.7209C16.6386 11.5537 16.4191 11.4566 16.188 11.4508L12.0412 11.3482H12.0154C12.004 11.3491 11.9926 11.3502 11.9812 11.3515C11.9556 11.3522 11.9299 11.3539 11.9044 11.3568C11.8832 11.36 11.8621 11.364 11.8412 11.3687C11.8205 11.3725 11.8 11.377 11.7797 11.3823C11.7595 11.3879 11.7395 11.3942 11.7198 11.4011C11.7013 11.4085 11.6831 11.4164 11.6651 11.425C11.6419 11.4348 11.6191 11.4456 11.5968 11.4574C11.587 11.4629 11.5773 11.4686 11.5677 11.4746C11.5431 11.4888 11.5191 11.5042 11.496 11.5207C11.4837 11.5301 11.4718 11.5398 11.4601 11.5498C11.44 11.5655 11.4206 11.582 11.402 11.5994C11.3859 11.6164 11.3705 11.6358 11.3559 11.6541C11.3441 11.6674 11.3327 11.6811 11.3217 11.6951C11.3097 11.7118 11.2983 11.7289 11.2875 11.7463C11.2755 11.7641 11.2641 11.7824 11.2534 11.801C11.2417 11.8222 11.2309 11.8439 11.221 11.866C11.2135 11.8834 11.2067 11.9011 11.2005 11.919C11.1929 11.9392 11.186 11.9597 11.18 11.9805C11.1717 12.0086 11.1649 12.0371 11.1595 12.0659C11.1582 12.0739 11.1571 12.0818 11.1561 12.0898C11.1504 12.126 11.147 12.1625 11.1459 12.1991C11.1452 12.2083 11.1446 12.2174 11.1442 12.2266V12.2401L11.2467 16.3929C11.2496 16.508 11.2751 16.6214 11.3219 16.7266C11.3687 16.8317 11.4357 16.9266 11.5192 17.0059C11.6027 17.0851 11.701 17.147 11.8084 17.1882C11.9159 17.2294 12.0304 17.2489 12.1455 17.2457C12.2605 17.2428 12.3738 17.2173 12.479 17.1705C12.5841 17.1238 12.679 17.0567 12.7582 16.9732C12.8374 16.8897 12.8994 16.7914 12.9405 16.6839C12.9817 16.5764 13.0012 16.4619 12.9981 16.3468L12.9502 14.3883L18.0163 19.4571L15.6447 20.6022C15.5571 20.6373 15.4757 20.6863 15.4038 20.7474C15.2365 20.8892 15.1286 21.0887 15.1013 21.3063L15.0996 21.3149C15.0942 21.3488 15.0908 21.3831 15.0894 21.4174V27.7936H8.36769C7.96667 26.0112 6.36473 24.6662 4.46691 24.6662C2.27 24.6662 0.46875 26.4678 0.46875 28.6652C0.46875 30.8626 2.27 32.6625 4.46691 32.6625C6.36227 32.6625 7.96238 31.3226 8.36598 29.5436H15.0894V35.9181C15.0908 36.044 15.1193 36.1682 15.1731 36.2821C15.1806 36.2971 15.1886 36.312 15.1969 36.3266C15.2182 36.3677 15.2428 36.4072 15.2704 36.4445C15.2814 36.4585 15.2928 36.4722 15.3046 36.4855C15.3315 36.5166 15.3606 36.5457 15.3917 36.5726C15.4109 36.5895 15.4309 36.6054 15.4515 36.6205C15.4773 36.639 15.5041 36.6561 15.5318 36.6718C15.5496 36.6838 15.5679 36.6952 15.5865 36.706L18.011 37.8783L12.9501 42.9471L12.998 40.9818C13.0021 40.7509 12.9148 40.5277 12.7551 40.3609C12.5954 40.1941 12.3762 40.0972 12.1454 40.0914C12.0304 40.0882 11.9158 40.1077 11.8084 40.1489C11.7009 40.1901 11.6026 40.252 11.5191 40.3313C11.4356 40.4105 11.3686 40.5054 11.3218 40.6106C11.2751 40.7157 11.2495 40.8291 11.2467 40.9442L11.1441 45.0901C11.1409 45.2089 11.1618 45.3272 11.2057 45.4376C11.2496 45.548 11.3155 45.6483 11.3995 45.7325C11.4834 45.8166 11.5836 45.8827 11.6939 45.9268C11.8042 45.9709 11.9224 45.9921 12.0412 45.9891L16.188 45.8848C16.3029 45.8819 16.4161 45.8564 16.5211 45.8098C16.6261 45.7631 16.721 45.6962 16.8001 45.6129C16.8793 45.5296 16.9413 45.4315 16.9826 45.3242C17.0238 45.2169 17.0435 45.1025 17.0406 44.9876C17.0347 44.7564 16.9377 44.537 16.7705 44.3772C16.6034 44.2174 16.3798 44.1302 16.1487 44.1348L14.1855 44.181L19.6838 38.6866L27.5862 42.5045V48.7662C25.8069 49.1693 24.4662 50.7715 24.4662 52.6677C24.4662 54.8651 26.2675 56.665 28.4644 56.665C30.6613 56.665 32.4608 54.8651 32.4608 52.6677C32.4608 50.7698 31.1175 49.1675 29.3358 48.7662V42.5079L37.2433 38.6866L42.7365 44.181L40.7784 44.1348C40.6635 44.1319 40.5491 44.1516 40.4419 44.1929C40.3346 44.2341 40.2365 44.2961 40.1532 44.3753C40.0699 44.4545 40.003 44.5494 39.9564 44.6544C39.9097 44.7595 39.8842 44.8727 39.8814 44.9876C39.8784 45.1025 39.8981 45.2169 39.9394 45.3242C39.9806 45.4315 40.0426 45.5296 40.1218 45.6129C40.201 45.6962 40.2958 45.7631 40.4008 45.8098C40.5059 45.8564 40.6191 45.8819 40.734 45.8848L44.8859 45.9891C44.9385 45.9898 44.9912 45.9859 45.0431 45.9772C45.0865 45.9701 45.1294 45.9599 45.1712 45.9464L45.1762 45.9447L45.1815 45.943C45.222 45.9294 45.2614 45.9128 45.2994 45.8934L45.3044 45.8901C45.3381 45.8729 45.3706 45.8535 45.4018 45.832L45.4087 45.8267C45.4191 45.8195 45.4294 45.8122 45.4395 45.8046L45.4428 45.8012C45.4653 45.7835 45.487 45.7647 45.5077 45.7449C45.5182 45.7349 45.5285 45.7246 45.5385 45.7141C45.617 45.6311 45.6785 45.5336 45.7196 45.427C45.7706 45.2961 45.7894 45.1548 45.7743 45.0151L45.6735 40.9443C45.6676 40.7131 45.5706 40.4937 45.4034 40.3339C45.2363 40.1741 45.0127 40.087 44.7816 40.0915C44.551 40.0978 44.3323 40.1949 44.173 40.3616C44.0136 40.5284 43.9265 40.7513 43.9307 40.9819L43.9768 42.949L38.9107 37.8801L41.3404 36.7061C41.4988 36.6293 41.6303 36.5064 41.7178 36.3537C41.8052 36.2009 41.8446 36.0254 41.8308 35.8499V29.5437H48.561C48.9646 31.3228 50.5647 32.6626 52.4601 32.6626C54.657 32.6626 56.4583 30.8627 56.4583 28.6653C56.4583 26.468 54.657 24.6663 52.4601 24.6663C50.5624 24.6663 48.9621 26.0114 48.561 27.7938H41.8308V21.4945C41.8355 21.4306 41.8331 21.3664 41.8238 21.303C41.8216 21.2842 41.8187 21.2654 41.8152 21.2467C41.8113 21.2283 41.8068 21.21 41.8017 21.192C41.7976 21.1753 41.7931 21.1588 41.7881 21.1424L41.7864 21.1371C41.7802 21.1192 41.7733 21.0998 41.7659 21.0824C41.7585 21.0651 41.7506 21.048 41.7421 21.0311C41.7256 20.9963 41.7067 20.9626 41.6857 20.9303C41.6749 20.914 41.6635 20.898 41.6515 20.8825L41.6446 20.8722C41.6352 20.8612 41.6255 20.8503 41.6155 20.8398C41.6002 20.8221 41.5843 20.805 41.5677 20.7885C41.5571 20.7786 41.5463 20.7689 41.5353 20.7594C41.5092 20.7362 41.4819 20.7145 41.4533 20.6945L41.4447 20.6895C41.4113 20.6672 41.3765 20.6472 41.3404 20.6297L41.2994 20.6092L41.2941 20.6075L38.9072 19.4539L43.9767 14.3868L43.9288 16.347C43.9257 16.462 43.9452 16.5766 43.9863 16.6841C44.0275 16.7916 44.0895 16.8899 44.1687 16.9734C44.2479 17.0569 44.3428 17.124 44.4479 17.1707C44.5531 17.2175 44.6664 17.243 44.7814 17.2459C45.0126 17.2505 45.2362 17.1634 45.4033 17.0036C45.5704 16.8438 45.6675 16.6243 45.6733 16.3931L45.7724 12.3497C45.7929 12.214 45.7811 12.0753 45.738 11.945C45.695 11.8147 45.6219 11.6963 45.5247 11.5995C45.4474 11.5249 45.357 11.4652 45.2581 11.4234C45.2451 11.418 45.232 11.413 45.2188 11.4082C45.1925 11.3978 45.1657 11.3886 45.1385 11.3807C45.1109 11.3731 45.083 11.3668 45.0548 11.3619C45.0462 11.36 45.0376 11.3582 45.029 11.3566C44.9814 11.3498 44.9334 11.3469 44.8854 11.348L40.7335 11.4506C40.5024 11.4564 40.2829 11.5535 40.1232 11.7207C39.9634 11.8878 39.8763 12.1114 39.8809 12.3426C39.8838 12.4576 39.9093 12.5708 39.9559 12.6758C40.0026 12.7809 40.0694 12.8757 40.1527 12.9549C40.2361 13.0341 40.3341 13.0961 40.4414 13.1374C40.5487 13.1787 40.663 13.1984 40.7779 13.1954L42.736 13.1493L37.2445 18.6488L29.3353 14.8275V8.56428C31.1172 8.16301 32.4604 6.56074 32.4604 4.66269C32.4604 2.46531 30.6608 0.665391 28.4639 0.665391C28.4296 0.665391 28.3943 0.664567 28.3602 0.66544ZM28.4644 2.41543C29.7158 2.41543 30.7112 3.41113 30.7112 4.66274C30.7112 5.91435 29.7158 6.91004 28.4644 6.91004C27.2131 6.91004 26.2159 5.91435 26.2159 4.66274C26.2159 3.41113 27.2131 2.41543 28.4644 2.41543ZM28.4644 16.347L38.9502 21.4175L28.4644 26.4881L17.9701 21.4175L28.4644 16.347ZM16.839 22.8104L27.5862 28.0039V40.5581L16.839 35.3696V22.8104ZM40.0813 22.8137V35.3712L29.3358 40.5614V28.0072L40.0813 22.8137ZM4.46689 26.4179C5.71823 26.4179 6.71372 27.4136 6.71372 28.6652C6.71372 29.9168 5.71823 30.9125 4.46689 30.9125C3.21555 30.9125 2.22006 29.9168 2.22006 28.6652C2.22006 27.4136 3.21555 26.4179 4.46689 26.4179ZM52.4602 26.4179C53.7116 26.4179 54.7088 27.4136 54.7088 28.6652C54.7088 29.9168 53.7116 30.9125 52.4602 30.9125C51.2089 30.9125 50.2134 29.9168 50.2134 28.6652C50.2134 27.4136 51.2089 26.4179 52.4602 26.4179ZM28.4644 50.4188C29.7158 50.4188 30.7112 51.4162 30.7112 52.6678C30.7112 53.9194 29.7158 54.9151 28.4644 54.9151C27.2131 54.9151 26.2159 53.9194 26.2159 52.6678C26.2159 51.4162 27.2131 50.4188 28.4644 50.4188Z" fill="#1742E7"></path></svg>