<svg xmlns="http://www.w3.org/2000/svg" viewBox="0 0 57 57" fill="none"><path d="M26.3878 0.782715H30.0306C31.2198 0.867649 32.1446 1.9718 31.7294 3.23637L31.6444 3.57611C32.3239 3.83091 32.9185 4.25558 33.5131 4.68025L33.7679 4.42545C34.6172 3.40624 36.1367 3.66104 36.7312 4.68025L38.5998 7.81339C39.1944 8.91753 38.5998 10.267 37.4107 10.5218L36.986 10.6068C37.071 11.3712 37.071 12.0507 36.986 12.7207L37.4107 12.8906C38.5998 13.1454 39.1944 14.5043 38.5998 15.599L36.7312 18.7322C36.1367 19.7514 34.6172 20.0062 33.7679 18.987L33.5131 18.7322C32.9185 19.1568 32.3239 19.5815 31.6444 19.8363L31.7294 20.176C32.1541 21.4501 31.2198 22.5448 30.0306 22.6297H26.3878C25.1137 22.5448 24.1889 21.4406 24.6041 20.176L24.689 19.8363C24.0945 19.5815 23.415 19.1568 22.9054 18.7322L22.6506 18.987C21.8012 20.0062 20.1968 19.7514 19.6023 18.7322L17.8186 15.599C17.224 14.4949 17.8186 13.1454 19.0077 12.8906L19.4324 12.7207C19.3475 12.0412 19.3475 11.3618 19.4324 10.6068L19.0077 10.5218C17.8186 10.267 17.224 8.90809 17.8186 7.81339L19.6023 4.68025C20.1968 3.66104 21.8012 3.40624 22.6506 4.42545L22.9054 4.68025C23.415 4.25558 24.0945 3.83091 24.689 3.57611L24.6041 3.23637C24.1889 1.96236 25.1232 0.867649 26.3878 0.782715ZM11.2218 25.2627C11.2218 25.6873 10.8821 26.0271 10.4574 26.0271C10.0327 26.0271 9.69294 25.6873 9.69294 25.2627V15.0989C9.69294 12.9 11.6371 11.0315 13.8454 11.0315H16.8088C17.7431 11.0315 17.7431 12.5603 16.8088 12.5603H13.8454C12.4015 12.5603 11.2218 13.7493 11.2218 15.0989V25.2627ZM10.5518 28.5751C9.78732 28.5751 9.19276 29.1696 9.19276 29.934C9.19276 30.6985 9.78732 31.3779 10.5518 31.3779C11.3162 31.3779 11.9957 30.6985 11.9957 29.934C11.9862 29.1602 11.3067 28.5751 10.5518 28.5751ZM10.5518 27.0463C12.1656 27.0463 13.4302 28.4052 13.4302 29.9246C13.4302 31.5384 12.1561 32.8029 10.5518 32.8029C8.93795 32.8029 7.67333 31.5289 7.67333 29.9246C7.66389 28.4052 8.93795 27.0463 10.5518 27.0463ZM45.7912 27.0463C47.405 27.0463 48.6696 28.4052 48.6696 29.9246C48.6696 31.5384 47.3955 32.8029 45.7912 32.8029C44.1774 32.8029 42.9128 31.5289 42.9128 29.9246C42.9128 28.4052 44.1868 27.0463 45.7912 27.0463ZM45.7912 28.5751C45.0267 28.5751 44.4322 29.1696 44.4322 29.934C44.4322 30.6985 45.0267 31.3779 45.7912 31.3779C46.5556 31.3779 47.1502 30.6985 47.1502 29.934C47.1502 29.1602 46.5556 28.5751 45.7912 28.5751ZM46.6405 25.2627C46.6405 26.2819 45.1117 26.2819 45.1117 25.2627V15.0989C45.1117 13.7399 43.9226 12.5603 42.4881 12.5603H39.6096C38.5904 12.5603 38.5904 11.0315 39.6096 11.0315H42.4881C44.7719 11.0315 46.6405 12.9 46.6405 15.0989V25.2627ZM15.3743 38.8238C13.9304 37.9745 12.2411 37.4649 10.5423 37.4649C5.62541 37.4649 1.6428 41.4474 1.6428 46.3641C1.6428 51.2809 5.62541 55.2633 10.5423 55.2633C12.9111 55.2633 15.1195 54.3291 16.6389 52.8097C18.2527 51.3658 19.2625 49.3368 19.4324 47.0436C18.8378 46.449 18.2433 45.7696 17.7337 45.0901C17.8186 45.5148 17.8186 45.9394 17.8186 46.449C17.8186 50.4315 14.6004 53.7345 10.5329 53.7345C6.55028 53.7345 3.24717 50.4315 3.24717 46.449C3.24717 42.3816 6.55028 39.1636 10.5329 39.1636C12.6469 39.1636 14.6004 40.0129 15.8745 41.4474C15.6291 40.598 15.4592 39.7581 15.3743 38.8238ZM41.5632 50.5165C41.818 49.1575 42.5824 48.2327 43.5922 47.6381C42.9128 46.9587 42.4881 46.1942 42.4881 45.1845C42.4881 43.3159 44.0169 41.8815 45.7912 41.8815C47.6598 41.8815 49.0943 43.3254 49.0943 45.1845C49.0943 46.2037 48.6696 46.9681 47.9901 47.6381C49.0093 48.2327 49.7738 49.1669 50.0191 50.5165C51.0384 49.4972 51.633 48.0628 51.633 46.449C51.633 43.146 49.0093 40.6075 45.7912 40.6075C42.573 40.6075 39.9494 43.146 39.9494 46.449C39.9494 48.0628 40.544 49.4972 41.5632 50.5165ZM48.5941 51.6206C48.5941 47.5532 42.9977 47.5532 42.9977 51.6206C43.8471 52.0453 44.7814 52.3001 45.7912 52.3001C46.8104 52.2906 47.7447 52.0453 48.5941 51.6206ZM45.7912 43.4009C44.7719 43.4009 44.0075 44.1653 44.0075 45.1845C44.0075 46.2037 44.7719 46.9681 45.7912 46.9681C46.8104 46.9681 47.5749 46.2037 47.5749 45.1845C47.5749 44.1653 46.8104 43.4009 45.7912 43.4009ZM45.7912 39.1636C49.8587 39.1636 53.0769 42.3816 53.0769 46.449C53.0769 50.4315 49.8587 53.7345 45.7912 53.7345C41.8086 53.7345 38.5055 50.4315 38.5055 46.449C38.5055 42.3816 41.8086 39.1636 45.7912 39.1636ZM45.7912 35.9455C51.5574 35.9455 56.2101 40.6075 56.2101 46.3641C56.2101 52.1302 51.548 56.7827 45.7912 56.7827C40.6194 56.7827 36.382 53.055 35.5421 48.1383C33.4281 49.6671 30.7951 50.4221 28.1715 50.4221C25.4629 50.4221 22.9148 49.5727 20.8008 48.1383C20.4611 50.3372 19.2719 52.3756 17.7525 53.9044C15.8839 55.688 13.3452 56.7827 10.5518 56.7827C4.78547 56.7827 0.132812 52.1208 0.132812 46.3641C0.132812 40.598 4.79491 35.9455 10.5518 35.9455C12.2505 35.9455 13.8549 36.3702 15.2988 37.1346C15.5536 30.1888 21.2255 24.6776 28.1809 24.6776C35.1363 24.6776 40.8082 30.1888 41.063 37.1346C42.4881 36.3702 44.1019 35.9455 45.7912 35.9455ZM35.3722 46.449C35.3722 45.4298 35.5421 44.4956 35.7969 43.5707C34.0132 45.7696 31.3047 47.2135 28.1715 47.2135C25.6328 47.2135 23.1696 46.1942 21.3104 44.4201C19.6117 42.6364 18.517 40.2677 18.517 37.5593C18.517 32.2178 22.8393 27.8956 28.1809 27.8956C33.5225 27.8956 37.8448 32.2178 37.8448 37.5593C37.8448 38.4086 37.7599 39.2579 37.59 40.0129C38.1846 39.2485 38.8641 38.569 39.6191 37.9839C39.7795 31.4534 34.7777 26.112 28.1715 26.112C21.905 26.112 16.7333 31.1986 16.7333 37.5498C16.7333 43.901 21.905 48.9876 28.1715 48.9876C30.7951 48.9876 33.3432 48.1477 35.3722 46.449ZM45.7912 37.4649C40.8743 37.4649 36.8917 41.4474 36.8917 46.3641C36.8917 51.2809 40.8743 55.2633 45.7912 55.2633C50.7081 55.2633 54.6907 51.2809 54.6907 46.3641C54.6907 41.4474 50.7081 37.4649 45.7912 37.4649ZM30.0401 38.4841L33.3432 41.7022C34.1076 42.3816 33.0884 43.4009 32.3239 42.7214L29.0208 39.5033C28.766 39.5882 28.4263 39.6732 28.1715 39.6732C26.9823 39.6732 26.0575 38.7389 26.0575 37.5593C26.0575 36.7099 26.652 35.8606 27.4165 35.6058V32.8124C27.4165 31.7932 28.9453 31.7932 28.9453 32.8124V35.6058C29.7947 35.8606 30.3043 36.7099 30.3043 37.5593C30.2854 37.8896 30.2005 38.2293 30.0401 38.4841ZM28.1715 36.9553C27.8317 36.9553 27.5769 37.2101 27.5769 37.5498C27.5769 37.8896 27.8317 38.1444 28.1715 38.1444C28.5112 38.1444 28.766 37.8896 28.766 37.5498C28.766 37.2101 28.5112 36.9553 28.1715 36.9553ZM19.9514 36.7854H21.0556C22.0749 36.7854 22.0749 38.3142 21.0556 38.3142H19.9514C20.2912 42.2967 23.5094 45.4298 27.407 45.7696V44.6654C27.407 43.6462 28.9359 43.6462 28.9359 44.6654V45.7696C32.9185 45.4298 36.0517 42.2967 36.3915 38.3142H35.2873C34.353 38.3142 34.353 36.7854 35.2873 36.7854H36.3915C36.0517 32.8879 32.9185 29.6698 28.9359 29.3301V30.4342C28.9359 31.4534 27.407 31.4534 27.407 30.4342V29.3301C23.5094 29.6698 20.3761 32.8879 19.9514 36.7854ZM13.3452 51.6206C13.3452 47.5532 7.74883 47.5532 7.74883 51.6206C8.5982 52.0453 9.53251 52.3001 10.5423 52.3001C11.5616 52.2906 12.4959 52.0453 13.3452 51.6206ZM6.39928 50.5165C6.56915 49.1575 7.41852 48.2327 8.42833 47.6381C7.66389 46.9587 7.23921 46.1942 7.23921 45.1845C7.23921 43.3159 8.76807 41.8815 10.5423 41.8815C12.4109 41.8815 13.8454 43.3254 13.8454 45.1845C13.8454 46.2037 13.4207 46.9681 12.7412 47.6381C13.7605 48.2327 14.5249 49.1669 14.7703 50.5165C15.7895 49.4972 16.3841 48.0628 16.3841 46.449C16.3841 43.146 13.7605 40.6075 10.5423 40.6075C7.32415 40.6075 4.70054 43.146 4.70054 46.449C4.70054 48.0628 5.2951 49.4972 6.39928 50.5165ZM10.5518 43.4009C9.53251 43.4009 8.76807 44.1653 8.76807 45.1845C8.76807 46.2037 9.53251 46.9681 10.5518 46.9681C11.571 46.9681 12.4204 46.2037 12.4204 45.1845C12.4109 44.1653 11.5616 43.4009 10.5518 43.4009ZM28.1715 15.3537C26.1424 15.3537 24.5286 13.7399 24.5286 11.7109C24.5286 9.68194 26.1424 8.06819 28.1715 8.06819C30.2005 8.06819 31.8143 9.68194 31.8143 11.7109C31.8143 13.7399 30.2005 15.3537 28.1715 15.3537ZM28.1715 16.8825C31.0499 16.8825 33.3432 14.5987 33.3432 11.7109C33.3432 8.8326 31.0593 6.53937 28.1715 6.53937C25.378 6.53937 22.9997 8.82316 22.9997 11.7109C22.9997 14.5893 25.378 16.8825 28.1715 16.8825ZM29.9551 2.21716H26.3972C26.1424 2.30209 25.9725 2.47196 26.0575 2.72677L26.3123 3.74598C26.4822 4.17065 26.3123 4.59532 25.8876 4.76519C24.9533 5.01999 24.019 5.5296 23.3489 6.20907C22.9242 6.46387 22.5845 6.46387 22.2447 6.20907L21.5653 5.44466C21.3104 5.18986 21.1406 5.18986 20.8858 5.44466L19.1021 8.49286C19.0171 8.8326 19.1021 9.00247 19.3569 9.0874L20.4611 9.3422C20.9707 9.42714 21.0556 10.0217 20.9707 10.2765C20.8008 11.2108 20.8008 12.23 20.9707 13.1548C21.0556 13.4096 20.9707 13.9192 20.4611 14.0891L19.3569 14.3439C19.1021 14.4288 19.0171 14.5987 19.1021 14.9384L20.8858 17.9866C21.1406 18.2414 21.3104 18.2414 21.5653 17.9866L22.2447 17.2222C22.5845 16.9674 22.9242 16.9674 23.3489 17.2222C24.0284 17.9017 24.9627 18.4113 25.8876 18.6661C26.3123 18.836 26.4822 19.2606 26.3123 19.6853L26.0575 20.7045C25.9725 20.9593 26.1424 21.1292 26.3972 21.2141H29.9551C30.2949 21.1292 30.4648 20.9593 30.3798 20.7045L30.0401 19.6853C29.8702 19.2606 30.125 18.836 30.5497 18.6661C31.484 18.4113 32.3334 17.9017 33.0884 17.2222C33.4281 16.9674 33.8528 16.9674 34.1076 17.2222L34.7777 17.9772C35.0325 18.232 35.2024 18.232 35.4572 17.9772L37.2408 14.929C37.3258 14.5893 37.3258 14.4194 36.986 14.3345L35.9668 14.0796C35.3722 13.9098 35.3722 13.4002 35.3722 13.1454C35.5421 12.2111 35.5421 11.2013 35.3722 10.267C35.3722 10.0122 35.3722 9.4177 35.9668 9.33277L36.986 9.07796C37.3258 8.99303 37.3258 8.82316 37.2408 8.48342L35.4572 5.43523C35.2024 5.18986 35.0325 5.18986 34.7777 5.44466L34.0982 6.20907C33.8434 6.46387 33.4187 6.46387 33.0789 6.20907C32.3145 5.5296 31.4651 5.01999 30.5403 4.76519C30.1156 4.59532 29.8608 4.17065 30.0306 3.74598L30.3704 2.72677C30.4553 2.47196 30.2854 2.30209 29.9551 2.21716Z" fill="#1742E7"></path></svg>