<svg xmlns="http://www.w3.org/2000/svg" viewBox="0 0 57 53" fill="none"><path d="M26.6782 0.0300293C12.2083 0.0300293 0.460938 11.8317 0.460938 26.3686C0.460938 40.9055 12.2083 52.7072 26.6782 52.7072C26.7643 52.7084 26.8499 52.6925 26.9299 52.6603C27.0098 52.6282 27.0826 52.5805 27.144 52.52C27.2054 52.4595 27.2541 52.3873 27.2874 52.3078C27.3206 52.2283 27.3378 52.143 27.3378 52.0568C27.3378 51.9706 27.3206 51.8853 27.2874 51.8058C27.2541 51.7263 27.2054 51.6542 27.144 51.5937C27.0826 51.5332 27.0098 51.4855 26.9299 51.4533C26.8499 51.4212 26.7643 51.4053 26.6782 51.4065C12.9147 51.4065 1.76164 40.2062 1.76164 26.3686C1.76164 12.5311 12.9148 1.3307 26.6782 1.3307C40.4416 1.3307 51.5744 12.5311 51.5744 26.3686C51.5744 30.6795 50.4921 34.7404 48.5868 38.2779L47.5097 32.0184C47.4975 31.9305 47.4675 31.846 47.4215 31.7701C47.3755 31.6942 47.3144 31.6285 47.2421 31.5771C47.1698 31.5257 47.0877 31.4897 47.0009 31.4712C46.9141 31.4527 46.8244 31.4522 46.7374 31.4697C46.5714 31.5041 46.4254 31.6019 46.3305 31.7424C46.2356 31.8828 46.1993 32.0548 46.2293 32.2216L47.6113 40.4118C47.6305 40.5129 47.6734 40.6081 47.7366 40.6894C47.7997 40.7707 47.8813 40.8359 47.9746 40.8796C48.0678 40.9232 48.1701 40.9441 48.273 40.9405C48.3759 40.9369 48.4765 40.9089 48.5665 40.8589L56.0455 36.7333C56.1314 36.7 56.2092 36.6489 56.2739 36.5833C56.3385 36.5177 56.3885 36.4391 56.4205 36.3527C56.4524 36.2663 56.4657 36.1742 56.4594 36.0823C56.4531 35.9904 56.4273 35.9009 56.3839 35.8197C56.3404 35.7385 56.2801 35.6675 56.2071 35.6113C56.1341 35.5552 56.05 35.5152 55.9604 35.4939C55.8708 35.4727 55.7777 35.4708 55.6872 35.4882C55.5968 35.5057 55.5111 35.5422 55.4358 35.5952L49.8469 38.664C51.7794 34.9944 52.8751 30.8089 52.8751 26.3686C52.8751 11.8317 41.1481 0.0300293 26.6782 0.0300293ZM18.9959 6.51306C18.4729 6.51306 18.0539 6.89877 17.9594 7.38694L17.5326 9.60215C16.5303 9.851 15.5586 10.2265 14.667 10.7606L12.7973 9.52085C12.3939 9.24992 11.8049 9.27562 11.4356 9.64279C11.4355 9.64957 11.4355 9.65634 11.4356 9.66311L9.93166 11.1873C9.59555 11.5356 9.50086 12.0997 9.78939 12.5287L11.0494 14.3984C10.5185 15.2887 10.1386 16.2584 9.89101 17.2639L7.67576 17.6907C7.17766 17.7861 6.82217 18.2482 6.82217 18.7272V20.8611C6.82217 21.34 7.18122 21.8007 7.67576 21.8975L9.91133 22.3243C10.1639 23.3289 10.5353 24.3024 11.0698 25.1899L9.80972 27.0596C9.51758 27.494 9.60503 28.0741 9.95198 28.4212L11.4559 29.9251C11.8031 30.2723 12.383 30.3597 12.8176 30.0674L14.7077 28.8073C15.5921 29.3368 16.551 29.7178 17.5529 29.9658L17.9797 32.181C18.086 32.7169 18.5566 33.0345 19.0366 33.0345H21.1705C21.6493 33.0345 22.1111 32.6765 22.207 32.181L22.6338 29.9454C23.6349 29.6922 24.5978 29.3198 25.4791 28.787L27.3692 30.047C27.8048 30.3409 28.3828 30.2538 28.7308 29.9048L30.2348 28.4009C30.5818 28.0537 30.6693 27.4738 30.377 27.0393L29.117 25.1492C29.6462 24.2649 30.0274 23.3057 30.2754 22.304L32.4703 21.8772C32.9992 21.7738 33.3442 21.3434 33.3442 20.8204V18.6865C33.3431 18.1654 32.9559 17.7451 32.4703 17.65L30.2551 17.2233C30.0061 16.2246 29.6285 15.2639 29.0966 14.378L30.3364 12.488C30.6082 12.0838 30.5836 11.4956 30.2144 11.1264C30.2077 11.1263 30.2009 11.1263 30.1941 11.1264L28.6902 9.62247C28.6858 9.61792 28.6744 9.62702 28.6699 9.62247C28.3217 9.28656 27.7565 9.19242 27.3285 9.48021L25.4588 10.7402C24.5683 10.209 23.5986 9.82929 22.5932 9.58182L22.1664 7.38694C22.0717 6.89894 21.6538 6.51306 21.1299 6.51306H18.9959ZM19.1788 7.81372H20.947L21.4144 10.2118C21.4398 10.3371 21.5015 10.452 21.5919 10.5424C21.6823 10.6328 21.7972 10.6945 21.9225 10.7199C23.0772 10.9533 24.1486 11.4127 25.1336 12.0612C25.2415 12.1346 25.3689 12.1739 25.4994 12.1739C25.6299 12.1739 25.7573 12.1346 25.8652 12.0612L27.8976 10.6793L29.1373 11.8986L27.7756 13.9716C27.7022 14.0795 27.663 14.2069 27.663 14.3374C27.663 14.4679 27.7022 14.5953 27.7756 14.7032C28.4273 15.6856 28.8787 16.7376 29.117 17.8939C29.1424 18.0191 29.2041 18.1341 29.2945 18.2245C29.3848 18.3148 29.4998 18.3766 29.6251 18.402L32.0435 18.8694V20.6578L29.6454 21.1253C29.5201 21.1507 29.4052 21.2124 29.3148 21.3028C29.2244 21.3931 29.1627 21.5081 29.1373 21.6333C28.9042 22.7862 28.4463 23.8358 27.7959 24.824C27.7226 24.9319 27.6833 25.0594 27.6833 25.1899C27.6833 25.3203 27.7226 25.4478 27.7959 25.5557L29.1576 27.6083L27.9382 28.8277L25.8855 27.466C25.7777 27.3926 25.6502 27.3534 25.5197 27.3534C25.3892 27.3534 25.2618 27.3926 25.1539 27.466C24.1671 28.1209 23.1132 28.5908 21.9631 28.8277C21.8379 28.8531 21.7229 28.9148 21.6326 29.0052C21.5422 29.0955 21.4805 29.2105 21.455 29.3357L20.9876 31.7339H19.1991L18.7317 29.3357C18.7063 29.2105 18.6445 29.0955 18.5542 29.0052C18.4638 28.9148 18.3489 28.8531 18.2236 28.8277C17.0702 28.5946 16.021 28.137 15.0328 27.4864C14.925 27.413 14.7975 27.3737 14.667 27.3737C14.5365 27.3737 14.4091 27.413 14.3012 27.4864L12.2485 28.848L11.0291 27.6286L12.3908 25.5963C12.4642 25.4884 12.5034 25.361 12.5034 25.2305C12.5034 25.1 12.4642 24.9726 12.3908 24.8647C11.7379 23.8805 11.2659 22.8044 11.0291 21.6537C11.0037 21.5284 10.942 21.4135 10.8516 21.3231C10.7612 21.2327 10.6463 21.171 10.521 21.1456L8.12287 20.6782V18.9101L10.521 18.4426C10.6463 18.4172 10.7612 18.3555 10.8516 18.2651C10.942 18.1748 11.0037 18.0598 11.0291 17.9346C11.2625 16.78 11.7222 15.7086 12.3705 14.7235C12.4439 14.6157 12.4831 14.4882 12.4831 14.3577C12.4831 14.2272 12.4439 14.0998 12.3705 13.9919L10.9885 11.9596L12.2079 10.7199L14.2605 12.0815C14.3684 12.1549 14.4959 12.1942 14.6264 12.1942C14.7568 12.1942 14.8843 12.1549 14.9922 12.0815C15.9709 11.4321 17.0452 10.9788 18.2033 10.7402C18.3285 10.7148 18.4435 10.6531 18.5339 10.5627C18.6242 10.4724 18.686 10.3574 18.7114 10.2322L19.1788 7.81372ZM20.073 13.4432C16.5895 13.4432 13.7525 16.3033 13.7525 19.784C13.7525 23.2646 16.5923 26.1044 20.073 26.1044C23.5538 26.1044 26.3936 23.2646 26.3936 19.784C26.3936 16.3033 23.5566 13.4432 20.073 13.4432ZM20.073 14.7439C22.8465 14.7439 25.0929 17.0078 25.0929 19.784C25.0929 22.5601 22.8493 24.8037 20.073 24.8037C17.2968 24.8037 15.0532 22.5601 15.0532 19.784C15.0532 17.0078 17.2996 14.7439 20.073 14.7439ZM32.8768 30.2503C32.8233 30.245 32.7181 30.2498 32.5516 30.3112C32.4387 30.3514 32.3391 30.4221 32.2638 30.5153C32.1885 30.6086 32.1404 30.7208 32.1248 30.8396C32.1009 30.8995 32.0151 30.9458 32.0029 31.0022C32.0012 31.01 31.9841 31.0147 31.9826 31.0226L31.698 32.4045C31.1246 32.5632 30.5695 32.8001 30.0519 33.0955L28.8731 32.3029C28.5502 32.0861 28.0173 32.0834 27.6943 32.4045L26.6782 33.4207C26.3552 33.7434 26.3584 34.2548 26.5765 34.5791L27.3692 35.7781C27.0798 36.2946 26.8719 36.8365 26.7188 37.404L25.3165 37.6885C24.9103 37.7673 24.5645 38.1678 24.5645 38.603V40.0256C24.5645 40.4608 24.8484 40.8485 25.3165 40.9402L26.7188 41.2247C26.8772 41.7902 27.0983 42.3222 27.3895 42.8302L26.5969 44.0293C26.3585 44.3839 26.3428 44.8522 26.6985 45.208C26.7053 45.2081 26.712 45.2081 26.7188 45.208L27.735 46.2038C28.027 46.4833 28.5296 46.5707 28.8934 46.3257L30.0722 45.5128C30.5885 45.8071 31.1431 46.0451 31.7184 46.2038L32.0029 47.6061C32.0829 48.0097 32.4607 48.358 32.8971 48.358H34.3198C34.7547 48.358 35.1435 48.0754 35.2343 47.6061L35.5189 46.2038C36.0876 46.0449 36.6342 45.806 37.1447 45.5128L38.3235 46.3054C38.7254 46.5765 39.1986 46.5069 39.5226 46.1835L40.5184 45.1877C40.8411 44.865 40.9097 44.4093 40.6404 44.0089C40.6336 44.0088 40.6268 44.0088 40.62 44.0089L39.8274 42.8302C40.1241 42.3117 40.338 41.7622 40.4981 41.184L41.9004 40.9198C42.3703 40.8287 42.6524 40.4405 42.6524 40.0053V38.5827C42.6515 38.1496 42.3035 37.7473 41.9004 37.6682L40.4981 37.3836C40.3399 36.8135 40.1208 36.273 39.8274 35.7578L40.62 34.5587C40.8688 34.1889 40.7877 33.69 40.4981 33.4003L39.5022 32.3842C39.1464 32.0286 38.6565 32.0453 38.3032 32.2826L37.1244 33.0752C36.6053 32.7837 36.0488 32.5581 35.4782 32.4045L35.214 31.0226C35.2141 31.0158 35.2141 31.009 35.214 31.0022C35.1227 30.532 34.7356 30.2706 34.2994 30.2706H32.9175C32.9182 30.2648 32.9036 30.2529 32.8768 30.2503ZM33.1817 31.5713H34.0149L34.2791 32.9939C34.3045 33.1191 34.3663 33.2341 34.4566 33.3244C34.547 33.4148 34.662 33.4765 34.7872 33.502C35.5347 33.653 36.2109 33.9211 36.8399 34.3352C36.9478 34.4086 37.0752 34.4478 37.2057 34.4478C37.3362 34.4478 37.4636 34.4086 37.5715 34.3352L38.7909 33.5223L39.36 34.0913L38.547 35.3107C38.478 35.4165 38.4412 35.54 38.4412 35.6663C38.4412 35.7927 38.478 35.9162 38.547 36.022C38.9658 36.6532 39.2682 37.3541 39.421 38.0949C39.4464 38.2202 39.5081 38.3352 39.5985 38.4255C39.6888 38.5159 39.8038 38.5776 39.929 38.603L41.3517 38.8875V39.7005L39.929 39.9647C39.8038 39.9901 39.6888 40.0518 39.5985 40.1422C39.5081 40.2325 39.4464 40.3475 39.421 40.4727C39.2719 41.2098 38.9658 41.9093 38.547 42.5457C38.4766 42.6556 38.4409 42.7841 38.4445 42.9146C38.4481 43.0451 38.491 43.1715 38.5674 43.2773L39.3803 44.4764L38.7909 45.0657L37.5918 44.2528C37.484 44.1794 37.3565 44.1402 37.226 44.1402C37.0955 44.1402 36.9681 44.1794 36.8602 44.2528C36.2245 44.6747 35.567 44.9541 34.8279 45.1064C34.7026 45.1318 34.5876 45.1935 34.4973 45.2839C34.4069 45.3742 34.3452 45.4892 34.3198 45.6144L34.0352 47.0574H33.202L32.9175 45.6144C32.892 45.4892 32.8303 45.3742 32.7399 45.2839C32.6496 45.1935 32.5346 45.1318 32.4094 45.1064C31.672 44.9574 30.993 44.6718 30.3567 44.2528C30.2488 44.1794 30.1214 44.1402 29.9909 44.1402C29.8604 44.1402 29.7329 44.1794 29.6251 44.2528L28.4057 45.086L27.8366 44.517L28.6699 43.2773C28.7389 43.1715 28.7757 43.048 28.7757 42.9216C28.7757 42.7953 28.7389 42.6718 28.6699 42.566C28.2478 41.9298 27.9479 41.252 27.7959 40.5134C27.7705 40.3881 27.7088 40.2732 27.6184 40.1828C27.5281 40.0925 27.4131 40.0307 27.2879 40.0053L25.8652 39.7208V38.9079L27.2879 38.6233C27.4131 38.5979 27.5281 38.5362 27.6184 38.4458C27.7088 38.3555 27.7705 38.2405 27.7959 38.1153C27.947 37.3679 28.2355 36.6715 28.6495 36.0423C28.7186 35.9366 28.7554 35.813 28.7554 35.6867C28.7554 35.5604 28.7186 35.4368 28.6495 35.331L27.8366 34.1116L28.4057 33.5426L29.6047 34.3555C29.7126 34.4289 29.8401 34.4681 29.9706 34.4681C30.101 34.4681 30.2285 34.4289 30.3364 34.3555C30.9673 33.9369 31.6478 33.6546 32.389 33.502C32.5143 33.4765 32.6293 33.4148 32.7196 33.3244C32.81 33.2341 32.8717 33.1191 32.8971 32.9939L33.1817 31.5713ZM33.6085 35.5952C31.5727 35.5952 29.9096 37.2786 29.9096 39.3143C29.9096 41.3501 31.5727 43.0131 33.6085 43.0131C35.6442 43.0131 37.3073 41.3501 37.3073 39.3143C37.3073 37.2786 35.6442 35.5952 33.6085 35.5952ZM33.6085 36.8959C34.9383 36.8959 36.0066 37.9846 36.0066 39.3143C36.0066 40.6441 34.9383 41.7124 33.6085 41.7124C32.2786 41.7124 31.2103 40.6441 31.2103 39.3143C31.2103 37.9846 32.2786 36.8959 33.6085 36.8959Z" fill="#1742E7"></path></svg>