<svg xmlns="http://www.w3.org/2000/svg" viewBox="0 0 57 57" fill="none"><path fill-rule="evenodd" clip-rule="evenodd" d="M27.9047 12.0587C24.5616 12.1529 21.3927 13.5707 19.0946 16.0005C19.0821 16.0148 19.069 16.0297 19.0553 16.0434C16.7621 18.482 15.5283 21.7298 15.6241 25.0759C15.7198 28.4221 17.1373 31.594 19.5662 33.8975C19.5812 33.9097 19.5956 33.9228 19.6091 33.9367C21.7528 35.9509 24.5306 37.1563 27.466 37.3459C30.4014 37.5355 33.3112 36.6975 35.6962 34.9758C35.8163 34.8763 35.9686 34.824 36.1245 34.8288C36.2805 34.8336 36.4293 34.8952 36.543 35.0019L38.1241 36.4953C38.2223 36.5872 38.353 36.6364 38.4875 36.6322C38.5535 36.6305 38.6185 36.6158 38.6788 36.5887C38.739 36.5617 38.7933 36.523 38.8384 36.4748L40.6391 34.5651C40.7309 34.4676 40.7804 34.3377 40.7766 34.2039C40.7729 34.07 40.7163 33.9431 40.6192 33.8508L39.0525 32.3737C38.9379 32.2726 38.8633 32.1338 38.8422 31.9824C38.8211 31.8311 38.8548 31.6772 38.9374 31.5486C40.1812 29.6088 40.8722 27.3664 40.9356 25.0629C40.9991 22.7595 40.4328 20.4824 39.2976 18.4771C38.1624 16.4717 36.5015 14.8142 34.4939 13.6832C32.4862 12.5522 30.208 11.9905 27.9047 12.0587ZM42.9563 40.0059L39.9435 37.1648L41.3945 35.626L44.408 38.4671L42.9563 40.0059ZM41.0442 52.4821H15.8851C15.4991 52.4821 15.1289 52.6354 14.856 52.9084C14.5831 53.1813 14.4297 53.5515 14.4297 53.9375C14.4297 54.3235 14.5831 54.6937 14.856 54.9666C15.1289 55.2395 15.4991 55.3929 15.8851 55.3929H41.0442C41.4302 55.3929 41.8004 55.2395 42.0733 54.9666C42.3463 54.6937 42.4996 54.3235 42.4996 53.9375C42.4996 53.5515 42.3463 53.1813 42.0733 52.9084C41.8004 52.6354 41.4302 52.4821 41.0442 52.4821ZM32.4699 47.8807H24.4594V51.2009H32.4699V47.8807ZM47.6827 46.7209C47.7033 46.7359 47.723 46.7519 47.7419 46.7688C48.1311 47.0712 48.6098 47.2353 49.1027 47.2353C49.5955 47.2353 50.0743 47.0712 50.4635 46.7688C50.4832 46.7508 50.504 46.734 50.5257 46.7184C50.5811 46.6723 50.6341 46.6233 50.6844 46.5716C50.6962 46.5573 50.7086 46.5436 50.7223 46.5299L51.3856 45.8274C51.7857 45.4006 52.0006 44.8329 51.9836 44.2481C51.9666 43.6634 51.719 43.1091 51.2948 42.7063L46.6903 38.3651C46.6602 38.3367 46.6249 38.3146 46.5862 38.3001C46.5475 38.2856 46.5063 38.2789 46.465 38.2804C46.3829 38.2829 46.305 38.3178 46.2485 38.3775L43.0017 41.8215C42.9887 41.8371 42.9744 41.8526 42.9594 41.8676C42.9104 41.9267 42.8847 42.0017 42.8872 42.0785C42.8891 42.1521 42.9173 42.2226 42.9669 42.277L42.9992 42.3069L47.5583 46.6052C47.5739 46.6183 47.5894 46.6326 47.6043 46.6469C47.6305 46.6711 47.6572 46.6942 47.684 46.7172L47.6827 46.7209ZM55.025 41.9398H52.3333C52.917 42.5713 53.2476 43.3958 53.2621 44.2556C53.2766 45.1155 52.9738 45.9506 52.4117 46.6015H55.0219V41.9366L55.025 41.9398ZM41.6173 41.9398C41.6127 41.9979 41.6113 42.0563 41.6129 42.1146C41.6238 42.5173 41.787 42.9009 42.0696 43.1879L42.0958 43.2153C43.2836 44.3509 44.4864 45.4765 45.6854 46.6027H1.90741V41.9366L41.6173 41.9398ZM5.4037 45.0565H5.58415C5.67003 45.0591 5.75558 45.0445 5.83571 45.0135C5.91584 44.9825 5.98893 44.9357 6.05062 44.8759C6.11232 44.8161 6.16138 44.7445 6.19488 44.6654C6.22838 44.5862 6.24564 44.5012 6.24564 44.4153C6.24564 44.3293 6.22838 44.2443 6.19488 44.1652C6.16138 44.086 6.11232 44.0144 6.05062 43.9546C5.98893 43.8948 5.91584 43.848 5.83571 43.817C5.75558 43.786 5.67003 43.7714 5.58415 43.7741H5.4037C5.2371 43.7793 5.07906 43.8491 4.96305 43.9688C4.84704 44.0885 4.78216 44.2486 4.78216 44.4153C4.78216 44.582 4.84704 44.7421 4.96305 44.8618C5.07906 44.9815 5.2371 45.0513 5.4037 45.0565ZM35.2824 31.2848L35.278 31.2891C35.2644 31.3032 35.2513 31.3175 35.2388 31.3321C33.4909 33.1721 31.0857 34.2453 28.5488 34.3172C26.012 34.3892 23.5498 33.454 21.7004 31.716C21.6859 31.7023 21.6716 31.6892 21.6575 31.6768C21.6185 31.6403 21.5799 31.6029 21.5418 31.5648C21.7632 30.91 22.1689 30.3331 22.7103 29.9034C23.3382 29.4019 24.1181 29.1289 24.9217 29.1294H32.0114C32.7659 29.1278 33.5011 29.3677 34.1095 29.8138C34.6246 30.1911 35.0304 30.6982 35.2855 31.2835L35.2824 31.2848ZM20.6047 30.4995C19.2407 28.6908 18.5596 26.4582 18.6819 24.196C18.8042 21.9339 19.7219 19.7877 21.273 18.1366C21.2867 18.1229 21.2997 18.1086 21.3122 18.0936C22.981 16.3388 25.2509 15.279 27.6677 15.1261C30.0845 14.9733 32.4698 15.7389 34.3464 17.2695C36.2229 18.8001 37.4522 20.983 37.7882 23.3811C38.1242 25.7793 37.5421 28.2159 36.1585 30.2034C35.8249 29.6484 35.3843 29.1654 34.8624 28.7822C34.036 28.1744 33.0372 27.8463 32.0114 27.8457H24.9211C23.8274 27.8465 22.7666 28.2196 21.9132 28.9035C21.3687 29.3373 20.9232 29.8826 20.6066 30.5026L20.6047 30.4995ZM20.3757 32.2044C20.3635 32.1926 20.3518 32.1801 20.3409 32.1671C18.4427 30.1459 17.3871 27.4766 17.3895 24.7038C17.3918 21.9311 18.4518 19.2636 20.3533 17.2455L20.3664 17.2318L20.3869 17.2125C22.3785 15.1448 25.1063 13.9476 27.9764 13.8814C30.8466 13.8153 33.6266 14.8856 35.7114 16.8593C37.7962 18.8331 39.0169 21.5505 39.1077 24.4199C39.1985 27.2893 38.1522 30.0785 36.1964 32.1802L36.1828 32.1945L36.1628 32.2144C34.1787 34.2986 31.4502 35.5126 28.5736 35.5912C25.697 35.6698 22.9063 34.6065 20.8113 32.6338L20.797 32.6207L20.7771 32.6002C20.641 32.4707 20.5089 32.3386 20.3807 32.2038L20.3757 32.2044ZM30.4913 20.6715C30.9607 21.1404 31.2531 21.7577 31.3185 22.418C31.3839 23.0783 31.2182 23.7409 30.8498 24.2928C30.4814 24.8447 29.933 25.2518 29.2981 25.4446C28.6632 25.6375 27.981 25.6042 27.3679 25.3504C26.7547 25.0967 26.2486 24.6381 25.9357 24.053C25.6227 23.4678 25.5224 22.7923 25.6518 22.1415C25.7812 21.4906 26.1322 20.9048 26.6451 20.4838C27.1581 20.0628 27.8011 19.8327 28.4647 19.8327C28.841 19.8322 29.2138 19.9061 29.5616 20.05C29.9094 20.1939 30.2253 20.4051 30.4913 20.6715ZM28.4647 18.5503C29.4241 18.5505 30.3538 18.8833 31.0953 19.4921C31.8369 20.1009 32.3444 20.948 32.5314 21.889C32.7185 22.83 32.5735 23.8068 32.1211 24.6529C31.6687 25.499 30.9369 26.162 30.0505 26.5291C29.1641 26.8961 28.1778 26.9445 27.2597 26.6659C26.3416 26.3873 25.5485 25.799 25.0155 25.0012C24.4825 24.2035 24.2426 23.2456 24.3367 22.2908C24.4308 21.336 24.853 20.4433 25.5315 19.7649C25.9163 19.3793 26.3736 19.0735 26.8769 18.865C27.3803 18.6566 27.9199 18.5497 28.4647 18.5503ZM6.11739 14.1549C4.85434 12.5134 4.16666 10.5017 4.16049 8.43047V3.93801L10.9465 1.98298L17.7325 3.93863V8.43109C17.7263 10.5023 17.0386 12.514 15.7756 14.1556C14.5627 15.7407 12.8681 16.8894 10.9465 17.4291C9.02494 16.8893 7.3304 15.74 6.11739 14.1549ZM2.87808 6.60549V3.45641C2.87821 3.30655 2.9308 3.16146 3.02673 3.04633C3.12266 2.93119 3.25587 2.85328 3.40324 2.82609L10.771 0.702442C10.8884 0.667871 11.0133 0.667871 11.1307 0.702442L18.5489 2.84289C18.6822 2.88092 18.7996 2.96138 18.8831 3.07209C18.9667 3.1828 19.0118 3.31772 19.0118 3.45641H19.0149V6.60549H55.5502C55.7495 6.60604 55.9404 6.68572 56.0809 6.827L56.0847 6.83073C56.2248 6.9714 56.3037 7.16169 56.3043 7.36024V47.126C56.3037 47.3251 56.2243 47.516 56.0834 47.6567L56.0797 47.6605C55.9392 47.801 55.7489 47.8802 55.5502 47.8807H51.1087C50.5204 48.2908 49.8204 48.5106 49.1033 48.5106C48.3861 48.5106 47.6862 48.2908 47.0979 47.8807H33.7536V51.2009H41.0442C41.7703 51.2009 42.4667 51.4894 42.9801 52.0028C43.4936 52.5163 43.782 53.2126 43.782 53.9387C43.782 54.6648 43.4936 55.3612 42.9801 55.8746C42.4667 56.3881 41.7703 56.6765 41.0442 56.6765H15.8851C15.159 56.6765 14.4626 56.3881 13.9492 55.8746C13.4358 55.3612 13.1473 54.6648 13.1473 53.9387C13.1473 53.2126 13.4358 52.5163 13.9492 52.0028C14.4626 51.4894 15.159 51.2009 15.8851 51.2009H23.1757V47.8807H1.37914C1.17985 47.8802 0.988938 47.8005 0.848379 47.6592L0.844646 47.6543C0.704527 47.5136 0.625593 47.3233 0.625 47.1247V7.36024C0.625595 7.16109 0.705012 6.97026 0.84589 6.82949L0.849624 6.82575C0.990234 6.68546 1.18051 6.60631 1.37914 6.60549H2.87808ZM10.7723 18.7059C10.8816 18.7367 10.9971 18.738 11.107 18.7096C13.3677 18.1193 15.3667 16.7914 16.7873 14.9364C18.2246 13.0708 19.0075 10.7837 19.0149 8.4286V7.88851H55.0219V40.6542H50.9843L47.567 37.4324C47.2592 37.144 46.8498 36.9892 46.4282 37.0018C46.0066 37.0144 45.6071 37.1933 45.317 37.4996L45.2822 37.5363L42.0323 34.4718C42.0465 34.3702 42.0523 34.2676 42.0497 34.1651C42.0427 33.931 41.9896 33.7006 41.8935 33.4871C41.7974 33.2736 41.6602 33.0811 41.4897 32.9206L40.287 31.7875C42.028 28.8377 42.6217 25.3501 41.955 21.9903C41.2883 18.6305 39.4077 15.6339 36.6722 13.5724C33.9368 11.5109 30.538 10.5289 27.1245 10.8138C23.7111 11.0986 20.5221 12.6305 18.1662 15.1169L18.1457 15.1368L18.1326 15.1511C15.6023 17.8348 14.2389 21.412 14.3412 25.0991C14.4435 28.7861 16.0031 32.2822 18.6783 34.8215L18.6982 34.842L18.7125 34.8557C21.0105 37.0225 23.9763 38.3446 27.124 38.6053C30.2717 38.866 33.4146 38.0498 36.0378 36.2906L37.2424 37.4255C37.4125 37.586 37.6126 37.7114 37.8313 37.7942C38.05 37.8771 38.283 37.9159 38.5167 37.9084C38.62 37.9053 38.7228 37.8934 38.8241 37.8729L41.7747 40.6549H1.90741V7.88851H2.87808V8.4286C2.88552 10.7837 3.66837 13.0708 5.10565 14.9364C6.52338 16.7875 8.51713 18.1137 10.7723 18.7059ZM6.29846 9.70354C6.29844 8.6282 6.67128 7.58611 7.35345 6.75484C8.03562 5.92357 8.98493 5.35456 10.0396 5.14475C11.0943 4.93493 12.1891 5.09731 13.1375 5.6042C14.0859 6.1111 14.8291 6.93115 15.2407 7.92463C15.6522 8.91811 15.7065 10.0235 15.3944 11.0526C15.0823 12.0816 14.423 12.9706 13.5289 13.5681C12.6348 14.1655 11.5612 14.4345 10.491 14.3291C9.42082 14.2237 8.42029 13.7505 7.65989 12.9901C7.2277 12.559 6.88495 12.0467 6.65131 11.4827C6.41767 10.9186 6.29776 10.314 6.29846 9.70354ZM8.5671 7.32353C8.0163 7.87397 7.67341 8.59836 7.59685 9.37327C7.5203 10.1482 7.71481 10.9257 8.14725 11.5732C8.57969 12.2208 9.2233 12.6984 9.9684 12.9246C10.7135 13.1508 11.514 13.1117 12.2335 12.8139C12.953 12.516 13.5469 11.9779 13.9141 11.2912C14.2813 10.6046 14.399 9.81182 14.2472 9.04807C14.0954 8.28433 13.6835 7.59685 13.0816 7.10278C12.4798 6.60871 11.7252 6.33863 10.9465 6.33855C10.5045 6.33805 10.0668 6.42486 9.65848 6.594C9.25015 6.76314 8.87926 7.01127 8.5671 7.32415V7.32353ZM8.88568 10.2766L10.2446 11.345C10.3107 11.397 10.3865 11.4356 10.4675 11.4583C10.5485 11.4811 10.6332 11.4877 10.7168 11.4777C10.8004 11.4677 10.8812 11.4413 10.9545 11.4001C11.0279 11.3588 11.0924 11.3035 11.1444 11.2373L11.1481 11.2323L13.0957 8.98363C13.2012 8.85471 13.2522 8.6897 13.238 8.52372C13.2237 8.35773 13.1453 8.20385 13.0193 8.09483C12.8933 7.9858 12.7298 7.93022 12.5635 7.93992C12.3971 7.94961 12.2412 8.02381 12.1287 8.14674L10.557 9.96177L9.67715 9.26985C9.61105 9.21788 9.53535 9.17944 9.45439 9.15673C9.37343 9.13401 9.28879 9.12747 9.2053 9.13746C9.12181 9.14746 9.0411 9.1738 8.96779 9.21498C8.89448 9.25617 8.83 9.31139 8.77804 9.3775C8.72607 9.4436 8.68763 9.51929 8.66491 9.60025C8.6422 9.68121 8.63565 9.76586 8.64564 9.84935C8.65564 9.93284 8.68198 10.0135 8.72317 10.0869C8.76435 10.1602 8.81958 10.2246 8.88568 10.2766Z" fill="#1742E7"></path></svg>