<svg xmlns="http://www.w3.org/2000/svg" viewBox="0 0 44 57" fill="none"><path fill-rule="evenodd" clip-rule="evenodd" d="M19.2618 33.0155C16.9786 32.414 14.9437 31.1066 13.4477 29.2798C11.9516 27.453 11.0709 25.2004 10.9311 22.8433H6.33179C6.17056 23.5417 5.75796 24.1563 5.17264 24.57C4.58732 24.9837 3.87024 25.1675 3.15811 25.0863C2.44598 25.0052 1.78862 24.6648 1.31135 24.13C0.83409 23.5953 0.570312 22.9036 0.570312 22.1868C0.570313 21.4701 0.83409 20.7784 1.31135 20.2436C1.78862 19.7089 2.44598 19.3685 3.15811 19.2873C3.87024 19.2062 4.58732 19.39 5.17264 19.8037C5.75796 20.2173 6.17056 20.832 6.33179 21.5304H10.9311C11.0757 19.0173 12.066 16.627 13.741 14.7481L10.1322 11.1391C9.61969 11.4273 9.02014 11.5202 8.44444 11.4006C7.86874 11.281 7.35582 10.957 7.00052 10.4884C6.64522 10.0199 6.47157 9.43856 6.51169 8.85191C6.55181 8.26525 6.80298 7.71297 7.21876 7.29717C7.63453 6.88138 8.18679 6.6302 8.77342 6.59008C9.36005 6.54996 9.94136 6.72361 10.4099 7.07892C10.8784 7.43424 11.2024 7.94718 11.322 8.52291C11.4416 9.09864 11.3487 9.69821 11.0605 10.2108L14.6693 13.8197C16.548 12.1444 18.9383 11.154 21.4513 11.0097V6.41017C20.753 6.24893 20.1383 5.83631 19.7247 5.25097C19.311 4.66563 19.1272 3.94851 19.2084 3.23635C19.2895 2.52419 19.6299 1.86679 20.1646 1.38951C20.6993 0.912227 21.391 0.648437 22.1077 0.648438C22.8245 0.648438 23.5162 0.912227 24.0509 1.38951C24.5856 1.86679 24.926 2.52419 25.0071 3.23635C25.0883 3.94851 24.9045 4.66563 24.4908 5.25097C24.0771 5.83631 23.4625 6.24893 22.7642 6.41017V11.0097C25.2771 11.1543 27.6673 12.1446 29.5462 13.8197L33.155 10.2108C32.8668 9.69821 32.7739 9.09864 32.8935 8.52291C33.0131 7.94718 33.3371 7.43424 33.8056 7.07892C34.2741 6.72361 34.8555 6.54996 35.4421 6.59008C36.0287 6.6302 36.581 6.88138 36.9967 7.29717C37.4125 7.71297 37.6637 8.26525 37.7038 8.85191C37.7439 9.43856 37.5703 10.0199 37.215 10.4884C36.8597 10.957 36.3468 11.281 35.7711 11.4006C35.1954 11.5202 34.5958 11.4273 34.0833 11.1391L30.4745 14.7481C32.1498 16.6269 33.1401 19.0172 33.2844 21.5304H37.8837C38.0449 20.832 38.4575 20.2173 39.0429 19.8037C39.6282 19.39 40.3453 19.2062 41.0574 19.2873C41.7695 19.3685 42.4269 19.7089 42.9041 20.2436C43.3814 20.7784 43.6452 21.4701 43.6452 22.1868C43.6452 22.9036 43.3814 23.5953 42.9041 24.13C42.4269 24.6648 41.7695 25.0052 41.0574 25.0863C40.3453 25.1675 39.6282 24.9837 39.0429 24.57C38.4575 24.1563 38.0449 23.5417 37.8837 22.8433H33.2844C33.1446 25.2004 32.2639 27.453 30.7678 29.2798C29.2718 31.1066 27.2369 32.414 24.9537 33.0155V33.3621C25.4992 33.0098 26.1492 32.8556 26.7948 32.9253C27.4404 32.9949 28.0424 33.2842 28.5003 33.7448C28.6895 33.9341 28.8514 34.149 28.9812 34.3832C29.3778 34.0304 29.8651 33.7956 30.3881 33.7052C30.9111 33.6149 31.4489 33.6726 31.9408 33.8719C32.4327 34.0712 32.8591 34.4041 33.1717 34.833C33.4843 35.2619 33.6708 35.7697 33.71 36.299C34.1395 36.0223 34.6357 35.8663 35.1463 35.8475C35.657 35.8287 36.1633 35.9477 36.6121 36.192C37.0608 36.4364 37.4356 36.7971 37.6969 37.2362C37.9582 37.6753 38.0964 38.1767 38.0971 38.6877V49.4959C38.1028 50.2317 37.9233 50.9571 37.5751 51.6053L35.9935 54.6162C35.8783 54.8318 35.788 55.0598 35.724 55.2957C35.6673 55.5121 35.6346 55.7342 35.6264 55.9578V55.992C35.6264 56.0784 35.6093 56.1641 35.5761 56.2439C35.5429 56.3238 35.4943 56.3963 35.433 56.4573C35.3717 56.5183 35.299 56.5666 35.219 56.5994C35.139 56.6322 35.0533 56.6488 34.9668 56.6484H19.9176C19.8314 56.6484 19.7461 56.6314 19.6665 56.5984C19.5869 56.5655 19.5146 56.5171 19.4537 56.4561C19.3927 56.3952 19.3445 56.3228 19.3115 56.2431C19.2786 56.1635 19.2617 56.0782 19.2618 55.992C19.2698 55.438 19.1279 54.8921 18.8511 54.4121C18.8443 54.4022 18.8381 54.3916 18.8319 54.381L12.0934 42.7105C11.6687 41.9722 11.5507 41.0967 11.7645 40.2723C11.9783 39.4478 12.507 38.7402 13.237 38.3013C13.266 38.2813 13.2966 38.2637 13.3285 38.2485C14.0654 37.8405 14.9319 37.7345 15.7455 37.9527C16.559 38.1709 17.2562 38.6963 17.6901 39.4183C17.709 39.4453 17.7256 39.4738 17.7399 39.5035L19.2624 42.1405L19.2618 33.0155ZM19.2618 29.7799C17.4838 29.1132 15.9964 27.8433 15.0589 26.1919C14.1215 24.5405 13.7936 22.6124 14.1324 20.7439C14.4712 18.8755 15.4552 17.1853 16.9127 15.9682C18.3703 14.7511 20.2089 14.0844 22.1077 14.0844C24.0066 14.0844 25.8452 14.7511 27.3028 15.9682C28.7603 17.1853 29.7443 18.8755 30.0831 20.7439C30.4219 22.6124 30.094 24.5405 29.1566 26.1919C28.2191 27.8433 26.7317 29.1132 24.9537 29.7799V31.6565C27.2243 30.9735 29.1736 29.4966 30.4456 27.4955C31.7177 25.4944 32.2276 23.1025 31.8825 20.7566C31.5373 18.4106 30.36 16.267 28.5654 14.7172C26.7709 13.1673 24.4789 12.3145 22.1077 12.3145C19.7366 12.3145 17.4446 13.1673 15.6501 14.7172C13.8555 16.267 12.6782 18.4106 12.333 20.7566C11.9879 23.1025 12.4978 25.4944 13.7699 27.4955C15.0419 29.4966 16.9912 30.9735 19.2618 31.6565V29.7799ZM24.9537 28.3625C26.0614 27.8518 27.0113 27.0526 27.7038 26.0485C28.3963 25.0445 28.806 23.8726 28.8899 22.6557C28.9737 21.4389 28.7286 20.2219 28.1804 19.1323C27.6321 18.0428 26.8008 17.1208 25.7736 16.463C24.7465 15.8053 23.5613 15.436 22.3423 15.3939C21.1234 15.3518 19.9155 15.6385 18.8455 16.2238C17.7754 16.8091 16.8825 17.6716 16.2604 18.7207C15.6382 19.7699 15.3098 20.9671 15.3096 22.1868C15.3089 23.4861 15.6806 24.7584 16.3807 25.8529C17.0809 26.9475 18.0801 27.8184 19.2599 28.3625V25.848C18.4971 25.2549 17.9386 24.4383 17.6625 23.5122C17.3864 22.5862 17.4065 21.597 17.7201 20.683C18.0336 19.7689 18.6248 18.9756 19.4111 18.414C20.1975 17.8524 21.1396 17.5505 22.1059 17.5505C23.0722 17.5505 24.0143 17.8524 24.8006 18.414C25.587 18.9756 26.1782 19.7689 26.4917 20.683C26.8052 21.597 26.8253 22.5862 26.5493 23.5122C26.2732 24.4383 25.7147 25.2549 24.9518 25.848V28.3643L24.9537 28.3625ZM24.9537 37.3885C24.9564 37.4764 24.9414 37.5639 24.9097 37.6459C24.8779 37.7279 24.83 37.8026 24.7688 37.8657C24.7077 37.9288 24.6344 37.979 24.5535 38.0133C24.4725 38.0475 24.3855 38.0652 24.2976 38.0652C24.2097 38.0652 24.1227 38.0475 24.0417 38.0133C23.9608 37.979 23.8875 37.9288 23.8263 37.8657C23.7651 37.8026 23.7173 37.7279 23.6855 37.6459C23.6537 37.5639 23.6388 37.4764 23.6415 37.3885V24.3771C23.6415 23.9703 23.4799 23.5802 23.1923 23.2925C22.9046 23.0049 22.5145 22.8433 22.1077 22.8433C21.701 22.8433 21.3109 23.0049 21.0232 23.2925C20.7356 23.5802 20.574 23.9703 20.574 24.3771V44.5865C20.5728 44.7341 20.5218 44.8769 20.4294 44.992C20.337 45.107 20.2086 45.1876 20.0648 45.2207C19.9209 45.2537 19.7702 45.2374 19.6368 45.1743C19.5034 45.1111 19.3952 45.0049 19.3296 44.8727L16.5845 40.117C16.3259 39.6742 15.9031 39.3513 15.4078 39.2184C14.9125 39.0856 14.3849 39.1536 13.9395 39.4077C13.4964 39.666 13.1733 40.0888 13.0403 40.5842C12.9074 41.0795 12.9754 41.6073 13.2295 42.0528L19.9649 53.724C19.9723 53.7372 19.9792 53.7503 19.9854 53.7631C20.1766 54.0941 20.3243 54.4484 20.4247 54.8172C20.4707 54.9874 20.5058 55.1603 20.5298 55.3349H34.3739C34.395 55.2105 34.4218 55.086 34.4541 54.9616C34.5431 54.6295 34.6696 54.3086 34.8312 54.0052L36.4128 50.9942C36.6632 50.5348 36.7901 50.0184 36.7812 49.4953V38.6877C36.7816 38.2881 36.6261 37.904 36.3478 37.6171C36.0694 37.3303 35.6902 37.1633 35.2907 37.1517C34.8912 37.1402 34.5029 37.2848 34.2084 37.5551C33.9139 37.8253 33.7365 38.1997 33.7137 38.5988V39.7381C33.7164 39.8259 33.7014 39.9135 33.6697 39.9954C33.6379 40.0774 33.59 40.1522 33.5288 40.2153C33.4677 40.2784 33.3944 40.3286 33.3135 40.3628C33.2325 40.3971 33.1455 40.4147 33.0576 40.4147C32.9697 40.4147 32.8827 40.3971 32.8017 40.3628C32.7208 40.3286 32.6475 40.2784 32.5863 40.2153C32.5251 40.1522 32.4773 40.0774 32.4455 39.9954C32.4137 39.9135 32.3988 39.8259 32.4015 39.7381V36.5075C32.4022 36.1077 32.247 35.7233 31.9687 35.4362C31.6905 35.1491 31.3112 34.9819 30.9116 34.9702C30.512 34.9584 30.1236 35.1031 29.829 35.3733C29.5343 35.6435 29.3568 36.0181 29.334 36.4172V38.5633C29.334 38.7374 29.2649 38.9044 29.1418 39.0275C29.0186 39.1506 28.8517 39.2198 28.6776 39.2198C28.5035 39.2198 28.3365 39.1506 28.2134 39.0275C28.0903 38.9044 28.0212 38.7374 28.0212 38.5633V35.7558C28.0218 35.3561 27.8664 34.9718 27.5881 34.6849C27.3098 34.3979 26.9306 34.2308 26.531 34.2192C26.1315 34.2075 25.7431 34.3521 25.4485 34.6224C25.154 34.8926 24.9765 35.2671 24.9537 35.6662V37.3885ZM19.2917 23.9583C19.3931 23.2842 19.7331 22.6689 20.2498 22.2242C20.7664 21.7795 21.4255 21.5349 22.1071 21.5349C22.7888 21.5349 23.4478 21.7795 23.9645 22.2242C24.4811 22.6689 24.8211 23.2842 24.9226 23.9583C24.963 23.8961 25.001 23.8289 25.0377 23.7617C25.3094 23.2551 25.4451 22.6867 25.4316 22.112C25.4181 21.5373 25.2558 20.9759 24.9606 20.4826C24.6654 19.9893 24.2474 19.581 23.7474 19.2975C23.2473 19.014 22.6823 18.8649 22.1074 18.8649C21.5326 18.8649 20.9676 19.014 20.4675 19.2975C19.9675 19.581 19.5494 19.9893 19.2543 20.4826C18.9591 20.9759 18.7968 21.5373 18.7833 22.112C18.7698 22.6867 18.9055 23.2551 19.1772 23.7617C19.2133 23.8289 19.2512 23.8948 19.2917 23.9583ZM8.94131 7.89854C8.68227 7.89875 8.4313 7.98874 8.23116 8.15321C8.03102 8.31767 7.89408 8.54643 7.84365 8.80053C7.79322 9.05463 7.83243 9.31835 7.9546 9.54678C8.07677 9.77522 8.27435 9.95424 8.51368 10.0534C8.75301 10.1525 9.0193 10.1656 9.2672 10.0904C9.51509 10.0152 9.72926 9.85641 9.87324 9.64106C10.0172 9.4257 10.0821 9.16709 10.0568 8.90927C10.0315 8.65146 9.91768 8.41037 9.73462 8.22708C9.6305 8.12282 9.50683 8.04014 9.3707 7.98376C9.23457 7.92739 9.08865 7.89843 8.94131 7.89854ZM2.35218 21.0513C2.08947 21.314 1.92598 21.6597 1.88957 22.0294C1.85317 22.3992 1.94609 22.7702 2.15251 23.0791C2.35893 23.388 2.66608 23.6158 3.02162 23.7237C3.37716 23.8315 3.7591 23.8127 4.10235 23.6705C4.4456 23.5283 4.72893 23.2715 4.90406 22.9438C5.07919 22.6161 5.13529 22.2379 5.06279 21.8735C4.9903 21.5091 4.7937 21.1811 4.50649 20.9454C4.21928 20.7097 3.85923 20.5808 3.4877 20.5808C3.27677 20.5806 3.06787 20.622 2.873 20.7027C2.67813 20.7835 2.50113 20.9019 2.35218 21.0513ZM41.8621 23.3224C42.1248 23.0597 42.2883 22.714 42.3247 22.3442C42.3611 21.9744 42.2682 21.6035 42.0617 21.2946C41.8553 20.9856 41.5482 20.7578 41.1926 20.65C40.8371 20.5421 40.4552 20.5609 40.1119 20.7031C39.7687 20.8453 39.4853 21.1021 39.3102 21.4298C39.1351 21.7575 39.079 22.1358 39.1515 22.5002C39.224 22.8646 39.4206 23.1926 39.7078 23.4283C39.995 23.664 40.355 23.7928 40.7266 23.7928C40.9375 23.7931 41.1464 23.7516 41.3413 23.6709C41.5361 23.5902 41.7131 23.4717 41.8621 23.3224ZM36.3954 9.0198C36.3952 8.76075 36.3052 8.50978 36.1407 8.30962C35.9763 8.10947 35.7475 7.97252 35.4935 7.92209C35.2394 7.87167 34.9757 7.91088 34.7472 8.03305C34.5188 8.15523 34.3398 8.35281 34.2407 8.59216C34.1416 8.8315 34.1285 9.0978 34.2037 9.34571C34.2788 9.59361 34.4376 9.80779 34.653 9.95177C34.8683 10.0958 35.1269 10.1606 35.3847 10.1354C35.6425 10.1101 35.8836 9.99621 36.0669 9.81315C36.1711 9.70902 36.2538 9.58535 36.3102 9.44921C36.3666 9.31307 36.3955 9.16715 36.3954 9.0198ZM23.2433 2.43038C22.9805 2.16766 22.6349 2.00417 22.2651 1.96776C21.8954 1.93135 21.5244 2.02428 21.2155 2.23071C20.9066 2.43714 20.6788 2.7443 20.571 3.09986C20.4631 3.45541 20.4819 3.83736 20.6241 4.18063C20.7663 4.52389 21.0231 4.80723 21.3508 4.98237C21.6784 5.15751 22.0567 5.21361 22.4211 5.14111C22.7855 5.06862 23.1135 4.87201 23.3492 4.58479C23.5849 4.29757 23.7137 3.9375 23.7137 3.56595C23.7139 3.35501 23.6725 3.1461 23.5918 2.95122C23.5111 2.75635 23.3926 2.57934 23.2433 2.43038Z" fill="#1742E7"></path></svg>