<svg xmlns="http://www.w3.org/2000/svg" viewBox="0 0 57 52" fill="none"><path d="M49.7368 26.8781C49.0571 30.4373 47.4828 33.81 45.1841 36.6311C43.2682 38.9826 40.8726 40.9209 38.1905 42.3075L39.215 42.607C39.6356 42.73 39.8773 43.1704 39.7543 43.5916C39.653 43.9383 39.3362 44.1632 38.9926 44.1632C38.9187 44.1632 38.8441 44.1526 38.7696 44.1309L35.6999 43.2344C35.2793 43.1114 35.0376 42.6709 35.1606 42.2497L36.0571 39.1808C36.1801 38.7602 36.6206 38.5185 37.0418 38.6415C37.4624 38.7645 37.7041 39.205 37.5811 39.6262L37.1648 41.0513C42.8935 38.2191 46.9728 32.8918 48.1774 26.5812C48.2594 26.1506 48.6757 25.868 49.1062 25.9506C49.5367 26.032 49.8188 26.4476 49.7368 26.8781ZM11.0033 10.0925C11.1499 10.2093 11.3245 10.2665 11.4984 10.2665C11.7314 10.2665 11.9619 10.1646 12.1191 9.96828C16.0256 5.08214 21.8494 2.27968 28.0968 2.27968C33.6118 2.27968 38.8808 4.51121 42.719 8.43628L41.6939 8.28656C41.2596 8.22381 40.857 8.52387 40.7937 8.95751C40.7303 9.39114 41.031 9.79433 41.4646 9.8577L44.6287 10.3193C44.6666 10.3249 44.7052 10.3274 44.743 10.3274C44.9133 10.3274 45.0798 10.2727 45.2177 10.1702C45.3867 10.0441 45.4985 9.85646 45.5289 9.64834L45.9906 6.48431C46.0539 6.05067 45.7532 5.64748 45.3196 5.58411C44.8859 5.52137 44.4827 5.82143 44.4194 6.25507L44.2088 7.69823C40.0463 3.23827 34.212 0.692383 28.0968 0.692383C21.3642 0.692383 15.0881 3.71228 10.879 8.97677C10.6057 9.31908 10.661 9.81856 11.0033 10.0925ZM20.5633 41.7341C14.6657 39.3951 10.2503 34.5245 8.48591 28.5182L9.79554 29.1767C10.1869 29.3737 10.6647 29.2159 10.8616 28.8245C11.0586 28.4325 10.9008 27.9554 10.5094 27.7584L7.65279 26.3221C7.64534 26.3184 7.63788 26.3153 7.6298 26.3122C7.61614 26.3059 7.60185 26.2991 7.58756 26.2935C7.57824 26.2898 7.56892 26.2867 7.55898 26.2836C7.54407 26.278 7.52854 26.273 7.51301 26.2687C7.50431 26.2662 7.49499 26.2643 7.48567 26.2618C7.46952 26.2581 7.45336 26.2538 7.43659 26.2507C7.42789 26.2488 7.4192 26.2482 7.40988 26.2469C7.3931 26.2444 7.37633 26.242 7.35955 26.2407C7.35023 26.2401 7.34029 26.2395 7.33098 26.2395C7.31482 26.2389 7.29867 26.2382 7.28252 26.2382C7.27133 26.2382 7.26015 26.2395 7.24897 26.2401C7.23468 26.2407 7.21977 26.2413 7.20548 26.2432C7.19243 26.2444 7.17876 26.2469 7.16572 26.2494C7.15516 26.2513 7.1446 26.2519 7.13465 26.2544C7.13217 26.255 7.13031 26.2556 7.12782 26.2562C7.11477 26.2587 7.10235 26.2631 7.0893 26.2662C7.07626 26.2699 7.06259 26.273 7.04954 26.2774C7.0483 26.278 7.04643 26.278 7.04519 26.2786C7.03712 26.2811 7.02904 26.2848 7.02096 26.2879C7.00543 26.2935 6.9899 26.2991 6.97437 26.3059C6.96753 26.3091 6.96132 26.3122 6.95511 26.3153C6.93771 26.3233 6.92032 26.332 6.90416 26.3414C6.89919 26.3438 6.89485 26.3476 6.88988 26.3501C6.87248 26.3606 6.85508 26.3712 6.83893 26.3824C6.83396 26.3861 6.82899 26.3898 6.82464 26.3935C6.80911 26.4053 6.79358 26.4165 6.77867 26.4296C6.77246 26.4352 6.76686 26.4408 6.76065 26.4463C6.74823 26.4582 6.73518 26.4693 6.72338 26.4818C6.71592 26.4892 6.70971 26.4973 6.70287 26.5054C6.69293 26.5166 6.68299 26.5277 6.67367 26.5395C6.66622 26.5489 6.66001 26.5582 6.65317 26.5681C6.6451 26.5793 6.63702 26.5905 6.62894 26.6023C6.62273 26.6122 6.61652 26.6228 6.61093 26.6327C6.60409 26.6445 6.59664 26.657 6.59043 26.6694C6.58918 26.6719 6.58794 26.6737 6.5867 26.6762L5.15033 29.5327C4.95339 29.9241 5.11119 30.4019 5.50321 30.5988C5.61752 30.6566 5.73929 30.6833 5.85919 30.6833C6.14995 30.6833 6.42952 30.523 6.5693 30.2459L7.05824 29.2737C7.92429 32.0513 9.34388 34.6549 11.2282 36.8964C13.5747 39.6883 16.6009 41.872 19.9787 43.2114C20.075 43.2493 20.1738 43.2673 20.2713 43.2673C20.5869 43.2673 20.8858 43.0772 21.0094 42.766C21.1703 42.3572 20.9709 41.8956 20.5633 41.7341ZM7.05203 25.0311C4.70674 25.0311 2.4472 24.1782 0.688389 22.6294C0.201937 22.2013 0.00561634 21.5701 0.162176 20.9414C0.729392 18.6683 2.34966 16.8872 4.42842 16.0634C3.6742 15.3241 3.20141 14.2723 3.20141 13.1056C3.20141 10.8747 4.92916 9.05939 7.05203 9.05939C9.1749 9.05939 10.9026 10.8747 10.9026 13.1056C10.9026 14.2723 10.4299 15.3241 9.67564 16.0634C11.7538 16.8872 13.3747 18.6683 13.9419 20.9414C14.0984 21.5701 13.9021 22.2007 13.4157 22.6294C11.6569 24.1782 9.39731 25.0311 7.05203 25.0311ZM7.05203 15.5639C8.30015 15.5639 9.3153 14.4612 9.3153 13.1056C9.3153 11.75 8.30015 10.6473 7.05203 10.6473C5.8039 10.6473 4.78875 11.75 4.78875 13.1056C4.78875 14.4606 5.8039 15.5639 7.05203 15.5639ZM1.73771 21.4378C3.20638 22.7313 5.09317 23.4432 7.05203 23.4432C9.01088 23.4432 10.8977 22.7313 12.3663 21.4378C12.4049 21.4043 12.4136 21.3745 12.4018 21.3254C11.7886 18.8677 9.58928 17.1512 7.05265 17.1512C4.51601 17.1512 2.31611 18.8677 1.70354 21.3254C1.69049 21.3745 1.69919 21.4043 1.73771 21.4378ZM55.5301 22.6288C53.7719 24.1775 51.5117 25.0305 49.1665 25.0305C46.8212 25.0305 44.5616 24.1775 42.8028 22.6288C42.3164 22.2007 42.1201 21.5695 42.2766 20.9408C42.8438 18.6677 44.4641 16.8865 46.5429 16.0628C45.7886 15.3235 45.3159 14.2717 45.3159 13.105C45.3159 10.8741 47.0436 9.05877 49.1665 9.05877C51.29 9.05877 53.0171 10.8741 53.0171 13.105C53.0171 14.2717 52.5443 15.3235 51.7901 16.0628C53.8682 16.8865 55.4891 18.6677 56.0563 20.9408C56.2135 21.5695 56.0166 22.2007 55.5301 22.6288ZM46.9032 13.105C46.9032 14.4606 47.9183 15.5633 49.1665 15.5633C50.4146 15.5633 51.4297 14.4606 51.4297 13.105C51.4297 11.7494 50.4146 10.6467 49.1665 10.6467C47.919 10.6467 46.9032 11.7494 46.9032 13.105ZM54.5162 21.3254C53.903 18.8677 51.7037 17.1512 49.1671 17.1512C46.6305 17.1512 44.4306 18.8677 43.818 21.3254C43.8056 21.3751 43.8149 21.4043 43.8528 21.4378C45.3214 22.7313 47.2082 23.4432 49.1671 23.4432C51.1259 23.4432 53.0127 22.7313 54.4814 21.4378C54.5187 21.4043 54.528 21.3745 54.5162 21.3254ZM34.9867 47.8572C35.1439 48.4852 34.9469 49.1164 34.4605 49.5451C32.7023 51.0939 30.4421 51.9468 28.0968 51.9468C25.7515 51.9468 23.4914 51.0939 21.7332 49.5451C21.2467 49.1164 21.0504 48.4859 21.207 47.8572C21.7742 45.584 23.3945 43.8029 25.4732 42.9791C24.719 42.2398 24.2462 41.188 24.2462 40.0213C24.2462 37.7904 25.974 35.9751 28.0968 35.9751C30.2197 35.9751 31.9474 37.7904 31.9474 40.0213C31.9474 41.188 31.4747 42.2398 30.7204 42.9791C32.7986 43.8029 34.4195 45.584 34.9867 47.8572ZM28.0968 42.4796C29.3449 42.4796 30.3601 41.3769 30.3601 40.0213C30.3601 38.6657 29.3449 37.563 28.0968 37.563C26.8487 37.563 25.8335 38.6657 25.8335 40.0213C25.8335 41.3769 26.8487 42.4796 28.0968 42.4796ZM33.4459 48.2417C32.8327 45.784 30.6335 44.0675 28.0968 44.0675C25.5602 44.0675 23.3603 45.784 22.7477 48.2417C22.7353 48.2914 22.7446 48.3206 22.7831 48.3542C24.2512 49.6476 26.1386 50.3596 28.0974 50.3596C30.0563 50.3596 31.9437 49.6476 33.4118 48.3542C33.449 48.32 33.4584 48.2908 33.4459 48.2417ZM38.3024 25.0156C38.0402 26.1823 37.5742 27.3068 36.9337 28.3182L37.5525 29.1755C37.8569 29.5967 37.811 30.1695 37.4432 30.5373L35.9111 32.0693C35.5439 32.4365 34.9711 32.483 34.5493 32.1786L33.692 31.5599C32.6799 32.2004 31.5554 32.6663 30.3893 32.9285L30.2209 33.9716C30.1383 34.4847 29.7009 34.8575 29.1809 34.8575H27.014C26.494 34.8575 26.0566 34.4847 25.974 33.9716L25.8056 32.9285C24.6389 32.6663 23.5144 32.2004 22.5029 31.5599L21.6456 32.1786C21.2244 32.483 20.6516 32.4371 20.2838 32.0693L18.7517 30.5373C18.3839 30.1701 18.338 29.5973 18.6424 29.1755L19.2612 28.3182C18.6206 27.3062 18.1547 26.1817 17.8925 25.0156L16.8488 24.8472C16.3356 24.7646 15.9629 24.3266 15.9629 23.8073V21.6404C15.9629 21.1204 16.3356 20.683 16.8488 20.6004L17.8925 20.432C18.1547 19.2653 18.6206 18.1408 19.2612 17.1288L18.6424 16.2715C18.338 15.8503 18.3839 15.2775 18.7517 14.9097L20.2838 13.3777C20.6509 13.0099 21.2237 12.964 21.6456 13.2684L22.5029 13.8871C23.515 13.2466 24.6395 12.7807 25.8056 12.5185L25.974 11.4748C26.0566 10.9617 26.494 10.5895 27.014 10.5895H29.1809C29.7009 10.5895 30.1383 10.9623 30.2209 11.4754L30.3893 12.5185C31.556 12.7807 32.6805 13.2466 33.692 13.8871L34.5493 13.2684C34.9705 12.964 35.5433 13.0099 35.9111 13.3777L37.4432 14.9097C37.811 15.2775 37.8569 15.8503 37.5525 16.2715L36.9337 17.1288C37.5742 18.1408 38.0402 19.2647 38.3024 20.4314L39.3461 20.5998C39.8593 20.6824 40.232 21.1204 40.232 21.6397V23.8067C40.232 24.3266 39.8593 24.764 39.3461 24.8466L38.3024 25.0156ZM37.5028 23.5364L38.6435 23.3519V22.0951L37.5028 21.9106C37.1667 21.8565 36.902 21.5931 36.8461 21.257C36.6268 19.9375 36.0994 18.6639 35.3203 17.5736C35.1221 17.2966 35.1234 16.9238 35.3228 16.648L35.9993 15.7105L35.1103 14.8215L34.1734 15.498C33.897 15.6975 33.5248 15.6981 33.2477 15.5005C32.1568 14.7215 30.8832 14.194 29.5643 13.9747C29.2281 13.9188 28.9654 13.6548 28.9107 13.3181L28.7262 12.1775H27.4687L27.2842 13.3181C27.2302 13.6542 26.9667 13.9188 26.6306 13.9747C25.3117 14.194 24.0381 14.7215 22.9471 15.5005C22.6701 15.6987 22.2973 15.6975 22.0215 15.498L21.084 14.8215L20.1949 15.7105L20.8715 16.648C21.0709 16.9244 21.0715 17.2966 20.874 17.5743C20.0949 18.6646 19.5674 19.9381 19.3481 21.2577C19.2922 21.5938 19.0282 21.8565 18.6915 21.9112L17.5502 22.0951V23.3525L18.6908 23.537C19.0269 23.5911 19.2916 23.8545 19.3475 24.1906C19.5668 25.5095 20.0943 26.7831 20.8734 27.874C21.0715 28.1511 21.0703 28.5238 20.8709 28.7997L20.1943 29.7365L21.0833 30.6255L22.0208 29.949C22.2973 29.7495 22.6694 29.7489 22.9471 29.9465C24.0375 30.7255 25.3111 31.253 26.6306 31.4723C26.9667 31.5282 27.2295 31.7922 27.2842 32.1289L27.4687 33.2696H28.7262L28.9107 32.1289C28.9647 31.7928 29.2281 31.5282 29.5643 31.4723C30.8832 31.253 32.1568 30.7255 33.2477 29.9465C33.5248 29.7483 33.8976 29.7495 34.1734 29.949L35.1103 30.6255L35.9993 29.7365L35.3228 28.799C35.1234 28.5226 35.1227 28.1504 35.3203 27.8727C36.0994 26.7824 36.6268 25.5089 36.8461 24.1893C36.902 23.8539 37.1667 23.5911 37.5028 23.5364ZM34.7382 22.7238C34.7382 26.3855 31.7586 29.365 28.0968 29.365C24.4351 29.365 21.4555 26.3855 21.4555 22.7238C21.4555 19.0615 24.4351 16.0826 28.0968 16.0826C31.7586 16.0826 34.7382 19.0615 34.7382 22.7238ZM33.1508 22.7238C33.1508 19.9375 30.8838 17.6699 28.0974 17.6699C25.3111 17.6699 23.0441 19.9369 23.0441 22.7238C23.0441 25.5107 25.3111 27.7771 28.0974 27.7771C30.8838 27.7771 33.1508 25.5101 33.1508 22.7238Z" fill="#1742E7"></path></svg>