<svg xmlns="http://www.w3.org/2000/svg" viewBox="0 0 57 52" fill="none"><path d="M20.4337 11.2648C20.9168 11.2648 21.3085 10.8732 21.3085 10.39C21.3085 9.90685 20.9168 9.51517 20.4337 9.51517C19.9505 9.51517 19.5588 9.90685 19.5588 10.39C19.5588 10.8732 19.9505 11.2648 20.4337 11.2648Z" fill="#1742E7"></path><path d="M11.2436 22.3447C11.7267 22.3447 12.1184 21.953 12.1184 21.4699C12.1184 20.9867 11.7267 20.595 11.2436 20.595C10.7604 20.595 10.3688 20.9867 10.3688 21.4699C10.3688 21.953 10.7604 22.3447 11.2436 22.3447Z" fill="#1742E7"></path><path d="M44.942 22.3447C45.4252 22.3447 45.8168 21.953 45.8168 21.4699C45.8168 20.9867 45.4252 20.595 44.942 20.595C44.4588 20.595 44.0672 20.9867 44.0672 21.4699C44.0672 21.953 44.4588 22.3447 44.942 22.3447Z" fill="#1742E7"></path><path d="M35.7519 11.2648C36.2351 11.2648 36.6267 10.8732 36.6267 10.39C36.6267 9.90685 36.2351 9.51517 35.7519 9.51517C35.2688 9.51517 34.8771 9.90685 34.8771 10.39C34.8771 10.8732 35.2688 11.2648 35.7519 11.2648Z" fill="#1742E7"></path><path d="M10.9505 47.5663C11.4337 47.5663 11.8253 47.1747 11.8253 46.6915C11.8253 46.2083 11.4337 45.8167 10.9505 45.8167C10.4674 45.8167 10.0757 46.2083 10.0757 46.6915C10.0757 47.1747 10.4674 47.5663 10.9505 47.5663Z" fill="#1742E7"></path><path d="M45.9656 47.5663C46.4487 47.5663 46.8404 47.1747 46.8404 46.6915C46.8404 46.2083 46.4487 45.8167 45.9656 45.8167C45.4824 45.8167 45.0907 46.2083 45.0907 46.6915C45.0907 47.1747 45.4824 47.5663 45.9656 47.5663Z" fill="#1742E7"></path><path d="M56.376 28.6917C56.4634 28.5081 56.4841 28.2999 56.4346 28.1027C56.3851 27.9055 56.2685 27.7318 56.1048 27.6112L53.6772 25.8616C53.5845 25.7887 53.4781 25.7353 53.3642 25.7046C53.2504 25.6739 53.1315 25.6665 53.0148 25.6829C52.898 25.6992 52.7858 25.7391 52.6848 25.7999C52.5838 25.8608 52.4962 25.9414 52.4272 26.037C52.3581 26.1326 52.3092 26.2411 52.2831 26.3561C52.2571 26.4711 52.2546 26.5902 52.2757 26.7062C52.2969 26.8221 52.3413 26.9327 52.4062 27.0311C52.4711 27.1295 52.5553 27.2137 52.6536 27.2788L52.8855 27.445H40.0561C39.8241 27.445 39.6016 27.5372 39.4375 27.7012C39.2734 27.8653 39.1813 28.0878 39.1813 28.3199C39.1813 28.5519 39.2734 28.7744 39.4375 28.9385C39.6016 29.1025 39.8241 29.1947 40.0561 29.1947H52.8855L52.658 29.3609C52.4805 29.5005 52.3639 29.7033 52.3325 29.927C52.3011 30.1506 52.3574 30.3777 52.4896 30.5608C52.6218 30.7438 52.8197 30.8687 53.0419 30.9092C53.264 30.9497 53.4932 30.9028 53.6816 30.7782L55.8905 29.1947C56.0957 29.0751 56.2637 28.901 56.376 28.6917Z" fill="#1742E7"></path><path d="M4.51177 29.3347L4.29306 29.1947H17.0874C17.3195 29.1947 17.542 29.1025 17.706 28.9385C17.8701 28.7744 17.9623 28.5519 17.9623 28.3199C17.9623 28.0878 17.8701 27.8653 17.706 27.7013C17.542 27.5372 17.3195 27.445 17.0874 27.445H4.29306L4.51177 27.305C4.60948 27.2433 4.69397 27.1627 4.76038 27.0681C4.82678 26.9735 4.87377 26.8667 4.89864 26.7538C4.9235 26.6409 4.92575 26.5242 4.90525 26.4104C4.88474 26.2966 4.84189 26.1881 4.77918 26.091C4.71646 25.9939 4.63513 25.9101 4.53987 25.8447C4.44461 25.7792 4.33731 25.7332 4.22419 25.7094C4.11106 25.6857 3.99434 25.6846 3.88078 25.7062C3.76722 25.7278 3.65907 25.7717 3.56258 25.8353L0.837483 27.585C0.720995 27.6684 0.62607 27.7784 0.560584 27.9058C0.495097 28.0332 0.460937 28.1744 0.460938 28.3177C0.460938 28.4609 0.495097 28.6021 0.560584 28.7296C0.62607 28.857 0.720995 28.967 0.837483 29.0503L3.55383 30.8C3.65032 30.8637 3.75848 30.9076 3.87204 30.9292C3.9856 30.9508 4.10231 30.9497 4.21544 30.9259C4.32856 30.9021 4.43586 30.8562 4.53112 30.7907C4.62638 30.7252 4.70772 30.6415 4.77043 30.5444C4.83315 30.4473 4.87599 30.3387 4.8965 30.2249C4.917 30.1112 4.91476 29.9945 4.88989 29.8816C4.86502 29.7687 4.81803 29.6618 4.75163 29.5672C4.68523 29.4726 4.60073 29.3921 4.50302 29.3303L4.51177 29.3347Z" fill="#1742E7"></path><path d="M8.36539 8.41287C8.31893 8.56691 8.31893 8.73124 8.36539 8.88528C8.36539 8.88528 8.36539 8.88528 8.36539 8.9159L9.6164 12.6952C9.65316 12.8046 9.71112 12.9058 9.78696 12.9928C9.8628 13.0798 9.95504 13.1511 10.0584 13.2024C10.1618 13.2538 10.2743 13.2843 10.3894 13.2922C10.5046 13.3002 10.6202 13.2853 10.7296 13.2485C10.839 13.2118 10.9402 13.1538 11.0272 13.078C11.1142 13.0021 11.1855 12.9099 11.2368 12.8065C11.2882 12.7032 11.3187 12.5907 11.3266 12.4755C11.3346 12.3603 11.3197 12.2447 11.2829 12.1353L11.1911 11.8554L19.9613 20.6038C20.1254 20.7679 20.348 20.8601 20.5802 20.8601C20.8123 20.8601 21.035 20.7679 21.1991 20.6038C21.3633 20.4396 21.4555 20.217 21.4555 19.9848C21.4555 19.7527 21.3633 19.53 21.1991 19.3659L12.4508 10.6175L12.6696 10.6918C12.7812 10.7586 12.9063 10.7997 13.0358 10.8121C13.1653 10.8244 13.2959 10.8078 13.4182 10.7632C13.5404 10.7187 13.6512 10.6475 13.7424 10.5548C13.8337 10.4621 13.9031 10.3502 13.9456 10.2272C13.9882 10.1043 14.0027 9.97339 13.9883 9.84409C13.9739 9.7148 13.9308 9.59036 13.8622 9.47983C13.7936 9.3693 13.7012 9.27546 13.5917 9.20514C13.4823 9.13483 13.3585 9.08981 13.2294 9.07337L9.47643 7.80923H9.44143C9.21871 7.74725 8.98051 7.77595 8.77888 7.88906C8.57725 8.00217 8.4286 8.19049 8.36539 8.41287Z" fill="#1742E7"></path><path d="M13.5881 46.6915C13.5881 46.9235 13.6803 47.146 13.8443 47.3101C14.0084 47.4742 14.2309 47.5663 14.4629 47.5663H42.4575C42.6895 47.5663 42.912 47.4742 43.0761 47.3101C43.2402 47.146 43.3323 46.9235 43.3323 46.6915C43.3323 46.4595 43.2402 46.237 43.0761 46.0729C42.912 45.9088 42.6895 45.8167 42.4575 45.8167H14.4629C14.2309 45.8167 14.0084 45.9088 13.8443 46.0729C13.6803 46.237 13.5881 46.4595 13.5881 46.6915Z" fill="#1742E7"></path><path d="M48.5813 49.316H7.90173C7.66971 49.316 7.44719 49.4082 7.28313 49.5722C7.11907 49.7363 7.0269 49.9588 7.0269 50.1909C7.0269 50.4229 7.11907 50.6454 7.28313 50.8095C7.44719 50.9735 7.66971 51.0657 7.90173 51.0657H48.5813C48.8133 51.0657 49.0358 50.9735 49.1999 50.8095C49.364 50.6454 49.4561 50.4229 49.4561 50.1909C49.4561 49.9588 49.364 49.7363 49.1999 49.5722C49.0358 49.4082 48.8133 49.316 48.5813 49.316Z" fill="#1742E7"></path><path d="M26.3125 5.48216C26.4153 5.53407 26.5273 5.56517 26.6421 5.57369C26.757 5.58221 26.8724 5.56798 26.9817 5.53181C27.091 5.49564 27.1921 5.43825 27.2792 5.36292C27.3663 5.2876 27.4376 5.19582 27.4892 5.09286L27.581 4.90914V15.1973C27.581 15.4293 27.6732 15.6518 27.8373 15.8159C28.0013 15.9799 28.2238 16.0721 28.4559 16.0721C28.6879 16.0721 28.9104 15.9799 29.0744 15.8159C29.2385 15.6518 29.3307 15.4293 29.3307 15.1973V4.90914L29.4225 5.09286C29.5264 5.30052 29.7084 5.45842 29.9287 5.53184C30.1489 5.60526 30.3893 5.58818 30.597 5.48435C30.8047 5.38052 30.9626 5.19845 31.036 4.97819C31.1094 4.75794 31.0923 4.51753 30.9885 4.30987L29.2388 0.810514V0.779895C29.1817 0.6767 29.1043 0.586116 29.0113 0.513589C28.9183 0.441061 28.8116 0.388087 28.6976 0.357851C28.5836 0.327615 28.4647 0.320742 28.348 0.337643C28.2313 0.354545 28.1192 0.394874 28.0184 0.456204C27.8878 0.551277 27.7777 0.671796 27.6947 0.810514L25.9451 4.30987C25.84 4.51436 25.8197 4.75199 25.8884 4.97136C25.9572 5.19074 26.1095 5.37423 26.3125 5.48216Z" fill="#1742E7"></path><path d="M19.7119 43.1921V36.1934C19.7119 33.7701 21.6365 31.6792 24.4141 30.6863C23.8389 30.3421 23.3098 29.9261 22.8394 29.4484C19.9088 30.8307 17.9623 33.3371 17.9623 36.1934V43.1921C17.9623 43.4242 18.0544 43.6467 18.2185 43.8107C18.3826 43.9748 18.6051 44.067 18.8371 44.067C19.0691 44.067 19.2916 43.9748 19.4557 43.8107C19.6198 43.6467 19.7119 43.4242 19.7119 43.1921Z" fill="#1742E7"></path><path d="M34.081 29.4484C33.6107 29.9261 33.0815 30.3421 32.5063 30.6863C35.2839 31.6792 37.2085 33.7701 37.2085 36.1934V43.1921C37.2085 43.4242 37.3007 43.6467 37.4647 43.8107C37.6288 43.9748 37.8513 44.067 38.0833 44.067C38.3154 44.067 38.5379 43.9748 38.7019 43.8107C38.866 43.6467 38.9582 43.4242 38.9582 43.1921V36.1934C38.9582 33.3371 37.0029 30.8307 34.081 29.4484Z" fill="#1742E7"></path><path d="M28.4602 30.0695C29.6714 30.0695 30.8554 29.7104 31.8624 29.0375C32.8695 28.3646 33.6544 27.4082 34.1179 26.2892C34.5814 25.1702 34.7026 23.9389 34.4664 22.7509C34.2301 21.563 33.6468 20.4719 32.7904 19.6154C31.934 18.759 30.8428 18.1757 29.6549 17.9394C28.467 17.7032 27.2357 17.8244 26.1167 18.2879C24.9978 18.7514 24.0414 19.5363 23.3685 20.5434C22.6956 21.5505 22.3364 22.7345 22.3364 23.9457C22.3364 25.5698 22.9816 27.1274 24.13 28.2759C25.2785 29.4243 26.8361 30.0695 28.4602 30.0695ZM28.4602 19.5715C29.3253 19.5715 30.171 19.828 30.8904 20.3086C31.6097 20.7893 32.1703 21.4724 32.5014 22.2717C32.8325 23.071 32.9191 23.9505 32.7503 24.799C32.5815 25.6475 32.1649 26.4269 31.5532 27.0387C30.9415 27.6504 30.1621 28.067 29.3136 28.2358C28.4651 28.4046 27.5856 28.318 26.7863 27.9869C25.987 27.6558 25.3039 27.0952 24.8232 26.3758C24.3426 25.6565 24.0861 24.8108 24.0861 23.9457C24.0861 22.7855 24.5469 21.673 25.3672 20.8526C26.1875 20.0323 27.3001 19.5715 28.4602 19.5715Z" fill="#1742E7"></path><path d="M44.2421 10.7268L44.4609 10.6525L35.7126 19.4009C35.5484 19.565 35.4562 19.7877 35.4562 20.0198C35.4562 20.252 35.5484 20.4746 35.7126 20.6388C35.8767 20.8029 36.0994 20.8951 36.3315 20.8951C36.5637 20.8951 36.7863 20.8029 36.9504 20.6388L45.7206 11.8904L45.6287 12.1703C45.5557 12.3907 45.5731 12.6312 45.6773 12.8387C45.7815 13.0462 45.9638 13.2039 46.1843 13.277C46.4047 13.3501 46.6451 13.3326 46.8526 13.2284C47.0602 13.1242 47.2178 12.9419 47.2909 12.7215L48.5419 8.94215C48.5419 8.94215 48.5419 8.94215 48.5419 8.91153C48.5844 8.7617 48.5862 8.60324 48.547 8.45251C48.5078 8.30177 48.4291 8.16424 48.3189 8.05411C48.2088 7.94398 48.0713 7.86525 47.9205 7.82605C47.7698 7.78684 47.6113 7.78859 47.4615 7.8311H47.4265L43.6866 9.07338C43.5737 9.10651 43.4686 9.16208 43.3777 9.23677C43.2868 9.31146 43.2118 9.40372 43.1574 9.50805C43.1029 9.61237 43.0701 9.72661 43.0608 9.84392C43.0516 9.96123 43.0661 10.0792 43.1034 10.1908C43.1408 10.3024 43.2003 10.4053 43.2784 10.4933C43.3565 10.5813 43.4515 10.6527 43.5579 10.7032C43.6642 10.7536 43.7796 10.7821 43.8971 10.7869C44.0147 10.7917 44.1321 10.7728 44.2421 10.7312V10.7268Z" fill="#1742E7"></path></svg>