<svg xmlns="http://www.w3.org/2000/svg" viewBox="0 0 57 57" fill="none"><path d="M56.2734 56.3687H27.1534V27.2487H56.2734V56.3687ZM29.3934 54.1287H54.0334V29.4887H29.3934V54.1287Z" fill="#1742E7"></path><path d="M29.3934 56.3687H0.273438V27.2487H29.3934V56.3687ZM2.51344 54.1287H27.1534V29.4887H2.51344V54.1287Z" fill="#1742E7"></path><path d="M29.3934 29.4887H0.273438V0.368652H29.3934V29.4887ZM2.51344 27.2487H27.1534V2.60865H2.51344V27.2487Z" fill="#1742E7"></path><path d="M20.4334 13.1479L14.8334 7.54785L9.23344 12.9799V0.368652H20.4334V13.1479ZM14.8334 4.38945L18.1934 7.74945V2.60865H11.4734V7.67105L14.8334 4.38945Z" fill="#1742E7"></path><path d="M20.4334 40.0279L14.8334 34.4279L9.23344 39.8599V27.2487H20.4334V40.0279ZM14.8334 31.2695L18.1934 34.6295V29.4887H11.4734V34.5511L14.8334 31.2695Z" fill="#1742E7"></path><path d="M47.3134 40.0167L41.7134 34.4167L36.1134 39.8487V27.2487H47.3134V40.0167ZM41.7134 31.2695L45.0734 34.6295V29.4887H38.3534V34.5511L41.7134 31.2695Z" fill="#1742E7"></path></svg>