<svg xmlns="http://www.w3.org/2000/svg" viewBox="0 0 60 57" fill="none"><path d="M31.3134 13.6103H27.2451C26.793 13.6103 26.3975 14.0055 26.3975 14.4575C26.3975 14.9101 26.793 15.3056 27.2451 15.3056H31.3134C31.7654 15.3056 32.161 14.9101 32.161 14.4575C32.161 14.0054 31.7654 13.6103 31.3134 13.6103Z" fill="#1742E7"></path><path d="M30.4089 50.6798H28.2055C27.1884 50.6798 26.3408 51.5275 26.3408 52.5446C26.3408 53.5613 27.1884 54.409 28.2055 54.409H30.4089C31.4261 54.409 32.2737 53.5614 32.2737 52.5446C32.2737 51.5274 31.426 50.6798 30.4089 50.6798ZM30.4089 52.7707H28.2055C28.0925 52.7707 28.036 52.7141 28.036 52.6011C28.036 52.4881 28.0925 52.4316 28.2055 52.4316H30.4089C30.5219 52.4316 30.5784 52.4881 30.5784 52.6011C30.5784 52.7141 30.5219 52.7707 30.4089 52.7707Z" fill="#1742E7"></path><path d="M52.9566 22.5949C53.1261 21.9167 53.1826 21.2387 53.1826 20.5605C53.1826 15.136 48.7748 10.7848 43.4069 10.7848C43.1809 10.7848 42.8984 10.7848 42.6723 10.8413C42.2767 5.07729 37.4169 0.5 31.54 0.5C27.1892 0.5 23.2335 3.04293 21.4252 6.94206C20.069 6.37696 18.5998 6.09441 17.1304 6.09441C10.9709 6.09441 5.94199 11.1238 5.94199 17.2829C5.94199 19.1477 6.39407 20.956 7.29819 22.5948C3.39907 22.8773 0.291016 26.155 0.291016 30.1105C0.291016 34.2918 3.68158 37.6824 7.86332 37.6824H17.8086V53.0533C17.8086 54.9177 19.3344 56.5 21.2557 56.5H37.4735C39.3382 56.5 40.9206 54.9742 40.9206 53.0533V37.6824H51.996C56.1778 37.6824 59.5683 34.2918 59.5683 30.1105C59.4553 26.2679 56.6298 23.1034 52.9566 22.5949ZM39.1123 48.5322H19.4473V18.0173H39.1123V48.5322ZM19.4473 16.3225V13.8365C19.4473 12.8758 20.2385 12.0847 21.1992 12.0847H37.4169C38.3776 12.0847 39.1688 12.8758 39.1688 13.8365V16.3225H19.4473ZM37.4175 54.7481H21.1998C20.2391 54.7481 19.4479 53.957 19.4479 52.9967V50.2277H39.1129V52.9967C39.1129 53.9569 38.3781 54.7481 37.4175 54.7481ZM51.8839 35.9311H40.8085V13.8362C40.8085 11.9714 39.2827 10.389 37.3614 10.389H21.1437C19.2789 10.389 17.6965 11.9148 17.6965 13.8362V35.9311H7.75126C4.53018 35.9311 1.87423 33.2756 1.87423 30.0545C1.87423 26.8334 4.53018 24.1775 7.75126 24.1775H8.76843C9.10749 24.1775 9.38957 24.0079 9.5026 23.7254C9.67212 23.4428 9.61561 23.1038 9.44608 22.8212C8.20338 21.1824 7.58168 19.2046 7.58168 17.1702C7.58168 11.9718 11.8194 7.67705 17.0748 7.67705C18.6006 7.67705 20.0699 8.01611 21.4261 8.75073C21.6521 8.86375 21.8782 8.86375 22.1042 8.80724C22.3302 8.69422 22.4998 8.5247 22.6128 8.29866C23.969 4.56901 27.5291 2.08254 31.4844 2.08254C36.6832 2.08254 40.978 6.32075 40.978 11.5762V11.6892C40.978 11.9153 41.091 12.1978 41.2605 12.3673C41.4301 12.5369 41.7126 12.5934 41.9387 12.5369C42.4472 12.4238 42.8993 12.4238 43.3514 12.4238C47.8157 12.4238 51.4318 16.04 51.4318 20.5043C51.4318 21.3519 51.3188 22.1995 51.0363 23.0472C50.9232 23.3297 50.9797 23.6123 51.1493 23.7818C51.3188 24.0079 51.5448 24.1209 51.8274 24.1209C55.0485 24.1209 57.6478 26.7768 57.6478 29.9979C57.7609 33.2754 55.1049 35.9309 51.8838 35.9309L51.8839 35.9311Z" fill="#1742E7"></path></svg>