<svg xmlns="http://www.w3.org/2000/svg" viewBox="0 0 57 48" fill="none"><path d="M14.8648 27.0687C14.1735 27.0687 13.6109 27.6298 13.6109 28.3226V36.9543C13.6109 37.6471 14.1735 38.2083 14.8648 38.2083C15.5576 38.2083 16.1202 37.6471 16.1202 36.9543V28.3226C16.1202 27.6298 15.5576 27.0687 14.8648 27.0687Z" fill="#1742E7"></path><path d="M23.0029 20.1133V36.9543C23.0029 37.6471 23.5641 38.2083 24.2568 38.2083C24.9496 38.2083 25.5108 37.6471 25.5108 36.9543V20.1133C25.5108 19.4205 24.9496 18.8594 24.2568 18.8594C23.5641 18.8594 23.0029 19.4205 23.0029 20.1133Z" fill="#1742E7"></path><path d="M33.6488 27.0687C32.9561 27.0687 32.3949 27.6298 32.3949 28.3226V36.9543C32.3949 37.6471 32.9561 38.2083 33.6488 38.2083C34.3402 38.2083 34.9028 37.6471 34.9028 36.9543V28.3226C34.9028 27.6298 34.3402 27.0687 33.6488 27.0687Z" fill="#1742E7"></path><path d="M43.0394 18.8594C42.3467 18.8594 41.7855 19.4205 41.7855 20.1133V36.9543C41.7855 37.6471 42.3467 38.2083 43.0394 38.2083C43.7322 38.2083 44.2934 37.6471 44.2934 36.9543V20.1133C44.2934 19.4205 43.7322 18.8594 43.0394 18.8594Z" fill="#1742E7"></path><path d="M4.22033 11.1366V34.6493C4.22033 35.3421 4.78146 35.9032 5.47424 35.9032C6.16703 35.9032 6.72815 35.3421 6.72815 34.6493V11.1366C8.99167 10.5726 10.6743 8.52384 10.6743 6.0885C10.6743 3.22018 8.34183 0.88623 5.47354 0.88623C2.60525 0.88623 0.273438 3.22018 0.273438 6.0885C0.273438 8.52384 1.95541 10.5733 4.22033 11.1366ZM5.47424 3.39619C6.95767 3.39619 8.16652 4.60365 8.16652 6.0885C8.16652 7.57195 6.95767 8.78082 5.47424 8.78082C3.9894 8.78082 2.78196 7.57195 2.78196 6.0885C2.78196 4.60365 3.9894 3.39619 5.47424 3.39619Z" fill="#1742E7"></path><path d="M46.026 41.4702H13.7912C13.0984 41.4702 12.5358 42.0313 12.5358 42.7241C12.5358 43.4169 13.0984 43.9794 13.7912 43.9794H46.026C46.5886 46.243 48.6373 47.9257 51.0726 47.9257C53.9409 47.9257 56.2734 45.5924 56.2734 42.7234C56.2734 39.8565 53.9409 37.5225 51.0726 37.5225C48.6373 37.5239 46.5886 39.2066 46.026 41.4702ZM51.0726 40.0318C52.5575 40.0318 53.7649 41.2392 53.7649 42.7241C53.7649 44.2089 52.5575 45.4178 51.0726 45.4178C49.5878 45.4178 48.3804 44.2089 48.3804 42.7241C48.3804 41.2392 49.5871 40.0318 51.0726 40.0318Z" fill="#1742E7"></path><path d="M5.47424 47.9264C8.34254 47.9264 10.675 45.5931 10.675 42.7241C10.675 39.8572 8.34254 37.5232 5.47424 37.5232C2.60595 37.5232 0.273438 39.8572 0.273438 42.7248C0.273438 45.5931 2.60595 47.9264 5.47424 47.9264ZM5.47424 40.0318C6.95767 40.0318 8.16652 41.2392 8.16652 42.7241C8.16652 44.2089 6.95767 45.4178 5.47424 45.4178C3.9894 45.4178 2.78196 44.2089 2.78196 42.7241C2.78196 41.2392 3.9894 40.0318 5.47424 40.0318Z" fill="#1742E7"></path><path d="M25.3101 8.01128C25.3087 8.00987 25.3073 8.00706 25.3059 8.00565L25.296 7.99087C25.2904 7.98382 25.2833 7.97678 25.2798 7.96904C25.2622 7.94581 25.2439 7.91976 25.2249 7.89723C25.2151 7.88314 25.2031 7.87117 25.1918 7.85991C25.177 7.8409 25.1601 7.8226 25.1439 7.8064C25.1263 7.79021 25.1094 7.77472 25.0918 7.75853C25.0792 7.74726 25.0672 7.7367 25.0531 7.72544C25.0299 7.70643 25.0067 7.68953 24.9813 7.67052C24.9743 7.6663 24.9665 7.65925 24.9595 7.65433C24.9567 7.65292 24.9553 7.65292 24.9539 7.65151C24.9278 7.63532 24.9018 7.61983 24.8757 7.60504C24.8644 7.598 24.8553 7.59096 24.844 7.58603C24.8236 7.57477 24.7997 7.56561 24.7792 7.55576C24.7616 7.54731 24.7462 7.53957 24.7286 7.53253C24.7159 7.5283 24.7039 7.52408 24.6912 7.51844C24.5497 7.46634 24.4026 7.43889 24.2568 7.44029C24.2238 7.44029 24.1921 7.4417 24.159 7.44593C24.1519 7.44593 24.1449 7.44593 24.1372 7.44593C24.0618 7.45297 23.9872 7.46775 23.9133 7.48887C23.909 7.49028 23.9048 7.49169 23.902 7.49169C23.8774 7.49873 23.8541 7.50788 23.8288 7.51633C23.814 7.52196 23.7985 7.5276 23.7837 7.53253C23.7689 7.53957 23.752 7.54731 23.7373 7.55435C23.7154 7.56421 23.6922 7.57477 23.6697 7.58603C23.6584 7.59166 23.6493 7.59871 23.638 7.60504C23.6119 7.61983 23.5859 7.63391 23.5598 7.65151C23.5584 7.65292 23.557 7.65292 23.5542 7.65433C23.5458 7.65996 23.5394 7.667 23.531 7.67193C23.5063 7.68953 23.4831 7.70643 23.4606 7.72544C23.4465 7.7367 23.4345 7.74726 23.4204 7.75993C23.4042 7.77472 23.3859 7.79021 23.3712 7.8064C23.3535 7.8226 23.3367 7.84231 23.3205 7.85991C23.3106 7.87258 23.3 7.88314 23.2888 7.89723C23.2698 7.91905 23.2515 7.9451 23.2339 7.96904C23.2282 7.97749 23.2226 7.98382 23.2177 7.99087L23.2092 8.00565C23.2078 8.00706 23.205 8.00987 23.2036 8.01128L13.8264 21.8847C13.4384 22.4578 13.5884 23.2379 14.1636 23.6258C14.3783 23.7716 14.6226 23.842 14.8634 23.842C15.2676 23.842 15.6625 23.6484 15.9047 23.2893L24.2568 10.9338L32.5956 23.2689C32.597 23.2717 32.5984 23.2731 32.5998 23.2759L32.6097 23.29C32.6125 23.2956 32.6167 23.2999 32.6195 23.3041C32.6428 23.3372 32.6674 23.3703 32.6949 23.402C32.7047 23.4132 32.7139 23.4238 32.7237 23.4336C32.7456 23.4583 32.7688 23.4815 32.7941 23.504C32.8068 23.5167 32.8188 23.5287 32.8314 23.54C32.8547 23.559 32.8807 23.5787 32.9054 23.5977C32.9195 23.6075 32.9314 23.6181 32.9455 23.628C32.9455 23.628 32.9455 23.628 32.9469 23.628C32.9483 23.6294 32.9497 23.6294 32.9511 23.6308C32.9976 23.6625 33.0462 23.6899 33.0969 23.7131C33.1131 23.7216 33.1314 23.7293 33.1476 23.7364C33.1835 23.7512 33.218 23.7653 33.2532 23.7779C33.275 23.785 33.2961 23.792 33.3179 23.7969C33.3524 23.8068 33.3869 23.8131 33.4207 23.8202C33.4426 23.8244 33.4623 23.8286 33.4827 23.8314C33.5334 23.8385 33.5855 23.8427 33.6383 23.8427C33.6411 23.8427 33.6439 23.8441 33.6481 23.8441C33.6481 23.8441 33.6481 23.8427 33.6496 23.8427V23.8441C33.6538 23.8441 33.6566 23.8427 33.6608 23.8427C33.7129 23.8427 33.7636 23.8385 33.815 23.8314C33.8354 23.8286 33.8551 23.8244 33.877 23.8202C33.9115 23.8131 33.946 23.8061 33.9798 23.7969C34.0016 23.7913 34.0227 23.7843 34.0445 23.7779C34.0804 23.7653 34.1163 23.7519 34.1501 23.7364C34.1677 23.7293 34.1846 23.7216 34.2022 23.7131C34.2515 23.6899 34.3001 23.6625 34.3452 23.6308C34.348 23.6294 34.3494 23.6294 34.3508 23.628H34.3522C34.3663 23.6181 34.3782 23.6075 34.3923 23.5977C34.417 23.5787 34.443 23.559 34.4663 23.54C34.4803 23.5287 34.4909 23.5167 34.5036 23.5055C34.5282 23.4822 34.5514 23.459 34.574 23.4336C34.5838 23.4238 34.593 23.4132 34.6028 23.402C34.6289 23.3703 34.6549 23.3372 34.6782 23.3041C34.681 23.2985 34.6852 23.2956 34.688 23.29L34.6979 23.2759C34.6993 23.2731 34.7007 23.2717 34.7021 23.2689L42.0122 12.4567L42.1087 14.0324C42.1488 14.6977 42.7015 15.211 43.3584 15.211C43.3844 15.211 43.4091 15.2096 43.4351 15.2081C44.1265 15.1666 44.6531 14.5717 44.6109 13.881L44.2934 8.61818C44.2919 8.60973 44.2905 8.60199 44.2905 8.59354C44.2891 8.57312 44.2863 8.55059 44.2835 8.53017C44.2821 8.52454 44.2821 8.5175 44.2807 8.51257C44.2793 8.50412 44.2793 8.49779 44.2779 8.49074C44.2779 8.4837 44.275 8.47807 44.275 8.47314C44.2708 8.45273 44.2652 8.4316 44.261 8.41119C44.2567 8.39499 44.2539 8.3795 44.2497 8.36472C44.2497 8.36331 44.2497 8.36331 44.2497 8.36331C44.2483 8.36049 44.2469 8.35768 44.2469 8.35486C44.2469 8.35486 44.2469 8.35345 44.2455 8.35345C44.2398 8.33304 44.2328 8.31332 44.2279 8.29431C44.2222 8.27812 44.2166 8.26122 44.2117 8.24644C44.2103 8.24081 44.2075 8.23799 44.2061 8.23376C44.199 8.21475 44.1899 8.19504 44.1814 8.17603C44.1744 8.16125 44.1687 8.14717 44.1624 8.13308C44.1596 8.12886 44.1582 8.12464 44.1554 8.12041C44.1469 8.10281 44.1349 8.08451 44.1251 8.0655C44.1223 8.05986 44.118 8.05564 44.1152 8.05071C44.111 8.04367 44.1082 8.03593 44.1026 8.02888C44.0997 8.02466 44.0969 8.01903 44.0927 8.0148C44.0843 7.99861 44.0737 7.98594 44.0638 7.97186C44.0554 7.95918 44.0476 7.94862 44.0392 7.93736C44.0378 7.93595 44.0364 7.93172 44.0336 7.93032C44.0293 7.92468 44.0265 7.91764 44.0223 7.91271C44.0124 7.90145 44.0033 7.8923 43.9934 7.88103C43.9836 7.86836 43.973 7.85639 43.9617 7.84512C43.9589 7.8409 43.9575 7.83949 43.9547 7.83668C43.9505 7.83104 43.9449 7.82541 43.9399 7.82048C43.9315 7.81203 43.9223 7.80429 43.9139 7.79584C43.9026 7.78598 43.892 7.77683 43.8822 7.76697C43.8766 7.76134 43.8723 7.75571 43.8681 7.75219C43.8611 7.74656 43.8554 7.74093 43.8491 7.736C43.8392 7.72896 43.8315 7.72191 43.8216 7.71558C43.8132 7.70995 43.8069 7.70431 43.7998 7.69939C43.79 7.69235 43.7822 7.68319 43.771 7.67615C43.7639 7.67052 43.7569 7.66629 43.7491 7.66137C43.7477 7.65996 43.7449 7.65855 43.7421 7.65573C43.7322 7.6501 43.7245 7.64588 43.716 7.64095C43.7146 7.63954 43.7146 7.63954 43.7146 7.63954C43.6998 7.62968 43.6829 7.62053 43.6682 7.61067C43.6611 7.60645 43.652 7.60082 43.6449 7.59659C43.6323 7.58955 43.6203 7.58392 43.6076 7.57758C43.5914 7.56914 43.5759 7.56139 43.5583 7.55435C43.5513 7.55013 43.5435 7.54731 43.5365 7.54449C43.5224 7.53745 43.509 7.53323 43.4964 7.5283C43.4788 7.52126 43.4619 7.51422 43.4457 7.50929C43.4372 7.50647 43.4295 7.50366 43.421 7.50084C43.407 7.49662 43.3936 7.49239 43.3795 7.48817C43.3619 7.48394 43.3464 7.47831 43.3288 7.47409C43.3204 7.47268 43.3112 7.47127 43.3028 7.46845C43.288 7.46564 43.2725 7.46282 43.2584 7.46001C43.2422 7.45719 43.2267 7.45437 43.2105 7.45156C43.2007 7.45015 43.1915 7.45015 43.1817 7.44874C43.1641 7.44733 43.1486 7.44593 43.1324 7.44452C43.1183 7.44452 43.1049 7.44029 43.0894 7.44029C43.0796 7.44029 43.069 7.44029 43.0592 7.44029C43.0416 7.44029 43.0247 7.44029 43.0085 7.4417C42.9852 7.4417 42.962 7.44311 42.9381 7.44593C42.9191 7.44733 42.8993 7.45015 42.8817 7.45156C42.8691 7.45437 42.8585 7.45437 42.8458 7.45578C42.8416 7.45719 42.8388 7.45719 42.836 7.45719C42.8289 7.4586 42.8233 7.46001 42.8184 7.46141C42.798 7.46423 42.7797 7.46986 42.7606 7.47409C42.743 7.47831 42.7247 7.48113 42.7085 7.48676L37.6126 8.88009C36.9445 9.06455 36.5495 9.75312 36.734 10.4213C36.8868 10.9796 37.3916 11.3457 37.9428 11.3457C38.0527 11.3457 38.1639 11.3309 38.2744 11.3006L40.105 10.8001L33.6503 20.3499L25.3101 8.01128Z" fill="#1742E7"></path></svg>