<svg xmlns="http://www.w3.org/2000/svg" viewBox="0 0 56 58" fill="none"><path d="M40.4411 8.29685C42.4566 8.29685 44.0859 9.92616 44.0859 11.9417C44.0859 13.9572 42.4566 15.5865 40.4411 15.5865C38.4255 15.5865 36.7962 13.9572 36.7962 11.9417C36.7842 9.92616 38.4255 8.29685 40.4411 8.29685ZM41.8169 10.5537C40.5859 9.32271 38.4738 10.2037 38.4738 11.9417C38.4738 13.6796 40.5859 14.5486 41.8169 13.3296C42.5893 12.5693 42.5893 11.3262 41.8169 10.5537ZM15.1204 52.8072V56.3434C15.1204 56.8141 14.7462 57.1882 14.2755 57.1882H7.42037C6.94968 57.1882 6.57554 56.8141 6.57554 56.3434V52.8072H6.29795C5.82726 52.8072 5.45312 52.4331 5.45312 51.9624V47.6296C5.45312 47.1589 5.82726 46.7848 6.29795 46.7848H6.57554V7.63306C6.57554 7.16237 6.94968 6.78823 7.42037 6.78823H27.4186C27.8893 6.78823 28.2635 7.16237 28.2635 7.63306V26.7865H47.4169C47.8876 26.7865 48.2617 27.1606 48.2617 27.6313V46.7848H48.5393C49.01 46.7848 49.3842 47.1589 49.3842 47.6296V51.9624C49.3842 52.4331 49.01 52.8072 48.5393 52.8072H48.2617V56.3434C48.2617 56.8141 47.8876 57.1882 47.4169 57.1882H40.5617C40.0911 57.1882 39.7169 56.8141 39.7169 56.3434V52.8072H30.7859V56.3434C30.7859 56.8141 30.4117 57.1882 29.9411 57.1882H23.0859C22.6152 57.1882 22.2411 56.8141 22.2411 56.3434V52.8072H15.1204ZM8.26519 52.8072V55.4986H13.4307V52.8072H8.26519ZM41.4066 52.8072V55.4986H46.5721V52.8072H41.4066ZM23.9307 52.8072V55.4986H29.0962V52.8072H23.9307ZM47.6945 48.4744H7.14278V51.1175C20.66 51.1175 34.1773 51.1175 47.6945 51.1175V48.4744ZM22.0721 28.4762V37.54C22.0721 38.0106 21.698 38.3848 21.2273 38.3848H13.6117C13.1411 38.3848 12.7669 38.0106 12.7669 37.54V28.4762H8.26519V46.7848H26.5738V28.4762H22.0721ZM14.4566 28.4762V36.6951H20.3824V28.4762H14.4566ZM42.0704 28.4762V37.54C42.0704 38.0106 41.6962 38.3848 41.2255 38.3848H33.61C33.1393 38.3848 32.7652 38.0106 32.7652 37.54V28.4762H28.2635V46.7848H46.5721V28.4762H42.0704ZM34.4549 28.4762V36.6951H40.3807V28.4762H34.4549ZM22.0721 8.46582V17.5296C22.0721 18.0003 21.698 18.3744 21.2273 18.3744H13.6117C13.1411 18.3744 12.7669 18.0003 12.7669 17.5296V8.46582H8.26519V26.7744H26.5738V8.46582H22.0721ZM14.4566 8.46582V16.6848H20.3824V8.46582H14.4566ZM43.8445 4.8934L44.8462 5.47271L47.3204 4.04858C47.7186 3.81927 48.2376 3.95203 48.4669 4.36237L51.0376 8.79168C51.2669 9.18996 51.1342 9.70892 50.7238 9.93823L48.2497 11.3624V12.521L50.7238 13.9451C51.1342 14.1865 51.2669 14.7055 51.0014 15.14L48.4669 19.5331C48.2376 19.9313 47.7186 20.0762 47.3083 19.8469L44.8342 18.4227L43.8324 19.002V21.8624C43.8324 22.3331 43.4583 22.7072 42.9876 22.7072H37.8583C37.3876 22.7072 37.0135 22.3331 37.0135 21.8624V19.002L36.0117 18.4227L33.5376 19.8469C33.1393 20.0762 32.6204 19.9434 32.3911 19.5331L29.8324 15.0917C29.6031 14.6934 29.7359 14.1744 30.1462 13.9451L32.6204 12.521V11.3624L30.1462 9.93823C29.7359 9.69685 29.5911 9.17789 29.8686 8.7434L32.4031 4.3503C32.6324 3.93996 33.1635 3.8072 33.5497 4.03651L36.0238 5.46065L37.0255 4.88134V2.03306C37.0255 1.56237 37.3997 1.18823 37.8704 1.18823H42.9997C43.4704 1.18823 43.8445 1.56237 43.8445 2.03306V4.8934ZM43.5066 6.61927C43.2652 6.47444 42.9997 6.35375 42.7342 6.24513C42.3962 6.13651 42.1548 5.81065 42.1548 5.43651V2.87789H38.7152V5.43651C38.7152 5.77444 38.51 6.08823 38.1721 6.22099C37.6048 6.43823 37.0738 6.75203 36.6031 7.12616C36.3376 7.33134 35.9635 7.36754 35.6497 7.19858L33.429 5.91927L31.7031 8.9003L33.8876 10.1675C34.2014 10.3244 34.3945 10.6744 34.3342 11.0365C34.2497 11.64 34.2497 12.2555 34.3342 12.8589C34.3824 13.1848 34.2255 13.5348 33.9238 13.7158L31.7031 14.9951L33.429 17.9762L35.6014 16.721C35.9031 16.5158 36.3014 16.5279 36.6031 16.7572C37.0135 17.0831 37.6411 17.4693 38.1238 17.6503C38.4618 17.7589 38.7031 18.0727 38.7031 18.4589V21.0175H42.1428V18.4469C42.1428 18.1089 42.348 17.7951 42.6859 17.6624C43.2531 17.4451 43.7842 17.1313 44.2549 16.7572C44.5204 16.552 44.8945 16.5158 45.2083 16.6848L47.429 17.9641L49.1428 14.9831L46.9583 13.7158C46.6445 13.5589 46.4514 13.2089 46.5117 12.8469C46.5962 12.2434 46.5962 11.6279 46.5117 11.0244C46.4635 10.6986 46.6204 10.3486 46.9221 10.1796L49.1428 8.88823L47.429 5.9072L45.2566 7.16237C44.9548 7.36754 44.5566 7.35547 44.2549 7.12616C44.0255 6.94513 43.7721 6.77616 43.5066 6.61927Z" fill="#1742E7"></path></svg>