<svg xmlns="http://www.w3.org/2000/svg" viewBox="0 0 57 57" fill="none"><path d="M46.7383 0.554315C46.578 0.426675 46.3792 0.357178 46.1743 0.357178C45.9694 0.357178 45.7705 0.426675 45.6102 0.554315L36.5779 7.78017C36.4721 7.86488 36.3867 7.97227 36.328 8.09441C36.2693 8.21654 36.2388 8.35031 36.2387 8.48582V34.6795C36.2387 34.7982 36.262 34.9156 36.3074 35.0252C36.3528 35.1348 36.4193 35.2344 36.5032 35.3183C36.5871 35.4022 36.6866 35.4687 36.7962 35.5141C36.9058 35.5595 37.0233 35.5828 37.1419 35.5828H55.2066C55.3252 35.5828 55.4427 35.5595 55.5523 35.5141C55.6619 35.4687 55.7615 35.4022 55.8453 35.3183C55.9292 35.2344 55.9957 35.1348 56.0411 35.0252C56.0865 34.9156 56.1098 34.7982 56.1098 34.6795V8.48582C56.1097 8.35031 56.0792 8.21655 56.0205 8.09441C55.9618 7.97227 55.8764 7.86488 55.7707 7.78017L46.7383 0.554315ZM54.3034 33.7763H38.0452V8.9198L46.1743 2.41635L54.3034 8.9198V33.7763Z" fill="#1742E7"></path><path d="M43.4646 9.38906C43.4646 9.92498 43.6235 10.4489 43.9212 10.8945C44.219 11.3401 44.6422 11.6874 45.1373 11.8925C45.6324 12.0976 46.1773 12.1512 46.7029 12.0467C47.2285 11.9421 47.7113 11.6841 48.0903 11.3051C48.4693 10.9261 48.7273 10.4433 48.8319 9.91769C48.9364 9.39206 48.8828 8.84723 48.6777 8.3521C48.4726 7.85697 48.1253 7.43377 47.6797 7.13603C47.2341 6.83828 46.7102 6.67936 46.1743 6.67936C45.4558 6.68014 44.7671 6.96588 44.2591 7.47388C43.7511 7.98187 43.4653 8.67064 43.4646 9.38906ZM47.0775 9.38906C47.0775 9.5677 47.0245 9.74233 46.9253 9.89086C46.826 10.0394 46.685 10.1552 46.5199 10.2235C46.3549 10.2919 46.1733 10.3098 45.998 10.2749C45.8228 10.2401 45.6619 10.1541 45.5356 10.0277C45.4093 9.90142 45.3232 9.74048 45.2884 9.56527C45.2535 9.39006 45.2714 9.20845 45.3398 9.0434C45.4081 8.87836 45.5239 8.73729 45.6724 8.63805C45.821 8.5388 45.9956 8.48582 46.1743 8.48582C46.4137 8.48606 46.6433 8.5813 46.8127 8.75064C46.982 8.91997 47.0772 9.14958 47.0775 9.38906Z" fill="#1742E7"></path><path d="M47.0775 17.5638V15.7117H45.271V17.5638C44.4804 17.6763 43.7619 18.0846 43.2605 18.7062C42.7591 19.3277 42.5122 20.1164 42.5695 20.9129C42.6268 21.7094 42.9841 22.4546 43.5693 22.998C44.1545 23.5414 44.9241 23.8426 45.7227 23.8408H46.6259C46.9852 23.8408 47.3298 23.9835 47.5839 24.2376C47.838 24.4917 47.9807 24.8363 47.9807 25.1956C47.9807 25.5549 47.838 25.8996 47.5839 26.1536C47.3298 26.4077 46.9852 26.5505 46.6259 26.5505H45.7227C45.3635 26.5501 45.0191 26.4072 44.7651 26.1532C44.5111 25.8992 44.3682 25.5548 44.3678 25.1956V24.744H42.5614V25.1956C42.5636 25.9538 42.8386 26.6858 43.3362 27.2579C43.8337 27.83 44.5205 28.2039 45.271 28.3113V30.1634H47.0775V28.3113C47.8681 28.1987 48.5867 27.7905 49.0881 27.1689C49.5895 26.5473 49.8364 25.7587 49.7791 24.9622C49.7218 24.1656 49.3645 23.4205 48.7793 22.8771C48.194 22.3337 47.4245 22.0325 46.6259 22.0343H45.7227C45.3633 22.0343 45.0187 21.8916 44.7646 21.6375C44.5106 21.3834 44.3678 21.0388 44.3678 20.6795C44.3678 20.3201 44.5106 19.9755 44.7646 19.7214C45.0187 19.4673 45.3633 19.3246 45.7227 19.3246H46.6259C46.9851 19.325 47.3295 19.4679 47.5835 19.7219C47.8375 19.9759 47.9804 20.3202 47.9807 20.6795V21.1311H49.7872V20.6795C49.785 19.9213 49.5099 19.1892 49.0124 18.6172C48.5149 18.0451 47.828 17.6712 47.0775 17.5638Z" fill="#1742E7"></path><path d="M13.6579 43.3217V45.5184C13.179 45.5189 12.7198 45.7094 12.3811 46.0481C12.0425 46.3868 11.852 46.8459 11.8514 47.3249V54.5507C11.852 55.0296 12.0425 55.4888 12.3811 55.8275C12.7198 56.1661 13.179 56.3566 13.6579 56.3572H20.8838C21.3627 56.3566 21.8219 56.1661 22.1605 55.8275C22.4992 55.4888 22.6897 55.0296 22.6902 54.5507V47.3249C22.6897 46.8459 22.4992 46.3868 22.1605 46.0481C21.8219 45.7094 21.3627 45.5189 20.8838 45.5184V43.3217C25.0258 42.4297 28.6914 40.0371 31.1749 36.6043C33.6585 33.1716 34.7844 28.9414 34.3358 24.7283C33.8873 20.5151 31.8961 16.6168 28.7455 13.7839C25.595 10.9509 21.5078 9.38354 17.2708 9.38354C13.0339 9.38354 8.9467 10.9509 5.79613 13.7839C2.64557 16.6168 0.654356 20.5151 0.20584 24.7283C-0.242675 28.9414 0.883214 33.1716 3.36675 36.6043C5.8503 40.0371 9.51591 42.4297 13.6579 43.3217ZM20.8851 54.5507H13.6579V47.3249H20.8838L20.8851 54.5507ZM19.0773 45.5184H15.4644V43.6149C16.6652 43.7443 17.8765 43.7443 19.0773 43.6149V45.5184ZM17.2708 11.1956C20.3078 11.1956 23.2765 12.0961 25.8016 13.7834C28.3267 15.4706 30.2948 17.8687 31.457 20.6744C32.6192 23.4802 32.9232 26.5676 32.3308 29.5461C31.7383 32.5247 30.2759 35.2607 28.1284 37.4081C25.981 39.5555 23.245 41.018 20.2664 41.6104C17.2879 42.2029 14.2005 41.8988 11.3948 40.7366C8.589 39.5745 6.19088 37.6064 4.50366 35.0813C2.81643 32.5562 1.91588 29.5874 1.91588 26.5505C1.92042 22.4795 3.53963 18.5766 6.41826 15.698C9.29689 12.8193 13.1998 11.2001 17.2708 11.1956Z" fill="#1742E7"></path><path d="M17.2708 40.0989C19.9504 40.0989 22.5699 39.3043 24.7979 37.8156C27.026 36.3269 28.7625 34.2109 29.788 31.7352C30.8134 29.2596 31.0817 26.5354 30.559 23.9073C30.0362 21.2791 28.7458 18.865 26.851 16.9702C24.9562 15.0755 22.5421 13.7851 19.914 13.2623C17.2858 12.7395 14.5617 13.0079 12.086 14.0333C9.61035 15.0588 7.49437 16.7953 6.00564 19.0233C4.51691 21.2514 3.72231 23.8708 3.72231 26.5505C3.7263 30.1425 5.15501 33.5863 7.69498 36.1263C10.235 38.6662 13.6787 40.0949 17.2708 40.0989ZM17.2708 14.8085C19.5932 14.8085 21.8634 15.4971 23.7943 16.7873C25.7253 18.0776 27.2303 19.9114 28.119 22.057C29.0077 24.2026 29.2403 26.5635 28.7872 28.8412C28.3341 31.1189 27.2158 33.2112 25.5737 34.8533C23.9315 36.4955 21.8393 37.6138 19.5616 38.0669C17.2838 38.5199 14.9229 38.2874 12.7773 37.3987C10.6317 36.5099 8.79789 35.0049 7.50766 33.074C6.21743 31.143 5.52877 28.8728 5.52877 26.5505C5.5323 23.4374 6.77053 20.4528 8.97183 18.2515C11.1731 16.0502 14.1577 14.812 17.2708 14.8085Z" fill="#1742E7"></path><path d="M14.7441 29.8017C14.8267 29.9121 14.9335 30.0021 15.0563 30.0648C15.1791 30.1275 15.3146 30.1612 15.4524 30.1634C15.5898 30.1631 15.7255 30.1327 15.8498 30.0741C15.9741 30.0156 16.084 29.9304 16.1718 29.8247L19.0565 26.2188L21.0668 28.8985C21.1484 29.0077 21.2538 29.097 21.375 29.1597C21.4961 29.2223 21.6299 29.2567 21.7662 29.2602C21.9023 29.2626 22.0372 29.2348 22.1612 29.1786C22.2851 29.1225 22.395 29.0394 22.4829 28.9355L26.9991 23.5162L25.6116 22.3589L21.8267 26.9015L19.8019 24.2024C19.7193 24.092 19.6125 24.002 19.4897 23.9393C19.367 23.8766 19.2314 23.8429 19.0936 23.8408C18.9561 23.8405 18.8202 23.8707 18.6958 23.9293C18.5715 23.9878 18.4616 24.0733 18.3743 24.1795L15.4895 27.7853L13.4792 25.1056C13.3976 24.9964 13.2922 24.9071 13.1711 24.8445C13.0499 24.7818 12.9161 24.7475 12.7798 24.744C12.644 24.7433 12.5096 24.7719 12.3859 24.8279C12.2622 24.884 12.1521 24.9661 12.0631 25.0686L7.54693 30.488L8.93443 31.6452L12.7194 27.1026L14.7441 29.8017Z" fill="#1742E7"></path></svg>