<svg xmlns="http://www.w3.org/2000/svg" viewBox="0 0 57 57" fill="none"><path d="M3.17061 49.1804V55.503C3.17061 55.7426 3.26578 55.9723 3.43516 56.1417C3.60455 56.3111 3.83429 56.4062 4.07384 56.4062H14.9125C15.1521 56.4062 15.3818 56.3111 15.5512 56.1417C15.7206 55.9723 15.8158 55.7426 15.8158 55.503V49.1804C15.8124 48.227 15.5067 47.2992 14.9428 46.5304C14.3788 45.7616 13.5856 45.1915 12.6771 44.902C13.2437 44.1931 13.554 43.3136 13.5577 42.4062C13.5577 41.3283 13.1295 40.2944 12.3672 39.5322C11.605 38.77 10.5712 38.3417 9.4932 38.3417C8.41522 38.3417 7.38139 38.77 6.61915 39.5322C5.8569 40.2944 5.42868 41.3283 5.42868 42.4062C5.4324 43.3136 5.74271 44.1931 6.30924 44.902C5.40081 45.1915 4.60758 45.7616 4.04361 46.5304C3.47965 47.2992 3.174 48.227 3.17061 49.1804ZM9.4932 40.1482C9.9398 40.1482 10.3764 40.2806 10.7477 40.5287C11.119 40.7769 11.4085 41.1295 11.5794 41.5421C11.7503 41.9547 11.795 42.4088 11.7079 42.8468C11.6207 43.2848 11.4057 43.6871 11.0899 44.0029C10.7741 44.3187 10.3717 44.5338 9.93372 44.6209C9.4957 44.708 9.04168 44.6633 8.62907 44.4924C8.21646 44.3215 7.8638 44.0321 7.61568 43.6608C7.36756 43.2894 7.23513 42.8529 7.23513 42.4062C7.23583 41.8076 7.47396 41.2337 7.89728 40.8103C8.3206 40.387 8.89454 40.1489 9.4932 40.1482ZM4.97707 49.1804C4.97785 48.462 5.26359 47.7733 5.77158 47.2653C6.27957 46.7573 6.96833 46.4715 7.68674 46.4708H11.2996C12.0181 46.4715 12.7068 46.7573 13.2148 47.2653C13.7228 47.7733 14.0085 48.462 14.0093 49.1804V54.5998H4.97707V49.1804Z" fill="#1742E7"></path><path d="M22.1384 49.1804V55.503C22.1384 55.7426 22.2335 55.9723 22.4029 56.1417C22.5723 56.3111 22.802 56.4062 23.0416 56.4062H33.8803C34.1198 56.4062 34.3496 56.3111 34.519 56.1417C34.6884 55.9723 34.7835 55.7426 34.7835 55.503V49.1804C34.7801 48.227 34.4745 47.2992 33.9105 46.5304C33.3466 45.7616 32.5533 45.1915 31.6449 44.902C32.2114 44.1931 32.5217 43.3136 32.5255 42.4062C32.5255 41.3283 32.0972 40.2944 31.335 39.5322C30.5727 38.77 29.5389 38.3417 28.4609 38.3417C27.383 38.3417 26.3491 38.77 25.5869 39.5322C24.8246 40.2944 24.3964 41.3283 24.3964 42.4062C24.4001 43.3136 24.7105 44.1931 25.277 44.902C24.3685 45.1915 23.5753 45.7616 23.0114 46.5304C22.4474 47.2992 22.1417 48.227 22.1384 49.1804ZM28.4609 40.1482C28.9075 40.1482 29.3441 40.2806 29.7155 40.5287C30.0868 40.7769 30.3762 41.1295 30.5471 41.5421C30.718 41.9547 30.7627 42.4088 30.6756 42.8468C30.5885 43.2848 30.3734 43.6871 30.0576 44.0029C29.7418 44.3187 29.3395 44.5338 28.9015 44.6209C28.4634 44.708 28.0094 44.6633 27.5968 44.4924C27.1842 44.3215 26.8315 44.0321 26.5834 43.6608C26.3353 43.2894 26.2029 42.8529 26.2029 42.4062C26.2036 41.8076 26.4417 41.2337 26.865 40.8103C27.2883 40.387 27.8623 40.1489 28.4609 40.1482ZM23.9448 49.1804C23.9456 48.462 24.2313 47.7733 24.7393 47.2653C25.2473 46.7573 25.9361 46.4715 26.6545 46.4708H30.2674C30.9858 46.4715 31.6746 46.7573 32.1826 47.2653C32.6905 47.7733 32.9763 48.462 32.9771 49.1804V54.5998H23.9448V49.1804Z" fill="#1742E7"></path><path d="M41.1061 49.1804V55.503C41.1061 55.7426 41.2013 55.9723 41.3706 56.1417C41.54 56.3111 41.7698 56.4062 42.0093 56.4062H52.848C53.0876 56.4062 53.3173 56.3111 53.4867 56.1417C53.6561 55.9723 53.7513 55.7426 53.7513 55.503V49.1804C53.7479 48.227 53.4422 47.2992 52.8783 46.5304C52.3143 45.7616 51.5211 45.1915 50.6126 44.902C51.1792 44.1931 51.4895 43.3136 51.4932 42.4062C51.4932 41.3283 51.065 40.2944 50.3027 39.5322C49.5405 38.77 48.5067 38.3417 47.4287 38.3417C46.3507 38.3417 45.3169 38.77 44.5546 39.5322C43.7924 40.2944 43.3642 41.3283 43.3642 42.4062C43.3679 43.3136 43.6782 44.1931 44.2447 44.902C43.3363 45.1915 42.5431 45.7616 41.9791 46.5304C41.4151 47.2992 41.1095 48.227 41.1061 49.1804ZM47.4287 40.1482C47.8753 40.1482 48.3119 40.2806 48.6832 40.5287C49.0545 40.7769 49.344 41.1295 49.5149 41.5421C49.6858 41.9547 49.7305 42.4088 49.6434 42.8468C49.5562 43.2848 49.3412 43.6871 49.0254 44.0029C48.7096 44.3187 48.3072 44.5338 47.8692 44.6209C47.4312 44.708 46.9772 44.6633 46.5646 44.4924C46.1519 44.3215 45.7993 44.0321 45.5512 43.6608C45.303 43.2894 45.1706 42.8529 45.1706 42.4062C45.1713 41.8076 45.4094 41.2337 45.8328 40.8103C46.2561 40.387 46.83 40.1489 47.4287 40.1482ZM42.9125 49.1804C42.9133 48.462 43.1991 47.7733 43.7071 47.2653C44.2151 46.7573 44.9038 46.4715 45.6222 46.4708H49.2351C49.9535 46.4715 50.6423 46.7573 51.1503 47.2653C51.6583 47.7733 51.944 48.462 51.9448 49.1804V54.5998H42.9125V49.1804Z" fill="#1742E7"></path><path d="M37.4932 12.1482V4.92238C37.4918 3.72506 37.0155 2.57718 36.1689 1.73055C35.3223 0.883912 34.1744 0.407656 32.9771 0.40625H23.9448C22.7475 0.407656 21.5996 0.883912 20.753 1.73055C19.9063 2.57718 19.4301 3.72506 19.4287 4.92238V12.1482C19.4301 13.3455 19.9063 14.4934 20.753 15.34C21.5996 16.1867 22.7475 16.6629 23.9448 16.6643H32.9771C34.1744 16.6629 35.3223 16.1867 36.1689 15.34C37.0155 14.4934 37.4918 13.3455 37.4932 12.1482ZM35.6867 12.1482C35.686 12.8666 35.4002 13.5554 34.8922 14.0633C34.3842 14.5713 33.6955 14.8571 32.9771 14.8579H23.9448C23.2264 14.8571 22.5376 14.5713 22.0296 14.0633C21.5217 13.5554 21.2359 12.8666 21.2351 12.1482V4.92238C21.2359 4.20397 21.5217 3.51521 22.0296 3.00721C22.5376 2.49922 23.2264 2.21349 23.9448 2.2127H32.9771C33.6955 2.21349 34.3842 2.49922 34.8922 3.00721C35.4002 3.51521 35.686 4.20397 35.6867 4.92238V12.1482Z" fill="#1742E7"></path><path d="M51.9448 12.1482H42.9125C41.7152 12.1496 40.5674 12.6258 39.7207 13.4725C38.8741 14.3191 38.3978 15.467 38.3964 16.6643V23.8901C38.3978 25.0874 38.8741 26.2353 39.7207 27.082C40.5674 27.9286 41.7152 28.4048 42.9125 28.4062H51.9448C53.1421 28.4048 54.29 27.9286 55.1366 27.082C55.9833 26.2353 56.4595 25.0874 56.4609 23.8901V16.6643C56.4595 15.467 55.9833 14.3191 55.1366 13.4725C54.29 12.6258 53.1421 12.1496 51.9448 12.1482ZM54.6545 23.8901C54.6537 24.6085 54.368 25.2973 53.86 25.8053C53.352 26.3133 52.6632 26.599 51.9448 26.5998H42.9125C42.1941 26.599 41.5054 26.3133 40.9974 25.8053C40.4894 25.2973 40.2037 24.6085 40.2029 23.8901V16.6643C40.2037 15.9459 40.4894 15.2571 40.9974 14.7491C41.5054 14.2412 42.1941 13.9554 42.9125 13.9546H51.9448C52.6632 13.9554 53.352 14.2412 53.86 14.7491C54.368 15.2571 54.6537 15.9459 54.6545 16.6643V23.8901Z" fill="#1742E7"></path><path d="M4.97707 28.4062H14.0093C15.2066 28.4048 16.3545 27.9286 17.2012 27.082C18.0478 26.2353 18.524 25.0874 18.5255 23.8901V16.6643C18.524 15.467 18.0478 14.3191 17.2012 13.4725C16.3545 12.6258 15.2066 12.1496 14.0093 12.1482H4.97707C3.77975 12.1496 2.63187 12.6258 1.78523 13.4725C0.938599 14.3191 0.462343 15.467 0.460938 16.6643V23.8901C0.462343 25.0874 0.938599 26.2353 1.78523 27.082C2.63187 27.9286 3.77975 28.4048 4.97707 28.4062ZM2.26739 16.6643C2.26817 15.9459 2.55391 15.2571 3.0619 14.7491C3.56989 14.2412 4.25866 13.9554 4.97707 13.9546H14.0093C14.7277 13.9554 15.4165 14.2412 15.9245 14.7491C16.4325 15.2571 16.7182 15.9459 16.719 16.6643V23.8901C16.7182 24.6085 16.4325 25.2973 15.9245 25.8053C15.4165 26.3133 14.7277 26.599 14.0093 26.5998H4.97707C4.25866 26.599 3.56989 26.3133 3.0619 25.8053C2.55391 25.2973 2.26817 24.6085 2.26739 23.8901V16.6643Z" fill="#1742E7"></path><path d="M32.2101 6.78966L30.1902 6.48094L29.2786 4.53866C29.2057 4.38335 29.0901 4.25201 28.9453 4.16001C28.8005 4.06801 28.6325 4.01915 28.4609 4.01915C28.2894 4.01915 28.1213 4.06801 27.9765 4.16001C27.8317 4.25201 27.7161 4.38335 27.6433 4.53866L26.7316 6.48094L24.7117 6.78966C24.5476 6.81468 24.3935 6.88447 24.2665 6.99136C24.1394 7.09826 24.0443 7.23811 23.9916 7.39554C23.9388 7.55298 23.9305 7.72191 23.9676 7.88376C24.0046 8.04562 24.0855 8.19413 24.2015 8.31297L25.6895 9.83804L25.3367 12.0026C25.3093 12.1699 25.3296 12.3416 25.3952 12.4979C25.4608 12.6542 25.5691 12.7889 25.7077 12.8866C25.8463 12.9842 26.0096 13.0409 26.1789 13.05C26.3482 13.0592 26.5167 13.0206 26.665 12.9385L28.4609 11.9457L30.2568 12.9385C30.4051 13.0206 30.5736 13.0592 30.7429 13.05C30.9122 13.0409 31.0755 12.9842 31.2141 12.8866C31.3527 12.7889 31.461 12.6542 31.5266 12.4979C31.5922 12.3416 31.6125 12.1699 31.5852 12.0026L31.2323 9.83804L32.7204 8.31297C32.8363 8.19413 32.9173 8.04562 32.9543 7.88376C32.9913 7.72191 32.983 7.55298 32.9303 7.39554C32.8775 7.23811 32.7824 7.09826 32.6553 6.99136C32.5283 6.88447 32.3742 6.81468 32.2101 6.78966ZM29.6208 8.90307C29.5221 9.00423 29.4485 9.12718 29.4059 9.26201C29.3634 9.39683 29.3532 9.53976 29.376 9.67927L29.5031 10.4577L28.898 10.1234C28.7642 10.0493 28.6138 10.0105 28.4609 10.0105C28.308 10.0105 28.1576 10.0493 28.0239 10.1234L27.4188 10.4577L27.5458 9.67927C27.5686 9.53976 27.5584 9.39683 27.5159 9.26201C27.4734 9.12718 27.3998 9.00423 27.301 8.90307L26.7219 8.30944L27.481 8.19389C27.6276 8.17141 27.7665 8.11318 27.8853 8.02434C28.0041 7.93549 28.0993 7.81877 28.1623 7.68447L28.4609 7.04811L28.7595 7.68451C28.8226 7.81881 28.9177 7.93553 29.0365 8.02437C29.1554 8.11321 29.2942 8.17144 29.4409 8.19393L30.1999 8.30948L29.6208 8.90307Z" fill="#1742E7"></path><path d="M9.02646 24.6628C9.16744 24.7482 9.32912 24.7933 9.49395 24.7933C9.65878 24.7933 9.82046 24.7482 9.96144 24.6628C11.4503 23.7622 14.9133 21.3753 14.9133 18.6732C14.9284 18.0171 14.7128 17.3766 14.304 16.8633C13.8952 16.3499 13.3192 15.9964 12.6764 15.8643C12.1276 15.7318 11.5557 15.726 11.0043 15.8474C10.4529 15.9688 9.93638 16.2143 9.49395 16.565C9.0514 16.2143 8.5348 15.9689 7.98333 15.8475C7.43186 15.7261 6.85998 15.7318 6.31104 15.8643C5.66832 15.9964 5.09237 16.35 4.68365 16.8633C4.27493 17.3766 4.05938 18.0172 4.07459 18.6732C4.07459 21.3753 7.53756 23.7622 9.02646 24.6628ZM6.74281 17.6187C6.88271 17.5847 7.02621 17.5678 7.17017 17.5684C7.4745 17.5567 7.77638 17.6269 8.04438 17.7715C8.31238 17.9162 8.53668 18.1301 8.69392 18.3909C8.7781 18.5274 8.8958 18.6401 9.03584 18.7182C9.17587 18.7964 9.33357 18.8374 9.49394 18.8374C9.65431 18.8374 9.81201 18.7964 9.95204 18.7182C10.0921 18.6401 10.2098 18.5274 10.294 18.3909C10.4952 18.0719 10.7927 17.8251 11.1435 17.6863C11.4942 17.5474 11.88 17.5238 12.2451 17.6186C12.4931 17.6579 12.7181 17.7871 12.877 17.9816C13.036 18.1761 13.1178 18.4222 13.1069 18.6732C13.1069 19.9332 11.3604 21.6068 9.49395 22.8237C7.62751 21.6069 5.88105 19.9332 5.88105 18.6732C5.87014 18.4222 5.95195 18.1761 6.11088 17.9816C6.26981 17.7871 6.49475 17.6579 6.74281 17.6187Z" fill="#1742E7"></path><path d="M46.529 21.7097L44.4579 19.6386L43.1807 20.9158L45.8904 23.6254C45.9742 23.7093 46.0738 23.7759 46.1833 23.8213C46.2929 23.8667 46.4104 23.8901 46.529 23.8901C46.6476 23.8901 46.765 23.8667 46.8746 23.8213C46.9842 23.7759 47.0837 23.7093 47.1676 23.6254L52.5869 18.2061L51.3097 16.9289L46.529 21.7097Z" fill="#1742E7"></path><path d="M29.3642 22.0837H27.5577V23.8901H29.3642V22.0837Z" fill="#1742E7"></path><path d="M29.3642 18.4708H27.5577V20.2772H29.3642V18.4708Z" fill="#1742E7"></path><path d="M29.3642 25.6966H27.5577V27.503H29.3642V25.6966Z" fill="#1742E7"></path><path d="M29.3642 29.3095H27.5577V31.1159H29.3642V29.3095Z" fill="#1742E7"></path><path d="M29.3642 32.9224H27.5577V34.7288H29.3642V32.9224Z" fill="#1742E7"></path><path d="M48.3319 30.2127H46.5255V32.0192H48.3319V30.2127Z" fill="#1742E7"></path><path d="M48.3319 33.8256H46.5255V35.6321H48.3319V33.8256Z" fill="#1742E7"></path><path d="M10.3964 30.2127H8.58997V32.0192H10.3964V30.2127Z" fill="#1742E7"></path><path d="M10.3964 33.8256H8.58997V35.6321H10.3964V33.8256Z" fill="#1742E7"></path></svg>