<svg xmlns="http://www.w3.org/2000/svg" viewBox="0 0 82 82" fill="none"><path d="M10.1927 76.4452H55.3254V54.6494H10.1927V76.4452ZM11.4342 55.8902H54.0836V75.2028H11.4342V55.8902Z" fill="#1742E7"></path><path d="M70.258 16.9801C70.9624 9.41549 62.6658 4.21622 56.1953 8.05793C53.8342 3.93819 49.4936 1.40625 44.7059 1.40625C36.5082 1.40625 30.1939 8.87361 31.7223 17.052C27.0489 16.4813 22.3956 19.2046 20.4866 23.669H3.85627C2.06884 23.669 0.615234 25.1285 0.615234 26.9218V78.1652C0.615234 79.9526 2.06937 81.4062 3.85627 81.4062H61.5439C63.3308 81.4062 64.7843 79.9521 64.7843 78.1652L64.7837 38.842H70.4578C76.4829 38.842 81.3848 33.9347 81.3848 27.9026C81.3854 21.7215 76.2267 16.8137 70.2582 16.9798L70.258 16.9801ZM1.8564 26.9223C1.8564 25.8132 2.75339 24.9109 3.85597 24.9109H20.028C19.3189 27.4252 19.5768 30.1309 20.5333 32.2982L1.85544 32.2988L1.8564 26.9223ZM63.5425 78.1657C63.5425 79.2688 62.6455 80.1652 61.5436 80.1652H3.85597C2.75343 80.1652 1.8564 79.2683 1.8564 78.1657V33.5397H21.1796C23.1054 36.7412 26.7035 38.8415 30.5393 38.8415H63.5422L63.5425 78.1657ZM70.4587 37.6H30.5383C23.9419 37.6 19.0965 31.0373 21.46 24.5075C23.0397 20.3424 27.4622 17.4647 32.407 18.4176L33.3693 18.6025L33.1261 17.6537C31.1407 9.89233 37.0227 2.64706 44.7057 2.64706C52.8651 2.64706 55.6244 9.73522 55.7369 9.86067C56.0638 9.68869 57.8477 8.01067 60.8968 8.01067C66.0331 8.01067 69.8125 12.7082 68.9286 17.5341L68.7819 18.3328C69.7213 18.2538 70.0741 18.2173 70.4575 18.2173C75.7982 18.2173 80.1429 22.562 80.1429 27.9021C80.1429 33.2499 75.7988 37.5999 70.458 37.5999L70.4587 37.6Z" fill="#1742E7"></path><path d="M39.2921 15.985H38.0499V18.7725H36.8161V20.014H38.0499V32.5842H39.2921V20.014H40.5271V18.7725H39.2921V15.985Z" fill="#1742E7"></path><path d="M47.1745 15.985H45.933V28.8196H44.6979V30.0611H45.933V32.5842H47.1745V30.0611H48.4096V28.8196H47.1745V15.985Z" fill="#1742E7"></path><path d="M55.057 15.985H53.8154V20.9682H52.5804V22.2097H53.8154V32.5843H55.057V22.2097H56.292V20.9682H55.057V15.985Z" fill="#1742E7"></path><path d="M62.9409 15.985H61.6994V24.416H60.4644V25.6581H61.6994V32.5843H62.9409V25.6581H64.1754V24.416H62.9409V15.985Z" fill="#1742E7"></path><path d="M10.8139 50.8574H34.5879V52.0989H10.8139V50.8574Z" fill="#1742E7"></path><path d="M10.8139 46.9358H34.5879V48.1773H10.8139V46.9358Z" fill="#1742E7"></path><path d="M10.8139 43.0142H48.2133V44.2557H10.8139V43.0142Z" fill="#1742E7"></path><path d="M10.1927 76.4452H55.3254V54.6494H10.1927V76.4452ZM11.4342 55.8902H54.0836V75.2028H11.4342V55.8902Z" stroke="#1742E7"></path><path d="M70.258 16.9801C70.9624 9.41549 62.6658 4.21622 56.1953 8.05793C53.8342 3.93819 49.4936 1.40625 44.7059 1.40625C36.5082 1.40625 30.1939 8.87361 31.7223 17.052C27.0489 16.4813 22.3956 19.2046 20.4866 23.669H3.85627C2.06884 23.669 0.615234 25.1285 0.615234 26.9218V78.1652C0.615234 79.9526 2.06937 81.4062 3.85627 81.4062H61.5439C63.3308 81.4062 64.7843 79.9521 64.7843 78.1652L64.7837 38.842H70.4578C76.4829 38.842 81.3848 33.9347 81.3848 27.9026C81.3854 21.7215 76.2267 16.8137 70.2582 16.9798L70.258 16.9801ZM1.8564 26.9223C1.8564 25.8132 2.75339 24.9109 3.85597 24.9109H20.028C19.3189 27.4252 19.5768 30.1309 20.5333 32.2982L1.85544 32.2988L1.8564 26.9223ZM63.5425 78.1657C63.5425 79.2688 62.6455 80.1652 61.5436 80.1652H3.85597C2.75343 80.1652 1.8564 79.2683 1.8564 78.1657V33.5397H21.1796C23.1054 36.7412 26.7035 38.8415 30.5393 38.8415H63.5422L63.5425 78.1657ZM70.4587 37.6H30.5383C23.9419 37.6 19.0965 31.0373 21.46 24.5075C23.0397 20.3424 27.4622 17.4647 32.407 18.4176L33.3693 18.6025L33.1261 17.6537C31.1407 9.89233 37.0227 2.64706 44.7057 2.64706C52.8651 2.64706 55.6244 9.73522 55.7369 9.86067C56.0638 9.68869 57.8477 8.01067 60.8968 8.01067C66.0331 8.01067 69.8125 12.7082 68.9286 17.5341L68.7819 18.3328C69.7213 18.2538 70.0741 18.2173 70.4575 18.2173C75.7982 18.2173 80.1429 22.562 80.1429 27.9021C80.1429 33.2499 75.7988 37.5999 70.458 37.5999L70.4587 37.6Z" stroke="#1742E7"></path><path d="M39.2921 15.985H38.0499V18.7725H36.8161V20.014H38.0499V32.5842H39.2921V20.014H40.5271V18.7725H39.2921V15.985Z" stroke="#1742E7"></path><path d="M47.1745 15.985H45.933V28.8196H44.6979V30.0611H45.933V32.5842H47.1745V30.0611H48.4096V28.8196H47.1745V15.985Z" stroke="#1742E7"></path><path d="M55.057 15.985H53.8154V20.9682H52.5804V22.2097H53.8154V32.5843H55.057V22.2097H56.292V20.9682H55.057V15.985Z" stroke="#1742E7"></path><path d="M62.9409 15.985H61.6994V24.416H60.4644V25.6581H61.6994V32.5843H62.9409V25.6581H64.1754V24.416H62.9409V15.985Z" stroke="#1742E7"></path><path d="M10.8139 50.8574H34.5879V52.0989H10.8139V50.8574Z" stroke="#1742E7"></path><path d="M10.8139 46.9358H34.5879V48.1773H10.8139V46.9358Z" stroke="#1742E7"></path><path d="M10.8139 43.0142H48.2133V44.2557H10.8139V43.0142Z" stroke="#1742E7"></path></svg>