<svg xmlns="http://www.w3.org/2000/svg" viewBox="0 0 52 57" fill="none"><path d="M51.8325 35.7902C51.8325 34.9242 51.4157 34.1493 50.745 33.674C51.1813 32.9772 51.2725 32.1047 50.9404 31.3037C50.6148 30.5158 49.9376 29.9558 49.1302 29.767C49.2669 28.9595 49.013 28.113 48.4015 27.5009C47.809 26.9084 46.9553 26.6414 46.1355 26.7781C45.9531 25.9772 45.3996 25.2935 44.5987 24.9614C43.8245 24.6423 42.9187 24.727 42.2285 25.1567C41.8769 24.6619 41.3559 24.3037 40.7634 24.154V10.3949C40.7634 8.59767 39.3048 7.13907 37.5076 7.13907H29.693V5.83674C29.693 4.39767 28.5274 3.23209 27.0883 3.23209H23.7674C23.4607 1.74744 22.1525 0.627441 20.5767 0.627441C19.0074 0.627441 17.6855 1.74744 17.386 3.23209H14.065C12.626 3.23209 11.4604 4.39767 11.4604 5.83674V7.13907H3.64644C1.84923 7.13907 0.390625 8.59767 0.390625 10.3949V53.3716C0.390625 55.1688 1.84923 56.6274 3.64644 56.6274H37.5069C39.3041 56.6274 40.7627 55.1688 40.7627 53.3716V49.966L42.3646 53.6327C42.4557 53.8346 42.6381 53.9772 42.8595 54.0169C42.892 54.0228 42.9311 54.0228 42.9636 54.0228C43.146 54.0228 43.3218 53.9316 43.4455 53.7949L45.7181 51.2938L49.1816 51.4898C49.2018 51.4898 49.2148 51.4181 49.2278 51.4181C49.2343 51.4181 49.2409 51.4181 49.2409 51.4181C49.5996 51.4181 49.892 51.2033 49.892 50.8386C49.892 50.7019 49.8471 50.6498 49.7748 50.5456L47.2418 44.7437C47.6781 44.6265 48.0753 44.4051 48.4009 44.0795C49.0123 43.4674 49.2663 42.6209 49.1295 41.8135C49.9304 41.6247 50.6142 41.0647 50.9397 40.2767C51.2718 39.4765 51.1807 38.6039 50.7444 37.9065C51.4157 37.4312 51.8325 36.6563 51.8325 35.7902ZM12.7627 5.83674C12.7627 5.12046 13.3488 4.53442 14.065 4.53442H18.6232V3.88326C18.6232 2.80884 19.5023 1.92977 20.5767 1.92977C21.6511 1.92977 22.5302 2.80884 22.5302 3.88326V4.53442H27.0883C27.8046 4.53442 28.3906 5.12046 28.3906 5.83674V9.74372H12.7627V5.83674ZM39.4604 53.3716C39.4604 54.446 38.5813 55.3251 37.5069 55.3251H3.64644C2.57202 55.3251 1.69295 54.446 1.69295 53.3716V10.3949C1.69295 9.32047 2.57202 8.44139 3.64644 8.44139H11.4604V11.046H29.693V8.44139H37.5069C38.5813 8.44139 39.4604 9.32047 39.4604 10.3949V24.154C38.8678 24.3037 38.3469 24.6619 37.9953 25.1567C37.305 24.727 36.3999 24.6423 35.625 24.9614C34.8241 25.2935 34.2706 25.9772 34.0883 26.7781C33.2678 26.6414 32.4148 26.9084 31.8223 27.5009C31.2108 28.113 30.9569 28.9595 31.0936 29.767C30.2927 29.9558 29.609 30.5158 29.2834 31.3037C28.9513 32.104 29.0424 32.9766 29.4787 33.674C28.8074 34.1493 28.3906 34.9242 28.3906 35.7902C28.3906 36.6563 28.8074 37.4312 29.4781 37.9065C29.0418 38.6033 28.9506 39.4758 29.2827 40.2767C29.6083 41.0647 30.2855 41.6247 31.093 41.8135C30.9562 42.6209 31.2102 43.4674 31.8216 44.0795C32.1407 44.398 32.5444 44.6265 32.9807 44.7372L30.3956 50.6563C30.3044 50.8647 30.3304 51.0991 30.4607 51.2879C30.5909 51.4767 30.8123 51.5744 31.0409 51.5614L34.5044 51.3276L36.777 53.8086C36.9007 53.9453 37.0765 54.0234 37.2588 54.0234C37.2914 54.0234 37.3304 54.0234 37.363 54.0169C37.5844 53.9772 37.7667 53.8346 37.8579 53.6327L39.4604 49.966V53.3716ZM35.625 46.6191C36.3993 46.9381 37.305 46.8535 37.9953 46.4237C38.2948 46.8405 38.705 47.166 39.1869 47.3419L37.0641 52.193L35.2539 50.22C35.1302 50.0833 34.9543 50.0051 34.7785 50.0051C34.7596 50.0051 34.746 50.0051 34.7336 50.0116L32.0248 50.194L34.2127 45.1865C34.4595 45.8181 34.9543 46.3391 35.625 46.6191ZM48.199 50.194L45.4902 50.0116C45.2948 49.9986 45.0995 50.0702 44.9692 50.22L43.159 52.193L41.0362 47.3419C41.5181 47.1654 41.9283 46.8398 42.2278 46.4237C42.9181 46.8535 43.8232 46.9381 44.5981 46.6191C45.2688 46.3391 45.7636 45.8188 46.0111 45.1865L48.199 50.194ZM49.5209 37.0535C49.2663 37.1121 49.0774 37.3133 49.026 37.5607C48.9739 37.8153 49.0774 38.0687 49.2858 38.2191C49.7878 38.5772 49.9695 39.2147 49.7351 39.7754C49.5065 40.3288 48.9211 40.6609 48.3149 40.5567C48.061 40.517 47.8077 40.6277 47.6709 40.8367C47.527 41.0516 47.5211 41.3316 47.6572 41.5465C47.9828 42.0674 47.9047 42.7258 47.4749 43.1549C47.2607 43.3698 46.9865 43.4941 46.7007 43.5202C46.4142 43.5527 46.1146 43.4941 45.8672 43.3379C45.6653 43.2076 45.4049 43.2076 45.1965 43.3313C45.1835 43.3379 45.1704 43.3444 45.1574 43.3509C44.949 43.4941 44.8383 43.7474 44.8774 43.9949C44.9816 44.6011 44.6625 45.18 44.096 45.4151C43.549 45.643 42.8849 45.4476 42.5397 44.9658C42.39 44.7574 42.136 44.6539 41.8814 44.706C41.8293 44.719 41.7772 44.732 41.7323 44.7574C41.5558 44.8427 41.4197 44.9983 41.3742 45.2008C41.2889 45.5655 41.0616 45.8585 40.7621 46.0343C40.6839 46.0793 40.5993 46.119 40.5146 46.145C40.385 46.1893 40.2483 46.2088 40.1116 46.2088C39.9748 46.2088 39.8381 46.1893 39.7078 46.1437C39.6232 46.1177 39.5385 46.078 39.4604 46.033C39.1609 45.8566 38.9329 45.5635 38.8483 45.1995C38.8034 44.997 38.6666 44.8414 38.4902 44.7561C38.4452 44.7307 38.3931 44.717 38.341 44.7047C38.2955 44.6975 38.2564 44.691 38.2108 44.691C38.0024 44.691 37.8071 44.7887 37.6827 44.9645C37.3383 45.4463 36.6806 45.6417 36.1264 45.4138C35.5599 45.1793 35.2409 44.5998 35.345 43.9936C35.3848 43.7461 35.2741 43.4922 35.065 43.3496C35.052 43.3424 35.039 43.3359 35.026 43.33C34.8176 43.2063 34.5565 43.2063 34.3553 43.3366C34.1007 43.4928 33.8083 43.5514 33.5153 43.5189C33.2288 43.4928 32.9553 43.3626 32.7469 43.1536C32.3171 42.7245 32.239 42.0661 32.5646 41.5452C32.7013 41.3303 32.6948 41.0503 32.5509 40.8354C32.4142 40.6271 32.1602 40.5164 31.9069 40.5554C31.2948 40.6596 30.7153 40.3269 30.4867 39.774C30.253 39.214 30.4346 38.5759 30.936 38.2178C31.1444 38.068 31.2479 37.814 31.1958 37.5594C31.1444 37.312 30.9556 37.1108 30.7009 37.0522C30.1097 36.9167 29.693 36.3958 29.693 35.7902C29.693 35.1847 30.1097 34.6637 30.7023 34.527C30.9569 34.4684 31.1457 34.2672 31.1971 34.0197C31.2492 33.7651 31.1457 33.5118 30.9373 33.3614C30.4353 33.0033 30.2536 32.3658 30.488 31.8051C30.7166 31.2516 31.302 30.913 31.9082 31.0237C32.1556 31.0634 32.4096 30.9527 32.5522 30.7437C32.6961 30.5288 32.702 30.2488 32.5659 30.034C32.2403 29.513 32.3113 28.8553 32.7482 28.4256C33.165 28.0023 33.8545 27.9307 34.3566 28.2433C34.5715 28.38 34.8515 28.3735 35.0598 28.2302C35.2747 28.087 35.3854 27.833 35.3398 27.5856C35.2422 26.98 35.5612 26.4005 36.1277 26.166C36.6819 25.9381 37.3389 26.1335 37.684 26.6153C37.8338 26.8237 38.0877 26.9279 38.3423 26.8758C38.5898 26.8237 38.791 26.6349 38.8496 26.3809C38.9349 26.0163 39.1563 25.7233 39.4617 25.5474C39.6492 25.4367 39.8706 25.3716 40.1116 25.3716C40.346 25.3716 40.5674 25.4367 40.7627 25.5474C41.0623 25.7233 41.2902 26.0163 41.3748 26.3809C41.4334 26.6349 41.6346 26.8237 41.8821 26.8758C42.1367 26.9214 42.39 26.8237 42.5404 26.6153C42.8849 26.1335 43.5425 25.9381 44.0967 26.166C44.6632 26.4005 44.9823 26.98 44.8781 27.5856C44.8383 27.833 44.949 28.0935 45.1581 28.2302C45.373 28.3735 45.653 28.38 45.8678 28.2433C46.3699 27.9307 47.0595 28.0023 47.4762 28.4256C47.906 28.8553 47.9841 29.513 47.6585 30.034C47.5218 30.2488 47.5283 30.5288 47.6722 30.7437C47.809 30.9521 48.0629 31.0628 48.3162 31.0237C48.9224 30.9195 49.5078 31.2523 49.7364 31.8051C49.9702 32.3651 49.7885 33.0033 49.2871 33.3614C49.0787 33.5112 48.9752 33.7651 49.0273 34.0197C49.0787 34.2672 49.2676 34.4684 49.5222 34.527C50.1134 34.6637 50.5302 35.1847 50.5302 35.7902C50.5302 36.3958 50.1134 36.9167 49.5209 37.0535Z" fill="#1742E7"></path><path d="M40.7627 28.0023C40.5478 27.9828 40.333 27.9763 40.1116 27.9763C39.8902 27.9763 39.6753 27.9828 39.4604 28.0023C35.4557 28.3344 32.2976 31.7009 32.2976 35.7902C32.2976 37.9065 33.1376 39.8274 34.5181 41.234C34.83 41.566 35.1757 41.8591 35.5469 42.126C36.2371 42.6274 37.012 43.0175 37.839 43.2656C38.341 43.4212 38.8555 43.5195 39.3888 43.5716C39.4148 43.5716 39.4409 43.5781 39.4604 43.5781C39.6753 43.5977 39.8902 43.6042 40.1116 43.6042C40.333 43.6042 40.5478 43.5977 40.7627 43.5781C40.7823 43.5781 40.8083 43.5716 40.8343 43.5716C41.3676 43.5195 41.8821 43.4219 42.3841 43.2656C43.2111 43.0175 43.986 42.6274 44.6762 42.126C45.0474 41.8591 45.3931 41.566 45.705 41.234C47.0855 39.8274 47.9255 37.9065 47.9255 35.7902C47.9255 31.7009 44.7674 28.3344 40.7627 28.0023ZM45.1385 39.9316C44.839 40.2898 44.5069 40.6153 44.1429 40.9012C43.8173 41.1617 43.4657 41.3896 43.0945 41.5784C42.5866 41.8454 42.0331 42.0407 41.4529 42.1645C41.2316 42.21 40.9978 42.2426 40.7627 42.2687C40.5478 42.2888 40.333 42.3019 40.1116 42.3019C39.8902 42.3019 39.6753 42.2888 39.4604 42.2693C39.226 42.2433 38.9916 42.2107 38.7702 42.1651C38.19 42.0414 37.6371 41.846 37.1286 41.5791C36.7574 41.3902 36.4058 41.1623 36.0802 40.9019C35.7156 40.616 35.3841 40.2904 35.0846 39.9323C34.1599 38.8051 33.5999 37.366 33.5999 35.7902C33.5999 32.4237 36.1785 29.6367 39.4604 29.3112C39.6753 29.2916 39.8902 29.2786 40.1116 29.2786C40.333 29.2786 40.5478 29.2916 40.7627 29.3112C44.0446 29.6367 46.6232 32.4237 46.6232 35.7902C46.6232 37.366 46.0632 38.8051 45.1385 39.9316Z" fill="#1742E7"></path><path d="M43.5888 32.6972L38.1841 37.5021L36.6669 35.9784C36.4129 35.7245 35.9962 35.7245 35.7423 35.9784C35.4883 36.2324 35.4883 36.6491 35.7423 36.9031L37.6957 38.8566C37.826 38.9809 37.9888 39.046 38.1581 39.046C38.3143 39.046 38.4641 38.994 38.5878 38.8833L44.4483 33.6746C44.7218 33.4337 44.7413 33.0234 44.5069 32.7565C44.266 32.4823 43.8557 32.4563 43.5888 32.6972Z" fill="#1742E7"></path><path d="M10.3489 17.7485L6.90225 21.1951L6.0603 20.3531C5.8057 20.0992 5.39351 20.0992 5.1389 20.3531C4.88495 20.6077 4.88495 21.0199 5.1389 21.2745L6.44123 22.5768C6.56951 22.7032 6.73621 22.767 6.90225 22.767C7.0683 22.767 7.23565 22.7032 7.36263 22.5762L11.2696 18.6692C11.5242 18.4146 11.5242 18.0031 11.2696 17.7485C11.015 17.4939 10.6035 17.4939 10.3489 17.7485Z" fill="#1742E7"></path><path d="M6.00756 30.3901C6.13518 30.5171 6.30188 30.5809 6.46793 30.5809C6.63397 30.5809 6.80132 30.5171 6.9283 30.3901L10.8353 26.4832C11.0899 26.2286 11.0899 25.817 10.8353 25.5624C10.5807 25.3078 10.1691 25.3078 9.91453 25.5624L6.46858 29.009L5.62663 28.1671C5.37202 27.9131 4.95983 27.9131 4.70523 28.1671C4.45128 28.4217 4.45128 28.8339 4.70523 29.0885L6.00756 30.3901Z" fill="#1742E7"></path><path d="M6.46793 38.3949C6.63463 38.3949 6.80132 38.3311 6.9283 38.2041L10.8353 34.2971C11.0899 34.0425 11.0899 33.631 10.8353 33.3764C10.5807 33.1218 10.1691 33.1218 9.91453 33.3764L6.46793 36.823L5.62597 35.9817C5.37137 35.7271 4.95918 35.7271 4.70458 35.9817C4.45063 36.2363 4.45063 36.6485 4.70458 36.9024L6.0069 38.2041C6.13518 38.3311 6.30188 38.3949 6.46793 38.3949Z" fill="#1742E7"></path><path d="M25.1348 19.5112H14.7162C14.3568 19.5112 14.065 19.8029 14.065 20.1623C14.065 20.5218 14.3568 20.8135 14.7162 20.8135H25.1348C25.4949 20.8135 25.786 20.5218 25.786 20.1623C25.786 19.8029 25.4949 19.5112 25.1348 19.5112Z" fill="#1742E7"></path><path d="M25.1348 27.3251H14.7162C14.3568 27.3251 14.065 27.6168 14.065 27.9763C14.065 28.3357 14.3568 28.6274 14.7162 28.6274H25.1348C25.4949 28.6274 25.786 28.3357 25.786 27.9763C25.786 27.6168 25.4949 27.3251 25.1348 27.3251Z" fill="#1742E7"></path><path d="M25.1348 35.1391H14.7162C14.3568 35.1391 14.065 35.4301 14.065 35.7902C14.065 36.1503 14.3568 36.4414 14.7162 36.4414H25.1348C25.4949 36.4414 25.786 36.1503 25.786 35.7902C25.786 35.4301 25.4949 35.1391 25.1348 35.1391Z" fill="#1742E7"></path><path d="M10.3489 41.1903L6.90225 44.6369L6.0603 43.7956C5.8057 43.541 5.39351 43.541 5.1389 43.7956C4.88495 44.0502 4.88495 44.4624 5.1389 44.7164L6.44123 46.018C6.56951 46.145 6.73621 46.2088 6.90225 46.2088C7.0683 46.2088 7.23565 46.145 7.36263 46.018L11.2696 42.1111C11.5242 41.8565 11.5242 41.4449 11.2696 41.1903C11.015 40.9357 10.6035 40.9357 10.3489 41.1903Z" fill="#1742E7"></path><path d="M25.1348 42.953H14.7162C14.3568 42.953 14.065 43.2441 14.065 43.6042C14.065 43.9643 14.3568 44.2553 14.7162 44.2553H25.1348C25.4949 44.2553 25.786 43.9643 25.786 43.6042C25.786 43.2441 25.4949 42.953 25.1348 42.953Z" fill="#1742E7"></path></svg>