<svg xmlns="http://www.w3.org/2000/svg" viewBox="0 0 57 41" fill="none"><path d="M55.3516 34.501H54.1484V7.97754C54.1473 7.18017 53.83 6.4158 53.2662 5.85197C52.7024 5.28815 51.938 4.97088 51.1406 4.96973H48.1328V3.60254C48.1317 2.80517 47.8144 2.0408 47.2506 1.47697C46.6867 0.913149 45.9224 0.595884 45.125 0.594727H11.2188C10.4214 0.595884 9.65701 0.913149 9.09318 1.47697C8.52936 2.0408 8.21209 2.80517 8.21094 3.60254V4.96973H5.20312C4.40576 4.97088 3.64138 5.28815 3.07756 5.85197C2.51374 6.4158 2.19647 7.18017 2.19531 7.97754V34.501H0.992188C0.774627 34.501 0.565977 34.5874 0.412139 34.7412C0.258301 34.8951 0.171875 35.1037 0.171875 35.3213V37.5088C0.173032 38.3062 0.490297 39.0705 1.05412 39.6344C1.61794 40.1982 2.38232 40.5154 3.17969 40.5166H53.1641C53.9614 40.5154 54.7258 40.1982 55.2896 39.6344C55.8535 39.0705 56.1707 38.3062 56.1719 37.5088V35.3213C56.1719 35.1037 56.0854 34.8951 55.9316 34.7412C55.7778 34.5874 55.5691 34.501 55.3516 34.501ZM9.85156 3.60254C9.85214 3.24012 9.99637 2.8927 10.2526 2.63643C10.5089 2.38016 10.8563 2.23593 11.2188 2.23535H45.125C45.4874 2.23593 45.8348 2.38016 46.0911 2.63643C46.3474 2.8927 46.4916 3.24012 46.4922 3.60254V23.29C46.4916 23.6525 46.3474 23.9999 46.0911 24.2561C45.8348 24.5124 45.4874 24.6566 45.125 24.6572H35.8281C35.6322 24.6572 35.4429 24.7274 35.2944 24.8552L28.1719 30.9594L22.7327 26.2979H28.1719C28.3894 26.2979 28.5981 26.2114 28.7519 26.0576C28.9058 25.9038 28.9922 25.6951 28.9922 25.4775C28.9922 25.26 28.9058 25.0513 28.7519 24.8975C28.5981 24.7437 28.3894 24.6572 28.1719 24.6572H11.2188C10.8563 24.6566 10.5089 24.5124 10.2526 24.2561C9.99637 23.9999 9.85214 23.6525 9.85156 23.29V3.60254ZM3.83594 7.97754C3.83652 7.61512 3.98074 7.2677 4.23702 7.01143C4.49329 6.75516 4.8407 6.61093 5.20312 6.61035H8.21094V23.29C8.21209 24.0874 8.52936 24.8518 9.09318 25.4156C9.65701 25.9794 10.4214 26.2967 11.2188 26.2979H20.2127L27.6381 32.6624C27.7866 32.7902 27.976 32.8605 28.1719 32.8605C28.3678 32.8605 28.5572 32.7902 28.7056 32.6624L36.1311 26.2979H45.125C45.9224 26.2967 46.6867 25.9794 47.2506 25.4156C47.8144 24.8518 48.1317 24.0874 48.1328 23.29V6.61035H51.1406C51.503 6.61093 51.8505 6.75516 52.1067 7.01143C52.363 7.2677 52.5072 7.61512 52.5078 7.97754V34.501H3.83594V7.97754ZM54.5312 37.5088C54.5307 37.8712 54.3864 38.2186 54.1302 38.4749C53.8739 38.7312 53.5265 38.8754 53.1641 38.876H3.17969C2.81726 38.8754 2.46985 38.7312 2.21358 38.4749C1.95731 38.2186 1.81308 37.8712 1.8125 37.5088V36.1416H54.5312V37.5088Z" fill="#1742E7"></path><path d="M19.7052 18.9478C19.7505 19.0456 19.8147 19.1334 19.8941 19.2063C19.9735 19.2791 20.0666 19.3355 20.1679 19.3722C20.2691 19.4096 20.3767 19.4265 20.4845 19.4218C20.5923 19.4171 20.6981 19.3909 20.7957 19.3449L22.0316 18.7685L22.8399 20.501C22.9753 20.7944 23.1677 21.058 23.4057 21.2765C23.6438 21.4951 23.9229 21.6642 24.2268 21.7741C24.5302 21.8855 24.8527 21.9357 25.1756 21.9216C25.4985 21.9075 25.8155 21.8295 26.108 21.6921L28.0877 20.7679C28.6793 20.4909 29.1368 19.9905 29.3599 19.3766C29.583 18.7627 29.5534 18.0853 29.2777 17.4932L29.1421 17.2033L33.7785 16.8424C33.9107 16.8324 34.0385 16.7904 34.1509 16.7202C34.2633 16.6499 34.357 16.5534 34.4239 16.4389C34.4908 16.3245 34.5289 16.1955 34.535 16.0631C34.5411 15.9307 34.5149 15.7987 34.4588 15.6786L29.8421 5.76816C29.786 5.64799 29.7017 5.54319 29.5963 5.4627C29.4909 5.38222 29.3676 5.32845 29.2369 5.30598C29.1062 5.28352 28.972 5.29303 28.8458 5.33371C28.7196 5.37439 28.6051 5.44502 28.5121 5.53957L22.0808 12.1021L18.2527 13.8871C18.1547 13.9327 18.0667 13.9972 17.9936 14.0769C17.9206 14.1566 17.864 14.2499 17.8271 14.3515C17.7902 14.4531 17.7738 14.561 17.7787 14.669C17.7836 14.777 17.8097 14.883 17.8557 14.9808L19.7052 18.9478ZM28.8544 7.54004L32.4715 15.3057L24.9125 15.893L23.5454 12.9596L28.8544 7.54004ZM24.6205 17.561L27.3954 17.3422L27.7902 18.1899C27.8362 18.2877 27.8624 18.3936 27.8674 18.5015C27.8723 18.6095 27.856 18.7173 27.8192 18.8189C27.7824 18.9205 27.7259 19.0139 27.653 19.0936C27.5801 19.1734 27.4922 19.2379 27.3943 19.2836L25.4135 20.2089C25.2166 20.2999 24.9917 20.3093 24.7879 20.2349C24.5842 20.1605 24.4182 20.0084 24.3263 19.8119L23.518 18.0772L24.6205 17.561ZM22.165 13.8838L23.319 16.3611L20.8438 17.5107L19.6899 15.0344L22.165 13.8838Z" fill="#1742E7"></path><path d="M35.0188 13.0088C35.0642 13.1069 35.1287 13.195 35.2084 13.2681C35.2881 13.3412 35.3815 13.3978 35.4832 13.4346C35.5849 13.4714 35.6928 13.4877 35.8008 13.4826C35.9088 13.4775 36.0148 13.451 36.1125 13.4047L38.0922 12.4805C38.1923 12.4366 38.2826 12.3731 38.3577 12.2938C38.4329 12.2144 38.4915 12.1209 38.53 12.0186C38.5686 11.9163 38.5863 11.8074 38.5821 11.6982C38.5779 11.5889 38.552 11.4817 38.5058 11.3826C38.4596 11.2836 38.394 11.1948 38.313 11.1214C38.232 11.048 38.1372 10.9916 38.034 10.9554C37.9309 10.9192 37.8216 10.904 37.7125 10.9106C37.6034 10.9173 37.4967 10.9457 37.3988 10.9941L35.4147 11.915C35.3168 11.9608 35.2289 12.0253 35.1559 12.1051C35.083 12.1848 35.0266 12.2782 34.9898 12.3798C34.953 12.4814 34.9366 12.5892 34.9416 12.6972C34.9466 12.8051 34.9728 12.911 35.0188 13.0088Z" fill="#1742E7"></path><path d="M33.6342 10.0349C33.7002 10.1764 33.8052 10.2962 33.937 10.3801C34.0688 10.464 34.2217 10.5085 34.3779 10.5085C34.4974 10.5084 34.6155 10.4818 34.7235 10.4308L36.7032 9.50879C36.8008 9.46319 36.8885 9.39881 36.9612 9.31932C37.0339 9.23984 37.0903 9.14682 37.127 9.04556C37.1638 8.9443 37.1803 8.83679 37.1755 8.72917C37.1707 8.62154 37.1448 8.51592 37.0992 8.41832C37.0536 8.32072 36.9892 8.23306 36.9097 8.16034C36.8302 8.08763 36.7372 8.03128 36.6359 7.99451C36.4314 7.92026 36.2058 7.93028 36.0087 8.02238L34.029 8.9466C33.8324 9.03868 33.6805 9.20501 33.6064 9.40905C33.5324 9.6131 33.5424 9.83819 33.6342 10.0349Z" fill="#1742E7"></path><path d="M32.9919 7.54004C33.1117 7.54021 33.23 7.51407 33.3386 7.46348L35.3183 6.53926C35.4163 6.49373 35.5044 6.42933 35.5776 6.34975C35.6507 6.27017 35.7075 6.17697 35.7446 6.07545C35.7817 5.97394 35.7985 5.86611 35.7939 5.75812C35.7894 5.65012 35.7636 5.54409 35.7181 5.44606C35.6725 5.34803 35.6081 5.25993 35.5285 5.18678C35.449 5.11364 35.3558 5.05689 35.2542 5.01976C35.1527 4.98264 35.0449 4.96588 34.9369 4.97043C34.8289 4.97498 34.7229 5.00076 34.6249 5.04629L32.6452 5.97051C32.4758 6.04932 32.3384 6.1836 32.2557 6.35113C32.1729 6.51865 32.1499 6.70939 32.1903 6.8918C32.2308 7.0742 32.3323 7.23733 32.478 7.35422C32.6238 7.4711 32.8051 7.53472 32.9919 7.53457V7.54004Z" fill="#1742E7"></path></svg>