<svg xmlns="http://www.w3.org/2000/svg" viewBox="0 0 57 57" fill="none"><path d="M32.1492 36.2003C30.781 36.2003 29.9262 35.313 29.5821 34.482C29.2381 33.6516 29.2149 32.4191 30.1822 31.4518C30.9051 30.729 30.9051 29.5521 30.1822 28.8292L27.8975 26.5445C27.1746 25.8217 25.9977 25.8217 25.2749 26.5445C24.3076 27.5118 23.0751 27.4886 22.2447 27.1446C21.4142 26.8005 20.5264 25.9457 20.5264 24.5776C20.5264 23.5547 19.6947 22.723 18.6718 22.723H15.4412C14.4183 22.723 13.5867 23.5547 13.5867 24.5776C13.5867 25.9457 12.6994 26.8005 11.8684 27.1446C11.0374 27.4886 9.80551 27.5118 8.83822 26.5439C8.11535 25.821 6.93847 25.821 6.2156 26.5439L3.93088 28.8286C3.20801 29.5515 3.20801 30.7284 3.93088 31.4512C4.89817 32.4185 4.87556 33.651 4.53093 34.4814C4.18691 35.3118 3.33205 36.1997 1.96391 36.1997C0.941014 36.1997 0.109375 37.0313 0.109375 38.0542V41.2848C0.109375 42.3077 0.941014 43.1393 1.96391 43.1393C3.33205 43.1393 4.18691 44.0266 4.53093 44.8576C4.87495 45.688 4.89817 46.9205 3.93027 47.8878C3.2074 48.6106 3.2074 49.7875 3.93027 50.5104L6.21498 52.7951C6.93847 53.5186 8.11474 53.518 8.83761 52.7951C9.80674 51.826 11.0386 51.8486 11.869 52.192C12.6988 52.536 13.5861 53.3915 13.5861 54.7614C13.5861 55.7843 14.4177 56.616 15.4406 56.616H18.6712C19.6941 56.616 20.5258 55.7843 20.5258 54.7614C20.5258 53.3933 21.413 52.5384 22.244 52.1944C23.0745 51.8504 24.3069 51.8272 25.2742 52.7945C25.9977 53.518 27.174 53.5173 27.8969 52.7945L30.1816 50.5098C30.9045 49.7869 30.9045 48.61 30.1816 47.8872C29.2143 46.9199 29.2369 45.6874 29.5815 44.857C29.9256 44.0266 30.7804 43.1387 32.1486 43.1387C33.1715 43.1387 34.0031 42.3071 34.0031 41.2842V38.0536C34.0043 37.0319 33.1721 36.2003 32.1492 36.2003ZM32.4168 41.2848C32.4168 41.4321 32.297 41.5524 32.1492 41.5524C30.3508 41.5524 28.8049 42.5863 28.1156 44.2502C27.4264 45.9141 27.7881 47.7381 29.0597 49.0097C29.1642 49.1141 29.1642 49.284 29.0597 49.3879L26.775 51.6726C26.6705 51.7771 26.5012 51.7771 26.3967 51.6726C25.1251 50.401 23.3012 50.0393 21.6373 50.7285C19.9734 51.4178 18.9395 52.9631 18.9395 54.7621C18.9395 54.9093 18.8197 55.0297 18.6718 55.0297H15.4412C15.294 55.0297 15.1736 54.9099 15.1736 54.7621C15.1736 52.9619 14.1403 51.4153 12.477 50.7261C11.9197 50.4951 11.3441 50.3827 10.7777 50.3827C9.65336 50.3827 8.56325 50.8269 7.71633 51.6732C7.61184 51.7777 7.44258 51.7777 7.33809 51.6732L5.05399 49.3891C4.9495 49.2846 4.9495 49.1148 5.05399 49.0109C6.32558 47.7393 6.68794 45.9153 5.99867 44.2514C5.30941 42.5876 3.76406 41.5537 1.96513 41.5537C1.81787 41.5537 1.69749 41.4339 1.69749 41.286V38.0554C1.69749 37.9082 1.81726 37.7878 1.96513 37.7878C3.76345 37.7878 5.30941 36.7539 5.99867 35.09C6.68794 33.4261 6.3262 31.6022 5.05399 30.3306C4.9495 30.2261 4.9495 30.0562 5.05399 29.9523L7.33809 27.6682C7.44258 27.5637 7.61246 27.5637 7.71633 27.6682C8.98793 28.9398 10.8119 29.3022 12.4758 28.6123C14.1397 27.923 15.1736 26.3777 15.1736 24.5788C15.1736 24.4315 15.2934 24.3111 15.4412 24.3111H18.6718C18.8191 24.3111 18.9395 24.4309 18.9395 24.5788C18.9395 26.3771 19.9734 27.923 21.6373 28.6123C23.3012 29.3016 25.1251 28.9398 26.3967 27.6682C26.5012 27.5637 26.6711 27.5637 26.775 27.6682L29.0591 29.9523C29.1636 30.0568 29.1636 30.2267 29.0591 30.3306C27.7875 31.6022 27.4251 33.4261 28.115 35.09C28.8043 36.7539 30.3496 37.7878 32.1486 37.7878C32.2958 37.7878 32.4162 37.9075 32.4162 38.0554L32.4168 41.2848ZM23.5908 36.7496C24.0289 36.7496 24.3846 36.3946 24.3846 35.9559C24.3846 35.5171 24.0295 35.1621 23.5908 35.1621H22.1603C22.0063 34.9238 21.8035 34.7203 21.5646 34.5663V33.1359C21.5646 32.6978 21.2095 32.3421 20.7708 32.3421C20.3321 32.3421 19.977 32.6972 19.977 33.1359V34.2486H17.8506V33.1359C17.8506 32.6978 17.4956 32.3421 17.0568 32.3421C16.6187 32.3421 16.2631 32.6972 16.2631 33.1359V34.2486H14.1366V33.1359C14.1366 32.6978 13.7816 32.3421 13.3429 32.3421C12.9048 32.3421 12.5491 32.6972 12.5491 33.1359V34.5663C12.3108 34.7203 12.1073 34.9232 11.9534 35.1621H10.5229C10.0848 35.1621 9.72913 35.5171 9.72913 35.9559C9.72913 36.3946 10.0842 36.7496 10.5229 36.7496H11.6356V38.8761H10.5229C10.0848 38.8761 9.72913 39.2311 9.72913 39.6698C9.72913 40.1079 10.0842 40.4636 10.5229 40.4636H11.6356V42.59H10.5229C10.0848 42.59 9.72913 42.945 9.72913 43.3837C9.72913 43.8219 10.0842 44.1775 10.5229 44.1775H11.9534C12.1073 44.4158 12.3102 44.6193 12.5491 44.7733V46.2037C12.5491 46.6418 12.9041 46.9975 13.3429 46.9975C13.781 46.9975 14.1366 46.6425 14.1366 46.2037V45.0904H16.2631V46.2031C16.2631 46.6412 16.6181 46.9969 17.0568 46.9969C17.495 46.9969 17.8506 46.6418 17.8506 46.2031V45.0904H19.977V46.2031C19.977 46.6412 20.3321 46.9969 20.7708 46.9969C21.2095 46.9969 21.5646 46.6418 21.5646 46.2031V44.7727C21.8029 44.6187 22.0063 44.4158 22.1603 44.1769H23.5908C24.0289 44.1769 24.3846 43.8219 24.3846 43.3831C24.3846 42.945 24.0295 42.5894 23.5908 42.5894H22.4781V40.4629H23.5908C24.0289 40.4629 24.3846 40.1079 24.3846 39.6692C24.3846 39.2311 24.0295 38.8754 23.5908 38.8754H22.4781V36.749H23.5908V36.7496ZM13.624 43.5029C13.4034 43.5029 13.2243 43.3239 13.2243 43.1033V36.2363C13.2243 36.0157 13.4034 35.8367 13.624 35.8367H20.4909C20.7115 35.8367 20.8906 36.0157 20.8906 36.2363V43.1039C20.8906 43.3245 20.7115 43.5035 20.4909 43.5035L13.624 43.5029ZM54.362 12.7471C53.1699 12.7471 52.4244 11.9735 52.1244 11.2494C51.8244 10.5253 51.8042 9.4517 52.6474 8.60846C53.3294 7.92653 53.3294 6.81748 52.6474 6.13555L50.5913 4.07938C50.2613 3.7488 49.8219 3.56732 49.3545 3.56732C48.8876 3.56732 48.4483 3.74941 48.1183 4.07938C47.2751 4.92263 46.2015 4.90246 45.4774 4.60244C44.7533 4.30241 43.9797 3.55755 43.9797 2.36478C43.9797 1.40055 43.1951 0.615967 42.2315 0.615967H39.3235C38.3593 0.615967 37.5753 1.40055 37.5753 2.36478C37.5753 3.55694 36.8017 4.30241 36.0776 4.60244C35.3535 4.90246 34.2799 4.92201 33.4366 4.07938C33.1067 3.7488 32.6673 3.56732 32.1999 3.56732C31.733 3.56732 31.2937 3.74941 30.9637 4.07938L28.9075 6.13555C28.2256 6.81748 28.2256 7.92653 28.9075 8.60846C29.7508 9.4517 29.7306 10.5253 29.4306 11.2494C29.1306 11.9735 28.3857 12.7471 27.1929 12.7471C26.2287 12.7471 25.4441 13.5317 25.4441 14.4959V17.4039C25.4441 18.3681 26.2287 19.1521 27.1929 19.1521C28.3851 19.1521 29.1306 19.9257 29.4306 20.6498C29.7306 21.3738 29.7508 22.4475 28.9075 23.2907C28.2256 23.9726 28.2256 25.0817 28.9075 25.7636L30.9637 27.8198C31.2937 28.1503 31.733 28.3318 32.2005 28.3318C32.6673 28.3318 33.1067 28.1497 33.4366 27.8198C34.2811 26.9753 35.3553 26.9949 36.0788 27.2943C36.8023 27.5937 37.5753 28.3398 37.5753 29.5338C37.5753 30.498 38.3599 31.2826 39.3235 31.2826H42.2315C43.1957 31.2826 43.9797 30.498 43.9797 29.5338C43.9797 28.3416 44.7533 27.5961 45.4774 27.2961C46.2015 26.9961 47.2757 26.9765 48.1183 27.8192C48.4483 28.1497 48.8876 28.3312 49.3551 28.3312C49.8219 28.3312 50.2613 28.1491 50.5913 27.8192L52.6474 25.763C53.3294 25.0811 53.3294 23.972 52.6474 23.2901C51.8042 22.4468 51.8244 21.3732 52.1244 20.6491C52.4244 19.925 53.1693 19.1515 54.362 19.1515C55.3263 19.1515 56.1109 18.3669 56.1109 17.4033V14.4953C56.1109 13.5317 55.3263 12.7471 54.362 12.7471ZM54.524 17.4033C54.524 17.4925 54.4513 17.5646 54.3627 17.5646C52.711 17.5646 51.2921 18.5135 50.6591 20.0418C50.026 21.57 50.3584 23.2443 51.5262 24.4126C51.5891 24.4755 51.5891 24.5782 51.5262 24.6411L49.47 26.6973C49.4309 26.7364 49.3863 26.7443 49.3557 26.7443C49.3252 26.7443 49.2806 26.7364 49.2414 26.6973C48.0737 25.5296 46.3988 25.1972 44.8706 25.8302C43.3424 26.4632 42.3934 27.8821 42.3934 29.5338C42.3934 29.623 42.3207 29.6951 42.2321 29.6951H39.3241C39.2349 29.6951 39.1628 29.6224 39.1628 29.5338C39.1628 27.8803 38.2138 26.4608 36.6868 25.8278C36.1748 25.6157 35.6468 25.5125 35.1262 25.5125C34.0935 25.5125 33.0926 25.92 32.3154 26.6979C32.2763 26.737 32.2317 26.7449 32.2011 26.7449C32.1705 26.7449 32.1259 26.737 32.0868 26.6979L30.0307 24.6417C29.9677 24.5788 29.9677 24.4761 30.0307 24.4132C31.1984 23.2455 31.5308 21.5706 30.8977 20.0424C30.2647 18.5141 28.8458 17.5652 27.1942 17.5652C27.1049 17.5652 27.0328 17.4925 27.0328 17.4039V14.4959C27.0328 14.4067 27.1056 14.3346 27.1942 14.3346C28.8458 14.3346 30.2647 13.3856 30.8977 11.8574C31.5308 10.3292 31.1984 8.65429 30.0307 7.48658C29.9677 7.42364 29.9677 7.32098 30.0307 7.25805L32.0868 5.20187C32.1259 5.16277 32.1705 5.15482 32.2011 5.15482C32.2317 5.15482 32.2763 5.16277 32.3154 5.20187C33.4831 6.36958 35.158 6.70199 36.6862 6.06895C38.2144 5.4359 39.1634 4.01705 39.1634 2.36539C39.1634 2.27618 39.2361 2.20408 39.3247 2.20408H42.2327C42.3219 2.20408 42.394 2.27679 42.394 2.36539C42.394 4.01705 43.343 5.4359 44.8712 6.06895C46.3995 6.70199 48.0743 6.36958 49.2421 5.20187C49.2812 5.16277 49.3258 5.15482 49.3563 5.15482C49.3869 5.15482 49.4315 5.16277 49.4706 5.20187L51.5268 7.25805C51.5897 7.32098 51.5897 7.42364 51.5268 7.48658C50.3591 8.65429 50.0266 10.3292 50.6597 11.8574C51.2927 13.3856 52.7116 14.3346 54.3633 14.3346C54.4525 14.3346 54.5246 14.4073 54.5246 14.4959L54.524 17.4033ZM46.6585 13.4003C47.0967 13.4003 47.4523 13.0453 47.4523 12.6065C47.4523 12.1684 47.0973 11.8128 46.6585 11.8128H45.4151C45.2812 11.616 45.1114 11.4455 44.914 11.3117V10.0683C44.914 9.63013 44.559 9.2745 44.1202 9.2745C43.6821 9.2745 43.3265 9.62952 43.3265 10.0683V10.9909H41.5709V10.0683C41.5709 9.63013 41.2159 9.2745 40.7772 9.2745C40.3391 9.2745 39.9834 9.62952 39.9834 10.0683V10.9909H38.2279V10.0683C38.2279 9.63013 37.8729 9.2745 37.4341 9.2745C36.996 9.2745 36.6404 9.62952 36.6404 10.0683V11.3117C36.443 11.4455 36.2731 11.6154 36.1393 11.8128H34.8958C34.4577 11.8128 34.1021 12.1678 34.1021 12.6065C34.1021 13.0447 34.4571 13.4003 34.8958 13.4003H35.8185V15.1558H34.8958C34.4577 15.1558 34.1021 15.5108 34.1021 15.9496C34.1021 16.3883 34.4571 16.7433 34.8958 16.7433H35.8185V18.4989H34.8958C34.4577 18.4989 34.1021 18.8539 34.1021 19.2926C34.1021 19.7307 34.4571 20.0864 34.8958 20.0864H36.1393C36.2731 20.2837 36.443 20.4536 36.6404 20.5874V21.8309C36.6404 22.269 36.9954 22.6247 37.4341 22.6247C37.8723 22.6247 38.2279 22.2696 38.2279 21.8309V20.9082H39.9834V21.8309C39.9834 22.269 40.3384 22.6247 40.7772 22.6247C41.2153 22.6247 41.5709 22.2696 41.5709 21.8309V20.9082H43.3265V21.8309C43.3265 22.269 43.6815 22.6247 44.1202 22.6247C44.5584 22.6247 44.914 22.2696 44.914 21.8309V20.5874C45.1114 20.4536 45.2812 20.2837 45.4151 20.0864H46.6585C47.0967 20.0864 47.4523 19.7313 47.4523 19.2926C47.4523 18.8545 47.0973 18.4989 46.6585 18.4989H45.7359V16.7433H46.6585C47.0967 16.7433 47.4523 16.3883 47.4523 15.9496C47.4523 15.5108 47.0973 15.1558 46.6585 15.1558H45.7359V13.4003H46.6585ZM37.6871 19.3207C37.535 19.3207 37.4066 19.1924 37.4066 19.0403V12.8589C37.4066 12.7068 37.535 12.5784 37.6871 12.5784H43.8685C44.0206 12.5784 44.149 12.7068 44.149 12.8589V19.0403C44.149 19.1924 44.0206 19.3207 43.8685 19.3207H37.6871ZM22.1188 10.0102C22.1188 10.4483 21.7638 10.804 21.325 10.804C17.1913 10.804 13.8281 14.1672 13.8281 18.3009C13.8281 18.739 13.473 19.0946 13.0343 19.0946C12.5962 19.0946 12.2405 18.7396 12.2405 18.3009C12.2405 13.2921 16.3156 9.21706 21.3244 9.21706C21.7631 9.21706 22.1188 9.57208 22.1188 10.0102ZM8.42087 18.3009C8.42087 14.8717 9.76824 11.6362 12.2143 9.19018C14.6603 6.74477 17.8958 5.39741 21.3244 5.39741C21.3238 5.39741 21.325 5.39741 21.3244 5.39741C21.7625 5.39741 22.1188 5.75243 22.1188 6.19116C22.1188 6.62928 21.7638 6.98491 21.325 6.98491C18.3199 6.98491 15.4828 8.16667 13.3362 10.3127C11.1895 12.4587 10.0078 15.2958 10.0078 18.3009C10.0078 18.739 9.65275 19.0946 9.21402 19.0946C8.77651 19.0946 8.42087 18.739 8.42087 18.3009ZM22.1188 13.8299C22.1188 14.268 21.7638 14.6236 21.325 14.6236C19.2976 14.6236 17.6477 16.2734 17.6477 18.3009C17.6477 18.739 17.2927 19.0946 16.854 19.0946C16.4159 19.0946 16.0602 18.7396 16.0602 18.3009C16.0602 15.3984 18.4219 13.0367 21.3244 13.0367C21.7631 13.0367 22.1188 13.3917 22.1188 13.8299Z" fill="#1742E7"></path></svg>