<svg xmlns="http://www.w3.org/2000/svg" viewBox="0 0 57 57" fill="none"><path d="M17.3183 0.665113C17.0061 0.664009 16.7437 0.899183 16.7107 1.20958L14.8869 18.2527C14.8487 18.6126 15.1312 18.9262 15.4932 18.9256C24.0149 18.9256 32.5365 18.9256 41.0581 18.9256C41.3962 18.9269 41.6705 18.6525 41.6692 18.3145V4.92471C41.6679 4.58857 41.3943 4.3171 41.0581 4.31839H38.3212C38.196 4.31752 38.0734 4.35519 37.9704 4.42651L36.98 5.11602L36.4878 1.20003C36.4505 0.895639 36.1928 0.6664 35.8862 0.665043H34.0564C33.7497 0.666423 33.4919 0.895662 33.4548 1.20003L32.5845 8.17492L31.927 8.63261V4.92464C31.9256 4.59034 31.6549 4.31965 31.3206 4.31832H28.8844C28.7609 4.31843 28.6401 4.35604 28.5384 4.42644L22.3809 8.71103L21.5783 1.20951C21.5454 0.89909 21.2829 0.663939 20.9707 0.665043L17.3183 0.665113ZM17.8664 1.88364H20.4226L22.1217 17.7082H16.1674L17.8664 1.88364ZM34.5962 1.88364H35.3464L35.8505 5.90193L33.9244 7.24291L34.5962 1.88364ZM29.0735 5.53573H30.7095V9.79532C30.7094 10.2874 31.263 10.5762 31.6666 10.2946L38.5102 5.53573H40.4518V17.7082H38.622V12.8376C38.6206 12.5033 38.3499 12.2326 38.0156 12.2313H34.9731C34.6369 12.23 34.3633 12.5014 34.3619 12.8376V17.7082H23.3439L22.5283 10.0866L29.0735 5.53573ZM24.6244 9.79532C24.2878 9.79403 24.014 10.0662 24.0133 10.4028V12.2313C24.0146 12.5674 24.2882 12.8389 24.6244 12.8376H28.8844C29.2188 12.8362 29.4895 12.5656 29.4908 12.2313V10.4028C29.4901 10.0681 29.2192 9.79666 28.8844 9.79532H24.6244ZM25.2308 11.0139H28.2781V11.6202H25.2308V11.0139ZM35.5806 13.4486H37.4092V17.7082H35.5806V13.4486ZM25.7206 22.0308L17.9829 35.4301L17.6774 34.3697C17.5833 34.047 17.2451 33.8617 16.9224 33.956C16.602 34.0503 16.4174 34.3849 16.5086 34.7061L17.2101 37.1421C17.3583 37.6601 18.057 37.7443 18.3241 37.2764L26.7764 22.6372C26.9439 22.3456 26.8434 21.9735 26.5516 21.8061C26.2081 21.6078 25.8638 21.7828 25.7206 22.0308ZM29.7524 22.6371L38.2046 37.2764C38.3721 37.5679 38.7442 37.6685 39.0357 37.5011C39.3273 37.3336 39.4279 36.9616 39.2605 36.6701L31.5228 23.2661L32.5917 23.5312C32.918 23.6119 33.248 23.4129 33.3288 23.0866C33.4096 22.7602 33.2105 22.4303 32.8841 22.3495L30.4254 21.7432C29.8683 21.5939 29.5005 22.2008 29.7524 22.6371ZM19.821 39.622C19.4867 39.6233 19.216 39.894 19.2147 40.2283C19.2133 40.5644 19.4848 40.838 19.821 40.8393H35.2965L34.5332 41.6346C34.3019 41.8769 34.31 42.2605 34.5516 42.493C34.7926 42.7255 35.1762 42.7196 35.41 42.4791L37.1673 40.6495C37.5346 40.2635 37.2637 39.6253 36.7309 39.6212L19.821 39.622ZM47.7531 39.622C43.0535 39.622 39.2331 43.442 39.2331 48.1411C39.2331 52.8402 43.0535 56.665 47.7531 56.665C52.4527 56.665 56.2779 52.8402 56.2779 48.1411C56.278 43.442 52.4527 39.622 47.7531 39.622ZM47.7531 40.8393C51.7947 40.8393 55.0604 44.0999 55.0604 48.1411C55.0604 49.3499 54.7673 50.4892 54.2496 51.4925C52.4996 49.9234 50.2279 48.9721 47.7531 48.9721C45.2777 48.9721 43.0096 49.9239 41.2603 51.4936C40.7428 50.4901 40.4518 49.3503 40.4518 48.1411C40.4518 44.0999 43.7115 40.8393 47.7531 40.8393ZM2.0973 41.4456C1.76111 41.447 1.48965 41.7205 1.49093 42.0567V49.9695H0.884567C0.548379 49.9682 0.274772 50.2397 0.273438 50.5758V54.2291C0.274772 54.5653 0.548379 54.8367 0.884567 54.8354H2.78569C3.05753 55.883 4.016 56.665 5.1446 56.665C6.27319 56.665 7.23045 55.883 7.50228 54.8354C10.7997 54.8354 14.097 54.8354 17.3944 54.8354C17.6662 55.883 18.6247 56.665 19.7533 56.665C20.8819 56.665 21.8403 55.883 22.1122 54.8354H24.0133C24.3495 54.8367 24.6231 54.5653 24.6244 54.2291V50.5758C24.6243 50.3715 24.5216 50.1807 24.351 50.0681L22.7233 48.9864L21.5593 44.3439C21.4923 44.0732 21.2497 43.8826 20.9707 43.8815H16.0996V42.0567C16.1009 41.7205 15.8294 41.447 15.4932 41.4456H2.0973ZM47.7531 42.4977C46.2321 42.4977 44.99 43.7445 44.99 45.2653C44.99 46.7861 46.2321 48.0329 47.7531 48.0329C49.2741 48.0329 50.521 46.7861 50.521 45.2653C50.521 43.7445 49.2741 42.4977 47.7531 42.4977ZM2.70843 42.6643H14.8821V49.9696H2.70843V42.6643ZM47.7531 43.7152C48.6161 43.7152 49.3035 44.4025 49.3035 45.2654C49.3035 46.1283 48.6161 46.8157 47.7531 46.8157C46.8901 46.8157 46.2075 46.1283 46.2075 45.2654C46.2075 44.4025 46.8901 43.7152 47.7531 43.7152ZM16.0996 45.099H18.5358V48.1412H16.0996V45.099ZM19.7533 45.099H20.4952L21.5961 49.5072C21.6334 49.6547 21.7247 49.7827 21.8518 49.8662L23.4069 50.904V53.6181H22.111C21.8375 52.5729 20.8801 51.7945 19.7533 51.7945C18.6264 51.7945 17.6691 52.5729 17.3956 53.6181H16.0996V49.3586H19.1469C19.4812 49.3573 19.7519 49.0866 19.7533 48.7523V45.099ZM47.7531 50.1896C49.9892 50.1896 52.0274 51.0739 53.5885 52.5423C52.2559 54.3075 50.1403 55.4466 47.7531 55.4466C45.3654 55.4466 43.2514 54.307 41.9201 52.5411C43.481 51.0738 45.5179 50.1896 47.7531 50.1896ZM1.49093 51.1871H14.8821V53.6181H7.50109C7.22757 52.5729 6.27144 51.7945 5.1446 51.7945C4.01775 51.7945 3.0604 52.5729 2.78689 53.6181H1.49093V51.1871ZM5.1446 53.0118C5.8242 53.0118 6.36207 53.5497 6.36207 54.2292C6.36207 54.9088 5.8242 55.4466 5.1446 55.4466C4.465 55.4466 3.9271 54.9088 3.9271 54.2292C3.9271 53.5497 4.465 53.0118 5.1446 53.0118ZM19.7533 53.0118C20.4329 53.0118 20.9707 53.5497 20.9707 54.2292C20.9707 54.9088 20.4329 55.4466 19.7533 55.4466C19.0737 55.4466 18.5358 54.9088 18.5358 54.2292C18.5358 53.5497 19.0737 53.0118 19.7533 53.0118Z" fill="#1742E7"></path></svg>