<svg xmlns="http://www.w3.org/2000/svg" viewBox="0 0 57 47" fill="none"><path d="M38.39 10.89V0.541992H0.273438V27.9339H3.92561L11.7047 35.8471V27.9339H17.8465V38.2819H44.7752V46.1951L52.6213 38.2515H56.2734V10.89H38.39ZM55.056 37.0341H52.1039L46.0169 43.1942V37.0341H19.0639V27.9034H38.39V12.077H55.056V37.0341ZM10.4691 32.8522L4.41865 26.6982H1.49083V1.77158H37.1726V26.7286H10.4691V32.8522Z" fill="#1742E7"></path><path d="M19.3325 19.9719L25.1759 23.0459L24.062 16.5388L28.6029 12.1074L28.7855 11.9309L22.2542 10.9813L22.1872 10.89L19.3081 5.05856L16.3864 10.9813L9.87942 11.9613L14.6029 16.5692L13.489 23.0459L19.3325 19.9719ZM19.3325 7.79775L21.5785 12.1074L26.1925 12.777L22.7777 16.1127L23.5812 20.818L19.3325 18.5962L15.1081 20.818L15.9116 16.1127L12.4907 12.777L17.2203 12.0952L19.3325 7.79775Z" fill="#1742E7"></path></svg>