<svg xmlns="http://www.w3.org/2000/svg" viewBox="0 0 25 23" fill="none"><path d="M16.1719 1.29443L22.125 7.34131C24.6094 9.82568 24.6094 13.8101 22.125 16.2944L16.875 21.5913C16.4531 22.0601 15.75 22.0601 15.2812 21.5913C14.8594 21.1694 14.8594 20.4663 15.2812 20.0444L20.5312 14.7007C22.125 13.1069 22.125 10.5288 20.5312 8.93506L14.5312 2.84131C14.1094 2.41943 14.1094 1.71631 14.5781 1.24756C15 0.825684 15.7031 0.825684 16.1719 1.29443ZM11.3438 1.81006L19.2188 9.68506C20.3906 10.8569 20.3906 12.7788 19.2188 13.9507L12.9844 20.1851C11.8125 21.3569 9.89062 21.3569 8.71875 20.1851L0.84375 12.3101C0.28125 11.7476 0 10.9976 0 10.2007V3.16943C0 1.95068 0.984375 0.919434 2.25 0.919434H9.23438C10.0312 0.919434 10.7812 1.24756 11.3438 1.81006ZM2.25 3.16943V10.2007C2.25 10.3882 2.29688 10.5757 2.4375 10.7163L10.3125 18.5913C10.5938 18.8726 11.1094 18.8726 11.3906 18.5913L17.625 12.3569C17.9531 12.0757 17.9531 11.5601 17.625 11.2788L9.75 3.40381C9.60938 3.26318 9.42188 3.16943 9.23438 3.16943H2.25ZM6.75 6.16943C6.75 7.01318 6.04688 7.66943 5.25 7.66943C4.40625 7.66943 3.75 7.01318 3.75 6.16943C3.75 5.37256 4.40625 4.66943 5.25 4.66943C6.04688 4.66943 6.75 5.37256 6.75 6.16943Z" fill="#1742E7"></path></svg>