<svg xmlns="http://www.w3.org/2000/svg" viewBox="0 0 80 80" fill="none"><path d="M79 1V79H1V1H79Z" fill="white"></path><path d="M79 1V79H1V1H79Z" stroke="#E6EAF0" stroke-width="2"></path><path d="M21.4668 18.3631C21.3398 18.451 20.1875 19.7987 18.8984 21.3612L16.5547 24.203L16.6035 57.4451L16.877 57.7967C17.3457 58.4119 17.7461 58.5487 19.0449 58.5487H20.168V59.3006C20.168 59.7205 20.2168 60.2381 20.2754 60.453C20.4121 60.951 20.9883 61.5272 21.4863 61.6639C21.7598 61.742 26.0957 61.7713 36.3789 61.7713C50.2656 61.7713 50.9004 61.7616 51.2715 61.5858C51.7988 61.3416 52.0918 60.9998 52.2871 60.3944L52.4531 59.8866L53.332 59.5741C58.3125 57.7869 61.9355 53.5682 63.1465 48.1483C63.3516 47.2205 63.3711 46.908 63.4004 42.1912L63.4395 37.2108L58.5273 35.8045C55.8223 35.0233 53.3418 34.3104 53.0098 34.2127L52.4043 34.0272L52.3457 22.7577L52.1211 22.367C51.9941 22.1522 51.7402 21.8592 51.5449 21.7323C51.2227 21.5077 51.0859 21.4881 49.9434 21.4588L48.7031 21.4198L48.6641 20.4237C48.6348 19.535 48.6055 19.3787 48.3711 19.0272C48.2344 18.8123 47.9512 18.5584 47.7363 18.451C47.375 18.2752 46.9355 18.2655 34.5234 18.2362C23.0488 18.2166 21.6523 18.2264 21.4668 18.3631ZM47.1602 19.7401C47.2969 19.8768 47.3164 20.7166 47.3164 27.533V35.1698L43.752 36.1952L40.1875 37.2108V38.6268H30.7441C25.5391 38.6268 21.2422 38.6659 21.1738 38.7049C20.8613 38.9002 20.8613 39.6229 21.1738 39.8182C21.2422 39.8573 25.5391 39.8963 30.7441 39.8963H40.1875V42.9237L30.7148 42.9432C22.1992 42.9725 21.2324 42.992 21.0957 43.1287C20.8809 43.3436 20.8809 43.8612 21.0957 44.0955C21.2715 44.2909 21.3984 44.2909 30.7344 44.2909H40.1875L40.1973 45.2869C40.1973 45.8436 40.2363 46.5272 40.2754 46.8006L40.3438 47.3182H30.8516C21.7695 47.3182 21.3496 47.328 21.1348 47.494C20.8711 47.7186 20.8418 48.2264 21.0859 48.4705C21.2324 48.6268 21.9844 48.6366 30.9199 48.6854L40.5977 48.7342L40.9688 49.867C41.1738 50.492 41.4082 51.1366 41.4961 51.3026C41.584 51.4686 41.6523 51.6248 41.6523 51.6639C41.6523 51.6932 37.0625 51.7127 31.4668 51.7127C21.3984 51.7127 21.2715 51.7127 21.0957 51.908C20.8516 52.1717 20.8809 52.6893 21.1543 52.9041C21.3496 53.0701 21.9941 53.0799 31.877 53.0799H42.3945L42.9707 53.9393C43.293 54.4178 44.0645 55.3162 44.7285 55.9803L45.9102 57.1815H32.0332C21.3691 57.1815 18.127 57.1522 18.0391 57.0643C17.9512 56.9764 17.9219 53.285 17.9219 41.0487V25.1502H19.582C21.6426 25.1502 21.9844 25.0233 22.4531 24.1053C22.5801 23.8416 22.6094 23.4315 22.6094 21.6834V19.5838H34.8066C45.7734 19.5838 47.0234 19.6034 47.1602 19.7401ZM21.1152 23.6561C21.0176 23.7537 20.7051 23.783 19.8555 23.7635L18.7324 23.7342L21.1934 20.7264L21.2227 22.1327C21.2422 23.1971 21.2129 23.5584 21.1152 23.6561ZM50.8711 22.9627C51.0078 23.0994 51.0273 23.744 51.0273 28.6073V34.0955L49.9629 34.408C49.377 34.5838 48.8496 34.7205 48.791 34.7205C48.7129 34.7205 48.6836 32.953 48.6836 28.7635V22.8065H49.6992C50.5 22.8065 50.7539 22.8358 50.8711 22.9627ZM56.6719 36.6737C59.2891 37.4354 61.5742 38.0897 61.75 38.1483L62.0723 38.2557L62.0332 42.7674C61.9941 47.6502 62.0039 47.6112 61.3594 49.5643C60.0703 53.5096 56.8477 56.8201 52.834 58.3045L51.8672 58.6659L51.0762 58.4022C46.2422 56.7811 42.6191 52.5135 41.7402 47.4354C41.5742 46.4588 41.5547 45.8338 41.5547 42.2791V38.2459L42.0723 38.0897C42.3457 38.0116 44.6211 37.3573 47.1211 36.6346C49.6211 35.9119 51.7207 35.3162 51.7891 35.3162C51.8574 35.3065 54.0547 35.9217 56.6719 36.6737ZM48.5371 58.8026C48.9668 59.0272 49.6992 59.3494 50.1777 59.5252C50.6465 59.7108 51.0273 59.8963 51.0273 59.9451C51.0273 60.0037 50.959 60.1307 50.8613 60.2284C50.7148 60.3944 50.1289 60.4041 36.3008 60.4041C23.0293 60.4041 21.877 60.3944 21.7109 60.2381C21.5742 60.1112 21.5352 59.9354 21.5352 59.3104V58.5487L34.4062 58.5389C41.4766 58.5389 47.3555 58.4998 47.4629 58.451C47.6973 58.3534 47.5801 58.3143 48.5371 58.8026Z" fill="#1742E7"></path><path d="M27.2969 30.033C27.0137 30.3162 27.043 30.7557 27.3555 30.9998C27.6191 31.2049 27.668 31.2049 35.7539 31.2049C43.7715 31.2049 43.8984 31.2049 44.0938 31.0096C44.2109 30.8924 44.2891 30.6873 44.2891 30.4823C44.2891 29.7987 44.7773 29.8377 35.6758 29.8377C27.6191 29.8377 27.4922 29.8377 27.2969 30.033Z" fill="#1742E7"></path><path d="M21.0469 34.4959C20.9004 34.6815 20.8613 34.8377 20.9004 35.0135C21.0469 35.5897 20.2559 35.5506 32.3066 35.5799C38.3906 35.5897 43.498 35.5799 43.6738 35.5506C44.0938 35.4725 44.2891 35.2577 44.2891 34.8768C44.2891 34.1834 45.1973 34.2323 32.5898 34.2323H21.252L21.0469 34.4959Z" fill="#1742E7"></path><path d="M50.3438 39.8475C47.209 40.5604 44.9727 43.5487 45.1973 46.742C45.3828 49.2323 46.8086 51.3319 49.0254 52.3475C49.9922 52.7967 50.6367 52.9334 51.8086 52.9334C52.9805 52.9334 53.6152 52.7967 54.6113 52.3377C56.0273 51.703 57.1016 50.6385 57.7852 49.2225C59.5234 45.5994 57.7266 41.3319 53.9082 40.033C52.9316 39.7108 51.3398 39.6229 50.3438 39.8475ZM53.127 41.2147C54.9141 41.6834 56.4668 43.2362 56.9355 45.0233C57.6582 47.826 55.9004 50.7362 53.0293 51.4686C50.2949 52.1619 47.4043 50.3944 46.6816 47.5623C46.0078 44.8963 47.6875 42.0252 50.3926 41.2537C51.1348 41.0389 52.375 41.0194 53.127 41.2147Z" fill="#1742E7"></path><path d="M54.0449 44.076C53.9473 44.1151 53.3223 44.7791 52.6289 45.5604C51.9453 46.3416 51.3594 46.9862 51.3301 47.0057C51.3008 47.0155 50.9004 46.7616 50.4512 46.4393C49.5625 45.8045 49.1426 45.6971 48.8496 46.0291C48.6152 46.2928 48.6445 46.7616 48.9082 46.9959C49.3477 47.3963 51.1152 48.5877 51.291 48.6073C51.3887 48.6073 51.5449 48.6073 51.6328 48.6073C51.7305 48.5975 52.5117 47.7869 53.3711 46.8006C54.6602 45.3358 54.9336 44.9744 54.9336 44.7205C54.9336 44.5643 54.875 44.3494 54.8164 44.2616C54.6699 44.076 54.2695 43.9784 54.0449 44.076Z" fill="#1742E7"></path></svg>