<svg xmlns="http://www.w3.org/2000/svg" viewBox="0 0 80 80" fill="none"><path d="M79 1V79H1V1H79Z" fill="white"></path><path d="M79 1V79H1V1H79Z" stroke="#E6EAF0" stroke-width="2"></path><path d="M39.6509 16.6406C39.4849 16.7188 39.3188 16.8457 39.2798 16.9434C39.2505 17.0312 39.2212 18.3105 39.2212 19.7852C39.2212 22.334 39.231 22.4707 39.4165 22.6562C39.6313 22.8711 40.1782 22.9199 40.4907 22.7539C40.8032 22.5879 40.8813 22.0117 40.8813 19.668C40.8813 17.1191 40.8325 16.8457 40.3345 16.6406C39.9536 16.4844 40.022 16.4844 39.6509 16.6406Z" fill="#1742E7"></path><path d="M28.313 19.6777C27.9126 19.8438 27.7466 20.3027 27.9321 20.7324C28.1372 21.2305 30.2368 24.834 30.4614 25.0684C30.7349 25.3711 31.2134 25.3613 31.5649 25.0586C32.0435 24.6484 31.9653 24.4043 30.5786 22.0215C29.895 20.8398 29.3091 19.8438 29.27 19.7949C29.104 19.6191 28.606 19.5605 28.313 19.6777Z" fill="#1742E7"></path><path d="M51.0474 19.668C50.7642 19.7656 50.5786 20.0293 49.4165 22.041C48.6938 23.291 48.1079 24.4141 48.1079 24.541C48.1079 24.8535 48.4302 25.2539 48.7524 25.332C49.3286 25.4785 49.4849 25.3027 50.7837 23.0566C52.2485 20.5176 52.2485 20.5078 52.0728 20.0781C51.9067 19.668 51.5063 19.5117 51.0474 19.668Z" fill="#1742E7"></path><path d="M37.6489 26.123C35.7251 26.4453 33.6646 27.2852 31.9751 28.4375C30.813 29.2187 29.1821 30.8496 28.4009 32.0117C27.1899 33.7793 26.3989 35.7715 26.0669 37.832C25.8813 39.0527 25.9399 41.8652 26.1841 42.9395C26.9946 46.5625 29.1724 49.7852 32.1313 51.7383C32.7173 52.1289 33.3716 52.4902 33.5767 52.5586C33.9087 52.6562 33.9868 52.6465 34.2212 52.4707C34.7974 52.041 34.7583 51.4062 34.1138 51.0156C32.2388 49.834 30.8911 48.6426 29.9048 47.2754C28.8696 45.8301 28.0591 43.9062 27.7466 42.1484C27.5513 41.0254 27.561 39.0527 27.7563 37.8809C27.9321 36.875 28.4302 35.3418 28.8696 34.4727C30.3247 31.6016 33.0298 29.2578 36.0962 28.2227C38.9966 27.2461 42.4048 27.4512 45.2661 28.7695C47.6392 29.8633 49.9341 32.0898 51.1353 34.4629C52.5513 37.2852 52.8149 40.8984 51.8091 43.8867C51.1841 45.7617 50.2661 47.2754 48.9087 48.6719C48.1177 49.4727 46.8677 50.4687 46.2329 50.791C45.481 51.1719 45.4712 51.2012 45.4712 52.7344V54.1016H39.4165C33.4888 54.1016 33.3618 54.1016 33.1665 54.2969C32.981 54.4824 32.9712 54.6191 32.9712 56.8359C32.9712 59.0527 32.981 59.1894 33.1665 59.375C33.2837 59.4922 33.4888 59.5703 33.6841 59.5703H33.9966L34.6802 61.3477C35.0513 62.3242 35.4321 63.2031 35.5298 63.3008C35.6958 63.4668 35.9985 63.4766 39.9634 63.4766C42.5317 63.4766 44.2896 63.4375 44.3872 63.3789C44.5728 63.2812 45.0806 62.1484 45.0806 61.8262C45.0806 61.7285 44.9927 61.5332 44.8853 61.4062C44.5044 60.9082 43.6938 61.0156 43.4595 61.582L43.3228 61.9141H36.6919L36.2915 60.8691C36.0669 60.2832 35.8618 59.7559 35.8325 59.6875C35.7935 59.5996 36.9067 59.5703 41.2134 59.5703C46.5161 59.5703 46.6431 59.5703 46.8384 59.375C47.0239 59.1894 47.0337 59.0527 47.0337 55.7324V52.2949L47.7954 51.7871C50.686 49.873 52.7271 47.041 53.6255 43.7012C53.9673 42.4219 54.0747 41.5234 54.0747 40.0293C54.0747 37.7734 53.6743 35.9375 52.7466 34.0137C52.0142 32.4805 51.1646 31.2793 49.9634 30.0781C47.8442 27.959 45.1978 26.5918 42.2974 26.123C41.2231 25.9473 38.6938 25.9473 37.6489 26.123ZM45.4712 57.9102H34.5337V55.6641H45.4712V57.9102Z" fill="#1742E7"></path><path d="M20.1196 27.9004C19.6704 27.9883 19.4263 28.5645 19.6216 29.0332C19.7778 29.4043 23.9673 31.8652 24.4458 31.875C25.188 31.8848 25.5493 30.9277 24.9829 30.4492C24.6411 30.166 20.7837 27.959 20.52 27.9004C20.4126 27.8809 20.2271 27.8809 20.1196 27.9004Z" fill="#1742E7"></path><path d="M59.2798 27.9687C58.7622 28.1934 55.1978 30.2832 54.9731 30.498C54.6606 30.7812 54.6704 31.3379 54.9927 31.6406C55.4419 32.0605 55.686 31.9727 58.0688 30.5859C60.52 29.1602 60.647 29.043 60.3735 28.3691C60.2856 28.1641 60.1196 27.9883 59.9731 27.9297C59.6606 27.8125 59.6509 27.8125 59.2798 27.9687Z" fill="#1742E7"></path><path d="M37.8149 30.8789C37.561 31.2793 37.5806 31.7578 37.854 32.0312C38.0298 32.207 38.1763 32.2266 39.4556 32.2266H40.8716L40.979 32.7832C41.0376 33.0957 41.1646 33.6523 41.2524 34.0332L41.4185 34.7168L42.1021 35.0586C42.4829 35.2441 43.02 35.5664 43.313 35.7715C43.5962 35.9668 43.9087 36.1328 43.9966 36.1328C44.0845 36.1328 44.5923 35.9766 45.1294 35.791C45.6665 35.6055 46.1548 35.4492 46.2134 35.4492C46.2622 35.4492 46.4966 35.7812 46.7212 36.1719L47.1411 36.9043L46.6724 37.3242C46.4185 37.5586 46.0181 37.9199 45.7837 38.1348L45.354 38.5352V41.543L45.7837 41.9434C46.0083 42.1582 46.4185 42.5195 46.6821 42.7441L47.1509 43.1641L46.7407 43.8672C46.5063 44.2578 46.311 44.5898 46.2915 44.6094C46.2817 44.6289 45.7837 44.4824 45.188 44.2969C44.5923 44.1016 44.0454 43.9453 43.9673 43.9453C43.8989 43.9453 43.5962 44.1113 43.313 44.3066C43.02 44.5117 42.4829 44.834 42.1021 45.0195L41.4185 45.3613L41.2524 46.0449C41.1646 46.416 41.0376 46.9824 40.979 47.2852L40.8716 47.8516H39.1431L39.0454 47.3828C38.9868 47.1289 38.8892 46.6406 38.8208 46.2891C38.6645 45.4199 38.5962 45.332 37.981 45.0586C37.688 44.9316 37.1606 44.6191 36.8091 44.3848C36.4575 44.1406 36.0962 43.9453 36.0083 43.9453C35.9204 43.9453 35.4126 44.1016 34.8755 44.2871C34.3384 44.4727 33.8501 44.6289 33.8013 44.6289C33.7427 44.6289 33.5083 44.2969 33.2739 43.8965L32.854 43.1543L33.3325 42.7441C33.5864 42.5195 33.9966 42.1582 34.2212 41.9434L34.6509 41.543V38.5352L34.2212 38.1348C33.9966 37.9199 33.5864 37.5586 33.3325 37.334L32.854 36.9238L33.2739 36.1816C33.5083 35.7812 33.7427 35.4492 33.8013 35.4492C33.8696 35.4492 34.3481 35.6055 34.8853 35.791C35.4126 35.9766 35.9204 36.1328 35.9985 36.1328C36.2915 36.1328 37.9517 34.9609 38.0103 34.707C38.1372 34.2187 37.8638 33.75 37.395 33.6328C37.1509 33.5645 36.7017 33.7402 36.0767 34.1504C35.813 34.3164 35.7837 34.3164 34.6997 33.9551C33.5278 33.5742 33.1079 33.5156 32.8442 33.7109C32.6489 33.8672 31.0474 36.6113 30.9692 36.9434C30.8716 37.3145 31.0767 37.5977 32.0532 38.457L32.9321 39.248L32.9419 40.0391V40.8301L31.9849 41.6699C30.9888 42.5293 30.8228 42.8125 31.0083 43.2715C31.1743 43.7012 32.688 46.2402 32.8442 46.3574C33.1079 46.5625 33.5474 46.5039 34.6802 46.123L35.7446 45.7715L36.438 46.1426C36.8091 46.3477 37.1313 46.5234 37.1411 46.5332C37.1606 46.543 37.2778 47.0703 37.4048 47.7148C37.688 49.0918 37.727 49.1992 37.9614 49.3164C38.186 49.4434 41.8188 49.4434 42.0435 49.3164C42.2778 49.1992 42.3169 49.0918 42.6001 47.7051C42.7271 47.0605 42.8735 46.5234 42.9224 46.5039C42.9712 46.4844 43.2544 46.3281 43.5669 46.1426C43.8794 45.957 44.1821 45.8008 44.2407 45.8008C44.3091 45.8008 44.8169 45.957 45.3735 46.1426C46.4478 46.5039 46.897 46.5625 47.1606 46.3574C47.3267 46.2305 48.9185 43.5254 49.0259 43.1836C49.1528 42.7832 48.9673 42.4902 48.0005 41.6504L47.0337 40.8105V39.2676L47.9517 38.4668C48.8989 37.6465 49.1528 37.2852 49.0356 36.9141C48.9185 36.5527 47.4048 33.9355 47.2095 33.7598C46.9165 33.5156 46.5259 33.5547 45.3345 33.9453L44.27 34.3066L43.5767 33.9355C43.1958 33.7305 42.8735 33.5547 42.8638 33.5449C42.8442 33.5352 42.7271 33.0078 42.6001 32.3633C42.3169 30.9863 42.2778 30.8789 42.0435 30.7617C41.9458 30.7031 40.9985 30.6641 39.9145 30.6641C37.9907 30.6641 37.9517 30.6641 37.8149 30.8789Z" fill="#1742E7"></path><path d="M38.9087 37.0605C38.3521 37.2656 37.7271 37.7344 37.4341 38.1543C36.2622 39.8535 36.9458 42.2754 38.8013 42.9687C39.563 43.252 40.7153 43.2129 41.3892 42.8906C41.9751 42.5977 42.561 42.0117 42.854 41.4258C43.1763 40.7617 43.1763 39.3164 42.854 38.6523C42.561 38.0664 41.9751 37.4805 41.3892 37.1875C40.8228 36.9141 39.4849 36.8359 38.9087 37.0605ZM40.7642 38.7695C41.2036 39.043 41.4673 39.5117 41.4673 40.0488C41.4673 41.1621 40.2368 41.8848 39.2993 41.3379C37.9712 40.5664 38.479 38.5742 40.0024 38.5742C40.2661 38.5742 40.5688 38.6523 40.7642 38.7695Z" fill="#1742E7"></path><path d="M16.7603 39.4531C16.4966 39.7168 16.4966 40.3613 16.7603 40.625C16.9458 40.8105 17.0825 40.8203 19.6509 40.8203C21.2134 40.8203 22.4146 40.7812 22.522 40.7227C22.8931 40.5176 22.9614 39.8047 22.6392 39.4238C22.5024 39.2773 22.2388 39.2578 19.7192 39.2578C17.0825 39.2578 16.9458 39.2676 16.7603 39.4531Z" fill="#1742E7"></path><path d="M57.3462 39.4727C57.1216 39.7852 57.1509 40.3906 57.3853 40.625C57.5708 40.8105 57.7075 40.8203 60.3149 40.8203C62.9224 40.8203 63.0591 40.8105 63.2446 40.625C63.479 40.3906 63.5083 39.7852 63.2837 39.4727C63.1372 39.2578 63.1177 39.2578 60.3149 39.2578C57.5122 39.2578 57.4927 39.2578 57.3462 39.4727Z" fill="#1742E7"></path><path d="M24.2407 48.2129C23.9282 48.291 19.8462 50.6934 19.6704 50.8984C19.4067 51.2012 19.4458 51.6309 19.7778 51.9629C20.1099 52.2852 20.3442 52.3145 20.7935 52.0898C21.6333 51.6504 24.8462 49.7559 25.0415 49.5801C25.3247 49.3164 25.3345 48.7109 25.061 48.4375C24.9536 48.3301 24.8267 48.2422 24.7778 48.2422C24.729 48.2422 24.6313 48.2227 24.5532 48.2031C24.4849 48.1836 24.3481 48.1934 24.2407 48.2129Z" fill="#1742E7"></path><path d="M55.1782 48.2812C54.8364 48.4277 54.7485 48.5937 54.7485 49.0625C54.7485 49.2676 54.8267 49.4531 54.9731 49.5801C55.354 49.9316 59.4653 52.2461 59.7095 52.2461C59.8364 52.2461 60.0708 52.1191 60.2271 51.9629C60.5591 51.6309 60.5981 51.2012 60.3442 50.8984C60.1392 50.6738 56.0083 48.2617 55.686 48.1934C55.5786 48.1641 55.3442 48.2129 55.1782 48.2812Z" fill="#1742E7"></path></svg>