<svg xmlns="http://www.w3.org/2000/svg" viewBox="0 0 80 80" fill="none"><path d="M79 1V79H1V1H79Z" fill="white"></path><path d="M79 1V79H1V1H79Z" stroke="#E6EAF0" stroke-width="2"></path><path d="M51.1328 15.1943C50.9375 15.3896 50.9375 15.5166 50.9375 24.374C50.9375 33.2314 50.9375 33.3584 51.1328 33.5537C51.2598 33.6807 51.4551 33.749 51.7188 33.749C51.9824 33.749 52.1777 33.6807 52.3047 33.5537C52.5 33.3584 52.5 33.2314 52.5 24.96V16.5615H60.3125V23.3975C60.3125 30.1064 60.3125 30.2334 60.5078 30.4287C60.6348 30.5557 60.8301 30.624 61.0938 30.624C61.3574 30.624 61.5527 30.5557 61.6797 30.4287C61.875 30.2334 61.875 30.1064 61.875 22.8115C61.875 15.5166 61.875 15.3896 61.6797 15.1943C61.4941 15.0088 61.3574 14.999 56.4062 14.999C51.4551 14.999 51.3184 15.0088 51.1328 15.1943Z" fill="#1742E7"></path><path d="M34.7266 30.8193C34.541 31.0049 34.5312 31.1416 34.5312 35.7021C34.5312 40.2627 34.541 40.3994 34.7266 40.585C34.9902 40.8486 35.6348 40.8486 35.8984 40.585C36.084 40.3994 36.0938 40.2627 36.0938 36.2881V32.1865H43.9062V38.6318C43.9062 44.9502 43.9062 45.0771 44.1016 45.2725C44.2285 45.3994 44.4238 45.4678 44.6875 45.4678C44.9512 45.4678 45.1465 45.3994 45.2734 45.2725C45.4688 45.0771 45.4688 44.9502 45.4688 38.0459C45.4688 31.1416 45.4688 31.0146 45.2734 30.8193C45.0879 30.6338 44.9512 30.624 40 30.624C35.0488 30.624 34.9121 30.6338 34.7266 30.8193Z" fill="#1742E7"></path><path d="M58.0664 33.124C54.9219 34.0615 52.1191 34.8916 51.8457 34.9697C51.2109 35.1553 50.9375 35.4287 50.9375 35.8779C50.9375 36.1807 51.0645 36.3467 52.0605 37.3525L53.1836 38.4951L42.3438 49.3252L38.9062 45.8975C36.9238 43.9248 35.2734 42.3623 35.0195 42.2158C33.623 41.4248 31.875 41.5029 30.6543 42.4111C30.3809 42.6162 26.9824 46.21 23.0957 50.3994C19.2188 54.5889 15.8105 58.2705 15.5176 58.5732C15.0684 59.0518 15 59.1787 15 59.5205C15 60.0576 15.2539 60.3115 15.791 60.3115C16.0938 60.3115 16.25 60.2529 16.4551 60.0381C16.5918 59.8916 20.0586 56.1611 24.1504 51.7568C29.3652 46.1416 31.6992 43.6807 31.9629 43.5635C32.4609 43.3193 33.0762 43.2705 33.623 43.417C34.0527 43.5342 34.4141 43.8662 38.0078 47.4404L41.9141 51.3271H42.7832L48.9648 45.1455C54.4824 39.6279 55.1465 38.9346 55.2051 38.6025C55.2539 38.251 55.2344 38.2119 54.3066 37.2646C53.6523 36.6104 53.3887 36.2783 53.4863 36.2393C53.5645 36.21 55.6445 35.5947 58.1152 34.8721C60.5859 34.1396 62.7246 33.5049 62.8613 33.4658L63.1152 33.3779L62.5488 36.1318C62.2363 37.6357 61.748 40.0088 61.4648 41.3955L60.9473 43.9053L60.0684 43.0264C58.6523 41.6104 59.7266 40.8389 50.9863 49.5596C43.9453 56.5908 43.5352 56.9814 43.0371 57.1377C42.4512 57.3232 41.8555 57.2939 41.3379 57.0303C41.1719 56.9424 39.2871 55.1455 37.168 53.0264C32.8027 48.6807 33.0176 48.8369 32.2949 49.54C32.0898 49.7451 29.6387 52.499 26.8555 55.6729C24.0723 58.8369 21.3184 61.9717 20.7422 62.626C19.7754 63.7295 19.6875 63.8564 19.6875 64.2178C19.6875 64.7451 19.9512 64.999 20.4785 64.999C20.8203 64.999 20.9375 64.9404 21.2207 64.6377C21.3965 64.4326 24.1309 61.3369 27.2852 57.7529L33.0176 51.2393L36.5332 54.7354C40.3223 58.5146 40.4688 58.6318 41.6992 58.8564C42.4512 58.9932 43.3301 58.876 44.0918 58.5342C44.4434 58.3779 46.0938 56.7764 51.6699 51.21L58.7988 44.1006L59.9219 45.2236C61.0449 46.3564 61.0449 46.3564 61.4746 46.3271C61.7969 46.3076 61.9434 46.2393 62.0801 46.0537C62.2754 45.7803 65 32.8408 65 32.167C65 31.6494 64.7363 31.4053 64.1992 31.415C63.9648 31.415 61.2109 32.1865 58.0664 33.124Z" fill="#1742E7"></path><path d="M18.3203 40.1943C18.125 40.3896 18.125 40.5166 18.125 46.6396C18.125 52.7627 18.125 52.8896 18.3203 53.085C18.4473 53.2119 18.6426 53.2803 18.9062 53.2803C19.1699 53.2803 19.3652 53.2119 19.4922 53.085C19.6875 52.8896 19.6875 52.7627 19.6875 47.2256V41.5615H27.5V42.1475C27.5 42.8799 27.6953 43.124 28.2812 43.124C28.9648 43.124 29.0625 42.9287 29.0625 41.5615C29.0625 40.5166 29.043 40.3701 28.8672 40.1943C28.6816 40.0088 28.5449 39.999 23.5938 39.999C18.6426 39.999 18.5059 40.0088 18.3203 40.1943Z" fill="#1742E7"></path><path d="M60.5078 48.0068C60.3125 48.2021 60.3125 48.3291 60.3125 56.4053C60.3125 64.4814 60.3125 64.6084 60.5078 64.8037C60.7715 65.0674 61.416 65.0674 61.6797 64.8037C61.875 64.6084 61.875 64.4814 61.875 56.4053C61.875 48.3291 61.875 48.2021 61.6797 48.0068C61.5527 47.8799 61.3574 47.8115 61.0938 47.8115C60.8301 47.8115 60.6348 47.8799 60.5078 48.0068Z" fill="#1742E7"></path><path d="M51.1328 52.6943C50.9375 52.8896 50.9375 53.0166 50.9375 58.749C50.9375 64.4814 50.9375 64.6084 51.1328 64.8037C51.2598 64.9307 51.4551 64.999 51.7188 64.999C51.9824 64.999 52.1777 64.9307 52.3047 64.8037C52.5 64.6084 52.5 64.4814 52.5 58.749C52.5 53.0166 52.5 52.8896 52.3047 52.6943C52.1777 52.5674 51.9824 52.499 51.7188 52.499C51.4551 52.499 51.2598 52.5674 51.1328 52.6943Z" fill="#1742E7"></path><path d="M34.7266 55.0381C34.541 55.2236 34.5312 55.3604 34.5312 59.9209C34.5312 64.4814 34.541 64.6182 34.7266 64.8037C34.9902 65.0674 35.6348 65.0674 35.8984 64.8037C36.084 64.6182 36.0938 64.4814 36.0938 59.9209C36.0938 55.3604 36.084 55.2236 35.8984 55.0381C35.7715 54.9111 35.5762 54.8428 35.3125 54.8428C35.0488 54.8428 34.8535 54.9111 34.7266 55.0381Z" fill="#1742E7"></path><path d="M27.6953 58.9443C27.5098 59.1299 27.5 59.2666 27.5 61.874C27.5 64.4814 27.5098 64.6182 27.6953 64.8037C27.8223 64.9307 28.0176 64.999 28.2812 64.999C28.5449 64.999 28.7402 64.9307 28.8672 64.8037C29.0527 64.6182 29.0625 64.4814 29.0625 61.874C29.0625 59.2666 29.0527 59.1299 28.8672 58.9443C28.7402 58.8174 28.5449 58.749 28.2812 58.749C28.0176 58.749 27.8223 58.8174 27.6953 58.9443Z" fill="#1742E7"></path><path d="M44.1016 59.7256C43.916 59.9111 43.9062 60.0479 43.9062 62.2646C43.9062 64.4814 43.916 64.6182 44.1016 64.8037C44.3652 65.0674 45.0098 65.0674 45.2734 64.8037C45.459 64.6182 45.4688 64.4814 45.4688 62.2646C45.4688 60.0479 45.459 59.9111 45.2734 59.7256C45.1465 59.5986 44.9512 59.5303 44.6875 59.5303C44.4238 59.5303 44.2285 59.5986 44.1016 59.7256Z" fill="#1742E7"></path></svg>