<svg xmlns="http://www.w3.org/2000/svg" width="50" height="46" viewBox="0 0 50 46" fill="none"><mask id="path-1-outside-1_1_3" maskUnits="userSpaceOnUse" x="0" y="0" width="50" height="46" fill="black"><rect fill="white" width="50" height="46"></rect><path fill-rule="evenodd" clip-rule="evenodd" d="M27.3442 38.1668C27.3439 38.48 27.0899 38.7344 26.7763 38.7348H24.8865C24.5729 38.7348 24.3186 38.4804 24.3186 38.1668C24.3186 37.8528 24.5729 37.5988 24.8865 37.5988H26.7763C27.0899 37.5988 27.3442 37.8528 27.3442 38.1668ZM21.1698 4.59255C21.1698 4.90615 20.9158 5.16016 20.6022 5.16052C19.1152 5.16195 17.6899 5.75346 16.6382 6.80485C15.5868 7.85625 14.9957 9.28184 14.9939 10.7688C14.9939 11.0824 14.7399 11.3368 14.4259 11.3368C14.1123 11.3368 13.8579 11.0824 13.8579 10.7688C13.8601 8.98072 14.5715 7.26643 15.8358 6.00214C17.1002 4.73811 18.814 4.02674 20.6022 4.02464C20.9158 4.02535 21.1694 4.27931 21.1698 4.59255ZM41.1157 32.4595C43.0364 32.4759 44.8845 31.7246 46.2484 30.3721C47.6127 29.0196 48.3801 27.1784 48.3801 25.2572C48.3801 23.3364 47.6127 21.4948 46.2484 20.1427C44.8844 18.7902 43.0364 18.0385 41.1157 18.0553H40.6251C40.4424 18.0553 40.2708 17.9672 40.1642 17.8191C40.0575 17.6707 40.0286 17.4802 40.0867 17.3068C40.6604 15.5936 40.4282 13.7125 39.4549 12.1902C38.4817 10.6679 36.872 9.66789 35.0757 9.46951C33.2797 9.27115 31.4905 9.8962 30.2087 11.1695C30.046 11.3311 29.802 11.3789 29.5904 11.2911C29.3785 11.2034 29.2404 10.9971 29.2394 10.7677C29.2576 8.46556 28.356 6.25114 26.7341 4.61677C25.1126 2.9824 22.9057 2.06306 20.6032 2.06306C18.3006 2.06306 16.0937 2.9824 14.4722 4.61677C12.8503 6.25114 11.9488 8.46556 11.9669 10.7677V15.0717C11.9669 15.3853 11.7126 15.6397 11.3986 15.6397H10.5456C7.55696 15.6636 4.8056 17.2715 3.31827 19.8638C1.83094 22.456 1.83094 25.6425 3.31827 28.2348C4.8056 30.8271 7.55696 32.4349 10.5456 32.4589H12.5306V23.5887C12.531 23.1006 12.725 22.6325 13.07 22.2872C13.415 21.9422 13.8831 21.7482 14.3711 21.7474H37.2908C37.7788 21.7482 38.2465 21.9422 38.5915 22.2876C38.9365 22.6329 39.1306 23.1006 39.1309 23.5887V32.4596L41.1157 32.4595ZM37.2932 39.6086L37.2929 39.6083C37.6825 39.6079 37.9979 39.2918 37.9979 38.9026V36.7249H13.6653V38.9047C13.6653 39.2943 13.9814 39.6104 14.371 39.6104L37.2932 39.6086ZM27.0157 41.6468H24.6468V40.7442H27.0157V41.6468ZM29.2419 42.9771V43.8612L22.4199 43.8608V42.9767C22.4213 42.8701 22.5077 42.7837 22.6144 42.7827H29.0468C29.1539 42.7837 29.2402 42.8701 29.2416 42.9767L29.2419 42.9771ZM37.9959 35.5875L13.6661 35.5871V23.5881C13.6664 23.1985 13.9822 22.8831 14.3718 22.8827H37.2914C37.681 22.8831 37.9963 23.1988 37.9963 23.5881L37.9959 35.5875ZM41.3733 16.9231C41.7026 15.5432 41.5963 14.0946 41.0693 12.7775C40.4789 11.365 39.4617 10.1727 38.1602 9.36643C36.8591 8.56015 35.3383 8.18095 33.811 8.28114C32.5419 8.38246 31.3268 8.83805 30.304 9.59613C29.9005 6.26966 27.8209 3.38168 24.7938 1.94431C21.7663 0.50731 18.214 0.721299 15.3812 2.51156C12.5484 4.30211 10.8307 7.41878 10.8296 10.7699V14.5063H10.5452H10.5456C7.13528 14.5063 3.98398 16.3254 2.27901 19.279C0.573665 22.2323 0.573665 25.871 2.27901 28.8241C3.98398 31.7773 7.13528 33.5968 10.5456 33.5968H12.5306V38.904C12.531 39.3921 12.725 39.8601 13.07 40.2055C13.415 40.5508 13.8831 40.7449 14.3711 40.7456H23.5107V41.6479L22.6141 41.6482C22.2616 41.6486 21.9234 41.7891 21.674 42.0385C21.4247 42.2879 21.2845 42.6257 21.2837 42.9786V44.432C21.2841 44.7456 21.5381 44.9996 21.8517 45H29.8097C30.1229 44.9996 30.3773 44.7456 30.3777 44.432V42.9786C30.377 42.6257 30.2364 42.2875 29.987 42.0382C29.7377 41.7888 29.3994 41.6486 29.0466 41.6482H28.1504V40.7435H37.2908C37.7789 40.7428 38.247 40.5487 38.5919 40.2033C38.9369 39.858 39.1307 39.3899 39.131 38.9019V33.5947H41.1157C44.0654 33.5972 46.7971 32.041 48.299 29.502C49.801 26.9632 49.8496 23.8198 48.4268 21.2358C47.004 18.6514 44.3219 17.0113 41.3732 16.9228L41.3733 16.9231Z"></path></mask><path fill-rule="evenodd" clip-rule="evenodd" d="M27.3442 38.1668C27.3439 38.48 27.0899 38.7344 26.7763 38.7348H24.8865C24.5729 38.7348 24.3186 38.4804 24.3186 38.1668C24.3186 37.8528 24.5729 37.5988 24.8865 37.5988H26.7763C27.0899 37.5988 27.3442 37.8528 27.3442 38.1668ZM21.1698 4.59255C21.1698 4.90615 20.9158 5.16016 20.6022 5.16052C19.1152 5.16195 17.6899 5.75346 16.6382 6.80485C15.5868 7.85625 14.9957 9.28184 14.9939 10.7688C14.9939 11.0824 14.7399 11.3368 14.4259 11.3368C14.1123 11.3368 13.8579 11.0824 13.8579 10.7688C13.8601 8.98072 14.5715 7.26643 15.8358 6.00214C17.1002 4.73811 18.814 4.02674 20.6022 4.02464C20.9158 4.02535 21.1694 4.27931 21.1698 4.59255ZM41.1157 32.4595C43.0364 32.4759 44.8845 31.7246 46.2484 30.3721C47.6127 29.0196 48.3801 27.1784 48.3801 25.2572C48.3801 23.3364 47.6127 21.4948 46.2484 20.1427C44.8844 18.7902 43.0364 18.0385 41.1157 18.0553H40.6251C40.4424 18.0553 40.2708 17.9672 40.1642 17.8191C40.0575 17.6707 40.0286 17.4802 40.0867 17.3068C40.6604 15.5936 40.4282 13.7125 39.4549 12.1902C38.4817 10.6679 36.872 9.66789 35.0757 9.46951C33.2797 9.27115 31.4905 9.8962 30.2087 11.1695C30.046 11.3311 29.802 11.3789 29.5904 11.2911C29.3785 11.2034 29.2404 10.9971 29.2394 10.7677C29.2576 8.46556 28.356 6.25114 26.7341 4.61677C25.1126 2.9824 22.9057 2.06306 20.6032 2.06306C18.3006 2.06306 16.0937 2.9824 14.4722 4.61677C12.8503 6.25114 11.9488 8.46556 11.9669 10.7677V15.0717C11.9669 15.3853 11.7126 15.6397 11.3986 15.6397H10.5456C7.55696 15.6636 4.8056 17.2715 3.31827 19.8638C1.83094 22.456 1.83094 25.6425 3.31827 28.2348C4.8056 30.8271 7.55696 32.4349 10.5456 32.4589H12.5306V23.5887C12.531 23.1006 12.725 22.6325 13.07 22.2872C13.415 21.9422 13.8831 21.7482 14.3711 21.7474H37.2908C37.7788 21.7482 38.2465 21.9422 38.5915 22.2876C38.9365 22.6329 39.1306 23.1006 39.1309 23.5887V32.4596L41.1157 32.4595ZM37.2932 39.6086L37.2929 39.6083C37.6825 39.6079 37.9979 39.2918 37.9979 38.9026V36.7249H13.6653V38.9047C13.6653 39.2943 13.9814 39.6104 14.371 39.6104L37.2932 39.6086ZM27.0157 41.6468H24.6468V40.7442H27.0157V41.6468ZM29.2419 42.9771V43.8612L22.4199 43.8608V42.9767C22.4213 42.8701 22.5077 42.7837 22.6144 42.7827H29.0468C29.1539 42.7837 29.2402 42.8701 29.2416 42.9767L29.2419 42.9771ZM37.9959 35.5875L13.6661 35.5871V23.5881C13.6664 23.1985 13.9822 22.8831 14.3718 22.8827H37.2914C37.681 22.8831 37.9963 23.1988 37.9963 23.5881L37.9959 35.5875ZM41.3733 16.9231C41.7026 15.5432 41.5963 14.0946 41.0693 12.7775C40.4789 11.365 39.4617 10.1727 38.1602 9.36643C36.8591 8.56015 35.3383 8.18095 33.811 8.28114C32.5419 8.38246 31.3268 8.83805 30.304 9.59613C29.9005 6.26966 27.8209 3.38168 24.7938 1.94431C21.7663 0.50731 18.214 0.721299 15.3812 2.51156C12.5484 4.30211 10.8307 7.41878 10.8296 10.7699V14.5063H10.5452H10.5456C7.13528 14.5063 3.98398 16.3254 2.27901 19.279C0.573665 22.2323 0.573665 25.871 2.27901 28.8241C3.98398 31.7773 7.13528 33.5968 10.5456 33.5968H12.5306V38.904C12.531 39.3921 12.725 39.8601 13.07 40.2055C13.415 40.5508 13.8831 40.7449 14.3711 40.7456H23.5107V41.6479L22.6141 41.6482C22.2616 41.6486 21.9234 41.7891 21.674 42.0385C21.4247 42.2879 21.2845 42.6257 21.2837 42.9786V44.432C21.2841 44.7456 21.5381 44.9996 21.8517 45H29.8097C30.1229 44.9996 30.3773 44.7456 30.3777 44.432V42.9786C30.377 42.6257 30.2364 42.2875 29.987 42.0382C29.7377 41.7888 29.3994 41.6486 29.0466 41.6482H28.1504V40.7435H37.2908C37.7789 40.7428 38.247 40.5487 38.5919 40.2033C38.9369 39.858 39.1307 39.3899 39.131 38.9019V33.5947H41.1157C44.0654 33.5972 46.7971 32.041 48.299 29.502C49.801 26.9632 49.8496 23.8198 48.4268 21.2358C47.004 18.6514 44.3219 17.0113 41.3732 16.9228L41.3733 16.9231Z" fill="white"></path><path fill-rule="evenodd" clip-rule="evenodd" d="M27.3442 38.1668C27.3439 38.48 27.0899 38.7344 26.7763 38.7348H24.8865C24.5729 38.7348 24.3186 38.4804 24.3186 38.1668C24.3186 37.8528 24.5729 37.5988 24.8865 37.5988H26.7763C27.0899 37.5988 27.3442 37.8528 27.3442 38.1668ZM21.1698 4.59255C21.1698 4.90615 20.9158 5.16016 20.6022 5.16052C19.1152 5.16195 17.6899 5.75346 16.6382 6.80485C15.5868 7.85625 14.9957 9.28184 14.9939 10.7688C14.9939 11.0824 14.7399 11.3368 14.4259 11.3368C14.1123 11.3368 13.8579 11.0824 13.8579 10.7688C13.8601 8.98072 14.5715 7.26643 15.8358 6.00214C17.1002 4.73811 18.814 4.02674 20.6022 4.02464C20.9158 4.02535 21.1694 4.27931 21.1698 4.59255ZM41.1157 32.4595C43.0364 32.4759 44.8845 31.7246 46.2484 30.3721C47.6127 29.0196 48.3801 27.1784 48.3801 25.2572C48.3801 23.3364 47.6127 21.4948 46.2484 20.1427C44.8844 18.7902 43.0364 18.0385 41.1157 18.0553H40.6251C40.4424 18.0553 40.2708 17.9672 40.1642 17.8191C40.0575 17.6707 40.0286 17.4802 40.0867 17.3068C40.6604 15.5936 40.4282 13.7125 39.4549 12.1902C38.4817 10.6679 36.872 9.66789 35.0757 9.46951C33.2797 9.27115 31.4905 9.8962 30.2087 11.1695C30.046 11.3311 29.802 11.3789 29.5904 11.2911C29.3785 11.2034 29.2404 10.9971 29.2394 10.7677C29.2576 8.46556 28.356 6.25114 26.7341 4.61677C25.1126 2.9824 22.9057 2.06306 20.6032 2.06306C18.3006 2.06306 16.0937 2.9824 14.4722 4.61677C12.8503 6.25114 11.9488 8.46556 11.9669 10.7677V15.0717C11.9669 15.3853 11.7126 15.6397 11.3986 15.6397H10.5456C7.55696 15.6636 4.8056 17.2715 3.31827 19.8638C1.83094 22.456 1.83094 25.6425 3.31827 28.2348C4.8056 30.8271 7.55696 32.4349 10.5456 32.4589H12.5306V23.5887C12.531 23.1006 12.725 22.6325 13.07 22.2872C13.415 21.9422 13.8831 21.7482 14.3711 21.7474H37.2908C37.7788 21.7482 38.2465 21.9422 38.5915 22.2876C38.9365 22.6329 39.1306 23.1006 39.1309 23.5887V32.4596L41.1157 32.4595ZM37.2932 39.6086L37.2929 39.6083C37.6825 39.6079 37.9979 39.2918 37.9979 38.9026V36.7249H13.6653V38.9047C13.6653 39.2943 13.9814 39.6104 14.371 39.6104L37.2932 39.6086ZM27.0157 41.6468H24.6468V40.7442H27.0157V41.6468ZM29.2419 42.9771V43.8612L22.4199 43.8608V42.9767C22.4213 42.8701 22.5077 42.7837 22.6144 42.7827H29.0468C29.1539 42.7837 29.2402 42.8701 29.2416 42.9767L29.2419 42.9771ZM37.9959 35.5875L13.6661 35.5871V23.5881C13.6664 23.1985 13.9822 22.8831 14.3718 22.8827H37.2914C37.681 22.8831 37.9963 23.1988 37.9963 23.5881L37.9959 35.5875ZM41.3733 16.9231C41.7026 15.5432 41.5963 14.0946 41.0693 12.7775C40.4789 11.365 39.4617 10.1727 38.1602 9.36643C36.8591 8.56015 35.3383 8.18095 33.811 8.28114C32.5419 8.38246 31.3268 8.83805 30.304 9.59613C29.9005 6.26966 27.8209 3.38168 24.7938 1.94431C21.7663 0.50731 18.214 0.721299 15.3812 2.51156C12.5484 4.30211 10.8307 7.41878 10.8296 10.7699V14.5063H10.5452H10.5456C7.13528 14.5063 3.98398 16.3254 2.27901 19.279C0.573665 22.2323 0.573665 25.871 2.27901 28.8241C3.98398 31.7773 7.13528 33.5968 10.5456 33.5968H12.5306V38.904C12.531 39.3921 12.725 39.8601 13.07 40.2055C13.415 40.5508 13.8831 40.7449 14.3711 40.7456H23.5107V41.6479L22.6141 41.6482C22.2616 41.6486 21.9234 41.7891 21.674 42.0385C21.4247 42.2879 21.2845 42.6257 21.2837 42.9786V44.432C21.2841 44.7456 21.5381 44.9996 21.8517 45H29.8097C30.1229 44.9996 30.3773 44.7456 30.3777 44.432V42.9786C30.377 42.6257 30.2364 42.2875 29.987 42.0382C29.7377 41.7888 29.3994 41.6486 29.0466 41.6482H28.1504V40.7435H37.2908C37.7789 40.7428 38.247 40.5487 38.5919 40.2033C38.9369 39.858 39.1307 39.3899 39.131 38.9019V33.5947H41.1157C44.0654 33.5972 46.7971 32.041 48.299 29.502C49.801 26.9632 49.8496 23.8198 48.4268 21.2358C47.004 18.6514 44.3219 17.0113 41.3732 16.9228L41.3733 16.9231Z" stroke="white" stroke-width="0.4" mask="url(#path-1-outside-1_1_3)"></path></svg>