<svg xmlns="http://www.w3.org/2000/svg" width="42" height="37" viewBox="0 0 42 37" fill="none"><path d="M40.7305 29.3924H38.8089L38.8086 2.23286C38.8086 1.20809 37.9758 0.375295 36.951 0.375295L4.09016 0.375C3.06538 0.375 2.23259 1.20779 2.23259 2.23257V29.3928H1.01553C0.631276 29.3928 0.375 29.6491 0.375 30.0334C0.375 33.4923 3.19339 36.375 6.71661 36.375H35.0296C38.5529 36.375 41.3712 33.5566 41.3712 30.0334C41.3712 29.7134 41.115 29.3928 40.7307 29.3928L40.7305 29.3924ZM3.51352 2.23286C3.51352 1.9126 3.76979 1.65633 4.09005 1.65633H36.8875C37.2078 1.65633 37.464 1.9126 37.464 2.23286V29.3931L3.51377 29.3928L3.51352 2.23286ZM35.0291 35.0938H6.71603C4.15387 35.0938 2.04 33.1722 1.71944 30.6738H40.0892C39.705 33.1722 37.5911 35.0938 35.029 35.0938H35.0291Z" fill="white"></path><path d="M28.1114 10.816C27.5349 2.04035 14.4037 2.16794 13.7628 10.752C11.1364 10.624 8.51025 12.8018 8.51025 15.8125C8.51025 18.5669 10.7521 20.873 13.5708 20.873H15.4283V25.5491H12.4817C12.0974 25.5491 11.8412 25.8054 11.8412 26.1896C11.8412 26.5739 12.0974 26.8301 12.4817 26.8301H16.0689C16.4532 26.8301 16.7095 26.5739 16.7095 26.1896V15.3001C16.7095 14.9159 16.4532 14.6596 16.0689 14.6596C15.6847 14.6596 15.4284 14.9159 15.4284 15.3001V19.6559H13.5708C11.457 19.6559 9.79138 17.9903 9.79138 15.8764C9.79138 13.3782 12.1616 11.6486 14.2114 12.1612C14.4037 12.2252 14.5957 12.1612 14.7879 12.0332C14.9159 11.9052 15.0442 11.7129 15.0442 11.5207C14.9159 3.57777 26.8305 3.51359 26.8305 11.3927C26.8305 11.7769 27.0868 12.0332 27.4711 12.0332C29.5849 12.0332 31.2505 13.6988 31.2505 15.8127C31.2505 17.8625 29.5849 19.5921 27.4711 19.5921H25.6135V15.2364C25.6135 14.8521 25.3572 14.5959 24.973 14.5959C24.5887 14.5959 24.3324 14.8521 24.3324 15.2364V26.19C24.3324 26.5743 24.5887 26.8306 24.973 26.8306L28.5599 26.8303C28.9442 26.8303 29.2005 26.574 29.2005 26.1897C29.2005 25.8055 28.9442 25.5492 28.5599 25.5492H25.6133V20.8732H27.4708C30.2892 20.8732 32.5313 18.6313 32.5313 15.8126C32.5316 13.2502 30.6098 11.1364 28.1116 10.816L28.1114 10.816Z" fill="white"></path><path d="M20.4886 14.6594C20.1044 14.6594 19.8481 14.9157 19.8481 15.3V26.2536C19.8481 26.6379 20.1044 26.8941 20.4886 26.8941C20.8729 26.8941 21.1292 26.6379 21.1292 26.2536V15.3C21.1292 14.9157 20.8729 14.6594 20.4886 14.6594Z" fill="white"></path><path d="M23.6912 32.2748H17.9901C17.6058 32.2748 17.3495 32.5311 17.3495 32.9153C17.3495 33.2996 17.6058 33.5559 17.9901 33.5559H23.6912C24.0754 33.5559 24.3317 33.2996 24.3317 32.9153C24.3317 32.5311 24.0757 32.2748 23.6912 32.2748Z" fill="white"></path></svg>