<svg xmlns="http://www.w3.org/2000/svg" width="44" height="44" viewBox="0 0 44 44" fill="none"><path fill-rule="evenodd" clip-rule="evenodd" d="M18.6785 0.199597C18.4734 0.380298 18.4267 0.55896 18.1851 2.08468C18.0384 3.01169 17.9002 3.85044 17.8781 3.94847C17.8463 4.09005 17.6715 4.17024 17.0315 4.33728C15.9677 4.61477 14.1723 5.34973 13.1527 5.92501C12.7022 6.17916 12.3099 6.3871 12.2808 6.3871C12.2517 6.3871 11.6022 5.93397 10.8377 5.38006C9.21392 4.20386 9.11873 4.14833 8.84435 4.21717C8.58834 4.28148 4.29772 8.57326 4.21744 8.84542C4.1407 9.10552 4.20457 9.21498 5.38006 10.8377C5.93397 11.6022 6.3871 12.2517 6.3871 12.2808C6.3871 12.3099 6.17916 12.7022 5.92501 13.1527C5.34973 14.1723 4.61477 15.9677 4.33728 17.0315C4.17024 17.6715 4.09005 17.8463 3.94847 17.8781C3.85044 17.9002 3.01169 18.0384 2.08468 18.1851C0.55896 18.4267 0.380298 18.4734 0.199597 18.6785C0.000709668 18.9042 0 18.9167 0 22C0 25.0835 0.000709668 25.0958 0.199597 25.321C0.380121 25.5256 0.560113 25.5726 2.08468 25.8135C3.01169 25.9601 3.85044 26.0984 3.94847 26.121C4.08987 26.1536 4.17051 26.3294 4.33728 26.9685C4.61477 28.0323 5.34973 29.8277 5.92501 30.8473C6.17916 31.2977 6.3871 31.6901 6.3871 31.7192C6.3871 31.7483 5.93397 32.3977 5.38006 33.1623C4.20457 34.785 4.1407 34.8945 4.21744 35.1546C4.29772 35.4267 8.58834 39.7185 8.84435 39.7828C9.11909 39.8518 9.21277 39.797 10.8559 38.6066L12.2643 37.5864L12.8519 37.9153C14.2095 38.6753 15.9481 39.3936 17.191 39.7081C17.6924 39.835 17.8466 39.9119 17.8779 40.0508C17.9001 40.1493 18.0384 40.9883 18.1851 41.9153C18.4267 43.441 18.4734 43.6197 18.6785 43.8004C18.9042 43.9993 18.9167 44 22 44C25.0835 44 25.0958 43.9993 25.3211 43.8004C25.5223 43.6228 25.572 43.4445 25.7722 42.1815C25.896 41.4008 26.0188 40.6539 26.0453 40.5216C26.0925 40.2844 26.1006 40.289 26.6327 40.8578C28.773 43.1458 32.1522 44.3382 35.268 43.9049C40.7467 43.1428 44.6593 38.0193 43.9049 32.5949C43.5957 30.3722 42.4419 28.1145 40.8578 26.6327C40.289 26.1006 40.2844 26.0925 40.5216 26.0453C40.6539 26.0188 41.4008 25.896 42.1815 25.7722C43.4445 25.572 43.6228 25.5223 43.8004 25.3211C43.9993 25.0958 44 25.0835 44 22C44 18.9167 43.9993 18.9042 43.8004 18.6785C43.6197 18.4734 43.441 18.4267 41.9153 18.1851C40.9883 18.0384 40.1493 17.9001 40.0508 17.8779C39.9119 17.8466 39.835 17.6924 39.7081 17.191C39.3936 15.9481 38.6753 14.2095 37.9153 12.8519L37.5864 12.2643L38.6066 10.8559C39.7961 9.21392 39.8594 9.10587 39.7826 8.84542C39.7023 8.57326 35.4117 4.28148 35.1556 4.21717C34.8806 4.14815 34.7855 4.20386 33.1462 5.39452L31.7401 6.41593L31.1502 6.08584C29.7901 5.32453 28.0527 4.6066 26.809 4.29186C26.3076 4.16501 26.1534 4.0881 26.1221 3.94918C26.0999 3.85071 25.9616 3.01169 25.8149 2.08468C25.5733 0.55896 25.5266 0.380298 25.3215 0.199597C25.0958 0.000709668 25.0833 0 22 0C18.9167 0 18.9042 0.000709668 18.6785 0.199597ZM24.5595 3.21573C24.7692 4.5194 24.891 5.05539 25.0037 5.16982C25.0891 5.25658 25.5959 5.44278 26.13 5.58365C27.8824 6.04592 29.2677 6.62094 30.728 7.49233C31.181 7.76272 31.6499 7.98387 31.77 7.98387C31.908 7.98387 32.5365 7.58796 33.4791 6.90729L34.97 5.83062L36.5575 7.41639C37.4308 8.28859 38.1443 9.02257 38.1431 9.0475C38.1421 9.07234 37.663 9.74955 37.0786 10.5524C36.3998 11.4849 36.0161 12.0913 36.0161 12.2317C36.0161 12.3526 36.2537 12.8534 36.544 13.3447C37.4222 14.8306 37.9531 16.1138 38.4163 17.87C38.5572 18.4041 38.7434 18.9109 38.8302 18.9964C38.9442 19.1087 39.4577 19.227 40.6811 19.4227C41.6124 19.5717 42.4208 19.6935 42.4775 19.6935C42.5532 19.6935 42.5806 20.3063 42.5806 22C42.5806 23.6937 42.5532 24.3065 42.4775 24.3065C42.1378 24.3065 38.9907 24.8631 38.8565 24.9469C38.7242 25.0296 38.5601 24.9872 37.9716 24.7182C37.5742 24.5366 37.0017 24.323 36.6992 24.2437L36.1492 24.0995L36.1468 22.0517C36.1447 20.2727 36.1189 19.8905 35.95 19.1383C35.3022 16.2534 34.0881 14.034 32.0283 11.9688C29.9628 9.89805 27.5372 8.58931 24.692 8.01057C23.4795 7.76396 20.322 7.78711 19.1383 8.0512C16.2594 8.69373 14.0278 9.91419 11.9709 11.9709C9.91455 14.0274 8.69621 16.2549 8.05058 19.1383C7.88274 19.8883 7.85675 20.271 7.85675 22C7.85675 24.1969 7.95264 24.8564 8.51648 26.5393C9.90284 30.6775 13.3225 34.0972 17.4607 35.4835C19.1544 36.051 19.7991 36.1441 22.0517 36.1468L24.0995 36.1492L24.2437 36.6992C24.323 37.0017 24.5366 37.5742 24.7182 37.9716C24.9868 38.5591 25.0295 38.7243 24.9472 38.8561C24.8916 38.9452 24.7166 39.8196 24.5584 40.7994L24.2707 42.5806H21.9822C20.3019 42.5806 19.6935 42.5532 19.6935 42.4775C19.6935 42.4208 19.5726 41.6124 19.4249 40.6811C19.1085 38.6865 19.1136 38.6945 18.0375 38.4553C16.5533 38.1254 14.9161 37.4592 13.3727 36.5571C12.8637 36.2595 12.3494 36.0161 12.2296 36.0161C12.0919 36.0161 11.4758 36.4064 10.5524 37.0786C9.74955 37.663 9.07234 38.1421 9.0475 38.1431C9.02257 38.1443 8.2885 37.4306 7.41613 36.5573L5.83009 34.9694L6.03998 34.6722C6.15548 34.5088 6.64001 33.8388 7.11691 33.1835C7.6646 32.4307 7.98387 31.9102 7.98387 31.7702C7.98387 31.6482 7.74631 31.1466 7.45596 30.6553C6.57782 29.1694 6.0469 27.8862 5.58365 26.13C5.44278 25.5959 5.25658 25.0891 5.16982 25.0037C5.05539 24.891 4.5194 24.7692 3.21573 24.5595L1.41935 24.2707V21.9994V19.7281L3.21573 19.4417C4.53661 19.231 5.05388 19.1137 5.16982 18.9981C5.25658 18.9117 5.44278 18.4041 5.58365 17.87C6.0469 16.1138 6.57782 14.8306 7.45596 13.3447C7.74631 12.8534 7.98387 12.3526 7.98387 12.2317C7.98387 12.0913 7.6002 11.4849 6.9214 10.5524C6.33698 9.74955 5.85794 9.07234 5.85688 9.0475C5.85573 9.02257 6.5694 8.2885 7.44274 7.41613L9.03065 5.83009L9.32782 6.03998C9.49123 6.15548 10.1612 6.64001 10.8165 7.11691C11.562 7.65928 12.0903 7.98387 12.2277 7.98387C12.3485 7.98387 12.8635 7.74063 13.3722 7.44327C14.9045 6.54766 17.0402 5.70385 18.3847 5.46292C19.0589 5.3421 19.1258 5.20424 19.4249 3.31889C19.5726 2.38762 19.6935 1.57921 19.6935 1.52252C19.6935 1.44677 20.3019 1.41935 21.9822 1.41935H24.2707L24.5595 3.21573ZM24.5726 9.43631C28.9041 10.4337 32.3132 13.2927 33.8934 17.2531C34.4496 18.6472 34.697 19.8535 34.7502 21.4314C34.7766 22.2164 34.7699 23.0847 34.7354 23.3608L34.6727 23.8629H33.848C32.8095 23.8629 31.6644 24.0597 30.6935 24.4047C30.2788 24.5523 29.8696 24.6949 29.7843 24.7218C29.6438 24.7661 29.629 24.6898 29.629 23.9209C29.629 22.7537 29.4275 22.2264 28.7054 21.5046C27.8832 20.6828 26.6139 20.1708 24.6406 19.8648L23.9546 19.7584L24.4433 19.2305C25.2792 18.3277 25.7113 17.2746 25.7891 15.951C25.8499 14.9176 25.7217 14.1727 25.3651 13.4874C25.0531 12.8879 24.9091 12.7171 24.3669 12.3031C23.168 11.3879 20.8364 11.3847 19.6418 12.2965C19.1006 12.7097 18.8644 12.9885 18.5984 13.5282C18.2757 14.1833 18.1522 14.9549 18.2109 15.951C18.2887 17.2754 18.7208 18.3277 19.5582 19.2322L20.0486 19.7618L19.5384 19.8249C18.6704 19.9324 17.1066 20.3653 16.4556 20.6784C15.6081 21.0859 14.8206 21.8678 14.5628 22.5578C14.3776 23.0532 14.371 23.1978 14.371 26.6985V30.3258L14.6047 30.5097C14.8346 30.6905 14.9172 30.6935 19.5996 30.6935H24.3607L24.1489 31.5141C24.0024 32.0814 23.9217 32.6959 23.8876 33.5053L23.8382 34.6758L23.3484 34.737C23.0791 34.7706 22.2164 34.7766 21.4314 34.7502C20.2379 34.71 19.8348 34.6584 18.9707 34.4359C16.5847 33.8217 14.6225 32.7167 12.9529 31.0471C11.2897 29.3838 10.1962 27.4463 9.5566 25.0293C9.29314 24.0338 9.28294 23.9262 9.27664 22.0887C9.27131 20.5262 9.29997 20.0532 9.43516 19.4718C10.274 15.8634 12.1356 13.1557 15.1035 11.2267C16.6155 10.244 18.4798 9.5535 20.3589 9.2801C20.9534 9.1936 24.0108 9.30698 24.5726 9.43631ZM23.3592 13.3369C24.1336 13.7907 24.4501 14.5792 24.3727 15.8626C24.2658 17.636 23.2713 18.9157 22 18.9157C21.1065 18.9157 20.2985 18.2403 19.8529 17.121C19.694 16.7219 19.6577 16.4473 19.6539 15.6129C19.6497 14.7153 19.6743 14.5418 19.8578 14.169C20.2615 13.3493 20.9318 13.0246 22.1374 13.0646C22.8263 13.0875 22.9997 13.1262 23.3592 13.3369ZM25.056 21.3759C26.7103 21.7347 27.5326 22.1444 27.9787 22.8325C28.1989 23.1722 28.2097 23.245 28.2097 24.4055V25.6222L27.8327 25.9108C27.6253 26.0695 27.246 26.4008 26.9899 26.6471L26.5242 27.0948V26.0043C26.5242 24.9173 26.5234 24.913 26.2649 24.6545C26.1222 24.5118 25.9407 24.3952 25.8613 24.3952C25.6421 24.3952 25.222 24.6366 25.1599 24.7983C25.1297 24.8773 25.1048 25.8535 25.1048 26.9677C25.1048 28.0819 25.0806 29.0567 25.051 29.1339C25.0034 29.258 24.6464 29.2742 21.9462 29.2742H18.8952V27.1081C18.8952 25.9167 18.8703 24.8773 18.8401 24.7983C18.778 24.6366 18.3579 24.3952 18.1387 24.3952C18.0593 24.3952 17.8777 24.5118 17.7351 24.6545L17.4758 24.9138V27.094V29.2742H16.6331H15.7903V26.2315V23.1887L16.0213 22.8325C16.4937 22.104 17.5376 21.6301 19.4274 21.2862C20.7458 21.0464 23.7573 21.0944 25.056 21.3759ZM35.6169 25.4503C37.2826 25.7958 38.6928 26.5387 39.9033 27.7085C41.0873 28.8526 41.8748 30.1814 42.2889 31.7343C42.6095 32.9367 42.628 34.7835 42.3314 35.9665C41.6955 38.5014 39.9595 40.6165 37.5958 41.7363C36.3097 42.3455 35.4361 42.5313 33.8871 42.5251C32.7946 42.5208 32.471 42.4854 31.7396 42.2902C27.9456 41.2781 25.2846 37.8324 25.2846 33.9315C25.2846 29.8386 28.1607 26.314 32.2016 25.4551C33.2111 25.2404 34.5963 25.2385 35.6169 25.4503ZM37.879 29.4506C37.7083 29.4826 37.4488 29.573 37.3024 29.6517C37.156 29.7303 36.0188 30.8151 34.7753 32.0622L32.5142 34.3298L31.6261 33.4521C30.5772 32.4157 30.3098 32.2595 29.5847 32.2599C28.0968 32.2607 27.0824 33.7913 27.6832 35.129C27.903 35.6186 31.087 38.8599 31.625 39.1419C32.1295 39.4063 32.9146 39.4038 33.4617 39.1359C33.7713 38.9844 34.6664 38.1261 36.9298 35.8106C38.6078 34.094 40.0553 32.5498 40.1466 32.379C40.386 31.9313 40.3726 31.0306 40.1196 30.5495C39.695 29.7423 38.7637 29.2856 37.879 29.4506ZM38.7971 31.1607C38.9137 31.3169 38.9486 31.4596 38.9089 31.6179C38.8737 31.7582 37.6657 33.0436 35.8147 34.9105C33.4564 37.2888 32.7299 37.9723 32.5618 37.9703C32.401 37.9684 31.9146 37.5394 30.6731 36.3044C29.7534 35.3897 28.9775 34.5482 28.9488 34.4347C28.8309 33.9677 29.4001 33.4966 29.8206 33.713C29.9348 33.7718 30.5307 34.314 31.1447 34.918C32.1278 35.8849 32.2974 36.0165 32.5641 36.0191C32.8448 36.022 33.0477 35.8381 35.3508 33.4924C36.7169 32.1011 37.9345 30.9273 38.0565 30.884C38.3401 30.7834 38.5832 30.8742 38.7971 31.1607Z" fill="white"></path></svg>