<svg xmlns="http://www.w3.org/2000/svg" width="44" height="44" viewBox="0 0 44 44" fill="none"><path d="M39.1176 23.9151V6.06042C39.1176 5.8314 39.0269 5.61175 38.8648 5.4497C38.7028 5.28764 38.4831 5.19657 38.2538 5.19657H32.0316V1.26031C32.0303 0.784186 31.6439 0.398438 31.1674 0.398438C30.6913 0.398438 30.3049 0.78416 30.3036 1.26031V5.19657H9.21476V1.26031C9.21376 0.784186 8.82703 0.398438 8.35091 0.398438C7.87445 0.398438 7.48809 0.78416 7.48706 1.26031V5.19657H1.26388C1.03486 5.19657 0.814875 5.28764 0.652819 5.4497C0.490764 5.61175 0.400024 5.8314 0.400024 6.06042V37.3185C0.400024 37.5479 0.490764 37.7675 0.652819 37.9296C0.814875 38.0916 1.03486 38.1827 1.26388 38.1827H23.3101C24.9579 41.0191 27.7972 42.9607 31.038 43.4676C34.2788 43.9746 37.5752 42.9925 40.0108 40.7946C42.4456 38.5968 43.7595 35.4177 43.5864 32.1416C43.413 28.866 41.7716 25.8432 39.1181 23.9146L39.1176 23.9151ZM7.48741 6.92444V9.6677C7.48675 9.89739 7.57749 10.1174 7.73954 10.2801C7.9016 10.4425 8.12158 10.5336 8.35127 10.5336C8.58063 10.5336 8.80062 10.4425 8.96267 10.2801C9.12473 10.1174 9.2158 9.89739 9.21513 9.6677V6.92444H30.3039V9.6677C30.3036 9.89739 30.3943 10.1174 30.5564 10.2801C30.7185 10.4425 30.9384 10.5336 31.1678 10.5336C31.3975 10.5336 31.6175 10.4425 31.7795 10.2801C31.9416 10.1174 32.0323 9.89739 32.032 9.6677V6.92444H37.3903V12.4558H2.12828V6.92444H7.48741ZM2.12817 36.4554V14.1846H37.3902V22.8831C34.7721 21.6382 31.7657 21.4888 29.0372 22.4682C26.309 23.4476 24.0837 25.4746 22.8552 28.1004C21.6268 30.7261 21.4962 33.7335 22.493 36.4557L2.12817 36.4554ZM32.7152 41.8702C30.286 41.8702 27.9566 40.9052 26.2392 39.1879C24.5216 37.4702 23.5566 35.1408 23.5566 32.712C23.5566 30.2831 24.5212 27.9537 26.2389 26.236C27.9562 24.5187 30.2857 23.5537 32.7149 23.5537C35.1437 23.5537 37.4731 24.5187 39.1905 26.236C40.9081 27.9537 41.8731 30.2831 41.8731 32.712C41.8701 35.1398 40.9045 37.4675 39.1878 39.1846C37.4708 40.9015 35.143 41.8672 32.7152 41.8702ZM36.7908 28.6365C37.1279 28.974 37.1279 29.5208 36.7908 29.8583L33.3263 33.3228H33.3259C33.1639 33.4848 32.9442 33.5759 32.7152 33.5759C32.4859 33.5759 32.2662 33.4848 32.1041 33.3228L27.6204 28.8391C27.2832 28.5015 27.2832 27.9545 27.6207 27.6173C27.9583 27.2797 28.5053 27.2801 28.8425 27.6176L32.7149 31.4899L35.5683 28.6365H35.5686C35.7307 28.4744 35.9503 28.3834 36.1797 28.3834C36.4087 28.3834 36.6287 28.4744 36.7908 28.6365Z" fill="white"></path></svg>